<svg xmlns="http://www.w3.org/2000/svg" id="ParaTodos_-_Logo" data-name="ParaTodos - Logo" width="280.788" height="60.561" viewBox="0 0 280.788 60.561"><path id="Path_1" data-name="Path 1" d="M84.5,55.049l-1.568-4.156-1.625,4.156H84.5ZM67.378,24.715a1.511,1.511,0,0,0-.653.154l-.767.409c-.456.242-.907.485-1.424.746-.467.237-.893.46-1.249.661a4.983,4.983,0,0,0-.8.447l-.367.219c-1.679.84-1.679.84-4.8,2.47l-.445.235a7.49,7.49,0,0,1-4.032,1.273A4.671,4.671,0,0,1,50.6,30.262c-1.657-1.245-3.146-2.58-4.721-3.991l-.611-.542c-1.471-1.683-2.794-3.171-4.038-4.545-.105-.116-.205-.235-.308-.355a8.27,8.27,0,0,0-.814-.868,1.541,1.541,0,0,0-.856-.372,1.89,1.89,0,0,0-.375-.038,1.837,1.837,0,0,0-.783.182l-1,.53c-.574.308-1.149.615-1.8.943-.6.3-1.134.588-1.6.846a6.022,6.022,0,0,0-1,.564c-.158.091-.31.182-.477.282-2.141,1.071-2.141,1.071-6.119,3.146l-.564.3c-1.666.883-3.385,1.8-5.2,1.633A5.992,5.992,0,0,1,17.436,26.6c-2.115-1.586-4.011-3.287-6.019-5.088l-.819-.732c-1.849-2.115-3.525-4-5.125-5.766-.132-.148-.261-.3-.39-.452a10.555,10.555,0,0,0-1.032-1.1A1.851,1.851,0,0,0,.98,14.766a1.4,1.4,0,0,0,.112.683c.058.129.18.363.277.545l.1.193a164.743,164.743,0,0,1,7.51,15.178c.1.213.2.43.3.649a7.26,7.26,0,0,1,.961,3.294c-.1,1.564-1.142,3.048-2.255,4.42-4.5,5.535-5.3,6.526-7.471,9.052a2.4,2.4,0,0,0-.327.458,1.894,1.894,0,0,0,.367,2.154,1.9,1.9,0,0,0,2.232.294l.777-.417c.564-.3,1.13-.606,1.772-.931.587-.294,1.119-.578,1.55-.823A6.879,6.879,0,0,0,7.991,49c.121-.063.239-.127.352-.181,1.058-.531,2.055-1.05,3.043-1.567,1.01-.527,2.014-1.052,3.072-1.579.392-.2.789-.414,1.189-.635,1.44-.8,2.928-1.62,4.5-1.476a5.787,5.787,0,0,1,2.9,1.374c2.524,1.977,4.5,3.646,6.886,5.717,1.888,2.16,3.6,4.083,5.224,5.881.134.15.267.3.394.458a9.972,9.972,0,0,0,.984,1.049l.075.066a1.869,1.869,0,0,0,1.113.436h.082a1.855,1.855,0,0,0,1.849-1.766,1.5,1.5,0,0,0-.116-.694c-.074-.156-.254-.5-.375-.727-3.012-5.682-4.06-7.928-5.171-10.306-.636-1.362-1.293-2.769-2.348-4.886l-.062-.124A8.106,8.106,0,0,1,30.4,36.242c.1-1.692,1.334-3.33,2.253-4.418,2.739-3.259,3.26-3.88,6.363-7.64,2.693,5.083,2.9,5.541,4.836,9.914.075.17.156.34.235.513a5.6,5.6,0,0,1,.747,2.542,6.552,6.552,0,0,1-1.749,3.42c-3.532,4.346-4.165,5.124-5.859,7.1a1.881,1.881,0,0,0-.269.376,1.552,1.552,0,0,0,.3,1.785,1.577,1.577,0,0,0,1.844.242l.615-.329c.44-.237.882-.474,1.383-.723.46-.235.88-.456,1.206-.643a5.788,5.788,0,0,0,.882-.407c.093-.051.185-.1.272-.142.831-.418,1.614-.828,2.393-1.231s1.577-.823,2.405-1.235c.308-.153.619-.327.935-.5a6.3,6.3,0,0,1,3.486-1.149,4.474,4.474,0,0,1,2.231,1.062c2,1.561,3.551,2.88,5.394,4.48l.015.015c1.466,1.675,2.8,3.178,4.079,4.593.106.118.209.238.312.361a7.858,7.858,0,0,0,.772.822l.079.072a1.533,1.533,0,0,0,.907.346c.023,0,.046,0,.067,0A1.535,1.535,0,0,0,68.065,54a1.207,1.207,0,0,0-.1-.58c-.057-.123-.2-.382-.3-.575-2.359-4.453-3.182-6.215-4.052-8.079-.5-1.069-1.015-2.175-1.843-3.835l-.051-.1a6.3,6.3,0,0,1-.922-2.941,6.484,6.484,0,0,1,1.745-3.416c2.322-2.764,2.61-3.105,5.584-6.714l.375-.458.132-.158a1.541,1.541,0,0,0-1.264-2.433ZM6.866,8.846a3.321,3.321,0,1,1,3.32,3.3A3.311,3.311,0,0,1,6.866,8.846ZM28.279,2.424a2.436,2.436,0,1,1,2.436,2.423A2.43,2.43,0,0,1,28.279,2.424ZM43.467,9.978A3.746,3.746,0,1,1,47.212,13.7a3.734,3.734,0,0,1-3.745-3.727ZM49.7,22.9a4.631,4.631,0,1,1,4.63,4.6A4.617,4.617,0,0,1,49.7,22.9ZM16.071,17.94a5.9,5.9,0,1,1,5.9,5.871A5.886,5.886,0,0,1,16.071,17.94ZM262.839,39.058c0-1.982.9-2.955,2.667-2.955,2.507,0,3.07,2.811,6.559,2.811,1.369,0,2.306-.541,2.306-1.73,0-.72-.324-1.189-2.09-1.55l-2.45-.5c-4.433-.9-6.559-2.955-6.559-6.163,0-4.181,3.568-6.38,8.9-6.38,3.387,0,7.713,1.73,7.713,4.5a2.129,2.129,0,0,1-2.09,2.162c-2.63,0-2.2-2.378-5.946-2.378-1.3,0-2.271.613-2.271,1.657,0,.829.648,1.189,2.234,1.514l2.811.576c4.325.9,6.163,2.955,6.163,6.2,0,4.036-2.127,6.524-8.974,6.524-5.081,0-8.974-1.3-8.974-4.289Zm-12.611-.576c2.486,0,3.6-2.2,3.6-5.551,0-3.315-1.117-5.55-3.64-5.55-2.486,0-3.6,2.2-3.6,5.514C246.588,36.283,247.741,38.481,250.228,38.481Zm.036-15.893c6.7,0,10.308,4.469,10.308,10.307,0,5.983-3.82,10.38-10.452,10.38s-10.235-4.433-10.235-10.308c0-5.982,3.748-10.379,10.379-10.379ZM226.156,38.662c2.487,0,3.6-2.307,3.6-5.658,0-3.316-1.081-5.622-3.568-5.622s-3.676,2.306-3.676,5.658c0,3.28,1.154,5.623,3.64,5.623ZM224.534,22.7a6.073,6.073,0,0,1,5.046,2.127V17.759a3.352,3.352,0,0,1,6.7,0V39.275c0,2.2-1.189,3.82-3.1,3.82a3.127,3.127,0,0,1-3.064-2.559,7.313,7.313,0,0,1-5.946,2.6c-5.3,0-8.4-3.929-8.4-9.947,0-6.091,3.171-10.488,8.757-10.488ZM202.805,38.482c2.487,0,3.6-2.2,3.6-5.551,0-3.315-1.117-5.55-3.64-5.55-2.487,0-3.6,2.2-3.6,5.514C199.166,36.284,200.319,38.482,202.805,38.482Zm.035-15.893c6.7,0,10.308,4.469,10.308,10.307,0,5.983-3.821,10.38-10.452,10.38s-10.235-4.433-10.235-10.308c0-5.982,3.748-10.379,10.379-10.379Zm-27.351-7.064h17.3a2.739,2.739,0,1,1,0,5.478H187.6v18.56a3.46,3.46,0,1,1-6.92,0V21H175.49a2.739,2.739,0,0,1,0-5.478Zm-24.5,23.389c2.45,0,3.748-1.873,3.748-4.18v-.325h-2.127c-1.658,0-3.965.288-3.965,2.415a2.1,2.1,0,0,0,2.342,2.09Zm1.262-8.073h2.45c0-2.09-.216-3.5-2.74-3.5-3.063,0-3.515,2.271-5.73,2.271a2.665,2.665,0,0,1-2.883-2.631c0-3.449,5.242-4.4,8.686-4.4,5.658,0,9.117,2.162,9.117,8.181v9.047a3.145,3.145,0,0,1-3.1,3.207,3.113,3.113,0,0,1-3.1-2.666,6.929,6.929,0,0,1-6.163,2.847c-3.64,0-6.7-2.126-6.7-5.983,0-5.694,5.694-6.38,10.163-6.38Zm-23.64-4.937a3.117,3.117,0,0,1,6.234,0v.864h.144c.721-1.729,1.69-3.964,3.821-3.964a2.875,2.875,0,0,1,3.135,2.919,2.816,2.816,0,0,1-2.811,2.847c-2.991,0-3.82,2.589-3.82,5.189v5.91a3.352,3.352,0,1,1-6.7,0V25.9ZM113.87,38.916c2.45,0,3.748-1.873,3.748-4.18V34.41h-2.127c-1.658,0-3.965.288-3.965,2.415a2.1,2.1,0,0,0,2.343,2.09Zm1.261-8.073h2.451c0-2.09-.217-3.5-2.74-3.5-3.064,0-3.515,2.271-5.731,2.271a2.665,2.665,0,0,1-2.883-2.631c0-3.449,5.242-4.4,8.686-4.4,5.658,0,9.118,2.162,9.118,8.181v9.047a3.145,3.145,0,0,1-3.1,3.207,3.114,3.114,0,0,1-3.1-2.666,6.93,6.93,0,0,1-6.163,2.847c-3.64,0-6.7-2.127-6.7-5.983,0-5.694,5.694-6.38,10.162-6.38Zm-22.954-1.73c2.775,0,4.794-1.081,4.794-4.072s-1.982-4.216-4.757-4.216H88.971v8.288h3.208ZM82.051,18.59a2.757,2.757,0,0,1,3.064-3.064h8.073c6.235,0,10.6,3.387,10.6,9.406,0,5.838-4.18,9.478-10.632,9.478H88.97v5.153a3.46,3.46,0,0,1-6.919,0V18.589ZM277.3,53.514a1.164,1.164,0,0,0-.335-.4,1.421,1.421,0,0,0-.482-.233,2.217,2.217,0,0,0-.579-.075,2.307,2.307,0,0,0-.482.052,1.5,1.5,0,0,0-.449.171.972.972,0,0,0-.329.312.864.864,0,0,0-.125.477.67.67,0,0,0,.12.4,1.073,1.073,0,0,0,.3.278,1.919,1.919,0,0,0,.4.187c.144.05.276.089.4.12l.954.217a2.7,2.7,0,0,1,.608.165,1.97,1.97,0,0,1,.533.313,1.518,1.518,0,0,1,.38.476,1.426,1.426,0,0,1,.147.67,1.468,1.468,0,0,1-.216.812,1.773,1.773,0,0,1-.551.545,2.33,2.33,0,0,1-.755.3,3.927,3.927,0,0,1-.829.091,2.7,2.7,0,0,1-1.676-.488,2.076,2.076,0,0,1-.733-1.568h.716a1.411,1.411,0,0,0,.527,1.1,1.923,1.923,0,0,0,1.2.369,2.635,2.635,0,0,0,.54-.057,1.73,1.73,0,0,0,.517-.193,1.236,1.236,0,0,0,.392-.346.85.85,0,0,0,.152-.516.829.829,0,0,0-.107-.437.934.934,0,0,0-.289-.294,1.837,1.837,0,0,0-.415-.2,4.76,4.76,0,0,0-.471-.136l-.921-.2a5.062,5.062,0,0,1-.647-.211,2,2,0,0,1-.516-.294,1.241,1.241,0,0,1-.346-.432,1.439,1.439,0,0,1-.125-.63,1.406,1.406,0,0,1,.2-.761,1.551,1.551,0,0,1,.516-.511,2.361,2.361,0,0,1,.71-.284,3.459,3.459,0,0,1,.779-.091,2.868,2.868,0,0,1,.823.113,1.875,1.875,0,0,1,.669.353,1.718,1.718,0,0,1,.46.591,2.128,2.128,0,0,1,.193.83h-.715a1.354,1.354,0,0,0-.136-.574Zm-10.936-.494a1.973,1.973,0,0,0-.642.568,2.574,2.574,0,0,0-.386.8,3.288,3.288,0,0,0,0,1.829,2.552,2.552,0,0,0,.386.8,1.958,1.958,0,0,0,.642.567,1.966,1.966,0,0,0,1.794,0,1.947,1.947,0,0,0,.642-.567,2.574,2.574,0,0,0,.386-.8,3.264,3.264,0,0,0,.13-.915,3.3,3.3,0,0,0-.13-.915,2.62,2.62,0,0,0-.386-.8,1.972,1.972,0,0,0-.642-.568,1.974,1.974,0,0,0-1.794,0Zm2.084-.568a2.6,2.6,0,0,1,.869.669,2.918,2.918,0,0,1,.534.982,3.891,3.891,0,0,1,.182,1.2,3.852,3.852,0,0,1-.182,1.2,2.889,2.889,0,0,1-.534.982,2.511,2.511,0,0,1-.869.664,3,3,0,0,1-2.373,0,2.505,2.505,0,0,1-.869-.664,2.9,2.9,0,0,1-.534-.982,4.033,4.033,0,0,1,0-2.4,2.907,2.907,0,0,1,.534-.982,2.588,2.588,0,0,1,.869-.669,2.936,2.936,0,0,1,2.373,0Zm-9.216-.08v1.373h.022a2.251,2.251,0,0,1,.846-1.1,2.215,2.215,0,0,1,1.368-.353v.715a2.158,2.158,0,0,0-.886.131,1.984,1.984,0,0,0-.687.437,1.951,1.951,0,0,0-.448.675,2.254,2.254,0,0,0-.159.857v3.123h-.715V52.372h.658Zm-5.508,5.859V57.175H253.7a2.034,2.034,0,0,1-.824.9,2.345,2.345,0,0,1-1.2.312,2.609,2.609,0,0,1-.948-.153,1.573,1.573,0,0,1-.636-.437,1.759,1.759,0,0,1-.358-.693,3.488,3.488,0,0,1-.113-.931v-3.8h.715v3.816a1.9,1.9,0,0,0,.37,1.2,1.844,1.844,0,0,0,1.993.209,1.69,1.69,0,0,0,.545-.528,2.371,2.371,0,0,0,.319-.755,3.69,3.69,0,0,0,.1-.869V52.372h.716v5.859h-.659Zm-10.061-.869a1.869,1.869,0,0,0,.591-.522,2.315,2.315,0,0,0,.358-.744,3.145,3.145,0,0,0,.12-.863,3.712,3.712,0,0,0-.1-.862,2.514,2.514,0,0,0-.329-.784,1.785,1.785,0,0,0-.585-.568,1.652,1.652,0,0,0-.869-.216,1.719,1.719,0,0,0-.875.21,1.86,1.86,0,0,0-.6.551,2.308,2.308,0,0,0-.346.778,3.738,3.738,0,0,0-.107.892,3.3,3.3,0,0,0,.113.863,2.205,2.205,0,0,0,.353.744,1.792,1.792,0,0,0,.6.522,1.77,1.77,0,0,0,.863.2,1.631,1.631,0,0,0,.817-.2Zm1.641,1.561a2.29,2.29,0,0,1-.449.886,1.962,1.962,0,0,1-.8.556,3.331,3.331,0,0,1-1.209.193,3.678,3.678,0,0,1-.863-.1,2.437,2.437,0,0,1-.755-.318,1.882,1.882,0,0,1-.557-.551,1.649,1.649,0,0,1-.255-.8h.715a1.269,1.269,0,0,0,.222.552,1.34,1.34,0,0,0,.4.358,1.742,1.742,0,0,0,.516.2,2.67,2.67,0,0,0,.579.062,1.718,1.718,0,0,0,1.442-.567,2.62,2.62,0,0,0,.442-1.635v-.8h-.022a2.091,2.091,0,0,1-.733.875,1.955,1.955,0,0,1-1.129.329,2.829,2.829,0,0,1-1.2-.233,2.253,2.253,0,0,1-.824-.642,2.619,2.619,0,0,1-.471-.96,4.543,4.543,0,0,1-.147-1.175,3.655,3.655,0,0,1,.176-1.141,2.84,2.84,0,0,1,.511-.943,2.37,2.37,0,0,1,.829-.636,2.619,2.619,0,0,1,1.13-.233,2.072,2.072,0,0,1,.619.091,1.941,1.941,0,0,1,.527.255,2.26,2.26,0,0,1,.426.381,1.706,1.706,0,0,1,.29.454h.022V52.373h.715v5.383a4.481,4.481,0,0,1-.141,1.169Zm-9.46-4.815a2.159,2.159,0,0,0-.369-.664,1.828,1.828,0,0,0-.579-.466,1.657,1.657,0,0,0-.773-.176,1.681,1.681,0,0,0-.784.176,1.84,1.84,0,0,0-.579.466,2.332,2.332,0,0,0-.38.669,3.281,3.281,0,0,0-.188.779h3.792a2.545,2.545,0,0,0-.142-.784ZM232.3,56.3a2.209,2.209,0,0,0,.346.744,1.963,1.963,0,0,0,.6.545,1.683,1.683,0,0,0,.875.217,1.738,1.738,0,0,0,1.226-.409,2.158,2.158,0,0,0,.614-1.09h.715a2.855,2.855,0,0,1-.835,1.545,2.492,2.492,0,0,1-1.72.545,2.728,2.728,0,0,1-1.2-.244,2.2,2.2,0,0,1-.824-.67,2.923,2.923,0,0,1-.471-.988,4.494,4.494,0,0,1-.153-1.186,4.253,4.253,0,0,1,.153-1.135,3.049,3.049,0,0,1,.471-.994,2.372,2.372,0,0,1,.824-.7,2.53,2.53,0,0,1,1.2-.267,2.309,2.309,0,0,1,2.015,1.028,3.072,3.072,0,0,1,.449,1.057A4.623,4.623,0,0,1,236.7,55.5h-4.508a3.2,3.2,0,0,0,.107.8Zm-5.457-2.783a1.154,1.154,0,0,0-.335-.4,1.421,1.421,0,0,0-.482-.233,2.216,2.216,0,0,0-.579-.075,2.306,2.306,0,0,0-.482.052,1.49,1.49,0,0,0-.449.171.972.972,0,0,0-.329.312.855.855,0,0,0-.126.477.67.67,0,0,0,.12.4,1.064,1.064,0,0,0,.3.278,1.921,1.921,0,0,0,.4.187c.144.05.276.089.4.12l.953.217a2.686,2.686,0,0,1,.608.165,1.955,1.955,0,0,1,.533.313,1.536,1.536,0,0,1,.381.476,1.438,1.438,0,0,1,.147.67,1.477,1.477,0,0,1-.216.812,1.784,1.784,0,0,1-.551.545,2.335,2.335,0,0,1-.756.3,3.927,3.927,0,0,1-.829.091,2.694,2.694,0,0,1-1.675-.488,2.073,2.073,0,0,1-.733-1.568h.715a1.409,1.409,0,0,0,.528,1.1,1.918,1.918,0,0,0,1.2.369,2.634,2.634,0,0,0,.54-.057,1.724,1.724,0,0,0,.516-.193,1.225,1.225,0,0,0,.392-.346.851.851,0,0,0,.153-.516.819.819,0,0,0-.108-.437.924.924,0,0,0-.289-.294,1.817,1.817,0,0,0-.415-.2,4.761,4.761,0,0,0-.471-.136l-.921-.2a5.115,5.115,0,0,1-.647-.211,2.026,2.026,0,0,1-.517-.294,1.241,1.241,0,0,1-.346-.432,1.424,1.424,0,0,1-.126-.63,1.407,1.407,0,0,1,.2-.761,1.571,1.571,0,0,1,.516-.511,2.372,2.372,0,0,1,.71-.284,3.443,3.443,0,0,1,.778-.091,2.864,2.864,0,0,1,.823.113,1.889,1.889,0,0,1,.67.353,1.719,1.719,0,0,1,.46.591,2.128,2.128,0,0,1,.193.83h-.715a1.355,1.355,0,0,0-.136-.574Zm-14.019.6a2.181,2.181,0,0,0-.369-.664,1.829,1.829,0,0,0-.579-.466,1.661,1.661,0,0,0-.773-.176,1.681,1.681,0,0,0-.784.176,1.847,1.847,0,0,0-.578.466,2.335,2.335,0,0,0-.381.669,3.281,3.281,0,0,0-.188.779h3.793a2.574,2.574,0,0,0-.142-.784ZM209.279,56.3a2.191,2.191,0,0,0,.346.744,1.953,1.953,0,0,0,.6.545,1.68,1.68,0,0,0,.875.217,1.738,1.738,0,0,0,1.226-.409,2.149,2.149,0,0,0,.613-1.09h.716a2.855,2.855,0,0,1-.835,1.545,2.492,2.492,0,0,1-1.721.545,2.728,2.728,0,0,1-1.2-.244,2.2,2.2,0,0,1-.824-.67,2.9,2.9,0,0,1-.471-.988,4.5,4.5,0,0,1-.153-1.186,4.3,4.3,0,0,1,.153-1.135,3.07,3.07,0,0,1,.471-.994,2.373,2.373,0,0,1,.824-.7,2.529,2.529,0,0,1,1.2-.267,2.31,2.31,0,0,1,2.015,1.028,3.073,3.073,0,0,1,.449,1.057,4.58,4.58,0,0,1,.112,1.209H209.17a3.2,3.2,0,0,0,.107.8Zm-9.312-.091a2.5,2.5,0,0,0,.34.8,1.882,1.882,0,0,0,.6.574,1.656,1.656,0,0,0,.875.222,1.917,1.917,0,0,0,.96-.222,1.9,1.9,0,0,0,.637-.574,2.352,2.352,0,0,0,.352-.8,3.873,3.873,0,0,0,.108-.9,3.81,3.81,0,0,0-.108-.9,2.357,2.357,0,0,0-.352-.8,1.905,1.905,0,0,0-.637-.574,1.928,1.928,0,0,0-.96-.221,1.655,1.655,0,0,0-.875.221,1.871,1.871,0,0,0-.6.574,2.487,2.487,0,0,0-.34.8,3.852,3.852,0,0,0,0,1.806Zm3.924,2.026V57.119h-.022a1.7,1.7,0,0,1-.335.523,2.19,2.19,0,0,1-.5.4,2.578,2.578,0,0,1-.608.255,2.379,2.379,0,0,1-.642.091,2.6,2.6,0,0,1-1.164-.244,2.334,2.334,0,0,1-.824-.67,2.878,2.878,0,0,1-.488-.988,4.494,4.494,0,0,1,0-2.373,2.86,2.86,0,0,1,.488-.988,2.393,2.393,0,0,1,.824-.675,2.545,2.545,0,0,1,1.164-.249,2.586,2.586,0,0,1,.642.08,2.153,2.153,0,0,1,.585.244,2.032,2.032,0,0,1,.482.4,1.7,1.7,0,0,1,.324.557h.022V50.126h.715v8.109h-.658Zm-14.684,0h-.715V50.124h.715Zm-5.723-3.2a.409.409,0,0,1-.261.182,2.725,2.725,0,0,1-.34.08q-.454.08-.937.142a5.008,5.008,0,0,0-.88.187,1.721,1.721,0,0,0-.653.358.853.853,0,0,0-.255.664,1.036,1.036,0,0,0,.108.483,1.159,1.159,0,0,0,.29.363,1.257,1.257,0,0,0,.42.233,1.529,1.529,0,0,0,.488.08,2.473,2.473,0,0,0,.784-.125,1.93,1.93,0,0,0,.653-.364,1.775,1.775,0,0,0,.443-.579,1.753,1.753,0,0,0,.165-.772V55.03h-.023Zm-3.577-1.749a1.68,1.68,0,0,1,.495-.613,2.092,2.092,0,0,1,.732-.353,3.572,3.572,0,0,1,.932-.113,4.1,4.1,0,0,1,.771.074,1.886,1.886,0,0,1,.693.278,1.519,1.519,0,0,1,.5.573,2.069,2.069,0,0,1,.193.96V57.2a.376.376,0,0,0,.42.431.538.538,0,0,0,.228-.046v.6c-.084.015-.157.027-.222.035a2.268,2.268,0,0,1-.244.011,1.085,1.085,0,0,1-.437-.074.581.581,0,0,1-.255-.211.8.8,0,0,1-.12-.324,2.837,2.837,0,0,1-.029-.414h-.022a4.7,4.7,0,0,1-.392.5,1.937,1.937,0,0,1-.442.369,2.034,2.034,0,0,1-.557.227,3.043,3.043,0,0,1-.744.08,2.927,2.927,0,0,1-.766-.1,1.724,1.724,0,0,1-.624-.307,1.462,1.462,0,0,1-.42-.534,1.776,1.776,0,0,1-.153-.767,1.508,1.508,0,0,1,.273-.96,1.722,1.722,0,0,1,.72-.528,4.132,4.132,0,0,1,1.011-.255q.563-.074,1.141-.141c.152-.015.283-.035.4-.057a.713.713,0,0,0,.284-.12.545.545,0,0,0,.176-.233,1.022,1.022,0,0,0,.063-.386,1.3,1.3,0,0,0-.12-.6.949.949,0,0,0-.33-.37,1.317,1.317,0,0,0-.488-.187,3.235,3.235,0,0,0-.6-.051,1.815,1.815,0,0,0-1.113.323,1.27,1.27,0,0,0-.455,1.039h-.716a2.393,2.393,0,0,1,.217-.886Zm-4.02-.908v.6h-1.193v3.953a1.282,1.282,0,0,0,.1.551c.064.132.225.206.482.221a5.574,5.574,0,0,0,.613-.034v.6c-.106,0-.213,0-.318.011s-.212.011-.318.011a1.417,1.417,0,0,1-1-.278,1.4,1.4,0,0,1-.272-1.028V52.973h-1.023v-.6h1.023V50.61h.715v1.761h1.193Zm-6.53,5.859h-.715V52.372h.715Zm0-6.962h-.715V50.123h.715Zm-6.7,6.093a1.869,1.869,0,0,0,.591-.522,2.317,2.317,0,0,0,.358-.744,3.146,3.146,0,0,0,.12-.863,3.766,3.766,0,0,0-.1-.862,2.489,2.489,0,0,0-.329-.784,1.785,1.785,0,0,0-.585-.568,1.652,1.652,0,0,0-.869-.216,1.719,1.719,0,0,0-.875.211,1.851,1.851,0,0,0-.6.551,2.308,2.308,0,0,0-.346.778,3.74,3.74,0,0,0-.107.892,3.306,3.306,0,0,0,.113.863,2.206,2.206,0,0,0,.353.744,1.8,1.8,0,0,0,.6.522,1.766,1.766,0,0,0,.862.2,1.631,1.631,0,0,0,.818-.2Zm1.641,1.561a2.291,2.291,0,0,1-.449.886,1.955,1.955,0,0,1-.8.556,3.331,3.331,0,0,1-1.209.193,3.663,3.663,0,0,1-.862-.1,2.416,2.416,0,0,1-.755-.318,1.906,1.906,0,0,1-.557-.551,1.638,1.638,0,0,1-.255-.8h.716a1.269,1.269,0,0,0,.222.552,1.328,1.328,0,0,0,.4.358,1.732,1.732,0,0,0,.516.2,2.67,2.67,0,0,0,.579.062,1.722,1.722,0,0,0,1.443-.567,2.62,2.62,0,0,0,.442-1.635v-.8H163.7a2.091,2.091,0,0,1-.733.875,1.956,1.956,0,0,1-1.13.329,2.829,2.829,0,0,1-1.2-.233,2.241,2.241,0,0,1-.823-.642,2.6,2.6,0,0,1-.471-.96,4.5,4.5,0,0,1-.147-1.175,3.655,3.655,0,0,1,.176-1.141,2.839,2.839,0,0,1,.511-.943,2.37,2.37,0,0,1,.829-.636,2.619,2.619,0,0,1,1.13-.233,2.067,2.067,0,0,1,.619.091,1.962,1.962,0,0,1,.528.255,2.262,2.262,0,0,1,.426.381,1.732,1.732,0,0,1,.29.454h.022V52.372h.715v5.383a4.48,4.48,0,0,1-.141,1.169Zm-9.011-.693h-.715V52.372h.715Zm0-6.962h-.715V50.123h.715ZM145.776,56.2a2.5,2.5,0,0,0,.34.8,1.874,1.874,0,0,0,.6.574,1.653,1.653,0,0,0,.875.222,1.915,1.915,0,0,0,.96-.222,1.882,1.882,0,0,0,.636-.574,2.333,2.333,0,0,0,.352-.8,3.816,3.816,0,0,0,0-1.806,2.338,2.338,0,0,0-.352-.8,1.9,1.9,0,0,0-.636-.574,1.931,1.931,0,0,0-.96-.221,1.658,1.658,0,0,0-.875.221,1.874,1.874,0,0,0-.6.574,2.509,2.509,0,0,0-.34.8,3.852,3.852,0,0,0,0,1.806ZM149.7,58.23V57.117h-.023a1.7,1.7,0,0,1-.335.523,2.19,2.19,0,0,1-.5.4,2.571,2.571,0,0,1-.607.255,2.38,2.38,0,0,1-.642.091,2.6,2.6,0,0,1-1.164-.244,2.321,2.321,0,0,1-.823-.67,2.878,2.878,0,0,1-.488-.988,4.327,4.327,0,0,1-.158-1.186,4.371,4.371,0,0,1,.158-1.186,2.878,2.878,0,0,1,.488-.988,2.389,2.389,0,0,1,.823-.675,2.548,2.548,0,0,1,1.164-.249,2.586,2.586,0,0,1,.642.08,2.166,2.166,0,0,1,.585.244,2.032,2.032,0,0,1,.482.4,1.685,1.685,0,0,1,.324.557h.022V50.124h.715v8.109H149.7Zm-15.49-3.2a.415.415,0,0,1-.261.182,2.692,2.692,0,0,1-.341.08q-.454.08-.937.142a5.009,5.009,0,0,0-.88.187,1.721,1.721,0,0,0-.653.358.853.853,0,0,0-.255.664,1.049,1.049,0,0,0,.107.483,1.159,1.159,0,0,0,.29.363,1.267,1.267,0,0,0,.42.233,1.533,1.533,0,0,0,.488.08,2.474,2.474,0,0,0,.784-.125,1.925,1.925,0,0,0,.652-.364,1.775,1.775,0,0,0,.444-.579,1.739,1.739,0,0,0,.165-.772v-.932h-.022Zm-3.578-1.749a1.68,1.68,0,0,1,.495-.613,2.088,2.088,0,0,1,.733-.353,3.57,3.57,0,0,1,.931-.113,4.12,4.12,0,0,1,.773.074,1.886,1.886,0,0,1,.693.278,1.527,1.527,0,0,1,.5.573,2.069,2.069,0,0,1,.193.96v3.112a.376.376,0,0,0,.42.431.53.53,0,0,0,.227-.046v.6c-.084.015-.157.027-.222.035a2.27,2.27,0,0,1-.244.011,1.085,1.085,0,0,1-.437-.074.581.581,0,0,1-.255-.211.8.8,0,0,1-.12-.324,2.845,2.845,0,0,1-.028-.414h-.023a4.707,4.707,0,0,1-.392.5,1.9,1.9,0,0,1-.443.369,2.013,2.013,0,0,1-.556.227,3.043,3.043,0,0,1-.744.08,2.94,2.94,0,0,1-.767-.1,1.724,1.724,0,0,1-.624-.307,1.451,1.451,0,0,1-.42-.534,1.761,1.761,0,0,1-.153-.767,1.514,1.514,0,0,1,.273-.96,1.719,1.719,0,0,1,.721-.528,4.119,4.119,0,0,1,1.011-.255q.563-.074,1.141-.141c.151-.015.284-.035.4-.057a.713.713,0,0,0,.284-.12.545.545,0,0,0,.176-.233,1.024,1.024,0,0,0,.062-.386,1.315,1.315,0,0,0-.119-.6.955.955,0,0,0-.329-.37,1.316,1.316,0,0,0-.488-.187,3.243,3.243,0,0,0-.6-.051,1.813,1.813,0,0,0-1.113.323,1.27,1.27,0,0,0-.455,1.039h-.715a2.413,2.413,0,0,1,.216-.886Zm-4.35,4.952h-.715V52.371h.715Zm0-6.962h-.715V50.122h.715Zm-5.859,1.908a1.56,1.56,0,0,0-1.113-.375,1.819,1.819,0,0,0-.9.216,1.972,1.972,0,0,0-.642.568,2.568,2.568,0,0,0-.386.8,3.284,3.284,0,0,0,0,1.828,2.574,2.574,0,0,0,.386.8,1.958,1.958,0,0,0,.642.567,1.808,1.808,0,0,0,.9.217,1.591,1.591,0,0,0,.624-.125,1.7,1.7,0,0,0,.522-.346,1.864,1.864,0,0,0,.375-.528,1.957,1.957,0,0,0,.182-.669h.715a2.7,2.7,0,0,1-.784,1.664,2.294,2.294,0,0,1-1.635.6,2.75,2.75,0,0,1-1.186-.244,2.514,2.514,0,0,1-.869-.664,2.9,2.9,0,0,1-.534-.982,4.034,4.034,0,0,1,0-2.4,2.891,2.891,0,0,1,.534-.982,2.578,2.578,0,0,1,.869-.669,2.693,2.693,0,0,1,1.186-.25,2.552,2.552,0,0,1,1.6.5,2.13,2.13,0,0,1,.778,1.509h-.715a1.974,1.974,0,0,0-.546-1.033ZM108.6,52.37V53.38h.023a1.713,1.713,0,0,1,.727-.857A2.138,2.138,0,0,1,110.5,52.2a2.881,2.881,0,0,1,1.028.159,1.621,1.621,0,0,1,.664.449,1.673,1.673,0,0,1,.353.71,3.988,3.988,0,0,1,.1.943v3.77h-.716V54.573a3.413,3.413,0,0,0-.067-.7,1.46,1.46,0,0,0-.239-.563,1.171,1.171,0,0,0-.46-.375,1.693,1.693,0,0,0-.721-.136,1.831,1.831,0,0,0-.767.153,1.668,1.668,0,0,0-.568.42,1.958,1.958,0,0,0-.364.636,2.617,2.617,0,0,0-.142.8v3.418h-.715V52.37h.715Zm-5.366,1.737a2.159,2.159,0,0,0-.369-.664,1.829,1.829,0,0,0-.579-.466,1.658,1.658,0,0,0-.773-.176,1.681,1.681,0,0,0-.784.176,1.84,1.84,0,0,0-.579.466,2.359,2.359,0,0,0-.381.669,3.229,3.229,0,0,0-.187.779h3.792a2.545,2.545,0,0,0-.142-.784Zm-3.543,2.187a2.21,2.21,0,0,0,.346.744,1.964,1.964,0,0,0,.6.545,1.68,1.68,0,0,0,.875.217,1.738,1.738,0,0,0,1.226-.409,2.149,2.149,0,0,0,.613-1.09h.716a2.855,2.855,0,0,1-.835,1.545,2.491,2.491,0,0,1-1.72.545,2.728,2.728,0,0,1-1.2-.244,2.2,2.2,0,0,1-.824-.67,2.923,2.923,0,0,1-.471-.988,4.494,4.494,0,0,1-.153-1.186,4.253,4.253,0,0,1,.153-1.135,3.07,3.07,0,0,1,.471-.994,2.391,2.391,0,0,1,.824-.7,2.529,2.529,0,0,1,1.2-.267,2.31,2.31,0,0,1,2.015,1.028,3.073,3.073,0,0,1,.449,1.057,4.622,4.622,0,0,1,.113,1.209H99.585a3.2,3.2,0,0,0,.107.8Zm-6.5,1.068a1.869,1.869,0,0,0,.591-.522,2.316,2.316,0,0,0,.358-.744,3.146,3.146,0,0,0,.12-.863,3.768,3.768,0,0,0-.1-.862,2.514,2.514,0,0,0-.329-.784,1.785,1.785,0,0,0-.584-.568,1.652,1.652,0,0,0-.869-.216,1.719,1.719,0,0,0-.875.211,1.861,1.861,0,0,0-.6.551,2.308,2.308,0,0,0-.346.778,3.739,3.739,0,0,0-.107.892,3.3,3.3,0,0,0,.113.863,2.206,2.206,0,0,0,.353.744,1.791,1.791,0,0,0,.6.522,1.77,1.77,0,0,0,.863.2,1.631,1.631,0,0,0,.817-.2Zm1.641,1.561a2.29,2.29,0,0,1-.449.886,1.955,1.955,0,0,1-.8.556,3.331,3.331,0,0,1-1.209.193,3.677,3.677,0,0,1-.863-.1,2.437,2.437,0,0,1-.755-.318,1.882,1.882,0,0,1-.557-.551,1.648,1.648,0,0,1-.255-.8h.716a1.268,1.268,0,0,0,.221.552,1.34,1.34,0,0,0,.4.358,1.742,1.742,0,0,0,.516.2,2.67,2.67,0,0,0,.579.062,1.718,1.718,0,0,0,1.442-.567,2.613,2.613,0,0,0,.443-1.635v-.8h-.023a2.091,2.091,0,0,1-.733.875,1.955,1.955,0,0,1-1.129.329,2.829,2.829,0,0,1-1.2-.233,2.253,2.253,0,0,1-.824-.642,2.619,2.619,0,0,1-.471-.96,4.543,4.543,0,0,1-.147-1.175,3.656,3.656,0,0,1,.176-1.141,2.839,2.839,0,0,1,.511-.943,2.379,2.379,0,0,1,.829-.636,2.619,2.619,0,0,1,1.13-.233,2.067,2.067,0,0,1,.619.091,1.941,1.941,0,0,1,.527.255,2.262,2.262,0,0,1,.426.381,1.706,1.706,0,0,1,.29.454h.023V52.371h.715v5.383a4.481,4.481,0,0,1-.141,1.169Zm-11.43-8.8,3.179,8.109h-.83l-.987-2.522H81.073L80.1,58.23h-.817l3.26-8.109H83.4Z" transform="translate(0 0)" fill="#3728ae"></path></svg>