<svg xmlns="http://www.w3.org/2000/svg" xmlns:xlink="http://www.w3.org/1999/xlink" id="agricola" width="530.93" height="278" viewBox="0 0 530.93 278"><defs><clipPath id="clip-path"><rect id="Rect&#xE1;ngulo_3361" data-name="Rect&#xE1;ngulo 3361" width="530.93" height="278" fill="none"></rect></clipPath><clipPath id="clip-path-2"><rect id="Rect&#xE1;ngulo_3360" data-name="Rect&#xE1;ngulo 3360" width="530.93" height="278.001" fill="none"></rect></clipPath><clipPath id="clip-path-3"><rect id="Rect&#xE1;ngulo_3306" data-name="Rect&#xE1;ngulo 3306" width="59.717" height="15.128" fill="none"></rect></clipPath><clipPath id="clip-path-4"><rect id="Rect&#xE1;ngulo_3307" data-name="Rect&#xE1;ngulo 3307" width="72.35" height="18.327" fill="none"></rect></clipPath><clipPath id="clip-path-5"><rect id="Rect&#xE1;ngulo_3308" data-name="Rect&#xE1;ngulo 3308" width="96.049" height="16.05" fill="none"></rect></clipPath><clipPath id="clip-path-6"><rect id="Rect&#xE1;ngulo_3310" data-name="Rect&#xE1;ngulo 3310" width="191.043" height="127.042" fill="none"></rect></clipPath></defs><g id="Grupo_909" data-name="Grupo 909" clip-path="url(#clip-path)"><g id="Grupo_908" data-name="Grupo 908" transform="translate(0 -0.001)"><g id="Grupo_907" data-name="Grupo 907" clip-path="url(#clip-path-2)"><g id="Grupo_897" data-name="Grupo 897" transform="translate(339.419 117.834)" opacity="0.5"><g id="Grupo_896" data-name="Grupo 896"><g id="Grupo_895" data-name="Grupo 895" clip-path="url(#clip-path-3)"><path id="Trazado_4926" data-name="Trazado 4926" d="M1924.286,661.51s-2.986-8.352-10.126-7.424c0,0-10.366-13.921-21.421-1.856,0,0-11.751-2.989-20.453,2.588-5.8,3.719-7.719,7.62-7.719,7.62Z" transform="translate(-1864.568 -647.31)" fill="#f8fcff"></path></g></g></g><g id="Grupo_900" data-name="Grupo 900" transform="translate(370.019 85.663)" opacity="0.5"><g id="Grupo_899" data-name="Grupo 899"><g id="Grupo_898" data-name="Grupo 898" clip-path="url(#clip-path-4)"><path id="Trazado_4927" data-name="Trazado 4927" d="M2105.017,487.779s-3.617-10.119-12.268-8.995c0,0-12.559-16.865-25.952-2.249,0,0-14.236-3.622-24.779,3.136-7.029,4.505-9.351,9.232-9.351,9.232Z" transform="translate(-2032.668 -470.576)" fill="#f8fcff"></path></g></g></g><g id="Grupo_903" data-name="Grupo 903" transform="translate(225.117 79.121)" opacity="0.5"><g id="Grupo_902" data-name="Grupo 902"><g id="Grupo_901" data-name="Grupo 901" clip-path="url(#clip-path-5)"><path id="Trazado_4928" data-name="Trazado 4928" d="M1332.712,449.708a16.923,16.923,0,0,0-16.287-7.876s-16.673-14.769-34.452-1.969c0,0-18.9-3.171-32.9,2.746-9.332,3.945-12.414,8.084-12.414,8.084Z" transform="translate(-1236.662 -434.642)" fill="#f8fcff"></path></g></g></g><path id="Trazado_4929" data-name="Trazado 4929" d="M163.439,254.943c.343,1.459.727,2.959,1.157,4.458.387,1.5.9,3.088,1.457,4.674.258.77.558,1.544.814,2.313.9,2.445,1.929,4.972,3.172,7.588.387.857.772,1.757,1.2,2.616.108.267.232.537.362.8.077.159.159.319.239.479h50.968l14.917-.04H371.294l18.873-.021h.059l19.885-.023H513.139l42.951-.042h77.673s.026-.07.08-.209c.014-.042.03-.089.052-.143.063-.167.148-.392.256-.678l.042-.084v-.042a.158.158,0,0,0,.042-.087,11.868,11.868,0,0,0,.472-1.2c.087-.216.171-.474.3-.73v-.087l.042-.042c.589-1.53,1.319-3.521,2.161-5.929q.113-.327.232-.662c.631-1.818,1.326-3.855,2.065-6.1,1.757-5.443,3.773-12.088,5.744-19.589.772-2.959,1.544-6.044,2.273-9.261.429-1.856.861-3.789,1.274-5.741q.18-.859.354-1.717c.758-3.655,1.471-7.421,2.114-11.269.847-5.054,1.574-10.249,2.128-15.523q.412-3.882.692-7.818c0-.068.012-.138.014-.206s.012-.141.016-.211c.253-3.693.413-7.412.46-11.128q.057-4.487-.11-8.967c-.084-2.015-.214-4.031-.343-6.046-.343-4.287-.857-8.573-1.586-12.731-.472-2.83-1.07-5.659-1.757-8.4a95.379,95.379,0,0,0-6.943-19.246c-1.072-2.1-2.187-4.158-3.43-6.173-2.785-4.587-5.615-8.874-8.489-12.9h-.042c-1.5-2.142-3-4.158-4.5-6.089a159.546,159.546,0,0,0-17.062-18.946C539.8,13.823,458.957,77.479,408.93,33.2,360.022-10.053,268.5-10.7,227.567,29.212c-.772.772-1.586,1.544-2.358,2.4a66.5,66.5,0,0,0-14.88,24.631A70.852,70.852,0,0,0,206.8,79.985q.021,1.355.087,2.736A91.433,91.433,0,0,0,208.316,94.9q.764,4.167,1.933,8.515a141.833,141.833,0,0,0,8.057,21.862q.517,1.091,1.03,2.187c11.187,23.4,1.971,37.42-12.132,50.238-8.7,7.93-19.2,15.389-27.949,24.305-1.157,1.2-2.271,2.4-3.386,3.644-.427.495-.847.99-1.262,1.492-1.168,1.41-2.292,2.851-3.367,4.336q-.816,1.154-1.577,2.346a52.514,52.514,0,0,0-3.951,7.4,48.275,48.275,0,0,0-2.03,5.633,47.6,47.6,0,0,0-1.579,7.813,59.641,59.641,0,0,0,1.335,20.276" transform="translate(-132.309 0.003)" fill="#dceaff"></path><path id="Trazado_4930" data-name="Trazado 4930" d="M708.407,1135.334H863.351l64.592-.042h116.81s.068-.117.2-.352c.094-.167.221-.392.385-.678l.064-.084v-.042s.063-.045.063-.087a10.006,10.006,0,0,0,.709-1.2,7.454,7.454,0,0,1,.453-.73v-.087l.063-.042c.885-1.53,1.983-3.522,3.25-5.929l.347-.661c.631-1.818,1.326-3.855,2.065-6.1,1.757-5.443,3.772-12.088,5.744-19.589.772-2.959,1.544-6.044,2.273-9.26.429-1.856.861-3.789,1.274-5.741q.179-.858.354-1.717c.758-3.656,1.471-7.421,2.114-11.269,1.262-7.534,2.26-15.384,2.821-23.34-50.173,2.586-146.888,9.392-219.635,25.64-102.651,22.925-128.019,26.628-171.5,30.741-24.336,2.3,3.433,17.569,32.615,30.569" transform="translate(-545.154 -857.54)" fill="#ffcf83"></path><path id="Trazado_4931" data-name="Trazado 4931" d="M1372.238,975.86l3.637,71.146h-3.637L1370.6,975.86Z" transform="translate(-1121.102 -798.218)" fill="#adc8fe"></path><path id="Trazado_4932" data-name="Trazado 4932" d="M1299.487,871.894l-.924,4.381-16.551-19.643Z" transform="translate(-1048.64 -700.693)" fill="#adc8fe"></path><path id="Trazado_4933" data-name="Trazado 4933" d="M1301.359,967.868l4.465-.333L1291.572,988.9Z" transform="translate(-1056.459 -791.408)" fill="#adc8fe"></path><path id="Trazado_4934" data-name="Trazado 4934" d="M1383.837,972.148l-2.592-3.651,25.659,1.163Z" transform="translate(-1129.809 -792.195)" fill="#adc8fe"></path><path id="Trazado_4935" data-name="Trazado 4935" d="M1368.688,958.545a2,2,0,1,0-2,2,2,2,0,0,0,2-2" transform="translate(-1116.265 -782.418)" fill="#adc8fe"></path><path id="Trazado_4936" data-name="Trazado 4936" d="M1439.091,1127.308s132.788-36.411,174.65-40.078,1.76,4.9,1.76,4.9-113.639,29.9-140.225,42.221-36.184-7.047-36.184-7.047" transform="translate(-1177.125 -888.568)" fill="#f7c274"></path><path id="Trazado_4937" data-name="Trazado 4937" d="M1661.552,1160.342s114.814-55.088,152.308-65.429,2.417,4.114,2.417,4.114-98.468,46.006-120.618,61.565-34.107-.25-34.107-.25" transform="translate(-1359.09 -892.549)" fill="#f7c274"></path><path id="Trazado_4938" data-name="Trazado 4938" d="M1885.246,1049.037l2.977,58.235h-2.977l-1.34-58.235Z" transform="translate(-1540.967 -858.074)" fill="#adc8fe"></path><path id="Trazado_4939" data-name="Trazado 4939" d="M1825.7,963.938l-.756,3.586-13.547-16.078Z" transform="translate(-1481.655 -778.248)" fill="#adc8fe"></path><path id="Trazado_4940" data-name="Trazado 4940" d="M1827.23,1042.495l3.655-.273-11.665,17.491Z" transform="translate(-1488.056 -852.499)" fill="#adc8fe"></path><path id="Trazado_4941" data-name="Trazado 4941" d="M1894.74,1046l-2.122-2.988,21,.952Z" transform="translate(-1548.094 -853.145)" fill="#adc8fe"></path><path id="Trazado_4942" data-name="Trazado 4942" d="M1882.34,1034.864a1.638,1.638,0,1,0-1.637,1.638,1.638,1.638,0,0,0,1.637-1.638" transform="translate(-1537.007 -845.141)" fill="#adc8fe"></path><path id="Trazado_4943" data-name="Trazado 4943" d="M163.678,1164.016q.408,5.325,1.335,11.086c.014.087.028.172.045.26.331,1.964.7,3.977,1.112,5.99.387,2.1.9,4.326,1.457,6.551.258,1.079.558,2.163.814,3.242.9,3.428,1.929,6.968,3.172,10.636.387,1.2.772,2.463,1.2,3.667.108.375.232.753.362,1.129H635.468l.256-.95.042-.12v-.059a.263.263,0,0,0,.042-.122c.171-.479.3-1.023.472-1.68.087-.3.171-.664.3-1.023v-.122l.042-.059c.589-2.145,1.319-4.936,2.161-8.311.695-2.78,1.466-5.947,2.3-9.476,1.757-7.63,3.773-16.943,5.744-27.458.772-4.146,1.544-8.472,2.273-12.979.429-2.6.861-5.312,1.274-8.048-42.376,16.1-151.355,52.272-229.182,32.043-13.986-3.634-29.417-6.889-45.609-9.8q-5.427-.978-10.961-1.9c-41.982-7.025-87.879-11.893-126.341-15.248h-.009l-1.328-.115-1.3-.113c-.525-.044-1.051-.091-1.574-.136-1.089-.092-2.17-.185-3.247-.275l-.42-.035q-1.239-.106-2.466-.207-4.533-.38-8.89-.727l-1.95-.155q-1.077-.088-2.137-.171-1.433-.113-2.844-.223l-1.734-.134-3.057-.235-1.483-.113c-.678-.052-1.351-.1-2.02-.152-.054,0-.108-.01-.164-.012l-3.252-.244-1.021-.075c-.019,0-.033,0-.044,0l-.026,0c-8.674-.643-16.464-1.187-23.129-1.649-1.168,1.41-2.292,2.851-3.367,4.336q-.816,1.154-1.577,2.346a52.52,52.52,0,0,0-3.951,7.4,48.254,48.254,0,0,0-2.03,5.633,47.6,47.6,0,0,0-1.579,7.813" transform="translate(-133.883 -929.346)" fill="#82b378"></path><path id="Trazado_4944" data-name="Trazado 4944" d="M1267.527,1247.928c10.985,6.177,34.671,21.986,49.224,50.063.1.194.2.391.3.589l11.065-.589,3.461-.184c-.333-.937-15.767-24.334-53.094-47.977q-5.427-.977-10.962-1.9" transform="translate(-1036.791 -1020.76)" fill="#6e9e63"></path><path id="Trazado_4945" data-name="Trazado 4945" d="M1194.778,1284.024c-.352-.987-18.3-28.289-62.642-52.995l-3.49,2.729s34.107,14.989,52.407,51Z" transform="translate(-923.192 -1006.937)" fill="#6e9e63"></path><path id="Trazado_4946" data-name="Trazado 4946" d="M1018.676,1284.024c-.352-.987-18.3-28.289-62.642-52.995l-3.49,2.729s34.107,14.989,52.407,51Z" transform="translate(-779.147 -1006.937)" fill="#6e9e63"></path><path id="Trazado_4947" data-name="Trazado 4947" d="M359.423,1146.988s62.129,6.321,100.927,46.29l24.478-7.015c-.676-.987-27.252-21.693-86.438-36.147h-.009c-14.186-1.237-27.362-2.269-38.957-3.128" transform="translate(-293.995 -938.194)" fill="#6e9e63"></path><path id="Trazado_4948" data-name="Trazado 4948" d="M183.5,1182.03c27.909,6.738,72.586,22.179,105.994,56.007h21.389l15.718-4.549c-1-1.542-43.593-37.181-139.149-58.856a52.493,52.493,0,0,0-3.951,7.4" transform="translate(-150.097 -960.806)" fill="#6e9e63"></path><path id="Trazado_4949" data-name="Trazado 4949" d="M1392.193,1434.334l-.319-.082c.128-.569.446-12.023-3.147-18.7l.29-.156c3.641,6.768,3.3,18.469,3.176,18.94" transform="translate(-1135.929 -1157.741)" fill="#6e9e63"></path><path id="Trazado_4950" data-name="Trazado 4950" d="M1382.356,1382.544s-1.131,2.373-.442,3.436,1.257-1.971.442-3.436" transform="translate(-1130.174 -1130.871)" fill="#ffcf83"></path><path id="Trazado_4951" data-name="Trazado 4951" d="M1379.665,1421.1s1.131-2.373.442-3.436-1.257,1.971-.442,3.436" transform="translate(-1128.188 -1159.418)" fill="#ffcf83"></path><path id="Trazado_4952" data-name="Trazado 4952" d="M1388.89,1386.525s-2.1,1.585-1.975,2.846,2.024-1.171,1.975-2.846" transform="translate(-1134.442 -1134.127)" fill="#ffcf83"></path><path id="Trazado_4953" data-name="Trazado 4953" d="M1369.021,1419.194s2.1-1.585,1.975-2.846-2.024,1.171-1.975,2.846" transform="translate(-1119.809 -1158.235)" fill="#ffcf83"></path><path id="Trazado_4954" data-name="Trazado 4954" d="M1392.95,1395.9s-2.588.461-3.051,1.64,2.334-.125,3.051-1.64" transform="translate(-1136.845 -1141.795)" fill="#ffcf83"></path><path id="Trazado_4955" data-name="Trazado 4955" d="M1359.919,1415.333s2.588-.461,3.051-1.64-2.334.125-3.051,1.64" transform="translate(-1112.365 -1155.976)" fill="#ffcf83"></path><path id="Trazado_4956" data-name="Trazado 4956" d="M1393.922,1413.138s-2.073-1.616-3.26-1.172,1.653,1.652,3.26,1.172" transform="translate(-1137.281 -1154.873)" fill="#ffcf83"></path><path id="Trazado_4957" data-name="Trazado 4957" d="M1355.905,1406.28s2.32,1.236,3.413.6-1.912-1.344-3.413-.6" transform="translate(-1109.081 -1150.022)" fill="#ffcf83"></path><path id="Trazado_4958" data-name="Trazado 4958" d="M1390.366,1418.157s-1.289-2.291-2.555-2.34.888,2.163,2.555,2.34" transform="translate(-1134.868 -1158.087)" fill="#ffcf83"></path><path id="Trazado_4959" data-name="Trazado 4959" d="M1360.824,1393.848s1.289,2.291,2.555,2.339-.888-2.162-2.555-2.339" transform="translate(-1113.105 -1140.117)" fill="#ffcf83"></path><path id="Trazado_4960" data-name="Trazado 4960" d="M1386.266,1421.293s-.169-2.623-1.289-3.215-.136,2.334,1.289,3.215" transform="translate(-1132.464 -1159.872)" fill="#ffcf83"></path><path id="Trazado_4961" data-name="Trazado 4961" d="M1370.808,1386.192s.169,2.623,1.289,3.215.136-2.334-1.289-3.215" transform="translate(-1121.271 -1133.855)" fill="#ffcf83"></path><path id="Trazado_4962" data-name="Trazado 4962" d="M1394.128,1407.339s-2.455-.938-3.46-.166,2.065,1.1,3.46.166" transform="translate(-1137.354 -1150.766)" fill="#ffcf83"></path><path id="Trazado_4963" data-name="Trazado 4963" d="M1373.354,1402.106a1.83,1.83,0,1,1,1.83,1.83,1.83,1.83,0,0,1-1.83-1.83" transform="translate(-1123.354 -1145.375)" fill="#365da4"></path><path id="Trazado_4964" data-name="Trazado 4964" d="M1374.39,1453.5a6.352,6.352,0,0,0-3.787-1.729,16.851,16.851,0,0,0-2.87,0,6.428,6.428,0,0,0,2.962,1.729,13.541,13.541,0,0,0,3.7,0" transform="translate(-1118.755 -1187.459)" fill="#6e9e63"></path><path id="Trazado_4965" data-name="Trazado 4965" d="M1402.5,1438.034c.278-.242.487-2.216,2.189-2.71a16.1,16.1,0,0,1,2.909-.589s-1.475,2.565-2.549,2.95a8.466,8.466,0,0,1-2.549.35" transform="translate(-1147.192 -1173.561)" fill="#6e9e63"></path><path id="Trazado_4966" data-name="Trazado 4966" d="M1436.685,1419.284l-.375-.1c.151-.67.525-14.15-3.7-22.01l.341-.183c4.285,7.965,3.882,21.735,3.738,22.289" transform="translate(-1171.82 -1142.691)" fill="#6e9e63"></path><path id="Trazado_4967" data-name="Trazado 4967" d="M1425.109,1358.336s-1.331,2.792-.52,4.043,1.479-2.319.52-4.043" transform="translate(-1165.048 -1111.069)" fill="#ffcf83"></path><path id="Trazado_4968" data-name="Trazado 4968" d="M1421.941,1403.713s1.331-2.792.52-4.044-1.479,2.319-.52,4.044" transform="translate(-1162.71 -1144.665)" fill="#ffcf83"></path><path id="Trazado_4969" data-name="Trazado 4969" d="M1432.8,1363.021s-2.468,1.866-2.324,3.349,2.381-1.377,2.324-3.349" transform="translate(-1170.071 -1114.901)" fill="#ffcf83"></path><path id="Trazado_4970" data-name="Trazado 4970" d="M1409.415,1401.468s2.468-1.866,2.324-3.35-2.381,1.378-2.324,3.35" transform="translate(-1152.85 -1143.274)" fill="#ffcf83"></path><path id="Trazado_4971" data-name="Trazado 4971" d="M1437.575,1374.054s-3.046.543-3.591,1.93,2.747-.147,3.591-1.93" transform="translate(-1172.898 -1123.926)" fill="#ffcf83"></path><path id="Trazado_4972" data-name="Trazado 4972" d="M1398.7,1396.923s3.045-.543,3.591-1.93-2.747.147-3.591,1.93" transform="translate(-1144.089 -1140.614)" fill="#ffcf83"></path><path id="Trazado_4973" data-name="Trazado 4973" d="M1438.719,1394.341s-2.44-1.9-3.836-1.38,1.946,1.945,3.836,1.38" transform="translate(-1173.411 -1139.317)" fill="#ffcf83"></path><path id="Trazado_4974" data-name="Trazado 4974" d="M1393.98,1386.27s2.73,1.455,4.016.7-2.251-1.582-4.016-.7" transform="translate(-1140.225 -1133.607)" fill="#ffcf83"></path><path id="Trazado_4975" data-name="Trazado 4975" d="M1434.534,1400.248s-1.517-2.7-3.007-2.753,1.045,2.545,3.007,2.753" transform="translate(-1170.571 -1143.099)" fill="#ffcf83"></path><path id="Trazado_4976" data-name="Trazado 4976" d="M1399.77,1371.639s1.517,2.7,3.006,2.753-1.045-2.545-3.006-2.753" transform="translate(-1144.961 -1121.951)" fill="#ffcf83"></path><path id="Trazado_4977" data-name="Trazado 4977" d="M1429.71,1403.937s-.2-3.087-1.517-3.784-.161,2.746,1.517,3.784" transform="translate(-1167.743 -1145.199)" fill="#ffcf83"></path><path id="Trazado_4978" data-name="Trazado 4978" d="M1411.518,1362.63s.2,3.087,1.517,3.784.161-2.746-1.517-3.784" transform="translate(-1154.571 -1114.582)" fill="#ffcf83"></path><path id="Trazado_4979" data-name="Trazado 4979" d="M1438.963,1387.516s-2.89-1.1-4.072-.2,2.43,1.289,4.072.2" transform="translate(-1173.498 -1134.484)" fill="#ffcf83"></path><path id="Trazado_4980" data-name="Trazado 4980" d="M1414.515,1381.357a2.153,2.153,0,1,1,2.153,2.153,2.153,2.153,0,0,1-2.153-2.153" transform="translate(-1157.022 -1128.139)" fill="#365da4"></path><path id="Trazado_4981" data-name="Trazado 4981" d="M1419.047,1471.707a7.473,7.473,0,0,0-4.457-2.035,19.812,19.812,0,0,0-3.378,0,7.567,7.567,0,0,0,3.485,2.035,15.937,15.937,0,0,0,4.35,0" transform="translate(-1154.32 -1202.092)" fill="#6e9e63"></path><path id="Trazado_4982" data-name="Trazado 4982" d="M1452.125,1453.5c.327-.285.573-2.608,2.575-3.189a18.928,18.928,0,0,1,3.424-.693s-1.736,3.019-3,3.471a9.957,9.957,0,0,1-3,.411" transform="translate(-1187.786 -1185.738)" fill="#6e9e63"></path><path id="Trazado_4983" data-name="Trazado 4983" d="M1387.02,1459.344l-.225-.058c.09-.4.315-8.49-2.222-13.206l.2-.11c2.571,4.779,2.329,13.042,2.243,13.374" transform="translate(-1132.53 -1182.751)" fill="#6e9e63"></path><path id="Trazado_4984" data-name="Trazado 4984" d="M1380.073,1422.775s-.8,1.675-.312,2.426.888-1.391.312-2.426" transform="translate(-1128.466 -1163.778)" fill="#ffcf83"></path><path id="Trazado_4985" data-name="Trazado 4985" d="M1378.172,1450s.8-1.676.312-2.426-.888,1.392-.312,2.426" transform="translate(-1127.063 -1183.936)" fill="#ffcf83"></path><path id="Trazado_4986" data-name="Trazado 4986" d="M1384.687,1425.585s-1.481,1.119-1.394,2.01,1.429-.827,1.394-2.01" transform="translate(-1131.481 -1166.077)" fill="#ffcf83"></path><path id="Trazado_4987" data-name="Trazado 4987" d="M1370.656,1448.654s1.481-1.12,1.394-2.01-1.429.827-1.394,2.01" transform="translate(-1121.147 -1183.101)" fill="#ffcf83"></path><path id="Trazado_4988" data-name="Trazado 4988" d="M1387.554,1432.2s-1.827.326-2.155,1.158,1.648-.088,2.155-1.158" transform="translate(-1133.177 -1171.491)" fill="#ffcf83"></path><path id="Trazado_4989" data-name="Trazado 4989" d="M1364.229,1445.927s1.827-.326,2.155-1.158-1.649.088-2.155,1.158" transform="translate(-1115.89 -1181.504)" fill="#ffcf83"></path><path id="Trazado_4990" data-name="Trazado 4990" d="M1388.24,1444.377s-1.464-1.141-2.3-.828,1.168,1.167,2.3.828" transform="translate(-1133.485 -1180.726)" fill="#ffcf83"></path><path id="Trazado_4991" data-name="Trazado 4991" d="M1361.4,1439.535s1.638.873,2.41.421-1.35-.949-2.41-.421" transform="translate(-1113.573 -1177.301)" fill="#ffcf83"></path><path id="Trazado_4992" data-name="Trazado 4992" d="M1385.728,1447.922s-.91-1.618-1.8-1.652.627,1.527,1.8,1.652" transform="translate(-1131.78 -1182.996)" fill="#ffcf83"></path><path id="Trazado_4993" data-name="Trazado 4993" d="M1364.869,1430.756s.91,1.618,1.8,1.652-.627-1.527-1.8-1.652" transform="translate(-1116.414 -1170.306)" fill="#ffcf83"></path><path id="Trazado_4994" data-name="Trazado 4994" d="M1382.834,1450.135s-.12-1.852-.91-2.27-.1,1.648.91,2.27" transform="translate(-1130.083 -1184.255)" fill="#ffcf83"></path><path id="Trazado_4995" data-name="Trazado 4995" d="M1371.918,1425.351s.12,1.852.91,2.271.1-1.648-.91-2.271" transform="translate(-1122.179 -1165.885)" fill="#ffcf83"></path><path id="Trazado_4996" data-name="Trazado 4996" d="M1388.385,1440.282s-1.734-.662-2.443-.117,1.458.774,2.443.117" transform="translate(-1133.536 -1177.826)" fill="#ffcf83"></path><path id="Trazado_4997" data-name="Trazado 4997" d="M1373.717,1436.587a1.292,1.292,0,1,1,1.292,1.292,1.292,1.292,0,0,1-1.292-1.292" transform="translate(-1123.651 -1174.019)" fill="#365da4"></path><path id="Trazado_4998" data-name="Trazado 4998" d="M1376.435,1490.8a4.484,4.484,0,0,0-2.674-1.221,11.866,11.866,0,0,0-2.027,0,4.54,4.54,0,0,0,2.091,1.221,9.565,9.565,0,0,0,2.61,0" transform="translate(-1122.029 -1218.393)" fill="#6e9e63"></path><path id="Trazado_4999" data-name="Trazado 4999" d="M1396.283,1479.877c.2-.171.344-1.565,1.545-1.914a11.387,11.387,0,0,1,2.054-.416s-1.041,1.811-1.8,2.083a5.971,5.971,0,0,1-1.8.247" transform="translate(-1142.109 -1208.58)" fill="#6e9e63"></path><path id="Trazado_5000" data-name="Trazado 5000" d="M1310.949,1419.284l-.375-.1c.151-.67.525-14.15-3.7-22.01l.341-.183c4.285,7.965,3.882,21.735,3.738,22.289" transform="translate(-1068.973 -1142.691)" fill="#6e9e63"></path><path id="Trazado_5001" data-name="Trazado 5001" d="M1299.374,1358.336s-1.331,2.792-.52,4.043,1.479-2.319.52-4.043" transform="translate(-1062.202 -1111.069)" fill="#ffcf83"></path><path id="Trazado_5002" data-name="Trazado 5002" d="M1296.205,1403.713s1.331-2.792.52-4.044-1.479,2.319-.52,4.044" transform="translate(-1059.863 -1144.665)" fill="#ffcf83"></path><path id="Trazado_5003" data-name="Trazado 5003" d="M1307.063,1363.021s-2.467,1.866-2.324,3.349,2.381-1.377,2.324-3.349" transform="translate(-1067.224 -1114.901)" fill="#ffcf83"></path><path id="Trazado_5004" data-name="Trazado 5004" d="M1283.68,1401.468s2.467-1.866,2.324-3.35-2.381,1.378-2.324,3.35" transform="translate(-1050.003 -1143.274)" fill="#ffcf83"></path><path id="Trazado_5005" data-name="Trazado 5005" d="M1311.84,1374.054s-3.046.543-3.591,1.93,2.747-.147,3.591-1.93" transform="translate(-1070.051 -1123.926)" fill="#ffcf83"></path><path id="Trazado_5006" data-name="Trazado 5006" d="M1272.969,1396.923s3.046-.543,3.591-1.93-2.747.147-3.591,1.93" transform="translate(-1041.243 -1140.614)" fill="#ffcf83"></path><path id="Trazado_5007" data-name="Trazado 5007" d="M1312.985,1394.341s-2.44-1.9-3.836-1.38,1.946,1.945,3.836,1.38" transform="translate(-1070.565 -1139.317)" fill="#ffcf83"></path><path id="Trazado_5008" data-name="Trazado 5008" d="M1268.245,1386.27s2.73,1.455,4.016.7-2.251-1.582-4.016-.7" transform="translate(-1037.379 -1133.607)" fill="#ffcf83"></path><path id="Trazado_5009" data-name="Trazado 5009" d="M1308.8,1400.248s-1.517-2.7-3.006-2.753,1.045,2.545,3.006,2.753" transform="translate(-1067.724 -1143.099)" fill="#ffcf83"></path><path id="Trazado_5010" data-name="Trazado 5010" d="M1274.034,1371.639s1.517,2.7,3.007,2.753-1.045-2.545-3.007-2.753" transform="translate(-1042.114 -1121.951)" fill="#ffcf83"></path><path id="Trazado_5011" data-name="Trazado 5011" d="M1303.974,1403.937s-.2-3.087-1.517-3.784-.161,2.746,1.517,3.784" transform="translate(-1064.896 -1145.199)" fill="#ffcf83"></path><path id="Trazado_5012" data-name="Trazado 5012" d="M1285.782,1362.63s.2,3.087,1.517,3.784.161-2.746-1.517-3.784" transform="translate(-1051.723 -1114.582)" fill="#ffcf83"></path><path id="Trazado_5013" data-name="Trazado 5013" d="M1313.227,1387.516s-2.89-1.1-4.072-.2,2.43,1.289,4.072.2" transform="translate(-1070.651 -1134.484)" fill="#ffcf83"></path><path id="Trazado_5014" data-name="Trazado 5014" d="M1288.78,1381.357a2.153,2.153,0,1,1,2.153,2.153,2.153,2.153,0,0,1-2.153-2.153" transform="translate(-1054.176 -1128.139)" fill="#365da4"></path><path id="Trazado_5015" data-name="Trazado 5015" d="M1290,1441.844a7.473,7.473,0,0,0-4.457-2.035,19.813,19.813,0,0,0-3.378,0,7.567,7.567,0,0,0,3.485,2.035,15.942,15.942,0,0,0,4.35,0" transform="translate(-1048.762 -1177.664)" fill="#6e9e63"></path><path id="Trazado_5016" data-name="Trazado 5016" d="M1323.076,1423.641c.327-.285.573-2.608,2.575-3.189a18.951,18.951,0,0,1,3.424-.693s-1.735,3.019-3,3.471a9.952,9.952,0,0,1-3,.412" transform="translate(-1082.229 -1161.31)" fill="#6e9e63"></path><path id="Trazado_5017" data-name="Trazado 5017" d="M1349.025,1411.08l-.376-.1c.151-.725.526-15.308-3.7-23.812l.341-.2c4.285,8.617,3.882,23.516,3.738,24.115" transform="translate(-1100.117 -1134.487)" fill="#6e9e63"></path><path id="Trazado_5018" data-name="Trazado 5018" d="M1337.449,1345.14s-1.331,3.021-.52,4.375,1.479-2.509.52-4.375" transform="translate(-1093.345 -1100.276)" fill="#ffcf83"></path><path id="Trazado_5019" data-name="Trazado 5019" d="M1334.28,1394.233s1.331-3.021.52-4.375-1.479,2.509-.52,4.375" transform="translate(-1091.006 -1136.623)" fill="#ffcf83"></path><path id="Trazado_5020" data-name="Trazado 5020" d="M1345.138,1350.208s-2.468,2.019-2.324,3.624,2.381-1.49,2.324-3.624" transform="translate(-1098.368 -1104.421)" fill="#ffcf83"></path><path id="Trazado_5021" data-name="Trazado 5021" d="M1321.755,1391.805s2.468-2.019,2.324-3.624-2.381,1.49-2.324,3.624" transform="translate(-1081.147 -1135.118)" fill="#ffcf83"></path><path id="Trazado_5022" data-name="Trazado 5022" d="M1349.915,1362.145s-3.046.587-3.591,2.088,2.747-.159,3.591-2.088" transform="translate(-1101.195 -1114.185)" fill="#ffcf83"></path><path id="Trazado_5023" data-name="Trazado 5023" d="M1311.044,1386.888s3.046-.588,3.591-2.088-2.747.159-3.591,2.088" transform="translate(-1072.387 -1132.24)" fill="#ffcf83"></path><path id="Trazado_5024" data-name="Trazado 5024" d="M1351.059,1384.093s-2.44-2.058-3.836-1.493,1.946,2.1,3.836,1.493" transform="translate(-1101.708 -1130.836)" fill="#ffcf83"></path><path id="Trazado_5025" data-name="Trazado 5025" d="M1306.32,1375.361s2.73,1.574,4.016.758-2.251-1.711-4.016-.758" transform="translate(-1068.523 -1124.659)" fill="#ffcf83"></path><path id="Trazado_5026" data-name="Trazado 5026" d="M1346.874,1390.485s-1.517-2.917-3.007-2.979,1.045,2.753,3.007,2.979" transform="translate(-1098.868 -1134.929)" fill="#ffcf83"></path><path id="Trazado_5027" data-name="Trazado 5027" d="M1312.109,1359.532s1.517,2.917,3.007,2.979-1.045-2.753-3.007-2.979" transform="translate(-1073.258 -1112.048)" fill="#ffcf83"></path><path id="Trazado_5028" data-name="Trazado 5028" d="M1342.05,1394.476s-.2-3.34-1.517-4.094-.161,2.971,1.517,4.094" transform="translate(-1096.041 -1137.2)" fill="#ffcf83"></path><path id="Trazado_5029" data-name="Trazado 5029" d="M1323.858,1349.785s.2,3.34,1.517,4.094.161-2.971-1.517-4.094" transform="translate(-1082.868 -1104.075)" fill="#ffcf83"></path><path id="Trazado_5030" data-name="Trazado 5030" d="M1351.3,1376.709s-2.89-1.194-4.072-.212,2.43,1.395,4.072.212" transform="translate(-1101.796 -1125.607)" fill="#ffcf83"></path><path id="Trazado_5031" data-name="Trazado 5031" d="M1326.854,1370.047a2.16,2.16,0,1,1,2.153,2.33,2.247,2.247,0,0,1-2.153-2.33" transform="translate(-1085.319 -1118.743)" fill="#365da4"></path><path id="Trazado_5032" data-name="Trazado 5032" d="M1331.386,1467.8a7.289,7.289,0,0,0-4.457-2.2,18.313,18.313,0,0,0-3.378,0,7.508,7.508,0,0,0,3.485,2.2,14.75,14.75,0,0,0,4.35,0" transform="translate(-1082.617 -1198.754)" fill="#6e9e63"></path><path id="Trazado_5033" data-name="Trazado 5033" d="M1364.465,1448.1c.327-.308.573-2.822,2.575-3.45a17.667,17.667,0,0,1,3.424-.75s-1.736,3.266-3,3.755a9.245,9.245,0,0,1-3,.445" transform="translate(-1116.083 -1181.06)" fill="#6e9e63"></path><path id="Trazado_5034" data-name="Trazado 5034" d="M1304.861,1448.718l-.265-.068c.106-.473.371-9.991-2.615-15.541l.241-.13c3.026,5.624,2.741,15.348,2.639,15.739" transform="translate(-1064.974 -1172.125)" fill="#6e9e63"></path><path id="Trazado_5035" data-name="Trazado 5035" d="M1296.687,1405.681s-.94,1.972-.367,2.855,1.045-1.638.367-2.855" transform="translate(-1060.191 -1149.796)" fill="#ffcf83"></path><path id="Trazado_5036" data-name="Trazado 5036" d="M1294.449,1437.722s.94-1.972.367-2.855-1.045,1.638-.367,2.855" transform="translate(-1058.54 -1173.518)" fill="#ffcf83"></path><path id="Trazado_5037" data-name="Trazado 5037" d="M1302.116,1408.988s-1.742,1.317-1.641,2.365,1.682-.973,1.641-2.365" transform="translate(-1063.738 -1152.501)" fill="#ffcf83"></path><path id="Trazado_5038" data-name="Trazado 5038" d="M1285.6,1436.137s1.742-1.317,1.641-2.365-1.682.973-1.641,2.365" transform="translate(-1051.578 -1172.536)" fill="#ffcf83"></path><path id="Trazado_5039" data-name="Trazado 5039" d="M1305.489,1416.779s-2.15.383-2.536,1.363,1.94-.1,2.536-1.363" transform="translate(-1065.734 -1158.874)" fill="#ffcf83"></path><path id="Trazado_5040" data-name="Trazado 5040" d="M1278.041,1432.928s2.151-.383,2.536-1.363-1.94.1-2.536,1.363" transform="translate(-1045.391 -1170.658)" fill="#ffcf83"></path><path id="Trazado_5041" data-name="Trazado 5041" d="M1306.3,1431.1s-1.723-1.343-2.709-.974,1.374,1.373,2.709.974" transform="translate(-1066.096 -1169.741)" fill="#ffcf83"></path><path id="Trazado_5042" data-name="Trazado 5042" d="M1274.706,1425.4s1.928,1.027,2.836.495-1.589-1.117-2.836-.495" transform="translate(-1042.664 -1165.709)" fill="#ffcf83"></path><path id="Trazado_5043" data-name="Trazado 5043" d="M1303.342,1435.275s-1.071-1.9-2.123-1.944.738,1.8,2.123,1.944" transform="translate(-1064.092 -1172.412)" fill="#ffcf83"></path><path id="Trazado_5044" data-name="Trazado 5044" d="M1278.794,1415.074s1.071,1.9,2.123,1.944-.738-1.8-2.123-1.944" transform="translate(-1046.007 -1157.479)" fill="#ffcf83"></path><path id="Trazado_5045" data-name="Trazado 5045" d="M1299.936,1437.88s-.141-2.18-1.071-2.672-.114,1.939,1.071,2.672" transform="translate(-1062.095 -1173.895)" fill="#ffcf83"></path><path id="Trazado_5046" data-name="Trazado 5046" d="M1287.09,1408.713s.141,2.18,1.071,2.672.114-1.939-1.071-2.672" transform="translate(-1052.793 -1152.276)" fill="#ffcf83"></path><path id="Trazado_5047" data-name="Trazado 5047" d="M1306.469,1426.285s-2.041-.779-2.875-.138,1.716.91,2.875.138" transform="translate(-1066.158 -1166.329)" fill="#ffcf83"></path><path id="Trazado_5048" data-name="Trazado 5048" d="M1289.206,1421.937a1.52,1.52,0,1,1,1.521,1.52,1.52,1.52,0,0,1-1.521-1.52" transform="translate(-1054.524 -1161.849)" fill="#365da4"></path><path id="Trazado_5049" data-name="Trazado 5049" d="M1292.406,1485.735a5.276,5.276,0,0,0-3.147-1.437,13.991,13.991,0,0,0-2.385,0,5.344,5.344,0,0,0,2.461,1.437,11.262,11.262,0,0,0,3.072,0" transform="translate(-1052.616 -1214.068)" fill="#6e9e63"></path><path id="Trazado_5050" data-name="Trazado 5050" d="M1315.764,1472.88c.231-.2.4-1.841,1.818-2.252a13.377,13.377,0,0,1,2.418-.49s-1.226,2.132-2.118,2.451a7.028,7.028,0,0,1-2.118.291" transform="translate(-1076.248 -1202.52)" fill="#6e9e63"></path><path id="Trazado_5051" data-name="Trazado 5051" d="M1255.226,1468.521l-.191-.049c.077-.341.267-7.193-1.883-11.189l.174-.094c2.178,4.049,1.974,11.05,1.9,11.332" transform="translate(-1025.033 -1191.927)" fill="#6e9e63"></path><path id="Trazado_5052" data-name="Trazado 5052" d="M1249.34,1437.535s-.677,1.419-.265,2.056.752-1.179.265-2.056" transform="translate(-1021.59 -1175.851)" fill="#ffcf83"></path><path id="Trazado_5053" data-name="Trazado 5053" d="M1247.731,1460.6s.677-1.42.265-2.056-.752,1.179-.265,2.056" transform="translate(-1020.402 -1192.932)" fill="#ffcf83"></path><path id="Trazado_5054" data-name="Trazado 5054" d="M1253.25,1439.916s-1.254.949-1.181,1.7,1.211-.7,1.181-1.7" transform="translate(-1024.144 -1177.799)" fill="#ffcf83"></path><path id="Trazado_5055" data-name="Trazado 5055" d="M1241.361,1459.463s1.255-.948,1.181-1.7-1.21.7-1.181,1.7" transform="translate(-1015.388 -1192.224)" fill="#ffcf83"></path><path id="Trazado_5056" data-name="Trazado 5056" d="M1255.679,1445.525s-1.548.276-1.826.981,1.4-.075,1.826-.981" transform="translate(-1025.582 -1182.387)" fill="#ffcf83"></path><path id="Trazado_5057" data-name="Trazado 5057" d="M1235.917,1457.152s1.548-.276,1.825-.981-1.4.075-1.825.981" transform="translate(-1010.936 -1190.871)" fill="#ffcf83"></path><path id="Trazado_5058" data-name="Trazado 5058" d="M1256.26,1455.839s-1.24-.967-1.95-.7.989.989,1.95.7" transform="translate(-1025.842 -1190.211)" fill="#ffcf83"></path><path id="Trazado_5059" data-name="Trazado 5059" d="M1233.516,1451.737s1.388.74,2.042.356-1.144-.8-2.042-.356" transform="translate(-1008.972 -1187.31)" fill="#ffcf83"></path><path id="Trazado_5060" data-name="Trazado 5060" d="M1254.132,1458.844s-.771-1.371-1.528-1.4.531,1.294,1.528,1.4" transform="translate(-1024.398 -1192.136)" fill="#ffcf83"></path><path id="Trazado_5061" data-name="Trazado 5061" d="M1236.458,1444.3s.771,1.37,1.529,1.4-.531-1.294-1.529-1.4" transform="translate(-1011.378 -1181.383)" fill="#ffcf83"></path><path id="Trazado_5062" data-name="Trazado 5062" d="M1251.679,1460.718s-.1-1.569-.771-1.924-.082,1.4.771,1.924" transform="translate(-1022.96 -1193.202)" fill="#ffcf83"></path><path id="Trazado_5063" data-name="Trazado 5063" d="M1242.432,1439.718s.1,1.569.771,1.924.082-1.4-.771-1.924" transform="translate(-1016.265 -1177.637)" fill="#ffcf83"></path><path id="Trazado_5064" data-name="Trazado 5064" d="M1256.384,1452.37s-1.469-.561-2.07-.1,1.235.656,2.07.1" transform="translate(-1025.887 -1187.755)" fill="#ffcf83"></path><path id="Trazado_5065" data-name="Trazado 5065" d="M1243.955,1449.238a1.095,1.095,0,1,1,1.095,1.095,1.095,1.095,0,0,1-1.095-1.095" transform="translate(-1017.51 -1184.528)" fill="#365da4"></path><path id="Trazado_5066" data-name="Trazado 5066" d="M1244.574,1479.99a3.8,3.8,0,0,0-2.266-1.034,10.05,10.05,0,0,0-1.718,0,3.846,3.846,0,0,0,1.772,1.034,8.1,8.1,0,0,0,2.212,0" transform="translate(-1014.759 -1209.708)" fill="#6e9e63"></path><path id="Trazado_5067" data-name="Trazado 5067" d="M1261.391,1470.735c.166-.145.291-1.326,1.309-1.621a9.644,9.644,0,0,1,1.741-.353s-.882,1.535-1.525,1.765a5.065,5.065,0,0,1-1.525.209" transform="translate(-1031.772 -1201.393)" fill="#6e9e63"></path><path id="Trazado_5068" data-name="Trazado 5068" d="M1281.846,1459.517l-.225-.057c.09-.4.314-8.466-2.216-13.168l.2-.11c2.564,4.765,2.323,13,2.236,13.336" transform="translate(-1046.507 -1182.923)" fill="#6e9e63"></path><path id="Trazado_5069" data-name="Trazado 5069" d="M1274.919,1423.052s-.8,1.671-.311,2.419.885-1.388.311-2.419" transform="translate(-1042.455 -1164.005)" fill="#ffcf83"></path><path id="Trazado_5070" data-name="Trazado 5070" d="M1273.024,1450.2s.8-1.671.312-2.419-.885,1.388-.312,2.419" transform="translate(-1041.057 -1184.105)" fill="#ffcf83"></path><path id="Trazado_5071" data-name="Trazado 5071" d="M1279.519,1425.855s-1.476,1.116-1.39,2,1.425-.824,1.39-2" transform="translate(-1045.46 -1166.297)" fill="#ffcf83"></path><path id="Trazado_5072" data-name="Trazado 5072" d="M1265.53,1448.858s1.476-1.116,1.39-2-1.424.824-1.39,2" transform="translate(-1035.157 -1183.272)" fill="#ffcf83"></path><path id="Trazado_5073" data-name="Trazado 5073" d="M1282.377,1432.455s-1.822.325-2.148,1.155,1.643-.088,2.148-1.155" transform="translate(-1047.151 -1171.696)" fill="#ffcf83"></path><path id="Trazado_5074" data-name="Trazado 5074" d="M1259.121,1446.138s1.822-.324,2.149-1.155-1.643.088-2.149,1.155" transform="translate(-1029.916 -1181.681)" fill="#ffcf83"></path><path id="Trazado_5075" data-name="Trazado 5075" d="M1283.063,1444.593s-1.46-1.138-2.3-.826,1.164,1.163,2.3.826" transform="translate(-1047.46 -1180.905)" fill="#ffcf83"></path><path id="Trazado_5076" data-name="Trazado 5076" d="M1256.3,1439.763s1.633.87,2.4.419-1.347-.946-2.4-.419" transform="translate(-1027.605 -1177.488)" fill="#ffcf83"></path><path id="Trazado_5077" data-name="Trazado 5077" d="M1280.559,1448.127s-.908-1.613-1.8-1.647.625,1.523,1.8,1.647" transform="translate(-1045.76 -1183.167)" fill="#ffcf83"></path><path id="Trazado_5078" data-name="Trazado 5078" d="M1259.759,1431.011s.907,1.613,1.8,1.647-.625-1.523-1.8-1.647" transform="translate(-1030.438 -1170.515)" fill="#ffcf83"></path><path id="Trazado_5079" data-name="Trazado 5079" d="M1277.672,1450.334s-.119-1.847-.908-2.264-.1,1.643.908,2.264" transform="translate(-1044.068 -1184.423)" fill="#ffcf83"></path><path id="Trazado_5080" data-name="Trazado 5080" d="M1266.787,1425.62s.12,1.847.908,2.264.1-1.643-.908-2.264" transform="translate(-1036.186 -1166.105)" fill="#ffcf83"></path><path id="Trazado_5081" data-name="Trazado 5081" d="M1283.208,1440.51s-1.729-.66-2.436-.117,1.454.771,2.436.117" transform="translate(-1047.511 -1178.013)" fill="#ffcf83"></path><path id="Trazado_5082" data-name="Trazado 5082" d="M1268.581,1436.824a1.288,1.288,0,1,1,1.288,1.288,1.288,1.288,0,0,1-1.288-1.288" transform="translate(-1037.654 -1174.216)" fill="#365da4"></path><path id="Trazado_5083" data-name="Trazado 5083" d="M1271.292,1490.881a4.472,4.472,0,0,0-2.667-1.218,11.871,11.871,0,0,0-2.021,0,4.528,4.528,0,0,0,2.085,1.218,9.545,9.545,0,0,0,2.6,0" transform="translate(-1036.036 -1218.463)" fill="#6e9e63"></path><path id="Trazado_5084" data-name="Trazado 5084" d="M1291.083,1479.99c.2-.17.343-1.56,1.541-1.908a11.338,11.338,0,0,1,2.048-.415s-1.039,1.806-1.795,2.077a5.95,5.95,0,0,1-1.794.246" transform="translate(-1056.059 -1208.678)" fill="#6e9e63"></path><path id="Trazado_5085" data-name="Trazado 5085" d="M1252.13,1483.485l-.135-.034c.054-.24.189-5.08-1.33-7.9l.122-.066c1.538,2.859,1.394,7.8,1.342,8" transform="translate(-1023 -1206.891)" fill="#6e9e63"></path><path id="Trazado_5086" data-name="Trazado 5086" d="M1247.974,1461.6s-.478,1-.187,1.452.531-.833.187-1.452" transform="translate(-1020.568 -1195.54)" fill="#ffcf83"></path><path id="Trazado_5087" data-name="Trazado 5087" d="M1246.838,1477.894s.478-1,.187-1.452-.531.833-.187,1.452" transform="translate(-1019.729 -1207.6)" fill="#ffcf83"></path><path id="Trazado_5088" data-name="Trazado 5088" d="M1250.735,1463.286s-.886.67-.834,1.2.855-.494.834-1.2" transform="translate(-1022.372 -1196.915)" fill="#ffcf83"></path><path id="Trazado_5089" data-name="Trazado 5089" d="M1242.341,1477.089s.886-.67.834-1.2-.855.494-.834,1.2" transform="translate(-1016.19 -1207.101)" fill="#ffcf83"></path><path id="Trazado_5090" data-name="Trazado 5090" d="M1252.45,1467.247s-1.093.195-1.289.693.986-.053,1.289-.693" transform="translate(-1023.387 -1200.155)" fill="#ffcf83"></path><path id="Trazado_5091" data-name="Trazado 5091" d="M1238.495,1475.457s1.094-.195,1.289-.693-.986.053-1.289.693" transform="translate(-1013.044 -1206.146)" fill="#ffcf83"></path><path id="Trazado_5092" data-name="Trazado 5092" d="M1252.861,1474.529s-.876-.683-1.377-.5.7.7,1.377.5" transform="translate(-1023.571 -1205.679)" fill="#ffcf83"></path><path id="Trazado_5093" data-name="Trazado 5093" d="M1236.8,1471.632s.98.522,1.442.252-.808-.568-1.442-.252" transform="translate(-1011.658 -1203.63)" fill="#ffcf83"></path><path id="Trazado_5094" data-name="Trazado 5094" d="M1251.358,1476.65s-.544-.968-1.079-.989.375.914,1.079.989" transform="translate(-1022.552 -1207.037)" fill="#ffcf83"></path><path id="Trazado_5095" data-name="Trazado 5095" d="M1238.878,1466.38s.544.968,1.079.989-.375-.914-1.079-.989" transform="translate(-1013.358 -1199.445)" fill="#ffcf83"></path><path id="Trazado_5096" data-name="Trazado 5096" d="M1249.626,1477.975s-.072-1.108-.545-1.358-.058.986.545,1.358" transform="translate(-1021.536 -1207.792)" fill="#ffcf83"></path><path id="Trazado_5097" data-name="Trazado 5097" d="M1243.1,1463.146s.072,1.108.545,1.359.058-.986-.545-1.359" transform="translate(-1016.808 -1196.8)" fill="#ffcf83"></path><path id="Trazado_5098" data-name="Trazado 5098" d="M1252.948,1472.08s-1.037-.4-1.462-.07.872.463,1.462.07" transform="translate(-1023.603 -1203.945)" fill="#ffcf83"></path><path id="Trazado_5099" data-name="Trazado 5099" d="M1244.172,1469.869a.773.773,0,1,1,.773.773.773.773,0,0,1-.773-.773" transform="translate(-1017.688 -1201.667)" fill="#365da4"></path><path id="Trazado_5100" data-name="Trazado 5100" d="M1245.8,1502.3a2.684,2.684,0,0,0-1.6-.731,7.113,7.113,0,0,0-1.213,0,2.716,2.716,0,0,0,1.251.731,5.722,5.722,0,0,0,1.562,0" transform="translate(-1016.717 -1228.215)" fill="#6e9e63"></path><path id="Trazado_5101" data-name="Trazado 5101" d="M1257.674,1495.769c.117-.1.205-.936.924-1.145a6.792,6.792,0,0,1,1.229-.249s-.623,1.084-1.077,1.246a3.571,3.571,0,0,1-1.077.148" transform="translate(-1028.732 -1222.344)" fill="#6e9e63"></path><path id="Trazado_5102" data-name="Trazado 5102" d="M1206.618,1459.517l-.225-.057c.09-.4.314-8.466-2.216-13.168l.2-.11c2.564,4.765,2.323,13,2.236,13.336" transform="translate(-984.974 -1182.923)" fill="#6e9e63"></path><path id="Trazado_5103" data-name="Trazado 5103" d="M1199.692,1423.052s-.8,1.671-.311,2.419.885-1.388.311-2.419" transform="translate(-980.922 -1164.005)" fill="#ffcf83"></path><path id="Trazado_5104" data-name="Trazado 5104" d="M1197.8,1450.2s.8-1.671.311-2.419-.885,1.388-.311,2.419" transform="translate(-979.523 -1184.105)" fill="#ffcf83"></path><path id="Trazado_5105" data-name="Trazado 5105" d="M1204.293,1425.855s-1.476,1.116-1.39,2,1.425-.824,1.39-2" transform="translate(-983.928 -1166.297)" fill="#ffcf83"></path><path id="Trazado_5106" data-name="Trazado 5106" d="M1190.3,1448.858s1.476-1.116,1.39-2-1.425.824-1.39,2" transform="translate(-973.625 -1183.272)" fill="#ffcf83"></path><path id="Trazado_5107" data-name="Trazado 5107" d="M1207.151,1432.455s-1.822.325-2.148,1.155,1.644-.088,2.148-1.155" transform="translate(-985.619 -1171.696)" fill="#ffcf83"></path><path id="Trazado_5108" data-name="Trazado 5108" d="M1183.9,1446.138s1.822-.324,2.148-1.155-1.644.088-2.148,1.155" transform="translate(-968.383 -1181.681)" fill="#ffcf83"></path><path id="Trazado_5109" data-name="Trazado 5109" d="M1207.836,1444.593s-1.46-1.138-2.3-.826,1.164,1.163,2.3.826" transform="translate(-985.926 -1180.905)" fill="#ffcf83"></path><path id="Trazado_5110" data-name="Trazado 5110" d="M1181.068,1439.763s1.633.87,2.4.419-1.346-.946-2.4-.419" transform="translate(-966.071 -1177.488)" fill="#ffcf83"></path><path id="Trazado_5111" data-name="Trazado 5111" d="M1205.331,1448.127s-.907-1.613-1.8-1.647.625,1.523,1.8,1.647" transform="translate(-984.227 -1183.167)" fill="#ffcf83"></path><path id="Trazado_5112" data-name="Trazado 5112" d="M1184.532,1431.011s.907,1.613,1.8,1.647-.625-1.523-1.8-1.647" transform="translate(-968.904 -1170.515)" fill="#ffcf83"></path><path id="Trazado_5113" data-name="Trazado 5113" d="M1202.446,1450.334s-.119-1.847-.908-2.264-.1,1.643.908,2.264" transform="translate(-982.535 -1184.423)" fill="#ffcf83"></path><path id="Trazado_5114" data-name="Trazado 5114" d="M1191.561,1425.62s.119,1.847.908,2.264.1-1.643-.908-2.264" transform="translate(-974.654 -1166.105)" fill="#ffcf83"></path><path id="Trazado_5115" data-name="Trazado 5115" d="M1207.981,1440.51s-1.729-.66-2.436-.117,1.454.771,2.436.117" transform="translate(-985.978 -1178.013)" fill="#ffcf83"></path><path id="Trazado_5116" data-name="Trazado 5116" d="M1193.354,1436.824a1.288,1.288,0,1,1,1.288,1.288,1.288,1.288,0,0,1-1.288-1.288" transform="translate(-976.121 -1174.216)" fill="#365da4"></path><path id="Trazado_5117" data-name="Trazado 5117" d="M1194.084,1473.015a4.471,4.471,0,0,0-2.667-1.217,11.83,11.83,0,0,0-2.021,0,4.525,4.525,0,0,0,2.085,1.217,9.534,9.534,0,0,0,2.6,0" transform="translate(-972.883 -1203.849)" fill="#6e9e63"></path><path id="Trazado_5118" data-name="Trazado 5118" d="M1213.873,1462.123c.2-.17.343-1.56,1.541-1.908a11.319,11.319,0,0,1,2.048-.415s-1.038,1.806-1.795,2.077a5.956,5.956,0,0,1-1.795.246" transform="translate(-992.904 -1194.063)" fill="#6e9e63"></path><path id="Trazado_5119" data-name="Trazado 5119" d="M1229.4,1454.608l-.225-.062c.09-.434.314-9.159-2.216-14.247l.2-.119c2.564,5.155,2.323,14.069,2.236,14.428" transform="translate(-1003.607 -1178.015)" fill="#6e9e63"></path><path id="Trazado_5120" data-name="Trazado 5120" d="M1222.472,1415.156s-.8,1.808-.311,2.617.885-1.5.311-2.617" transform="translate(-999.555 -1157.546)" fill="#ffcf83"></path><path id="Trazado_5121" data-name="Trazado 5121" d="M1220.578,1444.529s.8-1.808.311-2.617-.885,1.5-.311,2.617" transform="translate(-998.157 -1179.293)" fill="#ffcf83"></path><path id="Trazado_5122" data-name="Trazado 5122" d="M1227.073,1418.189s-1.476,1.208-1.391,2.168,1.425-.892,1.391-2.168" transform="translate(-1002.561 -1160.027)" fill="#ffcf83"></path><path id="Trazado_5123" data-name="Trazado 5123" d="M1213.083,1443.076s1.476-1.208,1.39-2.168-1.425.892-1.39,2.168" transform="translate(-992.258 -1178.393)" fill="#ffcf83"></path><path id="Trazado_5124" data-name="Trazado 5124" d="M1229.931,1425.33s-1.822.351-2.149,1.249,1.644-.095,2.149-1.249" transform="translate(-1004.252 -1165.868)" fill="#ffcf83"></path><path id="Trazado_5125" data-name="Trazado 5125" d="M1206.675,1440.134s1.822-.351,2.148-1.249-1.644.095-2.148,1.249" transform="translate(-987.017 -1176.671)" fill="#ffcf83"></path><path id="Trazado_5126" data-name="Trazado 5126" d="M1230.616,1438.462s-1.46-1.231-2.3-.893,1.164,1.259,2.3.893" transform="translate(-1004.56 -1175.831)" fill="#ffcf83"></path><path id="Trazado_5127" data-name="Trazado 5127" d="M1203.849,1433.238s1.633.942,2.4.454-1.347-1.024-2.4-.454" transform="translate(-984.705 -1172.135)" fill="#ffcf83"></path><path id="Trazado_5128" data-name="Trazado 5128" d="M1228.111,1442.286s-.907-1.745-1.8-1.782.625,1.647,1.8,1.782" transform="translate(-1002.86 -1178.279)" fill="#ffcf83"></path><path id="Trazado_5129" data-name="Trazado 5129" d="M1207.313,1423.767s.907,1.745,1.8,1.782-.625-1.647-1.8-1.782" transform="translate(-987.539 -1164.589)" fill="#ffcf83"></path><path id="Trazado_5130" data-name="Trazado 5130" d="M1225.226,1444.674s-.119-2-.908-2.449-.1,1.778.908,2.449" transform="translate(-1001.169 -1179.638)" fill="#ffcf83"></path><path id="Trazado_5131" data-name="Trazado 5131" d="M1214.341,1417.936s.119,2,.908,2.449.1-1.778-.908-2.449" transform="translate(-993.287 -1159.82)" fill="#ffcf83"></path><path id="Trazado_5132" data-name="Trazado 5132" d="M1230.761,1434.044s-1.729-.715-2.436-.127,1.454.835,2.436.127" transform="translate(-1004.611 -1172.703)" fill="#ffcf83"></path><path id="Trazado_5133" data-name="Trazado 5133" d="M1216.135,1430.058a1.292,1.292,0,1,1,1.288,1.394,1.344,1.344,0,0,1-1.288-1.394" transform="translate(-994.755 -1168.595)" fill="#365da4"></path><path id="Trazado_5134" data-name="Trazado 5134" d="M1218.845,1488.543a4.361,4.361,0,0,0-2.667-1.317,10.944,10.944,0,0,0-2.021,0,4.5,4.5,0,0,0,2.085,1.317,8.819,8.819,0,0,0,2.6,0" transform="translate(-993.137 -1216.466)" fill="#6e9e63"></path><path id="Trazado_5135" data-name="Trazado 5135" d="M1238.637,1476.759c.2-.184.343-1.688,1.541-2.064a10.582,10.582,0,0,1,2.048-.449s-1.038,1.954-1.795,2.247a5.533,5.533,0,0,1-1.795.266" transform="translate(-1013.16 -1205.879)" fill="#6e9e63"></path><path id="Trazado_5136" data-name="Trazado 5136" d="M1202.975,1477.126l-.159-.041c.064-.283.222-5.978-1.565-9.3l.144-.078c1.811,3.365,1.64,9.183,1.579,9.417" transform="translate(-982.581 -1200.533)" fill="#6e9e63"></path><path id="Trazado_5137" data-name="Trazado 5137" d="M1198.084,1451.378s-.562,1.18-.22,1.708.625-.98.22-1.708" transform="translate(-979.72 -1187.174)" fill="#ffcf83"></path><path id="Trazado_5138" data-name="Trazado 5138" d="M1196.747,1470.548s.562-1.18.22-1.708-.625.98-.22,1.708" transform="translate(-978.732 -1201.367)" fill="#ffcf83"></path><path id="Trazado_5139" data-name="Trazado 5139" d="M1201.333,1453.357s-1.042.788-.982,1.415,1.006-.582.982-1.415" transform="translate(-981.842 -1188.793)" fill="#ffcf83"></path><path id="Trazado_5140" data-name="Trazado 5140" d="M1191.455,1469.6s1.042-.788.982-1.415-1.006.582-.982,1.415" transform="translate(-974.567 -1200.779)" fill="#ffcf83"></path><path id="Trazado_5141" data-name="Trazado 5141" d="M1203.351,1458.018s-1.286.229-1.517.816,1.161-.062,1.517-.816" transform="translate(-983.036 -1192.605)" fill="#ffcf83"></path><path id="Trazado_5142" data-name="Trazado 5142" d="M1186.93,1467.679s1.287-.229,1.517-.816-1.161.062-1.517.816" transform="translate(-970.866 -1199.655)" fill="#ffcf83"></path><path id="Trazado_5143" data-name="Trazado 5143" d="M1203.835,1466.589s-1.031-.8-1.621-.583.822.822,1.621.583" transform="translate(-983.253 -1199.108)" fill="#ffcf83"></path><path id="Trazado_5144" data-name="Trazado 5144" d="M1184.934,1463.179s1.153.615,1.7.3-.951-.668-1.7-.3" transform="translate(-969.233 -1196.696)" fill="#ffcf83"></path><path id="Trazado_5145" data-name="Trazado 5145" d="M1202.067,1469.084s-.641-1.139-1.27-1.163.441,1.075,1.27,1.163" transform="translate(-982.053 -1200.706)" fill="#ffcf83"></path><path id="Trazado_5146" data-name="Trazado 5146" d="M1187.38,1457s.641,1.139,1.27,1.163-.441-1.075-1.27-1.163" transform="translate(-971.234 -1191.771)" fill="#ffcf83"></path><path id="Trazado_5147" data-name="Trazado 5147" d="M1200.028,1470.643s-.084-1.3-.641-1.6-.068,1.16.641,1.6" transform="translate(-980.858 -1201.593)" fill="#ffcf83"></path><path id="Trazado_5148" data-name="Trazado 5148" d="M1192.343,1453.192s.084,1.3.641,1.6.068-1.16-.641-1.6" transform="translate(-975.294 -1188.658)" fill="#ffcf83"></path><path id="Trazado_5149" data-name="Trazado 5149" d="M1203.937,1463.7s-1.221-.466-1.72-.083,1.026.545,1.72.083" transform="translate(-983.29 -1197.066)" fill="#ffcf83"></path><path id="Trazado_5150" data-name="Trazado 5150" d="M1193.609,1461.1a.91.91,0,1,1,.91.91.91.91,0,0,1-.91-.91" transform="translate(-976.329 -1194.385)" fill="#365da4"></path><path id="Trazado_5151" data-name="Trazado 5151" d="M1195.524,1499.274a3.158,3.158,0,0,0-1.883-.86,8.386,8.386,0,0,0-1.427,0,3.2,3.2,0,0,0,1.472.86,6.744,6.744,0,0,0,1.838,0" transform="translate(-975.188 -1225.629)" fill="#6e9e63"></path><path id="Trazado_5152" data-name="Trazado 5152" d="M1209.5,1491.583c.138-.12.242-1.1,1.088-1.347a8,8,0,0,1,1.446-.293s-.733,1.275-1.267,1.467a4.207,4.207,0,0,1-1.267.174" transform="translate(-989.326 -1218.719)" fill="#6e9e63"></path><path id="Trazado_5153" data-name="Trazado 5153" d="M2649.888,1047.25v86.905h19.171c.009-.026.019-.056.031-.087l.021-.056c.063-.167.148-.392.256-.678l.042-.084v-.042a.158.158,0,0,0,.042-.087,11.881,11.881,0,0,0,.472-1.2c.087-.216.171-.474.3-.73v-.087l.042-.042c.589-1.53,1.319-3.522,2.161-5.929q.113-.327.232-.662c.631-1.818,1.326-3.855,2.065-6.1q.51-1.58,1.049-3.3c1.488-4.753,3.107-10.244,4.7-16.292.772-2.959,1.544-6.044,2.274-9.26.43-1.856.861-3.789,1.274-5.741q.179-.858.354-1.717c.758-3.656,1.471-7.421,2.114-11.269.847-5.054,1.575-10.248,2.128-15.523q.412-3.882.692-7.818c0-.068.012-.139.014-.206Z" transform="translate(-2167.512 -856.612)" fill="#fff3e9"></path><path id="Trazado_5154" data-name="Trazado 5154" d="M2367.938,848.918l-20.309,41.809h-61.7l32.168-41.656Z" transform="translate(-1869.807 -694.384)" fill="#ed9f4a"></path><path id="Trazado_5155" data-name="Trazado 5155" d="M2299.305,890.727l1.834-2.375,30.333-39.281,49.842-.153-18.191,37.448v85.556h-61.985v-81.2Z" transform="translate(-1880.749 -694.384)" fill="#f9ddbf"></path><path id="Trazado_5156" data-name="Trazado 5156" d="M2437.421,963.754h-1.3a7.97,7.97,0,0,0-7.97,7.97v20.253h16.979V971.466a7.712,7.712,0,0,0-7.711-7.712" transform="translate(-1986.142 -788.315)" fill="#efcdaf"></path><path id="Trazado_5157" data-name="Trazado 5157" d="M2461.74,848.914l.138.185,1.2,1.6,29.012,38.676,2.75,3.667h39.872q.412-3.882.692-7.818c0-.068.012-.139.014-.206s.012-.141.017-.211c.253-3.693.413-7.412.46-11.128l-19.115-24.755h-8.1l-28.3,0Z" transform="translate(-2013.615 -694.38)" fill="#ed9f4a"></path><path id="Trazado_5158" data-name="Trazado 5158" d="M2176.714,1142.736l-14.459,29.766h-43.928l22.9-29.657Z" transform="translate(-1732.715 -934.717)" fill="#ed9f4a"></path><path id="Trazado_5159" data-name="Trazado 5159" d="M2125.558,1172.5l22.9-29.657,35.485-.109-14.459,29.766h-.1v39.671l-43.831.086V1172.5Z" transform="translate(-1738.63 -934.716)" fill="#f9ddbf"></path><rect id="Rect&#xE1;ngulo_3309" data-name="Rect&#xE1;ngulo 3309" width="37.116" height="39.671" transform="translate(430.76 237.785)" fill="#fff3e9"></rect><path id="Trazado_5160" data-name="Trazado 5160" d="M2307.575,1174.747H2267.7l-23.569-31.418,11.877,0,27.311.006Z" transform="translate(-1835.62 -935.201)" fill="#ed9f4a"></path><path id="Trazado_5161" data-name="Trazado 5161" d="M2211.883,1301.752V1334.9h-18.466v-32.844a9.386,9.386,0,0,1,9.385-9.385,9.083,9.083,0,0,1,9.081,9.08" transform="translate(-1794.136 -1057.359)" fill="#efcdaf"></path><path id="Trazado_5162" data-name="Trazado 5162" d="M2232.752,1224.8a2.072,2.072,0,1,1,2.072,2.072,2.072,2.072,0,0,1-2.072-2.072" transform="translate(-1826.311 -1000.145)" fill="#efcdaf"></path><path id="Trazado_5163" data-name="Trazado 5163" d="M2360.945,1174.756h-7.567l-44-31.415,27.31.006Z" transform="translate(-1888.99 -935.211)" fill="#e58638"></path><path id="Trazado_5164" data-name="Trazado 5164" d="M2544.462,904.028H2580.9l-19.223-23.576h-36.441Z" transform="translate(-2065.554 -720.177)" fill="#2b478b"></path><path id="Trazado_5165" data-name="Trazado 5165" d="M2551.488,913.32h36.441l-.226-.277h-36.441Z" transform="translate(-2086.84 -746.835)" fill="#aec3ff"></path><path id="Trazado_5166" data-name="Trazado 5166" d="M2678.369,880.45l19.224,23.576h.277l-19.224-23.576Z" transform="translate(-2190.809 -720.176)" fill="#aec3ff"></path><path id="Trazado_5167" data-name="Trazado 5167" d="M2625.33,880.45l19.224,23.576h.277l-19.224-23.576Z" transform="translate(-2147.425 -720.176)" fill="#aec3ff"></path><path id="Trazado_5168" data-name="Trazado 5168" d="M2574.292,880.45l19.224,23.576h.277L2574.57,880.45Z" transform="translate(-2105.678 -720.176)" fill="#aec3ff"></path><path id="Trazado_5169" data-name="Trazado 5169" d="M2577.645,944.724h36.441l-.226-.277h-36.441Z" transform="translate(-2108.236 -772.523)" fill="#aec3ff"></path><path id="Trazado_5170" data-name="Trazado 5170" d="M2605.267,978.6h36.441l-.226-.277h-36.441Z" transform="translate(-2130.83 -800.233)" fill="#aec3ff"></path><path id="Trazado_5171" data-name="Trazado 5171" d="M2702.427,909.943l.209-1.136-2.061-1.135-.21,1.135Z" transform="translate(-2208.802 -742.442)" fill="#aec3ff"></path><path id="Trazado_5172" data-name="Trazado 5172" d="M2649.959,909.943l.209-1.136-2.061-1.135-.21,1.135Z" transform="translate(-2165.885 -742.442)" fill="#aec3ff"></path><path id="Trazado_5173" data-name="Trazado 5173" d="M2598.16,909.943l.21-1.136-2.061-1.135-.21,1.135Z" transform="translate(-2123.515 -742.442)" fill="#aec3ff"></path><path id="Trazado_5174" data-name="Trazado 5174" d="M2727.948,941.241l.21-1.135-2.062-1.136-.21,1.136Z" transform="translate(-2229.677 -768.043)" fill="#aec3ff"></path><path id="Trazado_5175" data-name="Trazado 5175" d="M2675.479,941.241l.21-1.135-2.061-1.136-.21,1.136Z" transform="translate(-2186.76 -768.043)" fill="#aec3ff"></path><path id="Trazado_5176" data-name="Trazado 5176" d="M2623.681,941.241l.209-1.135-2.061-1.136-.21,1.136Z" transform="translate(-2144.39 -768.043)" fill="#aec3ff"></path><path id="Trazado_5177" data-name="Trazado 5177" d="M2755.571,975.117l.209-1.136-2.061-1.136-.21,1.136Z" transform="translate(-2252.271 -795.753)" fill="#aec3ff"></path><path id="Trazado_5178" data-name="Trazado 5178" d="M2703.1,975.117l.209-1.136-2.061-1.136-.21,1.136Z" transform="translate(-2209.354 -795.753)" fill="#aec3ff"></path><path id="Trazado_5179" data-name="Trazado 5179" d="M2651.3,975.117l.21-1.136-2.062-1.136-.21,1.136Z" transform="translate(-2166.984 -795.753)" fill="#aec3ff"></path><path id="Trazado_5180" data-name="Trazado 5180" d="M409.187,410q.021,1.355.087,2.736a91.452,91.452,0,0,0,1.434,12.177l57.012-.749s-5.16-12.179-17.5-10.826c0,0-17.916-20.3-37.019-2.708,0,0-1.511-.324-4.012-.631" transform="translate(-334.7 -330.014)" fill="#f8fcff"></path><path id="Trazado_5181" data-name="Trazado 5181" d="M1187.632,177.935s-2.672-6.432-9.062-5.717c0,0-9.277-10.72-19.17-1.429,0,0-10.516-2.3-18.3,1.993-5.192,2.864-6.907,5.868-6.907,5.868Z" transform="translate(-927.726 -136.599)" fill="#f8fcff"></path><path id="Trazado_5182" data-name="Trazado 5182" d="M2351.96,687.675s-2.855-6.872-9.682-6.108c0,0-9.912-11.453-20.481-1.527,0,0-11.235-2.459-19.556,2.13-5.548,3.06-7.38,6.269-7.38,6.269Z" transform="translate(-1877.113 -552.936)" fill="#f8fcff"></path><path id="Trazado_5183" data-name="Trazado 5183" d="M2493.914,584.51s-2.185-5.259-7.409-4.674c0,0-7.585-8.765-15.673-1.169,0,0-8.6-1.882-14.966,1.63-4.245,2.341-5.648,4.8-5.648,4.8Z" transform="translate(-2004.19 -470.795)" fill="#f8fcff"></path><path id="Trazado_5184" data-name="Trazado 5184" d="M163.343,1353.763a68.687,68.687,0,0,0,1.4,8.512c.014.061.028.122.045.185,15.07,5.46,30.6,12.7,44.436,22.268h37.4c-5.42-3.486-31.836-18.113-83.273-30.966" transform="translate(-133.609 -1107.329)" fill="#6e9e63"></path><path id="Trazado_5185" data-name="Trazado 5185" d="M407.242,1305.018s-28.7-2.516-36.5,0-11.7,14.217-10.587,22.761,3.715,15.788,8.73,15.6,40.491,0,40.491,0Z" transform="translate(-294.442 -1066.542)" fill="#edbd77"></path><path id="Trazado_5186" data-name="Trazado 5186" d="M409.26,1300.438s-6.074-1.131-10.206-1.549a21.455,21.455,0,0,1,3.653,1.006s-8.823-1.331-12.042-1.006-7.631.87-7.631.87l-4.906-.329s4.086.5,3.869.557-3.993.526-5.2,1.3c0,0-3.746,1.177-4.551,1.888,0,0,3-1.517,4.179-1.424,0,0-6.8,4.72-6.823,9.217s29.266-6.771,29.266-6.771Z" transform="translate(-302.321 -1062.402)" fill="#edbd77"></path><path id="Trazado_5187" data-name="Trazado 5187" d="M535.548,1308.7s11.422-.869,18.666,8.325,1.393,30.483-8.079,30.564-21.14-1.374-23.664-13.74,2.769-24.838,13.077-25.149" transform="translate(-426.852 -1070.454)" fill="#ffcf83"></path><path id="Trazado_5188" data-name="Trazado 5188" d="M702.511,1382.586s-4.086-4.705-4.52-6.006l-.619,1.3Z" transform="translate(-570.425 -1125.992)" fill="#ffcf83"></path><path id="Trazado_5189" data-name="Trazado 5189" d="M700.395,1350.582s-.518-3.373-2-4.612a7.206,7.206,0,0,1,1,4.148c-.349,1.887,1,.464,1,.464" transform="translate(-571.259 -1100.954)" fill="#ffcf83"></path><path id="Trazado_5190" data-name="Trazado 5190" d="M698.384,1469.246c-.075.181,2.2-6.176,1.455-7.383l-.432,0s-.3,5.615-1.023,7.379" transform="translate(-571.251 -1195.751)" fill="#ffcf83"></path><path id="Trazado_5191" data-name="Trazado 5191" d="M706.907,1455.9a4.05,4.05,0,0,1,2.662,0,2.878,2.878,0,0,0-2.538.5c-.961.937-.124-.5-.124-.5" transform="translate(-577.948 -1190.674)" fill="#ffcf83"></path><path id="Trazado_5192" data-name="Trazado 5192" d="M558.2,1367.14a16.331,16.331,0,0,0,8.487-2.1,12.646,12.646,0,0,0,5.664-8.556c1.432-6.626.729-12.062-2.09-16.157-2.635-3.829-7.085-6.322-12.868-7.21a10.135,10.135,0,0,0-9.773,3.648c-3.6,4.315-4.632,11.6-2.514,17.726,1.5,4.326,5.493,7,10.691,7.148q.222.006.444.006c5.236,0,9.956-2.677,11.577-6.61,1.652-4.01,1.567-7.932-.241-11.045-1.836-3.161-5.3-5.217-9.761-5.789-4.036-.52-6.214,1.36-7.329,3.027-2.152,3.217-2.147,8.443-.7,10.966,1.39,2.43,5.235,4.307,8.576,4.19a5.639,5.639,0,0,0,5.181-3.141,7.013,7.013,0,0,0-.215-7.066,5.255,5.255,0,0,0-4.419-2.5,2.976,2.976,0,0,0-2.75,2.936c-.1,1.138.288,2.4,1.222,2.622,1.738.405,2.355-.543,2.38-.584,0,0,.939-1.549-.229-1.772-1.337-.255-.986.783-.986.783-.019.029.33,1.432-1.057,1.107-.572-.133-.947-1.062-.855-2.115a2.489,2.489,0,0,1,2.3-2.5,4.762,4.762,0,0,1,4,2.29,6.548,6.548,0,0,1,.182,6.594,5.174,5.174,0,0,1-4.768,2.87c-3.179.109-6.833-1.658-8.144-3.95-1.215-2.125-1.541-7.133.687-10.463,1.492-2.23,3.867-3.206,6.871-2.819,4.308.553,7.649,2.526,9.408,5.555,1.731,2.981,1.807,6.754.213,10.624s-6.351,6.459-11.565,6.308c-4.991-.144-8.825-2.7-10.254-6.826-2.066-5.972-1.067-13.071,2.43-17.264a9.684,9.684,0,0,1,9.334-3.482c5.65.868,9.988,3.291,12.547,7.009,2.741,3.983,3.419,9.294,2.017,15.785a12.188,12.188,0,0,1-5.446,8.249c-5.661,3.464-14.589,1.367-14.668,1.347l1.011.546a23.734,23.734,0,0,0,5.42.612" transform="translate(-444.982 -1090.324)" fill="#edbd77"></path><path id="Trazado_5193" data-name="Trazado 5193" d="M90.153,1230.077s-38.588-3.383-49.078,0-15.734,19.117-14.236,30.606,5,21.229,11.739,20.979,54.447,0,54.447,0Z" transform="translate(-21.748 -1004.928)" fill="#edbd77"></path><path id="Trazado_5194" data-name="Trazado 5194" d="M92.867,1223.919s-8.167-1.521-13.724-2.083c0,0,4.371.9,4.912,1.353,0,0-11.863-1.79-16.192-1.353s-10.261,1.17-10.261,1.17l-6.6-.442s5.495.666,5.2.749-5.37.707-6.993,1.748c0,0-5.037,1.582-6.119,2.539,0,0,4.038-2.04,5.62-1.915,0,0-9.15,6.347-9.175,12.394s39.353-9.105,39.353-9.105Z" transform="translate(-32.342 -999.361)" fill="#edbd77"></path><path id="Trazado_5195" data-name="Trazado 5195" d="M262.682,1235.033s15.359-1.168,25.1,11.194,1.873,40.989-10.864,41.1-28.425-1.848-31.82-18.476,3.724-33.4,17.584-33.817" transform="translate(-199.795 -1010.187)" fill="#ffcf83"></path><path id="Trazado_5196" data-name="Trazado 5196" d="M487.187,1334.379s-5.495-6.327-6.077-8.075l-.833,1.748Z" transform="translate(-392.849 -1084.868)" fill="#ffcf83"></path><path id="Trazado_5197" data-name="Trazado 5197" d="M484.344,1291.343s-.7-4.536-2.694-6.2c0,0,1.816,3.041,1.347,5.578s1.347.623,1.347.623" transform="translate(-393.972 -1051.199)" fill="#ffcf83"></path><path id="Trazado_5198" data-name="Trazado 5198" d="M481.639,1450.909c-.1.244,2.955-8.3,1.956-9.928l-.581.005s-.4,7.55-1.375,9.922" transform="translate(-393.961 -1178.67)" fill="#ffcf83"></path><path id="Trazado_5199" data-name="Trazado 5199" d="M493.1,1432.968s2.289-.749,3.58,0a3.871,3.871,0,0,0-3.413.666c-1.292,1.26-.167-.666-.167-.666" transform="translate(-402.967 -1171.843)" fill="#ffcf83"></path><path id="Trazado_5200" data-name="Trazado 5200" d="M293.139,1313.611a21.964,21.964,0,0,0,11.411-2.82c3.923-2.4,6.485-6.271,7.616-11.505,1.925-8.909.98-16.219-2.81-21.726-3.544-5.149-9.527-8.5-17.3-9.7a13.628,13.628,0,0,0-13.141,4.905c-4.838,5.8-6.228,15.6-3.381,23.835,2.012,5.816,7.386,9.409,14.376,9.611q.3.008.6.009c7.04,0,13.387-3.6,15.567-8.889,2.222-5.392,2.106-10.667-.324-14.852-2.468-4.25-7.129-7.015-13.125-7.784-5.427-.7-8.355,1.829-9.855,4.071-2.894,4.326-2.887,11.352-.947,14.745,1.868,3.269,7.04,5.791,11.532,5.635a7.583,7.583,0,0,0,6.966-4.224,9.43,9.43,0,0,0-.289-9.5,7.067,7.067,0,0,0-5.941-3.364,4,4,0,0,0-3.7,3.948c-.134,1.53.387,3.232,1.644,3.526,2.337.545,3.166-.73,3.2-.785,0,0,1.262-2.083-.308-2.383-1.8-.343-1.326,1.053-1.326,1.053-.025.039.444,1.925-1.421,1.49-.769-.179-1.274-1.429-1.15-2.844a3.346,3.346,0,0,1,3.093-3.363,6.4,6.4,0,0,1,5.372,3.079,8.805,8.805,0,0,1,.244,8.868,6.957,6.957,0,0,1-6.41,3.86c-4.275.146-9.189-2.229-10.951-5.311-1.633-2.857-2.072-9.592.923-14.069,2.006-3,5.2-4.31,9.239-3.791,5.792.744,10.285,3.4,12.651,7.47,2.328,4.009,2.43,9.082.286,14.285s-8.541,8.686-15.551,8.483c-6.712-.194-11.866-3.625-13.788-9.179-2.778-8.03-1.434-17.576,3.267-23.214a13.021,13.021,0,0,1,12.55-4.681c7.6,1.167,13.431,4.426,16.872,9.425,3.686,5.355,4.6,12.5,2.712,21.226-1.092,5.055-3.556,8.787-7.323,11.093-7.611,4.658-19.618,1.839-19.723,1.811l1.359.734a31.9,31.9,0,0,0,7.288.823" transform="translate(-224.174 -1036.907)" fill="#edbd77"></path><path id="Trazado_5201" data-name="Trazado 5201" d="M1910.312,1309.876s6.622,25.553,6.029,27.573-3.92,8.883-3.92,8.883h3.2a2.414,2.414,0,0,0,1.241-2.218c-.053-1.584,4.435-7.761,4.435-7.761s-1.76-9.81,0-13.674c7.581-16.641-5.117-16.483-10.984-12.8" transform="translate(-1562.566 -1069.781)" fill="#cca283"></path><path id="Trazado_5202" data-name="Trazado 5202" d="M1720.36,1367.514s1.9,13.727,2.006,14.572,1,1.9.95,3.273-.528,6.019-2.006,7.18a4.206,4.206,0,0,0-1.637,2.587h4.013a5.36,5.36,0,0,0,.581-2.323c-.106-.95,1.109-1.954,1.161-3.907s0-5.6.528-6.864.37-9.979,2.112-11.932-7.708-2.587-7.708-2.587" transform="translate(-1406.631 -1118.577)" fill="#cca283"></path><path id="Trazado_5203" data-name="Trazado 5203" d="M1718.508,1270.531c.044.633.065,1.222.065,1.811-.109,14.861-14.817,10.409-15.341,10.016a3.148,3.148,0,0,0-1.593-.349c-7.354,2.924-17.654.24-19.793-.633s-7.834,1.288-10.475,1.091c-1.069-.087-1.964-1.2-2.641-2.6a19.671,19.671,0,0,1-1.593-5.434,34.4,34.4,0,0,0-1.637-4.779c-.371-.917-.785-1.921-1.222-2.946-.087-.175-.153-.371-.24-.546.218-.24.415-.5.611-.764a32.081,32.081,0,0,0,2.859-5.106,25.613,25.613,0,0,1,3.361-5.521c2.16-.677,4.735.545,5.8.48a29.715,29.715,0,0,0,3.579-.437c.458-.087.873-.152,1.266-.218,2.182-.328,15.407,1.375,24.747,1.637,1.92.066,3.666.044,5.128-.044.109,0,.218-.022.327-.022,3.906-.219,5.979.022,7.071.371,1.2.371,1.222.83,1.222.83,3.732,3.644-1.506,13.159-1.506,13.159" transform="translate(-1361.124 -1026.183)" fill="#efcdaf"></path><path id="Trazado_5204" data-name="Trazado 5204" d="M1693.948,1367.514s1.9,13.727,2.006,14.572,1,1.9.95,3.273-.528,6.019-2.006,7.18a4.205,4.205,0,0,0-1.637,2.587h4.013a5.361,5.361,0,0,0,.581-2.323c-.106-.95,1.109-1.954,1.161-3.907s0-5.6.528-6.864.37-9.979,2.112-11.932-7.708-2.587-7.708-2.587" transform="translate(-1385.026 -1118.577)" fill="#efcdaf"></path><path id="Trazado_5205" data-name="Trazado 5205" d="M1887.623,1345.461s5.345,19.837,4.751,21.857-3.92,8.882-3.92,8.882h3.2a2.413,2.413,0,0,0,1.241-2.217c-.053-1.584,4.435-7.761,4.435-7.761s.363-11.2,3-14.524-6.842-9.917-12.71-6.237" transform="translate(-1544.008 -1099.651)" fill="#efcdaf"></path><path id="Trazado_5206" data-name="Trazado 5206" d="M1573.825,1370.2c-.216.291-.406.5-.406.5a8.276,8.276,0,0,1-.951.047,2.582,2.582,0,0,1-1.28-.348,1.607,1.607,0,0,1-.626-.746s.181-.468,1.132-.592c.7-.091,1.388-.577,1.975-.639h0a.845.845,0,0,1,.59.14c.441.31-.04,1.113-.436,1.641" transform="translate(-1284.663 -1119.316)" fill="#efcdaf"></path><path id="Trazado_5207" data-name="Trazado 5207" d="M1570.091,1378.139c-.027-.013-.361.051-.8.049a2.067,2.067,0,0,1-2.062-1.1s.182-.468,1.133-.592a.908.908,0,0,0,.1-.016c.612-.109,1.214-.494,1.74-.6a.9.9,0,0,1,.726.116.4.4,0,0,1,.171.289c.087.655-1.011,1.851-1.011,1.851" transform="translate(-1281.939 -1125.4)" fill="#efcdaf"></path><path id="Trazado_5208" data-name="Trazado 5208" d="M1598.773,1259.851c-.262,6.809-1.528,19.837-2.313,20.994a30.479,30.479,0,0,0-4.736.524c-3.928.807-5.019,2.291-5.39,2.99-.7,1.4-3.972,4.583-4.539,4.692-.589.109-.938.873-1.549,2.117-.589,1.222-1.768,1.331-2.75,1.4a2.178,2.178,0,0,1-1.811-1.418,8.773,8.773,0,0,0,.415-2.444c-.066-1.222.72-4.866.066-5.848-.415-.633-.175-1.986.043-2.9.131-.545.262-.916.262-.916a2.438,2.438,0,0,1,.2-.436c.131-.284.284-.611.458-.96.2-.415.458-.873.742-1.375a56.741,56.741,0,0,1,5.259-7.681,52.06,52.06,0,0,1,8.511-8.467,37.8,37.8,0,0,1,6.961-4.365c.218.087.262,1.724.175,4.1" transform="translate(-1288.853 -1027.157)" fill="#efcdaf"></path><path id="Trazado_5209" data-name="Trazado 5209" d="M1718.65,1296.073c.138-.352.067-6.325,4.379-7.552s6.672.661,12.053-1.511,11.045-3.965,11.611-1.6-.472,8.968,0,11.989-9.744,4.091-13.934,2.234-15.625.315-14.109-3.556" transform="translate(-1405.681 -1050.502)" fill="#2b478b"></path><path id="Trazado_5210" data-name="Trazado 5210" d="M1971.55,1270.062a10.83,10.83,0,0,1,3.264,6.632c.472,4.248-.85,22.912-.85,22.912l-1.078-.06-1.157-20.649Z" transform="translate(-1612.657 -1038.864)" fill="#2b478b"></path><path id="Trazado_5211" data-name="Trazado 5211" d="M1977.41,1431.094s2.329-2.506.881-3.073-.881,1.133-.881,1.794Z" transform="translate(-1617.361 -1167.977)" fill="#2b478b"></path><path id="Trazado_5212" data-name="Trazado 5212" d="M1656.329,1256.543c-2.706,1.331-5.7,2.554-7.463,2.6-3.862.065-13.246-2.161-17.065-2.4s-19.291,3.339-22.935,2.182a.6.6,0,0,0-.283-.044c-.808-.065-2.03.5-3.535,1.419-.851.546-1.789,1.2-2.771,1.942a177.861,177.861,0,0,0-14.6,13.05,56.727,56.727,0,0,1,5.259-7.681,52.065,52.065,0,0,1,8.511-8.467,37.8,37.8,0,0,1,6.962-4.365c2.16-.677,4.735.545,5.8.48a29.738,29.738,0,0,0,3.579-.437c.458-.087.873-.152,1.266-.218,2.182-.328,15.407,1.375,24.747,1.637,1.921.066,3.666.044,5.128-.043.109,0,.218-.022.327-.022,3.906-.219,5.979.022,7.071.371" transform="translate(-1298.662 -1026.183)" fill="#ffe7d7"></path><path id="Trazado_5213" data-name="Trazado 5213" d="M1779.137,1256.274c-1.689,1.377-4.929,1.927-9.507,1.073-5.57-1.038-6.891,1.416-11.517,1.6a4.605,4.605,0,0,1-4.981-4.1c.449-.074.876-.147,1.271-.207,2.168-.329,15.4,1.36,24.734,1.627" transform="translate(-1433.999 -1026.22)" fill="#2b478b"></path><path id="Trazado_5214" data-name="Trazado 5214" d="M1585.42,1285.988a9.82,9.82,0,0,1-.371,1.31,10.81,10.81,0,0,1-.72,1.418c-2.466,3.928-.131,8.642.437,12.265-3.928.807-5.019,2.291-5.39,2.989-.7,1.4-3.972,4.583-4.539,4.692-.589.108-.938.873-1.55,2.117-.589,1.222-1.768,1.331-2.749,1.4a2.177,2.177,0,0,1-1.811-1.418,8.771,8.771,0,0,0,.415-2.444c-.066-1.222.72-4.866.065-5.848-.415-.633-.175-1.986.044-2.9a2.093,2.093,0,0,1-2.073-1.091s.2-.48,1.135-.611h.109a1.71,1.71,0,0,1-.633-.763s.2-.458,1.135-.589c.7-.087,1.4-.567,1.986-.633a56.739,56.739,0,0,1,5.259-7.682,52.064,52.064,0,0,1,8.511-8.467,13.042,13.042,0,0,1,.829,3.1,9.681,9.681,0,0,1-.087,3.164" transform="translate(-1281.894 -1046.768)" fill="#2b478b"></path><path id="Trazado_5215" data-name="Trazado 5215" d="M1901.144,1277.383c.042.633.058,1.236.055,1.81-4.792,3.554-13.2,1.761-13.828-2.515-.727-4.925,5.892-5.621,5.407-9.679a4.746,4.746,0,0,1,1.575-3.97c8.219-.487,8.3,1.208,8.3,1.208,3.721,3.643-1.5,13.146-1.5,13.146" transform="translate(-1543.756 -1033.04)" fill="#2b478b"></path><g id="Grupo_906" data-name="Grupo 906" transform="translate(219.799 57.417)" opacity="0.6"><g id="Grupo_905" data-name="Grupo 905"><g id="Grupo_904" data-name="Grupo 904" clip-path="url(#clip-path-6)"><path id="Trazado_5216" data-name="Trazado 5216" d="M1218.3,442.452h169.337a10.854,10.854,0,0,0,10.854-10.854V326.263a10.854,10.854,0,0,0-10.854-10.854H1218.3a10.854,10.854,0,0,0-10.854,10.854V431.6a10.854,10.854,0,0,0,10.854,10.854" transform="translate(-1207.448 -315.409)" fill="#f8fcff"></path></g></g></g><path id="Trazado_5217" data-name="Trazado 5217" d="M1872.757,419.117a27.477,27.477,0,1,0,22.434-27.021c3.431,12.5,7.985,29.063,8.29,30.1-.566-.892-17.284-8.386-28.7-13.437a27.324,27.324,0,0,0-2.024,10.362" transform="translate(-1531.848 -320.338)" fill="#7fa4f4"></path><path id="Trazado_5218" data-name="Trazado 5218" d="M1875.478,396c10.081,4.442,26.781,11.886,27.315,12.729-.29-.982-4.909-17.773-8-29.027a30.2,30.2,0,0,0-19.312,16.3" transform="translate(-1534.073 -310.583)" fill="#f99746"></path><path id="Trazado_5219" data-name="Trazado 5219" d="M1488.308,350.855a2.284,2.284,0,1,0-2.284,2.284,2.284,2.284,0,0,0,2.284-2.284" transform="translate(-1213.646 -285.118)" fill="#aec3ff"></path><path id="Trazado_5220" data-name="Trazado 5220" d="M1423.179,350.855a2.284,2.284,0,1,0-2.284,2.284,2.284,2.284,0,0,0,2.284-2.284" transform="translate(-1160.373 -285.118)" fill="#aec3ff"></path><path id="Trazado_5221" data-name="Trazado 5221" d="M1355.959,350.855a2.284,2.284,0,1,0-2.284,2.284,2.284,2.284,0,0,0,2.284-2.284" transform="translate(-1105.389 -285.118)" fill="#f99746"></path><path id="Trazado_5222" data-name="Trazado 5222" d="M1898.117,885.278h53.188V868.353h-53.188Zm52.536-.653H1898.77v-15.62h51.883Z" transform="translate(-1552.591 -710.281)" fill="#aec3ff"></path><rect id="Rect&#xE1;ngulo_3311" data-name="Rect&#xE1;ngulo 3311" width="20.574" height="1.341" transform="translate(374.286 162.62)" fill="#aec3ff"></rect><rect id="Rect&#xE1;ngulo_3312" data-name="Rect&#xE1;ngulo 3312" width="14.599" height="1.341" transform="translate(357.521 162.62)" fill="#aec3ff"></rect><rect id="Rect&#xE1;ngulo_3313" data-name="Rect&#xE1;ngulo 3313" width="11.354" height="1.341" transform="translate(383.506 166.451)" fill="#aec3ff"></rect><rect id="Rect&#xE1;ngulo_3314" data-name="Rect&#xE1;ngulo 3314" width="14.599" height="1.341" transform="translate(366.987 166.451)" fill="#aec3ff"></rect><rect id="Rect&#xE1;ngulo_3315" data-name="Rect&#xE1;ngulo 3315" width="14.599" height="1.341" transform="translate(350.876 166.451)" fill="#aec3ff"></rect><path id="Trazado_5223" data-name="Trazado 5223" d="M1531.322,876.733h26.332v-8.379h-26.332Zm26.009-.323h-25.686v-7.733h25.686Z" transform="translate(-1252.566 -710.282)" fill="#aec3ff"></path><rect id="Rect&#xE1;ngulo_3316" data-name="Rect&#xE1;ngulo 3316" width="10.186" height="0.664" transform="translate(292.994 160.324)" fill="#aec3ff"></rect><rect id="Rect&#xE1;ngulo_3317" data-name="Rect&#xE1;ngulo 3317" width="7.227" height="0.664" transform="translate(284.695 160.324)" fill="#aec3ff"></rect><rect id="Rect&#xE1;ngulo_3318" data-name="Rect&#xE1;ngulo 3318" width="5.621" height="0.664" transform="translate(297.559 162.221)" fill="#aec3ff"></rect><rect id="Rect&#xE1;ngulo_3319" data-name="Rect&#xE1;ngulo 3319" width="7.227" height="0.664" transform="translate(289.381 162.221)" fill="#aec3ff"></rect><rect id="Rect&#xE1;ngulo_3320" data-name="Rect&#xE1;ngulo 3320" width="7.227" height="0.664" transform="translate(281.405 162.221)" fill="#aec3ff"></rect><path id="Trazado_5224" data-name="Trazado 5224" d="M1358.831,876.733h26.332v-8.379h-26.332Zm26.01-.323h-25.686v-7.733h25.686Z" transform="translate(-1111.475 -710.282)" fill="#aec3ff"></path><rect id="Rect&#xE1;ngulo_3321" data-name="Rect&#xE1;ngulo 3321" width="10.186" height="0.664" transform="translate(261.595 160.324)" fill="#aec3ff"></rect><rect id="Rect&#xE1;ngulo_3322" data-name="Rect&#xE1;ngulo 3322" width="7.227" height="0.664" transform="translate(253.295 160.324)" fill="#aec3ff"></rect><rect id="Rect&#xE1;ngulo_3323" data-name="Rect&#xE1;ngulo 3323" width="5.621" height="0.664" transform="translate(266.159 162.221)" fill="#aec3ff"></rect><rect id="Rect&#xE1;ngulo_3324" data-name="Rect&#xE1;ngulo 3324" width="7.227" height="0.664" transform="translate(257.981 162.221)" fill="#aec3ff"></rect><rect id="Rect&#xE1;ngulo_3325" data-name="Rect&#xE1;ngulo 3325" width="7.227" height="0.664" transform="translate(250.005 162.221)" fill="#aec3ff"></rect><path id="Trazado_5225" data-name="Trazado 5225" d="M1531.322,672h26.332v-8.379h-26.332Zm26.009-.323h-25.686v-7.733h25.686Z" transform="translate(-1252.566 -542.819)" fill="#aec3ff"></path><rect id="Rect&#xE1;ngulo_3326" data-name="Rect&#xE1;ngulo 3326" width="10.186" height="0.664" transform="translate(292.994 123.055)" fill="#aec3ff"></rect><rect id="Rect&#xE1;ngulo_3327" data-name="Rect&#xE1;ngulo 3327" width="7.227" height="0.664" transform="translate(284.695 123.055)" fill="#aec3ff"></rect><rect id="Rect&#xE1;ngulo_3328" data-name="Rect&#xE1;ngulo 3328" width="5.621" height="0.664" transform="translate(297.559 124.952)" fill="#aec3ff"></rect><rect id="Rect&#xE1;ngulo_3329" data-name="Rect&#xE1;ngulo 3329" width="7.227" height="0.664" transform="translate(289.381 124.952)" fill="#aec3ff"></rect><rect id="Rect&#xE1;ngulo_3330" data-name="Rect&#xE1;ngulo 3330" width="7.227" height="0.664" transform="translate(281.405 124.952)" fill="#aec3ff"></rect><path id="Trazado_5226" data-name="Trazado 5226" d="M1358.831,672h26.332v-8.379h-26.332Zm26.01-.323h-25.686v-7.733h25.686Z" transform="translate(-1111.475 -542.819)" fill="#aec3ff"></path><rect id="Rect&#xE1;ngulo_3331" data-name="Rect&#xE1;ngulo 3331" width="10.186" height="0.664" transform="translate(261.595 123.055)" fill="#aec3ff"></rect><rect id="Rect&#xE1;ngulo_3332" data-name="Rect&#xE1;ngulo 3332" width="7.227" height="0.664" transform="translate(253.295 123.055)" fill="#aec3ff"></rect><rect id="Rect&#xE1;ngulo_3333" data-name="Rect&#xE1;ngulo 3333" width="5.621" height="0.664" transform="translate(266.159 124.952)" fill="#aec3ff"></rect><rect id="Rect&#xE1;ngulo_3334" data-name="Rect&#xE1;ngulo 3334" width="7.227" height="0.664" transform="translate(257.981 124.952)" fill="#aec3ff"></rect><rect id="Rect&#xE1;ngulo_3335" data-name="Rect&#xE1;ngulo 3335" width="7.227" height="0.664" transform="translate(250.005 124.952)" fill="#aec3ff"></rect><path id="Trazado_5227" data-name="Trazado 5227" d="M1531.322,493.787h26.332v-8.379h-26.332Zm26.009-.323h-25.686v-7.733h25.686Z" transform="translate(-1252.566 -397.046)" fill="#aec3ff"></path><rect id="Rect&#xE1;ngulo_3336" data-name="Rect&#xE1;ngulo 3336" width="10.186" height="0.664" transform="translate(292.994 90.614)" fill="#aec3ff"></rect><rect id="Rect&#xE1;ngulo_3337" data-name="Rect&#xE1;ngulo 3337" width="7.227" height="0.664" transform="translate(284.695 90.614)" fill="#aec3ff"></rect><rect id="Rect&#xE1;ngulo_3338" data-name="Rect&#xE1;ngulo 3338" width="5.621" height="0.664" transform="translate(297.559 92.511)" fill="#aec3ff"></rect><rect id="Rect&#xE1;ngulo_3339" data-name="Rect&#xE1;ngulo 3339" width="7.227" height="0.664" transform="translate(289.381 92.511)" fill="#aec3ff"></rect><rect id="Rect&#xE1;ngulo_3340" data-name="Rect&#xE1;ngulo 3340" width="7.227" height="0.664" transform="translate(281.405 92.511)" fill="#aec3ff"></rect><path id="Trazado_5228" data-name="Trazado 5228" d="M1358.831,493.787h26.332v-8.379h-26.332Zm26.01-.323h-25.686v-7.733h25.686Z" transform="translate(-1111.475 -397.046)" fill="#aec3ff"></path><rect id="Rect&#xE1;ngulo_3341" data-name="Rect&#xE1;ngulo 3341" width="10.186" height="0.664" transform="translate(261.595 90.614)" fill="#aec3ff"></rect><rect id="Rect&#xE1;ngulo_3342" data-name="Rect&#xE1;ngulo 3342" width="7.227" height="0.664" transform="translate(253.295 90.614)" fill="#aec3ff"></rect><rect id="Rect&#xE1;ngulo_3343" data-name="Rect&#xE1;ngulo 3343" width="5.621" height="0.664" transform="translate(266.159 92.511)" fill="#aec3ff"></rect><rect id="Rect&#xE1;ngulo_3344" data-name="Rect&#xE1;ngulo 3344" width="7.227" height="0.664" transform="translate(257.981 92.511)" fill="#aec3ff"></rect><rect id="Rect&#xE1;ngulo_3345" data-name="Rect&#xE1;ngulo 3345" width="7.227" height="0.664" transform="translate(250.005 92.511)" fill="#aec3ff"></rect><path id="Trazado_5229" data-name="Trazado 5229" d="M1744.5,443.267a2.979,2.979,0,1,0-2.979,2.979,2.979,2.979,0,0,0,2.979-2.979" transform="translate(-1422.065 -360.139)" fill="#f99746"></path><path id="Trazado_5230" data-name="Trazado 5230" d="M1751.6,403.449h.29a.479.479,0,0,0,.478-.478v-5.559a.479.479,0,0,0-.478-.478h-.29a.479.479,0,0,0-.478.478v5.559a.479.479,0,0,0,.478.478" transform="translate(-1432.356 -324.677)" fill="#f99746"></path><path id="Trazado_5231" data-name="Trazado 5231" d="M1751.6,488.159h.29a.479.479,0,0,0,.478-.478v-5.559a.479.479,0,0,0-.478-.478h-.29a.479.479,0,0,0-.478.478v5.559a.479.479,0,0,0,.478.478" transform="translate(-1432.356 -393.967)" fill="#f99746"></path><path id="Trazado_5232" data-name="Trazado 5232" d="M1710.428,470.313l-.171-.234a.479.479,0,0,0-.667-.1l-4.491,3.277a.479.479,0,0,0-.1.667l.171.234a.479.479,0,0,0,.667.1l4.491-3.277a.479.479,0,0,0,.1-.668" transform="translate(-1394.549 -384.347)" fill="#f99746"></path><path id="Trazado_5233" data-name="Trazado 5233" d="M1778.859,420.383l-.171-.234a.479.479,0,0,0-.667-.1l-4.491,3.277a.479.479,0,0,0-.1.667l.171.234a.479.479,0,0,0,.667.1l4.491-3.277a.479.479,0,0,0,.1-.667" transform="translate(-1450.523 -343.506)" fill="#f99746"></path><path id="Trazado_5234" data-name="Trazado 5234" d="M1772.264,472.177l-.193.216a.479.479,0,0,0,.038.675l4.145,3.7a.479.479,0,0,0,.674-.038l.193-.216a.479.479,0,0,0-.038-.674l-4.145-3.7a.479.479,0,0,0-.674.038" transform="translate(-1449.391 -386.093)" fill="#f99746"></path><path id="Trazado_5235" data-name="Trazado 5235" d="M1709.1,415.726l-.193.216a.479.479,0,0,0,.038.674l4.145,3.7a.479.479,0,0,0,.674-.038l.193-.216a.479.479,0,0,0-.038-.674l-4.145-3.7a.479.479,0,0,0-.674.038" transform="translate(-1397.729 -339.918)" fill="#f99746"></path><path id="Trazado_5236" data-name="Trazado 5236" d="M1779.721,453.129l0,.29a.479.479,0,0,0,.483.472l5.559-.063a.479.479,0,0,0,.472-.483l0-.29a.479.479,0,0,0-.483-.472l-5.559.063a.479.479,0,0,0-.472.483" transform="translate(-1455.747 -370.196)" fill="#f99746"></path><path id="Trazado_5237" data-name="Trazado 5237" d="M1695.016,454.084l0,.29a.479.479,0,0,0,.483.472l5.559-.063a.479.479,0,0,0,.472-.483l0-.29a.479.479,0,0,0-.483-.472l-5.559.063a.479.479,0,0,0-.472.483" transform="translate(-1386.462 -370.977)" fill="#f99746"></path><path id="Trazado_5238" data-name="Trazado 5238" d="M1349.843,445.516h59.368V440.7h-59.368Zm58.8-.563h-58.241v-3.688h58.241Z" transform="translate(-1104.123 -360.478)" fill="#aec3ff"></path><rect id="Rect&#xE1;ngulo_3346" data-name="Rect&#xE1;ngulo 3346" width="46.083" height="4.251" transform="translate(258.724 80.506)" fill="#aec3ff"></rect><path id="Trazado_5239" data-name="Trazado 5239" d="M1723.55,589.555c0-3.89-5.966-11.225-5.966-11.225s-5.966,7.335-5.966,11.225,2.671,7.044,5.966,7.044,5.966-3.154,5.966-7.044" transform="translate(-1400.041 -473.053)" fill="#aec3ff"></path><path id="Trazado_5240" data-name="Trazado 5240" d="M1349.843,620.1h59.368v-4.814h-59.368Zm58.8-.563h-58.241v-3.688h58.241Z" transform="translate(-1104.123 -503.28)" fill="#f99746"></path><rect id="Rect&#xE1;ngulo_3347" data-name="Rect&#xE1;ngulo 3347" width="28.162" height="4.251" transform="translate(276.645 112.286)" fill="#f99746"></rect><path id="Trazado_5241" data-name="Trazado 5241" d="M1722.029,780.756V765.182h3.361v15.574a3.547,3.547,0,1,1-3.361,0" transform="translate(-1407.031 -625.891)" fill="#aec3ff"></path><path id="Trazado_5242" data-name="Trazado 5242" d="M1349.843,817.871h59.368v-4.814h-59.368Zm58.8-.563h-58.241V813.62h58.241Z" transform="translate(-1104.123 -665.051)" fill="#aec3ff"></path><rect id="Rect&#xE1;ngulo_3348" data-name="Rect&#xE1;ngulo 3348" width="38.639" height="4.251" transform="translate(266.168 148.288)" fill="#aec3ff"></rect><path id="Trazado_5243" data-name="Trazado 5243" d="M1731.609,857.475a2.3,2.3,0,1,0-2.3,2.3,2.3,2.3,0,0,0,2.3-2.3" transform="translate(-1412.63 -699.501)" fill="#f99746"></path><rect id="Rect&#xE1;ngulo_3349" data-name="Rect&#xE1;ngulo 3349" width="1.371" height="7.206" transform="translate(316.044 149.734)" fill="#f99746"></rect><rect id="Rect&#xE1;ngulo_3350" data-name="Rect&#xE1;ngulo 3350" width="5.547" height="7.712" transform="translate(392.841 145.193)" fill="#aec3ff"></rect><rect id="Rect&#xE1;ngulo_3351" data-name="Rect&#xE1;ngulo 3351" width="5.547" height="12.825" transform="translate(383.338 140.081)" fill="#aec3ff"></rect><rect id="Rect&#xE1;ngulo_3352" data-name="Rect&#xE1;ngulo 3352" width="5.547" height="17.013" transform="translate(373.836 135.892)" fill="#f99746"></rect><rect id="Rect&#xE1;ngulo_3353" data-name="Rect&#xE1;ngulo 3353" width="5.547" height="13.614" transform="translate(364.334 139.291)" fill="#aec3ff"></rect><rect id="Rect&#xE1;ngulo_3354" data-name="Rect&#xE1;ngulo 3354" width="5.547" height="20.86" transform="translate(354.832 132.046)" fill="#aec3ff"></rect><rect id="Rect&#xE1;ngulo_3355" data-name="Rect&#xE1;ngulo 3355" width="5.547" height="24.581" transform="translate(345.329 128.325)" fill="#f99746"></rect><rect id="Rect&#xE1;ngulo_3356" data-name="Rect&#xE1;ngulo 3356" width="11.704" height="1.074" transform="translate(369.881 110.931)" fill="#fff"></rect><rect id="Rect&#xE1;ngulo_3357" data-name="Rect&#xE1;ngulo 3357" width="17.936" height="1.074" transform="translate(363.649 113.39)" fill="#fff"></rect><rect id="Rect&#xE1;ngulo_3358" data-name="Rect&#xE1;ngulo 3358" width="11.704" height="1.074" transform="translate(349.106 78.458)" fill="#fff"></rect><rect id="Rect&#xE1;ngulo_3359" data-name="Rect&#xE1;ngulo 3359" width="7.327" height="1.074" transform="translate(353.483 80.917)" fill="#fff"></rect><path id="Trazado_5244" data-name="Trazado 5244" d="M589.295,560.766s-22.2,25.228-29.943,40.8c0,0,9.312,20.275,39.5,36.745a10.468,10.468,0,0,0,3.39-1.756c3.194-2.281-.345-3.952-1.045-4.4-7.659-4.961-21.04-26.33-21.427-28.184s16.772-18.484,21.987-24.632S597.4,557.6,589.295,560.766" transform="translate(-457.53 -458.343)" fill="#ffb27d"></path><path id="Trazado_5245" data-name="Trazado 5245" d="M1042.47,558.731s29.053,27.659,35.771,26.926,33-7.079,33-7.079l2.191,5.034s-26.369,15.481-39.032,15.259-29.238-12.286-29.238-12.286Z" transform="translate(-852.703 -457.021)" fill="#ffb27d"></path><path id="Trazado_5246" data-name="Trazado 5246" d="M926.616,358.847s-.145,3.11,1.721,3.719-1.922,7.321-1.625,11.853,2.3,6.353,2.3,6.353-.963-2.493-.424-4.035c0,0-.086,3.207,2.256,4.825s1.713,3.017,1.713,3.017,5.293-1.585,5.441-5.555a10.482,10.482,0,0,1,.044,2.538s4.57-3.432,4.788-7.385-3.6-7.291-5.336-7.351-5.616-3.472-5.511-4.762-5.369-3.215-5.369-3.215" transform="translate(-757.937 -293.523)" fill="#2c3a64"></path><path id="Trazado_5247" data-name="Trazado 5247" d="M808.471,226.355c-3.08-4.676-15.307-2.059-27.311,5.846s-19.238,18.1-16.158,22.781,15.307,2.059,27.311-5.846,19.238-18.1,16.158-22.781" transform="translate(-625.164 -183.253)" fill="#e2af64"></path><path id="Trazado_5248" data-name="Trazado 5248" d="M859.634,1044.327c3.329,17.644,7.616,41.646,10.924,60.423.392,2.217.77,4.359,1.131,6.41.082.474.164.945.246,1.408H905q.07-.707.134-1.408a245.941,245.941,0,0,0,.354-41.869c-.354-4.552-.823-8.747-1.342-12.552-2.175-22.475-2.907-32-3.127-35.147l-.047-.694c0-.042,0-.082-.007-.117l-.007-.106c0-.063-.009-.12-.012-.169l-.007-.138c0-.047,0-.068,0-.068l-11.272,3.353-5.514,1.64-1.3,4.129-2.6,8.257-18.871,6.088Z" transform="translate(-703.15 -834.567)" fill="#233862"></path><path id="Trazado_5249" data-name="Trazado 5249" d="M739.886,1022.877c.57,9.167,1.509,41.491,2.557,62.389q.036.715.07,1.408H776.8q.158-.7.317-1.408c3.639-16.365,6.619-34.741,8.754-49.656.375.016,4.289-26.637,14.1-38.387.089-.106.1-.19.047-.253-.486-.624-6.71.455-6.71.455a13.828,13.828,0,0,1-1.7.333c-4.707.645-11.541-.394-18.322-1.976h0c-1.833-.427-3.658-.894-5.439-1.377-5.021-1.363-9.669-2.86-12.984-3.986-.824-.279-1.563-.537-2.206-.762-.521-.183-.978-.347-1.363-.486h0c-.925-.333-1.441-.528-1.441-.528s-.232.2-.629.627a33.371,33.371,0,0,0-6.731,11.846,55.4,55.4,0,0,0-2.6,21.761" transform="translate(-605.088 -808.674)" fill="#2b478b"></path><path id="Trazado_5250" data-name="Trazado 5250" d="M796.469,187.239l-21.577,32.738s-2.467-4.833-5.207-3.1c-4.275,2.7-13.458-6.544-11.543-19.6.126-.854.276-1.664.443-2.435,4.305-6.2,9.086-13.109,12.517-17.964,9.909-5.985,25.368,10.358,25.368,10.358" transform="translate(-619.921 -143.604)" fill="#2c3a64"></path><path id="Trazado_5251" data-name="Trazado 5251" d="M818.566,439.816a36.844,36.844,0,0,1-12.024,7.167c-19.054,7.221-28.854-8.381-33.238-19.408a17.065,17.065,0,0,1,6.386-2.954c1.12-.289,2.291-.548,3.345-.758a2.127,2.127,0,0,0,1.364-.9c1.817-2.742,3.656-9.692,2.995-19.461l.959.122,16.081,2.135s-.04,5.025.246,9.731a48.345,48.345,0,0,0,.586,5.468,3.238,3.238,0,0,0,2.873,2.632h0a.04.04,0,0,0,.01.013,100.749,100.749,0,0,1,10.417,16.215" transform="translate(-632.536 -330.048)" fill="#ffb27d"></path><path id="Trazado_5252" data-name="Trazado 5252" d="M872.06,406.324s-.043,5.021.246,9.73c-8.9.315-14.117-7.493-16.328-11.865Z" transform="translate(-700.159 -330.612)" fill="#ed985f"></path><path id="Trazado_5253" data-name="Trazado 5253" d="M859.614,281.8s-21.005,1.685-21.853-11.412-4.13-21.7,9.245-23.33,16.307,3.2,17.654,7.5.4,26.464-5.045,27.24" transform="translate(-684.461 -201.821)" fill="#ffb27d"></path><path id="Trazado_5254" data-name="Trazado 5254" d="M834.955,235.742c-3.5-3.733-5.9-2.712-7.2-1.44-11.9-5.587-18.707,4.226-18.707,4.226a25.071,25.071,0,0,1-7.243,15.3s3.983,2.123,12.674-.711a15.049,15.049,0,0,0,6.842-5.394,49.158,49.158,0,0,1-7.786,10.849c10.244-5.55,13.547-20.5,13.871-22.078,1.357,1.071,4.047,3.414,4.974,5.819,1.26,3.269,2.169,10.1,4.155,9.744,0,0,3.673-10.721-1.578-16.319" transform="translate(-655.845 -190.243)" fill="#2c3a64"></path><path id="Trazado_5255" data-name="Trazado 5255" d="M741.633,188.741s-9.769-19.444,3.882-27.131,23.642-4.668,31.153,4.732Z" transform="translate(-603.86 -128.621)" fill="#edbd77"></path><path id="Trazado_5256" data-name="Trazado 5256" d="M673.472,552.79c-.748.779-1.215,1.218-1.215,1.218-15.912-1.981-16.658-18.32-16.658-18.32s12.455-16.424,24.082-20.037a61.059,61.059,0,0,1,7.075-1.534c3.638,3.017,7.829,7.438,11.771,11.032,4.544,4.145,12.366,5.553,15.259-1.8,1.159-2.944-1.628-9.057-1.914-9.5a.059.059,0,0,1-.009-.015c.3.019.589.041.874.061,1.426.114,2.71.288,3.876.405,5.675.569,13.513,4.33,29.35,24.376,0,0-8.558,10.57-17.252,11.184.349,16.744-1.448,44.017-1.448,44.017,3.8,7.468-52.622,24.768-55.057,17.644-3.652-5.572-.008-16.242,3.149-24.419.774-2,.944-4.124,1.633-5.668a18.52,18.52,0,0,0,1.051-3.053,18.076,18.076,0,0,0,.182-8.019,172.623,172.623,0,0,0-4.747-17.576" transform="translate(-536.256 -420.301)" fill="#f99746"></path><path id="Trazado_5257" data-name="Trazado 5257" d="M712.094,204.046q.616-.633,1.27-1.274l0,0a93.7,93.7,0,0,1,15.746-12.17,97.733,97.733,0,0,1,14.537-7.517h0q1.376-.567,2.715-1.053c10.629-3.888,19.195-4.183,21.787-.028,2.736,4.383-1.893,12.545-10.959,20.825l0,0c.007-.073.017-.143.023-.214s.012-.143.019-.216.014-.167.021-.251c0-.061.01-.122.014-.185,0-.1.012-.206.019-.312.007-.131.014-.263.019-.4,0-.014,0-.03,0-.047,0-.1.007-.195.01-.293v-.091c0-.063,0-.127,0-.193,0-.23,0-.464,0-.7,0-.082,0-.167-.007-.249,0-.047,0-.094,0-.141,0-.077-.007-.155-.014-.23-.007-.143-.017-.284-.028-.425s-.026-.281-.04-.425c0-.007,0-.016,0-.023,0-.052-.012-.1-.017-.152,0-.033-.007-.066-.012-.1-.014-.1-.026-.2-.04-.3-.021-.162-.047-.321-.078-.481,0-.026-.009-.054-.014-.08-.033-.19-.07-.378-.115-.566-.019-.094-.042-.188-.066-.279l-.007-.035c.969-2.041,1.145-3.805.354-5.073-.915-1.469-3-2.062-5.826-1.877h0c-.077,0-.155.012-.234.019h0a22.768,22.768,0,0,0-3.4.547h0c-.286.066-.575.136-.87.214-1.07.282-2.194.631-3.357,1.051h-.014a59.831,59.831,0,0,0-11.152,5.521c-1.6,1-3.111,2.034-4.526,3.088h0c-.141.106-.282.211-.42.317-6.539,4.96-10.858,10.288-11.353,13.97a3.742,3.742,0,0,0,.451,2.551,1.832,1.832,0,0,0,.115.164.171.171,0,0,0,.014.023,3.429,3.429,0,0,0,1.138.978s0,0,0,0a2.158,2.158,0,0,0,.193.1s0,0,0,0a6,6,0,0,0,1.666.507h0c.061.049.122.1.183.143.044.035.091.07.138.1s.089.066.136.1c.014.009.028.019.042.03.08.052.157.106.234.157.122.08.246.155.368.228.061.035.122.07.183.1s.122.066.183.1c.082.042.162.082.244.12a.776.776,0,0,0,.092.042l.091.04s0,0,0,0l.021.009.112.047c.056.021.11.045.167.063s.139.052.207.073.131.042.195.059l.019.007c.054.014.106.028.16.04a.423.423,0,0,0,.059.017c.049.012.1.023.15.033s.122.023.185.033c.038.007.075.012.113.017s.089.012.134.016.115.012.174.014a.7.7,0,0,0,.07,0h.028a.285.285,0,0,0,.045,0h.016a.526.526,0,0,0,.061,0,3.62,3.62,0,0,0,.453-.028,3.306,3.306,0,0,0,.434-.087c.07-.021.141-.042.209-.066.052-.019.1-.04.153-.061a1.185,1.185,0,0,0,.113-.049c.03-.014.061-.028.091-.045a.654.654,0,0,0,.08-.042c.054-.028.106-.059.157-.092a2.538,2.538,0,0,1,.321-.174c.035-.016.07-.031.1-.045l.042-.016a1.3,1.3,0,0,1,.155-.052,2.1,2.1,0,0,1,.605-.089h.028a.064.064,0,0,1,.021,0h.028c.026,0,.049,0,.075,0a.344.344,0,0,1,.049,0c.045,0,.087.009.129.016l.014,0a.518.518,0,0,1,.059.012.7.7,0,0,1,.1.021c.033.007.066.016.1.026a1.06,1.06,0,0,1,.117.035l.077.028a1.175,1.175,0,0,1,.115.045h0c.031.012.059.023.089.037s.056.026.082.04.063.033.1.049l.092.049.094.056.089.056c.03.019.061.038.091.059a.776.776,0,0,1,.089.063c.059.04.117.084.173.131a.844.844,0,0,1,.084.068c.028.023.056.047.084.073.057.047.11.1.164.145s.108.1.16.153c.026.026.052.052.077.08s.052.052.075.077.056.056.082.085h0q-1.541.637-3.034,1.178a55.107,55.107,0,0,1-8.895,2.478c-6.271,1.129-10.966.394-12.771-2.5-2.4-3.855.887-10.629,7.876-17.841" transform="translate(-575.386 -146.413)" fill="#ffcf83"></path><path id="Trazado_5258" data-name="Trazado 5258" d="M765.875,756.353c-8.126,2.6-4.332-1.852-10.609-1.4.774-2,1.346-3.8,2.035-5.349a18.511,18.511,0,0,0,1.051-3.053,18.077,18.077,0,0,0,.182-8.019,156.164,156.164,0,0,0-4.747-17.576c1.8-4.718,9.459,3.017,9.459,3.017s7.1,7.455,5.239,20.132c-1.731,11.81,4.4,10-2.609,12.246" transform="translate(-616.57 -588.469)" fill="#ed7d2b"></path><path id="Trazado_5259" data-name="Trazado 5259" d="M787.893,519.768a41.713,41.713,0,0,1,16.476,26.063l3.968-1.26s-1.672-12.738-16.849-25.7c0,0-1.144.226-1.527.322-.516.129-2.068.574-2.068.574" transform="translate(-644.468 -424.419)" fill="#2b478b"></path><path id="Trazado_5260" data-name="Trazado 5260" d="M982.759,542.442l-4.155.273a42.149,42.149,0,0,0-9.134-28.533c1.426.114,2.717.252,3.876.405,8.433,12.876,9.412,27.855,9.412,27.855" transform="translate(-792.992 -420.581)" fill="#2b478b"></path><path id="Trazado_5261" data-name="Trazado 5261" d="M758.012,645.489c-.257-1.092-2.8-11.7-2.8-11.7s-.586-3.318,5.244-3.646,26.514-1.418,26.514-1.418a6.445,6.445,0,0,1,2.86,5.192c.042,3.49,2.856,23.461,2.856,23.461l2.9,43.921L732.51,728.473s-4.325-22.2.518-37.671c2.824-9.024,6.465-18.446,6.465-18.446s22.444-10.189,18.519-26.867" transform="translate(-597.713 -514.271)" fill="#2b478b"></path><path id="Trazado_5262" data-name="Trazado 5262" d="M877.137,648.294a1.742,1.742,0,1,1,2.188,1.133,1.742,1.742,0,0,1-2.188-1.133" transform="translate(-717.399 -528.424)" fill="#ed7d2b"></path><path id="Trazado_5263" data-name="Trazado 5263" d="M878.776,647.774a1.742,1.742,0,1,1,2.188,1.133,1.742,1.742,0,0,1-2.188-1.133" transform="translate(-718.74 -527.998)" fill="#f99746"></path><path id="Trazado_5264" data-name="Trazado 5264" d="M882.336,653.932a.253.253,0,1,1,.253.254.253.253,0,0,1-.253-.254" transform="translate(-721.719 -534.685)" fill="#2b478b"></path><path id="Trazado_5265" data-name="Trazado 5265" d="M891.419,653.948a.253.253,0,1,1,.253.254.253.253,0,0,1-.253-.254" transform="translate(-729.149 -534.698)" fill="#2b478b"></path><path id="Trazado_5266" data-name="Trazado 5266" d="M1018.024,636.134a1.742,1.742,0,1,1,2.188,1.133,1.742,1.742,0,0,1-2.188-1.133" transform="translate(-832.639 -518.477)" fill="#ed7d2b"></path><path id="Trazado_5267" data-name="Trazado 5267" d="M1019.662,635.614a1.742,1.742,0,1,1,2.188,1.133,1.742,1.742,0,0,1-2.188-1.133" transform="translate(-833.979 -518.052)" fill="#f99746"></path><path id="Trazado_5268" data-name="Trazado 5268" d="M1023.222,641.772a.253.253,0,1,1,.253.254.253.253,0,0,1-.253-.254" transform="translate(-836.959 -524.739)" fill="#2b478b"></path><path id="Trazado_5269" data-name="Trazado 5269" d="M1032.305,641.786a.253.253,0,1,1,.253.254.253.253,0,0,1-.253-.254" transform="translate(-844.388 -524.75)" fill="#2b478b"></path><path id="Trazado_5270" data-name="Trazado 5270" d="M772.768,372.554s-.145,3.11,1.721,3.719-1.922,7.32-1.625,11.853,2.3,6.353,2.3,6.353-.963-2.493-.424-4.036c0,0-.086,3.207,2.256,4.825s1.713,3.017,1.713,3.017,5.293-1.585,5.441-5.555a10.482,10.482,0,0,1,.044,2.538s4.57-3.432,4.788-7.386-3.6-7.291-5.336-7.351-5.616-3.473-5.511-4.762-5.37-3.215-5.37-3.215" transform="translate(-632.095 -304.735)" fill="#2c3a64"></path><path id="Trazado_5271" data-name="Trazado 5271" d="M926.613,393.286s3.13,1.9,5.358,1.677c2.206-.219,3.408-2.879,3.408-2.879a18.5,18.5,0,0,0-8.765,1.2" transform="translate(-757.936 -320.623)" fill="#fff2e9"></path><path id="Trazado_5272" data-name="Trazado 5272" d="M807.9,874.194h42.155a5.335,5.335,0,0,0,4.493-3.2l10.612-26.125c.717-1.765-.133-3.2-1.9-3.2H821.111a5.335,5.335,0,0,0-4.493,3.2L806.005,871c-.717,1.765.133,3.2,1.9,3.2" transform="translate(-659.075 -688.463)" fill="#a4c9ff"></path><path id="Trazado_5273" data-name="Trazado 5273" d="M821.723,874.194h42.155a5.335,5.335,0,0,0,4.493-3.2l10.612-26.125c.717-1.765-.133-3.2-1.9-3.2H834.931a5.335,5.335,0,0,0-4.493,3.2L819.826,871c-.717,1.765.133,3.2,1.9,3.2" transform="translate(-670.38 -688.463)" fill="#71a4ff"></path><path id="Trazado_5274" data-name="Trazado 5274" d="M1113.082,852.686h0a2.445,2.445,0,0,0-2.052,1.459c-.326.8.064,1.459.866,1.459a2.444,2.444,0,0,0,2.052-1.459c.326-.8-.064-1.459-.866-1.459" transform="translate(-908.688 -697.466)" fill="#2b478b"></path><path id="Trazado_5275" data-name="Trazado 5275" d="M1091.685,856.025h0a1.427,1.427,0,0,0-1.2.851c-.19.468.037.851.506.851a1.426,1.426,0,0,0,1.2-.851c.19-.468-.037-.851-.505-.851" transform="translate(-891.925 -700.197)" fill="#2b478b"></path><path id="Trazado_5276" data-name="Trazado 5276" d="M977.47,912.355c.7-1.732-.13-3.136-1.862-3.136a5.235,5.235,0,0,0-4.409,3.136c-.7,1.732.13,3.136,1.862,3.136a5.236,5.236,0,0,0,4.409-3.136" transform="translate(-794.201 -743.708)" fill="#a4c9ff"></path><path id="Trazado_5277" data-name="Trazado 5277" d="M789.993,933.159s5.8-3.3,7.194-4.832c.9-.986.956.282.9.638a4.883,4.883,0,0,1-1.872,3.479c-2.375,1.941-6.22.715-6.22.715" transform="translate(-646.186 -759.036)" fill="#ffb27d"></path><path id="Trazado_5278" data-name="Trazado 5278" d="M778.823,943.564s10.455-3.141,12.864-2.868,7.907,1.987,8.35,2.433-1.45.919-2.89.5a12.324,12.324,0,0,0-4.753.067,73.535,73.535,0,0,1,7.329,1.917.215.215,0,0,1,.047.364,3.787,3.787,0,0,1-2.55.272,44.736,44.736,0,0,0-5.129-.212l6.663,1.448a.178.178,0,0,1,.142.177c-.011.316-.543.656-2.1.726a51.011,51.011,0,0,1-5.263-.546l3.619,1.91a3.147,3.147,0,0,1-2.725.018c-1.268-.419-5.049-1.365-5.922-1.181s-5.23,1.723-7.287,1.459a11.785,11.785,0,0,1-2.882-.637Z" transform="translate(-635.016 -769.441)" fill="#ffb27d"></path><path id="Trazado_5279" data-name="Trazado 5279" d="M1420.233,631.351s5.246-5.6,7.174-6.273,8.809-1.829,8.809-1.829-.028,1.646-3.107,2.783-3.724,6.477-5.546,7.989-6.636,2.819-6.636,2.819Z" transform="translate(-1161.699 -509.795)" fill="#ffb27d"></path><path id="Trazado_5280" data-name="Trazado 5280" d="M1432.269,673.24s5.111-.223,6.771-1.267,4.365-2.407,3.844-3.237-6.157-.2-6.157-.2Z" transform="translate(-1171.544 -546.65)" fill="#ffb27d"></path><path id="Trazado_5281" data-name="Trazado 5281" d="M1461.917,617.652c.268-.12,7.083-4.677,7.083-4.677s.574,2.16-.43,2.57-6.654,2.107-6.654,2.107" transform="translate(-1195.795 -501.391)" fill="#ffb27d"></path><path id="Trazado_5282" data-name="Trazado 5282" d="M630.353,880.569a113.953,113.953,0,0,0,26.574,19.673,10.454,10.454,0,0,0,3.39-1.757c3.193-2.28-.345-3.951-1.044-4.4-3.47-2.248-8.118-7.867-12.2-13.512Z" transform="translate(-515.606 -720.273)" fill="#ffb27d"></path><path id="Trazado_5283" data-name="Trazado 5283" d="M2474.644,1431.967h51.076l.021-.056c.063-.167.148-.392.256-.678l.042-.084v-.042a.157.157,0,0,0,.042-.087,11.89,11.89,0,0,0,.472-1.2c.087-.216.171-.474.3-.73V1429l.042-.042c.589-1.53,1.319-3.521,2.161-5.929q.112-.327.232-.662c.631-1.818,1.326-3.855,2.065-6.1q.51-1.58,1.049-3.3c-5.047-1.406-11.646-2.374-17.521-.467a22.2,22.2,0,0,0-8.363,4.873c-4.043,3.679-5.714,7.316-10.421,5.9a16.947,16.947,0,0,0-4.078-.627c-7.577-.34-18.054,2.858-17.376,9.31" transform="translate(-2024.144 -1154.51)" fill="#82b378"></path><path id="Trazado_5284" data-name="Trazado 5284" d="M0,1520.039v.2a.6.6,0,0,0,.6.6H530.329a.6.6,0,0,0,.6-.6v-.2a.6.6,0,0,0-.6-.6H.6a.6.6,0,0,0-.6.6" transform="translate(0 -1242.843)" fill="#2e3552"></path></g></g></g></svg>