<svg xmlns="http://www.w3.org/2000/svg" xmlns:xlink="http://www.w3.org/1999/xlink" id="Grupo_753" data-name="Grupo 753" width="432.815" height="278" viewBox="0 0 432.815 278"><defs><clipPath id="clip-path"><rect id="Rect&#xE1;ngulo_3097" data-name="Rect&#xE1;ngulo 3097" width="432.815" height="278" fill="none"></rect></clipPath><clipPath id="clip-path-3"><rect id="Rect&#xE1;ngulo_3086" data-name="Rect&#xE1;ngulo 3086" width="61.455" height="38.705" fill="none"></rect></clipPath><clipPath id="clip-path-4"><rect id="Rect&#xE1;ngulo_3088" data-name="Rect&#xE1;ngulo 3088" width="61.455" height="38.707" fill="none"></rect></clipPath></defs><g id="Grupo_752" data-name="Grupo 752" clip-path="url(#clip-path)"><g id="Grupo_751" data-name="Grupo 751"><g id="Grupo_750" data-name="Grupo 750" clip-path="url(#clip-path)"><path id="Trazado_3928" data-name="Trazado 3928" d="M357.631,639.077s42.834-1.019,61.137-26.98c33.159-47.031,18.215-88.274-40.818-85.2-66.039,3.434-57.894-142.356-172.242-72.164-24.83,15.242-80.092-16.768-102.17,49.923-5.25,15.858-44.677,16.963-70.158,29.68C-6.59,554.281,4.7,639.41,42.458,639.745s315.174-.667,315.174-.667" transform="translate(-6.882 -362.191)" fill="#ebf2f9"></path><path id="Trazado_3929" data-name="Trazado 3929" d="M241.534,80.945h-2.051V62.21l-.644-.057V54.708l.186-.616L149.372,27.084,111.946,52.335l.36.534a2.213,2.213,0,0,0-2.207,2.207V67.949a2.213,2.213,0,0,0,2.207,2.207h18.759a2.213,2.213,0,0,0,2.207-2.207V62.8h12.506V299.676H160.49V62.8h60.521l16.872,18.146h-3.461a2.213,2.213,0,0,0-2.207,2.207v2.207a2.213,2.213,0,0,0,2.207,2.207h7.111a2.213,2.213,0,0,0,2.207-2.207V83.152a2.213,2.213,0,0,0-2.207-2.207M149.585,28.493l87.023,26.215H133.238a2.214,2.214,0,0,0-2.174-1.839H113.457ZM231.532,62.8l6.663.589v16L222.769,62.8Z" transform="translate(-91.545 -22.52)" fill="#d2e4ff"></path><path id="Trazado_3930" data-name="Trazado 3930" d="M370.817,1558.179h-64.73c3.118-2.3,14.306-10.323,24.439-14.656,4.2-1.795,8.217-2.956,11.4-2.812,10.108.453,24.275,13.1,28.887,17.469" transform="translate(-254.506 -1281.062)" fill="#e27f2b"></path><path id="Trazado_3931" data-name="Trazado 3931" d="M248.717,1558.179h-64.73c4.408-3.254,24.964-17.956,35.842-17.469a23.7,23.7,0,0,1,9.172,2.813c8.138,4.088,16.4,11.51,19.715,14.656" transform="translate(-152.982 -1281.063)" fill="#e69d43"></path><path id="Trazado_3932" data-name="Trazado 3932" d="M1981.586,339.734h0l.247-.366-25.672-17.321-61.5,18.526.127.423V346.1l-.441.039v12.851h-1.407a1.518,1.518,0,0,0-1.514,1.514v1.514a1.518,1.518,0,0,0,1.514,1.514h4.878a1.518,1.518,0,0,0,1.514-1.514v-1.514a1.518,1.518,0,0,0-1.514-1.514h-2.374l11.573-12.447h41.515V509.031h10.092V346.546h8.578v3.532a1.518,1.518,0,0,0,1.514,1.514h12.868a1.518,1.518,0,0,0,1.514-1.514v-8.831a1.518,1.518,0,0,0-1.514-1.514m-25.572-16.72,24.782,16.72h-12.078a1.518,1.518,0,0,0-1.491,1.262h-70.906Zm-60.782,34.913V346.95l4.571-.4h6.011Z" transform="translate(-1572.688 -267.776)" fill="#ebf2f9"></path><rect id="Rect&#xE1;ngulo_3084" data-name="Rect&#xE1;ngulo 3084" width="84.906" height="264.211" transform="translate(202.253 13.164)" fill="#d2e4ff"></rect><g id="Grupo_743" data-name="Grupo 743" transform="translate(202.253 49.62)" opacity="0.5"><g id="Grupo_742" data-name="Grupo 742"><g id="Grupo_741" data-name="Grupo 741" clip-path="url(#clip-path-3)"><rect id="Rect&#xE1;ngulo_3085" data-name="Rect&#xE1;ngulo 3085" width="61.455" height="38.707" transform="translate(0 -0.001)" fill="#aed3ff"></rect></g></g></g><g id="Grupo_746" data-name="Grupo 746" transform="translate(202.253 120.498)" opacity="0.5"><g id="Grupo_745" data-name="Grupo 745"><g id="Grupo_744" data-name="Grupo 744" clip-path="url(#clip-path-4)"><rect id="Rect&#xE1;ngulo_3087" data-name="Rect&#xE1;ngulo 3087" width="61.455" height="38.707" transform="translate(0 0)" fill="#aed3ff"></rect></g></g></g><g id="Grupo_749" data-name="Grupo 749" transform="translate(202.253 190.461)" opacity="0.5"><g id="Grupo_748" data-name="Grupo 748"><g id="Grupo_747" data-name="Grupo 747" clip-path="url(#clip-path-4)"><rect id="Rect&#xE1;ngulo_3089" data-name="Rect&#xE1;ngulo 3089" width="61.455" height="38.707" transform="translate(0 0)" fill="#aed3ff"></rect></g></g></g><path id="Trazado_3933" data-name="Trazado 3933" d="M1694.155,293.871H1682.7V258.078h-94.388V78.115h-23.451V342.474h23.451v-.149h105.846Z" transform="translate(-1301.151 -64.951)" fill="#aed3ff"></path><path id="Trazado_3934" data-name="Trazado 3934" d="M432.391,1645.48H.425a.425.425,0,1,1,0-.849H432.391a.425.425,0,1,1,0,.849" transform="translate(0 -1367.48)" fill="#283250"></path><path id="Trazado_3935" data-name="Trazado 3935" d="M1808.165,1611.693a17.957,17.957,0,0,1,1.149-5.619c.981-1.962,8.828-.613,8.828-.613a13.013,13.013,0,0,1,1.563,6.214Z" transform="translate(-1503.456 -1334.536)" fill="#233862"></path><path id="Trazado_3936" data-name="Trazado 3936" d="M1683.207,1611.693a17.957,17.957,0,0,1,1.149-5.619c.981-1.962,8.828-.613,8.828-.613a13.012,13.012,0,0,1,1.563,6.214Z" transform="translate(-1399.555 -1334.536)" fill="#233862"></path><path id="Trazado_3937" data-name="Trazado 3937" d="M1743.57,683.563c-.98.71-9.852,5.341-9.852,5.341l-9.355-6.67s2.841-.414,2.917-.436c.844-.235.806-2.5.912-4.91.017-.372.037-.747.064-1.118l9.161-.333.007.114c.007.116.017.237.026.364l.018.261c.006.09.013.18.02.274.166,2.119.519,5.111,1.2,5.46.384.2,2.992.167,4.886,1.653" transform="translate(-1433.775 -561.612)" fill="#d9935c"></path><path id="Trazado_3938" data-name="Trazado 3938" d="M1756.38,676.449c-.756,1.512-2.439,4.144-4.934,4.057-2.384-.085-3.741-2.251-4.362-3.619.017-.372.037-.747.064-1.118l9.161-.333.007.114.026.364.018.261c.006.09.013.18.02.274" transform="translate(-1452.667 -561.612)" fill="#cb7d45"></path><path id="Trazado_3939" data-name="Trazado 3939" d="M1741,546.7a6.918,6.918,0,0,1,9.631.089s-3.1-.643-9.631-.089" transform="translate(-1447.608 -452.963)" fill="#2b478b"></path><path id="Trazado_3940" data-name="Trazado 3940" d="M1719.237,567.24a37.894,37.894,0,0,1-2.263-6.271c-.617-2.409-.052-11.55,9.138-10.929a12.385,12.385,0,0,1,5.269,1.553c2.074,1.185,5.139,3.85,2.546,11.985l-.627,2.729Z" transform="translate(-1427.487 -457.323)" fill="#b64c41"></path><path id="Trazado_3941" data-name="Trazado 3941" d="M1741.228,600.885c-2.373,2.268-5.32,5.291-11.673-.3-1.243-1.094-1.159-2.775-1.231-5.19-.087-2.859-.775-4.609-.456-6.257.379-1.971,2.065-2.862,5.564-3.167,6.424-.557,9.671.89,9.239,4.077-.962,7.115.97,8.528-1.443,10.835" transform="translate(-1436.62 -487.128)" fill="#d9935c"></path><path id="Trazado_3942" data-name="Trazado 3942" d="M1776.5,583.01s3.808-.08,4.678,1.193.99,2.7,1.428,3.416a2.765,2.765,0,0,1,.366,1.523l.845-5.684-5.154-1.025Z" transform="translate(-1477.124 -484.282)" fill="#b64c41"></path><path id="Trazado_3943" data-name="Trazado 3943" d="M1691.72,723.925s-1.626,4.793-8.219,5.67c-.178.024-.362.044-.548.063H1656.1l-.144-.044c-1.043-.331-7.458-2.529-8.133-6.639,0,0,3.373-6.926,5.948-7.785a16.326,16.326,0,0,1,2.882-.581c1.116-.143,2.291-.239,3.277-.3,1.357-.085,2.354-.107,2.354-.107a8.091,8.091,0,0,0,7.18,4.177c5.089-.061,6.268-4.114,6.268-4.114s1.429.04,3.327.246c1.047.112,2.234.274,3.406.508a12.36,12.36,0,0,1,5.023,1.889c2.943,2.391,4.23,7.02,4.23,7.02" transform="translate(-1370.137 -593.844)" fill="#9ed9f0"></path><path id="Trazado_3944" data-name="Trazado 3944" d="M1692.339,761.519c-.285-1.587-.711-4-1.044-6.129,0-.029,1-12,1.362-14.019s-2.131-13.03-2.131-13.03c-.581-1.685-1.567-2.2-2.323-2.2l1.271-10.6c-1.171-.234-2.359-.4-3.406-.508l-.609,11.106-.009.16c-1.392.077-3.128.171-4.745.243s-3.114.127-4.035.127c-1.874,0-6.174-.215-9.03-.371l-.011-.158-.689-11.309c-.986.063-2.161.158-3.277.3l1.214,11.007v0c-.8,0-1.72,1.42-1.846,2.209l-.124,3.444a39.167,39.167,0,0,0-2.065,8.288c-.275,3.574,1.218,16.006,1.228,16.092-.054,1.482-.16,3.376-.362,5.209a102.226,102.226,0,0,0-5.42,36.186c.454,17.745.723,48.067,2.814,62.789a40.217,40.217,0,0,0,1.171,5.815,1.962,1.962,0,0,0,1.611,1.363c2.4.333,7.8.945,10.129.1,1.115-.406,1.913-6.6,2.477-14.573.541-7.649.866-16.944,1.046-24.363,0,0,0,0,0,0,.145-5.915.2-10.636.2-12.383,0-3.954.934-15.555,1.243-22.378a.152.152,0,0,1,.3,0v0c.469,8.1,2.106,20.387,2.132,23.116.061,6.621-.324,49.158,2.569,50.587,2.213,1.092,7.426.267,9.917-.07a2.294,2.294,0,0,0,1.9-1.637c3.112-10.7,3.387-47.892,3.912-68.358a102.486,102.486,0,0,0-5.37-36.052" transform="translate(-1377.143 -594.37)" fill="#2b478b"></path><path id="Trazado_3945" data-name="Trazado 3945" d="M1620.506,818c-.919.736-3.923.429-5.087-.552s-3.494-.675-4.046-1.043c-.039-.026-10.882-12.875-12.057-18.282-1.186-5.457,6.319-20.473,8.443-24.567,1.572,3.321,6.81,5.115,7.745,5.411l.143.044h.291c-1.767,4.778-7.051,13.379-9.087,16.62a2.811,2.811,0,0,0-.169,2.678c2.615,5.608,5.173,10.338,6.293,13.615.223.364.7,1.015,1.278.927.8-.123,3.373-.675,4.66,1.225s2.512,3.189,1.593,3.925" transform="translate(-1329.696 -643.199)" fill="#d9935c"></path><path id="Trazado_3946" data-name="Trazado 3946" d="M1723.121,532.347a13.539,13.539,0,0,0-1.972-2.035c-.2-.173-.416-.348-.646-.521a10.286,10.286,0,0,0-10.546-1.627,10.019,10.019,0,0,0-3.07,1.995q-.3.282-.565.581c-3.895,4.321-3.565,11.1-3.565,11.1l22.473-.24c.073-6.274-2.109-9.25-2.109-9.25" transform="translate(-1415.806 -438.485)" fill="#ffa412"></path><path id="Trazado_3947" data-name="Trazado 3947" d="M1718.952,554.7c-.063-.945-.493-8.7,2.231-11.35a4.493,4.493,0,0,0-.382-.319c-2.9,3.049-3.091,10.684-3.08,11.682l-7.184.077c-.213-5.5-3.251-10.984-3.615-11.6a5.028,5.028,0,0,0-.414.425,32.789,32.789,0,0,1,2.7,11.185l-6.416.069a49.056,49.056,0,0,0,10.494,1.491,76.627,76.627,0,0,0,11.979-1.732Z" transform="translate(-1415.84 -451.52)" fill="#e27f2b"></path><path id="Trazado_3948" data-name="Trazado 3948" d="M1656.526,679.754c-2.3,4.414-8.828,5.241-8.828,5.241,2.115-5.15-2.146-6.773-4.782-12.046s2.023-8.767,2.023-8.767c-2.882.552-3.434,4.414-3.434,4.414-.245-2.575,1.9-6.926,8.706-7.785,4.982-.629,6.185-2.308,6.472-3.163a3.728,3.728,0,0,0,1.126,2.632c.526.464,1.03.866,1.51,1.218-.011.2-.02.4-.029.6-.029.679-.048,1.346-.079,1.959a3.319,3.319,0,0,0-.714,2.9,3.224,3.224,0,0,0,.236.721,6.079,6.079,0,0,1,1.181,2.941c.316,2.917-1.664,5.828-3.388,9.137" transform="translate(-1364.866 -546.822)" fill="#b64c41"></path><path id="Trazado_3949" data-name="Trazado 3949" d="M1719.237,961.345l-.993-5.839A45.534,45.534,0,0,1,1704.8,958.3a3.248,3.248,0,0,0-2.394-1.671l-3.566-.516a3.25,3.25,0,0,0-3.351,1.726,35.363,35.363,0,0,1-6.469-1.574l0,.031-.355,5.127v.013c2.059.548,4.035.974,5.923,1.3l-.105.713a3.251,3.251,0,0,0,2.734,3.69l3.952.592a3.251,3.251,0,0,0,3.726-3.012l.069-1.1a42.459,42.459,0,0,0,14.274-2.27" transform="translate(-1404.093 -794.485)" fill="#233862"></path><path id="Trazado_3950" data-name="Trazado 3950" d="M1849.692,799.621c-1.175,5.407-12.019,18.257-12.057,18.282a1.181,1.181,0,0,1-.425.14l-.02,0c-.9.155-2.643.09-3.6.9-1.164.98-4.169,1.287-5.089.552s.307-2.023,1.595-3.925,3.862-1.348,4.658-1.225c.474.072.885-.355,1.136-.712l.015-.02c.048-.07.092-.136.127-.2,1.1-3.206,3.566-7.8,6.119-13.242a3.546,3.546,0,0,0-.2-3.386c-1.7-2.724-5.166-8.383-7.393-12.923-.259-1.313-.518-2.547-.719-3.481a9.894,9.894,0,0,0,7.572-5.032c2.312,4.486,9.444,18.934,8.285,24.263" transform="translate(-1520.098 -644.696)" fill="#d9935c"></path><path id="Trazado_3951" data-name="Trazado 3951" d="M2240.563,840.244c-1.64.379-9.052.469-14.257-.7a15.9,15.9,0,0,1-2.9-.9,4.471,4.471,0,0,1-2.1-1.583,58.53,58.53,0,0,1-2.93-8.734c-3.485-12.118-8.39-32.142-8.39-32.142s9.848,2.01,11.932,3.726,3.925,28.935,5.885,29.67c.289.109.787.336,1.426.651l.094.046c.381.188.809.4,1.273.644,4.066,2.089,10.8,5.854,11.492,6.691.919,1.1.859,2.084-1.532,2.635" transform="translate(-1837.569 -662.01)" fill="#739af0"></path><path id="Trazado_3952" data-name="Trazado 3952" d="M2105.336,811.678a7.781,7.781,0,0,0-.13-1.392c-1.267-6.968-11.344-14.1-11.542-14.1l0,.145c0,1.065-1.679,3.031-4.265,3.2-3.068.2-6.854-1.549-6.854-3.317-.018,0-1.724.231-2.3.3-2.459.28-7.366,1.607-9.468,3.2-2,1.51.826,11.031,2.575,17.773a27.005,27.005,0,0,1,1.2,6.249c-.044.509-.5,7.43-.91,13.69-.338,5.164-.644,9.878-.653,10.174-.022.587,2.895,2.641,7.792,4.193a38.235,38.235,0,0,0,3.884,1.008,41.3,41.3,0,0,0,8.45.839c1.011,0,1.97-.055,2.875-.145,7-.686,9.392-8.659,9.352-41.8" transform="translate(-1721.238 -662.011)" fill="#739af0"></path><path id="Trazado_3953" data-name="Trazado 3953" d="M2143.911,753.094a59.317,59.317,0,0,1,.351-8.668l10.8,1.765s.011,3.3-.036,6.956c.006,0,.294,3.393-3.886,3.89s-7.345-1.324-7.232-3.943" transform="translate(-1782.604 -618.976)" fill="#d9935c"></path><path id="Trazado_3954" data-name="Trazado 3954" d="M2193.733,1596.992c-1.358-.836-.56-7.031-.56-7.031s6.362-5.05,7.219-1.162,6,5.652,8.937,6.139c2.024.336,2.771,1.383,2.962,2.047Z" transform="translate(-1823.389 -1319.833)" fill="#233862"></path><path id="Trazado_3955" data-name="Trazado 3955" d="M2099.2,895.792c0,10.36-5.021,7.568-8.052,4.771.408-6.26.7-28.434.7-28.434s7.356,8.828,7.356,23.664" transform="translate(-1738.75 -725.158)" fill="#4a75cb"></path><path id="Trazado_3956" data-name="Trazado 3956" d="M2272,918.722c-.2,1.453-2.5,5.683-4.3,8.626a15.894,15.894,0,0,1-2.9-.9,4.471,4.471,0,0,1-2.1-1.583,58.536,58.536,0,0,1-2.93-8.734c.936-5.414,1.826-10.761,1.826-10.761l.276-3.586c0,.276,4.2,16.031,6.1,16.4a6.741,6.741,0,0,0,2.65-.147l.094.046c.381.188.809.4,1.272.644" transform="translate(-1878.964 -749.813)" fill="#4a75cb"></path><path id="Trazado_3957" data-name="Trazado 3957" d="M2078.052,1596.992c-1.358-.836-.56-7.031-.56-7.031s6.362-5.05,7.22-1.162,6,5.652,8.937,6.139c2.024.336,2.759,1.383,2.951,2.047Z" transform="translate(-1727.202 -1319.833)" fill="#233862"></path><path id="Trazado_3958" data-name="Trazado 3958" d="M2128.65,663.341s-7.211-11.37,6.636-12.123c0,0,5.194.611,6.37-.564,0,0,4.029,6.123.266,12.687s-13.272,0-13.272,0" transform="translate(-1768.373 -541.007)" fill="#233862"></path><path id="Trazado_3959" data-name="Trazado 3959" d="M2149.772,693.875a14.834,14.834,0,0,1-5.017,1.742,40.159,40.159,0,0,1-5.394-1.518c-1.285-.779-1.2-2.355-1.268-4.547-.079-2.594-.34-4.632-.051-6.127.344-1.789,1.479-2.807,4.655-3.083,5.83-.506,8.258.954,8.36,2.908.026.525.051,1.025.068,1.5.233,6.1-.248,8.257-1.353,9.126" transform="translate(-1777.632 -565.607)" fill="#d9935c"></path><path id="Trazado_3960" data-name="Trazado 3960" d="M2151.4,718.851c-.056,3.531-1.009,5.621-1.7,5.885a14.587,14.587,0,0,1-2.7.723c-.328.039-.643.028-.639-.159.011-.557.755-1.244.2-1.737-.58-.517-3.694-.692-3.944.437-.122.55.882,1.522.194,1.544-.209-.036-.414-.076-.609-.127a9.085,9.085,0,0,1-2.4-1.058c-1.285-.779-1.2-1.973-1.485-4.147-.184-1.406-.184-.644,0,1.443.193,2.184-.184,3.586,1.268,4.547.808.535,5.461,2.625,5.461,2.625-.068-1.107,3.9-2.023,4.949-2.849.975-.766,1.464-2.538,1.406-7.128" transform="translate(-1777.859 -597.711)" fill="#233862"></path><path id="Trazado_3961" data-name="Trazado 3961" d="M2087.063,917.177c-.022.587,2.895,2.641,7.792,4.193.394.126.8.247,1.223.363a.014.014,0,0,1,.01.012c.457,5.361,1.694,12.933,2.809,20.241v0c.289,1.894.568,3.77.826,5.586a111.238,111.238,0,0,1,1.245,12.331v.033c.024,1.446-1.2,5.052-1.287,5.885-.057.509-.1,1.048-.136,1.613a65.449,65.449,0,0,0,.1,7.77c.8,12.425,4.083,28.322,5.254,29,2.328,1.346,6.566,0,8.719-.316a1.779,1.779,0,0,0,1.56-1.791c-1.052-20.62,1.97-49.338,4.228-66.991q.089-.69.175-1.354c.271-2.082.449-4.026.561-5.779.1-1.537.153-2.933.175-4.143.005-.377.009-.738.011-1.078.005-1.105-.874-8.34-.914-41.487a1.4,1.4,0,0,0-1.394-1.392h-20.27a3.513,3.513,0,0,0-3.51,3.561,56.451,56.451,0,0,1-.609,9.428c-.748,4.6-2.35,8.9-5.657,9.937a.012.012,0,0,0-.008.007c-.015.033-.105.235-.25.57a.02.02,0,0,0,0,.005q-.047,1.248-.1,2.543c-.007.173-.015.348-.024.522,0,.1-.009.2-.015.307-.007.175-.017.351-.026.528-.013.291-.028.583-.044.879-.013.232-.026.464-.039.7q-.036.673-.081,1.361c-.007.147-.016.292-.028.441-.038.592-.079,1.194-.125,1.8-.013.186-.028.371-.042.559-.006.09-.013.18-.02.27-.019.237-.037.474-.057.714s-.042.506-.064.762c-.081.93.039,1.76.015,2.413" transform="translate(-1735.319 -731.6)" fill="#2b478b"></path><path id="Trazado_3962" data-name="Trazado 3962" d="M2161.943,1189.324c.8,12.425,4.083,28.322,5.254,29,2.328,1.346,6.566,0,8.719-.316a1.78,1.78,0,0,0,1.56-1.791c-1.052-20.62,1.969-49.338,4.228-66.991q.088-.69.175-1.354c.27-2.082.449-4.026.561-5.779-1.074-7-7.136-7.375-12.633,7.1.68,4.8-8.046,37.281-7.864,40.127" transform="translate(-1797.613 -945.717)" fill="#233862"></path><path id="Trazado_3963" data-name="Trazado 3963" d="M2068.165,1122.037c-.167,1.436-1.848,4.852-2.049,5.665-2.779,11.176-1.244,37.676.134,38.736,2.131,1.64,6.51.861,8.685.831a1.778,1.778,0,0,0,1.781-1.57c1.709-21.114,8.79-50.115,13.343-67.174a80.073,80.073,0,0,0,2.618-14.912s-21.282-13.039-23.583-5.916c-2.037,6.3.355,33.311-.928,44.339" transform="translate(-1716.647 -894.316)" fill="#2b478b"></path><path id="Trazado_3964" data-name="Trazado 3964" d="M2137.483,621.333q-.22-.248-.467-.48a8.278,8.278,0,0,0-2.535-1.648,8.5,8.5,0,0,0-8.711,1.344c-.189.143-.368.287-.533.43a11.2,11.2,0,0,0-1.629,1.681s-1.8,2.459-1.742,7.641l18.563.2s.272-5.6-2.945-9.167" transform="translate(-1764.29 -514.301)" fill="#ffa412"></path><path id="Trazado_3965" data-name="Trazado 3965" d="M2143.716,641.123l1.02.011c.021-.3-.029-7.033-2.542-9.648a3.623,3.623,0,0,0-.316.261c2.386,2.3,1.843,9.306,1.838,9.376" transform="translate(-1780.932 -525.069)" fill="#e27f2b"></path><path id="Trazado_3966" data-name="Trazado 3966" d="M2135.148,641.875a28.544,28.544,0,0,1,2.218-9.23,4.235,4.235,0,0,0-.342-.361,24.951,24.951,0,0,0-2.973,9.579l-12.179-.13a63.292,63.292,0,0,0,9.895,1.43,40.526,40.526,0,0,0,8.668-1.232Z" transform="translate(-1764.297 -525.733)" fill="#e27f2b"></path><path id="Trazado_3967" data-name="Trazado 3967" d="M2115.756,798.687s6.272,7.307,6.64,13.682l-3.2.169a30.717,30.717,0,0,0-5.525-13.415s.738-.179.984-.228c.329-.065,1.1-.209,1.1-.209" transform="translate(-1757.482 -664.093)" fill="#2b478b"></path><path id="Trazado_3968" data-name="Trazado 3968" d="M2218.816,798.092a31.952,31.952,0,0,1,4.975,13.92l3.225-.056c-.265-5.011-3.414-10.524-5.151-13.135,0,0-2.232-.564-3.049-.729" transform="translate(-1844.904 -663.599)" fill="#2b478b"></path><path id="Trazado_3969" data-name="Trazado 3969" d="M2046.2,1197.465h-2.59c-1.2-.547-7.689-3.356-13.922-3.39-4.5-.025-9.623,3.335-9.931,3.372-.782.092,2.605.123,2.605.123s5.076-2.246,7.356-2.3c2.174-.051,7,1.53,8.928,2.194h-14.516a2.214,2.214,0,0,0-2.207,2.207v16.552a2.213,2.213,0,0,0,2.207,2.207H2046.2a2.213,2.213,0,0,0,2.207-2.207v-16.552a2.213,2.213,0,0,0-2.207-2.207" transform="translate(-1679.295 -992.851)" fill="#ffa412"></path><path id="Trazado_3970" data-name="Trazado 3970" d="M2014.911,1214.191h-22.069a2.214,2.214,0,0,0-2.207,2.207v16.552a2.213,2.213,0,0,0,2.207,2.207h22.069a2.213,2.213,0,0,0,2.207-2.207V1216.4a2.214,2.214,0,0,0-2.207-2.207" transform="translate(-1655.176 -1009.577)" fill="#e27f2b"></path><path id="Trazado_3971" data-name="Trazado 3971" d="M2056.722,840.065c.158,7.482-.774,22.38-.774,22.38h-4.414c-2.084-10.483-2.82-17.227-2.82-20.905q0-1.087.01-2.023c.027-3.141.112-4.966.112-4.966-.827-19.033,2.974-29.211,4.168-30.612s6.657-2.661,6.657-2.661a75.061,75.061,0,0,1,2.54,9.488c.736,4.23-5.786,22-5.517,28.078.017.379.029.787.039,1.221" transform="translate(-1703.468 -666.248)" fill="#739af0"></path><path id="Trazado_3972" data-name="Trazado 3972" d="M2415.391,1061.66h-3.57a.648.648,0,0,0-.644.647v97.2a.647.647,0,0,0,.644.645h3.57a.646.646,0,0,0,.644-.645v-97.2a.647.647,0,0,0-.644-.647" transform="translate(-2004.849 -882.751)" fill="#f1a34f"></path><path id="Trazado_3973" data-name="Trazado 3973" d="M2415.391,1061.66h-3.57a.648.648,0,0,0-.644.647v3.012h4.857v-3.012a.647.647,0,0,0-.644-.647" transform="translate(-2004.849 -882.751)" fill="#2b478b"></path><path id="Trazado_3974" data-name="Trazado 3974" d="M2411.177,1629.479a.647.647,0,0,0,.644.645h3.57a.646.646,0,0,0,.644-.645v-2.6h-4.857Z" transform="translate(-2004.849 -1352.721)" fill="#2b478b"></path><path id="Trazado_3975" data-name="Trazado 3975" d="M2423.953,1099.457a.369.369,0,0,0-.368.368v85.558a.368.368,0,0,0,.736,0v-85.558a.369.369,0,0,0-.368-.368" transform="translate(-2015.166 -914.178)" fill="#e27f2b"></path><path id="Trazado_3976" data-name="Trazado 3976" d="M2055.948,1049.7s.932-14.9.774-22.38a15.642,15.642,0,0,0-8-.548q-.008.935-.01,2.023c0,3.678.736,10.422,2.82,20.905-.919,3.862-.858,8.031.736,8.767s6.866-2.023,6.8-3.249-3.126-5.517-3.126-5.517" transform="translate(-1703.469 -853.507)" fill="#d9935c"></path><path id="Trazado_3977" data-name="Trazado 3977" d="M2316.637,1009.2c-.43-1.578-.75-2.452-1.836-3.219-1.578-1.113-3.452-.812-4.848-.567a5.364,5.364,0,0,1-2.654-.35c-2.473-1.648-8.681-5.047-11.772-6.57a12.911,12.911,0,0,0-5.92,8.366c4.758,2.1,15.171,2.062,17.153,1.6a8.454,8.454,0,0,0,3.231,1.456,4.854,4.854,0,0,0,1.819-.316,2.472,2.472,0,0,1,2.739.871,3.38,3.38,0,0,0,1.932,1.3c.569,0,.426-1.581.155-2.575" transform="translate(-1903.766 -830.229)" fill="#d9935c"></path><path id="Trazado_3978" data-name="Trazado 3978" d="M106.7,1175.636H84.63a2.214,2.214,0,0,0-2.207,2.207v16.552a2.214,2.214,0,0,0,2.207,2.207H106.7a2.213,2.213,0,0,0,2.207-2.207v-16.552a2.213,2.213,0,0,0-2.207-2.207" transform="translate(-68.533 -977.52)" fill="#ffa412"></path><path id="Trazado_3979" data-name="Trazado 3979" d="M149.262,1175.636H127.193a2.213,2.213,0,0,0-2.207,2.207v16.552a2.213,2.213,0,0,0,2.207,2.207h22.069a2.213,2.213,0,0,0,2.207-2.207v-16.552a2.213,2.213,0,0,0-2.207-2.207" transform="translate(-103.924 -977.52)" fill="#e27f2b"></path><path id="Trazado_3980" data-name="Trazado 3980" d="M109.707,1157.572s5.241-3.862,6.023-3.77,2.023.368,2.023.368l-4.69,3.54Z" transform="translate(-91.219 -959.364)" fill="#ffa412"></path><path id="Trazado_3981" data-name="Trazado 3981" d="M177.081,797.494c-2.1-1.589-7.009-2.917-9.468-3.2-.578-.064-2.3-.072-2.323-.072,0,1.767-3.765,3.294-6.832,3.093-2.586-.169-4.265-2.135-4.265-3.2l0,0c-.2,0-10.275,6.994-11.542,13.962a7.772,7.772,0,0,0-.131,1.392c-.04,33.146-2.049,38.229-1.414,38.219,0,0,3.77,2.9,10.766,3.586.9.09,1.863.142,2.875.145a41.269,41.269,0,0,0,8.451-.839,38.169,38.169,0,0,0,3.884-1.008c4.9-1.552,7.814-3.606,7.792-4.193-.024-.653.1-1.482.015-2.413-.305-3.509-.473-6.575-.6-9.663a36.078,36.078,0,0,0,8.381-.059c4.353-9.366-2.742-33.6-5.585-35.752m-1.241,26.98c-.324.086-.675.169-1.05.248-.26.057-.53.11-.809.162-.006-.127-.009-.256-.015-.381-.072-1.736-.153-3.389-.267-4.962-.1-1.317-.213-2.577-.368-3.779,1.834,4.835,3.112,8.55,2.509,8.712" transform="translate(-117.222 -660.293)" fill="#9ed9f0"></path><path id="Trazado_3982" data-name="Trazado 3982" d="M135.846,794.133s-7.785,1.179-11.137,3.972-3.691,20.579-4.808,25.607a39.328,39.328,0,0,0-.587,4.523,98.239,98.239,0,0,0,.713,19.784,7.511,7.511,0,0,1-.457,3.3c-.858,2.146-1.042,2.759.49,3.985s3.188,2.943,4.353,2.452c.9-.379.739-6.337.619-9.042,1.345-5.781,3.523-16.63,5.572-27.144,2.735-14.018,5.241-27.438,5.241-27.438" transform="translate(-98.876 -660.307)" fill="#d9935c"></path><path id="Trazado_3983" data-name="Trazado 3983" d="M137.818,794.138s-1.446,7.733-3.338,17.591c-.6,3.128-1.245,6.47-1.9,9.846-2.68,5.251-4.978,8.82-5.688,8.149-1.449-1.368-3.993-1.538-5.6-1.486a39.388,39.388,0,0,1,.587-4.522c.088-.4.171-.874.252-1.416.938-6.327,1.469-21.619,4.556-24.19a19.024,19.024,0,0,1,6.6-2.974h0c1.182-.329,2.275-.572,3.091-.737.883-.177,1.442-.261,1.442-.261" transform="translate(-100.847 -660.311)" fill="#9ed9f0"></path><path id="Trazado_3984" data-name="Trazado 3984" d="M126.886,873.008c-1.449-1.368-3.992-1.537-5.6-1.486A39.355,39.355,0,0,1,121.87,867c.088-.4.171-.874.252-1.417l8.032-19.39s-2.559,27.486-3.269,26.815" transform="translate(-100.845 -703.595)" fill="#74acbe"></path><path id="Trazado_3985" data-name="Trazado 3985" d="M230.32,750.191a59.313,59.313,0,0,0-.351-8.668l-10.8,1.765s0,3.3.047,6.954l-.011,0s-.295,3.393,3.885,3.89,7.345-1.324,7.232-3.943" transform="translate(-182.232 -616.563)" fill="#d9935c"></path><path id="Trazado_3986" data-name="Trazado 3986" d="M140.766,1596.734c1.358-.836.564-7.074.564-7.074s-6.362-5.05-7.22-1.162-6,5.652-8.937,6.139c-2.024.336-2.647,1.46-2.838,2.124Z" transform="translate(-101.719 -1319.583)" fill="#233862"></path><path id="Trazado_3987" data-name="Trazado 3987" d="M308.295,931.535s-2.023,2.735-2.437,2.735-5.517-1.977-4.053-6.4a7.85,7.85,0,0,1,5.03-5.306c.154,1.2.272,2.463.368,3.779.114,1.572.195,3.226.267,4.962.006.125.009.254.015.381.279-.051.55-.1.809-.162Z" transform="translate(-250.726 -767.096)" fill="#74acbe"></path><path id="Trazado_3988" data-name="Trazado 3988" d="M256.448,1596.734c1.358-.836.564-7.074.564-7.074s-6.362-5.05-7.22-1.162-6,5.652-8.936,6.139c-2.024.336-2.647,1.46-2.839,2.124Z" transform="translate(-197.907 -1319.583)" fill="#233862"></path><path id="Trazado_3989" data-name="Trazado 3989" d="M218.053,660.437s7.212-11.37-6.636-12.123c0,0-5.194.612-6.37-.564,0,0-4.029,6.123-.266,12.687s13.272,0,13.272,0" transform="translate(-168.937 -538.592)" fill="#b64c41"></path><path id="Trazado_3990" data-name="Trazado 3990" d="M214.111,690.97a14.831,14.831,0,0,0,5.017,1.742,40.136,40.136,0,0,0,5.394-1.518c1.285-.779,1.2-2.355,1.268-4.547.079-2.594.341-4.632.051-6.127-.344-1.789-1.479-2.807-4.654-3.083-5.83-.506-8.259.954-8.36,2.908-.026.525-.051,1.025-.068,1.5-.233,6.1.248,8.257,1.353,9.126" transform="translate(-176.857 -563.192)" fill="#d9935c"></path><path id="Trazado_3991" data-name="Trazado 3991" d="M212.707,715.947c.056,3.531,1.009,5.621,1.7,5.885a14.58,14.58,0,0,0,2.7.723c.328.038.643.027.639-.159-.011-.557-.755-1.244-.2-1.737.58-.518,3.694-.692,3.944.437.122.55-.882,1.522-.194,1.544.209-.036.414-.076.609-.127a9.1,9.1,0,0,0,2.4-1.058c1.285-.779,1.2-1.973,1.485-4.147.184-1.406.184-.644,0,1.443-.193,2.184.184,3.586-1.268,4.547-.808.535-5.461,2.625-5.461,2.625.068-1.107-3.9-2.023-4.95-2.849-.975-.766-1.464-2.538-1.405-7.128" transform="translate(-176.858 -595.297)" fill="#b64c41"></path><path id="Trazado_3992" data-name="Trazado 3992" d="M177.951,914.272c.022.587-2.895,2.641-7.792,4.193-.394.126-.8.247-1.223.364a.013.013,0,0,0-.01.012c-.457,5.36-1.694,12.933-2.809,20.241v0c-.289,1.894-.568,3.77-.826,5.585A111.143,111.143,0,0,0,164.046,957v.033c-.024,1.445,1.2,5.052,1.287,5.885.057.509.1,1.048.136,1.613a65.529,65.529,0,0,1-.1,7.77c-.8,12.425-4.083,28.322-5.254,29-2.328,1.346-6.566,0-8.719-.316a1.78,1.78,0,0,1-1.559-1.791c1.052-20.62-1.97-49.338-4.228-66.991q-.088-.689-.175-1.353c-.27-2.082-.449-4.026-.561-5.779-.1-1.538-.153-2.933-.175-4.144-.005-.377-.009-.737-.011-1.078-.006-1.105.874-8.34.914-41.487a1.4,1.4,0,0,1,1.394-1.392h20.27a3.513,3.513,0,0,1,3.51,3.562,56.5,56.5,0,0,0,.609,9.428c.748,4.6,2.35,8.9,5.657,9.937a.012.012,0,0,1,.008.007c.015.033.105.235.25.57a.013.013,0,0,1,0,.005q.047,1.249.1,2.543c.007.173.015.348.024.522,0,.1.009.2.015.307.007.175.017.351.026.528.013.291.027.583.044.879.013.232.026.463.039.7q.036.673.081,1.361c.007.147.017.292.027.441.039.592.079,1.194.125,1.8.013.186.027.372.042.559.005.09.013.18.02.27.018.237.037.474.057.714s.042.506.064.762c.081.931-.039,1.76-.015,2.413" transform="translate(-120.302 -729.183)" fill="#2b478b"></path><path id="Trazado_3993" data-name="Trazado 3993" d="M166.284,1186.42c-.8,12.425-4.083,28.322-5.254,29-2.328,1.346-6.566,0-8.719-.316a1.779,1.779,0,0,1-1.559-1.791c1.052-20.62-1.97-49.338-4.228-66.991q-.088-.69-.175-1.353c-.27-2.082-.449-4.026-.561-5.779,1.074-7,7.136-7.375,12.633,7.1,2.356,5.609,8.046,37.281,7.864,40.127" transform="translate(-121.219 -943.303)" fill="#233862"></path><path id="Trazado_3994" data-name="Trazado 3994" d="M222.5,1119.132c.167,1.436,1.848,4.852,2.049,5.665,2.779,11.176,1.244,37.676-.134,38.736-2.132,1.64-6.51.861-8.685.831a1.778,1.778,0,0,1-1.781-1.57c-1.709-21.114-8.79-50.115-13.343-67.174a80.064,80.064,0,0,1-2.618-14.911s21.282-13.039,23.583-5.916c2.037,6.3-.356,33.311.928,44.339" transform="translate(-164.626 -891.9)" fill="#2b478b"></path><path id="Trazado_3995" data-name="Trazado 3995" d="M214.139,619.756a11.177,11.177,0,0,0-1.629-1.681c-.166-.143-.344-.288-.533-.43a8.5,8.5,0,0,0-8.711-1.344,8.269,8.269,0,0,0-2.536,1.648q-.247.233-.467.48c-3.217,3.569-2.945,9.167-2.945,9.167l18.563-.2c.06-5.182-1.742-7.641-1.742-7.641" transform="translate(-164.061 -511.886)" fill="#ffa412"></path><path id="Trazado_3996" data-name="Trazado 3996" d="M271.545,638.219c-.005-.069-.549-7.073,1.838-9.376a3.666,3.666,0,0,0-.316-.261c-2.513,2.616-2.563,9.353-2.542,9.648Z" transform="translate(-224.934 -522.654)" fill="#e27f2b"></path><path id="Trazado_3997" data-name="Trazado 3997" d="M203.743,638.959a23.6,23.6,0,0,0-2.986-9.578,4.092,4.092,0,0,0-.342.351,27.091,27.091,0,0,1,2.23,9.239l-5.3.057a40.515,40.515,0,0,0,8.668,1.232,63.291,63.291,0,0,0,9.9-1.43Z" transform="translate(-164.089 -523.319)" fill="#e27f2b"></path><path id="Trazado_3998" data-name="Trazado 3998" d="M270.59,795.783s-6.272,7.306-6.64,13.682h3.188a30.529,30.529,0,0,1,5.533-13.245Z" transform="translate(-219.47 -661.679)" fill="#2b478b"></path><path id="Trazado_3999" data-name="Trazado 3999" d="M170.3,795.688a32.036,32.036,0,0,0-5.026,13.7h-3.187c.265-5.011,3.382-10.349,5.12-12.96h0c1.182-.329,2.275-.572,3.091-.738" transform="translate(-134.776 -661.6)" fill="#2b478b"></path><path id="Trazado_4000" data-name="Trazado 4000" d="M239.685,823.732a66.638,66.638,0,0,0-1.085-8.751,27.9,27.9,0,0,1-.352,4.636c.789,6.286.484,11.09-.917,13.81a9.371,9.371,0,0,1-3.524,3.847,11.128,11.128,0,0,0,1.948-2.572c1.077-1.93,2.068-5.521,1.7-12.145-.074.189-.152.371-.234.548,0,0-.273.047-.8.1.216,4.843-.3,8.552-1.539,10.772a9.154,9.154,0,0,1-3.728,3.736,10.955,10.955,0,0,0,1.326-1.6c1.277-1.877,2.61-5.568,2.668-12.811q-.478.028-1.06.044c-.059,5.553-.878,9.685-2.42,11.943-.071.1-.145.209-.221.31,1.17-2.007,2.288-5.645,2.346-12.248-.332.005-.686.009-1.062.005-.056,5.548-.878,9.676-2.418,11.933a8.74,8.74,0,0,1-3.566,3.089c-.425-.072-.859-.169-1.3-.285-.059-.013-.118-.029-.175-.047l-.019-.005c-.057-.015-.116-.032-.174-.049q-.8-.233-1.55-.531c-6.132-2.435-9.651-7.919-9.993-12.427a72.5,72.5,0,0,1,.664-13.155c1.274-10.219,4.049-22.066,7.425-26.774.057-.079.111-.157.169-.231a0,0,0,0,1,0,0c.071-.093.142-.184.214-.268.125-.15.248-.29.374-.418l0,0a4.15,4.15,0,0,1,.787-.644,2.053,2.053,0,0,1,.233.162,4.481,4.481,0,0,1,.782.806s.005.005.007.008c.352.076.718.163,1.092.258.174.047.352.093.531.145a.126.126,0,0,1,.034.008c.042.008.084.022.125.034.219.061.438.125.659.19l.376.116c.148.047.295.094.442.143s.32.108.479.164.337.12.5.182l-.01-.015c-1.987-3.131-3.4-3.861-4.316-3.817a2.534,2.534,0,0,0-.43.057,1.807,1.807,0,0,0-.46-.062,2.757,2.757,0,0,0-.923.17,4.954,4.954,0,0,0-2.964,1.785c-.071.072-.14.15-.211.229a18.239,18.239,0,0,0-1.712,2.326l-.01.015c-5.435,8.589-10.5,27.671-10.8,36.6-.238,7.068,5.2,13.387,10.7,15.976a16.562,16.562,0,0,0,1.6.656q.447.156.886.28l.019.005a12.227,12.227,0,0,0,3.308.479c.227,0,.452-.007.674-.022.229.015.457.022.682.022a9.747,9.747,0,0,0,2.867-.418c.143-.007.286-.017.428-.027.121-.012.243-.022.361-.037.233-.027.463-.062.691-.1a11.454,11.454,0,0,0,1.941-.15,9.794,9.794,0,0,0,5.162-2.508,11.139,11.139,0,0,0,2.305-3.084c.917-1.786,1.729-4.924,1.459-10.381m-32.029-.634c.266-7.905,4.589-24.695,9.368-33.759-.167.4-.335.816-.5,1.242-4.516,9.565-8.31,24.777-8.567,32.465a15.371,15.371,0,0,0,2.671,8.9,14.929,14.929,0,0,1-2.971-8.846m11.38,14.722c-6.8-3.2-10.192-9.83-10.025-14.722.145-4.343,1.517-11.37,3.515-18.323-1.559,7.516-2.428,15.14-2.214,19.823.27,5.93,4.483,10.861,9.188,13.429-.155-.064-.307-.133-.463-.207m-7.673-13.293c-.31-6.781,1.833-20.435,5-30.229.356-1.1.723-2.144,1.1-3.129.142-.3.283-.591.425-.88-2.44,6.683-4.274,16.235-5.069,24.256a65.465,65.465,0,0,0-.332,10.608c.371,4.894,3.421,8.982,7.169,11.582-5.226-2.888-8.107-8.028-8.3-12.209" transform="translate(-171.778 -650.151)" fill="#ffa412"></path><path id="Trazado_4001" data-name="Trazado 4001" d="M216.887,972.569c-.173.026-3.432.621-3.61.646-5.428.8-12.731,1.146-13.492,1.182-.071-.067-2.662-2.48-3.673-2.48s-3.977,1.076-4.279,1.9-.422,2.317.422,2.648a37.947,37.947,0,0,0,5.243,1.241,2.413,2.413,0,0,0,.434,0,91.594,91.594,0,0,0,16.387,3.288,39.15,39.15,0,0,0,4.578.309,23.957,23.957,0,0,0-2.011-8.735" transform="translate(-159.319 -808.131)" fill="#d9935c"></path><path id="Trazado_4002" data-name="Trazado 4002" d="M862.359,463.252v-1.426h-3.121v-9.412h-2.583v9.412h-6.544v-9.412h-2.583v9.412h-7.114v-9.412h-2.583v9.412h-6.544v-9.412H828.7v9.412h-3.423v1.426H828.7v4.582h-3.423v1.426H828.7v4.582h-3.423v1.426H828.7v4.583h-3.423v1.426H828.7v4.582h-3.423v1.426H828.7v4.582h-3.423v1.426H828.7V497h-3.423v1.426H828.7v4.582h-3.423v1.426H828.7v4.582h-3.423v1.426H828.7v4.582h-3.423v1.426H828.7v4.582h-3.423v1.426H828.7v4.583h-3.423v1.426H828.7v4.373h-3.423v1.426H828.7v4.582h-3.423v1.426H828.7v4.582h-3.423v1.426H828.7v4.582h-3.423v1.426H828.7v4.582h-3.423V558.3H828.7v4.582h-3.423v1.426H828.7v3.708h-3.423v1.426H828.7v4.582h-3.423v1.426H828.7v4.582h-3.423v1.426H828.7v4.582h-3.423v1.426H828.7v4.582h-3.423v1.426H828.7v4.582h-3.423v1.426H828.7v4.088h-3.423V605H828.7v4.583h-3.423v1.426H828.7v4.583h-3.423v1.426H828.7V621.6h-3.423v1.426H828.7v4.582h-3.423v1.426H828.7v4.583h-3.423v1.426H828.7v3.708h-3.423v1.426H828.7v4.582h-3.423v1.426H828.7v4.582h-3.423v1.426h37.077v-1.426h-3.121v-4.582h3.121v-1.426h-3.121v-4.582h3.121V638.75h-3.121v-3.708h3.121v-1.426h-3.121v-4.583h3.121v-1.426h-3.121v-4.582h3.121V621.6h-3.121v-4.582h3.121v-1.426h-3.121v-4.583h3.121v-1.426h-3.121V605h3.121v-1.426h-3.121v-4.088h3.121V598.06h-3.121v-4.582h3.121v-1.426h-3.121V587.47h3.121v-1.426h-3.121v-4.582h3.121v-1.426h-3.121v-4.582h3.121v-1.426h-3.121v-4.582h3.121v-1.426h-3.121v-3.708h3.121v-1.426h-3.121V558.3h3.121v-1.426h-3.121v-4.582h3.121v-1.426h-3.121v-4.582h3.121v-1.426h-3.121v-4.582h3.121v-1.426h-3.121v-4.582h3.121v-1.426h-3.121V528.47h3.121v-1.426h-3.121v-4.583h3.121v-1.426h-3.121v-4.582h3.121v-1.426h-3.121v-4.582h3.121v-1.426h-3.121v-4.582h3.121V503.01h-3.121v-4.582h3.121V497h-3.121v-3.708h3.121v-1.426h-3.121v-4.582h3.121v-1.426h-3.121v-4.582h3.121v-1.426h-3.121v-4.583h3.121v-1.426h-3.121V469.26h3.121v-1.426h-3.121v-4.582Zm-14.831,4.582h-7.114v-4.582h7.114Zm-7.114,172.342h7.114v4.582h-7.114Zm7.114,10.591h-7.114v-4.582h7.114Zm-7.114-15.724h7.114v3.708h-7.114Zm0-6.008h7.114v4.582h-7.114Zm0-6.008h7.114v4.582h-7.114Zm0-6.008h7.114V621.6h-7.114Zm0-6.009h7.114v4.582h-7.114Zm0-6.008h7.114v4.582h-7.114Zm0-5.514h7.114v4.088h-7.114Zm0-6.009h7.114v4.582h-7.114Zm0-6.008h7.114v4.582h-7.114Zm0-6.008h7.114v4.582h-7.114Zm0-6.009h7.114v4.582h-7.114Zm0-6.008h7.114v4.582h-7.114Zm0-5.134h7.114v3.708h-7.114Zm0-6.008h7.114v4.582h-7.114Zm0-6.008h7.114v4.582h-7.114Zm0-6.008h7.114v4.582h-7.114Zm0-6.008h7.114v4.582h-7.114Zm0-6.008h7.114v4.582h-7.114Zm0-5.8h7.114v4.373h-7.114Zm0-6.008h7.114v4.582h-7.114Zm0-6.008h7.114v4.582h-7.114Zm0-6.008h7.114v4.582h-7.114Zm0-6.008h7.114v4.582h-7.114Zm0-6.008h7.114v4.582h-7.114Zm0-5.134h7.114V497h-7.114Zm0-6.008h7.114v4.582h-7.114Zm0-6.008h7.114v4.582h-7.114Zm0-6.009h7.114v4.582h-7.114Zm0-6.008h7.114v4.582h-7.114Zm-9.127-6.009h6.544v4.582h-6.544Zm0,6.009h6.544v4.582h-6.544Zm0,6.008h6.544v4.582h-6.544Zm0,6.009h6.544v4.582h-6.544Zm0,6.008h6.544v4.582h-6.544Zm0,6.008h6.544V497h-6.544Zm0,5.134h6.544v4.582h-6.544Zm0,6.008h6.544v4.582h-6.544Zm0,6.008h6.544v4.582h-6.544Zm0,6.008h6.544v4.582h-6.544Zm0,6.008h6.544v4.582h-6.544Zm0,6.008h6.544v4.373h-6.544Zm0,5.8h6.544v4.582h-6.544Zm0,6.008h6.544v4.582h-6.544Zm0,6.008h6.544v4.582h-6.544Zm0,6.008h6.544v4.582h-6.544Zm0,6.008h6.544v4.582h-6.544Zm0,6.008h6.544v3.708h-6.544Zm0,5.134h6.544v4.582h-6.544Zm0,6.008h6.544v4.582h-6.544Zm0,6.009h6.544v4.582h-6.544Zm0,6.008h6.544v4.582h-6.544Zm0,6.008h6.544v4.582h-6.544Zm0,6.009h6.544v4.088h-6.544Zm0,5.514h6.544v4.582h-6.544Zm0,6.008h6.544v4.582h-6.544Zm0,6.009h6.544V621.6h-6.544Zm0,6.008h6.544v4.582h-6.544Zm0,6.008h6.544v4.582h-6.544Zm0,6.008h6.544v3.708h-6.544Zm0,5.134h6.544v4.582h-6.544Zm0,6.008h6.544v4.582h-6.544Zm25.367,4.582h-6.544v-4.582h6.544Zm0-6.008h-6.544v-4.582h6.544Zm0-6.008h-6.544v-3.708h6.544Zm0-5.134h-6.544v-4.582h6.544Zm0-6.009h-6.544v-4.582h6.544Zm0-6.008h-6.544v-4.582h6.544Zm0-6.008h-6.544v-4.582h6.544Zm0-6.008h-6.544V605h6.544Zm0-6.008h-6.544v-4.088h6.544Zm0-5.514h-6.544v-4.582h6.544Zm0-6.008h-6.544V587.47h6.544Zm0-6.008h-6.544v-4.582h6.544Zm0-6.008h-6.544v-4.582h6.544Zm0-6.008h-6.544v-4.582h6.544Zm0-6.008h-6.544v-3.708h6.544Zm0-5.134h-6.544V558.3h6.544Zm0-6.008h-6.544v-4.582h6.544Zm0-6.008h-6.544v-4.582h6.544Zm0-6.009h-6.544v-4.582h6.544Zm0-6.008h-6.544v-4.582h6.544Zm0-6.008h-6.544V528.47h6.544Zm0-5.8h-6.544v-4.582h6.544Zm0-6.009h-6.544v-4.582h6.544Zm0-6.008h-6.544v-4.582h6.544Zm0-6.008h-6.544v-4.582h6.544Zm0-6.008h-6.544v-4.582h6.544Zm0-6.008h-6.544v-3.708h6.544Zm0-5.134h-6.544v-4.582h6.544Zm0-6.009h-6.544v-4.582h6.544Zm0-6.008h-6.544v-4.582h6.544Zm0-6.009h-6.544V469.26h6.544Zm0-6.008h-6.544v-4.582h6.544Z" transform="translate(-686.207 -376.174)" fill="#d2e4ff"></path><rect id="Rect&#xE1;ngulo_3091" data-name="Rect&#xE1;ngulo 3091" width="0.914" height="16.272" transform="translate(206.648 0)" fill="#d2e4ff"></rect><rect id="Rect&#xE1;ngulo_3092" data-name="Rect&#xE1;ngulo 3092" width="0.914" height="16.272" transform="translate(257.292 0)" fill="#d2e4ff"></rect><rect id="Rect&#xE1;ngulo_3093" data-name="Rect&#xE1;ngulo 3093" width="0.914" height="16.272" transform="translate(213.047 0)" fill="#d2e4ff"></rect><rect id="Rect&#xE1;ngulo_3094" data-name="Rect&#xE1;ngulo 3094" width="0.914" height="16.272" transform="translate(261.862 0)" fill="#d2e4ff"></rect><path id="Trazado_4003" data-name="Trazado 4003" d="M417.758,1423.2a.545.545,0,0,0-.651.408l-4.935,21.55c-1.333.039-2.688,1.483-3.148,3.493l-.47,2.053a2.842,2.842,0,0,0-.064.345l5.48,1.255a1.444,1.444,0,0,0,.107-.336l.47-2.053c.459-2-.129-3.889-1.315-4.512l4.935-21.553a.545.545,0,0,0-.408-.651" transform="translate(-339.652 -1183.353)" fill="#2b478b"></path><path id="Trazado_4004" data-name="Trazado 4004" d="M378.39,1580.985s11.381-2.948,15.015-.549-1.851,4.936-1.851,4.936Z" transform="translate(-314.624 -1313.321)" fill="#e69d43"></path><path id="Trazado_4005" data-name="Trazado 4005" d="M747.072,624.791c-2.176,6.659-14.032,18.17-15.671,19.318,0,0-2.759-4.6-2.207-7.173.451-2.1,5.067-9.594,6.647-13.276.083-.191.156-.373.221-.543a3.31,3.31,0,0,0,.305-1.262c-.079-.8-2.593-2.746-5.516-5.054-3.8-3-8.285-6.612-9.013-9.107-1.287-4.414-5.747-21.891-5.747-21.891s11.081,2.4,14.207,5.155,16.552,25.747,17.1,31.633a5.524,5.524,0,0,1-.329,2.2" transform="translate(-595.416 -487.085)" fill="#ffa412"></path><path id="Trazado_4006" data-name="Trazado 4006" d="M811.367,807.6c-2.176,6.659-14.032,18.17-15.671,19.318,0,0-2.759-4.6-2.207-7.173.474-2.211,5.558-10.387,6.867-13.819a17.232,17.232,0,0,1,11.011,1.674" transform="translate(-659.711 -669.896)" fill="#d9935c"></path><path id="Trazado_4007" data-name="Trazado 4007" d="M647.583,538.063l-.007,1.357s.37,4.245-4.857,4.864-9.162-1.274-9.021-4.55a42.288,42.288,0,0,0,1-6.757,14.767,14.767,0,0,0-.186-2.542l10.128-.2,2.983.487Z" transform="translate(-526.905 -440.88)" fill="#d9935c"></path><path id="Trazado_4008" data-name="Trazado 4008" d="M651.651,530.72l-.039,7.342a8.567,8.567,0,0,1-3.651.805c-4.655,0-7.664-3.413-9.236-5.891a14.8,14.8,0,0,0-.186-2.542l10.128-.2Z" transform="translate(-530.934 -440.879)" fill="#cb7d45"></path><path id="Trazado_4009" data-name="Trazado 4009" d="M605.051,1608.248a23.806,23.806,0,0,0-1.63-6.106c-1.138-2.277-8.383-.828-8.383-.828s-1.449,1.242-1.759,7.038Z" transform="translate(-493.3 -1331.085)" fill="#233862"></path><path id="Trazado_4010" data-name="Trazado 4010" d="M804.635,1584.884c-1.7-1.039-.734-8.79-.734-8.79s7.932-6.346,9.023-1.487,7.536,7.04,11.2,7.635c2.533.411,3.317,1.813,3.559,2.643Z" transform="translate(-668.201 -1307.733)" fill="#233862"></path><path id="Trazado_4011" data-name="Trazado 4011" d="M654.577,1013.05a36.619,36.619,0,0,1,.582,4.285c.737,14.383,12.107,47.27,14.141,48.037,3.147,1.188,8.1-1.337,10.695-2.163a2.223,2.223,0,0,0,1.56-2.526c-5.631-25.885-7.7-63.159-8.453-85.227a100.135,100.135,0,0,0-2.288-18.794s-27.731-7.4-27.9,1.961c-.146,8.283,9.186,40.764,11.659,54.427" transform="translate(-534.573 -793.139)" fill="#2b478b"></path><path id="Trazado_4012" data-name="Trazado 4012" d="M654.577,1013.05,673.1,975.456a100.135,100.135,0,0,0-2.288-18.794s-27.731-7.4-27.9,1.961c-.146,8.283,9.186,40.764,11.659,54.427" transform="translate(-534.573 -793.139)" fill="#233862"></path><path id="Trazado_4013" data-name="Trazado 4013" d="M595.237,965.513l-14.66,106.25s-6.438,1.552-11.445.31c0,0-4.292-56.509-3.934-70.17s-3.08-36.556.785-39.08,29.254,2.69,29.254,2.69" transform="translate(-469.063 -799.995)" fill="#2b478b"></path><path id="Trazado_4014" data-name="Trazado 4014" d="M603.826,652.8a38.594,38.594,0,0,1-18.341,4.245,81.366,81.366,0,0,1-11.033-.829c-8.7-1.291-13.094-3.721-13.06-4.625.03-.816.086-3.529.189-4.7,1.383-15.949.668-28.353,2.529-37.672.022-.112.044-.224.068-.335,2.463-11.848,6.323-18.654,8.239-21.446a10.57,10.57,0,0,1,1.162-1.5c0,2.21,4.708,4.12,8.546,3.869,3.233-.212,5.332-2.67,5.332-4l0,0c.265,0,14.584,9.953,14.6,19.2.05,41.449,2.562,47.807,1.767,47.793" transform="translate(-466.787 -487.086)" fill="#ffa412"></path><path id="Trazado_4015" data-name="Trazado 4015" d="M574.472,771.622c-.007.046-.013.092-.02.136-8.7-1.291-13.094-3.721-13.06-4.625.03-.817.086-3.529.189-4.7,1.383-15.949.668-28.353,2.529-37.672,4.568,6.106,13.959,22.1,10.362,46.857" transform="translate(-466.787 -602.629)" fill="#e27f2b"></path><path id="Trazado_4016" data-name="Trazado 4016" d="M515.1,809.62l-1.17,3.892-1.162,3.862-50.483-15.186a.6.6,0,0,1-.208-.024.662.662,0,0,1-.2-.1c-.636-.45-.752-2.1-.263-3.959.026-.1.055-.206.086-.311.59-2,1.664-3.478,2.488-3.49a.642.642,0,0,1,.2.026.671.671,0,0,1,.186.09Z" transform="translate(-383.574 -660.452)" fill="#e9f3fe"></path><path id="Trazado_4017" data-name="Trazado 4017" d="M513.927,832.269l-1.162,3.862-50.483-15.185a.607.607,0,0,1-.208-.024.661.661,0,0,1-.2-.1c-.636-.451-.752-2.1-.263-3.96,2.063,1.549,11.919,8.4,28.741,11.732,17.389,3.444,22.77,3.66,23.57,3.671" transform="translate(-383.574 -679.21)" fill="#bed4f4"></path><path id="Trazado_4018" data-name="Trazado 4018" d="M765.878,884.909c-.844-.249-2.046,1.3-2.685,3.465s-.472,4.118.372,4.367,2.046-1.3,2.685-3.465.472-4.118-.372-4.368" transform="translate(-634.258 -735.764)" fill="#afcdfb"></path><path id="Trazado_4019" data-name="Trazado 4019" d="M440.989,781.415l-5.951-.965a.687.687,0,0,0-.2-.064.643.643,0,0,0-.2,0c-.817.121-1.687,1.727-2.01,3.787-.018.109-.033.214-.046.32a8.233,8.233,0,0,0,.022,2.431,2.058,2.058,0,0,0,.737,1.446l.02.013a.652.652,0,0,0,.206.07.618.618,0,0,0,.21,0l52.038,8.443.645-3.98.649-4.011Z" transform="translate(-359.624 -648.87)" fill="#e9f3fe"></path><path id="Trazado_4020" data-name="Trazado 4020" d="M462.619,792.358c-11.13-.715-17.03-6.6-21.63-10.943l-5.951-.966a.685.685,0,0,0-.2-.064.637.637,0,0,0-.2,0c-.817.121-1.687,1.727-2.01,3.787-.018.109-.033.213-.046.32a8.233,8.233,0,0,0,.022,2.431,3.865,3.865,0,0,0,.737,1.446l.02.013a.652.652,0,0,0,.206.07.62.62,0,0,0,.21,0l52.038,8.443.645-3.98c-.794.094-6.157.585-23.848-.554" transform="translate(-359.624 -648.869)" fill="#bed4f4"></path><path id="Trazado_4021" data-name="Trazado 4021" d="M745.6,830.7c-.87-.137-1.858,1.559-2.208,3.786s.071,4.145.941,4.281,1.858-1.558,2.208-3.786-.071-4.145-.941-4.281" transform="translate(-618.013 -690.706)" fill="#afcdfb"></path><path id="Trazado_4022" data-name="Trazado 4022" d="M514.742,643.066a53.423,53.423,0,0,1-23.323-9.424c-1.118-.835-1.688-1.366-1.688-1.366-6.185-13,5-35.8,7.049-39.664,2.207-4.167,15.682-6,15.682-6a73.354,73.354,0,0,0-2.992,14.582c-.84,8.252-9.808,24.337-9.44,25.687.092.34,1.175,1.054,2.755,1.955,4.684,2.667,13.736,6.966,14.286,7.976.736,1.348-2.328,6.253-2.328,6.253" transform="translate(-405.668 -487.758)" fill="#d9935c"></path><path id="Trazado_4023" data-name="Trazado 4023" d="M649.575,875.327s6.743-2.7,8.4-1.594,4.414,2.759,4.414,3.862-3.494,4.046-6.437,4.966-8.705-.981-8.705-.981Z" transform="translate(-538.172 -726.272)" fill="#d9935c"></path><path id="Trazado_4024" data-name="Trazado 4024" d="M509.469,601.194c-.84,8.252-9.808,24.337-9.44,25.687.092.34,1.175,1.054,2.755,1.955a2.75,2.75,0,0,1-.3.006c-7.055-.311-10.247,3.592-11.062,4.8-1.118-.835-1.688-1.366-1.688-1.366-6.185-13,5-35.8,7.049-39.664,2.207-4.167,15.682-6,15.682-6a73.348,73.348,0,0,0-2.992,14.582" transform="translate(-405.669 -487.757)" fill="#ffa412"></path><path id="Trazado_4025" data-name="Trazado 4025" d="M640.248,448.657s-12.971,2.62-14.479-5.483-4.2-13.222,4.021-15.238,10.407.776,11.568,3.359,2.225,16.471-1.11,17.362" transform="translate(-518.94 -355.248)" fill="#d9935c"></path><path id="Trazado_4026" data-name="Trazado 4026" d="M608.359,428.968s-2.508-5.352-4.6-7.728-.951-14.259,8.08-13.879,12.263,6.845,12.358,8.08-7.225.285-9.221,1.9-.1,4.278-2.377,5.228-4.088.951-3.707,3.042a4.587,4.587,0,0,1-.534,3.356" transform="translate(-501.271 -338.706)" fill="#233862"></path><path id="Trazado_4027" data-name="Trazado 4027" d="M602.526,372.352a14.285,14.285,0,0,0-5.97,2.935c-.143.123-.283.25-.417.379l0,0c-5.355,5.107-3.218,13.236-3.218,13.236a21.392,21.392,0,0,0,1.2,2.851c.49.8,7.6-.122,7.969-1.655a8.968,8.968,0,0,1,1.778-3.127s7.5-.515,8-.552a44.405,44.405,0,0,0,6.526-1.8c-.055-.475-2.775-15.553-15.87-12.265" transform="translate(-492.651 -309.214)" fill="#ffa412"></path><path id="Trazado_4028" data-name="Trazado 4028" d="M640.267,399.738a25.46,25.46,0,0,0-4.959-.557,20.253,20.253,0,0,1-6.339,3.1c-1.982-2.5-7.629-8.516-14.981-10.277l-.064-.016c-.156.2-.245.263-.353.4l0,0a1.576,1.576,0,0,0-.107.142c5.985,1.043,11.675,7.766,13.627,10.282a33.366,33.366,0,0,1-5.789.881s13.1.244,19.089-2.908a.56.56,0,0,0-.122-1.04" transform="translate(-510.081 -325.927)" fill="#e27f2b"></path><path id="Trazado_4029" data-name="Trazado 4029" d="M809.655,729.325a3.743,3.743,0,0,1-3.1,3.276c.083-.191.156-.373.221-.543a3.309,3.309,0,0,0,.305-1.261c-.079-.8-2.593-2.746-5.516-5.054a21.035,21.035,0,0,1,0-8.28c1.012-3.77,8.368,10.3,8.092,11.862" transform="translate(-666.13 -596.025)" fill="#e27f2b"></path><path id="Trazado_4030" data-name="Trazado 4030" d="M508.958,831.487s-9.012-.736-11.954,4.506a1.464,1.464,0,0,0,2,1.229s7.623-5.21,11.366-4.805a2.031,2.031,0,0,0-1.407-.929" transform="translate(-413.25 -691.336)" fill="#e27f2b"></path><path id="Trazado_4031" data-name="Trazado 4031" d="M833.289,804.786a32.692,32.692,0,0,1,10.561,2.759s1.307-1.283.786-2.019-8.807-3.38-11.346-.74" transform="translate(-692.864 -668.211)" fill="#e27f2b"></path><path id="Trazado_4032" data-name="Trazado 4032" d="M1129.36,428.222c4.052-20.767,7.765-40.648,7.765-40.648s-11.533,1.747-16.5,5.885-5.468,30.487-7.123,37.935a58.27,58.27,0,0,0-.87,6.7c-.941,10.713.23,26.755,1.117,31.252a24.381,24.381,0,0,1-2.381,6.628s-1.011,3.127,5.609,7.816c4.22,2.989,7.98-33,12.381-55.568" transform="translate(-924.037 -322.261)" fill="#d9935c"></path><path id="Trazado_4033" data-name="Trazado 4033" d="M1143.632,387.574s-2.141,11.458-4.943,26.062c-.888,4.635-1.845,9.583-2.821,14.586-3.969,7.779-7.375,13.069-8.427,12.074-2.146-2.027-5.914-2.277-8.3-2.2a58.242,58.242,0,0,1,.87-6.7c.131-.589.254-1.295.373-2.1,1.389-9.372,2.176-32.026,6.75-35.837,4.966-4.138,16.5-5.885,16.5-5.885" transform="translate(-930.545 -322.261)" fill="#739af0"></path><path id="Trazado_4034" data-name="Trazado 4034" d="M1138.689,477.764c-.888,4.634-1.845,9.583-2.821,14.586-3.969,7.779-7.375,13.069-8.427,12.074-2.146-2.027-5.915-2.277-8.3-2.2a58.273,58.273,0,0,1,.87-6.7c.131-.588.254-1.295.373-2.1l11.9-28.725Z" transform="translate(-930.545 -386.389)" fill="#4a75cb"></path><path id="Trazado_4035" data-name="Trazado 4035" d="M1280.673,322.475a87.886,87.886,0,0,0-.52-12.842l-16,2.615s0,4.883.07,10.3l-.016,0s-.436,5.027,5.755,5.763,10.881-1.962,10.714-5.841" transform="translate(-1051.116 -257.454)" fill="#d9935c"></path><path id="Trazado_4036" data-name="Trazado 4036" d="M1263.885,331.01s3.77,7.724,8.092,7.724,8.368-7.264,8.368-7.264Z" transform="translate(-1050.897 -275.229)" fill="#cb7d45"></path><path id="Trazado_4037" data-name="Trazado 4037" d="M1327.183,1601.609a28.205,28.205,0,0,1,1.931-7.234c1.349-2.7,9.931-.981,9.931-.981s1.716,1.471,2.084,8.337Z" transform="translate(-1103.528 -1324.431)" fill="#233862"></path><path id="Trazado_4038" data-name="Trazado 4038" d="M1018.917,1573.654c2.016-1.231.869-10.414.869-10.414s-9.4-7.518-10.689-1.762-8.927,8.34-13.273,9.045c-3,.487-3.929,2.148-4.217,3.131Z" transform="translate(-824.503 -1296.537)" fill="#233862"></path><path id="Trazado_4039" data-name="Trazado 4039" d="M1262.5,189.509s10.684-16.845-9.831-17.959c0,0-7.694.906-9.436-.836,0,0-5.968,9.071-.394,18.8s19.662,0,19.662,0" transform="translate(-1031.42 -141.945)" fill="#233862"></path><path id="Trazado_4040" data-name="Trazado 4040" d="M1256.661,234.743c1.555,1.224,6.115,2.439,7.433,2.581,0,0,6.761-1.508,7.99-2.249,1.9-1.154,1.781-3.489,1.879-6.736.117-3.843.5-6.862.075-9.077-.51-2.65-2.191-4.158-6.895-4.568-8.637-.75-12.235,1.413-12.385,4.309-.039.778-.075,1.519-.1,2.221-.346,9.03.368,12.232,2,13.52" transform="translate(-1043.154 -178.389)" fill="#d9935c"></path><path id="Trazado_4041" data-name="Trazado 4041" d="M1111.208,893.692a43.346,43.346,0,0,0-.69,5.076c-.874,17.039-14.343,56-16.752,56.907-3.728,1.407-9.6-1.583-12.67-2.562a2.634,2.634,0,0,1-1.848-2.992c6.67-30.665,9.122-74.822,10.014-100.965a118.611,118.611,0,0,1,2.711-22.264s32.852-8.765,33.047,2.323c.173,9.811-10.882,48.291-13.812,64.477" transform="translate(-897.329 -684.811)" fill="#2b478b"></path><path id="Trazado_4042" data-name="Trazado 4042" d="M1160.884,893.692l-21.946-44.536a118.611,118.611,0,0,1,2.711-22.264s32.852-8.765,33.047,2.323c.173,9.811-10.882,48.291-13.812,64.477" transform="translate(-947.006 -684.811)" fill="#233862"></path><path id="Trazado_4043" data-name="Trazado 4043" d="M1225.792,837.376l17.367,125.87s7.626,1.839,13.558.368c0,0,5.084-66.943,4.661-83.128s3.649-43.306-.929-46.3-34.657,3.187-34.657,3.187" transform="translate(-1019.223 -692.934)" fill="#2b478b"></path><path id="Trazado_4044" data-name="Trazado 4044" d="M1198.531,463.5a2.6,2.6,0,0,1-2.554,2.7l-27.368.418-20.1.307c-.942.016,2.034-7.515,2.095-56.619.015-10.957,16.979-22.748,17.291-22.748l0,0c0,1.578,2.486,4.491,6.317,4.741,4.546.3,10.124-1.964,10.124-4.583a12.185,12.185,0,0,1,1.378,1.778c2.27,3.307,6.842,11.369,9.76,25.406,2.3,11.084,1.418,25.9,3.077,45.025.121,1.381-.057,2.608-.022,3.575" transform="translate(-954.809 -322.243)" fill="#ffa412"></path><path id="Trazado_4045" data-name="Trazado 4045" d="M1197.521,466.347a55.716,55.716,0,0,1-10.442,3.04,102.928,102.928,0,0,1-20.232,2.032c-13.3.085-18.339-4.5-18.339-4.5-.942.016,2.034-7.515,2.095-56.619.015-10.957,16.979-22.748,17.291-22.748l0,0s-.436,14.592,3.978,18.882c0,0,6.191-4.782,14.222-18.391,2.27,3.307,6.461,12.815,9.379,26.851a75.993,75.993,0,0,1,1.243,9.319c.774,9.685.6,21.51,1.833,35.706.121,1.381-.057,2.608-.022,3.575.057,1.458.449,2.827-1.01,2.849" transform="translate(-954.809 -322.243)" fill="#739af0"></path><path id="Trazado_4046" data-name="Trazado 4046" d="M1362.93,601.877a55.712,55.712,0,0,1-10.442,3.04c-2.141-3.264-4.839-9.157-5.212-18.443-.632-15.7,14.284-35.924,14.284-35.924l.569,9.2c.774,9.685.6,21.51,1.833,35.706.121,1.381-.057,2.608-.022,3.575.057,1.458.449,2.827-1.01,2.849" transform="translate(-1120.218 -457.773)" fill="#4a75cb"></path><rect id="Rect&#xE1;ngulo_3095" data-name="Rect&#xE1;ngulo 3095" width="29.359" height="40.272" transform="translate(204.367 105.614) rotate(-30)" fill="#2b478b"></rect><path id="Trazado_4047" data-name="Trazado 4047" d="M1262.8,393.628c-3.114-2.354-10.428-4.024-14.027-4.734-1.269-.25-2.076-.381-2.076-.381.375,1.731,1.219,4.445,2.323,7.7,4.623,13.659,13.788,36.885,11.941,37.38a50.764,50.764,0,0,1-5.539,1.067c-8.038,1.177-18.854,1.7-19.986,1.75-.089-.083-3.941-3.674-5.442-3.674-1.518,0-5.892,1.594-6.338,2.82s-.625,3.433.625,3.923a56.14,56.14,0,0,0,7.767,1.839,3.561,3.561,0,0,0,.644-.006,135.627,135.627,0,0,0,24.277,4.871,78.491,78.491,0,0,0,14.108.406c6.448-13.878-4.064-49.783-8.276-52.966" transform="translate(-1017.171 -323.041)" fill="#d9935c"></path><path id="Trazado_4048" data-name="Trazado 4048" d="M1395.094,448.237a78.489,78.489,0,0,1-14.108-.406,16.856,16.856,0,0,0-1.547-11.524,50.7,50.7,0,0,0,5.54-1.067c1.846-.495-7.318-23.721-11.941-37.38-.37-4.416-.565-7.371-.565-7.371l.318.048c3.6.71,10.913,2.38,14.027,4.734,4.212,3.183,14.724,39.088,8.276,52.966" transform="translate(-1141.186 -324.684)" fill="#739af0"></path><path id="Trazado_4049" data-name="Trazado 4049" d="M1288.076,399.04s12.383-5.456,12.567-5.885a9.811,9.811,0,0,0-1.471-4.72s5.946.552,6.314-.184.644-6.788.644-6.788a10,10,0,0,0-5.54-2.807s-2.691,6.687-3.686,8.676c-2.636,5.272-8.828,11.709-8.828,11.709" transform="translate(-1071.011 -314.845)" fill="#4a75cb"></path><path id="Trazado_4050" data-name="Trazado 4050" d="M1238.68,388.38a41.287,41.287,0,0,0,2.943,10.789s-6.468-4.506-7.019-5.977,1.563-4.322,1.563-4.322-3.862-.092-3.954-1.379,1.2-6.345,1.2-6.345,3.322-2.425,4.241-2.333Z" transform="translate(-1024.558 -314.973)" fill="#4a75cb"></path><path id="Trazado_4051" data-name="Trazado 4051" d="M1259.283,140.561l-27.5.294s-.4-8.292,4.362-13.58c.218-.245.448-.481.692-.712a12.259,12.259,0,0,1,3.756-2.441c5.5-2.293,10.056-.177,12.905,1.991.281.212.545.426.79.638a16.564,16.564,0,0,1,2.414,2.491s2.67,3.642,2.581,11.32" transform="translate(-1024.197 -102.381)" fill="#ffa412"></path><path id="Trazado_4052" data-name="Trazado 4052" d="M1251.6,156.835c-.075-1.117-.561-10.626,2.78-13.851a5.135,5.135,0,0,0-.456-.38c-3.562,3.707-3.845,13.066-3.83,14.247l-8.791.094c-.261-6.735-3.978-13.442-4.424-14.19a6.064,6.064,0,0,0-.507.521,40.13,40.13,0,0,1,3.3,13.687l-7.851.084a60.024,60.024,0,0,0,12.841,1.825c5.517-.069,14.659-2.119,14.659-2.119Z" transform="translate(-1024.239 -118.573)" fill="#e27f2b"></path></g></g></g></svg>