<svg xmlns="http://www.w3.org/2000/svg" xmlns:xlink="http://www.w3.org/1999/xlink" id="Grupo_784" data-name="Grupo 784" width="489.572" height="302.525" viewBox="0 0 489.572 302.525"><defs><clipPath id="clip-path"><rect id="Rect&#xE1;ngulo_3112" data-name="Rect&#xE1;ngulo 3112" width="489.572" height="302.525" fill="none"></rect></clipPath><clipPath id="clip-path-3"><rect id="Rect&#xE1;ngulo_3102" data-name="Rect&#xE1;ngulo 3102" width="489.572" height="266.537" fill="none"></rect></clipPath><clipPath id="clip-path-4"><rect id="Rect&#xE1;ngulo_3103" data-name="Rect&#xE1;ngulo 3103" width="14.316" height="28.249" fill="#ebf3fa"></rect></clipPath><clipPath id="clip-path-6"><rect id="Rect&#xE1;ngulo_3108" data-name="Rect&#xE1;ngulo 3108" width="89.115" height="101.792" fill="none"></rect></clipPath><clipPath id="clip-path-7"><rect id="Rect&#xE1;ngulo_3110" data-name="Rect&#xE1;ngulo 3110" width="22.715" height="33.287" fill="none"></rect></clipPath><clipPath id="clip-path-8"><rect id="Rect&#xE1;ngulo_3113" data-name="Rect&#xE1;ngulo 3113" width="53.875" height="74.506" fill="#ef8220"></rect></clipPath></defs><g id="Grupo_783" data-name="Grupo 783" clip-path="url(#clip-path)"><g id="Grupo_771" data-name="Grupo 771" transform="translate(0 -0.001)"><g id="Grupo_770" data-name="Grupo 770" clip-path="url(#clip-path)"><g id="Grupo_766" data-name="Grupo 766" transform="translate(0 32.912)" opacity="0.2"><g id="Grupo_765" data-name="Grupo 765"><g id="Grupo_764" data-name="Grupo 764" clip-path="url(#clip-path-3)"><path id="Trazado_4129" data-name="Trazado 4129" d="M489.572,440.725c-3.687-62.713-64.724-65.945-85.184-68.626s-16.827-89.345-76.146-87.56h0a60.7,60.7,0,0,0-35.05,10.7c-6.839,4.857-16.074-.209-16.074-8.868V246.093c0-39.548-29.772-71.906-66.161-71.906h0c-36.388,0-66.161,32.358-66.161,71.906,0,23.674-19.814,42.107-42.212,39.045a65.468,65.468,0,0,0-8.866-.6h0c-29.185,0-53.063,19.2-53.063,42.666v7.6a3.807,3.807,0,0,1-3.716,3.894H36.9c-20.3,0-36.9,12.742-36.9,28.314v73.674l381.3.034Z" transform="translate(0 -174.188)" fill="#ebf3fa"></path></g></g></g><g id="Grupo_769" data-name="Grupo 769" transform="translate(104.514 107.362)" opacity="0.2"><g id="Grupo_768" data-name="Grupo 768"><g id="Grupo_767" data-name="Grupo 767" clip-path="url(#clip-path-4)"><path id="Trazado_4130" data-name="Trazado 4130" d="M563.445,596.478s-17.268-7.347-7.055-28.25c0,0,19.21,12.489,7.055,28.25" transform="translate(-553.159 -568.228)" fill="#ebf3fa"></path></g></g></g></g></g><path id="Trazado_4171" data-name="Trazado 4171" d="M0,0H205.3V299.527H0Z" transform="translate(132.891 -0.001)" fill="#7a8ee1"></path><rect id="Rect&#xE1;ngulo_3106" data-name="Rect&#xE1;ngulo 3106" width="179.174" height="268.026" transform="translate(145.954 13.999)" fill="#c8d3f8"></rect><rect id="Rect&#xE1;ngulo_3107" data-name="Rect&#xE1;ngulo 3107" width="98.531" height="17.74" transform="translate(186.276 -0.001)" fill="#405c9c"></rect><path id="Trazado_4131" data-name="Trazado 4131" d="M874.184,602.4H844.852V573.07h29.332Zm-26.866-2.466h24.4v-24.4h-24.4Z" transform="translate(-685.225 -464.794)" fill="#405c9c"></path><g id="Grupo_782" data-name="Grupo 782" transform="translate(0 -0.001)"><g id="Grupo_781" data-name="Grupo 781" clip-path="url(#clip-path)"><path id="Trazado_4132" data-name="Trazado 4132" d="M1206.564,611.729H1106.6a1.8,1.8,0,0,1-1.8-1.8h0a1.8,1.8,0,0,1,1.8-1.8h99.967a1.8,1.8,0,0,1,1.8,1.8h0a1.8,1.8,0,0,1-1.8,1.8" transform="translate(-896.058 -493.235)" fill="#405c9c"></path><path id="Trazado_4133" data-name="Trazado 4133" d="M1206.564,644.779H1106.6a1.8,1.8,0,1,1,0-3.592h99.967a1.8,1.8,0,1,1,0,3.592" transform="translate(-896.058 -520.04)" fill="#405c9c"></path><path id="Trazado_4134" data-name="Trazado 4134" d="M1172.821,677.829H1106.6a1.8,1.8,0,1,1,0-3.592h66.225a1.8,1.8,0,0,1,0,3.592" transform="translate(-896.058 -546.846)" fill="#405c9c"></path><path id="Trazado_4135" data-name="Trazado 4135" d="M879.852,550.448a168.362,168.362,0,0,1,6.725,17.1s8.077-23.3,15.994-29.282c0,0-13.528,10.5-16.443,17.56Z" transform="translate(-713.612 -436.567)" fill="#ef8220"></path><path id="Trazado_4136" data-name="Trazado 4136" d="M874.184,274.006H844.852V244.674h29.332Zm-26.866-2.466h24.4v-24.4h-24.4Z" transform="translate(-685.225 -198.445)" fill="#405c9c"></path><path id="Trazado_4137" data-name="Trazado 4137" d="M1206.564,283.333H1106.6a1.8,1.8,0,0,1-1.8-1.8h0a1.8,1.8,0,0,1,1.8-1.8h99.967a1.8,1.8,0,0,1,1.8,1.8h0a1.8,1.8,0,0,1-1.8,1.8" transform="translate(-896.058 -226.886)" fill="#405c9c"></path><path id="Trazado_4138" data-name="Trazado 4138" d="M1206.564,316.383H1106.6a1.8,1.8,0,1,1,0-3.592h99.967a1.8,1.8,0,1,1,0,3.592" transform="translate(-896.058 -253.691)" fill="#405c9c"></path><path id="Trazado_4139" data-name="Trazado 4139" d="M1172.821,349.433H1106.6a1.8,1.8,0,1,1,0-3.592h66.225a1.8,1.8,0,0,1,0,3.592" transform="translate(-896.058 -280.497)" fill="#405c9c"></path><path id="Trazado_4140" data-name="Trazado 4140" d="M879.852,222.052a168.4,168.4,0,0,1,6.725,17.1s8.077-23.3,15.994-29.282c0,0-13.528,10.5-16.443,17.56Z" transform="translate(-713.612 -170.218)" fill="#ef8220"></path><path id="Trazado_4141" data-name="Trazado 4141" d="M1206.564,916.4H1106.6a1.8,1.8,0,1,1,0-3.592h99.967a1.8,1.8,0,0,1,0,3.592" transform="translate(-896.058 -740.342)" fill="#405c9c"></path><path id="Trazado_4142" data-name="Trazado 4142" d="M1206.564,949.453H1106.6a1.8,1.8,0,1,1,0-3.592h99.967a1.8,1.8,0,0,1,0,3.592" transform="translate(-896.058 -767.149)" fill="#405c9c"></path><path id="Trazado_4143" data-name="Trazado 4143" d="M1172.821,982.5H1106.6a1.8,1.8,0,1,1,0-3.592h66.225a1.8,1.8,0,0,1,0,3.592" transform="translate(-896.058 -793.954)" fill="#405c9c"></path><path id="Trazado_4144" data-name="Trazado 4144" d="M874.184,929.092H844.852V899.76h29.332Zm-26.866-2.466h24.4v-24.4h-24.4Z" transform="translate(-685.225 -729.758)" fill="#405c9c"></path><path id="Trazado_4145" data-name="Trazado 4145" d="M879.852,880.551a168.374,168.374,0,0,1,6.725,17.1s8.077-23.3,15.994-29.282c0,0-13.528,10.5-16.443,17.56Z" transform="translate(-713.612 -704.3)" fill="#ef8220"></path><path id="Trazado_4146" data-name="Trazado 4146" d="M874.184,1257.488H844.852v-29.332h29.332Zm-26.866-2.466h24.4v-24.4h-24.4Z" transform="translate(-685.225 -996.107)" fill="#405c9c"></path><path id="Trazado_4147" data-name="Trazado 4147" d="M1206.564,1244.8H1106.6a1.8,1.8,0,0,1-1.8-1.8h0a1.8,1.8,0,0,1,1.8-1.8h99.967a1.8,1.8,0,0,1,1.8,1.8h0a1.8,1.8,0,0,1-1.8,1.8" transform="translate(-896.058 -1006.692)" fill="#405c9c"></path><path id="Trazado_4148" data-name="Trazado 4148" d="M1206.564,1277.848H1106.6a1.8,1.8,0,1,1,0-3.592h99.967a1.8,1.8,0,0,1,0,3.592" transform="translate(-896.058 -1033.496)" fill="#405c9c"></path><path id="Trazado_4149" data-name="Trazado 4149" d="M1172.821,1310.9H1106.6a1.8,1.8,0,1,1,0-3.592h66.225a1.8,1.8,0,1,1,0,3.592" transform="translate(-896.058 -1060.303)" fill="#405c9c"></path><path id="Trazado_4150" data-name="Trazado 4150" d="M879.852,1208.946a168.387,168.387,0,0,1,6.725,17.1s8.077-23.3,15.994-29.282c0,0-13.528,10.5-16.443,17.56Z" transform="translate(-713.612 -970.647)" fill="#ef8220"></path><path id="Trazado_4151" data-name="Trazado 4151" d="M382.4,1552.333l1.645,5.975h16.322s-4.175-8.059-17.967-5.975" transform="translate(-310.146 -1258.754)" fill="#1e3d70"></path><path id="Trazado_4152" data-name="Trazado 4152" d="M200.222,1552.333l1.645,5.975H218.19s-4.176-8.059-17.968-5.975" transform="translate(-162.392 -1258.754)" fill="#1e3d70"></path><path id="Trazado_4153" data-name="Trazado 4153" d="M198.882,987.033s-10.943,77.758-7.5,108.448h14.36l15.03-101.312Z" transform="translate(-154.677 -800.542)" fill="#2d457a"></path><path id="Trazado_4154" data-name="Trazado 4154" d="M258.94,993.581l13.512,101.9H257.218s-34.254-94.4-27.281-108.448Z" transform="translate(-185.733 -800.542)" fill="#35488b"></path><g id="Grupo_774" data-name="Grupo 774" transform="translate(139.562 80.873)" opacity="0.2"><g id="Grupo_773" data-name="Grupo 773"><g id="Grupo_772" data-name="Grupo 772" clip-path="url(#clip-path-6)"><path id="Trazado_4155" data-name="Trazado 4155" d="M779.468,430.118a55.874,55.874,0,0,0-16.782,99.706L827.767,439a55.774,55.774,0,0,0-48.3-8.88" transform="translate(-738.653 -428.032)" fill="#cdd2ea"></path></g></g></g><path id="Trazado_4156" data-name="Trazado 4156" d="M359.751,454.49a59.546,59.546,0,0,0-115.7,27.861L131.509,513.879a1.878,1.878,0,0,0-1.3,2.308l1,3.574a1.878,1.878,0,0,0,2.309,1.3L245.98,489.554A59.546,59.546,0,0,0,359.751,454.49M317.09,522.347a53.833,53.833,0,1,1,37.315-66.359,53.833,53.833,0,0,1-37.315,66.359" transform="translate(-105.553 -333.339)" fill="#405c9c"></path><path id="Trazado_4157" data-name="Trazado 4157" d="M316.336,1035.432a11.626,11.626,0,0,0,10.283-5.61,12.137,12.137,0,0,1-10.544,5.213l-.007.394.268,0" transform="translate(-256.35 -835.246)" fill="#272253"></path><path id="Trazado_4158" data-name="Trazado 4158" d="M338.8,1161.839a304.245,304.245,0,0,1-8.977-29.785c-.41-1.654-.82-3.358-1.219-5.063-.44-1.881-.872-3.787-1.284-5.665a7.5,7.5,0,0,1-.009-2.156,7.232,7.232,0,0,0,.005-1.962c-1.51-7.147-2.538-13.727-3.446-19.532q-.357-2.284-.706-4.474c-2.123-13.193-3.378-20.665-3.395-20.738.017.073,1.746,7.461,3.872,20.673q.353,2.192.706,4.475c.907,5.8,1.934,12.373,3.442,19.508a7.532,7.532,0,0,1,0,2.094,7.213,7.213,0,0,0,0,2.021c.412,1.876.844,3.78,1.283,5.659.4,1.7.808,3.4,1.217,5.057,2.677,10.807,5.521,21.247,8.646,29.88Z" transform="translate(-259.352 -869.833)" fill="#2f2c60"></path><path id="Trazado_4159" data-name="Trazado 4159" d="M377.439,576.178a24.756,24.756,0,0,1-1.808,8.629s-6.453-1.724-8.385-2.555a19.13,19.13,0,0,1-3.064-2.372,28.564,28.564,0,0,0,3.629-10.119c.832-5.726,9.628,6.417,9.628,6.417" transform="translate(-295.373 -460.865)" fill="#ffb27d"></path><path id="Trazado_4160" data-name="Trazado 4160" d="M390.986,519.357s-13.419.613-13.673-7.75-2.156-13.916,6.4-14.661,10.319,2.4,11.083,5.166-.327,16.869-3.812,17.244" transform="translate(-305.736 -402.962)" fill="#ffb27d"></path><path id="Trazado_4161" data-name="Trazado 4161" d="M218.967,626.949s-17.636,18.412-24.712,32.81c0,0,3.538,11.279,19.485,28.3,0,0,.227-1.438.893-5.482.131-.8-5.935-14.7-11.346-22.437,0,0,12.557-7.934,15.871-14.435s-.191-18.758-.191-18.758" transform="translate(-157.552 -508.492)" fill="#ffb27d"></path><path id="Trazado_4162" data-name="Trazado 4162" d="M367.738,504.787s6.358-11.345,16.952-12.043c0,0,4.666-1.869,4.666-4.391,0,0-15.072-4.446-20.556,0-8.226,6.668-1.062,16.434-1.062,16.434" transform="translate(-295.912 -394.48)" fill="#1e3d70"></path><path id="Trazado_4163" data-name="Trazado 4163" d="M456.143,692.772c-2.025.4-1.219.524-4.081,1.029s-5.364,2.22-5.976,4.213l-21.117.593c1.657-7.524,1.53-35.825.382-38.119s-12.134-4.506-12.134-4.506l-2.693,13.272s3.354,33.462,6.541,36.617,32.287-4.958,32.287-4.958a7.98,7.98,0,0,0,8.172-5.843s.643-2.7-1.382-2.3" transform="translate(-332.96 -532.04)" fill="#ffb27d"></path><path id="Trazado_4164" data-name="Trazado 4164" d="M208.692,626.949S188.932,653.1,187.4,659.7c0,0,.661,1.8,4.944,7.636l7.421-4.049s-1.231-2.506-1.489-2.917c0,0-.143-.143.693-.6s5-3.275,5-3.275Z" transform="translate(-151.994 -508.492)" fill="#ef8220"></path><path id="Trazado_4166" data-name="Trazado 4166" d="M230.385,694.261c2.509,5.067,30.022,7.354,31.743,6.4s.518-7.358.765-10.039c.545-5.915,3.478-12.726,4.173-14.93.082-.268.13-.415.13-.415.048,2.773,3.49,7.526,3.49,7.526,6.549.644,18.468-2.411,18.468-2.411-.038-.262-.067-.522-.088-.778a14.66,14.66,0,0,1,.694-5.72c-1.014-.074-7.938-.023-9.812-.008a.445.445,0,0,1-.448-.464l1.069-10.38c2.33-20.815-1.741-28.289-1.741-28.289-3.186-2.549-11.919-4.524-11.919-4.524a27.633,27.633,0,0,1-11.919-3.442s-10.326-1.147-12.112-.558-5.13,21.465-5.909,29.67-5.508,28.451-6.584,31.441c-1.665,4.627-.382,6.152,0,6.924" transform="translate(-186.181 -507.769)" fill="#f99746"></path><g id="Grupo_780" data-name="Grupo 780" transform="translate(80.257 141.834)" opacity="0.2"><g id="Grupo_779" data-name="Grupo 779"><g id="Grupo_778" data-name="Grupo 778" clip-path="url(#clip-path-7)"><path id="Trazado_4167" data-name="Trazado 4167" d="M425.532,776.347c.048,2.773,3.49,7.526,3.49,7.526,6.549.644,18.468-2.411,18.468-2.411-.038-.262-.067-.522-.088-.778-2.189.237-15.223,1.6-16.755.682,0,0-5.234-4.771-5.872-30.691Z" transform="translate(-424.775 -750.675)" fill="#a1431f"></path></g></g></g><path id="Trazado_4168" data-name="Trazado 4168" d="M522,1585.46H52.142a1.506,1.506,0,0,0,0,2.967H522a1.506,1.506,0,0,0,0-2.967" transform="translate(-41.28 -1285.901)" fill="#405c9c"></path><path id="Trazado_4169" data-name="Trazado 4169" d="M1473.11,209.665s82.05-14.683,141.48.166c0,0,16.035,133.067-70.63,169.834,0,0-85.133-31.463-70.85-170" transform="translate(-1193.469 -164.797)" fill="#ef8220"></path><path id="Trazado_4170" data-name="Trazado 4170" d="M1528.5,263.983s75.248-9.656,121.2,0c0,0,15.343,108.073-58.943,148.026,0,0-68.046-19.284-62.253-148.026" transform="translate(-1239.574 -210.691)" fill="#fff"></path><g id="Grupo_787" data-name="Grupo 787" transform="translate(323.572 78.001)"><g id="Grupo_786" data-name="Grupo 786" clip-path="url(#clip-path-8)"><path id="Trazado_4172" data-name="Trazado 4172" d="M25.483,0h2.911a1.74,1.74,0,0,0,.344.1,20.575,20.575,0,0,1,6.2,1.45A21.641,21.641,0,0,1,47.159,13.721a23.834,23.834,0,0,1,1.586,9.466c-.023,3.517.007,7.034-.017,10.55a.963.963,0,0,0,.79,1.1c.766.222,1.509.524,2.257.8a2.97,2.97,0,0,1,2.093,2.926q.017,14.152,0,28.3a2.946,2.946,0,0,1-2.012,2.916A67.767,67.767,0,0,1,33.4,74.2a68.129,68.129,0,0,1-13.943-.115,68.348,68.348,0,0,1-17.44-4.3A2.942,2.942,0,0,1,.008,66.869q-.016-14.152,0-28.3A2.968,2.968,0,0,1,2.1,35.64c.726-.272,1.447-.564,2.19-.775a1.043,1.043,0,0,0,.858-1.2c-.03-3.735-.01-7.47-.016-11.205A22.135,22.135,0,0,1,7.6,11.808,21.37,21.37,0,0,1,21.006.871C22.462.454,23.989.283,25.483,0m15.7,32.53c.02-.244.039-.361.039-.479,0-3.563.057-7.127-.027-10.688a14.263,14.263,0,0,0-28.514-.01c-.086,3.561-.025,7.125-.026,10.688a3.482,3.482,0,0,0,.074.478,68.218,68.218,0,0,1,28.454.011M26.967,64.919a2.923,2.923,0,0,0,2.918-3.127q.032-4.471,0-8.942a1.184,1.184,0,0,1,.55-1.069,5.548,5.548,0,0,0,2.362-5.366,5.916,5.916,0,0,0-11.329-1.561,5.7,5.7,0,0,0,1.905,6.873,1.348,1.348,0,0,1,.618,1.256q-.035,4.4,0,8.8a2.927,2.927,0,0,0,2.983,3.139" transform="translate(0 0.001)" fill="#ef8220"></path></g></g></g></g></g></svg>