<svg xmlns="http://www.w3.org/2000/svg" xmlns:xlink="http://www.w3.org/1999/xlink" id="Grupo_763" data-name="Grupo 763" width="602.315" height="418.001" viewBox="0 0 602.315 418.001"><defs><clipPath id="clip-path"><rect id="Rect&#xE1;ngulo_3101" data-name="Rect&#xE1;ngulo 3101" width="602.315" height="418.001" fill="none"></rect></clipPath><clipPath id="clip-path-2"><rect id="Rect&#xE1;ngulo_3100" data-name="Rect&#xE1;ngulo 3100" width="602.315" height="418" fill="none"></rect></clipPath><clipPath id="clip-path-3"><rect id="Rect&#xE1;ngulo_3098" data-name="Rect&#xE1;ngulo 3098" width="164.557" height="164.558" fill="none"></rect></clipPath><clipPath id="clip-path-4"><rect id="Rect&#xE1;ngulo_3099" data-name="Rect&#xE1;ngulo 3099" width="70.6" height="70.6" fill="none"></rect></clipPath></defs><g id="Grupo_762" data-name="Grupo 762" clip-path="url(#clip-path)"><g id="Grupo_761" data-name="Grupo 761" transform="translate(0 0.001)"><g id="Grupo_760" data-name="Grupo 760" clip-path="url(#clip-path-2)"><path id="Trazado_4053" data-name="Trazado 4053" d="M576.327,417.045c-37.993,0-551.652-1.109-551.652-1.17-.212-.5-65.207-80.158,16.635-163.445,40.552-41.268-37.24-94.732,0-140.636C105.1,33.162,168.216,77.446,220.8,55.332c9.29-3.9,18.613-10.187,27.945-19.829a103.911,103.911,0,0,1,17.174-14.258q1.417-.945,2.864-1.843a114.416,114.416,0,0,1,11.458-6.219q3.971-1.873,8.092-3.464h0a132.482,132.482,0,0,1,13.411-4.367,151.761,151.761,0,0,1,20-3.924q4.462-.58,9-.917c58.752-4.416,124.87,20.427,158.991,56.738,6.87,7.312,38.107,45.145,13.483,97.146-15.547,32.832,49.583,64.189,72.727,101.681,58.842,95.321.917,159.727.383,160.97" transform="translate(0 -0.003)" fill="#ebf3fa"></path><g id="Grupo_756" data-name="Grupo 756" transform="translate(300.626 83.096)" opacity="0.8"><g id="Grupo_755" data-name="Grupo 755"><g id="Grupo_754" data-name="Grupo 754" clip-path="url(#clip-path-3)"><path id="Trazado_4054" data-name="Trazado 4054" d="M1332.145,434.5a82.8,82.8,0,0,1-6.311,13.471,82.28,82.28,0,0,1-153.078-35.978,80.863,80.863,0,0,1,.1-12.548,82.838,82.838,0,0,1,12.405-36.961c.034-.058.07-.11.1-.167a82.477,82.477,0,0,1,46.892-35.02c2.008-.575,4.045-1.075,6.1-1.495a81.814,81.814,0,0,1,44.584,3.288q2.95,1.073,5.762,2.344a81.694,81.694,0,0,1,33.341,27.527h0a82.575,82.575,0,0,1,13.156,29.851q.756,3.451,1.22,6.971a81.877,81.877,0,0,1-4.282,38.718" transform="translate(-1172.561 -324.113)" fill="#d7e5ff"></path><path id="Trazado_4055" data-name="Trazado 4055" d="M1278,367.121c-4.861,3.764-3.572,13.838-11.986,8.16s-13.7-8.764-16.078-3.81,5.071,7.667,3.109,13.066-5.955,5.969-10.163,1.536-4.333-8.7-11.151-8.559-9.728-2.663-9.4-7.781a7.2,7.2,0,0,0-.224-2.373c.034-.058.071-.11.1-.167a82.476,82.476,0,0,1,46.892-35.02c2.008-.575,4.045-1.075,6.1-1.495a10.819,10.819,0,0,1,6.278,6.858c2.968,8.649,7.781,6.614,3.693,13.859s-2.406,9.022,2.056,10.352,9.607,3.2,8.9,6.73-13.276-5.118-18.137-1.354" transform="translate(-1209.408 -328.993)" fill="#aec3ff"></path><path id="Trazado_4056" data-name="Trazado 4056" d="M1626.832,623.16a82.82,82.82,0,0,1-6.312,13.471,81.8,81.8,0,0,1-22.982,25.223,9.39,9.39,0,0,1-6.121-2.413c-8.239-7.361,2.68-15.179,8.429-18.983s-4.926-5.065-10.308-12.479,7.219-17.458-.878-18-17.948-1.067-19.6-9.743,6.87-6.889,5.379-14.2,5.555-8.677,13.092-6.592,8.465-3.471,17.808-.948,4.944,14.021,15.251,16.895,9.014,5.023,9.014,5.023a4.972,4.972,0,0,1,1.934,1.2,82.4,82.4,0,0,1-4.71,21.544" transform="translate(-1467.249 -512.777)" fill="#aec3ff"></path><path id="Trazado_4057" data-name="Trazado 4057" d="M1689.435,490.907c-9.812,1.026-9.148-11.223-17.48-10.5-8.4.732-4.805-5.239-8.963-11.409s-18.182-2.825-15.333-9.066,10.679-1.357,14.348-5.843,11.428-.211,11.428-.211a5.923,5.923,0,0,1,1.62.2s0,0,0,0a82.559,82.559,0,0,1,13.156,29.851q.756,3.451,1.22,6.971" transform="translate(-1525.569 -419.242)" fill="#aec3ff"></path><path id="Trazado_4058" data-name="Trazado 4058" d="M1514.057,375.843s6.663-4.717.4-9.1-7.022-1.9-12.211-4.439-8.829.869-6.439,6.9,2.485,15.983,7.845,12.647,5.938-7.128,10.408-6.012" transform="translate(-1412.372 -351.881)" fill="#aec3ff"></path></g></g></g><path id="Trazado_4059" data-name="Trazado 4059" d="M158.652,1539.047H184.7c1.4-1.184-.966-3.873-3.434-4.054a15.205,15.205,0,0,0-3.975.47c-.358-4.761-2.405-26.163-10.12-25.3-8.674.963,0,9.425,2.452,14.435a119.041,119.041,0,0,1,4.608,11.544c-.7.152-1.433.3-2.178.439-1.15-3.53-5.428-15.4-10.868-14.713-6.388.81-3.82,5.571.707,8.4,3.321,2.078,7.4,5.032,9.338,6.459a27.692,27.692,0,0,1-5.095.408c-4.462-.106-6.639,1.209-7.484,1.916" transform="translate(-117.013 -1122.962)" fill="#a8d29f"></path><path id="Trazado_4060" data-name="Trazado 4060" d="M1708.015,1545.014h-24.195c-1.3-1.1.9-3.6,3.189-3.765a14.147,14.147,0,0,1,3.693.437c.333-4.422,2.234-24.3,9.4-23.5,8.057.894,0,8.755-2.278,13.408a110.574,110.574,0,0,0-4.281,10.723c.654.142,1.332.281,2.023.408,1.068-3.279,5.042-14.308,10.094-13.666,5.933.752,3.548,5.175-.657,7.8-3.085,1.93-6.873,4.674-8.674,6a25.7,25.7,0,0,0,4.732.379c4.144-.1,6.167,1.123,6.952,1.78" transform="translate(-1251.829 -1128.928)" fill="#a8d29f"></path><path id="Trazado_4061" data-name="Trazado 4061" d="M1829.464,988.265s.577-5.727-2.419-5.531-3.788,1.57-3.453,2.67,3.247,4.742,3.247,4.742Z" transform="translate(-1355.999 -730.774)" fill="#ffb27d"></path><path id="Trazado_4062" data-name="Trazado 4062" d="M1882.813,1013.169a48.889,48.889,0,0,1-10.446,8.392c-.676.427-1.382.857-2.127,1.289a79,79,0,0,1-9.768,4.806c-.413.17-.9.357-1.443.553-4.272,1.543-12.134,3.731-17.007,3.927-.424.017-.826.017-1.2,0-7.415-.3-8.32-29.08-8.32-29.08s.826-2.88,4.636-2.154c0,0,5.785,16.254,7.859,17.579,1.842,1.178,12.427-14.869,21.539-15.991,6.134-.756,16.276,10.678,16.276,10.678" transform="translate(-1362.678 -744.201)" fill="#739af0"></path><path id="Trazado_4063" data-name="Trazado 4063" d="M1899.022,1589.392s.548,6.336-.792,6.995l-17.139-.035s0-1.978,2.753-2.417,7.589-2.051,8.408-5.641,6.771,1.1,6.771,1.1" transform="translate(-1398.809 -1180.075)" fill="#1c3154"></path><path id="Trazado_4064" data-name="Trazado 4064" d="M1901.8,1239.86c.084,4.143.283,8.416.673,12.257,1.851,18.223,2.5,40.242,2.768,44.487.461,7.369,1.917,19.142,1.917,19.142s2.887,2.741,8.516,1.433a191.625,191.625,0,0,0,5.705-34.81q.024-.439.047-.882c.121-2.36.247-5.059.376-7.97.857-19.494,1.789-48.452,1.789-48.452l-21.507-5.05s-.494,9.518-.283,19.846" transform="translate(-1414.169 -907.223)" fill="#2a4e96"></path><path id="Trazado_4065" data-name="Trazado 4065" d="M1901.8,1239.86c5.451,9.4,15.84,26.73,20,33.656.857-19.494,1.789-48.452,1.789-48.452l-21.507-5.05s-.494,9.518-.283,19.846" transform="translate(-1414.169 -907.223)" fill="#233862"></path><path id="Trazado_4066" data-name="Trazado 4066" d="M1886.64,1086.92c-4.273,1.543-12.135,3.731-17.007,3.927.745-.139,6.17-1.214,8.177-3.636,2.155-2.6,5.783-9.676,8.668-6.79,1.359,1.359.96,4.044.162,6.5" transform="translate(-1390.289 -802.913)" fill="#6385db"></path><path id="Trazado_4067" data-name="Trazado 4067" d="M2062.979,1284.542s1.335,5.235,1.116,6.4-1.522,5.1-2.335,6.081-.846-4.249-1.386-5.07-.248,1.952-.681,2.178-1.155-2.1-1.477-2.925,1.155-3.7,1.291-5.755,3.471-.908,3.471-.908" transform="translate(-1530.489 -954.968)" fill="#ffb27d"></path><path id="Trazado_4068" data-name="Trazado 4068" d="M2085.506,1564.595s3.051,2.784,2.455,4.762-3.348,3.3-3.72,5.714-1.86,3.737-3.2,3.737h-6.385s-.986-1.7,1.395-2.214,3.279-3.354,3.13-5.991a46.465,46.465,0,0,1,.223-6.154l5.06-1.173Z" transform="translate(-1542.597 -1162.478)" fill="#1c3154"></path><path id="Trazado_4069" data-name="Trazado 4069" d="M1916.276,1222.447s20.133,43.078,30.847,61.979,14.062,24.176,14.062,24.176,6.139-2.417,6.7-4.066c0,0-4.1-36.49-11.272-45.385-4.054-5.026-8.817-20.11-9.04-25.385s-4.927-17.865-4.927-17.865Z" transform="translate(-1424.974 -904.164)" fill="#2a4e96"></path><path id="Trazado_4070" data-name="Trazado 4070" d="M1901.555,1061.75a34.889,34.889,0,0,0,17.7,9.186c4.889.936,14.813,1.84,17.274-1.641.578-.817.583-2.027.455-3.917-.332-4.91-1.567-14.4,4.01-33.48a32.557,32.557,0,0,0,1.072-5.1c1.217-9.76,1.085-17.127-7.382-21.063-12.687-5.9-17.895-1.045-17.895-1.045s-6.748,3.153-9.831,12.343c-6.166,18.381-5.4,44.716-5.4,44.716" transform="translate(-1414.004 -745.709)" fill="#739af0"></path><path id="Trazado_4071" data-name="Trazado 4071" d="M1973.007,971.11a9.417,9.417,0,0,1-9.477.621c-.276-.138-.241-2.034-.172-3.894.069-1.827.241-3.619.241-3.619l4.514-2.963,4.308-2.827c-.517,9.719,1.551,11.993.586,12.682" transform="translate(-1459.948 -712.703)" fill="#ffb27d"></path><path id="Trazado_4072" data-name="Trazado 4072" d="M1971.8,970.638a13.873,13.873,0,0,1-8.306,5.4c.069-1.827.264-3.839.264-3.839l4.492-2.743Z" transform="translate(-1460.089 -720.901)" fill="#ed985f"></path><path id="Trazado_4073" data-name="Trazado 4073" d="M1945.262,925.232s10.922,4.076,13.352-2.654,5.476-10.735-1.394-13.622-9.16-.8-10.527,1.244-4.209,13.8-1.431,15.031" transform="translate(-1445.654 -674.859)" fill="#ffb27d"></path><path id="Trazado_4074" data-name="Trazado 4074" d="M1961.469,896.85c.125-.1.38-.145.912-.07a2.176,2.176,0,0,0-.928-.471,2.7,2.7,0,0,0-1.3-2.688,1.609,1.609,0,0,1,.54,1.289c-1.162-1.785-4.071-3.492-12.855-4.518-11.578-1.352-9.263,6.689-7.958,7.851s5.49-.49,8.2.272,2.445,4.838,3.27,5.567.648-.307,2.024-.628,1.082,1.794.449,3.081.746,3.424.746,3.424l2.125-1.541c2.125-1.541,5.356-9.209,4.9-11.07-.04-.164-.08-.331-.121-.5" transform="translate(-1441.705 -661.997)" fill="#2c3a64"></path><path id="Trazado_4075" data-name="Trazado 4075" d="M2020.186,1133.923c-.332-4.91-1.567-14.4,4.01-33.48a32.569,32.569,0,0,0,1.072-5.1h0c-4.143-1.366-11.692,1.673-11.692,1.673s-1.774,25.217,6.611,36.907" transform="translate(-1497.21 -814.253)" fill="#6385db"></path><path id="Trazado_4076" data-name="Trazado 4076" d="M1987,1019.189s5.1,1.854,8.349,15.351c2.149,8.918,6.1,22.026,6.55,26.145s-4.522,28.236-4.522,28.236a3.233,3.233,0,0,1-2.417.168,3.993,3.993,0,0,1-2.408-1.44s-1.188-16.074-.881-23.663c.127-3.153-14.6-23.093-22.544-25.661-3.121-1.009,17.872-19.136,17.872-19.136" transform="translate(-1464.039 -757.886)" fill="#739af0"></path><path id="Trazado_4077" data-name="Trazado 4077" d="M1761.626,880.7a169.56,169.56,0,0,1,31.739,2.711l1.777-4.476,1.948-4.9s-17.07-7.349-27.332-17.583Z" transform="translate(-1309.973 -636.867)" fill="#aec3ff"></path><path id="Trazado_4078" data-name="Trazado 4078" d="M1765.039,855.062l-8.46,24.973a2.251,2.251,0,0,1-1.482-2.911l7.445-20.982a1.857,1.857,0,0,1,2.5-1.08" transform="translate(-1305.022 -635.722)" fill="#f99746"></path><path id="Trazado_4079" data-name="Trazado 4079" d="M1818.64,963.745h0a3.059,3.059,0,0,0,3.588-2.393l2.913-14.574a3.05,3.05,0,1,0-5.981-1.2l-2.913,14.574a3.059,3.059,0,0,0,2.393,3.588" transform="translate(-1350.546 -701.328)" fill="#f99746"></path><path id="Trazado_4080" data-name="Trazado 4080" d="M1761.626,942.727a169.56,169.56,0,0,1,31.739,2.711l1.777-4.477c-15.977-3.262-33.515,1.765-33.515,1.765" transform="translate(-1309.973 -698.896)" fill="#739af0"></path><path id="Trazado_4081" data-name="Trazado 4081" d="M1867.084,926.128l4.6.81c-.07,0,4.277.846,5.7-3.007a3.123,3.123,0,0,0,.273-.832c1.107-4.8-1.529-5.687-1.529-5.687l-5.925-2.309-1.883,6.662v.023Z" transform="translate(-1388.393 -680.486)" fill="#f99746"></path><path id="Trazado_4082" data-name="Trazado 4082" d="M1867.084,945.451l4.6.81c-.07,0,4.277.846,5.7-3.007-2.6-1.895-9.064-2.165-9.064-2.165v.023Z" transform="translate(-1388.393 -699.81)" fill="#ed7d2b"></path><path id="Trazado_4083" data-name="Trazado 4083" d="M1821.47,968.119s2.252.9,1.839,1.889-3.277,2.356-3.729,1.573.473-4.3,1.89-3.463" transform="translate(-1352.983 -719.815)" fill="#ffb27d"></path><path id="Trazado_4084" data-name="Trazado 4084" d="M1844.928,985.375a31.634,31.634,0,0,0,.452-3.363c.026-1.059.151-1.923-.1-1.953s-.43.165-.532.505-.492,2.452-.492,2.452l.2,2.037Z" transform="translate(-1371.42 -728.786)" fill="#ffb27d"></path><path id="Trazado_4085" data-name="Trazado 4085" d="M802.653,580.541H541.47A26.052,26.052,0,0,1,518.661,541.9L649.252,305.26a26.052,26.052,0,0,1,45.618,0L825.462,541.9a26.052,26.052,0,0,1-22.809,38.639" transform="translate(-383.245 -216.985)" fill="#e6efff"></path><path id="Trazado_4086" data-name="Trazado 4086" d="M773.964,561.764H512.781a35.931,35.931,0,0,1-31.459-53.291L611.914,271.832a35.931,35.931,0,0,1,62.917,0L805.422,508.473a35.93,35.93,0,0,1-31.459,53.291M643.372,273.02a15.967,15.967,0,0,0-14.159,8.359L498.622,518.02a16.172,16.172,0,0,0,14.16,23.986H773.964a16.172,16.172,0,0,0,14.16-23.986L657.532,281.379a15.968,15.968,0,0,0-14.16-8.359" transform="translate(-354.557 -188.33)" fill="#f77d48"></path><path id="Trazado_4087" data-name="Trazado 4087" d="M1027.754,719.89a23.81,23.81,0,0,1,1.8-9.333,21.818,21.818,0,0,1,5.095-7.421,23.4,23.4,0,0,1,7.916-4.9,29.167,29.167,0,0,1,10.424-1.76,29.835,29.835,0,0,1,10.5,1.76,23.256,23.256,0,0,1,7.995,4.9,21.845,21.845,0,0,1,5.094,7.421,23.853,23.853,0,0,1,1.8,9.333,23.289,23.289,0,0,1-1.8,9.257,21.986,21.986,0,0,1-5.094,7.344,23.185,23.185,0,0,1-8,4.9,29.817,29.817,0,0,1-10.5,1.76,29.169,29.169,0,0,1-10.424-1.76,23.311,23.311,0,0,1-7.916-4.9,21.947,21.947,0,0,1-5.095-7.344,23.243,23.243,0,0,1-1.8-9.257m44.048-43.539h-37.621L1028.851,547.8h48.281Z" transform="translate(-764.254 -407.357)" fill="#f77d48"></path><path id="Trazado_4088" data-name="Trazado 4088" d="M651.385,1023.586s.677-1.523,1.115-2.244,2.312-2.834,2.631-2.355,1.594,3.7.917,4.6.044,2.47-3.326,3.419Z" transform="translate(-484.38 -757.684)" fill="#ffb27d"></path><path id="Trazado_4089" data-name="Trazado 4089" d="M505.311,999.625s17.251,14.4,23.978,13.067c5.26-1.042,13.576-3.68,13.576-3.68s2.195,2.088,1.574,4.59c0,0-10.594,9.969-18.143,10.033-11.8.1-17.363-5.847-17.363-5.847Z" transform="translate(-375.757 -743.338)" fill="#ed7d2b"></path><path id="Trazado_4090" data-name="Trazado 4090" d="M387.3,1584.532s.5,8.079,2.064,8.194c.208.015,7.927.015,7.927.015l9.854-.057a3.2,3.2,0,0,0-2.945-2.876c-2.88-.5-7.7-2.526-9.446-6.333-1.836-4-7.454,1.057-7.454,1.057" transform="translate(-288.005 -1176.351)" fill="#113c68"></path><path id="Trazado_4091" data-name="Trazado 4091" d="M385.088,1304.982a20.551,20.551,0,0,0,5.334,1,19.593,19.593,0,0,0,4.98-.71s.564-5.454,3.668-17.471c1.627-6.3,3.951-14.4,7.256-24.461,9.14-27.812,11.92-44.083,12.174-45.623.014-.081.019-.122.019-.122l-.03-.014-28.1-12.338s3.473,38.332-.958,53.045a61.991,61.991,0,0,0-1.608,7.049c-2.8,15.981-2.734,39.643-2.734,39.643" transform="translate(-286.357 -896.24)" fill="#2a4e96"></path><path id="Trazado_4092" data-name="Trazado 4092" d="M411.586,1287.8c1.627-6.3,3.951-14.4,7.257-24.461,9.14-27.812,11.92-44.083,12.174-45.623,0-.046-.005-.089-.011-.135l-28.1-12.338s3.473,38.332-.958,53.045c-.621,2.056,9.639,29.512,9.639,29.512" transform="translate(-298.874 -896.24)" fill="#233862"></path><path id="Trazado_4093" data-name="Trazado 4093" d="M472.911,1584.532s.5,8.079,2.064,8.194c.208.015,7.927.015,7.927.015l9.854-.057a3.2,3.2,0,0,0-2.945-2.876c-2.88-.5-7.7-2.526-9.446-6.333-1.836-4-7.454,1.057-7.454,1.057" transform="translate(-351.664 -1176.351)" fill="#15447c"></path><path id="Trazado_4094" data-name="Trazado 4094" d="M448.4,1208.768a400.035,400.035,0,0,1-3.933,55.337c-4.3,30.5-2.841,43.444-2.841,43.444a29.224,29.224,0,0,1-4.144,1.054,18.807,18.807,0,0,1-6.149-.711s-6.151-30.51-4.388-45.775-8.423-52.381-8.423-52.381Z" transform="translate(-311.217 -898.86)" fill="#2a4e96"></path><path id="Trazado_4095" data-name="Trazado 4095" d="M457.334,946.435l5.485,3.6,5-1.413c.913-1.3,1.155-3.814,1.169-5.99a37.268,37.268,0,0,0-.2-3.989l-7.4-3.266-2.762-1.217c.008.043.215,2.267.244,2.593a18.89,18.89,0,0,1-1.536,9.686" transform="translate(-340.081 -694.654)" fill="#ffb27d"></path><path id="Trazado_4096" data-name="Trazado 4096" d="M435.1,1041.037c-6.828,6.592-32.667,5.484-34.259-1.78s1.736-61.828,13.4-65.256c2.42-.711,15.359,3.471,15.359,3.471a82.034,82.034,0,0,1,3.362,12.073c.258,1.316,1.013,15.26,1.577,28.305.263,6.1.486,12.007.6,16.331a47.1,47.1,0,0,1-.038,6.855" transform="translate(-297.794 -724.224)" fill="#f99746"></path><path id="Trazado_4097" data-name="Trazado 4097" d="M464.875,940.377c1.5,2.538,6.769,4.76,9.56,5.778a37.263,37.263,0,0,0-.2-3.989l-7.4-3.267c-1.636-.022-2.633.344-1.964,1.478" transform="translate(-345.532 -698.181)" fill="#fca56b"></path><path id="Trazado_4098" data-name="Trazado 4098" d="M464.666,892.963s-11.924,3.72-14.127-3.742-5.224-12.007,2.3-14.7,9.847-.282,11.188,2.03,3.688,15.249.643,16.409" transform="translate(-333.167 -649.428)" fill="#ffb27d"></path><path id="Trazado_4099" data-name="Trazado 4099" d="M448.508,864.018s-.76,8.683-2.556,8.306-3.772-1.183-3.509,1.434-1.746,7.1-4.335,7.093c-5.553-.023-11.587-14.273-10.067-16.975,4.386-7.8,26.807-9.37,20.467.141" transform="translate(-318.121 -637.611)" fill="#163560"></path><path id="Trazado_4100" data-name="Trazado 4100" d="M466.369,964.353c-.154-.065-8.877-3.978-9.9-3.641s-2.292,3.453-2.292,3.453l15.36,3.473a7.63,7.63,0,0,0-3.171-3.284" transform="translate(-337.736 -714.387)" fill="#ed7d2b"></path><path id="Trazado_4101" data-name="Trazado 4101" d="M558.448,1126.234l-48.9,46.038c-.958.9-2.167,1.19-2.686.639l-1.651-1.753c-.519-.551-.159-1.74.8-2.642l48.9-46.038c.958-.9,2.167-1.19,2.686-.639l1.651,1.753c.519.551.159,1.74-.8,2.643" transform="translate(-375.509 -834.009)" fill="#1f4d84"></path><path id="Trazado_4102" data-name="Trazado 4102" d="M531.009,1229.668l-21.458,20.2c-.958.9-2.167,1.19-2.686.639l-1.651-1.753c-.519-.551-.159-1.74.8-2.642l21.458-20.2Z" transform="translate(-375.509 -911.609)" fill="#739af0"></path><path id="Trazado_4103" data-name="Trazado 4103" d="M664.881,928.4a38.327,38.327,0,1,0,63.525-38.516q-.295-.294-.6-.58a38.328,38.328,0,0,0-62.922,39.1m10.954-35.373a35.3,35.3,0,1,1,1.52,49.9,35.261,35.261,0,0,1-1.52-49.9" transform="translate(-493.18 -653.56)" fill="#1f4d84"></path><g id="Grupo_759" data-name="Grupo 759" transform="translate(173.064 228.36)" opacity="0.5"><g id="Grupo_758" data-name="Grupo 758"><g id="Grupo_757" data-name="Grupo 757" clip-path="url(#clip-path-4)"><path id="Trazado_4104" data-name="Trazado 4104" d="M736.027,950.184a35.3,35.3,0,1,1-1.522-49.9,35.156,35.156,0,0,1,1.522,49.9" transform="translate(-675.017 -890.697)" fill="#b3cff9"></path></g></g></g><path id="Trazado_4105" data-name="Trazado 4105" d="M463.912,1078.972c-26.943-19.2-24.7-44.818-24.7-44.818,9.848,5.554,19.62,17.835,24.1,28.487.263,6.1.486,12.007.6,16.331" transform="translate(-326.569 -769.014)" fill="#ed7d2b"></path><path id="Trazado_4106" data-name="Trazado 4106" d="M630.055,1168.7a7.351,7.351,0,0,0,3.441-2.126s.81.055-.133,1.784c-.079.145-.254.516-.386.779a.168.168,0,0,0,.141.242c1.1.083,2.2-.351,4.311.09.292.061.376.759.365,1.056a2.7,2.7,0,0,1-.568,1.84c-.34.449-1.29.932-3.4,1.783-.806.324-3.109.08-5.268-.662l-1.725-.8.535-3.206.433.091c.688.144,1.541-.7,2.258-.872" transform="translate(-466.12 -867.481)" fill="#ffb27d"></path><path id="Trazado_4107" data-name="Trazado 4107" d="M446.074,987.782s-24.209,4.609,7.123,39.667c5.011,5.607,32.084,12.907,32.084,12.907s2.746-2.336,1.362-4.228c0,0-18.64-13.536-22.742-15.688-1.845-.968-7.161-21.6-10.168-26.575a13.56,13.56,0,0,0-7.658-6.083" transform="translate(-325.072 -734.531)" fill="#f99746"></path><path id="Trazado_4108" data-name="Trazado 4108" d="M653.945,1021.673a12.327,12.327,0,0,0,.947-2.312,12.764,12.764,0,0,1,1.562-3.536c.165-.164.707.048.771.754a4.1,4.1,0,0,1-.389,1.531,17.271,17.271,0,0,0-.512,3.042c-.375,1.22-2.378.52-2.378.52" transform="translate(-486.284 -755.345)" fill="#ffb27d"></path><path id="Trazado_4109" data-name="Trazado 4109" d="M1401.505,900.094a8.079,8.079,0,0,0-6.415.33c-10.915.448-11.321,11.636-10.039,15.8,1.8,5.848-4.568,10.459,2.494,12.825,8.194,2.746,15.07-.512,14.6.9,25.912,2.042,7.982-26.994-.64-29.858" transform="translate(-1029.259 -668.964)" fill="#163560"></path><path id="Trazado_4110" data-name="Trazado 4110" d="M1360.989,1046.467a28.6,28.6,0,0,1-2.918,4.413c-2.267,2.84-14.168-3.9-13.143-4.413s7.005-17.74,8.429-19.906,6.278-3.289,6.278-3.289Z" transform="translate(-1000.063 -760.922)" fill="#f99746"></path><path id="Trazado_4111" data-name="Trazado 4111" d="M1529.88,1562.829s3.285,3,2.644,5.127-3.605,3.55-4.006,6.153-2,4.023-3.445,4.023H1518.2s-1.061-1.832,1.5-2.384,3.53-3.611,3.37-6.451a50.053,50.053,0,0,1,.24-6.626l5.448-1.262Z" transform="translate(-1128.795 -1161.089)" fill="#1f447f"></path><path id="Trazado_4112" data-name="Trazado 4112" d="M1401.678,1571.911s1.182,12.7-.26,13.409l-18.455-.038s0-2.13,2.964-2.6,8.172-2.209,9.053-6.074,6.7-4.694,6.7-4.694" transform="translate(-1028.393 -1168.899)" fill="#1c3154"></path><path id="Trazado_4113" data-name="Trazado 4113" d="M1414.623,1034.988a73.467,73.467,0,0,1,0,8.53c-.183,3.084-3.3,7.215-3.745,8.237-1.11,2.563-2.363,2.98-2.363,2.98l-9.689,2.375-3.407.834-10.744-3.208s-4.893-13.659-2.928-21.348a59.1,59.1,0,0,1,4.967-13.029s7.3-1.641,20.182-.728Z" transform="translate(-1027.142 -758.009)" fill="#f99746"></path><path id="Trazado_4114" data-name="Trazado 4114" d="M1461.358,1089.794c-.183,3.084-4.225,7.107-4.668,8.129-1.111,2.563-2.363,2.98-2.363,2.98l-9.69,2.375-1.75-5.014s14.158-3.719,11.88-16.823Z" transform="translate(-1072.955 -804.178)" fill="#ed7d2b"></path><path id="Trazado_4115" data-name="Trazado 4115" d="M1380.737,1165.437s-5.321,16.561-5.662,22.2,10.171,80.1,10.594,82.7c.4,2.449,3.44,4.01,3.44,4.01a4.6,4.6,0,0,0,3.4.262,8.393,8.393,0,0,0,3.645-1.719s4.141-53.1,1.579-72.075a300.511,300.511,0,0,1-2.593-35.375Z" transform="translate(-1022.521 -866.638)" fill="#233862"></path><path id="Trazado_4116" data-name="Trazado 4116" d="M1424.806,1163.512s8.116,10.89,8.873,18.251,1.187,33.218,2.8,40.394,7.534,20.987,7.534,43.369a4.462,4.462,0,0,1-2.516,1.966,20.659,20.659,0,0,1-2.213.612,3.479,3.479,0,0,1-3.891-1.847c-4-8.062-16.758-34.063-17.412-39.46-.463-3.82-4.49-29.1-13.274-43.932-2.109-3.561,1.294-17.723,1.294-17.723Z" transform="translate(-1044.048 -865.207)" fill="#2a4e96"></path><path id="Trazado_4117" data-name="Trazado 4117" d="M1392.993,1155.466a11.151,11.151,0,0,0,6.379,1.775c5.068.1,17.627-1.292,17.627-1.292a10.382,10.382,0,0,1,.535,3.205s-15.339,3.869-24.226.565a5.618,5.618,0,0,1-.315-4.253" transform="translate(-1035.628 -859.224)" fill="#233862"></path><path id="Trazado_4118" data-name="Trazado 4118" d="M1407.3,1164.241a2.638,2.638,0,1,1,2.313-2.617,2.482,2.482,0,0,1-2.313,2.617m0-4.469a1.881,1.881,0,1,0,1.546,1.851,1.721,1.721,0,0,0-1.546-1.851" transform="translate(-1044.77 -861.856)" fill="#fff"></path><path id="Trazado_4119" data-name="Trazado 4119" d="M1357.459,1120.672l-23.054.216-11.344-26.661,23.054-.215Z" transform="translate(-983.849 -813.526)" fill="#b5453c"></path><path id="Trazado_4120" data-name="Trazado 4120" d="M1411.166,1138.768l-1.69-2.077a5.941,5.941,0,0,0-1.973-1.193c-.83-.174-2.582-1.184-2.752-.9s1.346,2.316,1.346,2.316l.077.011c-1.741,1.309-6.135.153-6.677.688-.657.647.905,2.047,1.743,2.832s3.235,2.1,5.1,1.514c1.366-.425,3.516-.858,3.516-.858Z" transform="translate(-1040.571 -843.669)" fill="#ffb27d"></path><path id="Trazado_4121" data-name="Trazado 4121" d="M1329.4,1110.038s1.449-1.646,2.371-.856-.241,4.676-1.12,4.281-1.756-2.942-1.251-3.424" transform="translate(-988.45 -824.646)" fill="#ffb27d"></path><path id="Trazado_4122" data-name="Trazado 4122" d="M1447.24,1020.433s6.6.728,11.336,9.333c3.735,6.786,10.12,19.3,7.71,22.829-1.058,1.552-11.2,7.072-30.751,3.917a5.916,5.916,0,0,1,1.885-3.615s16.457-5.283,16.428-6.334c-.053-1.988-2.224-3.706-11.416-12.9-2.5-2.5,4.807-13.228,4.807-13.228" transform="translate(-1067.487 -758.811)" fill="#f99746"></path><path id="Trazado_4123" data-name="Trazado 4123" d="M1432.469,992.527c.227-.3-.065-1.274-.428-3.079a33.727,33.727,0,0,1-.873-7.011l-.487.081-8.179,1.376s.186,2.187.192,4.247c0,.017,0,.034,0,.052.01,1.789-.483,4.493.121,4.847,3.1,1.816,8.782.659,9.655-.512" transform="translate(-1057.795 -730.556)" fill="#ffb27d"></path><path id="Trazado_4124" data-name="Trazado 4124" d="M1422.5,984.13s.163,3.084.168,5.144c4.577-.109,7.02-4.554,8.011-6.52Z" transform="translate(-1057.795 -730.792)" fill="#e8945b"></path><path id="Trazado_4125" data-name="Trazado 4125" d="M1404.292,947.614s10.723-1.527,9.669-8.19-.38-11.348-7.271-10.654-7.815,3.446-8,5.755,2.79,13.315,5.606,13.089" transform="translate(-1040.078 -690.598)" fill="#ffb27d"></path><path id="Trazado_4126" data-name="Trazado 4126" d="M1410.831,926s4.173,7.349,8.851,7.789,6.436-1.075,6.436-1.075a12.886,12.886,0,0,1-5.36-6.855s-8.311-3.93-9.927.141" transform="translate(-1049.117 -687.215)" fill="#163560"></path><path id="Trazado_4127" data-name="Trazado 4127" d="M1399.884,930.5a6.718,6.718,0,0,0-2.683,2.884,10.9,10.9,0,0,0-.472,6.346s-3.052-4.961-1.052-8.361c2.121-3.606,4.207-.869,4.207-.869" transform="translate(-1037.343 -691.193)" fill="#163560"></path><path id="Trazado_4128" data-name="Trazado 4128" d="M609.384,1624.817H15a.745.745,0,0,1-.743-.743v-.428A.745.745,0,0,1,15,1622.9H609.384a.745.745,0,0,1,.743.743v.428a.745.745,0,0,1-.743.743" transform="translate(-10.6 -1206.817)" fill="#233862"></path></g></g></g></svg>