<svg xmlns="http://www.w3.org/2000/svg" xmlns:xlink="http://www.w3.org/1999/xlink" width="658.439" height="278" viewBox="0 0 658.439 278"><defs><clipPath id="clip-path"><rect id="Rect&#xE1;ngulo_4071" data-name="Rect&#xE1;ngulo 4071" width="658.439" height="278" transform="translate(0 0)" fill="none"></rect></clipPath></defs><g id="automatica-transporte" transform="translate(0 0.002)"><g id="Grupo_1405" data-name="Grupo 1405" transform="translate(0 -0.002)" clip-path="url(#clip-path)"><path id="Trazado_6549" data-name="Trazado 6549" d="M556.023,276.165s71.757-25.137,94.6-70.185c29.635-58.444-31.249-102.758-77.945-94.5C470.926,129.469,472.2-99.207,334.3,51.919,297.823,91.9,248.65,20.191,189.118,108.7,175.206,129.379,90.175,89.4,47.857,105.772-34.962,137.808,2.906,276.705,62.084,277.251s493.939-1.086,493.939-1.086" transform="translate(0 0.002)" fill="#ebf3fa"></path><path id="Trazado_6550" data-name="Trazado 6550" d="M2530.244,1177.125c-.183,2.267-3.385,2.268-7.014,1.82s-14.583-1.149-14.824-1.878c-.215-.646,2.239-1.171,4.864-1.79.33-.077.662-.158.993-.238a13.349,13.349,0,0,0,7.475-4.839c2.206-2.827,4.223-15.7,4.223-15.7l7.948,1.483s-4.626,11.032-5.1,14.651c-.213,1.624.941,2.707,1.212,4.128a8.912,8.912,0,0,1,.223,2.362" transform="translate(-1961.796 -902.927)" fill="#b77446"></path><path id="Trazado_6551" data-name="Trazado 6551" d="M2530.246,1249.844c-.183,2.266-3.384,2.268-7.012,1.82a10.473,10.473,0,0,0-4.419.285h-6.38c-2.776-.479-3.842-1.6-4.025-2.164-.216-.645,2.238-1.17,4.864-1.789l.031.048a14.249,14.249,0,0,0,7.452,1.392c3.417-.318,6.91-1.717,9.268-1.955a8.922,8.922,0,0,1,.222,2.362" transform="translate(-1961.798 -975.646)" fill="#365da4"></path><path id="Trazado_6552" data-name="Trazado 6552" d="M2576.056,823.422a13,13,0,0,0,4.039,1.733,8.118,8.118,0,0,0,4.3-.059s14.121-35.456,13.315-47.437q-.029-.432-.034-.918a50.318,50.318,0,0,1,.792-8.038c.19-1.169.409-2.393.653-3.66.566-2.954,1.267-6.141,2.037-9.39.338-1.431.692-2.874,1.052-4.315,3.55-14.176,7.888-28.147,7.888-28.147s-25.483-8.324-26.924-.545c-.553,2.986-2.4,14.933-1.566,33.2a263.506,263.506,0,0,1-1.034,39.487,217.759,217.759,0,0,1-4.518,28.088" transform="translate(-2014.715 -562.578)" fill="#365da4"></path><path id="Trazado_6553" data-name="Trazado 6553" d="M2666.772,865.461a50.351,50.351,0,0,1,.792-8.038c.19-1.169.409-2.393.653-3.66.566-2.954,1.267-6.141,2.037-9.39.338-1.431.692-2.874,1.052-4.315-.5-4.326-.909-7.294-.909-7.294a36.264,36.264,0,0,0-3.625,32.7" transform="translate(-2083.811 -651.298)" fill="#285493"></path><path id="Trazado_6554" data-name="Trazado 6554" d="M2677.775,1185.853c-.183,2.267-3.384,2.268-7.013,1.82s-14.583-1.149-14.824-1.878c-.215-.646,2.239-1.171,4.864-1.79.331-.077.662-.157.993-.238,2.96-.73,4.933-2.926,7.476-4.839,2.408-1.812.723-10.6.723-10.6l7.474-2.669s-1.127,8.838-1.127,13.7c0,1.637.942,2.707,1.213,4.128a8.911,8.911,0,0,1,.223,2.362" transform="translate(-2077.179 -911.655)" fill="#b77446"></path><path id="Trazado_6555" data-name="Trazado 6555" d="M2677.775,1249.844c-.183,2.266-3.384,2.268-7.012,1.82a10.473,10.473,0,0,0-4.419.285h-6.38c-2.776-.479-3.842-1.6-4.025-2.164-.216-.645,2.238-1.17,4.864-1.789l.031.048a14.25,14.25,0,0,0,7.452,1.392c3.417-.318,6.91-1.717,9.268-1.955a8.932,8.932,0,0,1,.222,2.362" transform="translate(-2077.18 -975.646)" fill="#365da4"></path><path id="Trazado_6556" data-name="Trazado 6556" d="M2661.833,688.977s8.291,41.32,9.692,63.809,3.149,41.108,3.149,41.108a10.959,10.959,0,0,0,3.885.534,14.289,14.289,0,0,0,3.93-.8s8.217-33.836,5.5-47.38-.455-26.036.852-37.27c1.873-16.108-5.334-23.595-10.366-28.7-5.094-5.166-16.636,8.7-16.636,8.7" transform="translate(-2081.8 -531.138)" fill="#365da4"></path><path id="Trazado_6557" data-name="Trazado 6557" d="M2625.762,319.761c-.823-6.727,1.277-17.492,14.7-15.772s17.658,14.916,14.95,20.783,3.9,7.282,5.972,13.592c1.781,5.42,2.4,12.15,5.286,15.171,9.295,9.738-8.924,24.712-19.907,21.555-20.005-5.752-22.582-6.61-21.872-22.329.364-8.054,6.63-11.174,2.651-13.5-9.61-5.629.079-4.272-1.785-19.5" transform="translate(-2051.605 -237.604)" fill="#aa443e"></path><path id="Trazado_6558" data-name="Trazado 6558" d="M2653.522,418.3l3.972,5.957,8-.394,3.7-9.555s-1.14-.216-1.671-12.13l-9.988,3.047a19.454,19.454,0,0,1-.177,6.488,10.771,10.771,0,0,1-3.834,6.586" transform="translate(-2075.3 -314.544)" fill="#d9935c"></path><path id="Trazado_6559" data-name="Trazado 6559" d="M2622.126,453.645c.513,0,9.922-3.147,23.357,2.324,0,0-6.378,36.489-3.638,43.453a73.575,73.575,0,0,1,3.781,13.145l-29.721.369s.416-23.9-.954-32.363,7.176-26.928,7.176-26.928" transform="translate(-2045.017 -354.087)" fill="#d9935c"></path><path id="Trazado_6560" data-name="Trazado 6560" d="M2493.055,498.972a12.386,12.386,0,0,1-.341-1.845,28.442,28.442,0,0,1,1.379-11.518.026.026,0,0,0,0-.011l.053-.167c.03-.092.068-.235.112-.418,0-.005,0-.009,0-.014.043-.167.089-.368.142-.6.016-.075.034-.155.052-.242.765-3.426,2.443-12.031,2.886-13.2a11.46,11.46,0,0,0,.455-1.879c.449-2.591.646-6.712-.865-8.435-2.1-2.4-9.323-4.118-9.323-4.118-1.468,2.3-6.438,7.928-12.677,6.9-3.607-.6-4.164-7.614-4.164-7.614-3.875.534-4.867,1.123-4.867,1.123s-9.29,5.8-22.417,24.255c-.416.587-1.407.52-3.831.05-3.085-.6-9.383-.523-18.885-1.918,0,0-.327.237-.416,1.276a15.362,15.362,0,0,1-.426,2.973,118.44,118.44,0,0,0,12.912,5.056c2.354.747,4.815,1.445,7.164,1.97a36.7,36.7,0,0,0,6.093.915A43.812,43.812,0,0,0,2461.03,480.5c.428,6.8,1.377,15.575.795,21.985-.333,3.65-2.829,15.929-2.2,17.972,1.306,4.256,11.331,4.477,20.285,4.032.2-.009.39-.02.585-.032,1.388-.08,2.751-.2,4.023-.343a55.267,55.267,0,0,0,5.831-.929,28.265,28.265,0,0,0,5.726-1.836,6.088,6.088,0,0,0,2.989-2.534c-.861-4.632-5.009-14.721-6.007-19.839" transform="translate(-1892.61 -356.484)" fill="#80bdcc"></path><path id="Trazado_6561" data-name="Trazado 6561" d="M2644.75,539.9c1.7,5.753,2.682,10.488,6.941,13.689,1.388-.08,2.751-.2,4.024-.343a55.3,55.3,0,0,0,5.831-.929,28.265,28.265,0,0,0,5.726-1.836,6.088,6.088,0,0,0,2.99-2.534c-.861-4.632-5.009-14.721-6.007-19.839a12.29,12.29,0,0,1-.2-1.342,33.392,33.392,0,0,1,1.235-12.022.031.031,0,0,0,0-.011l.166-.586c0-.005,0-.009,0-.014.035-.126.084-.331.142-.6.016-.075.034-.155.052-.242.683-3.245,2.471-13.431,2.927-14.76a13.5,13.5,0,0,0,.447-2.029l-3.579-3.443s-20.531,8.767-25.054,20.86,1.915,17.725,4.35,25.978" transform="translate(-2063.808 -385.621)" fill="#5f9aa8"></path><path id="Trazado_6562" data-name="Trazado 6562" d="M2479.184,565.228a57.5,57.5,0,0,0,13.257,2.884,43.872,43.872,0,0,0,15.079-11.171c.311-1.4.612-3.74-1.08-3.064-2.374.948-11.152,12.219-14.474,12.456-2.377.169-9.135-.633-12.781-1.1" transform="translate(-1938.952 -433.089)" fill="#5f9aa8"></path><path id="Trazado_6563" data-name="Trazado 6563" d="M2553.6,497.427s10.12,5.084,18.895,7.187a39.369,39.369,0,0,0,7.032,1.132,33.607,33.607,0,0,0,16.637-12.99c12.949-18.912,3.171-21.586,3.171-21.586s-9.292,5.8-22.417,24.255c-.459.646-1.612.5-4.6-.1-3.189-.644-9.536-.568-18.3-1.854a4.893,4.893,0,0,0-.237,1.365c-.2,2.293-.186,2.594-.186,2.594" transform="translate(-1997.148 -368.498)" fill="#80bdcc"></path><path id="Trazado_6564" data-name="Trazado 6564" d="M2402.868,557.93c-3.054-.6-9.549-.642-18.9-2a16.277,16.277,0,0,1-2.319-.919c-2-1-7.344-1.669-8.479-.6s1.2,5.408,6.075,5.541a31.234,31.234,0,0,1,3.932.323,118.435,118.435,0,0,0,12.872,5.037c2.354.747,4.815,1.445,7.164,1.97a17.288,17.288,0,0,0-.349-9.356" transform="translate(-1855.821 -433.177)" fill="#a86337"></path><path id="Trazado_6565" data-name="Trazado 6565" d="M2671.116,411.718c4.129-.334,10.164-9.535,10.164-9.535l-9.987,3.047a19.458,19.458,0,0,1-.177,6.488" transform="translate(-2089.06 -314.544)" fill="#cc7c46"></path><path id="Trazado_6566" data-name="Trazado 6566" d="M2652.476,348.412s11.959,2.4,13.341-5.069,3.855-12.192-3.723-14.042-9.592.727-10.66,3.108-2.033,15.186,1.042,16" transform="translate(-2072.86 -257.05)" fill="#d9935c"></path><path id="Trazado_6567" data-name="Trazado 6567" d="M2686.737,321.838s-.209,2.534,3.724,6.834,3,11.966,3,11.966,6.629-12.46,3.092-16.439-9.812-2.36-9.812-2.36" transform="translate(-2101.276 -251.452)" fill="#aa443e"></path><path id="Trazado_6568" data-name="Trazado 6568" d="M2659.6,306.7s-5.946-1.99-11.845,3.824c-2.542,2.5-2.158,7.428-.8,10.285,0,0,2.091-6.122,5.9-7.458s6.746-6.652,6.746-6.652" transform="translate(-2069.33 -239.608)" fill="#aa443e"></path><path id="Trazado_6569" data-name="Trazado 6569" d="M2661.592,399.027s-.32.887-2.571.484c0,0-1.89-.338-1.716-1.333a6.166,6.166,0,0,1,4.288.849" transform="translate(-2078.25 -311.341)" fill="#fff"></path><path id="Trazado_6570" data-name="Trazado 6570" d="M2401.138,494.514l-25.466.574,5.845,35.381,25.779.835Z" transform="translate(-1857.995 -386.755)" fill="#a6c7f9"></path><path id="Trazado_6571" data-name="Trazado 6571" d="M2527.386,574.35a10.327,10.327,0,0,1-.175-9.292c-3.189-.644-9.58-.923-18.342-2.21,0,0,0,.006,0,.015a19.49,19.49,0,0,1-3.59-1.3c-2.138-1.069-7.84-1.782-9.052-.641s1.283,5.773,6.486,5.916a26.258,26.258,0,0,1,5.608.626,121.467,121.467,0,0,0,19.066,6.891" transform="translate(-1952.044 -438.234)" fill="#b77446"></path><rect id="Rect&#xE1;ngulo_4046" data-name="Rect&#xE1;ngulo 4046" width="61.044" height="61.044" transform="translate(341.355 150.477)" fill="#4a75cb"></rect><rect id="Rect&#xE1;ngulo_4047" data-name="Rect&#xE1;ngulo 4047" width="61.044" height="61.044" transform="translate(360.177 150.477)" fill="#699dee"></rect><rect id="Rect&#xE1;ngulo_4048" data-name="Rect&#xE1;ngulo 4048" width="65.519" height="65.519" transform="translate(393.366 211.521)" fill="#d86713"></rect><rect id="Rect&#xE1;ngulo_4049" data-name="Rect&#xE1;ngulo 4049" width="65.519" height="65.519" transform="translate(413.568 211.521)" fill="#f1a34f"></rect><path id="Trazado_6572" data-name="Trazado 6572" d="M1825.4,970.692l-20.2,12.247V970.692Z" transform="translate(-1411.833 -759.171)" fill="#c95c12"></path><rect id="Rect&#xE1;ngulo_4050" data-name="Rect&#xE1;ngulo 4050" width="41.638" height="41.638" transform="translate(207.395 218.355)" fill="#d86713"></rect><rect id="Rect&#xE1;ngulo_4051" data-name="Rect&#xE1;ngulo 4051" width="41.639" height="41.638" transform="translate(220.234 218.355)" fill="#f1a34f"></rect><path id="Trazado_6573" data-name="Trazado 6573" d="M964.6,1002.051l-12.839,7.783v-7.783Z" transform="translate(-744.364 -783.696)" fill="#c95c12"></path><path id="Trazado_6574" data-name="Trazado 6574" d="M989.531,1099.57H973.389l.679-1.886-.679-2.037H989.38l-.981,2.112Z" transform="translate(-761.281 -856.897)" fill="#ffd5ab"></path><path id="Trazado_6575" data-name="Trazado 6575" d="M981.46,1095.647v3.922h-8.071l.679-1.886-.679-2.037Z" transform="translate(-761.28 -856.897)" fill="#c95c12"></path><rect id="Rect&#xE1;ngulo_4052" data-name="Rect&#xE1;ngulo 4052" width="23.944" height="23.944" transform="translate(209.897 194.413)" fill="#d86713"></rect><rect id="Rect&#xE1;ngulo_4053" data-name="Rect&#xE1;ngulo 4053" width="23.944" height="23.944" transform="translate(217.28 194.413)" fill="#f1a34f"></rect><path id="Trazado_6576" data-name="Trazado 6576" d="M970.623,892.18l-7.383,4.476V892.18Z" transform="translate(-753.343 -697.767)" fill="#c95c12"></path><rect id="Rect&#xE1;ngulo_4054" data-name="Rect&#xE1;ngulo 4054" width="18.857" height="18.857" transform="translate(226.763 199.498)" fill="#4a75cb"></rect><rect id="Rect&#xE1;ngulo_4055" data-name="Rect&#xE1;ngulo 4055" width="18.857" height="18.857" transform="translate(232.577 199.498)" fill="#699dee"></rect><rect id="Rect&#xE1;ngulo_4056" data-name="Rect&#xE1;ngulo 4056" width="7.136" height="3.626" transform="matrix(0.981, -0.196, 0.196, 0.981, 234.093, 213.83)" fill="#ebf2f9"></rect><path id="Trazado_6577" data-name="Trazado 6577" d="M1058.441,931.632h-6.813l.286-.8-.286-.86h6.75l-.414.891Z" transform="translate(-822.47 -727.327)" fill="#ebf2f9"></path><path id="Trazado_6578" data-name="Trazado 6578" d="M1055.034,929.976v1.656h-3.407l.287-.8-.287-.86Z" transform="translate(-822.47 -727.327)" fill="#a6c7f9"></path><path id="Trazado_6579" data-name="Trazado 6579" d="M986.713,908.93h-8.052l.339-.941-.339-1.016h7.977l-.489,1.053Z" transform="translate(-765.404 -709.337)" fill="#ffd5ab"></path><path id="Trazado_6580" data-name="Trazado 6580" d="M982.686,906.974v1.956H978.66l.339-.941-.339-1.016Z" transform="translate(-765.403 -709.337)" fill="#c95c12"></path><path id="Trazado_6581" data-name="Trazado 6581" d="M986.713,975.287h-8.052l.339-.94-.339-1.016h7.977l-.489,1.054Z" transform="translate(-765.404 -761.234)" fill="#ffd5ab"></path><path id="Trazado_6582" data-name="Trazado 6582" d="M982.686,973.331v1.957H978.66l.339-.941-.339-1.016Z" transform="translate(-765.403 -761.235)" fill="#c95c12"></path><rect id="Rect&#xE1;ngulo_4057" data-name="Rect&#xE1;ngulo 4057" width="33.125" height="33.125" transform="translate(242.794 226.868)" fill="#4a75cb"></rect><rect id="Rect&#xE1;ngulo_4058" data-name="Rect&#xE1;ngulo 4058" width="33.125" height="33.125" transform="translate(253.007 226.868)" fill="#699dee"></rect><rect id="Rect&#xE1;ngulo_4059" data-name="Rect&#xE1;ngulo 4059" width="8.092" height="4.112" transform="translate(275.454 230.446) rotate(-11.294)" fill="#ebf2f9"></rect><path id="Trazado_6583" data-name="Trazado 6583" d="M1149.037,1057.362h-8.979l.378-1.049-.378-1.133h8.894l-.545,1.175Z" transform="translate(-891.631 -825.248)" fill="#ebf2f9"></path><path id="Trazado_6584" data-name="Trazado 6584" d="M1144.548,1055.181v2.182h-4.489l.377-1.049-.377-1.133Z" transform="translate(-891.632 -825.249)" fill="#a6c7f9"></path><path id="Trazado_6585" data-name="Trazado 6585" d="M1149.037,1170.594h-8.979l.378-1.048-.378-1.133h8.894l-.545,1.175Z" transform="translate(-891.631 -913.807)" fill="#ebf2f9"></path><path id="Trazado_6586" data-name="Trazado 6586" d="M1144.548,1168.413v2.182h-4.489l.377-1.049-.377-1.133Z" transform="translate(-891.632 -913.807)" fill="#a6c7f9"></path><path id="Trazado_6587" data-name="Trazado 6587" d="M883.241,1226.33a4.548,4.548,0,1,0,4.548,4.547,4.548,4.548,0,0,0-4.548-4.547" transform="translate(-687.219 -959.103)" fill="#1c468a"></path><path id="Trazado_6588" data-name="Trazado 6588" d="M889.09,1233.628a2.918,2.918,0,1,0,2.918,2.918,2.918,2.918,0,0,0-2.918-2.918" transform="translate(-693.069 -964.811)" fill="#699dee"></path><path id="Trazado_6589" data-name="Trazado 6589" d="M1303.275,1226.33a4.548,4.548,0,1,0,4.548,4.547,4.548,4.548,0,0,0-4.548-4.547" transform="translate(-1015.725 -959.103)" fill="#1c468a"></path><path id="Trazado_6590" data-name="Trazado 6590" d="M1309.123,1233.628a2.918,2.918,0,1,0,2.918,2.918,2.918,2.918,0,0,0-2.918-2.918" transform="translate(-1021.573 -964.811)" fill="#699dee"></path><path id="Trazado_6591" data-name="Trazado 6591" d="M834.739,821.648H741.714L704.583,720.237a2.41,2.41,0,0,0-2.163-1.579l-12.38-.51a2.41,2.41,0,0,0-.2,4.815l10.771.443,35.97,98.241h-8.088a2.337,2.337,0,0,0-2.33,2.33v2.781a2.337,2.337,0,0,0,2.33,2.33H834.739a2.337,2.337,0,0,0,2.33-2.33v-2.781a2.337,2.337,0,0,0-2.33-2.33" transform="translate(-537.713 -561.656)" fill="#1c468a"></path><path id="Trazado_6592" data-name="Trazado 6592" d="M677.1,684.287s4.634,3.052,8.2,3.189,5.691,3.705,6.182,5.191-.927,3.769-2.026,2.416c-1.661-2.045-5.054-.45-8.294-3.126a31.354,31.354,0,0,0-8.075-4.4Z" transform="translate(-526.414 -535.175)" fill="#9e6138"></path><path id="Trazado_6593" data-name="Trazado 6593" d="M501.895,428.36s9.951,35.6,17.891,42.785c4.119,3.729,26.927,18.943,28.806,14.09,0,0,2.818-3.444,1.253-5.479,0,0-19.172-13.789-20.665-14.716-2.6-1.614.6-33.936-6.208-39.5s-17.277-7.007-21.076,2.822" transform="translate(-392.528 -329.389)" fill="#d88029"></path><path id="Trazado_6594" data-name="Trazado 6594" d="M604.674,1226.029s-.743.026-1.957.061H583.925a3.326,3.326,0,0,1-.9-.185c-1.689-.8-.909-8.25-.909-8.25s7.311-6.09,8.422-1.562,7.189,6.452,10.636,6.94,3.5,3,3.5,3" transform="translate(-455.131 -949.787)" fill="#233862"></path><path id="Trazado_6595" data-name="Trazado 6595" d="M394.51,736.25c3.616,7.38,12.192,17.659,15.354,25.622a14.651,14.651,0,0,1,1.2,5.191c.074,17.874,19.476,53.118,19.476,53.118,1.85,1.2,9.747-1.2,9.747-1.2s-.915-7.832-5.448-34.895c-2.5-14.928-6.714-37.154-9.991-54.087-.844-4.361-1.627-8.371-2.3-11.814-1.456-7.427-2.41-12.218-2.41-12.218l-7.524.125-20.32.336s-8.433,8.087,2.214,29.819" transform="translate(-304.333 -552.134)" fill="#2b478b"></path><path id="Trazado_6596" data-name="Trazado 6596" d="M394.51,736.7c3.616,7.38,12.192,17.659,15.354,25.622,4.483-9.485,11.284-23.9,14.985-31.871-.844-4.361-1.627-8.371-2.3-11.814-2.923-3.578-6.683-8.167-9.934-12.093l-20.32.336s-8.433,8.087,2.214,29.819" transform="translate(-304.333 -552.581)" fill="#233862"></path><path id="Trazado_6597" data-name="Trazado 6597" d="M238.685,1200.675H228.5a6.259,6.259,0,0,1-2.109-3.824c-.591-3.044-4.092-4.572-4.938-7.047s2.813-6.158,2.813-6.158l1.229-1.724,6.372,1.225a59.668,59.668,0,0,1,.6,7.781c-.048,3.349,1.22,6.9,4.217,7.428,2.179.384,2.17,1.654,2,2.319" transform="translate(-173.096 -924.372)" fill="#233862"></path><path id="Trazado_6598" data-name="Trazado 6598" d="M277.836,776.8c-3.818,6.933-31.984,39.126-31.984,39.126s-8.878-3-10.459-8.391c0,0,16.66-27.373,24.236-39.039,2.166-3.336,3.37-54.325,11.09-63.618,9.679-11.648,27.2,10.452,27.2,10.452s-5.483,17.832-7.187,23.449c-3.778,12.457-10.265,33.243-12.9,38.021" transform="translate(-184.099 -548.63)" fill="#2b478b"></path><path id="Trazado_6599" data-name="Trazado 6599" d="M664.885,696.5s4.634,3.052,8.2,3.189,5.691,3.706,6.181,5.191-.927,3.77-2.026,2.416c-1.661-2.045-5.054-.45-8.294-3.126a31.354,31.354,0,0,0-8.075-4.4Z" transform="translate(-516.862 -544.728)" fill="#ab7041"></path><path id="Trazado_6600" data-name="Trazado 6600" d="M547.311,355.873a59.718,59.718,0,0,0,3.977-7.575l-6.564-11.514c-3.824,10.784-12.655,13.223-12.655,13.223s10.325,11.328,18.64,11.9a19.033,19.033,0,0,0-3.4-6.035" transform="translate(-416.126 -263.397)" fill="#9c5f33"></path><path id="Trazado_6601" data-name="Trazado 6601" d="M590.243,308.489s-13.016-2.77-11.167-10.849,1.415-13.879,9.8-12.452,9.292,4.879,9.331,7.725-4.535,16.088-7.968,15.576" transform="translate(-452.75 -222.873)" fill="#ab7041"></path><path id="Trazado_6602" data-name="Trazado 6602" d="M575.031,283.023s4.261-10.122,16.038-7.389c8.068,1.872,5.952-6.314,5.477-7.666,0,0-6.266-1.178-12.748-2.212-13.6-2.171-9.494,15.227-8.768,17.267" transform="translate(-448.831 -207.7)" fill="#233862"></path><path id="Trazado_6603" data-name="Trazado 6603" d="M445.42,413.73a111.4,111.4,0,0,1-3.129,16.953c-.643,2.63-1.35,5.361-2.091,8.111-1.2,4.462-2.459,8.95-3.753,13.174l-.048.151c-.094.43-.239.885-.371,1.3-1.123,3.731-2.2,7.184-3.136,10.116-1.8,5.607-1.807,8.73-3.24,9.364-2.879,1.273-14.215-.093-21.008-3.037-5.739-2.443-14.483-9.812-14.439-13.521.052-4.3,5.821-17.243,9.645-32.356,4.718-18.461,15.184-33.2,23.912-36.243.652-.211,1.348,1.158,3.878,3.587a14.169,14.169,0,0,0,8.068,3.94l1.662,2.773a27.418,27.418,0,0,1,4.051,15.685" transform="translate(-308.303 -303.236)" fill="#e2923d"></path><path id="Trazado_6604" data-name="Trazado 6604" d="M540.411,529.036c-.643,2.63.742-2.75,0,0-1.2,4.462-2.459,8.95-3.753,13.174l-.048.151c-.094.43-.239.885-.371,1.3-1.123,3.731-2.2,7.184-3.136,10.116-18.153-23.058-7.858-50.672-7.858-50.672Z" transform="translate(-408.516 -393.477)" fill="#d88029"></path><path id="Trazado_6605" data-name="Trazado 6605" d="M488.6,441.651s9.951,35.6,17.891,42.785c4.119,3.729,26.927,18.943,28.806,14.09,0,0,2.818-3.444,1.253-5.479,0,0-19.172-13.789-20.665-14.716-2.6-1.614.6-33.936-6.208-39.5s-17.277-7.007-21.076,2.822" transform="translate(-382.134 -339.784)" fill="#e2923d"></path><path id="Trazado_6606" data-name="Trazado 6606" d="M586.331,312.454a7.066,7.066,0,0,1,5.367-2.814s-11.474.241-11.952,3.767-.6,4.084-.6,4.084,6.062.248,7.188-5.037" transform="translate(-452.944 -242.167)" fill="#233862"></path><path id="Trazado_6607" data-name="Trazado 6607" d="M1730.178,781.71l-5.909-22.09a1.573,1.573,0,0,0-1.924-1.112l-36.748,9.829a1.573,1.573,0,0,0-1.112,1.924l5.908,22.09a1.58,1.58,0,0,0,1.924,1.112l36.748-9.829a1.579,1.579,0,0,0,1.112-1.924" transform="translate(-1317.382 -593.181)" fill="#f1a34f"></path><path id="Trazado_6608" data-name="Trazado 6608" d="M1724.27,759.62a1.573,1.573,0,0,0-1.924-1.112l-36.748,9.829a1.573,1.573,0,0,0-1.112,1.924l22.846,5.725,17.109-15.727Z" transform="translate(-1317.382 -593.181)" fill="#d86713"></path><path id="Trazado_6609" data-name="Trazado 6609" d="M1852.762,858.819a.634.634,0,0,0-.774-.447l-6.892,1.844a.632.632,0,0,0,.327,1.222l6.892-1.843a.634.634,0,0,0,.447-.774" transform="translate(-1442.669 -671.309)" fill="#d86713"></path><rect id="Rect&#xE1;ngulo_4060" data-name="Rect&#xE1;ngulo 4060" width="65.519" height="65.519" transform="translate(317.296 211.521)" fill="#d86713"></rect><rect id="Rect&#xE1;ngulo_4061" data-name="Rect&#xE1;ngulo 4061" width="65.519" height="65.519" transform="translate(337.498 211.521)" fill="#f1a34f"></rect><path id="Trazado_6610" data-name="Trazado 6610" d="M1476.308,970.692l-20.2,12.247V970.692Z" transform="translate(-1138.81 -759.171)" fill="#c95c12"></path><path id="Trazado_6611" data-name="Trazado 6611" d="M1515.538,1124.14h-25.4l1.068-2.967-1.068-3.2H1515.3l-1.543,3.324Z" transform="translate(-1165.427 -874.354)" fill="#ffd5ab"></path><path id="Trazado_6612" data-name="Trazado 6612" d="M1502.839,1117.968v6.172h-12.7l1.068-2.967-1.068-3.2Z" transform="translate(-1165.427 -874.354)" fill="#c95c12"></path><rect id="Rect&#xE1;ngulo_4062" data-name="Rect&#xE1;ngulo 4062" width="37.677" height="37.677" transform="translate(458.274 238.626)" fill="#d86713"></rect><rect id="Rect&#xE1;ngulo_4063" data-name="Rect&#xE1;ngulo 4063" width="37.677" height="37.677" transform="translate(469.891 238.626)" fill="#f1a34f"></rect><path id="Trazado_6613" data-name="Trazado 6613" d="M2114.685,1095.079l-11.617,7.043v-7.043Z" transform="translate(-1644.794 -856.453)" fill="#c95c12"></path><rect id="Rect&#xE1;ngulo_4064" data-name="Rect&#xE1;ngulo 4064" width="29.671" height="29.671" transform="translate(484.813 246.63)" fill="#4a75cb"></rect><rect id="Rect&#xE1;ngulo_4065" data-name="Rect&#xE1;ngulo 4065" width="29.671" height="29.671" transform="translate(493.961 246.63)" fill="#699dee"></rect><rect id="Rect&#xE1;ngulo_4066" data-name="Rect&#xE1;ngulo 4066" width="11.228" height="5.706" transform="translate(496.347 269.181) rotate(-11.294)" fill="#ebf2f9"></rect><path id="Trazado_6614" data-name="Trazado 6614" d="M2252.868,1157.167h-10.721l.451-1.252-.451-1.353h10.621l-.651,1.4Z" transform="translate(-1753.567 -902.974)" fill="#ebf2f9"></path><path id="Trazado_6615" data-name="Trazado 6615" d="M2247.507,1154.561v2.605h-5.361l.451-1.252-.451-1.353Z" transform="translate(-1753.566 -902.974)" fill="#a6c7f9"></path><path id="Trazado_6616" data-name="Trazado 6616" d="M2140,1121.437h-12.67l.533-1.48-.533-1.6h12.551l-.77,1.658Z" transform="translate(-1663.771 -874.659)" fill="#ffd5ab"></path><path id="Trazado_6617" data-name="Trazado 6617" d="M2133.667,1118.358v3.079h-6.335l.532-1.48-.532-1.6Z" transform="translate(-1663.771 -874.659)" fill="#c95c12"></path><path id="Trazado_6618" data-name="Trazado 6618" d="M2140,1225.851h-12.67l.533-1.48-.533-1.6h12.551l-.77,1.658Z" transform="translate(-1663.771 -956.321)" fill="#ffd5ab"></path><path id="Trazado_6619" data-name="Trazado 6619" d="M2133.667,1222.772v3.079h-6.335l.532-1.48-.532-1.6Z" transform="translate(-1663.771 -956.321)" fill="#c95c12"></path><rect id="Rect&#xE1;ngulo_4067" data-name="Rect&#xE1;ngulo 4067" width="52.123" height="52.123" transform="translate(373.146 225.133)" fill="#4a75cb"></rect><rect id="Rect&#xE1;ngulo_4068" data-name="Rect&#xE1;ngulo 4068" width="52.123" height="52.123" transform="translate(389.218 225.133)" fill="#699dee"></rect><rect id="Rect&#xE1;ngulo_4069" data-name="Rect&#xE1;ngulo 4069" width="12.733" height="6.471" transform="translate(424.538 230.762) rotate(-11.293)" fill="#ebf2f9"></rect><path id="Trazado_6620" data-name="Trazado 6620" d="M1767.216,1058.715h-14.127l.594-1.65-.594-1.783h14l-.858,1.849Z" transform="translate(-1371.078 -825.328)" fill="#ebf2f9"></path><path id="Trazado_6621" data-name="Trazado 6621" d="M1760.153,1055.282v3.433h-7.064l.594-1.65-.594-1.783Z" transform="translate(-1371.078 -825.328)" fill="#a6c7f9"></path><path id="Trazado_6622" data-name="Trazado 6622" d="M1767.216,1236.889h-14.127l.594-1.65-.594-1.783h14l-.858,1.849Z" transform="translate(-1371.078 -964.676)" fill="#ebf2f9"></path><path id="Trazado_6623" data-name="Trazado 6623" d="M1760.153,1233.456v3.433h-7.064l.594-1.65-.594-1.783Z" transform="translate(-1371.078 -964.676)" fill="#a6c7f9"></path><path id="Trazado_6624" data-name="Trazado 6624" d="M1626.6,752.013h-20.076l.844-2.346-.844-2.533h19.889l-1.22,2.627Z" transform="translate(-1256.453 -584.328)" fill="#ebf2f9"></path><path id="Trazado_6625" data-name="Trazado 6625" d="M1616.565,747.135v4.879h-10.038l.844-2.346-.844-2.533Z" transform="translate(-1256.453 -584.328)" fill="#a6c7f9"></path><rect id="Rect&#xE1;ngulo_4070" data-name="Rect&#xE1;ngulo 4070" width="653.722" height="1.09" transform="translate(2.358 276.91)" fill="#1c468a"></rect></g></g></svg>