<svg xmlns="http://www.w3.org/2000/svg" xmlns:xlink="http://www.w3.org/1999/xlink" width="70" height="70" viewBox="0 0 70 70"><defs><clipPath id="clip-path"><rect id="Rect&#xE1;ngulo_3363" data-name="Rect&#xE1;ngulo 3363" width="32.081" height="35" fill="#fff"></rect></clipPath></defs><g id="bjas-temperaturas" transform="translate(-892 -1082)"><circle id="Elipse_13" data-name="Elipse 13" cx="35" cy="35" r="35" transform="translate(892 1082)" fill="#3728ae"></circle><g id="Grupo_920" data-name="Grupo 920" transform="translate(914 1100)"><g id="Grupo_919" data-name="Grupo 919" clip-path="url(#clip-path)"><path id="Trazado_5299" data-name="Trazado 5299" d="M11.383,0a4.406,4.406,0,0,1,1.763.766A3.7,3.7,0,0,1,14.58,3.8q0,2.531,0,5.059,0,8.529-.006,17.058a1.129,1.129,0,0,0,.274.765,5.077,5.077,0,0,1-3.156,8.259A5.046,5.046,0,0,1,5.867,30.53a4.856,4.856,0,0,1,1.2-3.927.814.814,0,0,0,.213-.579c-.005-7.338.027-14.676-.024-22.014A3.825,3.825,0,0,1,10.376.043c.018,0,.033-.028.05-.043Zm1.728,15.013q0-5.334,0-10.668c0-.3,0-.594-.017-.889A2.173,2.173,0,0,0,9.965,1.694,2.269,2.269,0,0,0,8.732,3.919q.006,11.215.008,22.431a1.36,1.36,0,0,1-.409,1.035,3.627,3.627,0,1,0,5.447,4.773,3.554,3.554,0,0,0-.223-4.737,1.478,1.478,0,0,1-.449-1.124q.013-5.642.005-11.284" fill="#fff"></path><path id="Trazado_5300" data-name="Trazado 5300" d="M18.956,16.778c0,.9,0,1.8,0,2.7a2.21,2.21,0,0,0,2.4,2.407c.376,0,.752,0,1.128,0a2.187,2.187,0,0,0,2.3-2.094.809.809,0,0,1,.475-.765.715.715,0,0,1,.979.708,3.482,3.482,0,0,1-1.17,2.635,3.568,3.568,0,0,1-2.62.971,14.818,14.818,0,0,1-1.876-.054,3.608,3.608,0,0,1-3.074-3.635q-.037-2.871,0-5.743a3.588,3.588,0,0,1,3.48-3.671,9.824,9.824,0,0,1,2.514.115,3.542,3.542,0,0,1,2.747,3.369c.009.513-.245.833-.678.854s-.716-.258-.771-.775a2.187,2.187,0,0,0-2.338-2.121c-.489,0-.98-.011-1.469.016a2.114,2.114,0,0,0-2,2.008c-.036,1.024-.008,2.051-.008,3.076h-.013" fill="#fff"></path><path id="Trazado_5301" data-name="Trazado 5301" d="M29.882,14.58a2.183,2.183,0,0,1,.024-4.365,2.183,2.183,0,1,1-.024,4.365m0-2.9a.733.733,0,0,0-.714.72.753.753,0,0,0,.719.722.731.731,0,0,0,.722-.744.711.711,0,0,0-.727-.7" fill="#fff"></path><path id="Trazado_5302" data-name="Trazado 5302" d="M2.92,5.832c.683,0,1.366-.01,2.048,0,.573.011.9.357.825.84a.654.654,0,0,1-.539.581,1.789,1.789,0,0,1-.371.043c-1.32,0-2.64.005-3.96,0A1.276,1.276,0,0,1,.393,7.2a.656.656,0,0,1-.384-.728.62.62,0,0,1,.56-.6c.462-.044.93-.037,1.395-.045.319-.006.637,0,.956,0" fill="#fff"></path><path id="Trazado_5303" data-name="Trazado 5303" d="M2.938,14.585c.671,0,1.343-.007,2.014,0,.509.007.8.245.849.658a.693.693,0,0,1-.532.762,1.719,1.719,0,0,1-.371.045c-1.331,0-2.663,0-3.994,0a1.249,1.249,0,0,1-.526-.1.646.646,0,0,1-.372-.7.652.652,0,0,1,.547-.612,2.887,2.887,0,0,1,.542-.043c.614-.005,1.229,0,1.843,0" fill="#fff"></path><path id="Trazado_5304" data-name="Trazado 5304" d="M2.856,24.808c-.671,0-1.343.008-2.014,0C.35,24.8.064,24.569.008,24.171a.692.692,0,0,1,.538-.788,1.184,1.184,0,0,1,.27-.041c1.387,0,2.775-.008,4.163,0a.732.732,0,0,1,.82.65c.057.466-.271.8-.827.812-.488.013-.978,0-1.467,0H2.856" fill="#fff"></path><path id="Trazado_5305" data-name="Trazado 5305" d="M4.343,10.195c-.261,0-.524.018-.784,0a.708.708,0,0,1-.649-.676A.665.665,0,0,1,3.464,8.8a12.152,12.152,0,0,1,1.8,0,.646.646,0,0,1,.545.716.693.693,0,0,1-.648.672c-.271.023-.545.005-.818,0" fill="#fff"></path><path id="Trazado_5306" data-name="Trazado 5306" d="M4.371,11.689c.261,0,.524-.017.784,0a.7.7,0,0,1,.654.667.658.658,0,0,1-.571.731,11.857,11.857,0,0,1-1.768,0,.667.667,0,0,1-.56-.71.7.7,0,0,1,.643-.68c.271-.024.544-.005.818-.005v0" fill="#fff"></path><path id="Trazado_5307" data-name="Trazado 5307" d="M4.372,18.952c-.262,0-.524.017-.784,0a.714.714,0,0,1-.679-.684.7.7,0,0,1,.625-.731,13.117,13.117,0,0,1,1.635,0,.691.691,0,0,1,.643.714.707.707,0,0,1-.69.707c-.249.019-.5,0-.75,0h0" fill="#fff"></path><path id="Trazado_5308" data-name="Trazado 5308" d="M4.388,21.882c-.25,0-.5.014-.751,0a.735.735,0,0,1-.73-.714.727.727,0,0,1,.746-.727c.477-.016.956-.016,1.433,0a.71.71,0,0,1,.726.708.725.725,0,0,1-.708.73c-.237.019-.477,0-.716,0h0" fill="#fff"></path><path id="Trazado_5309" data-name="Trazado 5309" d="M11.656,21.531c0,2,0,4.011-.005,6.016a.408.408,0,0,0,.269.437,2.148,2.148,0,0,1,1.137,2.405,2.185,2.185,0,0,1-4.25.048,2.138,2.138,0,0,1,1.084-2.428.508.508,0,0,0,.316-.55q-.009-5.948,0-11.9c0-.546.159-.829.516-.928a.7.7,0,0,1,.907.541,1.905,1.905,0,0,1,.029.407q0,2.974,0,5.948M10.211,29.9a.728.728,0,0,0,.7.735.749.749,0,0,0,.745-.728.732.732,0,0,0-.722-.712.71.71,0,0,0-.719.7" fill="#fff"></path></g></g></g></svg>