<svg xmlns="http://www.w3.org/2000/svg" xmlns:xlink="http://www.w3.org/1999/xlink" width="70" height="70" viewBox="0 0 70 70"><defs><clipPath id="clip-path"><rect id="Rect&#xE1;ngulo_1762" data-name="Rect&#xE1;ngulo 1762" width="25.683" height="35" fill="#fff"></rect></clipPath></defs><g id="cauciones" transform="translate(-957 -1068)"><circle id="Elipse_7" data-name="Elipse 7" cx="35" cy="35" r="35" transform="translate(957 1068)" fill="#3728ae"></circle><g id="Grupo_811" data-name="Grupo 811" transform="translate(979 1086)"><g id="Grupo_473" data-name="Grupo 473" clip-path="url(#clip-path)"><path id="Trazado_2054" data-name="Trazado 2054" d="M19.4,0a6.168,6.168,0,0,1,.5.406c1.807,1.8,3.607,3.61,5.418,5.408a1.154,1.154,0,0,1,.363.879q-.007,13.174,0,26.348A1.78,1.78,0,0,1,23.732,35Q12.847,35,1.963,35A1.779,1.779,0,0,1,0,33.053Q0,17.5,0,1.955A1.886,1.886,0,0,1,1.425,0Zm-.734,1.164H2.086c-.758,0-.916.16-.916.926q0,15.411,0,30.822c0,.763.159.922.92.922H23.584c.772,0,.929-.154.929-.914q0-12.746,0-25.492c0-.433,0-.432-.451-.434-1.264,0-2.529.005-3.792-.023a1.469,1.469,0,0,1-1.34-.861,2.7,2.7,0,0,1-.249-1.077c-.029-1.274-.011-2.549-.011-3.87m1.191.95a.3.3,0,0,0-.021.091c0,.989-.011,1.978,0,2.966.006.452.229.65.692.654.75.007,1.5,0,2.25,0h.809L19.861,2.115" transform="translate(0)" fill="#fff"></path><path id="Trazado_2055" data-name="Trazado 2055" d="M120.188,185.215v1.171H119.8c-3.621,0-7.242,0-10.863.007-.331,0-.423-.089-.413-.417.023-.76.006-.761.779-.761h10.883Z" transform="translate(-98.614 -168.301)" fill="#fff"></path><rect id="Rect&#xE1;ngulo_1759" data-name="Rect&#xE1;ngulo 1759" width="11.635" height="1.119" transform="translate(9.938 11.099)" fill="#fff"></rect><rect id="Rect&#xE1;ngulo_1760" data-name="Rect&#xE1;ngulo 1760" width="11.635" height="1.119" transform="translate(9.938 22.776)" fill="#fff"></rect><rect id="Rect&#xE1;ngulo_1761" data-name="Rect&#xE1;ngulo 1761" width="11.635" height="1.119" transform="translate(9.938 28.599)" fill="#fff"></rect><path id="Trazado_2056" data-name="Trazado 2056" d="M48.316,174.262a1.744,1.744,0,1,1-1.723-1.756,1.748,1.748,0,0,1,1.723,1.756m-1.75.562a.571.571,0,1,0-.57-.563.584.584,0,0,0,.57.563" transform="translate(-40.734 -156.753)" fill="#fff"></path><path id="Trazado_2057" data-name="Trazado 2057" d="M48.311,110.333a1.745,1.745,0,1,1-3.49,0,1.745,1.745,0,0,1,3.49,0m-1.75-.575a.61.61,0,0,0-.572.572.588.588,0,0,0,.588.581.575.575,0,0,0,.565-.6.594.594,0,0,0-.582-.556" transform="translate(-40.728 -98.673)" fill="#fff"></path><path id="Trazado_2058" data-name="Trazado 2058" d="M48.312,238.181a1.745,1.745,0,1,1-1.73-1.745,1.735,1.735,0,0,1,1.73,1.745m-1.167-.007a.576.576,0,0,0-.561-.568.588.588,0,0,0-.593.576.608.608,0,0,0,.567.576.592.592,0,0,0,.588-.584" transform="translate(-40.729 -214.844)" fill="#fff"></path><path id="Trazado_2059" data-name="Trazado 2059" d="M48.315,301.976a1.744,1.744,0,1,1-3.489-.032,1.744,1.744,0,0,1,3.489.032m-1.167,0a.592.592,0,0,0-.587-.585.608.608,0,0,0-.568.576.59.59,0,0,0,.558.577.575.575,0,0,0,.6-.567" transform="translate(-40.732 -272.803)" fill="#fff"></path></g></g></g></svg>