<svg xmlns="http://www.w3.org/2000/svg" width="70" height="70" viewBox="0 0 70 70"><g id="cobertura9" transform="translate(-892 -1521)"><circle id="Elipse_19" data-name="Elipse 19" cx="35" cy="35" r="35" transform="translate(892 1521)" fill="#3728ae"></circle><path id="Uni&#xF3;n_2" data-name="Uni&#xF3;n 2" d="M-8072.357-6635.18c-3.776-2-8.247-4.359-12.754-6.708a1.41,1.41,0,0,1-.867-1.421c.014-2.136.014-4.309.014-6.408,0-1.332,0-2.71,0-4.064v-.027c0-.005,0-.011,0-.016-.005-.146-.041-.177-.16-.231-.67-.3-1.346-.625-2-.938l-.664-.317a1.071,1.071,0,0,1-.682-.763.79.79,0,0,1-.011-.118.567.567,0,0,1,0-.058,1.171,1.171,0,0,1,.388-.764c.747-.751,1.551-1.553,2.6-2.6a1.737,1.737,0,0,1,.132-.118c-.221-.221-.44-.438-.656-.656-.71-.708-1.38-1.378-2.059-2.053-.177-.176-.544-.542-.359-1a1.386,1.386,0,0,1,.621-.707c2.786-1.334,5.622-2.676,8.365-3.976l2.282-1.08q1.173-.554,2.339-1.11a1.532,1.532,0,0,1,.64-.187,1.17,1.17,0,0,1,.82.451c.554.554,1.108,1.108,1.667,1.668.327.327.654.656.987.987.035-.03.069-.063.1-.1l1.113-1.113c.5-.5.991-.993,1.486-1.486a1.1,1.1,0,0,1,.778-.412,1.39,1.39,0,0,1,.6.168c5.206,2.462,9.193,4.351,12.929,6.121.458.217.708.479.765.8a1.21,1.21,0,0,1-.467,1.033q-1.315,1.319-2.633,2.637l.089.092q.518.521,1.04,1.042c.512.511,1.042,1.039,1.559,1.561a1.123,1.123,0,0,1,.41.971,1.12,1.12,0,0,1-.708.775c-.847.406-1.748.838-2.66,1.257-.122.057-.138.081-.136.219,0,1.559,0,3.145,0,4.675,0,1.959,0,3.983.008,5.973a1.239,1.239,0,0,1-.733,1.218c-4.109,2.15-8.442,4.43-12.878,6.775a1.4,1.4,0,0,1-.658.183A1.415,1.415,0,0,1-8072.357-6635.18Zm1.119-1.909v0Zm.5-.408,2.024-1.064c3.041-1.6,6.188-3.254,9.284-4.876.07-.037.09-.051.095-.167v-.009s0-.01,0-.015h0v-.017h0v-.018c0-2.251,0-4.542,0-6.754v-2.652l-.136.063-2.338,1.108q-2.89,1.37-5.784,2.739a1.442,1.442,0,0,1-.627.181,1.14,1.14,0,0,1-.8-.436c-.268-.268-.536-.536-.806-.8l-.8-.8c-.032-.032-.065-.065-.1-.1Zm-13.324-13.513c0,2.432,0,4.947-.008,7.42,0,.079,0,.093.136.165l6.943,3.65,2.313,1.218q.816.43,1.643.861l.353.187v-13.6l-.325.325c-.465.467-.918.922-1.371,1.373a1.138,1.138,0,0,1-.8.43,1.467,1.467,0,0,1-.633-.183l-3.492-1.657-3.49-1.656c-.357-.171-.717-.337-1.088-.512l-.181-.085Zm26.132,7.912c0-.006,0-.012,0-.019S-8057.932-6643.1-8057.932-6643.1Zm0-.034c0-.014,0-.027,0-.042C-8057.93-6643.159-8057.93-6643.145-8057.931-6643.131Zm-26.643-.458c0,.009,0,.018,0,.026,0-.009,0-.018,0-.028Zm0-.016c0-1.1.006-2.209.007-3.315Q-8084.569-6645.263-8084.573-6643.6Zm26.637-1.532v0Zm0-.383c0-1.219,0-2.436,0-3.629s0-2.447,0-3.681C-8057.937-6650.393-8057.94-6647.957-8057.937-6645.519Zm-28.7-11.258c-.085.085-.17.17-.256.258l2.264,1.072c3.011,1.427,6.123,2.9,9.185,4.359a.366.366,0,0,0,.035.015.356.356,0,0,0,.063-.057c.422-.426.854-.859,1.271-1.275.25-.25.5-.5.745-.747l-.083-.041-3.313-1.569q-1.222-.576-2.44-1.155l-.851-.4c-1.535-.725-3.121-1.478-4.684-2.209a.334.334,0,0,0-.124-.022h-.012C-8085.438-6657.975-8086.021-6657.393-8086.636-6656.777Zm27.9-1.752c-2.308,1.1-4.655,2.208-6.927,3.285q-1.276.606-2.554,1.21c-.451.213-.9.429-1.36.65-.165.077-.331.156-.5.237.134.132.266.264.4.4.532.528,1.036,1.027,1.535,1.547.1.1.142.1.158.1a.464.464,0,0,0,.175-.055c2.294-1.094,4.626-2.2,6.884-3.269q.984-.466,1.965-.93l1.7-.81c.246-.116.493-.234.745-.355-.126-.126-.254-.25-.377-.375-.554-.548-1.076-1.068-1.6-1.606-.033-.035-.08-.075-.11-.075A.383.383,0,0,0-8058.732-6658.529Zm-25.831,5.238Zm26.619-.53v0Zm-13.914-11.085c-2.9,1.36-5.841,2.755-8.685,4.1l-.958.453c-.4.187-.792.377-1.208.577l-.081.039,2.718,1.287c2.676,1.267,5.441,2.576,8.158,3.87a.487.487,0,0,0,.215.059.509.509,0,0,0,.217-.059c1.947-.928,3.928-1.866,5.843-2.773l2.469-1.169c.84-.4,1.681-.8,2.56-1.216l-.416-.2c-3.464-1.64-7.043-3.337-10.567-5a.218.218,0,0,0-.081-.012A.44.44,0,0,0-8071.858-6664.906Zm-3.658-3.448c-2.546,1.212-5.139,2.438-7.644,3.624q-1.218.579-2.438,1.155c-.381.181-.755.359-1.151.55l-.14.065a.349.349,0,0,1,.026.028c.191.191.384.38.575.568.44.439.9.89,1.334,1.348.1.1.14.1.158.1a.472.472,0,0,0,.174-.055c2.814-1.342,5.681-2.7,8.45-4.014l2.83-1.342.014-.006c-.107-.109-.217-.217-.325-.325-.579-.575-1.127-1.119-1.673-1.681-.047-.047-.071-.059-.08-.059A.307.307,0,0,0-8075.516-6668.354Zm5.739,1.734c-.1.1-.195.195-.292.292l.024.012,5.184,2.457.611.291c1.821.863,3.7,1.754,5.555,2.623a.348.348,0,0,0,.116.02.054.054,0,0,0,.019,0c.586-.564,1.157-1.137,1.762-1.742l.29-.291a.4.4,0,0,1-.046-.022l-4.424-2.1-1.378-.654c-1.807-.854-3.675-1.74-5.514-2.606a.554.554,0,0,0-.132-.039C-8068.6-6667.8-8069.17-6667.229-8069.777-6666.62Z" transform="translate(8998.701 8208.75)" fill="#fff"></path></g></svg>