<svg xmlns="http://www.w3.org/2000/svg" xmlns:xlink="http://www.w3.org/1999/xlink" width="70" height="70" viewBox="0 0 70 70"><defs><clipPath id="clip-path"><rect id="Rect&#xE1;ngulo_573" data-name="Rect&#xE1;ngulo 573" width="35" height="34.985" fill="#fff"></rect></clipPath></defs><g id="cobertura8" transform="translate(-649 -1521)"><circle id="Elipse_18" data-name="Elipse 18" cx="35" cy="35" r="35" transform="translate(649 1521)" fill="#3728ae"></circle><g id="Grupo_355" data-name="Grupo 355" transform="translate(665.773 1538.508)"><g id="Grupo_354" data-name="Grupo 354" clip-path="url(#clip-path)"><path id="Trazado_471" data-name="Trazado 471" d="M0,29.38a10.584,10.584,0,0,1,1.585-3.519c.962-1.7,1.939-3.4,2.894-5.109a.752.752,0,0,0,.049-.529c-.207-.685-.452-1.359-.677-2.039-.208-.629.083-1.037.741-1.038q2.751,0,5.5,0c.678,0,.963.406.747,1.057-.181.548-.367,1.094-.559,1.664h4.147c0-.617.006-1.227-.009-1.837,0-.071-.113-.158-.192-.2a8,8,0,0,1-4.005-5.775,8.394,8.394,0,0,1-.1-1.428c0-1.172-.034-2.351.069-3.516A8.055,8.055,0,0,1,25.9,5.695c.024.073.055.144.092.241a3.74,3.74,0,0,1,2.826-.941c.547.022.772.258.8.8a3.662,3.662,0,0,1-1.439,3.292,1.538,1.538,0,0,1,.242.141,3.656,3.656,0,0,1,1.179,3.3.671.671,0,0,1-.724.583,3.786,3.786,0,0,1-2.753-.819c-.041.166-.071.293-.1.42a8.032,8.032,0,0,1-3.82,5.067.467.467,0,0,0-.272.48c.016.523.005,1.046.005,1.618h.379c1.47,0,2.939-.007,4.409.005a8.192,8.192,0,0,1,2.9.577.723.723,0,0,1,.53.567c.087.56-.4.9-.979.734-.642-.185-1.295-.338-1.949-.474a4.069,4.069,0,0,0-.817-.04c-1.663,0-3.326,0-4.99,0-.61,0-.844-.235-.846-.848s0-1.229,0-1.884a8.284,8.284,0,0,1-4.766-.005c0,.634,0,1.233,0,1.833,0,.688-.214.9-.893.9h-4.4c.079.146.137.261.2.372q1.611,2.834,3.223,5.668a4.992,4.992,0,0,1-.679,6.2,1.2,1.2,0,0,0-.074.108H33.63v-.345c0-1.583,0-3.167,0-4.75a7.953,7.953,0,0,0-.469-2.71.7.7,0,0,1,.594-1.037.59.59,0,0,1,.625.434,7.653,7.653,0,0,1,.6,2.822c.023,2.073.006,4.146.014,6.22a.846.846,0,0,1-.481.759H4.443a1.288,1.288,0,0,0-.189-.063A4.887,4.887,0,0,1,.436,31.966,11.1,11.1,0,0,1,0,30.542V29.38m7.32,4.186c0,.017,0,.034,0,.052.774,0,1.549.005,2.323,0a3.647,3.647,0,0,0,3.2-5.475c-1.247-2.235-2.53-4.45-3.789-6.679a.388.388,0,0,0-.4-.22c-.489.01-.979,0-1.469,0-.466,0-1.017-.135-1.373.067s-.483.742-.708,1.137C4,24.37,2.894,26.277,1.83,28.211a3.6,3.6,0,0,0,2.626,5.335,21.046,21.046,0,0,0,2.863.021M24.858,10.8a3.968,3.968,0,0,1-6.692.2A3.791,3.791,0,0,1,14.8,12.741a3.969,3.969,0,0,1-3.3-1.975,6.676,6.676,0,1,0,13.353.034m-.48-5.174a6.622,6.622,0,0,0-12.38,0ZM11.466,8.352H24.9L24.818,7.04H11.546l-.081,1.312m5.816,1.426H12.5a2.722,2.722,0,0,0,2.575,1.593,2.534,2.534,0,0,0,2.208-1.593M19.1,9.765a2.544,2.544,0,0,0,2.33,1.619,2.692,2.692,0,0,0,2.4-1.619ZM9.282,18.532H5.416c.138.413.258.8.4,1.181a.322.322,0,0,0,.244.159c.852.012,1.7.01,2.557,0,.084,0,.22-.053.243-.115.152-.4.279-.81.417-1.228M26.271,8.337A1.975,1.975,0,0,0,28.2,6.4a2.02,2.02,0,0,0-1.927,1.933m1.948,3.383A1.967,1.967,0,0,0,26.277,9.8a2.031,2.031,0,0,0,1.942,1.924" transform="translate(0 0)" fill="#fff"></path><path id="Trazado_472" data-name="Trazado 472" d="M344.1,242.864a.682.682,0,0,1,.688.658.7.7,0,0,1-.685.7.682.682,0,0,1,0-1.363" transform="translate(-312.061 -220.686)" fill="#fff"></path><path id="Trazado_473" data-name="Trazado 473" d="M59.186,257.47c.29,0,.551-.012.811,0A.675.675,0,1,1,60,258.822c-.4.022-.8.008-1.2.01-.114,0-.228,0-.341.006-.463.031-.777.286-.8.642-.02.376.274.635.763.716a4.036,4.036,0,0,1,1.083.259,1.972,1.972,0,0,1-.029,3.6.458.458,0,0,0-.323.5c.019.521-.262.834-.691.826s-.658-.3-.668-.817c0-.067,0-.135,0-.282-.327,0-.64.021-.95-.005a.656.656,0,0,1-.607-.631.677.677,0,0,1,.471-.677,1.491,1.491,0,0,1,.372-.038c.387,0,.774,0,1.161,0a2.85,2.85,0,0,0,.341-.016.741.741,0,0,0,.714-.656c.008-.341-.294-.615-.723-.685a4.376,4.376,0,0,1-1.025-.221A1.98,1.98,0,0,1,57.5,257.7a.437.437,0,0,0,.311-.476c-.021-.537.237-.838.669-.84s.678.294.691.832c0,.067.007.135.014.259" transform="translate(-51.111 -232.968)" fill="#fff"></path></g></g></g></svg>