<svg xmlns="http://www.w3.org/2000/svg" xmlns:xlink="http://www.w3.org/1999/xlink" width="70" height="70" viewBox="0 0 70 70"><defs><clipPath id="clip-path"><rect id="Rect&#xE1;ngulo_4005" data-name="Rect&#xE1;ngulo 4005" width="35" height="35" fill="#fff"></rect></clipPath></defs><g id="cobertura6" transform="translate(-161 -1521)"><circle id="Elipse_2" data-name="Elipse 2" cx="35" cy="35" r="35" transform="translate(161 1521)" fill="#3728ae"></circle><g id="Grupo_1367" data-name="Grupo 1367" transform="translate(178 1539)"><g id="Grupo_1366" data-name="Grupo 1366" clip-path="url(#clip-path)"><path id="Trazado_6478" data-name="Trazado 6478" d="M13.809,0h7.383a1.231,1.231,0,0,1,.761,1.34c-.033.454,0,.911-.01,1.367,0,.176.056.249.226.313.764.29,1.524.593,2.275.916a.306.306,0,0,0,.407-.08c.47-.48.951-.95,1.43-1.421a1.038,1.038,0,0,1,1.618.009q2.333,2.331,4.657,4.67a1.042,1.042,0,0,1-.007,1.643c-.433.437-.869.872-1.313,1.3a.28.28,0,0,0-.06.381c.351.788.693,1.581,1.02,2.38.072.176.15.246.343.238.375-.016.753.02,1.127-.01A1.207,1.207,0,0,1,35,13.808v7.383a1.211,1.211,0,0,1-1.334.766c-.374-.03-.752,0-1.127-.01a.305.305,0,0,0-.343.237q-.49,1.2-1.02,2.38a.281.281,0,0,0,.06.381c.444.425.88.86,1.313,1.3a1.042,1.042,0,0,1,.008,1.643q-2.323,2.339-4.657,4.669a1.044,1.044,0,0,1-1.642-.013c-.471-.464-.944-.925-1.406-1.4a.305.305,0,0,0-.407-.081c-.751.322-1.511.625-2.275.915-.17.065-.23.136-.227.312.009.536.007,1.071,0,1.606A1.024,1.024,0,0,1,20.864,35Q17.5,35,14.133,35a1.02,1.02,0,0,1-1.077-1.07c-.006-.535-.012-1.071,0-1.606.007-.212-.076-.286-.264-.357-.753-.286-1.5-.584-2.243-.9a.3.3,0,0,0-.4.087c-.488.5-.979.986-1.481,1.466A1.01,1.01,0,0,1,7.15,32.6q-2.372-2.364-4.73-4.741a1.025,1.025,0,0,1,.011-1.592c.432-.437.867-.873,1.313-1.3a.318.318,0,0,0,.066-.438c-.347-.765-.684-1.536-.993-2.317a.343.343,0,0,0-.39-.267c-.444.013-.888.008-1.333,0A1.022,1.022,0,0,1,0,20.861Q0,17.5,0,14.13a1.015,1.015,0,0,1,1.065-1.08c.467-.007.934-.013,1.4,0,.2.007.267-.074.337-.244.324-.787.656-1.572,1.008-2.347a.318.318,0,0,0-.075-.437C3.3,9.61,2.876,9.182,2.45,8.753a1.037,1.037,0,0,1,0-1.64Q4.773,4.774,7.105,2.444a1.037,1.037,0,0,1,1.617-.009c.489.478.967.967,1.463,1.436a.39.39,0,0,0,.337.065c.774-.3,1.538-.618,2.312-.914a.282.282,0,0,0,.224-.316c-.01-.455.024-.913-.009-1.366A1.23,1.23,0,0,1,13.809,0M32.936,15.135a.368.368,0,0,0-.088-.03L31.686,15.1a1.069,1.069,0,0,1-1.207-.915A13.332,13.332,0,0,0,29,10.746a1.07,1.07,0,0,1,.2-1.554c.416-.417.834-.832,1.241-1.237l-3.433-3.4c-.4.41-.809.847-1.232,1.275a1.127,1.127,0,0,1-1.666.24,12.972,12.972,0,0,0-3.257-1.29A1.083,1.083,0,0,1,19.9,3.563c0-.5,0-.993,0-1.488H15.1c0,.5,0,.98,0,1.457a1.084,1.084,0,0,1-.959,1.243A13.732,13.732,0,0,0,10.828,6.1a1.074,1.074,0,0,1-1.529-.2c-.448-.452-.883-.915-1.256-1.3L4.61,7.988l1.2,1.207A1.076,1.076,0,0,1,6,10.751a13.133,13.133,0,0,0-1.455,3.372c-.208.755-.506.975-1.3.975-.393,0-.785,0-1.164,0v4.8c.471,0,.915-.006,1.359,0a1,1,0,0,1,1.044.766,14.282,14.282,0,0,0,1.609,3.75.989.989,0,0,1-.155,1.255c-.155.167-.32.325-.483.483-.307.3-.617.594-.881.848l3.446,3.421c.426-.439.88-.918,1.347-1.384a1.02,1.02,0,0,1,1.364-.195A14.254,14.254,0,0,0,14.2,30.24a1.054,1.054,0,0,1,.9,1.181c0,.5,0,1,0,1.508H19.9c0-.5,0-.971,0-1.447a1.1,1.1,0,0,1,.977-1.263,13.06,13.06,0,0,0,3.2-1.262c.774-.428,1.1-.391,1.721.232.422.427.835.862,1.2,1.238l3.425-3.389-1.254-1.269a1.048,1.048,0,0,1-.179-1.474,13.529,13.529,0,0,0,1.5-3.5,1.06,1.06,0,0,1,1.188-.9c.417,0,.834,0,1.264,0Z" fill="#fff"></path><path id="Trazado_6479" data-name="Trazado 6479" d="M17.516,6.9A10.6,10.6,0,1,1,6.906,17.466,10.61,10.61,0,0,1,17.516,6.9m0,19.144a8.547,8.547,0,1,0-8.561-8.522,8.558,8.558,0,0,0,8.561,8.522" fill="#fff"></path><path id="Trazado_6480" data-name="Trazado 6480" d="M17.446,11.062a.982.982,0,0,1,1.009.949c.007.243.1.318.31.4a4.377,4.377,0,0,1,.905.466,1.016,1.016,0,0,1-1.137,1.685,1.71,1.71,0,0,0-1.364-.266.828.828,0,0,0-.668.729.6.6,0,0,0,.426.691c.643.286,1.294.556,1.942.831A2.966,2.966,0,0,1,20.71,18.6a3.334,3.334,0,0,1-1.954,3.833.408.408,0,0,0-.3.449.994.994,0,0,1-.98,1.05,1,1,0,0,1-1.054-.984c-.013-.222-.086-.279-.294-.353a8.819,8.819,0,0,1-1.453-.654,1.013,1.013,0,1,1,1.083-1.711,2.746,2.746,0,0,0,1.79.417,1.29,1.29,0,0,0,1.178-1.061.952.952,0,0,0-.633-1.143c-.7-.3-1.413-.571-2.1-.9a2.571,2.571,0,0,1-1.462-1.665,2.908,2.908,0,0,1,1.557-3.369.453.453,0,0,0,.334-.462,1,1,0,0,1,1.017-.984" fill="#fff"></path></g></g></g></svg>