<svg xmlns="http://www.w3.org/2000/svg" xmlns:xlink="http://www.w3.org/1999/xlink" width="70" height="70" viewBox="0 0 70 70"><defs><clipPath id="clip-path"><rect id="Rect&#xE1;ngulo_3986" data-name="Rect&#xE1;ngulo 3986" width="19.829" height="35" fill="#fff" stroke="#fff" stroke-linecap="round" stroke-width="1"></rect></clipPath></defs><g id="cobertura3" transform="translate(-649 -1361)"><circle id="Elipse_2" data-name="Elipse 2" cx="35" cy="35" r="35" transform="translate(649 1361)" fill="#3728ae"></circle><g id="Grupo_1337" data-name="Grupo 1337" transform="translate(673.358 1378.5)"><g id="Grupo_1336" data-name="Grupo 1336" clip-path="url(#clip-path)"><path id="Uni&#xF3;n_1" data-name="Uni&#xF3;n 1" d="M-7852.709-6474.5l-.142-.124a1.293,1.293,0,0,1-.3-1.6c1.762-4.173,3.542-8.422,5.265-12.53l.871-2.077-3.262,0c-.6,0-1.2,0-1.8,0a1.227,1.227,0,0,1-1.141-.511,1.226,1.226,0,0,1,.055-1.25l1.116-2.229c2.436-4.871,4.955-9.906,7.424-14.863a1.346,1.346,0,0,1,1.293-.814h.01c1.829.008,3.688.008,5.485.008q1.733,0,3.467,0a1.513,1.513,0,0,1,.68.132.99.99,0,0,1,.558.633,1.215,1.215,0,0,1-.2,1.009q-1.156,1.833-2.318,3.668l-.641,1.007-3.3,5.217h2.621q1.553,0,3.108,0h.03a1.157,1.157,0,0,1,1.2.665,1.251,1.251,0,0,1-.3,1.352q-3.891,4.615-7.777,9.232l-10.515,12.482a3.213,3.213,0,0,1-.345.337c-.043.042-.088.081-.132.122l-.146.136Zm9.849-33.818c-2.328,4.638-4.687,9.358-6.969,13.921l-.7,1.4h4.853a1.384,1.384,0,0,1,1.175.469,1.357,1.357,0,0,1-.016,1.246q-2,4.781-4,9.562l12.6-14.936-2.137,0c-.924,0-2.14,0-3.356-.012a1.538,1.538,0,0,1-.97-.347.916.916,0,0,1-.319-.861,1.635,1.635,0,0,1,.264-.609c2.1-3.278,4.22-6.611,6.28-9.845h-1.338C-7839.489-6508.33-7841.175-6508.328-7842.86-6508.318Z" transform="translate(7852.859 6510)" fill="#fff"></path></g></g></g></svg>