<svg xmlns="http://www.w3.org/2000/svg" xmlns:xlink="http://www.w3.org/1999/xlink" width="70" height="70" viewBox="0 0 70 70"><defs><clipPath id="clip-path"><rect id="Rect&#xE1;ngulo_4006" data-name="Rect&#xE1;ngulo 4006" width="34.992" height="35" fill="#fff"></rect></clipPath></defs><g id="cobertura10" transform="translate(-1136 -1521)"><circle id="Elipse_20" data-name="Elipse 20" cx="35" cy="35" r="35" transform="translate(1136 1521)" fill="#3728ae"></circle><g id="Grupo_1369" data-name="Grupo 1369" transform="translate(1153.004 1538.5)"><g id="Grupo_1368" data-name="Grupo 1368" clip-path="url(#clip-path)"><path id="Trazado_6481" data-name="Trazado 6481" d="M17.522,0A17.5,17.5,0,1,1,0,17.446,17.521,17.521,0,0,1,17.522,0m0,31.614A14.114,14.114,0,1,0,3.386,17.541,14.133,14.133,0,0,0,17.524,31.615" transform="translate(0 -0.001)" fill="#fff"></path><path id="Trazado_6482" data-name="Trazado 6482" d="M77.291,45.557a1.621,1.621,0,0,1,1.666,1.567c.012.4.168.525.512.657a7.269,7.269,0,0,1,1.5.77,1.678,1.678,0,0,1-1.878,2.782,2.829,2.829,0,0,0-2.254-.439,1.373,1.373,0,0,0-1.1,1.2.989.989,0,0,0,.7,1.141c1.063.472,2.137.917,3.208,1.371a4.9,4.9,0,0,1,3.039,3.4,5.5,5.5,0,0,1-3.226,6.329.675.675,0,0,0-.489.741,1.643,1.643,0,0,1-1.619,1.735,1.661,1.661,0,0,1-1.74-1.626c-.022-.366-.142-.46-.485-.582a14.472,14.472,0,0,1-2.4-1.08A1.672,1.672,0,1,1,74.509,60.7a4.538,4.538,0,0,0,2.957.689,2.132,2.132,0,0,0,1.946-1.752,1.571,1.571,0,0,0-1.046-1.887c-1.155-.495-2.333-.944-3.462-1.494a4.246,4.246,0,0,1-2.415-2.749,4.8,4.8,0,0,1,2.571-5.563.75.75,0,0,0,.551-.763,1.645,1.645,0,0,1,1.68-1.626" transform="translate(-61.07 -38.687)" fill="#fff"></path><path id="Trazado_6483" data-name="Trazado 6483" d="M136.749,77.617h-1.834V73.944h-3.68V72.109H134.9V68.43h1.834V72.1h3.68v1.834h-3.668Z" transform="translate(-111.444 -58.11)" fill="#fff"></path></g></g></g></svg>