<svg xmlns="http://www.w3.org/2000/svg" xmlns:xlink="http://www.w3.org/1999/xlink" width="70" height="70" viewBox="0 0 70 70"><defs><clipPath id="clip-path"><rect id="Rect&#xE1;ngulo_4004" data-name="Rect&#xE1;ngulo 4004" width="33.622" height="35" fill="#fff"></rect></clipPath></defs><g id="cobertura4" transform="translate(-892 -1351)"><circle id="Elipse_2" data-name="Elipse 2" cx="35" cy="35" r="35" transform="translate(892 1351)" fill="#3728ae"></circle><g id="Grupo_1365" data-name="Grupo 1365" transform="translate(909.689 1368.5)"><g id="Grupo_1364" data-name="Grupo 1364" clip-path="url(#clip-path)"><path id="Trazado_6477" data-name="Trazado 6477" d="M20.913,0a1.244,1.244,0,0,1,.83,1.269c.134,2.387.3,4.772.461,7.219.168-.094.3-.166.431-.243,2.166-1.277,4.328-2.561,6.5-3.824a1.442,1.442,0,0,1,.83-.208,1,1,0,0,1,.68,1.57c-.568.986-1.153,1.962-1.731,2.942l-2.254,3.824c-.055.094-.1.193-.178.335l2.063.24c1.39.162,2.782.318,4.172.486a1.023,1.023,0,0,1,.347,1.923c-1.285.756-2.576,1.5-3.864,2.251l-2.23,1.3c.947.89,1.867,1.756,2.788,2.62Q30.982,22.853,32.2,24a1.059,1.059,0,0,1,.345,1.338,1.091,1.091,0,0,1-1.249.531q-3.693-.46-7.388-.907c-.044,0-.088,0-.174,0,.069.6.134,1.18.206,1.761.239,1.943.485,3.885.718,5.829.1.879-.478,1.489-1.238,1.281a1.431,1.431,0,0,1-.612-.4q-2.342-2.466-4.658-4.955a2.781,2.781,0,0,1-.234-.354l-1.388,2.415c-.748,1.3-1.493,2.607-2.246,3.906a1.02,1.02,0,0,1-1.927-.407c-.047-.373-.086-.746-.127-1.12-.188-1.719-.375-3.439-.568-5.207-.128.067-.236.117-.338.177C9.109,29.189,6.9,30.5,4.674,31.792a1.473,1.473,0,0,1-.8.221,1,1,0,0,1-.748-1.536c.529-.929,1.082-1.845,1.625-2.767l2.357-4c.061-.1.118-.212.2-.363-.763-.084-1.483-.164-2.2-.241-1.346-.145-2.694-.283-4.04-.435a1.055,1.055,0,0,1-1.05-.859,1.071,1.071,0,0,1,.655-1.157l5.832-3.347c.088-.051.175-.1.388-.23a2.156,2.156,0,0,1-.349-.214q-2.5-2.334-4.987-4.673a1.077,1.077,0,0,1-.37-1.163,1.018,1.018,0,0,1,1.154-.7c1,.115,1.988.246,2.982.368l4.8.586c-.014-.3-.023-.574-.041-.851Q9.9,7.657,9.7,4.879A1.053,1.053,0,0,1,10.3,3.721a1.068,1.068,0,0,1,1.266.308c1.412,1.342,2.83,2.676,4.268,4.034.069-.125.13-.23.187-.338Q17.827,4.28,19.629.832A1.664,1.664,0,0,1,20.434,0Zm5.935,8.159c-.188.1-.3.156-.4.216-1.5.883-3,1.774-4.505,2.643a1.5,1.5,0,0,1-.766.21c-.562-.024-.882-.429-.929-1.109-.084-1.2-.153-2.409-.23-3.614-.034-.542-.073-1.085-.11-1.627a.8.8,0,0,0-.24.3c-.841,1.6-1.711,3.189-2.51,4.811a1.129,1.129,0,0,1-1.957.317c-.95-.966-1.961-1.871-2.947-2.8-.086-.082-.178-.157-.306-.269,0,.161-.006.26,0,.359.1,1.523.194,3.046.3,4.568.065.95-.412,1.4-1.361,1.284q-2.083-.263-4.167-.52c-.478-.059-.957-.109-1.435-.163-.023.036-.046.072-.068.108a2.766,2.766,0,0,1,.3.214q1.8,1.68,3.587,3.368a1.048,1.048,0,0,1-.228,1.859q-2.131,1.221-4.262,2.446c-.082.047-.157.1-.292.2.822.087,1.566.164,2.31.245s1.516.175,2.274.252c1.036.105,1.421.839.9,1.73q-1.324,2.25-2.651,4.5c-.059.1-.112.206-.21.386.177-.1.275-.145.369-.2,1.539-.907,3.075-1.819,4.618-2.72a1.019,1.019,0,0,1,1.6.732c.127,1.062.232,2.127.349,3.191.056.51.116,1.019.185,1.627.115-.191.175-.286.231-.382q1.2-2.088,2.4-4.174a1.054,1.054,0,0,1,1.879-.222q1.688,1.789,3.37,3.585c.077.083.162.158.3.29-.013-.209-.014-.323-.027-.435-.212-1.74-.417-3.48-.642-5.219-.127-.979.332-1.485,1.318-1.373,1.2.135,2.4.294,3.592.441.684.084,1.368.164,2.052.245l.082-.112a1.734,1.734,0,0,1-.283-.178q-1.785-1.668-3.563-3.343c-.784-.736-.7-1.418.231-1.963q2.021-1.177,4.042-2.351c.091-.053.177-.114.293-.19a.726.726,0,0,0-.133-.058c-1.425-.166-2.846-.374-4.275-.481a1.107,1.107,0,0,1-.914-1.791c.914-1.454,1.758-2.952,2.63-4.432.061-.1.112-.21.211-.4" fill="#fff"></path></g></g></g></svg>