<svg xmlns="http://www.w3.org/2000/svg" xmlns:xlink="http://www.w3.org/1999/xlink" width="70" height="70" viewBox="0 0 70 70"><defs><clipPath id="clip-path"><rect id="Rect&#xE1;ngulo_4120" data-name="Rect&#xE1;ngulo 4120" width="44.242" height="35" fill="#fff"></rect></clipPath></defs><g id="cobertura7" transform="translate(-405 -1521)"><circle id="Elipse_17" data-name="Elipse 17" cx="35" cy="35" r="35" transform="translate(405 1521)" fill="#3728ae"></circle><g id="Grupo_1439" data-name="Grupo 1439" transform="translate(417.379 1538.5)"><g id="Grupo_1438" data-name="Grupo 1438" clip-path="url(#clip-path)"><path id="Trazado_6691" data-name="Trazado 6691" d="M0,2.3A3.078,3.078,0,0,1,1.551.282,2.757,2.757,0,1,1,.164,3.651C.111,3.488.055,3.326,0,3.163V2.3m2.761-.444a.908.908,0,0,0-.908.9.939.939,0,0,0,.895.921.935.935,0,0,0,.928-.929.906.906,0,0,0-.915-.889" fill="#fff"></path><path id="Trazado_6692" data-name="Trazado 6692" d="M19.791,31.272a6.606,6.606,0,0,1-6.279-2.448,5.993,5.993,0,0,1-1.518-4.114,6.692,6.692,0,0,1,2.183-4.688A8.691,8.691,0,0,1,20.5,17.5c1.135.013,2.269,0,3.429,0,.01-.149.025-.259.025-.37,0-2.852,0-5.7,0-8.555a3.686,3.686,0,0,0-2.115-3.613,5.839,5.839,0,0,0-1.623-.351c-.31-.049-.635,0-.947-.04a.891.891,0,0,1-.83-.89.872.872,0,0,1,.816-.9,5.587,5.587,0,0,1,5.464,2.246,5.983,5.983,0,0,1,1.089,3.656q0,4.126,0,8.252v.512a.8.8,0,0,0,.874-.215c2.419-2.156,4.824-4.328,7.292-6.426a15.551,15.551,0,0,1,2.463-1.489,1.236,1.236,0,0,1,.584-.108q3.046-.01,6.092,0c.76,0,1.12.353,1.12,1.106q0,9.957,0,19.916c0,.762-.367,1.1-1.174,1.1q-5.9,0-11.795,0a.527.527,0,0,0-.56.329A5.718,5.718,0,0,1,25.291,35a5.761,5.761,0,0,1-5.381-3.484l-.119-.244m11.546-1.8c.118.01.2.023.285.023,3.47,0,6.94,0,10.41.009.37,0,.376-.175.376-.449-.006-3.081-.011-6.163,0-9.244,0-.385-.1-.479-.482-.477-3.024.015-6.047.008-9.071.008q-5.616,0-11.231-.006c-.325,0-.469.066-.444.426.031.444.017.892,0,1.338a.937.937,0,0,1-.9,1.011,4.4,4.4,0,0,0-1.146.35c-.277.14-.63.383-.693.642a1.1,1.1,0,0,1-1.207.866c-.763-.01-1.526,0-2.289,0h-1c-.749,2.4,1.864,6.034,5.4,5.478a6.025,6.025,0,0,1,1.613-4.488,5.828,5.828,0,0,1,4.38-1.912A5.742,5.742,0,0,1,29.2,24.451a6.017,6.017,0,0,1,2.141,5.02m-1.857-.394a4.138,4.138,0,1,0-4.2,4.083,4.118,4.118,0,0,0,4.2-4.083M42.356,17.491a.66.66,0,0,0,.04-.129c0-2,0-4,.013-6,0-.294-.14-.32-.372-.319-1.569.006-3.138,0-4.706.008a1.293,1.293,0,0,0-.493.119,16.545,16.545,0,0,0-3.893,2.966c.53.525,1.052,1,1.516,1.522a1.726,1.726,0,0,1,.5.938c.011.3-.285.618-.425.887h5.081c.008-.163.02-.3.02-.444,0-.964,0-1.928,0-2.892,0-.822.318-1.24.93-1.232.588.007.906.433.907,1.218q0,1.359,0,2.72v.638ZM19.319,19.415a7.079,7.079,0,0,0-4.527,2.691c.687,0,1.261.011,1.834-.009a.524.524,0,0,0,.337-.2,3.994,3.994,0,0,1,1.71-1.27c.712-.3.718-.288.679-1.056a1.107,1.107,0,0,0-.033-.156m14.328-1.924-1.936-2.256-2.543,2.256Z" fill="#fff"></path><path id="Trazado_6693" data-name="Trazado 6693" d="M14.375,15.222a25.363,25.363,0,0,1-1.689,2.071A5.066,5.066,0,0,1,8.8,18.866a4.249,4.249,0,0,1-4.038-3.712,1.433,1.433,0,0,0-.662-1.1A4.185,4.185,0,0,1,2.561,8.985a4.345,4.345,0,0,1,4.6-2.819c.352.047.454-.074.557-.386a5.361,5.361,0,0,1,3.84-3.794A5.129,5.129,0,0,1,17.7,5.495a7.458,7.458,0,0,1,.057,3.8.568.568,0,0,0,.216.661,3.124,3.124,0,0,1,.323,4.772,3.216,3.216,0,0,1-3.17.749c-.277-.07-.544-.181-.752-.251M6.737,7.937A2.706,2.706,0,0,0,4.169,9.964a2.336,2.336,0,0,0,1.323,2.79A1.622,1.622,0,0,1,6.51,14.322a3.91,3.91,0,0,0,.573,1.727,2.514,2.514,0,0,0,3.43.586,5.335,5.335,0,0,0,2.35-2.876c.365-.916.855-1.045,1.719-.557a4.872,4.872,0,0,0,1.344.537,1.179,1.179,0,0,0,1.27-.55,1.121,1.121,0,0,0-.035-1.371A4.49,4.49,0,0,0,16.235,11a1.007,1.007,0,0,1-.545-.909,4.418,4.418,0,0,1,.172-.754A6.4,6.4,0,0,0,16.075,6.7a3.266,3.266,0,0,0-2.213-2.829,3.135,3.135,0,0,0-3.411.817,4.512,4.512,0,0,0-1.2,2.575c-.147.888-.595,1.164-1.468.918-.343-.1-.7-.16-1.044-.239" fill="#fff"></path><path id="Trazado_6694" data-name="Trazado 6694" d="M40.1,21.191c.2.01.4.006.6.034a.9.9,0,0,1,.766.815.838.838,0,0,1-.626.914,5.13,5.13,0,0,1-1.367.036.869.869,0,0,1-.751-.91.912.912,0,0,1,.858-.866c.171-.016.345,0,.518,0v-.02" fill="#fff"></path><path id="Trazado_6695" data-name="Trazado 6695" d="M26.716,29.012A1.353,1.353,0,0,1,25.371,30.4a1.374,1.374,0,0,1-1.405-1.377,1.4,1.4,0,0,1,1.377-1.376,1.376,1.376,0,0,1,1.373,1.369m-.727.037c-.283-.222-.43-.42-.61-.458a.437.437,0,1,0-.03.871c.182-.023.343-.212.64-.413" fill="#fff"></path></g></g></g></svg>