<svg xmlns="http://www.w3.org/2000/svg" xmlns:xlink="http://www.w3.org/1999/xlink" width="70" height="70" viewBox="0 0 70 70"><defs><clipPath id="clip-path"><rect id="Rect&#xE1;ngulo_4123" data-name="Rect&#xE1;ngulo 4123" width="40" height="27.718" transform="translate(0 -0.001)" fill="#fff"></rect></clipPath></defs><g id="cobertura5" transform="translate(-1136 -1361)"><circle id="Elipse_1" data-name="Elipse 1" cx="35" cy="35" r="35" transform="translate(1136 1361)" fill="#3728ae"></circle><g id="Grupo_1441" data-name="Grupo 1441" transform="translate(1150.5 1382.142)"><g id="Grupo_1440" data-name="Grupo 1440" clip-path="url(#clip-path)"><path id="Trazado_6696" data-name="Trazado 6696" d="M17.385,7.718c.192-1.819.744-2.58,1.914-2.559a2.216,2.216,0,0,1,1.158.362,2.112,2.112,0,0,1,.708.939,5.393,5.393,0,0,1,.177,1.26c.382,0,.782,0,1.181,0A1.931,1.931,0,0,1,24.513,9.7c.009,1.021.006,2.042.009,3.063a.48.48,0,0,0,.044.112c.679,0,1.374.016,2.067-.015.131-.005.28-.179.377-.308Q30.6,7.793,34.172,3.02c.418-.557.654-.6,1.244-.206.538.356,1.077.709,1.609,1.074.441.3.527.625.213,1.055a1.469,1.469,0,0,0-.244,1.3c.375,1.689.692,3.391,1.03,5.089a.663.663,0,0,1-.632.9,1.3,1.3,0,0,0-1.264,1.306,1.291,1.291,0,0,0,2.572.148c.009-.04.015-.079.031-.163h1.218a2.48,2.48,0,0,1-1.888,2.5A2.577,2.577,0,0,1,36.317,11.2c.19-.091.35-.145.29-.425-.243-1.128-.463-2.261-.693-3.391-.012-.061-.032-.12-.068-.25-1.245,1.935-2.454,3.816-3.668,5.7.614.175.722.321.723.948,0,.547,0,1.094,0,1.691a3.574,3.574,0,0,1,2.056.533c1.226.509,2.444,1.04,3.672,1.545A2.014,2.014,0,0,1,40,19.609c-.011.765.006,1.532-.005,2.3A2.579,2.579,0,0,1,37.4,24.492c-.363,0-.727.021-1.088-.006-.291-.021-.4.093-.515.358A4.317,4.317,0,0,1,31.857,27.7a4.173,4.173,0,0,1-4.227-2.453,1.188,1.188,0,0,0-1.319-.762c-4.6.022-9.191.014-13.787.006a.534.534,0,0,0-.61.4,4.489,4.489,0,0,1-8.36-.033c-.113-.291-.25-.394-.551-.363-.266.028-.538-.01-.805.008A2.246,2.246,0,0,1,0,22.285c0-.255,0-.51,0-.766,0-.6.079-.714.645-.939,0-.716,0-1.44,0-2.165a4.214,4.214,0,0,1,4.088-4.406c1.445-.116,2.888-.271,4.33-.429a.88.88,0,0,0,.5-.268c.922-1.013,1.86-2.016,2.73-3.074a6.175,6.175,0,0,1,5.088-2.52m5.826,15.469c.006-.1.013-.166.013-.231q0-6.589,0-13.18c0-.526-.239-.763-.765-.764-1.693-.005-3.386.012-5.079-.006a4.7,4.7,0,0,0-3.785,1.722c-.974,1.129-2.013,2.2-2.954,3.358a2.23,2.23,0,0,1-1.728.822c-1.539.12-3.074.3-4.609.464a2.285,2.285,0,0,0-1.428.734H3.948c1.13,0,1.224.094,1.213,1.206a1.942,1.942,0,0,1-2.038,2.019c-.385,0-.77,0-1.16,0v1.29c.563,0,1.1-.017,1.634.007A.79.79,0,0,0,4.3,20.3a4.5,4.5,0,0,1,7.288.557,4.869,4.869,0,0,1,.679,2.333Zm1.333-6.436v6.42h2.538a4.541,4.541,0,0,1,9.082.032c.383,0,.77,0,1.156,0a1.3,1.3,0,0,0,1.387-1.385c.005-.739-.013-1.478.006-2.216a.809.809,0,0,0-.574-.857c-1.5-.619-2.988-1.265-4.486-1.888a1.554,1.554,0,0,0-.584-.1q-3.465-.01-6.93-.005ZM31.6,14.166c-.247,0-.461.017-.671,0a.633.633,0,0,1-.525-.942,2.484,2.484,0,0,1,.165-.276l5.056-7.86c.084-.13.158-.266.247-.415l-.886-.586c-.121.158-.211.274-.3.391q-3.458,4.609-6.91,9.224a1.038,1.038,0,0,1-.946.479c-.761-.025-1.523-.007-2.291-.007V15.43H31.6ZM10.966,23.228a3.224,3.224,0,1,0-3.26,3.2,3.232,3.232,0,0,0,3.26-3.2m23.87-.009a3.225,3.225,0,1,0-3.252,3.208,3.233,3.233,0,0,0,3.252-3.208M3.38,21.912H1.308c.01,1.344.553,1.388,1.886,1.251.06-.405.12-.81.186-1.251M19.989,7.7c-.011-.433.159-.913-.319-1.159a.813.813,0,0,0-.694.042c-.42.274-.238.725-.257,1.117ZM1.965,18.009c1.3.072,1.852.123,1.86-.613H2.586c-.561,0-.561,0-.621.613" fill="#fff"></path><path id="Trazado_6697" data-name="Trazado 6697" d="M14.9.916,16.05.339,17.984,4.2l-1.15.577C16.185,3.484,15.548,2.21,14.9.916" fill="#fff"></path><path id="Trazado_6698" data-name="Trazado 6698" d="M21.859,4.785l-1.151-.576c.642-1.286,1.275-2.553,1.929-3.861l1.155.569L21.859,4.785" fill="#fff"></path><path id="Trazado_6699" data-name="Trazado 6699" d="M11.965,4.43l.577-1.153L16.4,5.2c-.19.386-.369.753-.567,1.157L11.965,4.43" fill="#fff"></path><path id="Trazado_6700" data-name="Trazado 6700" d="M22.281,5.21l3.865-1.934.577,1.149L22.86,6.36l-.579-1.15" fill="#fff"></path><rect id="Rect&#xE1;ngulo_4121" data-name="Rect&#xE1;ngulo 4121" width="1.234" height="3.834" transform="translate(18.733 -0.001)" fill="#fff"></rect><path id="Trazado_6701" data-name="Trazado 6701" d="M16.416,15.46c-1.532,0-3.064,0-4.6,0-.327,0-.62-.04-.782-.371-.174-.355.009-.61.23-.866.913-1.058,1.836-2.108,2.723-3.187a3.571,3.571,0,0,1,3.02-1.392c1.37.034,2.741.006,4.112.009.582,0,.809.224.81.8q0,2.1,0,4.193c0,.581-.225.809-.8.81q-2.358,0-4.716,0m-3.393-1.312h7.594v-3.2c-1.4,0-2.767-.033-4.134.022a1.729,1.729,0,0,0-1.074.472c-.819.843-1.564,1.758-2.386,2.7" fill="#fff"></path><path id="Trazado_6702" data-name="Trazado 6702" d="M20.644,16.116H21.91c.008.114.023.228.023.342,0,1.344,0,2.687,0,4.031a1.938,1.938,0,0,1-2.069,2.067q-3.063,0-6.127,0c-.531,0-.7-.108-.853-.611a6.436,6.436,0,0,0-1.644-2.731.861.861,0,0,1-.259-.519c-.026-.844-.012-1.689-.012-2.562h1.3c0,.658-.014,1.312.009,1.965a.909.909,0,0,0,.195.532,7.349,7.349,0,0,1,1.432,2.362.36.36,0,0,0,.407.279c1.855-.009,3.709,0,5.563-.007.526,0,.762-.239.764-.765,0-1.3,0-2.607,0-3.91v-.474" fill="#fff"></path><rect id="Rect&#xE1;ngulo_4122" data-name="Rect&#xE1;ngulo 4122" width="1.887" height="1.249" transform="translate(18.091 16.13)" fill="#fff"></rect><path id="Trazado_6703" data-name="Trazado 6703" d="M7.706,25.781a2.579,2.579,0,1,1,2.614-2.554,2.589,2.589,0,0,1-2.614,2.554m.041-1.29a1.289,1.289,0,1,0-1.3-1.273,1.3,1.3,0,0,0,1.3,1.273" fill="#fff"></path><path id="Trazado_6704" data-name="Trazado 6704" d="M34.19,23.2A2.579,2.579,0,1,1,31.6,20.623,2.587,2.587,0,0,1,34.19,23.2m-1.29-.014a1.289,1.289,0,1,0-1.262,1.306A1.3,1.3,0,0,0,32.9,23.185" fill="#fff"></path></g></g></g></svg>