<svg xmlns="http://www.w3.org/2000/svg" xmlns:xlink="http://www.w3.org/1999/xlink" width="70" height="70" viewBox="0 0 70 70"><defs><clipPath id="clip-path"><rect id="Rect&#xE1;ngulo_3987" data-name="Rect&#xE1;ngulo 3987" width="45" height="45" fill="#fff"></rect></clipPath></defs><g id="colision" transform="translate(-802 -986)"><circle id="Elipse_2" data-name="Elipse 2" cx="35" cy="35" r="35" transform="translate(802 986)" fill="#3728ae"></circle><g id="Grupo_1338" data-name="Grupo 1338" transform="translate(814.5 998.499)" clip-path="url(#clip-path)"><path id="Trazado_6227" data-name="Trazado 6227" d="M0,32.161a.7.7,0,0,1,.788-.353.434.434,0,0,0,.494-.258c.745-1.181,1.512-2.348,2.253-3.532a.765.765,0,0,1,.832-.451.965.965,0,0,0,1.084-.542c.231-.378.53-.713.792-1.073a1.054,1.054,0,0,1,1-.5c.3.032.432-.1.553-.352.447-.93.917-1.849,1.409-2.835-.274,0-.5.01-.735,0a1.605,1.605,0,0,1-1.574-1.4,1.577,1.577,0,0,1,1.132-1.712,2.569,2.569,0,0,1,.645-.069c.662-.01,1.325-.007,1.987-.01a.6.6,0,0,0,.114-.04c-.162-.321-.313-.642-.49-.948-.03-.053-.165-.064-.252-.064-.487-.006-.973,0-1.46,0-.4,0-.63-.208-.625-.533s.243-.524.639-.525q2.8,0,5.589,0c.413,0,.662.211.657.54s-.244.517-.672.518c-.878,0-1.757,0-2.712,0,.182.359.329.682.51.985.039.064.2.075.308.075,1.646,0,3.291.013,4.937,0a3.245,3.245,0,0,1,3.18,1.955,1.644,1.644,0,0,0,.49.572q2.523,1.86,5.069,3.689a.824.824,0,0,0,.45.146q2.1.017,4.192,0a1.08,1.08,0,0,1,.865,1.859q-2.348,2.812-4.687,5.631a.644.644,0,0,0-.157.292c.23-.126.463-.246.688-.38A7.5,7.5,0,0,1,30.83,31.8a3.438,3.438,0,0,1,.434,0,.528.528,0,1,1-.02,1.056c-.494.045-.991.072-1.477.157a6.924,6.924,0,0,0-2.17.884,7.745,7.745,0,0,1-8.06-.015,6.8,6.8,0,0,0-7.159-.059,7.931,7.931,0,0,1-7.771.309c-.326-.156-.624-.367-.944-.536a6.25,6.25,0,0,0-2.919-.733A.823.823,0,0,1,0,32.533Zm2.324-.281c.818.377,1.633.7,2.4,1.115a6.872,6.872,0,0,0,7.084-.071,7.706,7.706,0,0,1,8.134-.01,7.122,7.122,0,0,0,4.369.967.8.8,0,0,0,.489-.252q2.871-3.425,5.72-6.869c.055-.067.1-.141.165-.231H25.962c0,.515.018,1.011-.01,1.5a.681.681,0,0,1-.223.47.562.562,0,0,1-.506.045.712.712,0,0,1-.3-.483c-.04-.51-.014-1.026-.014-1.537h-1.06c0,.529.007,1.035,0,1.541a.527.527,0,1,1-1.053-.01c0-.124,0-.249,0-.373V26.523H21.73c0,.487,0,.96,0,1.433,0,.417-.2.662-.53.664s-.525-.235-.527-.659c0-.473,0-.946,0-1.426h-1.6c0,.089-.006.151,0,.211a1.7,1.7,0,0,1-1.907,1.892c-2.638-.05-5.277-.015-7.915-.015-1.521,0-3.042,0-4.563.006a.49.49,0,0,0-.361.145c-.688,1.044-1.358,2.1-2,3.105m6.49-6.45h15.5a6.663,6.663,0,0,1-.676-.5,2.208,2.208,0,0,0-1.694-.554c-2.161.034-4.325.017-6.487.011a1.588,1.588,0,0,1-1.678-1.673c0-.141,0-.281,0-.444-1.109,0-2.173,0-3.238.006a.29.29,0,0,0-.213.128c-.5.993-1,1.991-1.517,3.025M6.359,27.566H17.324a1.4,1.4,0,0,0,.216-.006.489.489,0,0,0,.453-.4A3.792,3.792,0,0,0,18,26.531a.42.42,0,0,0-.064-.017q-5.305,0-10.61,0a.338.338,0,0,0-.239.094c-.238.295-.459.6-.728.961m12.92-6.356a2.2,2.2,0,0,0-1.961-1.064q-4.313.007-8.627,0a1.67,1.67,0,0,0-.309.017.483.483,0,0,0-.427.494.475.475,0,0,0,.367.51,1.455,1.455,0,0,0,.4.039q5.089,0,10.179,0Zm2.029,2.121.025-.067c-.362-.265-.712-.548-1.09-.786a1.253,1.253,0,0,0-.618-.2c-1.479-.017-2.96-.009-4.439-.009h-.321c-.086.907.052,1.06.9,1.06h5.542Z" transform="translate(-10.518 -3.478)" fill="#fff"></path><path id="Trazado_6228" data-name="Trazado 6228" d="M0,39.963a.788.788,0,0,1,.766-.354,7.63,7.63,0,0,1,3.746,1.062,6.9,6.9,0,0,0,7.4.014,7.637,7.637,0,0,1,7.973,0,6.887,6.887,0,0,0,7.376-.006A7.606,7.606,0,0,1,31,39.613H31.1c.446.006.695.2.7.534s-.239.531-.692.533a6.816,6.816,0,0,0-3.414.981,7.8,7.8,0,0,1-8.247-.01,6.721,6.721,0,0,0-7.048-.019,7.864,7.864,0,0,1-8.384-.025,6.373,6.373,0,0,0-3.271-.921A.789.789,0,0,1,0,40.336Z" transform="translate(-10.518 -8.113)" fill="#fff"></path><path id="Trazado_6229" data-name="Trazado 6229" d="M73.326,32.144a.7.7,0,0,0-.788-.353.434.434,0,0,1-.494-.258C71.3,30.352,70.533,29.185,69.792,28a.765.765,0,0,0-.832-.451.965.965,0,0,1-1.084-.542c-.231-.378-.53-.713-.792-1.073a1.054,1.054,0,0,0-1-.5c-.3.032-.432-.1-.553-.352-.447-.93-.917-1.849-1.409-2.835.274,0,.5.01.735,0a1.605,1.605,0,0,0,1.574-1.4,1.577,1.577,0,0,0-1.132-1.712,2.569,2.569,0,0,0-.645-.069c-.662-.01-1.325-.007-1.987-.01a.6.6,0,0,1-.114-.04c.162-.321.313-.642.49-.948.03-.053.165-.064.252-.064.487-.006.973,0,1.46,0,.4,0,.63-.208.625-.533s-.243-.524-.639-.525q-2.8,0-5.589,0c-.413,0-.662.211-.657.54s.245.517.673.518c.878,0,1.757,0,2.712,0-.182.359-.329.682-.51.985-.039.064-.2.075-.308.075-1.646,0-3.291.013-4.937,0a3.245,3.245,0,0,0-3.18,1.955,1.644,1.644,0,0,1-.49.572q-2.523,1.86-5.069,3.689a.824.824,0,0,1-.45.146q-2.1.017-4.192,0a1.08,1.08,0,0,0-.865,1.859q2.348,2.812,4.687,5.631a.644.644,0,0,1,.157.292c-.23-.126-.463-.246-.688-.38A7.5,7.5,0,0,0,42.5,31.786a3.438,3.438,0,0,0-.434,0,.528.528,0,1,0,.02,1.056c.494.045.991.072,1.477.157a6.925,6.925,0,0,1,2.17.884,7.745,7.745,0,0,0,8.06-.015,6.8,6.8,0,0,1,7.159-.059,7.931,7.931,0,0,0,7.771.309c.326-.156.624-.367.944-.536a6.25,6.25,0,0,1,2.919-.733.823.823,0,0,0,.744-.333ZM71,31.863c-.818.377-1.633.7-2.4,1.115a6.872,6.872,0,0,1-7.084-.071,7.706,7.706,0,0,0-8.134-.01,7.122,7.122,0,0,1-4.369.967.8.8,0,0,1-.489-.252q-2.871-3.425-5.72-6.869c-.055-.067-.1-.141-.165-.231h4.724c0,.515-.018,1.011.01,1.5a.681.681,0,0,0,.223.47.562.562,0,0,0,.506.045.712.712,0,0,0,.3-.483c.04-.51.014-1.026.014-1.537h1.06c0,.529-.007,1.035,0,1.541a.527.527,0,1,0,1.053-.01c0-.124,0-.249,0-.373V26.506H51.6c0,.487,0,.96,0,1.433,0,.417.2.662.53.664s.525-.235.527-.659c0-.473,0-.946,0-1.426h1.6c0,.089.006.151,0,.211a1.7,1.7,0,0,0,1.907,1.892c2.638-.05,5.277-.015,7.915-.015,1.521,0,3.042,0,4.563.006a.49.49,0,0,1,.361.145c.688,1.044,1.358,2.1,2,3.105m-6.49-6.45h-15.5a6.662,6.662,0,0,0,.676-.5,2.208,2.208,0,0,1,1.694-.554c2.161.034,4.325.017,6.487.011A1.588,1.588,0,0,0,59.544,22.7c0-.141,0-.281,0-.444,1.109,0,2.173,0,3.238.006a.29.29,0,0,1,.213.128c.5.993,1,1.991,1.517,3.025m2.456,2.136H56a1.4,1.4,0,0,1-.216-.006.489.489,0,0,1-.453-.4,3.792,3.792,0,0,1-.007-.622.42.42,0,0,1,.064-.017q5.305,0,10.61,0a.338.338,0,0,1,.239.094c.238.295.459.6.728.961m-12.92-6.356a2.2,2.2,0,0,1,1.961-1.064q4.313.007,8.627,0a1.67,1.67,0,0,1,.309.017.483.483,0,0,1,.427.494.475.475,0,0,1-.367.51,1.455,1.455,0,0,1-.4.039q-5.089,0-10.179,0Zm-2.029,2.121-.025-.067c.362-.265.712-.548,1.09-.786a1.253,1.253,0,0,1,.618-.2c1.479-.017,2.96-.009,4.439-.009h.321c.086.907-.052,1.06-.9,1.06H52.018Z" transform="translate(-19.033 -3.475)" fill="#fff"></path><path id="Trazado_6230" data-name="Trazado 6230" d="M73.328,39.945a.788.788,0,0,0-.766-.354,7.63,7.63,0,0,0-3.746,1.062,6.9,6.9,0,0,1-7.4.014,7.637,7.637,0,0,0-7.973,0,6.887,6.887,0,0,1-7.376-.006,7.606,7.606,0,0,0-3.743-1.072h-.093c-.446.006-.695.2-.7.534s.239.531.692.533a6.816,6.816,0,0,1,3.414.981,7.8,7.8,0,0,0,8.247-.01,6.721,6.721,0,0,1,7.048-.019,7.864,7.864,0,0,0,8.384-.025,6.373,6.373,0,0,1,3.271-.921.789.789,0,0,0,.737-.35Z" transform="translate(-19.035 -8.109)" fill="#fff"></path><path id="Trazado_6231" data-name="Trazado 6231" d="M42.457,21.631c1.009,0,1.964.006,2.92,0,.335,0,.622.06.76.405s-.039.566-.262.788c-.777.775-1.549,1.555-2.34,2.35l-.82-.878,1.342-1.261-.083-.159h-.5c-.5,0-1.009,0-1.514,0s-.735-.226-.742-.731a8.9,8.9,0,0,0-.09-1.447c-.325.339-.648.68-.975,1.016-.262.269-.529.532-.795.8-.5.5-.751.5-1.264-.014s-1.006-1.007-1.51-1.51c-.088-.088-.182-.17-.336-.314,0,.532,0,.991,0,1.449-.006.53-.226.749-.76.754a10.151,10.151,0,0,0-1.409.073l.828.641-1.086.976c-.185-.224-.4-.51-.644-.772-.3-.322-.616-.627-.931-.934-.243-.236-.448-.48-.286-.848.15-.343.447-.383.776-.379.737.008,1.474,0,2.271,0V20.162c0-.31,0-.621,0-.931a.63.63,0,0,1,.39-.653.624.624,0,0,1,.735.192l2.416,2.413c.053.053.113.1.211.188.461-.468.911-.928,1.363-1.384.419-.423.821-.867,1.273-1.25a.758.758,0,0,1,.654-.138.81.81,0,0,1,.393.582c.045.8.018,1.6.018,2.45" transform="translate(-17.059 -3.799)" fill="#fff"></path><path id="Trazado_6232" data-name="Trazado 6232" d="M43.866,14.576a1.985,1.985,0,0,1,.522-1.385.871.871,0,0,0,.008-1.359,2.054,2.054,0,0,1,0-2.787c.033-.04.087-.072.1-.117.24-.822.891-.519,1.446-.549a1.927,1.927,0,0,1-.529,1.388.864.864,0,0,0-.01,1.33,2.054,2.054,0,0,1,0,2.817c-.033.039-.089.072-.1.117-.16.686-.7.545-1.175.546h-.267" transform="translate(-19.51 -1.712)" fill="#fff"></path><path id="Trazado_6233" data-name="Trazado 6233" d="M41.262,9.93a2.013,2.013,0,0,1-.549,1.417.854.854,0,0,0-.007,1.3,2.052,2.052,0,0,1,0,2.845c-.025.029-.065.054-.075.088-.238.831-.894.513-1.448.547a1.919,1.919,0,0,1,.507-1.359.883.883,0,0,0,0-1.389,2.053,2.053,0,0,1,0-2.758c.042-.05.112-.091.124-.147.152-.706.7-.538,1.176-.545h.264" transform="translate(-18.549 -2.034)" fill="#fff"></path></g></g></svg>