<svg xmlns="http://www.w3.org/2000/svg" xmlns:xlink="http://www.w3.org/1999/xlink" width="70" height="70" viewBox="0 0 70 70"><defs><clipPath id="clip-path"><rect id="Rect&#xE1;ngulo_3230" data-name="Rect&#xE1;ngulo 3230" width="34" height="33.444" fill="#fff"></rect></clipPath></defs><g id="construccion-edif" transform="translate(-340 -760)"><circle id="Elipse_1" data-name="Elipse 1" cx="35" cy="35" r="35" transform="translate(340 760)" fill="#3728ae"></circle><g id="Grupo_859" data-name="Grupo 859" transform="translate(358 778)"><g id="Grupo_858" data-name="Grupo 858" clip-path="url(#clip-path)"><path id="Trazado_4356" data-name="Trazado 4356" d="M34,32.46c-.162.278-.376.484-.724.376s-.409-.412-.409-.746q.006-12.7,0-25.4v-.44H27.2V32.486a3.574,3.574,0,0,1-.007.365.586.586,0,0,1-.6.588c-.088.009-.177,0-.266,0H7.677c-.72,0-.88-.16-.88-.879q0-11.206,0-22.41c0-.6.072-.517-.536-.519-1.571,0-3.143,0-4.714,0H1.131V31.982a3.083,3.083,0,0,1-.009.364.558.558,0,0,1-1.112.009,2.069,2.069,0,0,1-.01-.3Q0,20.686,0,9.315C0,8.686.183,8.5.808,8.5H6.8V.921C6.8.15,6.944,0,7.7,0H26.294c.764,0,.911.147.911.914V5.1h.379c1.87,0,3.74.006,5.61,0A.827.827,0,0,1,34,5.5ZM26.069,1.15c-.133-.008-.21-.016-.287-.016q-8.765,0-17.528-.008c-.278,0-.327.1-.326.344q.007,15.255,0,30.509c0,.261.071.337.334.335,1.482-.012,2.965-.006,4.448-.007.1,0,.193-.011.319-.019v-.382q0-2.505,0-5.013c0-.639.174-.817.8-.817H20.17c.627,0,.8.177.8.815q0,2.507,0,5.013c0,.128.011.255.018.4h4.648c.43,0,.431,0,.431-.427V1.15ZM17.6,27.226a.712.712,0,0,0-.025.121c0,1.572,0,3.143-.008,4.715,0,.219.1.253.284.25.553-.008,1.107-.016,1.66,0,.263.01.337-.073.335-.335-.012-1.483-.006-2.966-.007-4.448,0-.1-.011-.194-.018-.306Zm-3.435,0c0,1.656,0,3.271,0,4.885,0,.2.118.2.26.2.553,0,1.107-.015,1.66,0,.274.011.359-.069.357-.349-.013-1.483-.006-2.966-.008-4.449,0-.095-.015-.19-.024-.293Z" transform="translate(0 0)" fill="#fff"></path><path id="Trazado_4357" data-name="Trazado 4357" d="M29.658,14.155c0-.355-.008-.708,0-1.062.011-.4.193-.615.577-.626q1.111-.029,2.223,0a.556.556,0,0,1,.592.617q.019,1.078,0,2.156a.562.562,0,0,1-.6.614q-1.094.029-2.189,0c-.4-.011-.586-.231-.6-.639,0-.022,0-.045,0-.067q0-.5,0-.995m2.247-.536h-1.1V14.7h1.1Z" transform="translate(-1.318 -0.554)" fill="#fff"></path><path id="Trazado_4358" data-name="Trazado 4358" d="M29.659,18.872c0-.355-.01-.708,0-1.062a.549.549,0,0,1,.6-.6c.719-.011,1.438-.009,2.157,0a.565.565,0,0,1,.631.611q.021,1.078,0,2.157a.573.573,0,0,1-.627.622c-.707.011-1.415.011-2.123,0a.574.574,0,0,1-.641-.635c-.01-.364,0-.729,0-1.094m2.245-.507H30.818v1.09H31.9Z" transform="translate(-1.318 -0.765)" fill="#fff"></path><path id="Trazado_4359" data-name="Trazado 4359" d="M31.354,25.341c-.355,0-.708.006-1.062,0-.411-.009-.624-.2-.631-.6q-.017-1.094,0-2.189a.552.552,0,0,1,.611-.594q1.078-.016,2.156,0a.572.572,0,0,1,.623.625c.012.719.013,1.437,0,2.156a.575.575,0,0,1-.635.61H31.354M31.9,23.1h-1.1v1.088h1.1Z" transform="translate(-1.318 -0.976)" fill="#fff"></path><path id="Trazado_4360" data-name="Trazado 4360" d="M31.337,11.109c-.354,0-.708.01-1.062,0a.557.557,0,0,1-.614-.622q-.014-1.078,0-2.156a.555.555,0,0,1,.6-.613c.729-.017,1.46-.016,2.189,0a.566.566,0,0,1,.6.612c.014.719.013,1.437,0,2.156a.567.567,0,0,1-.62.623c-.365.013-.73,0-1.1,0m.576-2.248h-1.1V9.946h1.1Z" transform="translate(-1.318 -0.342)" fill="#fff"></path><path id="Trazado_4361" data-name="Trazado 4361" d="M33.056,28.4c0,.343.007.686,0,1.029a.586.586,0,0,1-.654.66c-.7.012-1.393.011-2.09,0a.573.573,0,0,1-.651-.655q-.011-1.045,0-2.09a.573.573,0,0,1,.628-.649q1.062-.022,2.123,0c.432.009.634.233.644.676.008.343,0,.686,0,1.028M31.9,27.837H30.813v1.1H31.9Z" transform="translate(-1.318 -1.186)" fill="#fff"></path><path id="Trazado_4362" data-name="Trazado 4362" d="M5.567,12.973c-.659,0-.827-.176-.827-.862s.181-.845.883-.842c.663,0,.828.183.826.9,0,.638-.185.806-.882.8" transform="translate(-0.211 -0.501)" fill="#fff"></path><path id="Trazado_4363" data-name="Trazado 4363" d="M3.213,12.973c-.674,0-.844-.17-.845-.843,0-.69.173-.862.864-.861s.848.175.846.88c0,.655-.18.824-.865.824" transform="translate(-0.105 -0.501)" fill="#fff"></path><path id="Trazado_4364" data-name="Trazado 4364" d="M6.449,26.363c0,.681-.174.849-.878.849-.656,0-.831-.184-.83-.864s.178-.849.879-.848c.655,0,.829.183.829.863" transform="translate(-0.211 -1.134)" fill="#fff"></path><path id="Trazado_4365" data-name="Trazado 4365" d="M2.368,26.355c0-.687.173-.856.87-.855.662,0,.838.18.838.855s-.173.856-.871.856c-.661,0-.837-.181-.837-.856" transform="translate(-0.105 -1.134)" fill="#fff"></path><path id="Trazado_4366" data-name="Trazado 4366" d="M5.6,31.947c-.7,0-.861-.165-.86-.859,0-.665.177-.84.849-.84.692,0,.859.167.859.862,0,.669-.171.837-.849.837" transform="translate(-0.211 -1.345)" fill="#fff"></path><path id="Trazado_4367" data-name="Trazado 4367" d="M3.217,31.947c-.687,0-.849-.166-.849-.87,0-.658.179-.83.859-.829s.851.17.849.873c0,.658-.176.826-.86.826" transform="translate(-0.105 -1.345)" fill="#fff"></path><path id="Trazado_4368" data-name="Trazado 4368" d="M6.449,28.74c0,.676-.175.841-.883.84-.656,0-.827-.18-.826-.865s.181-.845.884-.842c.649,0,.826.187.825.867" transform="translate(-0.211 -1.239)" fill="#fff"></path><path id="Trazado_4369" data-name="Trazado 4369" d="M3.206,29.58c-.666,0-.838-.176-.838-.851s.173-.857.87-.855c.671,0,.842.182.839.887,0,.648-.185.821-.87.82" transform="translate(-0.105 -1.239)" fill="#fff"></path><path id="Trazado_4370" data-name="Trazado 4370" d="M3.21,20.764c.7,0,.867.162.867.852,0,.672-.174.846-.843.847-.7,0-.866-.166-.866-.856,0-.674.168-.843.842-.843" transform="translate(-0.105 -0.923)" fill="#fff"></path><path id="Trazado_4371" data-name="Trazado 4371" d="M6.449,21.615c0,.673-.172.846-.841.848-.7,0-.869-.168-.868-.854s.169-.845.874-.845c.668,0,.834.169.834.851" transform="translate(-0.211 -0.923)" fill="#fff"></path><path id="Trazado_4372" data-name="Trazado 4372" d="M3.226,23.131c.686,0,.852.17.85.873,0,.658-.182.834-.859.833s-.85-.176-.849-.875c0-.66.178-.831.858-.831" transform="translate(-0.105 -1.028)" fill="#fff"></path><path id="Trazado_4373" data-name="Trazado 4373" d="M6.449,24c0,.66-.18.834-.858.833s-.852-.176-.85-.875c0-.665.181-.833.892-.831.649,0,.817.182.816.873" transform="translate(-0.211 -1.028)" fill="#fff"></path><path id="Trazado_4374" data-name="Trazado 4374" d="M5.58,17.712c-.674,0-.84-.168-.84-.843s.166-.849.87-.848c.683,0,.841.165.839.876,0,.651-.176.815-.869.814" transform="translate(-0.211 -0.712)" fill="#fff"></path><path id="Trazado_4375" data-name="Trazado 4375" d="M3.221,16.022c.695,0,.857.162.856.861,0,.665-.171.829-.854.829s-.855-.161-.855-.861c0-.664.17-.829.853-.829" transform="translate(-0.105 -0.712)" fill="#fff"></path><path id="Trazado_4376" data-name="Trazado 4376" d="M3.211,15.34c-.684,0-.844-.165-.843-.873,0-.653.18-.822.866-.821s.846.168.844.876c0,.653-.178.818-.867.818" transform="translate(-0.105 -0.607)" fill="#fff"></path><path id="Trazado_4377" data-name="Trazado 4377" d="M5.59,15.34c-.69,0-.852-.165-.85-.866,0-.659.176-.828.858-.828s.85.167.849.869c0,.66-.172.826-.857.826" transform="translate(-0.211 -0.607)" fill="#fff"></path><path id="Trazado_4378" data-name="Trazado 4378" d="M5.6,20.085c-.695,0-.857-.163-.856-.861,0-.665.169-.829.853-.829s.856.16.855.859c0,.665-.171.831-.852.831" transform="translate(-0.211 -0.818)" fill="#fff"></path><path id="Trazado_4379" data-name="Trazado 4379" d="M3.24,18.4c.672,0,.836.167.836.847s-.169.845-.873.844c-.681,0-.837-.166-.835-.881,0-.647.178-.81.872-.809" transform="translate(-0.105 -0.818)" fill="#fff"></path><path id="Trazado_4380" data-name="Trazado 4380" d="M19.948,4.676c0,.519,0,1.039,0,1.558,0,.456-.207.674-.668.677q-1.591.016-3.183,0a.59.59,0,0,1-.671-.676q-.007-1.592,0-3.183c0-.457.205-.672.669-.677q1.591-.016,3.182,0c.477,0,.669.22.672.708,0,.53,0,1.061,0,1.591M18.792,3.538h-2.22V5.762h2.22Z" transform="translate(-0.686 -0.105)" fill="#fff"></path><path id="Trazado_4381" data-name="Trazado 4381" d="M19.948,22.446c0,.53,0,1.061,0,1.591a.582.582,0,0,1-.648.664q-1.607.019-3.215,0c-.457,0-.656-.226-.658-.687q-.006-1.575,0-3.149c0-.481.2-.694.681-.7q1.574-.014,3.149,0c.495,0,.689.217.692.721s0,1.039,0,1.558M18.806,21.32H16.574v2.234h2.231Z" transform="translate(-0.686 -0.896)" fill="#fff"></path><path id="Trazado_4382" data-name="Trazado 4382" d="M9.491,4.635c0-.508,0-1.016,0-1.525.006-.528.2-.73.714-.735q1.559-.01,3.117,0c.492,0,.7.221.7.719q.007,1.558,0,3.116c0,.475-.215.7-.687.7q-1.574.014-3.149,0c-.494,0-.69-.211-.7-.718s0-1.039,0-1.559m1.137-1.108c0,.71,0,1.4.01,2.094,0,.054.142.15.221.153.4.016.794.008,1.192.008.844,0,.844,0,.844-.837V3.526Z" transform="translate(-0.422 -0.105)" fill="#fff"></path><path id="Trazado_4383" data-name="Trazado 4383" d="M23.627,6.915c-.519,0-1.039.006-1.558,0s-.722-.218-.724-.732q-.007-1.541,0-3.083c0-.51.214-.72.732-.723q1.542-.009,3.084,0c.519,0,.716.205.719.731q.007,1.542,0,3.084c0,.521-.2.718-.726.724s-1.017,0-1.525,0M22.478,3.532c0,.705-.006,1.387.01,2.069,0,.061.13.17.2.171.617.014,1.236.012,1.853,0,.068,0,.191-.1.192-.149.012-.693.009-1.386.009-2.092Z" transform="translate(-0.949 -0.105)" fill="#fff"></path><path id="Trazado_4384" data-name="Trazado 4384" d="M25.88,22.436c0,.519.007,1.039,0,1.558-.008.5-.207.706-.707.71q-1.558.01-3.116,0c-.495,0-.708-.219-.711-.712q-.007-1.558,0-3.116c0-.492.215-.705.713-.709q1.558-.01,3.116,0c.5,0,.7.207.7.711.008.519,0,1.039,0,1.558M24.744,21.3c-.728,0-1.4-.007-2.071.01-.067,0-.184.14-.186.218q-.024.91,0,1.82a.294.294,0,0,0,.192.213c.617.017,1.236.015,1.854,0,.072,0,.2-.11.2-.171.015-.682.01-1.365.01-2.092" transform="translate(-0.949 -0.896)" fill="#fff"></path><path id="Trazado_4385" data-name="Trazado 4385" d="M9.491,22.443c0-.519,0-1.039,0-1.558s.2-.717.73-.72q1.542-.009,3.083,0c.512,0,.72.218.721.735q.007,1.541,0,3.083c0,.5-.212.716-.7.72q-1.558.013-3.116,0c-.516,0-.71-.207-.715-.736-.007-.508,0-1.017,0-1.525M10.628,21.3c0,.727-.006,1.409.01,2.092,0,.061.129.17.2.171.619.013,1.236.015,1.855,0a.3.3,0,0,0,.191-.212q.024-.91,0-1.82c0-.077-.119-.217-.184-.219-.672-.016-1.343-.01-2.072-.01" transform="translate(-0.422 -0.896)" fill="#fff"></path><path id="Trazado_4386" data-name="Trazado 4386" d="M17.7,8.313c.52,0,1.039,0,1.558,0,.489,0,.689.2.691.68q.007,1.575,0,3.149c0,.484-.206.694-.681.7q-1.575.007-3.149,0c-.483,0-.69-.206-.692-.685q-.006-1.575,0-3.149c0-.487.2-.685.681-.691.53-.006,1.061,0,1.591,0m1.1,1.156H16.58v2.224H18.8Z" transform="translate(-0.686 -0.37)" fill="#fff"></path><path id="Trazado_4387" data-name="Trazado 4387" d="M19.948,16.521c0,.519,0,1.039,0,1.558,0,.472-.2.681-.655.684q-1.607.011-3.215,0a.571.571,0,0,1-.652-.652q-.009-1.608,0-3.215a.582.582,0,0,1,.653-.658q1.608-.011,3.215,0a.583.583,0,0,1,.653.659c.007.541,0,1.083,0,1.624m-3.366,1.092H18.8V15.381H16.582Z" transform="translate(-0.686 -0.633)" fill="#fff"></path><path id="Trazado_4388" data-name="Trazado 4388" d="M23.615,18.766c-.53,0-1.062,0-1.592,0-.46-.007-.674-.211-.677-.669q-.013-1.591,0-3.182a.6.6,0,0,1,.677-.676q1.591-.01,3.182,0c.456,0,.667.211.671.675q.013,1.592,0,3.183c0,.47-.2.662-.671.669-.53.007-1.061,0-1.591,0m1.11-3.377H22.5v2.227h2.223Z" transform="translate(-0.949 -0.633)" fill="#fff"></path><path id="Trazado_4389" data-name="Trazado 4389" d="M11.756,18.766c-.53,0-1.062,0-1.591,0-.467-.007-.668-.2-.672-.669q-.013-1.591,0-3.183c0-.476.219-.674.7-.676q1.558-.007,3.116,0c.493,0,.709.215.712.709q.009,1.558,0,3.117c0,.495-.211.7-.712.7-.519,0-1.039,0-1.558,0m1.121-3.381H10.648v2.223h2.229Z" transform="translate(-0.422 -0.633)" fill="#fff"></path><path id="Trazado_4390" data-name="Trazado 4390" d="M11.759,12.841c-.52,0-1.039,0-1.558,0-.488,0-.7-.2-.706-.672q-.014-1.591,0-3.182c0-.484.206-.671.7-.673q1.558-.006,3.116,0c.5,0,.712.205.715.7q.009,1.558,0,3.116c0,.5-.216.706-.708.711-.52,0-1.04,0-1.558,0m1.109-3.367H10.645v2.219h2.224Z" transform="translate(-0.422 -0.37)" fill="#fff"></path><path id="Trazado_4391" data-name="Trazado 4391" d="M23.607,8.313c.53,0,1.061,0,1.591,0,.469.006.676.2.679.661q.014,1.608,0,3.215a.577.577,0,0,1-.661.648q-1.608.009-3.216,0a.578.578,0,0,1-.65-.632q-.019-1.624,0-3.249c0-.435.226-.637.668-.643.53-.008,1.061,0,1.591,0m1.119,1.156H22.5v2.224h2.222Z" transform="translate(-0.949 -0.37)" fill="#fff"></path></g></g></g></svg>