<svg xmlns="http://www.w3.org/2000/svg" xmlns:xlink="http://www.w3.org/1999/xlink" width="70" height="70" viewBox="0 0 70 70"><defs><clipPath id="clip-path"><rect id="Rect&#xE1;ngulo_3231" data-name="Rect&#xE1;ngulo 3231" width="40" height="28.558" fill="#fff"></rect></clipPath></defs><g id="construccion-obras" transform="translate(-649 -760)"><circle id="Elipse_2" data-name="Elipse 2" cx="35" cy="35" r="35" transform="translate(649 760)" fill="#3728ae"></circle><g id="Grupo_861" data-name="Grupo 861" transform="translate(664 781)"><g id="Grupo_860" data-name="Grupo 860" clip-path="url(#clip-path)"><path id="Trazado_4392" data-name="Trazado 4392" d="M34.31,17.155h1.8c1.06,0,2.12,0,3.18,0,.516,0,.7.186.7.7q.009,1.012,0,2.024c0,.5-.2.7-.7.7-1.5,0-3,0-4.5,0h-.475v4.573c.321,0,.645-.006.969,0,.525.012.716.2.722.735.007.494,0,.989,0,1.526h3.38v1.146H.6V27.452H3.991c0-.514,0-.989,0-1.464,0-.665.169-.835.826-.84.285,0,.57,0,.874,0V20.576H5.229q-2.251,0-4.5,0c-.532,0-.72-.19-.724-.716Q0,18.866,0,17.875c0-.539.176-.716.72-.718,1.5,0,3,0,4.5,0H5.69V5.672A13.2,13.2,0,0,1,.883,12.323l-.619-.95A11.583,11.583,0,0,0,4.43,5.7,21.821,21.821,0,0,0,5.7.671C5.769.16,5.935,0,6.452,0c.991,0,1.982,0,2.973,0,.668,0,.819.177.912.833a18.014,18.014,0,0,0,3.123,8.33,7.922,7.922,0,0,0,9.977,2.641,9.283,9.283,0,0,0,4.067-4.145A19.29,19.29,0,0,0,29.673.738C29.74.2,29.933,0,30.466,0q1.529,0,3.057,0c.543,0,.707.15.779.685a21.95,21.95,0,0,0,1.277,5.024,11.56,11.56,0,0,0,4.159,5.659l-.614.954A13.372,13.372,0,0,1,34.31,5.81Zm-6.3,10.254c0-.555-.007-1.088,0-1.62a.56.56,0,0,1,.6-.634,5.245,5.245,0,0,1,.743,0c.286.021.38-.082.377-.372-.013-1.293,0-2.587-.007-3.88a2.2,2.2,0,0,0-.037-.294H10.278v3.535c0,.985,0,.985.971,1.007.565.013.741.187.744.744,0,.5,0,1.008,0,1.516ZM1.168,19.4H38.854a5.43,5.43,0,0,1,0-.634c.045-.369-.078-.486-.468-.485Q20,18.3,1.605,18.293c-.144,0-.288.016-.437.024ZM6.884,1.166V17.155c.613,0,1.2-.024,1.789.009.385.021.479-.108.478-.482q-.018-7.53-.008-15.058V1.166ZM33.115,17.154V1.181H30.856V16.675c0,.069-.025.155.007.2.068.1.162.262.251.264.657.023,1.314.012,2,.012M29.722,5.6a2.425,2.425,0,0,0-.135.232,16.97,16.97,0,0,1-2.033,3.9.912.912,0,0,0-.116.5c-.007,2.16,0,4.32,0,6.479v.446c.712,0,1.384.011,2.054-.015.082,0,.226-.21.226-.321.012-3.7.01-7.4.01-11.219m-19.374.135-.07.015V16.731c0,.069-.024.155.007.2.057.085.147.209.225.211.671.016,1.342.01,2.028.01a2.344,2.344,0,0,0,.029-.237c0-2.272,0-4.543-.006-6.814a.979.979,0,0,0-.162-.446c-.419-.725-.873-1.432-1.266-2.171-.3-.564-.527-1.167-.786-1.753m3.381,11.422c.669,0,1.3-.011,1.929.006.274.007.352-.091.35-.357-.011-1.224,0-2.448-.016-3.672a.663.663,0,0,0-.257-.44c-.579-.439-1.179-.849-1.771-1.27-.069-.048-.14-.093-.234-.155ZM26.264,11.33c-.706.472-1.4.932-2.088,1.405a.422.422,0,0,0-.171.29q-.017,1.939,0,3.878c0,.083.121.236.188.237.683.018,1.368.011,2.069.011ZM6.887,25.091H9.1v-4.5H6.887Zm26.236-4.5H30.884V25.1h2.238ZM19.4,17.154v-3.4l-2.266-.413c0,1.19-.006,2.37.011,3.549a.367.367,0,0,0,.25.256c.656.023,1.314.012,2,.012m1.2-3.407v3.407c.657,0,1.287-.011,1.915,0,.273.007.353-.09.35-.356-.012-1.084,0-2.17-.007-3.254a1.262,1.262,0,0,0-.03-.206l-2.228.4M10.817,26.317H5.166V27.41h5.651Zm24.03,0H29.177V27.4h5.671Z" transform="translate(0)" fill="#fff"></path></g></g></g></svg>