<svg xmlns="http://www.w3.org/2000/svg" xmlns:xlink="http://www.w3.org/1999/xlink" width="70" height="70" viewBox="0 0 70 70"><defs><clipPath id="clip-path"><rect id="Rect&#xE1;ngulo_3492" data-name="Rect&#xE1;ngulo 3492" width="29.736" height="35" fill="#fff"></rect></clipPath></defs><g id="Grupo_1643" data-name="Grupo 1643" transform="translate(-957 -1030)"><circle id="Elipse_16" data-name="Elipse 16" cx="35" cy="35" r="35" transform="translate(957 1030)" fill="#3728ae"></circle><g id="Grupo_1467" data-name="Grupo 1467" transform="translate(977 1048)"><g id="Grupo_1175" data-name="Grupo 1175" clip-path="url(#clip-path)"><path id="Trazado_5863" data-name="Trazado 5863" d="M14.5,35a23.344,23.344,0,0,1-6.554-3.21,17.66,17.66,0,0,1-6.895-9.833,27.155,27.155,0,0,1-1.022-6.8C-.034,13,.033,10.833,0,8.67A3.827,3.827,0,0,1,3.771,4.729,14.711,14.711,0,0,0,9.83,3.147a14.118,14.118,0,0,0,2.837-1.942A6.984,6.984,0,0,1,13.9.252a1.989,1.989,0,0,1,2.221.195c.529.392,1,.863,1.514,1.274A14.33,14.33,0,0,0,25.866,4.73a3.89,3.89,0,0,1,3.082,1.564,3.513,3.513,0,0,1,.71,1.993,72.154,72.154,0,0,1-.064,7.988A23.507,23.507,0,0,1,27.066,25.8a17.668,17.668,0,0,1-5.922,6.4,24.771,24.771,0,0,1-5.381,2.628c-.191.068-.388.119-.582.178ZM2.062,12.356a31.649,31.649,0,0,0,.75,8.232,16.045,16.045,0,0,0,4.5,8.039,19.848,19.848,0,0,0,7.311,4.261.8.8,0,0,0,.491-.019,22.487,22.487,0,0,0,4.548-2.162,15.667,15.667,0,0,0,6-6.691,22.569,22.569,0,0,0,1.885-7.883,72.069,72.069,0,0,0,.062-7.68,1.6,1.6,0,0,0-1.425-1.614c-1.08-.157-2.175-.234-3.242-.449A15.416,15.416,0,0,1,15.3,2.419c-.448-.422-.464-.423-.921.007A15.428,15.428,0,0,1,6.724,6.393c-1.045.21-2.118.282-3.175.437a1.615,1.615,0,0,0-1.484,1.7c-.012,1.274,0,2.549,0,3.824" fill="#fff"></path><path id="Trazado_5864" data-name="Trazado 5864" d="M14.836,26.226a8.718,8.718,0,1,1,8.721-8.713,8.749,8.749,0,0,1-8.721,8.713M14.83,10.844a6.665,6.665,0,1,0,6.67,6.665,6.688,6.688,0,0,0-6.67-6.665" fill="#fff"></path><path id="Trazado_5865" data-name="Trazado 5865" d="M13.305,18.9c.252-.274.452-.507.668-.724q1.638-1.644,3.282-3.282a1.032,1.032,0,0,1,1.54-.087,1.05,1.05,0,0,1-.1,1.543q-2.277,2.283-4.56,4.561a1.051,1.051,0,0,1-1.688-.006q-.812-.806-1.616-1.617a1.048,1.048,0,0,1-.076-1.544,1.025,1.025,0,0,1,1.517.09c.33.327.648.668,1.032,1.066" fill="#fff"></path></g></g></g></svg>