<svg xmlns="http://www.w3.org/2000/svg" xmlns:xlink="http://www.w3.org/1999/xlink" width="70" height="70" viewBox="0 0 70 70"><defs><clipPath id="clip-path"><rect id="Rect&#xE1;ngulo_4148" data-name="Rect&#xE1;ngulo 4148" width="30.421" height="35" fill="#fff"></rect></clipPath></defs><g id="Grupo_1642" data-name="Grupo 1642" transform="translate(-957 -850)"><circle id="Elipse_2" data-name="Elipse 2" cx="35" cy="35" r="35" transform="translate(957 850)" fill="#3728ae"></circle><g id="Grupo_1466" data-name="Grupo 1466" transform="translate(976.789 868)"><g id="Grupo_1465" data-name="Grupo 1465" clip-path="url(#clip-path)"><path id="Trazado_7119" data-name="Trazado 7119" d="M25.259,21.4a14.377,14.377,0,0,0,3.759-1.192.328.328,0,0,0,.1-.3,45.984,45.984,0,0,0-2.649-6.363,4.415,4.415,0,0,0-1.718-1.809A19.731,19.731,0,0,0,18.179,9.15a11.09,11.09,0,0,0-3.711.105,20.941,20.941,0,0,0-6.7,2.246,7.952,7.952,0,0,0-2.545,2.391c-1.109,1.5-2.184,3.028-3.272,4.545a1.513,1.513,0,0,0-.089.163,20.424,20.424,0,0,0,3.582,3.167.344.344,0,0,0,.318-.009q.8-.607,1.566-1.255a.357.357,0,0,0,.082-.315c-.35-.958-.707-1.914-1.083-2.862-.167-.423-.125-.716.191-.88s.638-.034.827.4a27.908,27.908,0,0,1,2.219,7.5,2.982,2.982,0,0,1,.02.423.571.571,0,0,1-.56.633c-.319,0-.507-.238-.569-.6-.178-1.039-.383-2.073-.58-3.109-.006-.031-.035-.058-.089-.14-.45.369-.887.734-1.332,1.089-.286.229-.519.556-.965.5-.064-.009-.15.168-.243.28.327.206.617.378.895.568a25.45,25.45,0,0,1,5.422,4.889c.1.127.19.269.3.4a2.562,2.562,0,0,1,.229,2.851,2.089,2.089,0,0,1-2.5,1.117c0,.328,0,.648,0,.969,0,.514-.187.776-.554.783s-.569-.261-.573-.764a4.28,4.28,0,0,0-.053-1.6,4.735,4.735,0,0,0-1.229-1.476c-.982-.871-2.025-1.673-3.037-2.511-.894-.741-1.793-1.477-2.666-2.243A4.024,4.024,0,0,1,.183,22.037c.222-.81.526-1.6.821-2.386a.321.321,0,0,0-.071-.395c-.469-.533-.483-.633-.069-1.217,1.142-1.608,2.314-3.2,3.439-4.815A10.122,10.122,0,0,1,9.162,9.6L10.6,9.038c-.036-.1-.065-.194-.105-.285a5.223,5.223,0,0,1-.414-1.986.912.912,0,0,0-.193-.521A6.414,6.414,0,0,1,8.516,3.579a2.545,2.545,0,0,1-.06-.628c.011-.524.285-.744.8-.64A1.036,1.036,0,0,0,10.15,2c.335-.275.643-.584.974-.866a5.031,5.031,0,0,1,4.871-.88q.712.192,1.414.421a2.323,2.323,0,0,1,1.468,1.509,5.717,5.717,0,0,1,.189,2.887c-.127.908-.258,1.814-.385,2.721a2.382,2.382,0,0,0,0,.294,19.019,19.019,0,0,1,4.765,1.666c.713.354,1.4.764,2.094,1.152a4.642,4.642,0,0,1,1.774,1.862,41.7,41.7,0,0,1,2.76,6.429c.095.264.172.537.28.8a.636.636,0,0,1-.234.839,5.365,5.365,0,0,1-1.253.692c-1.134.369-2.291.668-3.441.986-.158.044-.274.064-.287.274-.107,1.77-.226,3.54-.34,5.309-.008.117,0,.235,0,.349.033.009.065.027.074.019.8-.707,1.621-1.39,2.386-2.132a3.412,3.412,0,0,0,.907-2.486c.01-.4.005-.8.014-1.2s.225-.622.569-.618a.528.528,0,0,1,.549.6,25.933,25.933,0,0,1-.219,2.662,4.04,4.04,0,0,1-1.448,2.28c-.834.757-1.7,1.476-2.569,2.2a.64.64,0,0,0-.269.559q.02,1.992,0,3.985a.782.782,0,0,1-.194.531.628.628,0,0,1-.536.109c-.155-.054-.269-.26-.371-.419-.044-.067-.016-.183-.016-.277,0-2.246-.037-4.492.011-6.736.031-1.443.208-2.882.281-4.325.109-2.124.185-4.249.274-6.373.006-.164-.017-.332.005-.493a.558.558,0,0,1,1.106-.03,1.339,1.339,0,0,1,.014.317q-.049,2.272-.1,4.547c0,.067,0,.134,0,.24M1.9,20.354a8.839,8.839,0,0,0-.719,2.513,2.625,2.625,0,0,0,.777,2.4,2.217,2.217,0,0,0,.17.179c1.036.88,2.04,1.8,3.119,2.626A15.356,15.356,0,0,1,8.935,31.46a1.977,1.977,0,0,0,.724.6,1.026,1.026,0,0,0,1.541-.733,1.665,1.665,0,0,0-.418-1.649A22.676,22.676,0,0,0,4.3,24.234a.518.518,0,0,1-.295-.7,7.56,7.56,0,0,1,.377-.831.238.238,0,0,0-.066-.354c-.8-.65-1.59-1.313-2.413-2M10.716,5.48c1.381-.646,1.79-.535,2.635.678a.37.37,0,0,0,.255.129c.6.03,1.2.076,1.792.054a4.878,4.878,0,0,0,2.108-.483.7.7,0,0,0,.352-.356A5.089,5.089,0,0,0,17.8,2.519a1.184,1.184,0,0,0-.772-.768c-.4-.128-.8-.266-1.205-.38a3.95,3.95,0,0,0-4.084.712A4.028,4.028,0,0,1,9.65,3.48a5.273,5.273,0,0,0,1.066,2m6.935,1.564a10.265,10.265,0,0,1-4.18.386c-.594-.051-1.044-.208-1.2-.855-.055-.231-.214-.427-.486-.336s-.626.155-.565.552c.079.517.207,1.028.327,1.538.071.306.243.372.563.285a17.711,17.711,0,0,1,5.245-.693.76.76,0,0,0,.171-.034c.04-.275.077-.538.121-.843" fill="#fff"></path><path id="Trazado_7120" data-name="Trazado 7120" d="M17.473,27.221a1.37,1.37,0,0,1-.352.392c-.719.389-1.454.749-2.191,1.106a.56.56,0,1,1-.487-1.007c.728-.375,1.458-.744,2.2-1.1.406-.2.827.059.835.608" fill="#fff"></path><path id="Trazado_7121" data-name="Trazado 7121" d="M14.143,23.1c.142.111.358.2.421.351a.67.67,0,0,1-.028.579c-.576.631-1.184,1.236-1.806,1.824A.489.489,0,0,1,12,25.791a.5.5,0,0,1-.026-.732c.574-.6,1.167-1.188,1.763-1.77a1.572,1.572,0,0,1,.4-.19" fill="#fff"></path><path id="Trazado_7122" data-name="Trazado 7122" d="M1.091,7.84a2.666,2.666,0,0,1,.493.293c.541.522,1.07,1.055,1.6,1.593a.547.547,0,0,1,.041.837.55.55,0,0,1-.838-.044C1.839,9.984,1.3,9.442.766,8.9a.5.5,0,0,1-.129-.638,2.514,2.514,0,0,1,.454-.421" fill="#fff"></path><path id="Trazado_7123" data-name="Trazado 7123" d="M29.224,7.344c.477.007.754.423.588.753a2.047,2.047,0,0,1-.379.5c-.459.468-.929.923-1.4,1.382a.561.561,0,1,1-.8-.782c.49-.5.975-1.01,1.48-1.5a3.19,3.19,0,0,1,.512-.354" fill="#fff"></path><path id="Trazado_7124" data-name="Trazado 7124" d="M14.748,31.051c.765.2,1.582.395,2.389.63a.485.485,0,0,1,.317.627.5.5,0,0,1-.6.424c-.809-.177-1.612-.383-2.409-.607a.488.488,0,0,1-.336-.618.569.569,0,0,1,.635-.456" fill="#fff"></path><path id="Trazado_7125" data-name="Trazado 7125" d="M5.645,8.559A2.156,2.156,0,0,1,5.173,8.2c-.38-.534-.739-1.084-1.095-1.635a.562.562,0,1,1,.936-.614c.365.531.737,1.059,1.061,1.615a.8.8,0,0,1,.035.614c-.056.15-.28.235-.465.376" fill="#fff"></path><path id="Trazado_7126" data-name="Trazado 7126" d="M26.519,6.171a3.667,3.667,0,0,1-.243.543c-.329.512-.673,1.016-1.02,1.516a.526.526,0,0,1-.743.157.508.508,0,0,1-.209-.725c.368-.585.741-1.168,1.147-1.726a.53.53,0,0,1,.893-.087,1.656,1.656,0,0,1,.175.322" fill="#fff"></path></g></g></g></svg>