<svg xmlns="http://www.w3.org/2000/svg" xmlns:xlink="http://www.w3.org/1999/xlink" width="70" height="70" viewBox="0 0 70 70"><defs><clipPath id="clip-path"><rect id="Rect&#xE1;ngulo_489" data-name="Rect&#xE1;ngulo 489" width="35" height="34.997" fill="#fff"></rect></clipPath></defs><g id="Grupo_1644" data-name="Grupo 1644" transform="translate(-649 -1030)"><circle id="Elipse_15" data-name="Elipse 15" cx="35" cy="35" r="35" transform="translate(649 1030)" fill="#3728ae"></circle><g id="Grupo_1271" data-name="Grupo 1271" transform="translate(665.5 1047.502)"><g id="Grupo_323" data-name="Grupo 323" clip-path="url(#clip-path)"><path id="Trazado_323" data-name="Trazado 323" d="M35.053,31.369c-.057.229-.1.464-.175.687a4.016,4.016,0,0,1-3.057,2.827,3.855,3.855,0,0,1-3.927-1.263C25.577,31,23.3,28.354,21,25.718l-5.539-6.364c-.037-.043-.077-.083-.114-.123-1.486.842-2.366.684-3.338-.653-.236.261-.473.5-.683.768a.467.467,0,0,0-.042.316A2.731,2.731,0,0,1,6.622,22.02Q3.75,19.167.9,16.3A2.713,2.713,0,0,1,.38,13.058a2.762,2.762,0,0,1,2.932-1.42.464.464,0,0,0,.347-.111q3.971-3.953,7.925-7.922a.427.427,0,0,0,.131-.312A2.745,2.745,0,0,1,13.945.033.2.2,0,0,0,14,0h.82a4.178,4.178,0,0,1,2.046,1.334C18.6,3.086,20.35,4.809,22.08,6.557a2.708,2.708,0,0,1-.818,4.47,3.979,3.979,0,0,1-1.429.194.729.729,0,0,0-.624.218,6.388,6.388,0,0,1-.576.508,2.14,2.14,0,0,1,.648,3.333q1.682,1.469,3.365,2.939L29.853,24.5c1.183,1.032,2.354,2.079,3.555,3.09a4.636,4.636,0,0,1,1.645,2.819Zm-16.869-20.9-5.73-5.722L4.808,12.4l5.723,5.724,7.653-7.652m-1.851,7.806,7.282,8.364,3.079-3.078L18.34,16.275l-2.007,2M26.371,29.814c.894,1.018,1.743,2.06,2.672,3.024a2.674,2.674,0,0,0,3.83-.026,2.644,2.644,0,0,0,.013-3.822c-.96-.919-2-1.758-3-2.631-.014-.012-.042-.009-.046-.009l-3.468,3.463M13.033,2.725a1.4,1.4,0,0,0,.474,1.057q2.237,2.228,4.466,4.464c.434.434.857.881,1.309,1.3a1.267,1.267,0,0,0,1.427.248,1.3,1.3,0,0,0,.841-1.182,1.435,1.435,0,0,0-.5-1.149q-2.794-2.781-5.577-5.573a2.4,2.4,0,0,0-.225-.209,1.3,1.3,0,0,0-1.44-.174,1.305,1.305,0,0,0-.779,1.222M2.789,12.971a1.3,1.3,0,0,0-1.235.809,1.275,1.275,0,0,0,.276,1.509Q4.715,18.2,7.621,21.082a1.363,1.363,0,1,0,1.917-1.937q-2.876-2.892-5.766-5.769a1.307,1.307,0,0,0-.982-.405m10.443,4.644a.7.7,0,0,0,.416.722.669.669,0,0,0,.78-.174q1.9-1.9,3.791-3.794a.679.679,0,0,0,.034-1,.688.688,0,0,0-1.005.049q-1.9,1.891-3.788,3.8a1.451,1.451,0,0,0-.227.4M25.4,28.689l3.343-3.341-.912-.794-3.223,3.223.792.911" transform="translate(-0.053)" fill="#fff"></path><path id="Trazado_324" data-name="Trazado 324" d="M1.823,297.189a2.378,2.378,0,0,1,.006-2.8,2.218,2.218,0,0,1,1.886-1c3.9-.01,7.809-.017,11.713,0A2.382,2.382,0,0,1,17.5,296.9c-.047.09-.1.177-.149.264.016.024.023.05.04.06a3.643,3.643,0,0,1,1.754,3.694.688.688,0,0,1-.686.668c-.091.006-.182,0-.273,0H.972c-.765,0-.939-.2-.968-.975a3.547,3.547,0,0,1,1.819-3.42m-.433,3.006H17.763a2.022,2.022,0,0,0-2.037-2.025c-2.141-.009-4.283,0-6.424,0-1.959,0-3.918-.006-5.877,0a2.022,2.022,0,0,0-2.035,2.025m8.187-5.445q-2.85,0-5.7,0a1.047,1.047,0,0,0-1.059.649,1.03,1.03,0,0,0,1.042,1.4q3.959.006,7.919,0c1.172,0,2.344,0,3.516,0a1.027,1.027,0,1,0,.018-2.049c-1.911,0-3.823,0-5.734,0" transform="translate(0 -266.593)" fill="#fff"></path><path id="Trazado_325" data-name="Trazado 325" d="M100.9,76.211a1.774,1.774,0,0,1-.256.425q-1.375,1.4-2.775,2.782a.691.691,0,0,1-1.029.055.676.676,0,0,1,.049-1q1.406-1.42,2.825-2.827a.665.665,0,0,1,.782-.163.7.7,0,0,1,.4.731" transform="translate(-87.819 -68.531)" fill="#fff"></path><path id="Trazado_326" data-name="Trazado 326" d="M76.245,129.7a.662.662,0,0,1-.667-.674.676.676,0,0,1,.666-.68.693.693,0,0,1,.692.7.681.681,0,0,1-.692.657" transform="translate(-68.678 -116.625)" fill="#fff"></path></g></g></g></svg>