<svg xmlns="http://www.w3.org/2000/svg" xmlns:xlink="http://www.w3.org/1999/xlink" width="70" height="70" viewBox="0 0 70 70"><defs><clipPath id="clip-path"><rect id="Rect&#xE1;ngulo_1807" data-name="Rect&#xE1;ngulo 1807" width="34.967" height="35" fill="#fff"></rect></clipPath></defs><g id="Grupo_1640" data-name="Grupo 1640" transform="translate(-340 -850)"><circle id="Elipse_1" data-name="Elipse 1" cx="35" cy="35" r="35" transform="translate(340 850)" fill="#3728ae"></circle><g id="Grupo_1272" data-name="Grupo 1272" transform="translate(358 868)"><g id="Grupo_517" data-name="Grupo 517" clip-path="url(#clip-path)"><path id="Trazado_2310" data-name="Trazado 2310" d="M21.871,0a4.162,4.162,0,0,1,2.22,1.372Q26.629,3.957,29.213,6.5a3.381,3.381,0,0,1,1.045,2.538q-.013,10.218,0,20.436v.45a1.834,1.834,0,0,1,1.689,1.119c.029.067.159.11.25.127a3.368,3.368,0,0,1,2.773,3.162c.026.446-.168.664-.615.664q-3.622,0-7.245,0c-.4,0-.636-.2-.637-.51s.239-.513.634-.514q3.264,0,6.527,0h.308a7.525,7.525,0,0,0-.453-.867,2.279,2.279,0,0,0-1.837-.963c-.434-.025-.55-.136-.629-.56a.675.675,0,0,0-.737-.61c-.968-.005-1.937,0-2.905,0-.514,0-.637-.107-.717-.612a.775.775,0,0,0-.794-.7c-.706-.017-1.412-.013-2.118-.026-.537-.01-.648-.118-.713-.656a1.153,1.153,0,0,0-1.259-1c-1.777-.006-3.554,0-5.331,0-.045,0-.091,0-.137,0a1.189,1.189,0,0,0-1.136,1.218c0,.217,0,.433,0,.65,0,.53-.169.7-.689.7-.4,0-.8,0-1.2,0a1.083,1.083,0,0,0-1.109.992c-.065.488-.187.6-.684.6q-4,0-8,0a2.323,2.323,0,0,0-2.244,1.386,1.818,1.818,0,0,0-.092.256,1.333,1.333,0,0,0-.028.185H23.94a2.341,2.341,0,0,1,.375.009.467.467,0,0,1,.437.484.476.476,0,0,1-.433.522,1.649,1.649,0,0,1-.307.009Q12.393,34.994.775,35A.743.743,0,0,1,0,34.584v-.342a7.437,7.437,0,0,1,.361-1.2,3.279,3.279,0,0,1,3.1-1.925c.452-.01.9,0,1.391,0v-.477q0-10.779-.009-21.558A3.387,3.387,0,0,1,5.922,6.459C6.634,5.786,7.312,5.078,8,4.385a.522.522,0,0,1,.641-.167.506.506,0,0,1,.094.876c-.678.69-1.349,1.389-2.056,2.05a2.506,2.506,0,0,0-.821,1.97q.025,10.762.01,21.525V31.1c.119.008.206.018.294.018,1.583,0,3.166,0,4.749,0a.359.359,0,0,0,.4-.266,2.04,2.04,0,0,1,1.964-1.329c.273-.005.545,0,.844,0,.018-.238.015-.464.054-.682a2.191,2.191,0,0,1,2.215-1.889q2.733-.034,5.466,0a2.143,2.143,0,0,1,2.107,1.453.388.388,0,0,0,.285.2c.534.024,1.07.018,1.605.024a1.758,1.758,0,0,1,1.678,1.078.344.344,0,0,0,.379.238c.429-.013.859,0,1.324,0v-.406q0-10.25.005-20.5a2.421,2.421,0,0,0-.759-1.828q-2.736-2.7-5.436-5.435a2.394,2.394,0,0,0-1.827-.754c-2.483.019-4.966.013-7.448,0a2.129,2.129,0,0,0-1.62.668c-.42.433-.851.856-1.28,1.281-.3.3-.6.322-.831.081s-.174-.517.112-.807.558-.537.818-.824A4.086,4.086,0,0,1,13.191,0Z" fill="#fff"></path><path id="Trazado_2311" data-name="Trazado 2311" d="M15.386,7.855c0-.688,0-1.335,0-1.981,0-.531.162-.7.69-.7q1.416,0,2.834,0c.488,0,.645.164.647.661,0,.657,0,1.315,0,2.016.575,0,1.117,0,1.659,0,.515,0,.68.16.682.667q.006,1.417,0,2.834c0,.506-.172.669-.681.67-.534,0-1.069,0-1.66,0V12.4q0,1.826,0,3.653c0,.53-.161.688-.695.688q-1.416,0-2.834,0c-.457,0-.641-.185-.642-.644,0-1.218,0-2.436,0-3.654v-.417H13.773c-.57,0-.72-.153-.72-.733q0-1.4,0-2.8c0-.462.176-.635.641-.638.545,0,1.09,0,1.691,0M14.091,11c.583,0,1.129,0,1.674,0,.468,0,.643.171.644.633,0,1.229,0,2.459,0,3.688V15.7h2.124V15.3q0-1.81,0-3.619c0-.508.173-.679.674-.681h1.645V8.88c-.59,0-1.156.005-1.723,0a.533.533,0,0,1-.6-.591c-.008-.239,0-.478,0-.717V6.2c-.691,0-1.328,0-1.964,0a1.028,1.028,0,0,0-.16.032c0,.641,0,1.276,0,1.91,0,.578-.152.731-.722.732h-1.6Z" fill="#fff"></path><path id="Trazado_2312" data-name="Trazado 2312" d="M17.494,23.164h6.079a2.153,2.153,0,0,1,.341.01.46.46,0,0,1,.427.454.471.471,0,0,1-.374.535,1.444,1.444,0,0,1-.373.025q-6.1,0-12.192,0a1.51,1.51,0,0,1-.4-.036.457.457,0,0,1-.347-.519.462.462,0,0,1,.423-.459,2.153,2.153,0,0,1,.341-.01h6.079" fill="#fff"></path><path id="Trazado_2313" data-name="Trazado 2313" d="M20.646,21.053H15.9a1.848,1.848,0,0,1-.307-.007.508.508,0,0,1-.034-1,1.058,1.058,0,0,1,.271-.015h9.663a1.734,1.734,0,0,1,.239.006.5.5,0,0,1,.454.54.472.472,0,0,1-.487.471c-.227.015-.455,0-.683,0h-4.37" fill="#fff"></path><path id="Trazado_2314" data-name="Trazado 2314" d="M10.942,21.053c-.512,0-1.023,0-1.535,0-.392,0-.593-.175-.6-.5s.2-.521.613-.522q1.518-.006,3.036,0c.4,0,.624.2.62.519s-.227.5-.634.5c-.5,0-1,0-1.5,0" fill="#fff"></path><path id="Trazado_2315" data-name="Trazado 2315" d="M16.939,30.056a.493.493,0,0,1-.507-.489.495.495,0,1,1,.988-.028.5.5,0,0,1-.481.517" fill="#fff"></path><path id="Trazado_2316" data-name="Trazado 2316" d="M29.2,32.657a.5.5,0,0,1-.488-.51.49.49,0,0,1,.519-.507.481.481,0,0,1,.469.52.5.5,0,0,1-.5.5" fill="#fff"></path><path id="Trazado_2317" data-name="Trazado 2317" d="M21.027,31.909a.487.487,0,0,1,.49.5.5.5,0,1,1-.99-.011.484.484,0,0,1,.5-.489" fill="#fff"></path></g></g></g></svg>