<svg xmlns="http://www.w3.org/2000/svg" xmlns:xlink="http://www.w3.org/1999/xlink" width="70" height="70" viewBox="0 0 70 70"><defs><clipPath id="clip-path"><rect id="Rect&#xE1;ngulo_493" data-name="Rect&#xE1;ngulo 493" width="42" height="27.048" fill="#fff"></rect></clipPath></defs><g id="danios-asegurados2" transform="translate(-235 -1030)"><circle id="danios-asegurados" cx="35" cy="35" r="35" transform="translate(235 1030)" fill="#3728ae"></circle><g id="Grupo_1495" data-name="Grupo 1495" transform="translate(249 1050.999)"><g id="Grupo_329" data-name="Grupo 329" clip-path="url(#clip-path)"><path id="Trazado_335" data-name="Trazado 335" d="M3.688,84.144c.953,0,1.906-.007,2.859,0,.259,0,.388-.041.454-.343a4.162,4.162,0,0,1,8.14.007c.06.266.155.341.413.337.892-.014,1.785,0,2.677-.008a.806.806,0,0,0,.9-.9c.011-1.1,0-2.208,0-3.312a.93.93,0,0,0-.484-.81,18.921,18.921,0,0,0-8.5-3.142c-.285-.036-.571-.077-.857-.088a1.9,1.9,0,0,1-1.324-.6A18.825,18.825,0,0,0,3.479,72.01a1.974,1.974,0,0,0-.812-.2c-.619-.029-1.24,0-1.86-.012A.729.729,0,1,1,.819,70.35c.786-.008,1.573-.01,2.359,0a1.211,1.211,0,0,1,.514.131,23.577,23.577,0,0,1,5.117,3.57,1.459,1.459,0,0,0,.783.356,21.141,21.141,0,0,1,9.813,3.455,2.45,2.45,0,0,1,1.185,2.244c-.021,1.028,0,2.057-.006,3.085a2.264,2.264,0,0,1-2.426,2.4c-.877,0-1.755.008-2.632,0-.256,0-.39.047-.481.328a4.159,4.159,0,0,1-7.956-.006c-.092-.287-.236-.323-.485-.322-1.891.007-3.781.014-5.672-.009A1.155,1.155,0,0,1,.178,85.3a.878.878,0,0,1-.1-.7.644.644,0,0,1,.707-.45h2.9m7.381-2.177a2.721,2.721,0,1,0,2.721,2.744,2.724,2.724,0,0,0-2.721-2.744" transform="translate(0 -61.815)" fill="#fff"></path><path id="Trazado_336" data-name="Trazado 336" d="M190.278,84.138h4.647c.484,0,.968-.007,1.452,0a.729.729,0,1,1-.005,1.447q-2.881.009-5.763,0c-.268,0-.416.033-.516.343a4.164,4.164,0,0,1-7.963-.031c-.028-.086-.059-.171-.106-.307-1.025,0-2.064.006-3.1,0a2.241,2.241,0,0,1-2.313-2.324c0-.121,0-.242,0-.363,0-.983.006-1.966,0-2.95a2.249,2.249,0,0,1,1.042-1.992,20.787,20.787,0,0,1,8.973-3.437,1.782,1.782,0,0,1,.36-.04,2.617,2.617,0,0,0,1.964-.912,20.458,20.458,0,0,1,4.485-3.054,1.669,1.669,0,0,1,.686-.166c.71-.021,1.422-.009,2.133-.007.6,0,.952.279.943.737-.008.443-.351.71-.921.714-.454,0-.911.033-1.361-.007a2.613,2.613,0,0,0-1.623.432,20.2,20.2,0,0,0-4.08,3.077,2.018,2.018,0,0,1-1.33.591,19.186,19.186,0,0,0-9.283,3.185,1.076,1.076,0,0,0-.541,1.01c.026,1.028.005,2.057.009,3.085,0,.684.284.968.962.971.877,0,1.755,0,2.632,0,.207,0,.34-.03.378-.269a4.149,4.149,0,0,1,4.194-3.364,4.241,4.241,0,0,1,4.049,3.629m-6.871.542a2.72,2.72,0,1,0,2.738-2.719,2.714,2.714,0,0,0-2.738,2.719" transform="translate(-155.194 -61.809)" fill="#fff"></path><path id="Trazado_337" data-name="Trazado 337" d="M100.372,2.439c-1.263,1.218-2.438,2.349-3.612,3.482-.607.586-.868.587-1.488.009C94.178,4.91,93.083,3.891,91.9,2.894c.08.474.156.948.241,1.421.129.713.266,1.425.4,2.138a.749.749,0,0,1-.7,1c-1.351.218-2.7.429-4.152.658.582.519,1.1.978,1.61,1.435.6.532,1.2,1.059,1.8,1.592.43.384.5.8.2,1.141s-.725.33-1.156-.05q-2.227-1.966-4.452-3.935a.792.792,0,0,1-.345-.866.8.8,0,0,1,.757-.543c1.509-.226,3.015-.47,4.521-.708.1-.016.2-.043.361-.078-.143-.814-.28-1.613-.423-2.41-.154-.862-.3-1.726-.476-2.584C90,.7,90,.337,90.392.107c.422-.248.738-.025,1.044.263q2.134,2,4.28,3.991c.086.08.179.154.29.25.133-.121.257-.228.375-.342q2.025-1.952,4.047-3.907c.276-.268.56-.473.963-.288a.815.815,0,0,1,.436.868c-.007,1.452,0,2.9,0,4.355v.487c1.132-.28,2.217-.538,3.3-.82a.777.777,0,0,1,.9.225.752.752,0,0,1-.008.926c-.8,1.368-1.6,2.741-2.4,4.109-.276.471-.668.607-1.053.388s-.473-.641-.187-1.138c.5-.876,1.015-1.747,1.576-2.711l-2.142.521c-.147.036-.291.08-.438.113a.734.734,0,0,1-.994-.769c-.01-1.255,0-2.51,0-3.765V2.439" transform="translate(-74.962 0)" fill="#fff"></path><path id="Trazado_338" data-name="Trazado 338" d="M289.067,114.588c-.468,0-.938-.023-1.4.005a4.906,4.906,0,0,1-2.89-.9.691.691,0,0,1-.271-.943.7.7,0,0,1,.963-.313,6.681,6.681,0,0,0,.685.347,5.607,5.607,0,0,0,1.386.337c1.131.049,2.265.009,3.4.021.556.006.905.393.794.854a.74.74,0,0,1-.8.591c-.619,0-1.238,0-1.858,0" transform="translate(-249.928 -98.733)" fill="#fff"></path><path id="Trazado_339" data-name="Trazado 339" d="M4.169,114.624c-.6,0-1.208.007-1.812,0-.537-.008-.861-.288-.864-.723s.318-.72.854-.724c1.012-.008,2.024-.024,3.035,0a3.457,3.457,0,0,0,2.025-.519,2.581,2.581,0,0,1,.36-.188.721.721,0,0,1,.968.311.692.692,0,0,1-.273.945,4.869,4.869,0,0,1-2.843.9c-.482-.025-.966,0-1.449,0" transform="translate(-1.312 -98.769)" fill="#fff"></path></g></g></g></svg>