<svg xmlns="http://www.w3.org/2000/svg" xmlns:xlink="http://www.w3.org/1999/xlink" width="70" height="70" viewBox="0 0 70 70"><defs><clipPath id="clip-path"><rect id="Rect&#xE1;ngulo_4572" data-name="Rect&#xE1;ngulo 4572" width="35.013" height="35" fill="#fff"></rect></clipPath></defs><g id="danio-montaje" transform="translate(-339 -1335)"><circle id="Elipse_1" data-name="Elipse 1" cx="35" cy="35" r="35" transform="translate(339 1335)" fill="#3728ae"></circle><g id="Grupo_1616" data-name="Grupo 1616" transform="translate(356 1353)"><g id="Grupo_1615" data-name="Grupo 1615" clip-path="url(#clip-path)"><path id="Trazado_7700" data-name="Trazado 7700" d="M0,28.162c.056-.243.1-.487.168-.728a4.955,4.955,0,0,1,1.051-1.971c.393-.459.771-.932,1.184-1.37a.658.658,0,0,0,.148-.894,2.752,2.752,0,0,1,1.7-3.863c.236-.071.285-.192.292-.41.075-2.4.159-4.8.238-7.207.1-2.926.184-5.852.289-8.778A2.836,2.836,0,0,1,7.089.125,2.789,2.789,0,0,1,10.181,1.16a1.412,1.412,0,0,0,.42.38q5.187,2.965,10.381,5.916a3.987,3.987,0,0,1,2.095,2.838,5.593,5.593,0,0,1,.077.985q.009,3.213,0,6.426c0,.242.045.361.315.4a1.469,1.469,0,0,1,1.144.829.44.44,0,0,0,.481.264q2.871-.009,5.741,0a1.715,1.715,0,0,1,1.915,1.919.583.583,0,0,0,.329.616,1.63,1.63,0,0,1,.8,1.555c-.007,1.4.012,2.8-.01,4.2a2,2,0,0,0,.407,1.307,3.926,3.926,0,0,1-2.562,6.143,1.341,1.341,0,0,0-.192.062H15.864a1.32,1.32,0,0,0-.185-.066,3.96,3.96,0,0,1-2.3-6.456.889.889,0,0,0,.17-.453c.038-.418-.008-.849.07-1.258.466-2.425.954-4.845,1.443-7.266a1.706,1.706,0,0,1,1.6-1.44c.088-.01.175-.023.268-.035a1.09,1.09,0,0,0,.02-.148c0-1.208,0-2.415.007-3.623,0-.213-.11-.259-.267-.322a2.2,2.2,0,0,1-1.244-2.95.391.391,0,0,0-.115-.521Q12.66,7.81,10.005,5.147C9.927,5.07,9.844,5,9.7,4.872a2.524,2.524,0,0,0-.256.546Q8.179,12.457,6.924,19.5a.608.608,0,0,0,.188.6,2.721,2.721,0,0,1,.377,3.366.842.842,0,0,0-.107.474c.087.941.23,1.878.287,2.82a3.529,3.529,0,0,0,1.607,2.86c.422.289.8.643,1.208.951a.556.556,0,0,1,.254.511c-.018.581-.006,1.162-.006,1.743v1.051h1.1V35H5.4a6.425,6.425,0,0,1-1.588-.641A13.864,13.864,0,0,1,.641,31.106a1.223,1.223,0,0,1-.155-.3C.319,30.289.161,29.772,0,29.256V28.162M10.748,2.934c-.07.282-.116.55-.207.8a.386.386,0,0,0,.116.47q2.763,2.745,5.51,5.507A.319.319,0,0,0,16.6,9.8a2.238,2.238,0,1,1,1.725,4.129.348.348,0,0,0-.264.394c.01,1.139,0,2.278,0,3.416,0,.1.013.2.02.291H22.02v-.392c0-2.13-.015-4.26.006-6.389a2.994,2.994,0,0,0-1.65-2.841c-2.963-1.672-5.913-3.364-8.869-5.048-.246-.141-.495-.278-.759-.426M9.539,31.608l.093-.088a1.51,1.51,0,0,0-.231-.352c-.417-.352-.85-.686-1.276-1.029a3.922,3.922,0,0,1-1.472-2.5c-.073-.449-.106-.9-.158-1.356-.065-.57-.131-1.139-.2-1.716a2.883,2.883,0,0,1-2.553-.077.363.363,0,0,0-.3.118c-.469.527-.937,1.056-1.382,1.6A3.733,3.733,0,0,0,2.195,31.3c.554.589,1.133,1.154,1.713,1.717a2.668,2.668,0,0,0,1.856.825c1.2.016,2.391.015,3.586.019a1.3,1.3,0,0,0,.219-.035V32.736H8.5V31.608Zm17.58-10.155h.389c1.265,0,2.529,0,3.794-.007.1,0,.283-.078.3-.15.152-.636-.136-.984-.794-.984q-2.238,0-4.477,0c-.41,0-.821-.01-1.23.008-.089,0-.243.1-.249.168-.026.313-.012.628-.012.983h1.111v1.1c-.3,0-.573.011-.845,0-.214-.012-.272.073-.271.277.007,1.322.009,2.643,0,3.965,0,.234.085.285.3.284,1.036-.009,2.074-.032,3.11,0,1.5.049,3.028-.237,4.509.364V23.426c0-.679-.173-.855-.843-.856H27.119ZM23.728,33.867c.74,0,1.481,0,2.222,0,1.8-.008,3.6.024,5.4-.04a2.779,2.779,0,0,0,2.439-3.459,2.813,2.813,0,0,0-2.888-2.14q-7.177,0-14.357,0a3.968,3.968,0,0,0-.545.034,2.821,2.821,0,0,0,.585,5.607c2.382-.006,4.763,0,7.145,0m-.03-6.779c.011-.09.022-.133.022-.177q0-3.519,0-7.039c0-.472-.219-.676-.7-.676q-3.059,0-6.117,0c-.484,0-.66.145-.753.61q-.685,3.429-1.368,6.86c-.049.249-.07.5-.1.735.524-.1,1-.23,1.478-.28a14.647,14.647,0,0,1,1.468-.031q2.818,0,5.638,0H23.7M5.665,19.255l.159.018L8.254,5.664A8.116,8.116,0,0,1,7.14,5.506a7.667,7.667,0,0,1-1-.443Q5.9,12.177,5.665,19.255M6.77,22a1.686,1.686,0,1,0-1.69,1.7A1.7,1.7,0,0,0,6.77,22M6.218,2.819a1.686,1.686,0,0,0,3.371,0,1.686,1.686,0,1,0-3.371,0m12.411,9.018a1.124,1.124,0,1,0-1.122,1.139,1.123,1.123,0,0,0,1.122-1.139" fill="#fff"></path><rect id="Rect&#xE1;ngulo_4570" data-name="Rect&#xE1;ngulo 4570" width="2.224" height="1.064" transform="translate(26.002 23.737)" fill="#fff"></rect><rect id="Rect&#xE1;ngulo_4571" data-name="Rect&#xE1;ngulo 4571" width="2.225" height="1.073" transform="translate(29.374 23.736)" fill="#fff"></rect><path id="Trazado_7701" data-name="Trazado 7701" d="M25.406,29.536a2.317,2.317,0,0,1,3.39-.009c1.367-.954,2.567-.939,3.392.044A2.254,2.254,0,0,1,28.8,32.538a2.26,2.26,0,0,1-3.376,0c-1.224,1.015-2.042,1.016-3.4.021-1.377,1-2.13,1-3.381-.005-1.348.981-2.529.971-3.39-.027a2.242,2.242,0,0,1,.065-3.041,2.27,2.27,0,0,1,3.323.064,2.31,2.31,0,0,1,1.678-.758,2.209,2.209,0,0,1,1.681.76,2.294,2.294,0,0,1,3.407-.019m.576,1.519a1.135,1.135,0,0,0,1.138,1.123,1.15,1.15,0,0,0,1.114-1.12,1.126,1.126,0,1,0-2.252,0m-5.664-1.126a1.108,1.108,0,0,0-1.11,1.138,1.129,1.129,0,0,0,1.114,1.111,1.152,1.152,0,0,0,1.137-1.132,1.123,1.123,0,0,0-1.141-1.117M18.06,31.042a1.107,1.107,0,0,0-1.135-1.114,1.126,1.126,0,0,0-1.115,1.109,1.155,1.155,0,0,0,1.128,1.142,1.127,1.127,0,0,0,1.122-1.137m6.775.009a1.1,1.1,0,0,0-1.124-1.122,1.126,1.126,0,0,0-1.125,1.134A1.154,1.154,0,0,0,23.7,32.179a1.126,1.126,0,0,0,1.13-1.128m5.657-1.122a1.121,1.121,0,0,0-1.126,1.128,1.142,1.142,0,0,0,1.144,1.121,1.125,1.125,0,0,0,1.1-1.122,1.105,1.105,0,0,0-1.12-1.127" fill="#fff"></path><path id="Trazado_7702" data-name="Trazado 7702" d="M16.393,24.8a20.813,20.813,0,0,1,.632-4.471c.129-.007.229-.017.329-.017,1.821,0,3.642,0,5.463-.006.266,0,.35.067.347.341-.014,1.286-.006,2.572-.007,3.858,0,.089-.007.179-.012.3Zm5.613-3.347c-1.309,0-2.584,0-3.859.006a.253.253,0,0,0-.2.125c-.149.7-.283,1.4-.424,2.106h4.482Z" fill="#fff"></path></g></g></g></svg>