<svg xmlns="http://www.w3.org/2000/svg" xmlns:xlink="http://www.w3.org/1999/xlink" width="70" height="70" viewBox="0 0 70 70"><defs><clipPath id="clip-path"><rect id="Rect&#xE1;ngulo_571" data-name="Rect&#xE1;ngulo 571" width="28.056" height="35" fill="#fff"></rect></clipPath></defs><g id="danios-bienes" transform="translate(-405 -1351)"><circle id="Elipse_2" data-name="Elipse 2" cx="35" cy="35" r="35" transform="translate(405 1351)" fill="#3728ae"></circle><g id="Grupo_1267" data-name="Grupo 1267" transform="translate(426 1369)"><g id="Grupo_350" data-name="Grupo 350" clip-path="url(#clip-path)"><path id="Trazado_467" data-name="Trazado 467" d="M14.3,0a6.854,6.854,0,0,1,.757.661c3.266,3.8,6.556,7.576,9.774,11.415A14.01,14.01,0,1,1,.222,23.363a13.608,13.608,0,0,1,3.073-11.38,1.033,1.033,0,0,1,1.2-.428,1.071,1.071,0,0,1,.714,1.091,3.107,3.107,0,0,0,3.243,3c.145-.006.29-.036.462-.059v-.39q0-2.784,0-5.568a10.913,10.913,0,0,1,2.663-7.308c.538-.633,1.073-1.269,1.627-1.889A3.7,3.7,0,0,1,13.757,0H14.3m6.363,30.949a.806.806,0,0,0,.107-.059,11.946,11.946,0,0,0,5.2-9.15,11.376,11.376,0,0,0-2.842-8.515c-2.943-3.46-5.909-6.9-8.864-10.352-.072-.084-.134-.177-.218-.29-.308.356-.566.658-.827.956A8.968,8.968,0,0,0,10.958,9.7c.013,2.152,0,4.3,0,6.457a1.057,1.057,0,0,1-.841,1.2,5.064,5.064,0,0,1-4.806-.634,5.183,5.183,0,0,1-1.572-1.776c-3.367,5.168-1.5,12.76,3.729,16.015-.048-.1-.081-.169-.111-.238a7.1,7.1,0,0,1,1-7.751c1.547-1.91,3.187-3.746,4.787-5.613a1.041,1.041,0,0,1,1.761,0q2.326,2.708,4.645,5.42a7.123,7.123,0,0,1,1.7,6.16,19.175,19.175,0,0,1-.59,2m-11.08-.442c.025-.142.044-.217.05-.293a4.371,4.371,0,0,1,1.1-2.557q1.189-1.387,2.378-2.774a1.057,1.057,0,0,1,1.831-.009c.794.923,1.583,1.851,2.378,2.774A4.532,4.532,0,0,1,18.38,29.83c.037.2.053.408.089.694.105-.174.168-.268.22-.367a5.244,5.244,0,0,0-.713-6.067c-1.239-1.457-2.488-2.9-3.731-4.358-.065-.076-.113-.166-.216-.319a2.176,2.176,0,0,1-.138.234c-1.3,1.523-2.613,3.037-3.9,4.568a5.244,5.244,0,0,0-.4,6.291m4.446-3.557c-.665.784-1.317,1.5-1.909,2.262a2.32,2.32,0,0,0,.323,3.123,2.389,2.389,0,0,0,3.125.037,2.316,2.316,0,0,0,.413-3.086c-.595-.8-1.277-1.535-1.953-2.337" transform="translate(0)" fill="#fff"></path></g></g></g></svg>