<svg xmlns="http://www.w3.org/2000/svg" xmlns:xlink="http://www.w3.org/1999/xlink" width="401.503" height="278" viewBox="0 0 401.503 278"><defs><clipPath id="clip-path"><path id="Trazado_4173" data-name="Trazado 4173" d="M190.66,131.214a31.068,31.068,0,1,1,23.93,11.236,31.066,31.066,0,0,1-23.93-11.236m14.376-78.745a59.34,59.34,0,0,0-15.824,4.88l-9.061-7.326L170.4,58.109,160.643,66.2l5.523,10.263a59.327,59.327,0,0,0-7.724,14.646l-11.6,1.229-1.176,12.616-1.177,12.615,11.171,3.354a59.315,59.315,0,0,0,4.879,15.822l-7.325,9.063,8.086,9.754,8.089,9.752,10.263-5.522a59.223,59.223,0,0,0,14.646,7.723l1.228,11.6,12.616,1.177,12.615,1.177,3.354-11.172a59.315,59.315,0,0,0,15.822-4.879L249,172.743l9.753-8.089,9.753-8.087L262.982,146.3a59.317,59.317,0,0,0,7.723-14.645l11.6-1.23,1.18-12.615,1.176-12.615-11.171-3.354a59.305,59.305,0,0,0-4.88-15.822l7.327-9.064-8.089-9.753-8.089-9.754L249.5,62.975A59.349,59.349,0,0,0,234.85,55.25l-1.229-11.6L221,42.475,208.39,41.3Z" transform="translate(-144.49 -41.298)" fill="#405c9c"></path></clipPath><clipPath id="clip-path-2"><rect id="Rect&#xE1;ngulo_3129" data-name="Rect&#xE1;ngulo 3129" width="376.624" height="278" fill="none"></rect></clipPath><clipPath id="clip-path-3"><rect id="Rect&#xE1;ngulo_3195" data-name="Rect&#xE1;ngulo 3195" width="370.542" height="5.867" fill="#405c9c"></rect></clipPath></defs><g id="directores" transform="translate(9.44 0)"><path id="Trazado_4211" data-name="Trazado 4211" d="M384.18,278c-25.326,0-367.731-.739-367.731-.78-.141-.332-43.467-53.434,11.089-108.952,27.032-27.509-24.824-63.148,0-93.748,42.522-52.416,84.6-22.9,119.646-37.638a56.324,56.324,0,0,0,18.628-13.218,69.266,69.266,0,0,1,11.448-9.5q.945-.63,1.909-1.229a76.27,76.27,0,0,1,7.638-4.145q2.647-1.248,5.394-2.309h0a88.31,88.31,0,0,1,8.94-2.911A101.164,101.164,0,0,1,214.477.953q2.974-.387,6-.611C259.637-2.6,303.711,13.958,326.456,38.163c4.579,4.874,25.4,30.094,8.988,64.758-10.364,21.886,33.052,42.788,48.48,67.78,39.224,63.541.611,106.474.255,107.3" transform="translate(-9.44 -0.003)" fill="#ebf3fa"></path><g id="Grupo_791" data-name="Grupo 791" transform="translate(173.762 49.665)"><g id="Grupo_790" data-name="Grupo 790" clip-path="url(#clip-path)"><rect id="Rect&#xE1;ngulo_3123" data-name="Rect&#xE1;ngulo 3123" width="153.761" height="153.76" transform="translate(-14.25 138.706) rotate(-84.134)" fill="#405c9c"></rect></g></g><g id="Grupo_793" data-name="Grupo 793"><g id="Grupo_792" data-name="Grupo 792" clip-path="url(#clip-path-2)"><path id="Trazado_4174" data-name="Trazado 4174" d="M226.262,243.965h72.48a9.694,9.694,0,0,0,9.7-9.694v-114.5a9.7,9.7,0,0,0-9.7-9.7h-72.48a9.7,9.7,0,0,0-9.7,9.7v114.5a9.693,9.693,0,0,0,9.7,9.694" transform="translate(43.874 22.3)" fill="#ef8220"></path><rect id="Rect&#xE1;ngulo_3124" data-name="Rect&#xE1;ngulo 3124" width="4.761" height="36.227" transform="translate(337.79 218.843)" fill="#e3f2ff"></rect><rect id="Rect&#xE1;ngulo_3125" data-name="Rect&#xE1;ngulo 3125" width="4.76" height="32.167" transform="translate(328.385 222.903)" fill="#e3f2ff"></rect><rect id="Rect&#xE1;ngulo_3126" data-name="Rect&#xE1;ngulo 3126" width="4.76" height="26.886" transform="translate(318.168 228.184)" fill="#e3f2ff"></rect><rect id="Rect&#xE1;ngulo_3127" data-name="Rect&#xE1;ngulo 3127" width="4.76" height="20.228" transform="translate(307.674 234.843)" fill="#e3f2ff"></rect><path id="Trazado_4175" data-name="Trazado 4175" d="M232.4,206.277l-1.032-.367,8.976-25.183,19.466-5.147,7-27.639,15.023-6.63,3.364-21.491,1.082.17-3.457,22.082-15.08,6.656-7.022,27.745-19.532,5.169Z" transform="translate(46.872 24.274)" fill="#e3f2ff"></path><path id="Trazado_4176" data-name="Trazado 4176" d="M258.147,165.2a2.921,2.921,0,1,1-4.11-.412,2.923,2.923,0,0,1,4.11.412" transform="translate(51.248 33.251)" fill="#ef8220"></path><path id="Trazado_4177" data-name="Trazado 4177" d="M258.173,169.828a3.469,3.469,0,1,1,.491-4.881,3.468,3.468,0,0,1-.491,4.881m-3.7-4.523a2.373,2.373,0,1,0,3.338.336,2.373,2.373,0,0,0-3.338-.336" transform="translate(51.156 33.159)" fill="#e3f2ff"></path><path id="Trazado_4178" data-name="Trazado 4178" d="M264.041,142.313a2.92,2.92,0,1,1-4.11-.414,2.92,2.92,0,0,1,4.11.414" transform="translate(52.442 28.614)" fill="#ef8220"></path><path id="Trazado_4179" data-name="Trazado 4179" d="M264.067,146.94a3.469,3.469,0,1,1,.491-4.883,3.474,3.474,0,0,1-.491,4.883m-3.7-4.524a2.373,2.373,0,1,0,3.338.336,2.374,2.374,0,0,0-3.338-.336" transform="translate(52.35 28.522)" fill="#e3f2ff"></path><path id="Trazado_4180" data-name="Trazado 4180" d="M276.339,136.642a2.921,2.921,0,1,1-4.11-.412,2.922,2.922,0,0,1,4.11.412" transform="translate(54.933 27.465)" fill="#ef8220"></path><path id="Trazado_4181" data-name="Trazado 4181" d="M276.365,141.269a3.469,3.469,0,1,1,.492-4.881,3.474,3.474,0,0,1-.492,4.881m-3.7-4.524a2.373,2.373,0,1,0,3.341.336,2.376,2.376,0,0,0-3.341-.336" transform="translate(54.841 27.373)" fill="#e3f2ff"></path><path id="Trazado_4182" data-name="Trazado 4182" d="M242.024,169.7a2.921,2.921,0,1,1-4.112-.412,2.922,2.922,0,0,1,4.112.412" transform="translate(47.981 34.161)" fill="#ef8220"></path><path id="Trazado_4183" data-name="Trazado 4183" d="M242.049,174.323a3.469,3.469,0,1,1,.491-4.883,3.472,3.472,0,0,1-.491,4.883m-3.7-4.523a2.373,2.373,0,1,0,3.338.334,2.373,2.373,0,0,0-3.338-.334" transform="translate(47.889 34.069)" fill="#e3f2ff"></path><path id="Trazado_4184" data-name="Trazado 4184" d="M251.829,147.739H226.777a2.1,2.1,0,0,1-2.1-2.1v-1.866a2.1,2.1,0,0,1,2.1-2.1h25.052a2.1,2.1,0,0,1,2.1,2.1v1.866a2.1,2.1,0,0,1-2.1,2.1" transform="translate(45.518 28.703)" fill="#ebebeb"></path><path id="Trazado_4185" data-name="Trazado 4185" d="M251.829,138.931H226.777a2.1,2.1,0,0,1-2.1-2.1v-1.865a2.1,2.1,0,0,1,2.1-2.1h25.052a2.1,2.1,0,0,1,2.1,2.1v1.865a2.1,2.1,0,0,1-2.1,2.1" transform="translate(45.518 26.918)" fill="#ebebeb"></path><path id="Trazado_4189" data-name="Trazado 4189" d="M96.572,140.945q-1.4-18.849-1.948-35.278c3.033-1.607,6.677-3.484,9.593-4.868,9.028-4.3,21.6-10.086,29.675-13.789,4.724-2.171,9.353-3.756,9.353-3.756s32.255-3.092,34.873-2.926c.826.047,4.857,1.452,10.146,3.468,11.438,4.341,33.49,13.178,37,15.7,5.149,3.686,23.574,94,24.064,100.135.477,5.958-25.058,14.109-48.706,20.354.017,9.157.2,21.983.41,33.692.031,2,.069,3.964.107,5.869H97.663c.138-2.011.261-3.995.362-5.869.01-.25.025-.494.036-.74.394-7.931,1.936-22.135,1.543-35.969,0,0,.25-14.581-1.2-20.859-.16-27.717-1.835-55.164-1.835-55.164m131.208,53.1c-.171-11.757-15.827-33.628-15.827-33.628a6.285,6.285,0,0,0-.734-.277c-.011.011-.808-.112-.808-.1-.017,0-2.433-2.3-2.448-2.3-.575,2.09-5.762,31.627-7.033,48.821,14.7-2.889,26.936-6.905,26.85-12.513" transform="translate(19.17 16.272)" fill="#dbd8e3"></path><path id="Trazado_4190" data-name="Trazado 4190" d="M94.791,252.851c.681-4.9,1.325-9.8,1.9-14.587,0-.025.011-.042.011-.07.186-1.6.378-3.17.559-4.739.01-.075.014-.16.025-.25.756-6.6,1.383-12.934,1.835-18.732a59.143,59.143,0,0,0-.578-13.029c-1.8-29.649-2.693-60.91-2.693-60.91-.946-12.794-1.49-24.754-1.851-35.9,0,0,40.5-19.142,44.172-20.238,0,0-7.683,18.041-13.445,58.362-2.212,15.487-6.315,41.555-9.294,68.162v.006c-1.611,14.358-4.634,28.982-6.932,41.926-.351,2-.687,3.959-.995,5.869H93.956q.431-2.928.835-5.869" transform="translate(19.034 17.098)" fill="#1e3d70"></path><path id="Trazado_4191" data-name="Trazado 4191" d="M155.694,205.768c-1.6-14.991-3.032-29.952-2.34-38.148,5.587-65.905,21.392-83.35,23.685-85.9,1.771.676,8.517,3.209,10.491,3.99,10.81,4.262,32.846,12.072,35.814,14.2C228.494,103.6,248.8,198.28,249.408,204.4c.41,4.138-26.084,12.787-53.116,20.508.25,7.41-.451,17.864,2.012,28.78.431,1.936,1.069,3.159,1.169,5.72l-37.681-.148q-.345-2.92-.708-5.869c-.718-5.889-1.468-11.921-2.213-18.332-11.3,2.925-18.982,4.809-18.982,4.809s-10.614-17.945-13.7-25.211c-.526-1.24,13.136-4.523,29.5-8.892m48.727-22.686c.357-13.492.293-22.906.293-22.906-1.335,4.623-3.181,17.832-4.809,30.962,5.474-2.755,4.446-5.331,4.516-8.056" transform="translate(25.563 16.555)" fill="#1e3d70"></path><path id="Trazado_4192" data-name="Trazado 4192" d="M171.572,86.389s-4.1-7.752-2.969-29.76c.314-6.1-32.027,14.46-32.027,14.46s.113,2.1.183,4.937c.036,1.181.058,2.474.058,3.8,0,.367,0,.735,0,1.1-.006.6-.011,1.2-.022,1.793-.017.74-.043,1.462-.079,2.16-.038.793-.09,1.543-.166,2.23a20.342,20.342,0,0,1-1.2,4.32c-1.484,3.42,24.117,3.617,36.224-5.044" transform="translate(27.407 11.243)" fill="#ffb27d"></path><path id="Trazado_4193" data-name="Trazado 4193" d="M143.917,92.825l-5.96,8.008s3.491,4.676,9.694,1.223Z" transform="translate(27.949 18.805)" fill="#ef8220"></path><path id="Trazado_4194" data-name="Trazado 4194" d="M142.285,99.789s-21.835,53.334-17.177,121.079l6.886,12.5,7.766-10.647s1.253-89.973,7.452-123.146Z" transform="translate(25.214 20.173)" fill="#ef8220"></path><path id="Trazado_4195" data-name="Trazado 4195" d="M137.607,87l6.382,7.466s10.241-1.983,13.248-7.333S137.607,87,137.607,87" transform="translate(27.878 17.163)" fill="#ffb27d"></path><path id="Trazado_4196" data-name="Trazado 4196" d="M137.082,81.183s.741,5.691,7.844,14L137.172,105.6l-4.2-21.613Z" transform="translate(26.939 16.447)" fill="#c4c1cc"></path><path id="Trazado_4197" data-name="Trazado 4197" d="M168.078,75.491S153.27,92.242,142.913,96.337l4.816,11.912,23.634-26.072Z" transform="translate(28.953 15.294)" fill="#c4c1cc"></path><path id="Trazado_4198" data-name="Trazado 4198" d="M39.214,222.257s19.658-19.063,32.549-22.235c5.961-1.467,13.812-9.7,21.271-19.368,2.458-3.184,4.87-6.526,7.165-9.836a.02.02,0,0,0,.006-.013c9.152-13.215,16.324-25.881,16.324-25.881s27.052-31.7,5.343-45.834c0,0-9.3-.2-14.406,2.57-5.247,2.849-16.439,26.208-18.337,30.345S66.674,174.558,65.3,175.421s-3.67,4.021-11.9,8.451c-10.07,5.422-25.891,21.292-25.891,21.292Z" transform="translate(5.573 20.074)" fill="#1e3d70"></path><path id="Trazado_4199" data-name="Trazado 4199" d="M117.77,225.443a12.511,12.511,0,0,0,3.923-.744s2.054-1.318,3.57-2.166a11.571,11.571,0,0,1,1.2-.606,22.838,22.838,0,0,0,6.6-3.146c2.584-1.97,11.012-9.853,11.012-9.853l-5.447-8.371-2.515-8.293s-19.647,1.954-22.268,3.512a8.059,8.059,0,0,0-.72.482c-2.093,1.534-3,3.556-4.009,4.484-.367.344-3.789,4.007-3.6,5.493a4.893,4.893,0,0,0,2.56,4.011s.694,4.015,2.77,5.81a7.271,7.271,0,0,0,3.738,5.222s.951,3.721,3.182,4.166" transform="translate(21.376 38.951)" fill="#ffb27d"></path><path id="Trazado_4200" data-name="Trazado 4200" d="M146.614,9.331s-35.51-8.56-28.031,36.4,16,48.609,37.629,39.645,20.13-37.72,21.418-51.793S157.974,9.987,146.614,9.331" transform="translate(23.814 1.758)" fill="#ffb27d"></path><path id="Trazado_4201" data-name="Trazado 4201" d="M157.3,35.682c.527-3.949,8.368-5.284,8.91.655s-3.793,16.289-6.745,15.221-2.892-10.431-2.165-15.877" transform="translate(31.783 6.543)" fill="#eea886"></path><path id="Trazado_4202" data-name="Trazado 4202" d="M175.887,58.324s-.712-14.14-5.865-14.657-6.032,5.162-6.032,5.162l-5.224.907s1.828-12.36-3.293-14.6-33.482,6.328-37.566,2.634S116.139,8.984,123.67,5.657s28.3-10.726,43.286-.26c0,0,11.818-1.171,13.428,8.375s-1.185,37.518-4.5,44.552" transform="translate(23.483 0)" fill="#1e3d70"></path><path id="Trazado_4203" data-name="Trazado 4203" d="M125.388,194.289,140.05,219.5s38.842-10.008,47.905-12.565l-20.717-24.659s-30.546,6.98-41.85,12.015" transform="translate(25.402 36.927)" fill="#1e3d70"></path><path id="Trazado_4204" data-name="Trazado 4204" d="M136.47,82.73h0a33.964,33.964,0,0,0,26.43-16.6,39.375,39.375,0,0,1-26.329,11.55c0,.367,0,.735,0,1.1-.006.6-.011,1.2-.022,1.793-.016.74-.043,1.462-.079,2.16" transform="translate(27.647 13.396)" fill="#ed975d"></path><path id="Trazado_4205" data-name="Trazado 4205" d="M113.022,178.575C90.946,201.3,61.78,229.917,61.78,229.917l-11.4-21.644S76.284,177.9,93.847,157.638c5.383,2.64,15.266,8.936,19.175,20.937" transform="translate(10.206 31.936)" fill="#eea886"></path><path id="Trazado_4206" data-name="Trazado 4206" d="M116.7,200.456s-5.943,2.872-7.495,4.15-7.84,5.988-9.365,7.1,2.3,4.257,13.541-.612,3.318-10.633,3.318-10.633" transform="translate(20.162 40.61)" fill="#eea886"></path><path id="Trazado_4207" data-name="Trazado 4207" d="M136.343,146.371,146.7,242.68H10.358L0,146.371Z" transform="translate(0 29.653)" fill="#7a8ee1"></path><rect id="Rect&#xE1;ngulo_3128" data-name="Rect&#xE1;ngulo 3128" width="22.772" height="8.665" transform="translate(134.78 263.668)" fill="#7a8ee1"></rect></g></g><g id="Grupo_795" data-name="Grupo 795" transform="translate(6.081 272.133)"><g id="Grupo_794" data-name="Grupo 794" clip-path="url(#clip-path-3)"><path id="Trazado_4208" data-name="Trazado 4208" d="M313.178,226.289v0Z" transform="translate(57.365 -226.289)" fill="#405c9c"></path><rect id="Rect&#xE1;ngulo_3130" data-name="Rect&#xE1;ngulo 3130" width="5.7" height="5.867" transform="translate(364.841)" fill="#405c9c"></rect><rect id="Rect&#xE1;ngulo_3131" data-name="Rect&#xE1;ngulo 3131" width="5.7" height="5.867" transform="translate(359.141)" fill="#405c9c"></rect><rect id="Rect&#xE1;ngulo_3132" data-name="Rect&#xE1;ngulo 3132" width="5.7" height="5.867" transform="translate(353.441)" fill="#405c9c"></rect><rect id="Rect&#xE1;ngulo_3133" data-name="Rect&#xE1;ngulo 3133" width="5.7" height="5.867" transform="translate(347.741)" fill="#405c9c"></rect><rect id="Rect&#xE1;ngulo_3134" data-name="Rect&#xE1;ngulo 3134" width="5.7" height="5.867" transform="translate(342.04)" fill="#405c9c"></rect><rect id="Rect&#xE1;ngulo_3135" data-name="Rect&#xE1;ngulo 3135" width="5.7" height="5.867" transform="translate(336.339)" fill="#405c9c"></rect><rect id="Rect&#xE1;ngulo_3136" data-name="Rect&#xE1;ngulo 3136" width="5.7" height="5.867" transform="translate(330.639)" fill="#405c9c"></rect><rect id="Rect&#xE1;ngulo_3137" data-name="Rect&#xE1;ngulo 3137" width="5.7" height="5.867" transform="translate(324.938)" fill="#405c9c"></rect><rect id="Rect&#xE1;ngulo_3138" data-name="Rect&#xE1;ngulo 3138" width="5.701" height="5.867" transform="translate(319.237)" fill="#405c9c"></rect><rect id="Rect&#xE1;ngulo_3139" data-name="Rect&#xE1;ngulo 3139" width="5.7" height="5.867" transform="translate(313.535)" fill="#405c9c"></rect><rect id="Rect&#xE1;ngulo_3140" data-name="Rect&#xE1;ngulo 3140" width="5.7" height="5.867" transform="translate(307.835)" fill="#405c9c"></rect><rect id="Rect&#xE1;ngulo_3141" data-name="Rect&#xE1;ngulo 3141" width="5.7" height="5.867" transform="translate(302.135)" fill="#405c9c"></rect><rect id="Rect&#xE1;ngulo_3142" data-name="Rect&#xE1;ngulo 3142" width="5.7" height="5.867" transform="translate(296.434)" fill="#405c9c"></rect><rect id="Rect&#xE1;ngulo_3143" data-name="Rect&#xE1;ngulo 3143" width="5.7" height="5.867" transform="translate(290.733)" fill="#405c9c"></rect><rect id="Rect&#xE1;ngulo_3144" data-name="Rect&#xE1;ngulo 3144" width="5.7" height="5.867" transform="translate(285.033)" fill="#405c9c"></rect><rect id="Rect&#xE1;ngulo_3145" data-name="Rect&#xE1;ngulo 3145" width="5.7" height="5.867" transform="translate(279.332)" fill="#405c9c"></rect><rect id="Rect&#xE1;ngulo_3146" data-name="Rect&#xE1;ngulo 3146" width="5.7" height="5.867" transform="translate(273.632)" fill="#405c9c"></rect><rect id="Rect&#xE1;ngulo_3147" data-name="Rect&#xE1;ngulo 3147" width="5.7" height="5.867" transform="translate(267.932)" fill="#405c9c"></rect><rect id="Rect&#xE1;ngulo_3148" data-name="Rect&#xE1;ngulo 3148" width="5.7" height="5.867" transform="translate(262.23)" fill="#405c9c"></rect><rect id="Rect&#xE1;ngulo_3149" data-name="Rect&#xE1;ngulo 3149" width="5.701" height="5.867" transform="translate(256.529)" fill="#405c9c"></rect><rect id="Rect&#xE1;ngulo_3150" data-name="Rect&#xE1;ngulo 3150" width="5.7" height="5.867" transform="translate(250.829)" fill="#405c9c"></rect><rect id="Rect&#xE1;ngulo_3151" data-name="Rect&#xE1;ngulo 3151" width="5.7" height="5.867" transform="translate(245.128)" fill="#405c9c"></rect><rect id="Rect&#xE1;ngulo_3152" data-name="Rect&#xE1;ngulo 3152" width="5.7" height="5.867" transform="translate(239.427)" fill="#405c9c"></rect><rect id="Rect&#xE1;ngulo_3153" data-name="Rect&#xE1;ngulo 3153" width="5.7" height="5.867" transform="translate(233.727)" fill="#405c9c"></rect><rect id="Rect&#xE1;ngulo_3154" data-name="Rect&#xE1;ngulo 3154" width="5.7" height="5.867" transform="translate(228.026)" fill="#405c9c"></rect><rect id="Rect&#xE1;ngulo_3155" data-name="Rect&#xE1;ngulo 3155" width="5.7" height="5.867" transform="translate(222.326)" fill="#405c9c"></rect><rect id="Rect&#xE1;ngulo_3156" data-name="Rect&#xE1;ngulo 3156" width="5.7" height="5.867" transform="translate(216.625)" fill="#405c9c"></rect><rect id="Rect&#xE1;ngulo_3157" data-name="Rect&#xE1;ngulo 3157" width="5.7" height="5.867" transform="translate(210.924)" fill="#405c9c"></rect><rect id="Rect&#xE1;ngulo_3158" data-name="Rect&#xE1;ngulo 3158" width="5.7" height="5.867" transform="translate(205.224)" fill="#405c9c"></rect><rect id="Rect&#xE1;ngulo_3159" data-name="Rect&#xE1;ngulo 3159" width="5.7" height="5.867" transform="translate(199.524)" fill="#405c9c"></rect><rect id="Rect&#xE1;ngulo_3160" data-name="Rect&#xE1;ngulo 3160" width="5.701" height="5.867" transform="translate(193.822)" fill="#405c9c"></rect><rect id="Rect&#xE1;ngulo_3161" data-name="Rect&#xE1;ngulo 3161" width="5.7" height="5.867" transform="translate(188.121)" fill="#405c9c"></rect><rect id="Rect&#xE1;ngulo_3162" data-name="Rect&#xE1;ngulo 3162" width="5.7" height="5.867" transform="translate(182.421)" fill="#405c9c"></rect><rect id="Rect&#xE1;ngulo_3163" data-name="Rect&#xE1;ngulo 3163" width="5.7" height="5.867" transform="translate(176.72)" fill="#405c9c"></rect><rect id="Rect&#xE1;ngulo_3164" data-name="Rect&#xE1;ngulo 3164" width="5.7" height="5.867" transform="translate(171.02)" fill="#405c9c"></rect><rect id="Rect&#xE1;ngulo_3165" data-name="Rect&#xE1;ngulo 3165" width="5.7" height="5.867" transform="translate(165.319)" fill="#405c9c"></rect><rect id="Rect&#xE1;ngulo_3166" data-name="Rect&#xE1;ngulo 3166" width="5.7" height="5.867" transform="translate(159.618)" fill="#405c9c"></rect><rect id="Rect&#xE1;ngulo_3167" data-name="Rect&#xE1;ngulo 3167" width="5.7" height="5.867" transform="translate(153.918)" fill="#405c9c"></rect><rect id="Rect&#xE1;ngulo_3168" data-name="Rect&#xE1;ngulo 3168" width="5.7" height="5.867" transform="translate(148.218)" fill="#405c9c"></rect><rect id="Rect&#xE1;ngulo_3169" data-name="Rect&#xE1;ngulo 3169" width="5.7" height="5.867" transform="translate(142.518)" fill="#405c9c"></rect><rect id="Rect&#xE1;ngulo_3170" data-name="Rect&#xE1;ngulo 3170" width="5.701" height="5.867" transform="translate(136.815)" fill="#405c9c"></rect><rect id="Rect&#xE1;ngulo_3171" data-name="Rect&#xE1;ngulo 3171" width="5.7" height="5.867" transform="translate(131.115)" fill="#405c9c"></rect><rect id="Rect&#xE1;ngulo_3172" data-name="Rect&#xE1;ngulo 3172" width="5.7" height="5.867" transform="translate(125.414)" fill="#405c9c"></rect><rect id="Rect&#xE1;ngulo_3173" data-name="Rect&#xE1;ngulo 3173" width="5.7" height="5.867" transform="translate(119.714)" fill="#405c9c"></rect><rect id="Rect&#xE1;ngulo_3174" data-name="Rect&#xE1;ngulo 3174" width="5.7" height="5.867" transform="translate(114.013)" fill="#405c9c"></rect><rect id="Rect&#xE1;ngulo_3175" data-name="Rect&#xE1;ngulo 3175" width="5.7" height="5.867" transform="translate(108.312)" fill="#405c9c"></rect><rect id="Rect&#xE1;ngulo_3176" data-name="Rect&#xE1;ngulo 3176" width="5.7" height="5.867" transform="translate(102.612)" fill="#405c9c"></rect><rect id="Rect&#xE1;ngulo_3177" data-name="Rect&#xE1;ngulo 3177" width="5.7" height="5.867" transform="translate(96.912)" fill="#405c9c"></rect><rect id="Rect&#xE1;ngulo_3178" data-name="Rect&#xE1;ngulo 3178" width="5.7" height="5.867" transform="translate(91.21)" fill="#405c9c"></rect><rect id="Rect&#xE1;ngulo_3179" data-name="Rect&#xE1;ngulo 3179" width="5.7" height="5.867" transform="translate(85.51)" fill="#405c9c"></rect><rect id="Rect&#xE1;ngulo_3180" data-name="Rect&#xE1;ngulo 3180" width="5.7" height="5.867" transform="translate(79.81)" fill="#405c9c"></rect><rect id="Rect&#xE1;ngulo_3181" data-name="Rect&#xE1;ngulo 3181" width="5.701" height="5.867" transform="translate(74.108)" fill="#405c9c"></rect><rect id="Rect&#xE1;ngulo_3182" data-name="Rect&#xE1;ngulo 3182" width="5.7" height="5.867" transform="translate(68.408)" fill="#405c9c"></rect><rect id="Rect&#xE1;ngulo_3183" data-name="Rect&#xE1;ngulo 3183" width="5.7" height="5.867" transform="translate(62.707)" fill="#405c9c"></rect><rect id="Rect&#xE1;ngulo_3184" data-name="Rect&#xE1;ngulo 3184" width="5.7" height="5.867" transform="translate(57.006)" fill="#405c9c"></rect><rect id="Rect&#xE1;ngulo_3185" data-name="Rect&#xE1;ngulo 3185" width="5.7" height="5.867" transform="translate(51.306)" fill="#405c9c"></rect><rect id="Rect&#xE1;ngulo_3186" data-name="Rect&#xE1;ngulo 3186" width="5.7" height="5.867" transform="translate(45.606)" fill="#405c9c"></rect><rect id="Rect&#xE1;ngulo_3187" data-name="Rect&#xE1;ngulo 3187" width="5.7" height="5.867" transform="translate(39.904)" fill="#405c9c"></rect><rect id="Rect&#xE1;ngulo_3188" data-name="Rect&#xE1;ngulo 3188" width="5.7" height="5.867" transform="translate(34.204)" fill="#405c9c"></rect><rect id="Rect&#xE1;ngulo_3189" data-name="Rect&#xE1;ngulo 3189" width="5.7" height="5.867" transform="translate(28.504)" fill="#405c9c"></rect><rect id="Rect&#xE1;ngulo_3190" data-name="Rect&#xE1;ngulo 3190" width="5.7" height="5.867" transform="translate(22.803)" fill="#405c9c"></rect><rect id="Rect&#xE1;ngulo_3191" data-name="Rect&#xE1;ngulo 3191" width="5.7" height="5.867" transform="translate(17.102)" fill="#405c9c"></rect><rect id="Rect&#xE1;ngulo_3192" data-name="Rect&#xE1;ngulo 3192" width="5.701" height="5.867" transform="translate(11.401)" fill="#405c9c"></rect><rect id="Rect&#xE1;ngulo_3193" data-name="Rect&#xE1;ngulo 3193" width="5.7" height="5.867" transform="translate(5.7)" fill="#405c9c"></rect><rect id="Rect&#xE1;ngulo_3194" data-name="Rect&#xE1;ngulo 3194" width="5.7" height="5.867" fill="#405c9c"></rect><path id="Trazado_4209" data-name="Trazado 4209" d="M5.057,232.156v0Z" transform="translate(-5.057 -226.289)" fill="#405c9c"></path></g></g><g id="Grupo_797" data-name="Grupo 797"><g id="Grupo_796" data-name="Grupo 796" clip-path="url(#clip-path-2)"><path id="Trazado_4210" data-name="Trazado 4210" d="M69.884,186.523c1.1,5.361-1.406,10.4-5.587,11.255s-8.46-2.8-9.556-8.162,1.406-10.4,5.587-11.256,8.459,2.8,9.556,8.163" transform="translate(11.038 36.109)" fill="#405c9c"></path></g></g></g></svg>