<svg xmlns="http://www.w3.org/2000/svg" xmlns:xlink="http://www.w3.org/1999/xlink" width="401.503" height="284.845" viewBox="0 0 401.503 284.845"><defs><clipPath id="clip-path"><rect id="Rect&#xE1;ngulo_3206" data-name="Rect&#xE1;ngulo 3206" width="388" height="284.845" fill="none"></rect></clipPath></defs><g id="dyocotizar" transform="translate(6.752)"><path id="Trazado_4249" data-name="Trazado 4249" d="M17.324,278c25.326,0,367.731-.739,367.731-.78.141-.332,43.467-53.434-11.089-108.952-27.032-27.509,24.824-63.148,0-93.748-42.522-52.416-84.6-22.9-119.646-37.638a56.324,56.324,0,0,1-18.628-13.218,69.266,69.266,0,0,0-11.448-9.5q-.945-.63-1.909-1.229A76.27,76.27,0,0,0,214.7,8.789Q212.05,7.541,209.3,6.48h0a88.31,88.31,0,0,0-8.94-2.911A101.164,101.164,0,0,0,187.027.953q-2.974-.387-6-.612C141.867-2.6,97.792,13.958,75.048,38.163c-4.579,4.874-25.4,30.094-8.988,64.758,10.364,21.886-33.052,42.788-48.48,67.78-39.224,63.541-.611,106.474-.255,107.3" transform="translate(-6.752 6.842)" fill="#ebf3fa"></path><g id="Grupo_812" data-name="Grupo 812" clip-path="url(#clip-path)"><path id="Trazado_4237" data-name="Trazado 4237" d="M169.9,127.308a7.005,7.005,0,1,0-6.238,11.185c.182.016.366.029.552.031.116,0,.233,0,.347-.007h.122a7,7,0,0,0,5.216-11.207m-3.8,9.149h0a5.325,5.325,0,0,1-1.506.307c-.116.006-.234.007-.352.007a5.291,5.291,0,0,1-1.433-.222,5.221,5.221,0,0,1-1.714-.878,5.648,5.648,0,0,1-.523-.464,5.24,5.24,0,0,1-1.513-3.754,5.153,5.153,0,0,1,.135-1.107,5.086,5.086,0,0,1,.141-.51,5.251,5.251,0,1,1,6.767,6.62" transform="translate(71.32 56.456)" fill="#4da8f2"></path><rect id="Rect&#xE1;ngulo_3204" data-name="Rect&#xE1;ngulo 3204" width="388" height="7.093" transform="translate(0 277.753)" fill="#405c9c"></rect><path id="Trazado_4238" data-name="Trazado 4238" d="M188.625,69.112S205.274,20.288,173.5,5.152,114.76,11.9,109.664,23.735s-3.747,33.367.6,48.379,3.713,37.864-5.726,45.507S83.388,137.958,83.966,163.8c.36,16.031,63.08-41,63.08-41Z" transform="translate(38.061 0)" fill="#8f322a"></path><path id="Trazado_4239" data-name="Trazado 4239" d="M147.049,87.924s-26.113,5.787-36.479,11.845-33.38,33.919-33.38,45.9,100.658,23.171,100.658,23.171L196.927,238.5s50.878-12.415,56.934-22.712-19.323-84.095-23.667-99.03c-4.431-15.234-22.667-25.859-43.866-28.83a145.587,145.587,0,0,0-39.278,0" transform="translate(34.998 39.266)" fill="#ef8220"></path><path id="Trazado_4240" data-name="Trazado 4240" d="M165.429,87.926s-.586,31.738-25.759,32.68-19.93-30.441-19.93-30.441,18.41-7.459,45.689-2.238" transform="translate(54.084 39.024)" fill="#ffb27d"></path><path id="Trazado_4241" data-name="Trazado 4241" d="M166.157,21.452s8.9,51.046-16.452,87.92c-26.261,38.188,16.452-87.92,16.452-87.92" transform="translate(64.005 9.726)" fill="#8f322a"></path><path id="Trazado_4242" data-name="Trazado 4242" d="M158.951,75.158s-1.75,15.181,1.173,24.622-38.487,9.7-38.464,1.939c.026-8.818,4.237-16.185.27-31.3s37.021,4.741,37.021,4.741" transform="translate(55.16 29.353)" fill="#ffb27d"></path><path id="Trazado_4243" data-name="Trazado 4243" d="M125.218,73.24s13.075,13.621,29.793,1.421c0,0-1.381,8.706-13.406,9.829S125.218,73.24,125.218,73.24" transform="translate(56.773 33.207)" fill="#ed975d"></path><path id="Trazado_4244" data-name="Trazado 4244" d="M147.943,9.48s33.041,9.777,28.321,55.633-26.3,43.494-28.321,43.832S120.3,110.968,112.2,55.336,147.943,9.48,147.943,9.48" transform="translate(50.42 3.998)" fill="#ffb27d"></path><path id="Trazado_4245" data-name="Trazado 4245" d="M140.161,30.808s17.955,28.561,36.851,35.187c0,0,10.319-47.924-32.3-57.966s-35.942,48.405-32.761,63.99c0,0,8.876-22.929,28.208-41.211" transform="translate(49.672 3.118)" fill="#8f322a"></path><path id="Trazado_4246" data-name="Trazado 4246" d="M114.045,27.146s9.451-18.3,25.41-19.121,25.45,13.028,25.45,13.028-6.231-15.589-25.43-15.589-25.43,21.682-25.43,21.682" transform="translate(51.708 2.477)" fill="#ef8220"></path><path id="Trazado_4247" data-name="Trazado 4247" d="M204.757,119.427l11.206,104.178H68.478L57.272,119.427Z" transform="translate(25.967 54.148)" fill="#1e3d70"></path><path id="Trazado_4248" data-name="Trazado 4248" d="M123.967,157.232c1.324,6.481-1.7,12.572-6.752,13.605s-10.225-3.383-11.549-9.864,1.7-12.572,6.752-13.605,10.223,3.384,11.549,9.864" transform="translate(47.767 66.748)" fill="#ef8220"></path><rect id="Rect&#xE1;ngulo_3205" data-name="Rect&#xE1;ngulo 3205" width="27.522" height="10.472" transform="translate(227.987 267.281)" fill="#1e3d70"></rect></g></g></svg>