<svg xmlns="http://www.w3.org/2000/svg" xmlns:xlink="http://www.w3.org/1999/xlink" width="70" height="70" viewBox="0 0 70 70"><defs><clipPath id="clip-path"><rect id="Rect&#xE1;ngulo_3985" data-name="Rect&#xE1;ngulo 3985" width="35.014" height="35" fill="#fff"></rect></clipPath></defs><g id="echazon" transform="translate(-185 -986)"><circle id="Elipse_2" data-name="Elipse 2" cx="35" cy="35" r="35" transform="translate(185 986)" fill="#3728ae"></circle><g id="Grupo_1335" data-name="Grupo 1335" transform="translate(202 1003.5)"><g id="Grupo_1334" data-name="Grupo 1334" clip-path="url(#clip-path)"><path id="Trazado_6222" data-name="Trazado 6222" d="M0,17.358a1.716,1.716,0,0,1,1.134-1.222c.081-.025.149-.132.2-.215q1.295-2.17,2.58-4.347a.745.745,0,0,0,.1-.38A2.737,2.737,0,0,1,5.864,8.417Q11.359,6.354,16.856,4.3c.756-.283,1.507-.584,2.274-.835a.819.819,0,0,1,.615.1.5.5,0,0,1,.112.479.83.83,0,0,1-.436.38c-1.57.605-3.149,1.192-4.725,1.781L8.5,8.53c-.093.035-.186.072-.316.123.109.091.191.162.275.231a2.747,2.747,0,0,1,.237,4.061.812.812,0,0,0-.2.5c-.021.863-.01,1.729-.01,2.628.142.007.261.019.381.019,1.094,0,2.188,0,3.282.007a.815.815,0,0,0,.63-.255q6.411-6.206,12.834-12.4a.769.769,0,0,0,.28-.583,6.55,6.55,0,0,1,.129-.877c-.1.032-.2.06-.3.095L21.718,3.571c-.075.028-.148.062-.224.083a.5.5,0,0,1-.661-.316.479.479,0,0,1,.305-.634c.624-.249,1.254-.48,1.882-.716L27.814.194A3,3,0,0,1,31.83,3.458a2.508,2.508,0,0,0-.028.407c0,2.142,0,4.285.006,6.427a1.2,1.2,0,0,0,.157.573c.588,1.013,1.2,2.014,1.792,3.026a.482.482,0,0,0,.478.291c.639-.011.77.137.77.79,0,.375.006.751,0,1.127s-.22.589-.533.577c-.3-.011-.481-.227-.489-.582-.006-.261,0-.524-.006-.785a.4.4,0,0,0-.032-.094c-.1-.005-.211-.014-.322-.014-1.55,0-3.1.005-4.649-.006-.269,0-.38.052-.374.351.018,1.06.006,2.121.008,3.18,0,.1.012.2.02.316H33.98c0-.253,0-.5,0-.746.007-.364.217-.6.521-.588a.529.529,0,0,1,.5.579c.008.366,0,.729,0,1.094,0,.524-.175.7-.694.7q-2.1,0-4.2,0c-.615,0-1.231,0-1.846,0-.489,0-.676-.178-.678-.651q-.008-2.306,0-4.615c0-.464.178-.655.649-.633a.639.639,0,0,0,.662-.393c.565-.989,1.161-1.959,1.738-2.941a.866.866,0,0,0,.139-.407c.009-1.652,0-3.3,0-4.957,0-.033-.01-.066-.005-.038a6.344,6.344,0,0,1-1.554.489,1.851,1.851,0,0,0-1.266.656q-4.728,4.578-9.467,9.142c-.1.092-.2.175-.3.264.014.029.027.059.04.09.494,0,.988,0,1.482,0a1.587,1.587,0,0,1,1.28.532,2.685,2.685,0,0,1-.036,2.939,6.062,6.062,0,0,1-1.133.679V21.2c0,.877.009,1.755-.006,2.632a.547.547,0,0,0,.285.527,2.148,2.148,0,0,0,2.651-.229,3.368,3.368,0,0,1,2.061-.961,3.271,3.271,0,0,1,2.545.947,2.131,2.131,0,0,0,2.944.024c.06-.052.119-.107.178-.161a3.193,3.193,0,0,1,4.193-.072.88.88,0,0,1,.346.734q-.013,4.819,0,9.64a.754.754,0,0,1-.347.721H0V24.333a2.6,2.6,0,0,1,1.334-1c.093-.041.22-.153.221-.233.015-1,.01-1.993.01-2.983C.577,19.877.457,19.78,0,18.863Zm1.029,16.59H33.965v-3.7c-.064.035-.1.053-.138.075a3.824,3.824,0,0,1-4.922-.4,3.7,3.7,0,0,0-.714-.521,2.759,2.759,0,0,0-3.174.425,4.155,4.155,0,0,1-1.835,1.072.517.517,0,0,1-.674-.35.506.506,0,0,1,.391-.622,4.132,4.132,0,0,0,1.426-.842,4.59,4.59,0,0,1,1.3-.784,3.65,3.65,0,0,1,3.9.805A2.973,2.973,0,0,0,31.807,30,2.937,2.937,0,0,0,33.8,28.992a.658.658,0,0,0,.179-.4c.014-1.219,0-2.438.013-3.657a.451.451,0,0,0-.244-.439,2.2,2.2,0,0,0-2.7.345,3.111,3.111,0,0,1-4.356.04,2.314,2.314,0,0,0-3.272.009,3.109,3.109,0,0,1-4.307-.016,2.171,2.171,0,0,0-3.2,0,3.169,3.169,0,0,1-4.316.027,2.174,2.174,0,0,0-3.251-.007,3.128,3.128,0,0,1-1.769.812,3.237,3.237,0,0,1-2.679-.932,2.139,2.139,0,0,0-2.531-.328A.556.556,0,0,0,1.024,25c.012,2.86.006,5.719,0,8.579v.365M2.6,23.15a3.349,3.349,0,0,1,1.989.862,2.162,2.162,0,0,0,3.2,0,3.169,3.169,0,0,1,4.344-.006,2.17,2.17,0,0,0,3.226-.016,3.147,3.147,0,0,1,2.955-.737c.151.034.3.088.456.136V20.113H2.6Zm8.1-6.035H2.16c-1.128,0-1.132,0-1.131,1.115,0,.7.128.829.84.829H19.5c.091,0,.183,0,.274,0a.524.524,0,0,0,.562-.554c.011-.2,0-.41,0-.615,0-.648-.129-.774-.787-.774H10.7M7.437,16.074v-2.4a2.835,2.835,0,0,1-2.943-1.059L2.44,16.074Zm23.4-13.085A1.969,1.969,0,1,0,28.867,4.97a1.974,1.974,0,0,0,1.971-1.981M6.732,12.722a1.713,1.713,0,0,0,1.726-1.707A1.713,1.713,0,0,0,5.032,11a1.7,1.7,0,0,0,1.7,1.725m24.561-.97-1.426,2.4H32.72c-.483-.81-.939-1.575-1.427-2.4m-10.029-.124,2.642-2.556H21.468c-.069.859-.132,1.659-.2,2.556m3.768-6.209L22.315,8.044l2.518-.11c.066-.83.128-1.621.2-2.515m-8.231,8.2c-.062.81-.123,1.612-.192,2.507L19.22,13.6H17.1c-.09,0-.18.011-.3.02m3.57-3.7-2.713,2.624,2.516-.109c.065-.832.127-1.623.2-2.515m5.765-5.493c-.066.859-.134,1.732-.207,2.683l1.365-1.5L26.136,4.425M15.7,14.438,14.237,16.06H15.58c.041-.531.08-1.034.125-1.622" fill="#fff"></path><path id="Trazado_6223" data-name="Trazado 6223" d="M3.384,31.121c-.532-.149-1.072-.274-1.594-.454a.511.511,0,0,1-.341-.708.525.525,0,0,1,.756-.221,2.829,2.829,0,0,0,3.246-.584,3.805,3.805,0,0,1,5.339,0,2.8,2.8,0,0,0,4.045,0,3.835,3.835,0,0,1,5.346-.015,5.991,5.991,0,0,0,.952.65c.312.185.445.45.313.727a.5.5,0,0,1-.73.2,6.849,6.849,0,0,1-1.184-.792,2.828,2.828,0,0,0-4.029,0,3.813,3.813,0,0,1-5.364.014,2.793,2.793,0,0,0-4.044,0,4.439,4.439,0,0,1-2.711,1.169" fill="#fff"></path><path id="Trazado_6224" data-name="Trazado 6224" d="M28.364,3c0-.4.188-.623.511-.621s.51.231.514.592c0,.4-.21.653-.539.641-.307-.011-.489-.239-.486-.612" fill="#fff"></path><path id="Trazado_6225" data-name="Trazado 6225" d="M6.745,11.57a.518.518,0,0,1-.518-.552.526.526,0,0,1,.509-.564.518.518,0,0,1,.514.555.511.511,0,0,1-.505.561" fill="#fff"></path></g></g></g></svg>