<svg xmlns="http://www.w3.org/2000/svg" width="581.383" height="278" viewBox="0 0 581.383 278"><g id="especifica-transporte" transform="translate(-9380.324 -6857.999)"><path id="Trazado_6626" data-name="Trazado 6626" d="M108.585,324H654.322c-25.1-90.392-17.822-285.3-162.456-259.5,0,0-277.316,53.653-277.316,53.653a108.649,108.649,0,0,0-86.542,88.873Z" transform="translate(9289.563 6809.806)" fill="#ebf3fa"></path><g id="Grupo_1435" data-name="Grupo 1435" transform="translate(9456.862 6915.819)"><rect id="Rect&#xE1;ngulo_4076" data-name="Rect&#xE1;ngulo 4076" width="69.347" height="52.99" transform="translate(0 165)" fill="#c8d3f8"></rect><rect id="Rect&#xE1;ngulo_4078" data-name="Rect&#xE1;ngulo 4078" width="69.347" height="52.99" transform="translate(71.351 165)" fill="#c8d3f8"></rect><rect id="Rect&#xE1;ngulo_4080" data-name="Rect&#xE1;ngulo 4080" width="69.347" height="52.99" transform="translate(142.702 165)" fill="#c8d3f8"></rect><rect id="Rect&#xE1;ngulo_4082" data-name="Rect&#xE1;ngulo 4082" width="69.347" height="52.99" transform="translate(214.053 165)" fill="#c8d3f8"></rect><rect id="Rect&#xE1;ngulo_4084" data-name="Rect&#xE1;ngulo 4084" width="69.347" height="52.99" transform="translate(285.404 165)" fill="#c8d3f8"></rect><rect id="Rect&#xE1;ngulo_4086" data-name="Rect&#xE1;ngulo 4086" width="69.347" height="52.99" transform="translate(0 110)" fill="#c8d3f8"></rect><rect id="Rect&#xE1;ngulo_4088" data-name="Rect&#xE1;ngulo 4088" width="69.347" height="52.99" transform="translate(71.351 110)" fill="#c8d3f8"></rect><rect id="Rect&#xE1;ngulo_4090" data-name="Rect&#xE1;ngulo 4090" width="69.347" height="52.99" transform="translate(142.702 110)" fill="#c8d3f8"></rect><rect id="Rect&#xE1;ngulo_4092" data-name="Rect&#xE1;ngulo 4092" width="69.347" height="52.99" transform="translate(214.053 110)" fill="#c8d3f8"></rect><rect id="Rect&#xE1;ngulo_4094" data-name="Rect&#xE1;ngulo 4094" width="69.347" height="52.99" transform="translate(285.404 110)" fill="#c8d3f8"></rect><rect id="Rect&#xE1;ngulo_4096" data-name="Rect&#xE1;ngulo 4096" width="69.347" height="52.99" transform="translate(0 55)" fill="#c8d3f8"></rect><rect id="Rect&#xE1;ngulo_4098" data-name="Rect&#xE1;ngulo 4098" width="69.347" height="52.99" transform="translate(71.351 55)" fill="#c8d3f8"></rect><rect id="Rect&#xE1;ngulo_4100" data-name="Rect&#xE1;ngulo 4100" width="69.347" height="52.99" transform="translate(142.702 55)" fill="#c8d3f8"></rect><rect id="Rect&#xE1;ngulo_4102" data-name="Rect&#xE1;ngulo 4102" width="69.347" height="52.99" transform="translate(214.053 55)" fill="#c8d3f8"></rect><rect id="Rect&#xE1;ngulo_4104" data-name="Rect&#xE1;ngulo 4104" width="69.347" height="52.99" transform="translate(285.404 55)" fill="#c8d3f8"></rect><rect id="Rect&#xE1;ngulo_4106" data-name="Rect&#xE1;ngulo 4106" width="69.347" height="52.99" transform="translate(0 0)" fill="#c8d3f8"></rect><rect id="Rect&#xE1;ngulo_4108" data-name="Rect&#xE1;ngulo 4108" width="69.347" height="52.99" transform="translate(71.351 0)" fill="#c8d3f8"></rect><rect id="Rect&#xE1;ngulo_4110" data-name="Rect&#xE1;ngulo 4110" width="69.347" height="52.99" transform="translate(142.702 0)" fill="#c8d3f8"></rect><rect id="Rect&#xE1;ngulo_4112" data-name="Rect&#xE1;ngulo 4112" width="69.347" height="52.99" transform="translate(214.053 0)" fill="#c8d3f8"></rect><rect id="Rect&#xE1;ngulo_4114" data-name="Rect&#xE1;ngulo 4114" width="69.347" height="52.99" transform="translate(285.404 0)" fill="#c8d3f8"></rect></g><path id="Trazado_6628" data-name="Trazado 6628" d="M491.866,64.505S214.55,118.159,214.55,118.159a108.649,108.649,0,0,0-86.542,88.873L108.585,324H654.322c-23.563-84.858-18.6-261.826-137.563-261.831a141.766,141.766,0,0,0-24.893,2.331" transform="translate(9289.563 6809.806)" fill="none"></path><rect id="Rect&#xE1;ngulo_4083" data-name="Rect&#xE1;ngulo 4083" width="10.066" height="7.617" transform="translate(9700.556 7080.82)" fill="#cbe3fc"></rect><rect id="Rect&#xE1;ngulo_4093" data-name="Rect&#xE1;ngulo 4093" width="10.066" height="7.617" transform="translate(9700.556 7025.819)" fill="#cbe3fc"></rect><rect id="Rect&#xE1;ngulo_4105" data-name="Rect&#xE1;ngulo 4105" width="10.066" height="7.617" transform="translate(9771.906 6970.819)" fill="#cbe3fc"></rect><g id="Grupo_1436" data-name="Grupo 1436" transform="translate(9486.503 6915.819)"><rect id="Rect&#xE1;ngulo_4077" data-name="Rect&#xE1;ngulo 4077" width="10.066" height="7.617" transform="translate(0 165)" fill="#9aa8f2"></rect><rect id="Rect&#xE1;ngulo_4079" data-name="Rect&#xE1;ngulo 4079" width="10.066" height="7.617" transform="translate(71.351 165)" fill="#9aa8f2"></rect><rect id="Rect&#xE1;ngulo_4081" data-name="Rect&#xE1;ngulo 4081" width="10.066" height="7.617" transform="translate(142.702 165)" fill="#9aa8f2"></rect><rect id="Rect&#xE1;ngulo_4085" data-name="Rect&#xE1;ngulo 4085" width="10.066" height="7.617" transform="translate(285.404 165)" fill="#9aa8f2"></rect><rect id="Rect&#xE1;ngulo_4087" data-name="Rect&#xE1;ngulo 4087" width="10.066" height="7.617" transform="translate(0 110)" fill="#9aa8f2"></rect><rect id="Rect&#xE1;ngulo_4089" data-name="Rect&#xE1;ngulo 4089" width="10.066" height="7.617" transform="translate(71.351 110)" fill="#9aa8f2"></rect><rect id="Rect&#xE1;ngulo_4091" data-name="Rect&#xE1;ngulo 4091" width="10.066" height="7.617" transform="translate(142.702 110)" fill="#9aa8f2"></rect><rect id="Rect&#xE1;ngulo_4095" data-name="Rect&#xE1;ngulo 4095" width="10.066" height="7.617" transform="translate(285.404 110)" fill="#9aa8f2"></rect><rect id="Rect&#xE1;ngulo_4097" data-name="Rect&#xE1;ngulo 4097" width="10.066" height="7.617" transform="translate(0 55)" fill="#9aa8f2"></rect><rect id="Rect&#xE1;ngulo_4099" data-name="Rect&#xE1;ngulo 4099" width="10.066" height="7.617" transform="translate(71.351 55)" fill="#9aa8f2"></rect><rect id="Rect&#xE1;ngulo_4101" data-name="Rect&#xE1;ngulo 4101" width="10.066" height="7.617" transform="translate(142.702 55)" fill="#9aa8f2"></rect><rect id="Rect&#xE1;ngulo_4103" data-name="Rect&#xE1;ngulo 4103" width="10.066" height="7.617" transform="translate(214.053 55)" fill="#9aa8f2"></rect><rect id="Rect&#xE1;ngulo_4107" data-name="Rect&#xE1;ngulo 4107" width="10.066" height="7.617" transform="translate(0 0)" fill="#9aa8f2"></rect><rect id="Rect&#xE1;ngulo_4109" data-name="Rect&#xE1;ngulo 4109" width="10.066" height="7.617" transform="translate(71.351 0)" fill="#9aa8f2"></rect><rect id="Rect&#xE1;ngulo_4111" data-name="Rect&#xE1;ngulo 4111" width="10.066" height="7.617" transform="translate(142.702 0)" fill="#9aa8f2"></rect><rect id="Rect&#xE1;ngulo_4113" data-name="Rect&#xE1;ngulo 4113" width="10.066" height="7.617" transform="translate(214.053 0)" fill="#9aa8f2"></rect><rect id="Rect&#xE1;ngulo_4115" data-name="Rect&#xE1;ngulo 4115" width="10.066" height="7.617" transform="translate(285.404 0)" fill="#9aa8f2"></rect></g><path id="Trazado_6629" data-name="Trazado 6629" d="M2080.947,1122.424l.88,3.824-7.776,9.987a3.77,3.77,0,0,0-.326,4.137l21.035-11.61-6.7-10.262Z" transform="translate(7766.673 5991.007)" fill="#152e60"></path><path id="Trazado_6630" data-name="Trazado 6630" d="M1510.526,542.76s-6.059.119-7.261,0-3.673-3.883-3.673-3.883l11.873-.662Z" transform="translate(8211.341 6440.809)" fill="#ed975d"></path><path id="Trazado_6631" data-name="Trazado 6631" d="M1592.273,451.291l-4.566,7.206-48.129,10.072,1.942,6.813,44.227-1.427c5.14.112,9.776-3.436,13.688-6.367l1.5-9.931Z" transform="translate(8180.346 6508.187)" fill="#ffb27d"></path><path id="Trazado_6632" data-name="Trazado 6632" d="M1888.1,144c-1.019.592-5.784,6.146-4.393,10.462l6.247-7.692Z" transform="translate(7913.795 6746.382)" fill="#0f2955"></path><path id="Trazado_6633" data-name="Trazado 6633" d="M1905.484,158.152c-5.1,18.312-27.506,12.444-22.977-6.015,5.1-18.311,27.505-12.443,22.977,6.015" transform="translate(7914.995 6748.704)" fill="#ffb27d"></path><path id="Trazado_6635" data-name="Trazado 6635" d="M1882.508,152.136c-4.529,18.459,17.878,24.327,22.977,6.016,2.621-10.685-3.782-17.151-10.63-17.151-4.982,0-10.2,3.424-12.347,11.135" transform="translate(7914.994 6748.704)" fill="none"></path><path id="Trazado_6636" data-name="Trazado 6636" d="M1917.505,213.147s-6.774,21.285-6.172,28.275a28.157,28.157,0,0,1-14.2-3.716s9.266-17.26,9.506-21.714Z" transform="translate(7903.189 6692.781)" fill="#ffb27d"></path><path id="Trazado_6637" data-name="Trazado 6637" d="M1919.236,263.048s2.449.6,6.347-1.172c0,0-2.222,5.643-7.915,4.51Z" transform="translate(7887.275 6655.009)" fill="#ed975d"></path><path id="Trazado_6638" data-name="Trazado 6638" d="M1965.8,164.8c-4.512,8.355-2.794,11.13.321,18.882,5.01-5.826,12.021-9.807,5.648-19.4Z" transform="translate(7852.095 6730.654)" fill="#1e3d70"></path><path id="Trazado_6639" data-name="Trazado 6639" d="M1966.242,208.669c-1.02,3.826-6.844,2.3-5.858-1.534,1.02-3.826,6.844-2.3,5.858,1.534" transform="translate(7854.25 6699.16)" fill="#ffb27d"></path><path id="Trazado_6640" data-name="Trazado 6640" d="M1899.156,126.138s-9.281,1.453-14.292,1.088l5.05-2.554s-8.05,1.089-14.284-1.513c0,0,4.116-9.2,12.832-9.321l-4.573-1.271c7.344-1.442,23.089-1.757,20.855,12.44Z" transform="translate(7919.86 6771.256)" fill="#1e3d70"></path><path id="Trazado_6641" data-name="Trazado 6641" d="M1970.7,171.605s5.322-.117,7.735-1.436c0,0,1.167,3.391-7.735,1.436" transform="translate(7846.166 6726.095)" fill="#0f2955"></path><path id="Trazado_6642" data-name="Trazado 6642" d="M1783.451,326.248l-20.07,26.376,12.179,8.948Z" transform="translate(8006.868 6605.112)" fill="#ef8220"></path><path id="Trazado_6643" data-name="Trazado 6643" d="M1798.726,314.294c2.193-14.591,13.332-21.906,25.821-20.286,9.915,0,18.413,8.537,20.192,20.286l5.425,53.768h-59.576Z" transform="translate(7985.78 6630.274)" fill="#f99746"></path><path id="Trazado_6644" data-name="Trazado 6644" d="M1780.164,371.517l.047,0,7.184-47.456a3.407,3.407,0,0,0,3.14-2.245l7.586-20.929a11.8,11.8,0,0,1,5.441-2.641l-7.625,23.587a1.564,1.564,0,0,0,1.517,2.044c25.115-.632,15.845,3.441,24.938-24.344a19.124,19.124,0,0,1,3.282,2.18l-2.621,17.338c-2.1,6.073,12.494,34.017,14.208,39.94,8.071,16.274.225,52.21.086,69.69,0,0,23.28,54.478,23.28,54.478l-10.156,5.122-34.081-44.945c-5.916-6.936-7.3-18.554-9.062-27.182-3.348,6.684-9.931,69.846-11.215,78.615h-11c-.181-3-8.713-71.974-7.855-73.085,0,0,2.9-50.165,2.9-50.165" transform="translate(7996.156 6626.82)" fill="#324d90"></path><path id="Trazado_6645" data-name="Trazado 6645" d="M1869.974,757.358l-2.751-18.927c-12.52,19.069-8.725,82.487-8.464,97.542,2.052-12.775,12.669-66.626,11.215-78.615" transform="translate(7933.511 6285.614)" fill="#2a437d"></path><path id="Trazado_6646" data-name="Trazado 6646" d="M1790.587,551.936s34.164,16.814,41.711,17.96,19.107-11.273,19.107-11.273l-4.012-14.139-17.387,12.229-38.787-9.745Z" transform="translate(7985.78 6435.949)" fill="#2a437d"></path><path id="Trazado_6647" data-name="Trazado 6647" d="M1798.121,300.884l-7.586,20.929a3.407,3.407,0,0,1-3.141,2.245l-7.183,47.456-.047,0s-2.9,50.167-2.9,50.165c-.858,1.111,7.675,70.085,7.856,73.085h11c1.284-8.769,7.867-71.931,11.215-78.615,1.766,8.628,3.146,20.246,9.062,27.181l34.081,44.945,10.156-5.122s-23.281-54.479-23.28-54.478c.139-17.48,7.985-53.415-.086-69.69-1.715-5.924-16.313-33.867-14.209-39.94l2.622-17.338a19.126,19.126,0,0,0-3.283-2.18c-9.093,27.785.177,23.712-24.938,24.344a1.564,1.564,0,0,1-1.517-2.045l7.625-23.587a11.8,11.8,0,0,0-5.441,2.641" transform="translate(7996.157 6626.82)" fill="none"></path><path id="Trazado_6648" data-name="Trazado 6648" d="M1766.826,1172.214l-1.077,3.773-11.634,4.986a3.77,3.77,0,0,0-2.284,3.465h24.026l-.911-12.224Z" transform="translate(8015.821 5949.373)" fill="#152e60"></path><path id="Trazado_6649" data-name="Trazado 6649" d="M1947.933,422.246c.016,3.558,5.427,3.558,5.442,0-.016-3.558-5.427-3.558-5.442,0" transform="translate(7863.815 6532.769)" fill="#2a437d"></path><path id="Trazado_6650" data-name="Trazado 6650" d="M1833.187,422.246c.016,3.558,5.427,3.558,5.442,0-.016-3.558-5.427-3.558-5.442,0" transform="translate(7952.759 6532.769)" fill="#2a437d"></path><path id="Trazado_6651" data-name="Trazado 6651" d="M1965.763,322.859l-6.041,33.757L1982,361.887s9.423-29.37-14.849-48.227Z" transform="translate(7854.677 6614.869)" fill="#f99746"></path><path id="Trazado_6652" data-name="Trazado 6652" d="M1923.347,293.763s-8.49,5.809-12.076-.739c0,0,8.777-1.662,12.076.739" transform="translate(7892.233 6631.3)" fill="#ffb27d"></path><path id="Trazado_6653" data-name="Trazado 6653" d="M1938.116,298.243l-7.792,2.376c4.417,5.548,6.253,2.531,9.858-1.534a11.684,11.684,0,0,0-2.066-.842" transform="translate(7877.465 6626.82)" fill="#fff"></path><path id="Trazado_6654" data-name="Trazado 6654" d="M1909.2,298.071l-3.07,1.5a2.127,2.127,0,0,1-3.059-1.911v-2.473a16.382,16.382,0,0,1,1.845-.229Z" transform="translate(7898.592 6629.368)" fill="#fff"></path><path id="Trazado_6655" data-name="Trazado 6655" d="M1653.695,561.067a.852.852,0,0,1-.814-1.084l5.052-17.405a7.23,7.23,0,0,1,6.91-5.189h15.228a.848.848,0,0,1,0,1.7h-15.228a5.527,5.527,0,0,0-5.282,3.967c-.369.232-4.764,18.914-5.866,18.016" transform="translate(8092.549 6441.449)" fill="#152e60"></path><path id="Trazado_6656" data-name="Trazado 6656" d="M1462.018,561.067a.852.852,0,0,1-.814-1.084l5.052-17.405a7.23,7.23,0,0,1,6.909-5.189h15.228a.848.848,0,0,1,0,1.7h-15.228a5.527,5.527,0,0,0-5.281,3.967c-.37.232-4.764,18.914-5.866,18.016" transform="translate(8241.125 6441.449)" fill="#152e60"></path><path id="Trazado_6657" data-name="Trazado 6657" d="M1270.508,1087.524c-2.511.031-5.022-.023-7.532.019-15.369-2.032-16.051,31.05-1.506,31.183,2.51-.031,5.021.023,7.532-.019,15.368,2.032,16.051-31.05,1.506-31.183" transform="translate(8404.042 6015.074)" fill="#152e60"></path><path id="Trazado_6658" data-name="Trazado 6658" d="M1311.6,1104.068c-.278,20.532-21.13,20.53-21.407,0,.278-20.532,21.13-20.53,21.407,0" transform="translate(8373.656 6014.131)" fill="#324d90"></path><path id="Trazado_6659" data-name="Trazado 6659" d="M1328.4,1136.7c-.1,7.911-7.577,7.91-7.677,0,.1-7.911,7.577-7.91,7.677,0" transform="translate(8349.992 5981.502)" fill="#152e60"></path><path id="Trazado_6660" data-name="Trazado 6660" d="M1291.68,946.794l-42.756-.734,10.631-38.908,42.756.734Z" transform="translate(8405.644 6154.831)" fill="#f99746"></path><path id="Trazado_6661" data-name="Trazado 6661" d="M1465.249,967.426l-26.182-18.1,10.631-38.908,26.182,18.1Z" transform="translate(8258.256 6152.302)" fill="#ef8220"></path><path id="Trazado_6662" data-name="Trazado 6662" d="M1338.957,773.765l-42.756-.734,10.631-38.908,42.756.734Z" transform="translate(8368.997 6288.952)" fill="#f99746"></path><path id="Trazado_6663" data-name="Trazado 6663" d="M1512.526,794.4l-26.182-18.1,10.631-38.908,26.182,18.1Z" transform="translate(8221.609 6286.423)" fill="#ef8220"></path><path id="Trazado_6664" data-name="Trazado 6664" d="M1386.205,600.842l-42.756-.734L1354.08,561.2l42.756.734Z" transform="translate(8332.373 6422.991)" fill="#f99746"></path><path id="Trazado_6665" data-name="Trazado 6665" d="M1559.774,621.474l-26.181-18.1,10.631-38.908,26.181,18.1Z" transform="translate(8184.986 6420.462)" fill="#ef8220"></path><path id="Trazado_6666" data-name="Trazado 6666" d="M1425.581,1076.027l-.788,2.886,28.7,19.426.693-2.536Z" transform="translate(8269.32 6023.93)" fill="#324d90"></path><path id="Trazado_6667" data-name="Trazado 6667" d="M1264.754,1073.264l-.788,2.886-46.655-.994.736-2.693Z" transform="translate(8430.148 6026.693)" fill="#324d90"></path><path id="Trazado_6668" data-name="Trazado 6668" d="M1264.031,1085.191l-46.721-.754,28.3,18.11,47.054,2.31Z" transform="translate(8430.148 6017.411)" fill="#152e60"></path><rect id="Rect&#xE1;ngulo_4118" data-name="Rect&#xE1;ngulo 4118" width="0.821" height="42.762" transform="matrix(0.017, -1, 1, 0.017, 9665.19, 7062.394)" fill="#f08f3c"></rect><rect id="Rect&#xE1;ngulo_4119" data-name="Rect&#xE1;ngulo 4119" width="0.821" height="42.762" transform="translate(9675.815 7023.51) rotate(-89.017)" fill="#f08f3c"></rect><path id="Trazado_6669" data-name="Trazado 6669" d="M1485.56,1087.524c-2.511.031-5.022-.023-7.532.019-15.368-2.032-16.051,31.05-1.506,31.183,2.51-.031,5.021.023,7.531-.019,15.369,2.032,16.052-31.05,1.507-31.183" transform="translate(8237.347 6015.074)" fill="#152e60"></path><path id="Trazado_6670" data-name="Trazado 6670" d="M1526.649,1104.068c-.278,20.532-21.13,20.53-21.407,0,.278-20.532,21.13-20.53,21.407,0" transform="translate(8206.962 6014.131)" fill="#324d90"></path><path id="Trazado_6671" data-name="Trazado 6671" d="M1543.449,1136.7c-.1,7.911-7.577,7.91-7.677,0,.1-7.911,7.577-7.91,7.677,0" transform="translate(8183.296 5981.502)" fill="#152e60"></path><path id="Trazado_6672" data-name="Trazado 6672" d="M1791.136,508.107l-1.252,6.067-49.667-3.453-2.176,7.091L1787.9,532.8a13.859,13.859,0,0,0,9.325-.482c7.768-2.476,9.129-13.545,11.278-20.1Z" transform="translate(8026.51 6464.146)" fill="#ffb27d"></path><path id="Trazado_6673" data-name="Trazado 6673" d="M1960.034,495.551l20.542,10.025,3.469-10.025-21.29-7.014Z" transform="translate(7854.435 6479.316)" fill="#ef8220"></path><path id="Trazado_6674" data-name="Trazado 6674" d="M1789.884,514.173l-49.667-3.453-2.176,7.091L1787.9,532.8a13.859,13.859,0,0,0,9.325-.482c7.768-2.476,9.129-13.546,11.278-20.1l-17.365-4.108Z" transform="translate(8026.51 6464.147)" fill="none"></path><path id="Trazado_6675" data-name="Trazado 6675" d="M1700.6,515.958s-7.528-1.213-8.693-1.213c-2.359,0-6.588,4.061-6.685,5.032s4.483,4.719,8.718,5.506c1.15.213,5.1-1.742,5.1-1.742Z" transform="translate(8067.454 6459.001)" fill="#ffb27d"></path><path id="Trazado_6676" data-name="Trazado 6676" d="M1515.1,525.137c1.9,4.507-4.634,10.831-11.009,4.747a1.853,1.853,0,0,1,.035-2.609c1.007-.992,2.446-2.207,3.392-2.138,1.587.116,7.582,0,7.582,0" transform="translate(8208.257 6450.948)" fill="#ffb27d"></path><path id="Trazado_6677" data-name="Trazado 6677" d="M1879.565,207.418s8.969,1.827,9.86,3.4-4.179,7.777-6.476,7.777a4.375,4.375,0,0,1-4.02-2.693c-.411-1.028.636-8.487.636-8.487" transform="translate(7917.376 6697.222)" fill="#59445a"></path><path id="Trazado_6678" data-name="Trazado 6678" d="M1886.5,218.941l4.571,1.295s-3.115.849-4.571-1.295" transform="translate(7911.432 6688.29)" fill="#fff"></path><path id="Trazado_6679" data-name="Trazado 6679" d="M2307.793,754.419c9.919,4.253,13.484-7.649,13.484-7.649-12.714.473-11.487,6.289-17.385,10.216,1.818-5.511-3.428-11-3.428-11-4.887,8.216-1.582,13.927-.567,15.358-1.246,1.517-2.432,3.113-3.557,4.767,3.27-8.869-7.361-14.467-7.361-14.467-2.5,11.558,4.008,16.682,5.341,17.595a99.938,99.938,0,0,0-5.078,9.44c3.048-13.874-13.906-18.161-13.906-18.161.376,15.782,10.369,20.46,12.485,21.275a145.832,145.832,0,0,0-5.183,13.669c1.361-15.323-17.529-17.967-17.529-17.967,2.3,17.292,13.822,21.269,16.288,21.927a181.325,181.325,0,0,0-5.01,20.9l.615.1c.014-.091,1.054-6.475,3.44-15.364,18.648,12.967,30.771-10.055,30.771-10.055-18.785-4.067-27.89,5.433-30.408,8.72,1.207-4.395,2.859-9.669,4.631-14.391,14.808,10.363,24.438-7.926,24.438-7.926-14.708-3.185-21.927,4.13-24.019,6.816a123.253,123.253,0,0,1,6.238-13.834c12.595,8.983,20.795-6.594,20.795-6.594-12.893-2.792-18.97,3.963-20.47,5.993a77.056,77.056,0,0,1,7.626-11.641c9.04,6.417,14.924-4.759,14.924-4.759-6.083-1.317-10.056.322-12.374,2.018a27.528,27.528,0,0,1,5.2-4.982" transform="translate(7617.96 6279.757)" fill="#324d90"></path><path id="Trazado_6680" data-name="Trazado 6680" d="M2169.942,739.932c-10.34,6.46-11.3,14.62-11.26,17.662A134.527,134.527,0,0,0,2153.5,744.8c7.614-2.464,6.795-18.589,6.795-18.589-8.444,5.235-8.815,11.916-8.159,15.719-1.543-3.173-3.185-6.3-4.89-9.366,10.8-5.565,6.361-17.125,6.361-17.125-6.957,7.051-7.743,12.357-7.469,15.159-1.556-2.727-3.154-5.391-4.766-7.975,8.818-6.983,2.573-16.48,2.573-16.48-4.8,7.6-4.417,12.43-3.622,14.814-1.972-3.108-3.954-6.089-5.895-8.9,5.8-4.639,1.66-10.907,1.66-10.907-3.231,5.139-2.9,8.364-2.351,9.91-1.492-2.144-2.955-4.187-4.364-6.111-.555-7.1-7.837-7.421-7.837-7.421,2.7,6.705,6.161,7.731,7.4,7.877,1.822,2.487,3.732,5.176,5.678,8.022-6.262-5.706-13.54-.528-13.54-.528,9,5.231,13.531,2.8,14.579,2.059,2.332,3.46,4.7,7.138,7.019,10.973-10.959-8.863-17.053-4.91-17.053-4.91,5.677,9.949,15.626,6.494,17.537,5.714,1.89,3.155,3.74,6.411,5.5,9.736-7.67-8.348-17.5-1.883-17.5-1.883,11.164,7.05,16.956,4.052,18.2,3.215,2.158,4.147,4.17,8.391,5.946,12.665-6.8-9.248-22.675-2.957-22.675-2.957,8.916,7.212,21.241,4.995,23.324,4.553a110.184,110.184,0,0,1,3.965,11.627,28.016,28.016,0,0,0-24.765-1.721s16.534,13.654,24.924,2.3a47.057,47.057,0,0,1,1.871,10.595h.622c0-.059-.037-5.629-3.488-16.079,15.647-.894,10.856-18.859,10.856-18.859" transform="translate(7729.608 6317.32)" fill="#f1a05f"></path><path id="Trazado_6681" data-name="Trazado 6681" d="M2234.106,1041.482h35.074l-6.639,42h-21.1Z" transform="translate(7641.992 6050.707)" fill="#324d90"></path><path id="Trazado_6682" data-name="Trazado 6682" d="M2234.157,1020.709s-3.452,37.394,23.794,43.407l-1.726,5.073h-26.05l-5.3-47.541Z" transform="translate(7649.144 6066.81)" fill="#2a437d"></path><path id="Trazado_6683" data-name="Trazado 6683" d="M2234.106,1041.482l7.335,42h21.1l6.639-42Z" transform="translate(7641.992 6050.708)" fill="none"></path><path id="Trazado_6684" data-name="Trazado 6684" d="M1171.8,1035.963a17.126,17.126,0,0,1-1.949-1.064l.388-.612a16.348,16.348,0,0,0,1.865,1.019Z" transform="translate(8466.932 6056.285)" fill="#152e60"></path><path id="Trazado_6685" data-name="Trazado 6685" d="M833.048,307.49a19.743,19.743,0,0,1-2.608-3.56l.628-.362A19,19,0,0,0,833.58,307Zm-4.439-7.562a30.288,30.288,0,0,1-1.157-4.236l.711-.141a29.589,29.589,0,0,0,1.129,4.134Zm-1.743-8.581a41.025,41.025,0,0,1-.089-4.379l.725.023a40.294,40.294,0,0,0,.087,4.3Zm1-8.645-.719-.1c.2-1.446.47-2.871.772-4.3l.709.152c-.3,1.411-.568,2.817-.762,4.245m1.787-8.442-.7-.192c.378-1.377.806-2.781,1.27-4.172l.688.23c-.46,1.379-.884,2.77-1.259,4.135m2.73-8.2-.675-.263c.515-1.322,1.078-2.676,1.674-4.023l.663.293c-.591,1.338-1.15,2.681-1.662,3.994m3.49-7.917-.651-.319c.618-1.263,1.285-2.567,1.982-3.877l.64.34c-.693,1.3-1.356,2.6-1.97,3.856m4.06-7.651-.63-.358c.686-1.206,1.424-2.469,2.195-3.757l.622.372c-.768,1.282-1.5,2.542-2.186,3.743m4.448-7.443-.615-.383c.718-1.152,1.477-2.355,2.322-3.675l.611.391c-.843,1.318-1.6,2.518-2.318,3.668m-80.908-6.387c-.505,0-1.017-.022-1.521-.065l.062-.722a17.336,17.336,0,0,0,4.236-.161l.115.716a18.381,18.381,0,0,1-2.892.233m85.578-.929-.608-.395c.782-1.2,1.585-2.435,2.37-3.64l.607.4c-.785,1.205-1.587,2.435-2.37,3.639m-91.422-.053a21.8,21.8,0,0,1-4-1.85l.367-.625a21.061,21.061,0,0,0,3.868,1.789Zm12.987-.416-.261-.676a26.522,26.522,0,0,0,3.845-1.876l.367.625a27.267,27.267,0,0,1-3.951,1.927m-20.533-4.06a19.583,19.583,0,0,1-2.858-3.363l.6-.4a18.875,18.875,0,0,0,2.752,3.238Zm28.116-.323-.44-.576c1.083-.826,2.192-1.76,3.3-2.775l.49.534c-1.122,1.03-2.249,1.977-3.349,2.817m75.59-2.43-.609-.394c.869-1.343,1.635-2.539,2.343-3.654l.612.389c-.709,1.117-1.476,2.314-2.346,3.659M784.655,225l-.525-.5c.944-.992,1.918-2.074,2.9-3.215l.55.472c-.986,1.151-1.969,2.242-2.921,3.243m-39.514-1.04a27.988,27.988,0,0,1-1.356-4.181l.7-.171a27.271,27.271,0,0,0,1.321,4.072ZM858.435,221.1l-.62-.376c.75-1.24,1.467-2.506,2.13-3.761l.641.339c-.67,1.268-1.393,2.546-2.151,3.8m-68.092-2.713-.568-.45c.841-1.062,1.705-2.187,2.641-3.439l.581.434c-.94,1.257-1.808,2.387-2.654,3.455m-47.315-2.931c-.16-1.389-.254-2.859-.281-4.368l.725-.013c.026,1.486.119,2.932.276,4.3ZM862.5,213.383l-.661-.3c.6-1.341,1.153-2.686,1.633-4l.681.249c-.486,1.327-1.042,2.688-1.653,4.045m-66.931-1.957-.587-.426c.761-1.05,1.79-2.474,2.549-3.52l.587.426c-.755,1.04-1.792,2.476-2.549,3.52m-52-4.66-.724-.043c.084-1.4.221-2.867.406-4.347l.719.09c-.183,1.465-.318,2.912-.4,4.3m121.919-1.6-.7-.19a40.725,40.725,0,0,0,.913-4.2l.716.114a41.4,41.4,0,0,1-.929,4.28m-64.8-.769-.583-.431c.93-1.257,1.785-2.395,2.616-3.478l.576.441c-.828,1.08-1.681,2.215-2.609,3.469m-56.061-6.21-.714-.129c.253-1.4.548-2.837.879-4.273l.706.162c-.328,1.425-.621,2.852-.872,4.239m61.345-.673-.565-.454c.939-1.168,1.873-2.3,2.776-3.357l.552.471c-.9,1.053-1.829,2.177-2.763,3.34m60.859-1-.725-.017a25.3,25.3,0,0,0-.246-4.27l.717-.105a25.932,25.932,0,0,1,.253,4.393M811.6,190.933l-.534-.491c1.011-1.1,2.027-2.159,3.02-3.147l.511.514c-.985.98-1.993,2.031-3,3.124m-65.043-1.177-.7-.193c.383-1.387.8-2.793,1.246-4.177l.691.221c-.441,1.375-.857,2.771-1.237,4.149m118.258-1.651a18.407,18.407,0,0,0-1.921-3.788l.6-.4a19.137,19.137,0,0,1,2,3.938Zm-47.073-3.264-.483-.541c1.118-1,2.246-1.939,3.352-2.8l.445.572c-1.093.851-2.209,1.783-3.315,2.769M749.2,181.512l-.681-.249c.513-1.4,1.049-2.766,1.592-4.06l.668.28c-.539,1.284-1.07,2.64-1.579,4.029m110.957-.448a22.539,22.539,0,0,0-3.362-2.624l.392-.61a23.242,23.242,0,0,1,3.471,2.709Zm-35.594-1.5-.4-.607a43.555,43.555,0,0,1,3.776-2.214l.333.644a42.881,42.881,0,0,0-3.713,2.177m28.46-3.158a29.892,29.892,0,0,0-4.015-1.5l.2-.7a30.589,30.589,0,0,1,4.113,1.537Zm-20.824-.765-.252-.68a30.463,30.463,0,0,1,4.211-1.233l.152.709a29.659,29.659,0,0,0-4.111,1.2m12.619-1.6a25.237,25.237,0,0,0-4.272-.157l-.035-.724a25.978,25.978,0,0,1,4.394.162Zm-92.282-.514-.659-.3c.642-1.4,1.324-2.838,1.845-3.939l.655.311c-.521,1.1-1.2,2.538-1.842,3.931m3.707-7.856-.655-.31c.74-1.56,1.309-2.773,1.845-3.93l.658.3c-.537,1.16-1.107,2.374-1.848,3.936m3.645-7.9-.663-.294c.622-1.4,1.182-2.708,1.71-3.984l.67.277c-.531,1.282-1.093,2.59-1.717,4m3.322-8.052-.678-.255c.527-1.4,1.013-2.772,1.445-4.081l.689.227c-.435,1.318-.924,2.7-1.455,4.109m2.715-8.287-.7-.19c.391-1.44.726-2.854,1-4.2l.711.142c-.273,1.364-.612,2.794-1.008,4.25m1.688-8.57-.72-.081a39.472,39.472,0,0,0,.253-4.294h.725a40.185,40.185,0,0,1-.258,4.373m-.742-8.656a25.883,25.883,0,0,0-.918-4.177l.692-.215a26.58,26.58,0,0,1,.944,4.295Zm-2.556-8.118a22.638,22.638,0,0,0-2.35-3.56l.565-.454a23.387,23.387,0,0,1,2.426,3.674ZM759,109.447a29.715,29.715,0,0,0-3.421-2.581l.4-.608a30.432,30.432,0,0,1,3.5,2.644Zm-7.155-4.716c-1.223-.618-2.545-1.214-3.93-1.771l.271-.673c1.4.565,2.745,1.17,3.986,1.8Zm-7.988-3.25c-1.268-.42-2.622-.834-4.138-1.266l.2-.7c1.526.435,2.889.852,4.167,1.275Z" transform="translate(8800.343 6780.859)" fill="#152e60"></path><path id="Trazado_6686" data-name="Trazado 6686" d="M713.787,93.237q-1.053-.276-2.1-.547l.181-.7q1.052.272,2.106.548Z" transform="translate(8822.078 6786.696)" fill="#152e60"></path><path id="Trazado_6687" data-name="Trazado 6687" d="M506.26,26.141,470.1,38.16l44.547,3.264Z" transform="translate(9009.336 6837.736)" fill="#405c9c"></path><path id="Trazado_6688" data-name="Trazado 6688" d="M470.1,57.782l34.106-6.327,3.769,17.05Z" transform="translate(9009.336 6818.115)" fill="#7a8ee1"></path><path id="Trazado_6689" data-name="Trazado 6689" d="M506.26,5.877,509.386,0,470.1,17.9Z" transform="translate(9009.336 6858)" fill="#7a8ee1"></path><path id="Trazado_6690" data-name="Trazado 6690" d="M29.324,1226.436c190.952-.523,390.433-.527,581.383,0-190.952.528-390.433.523-581.383,0" transform="translate(9351 5907.648)" fill="#1e3d70"></path></g></svg>