<svg xmlns="http://www.w3.org/2000/svg" xmlns:xlink="http://www.w3.org/1999/xlink" width="70" height="70" viewBox="0 0 70 70"><defs><clipPath id="clip-path"><rect id="Rect&#xE1;ngulo_4488" data-name="Rect&#xE1;ngulo 4488" width="35.236" height="35.25" fill="#fff"></rect></clipPath></defs><g id="estafa" transform="translate(-1136 -846)"><circle id="Elipse_11" data-name="Elipse 11" cx="35" cy="35" r="35" transform="translate(1136 846)" fill="#3728ae"></circle><g id="Grupo_1510" data-name="Grupo 1510" transform="translate(1153.382 863.375)"><g id="Grupo_1509" data-name="Grupo 1509" clip-path="url(#clip-path)"><path id="Trazado_7288" data-name="Trazado 7288" d="M35.229,24.9a2.533,2.533,0,0,0-.96-1.418.42.42,0,0,1-.2-.426q0-2.064,0-4.127,0-3.163.01-6.327a1.105,1.105,0,0,0-.5-.987q-.977-.716-1.948-1.437-1-.744-2.009-1.482a.465.465,0,0,1-.219-.434c.01-2.062.008-4.124,0-6.185A1.906,1.906,0,0,0,27.329.014q-1.908,0-3.821,0c-3.192,0-6.495.007-9.741-.015h-.02a2.128,2.128,0,0,0-1.535.605,2.044,2.044,0,0,0-.557,1.521c.031,1.334.026,2.692.021,4.005,0,.715-.006,1.428,0,2.143a.432.432,0,0,1-.2.408c-.52.383-1.037.772-1.553,1.161-.762.574-1.55,1.167-2.335,1.734a1.323,1.323,0,0,0-.6,1.188c.013,2.613.007,5.213,0,7.414a.716.716,0,0,1-.059.229c-.043,0-.086.01-.13.017-.18.031-.259.034-.33-.106a1.854,1.854,0,0,0-1.782-1.06H4.663c-.505,0-1.013,0-1.517,0-.371,0-.741,0-1.114,0A1.874,1.874,0,0,0,0,21.3Q0,27.26,0,33.223a2.6,2.6,0,0,0,.044.533,1.938,1.938,0,0,0,1.476,1.488l3.624.006.03-.017c.087-.05.174-.1.26-.152.208-.122.422-.248.64-.356a.9.9,0,0,1,.368-.058l2.383,0c3.774,0,7.676-.01,11.513.007h.029a5.881,5.881,0,0,0,3.169-.9c3.487-2.147,6.9-4.224,10.139-6.173a3,3,0,0,0,1.559-1.9v-.751ZM28,11.448a.332.332,0,0,1-.037.2.319.319,0,0,1-.2.038q-5-.008-9.993-.006H13.084V2.129c0-.591.111-.7.7-.7H27.277c.6,0,.716.117.717.7V4.787q0,3.331.006,6.661m1.43.2V10.317l1.779,1.335ZM20.6,33.249h-.006q-3.43,0-6.861,0H6.686V21.861A5.019,5.019,0,0,1,10.4,22.8a6.341,6.341,0,0,0,4.024,1.384h.147c1-.021,1.984-.01,2.729,0a2.07,2.07,0,0,1,1.882,1.1,1.987,1.987,0,0,1,.212.943c0,.5-.122.611-.665.614-.328,0-.655,0-.985,0-.8,0-1.645,0-2.469.026a5.809,5.809,0,0,0-3.272,1.246.687.687,0,0,0-.179.956.7.7,0,0,0,.947.215,2.885,2.885,0,0,0,.262-.166l.064-.044a4.637,4.637,0,0,1,2.689-.818h.037c.639,0,1.278,0,1.921,0,.825,0,1.681,0,2.519.008a6.646,6.646,0,0,0,2.181-.36q2.22-.749,4.443-1.485,2.811-.936,5.615-1.884a1,1,0,0,1,.987.131.9.9,0,0,1,.336.775.994.994,0,0,1-.554.756q-1.986,1.2-3.969,2.409l-3.043,1.849q-1.82,1.1-3.635,2.213a3.793,3.793,0,0,1-2.03.582m2.717-7.35,0,.067a.543.543,0,0,1-.041.154c-.794.267-1.513.494-2.2.694a1.016,1.016,0,0,1-.316.011l-.036,0a3.331,3.331,0,0,0-2.867-4.017,4.027,4.027,0,0,0-1.017-.037.565.565,0,0,1-.565-.3,4.148,4.148,0,0,1,.43-5.523,5.589,5.589,0,0,1,7.62-.045,4.284,4.284,0,0,1,1.317,3.378A4.241,4.241,0,0,1,23.863,23.4a1.164,1.164,0,0,0-.55,1.106c.025.46.013.932,0,1.389m9.318-2.881-7.89,2.6v-.149c0-.327,0-.637,0-.932a.54.54,0,0,1,.1-.1,5.712,5.712,0,0,0,2.185-5.086,5.909,5.909,0,0,0-3.45-4.649,6.945,6.945,0,0,0-8.244,1.644,5.5,5.5,0,0,0-.625,6.322l.045.083a4.772,4.772,0,0,1-3.244-.9A6.32,6.32,0,0,0,8.51,20.508c-.1-.013-.1-.027-.1-.17V13.117H32.633ZM11.659,10.411c0,.435,0,.835-.009,1.235a.244.244,0,0,1-.087.03c-.516.006-1.03.005-1.552.005H9.827l1.832-1.375ZM1.415,21.286c0-.458.143-.6.588-.607s.887,0,1.331,0l1.331,0c.444,0,.587.15.587.611q0,2.121,0,4.242v7.6c0,.576-.126.7-.711.7H3.82c-.6,0-1.2,0-1.8,0-.45,0-.6-.153-.6-.6q0-5.973,0-11.947" fill="#fff"></path><path id="Trazado_7289" data-name="Trazado 7289" d="M21.788,6.067c-.144-.052-.292-.095-.442-.138l-.1-.029V3.912a1.078,1.078,0,0,1,.9.9.735.735,0,0,0,.752.7.724.724,0,0,0,.656-.825,2.033,2.033,0,0,0-.51-1.254,3.075,3.075,0,0,0-1.613-.978.378.378,0,0,1-.215-.165.718.718,0,0,0-.695-.516h0a.7.7,0,0,0-.674.5.436.436,0,0,1-.2.181c-.14.069-.286.13-.43.19a3.653,3.653,0,0,0-.773.393A2.215,2.215,0,0,0,17.5,4.584a2.15,2.15,0,0,0,.581,1.666,3.18,3.18,0,0,0,1.575.911.79.79,0,0,1,.153.082c.014.546.013,1.1.012,1.643V9.2a1.092,1.092,0,0,1-.921-.988.7.7,0,0,0-1.4.075,1.458,1.458,0,0,0,.032.371,2.624,2.624,0,0,0,2.047,1.971.418.418,0,0,1,.326.262.813.813,0,0,0,.581.42h.028a.723.723,0,0,0,.618-.357c.079-.25.238-.3.5-.37a2.834,2.834,0,0,0,1.4-.886,2.066,2.066,0,0,0,.123-2.639,2.843,2.843,0,0,0-1.364-.992m.359,2.179a1.045,1.045,0,0,1-.893.95V7.412a1.1,1.1,0,0,1,.893.834M19.806,3.912V5.7c-.528-.143-.912-.528-.9-.919a1.109,1.109,0,0,1,.9-.867" fill="#fff"></path><path id="Trazado_7290" data-name="Trazado 7290" d="M20.068,19.407a.691.691,0,0,0-.687-.73c-.6-.016-1.2-.017-1.782,0a.7.7,0,0,0,.022,1.4c.109,0,.218.005.328.005h.265l.265,0,.266,0c.209,0,.417,0,.627,0a.689.689,0,0,0,.7-.673" fill="#fff"></path><path id="Trazado_7291" data-name="Trazado 7291" d="M24.157,19.409a.7.7,0,0,0-.187-.506.71.71,0,0,0-.506-.226c-.6-.014-1.2-.015-1.783,0a.7.7,0,0,0,.019,1.4c.109,0,.219.005.329.005H22.3l.263,0,.266,0c.212,0,.419,0,.628,0a.707.707,0,0,0,.7-.671" fill="#fff"></path><path id="Trazado_7292" data-name="Trazado 7292" d="M20.593,20.435l-.065,0a.649.649,0,0,0-.684.582,10.231,10.231,0,0,0,0,1.38.633.633,0,0,0,.219.432.723.723,0,0,0,.47.177h.045a.706.706,0,0,0,.656-.677c.008-.143.006-.287,0-.431v-.736a.727.727,0,0,0,0-.08.681.681,0,0,0-.638-.644" fill="#fff"></path></g></g></g></svg>