<svg xmlns="http://www.w3.org/2000/svg" xmlns:xlink="http://www.w3.org/1999/xlink" width="70" height="70" viewBox="0 0 70 70"><defs><clipPath id="clip-path"><rect id="Rect&#xE1;ngulo_3366" data-name="Rect&#xE1;ngulo 3366" width="35.926" height="35" fill="#fff"></rect></clipPath></defs><g id="exceso-humedad" transform="translate(-1136 -882)"><circle id="Elipse_11" data-name="Elipse 11" cx="35" cy="35" r="35" transform="translate(1136 882)" fill="#3728ae"></circle><g id="Grupo_926" data-name="Grupo 926" transform="translate(1153 900)"><g id="Grupo_925" data-name="Grupo 925" clip-path="url(#clip-path)"><path id="Trazado_5313" data-name="Trazado 5313" d="M23.119,35a13.194,13.194,0,0,1-4.616-.828c-.759-.291-1.044-.743-.823-1.308.213-.545.722-.689,1.459-.42a10.885,10.885,0,0,0,8-.1,11,11,0,0,0,6.9-10.662,14.158,14.158,0,0,0-1.236-4.6A56.261,56.261,0,0,0,24.442,3.307c-.361-.444-.8-.827-1.2-1.241a.346.346,0,0,0-.581,0c-.6.674-1.265,1.305-1.8,2.029a72.036,72.036,0,0,0-7.154,11.824.932.932,0,1,1-1.678-.76A52.364,52.364,0,0,1,16.46,7.172a36.3,36.3,0,0,1,4.263-5.579A10.4,10.4,0,0,1,22.09.411a1.353,1.353,0,0,1,1.958.015,11.362,11.362,0,0,1,1.742,1.6,50.1,50.1,0,0,1,9.487,16.737c1.583,4.826.19,9.027-3.277,12.559A12.33,12.33,0,0,1,23.119,35" fill="#fff"></path><path id="Trazado_5314" data-name="Trazado 5314" d="M23.3,28.547a4.234,4.234,0,0,1-2.405-.654c-.453-.278-.894-.574-1.351-.846a2.072,2.072,0,0,0-2.247,0c-.47.277-.925.579-1.39.864a3.743,3.743,0,0,1-4.152.02c-.419-.251-.809-.556-1.245-.771a4.841,4.841,0,0,0-1.245-.427c-.648-.12-1.01-.468-.957-1.044.05-.55.5-.859,1.16-.81a4.69,4.69,0,0,1,2.2.806c.4.256.8.517,1.2.753a1.774,1.774,0,0,0,1.884,0c.422-.246.831-.513,1.241-.778a4.126,4.126,0,0,1,4.776-.044c.364.229.729.459,1.088.7a2.163,2.163,0,0,0,2.332.135,14.147,14.147,0,0,0,1.856-1.306.908.908,0,0,1,1.536.478.964.964,0,0,1-.167.717A6.142,6.142,0,0,1,23.3,28.547" fill="#fff"></path><path id="Trazado_5315" data-name="Trazado 5315" d="M13.892,32.233a4.116,4.116,0,0,1-2.168-.647c-.49-.3-.973-.613-1.472-.9a1.98,1.98,0,0,0-2.091.006c-.436.251-.864.517-1.283.794a4.065,4.065,0,0,1-4.374.224A13.824,13.824,0,0,1,.31,30.134.874.874,0,0,1,.244,28.86.923.923,0,0,1,1.558,28.8,16.03,16.03,0,0,0,3.34,30.071a2.254,2.254,0,0,0,2.489-.114c.406-.272.824-.527,1.245-.774a3.891,3.891,0,0,1,4.281.019c.479.293.948.6,1.432.882a1.9,1.9,0,0,0,2.083-.025c.417-.255.82-.532,1.235-.791a4.3,4.3,0,0,1,2.185-.715.933.933,0,0,1,1.046.857.9.9,0,0,1-.926.969,3.782,3.782,0,0,0-1.727.73,5.482,5.482,0,0,1-2.542,1.1c-.1.008-.2.019-.249.023" fill="#fff"></path><path id="Trazado_5316" data-name="Trazado 5316" d="M13.888,21.183a4.035,4.035,0,0,1-2.14-.617q-.607-.37-1.2-.765a2.231,2.231,0,0,0-2.694.011c-.322.217-.655.416-.978.631a4.036,4.036,0,0,1-4.331.236,14.179,14.179,0,0,1-2.233-1.59.875.875,0,0,1-.075-1.273.911.911,0,0,1,1.311-.067,16.083,16.083,0,0,0,1.471,1.117A2.5,2.5,0,0,0,6,18.807c.338-.243.7-.457,1.055-.669a3.92,3.92,0,0,1,4.282-.005c.469.28.924.582,1.389.867a1.929,1.929,0,0,0,2.157,0c.453-.277.9-.569,1.35-.846a4.108,4.108,0,0,1,2.071-.651.929.929,0,0,1,1.03.873.912.912,0,0,1-.907.95,3.633,3.633,0,0,0-1.769.728,5.19,5.19,0,0,1-2.577,1.112c-.086.005-.171.014-.2.016" fill="#fff"></path><path id="Trazado_5317" data-name="Trazado 5317" d="M23.091,24.858a3.806,3.806,0,0,1-2.124-.616c-.48-.289-.949-.6-1.43-.882a2.051,2.051,0,0,0-2.244,0c-.467.281-.922.584-1.388.867a3.824,3.824,0,0,1-2.033.623.915.915,0,0,1-.974-.88.993.993,0,0,1,.869-.96,7.274,7.274,0,0,0,1.469-.552c.526-.26,1-.632,1.526-.885a3.771,3.771,0,0,1,3.708.2c.472.274.93.571,1.392.862a2.174,2.174,0,0,0,2.3.129,15.306,15.306,0,0,0,1.865-1.291.982.982,0,0,1,1.222-.114.874.874,0,0,1,.18,1.293,6.2,6.2,0,0,1-4.333,2.2" fill="#fff"></path><path id="Trazado_5318" data-name="Trazado 5318" d="M4.834,24.866A6.079,6.079,0,0,1,.778,23.214c-.142-.121-.28-.248-.414-.378a.938.938,0,0,1-.12-1.345A.944.944,0,0,1,1.6,21.466,14.523,14.523,0,0,0,3,22.534a2.579,2.579,0,0,0,3.134-.1,5.484,5.484,0,0,1,2.284-1.165,4.533,4.533,0,0,1,.813-.071.894.894,0,0,1,.9.863A.87.87,0,0,1,9.355,23a4.072,4.072,0,0,0-2.079.862,4.6,4.6,0,0,1-2.442,1" fill="#fff"></path><path id="Trazado_5319" data-name="Trazado 5319" d="M4.327,28.543A6.105,6.105,0,0,1,.7,26.832a5.534,5.534,0,0,1-.437-.415.912.912,0,0,1-.015-1.248.9.9,0,0,1,1.243-.1c.283.22.536.477.817.7a4.07,4.07,0,0,0,2.223.94c.647.051,1.018.426.992.954-.027.553-.459.9-1.2.877" fill="#fff"></path></g></g></g></svg>