<svg xmlns="http://www.w3.org/2000/svg" xmlns:xlink="http://www.w3.org/1999/xlink" width="70" height="70" viewBox="0 0 70 70"><defs><clipPath id="clip-path"><rect id="Rect&#xE1;ngulo_3988" data-name="Rect&#xE1;ngulo 3988" width="35.006" height="35" fill="#fff"></rect></clipPath></defs><g id="falsedad2" transform="translate(-892 -846)"><circle id="Elipse_12" data-name="Elipse 12" cx="35" cy="35" r="35" transform="translate(892 846)" fill="#3728ae"></circle><g id="Grupo_1508" data-name="Grupo 1508" transform="translate(909 864)"><g id="Grupo_1340" data-name="Grupo 1340" clip-path="url(#clip-path)"><path id="Trazado_6234" data-name="Trazado 6234" d="M16.406,0h2.188c.6.078,1.2.132,1.787.237a17.176,17.176,0,0,1,11.03,6.681,16.919,16.919,0,0,1,3.346,13.421,16.93,16.93,0,0,1-6.67,11.069,17,17,0,0,1-12.949,3.427,16.891,16.891,0,0,1-9.275-4.287,17.223,17.223,0,0,1-5.59-10C.156,19.9.089,19.246,0,18.594V16.406c.076-.584.134-1.173.233-1.754A17.219,17.219,0,0,1,5.042,5.234,17.151,17.151,0,0,1,14.486.269c.636-.112,1.28-.18,1.92-.269M2.505,17.469A14.995,14.995,0,1,0,17.531,2.507,15.006,15.006,0,0,0,2.505,17.469" fill="#fff"></path><path id="Trazado_6235" data-name="Trazado 6235" d="M19.223,17.534c.18.151.338.264.474.4q2.421,2.413,4.837,4.83a1.292,1.292,0,0,1,.443,1.193,1.191,1.191,0,0,1-.816.969,1.166,1.166,0,0,1-1.266-.273c-.63-.611-1.244-1.237-1.864-1.858l-3.517-3.524c-.1.1-.2.179-.283.265q-2.5,2.5-5,5a1.287,1.287,0,0,1-1.161.442,1.2,1.2,0,0,1-1-.829,1.17,1.17,0,0,1,.282-1.264c.5-.516,1.013-1.018,1.52-1.525q1.788-1.79,3.579-3.575a2.526,2.526,0,0,1,.32-.233c-.143-.152-.225-.244-.311-.331q-2.513-2.514-5.026-5.028a1.247,1.247,0,1,1,1.706-1.817c.671.651,1.324,1.319,1.985,1.979l3.118,3.118c.079.079.163.153.258.243.1-.1.192-.178.279-.265q2.514-2.513,5.028-5.026a1.247,1.247,0,1,1,1.805,1.718c-.789.806-1.592,1.6-2.39,2.395-.975.974-1.952,1.946-3,2.992" fill="#fff"></path></g></g></g></svg>