<svg xmlns="http://www.w3.org/2000/svg" xmlns:xlink="http://www.w3.org/1999/xlink" width="70" height="70" viewBox="0 0 70 70"><defs><clipPath id="clip-path"><rect id="Rect&#xE1;ngulo_3369" data-name="Rect&#xE1;ngulo 3369" width="35.044" height="35" fill="#fff"></rect></clipPath></defs><g id="falta-piso" transform="translate(-161 -1082)"><circle id="Elipse_1" data-name="Elipse 1" cx="35" cy="35" r="35" transform="translate(161 1082)" fill="#3728ae"></circle><g id="Grupo_932" data-name="Grupo 932" transform="translate(178 1100)"><g id="Grupo_931" data-name="Grupo 931" clip-path="url(#clip-path)"><path id="Trazado_5328" data-name="Trazado 5328" d="M35.044,34.771a.561.561,0,0,1-.787.118,15.376,15.376,0,0,0-5.094-1.9,55.381,55.381,0,0,0-13.427-1.13,52.687,52.687,0,0,0-8.564.859,21.476,21.476,0,0,0-5.135,1.5c-.391.184-.756.422-1.141.616a1.007,1.007,0,0,1-.474.129c-.131-.007-.334-.1-.365-.2a.529.529,0,0,1,.1-.45,2.714,2.714,0,0,1,.613-.428A16.1,16.1,0,0,1,4.949,32.32c.3-.076.391-.19.387-.5-.019-1.436-.008-2.875-.009-4.312,0-.054-.01-.108-.018-.2-.469,0-.925.03-1.375-.006A3.841,3.841,0,0,1,.685,25.587a5.711,5.711,0,0,1-.658-3.471.873.873,0,0,1,.05-.368c.1-.159.234-.392.378-.411a5.693,5.693,0,0,1,4.047.7,7.526,7.526,0,0,1,.8.709V20.266a15.683,15.683,0,0,1-1.594-.009A3.683,3.683,0,0,1,.636,18.488a5.8,5.8,0,0,1-.6-3.415A.95.95,0,0,1,.079,14.7c.081-.149.2-.363.33-.381a5.615,5.615,0,0,1,4.223.78,5.993,5.993,0,0,1,.694.691,7.687,7.687,0,0,0-.012-.95c-.015-.121-.148-.243-.252-.335a5.942,5.942,0,0,1-1.825-2.6,3.249,3.249,0,0,1,.224-2.551A6.81,6.81,0,0,1,5.407,7.055c.187-.148.391-.229.593-.076a5.877,5.877,0,0,1,2.347,3.185,3.676,3.676,0,0,1-.886,3.275c-.32.412-.722.757-1.078,1.141a.562.562,0,0,0-.171.309c-.014.83-.007,1.661-.007,2.493.043,0,.075.014.082,0,1.113-1.365,2.647-1.539,4.248-1.464.91.042.929.1.979,1.015A6.562,6.562,0,0,1,11.2,19.5a3.546,3.546,0,0,1-3.1,2.392c-.614.091-1.243.082-1.883.12V24.49a3.43,3.43,0,0,1,1.543-1.184,6.377,6.377,0,0,1,3.3-.3.559.559,0,0,1,.373.365,5.777,5.777,0,0,1-.6,3.905A3.7,3.7,0,0,1,7.88,28.95c-.539.062-1.087.054-1.654.08V32a57.3,57.3,0,0,1,10.869-1.045v-.375c0-3.161,0-6.32.007-9.48,0-.315-.077-.394-.4-.388a7.679,7.679,0,0,1-1.53-.108,3.29,3.29,0,0,1-2.939-2.977,13.758,13.758,0,0,1-.055-2.142.413.413,0,0,1,.4-.432,5.7,5.7,0,0,1,3.185.352,9.834,9.834,0,0,1,1.31.853V14.173c-.185,0-.363,0-.54,0a5.151,5.151,0,0,1-2.734-.61,3.286,3.286,0,0,1-1.582-2.55,15.96,15.96,0,0,1-.041-2.076.419.419,0,0,1,.4-.438,5.711,5.711,0,0,1,3.342.421,8.961,8.961,0,0,1,1.172.823c0-.729.01-1.486-.01-2.242,0-.108-.141-.216-.226-.318a15.309,15.309,0,0,1-1.362-1.652,3.217,3.217,0,0,1,.149-3.7A6.294,6.294,0,0,1,17.453,0h.137a6.093,6.093,0,0,1,2.036,2.213,3.157,3.157,0,0,1,.085,3.045,4.888,4.888,0,0,1-1.391,1.8.982.982,0,0,0-.335,1.069,9.475,9.475,0,0,1,1.3-.842,5.846,5.846,0,0,1,3.155-.354.437.437,0,0,1,.425.455,17.589,17.589,0,0,1-.016,1.908,3.42,3.42,0,0,1-3.159,3.234c-.559.074-1.128.074-1.693.107,0,.7,0,1.406,0,2.063a8.414,8.414,0,0,1,1.11-.778,5.713,5.713,0,0,1,3.374-.424.421.421,0,0,1,.384.451,17.718,17.718,0,0,1-.014,1.873A3.449,3.449,0,0,1,19.579,19.1c-.526.059-1.058.064-1.589.094v2.077a8.183,8.183,0,0,1,.985-.727,5.61,5.61,0,0,1,3.527-.484.4.4,0,0,1,.362.43,18.092,18.092,0,0,1-.015,1.907A3.375,3.375,0,0,1,19.861,25.6c-.611.106-1.24.111-1.876.165v5.193A57.43,57.43,0,0,1,28.818,32V29.03c-.565-.026-1.113-.018-1.651-.08a3.7,3.7,0,0,1-2.939-1.637,5.87,5.87,0,0,1-.638-3.936A.409.409,0,0,1,24,22.994a14.2,14.2,0,0,1,1.569-.049,4.506,4.506,0,0,1,2.474.785,10.049,10.049,0,0,1,.768.7V22.014c-.634-.038-1.263-.03-1.877-.12a3.548,3.548,0,0,1-3.1-2.389,6.578,6.578,0,0,1-.311-2.563c.05-.915.068-.977.976-1.018,1.6-.077,3.134.1,4.248,1.461.008.011.04,0,.085,0,0-.844.007-1.687-.009-2.528,0-.1-.111-.212-.192-.3-.349-.375-.74-.716-1.053-1.118a3.686,3.686,0,0,1-.889-3.275A5.885,5.885,0,0,1,29.038,6.98a.422.422,0,0,1,.59.076,18,18,0,0,1,1.581,1.691,3.36,3.36,0,0,1,.68,2.866,5.449,5.449,0,0,1-1.78,2.778,1.152,1.152,0,0,0-.324,1.361,3.24,3.24,0,0,1,1.7-1.221,6.835,6.835,0,0,1,2.43-.3c.885.033.886.025,1.127.826v1.368c-.025.111-.056.219-.074.33a4.732,4.732,0,0,1-.638,1.859,3.79,3.79,0,0,1-3.008,1.643c-.525.052-1.06.008-1.581.008v2.471a8.529,8.529,0,0,1,.8-.708,5.363,5.363,0,0,1,3.4-.769c.849.039.849.054,1.094.847v1.369c-.025.1-.057.192-.073.29a4.7,4.7,0,0,1-.633,1.86,3.911,3.911,0,0,1-3.2,1.676c-.46.039-.926.006-1.42.006v.411c0,1.356.011,2.712-.007,4.068-.005.315.083.432.393.533,1.231.4,2.458.82,3.661,1.3a7.879,7.879,0,0,1,1.283.813Zm-6.3-13.691c-.025-.521-.013-1.023-.079-1.514a2.917,2.917,0,0,0-1.046-2.079,4.394,4.394,0,0,0-3.028-.692c-.066,0-.176.14-.177.216a8.877,8.877,0,0,0,.037,1.3,2.937,2.937,0,0,0,1.035,2.085,4.59,4.59,0,0,0,3.258.688m-21.639.036c.194-.013.4-.015.6-.041a3.121,3.121,0,0,0,2.176-1,4.216,4.216,0,0,0,.739-3.109c0-.063-.146-.17-.224-.169a9.662,9.662,0,0,0-1.362.058A2.9,2.9,0,0,0,7,17.91a3.863,3.863,0,0,0-.689,2.422c0,.936-.124.722.792.784M24.438,23.84c-.315,3.172,1.283,4.575,4.239,4.237.306-3-1.067-4.517-4.239-4.237M.909,22.189a5.753,5.753,0,0,0,.217,2.283,2.487,2.487,0,0,0,1.113,1.456,4.875,4.875,0,0,0,2.941.5c0-.479.032-.934-.008-1.385a3.616,3.616,0,0,0-.608-1.75c-.724-1.063-2.637-1.318-3.655-1.1m28.955,4.224c3.171.3,4.537-1.228,4.253-4.227-2.942-.339-4.541,1.014-4.253,4.227m-19.245-2.58c-.466,0-.911-.033-1.349.007a3.219,3.219,0,0,0-1.808.639c-1.163.955-1.176,2.271-1.134,3.629a5.9,5.9,0,0,0,2.33-.217A2.493,2.493,0,0,0,10.1,26.809a4.79,4.79,0,0,0,.519-2.976m-5.441-4.42c.271-3.132-1.19-4.613-4.353-4.228.077.683.1,1.378.244,2.048a2.459,2.459,0,0,0,1.452,1.823,5.382,5.382,0,0,0,2.657.357m28.939-4.266c-3.125-.279-4.586,1.2-4.226,4.252,3.064.268,4.508-1.132,4.226-4.252m-4.858-1.212c2.409-1.924,2.437-4.1-.074-6.06A20.415,20.415,0,0,0,27.91,9.5a2.554,2.554,0,0,0-.071,2.75,5.934,5.934,0,0,0,1.42,1.685M5.755,7.9c-.174.16-.331.29-.472.437a3.871,3.871,0,0,0-1.3,2.338c-.117,1.465.813,2.385,1.808,3.319.369-.41.739-.767,1.047-1.174A2.756,2.756,0,0,0,7.2,9.611,5.88,5.88,0,0,0,5.755,7.9M17.536,1.062c-2.185,1.748-2.243,3.777.016,5.508,2.184-1.859,2.149-3.7-.016-5.508m-.595,12.2c.259-2.858-1.1-4.188-3.9-3.9-.284,2.808,1.033,4.155,3.9,3.9m5.071-5.472c-2.859-.268-4.195,1.117-3.9,3.9,2.872.29,4.146-1.1,3.9-3.9M18.1,18.247c2.877.27,4.246-1.143,3.882-3.92-2.851-.209-4.114,1.069-3.882,3.92m3.933,2.644a11.409,11.409,0,0,0-1.3.009,2.75,2.75,0,0,0-2.027.992,4.064,4.064,0,0,0-.623,2.773c0,.061.146.165.222.165a10.117,10.117,0,0,0,1.361-.077,2.54,2.54,0,0,0,1.73-.934,4.275,4.275,0,0,0,.636-2.928m-5.1-1.068c.3-2.813-1.082-4.238-3.9-3.9-.3,2.745,1.121,4.169,3.9,3.9" fill="#fff"></path></g></g></g></svg>