<svg xmlns="http://www.w3.org/2000/svg" xmlns:xlink="http://www.w3.org/1999/xlink" width="70" height="70" viewBox="0 0 70 70"><defs><clipPath id="clip-path"><rect id="Rect&#xE1;ngulo_3364" data-name="Rect&#xE1;ngulo 3364" width="31.419" height="35" fill="#fff"></rect></clipPath></defs><g id="heladas" transform="translate(-649 -1082)"><circle id="Elipse_2" data-name="Elipse 2" cx="35" cy="35" r="35" transform="translate(649 1082)" fill="#3728ae"></circle><g id="Grupo_922" data-name="Grupo 922" transform="translate(668 1100)"><g id="Grupo_921" data-name="Grupo 921" clip-path="url(#clip-path)"><path id="Trazado_5310" data-name="Trazado 5310" d="M15.572,35a1.087,1.087,0,0,1-.687-1.134c.021-1.56.007-3.121.007-4.681v-.391c-.119.091-.2.146-.27.209-1.183,1.035-2.362,2.075-3.549,3.105a.864.864,0,1,1-1.135-1.3c1.189-1.045,2.385-2.082,3.578-3.123.387-.337.784-.662,1.153-1.017a.721.721,0,0,0,.213-.451c.022-.786,0-1.572.016-2.358a.444.444,0,0,0-.267-.452q-1.734-.99-3.453-2.007a.419.419,0,0,0-.493-.008c-.684.409-1.384.79-2.065,1.2a.654.654,0,0,0-.279.38c-.406,2.007-.795,4.017-1.19,6.026a2.233,2.233,0,0,1-.1.36.837.837,0,0,1-1,.568.871.871,0,0,1-.647-1.048c.136-.726.283-1.451.425-2.177q.249-1.272.5-2.545a2.5,2.5,0,0,0,.021-.261c-.142.079-.246.135-.348.194-1.34.774-2.679,1.551-4.022,2.32a1.472,1.472,0,0,1-.535.2.838.838,0,0,1-.892-.546.909.909,0,0,1,.437-1.079c1.376-.8,2.758-1.6,4.137-2.393.106-.061.209-.129.355-.22L2.021,21.2c-.452-.155-.906-.3-1.355-.465a.855.855,0,1,1,.563-1.611q2.97,1.014,5.935,2.043a.613.613,0,0,0,.571-.045q1-.6,2.013-1.155a.394.394,0,0,0,.23-.4q-.012-2.068,0-4.135a.4.4,0,0,0-.23-.4c-.7-.385-1.379-.8-2.08-1.176a.7.7,0,0,0-.5-.042q-2.958,1-5.9,2.025a.889.889,0,0,1-.979-.161.8.8,0,0,1,.09-1.291,2.1,2.1,0,0,1,.493-.226q2.114-.726,4.229-1.442c.094-.032.186-.07.337-.128-.143-.09-.24-.156-.342-.215-1.34-.775-2.681-1.546-4.018-2.327a1.417,1.417,0,0,1-.439-.365A.837.837,0,0,1,.7,8.608a.892.892,0,0,1,1.128-.123c1.372.786,2.74,1.581,4.11,2.372.118.068.238.131.4.224C6.169,10.172,6,9.308,5.835,8.444c-.155-.8-.317-1.607-.459-2.413a.8.8,0,0,1,.443-.909.86.86,0,0,1,1.267.692c.1.478.188.96.283,1.439.309,1.574.614,3.149.938,4.72a.694.694,0,0,0,.292.4c.68.414,1.381.8,2.065,1.2a.393.393,0,0,0,.464-.006q1.731-1.029,3.475-2.037a.4.4,0,0,0,.225-.406c-.01-.8.006-1.6-.013-2.392a.654.654,0,0,0-.2-.425Q12.3,6.266,9.959,4.243a.986.986,0,0,1-.411-.784.818.818,0,0,1,1.169-.766,1.745,1.745,0,0,1,.421.285c1.207,1.042,2.41,2.088,3.686,3.194V5.76c0-1.572,0-3.144,0-4.716A.984.984,0,0,1,15.149.22a.8.8,0,0,1,.894-.141.894.894,0,0,1,.55.868q0,2.018,0,4.033V6.222c.138-.112.224-.179.306-.251,1.175-1.028,2.345-2.06,3.524-3.083a.828.828,0,0,1,1.243.027.831.831,0,0,1-.106,1.263c-1.008.889-2.023,1.77-3.036,2.653-.575.5-1.158,1-1.721,1.51a.662.662,0,0,0-.2.424q-.029,1.212,0,2.426a.511.511,0,0,0,.213.363c1.15.692,2.312,1.365,3.466,2.051a.39.39,0,0,0,.46.014c.694-.414,1.4-.8,2.1-1.218a.647.647,0,0,0,.269-.383c.414-2.04.812-4.083,1.216-6.125.139-.706.691-1.028,1.268-.744a.815.815,0,0,1,.446.941c-.234,1.263-.483,2.524-.727,3.787-.074.389-.149.777-.237,1.239.157-.087.261-.142.363-.2,1.349-.78,2.7-1.563,4.05-2.337a1.4,1.4,0,0,1,.5-.191.825.825,0,0,1,.907.566.872.872,0,0,1-.366,1.012c-.554.338-1.12.655-1.682.98l-2.892,1.672c.526.182.991.344,1.457.5,1.13.386,2.262.764,3.389,1.158a.841.841,0,0,1,.568,1.08.86.86,0,0,1-1.133.531c-.054-.017-.108-.033-.162-.052-1.925-.662-3.851-1.321-5.772-1.992a.638.638,0,0,0-.6.046c-.673.4-1.364.778-2.035,1.185a.508.508,0,0,0-.215.36q-.022,2.085,0,4.17a.506.506,0,0,0,.219.358q1.021.618,2.072,1.189a.707.707,0,0,0,.5.046q2.958-1,5.9-2.024a.89.89,0,0,1,.98.155.8.8,0,0,1-.082,1.291,2.079,2.079,0,0,1-.492.228q-2.113.726-4.23,1.442c-.094.032-.187.07-.342.127.141.09.237.157.338.215,1.349.781,2.7,1.557,4.047,2.344a1.339,1.339,0,0,1,.429.375.829.829,0,0,1-.078,1.041.892.892,0,0,1-1.128.13c-1.372-.786-2.74-1.581-4.11-2.372-.117-.068-.237-.132-.41-.227.155.8.3,1.547.444,2.3.176.916.359,1.83.524,2.748a.807.807,0,0,1-.438.913.859.859,0,0,1-1.27-.685c-.128-.6-.236-1.206-.355-1.808-.285-1.451-.565-2.9-.866-4.351a.7.7,0,0,0-.289-.408c-.68-.414-1.38-.8-2.065-1.2a.393.393,0,0,0-.464,0q-1.731,1.03-3.475,2.038a.4.4,0,0,0-.23.4c.011.785.013,1.572,0,2.358a.575.575,0,0,0,.225.494c1.588,1.367,3.167,2.745,4.755,4.113a.937.937,0,0,1,.351.939.825.825,0,0,1-1.175.559,2.428,2.428,0,0,1-.5-.357c-1.175-1.025-2.345-2.054-3.587-3.144v.42c0,1.527-.015,3.053.008,4.58A1.106,1.106,0,0,1,15.982,35Zm4.035-17.493c0-.683.01-1.367-.009-2.049a.512.512,0,0,0-.2-.37q-1.753-1.056-3.531-2.073a.465.465,0,0,0-.391,0q-1.776,1.018-3.532,2.072a.471.471,0,0,0-.195.338q-.019,2.049,0,4.1a.5.5,0,0,0,.2.367q1.758,1.049,3.54,2.058a.5.5,0,0,0,.417,0c1.158-.656,2.3-1.334,3.459-1.994a.422.422,0,0,0,.238-.433c-.013-.671,0-1.343,0-2.015" fill="#fff"></path></g></g></g></svg>