<svg xmlns="http://www.w3.org/2000/svg" xmlns:xlink="http://www.w3.org/1999/xlink" width="70" height="70" viewBox="0 0 70 70"><defs><clipPath id="clip-path"><rect id="Rect&#xE1;ngulo_4569" data-name="Rect&#xE1;ngulo 4569" width="25.537" height="35" fill="#fff"></rect></clipPath></defs><g id="humo" transform="translate(-185 -1515)"><circle id="Elipse_2" data-name="Elipse 2" cx="35" cy="35" r="35" transform="translate(185 1515)" fill="#3728ae"></circle><g id="Grupo_1614" data-name="Grupo 1614" transform="translate(207.231 1532.5)"><g id="Grupo_1613" data-name="Grupo 1613" clip-path="url(#clip-path)"><path id="Trazado_7697" data-name="Trazado 7697" d="M9.425,33.419a1.648,1.648,0,0,1,.48-1.177,27.279,27.279,0,0,0,3.077-4.066,8.767,8.767,0,0,0,1.309-3.533,6.28,6.28,0,0,0-.956-3.987c-.758-1.253-1.593-2.458-2.411-3.673A20.47,20.47,0,0,1,8.711,13.37,10.4,10.4,0,0,1,8.8,5.454,14.537,14.537,0,0,1,11.886.575a1.61,1.61,0,0,1,2.3-.169,1.6,1.6,0,0,1,.04,2.328,11.849,11.849,0,0,0-2.789,4.823,6.884,6.884,0,0,0,.991,6c1.061,1.547,2.143,3.079,3.169,4.648a11.528,11.528,0,0,1,1.759,4.2,9.283,9.283,0,0,1-.639,5.286,22.928,22.928,0,0,1-3.992,6.164,7.605,7.605,0,0,1-.621.694,1.584,1.584,0,0,1-2.676-1.128" fill="#fff"></path><path id="Trazado_7698" data-name="Trazado 7698" d="M25.537,25.767a10.965,10.965,0,0,1-2.284,6.341A27.347,27.347,0,0,1,21.2,34.465a1.561,1.561,0,0,1-2.3.059,1.584,1.584,0,0,1,.052-2.3,14.623,14.623,0,0,0,2.259-2.764,7.116,7.116,0,0,0,.56-6.481c-.563-1.479-1.289-2.9-1.99-4.323-.741-1.5-1.532-2.981-2.316-4.462a8.234,8.234,0,0,1-.159-7.5c.307-.7.653-1.394,1.02-2.07A1.559,1.559,0,0,1,20.5,3.977a1.613,1.613,0,0,1,.615,2.166c-.444.954-.9,1.907-1.253,2.9a4,4,0,0,0,.217,3.19q1.238,2.483,2.525,4.94a25.02,25.02,0,0,1,2.45,5.778c.219.925.323,1.878.479,2.819" fill="#fff"></path><path id="Trazado_7699" data-name="Trazado 7699" d="M1.965,33.408a1.788,1.788,0,0,1,.568-1.252,31.975,31.975,0,0,0,2.232-2.642,5.2,5.2,0,0,0,.491-5.541c-.635-1.329-1.418-2.587-2.131-3.879-.736-1.337-1.48-2.67-2.2-4.018A7.875,7.875,0,0,1,.673,9.167,25.691,25.691,0,0,1,1.821,6.748a1.554,1.554,0,0,1,2.163-.679A1.581,1.581,0,0,1,4.61,8.253,13.37,13.37,0,0,0,3.3,11.406,4.451,4.451,0,0,0,3.6,14.277,53.181,53.181,0,0,0,6.784,20a17.376,17.376,0,0,1,1.834,3.94A8.447,8.447,0,0,1,7.52,31.1,17.783,17.783,0,0,1,4.664,34.53a1.51,1.51,0,0,1-1.757.319,1.518,1.518,0,0,1-.942-1.441" fill="#fff"></path></g></g></g></svg>