<svg xmlns="http://www.w3.org/2000/svg" xmlns:xlink="http://www.w3.org/1999/xlink" width="70" height="70" viewBox="0 0 70 70"><defs><clipPath id="clip-path"><rect id="Rect&#xE1;ngulo_4575" data-name="Rect&#xE1;ngulo 4575" width="34.988" height="35" fill="#fff"></rect></clipPath></defs><g id="hundimientos-terreno" transform="translate(-892 -880)"><circle id="Elipse_22" data-name="Elipse 22" cx="35" cy="35" r="35" transform="translate(892 880)" fill="#3728ae"></circle><g id="Grupo_1624" data-name="Grupo 1624" transform="translate(909.006 897.5)"><g id="Grupo_1623" data-name="Grupo 1623" clip-path="url(#clip-path)"><path id="Trazado_7709" data-name="Trazado 7709" d="M11.648.939c-.021.086-.054.251-.1.412Q6.623,17.762,1.7,34.171c-.022.075-.045.15-.071.223a.84.84,0,0,1-1.052.563A.825.825,0,0,1,.042,33.9c.357-1.222.729-2.44,1.095-3.66Q5.526,15.6,9.917.961a3.411,3.411,0,0,1,.161-.479.824.824,0,0,1,.941-.458.857.857,0,0,1,.629.915" fill="#fff"></path><path id="Trazado_7710" data-name="Trazado 7710" d="M24.176,0a.852.852,0,0,1,.816.712q.709,2.351,1.411,4.7,4.236,14.113,8.471,28.227a3.172,3.172,0,0,1,.1.376.836.836,0,0,1-.585.94.825.825,0,0,1-.98-.44,2.344,2.344,0,0,1-.131-.366Q28.361,17.764,23.446,1.371a2.083,2.083,0,0,1-.1-.571.8.8,0,0,1,.835-.8" fill="#fff"></path><path id="Trazado_7711" data-name="Trazado 7711" d="M15.4,30q0-1.97,0-3.94c0-.765.3-1.061,1.061-1.062.716,0,1.431,0,2.146,0a.858.858,0,0,1,.968.957q.009,4.038,0,8.074a.859.859,0,0,1-.962.965Q17.5,35,16.393,35a.867.867,0,0,1-.988-.978c-.007-1.339,0-2.678,0-4.017m2.5-3.289c-.821-.151-.821-.151-.821.593v5.979c.821.151.821.151.821-.593V26.713" fill="#fff"></path><path id="Trazado_7712" data-name="Trazado 7712" d="M15.4,19.141c0-1.028,0-2.056,0-3.084,0-.761.3-1.055,1.068-1.056.716,0,1.432,0,2.147,0a.849.849,0,0,1,.958.929q.014,3.24,0,6.48a.845.845,0,0,1-.929.924q-1.151.02-2.3,0a.857.857,0,0,1-.939-.955c-.01-1.08,0-2.16,0-3.24m1.7,2.492h.767V16.688H17.1Z" fill="#fff"></path><path id="Trazado_7713" data-name="Trazado 7713" d="M19.581,9.993c0,.78.005,1.56,0,2.34a.884.884,0,0,1-1.008,1.006c-.728.006-1.456.007-2.184,0a.874.874,0,0,1-.983-.989q-.009-2.341,0-4.681c0-.685.32-1,1.007-1.005.728-.006,1.456-.007,2.184,0a.876.876,0,0,1,.984.989c.007.78,0,1.56,0,2.34m-1.7-1.619h-.77v3.268h.77Z" fill="#fff"></path><path id="Trazado_7714" data-name="Trazado 7714" d="M15.4,2.493c0-.52-.009-1.04,0-1.559A.853.853,0,0,1,16.361,0q1.13-.008,2.26,0a.85.85,0,0,1,.956.928q.02,1.578,0,3.157A.844.844,0,0,1,18.643,5q-1.151.009-2.3,0a.847.847,0,0,1-.936-.909c-.014-.533,0-1.066,0-1.6m2.48-.806h-.768V3.316h.768Z" fill="#fff"></path></g></g></g></svg>