<svg xmlns="http://www.w3.org/2000/svg" xmlns:xlink="http://www.w3.org/1999/xlink" width="70" height="70" viewBox="0 0 70 70"><defs><clipPath id="clip-path"><rect id="Rect&#xE1;ngulo_3367" data-name="Rect&#xE1;ngulo 3367" width="35.504" height="35.5" transform="translate(0 0)" fill="#fff"></rect></clipPath></defs><g id="huracan" transform="translate(-405 -882)"><circle id="Elipse_9" data-name="Elipse 9" cx="35" cy="35" r="35" transform="translate(405 882)" fill="#3728ae"></circle><g id="Grupo_928" data-name="Grupo 928" transform="translate(422.248 899.25)"><g id="Grupo_927" data-name="Grupo 927" clip-path="url(#clip-path)"><path id="Trazado_5320" data-name="Trazado 5320" d="M35.48,31.959c-.012-.061-.025-.123-.033-.185a3.325,3.325,0,0,0-2.834-2.965c-.13-.021-.168-.05-.24-.184a4.717,4.717,0,0,0-4.529-2.662,4.644,4.644,0,0,0-2.129.616,5.9,5.9,0,0,0-2.169-2.142,6.148,6.148,0,0,0-2.878-.78,10.519,10.519,0,0,1,1.221-3.36c.183-.328.348-.429.636-.4a2.711,2.711,0,0,0,.559-.029c.066-.009.133-.017.2-.023a24.882,24.882,0,0,0,4.827-.774A7.277,7.277,0,0,0,30,18.225a1.187,1.187,0,0,0,.6-.96A1.3,1.3,0,0,0,30,16.2a3.956,3.956,0,0,0-1.029-.535c-.465-.16-.947-.3-1.414-.426l-.209-.058a11.111,11.111,0,0,0,3.1-6.293c.017-.115.027-.145.192-.2a20.935,20.935,0,0,0,2.014-.7,1.369,1.369,0,0,0,.984-1.261,1.37,1.37,0,0,0-.991-1.3,18,18,0,0,0-1.958-.674.442.442,0,0,1-.106-.04.327.327,0,0,1-.007-.1c.008-.249.006-.5,0-.749,0-.273,0-.547.007-.82a1.378,1.378,0,0,0-.673-1.281,5.04,5.04,0,0,0-.725-.393A10.952,10.952,0,0,0,25.913.556L25.6.525c-2.009-.2-4.087-.41-6.139-.483A48.788,48.788,0,0,0,8.115.823a6.827,6.827,0,0,0-2.508.929,1.29,1.29,0,0,0-.675,1.012l-.005.2A8.433,8.433,0,0,0,5.233,6.1c.181.507.412,1,.635,1.485.059.128.12.257.179.387-.036.012-.073.024-.109.039-.178.072-.361.14-.542.207a7.871,7.871,0,0,0-1.365.609,1.209,1.209,0,0,0-.641.992A1.29,1.29,0,0,0,4.016,10.9a5.548,5.548,0,0,0,1.307.644,18.632,18.632,0,0,0,4.2.813.358.358,0,0,1,.36.275,5.783,5.783,0,0,1-.316,5.388,7,7,0,0,0-.447,6.23,9.973,9.973,0,0,0,.7,1.357c.075.13.15.258.223.388l-.13.1a7.157,7.157,0,0,0-.769.629,8.007,8.007,0,0,0-.663.774q-.072.093-.147.186A4.165,4.165,0,0,0,2.65,29.509.289.289,0,0,1,2.5,29.6,3.013,3.013,0,0,0,0,32.412a2.969,2.969,0,0,0,2.324,3.016.652.652,0,0,1,.1.033l30.131.039.216-.059a4.339,4.339,0,0,0,.421-.126,3.309,3.309,0,0,0,2.251-2.774c.008-.053.022-.1.034-.156l.028-.144ZM30.592,7.216V6.229a5.6,5.6,0,0,1,1.4.5,5.9,5.9,0,0,1-1.37.484ZM8.525,10.742a11.721,11.721,0,0,1-3.478-.857l.075-.031c.289-.122.578-.244.875-.34.081-.026.163-.056.247-.086a1.679,1.679,0,0,1,.827-.163c.169.042.349.256.523.463.079.093.158.186.237.268.249.256.478.5.694.746m12.982,23.3h-6q-6.212,0-12.42,0a1.5,1.5,0,0,1-1.594-1.313,1.47,1.47,0,0,1,.34-1.168,1.4,1.4,0,0,1,1.037-.506,1.012,1.012,0,0,0,1.03-.728,2.638,2.638,0,0,1,1.744-1.576,2.708,2.708,0,0,1,2.37.446.987.987,0,0,0,.8.271.979.979,0,0,0,.567-.612,3.661,3.661,0,0,1,5.88-1.1.983.983,0,0,0,.773.362c.307-.046.5-.336.638-.582a4.278,4.278,0,0,1,4.035-2.4,4.272,4.272,0,0,1,3.972,2.606c.164.335.327.572.59.635a1.042,1.042,0,0,0,.816-.3,3.32,3.32,0,0,1,5.11,1.465c.218.564.383.679.981.682a1.906,1.906,0,1,1,0,3.812q-5.331.007-10.664,0M11.422,12.552l.679.034c.788.04,1.563.08,2.337.1.869.018,1.738.017,2.607.014h1.122q.1,0,.195-.009a.725.725,0,0,0,.731-.744.737.737,0,0,0-.779-.707h0c-.235,0-.47.008-.7.016-.322.01-.643.022-.962.011-1.128-.034-2.256-.077-3.384-.119q-1.14-.044-2.281-.084a.676.676,0,0,1-.54-.314C9.72,9.9,8.973,9.086,8.073,8.128A5.7,5.7,0,0,1,6.624,5.674c-.1-.368-.156-.747-.22-1.148L6.377,4.36c.075.023.149.048.222.072.415.135.806.262,1.208.358a35.067,35.067,0,0,0,5.859.763,61.374,61.374,0,0,0,8.16,0,30.247,30.247,0,0,0,6.595-.959c.233-.068.46-.153.7-.241v.323c0,.95,0,1.887-.009,2.823l-.019.017c-.94.121-1.882.232-2.823.343l-.736.083a1.758,1.758,0,0,0-.178.017A.725.725,0,1,0,25.484,9.4q.758-.045,1.51-.125c.526-.057,1.051-.122,1.607-.19l.359-.044c-.015.067-.031.133-.046.2-.087.382-.17.743-.285,1.092A9.654,9.654,0,0,1,24.6,15.553a12.44,12.44,0,0,0-3.223,2.9.353.353,0,0,1-.206.077c-1.478.027-2.957.043-4.435.059l-.859.009-.156,0c-.074,0-.149,0-.226,0a.721.721,0,0,0-.753.724.713.713,0,0,0,.753.73l.2,0c.756.018,1.513.037,2.268.029.589-.005,1.179-.023,1.768-.042l.646-.019-.057.116a7.813,7.813,0,0,0-.454,1.042c-.253.785-.446,1.575-.655,2.452-.051.21-.082.249-.241.293a5.776,5.776,0,0,0-3.191,2.268l-.019.026-.356-.174a12.278,12.278,0,0,0-1.225-.549,4.093,4.093,0,0,0-1.411-.244,4.935,4.935,0,0,0-1.088.126c-.156.033-.207.014-.312-.124a5.415,5.415,0,0,1-.668-6.2,7.822,7.822,0,0,0,.721-6.5M28.546,3.029a16.813,16.813,0,0,1-3.709.792,58.82,58.82,0,0,1-10.426.329,33.306,33.306,0,0,1-6.642-.87,9.663,9.663,0,0,1-1.044-.357l-.119-.046a.339.339,0,0,1-.054-.027,2.942,2.942,0,0,1,.391-.187,16.874,16.874,0,0,1,3.74-.8,58.626,58.626,0,0,1,10.426-.326,31.494,31.494,0,0,1,6.9.943,6.986,6.986,0,0,1,.847.318l.1.041a3.5,3.5,0,0,1-.407.191m-3.6,14.042c.034-.022.07-.043.1-.063a1.323,1.323,0,0,0,.273-.192,1.144,1.144,0,0,1,.842-.359,1.894,1.894,0,0,1,.566.1c.322.1.646.192.97.284.342.1.684.193,1.023.3a1.158,1.158,0,0,1,.221.1,1.794,1.794,0,0,1-.429.187c-1.089.259-2.249.529-3.416.744-.513.094-1.049.146-1.566.2l-.12.012a7.607,7.607,0,0,1,1.531-1.312" fill="#fff"></path><path id="Trazado_5321" data-name="Trazado 5321" d="M14.938,16.308c.958.025,1.915.049,2.873.056h.252c.438,0,.875-.008,1.312-.015L20,16.339c.1,0,.2,0,.3-.012a.732.732,0,0,0,.737-.779.716.716,0,0,0-.794-.673H17.86v-.021H16.81c-.61,0-1.217,0-1.827,0h-.008c-.627,0-.866.36-.881.7a.671.671,0,0,0,.176.5.92.92,0,0,0,.668.257" fill="#fff"></path><path id="Trazado_5322" data-name="Trazado 5322" d="M16.781,8.383c-.279-.012-.559-.021-.838-.031-.458-.016-.915-.031-1.372-.059-.577-.035-1.152-.08-1.728-.125l-.92-.071a.733.733,0,0,0-.839.621.721.721,0,0,0,.649.816,1.946,1.946,0,0,0,.231.033l3.008.223,0,.048h1.773a.748.748,0,0,0,.843-.711c.008-.343-.2-.718-.809-.744" fill="#fff"></path><path id="Trazado_5323" data-name="Trazado 5323" d="M11.319,22.548c.045.006.09.013.134.016l3.33.26.259-.009V22.81c.179.01.358.021.537.027h.052a.915.915,0,0,0,.654-.227.678.678,0,0,0,.2-.5c0-.2-.084-.677-.854-.728q-2.073-.134-4.148-.279c-.767-.049-.934.371-.96.631-.02.207.014.7.792.815" fill="#fff"></path><path id="Trazado_5324" data-name="Trazado 5324" d="M20.847,26.4h-.016c-.666-.008-.923.348-.936.7a.722.722,0,0,0,.76.75,1.731,1.731,0,0,1,1.54,1.037.776.776,0,0,0,.693.523.755.755,0,0,0,.312-.072.735.735,0,0,0,.315-1.06A3.131,3.131,0,0,0,20.847,26.4" fill="#fff"></path><path id="Trazado_5325" data-name="Trazado 5325" d="M12.781,28.007a2.35,2.35,0,0,0-2.3,1.554.7.7,0,0,0,.417.878.778.778,0,0,0,.309.066.648.648,0,0,0,.6-.391,1.064,1.064,0,0,1,.978-.678.682.682,0,0,0,.652-.688l0-.017v-.017a.7.7,0,0,0-.651-.707" fill="#fff"></path></g></g></g></svg>