<svg xmlns="http://www.w3.org/2000/svg" xmlns:xlink="http://www.w3.org/1999/xlink" width="70" height="70" viewBox="0 0 70 70"><defs><clipPath id="clip-path"><rect id="Rect&#xE1;ngulo_3997" data-name="Rect&#xE1;ngulo 3997" width="34.891" height="35" fill="#fff"></rect></clipPath></defs><g id="Grupo_1459" data-name="Grupo 1459" transform="translate(-802 -1004)"><circle id="Elipse_2" data-name="Elipse 2" cx="35" cy="35" r="35" transform="translate(802 1004)" fill="#3728ae"></circle><g id="Grupo_1353" data-name="Grupo 1353" transform="translate(819.555 1021.5)"><g id="Grupo_1352" data-name="Grupo 1352" clip-path="url(#clip-path)"><path id="Trazado_6447" data-name="Trazado 6447" d="M34.891,18.077a15.682,15.682,0,0,1-2.284,2.987c-1.328,1.63-2.7,3.222-4.039,4.846A5.935,5.935,0,0,1,23.8,28.15c-2.933.02-5.866.033-8.8-.01a2.975,2.975,0,0,0-2.289,1.207c-.05.053-.036.187-.021.279a2.085,2.085,0,0,1-.584,1.939Q10.524,33.137,8.931,34.7a.7.7,0,0,1-1.151,0q-3.75-3.774-7.5-7.552a.7.7,0,0,1-.007-1.127q1.56-1.575,3.129-3.141a2.133,2.133,0,0,1,1.663-.647.408.408,0,0,0,.314-.167c2.266-3.973,7.216-4.95,10.776-3.581a1.629,1.629,0,0,0,.563.095q3.495.009,6.991,0a3,3,0,0,1,2.529,1.09,1.07,1.07,0,0,1,.144-.309c1.263-1.309,2.534-2.61,3.8-3.916a2.724,2.724,0,0,1,4.645.91.375.375,0,0,0,.059.08ZM11.78,28.317c.12-.107.2-.168.269-.243a3.966,3.966,0,0,1,3.2-1.3c2.818.043,5.637.013,8.456.013a4.4,4.4,0,0,0,3.5-1.407c2.067-2.389,4.071-4.832,6.09-7.261a1.363,1.363,0,0,0-2.041-1.807q-2.18,2.232-4.347,4.476a.481.481,0,0,0-.144.316,2.783,2.783,0,0,1-2.938,2.954c-1.716-.026-3.432,0-5.149-.008a1.637,1.637,0,0,1-.437-.048.67.67,0,0,1,.075-1.3,2.592,2.592,0,0,1,.441-.024c1.682,0,3.365,0,5.047,0a2.783,2.783,0,0,0,.508-.036A1.35,1.35,0,0,0,25.367,21.1a1.387,1.387,0,0,0-1.534-1.151c-2.432,0-4.864,0-7.3,0a1.606,1.606,0,0,1-.6-.081,7.819,7.819,0,0,0-4.311-.487,6.812,6.812,0,0,0-5.006,3.293.346.346,0,0,0,.067.514q2.231,2.206,4.439,4.433c.223.223.432.461.655.7M8.533,33.349c.809-.852,1.666-1.761,2.53-2.662a.727.727,0,0,0,0-1.2q-1.4-1.4-2.794-2.794t-2.82-2.816c-.334-.332-.7-.385-.994-.1-.942.918-1.866,1.854-2.827,2.813l6.9,6.759" fill="#fff"></path><path id="Trazado_6448" data-name="Trazado 6448" d="M21.044,0c.421.087.848.151,1.263.263a7.5,7.5,0,1,1-2.856-.2A1.674,1.674,0,0,0,19.68,0ZM20.36,13.659A6.147,6.147,0,1,0,14.217,7.5a6.14,6.14,0,0,0,6.143,6.163" fill="#fff"></path><path id="Trazado_6449" data-name="Trazado 6449" d="M15.6,23.935a.7.7,0,0,1-.688-.7.684.684,0,0,1,.679-.663.666.666,0,0,1,.68.654.681.681,0,0,1-.671.7" fill="#fff"></path><path id="Trazado_6450" data-name="Trazado 6450" d="M20.233,12.288a.622.622,0,0,1-.675-.653.994.994,0,0,0-.667-1.171,1.841,1.841,0,0,1-.6-.548.65.65,0,0,1,.056-.921.673.673,0,0,1,.952.019,3.732,3.732,0,0,0,.519.434.677.677,0,0,0,.828-.041.63.63,0,0,0,.219-.733.7.7,0,0,0-.675-.481,2.04,2.04,0,0,1-1.979-1.655,2.064,2.064,0,0,1,1.152-2.254.415.415,0,0,0,.168-.278c.027-.2,0-.409.012-.612a.686.686,0,0,1,.69-.66.631.631,0,0,1,.653.647.984.984,0,0,0,.685,1.191,1.067,1.067,0,0,1,.362.3.655.655,0,0,1,.015.9.678.678,0,0,1-.9.118c-.161-.107-.3-.242-.472-.333a.659.659,0,0,0-.794.073.627.627,0,0,0-.2.736.677.677,0,0,0,.649.462,2.055,2.055,0,0,1,.836,3.923.372.372,0,0,0-.156.25c-.024.214,0,.432-.013.647a.66.66,0,0,1-.669.637" fill="#fff"></path></g></g></g></svg>