<svg xmlns="http://www.w3.org/2000/svg" xmlns:xlink="http://www.w3.org/1999/xlink" width="70" height="70" viewBox="0 0 70 70"><defs><clipPath id="clip-path"><rect id="Rect&#xE1;ngulo_499" data-name="Rect&#xE1;ngulo 499" width="43" height="30.544" fill="#fff"></rect></clipPath></defs><g id="Grupo_1447" data-name="Grupo 1447" transform="translate(-957 -1376)"><circle id="Elipse_16" data-name="Elipse 16" cx="35" cy="35" r="35" transform="translate(957 1376)" fill="#3728ae"></circle><g id="Grupo_1172" data-name="Grupo 1172" transform="translate(971 1396)"><g id="Grupo_341" data-name="Grupo 341" clip-path="url(#clip-path)"><path id="Trazado_356" data-name="Trazado 356" d="M0,13.161C.864,11.582,1.717,10,2.6,8.425,3.927,6.046,5.276,3.677,6.619,1.3A2.123,2.123,0,0,1,9.832.392q.882.485,1.761.975a2.15,2.15,0,0,1,1.14,2.89c.663.194,1.326.392,1.992.578a.29.29,0,0,0,.222-.075A5.276,5.276,0,0,1,18.067,3.69c1.391-.147,2.788-.238,4.18-.37a5.556,5.556,0,0,1,2.422.388c.96.343,1.916.7,2.887,1.012a1.93,1.93,0,0,0,.932.045c.6-.121,1.178-.317,1.648-.449a11.311,11.311,0,0,1,.012-1.433,1.817,1.817,0,0,1,.97-1.349c.753-.429,1.509-.854,2.274-1.26a2.077,2.077,0,0,1,2.865.815c.425.723.833,1.456,1.24,2.19a.845.845,0,1,1-1.456.832c-.4-.69-.783-1.388-1.18-2.079-.228-.4-.378-.44-.782-.22-.663.361-1.318.737-1.983,1.094a.469.469,0,0,0-.216.752q3.175,5.6,6.335,11.209a.49.49,0,0,0,.761.228q1.007-.561,2.019-1.115a.475.475,0,0,0,.2-.761c-.443-.761-.873-1.53-1.3-2.3a.849.849,0,1,1,1.45-.838c.46.8.922,1.6,1.365,2.408a2.073,2.073,0,0,1-.835,2.92c-.655.375-1.319.735-1.98,1.1a2.138,2.138,0,0,1-3.169-.873c-.035-.06-.072-.118-.128-.209a3.538,3.538,0,0,0-1.437,1.033.3.3,0,0,0,0,.288,2.847,2.847,0,0,1-1.872,4.492c-.012,0-.021.018-.029.025-.19,1.889-.756,2.594-2.506,3.088a2.862,2.862,0,0,1-3.729,2.962,2.881,2.881,0,0,1-2.46,2.229c-1.307.189-2.175-.624-3.06-1.365-.776.62-1.508,1.249-2.285,1.815a2.811,2.811,0,0,1-4.38-1.523,1.954,1.954,0,0,0-1.09-1.362,2.742,2.742,0,0,1-1.486-2.417c0-.11,0-.221,0-.323-1.824-.6-2.434-1.355-2.5-3.105-.109-.034-.225-.073-.343-.105a2.8,2.8,0,0,1-1.648-4.275c.173-.264.148-.424-.073-.593-.4-.309-.815-.611-1.246-.932-.144.235-.235.39-.333.541a2.069,2.069,0,0,1-2.686.771c-.836-.42-1.646-.895-2.461-1.356A2.447,2.447,0,0,1,0,14v-.84m11.857-7.4L7.285,13.851l2.04,1.6c.713-.568,1.454-1.187,2.225-1.767a2.809,2.809,0,0,1,4.359,1.271c.039.1.079.2.129.332a2.781,2.781,0,0,1,3.267.855,2.819,2.819,0,0,1,.139,3.423,2.856,2.856,0,0,1,1.5,1.836,2.958,2.958,0,0,1-.414,2.362,2.513,2.513,0,0,1,1.506,1.948,1.919,1.919,0,0,0,.992,1.553c.15.1.283.229.428.337a1.164,1.164,0,0,0,1.651-.133,1.14,1.14,0,0,0-.214-1.638c-.361-.309-.753-.583-1.1-.9a1.207,1.207,0,0,1-.351-.546.742.742,0,0,1,.37-.862.807.807,0,0,1,.978.073c.78.615,1.55,1.243,2.33,1.857a1.148,1.148,0,1,0,1.416-1.794c-.685-.555-1.375-1.1-2.064-1.651-.615-.49-.748-.932-.412-1.374s.835-.435,1.459.061c.723.574,1.442,1.153,2.168,1.724a1.1,1.1,0,0,0,1.184.148,1.07,1.07,0,0,0,.664-.946A1.2,1.2,0,0,0,31,20.538c-.7-.554-1.405-1.11-2.1-1.679a.831.831,0,0,1,.656-1.487,1.5,1.5,0,0,1,.507.279c.695.542,1.376,1.1,2.071,1.644a1.155,1.155,0,0,0,1.332.11,1.02,1.02,0,0,0,.521-1.138,1.837,1.837,0,0,0-.559-.842c-1.516-1.239-3.042-2.467-4.6-3.656-1.377-1.052-2.792-2.057-4.2-3.067a5.045,5.045,0,0,0-4.017-.9c-.425.08-.854.146-1.285.191-2.37.247-4.546-.855-4.991-3.343A.388.388,0,0,0,14.1,6.42c-.732-.227-1.47-.436-2.245-.661m19.292.019c-.759.213-1.484.412-2.207.621a3.021,3.021,0,0,1-1.97-.091c-1.019-.384-2.045-.753-3.083-1.082A3.992,3.992,0,0,0,22.5,5c-1.465.084-2.929.215-4.388.378a9.8,9.8,0,0,0-1.7.407.552.552,0,0,0-.368.769A2.226,2.226,0,0,0,17.62,8.2a4.243,4.243,0,0,0,2.2.044,7.128,7.128,0,0,1,6.106,1.3c1.468,1.1,2.956,2.164,4.415,3.272,1.145.869,2.258,1.778,3.332,2.627l2.043-1.586L31.15,5.778M4.385,15.249a2.165,2.165,0,0,0,.4-.406Q7.952,9.267,11.1,3.681c.228-.4.187-.556-.209-.78q-.985-.556-1.98-1.1c-.4-.215-.55-.169-.778.234Q4.974,7.621,1.821,13.2c-.233.413-.186.562.241.8q.95.533,1.906,1.057c.108.06.226.1.417.186m8.261,7.485a4.975,4.975,0,0,0,.789-.422q2.16-1.7,4.3-3.424a1.17,1.17,0,0,0,.281-1.694,1.153,1.153,0,0,0-1.713-.086c-.791.622-1.573,1.256-2.359,1.884-.688.55-1.384,1.09-2.061,1.653a1.122,1.122,0,0,0-.349,1.288,1.329,1.329,0,0,0,1.116.8m2.529,3.036a1.587,1.587,0,0,0,.512-.2c1.123-.876,2.243-1.756,3.334-2.67a1.1,1.1,0,0,0,.1-1.487,1.071,1.071,0,0,0-1.46-.28c-1.159.874-2.293,1.782-3.407,2.712a1,1,0,0,0-.221,1.235,1.167,1.167,0,0,0,1.139.686m-4.953-6.2a1.461,1.461,0,0,0,.5-.185c1.123-.874,2.244-1.753,3.335-2.667a1.124,1.124,0,0,0-1.385-1.756q-1.714,1.307-3.367,2.694a1,1,0,0,0-.23,1.232,1.138,1.138,0,0,0,1.147.682m7.415,9.306a1.48,1.48,0,0,0,.475-.17c.689-.525,1.379-1.051,2.028-1.624a1.121,1.121,0,0,0-1.382-1.738c-.7.5-1.377,1.053-2.032,1.619a1.05,1.05,0,0,0-.2,1.241,1.182,1.182,0,0,0,1.114.673" transform="translate(0 0)" fill="#fff"></path><path id="Trazado_357" data-name="Trazado 357" d="M337.372,56.538a.813.813,0,0,1,.83-.817.825.825,0,0,1,.834.82.84.84,0,0,1-.858.845.826.826,0,0,1-.806-.847" transform="translate(-299.521 -49.469)" fill="#fff"></path></g></g></g></svg>