<svg xmlns="http://www.w3.org/2000/svg" xmlns:xlink="http://www.w3.org/1999/xlink" width="70" height="70" viewBox="0 0 70 70"><defs><clipPath id="clip-path"><rect id="Rect&#xE1;ngulo_20" data-name="Rect&#xE1;ngulo 20" width="38.887" height="40" fill="#fff"></rect></clipPath></defs><g id="Grupo_1457" data-name="Grupo 1457" transform="translate(-184 -1004)"><circle id="Elipse_1" data-name="Elipse 1" cx="35" cy="35" r="35" transform="translate(184 1004)" fill="#3728ae"></circle><g id="Grupo_1260" data-name="Grupo 1260" transform="translate(200 1019)"><g id="Grupo_13" data-name="Grupo 13" clip-path="url(#clip-path)"><path id="Trazado_28" data-name="Trazado 28" d="M181.5,0a.985.985,0,0,1,.359.884c-.014,1.129,0,2.258-.007,3.387a1.8,1.8,0,0,1-.034.425.488.488,0,0,1-.568.416,1.126,1.126,0,0,1-.53-.424c-.073-.091-.04-.275-.041-.417,0-1.129.007-2.258-.006-3.387A.98.98,0,0,1,181.035,0Z" transform="translate(-161.826)" fill="#fff"></path><path id="Trazado_29" data-name="Trazado 29" d="M86.957,85.058c1.575,0,3.15-.007,4.725.007.292,0,.43-.055.5-.371a5.961,5.961,0,0,1,1.652-2.828A13.431,13.431,0,0,0,96.3,78.473a10.637,10.637,0,0,0-7.151-14.918A10.415,10.415,0,0,0,77.61,69.074c-.041.081-.075.166-.119.246a.588.588,0,1,1-1.053-.514,10.687,10.687,0,0,1,1.925-2.874,11.529,11.529,0,0,1,19.665,4.78,11.515,11.515,0,0,1-2.846,11.42A18.374,18.374,0,0,0,93.91,83.66a3.589,3.589,0,0,0-.693,2.232c.019,1.132,0,2.265.013,3.4a3.014,3.014,0,0,1-1.3,2.613c-.255.184-.189.406-.186.623a2.82,2.82,0,0,1-1.453,2.667,3.228,3.228,0,0,1-1.4.406c-1.247.056-2.5.035-3.748.015a2.889,2.889,0,0,1-2.852-2.875,1.22,1.22,0,0,0-.486-1.078,2.771,2.771,0,0,1-1.011-2.2c-.018-1.106-.053-2.213-.038-3.318a3.957,3.957,0,0,0-.968-2.691c-.562-.666-1.182-1.283-1.735-1.955A11.742,11.742,0,0,1,75.5,71.711a.583.583,0,0,1,.706-.551c.355.066.525.362.442.819a10.749,10.749,0,0,0,2.95,9.5,17.494,17.494,0,0,1,1.619,1.993,4.188,4.188,0,0,1,.532,1.246c.085.289.213.35.485.348,1.575-.011,3.15-.005,4.725-.005m-4.99,3.134H87.6c.117,0,.235,0,.351,0a.533.533,0,0,1,.535.518.55.55,0,0,1-.461.627,1.572,1.572,0,0,1-.388.021H81.986A1.852,1.852,0,0,0,83.771,91.3q3.239.051,6.48,0A1.786,1.786,0,0,0,92,89.362c-.4,0-.8,0-1.2,0-.461-.005-.719-.216-.723-.583s.246-.582.709-.586c.412,0,.824,0,1.235,0V86.255H81.985c-.007.08-.017.142-.017.2,0,.558,0,1.117,0,1.732m1.5,4.307a1.734,1.734,0,0,0,1.6,1.933q1.93.06,3.864,0A1.656,1.656,0,0,0,90.509,92.5Z" transform="translate(-67.45 -55.634)" fill="#fff"></path><path id="Trazado_30" data-name="Trazado 30" d="M131.321,144.858l1.868-2.4c.623-.8,1.241-1.605,1.868-2.4a1.878,1.878,0,1,1,2.961,2.3q-.507.669-1.029,1.325c-.287.36-.618.423-.905.187s-.287-.55-.023-.9c.33-.435.671-.862,1-1.3a.727.727,0,0,0-.046-1.1c-.352-.265-.738-.183-1.073.247q-1.978,2.54-3.948,5.085c-.466.6-.756.615-1.275.045-.788-.866-1.559-1.748-2.367-2.6a1.042,1.042,0,0,0-.7-.32.674.674,0,0,0-.424,1.144q1.813,2.044,3.662,4.055a.7.7,0,0,0,1.164-.115c.682-.87,1.357-1.746,2.035-2.619.072-.093.139-.19.218-.276a.594.594,0,0,1,.806-.108.55.55,0,0,1,.128.794c-.829,1.084-1.64,2.186-2.531,3.219a1.787,1.787,0,0,1-2.565.012q-1.974-2.108-3.873-4.285a1.83,1.83,0,0,1,.243-2.562,1.861,1.861,0,0,1,2.6.142c.581.614,1.137,1.252,1.7,1.879.148.163.3.326.493.54" transform="translate(-112.729 -124.722)" fill="#fff"></path><path id="Trazado_31" data-name="Trazado 31" d="M2.536,181.979c-.61,0-1.221.006-1.831,0-.453-.006-.714-.239-.7-.6s.26-.562.7-.564q1.87-.008,3.739,0c.424,0,.687.233.688.576s-.261.582-.682.589c-.636.01-1.272,0-1.909,0" transform="translate(0 -161.943)" fill="#fff"></path><path id="Trazado_32" data-name="Trazado 32" d="M326.113,181.98c-.6,0-1.195,0-1.792,0-.46,0-.728-.221-.737-.574s.267-.592.751-.593c1.246,0,2.493-.006,3.739,0a.573.573,0,0,1,.636.584.591.591,0,0,1-.611.578c-.09.008-.182,0-.273,0h-1.714" transform="translate(-289.824 -161.944)" fill="#fff"></path><path id="Trazado_33" data-name="Trazado 33" d="M57.008,282.311a2.749,2.749,0,0,1-.3.509q-1.324,1.347-2.669,2.673a.59.59,0,1,1-.823-.826c.887-.894,1.78-1.781,2.668-2.674a.559.559,0,0,1,.7-.162,2.083,2.083,0,0,1,.427.48" transform="translate(-47.445 -252.366)" fill="#fff"></path><path id="Trazado_34" data-name="Trazado 34" d="M53.454,52.242a3.059,3.059,0,0,1,.507.319q1.333,1.311,2.648,2.64a.6.6,0,0,1,.071.923.6.6,0,0,1-.893-.092c-.893-.888-1.781-1.781-2.673-2.67a.549.549,0,0,1-.145-.7,2.1,2.1,0,0,1,.486-.416" transform="translate(-47.375 -46.791)" fill="#fff"></path><path id="Trazado_35" data-name="Trazado 35" d="M285.2,52.176c.181.163.427.281.463.445a.855.855,0,0,1-.149.662c-.453.516-.96.984-1.447,1.471-.4.4-.806.81-1.213,1.211-.325.319-.666.345-.921.081a.6.6,0,0,1,.081-.894q1.317-1.326,2.648-2.64a3.194,3.194,0,0,1,.538-.336" transform="translate(-252.37 -46.732)" fill="#fff"></path><path id="Trazado_36" data-name="Trazado 36" d="M282.278,281.11a3,3,0,0,1,.5.316q1.332,1.311,2.646,2.641a.593.593,0,1,1-.825.827c-.893-.888-1.781-1.781-2.673-2.67a.547.547,0,0,1-.144-.7,2.06,2.06,0,0,1,.493-.41" transform="translate(-252.318 -251.781)" fill="#fff"></path></g></g></g></svg>