<svg xmlns="http://www.w3.org/2000/svg" xmlns:xlink="http://www.w3.org/1999/xlink" width="70" height="70" viewBox="0 0 70 70"><defs><clipPath id="clip-path"><rect id="Rect&#xE1;ngulo_3983" data-name="Rect&#xE1;ngulo 3983" width="40" height="24.99" transform="translate(0 0)" fill="#fff"></rect></clipPath></defs><g id="Grupo_1642" data-name="Grupo 1642" transform="translate(-494 -816)"><circle id="Elipse_2" data-name="Elipse 2" cx="35" cy="35" r="35" transform="translate(494 816)" fill="#3728ae"></circle><g id="Grupo_1331" data-name="Grupo 1331" transform="translate(509 839)"><g id="Grupo_1330" data-name="Grupo 1330" clip-path="url(#clip-path)"><path id="Trazado_6214" data-name="Trazado 6214" d="M34.6,7.939A3.014,3.014,0,0,0,31.837,7.5,6.667,6.667,0,0,0,29.016,9.18,12.788,12.788,0,0,1,24,12.119a6.273,6.273,0,0,1-2.721.272,3.386,3.386,0,0,1-2.943-3.326C18.181,6.6,20.112,5,22.649,5.494c.27.053.537.123.842.193a3.6,3.6,0,0,0-.827-1.933A6.335,6.335,0,0,0,17.6,1.369,7.76,7.76,0,0,0,11.4,4.41c-.854,1.015-1.6,2.127-2.369,3.208-.309.432-.579.894-.848,1.353A7.12,7.12,0,0,1,3.3,12.4c-.741.16-1.49.281-2.239.4-.483.077-.748-.111-.816-.535s.145-.643.637-.737c.888-.168,1.782-.314,2.658-.533A5.557,5.557,0,0,0,6.99,8.456C7.772,7.219,8.543,5.971,9.4,4.786A12.4,12.4,0,0,1,13.161,1.2a8.179,8.179,0,0,1,9.541.711,5.547,5.547,0,0,1,2.1,4.625c-.035.719-.407.9-1.074.64a5.911,5.911,0,0,0-1.827-.495,1.992,1.992,0,0,0-2.1,2.751,2.133,2.133,0,0,0,2.3,1.693,7.354,7.354,0,0,0,3.134-.846,12.5,12.5,0,0,0,2.99-2.043,8.114,8.114,0,0,1,3.756-2.1,4.251,4.251,0,0,1,4.361,1.513c.5.588.315,1.07-.451,1.22a2.065,2.065,0,0,0-1.653,1.345,1.383,1.383,0,0,0,.814,1.8,3.754,3.754,0,0,0,2.619.034c.457-.139.9-.322,1.352-.483.434-.156.769-.046.913.3.151.359-.014.688-.449.876a7.268,7.268,0,0,1-3.885.859,3.981,3.981,0,0,1-1.675-.559,2.739,2.739,0,0,1-.148-4.5c.239-.21.51-.382.806-.6" fill="#fff"></path><path id="Trazado_6215" data-name="Trazado 6215" d="M35.346,17.293a9.718,9.718,0,0,1-4.768-1.322.541.541,0,0,0-.452,0,9.932,9.932,0,0,1-9.956.006.6.6,0,0,0-.487.006,10.011,10.011,0,0,1-9.962,0,.471.471,0,0,0-.536-.016,10.1,10.1,0,0,1-8.629.665.677.677,0,0,1-.527-.816.814.814,0,0,1,.993-.442,19.265,19.265,0,0,0,2.319.559,8.117,8.117,0,0,0,5.668-1.323.765.765,0,0,1,.978-.01,8.76,8.76,0,0,0,9.4.088c.605-.4.605-.388,1.236.024a8.414,8.414,0,0,0,5.42,1.262,7.884,7.884,0,0,0,4.018-1.413.69.69,0,0,1,.878.024,8.567,8.567,0,0,0,7.414,1.028c.2-.057.4-.156.6-.227a.645.645,0,1,1,.454,1.2,11.9,11.9,0,0,1-4.06.7" fill="#fff"></path><path id="Trazado_6216" data-name="Trazado 6216" d="M4.264,21.133a10.91,10.91,0,0,1-3.546-.6c-.592-.207-.825-.537-.673-.938s.517-.492,1.09-.291a8.652,8.652,0,0,0,7.147-.482,7.451,7.451,0,0,0,.711-.442.644.644,0,0,1,.778.005,8.577,8.577,0,0,0,9.7,0,.69.69,0,0,1,.811.009,8.567,8.567,0,0,0,9.662,0,.7.7,0,0,1,.845.011,8.517,8.517,0,0,0,7.967.848c.454-.164.774-.061.928.319.161.4.008.717-.475.889a9.965,9.965,0,0,1-8.514-.612.6.6,0,0,0-.676,0,9.8,9.8,0,0,1-9.728,0,.648.648,0,0,0-.713,0,9.915,9.915,0,0,1-9.773,0,.619.619,0,0,0-.713,0,9.592,9.592,0,0,1-4.825,1.271" fill="#fff"></path><path id="Trazado_6217" data-name="Trazado 6217" d="M35.578,24.971A9.711,9.711,0,0,1,30.6,23.642a.428.428,0,0,0-.5.006,9.823,9.823,0,0,1-9.905,0,.478.478,0,0,0-.536,0,9.947,9.947,0,0,1-9.951,0,.471.471,0,0,0-.536,0,10.105,10.105,0,0,1-8.628.652.674.674,0,0,1-.505-.862c.128-.367.506-.511.967-.344a8.731,8.731,0,0,0,6.616-.125,8.575,8.575,0,0,0,1.289-.713.736.736,0,0,1,.915-.006,8.7,8.7,0,0,0,9.563.018.746.746,0,0,1,.946,0,8.727,8.727,0,0,0,9.465.065c.527-.348.6-.345,1.1,0a8.143,8.143,0,0,0,5.558,1.3,14.189,14.189,0,0,0,2.314-.556c.434-.121.752-.035.9.326a.61.61,0,0,1-.418.877,10.147,10.147,0,0,1-3.681.692" fill="#fff"></path></g></g></g></svg>