<svg xmlns="http://www.w3.org/2000/svg" xmlns:xlink="http://www.w3.org/1999/xlink" width="70" height="70" viewBox="0 0 70 70"><defs><clipPath id="clip-path"><rect id="Rect&#xE1;ngulo_4002" data-name="Rect&#xE1;ngulo 4002" width="34.189" height="35" fill="#fff"></rect></clipPath></defs><g id="Grupo_1460" data-name="Grupo 1460" transform="translate(-1111 -1004)"><circle id="Elipse_2" data-name="Elipse 2" cx="35" cy="35" r="35" transform="translate(1111 1004)" fill="#3728ae"></circle><g id="Grupo_1361" data-name="Grupo 1361" transform="translate(1129 1021.5)"><g id="Grupo_1360" data-name="Grupo 1360" clip-path="url(#clip-path)"><path id="Trazado_6470" data-name="Trazado 6470" d="M26.041,35c-.6-.25-1.2-.468-1.779-.756a10.3,10.3,0,0,1-4.585-4.531.526.526,0,0,0-.549-.323q-8.25.012-16.5.005A2.411,2.411,0,0,1,0,26.757Q0,21.5,0,16.235a2.44,2.44,0,0,1,1.526-2.406A.429.429,0,0,0,1.7,13.5c.012-1.39,0-2.779.007-4.168A9.217,9.217,0,0,1,20.018,7.715a20.569,20.569,0,0,1,.139,2.689c.023,1.035.006,2.072,0,3.108,0,.153.006.26.19.339a2.36,2.36,0,0,1,1.521,2.363,2.023,2.023,0,0,0,.079.663,5.137,5.137,0,0,0,.54-.815,1.37,1.37,0,0,1,1.476-.893c1.639.038,3.28.019,4.92.008a1.14,1.14,0,0,1,1.141.7,3.383,3.383,0,0,0,3.135,2.044,1.01,1.01,0,0,1,1.007,1.037c0,2.107.05,4.215-.017,6.32a10.57,10.57,0,0,1-7.229,9.584c-.115.038-.224.094-.337.142Zm-6.22-17.109V16.317c0-.517-.072-.59-.589-.59H2.663c-.55,0-.611.06-.611.6V26.716c0,.573.056.629.618.629H18.719a18.071,18.071,0,0,1-.241-1.987c-.034-2.141-.025-4.282-.02-6.423a1.017,1.017,0,0,1,.988-1.021l.375-.024m12.36,4.838-.059,0c0-.865,0-1.73,0-2.6,0-.189-.043-.269-.247-.319a5.407,5.407,0,0,1-3.337-2.372.486.486,0,0,0-.337-.2q-1.9-.022-3.792,0a.451.451,0,0,0-.316.179,5.486,5.486,0,0,1-3.389,2.415.325.325,0,0,0-.194.238A54.419,54.419,0,0,0,20.6,25.8a8.14,8.14,0,0,0,5.509,7.013.622.622,0,0,0,.417,0,8.228,8.228,0,0,0,5.442-6.549,29.444,29.444,0,0,0,.212-3.536M5.811,13.664c0-1.457-.007-2.88.005-4.3A5.771,5.771,0,0,1,5.922,8.21a5.121,5.121,0,0,1,10.14,1.077c0,1.332,0,2.665,0,4v.37h2.048c0-1.513.014-3-.007-4.492a7.178,7.178,0,0,0-8.049-7.043A7.073,7.073,0,0,0,3.844,8.34c-.144,1.742-.059,3.5-.075,5.255,0,.019.021.038.038.069Zm8.192,0c0-1.583,0-3.129,0-4.676a2.3,2.3,0,0,0-.1-.535,3.07,3.07,0,0,0-6.04.75c-.014,1.421,0,2.844,0,4.266a1.525,1.525,0,0,0,.024.195Z" fill="#fff"></path><path id="Trazado_6471" data-name="Trazado 6471" d="M9.912,24.027c.127-.409-.095-.651-.542-.9a2.992,2.992,0,0,1-1.378-3.5,3.072,3.072,0,0,1,5.943.2,3.045,3.045,0,0,1-1.608,3.405.527.527,0,0,0-.372.607,5.016,5.016,0,0,1,0,.785,1.023,1.023,0,0,1-2.045,0c-.007-.171,0-.342,0-.6m1.037-2.492a1.024,1.024,0,1,0-1.037-1,1.038,1.038,0,0,0,1.037,1" fill="#fff"></path><path id="Trazado_6472" data-name="Trazado 6472" d="M25.363,25.558,28.3,22.624c.57-.571,1.19-.641,1.641-.187s.377,1.07-.195,1.642q-1.764,1.764-3.526,3.526a1.064,1.064,0,0,1-1.739,0q-.858-.857-1.714-1.715a1.041,1.041,0,0,1-.07-1.519,1.027,1.027,0,0,1,1.516.073c.366.358.728.721,1.092,1.081a.5.5,0,0,0,.062.038" fill="#fff"></path></g></g></g></svg>