<svg xmlns="http://www.w3.org/2000/svg" xmlns:xlink="http://www.w3.org/1999/xlink" width="70" height="70" viewBox="0 0 70 70"><defs><clipPath id="clip-path"><rect id="Rect&#xE1;ngulo_3491" data-name="Rect&#xE1;ngulo 3491" width="30.323" height="35" fill="#fff"></rect></clipPath></defs><g id="Grupo_1445" data-name="Grupo 1445" transform="translate(-340 -1376)"><circle id="Elipse_14" data-name="Elipse 14" cx="35" cy="35" r="35" transform="translate(340 1376)" fill="#3728ae"></circle><g id="Grupo_1174" data-name="Grupo 1174" transform="translate(360 1394)"><g id="Grupo_1173" data-name="Grupo 1173" clip-path="url(#clip-path)"><path id="Trazado_5856" data-name="Trazado 5856" d="M19.518,35c-.659-.313-1.32-.624-1.978-.939-.1-.049-.175-.078-.283.021a2.109,2.109,0,0,1-2.557.354q-2.806-1.4-5.61-2.805C6.833,30.5,4.582,29.359,2.315,28.249a2.213,2.213,0,0,1-1.324-2.3.3.3,0,0,0-.111-.241,1.455,1.455,0,0,1-.619-1.123,34.193,34.193,0,0,1-.115-5.7A10.312,10.312,0,0,1,1.28,14.774a.246.246,0,0,0-.025-.311C.893,13.984.538,13.5.184,13.014c-.3-.409-.238-.69.211-.931.558-.3,1.116-.6,1.687-.872a.7.7,0,0,1,.515-.035.627.627,0,0,1,.282.4.429.429,0,0,1-.261.47c-.36.192-.725.375-1.088.562l-.291.152c.317.43.606.869.943,1.267a.811.811,0,0,1,.058,1.1,5.569,5.569,0,0,0-.818,2.159,3.389,3.389,0,0,0,.116,1.232,9.247,9.247,0,0,0,1.508,3.189,30.107,30.107,0,0,0,5.822,6.1,25.632,25.632,0,0,0,5.392,3.508c1.666.783,3.306,1.622,4.936,2.476a1.208,1.208,0,0,0,1.266-.026,7.336,7.336,0,0,0,2.19-1.913,4.12,4.12,0,0,0,.4-.9c-.1-.046-.177-.08-.252-.11-2.323-.918-4.654-1.82-6.887-2.95a16.267,16.267,0,0,1-4.69-3.28,14.178,14.178,0,0,1-1.6-1.983,4.325,4.325,0,0,1-.463-4.149,2.712,2.712,0,0,1,3-1.7,24.979,24.979,0,0,1,2.721.725c1.573.467,3.137.959,4.706,1.441.062.019.126.035.28.077-.22-.467-.389-.886-.608-1.277a11.472,11.472,0,0,0-3.055-3.436,19.866,19.866,0,0,0-8.473-3.736,3.205,3.205,0,0,0-1.08.127c-.287.048-.568.131-.854.187a.506.506,0,0,1-.636-.373.489.489,0,0,1,.408-.591c.85-.163,1.7-.335,2.558-.444a16.228,16.228,0,0,1,3.8-.011A14.136,14.136,0,0,1,21.292,14a12.027,12.027,0,0,1,2.624,5.081,23.76,23.76,0,0,1,.764,4.982,23.571,23.571,0,0,1-.268,5.262,24,24,0,0,1-.713,2.725,2.027,2.027,0,0,1-.464.675,8.182,8.182,0,0,1-2.273,1.9,9.574,9.574,0,0,1-.943.381ZM15.271,18.669a1.764,1.764,0,0,0-.044.174q-.5,3.385-.99,6.774a.287.287,0,0,0,.114.229c.534.323,1.068.65,1.619.941a71.042,71.042,0,0,0,7.237,3.133.479.479,0,0,0,.116,0c.088-.667.19-1.332.261-2a24.893,24.893,0,0,0-.191-6.554.3.3,0,0,0-.248-.283c-1.179-.356-2.355-.721-3.532-1.082l-4.342-1.333m-1.977,6.439c.155-1.043.305-2.045.453-3.049Q14,20.33,14.256,18.6c.017-.12.053-.235-.135-.286-.569-.155-1.129-.352-1.7-.5a1.87,1.87,0,0,0-2.33,1.043,3.106,3.106,0,0,0-.144,2.007,4.44,4.44,0,0,0,.851,1.707,13.025,13.025,0,0,0,2.5,2.536m-2.165-14.7a.589.589,0,0,0,.08.068l.257.1a17.933,17.933,0,0,1,7.462,4.948,8.645,8.645,0,0,1,1.916,3.415.694.694,0,0,0,.563.579c.568.142,1.124.335,1.747.525-.206-.668-.378-1.284-.584-1.888a10.231,10.231,0,0,0-2.3-3.8,12.626,12.626,0,0,0-5.939-3.435,15.272,15.272,0,0,0-3.2-.514M7.179,27.744A25.67,25.67,0,0,1,1.085,20.29c-.007.138-.017.209-.013.28q.09,1.948.182,3.9a.572.572,0,0,0,.365.518Q4.3,26.317,6.983,27.663c.063.031.13.054.2.081M16.4,33.493,1.971,26.277a2.981,2.981,0,0,0,.071.357,1.186,1.186,0,0,0,.657.681q6.213,3.1,12.423,6.209a1.806,1.806,0,0,0,.37.147,1.034,1.034,0,0,0,.908-.178" fill="#fff"></path><path id="Trazado_5857" data-name="Trazado 5857" d="M19.762,33.3a.84.84,0,0,1-.174-.049c-.612-.3-1.231-.592-1.826-.924a.621.621,0,0,1-.269-.458.662.662,0,0,1,.284-.419.434.434,0,0,1,.375-.011q.96.451,1.9.944a.459.459,0,0,1,.222.577.489.489,0,0,1-.512.34" fill="#fff"></path><path id="Trazado_5858" data-name="Trazado 5858" d="M5.874,13.444a.477.477,0,0,1-.305.466.433.433,0,0,1-.528-.1c-.289-.366-.568-.74-.826-1.129a.483.483,0,0,1,.724-.606c.322.39.61.808.906,1.22.03.042.022.112.029.153" fill="#fff"></path><path id="Trazado_5859" data-name="Trazado 5859" d="M2.82,12.57c.159.088.3.124.378.217.281.348.552.706.8,1.078a.491.491,0,0,1-.806.557c-.256-.327-.5-.665-.739-1a.436.436,0,0,1-.029-.536,1.993,1.993,0,0,1,.4-.314" fill="#fff"></path><path id="Trazado_5860" data-name="Trazado 5860" d="M17.173,31.243a.49.49,0,0,1-.479.5.525.525,0,0,1-.52-.5.511.511,0,0,1,.486-.5.5.5,0,0,1,.513.5" fill="#fff"></path><path id="Trazado_5861" data-name="Trazado 5861" d="M3.665,10.555a.488.488,0,0,1,.494.487.5.5,0,1,1-1,0,.509.509,0,0,1,.5-.486" fill="#fff"></path><path id="Trazado_5862" data-name="Trazado 5862" d="M28.006,8.278l-4.755-.087c-.8-.014-.975-.188-1-.992-.049-1.417-.1-2.834-.228-4.3-.264.37-.531.739-.791,1.113-.392.564-.777,1.134-1.168,1.7a.712.712,0,0,1-1.135.2c-1-.721-1.993-1.447-2.99-2.169-.054-.039-.11-.074-.233-.157.042.723.078,1.373.117,2.025.046.758.1,1.517.14,2.274.031.546-.2.869-.634.9s-.706-.266-.74-.809c-.116-1.874-.227-3.747-.346-5.622a.748.748,0,0,1,.351-.81.763.763,0,0,1,.871.146C16.636,2.56,17.82,3.414,19,4.273c.068.05.142.09.258.164.465-.666.924-1.315,1.378-1.971Q21.359,1.425,22.073.38a.705.705,0,0,1,.8-.355.7.7,0,0,1,.52.746q.1,2.772.2,5.543c0,.155.016.311.026.493.173.009.328.02.483.023q2.645.048,5.288.094c.374.006.726.034.883.451.147.389-.059.649-.318.9-.967.957-1.927,1.923-2.89,2.887l-.328.327c.945.57,1.846,1.125,2.758,1.66a.738.738,0,0,1,.454.753c-.042.365-.29.529-.625.616-1.455.378-2.908.769-4.363,1.146-.5.131-.854-.04-.966-.445s.113-.747.637-.888c.924-.248,1.851-.49,2.873-.761L25.72,12.488c-.122-.075-.249-.141-.37-.217a.7.7,0,0,1-.15-1.181c.834-.849,1.68-1.686,2.521-2.527l.285-.285" fill="#fff"></path></g></g></g></svg>