<svg xmlns="http://www.w3.org/2000/svg" xmlns:xlink="http://www.w3.org/1999/xlink" width="70" height="70" viewBox="0 0 70 70"><defs><clipPath id="clip-path"><rect id="Rect&#xE1;ngulo_4001" data-name="Rect&#xE1;ngulo 4001" width="36.999" height="35" fill="#fff"></rect></clipPath></defs><g id="Grupo_1456" data-name="Grupo 1456" transform="translate(-1111 -824)"><circle id="Elipse_2" data-name="Elipse 2" cx="35" cy="35" r="35" transform="translate(1111 824)" fill="#3728ae"></circle><g id="Grupo_1359" data-name="Grupo 1359" transform="translate(1128 841)"><g id="Grupo_1358" data-name="Grupo 1358" clip-path="url(#clip-path)"><path id="Trazado_6464" data-name="Trazado 6464" d="M0,22.039a14.456,14.456,0,0,1,.538-1.71A4.942,4.942,0,0,1,2.7,18.076q2.85-1.63,5.69-3.284a1.659,1.659,0,0,0,.456-.395q4.6-5.849,9.19-11.709a2.275,2.275,0,0,1,2.223-1.041A2.173,2.173,0,0,1,21.879,2.8c.8,1.388,1.607,2.768,2.39,4.164a.558.558,0,0,0,.622.333c.744-.065,1.491-.092,2.235-.147a.862.862,0,0,1,.885.489q.639,1.133,1.3,2.251a.853.853,0,0,1-.039,1.008c-.42.617-.814,1.252-1.242,1.863a.525.525,0,0,0-.028.666c.749,1.263,1.49,2.53,2.2,3.813a2.165,2.165,0,0,1-1.574,3.245c-.936.165-1.867.355-2.8.537q-5.42,1.059-10.837,2.121c-.106.02-.209.05-.365.089l.775,1.352c.4.693.314,1.005-.38,1.407-.528.307-1.057.612-1.607.93.707,1.224,1.4,2.422,2.089,3.618a2.873,2.873,0,0,1,.228,2.7A2.744,2.744,0,0,1,13.5,34.966a2.766,2.766,0,0,1-2.683-1.074,4.859,4.859,0,0,1-.4-.6Q8.755,30.417,7.1,27.537c-.112-.2-.2-.265-.444-.185A5.045,5.045,0,0,1,.071,23.39,1.2,1.2,0,0,0,0,23.195V22.039m26.465-2.615L18.1,4.927c-.053.086-.078.14-.114.186q-3.9,4.976-7.81,9.944a.329.329,0,0,0-.013.443q1.785,3.075,3.554,6.159a.328.328,0,0,0,.427.184c2.559-.512,5.121-1.01,7.683-1.512l4.642-.907M8.885,16.183c-.647.373-1.262.725-1.874,1.081-1.33.773-2.684,1.51-3.982,2.333A3.528,3.528,0,0,0,1.623,23.66a3.609,3.609,0,0,0,5.286,2c1.79-1.011,3.563-2.051,5.343-3.079.079-.046.15-.1.236-.164l-3.6-6.236M20.022,3.057a.88.88,0,0,0-.842.558c-.059.118.038.349.122.5q1.648,2.882,3.315,5.754,2.59,4.487,5.177,8.973c.1.177.177.3.436.253.8-.131,1.036-.592.626-1.3q-2.66-4.613-5.322-9.223Q22.1,6.079,20.667,3.593c-.171-.3-.372-.535-.645-.536M8.215,26.584c1.217,2.108,2.4,4.171,3.6,6.23A1.445,1.445,0,1,0,14.3,31.346c-.621-1.085-1.249-2.166-1.874-3.249l-1.71-2.958-2.5,1.445m18.8-14.892c.294-.444.565-.838.814-1.246a.351.351,0,0,0-.033-.284c-.249-.453-.509-.9-.773-1.343-.046-.077-.128-.19-.19-.188-.495.014-.989.053-1.536.087.589,1.021,1.139,1.972,1.718,2.974M12.695,25.666l1.248-.725-.722-1.249-1.248.725.722,1.249" fill="#fff"></path><path id="Trazado_6465" data-name="Trazado 6465" d="M32.142,6.813c-.186-.175-.454-.316-.521-.522a1.61,1.61,0,0,1,.108-.733c.011-.048.08-.091.131-.12,1.373-.766,2.739-1.546,4.125-2.287a.69.69,0,0,1,1.006.541.732.732,0,0,1-.429.765c-.354.2-.713.4-1.069.6-.892.5-1.781,1-2.677,1.487a6.953,6.953,0,0,1-.674.273" fill="#fff"></path><path id="Trazado_6466" data-name="Trazado 6466" d="M32.668,9.894c.064.015.205.042.343.079.8.213,1.6.423,2.4.646A.723.723,0,1,1,35.035,12c-.871-.223-1.741-.451-2.607-.694a.718.718,0,1,1,.24-1.416" fill="#fff"></path><path id="Trazado_6467" data-name="Trazado 6467" d="M29.9.841c-.047.179-.112.434-.18.689-.184.695-.36,1.393-.559,2.084a.72.72,0,1,1-1.392-.348c.224-.907.469-1.811.725-2.71a.713.713,0,0,1,.819-.544A.75.75,0,0,1,29.9.841" fill="#fff"></path><path id="Trazado_6468" data-name="Trazado 6468" d="M5.2,24.732a2.226,2.226,0,0,1-1.947-1,.715.715,0,1,1,1.135-.868c.45.5.667.529,1.251.194.323-.185.641-.381.97-.556a.736.736,0,0,1,1.043.227.723.723,0,0,1-.319,1.016,15.188,15.188,0,0,1-1.355.752,4.316,4.316,0,0,1-.778.23" fill="#fff"></path><path id="Trazado_6469" data-name="Trazado 6469" d="M10.253,21.637a.715.715,0,1,1-.724-.694.712.712,0,0,1,.724.694" fill="#fff"></path></g></g></g></svg>