<svg xmlns="http://www.w3.org/2000/svg" xmlns:xlink="http://www.w3.org/1999/xlink" width="70" height="70" viewBox="0 0 70 70"><defs><clipPath id="clip-path"><rect id="Rect&#xE1;ngulo_1808" data-name="Rect&#xE1;ngulo 1808" width="30" height="37.085" fill="#fff"></rect></clipPath></defs><g id="Grupo_1451" data-name="Grupo 1451" transform="translate(-892 -824)"><circle id="Elipse_12" data-name="Elipse 12" cx="35" cy="35" r="35" transform="translate(892 824)" fill="#3728ae"></circle><g id="Grupo_1289" data-name="Grupo 1289" transform="translate(911.5 839.959)"><g id="Grupo_519" data-name="Grupo 519" clip-path="url(#clip-path)"><path id="Trazado_2318" data-name="Trazado 2318" d="M15.8,0c.34.069.68.134,1.018.21A8.117,8.117,0,0,1,23.11,7.948c.007.492,0,.983,0,1.526.277,0,.516-.013.753,0a1.774,1.774,0,0,1,1.651,1.632c.018.239.014.482.013.724a2.611,2.611,0,0,1-2.33,2.793.662.662,0,0,0-.573.478,9.737,9.737,0,0,1-3.057,4.055.7.7,0,0,0-.313.665,6.681,6.681,0,0,1,0,.977c-.016.257.061.366.33.441,1.739.486,3.489.946,5.2,1.522a9.173,9.173,0,0,1,3.963,2.443A4.6,4.6,0,0,1,30,28.43c-.008,1.835,0,3.669,0,5.5a3.025,3.025,0,0,1-3.145,3.149q-5.558.006-11.116,0a3,3,0,0,1-3.042-2.247c-.084-.28-.254-.237-.439-.237H1.647c-.18,0-.362,0-.541-.021a1.032,1.032,0,0,1-1.09-1.17C0,32.078-.008,30.75.014,29.423A17.587,17.587,0,0,1,.17,27.194a3.816,3.816,0,0,1,.439-1.1.519.519,0,0,1,.761-.246.524.524,0,0,1,.183.754,4.119,4.119,0,0,0-.464,2.128c.017,1.567.005,3.136.005,4.745.156.013.294.035.431.035q5.377,0,10.754.005c.232,0,.352-.038.429-.3a3.027,3.027,0,0,1,2.151-2.11,2.258,2.258,0,0,0-.182-.211q-3.935-3.611-7.867-7.223a.505.505,0,0,0-.637-.118c-.885.409-1.776.8-2.657,1.216-.357.168-.655.141-.826-.131-.182-.288-.082-.593.281-.812a19.1,19.1,0,0,1,4.966-1.941c.837-.225,1.675-.45,2.519-.652.243-.057.273-.173.3-.393a2.237,2.237,0,0,0-.924-2.249A8.406,8.406,0,0,1,7.3,14.943a.589.589,0,0,0-.317-.268,10.435,10.435,0,0,1-1.309-.493A2.273,2.273,0,0,1,4.485,12.16c-.007-.3-.012-.6,0-.9A1.783,1.783,0,0,1,6.25,9.468c.2-.008.4,0,.643,0,0-.464,0-.883,0-1.3a8.11,8.11,0,0,1,6.4-7.981C13.6.115,13.9.06,14.206,0ZM7.756,23.044c.076.085.111.131.154.171q6.9,6.326,13.8,12.644a.566.566,0,0,0,.349.132c1.654.008,3.307.016,4.96,0a1.874,1.874,0,0,0,1.824-1.479,8.737,8.737,0,0,0,.073-1.006.426.426,0,0,0-.255-.456q-2.317-1.376-4.622-2.773a1.634,1.634,0,0,1-.325-.226.489.489,0,0,1-.07-.66.5.5,0,0,1,.628-.215,1.686,1.686,0,0,1,.287.15q1.971,1.181,3.938,2.364c.12.072.243.139.414.236,0-1.229,0-2.4,0-3.562a3.085,3.085,0,0,0-.724-2.111,8.1,8.1,0,0,0-1.464-1.328,14.5,14.5,0,0,0-4.242-1.8.488.488,0,0,0-.392.139,7.382,7.382,0,0,1-2.949,1.843c-.326.112-.661.2-1.045.314.144.094.239.161.339.22q1.5.906,3.006,1.809c.2.119.4.23.586.359a.534.534,0,0,1,.19.727.544.544,0,0,1-.723.207c-.109-.051-.209-.12-.313-.181Q16.1,25.509,11.011,22.458a.645.645,0,0,0-.391-.137c-.944.223-1.883.472-2.864.723M7.98,11.566l-.049,0a13.021,13.021,0,0,0,.178,2.191,8.442,8.442,0,0,0,4.5,5.511,4.609,4.609,0,0,0,3.526.5,7.348,7.348,0,0,0,2.59-1.329,7.728,7.728,0,0,0,3.154-4.7,18.834,18.834,0,0,0,.077-3.928A1.47,1.47,0,0,0,20.6,8.421a2.249,2.249,0,0,0-1.45.149c-.3.148-.606.3-.912.437a7.392,7.392,0,0,1-6.467,0c-.394-.181-.778-.392-1.185-.535A1.864,1.864,0,0,0,7.981,10.3c0,.422,0,.844,0,1.267M22,7.857a6.994,6.994,0,0,0-13.98-.035c.263-.119.517-.257.786-.351a3.49,3.49,0,0,1,2.895.292,6.893,6.893,0,0,0,2.77.872,7.125,7.125,0,0,0,3.893-.882,4.414,4.414,0,0,1,1.29-.435A3.347,3.347,0,0,1,22,7.857M11.813,20.073c0,.51.025.92-.011,1.323-.016.184.006.274.165.369,1.5.894,3,1.8,4.5,2.695a.506.506,0,0,0,.3.082,7.873,7.873,0,0,0,4.025-1.557c.081-.066.174-.115.324-.214-.175-.06-.229-.084-.284-.1-.6-.152-1.194-.289-1.785-.454a1.041,1.041,0,0,1-.869-1.123c-.005-.309,0-.618,0-1.006a5.993,5.993,0,0,1-6.362-.018M20.17,35.992a.5.5,0,0,0-.05-.1q-2-1.836-4-3.665a.479.479,0,0,0-.25-.119,1.971,1.971,0,0,0-2.179,1.711,1.907,1.907,0,0,0,1.781,2.168c1.553.039,3.11.01,4.7.01m2.94-25.434v2.96a1.481,1.481,0,0,0,1.312-1.244,7.669,7.669,0,0,0,.007-1.047.68.68,0,0,0-.675-.668c-.2-.015-.4,0-.644,0M6.9,13.518V10.6c-.874-.153-1.412.042-1.33,1.065.006.084,0,.168,0,.252A1.482,1.482,0,0,0,6.9,13.518" transform="translate(0)" fill="#fff"></path></g></g></g></svg>