<svg xmlns="http://www.w3.org/2000/svg" xmlns:xlink="http://www.w3.org/1999/xlink" width="70" height="70" viewBox="0 0 70 70"><defs><clipPath id="clip-path"><rect id="Rect&#xE1;ngulo_496" data-name="Rect&#xE1;ngulo 496" width="29.85" height="37" fill="#fff"></rect></clipPath></defs><g id="Grupo_1443" data-name="Grupo 1443" transform="translate(-649 -1196)"><circle id="Elipse_2" data-name="Elipse 2" cx="35" cy="35" r="35" transform="translate(649 1196)" fill="#3728ae"></circle><g id="Grupo_336" data-name="Grupo 336" transform="translate(669 1213)"><g id="Grupo_335" data-name="Grupo 335" clip-path="url(#clip-path)"><path id="Trazado_346" data-name="Trazado 346" d="M23.877,12.522a3.017,3.017,0,0,1,2.981,2.946,2.972,2.972,0,0,1-2.9,3.027.411.411,0,0,0-.476.36,9.837,9.837,0,0,1-3.088,4.824c-.1.085-.2.172-.346.3a10.945,10.945,0,0,1,3.324,1,11.207,11.207,0,0,1,6.468,10.088c.019.422.011.845,0,1.268a.6.6,0,0,1-.649.654c-.087,0-.174,0-.261,0h-28c-.763,0-.9-.152-.92-.912A11.738,11.738,0,0,1,1.244,30.1a11.221,11.221,0,0,1,8.317-6.072l.235-.041c-.126-.118-.21-.2-.3-.277a9.948,9.948,0,0,1-3.145-4.916c-.044-.156-.06-.3-.295-.294A2.972,2.972,0,0,1,3,15.589a3.021,3.021,0,0,1,2.978-3.067c0-.383.011-.775-.01-1.165,0-.077-.119-.171-.2-.218A1.783,1.783,0,0,1,4.787,9.5c-.005-.373-.008-.746,0-1.119A1.818,1.818,0,0,1,5.824,6.736a.722.722,0,0,0,.326-.384A8.628,8.628,0,0,1,14.513,0a9.857,9.857,0,0,1,4.672.881A8.471,8.471,0,0,1,23.68,6.309a.63.63,0,0,0,.368.457,1.716,1.716,0,0,1,1.021,1.605c.011.385.009.771,0,1.156a1.818,1.818,0,0,1-.963,1.615.524.524,0,0,0-.218.355c-.03.331-.01.667-.01,1.026m-.009,23.257H28.63A10.075,10.075,0,0,0,19.072,25.14C18.375,27.4,17,28.6,15.051,28.645a4.121,4.121,0,0,1-2.523-.761A4.19,4.19,0,0,1,10.8,25.13,10.04,10.04,0,0,0,1.26,35.788H5.983V31.657h1.2v4.127H22.7V31.648h1.172ZM22.494,6.56c-.009-.068-.011-.1-.019-.139-.015-.06-.031-.12-.051-.179a7.357,7.357,0,0,0-3.885-4.35A9.02,9.02,0,0,0,14.359,1.2,7.414,7.414,0,0,0,7.595,5.809c-.1.238-.171.484-.265.751ZM7.886,19.4l-.083.064c.3.532.577,1.082.911,1.593a10.858,10.858,0,0,0,3.963,3.432,4.432,4.432,0,0,0,4.367.068A10.76,10.76,0,0,0,20.965,21.3c.408-.579.736-1.215,1.1-1.825-.122-.046-.157-.039-.183-.021a4.991,4.991,0,0,1-6.212-.561.912.912,0,0,0-1.484,0,5.2,5.2,0,0,1-3.48,1.4A4.606,4.606,0,0,1,7.886,19.4m-.714-5.653c0,.709.048,1.394-.012,2.069a2.534,2.534,0,0,0,.872,2.146,3.789,3.789,0,0,0,5.275.112,2.136,2.136,0,0,1,3.259.009,3.907,3.907,0,0,0,3.28.961,5,5,0,0,0,2.729-1.885.267.267,0,0,0,.053-.173c0-1.075,0-2.15,0-3.24Zm7.756-3.594h5.929c.783,0,1.566.005,2.349,0a.6.6,0,0,0,.67-.67c.007-.273,0-.547,0-.82,0-.734-.16-.894-.9-.894H6.873c-.087,0-.174,0-.261,0a.6.6,0,0,0-.631.633c-.01.3,0,.6,0,.895,0,.684.173.857.858.857h8.091m7.739,1.219H7.2v1.148H22.667ZM5.995,13.762a1.754,1.754,0,0,0-1.8,1.833,1.729,1.729,0,0,0,1.8,1.681Zm17.869,3.531a1.771,1.771,0,1,0,0-3.541Zm-6.221,8.34a6.215,6.215,0,0,1-5.393.019,2.837,2.837,0,0,0,2.46,1.8,2.948,2.948,0,0,0,2.933-1.815" transform="translate(0 0)" fill="#fff"></path><path id="Trazado_347" data-name="Trazado 347" d="M171.833,144.988a6.7,6.7,0,0,1-.16,1.022,2.061,2.061,0,0,1-2.488,1.357,2.136,2.136,0,0,1-1.563-2.391.6.6,0,0,1,.513-.518c.96-.195,1.919-.391,2.881-.578a.6.6,0,0,1,.773.618c.007.161,0,.323,0,.484l.042.006m-2.963.543a.847.847,0,0,0,1,.7.868.868,0,0,0,.684-1.031l-1.685.336" transform="translate(-150.898 -129.53)" fill="#fff"></path><path id="Trazado_348" data-name="Trazado 348" d="M89.852,145.116c-.074-1.024.216-1.281,1.239-1.026.781.2,1.58.318,2.368.483a.614.614,0,0,1,.569.7,2.094,2.094,0,1,1-4.176.067c0-.074,0-.149,0-.223m1.212.192a.911.911,0,0,0,.817,1.054.787.787,0,0,0,.87-.716l-1.687-.337" transform="translate(-80.891 -129.652)" fill="#fff"></path></g></g></g></svg>