<svg xmlns="http://www.w3.org/2000/svg" xmlns:xlink="http://www.w3.org/1999/xlink" width="70" height="70" viewBox="0 0 70 70"><defs><clipPath id="clip-path"><rect id="Rect&#xE1;ngulo_572" data-name="Rect&#xE1;ngulo 572" width="35" height="35.004" fill="#fff"></rect></clipPath></defs><g id="Grupo_1444" data-name="Grupo 1444" transform="translate(-957 -1196)"><circle id="Elipse_2" data-name="Elipse 2" cx="35" cy="35" r="35" transform="translate(957 1196)" fill="#3728ae"></circle><g id="Grupo_353" data-name="Grupo 353" transform="translate(975 1213)"><g id="Grupo_352" data-name="Grupo 352" clip-path="url(#clip-path)"><path id="Trazado_468" data-name="Trazado 468" d="M20.918,0h.615A2.779,2.779,0,0,1,23.05,1.086C25.02,3.551,27.009,6,28.989,8.457c.879,1.091,1.774,2.169,2.614,3.29a1.767,1.767,0,0,1,.078,2,1.883,1.883,0,0,1-1.767,1.021,2.07,2.07,0,0,1-1.451-.657l-1.694,7.349h7.327c.67,0,.9.235.9.906q0,5.861,0,11.723c0,.671-.236.908-.9.908Q17.5,35,.91,35A.843.843,0,0,1,0,34.453V17.842a.9.9,0,0,1,.941-.519c2.095.018,4.189.023,6.284.032h.387a.936.936,0,0,0,.042-.1c.243-1.04.5-2.079.722-3.123a.87.87,0,0,1,.759-.754c.53-.1,1.052-.244,1.636-.382-.476-.405-.89-.777-1.325-1.123a.869.869,0,0,1-.319-1c.106-.4.184-.808.283-1.25-.133.035-.208.057-.284.075A1.976,1.976,0,0,1,7.963,5.93q3.913-1.815,7.832-3.619C17.5,1.53,19.21.77,20.918,0M14.4,22.658c-.148.046-.277.083-.4.127-.461.163-.916.344-1.382.491a.678.678,0,0,1-.92-.795.774.774,0,0,1,.57-.535l1.555-.559c-.2-.442-.372-.862-.582-1.262a.638.638,0,0,0-.364-.292c-.96-.24-1.93-.44-2.888-.683a13,13,0,0,0-3.607-.439c-1.525.044-3.053,0-4.579,0H1.389v14.9H33.611V22.845c-.094,0-.171-.012-.248-.012q-3.64,0-7.279,0a2.367,2.367,0,0,0-.339.03q-1.52.223-3.039.45c-.706.105-1.412.213-2.157.326.094.66.177,1.289.282,1.915.014.084.131.175.222.217.413.19.836.359,1.251.546a.691.691,0,1,1-.527,1.262c-.4-.161-.8-.33-1.191-.513a.435.435,0,0,0-.524.048c-.356.284-.747.524-1.1.813a.679.679,0,0,0-.227.438c-.053,1.1-.081,2.208-.114,3.313a.685.685,0,0,1-.476.712.716.716,0,0,1-.83-.316c-1.021-1.327-2.049-2.647-3.072-3.973a.734.734,0,0,1-.018-1.078c.393-.545.8-1.082,1.183-1.631a.424.424,0,0,0,.087-.328c-.349-.8-.719-1.593-1.092-2.406m11.714-4.6a1.255,1.255,0,0,0,.059-.15c.383-1.651.768-3.3,1.138-4.955a.534.534,0,0,0-.1-.395q-3.187-3.97-6.386-7.931a.29.29,0,0,0-.421-.106c-3.053,1.419-6.111,2.827-9.163,4.249a.627.627,0,0,0-.3.362c-.143.515-.234,1.043-.373,1.559a.385.385,0,0,0,.15.464c.615.507,1.214,1.034,1.828,1.543a.787.787,0,0,1,.365.82c-.086.366-.377.481-.7.555-.765.173-1.527.363-2.3.524a.356.356,0,0,0-.319.326c-.129.6-.275,1.2-.412,1.8-.06.261-.113.523-.174.8l4.429,1.019c.034-.122.062-.207.082-.294q.865-3.758,1.728-7.516c.157-.686.442-.887,1.082-.74q2.91.668,5.818,1.347a.721.721,0,0,1,.618,1q-.664,2.911-1.337,5.82c-.16.695-.319,1.39-.484,2.113L25.393,21.3l.433-1.874c-.308-.112-.6-.211-.88-.323a.689.689,0,1,1,.46-1.288c.235.076.467.16.711.244m-11.326.8,4.817,1.11,1.709-7.415L16.5,11.446l-1.708,7.413m15.854-6.034c-.161-.252-.264-.451-.4-.623Q26.054,7,21.856,1.8c-.4-.5-.546-.53-1.139-.256L8.668,7.112c-.55.254-.732.552-.56.921s.522.428,1.06.179l11.152-5.15c.609-.281.812-.235,1.233.286q3.787,4.693,7.574,9.386a1.937,1.937,0,0,0,.453.5.82.82,0,0,0,.618.076c.175-.066.286-.3.449-.49M17.231,29.719l.132-.032c0-.614,0-1.228,0-1.842a.844.844,0,0,1,.389-.75c.512-.36,1.012-.737,1.524-1.1a.344.344,0,0,0,.167-.394c-.121-.752-.214-1.509-.322-2.263-.087-.609.128-.9.731-.989.76-.111,1.519-.228,2.278-.342l0-.052-7.286-1.68c.073.171.119.283.169.393.631,1.386,1.256,2.775,1.9,4.156a.868.868,0,0,1-.094.984c-.387.506-.759,1.024-1.126,1.545-.052.074-.089.233-.048.288.521.7,1.059,1.385,1.592,2.074" fill="#fff"></path><path id="Trazado_469" data-name="Trazado 469" d="M26.163,359.9c-.967,0-1.934.009-2.9,0a.675.675,0,0,1-.665-.955.7.7,0,0,1,.693-.409c1.911,0,3.823-.006,5.734,0A.686.686,0,1,1,29,359.9c-.944.006-1.889,0-2.833,0" transform="translate(-20.602 -327.831)" fill="#fff"></path><path id="Trazado_470" data-name="Trazado 470" d="M117.432,359.981a.656.656,0,0,1-.658-.679.672.672,0,0,1,.663-.679.661.661,0,0,1,.654.684.648.648,0,0,1-.659.674" transform="translate(-106.776 -327.92)" fill="#fff"></path></g></g></g></svg>