<svg xmlns="http://www.w3.org/2000/svg" xmlns:xlink="http://www.w3.org/1999/xlink" width="70" height="70" viewBox="0 0 70 70"><defs><clipPath id="clip-path"><rect id="Rect&#xE1;ngulo_3998" data-name="Rect&#xE1;ngulo 3998" width="29.162" height="35" fill="#fff"></rect></clipPath></defs><g id="Grupo_1458" data-name="Grupo 1458" transform="translate(-493 -1004)"><circle id="Elipse_2" data-name="Elipse 2" cx="35" cy="35" r="35" transform="translate(493 1004)" fill="#3728ae"></circle><g id="Grupo_1355" data-name="Grupo 1355" transform="translate(513.419 1021.5)"><g id="Grupo_1354" data-name="Grupo 1354" clip-path="url(#clip-path)"><path id="Trazado_6451" data-name="Trazado 6451" d="M20.593,0c.177.159.362.309.53.476Q24.955,4.3,28.788,8.13a1.177,1.177,0,0,1,.373.9q-.01,10.8,0,21.6c0,.711-.168.873-.894.873H25.656v.385c0,.809,0,1.618,0,2.427a.6.6,0,0,1-.67.681c-.08,0-.16,0-.239,0H.894C.151,35,0,34.847,0,34.1V3.24c0-.761.152-.91.924-.911H3.5c0-.515.015-1.012-.005-1.508A.788.788,0,0,1,3.914,0ZM4.684,1.174V30.316H27.966V9.335H27.54q-3.417,0-6.834,0c-.71,0-.872-.161-.872-.858q0-3.452,0-6.9v-.4Zm-3.5,2.338v30.3h23.28V31.506H4.419c-.767,0-.92-.152-.92-.917V3.512ZM27.021,8.146,21.027,2.159V8.146Z" fill="#fff"></path><path id="Trazado_6452" data-name="Trazado 6452" d="M18.1,25.085h6.7a2.58,2.58,0,0,1,.341.01.574.574,0,0,1,.013,1.141,2.14,2.14,0,0,1-.34.013H11.277c-.494,0-.772-.209-.777-.576s.276-.587.763-.587q3.417,0,6.834,0" fill="#fff"></path><path id="Trazado_6453" data-name="Trazado 6453" d="M18.107,18.085q3.331,0,6.663,0a2.094,2.094,0,0,1,.441.031.564.564,0,0,1,.025,1.092,1.692,1.692,0,0,1-.439.043q-6.714,0-13.428,0c-.58,0-.869-.2-.867-.591s.284-.578.874-.578h6.731" fill="#fff"></path><path id="Trazado_6454" data-name="Trazado 6454" d="M18.074,21.588h6.732c.571,0,.837.179.845.566s-.28.6-.855.6q-6.714,0-13.429,0a1.831,1.831,0,0,1-.406-.033.568.568,0,0,1,.074-1.123,3.616,3.616,0,0,1,.376-.01h6.663" fill="#fff"></path><path id="Trazado_6455" data-name="Trazado 6455" d="M18.067,12.244h-6.7a2.059,2.059,0,0,1-.409-.019.533.533,0,0,1-.452-.527.515.515,0,0,1,.362-.557,1.384,1.384,0,0,1,.436-.059q6.765,0,13.53,0a1.382,1.382,0,0,1,.436.056.521.521,0,0,1,.373.583.537.537,0,0,1-.473.508,2.037,2.037,0,0,1-.375.015H18.067" fill="#fff"></path><path id="Trazado_6456" data-name="Trazado 6456" d="M18.076,15.746H11.345c-.562,0-.838-.19-.843-.574s.285-.593.831-.593q6.748,0,13.5,0a1.567,1.567,0,0,1,.4.044.519.519,0,0,1,.414.554.527.527,0,0,1-.467.545,2.22,2.22,0,0,1-.408.022h-6.7" fill="#fff"></path><path id="Trazado_6457" data-name="Trazado 6457" d="M9.314,9.914c-.546,0-1.092.005-1.638,0A.6.6,0,0,1,7,9.241q-.012-1.655,0-3.31a.6.6,0,0,1,.676-.673q1.655-.009,3.309,0c.459,0,.67.208.673.668q.012,1.654,0,3.31c0,.47-.222.673-.7.677-.545.005-1.091,0-1.637,0m1.148-3.475H8.178v2.3h2.284Z" fill="#fff"></path><path id="Trazado_6458" data-name="Trazado 6458" d="M8.152,12.237c-.205,0-.411.013-.614,0a.552.552,0,0,1-.533-.527.522.522,0,0,1,.453-.588,8.383,8.383,0,0,1,1.426.006.507.507,0,0,1,.428.6.536.536,0,0,1-.512.506c-.214.021-.432,0-.648,0h0" fill="#fff"></path><path id="Trazado_6459" data-name="Trazado 6459" d="M8.189,21.6c.2,0,.411-.016.614,0a.531.531,0,0,1,.509.507.5.5,0,0,1-.431.6A8.256,8.256,0,0,1,7.423,22.7a.485.485,0,0,1-.414-.578.524.524,0,0,1,.5-.519c.225-.022.454,0,.682,0v0" fill="#fff"></path><path id="Trazado_6460" data-name="Trazado 6460" d="M8.14,26.245c-.193,0-.388.013-.58,0A.592.592,0,0,1,7,25.662a.579.579,0,0,1,.571-.569c.4-.017.8-.018,1.194,0a.564.564,0,0,1,.555.578.577.577,0,0,1-.564.572c-.2.016-.409,0-.614,0" fill="#fff"></path><path id="Trazado_6461" data-name="Trazado 6461" d="M8.147,15.734c-.205,0-.41.012-.614,0A.546.546,0,0,1,7,15.2a.524.524,0,0,1,.459-.581,9.11,9.11,0,0,1,1.392,0,.509.509,0,0,1,.459.577.531.531,0,0,1-.519.533c-.215.019-.432,0-.648,0" fill="#fff"></path><path id="Trazado_6462" data-name="Trazado 6462" d="M8.191,18.1a5.965,5.965,0,0,1,.613,0,.529.529,0,0,1,.51.541.512.512,0,0,1-.47.569,9.483,9.483,0,0,1-1.359,0A.541.541,0,0,1,7,18.653a.559.559,0,0,1,.511-.545,6.185,6.185,0,0,1,.681-.006h0" fill="#fff"></path></g></g></g></svg>