<svg xmlns="http://www.w3.org/2000/svg" xmlns:xlink="http://www.w3.org/1999/xlink" width="70" height="70" viewBox="0 0 70 70"><defs><clipPath id="clip-path"><rect id="Rect&#xE1;ngulo_3986" data-name="Rect&#xE1;ngulo 3986" width="19.829" height="35" fill="#fff"></rect></clipPath></defs><g id="Grupo_1645" data-name="Grupo 1645" transform="translate(-1110 -986)"><circle id="Elipse_17" data-name="Elipse 17" cx="35" cy="35" r="35" transform="translate(1110 986)" fill="#3728ae"></circle><g id="Grupo_1337" data-name="Grupo 1337" transform="translate(1135.011 1003.5)"><g id="Grupo_1336" data-name="Grupo 1336" clip-path="url(#clip-path)"><path id="Trazado_6226" data-name="Trazado 6226" d="M.339,35a.79.79,0,0,1-.168-1.032Q3.3,26.551,6.406,19.122c.056-.133.105-.27.176-.455H.784c-.732,0-.966-.383-.64-1.037Q4.418,9.084,8.685.537A.85.85,0,0,1,9.538,0c2.984.012,5.968,0,8.953.01a1.087,1.087,0,0,1,.462.081c.361.174.412.516.153.926Q17.63,3.355,16.149,5.692q-1.781,2.813-3.56,5.627c-.06.094-.114.193-.209.357h.4q3.109,0,6.22,0c.32,0,.622.01.772.361a.751.751,0,0,1-.226.833Q10.4,23.725,1.255,34.583A5.41,5.41,0,0,1,.817,35ZM18.021,12.842h-.45c-2.039,0-4.077.007-6.116-.01a1.056,1.056,0,0,1-.644-.223c-.287-.253-.14-.547.038-.826q3.273-5.121,6.536-10.248c.068-.106.13-.215.219-.365-2.629,0-5.18,0-7.731.012-.109,0-.259.153-.319.271Q5.606,9.32,1.675,17.2c-.044.086-.076.179-.13.306h5.64c.786,0,1,.307.7,1.021q-2.513,6.01-5.024,12.023c-.046.108-.089.217-.134.326l.061.033Z" fill="#fff"></path></g></g></g></svg>