<svg xmlns="http://www.w3.org/2000/svg" xmlns:xlink="http://www.w3.org/1999/xlink" width="70" height="70" viewBox="0 0 70 70"><defs><clipPath id="clip-path"><rect id="Rect&#xE1;ngulo_3957" data-name="Rect&#xE1;ngulo 3957" width="42.338" height="25" fill="#fff"></rect></clipPath></defs><g id="Grupo_1450" data-name="Grupo 1450" transform="translate(-649 -824)"><circle id="Elipse_10" data-name="Elipse 10" cx="35" cy="35" r="35" transform="translate(649 824)" fill="#3728ae"></circle><g id="Grupo_1288" data-name="Grupo 1288" transform="translate(663 846)"><g id="Grupo_1287" data-name="Grupo 1287" transform="translate(0 0)" clip-path="url(#clip-path)"><path id="Trazado_6054" data-name="Trazado 6054" d="M19.478,23.4h9.339a5.76,5.76,0,0,1-1.531-2.292c-.034-.1-.254-.179-.392-.186-.693-.036-1.395.006-2.081-.075a3.11,3.11,0,0,1-2.756-2.929c-.058-1.818-.056-3.641,0-5.459A3.153,3.153,0,0,1,24.581,9.52q3.17-.8,6.346-1.586a2.792,2.792,0,0,0,1.935-1.553c.726-1.466,1.467-2.924,2.185-4.393A3.311,3.311,0,0,1,38.263,0c1.026,0,2.052,0,3.077,0,.653,0,.993.271,1,.775s-.336.787-.981.79c-1.092,0-2.185,0-3.277,0a1.615,1.615,0,0,0-1.53.919c-.771,1.517-1.524,3.043-2.283,4.568a1.035,1.035,0,0,0-.037.19h6.656a3.227,3.227,0,0,1,.446.012.757.757,0,0,1,.706.808.736.736,0,0,1-.722.742,6.1,6.1,0,0,1-.744.011c-2.466,0-4.932-.006-7.4.008a2.417,2.417,0,0,0-.738.2c-.327.114-.635.285-.967.37-2.129.544-4.262,1.069-6.393,1.605a1.755,1.755,0,0,0-1.5,1.916q-.007,2.259,0,4.517a1.747,1.747,0,0,0,1.912,1.91c.495,0,.99,0,1.494,0,.085-.429.14-.836.247-1.228a5.115,5.115,0,0,1,10.022.831c.031.331.142.406.45.4,1.224-.015,2.448-.008,3.674,0,.617,0,.953.267.968.75.015.509-.327.809-.963.813-1.291.008-2.583.013-3.872,0-.317,0-.427.12-.57.393-.379.722-.833,1.407-1.257,2.106.024,0,.158.022.294.023h5.014a2.409,2.409,0,0,1,.4.01.776.776,0,0,1,.01,1.544,2.819,2.819,0,0,1-.5.015H.025a9.084,9.084,0,0,1,.028-1.623,1.313,1.313,0,0,1,.6-.708,4.088,4.088,0,0,0,1.928-2.7c-.582,0-1.107,0-1.632,0-.61-.007-.942-.285-.94-.777s.331-.76.951-.769c.523-.01,1.046,0,1.623,0A3.569,3.569,0,0,0,.723,15.787a1.276,1.276,0,0,1-.55-1.841c.419-1.006.959-1.969,1.3-3a14.149,14.149,0,0,0,.357-2.425c-.443,0-.737.015-1.029,0a.762.762,0,0,1-.784-.785.736.736,0,0,1,.749-.767q2.308-.031,4.616,0a.776.776,0,0,1,.774.806.8.8,0,0,1-.835.749c-.658.016-1.316,0-2,0V9.78h7.947c0-.336,0-.663,0-.99A2.678,2.678,0,0,1,14.007,6.01a19.041,19.041,0,0,1,1.984.029A2.727,2.727,0,0,1,18.561,8.65a2.693,2.693,0,0,1-2.5,2.717,6.762,6.762,0,0,1-1.139.01.778.778,0,1,1,.044-1.554c.315-.013.63.008.944-.01A1.126,1.126,0,0,0,17,8.734a1.077,1.077,0,0,0-.956-1.143,15.567,15.567,0,0,0-2.228,0,1.062,1.062,0,0,0-.976,1.075,5.986,5.986,0,0,0,.5,2.978c1.091,2.261,2.062,4.579,3.082,6.873.047.106.1.209.14.318a.807.807,0,0,1-.369,1.06.767.767,0,0,1-1.057-.449c-.474-1.037-.93-2.082-1.395-3.122-.046-.105-.094-.21-.174-.386a3.845,3.845,0,0,0-1.628,2.621,3.991,3.991,0,1,0,7.912,1.017,3.857,3.857,0,0,0-2.753-4.188c-.126-.037-.256-.064-.383-.1a.772.772,0,0,1-.631-.954.733.733,0,0,1,1-.535,7.414,7.414,0,0,1,1.771.738,5.489,5.489,0,0,1,.976,8.5l-.352.365m9.1-3.9a3.587,3.587,0,1,0,3.556-3.587A3.591,3.591,0,0,0,28.578,19.5m-16.6-7.136c-.137.227-.233.379-.321.535C10.5,14.973,9.322,17.04,8.2,19.139a1.361,1.361,0,0,1-1.452.837c-.838-.052-1.683-.012-2.551-.012A5.883,5.883,0,0,1,2.31,23.383h9.931a5.6,5.6,0,0,1,.669-8.925c-.3-.669-.6-1.345-.929-2.1M3.85,11.413l3.417,6.152c1.172-2.1,2.29-4.106,3.432-6.152Zm2.1,7c-1.15-2.07-2.24-4.031-3.369-6.063-.311.7-.585,1.277-.825,1.874a.426.426,0,0,0,.1.391,5.623,5.623,0,0,1,2.286,3.529.4.4,0,0,0,.272.258c.473.027.947.012,1.534.012" transform="translate(0 -0.001)" fill="#fff"></path><path id="Trazado_6055" data-name="Trazado 6055" d="M20.979,2.854c.184.138.494.255.581.466a.936.936,0,0,1-.044.81,22.152,22.152,0,0,1-1.807,1.823.676.676,0,0,1-.982-.065.675.675,0,0,1-.092-.981c.585-.646,1.221-1.247,1.848-1.852a1.765,1.765,0,0,1,.5-.2" transform="translate(3.871 0.598)" fill="#fff"></path><path id="Trazado_6056" data-name="Trazado 6056" d="M17.774,4.141c0,.346.012.693,0,1.039a.754.754,0,0,1-.735.774.727.727,0,0,1-.794-.711c-.034-.725-.034-1.452,0-2.176a.724.724,0,0,1,.781-.725.757.757,0,0,1,.751.809c.013.329,0,.659,0,.99" transform="translate(3.4 0.49)" fill="#fff"></path></g></g></g></svg>