<svg xmlns="http://www.w3.org/2000/svg" xmlns:xlink="http://www.w3.org/1999/xlink" width="70" height="70" viewBox="0 0 70 70"><defs><clipPath id="clip-path"><rect id="Rect&#xE1;ngulo_4003" data-name="Rect&#xE1;ngulo 4003" width="34.938" height="35" fill="#fff"></rect></clipPath></defs><g id="Grupo_1453" data-name="Grupo 1453" transform="translate(-184 -824)"><circle id="Elipse_1" data-name="Elipse 1" cx="35" cy="35" r="35" transform="translate(184 824)" fill="#3728ae"></circle><g id="Grupo_1363" data-name="Grupo 1363" transform="translate(202 842)"><g id="Grupo_1362" data-name="Grupo 1362" clip-path="url(#clip-path)"><path id="Trazado_6473" data-name="Trazado 6473" d="M16.372,35c-.651-.089-1.3-.164-1.953-.269A17.413,17.413,0,0,1,.41,21.3,17.2,17.2,0,0,1,5.774,4.544c.194-.185.4-.355.656-.579L3.021,3.541c.081-.674.159-1.324.243-2.028l7.114.871c-.292,2.374-.58,4.724-.873,7.11L7.478,9.247c.152-1.265.3-2.51.455-3.786A15.282,15.282,0,0,0,2.325,20.53,15.5,15.5,0,0,0,17.464,32.969V35Z" fill="#fff"></path><path id="Trazado_6474" data-name="Trazado 6474" d="M34.938,18.618c-.089.64-.156,1.284-.27,1.919a17.274,17.274,0,0,1-5.832,10.249c-.093.081-.184.165-.33.3l3.4.428c-.084.688-.163,1.338-.247,2.026l-7.1-.871c.054-.477.1-.945.16-1.412.22-1.793.449-3.586.657-5.381.03-.261.12-.325.362-.29.55.08,1.1.144,1.712.222-.151,1.255-.3,2.5-.464,3.852a15.437,15.437,0,0,0-9.5-27.58V0c.941.092,1.878.107,2.784.283,7.155,1.394,11.837,5.592,14.013,12.54a26.148,26.148,0,0,1,.6,3.313c.017.1.04.2.06.3Z" fill="#fff"></path><path id="Trazado_6475" data-name="Trazado 6475" d="M17.465,8.311a9.215,9.215,0,1,1-9.215,9.2,9.229,9.229,0,0,1,9.215-9.2m7.166,9.2a7.167,7.167,0,1,0-7.144,7.182,7.177,7.177,0,0,0,7.144-7.182" fill="#fff"></path><path id="Trazado_6476" data-name="Trazado 6476" d="M21.055,15.408l-2.1,2.087,2.131,2.1-1.512,1.513L17.489,19l-2.11,2.123-1.468-1.47c.671-.664,1.386-1.369,2.091-2.065l-2.131-2.119,1.495-1.5,2.072,2.087,2.121-2.139,1.5,1.5" fill="#fff"></path></g></g></g></svg>