<svg xmlns="http://www.w3.org/2000/svg" xmlns:xlink="http://www.w3.org/1999/xlink" width="70" height="70" viewBox="0 0 70 70"><defs><clipPath id="clip-path"><rect id="Rect&#xE1;ngulo_3956" data-name="Rect&#xE1;ngulo 3956" width="35" height="26.829" fill="#fff"></rect></clipPath></defs><g id="Grupo_1452" data-name="Grupo 1452" transform="translate(-1136 -824)"><circle id="Elipse_11" data-name="Elipse 11" cx="35" cy="35" r="35" transform="translate(1136 824)" fill="#3728ae"></circle><g id="Grupo_1286" data-name="Grupo 1286" transform="translate(1153.5 845.586)"><g id="Grupo_1285" data-name="Grupo 1285" transform="translate(0 0)" clip-path="url(#clip-path)"><path id="Trazado_6045" data-name="Trazado 6045" d="M3.529,24.041A4.1,4.1,0,1,0,11.3,21.709h10.71c.49,0,.726-.182.74-.558a.552.552,0,0,0-.507-.6,3.03,3.03,0,0,0-.364-.007c-3.693,0-7.387,0-11.081-.009a1.032,1.032,0,0,1-.608-.222,4.1,4.1,0,0,0-5.211,0,1.076,1.076,0,0,1-.612.221c-1.053.022-2.108.01-3.2.01,0-.891.06-1.755-.016-2.608a2.127,2.127,0,0,1,.874-2.1,5.412,5.412,0,0,0,2-3.3C4.344,11.2,4.795,9.9,5.191,8.588a4,4,0,0,1,.193-.51.575.575,0,0,1,.569-.371q3.353.008,6.707,0c.046,0,.093.01.177.02v.435q0,5.175,0,10.352a1.924,1.924,0,0,0,.015.4.582.582,0,0,0,1.138,0,1.984,1.984,0,0,0,.013-.4q0-6.724,0-13.45c0-.7.153-.852.855-.852H32.974c.707,0,.86.15.86.848V20.542c-1.026,0-2.019-.009-3.011.005a1.34,1.34,0,0,1-.921-.3,4.055,4.055,0,0,0-6.417,2.149c-.041.149-.074.3-.117.483h-9.8c-.484,0-.726.189-.728.569a.537.537,0,0,0,.483.585,2.245,2.245,0,0,0,.4.012H23.37a4.166,4.166,0,0,0,1.878,2.864,4,4,0,0,0,2.426.628c1.854-.1,3.209-1.336,3.807-3.492h2.642c.719,0,.876-.157.876-.875V5.013a1.774,1.774,0,0,0-1.956-1.968H14.783a1.772,1.772,0,0,0-1.946,1.942c0,.507,0,1.014,0,1.538H10.5c0-.176,0-.352,0-.528a1.749,1.749,0,1,0-3.5.009c0,.167,0,.334,0,.537-.359,0-.684.011-1.008,0A1.607,1.607,0,0,0,4.317,7.63c-.29.731-.5,1.493-.731,2.247-.373,1.218-.727,2.441-1.1,3.657a1.26,1.26,0,0,1-.29.485q-.926.955-1.88,1.883a.962.962,0,0,0-.313.74c.01,2.211.005,4.422.006,6.633,0,.57.2.764.767.765.921,0,1.842,0,2.757,0m26.8-.588a2.915,2.915,0,1,1-2.919-2.911,2.915,2.915,0,0,1,2.919,2.911M7.587,20.542a2.916,2.916,0,1,1-2.914,2.915,2.911,2.911,0,0,1,2.914-2.915m23.9,2.317-.335-1.122h2.667v1.122ZM3.528,22.847H1.192V21.726h2.67l-.334,1.121M8.161,6.528c.049-.409-.137-.866.33-1.067a.755.755,0,0,1,.63.067c.351.25.195.647.2,1Z" transform="translate(-0.001 -0.711)" fill="#fff"></path><path id="Trazado_6046" data-name="Trazado 6046" d="M11.464,12.226c-.566,0-1.1,0-1.629,0-.5,0-.7.209-.7.713q-.006,1.038,0,2.077c0,.5.211.7.713.707.521,0,1.043,0,1.619,0,0,.532,0,1.049,0,1.565,0,.573.193.766.763.767.68,0,1.361,0,2.041,0,.479,0,.69-.212.694-.687,0-.533,0-1.065,0-1.644.529,0,1.035,0,1.54,0,.6,0,.792-.185.793-.773q0-1,0-2c0-.521-.2-.718-.733-.721s-1.039,0-1.6,0c0-.561,0-1.092,0-1.621,0-.5-.205-.709-.705-.711q-1.058,0-2.114,0a.592.592,0,0,0-.677.666c-.007.543,0,1.087,0,1.666m-1.152,1.166c.54,0,1.048,0,1.556,0,.567,0,.76-.2.761-.767,0-.517,0-1.033,0-1.547H13.8c0,.536,0,1.054,0,1.572,0,.542.2.74.751.742.517,0,1.035,0,1.556,0v1.167c-.533,0-1.041,0-1.548,0-.568,0-.757.194-.76.769,0,.516,0,1.032,0,1.545H12.63c0-.548,0-1.079,0-1.609,0-.5-.21-.7-.712-.705-.53,0-1.059,0-1.6,0Z" transform="translate(10.706 -2.309)" fill="#fff"></path><path id="Trazado_6047" data-name="Trazado 6047" d="M33.891,16.482c.9,0,1.8,0,2.7,0,.524,0,.728-.2.729-.727q0-2.186,0-4.372c0-.527-.2-.73-.722-.731-1.36,0-2.72,0-4.08,0a.645.645,0,0,0-.7.51c-.443,1.486-.9,2.971-1.337,4.459-.161.546.094.864.677.865.911,0,1.821,0,2.733,0m2.245-1.189H31.8c.26-.865.508-1.7.763-2.529.1-.31.119-.734.332-.889s.628-.056.954-.057c.759,0,1.519,0,2.291,0Z" transform="translate(-25.647 -2.485)" fill="#fff"></path><path id="Trazado_6048" data-name="Trazado 6048" d="M33.476,1.194c0,.206-.014.414,0,.619a.543.543,0,0,0,.581.527.535.535,0,0,0,.571-.535c.017-.424.018-.85,0-1.274A.549.549,0,0,0,34.049,0a.542.542,0,0,0-.57.539c-.017.218,0,.437,0,.655" transform="translate(-25.302)" fill="#fff"></path><path id="Trazado_6049" data-name="Trazado 6049" d="M31.579,19.786c-.206,0-.414-.014-.619,0a.577.577,0,0,0-.017,1.148,11.854,11.854,0,0,0,1.31,0,.577.577,0,0,0-.019-1.147c-.217-.02-.437,0-.655,0" transform="translate(-21.082 -4.617)" fill="#fff"></path><path id="Trazado_6050" data-name="Trazado 6050" d="M30.711,1.032a1.419,1.419,0,0,0-.367.3,9.8,9.8,0,0,0-.583,1,.548.548,0,0,0,.2.785.538.538,0,0,0,.786-.191c.219-.347.427-.7.612-1.071.208-.414-.064-.829-.652-.83" transform="translate(-19.181 -0.241)" fill="#fff"></path><path id="Trazado_6051" data-name="Trazado 6051" d="M37.211,1.03c-.547,0-.836.412-.645.8a10.582,10.582,0,0,0,.646,1.131.525.525,0,0,0,.763.159.537.537,0,0,0,.216-.751,11.363,11.363,0,0,0-.639-1.095,1.028,1.028,0,0,0-.34-.247" transform="translate(-31.25 -0.24)" fill="#fff"></path><path id="Trazado_6052" data-name="Trazado 6052" d="M7.61,29.141a1.748,1.748,0,1,0,1.73-1.747,1.764,1.764,0,0,0-1.73,1.747m1.167,0a.58.58,0,0,1,1.161-.021.58.58,0,1,1-1.161.021" transform="translate(18.06 -6.395)" fill="#fff"></path><path id="Trazado_6053" data-name="Trazado 6053" d="M35.218,27.394a1.749,1.749,0,1,0,1.758,1.719,1.758,1.758,0,0,0-1.758-1.719m.011,2.33a.579.579,0,0,1-.582-.572.581.581,0,1,1,1.162,0,.582.582,0,0,1-.58.574" transform="translate(-27.641 -6.395)" fill="#fff"></path></g></g></g></svg>