<svg xmlns="http://www.w3.org/2000/svg" xmlns:xlink="http://www.w3.org/1999/xlink" width="70" height="70" viewBox="0 0 70 70"><defs><clipPath id="clip-path"><rect id="Rect&#xE1;ngulo_3999" data-name="Rect&#xE1;ngulo 3999" width="35.527" height="20.962" transform="translate(0 0)" fill="#fff"></rect></clipPath></defs><g id="Grupo_1455" data-name="Grupo 1455" transform="translate(-802 -824)"><circle id="Elipse_2" data-name="Elipse 2" cx="35" cy="35" r="35" transform="translate(802 824)" fill="#3728ae"></circle><g id="Grupo_1357" data-name="Grupo 1357" transform="translate(819.237 848.519)"><g id="Grupo_1356" data-name="Grupo 1356" clip-path="url(#clip-path)"><path id="Trazado_6463" data-name="Trazado 6463" d="M.519,18.069a3.8,3.8,0,0,1-.481-2.127C.037,12.387.018,8.833,0,5.278A2.59,2.59,0,0,1,1.027,3.046,2.527,2.527,0,0,1,2.6,2.581c.479,0,.96-.033,1.435.009A1.5,1.5,0,0,0,5.3,2.1,7.172,7.172,0,0,1,8.524.257,7.614,7.614,0,0,1,13,.423a3.426,3.426,0,0,1,1.584,1.2.666.666,0,0,0,.6.29q8.615-.012,17.227-.009A2.948,2.948,0,0,1,34.95,3.044,2.855,2.855,0,0,1,33.1,7.585a5.108,5.108,0,0,1-.782.058q-2.888.007-5.776,0c-.122,0-.244.007-.381.01a2.919,2.919,0,0,1-1.85,4.381,2.951,2.951,0,0,1,.068,2.925,2.727,2.727,0,0,1-2.369,1.517,9.966,9.966,0,0,1-.112,1.7,2.756,2.756,0,0,1-3.213,2.038,1.675,1.675,0,0,0-.669.022,28.224,28.224,0,0,1-9.064.611A7.454,7.454,0,0,1,5.088,19.26a1.122,1.122,0,0,0-.558-.187c-.477-.033-.957-.037-1.435-.031A3.636,3.636,0,0,1,1,18.552l-.484-.483m11.525-5.751c-.028-.1-.048-.193-.076-.279A2.769,2.769,0,0,1,12.219,9.7c.123-.212.073-.3-.078-.447-.768-.746-1.551-1.479-2.272-2.268a9.488,9.488,0,0,1-1.052-1.5.621.621,0,0,1,.244-.859.666.666,0,0,1,.88.283,6.332,6.332,0,0,0,.423.66A24.639,24.639,0,0,0,15.591,10.3a7.894,7.894,0,0,0,1.952,1.017c1.009.327,1.739-.466,1.45-1.483a2.271,2.271,0,0,0-.263-.625c-.53-.808-1.047-1.628-1.63-2.4q-1.671-2.2-3.419-4.346a2.932,2.932,0,0,0-1.017-.779,5.593,5.593,0,0,0-3.185-.323A6.432,6.432,0,0,0,5.791,3.424a1.213,1.213,0,0,1-.995.413C4.125,3.8,3.452,3.806,2.779,3.8A1.266,1.266,0,0,0,1.3,5.237q0,5.538,0,11.076a1.3,1.3,0,0,0,1.418,1.461c.638.017,1.276.043,1.914.03a1.935,1.935,0,0,1,1.314.451,5.523,5.523,0,0,0,3.059,1.317,30.1,30.1,0,0,0,5.631-.057c.4-.046.806-.116,1.209-.175-1.174-.474-2.347-.873-3.514-1.288a7.663,7.663,0,0,1-1.125-.482,2.833,2.833,0,0,1,.837-5.252m3.934-9.094c.728.959,1.422,1.857,2.1,2.77a.582.582,0,0,0,.536.266q6.834-.009,13.667,0c.16,0,.319,0,.478.013A1.47,1.47,0,0,0,34.246,4.6a1.68,1.68,0,0,0-1.8-1.433q-8.064.02-16.127.042c-.089,0-.179.009-.34.017m4.346,15.2a3.67,3.67,0,0,0,.272-.389,1.379,1.379,0,0,0-.842-2.049c-1.973-.7-3.951-1.376-5.927-2.06-.29-.1-.579-.209-.876-.281a1.459,1.459,0,0,0-1.8,1.011,1.5,1.5,0,0,0,.908,1.919q3.1,1.094,6.217,2.159a1.821,1.821,0,0,0,2.043-.31m-6.968-8.1a1.568,1.568,0,0,0,.848,2.371c1.453.454,2.878,1,4.323,1.481.987.329,1.985.628,2.984.92a1.43,1.43,0,0,0,1.808-.914,1.556,1.556,0,0,0-.861-1.981c-.627-.237-1.263-.454-1.9-.659a.406.406,0,0,0-.343.084,3.435,3.435,0,0,1-1.427.9A2.727,2.727,0,0,1,16.6,12.5a15.088,15.088,0,0,1-1.478-.912c-.592-.4-1.163-.833-1.763-1.266m5.869-2.786A5.919,5.919,0,0,1,20.286,9.9c.01.068.131.138.214.174a9,9,0,0,0,2.971.7,1.65,1.65,0,0,0,1.523-.588,1.541,1.541,0,0,0,.213-1.7,1.6,1.6,0,0,0-1.489-.972C22.3,7.5,20.872,7.51,19.449,7.511c-.064,0-.128.012-.224.021" fill="#fff"></path></g></g></g></svg>