<svg xmlns="http://www.w3.org/2000/svg" xmlns:xlink="http://www.w3.org/1999/xlink" id="Grupo_402" data-name="Grupo 402" width="457" height="279.396" viewBox="0 0 457 279.396"><defs><clipPath id="clip-path"><rect id="Rect&#xE1;ngulo_795" data-name="Rect&#xE1;ngulo 795" width="457" height="279.396" fill="none"></rect></clipPath><clipPath id="clip-path-3"><rect id="Rect&#xE1;ngulo_670" data-name="Rect&#xE1;ngulo 670" width="40.648" height="49.871" fill="none"></rect></clipPath><clipPath id="clip-path-4"><rect id="Rect&#xE1;ngulo_668" data-name="Rect&#xE1;ngulo 668" width="21.487" height="42.442" fill="none"></rect></clipPath><clipPath id="clip-path-5"><rect id="Rect&#xE1;ngulo_669" data-name="Rect&#xE1;ngulo 669" width="40.648" height="47.267" fill="none"></rect></clipPath><clipPath id="clip-path-6"><rect id="Rect&#xE1;ngulo_671" data-name="Rect&#xE1;ngulo 671" width="92.599" height="68.352" fill="none"></rect></clipPath><clipPath id="clip-path-7"><rect id="Rect&#xE1;ngulo_672" data-name="Rect&#xE1;ngulo 672" width="72.207" height="47.938" fill="none"></rect></clipPath></defs><g id="Grupo_401" data-name="Grupo 401" clip-path="url(#clip-path)"><g id="Grupo_400" data-name="Grupo 400" transform="translate(0 0)"><g id="Grupo_399" data-name="Grupo 399" clip-path="url(#clip-path)"><path id="Trazado_706" data-name="Trazado 706" d="M429,278.7,40.88,278.564S-24.71,188.171,10.271,127.7,96.344,109.914,100.6,66.227c.145-1.479.029-2.942.029-4.371,0-.34,0-.676.022-1.011,1.309-25.09,17.68-41.305,39.285-50.634q1.047-.453,2.108-.882c34.452-13.962,81.037-11.09,101.659.915,35.088,20.425,34.869,45.01,107.324,36.9s86.274,59.7,67.413,94.252C391.682,190.419,492.655,182.368,429,278.7" transform="translate(0 0.003)" fill="#fff"></path><path id="Trazado_707" data-name="Trazado 707" d="M1615.913,656.339l-9.432-9.285-9.256-9.111a1.675,1.675,0,0,1-.39-1.617c.477-1.7,3.356-3.386,5.037-4.8l.169-.144a5.283,5.283,0,0,1,7.424.63l11.316,13.414h0l3.355,3.978a5.283,5.283,0,0,1-.63,7.424l-.169.144a5.284,5.284,0,0,1-7.425-.63" transform="translate(-1337.78 -527.937)" fill="#ffb27d"></path><path id="Trazado_708" data-name="Trazado 708" d="M1082.684,280.676a4.312,4.312,0,0,1-3.845,3.373,40.073,40.073,0,0,1-20.034-2.378c-9.222.044-15.75-3.315-17.727-1.576-.073.063-.052.2.051.4,1.809,3.508,29.79,26.837,30.2,29.426.43,2.733-52.049,15.592-52.049,15.592s-7.754-4.833-16.436-11.177c-4.4-3.213-9.042-6.814-13.031-10.372-4.023-3.58-7.386-7.123-9.183-10.174l-.009-.021a12.436,12.436,0,0,1-.7-1.339c-.032-.069-.06-.131-.083-.188a25.66,25.66,0,0,0-6.518-8.673,58.615,58.615,0,0,0-16.29-9.924l38.535-20.563s35.383,4.158,41.044,7.593c8.25,5.01,25.526,8.683,28.849,10.624,2.469,1.439,15.47,6.108,16.419,6.525.408.184.95,1.38.808,2.858" transform="translate(-801.805 -212.029)" fill="#ffb27d"></path><path id="Trazado_709" data-name="Trazado 709" d="M701.382,87.9s-.009.078-.031.226v0a96.374,96.374,0,0,1-2.743,12.806v0c-.067.228-.134.461-.2.691v0l-.094.311v0c-2.226,7.365-5.846,15.526-11.432,18.817h0q-.48.282-.98.517a10.324,10.324,0,0,1-2.43.79,9.944,9.944,0,0,1-1.931.186s-4.9-.588-12.231-1.481l-1.226-.152c-13.253-1.617-33.509-4.123-47.634-6.011,0-.34,0-.676.023-1.011,1.309-25.09,17.68-41.3,39.285-50.634,11.475,6.861,22.224,13.3,29.927,17.92a.008.008,0,0,1,.007,0,.133.133,0,0,1,.018.011c.492.3.973.584,1.438.861l.029.018c6.3,3.781,10.211,6.125,10.211,6.125" transform="translate(-519.813 -52.752)" fill="#f99746"></path><path id="Trazado_710" data-name="Trazado 710" d="M1070.525,381.48a.446.446,0,0,1,.045.1c3.621,22.894,16.915,19.118,16.915,19.118l-.5,18.819c-4.4-3.213-9.042-6.814-13.031-10.372-4.022-3.58-7.386-7.123-9.183-10.175l-.009-.021c-.313-.567-.549-1.02-.7-1.339-.031-.069-.06-.131-.083-.188a25.663,25.663,0,0,0-6.518-8.674c1.415-2.417,3.069-5.165,4.7-7.855a4.711,4.711,0,0,1,8.359.584" transform="translate(-885.949 -317.215)" fill="#efa26f"></path><path id="Trazado_711" data-name="Trazado 711" d="M933.076,173.316s-12.433,10.754-17.554,18.31l3.711,6.435-6.312-.594s-3.215,11.667-1.469,15.607l17.214,1.62,19.843-31.751Z" transform="translate(-763.184 -145.205)" fill="#ed7d2b"></path><path id="Trazado_712" data-name="Trazado 712" d="M920.913,194.564c-.509-4.679,4.028-14.233,4.028-14.233l15.263,3.047-11.752-12.385c2.653-5.49,9.016-13.869,12.952-18.832,1.96-2.471,3.318-4.1,3.318-4.1,11.3,8.591,21.826,17.153,21.826,17.153-4.614,1.788-8.931,6.641-12.524,12a111.632,111.632,0,0,0-9.941,19.235c-9.16-.865-23.171-1.892-23.171-1.892" transform="translate(-771.513 -124.048)" fill="#dceaff"></path><path id="Trazado_713" data-name="Trazado 713" d="M920.913,215.722c-.509-4.679,4.028-14.233,4.028-14.233l15.263,3.047L928.453,192.15c2.653-5.49,9.016-13.869,12.952-18.832.2,13.687,12.62,25.062,12.62,25.062a111.632,111.632,0,0,0-9.941,19.235c-9.16-.865-23.171-1.892-23.171-1.892" transform="translate(-771.513 -145.206)" fill="#cbe1fd"></path><path id="Trazado_714" data-name="Trazado 714" d="M1015.07,248.614a1.869,1.869,0,1,1-2.052,1.667,1.869,1.869,0,0,1,2.052-1.667" transform="translate(-848.705 -208.281)" fill="#f99746"></path><rect id="Rect&#xE1;ngulo_666" data-name="Rect&#xE1;ngulo 666" width="114.199" height="52.46" transform="matrix(0.962, -0.274, 0.274, 0.962, 188.471, 83.725)" fill="#82b378"></rect><rect id="Rect&#xE1;ngulo_667" data-name="Rect&#xE1;ngulo 667" width="114.199" height="52.46" transform="translate(194.436 80.586) rotate(-10.449)" fill="#a8d29f"></rect><path id="Trazado_715" data-name="Trazado 715" d="M1341.146,438.015l-4.792-25.983,0-.009-2.358-12.794-1.226.226-21.032,3.879h0l-.24.045-15.754,2.9-2.016.371h0l-16.891,3.116-44.406,8.188-.009,0-.029.007-.754.139-.022,0-.018,0-1.13.208,1.707,9.255,2,10.821,4.311,23.376,24.267-4.474,1.081-.2,4.025-.743.895-.166,1.181-.217,1.078-.2,2.058-.38,5.02-.926,1.425-.262,1.975-.365,1.725-.318,10.078-1.859h0l2.047-.378,1.613-.3,13.953-2.573,12.537-2.311,4.582-.846,13.987-2.58Zm-6.24,4.067-22.685,4.183h0l-2.709.5h0l-14.19,2.617-1.318.244-10.011,1.846-3.168.584-2.033.376-1.454.268-4.736.873-1.96.36-1.19.221-1.13.208-.906.166-4.009.74-1.137.21-17.367,3.2a5,5,0,0,1-5.819-4.007l-2.714-14.721-2.805-15.211a5,5,0,0,1,4.007-5.821l40.987-7.557,19.19-3.539,5.463-1.009h0l6.873-1.266.224-.043h0l17.267-3.184a5,5,0,0,1,5.819,4.007l5.519,29.931a4.993,4.993,0,0,1-4.007,5.821" transform="translate(-1030.89 -334.476)" fill="#82b378"></path><path id="Trazado_716" data-name="Trazado 716" d="M1508.313,535.894a13.151,13.151,0,1,1,10.826-15.122,13.15,13.15,0,0,1-10.826,15.122" transform="translate(-1250.854 -427.085)" fill="#82b378"></path><path id="Trazado_717" data-name="Trazado 717" d="M1389.218,602.31a4.855,4.855,0,1,1,4-5.583,4.855,4.855,0,0,1-4,5.583" transform="translate(-1159.163 -496.537)" fill="#82b378"></path><path id="Trazado_718" data-name="Trazado 718" d="M1711.171,542.937a4.855,4.855,0,1,1,4-5.583,4.855,4.855,0,0,1-4,5.583" transform="translate(-1428.897 -446.794)" fill="#82b378"></path><path id="Trazado_719" data-name="Trazado 719" d="M1481.643,719.561l-.414-1.116-2.784-7.5a4.755,4.755,0,0,1-.164-.531,5.108,5.108,0,0,1,3.167-6.016l.288-.107a5.109,5.109,0,0,1,6.548,3l2.595,6.993.189.508.414,1.116a5.108,5.108,0,0,1-3,6.547l-.288.108a5.11,5.11,0,0,1-6.548-3" transform="translate(-1238.385 -589.792)" fill="#ffb27d"></path><path id="Trazado_720" data-name="Trazado 720" d="M1491.507,723.989a29.883,29.883,0,0,1-1.449-4.728,1.992,1.992,0,0,1,.793-1.554,4.61,4.61,0,0,1,1.7-.927,5.392,5.392,0,0,1,1.085-.247,4.563,4.563,0,0,1,1.288.051,1.285,1.285,0,0,1,.913.721s0,0,0,.006a29.5,29.5,0,0,1,1.743,4.55,1.971,1.971,0,0,1-1.111,2.436l-.43.154-2.2.785a1.883,1.883,0,0,1-2.333-1.246" transform="translate(-1248.374 -600.295)" fill="#ffd3b6"></path><path id="Trazado_721" data-name="Trazado 721" d="M1491.507,727.894a29.879,29.879,0,0,1-1.449-4.728,1.992,1.992,0,0,1,.793-1.554c.146-.062.3-.118.467-.172a5.377,5.377,0,0,1,1.085-.247,4.568,4.568,0,0,1,1.287.051,1.286,1.286,0,0,1,.913.721s0,0,0,.005a29.525,29.525,0,0,1,1.743,4.55,2.15,2.15,0,0,1-.305,1.834l-2.2.785a1.883,1.883,0,0,1-2.333-1.246" transform="translate(-1248.374 -604.2)" fill="#ffc197"></path><path id="Trazado_722" data-name="Trazado 722" d="M1426.687,726.5l-1.525-5.78a3.312,3.312,0,0,1,2.35-4.036l.654-.173a3.312,3.312,0,0,1,4.036,2.35l1.525,5.78a3.312,3.312,0,0,1-2.35,4.036l-.654.173a3.312,3.312,0,0,1-4.036-2.35" transform="translate(-1193.917 -600.202)" fill="#ffb27d"></path><path id="Trazado_723" data-name="Trazado 723" d="M1432.858,728.652a26.054,26.054,0,0,1-.806-3.985,1.944,1.944,0,0,1,1.26-1.564,4.362,4.362,0,0,1,1.664-.411,3.3,3.3,0,0,1,.986.136,1.022,1.022,0,0,1,.654.657s0,0,0,.006a25.767,25.767,0,0,1,1.045,3.861,1.632,1.632,0,0,1-1.011,1.917l-.521.145-1.563.432a1.463,1.463,0,0,1-1.711-1.195" transform="translate(-1199.781 -605.475)" fill="#ffd3b6"></path><path id="Trazado_724" data-name="Trazado 724" d="M1432.858,730.206a26.053,26.053,0,0,1-.806-3.985,1.944,1.944,0,0,1,1.26-1.564,3.673,3.673,0,0,1,.8-.11,3.315,3.315,0,0,1,.986.136,1.025,1.025,0,0,1,.654.657s0,0,0,.006a25.6,25.6,0,0,1,1.043,3.861,1.741,1.741,0,0,1-.663,1.761l-1.563.432a1.463,1.463,0,0,1-1.711-1.195" transform="translate(-1199.781 -607.03)" fill="#ffc197"></path><path id="Trazado_725" data-name="Trazado 725" d="M1556.985,717.131c-.015-.041-.028-.082-.042-.125l-1.882-7.577a6.251,6.251,0,0,1,4.057-7.609l1.568-.438a5.8,5.8,0,0,1,6.958,4.113l.622,2.5,1.261,5.075a6.251,6.251,0,0,1-4.057,7.61l-1.567.438a5.785,5.785,0,0,1-6.917-3.989" transform="translate(-1302.672 -587.458)" fill="#ffb27d"></path><path id="Trazado_726" data-name="Trazado 726" d="M1572.126,741.825l-1.627-3.686-.005-.023a3.9,3.9,0,0,1-.088-.445c-.009-.062-.015-.124-.021-.186a.477.477,0,0,1,0-.078.584.584,0,0,1,.83-.5,3.654,3.654,0,0,0,2.49.227l.32-.085.01,0,1.045-.276a3.913,3.913,0,0,0,2.041-1.316c.062-.075.12-.152.175-.231a1.056,1.056,0,0,1,1.876.324c0,.008,0,.015.007.023l.578,4.036a1.919,1.919,0,0,1-1.51,2.217l-1.191.315-2.539.669c-1,.263-2.126.018-2.389-.981" transform="translate(-1315.675 -615.601)" fill="#ffd3b6"></path><path id="Trazado_727" data-name="Trazado 727" d="M1572.132,745.314l-1.627-3.686c0-.005,0-.012-.005-.023-.016-.086-.059-.356-.111-.709a.584.584,0,0,1,.83-.5,3.654,3.654,0,0,0,2.489.227l.32-.085.01,0,1.045-.276a3.911,3.911,0,0,0,2.04-1.316,1.025,1.025,0,0,1,.407.581c0,.007,0,.015.007.023l.578,4.036a1.833,1.833,0,0,1-1.056,2.042l-2.539.669c-1,.263-2.126.018-2.389-.981" transform="translate(-1315.681 -619.089)" fill="#ffc197"></path><path id="Trazado_728" data-name="Trazado 728" d="M1422.71,308.231s-1.856-14.494,3.8-11.057c8.249,5.01,25.524,8.681,28.849,10.62,2.467,1.439,15.469,6.108,16.418,6.528a2.9,2.9,0,0,1,.436,3.337,8.027,8.027,0,0,1-4.071,3.912c-8.079,3.142-19.084-3.4-19.436-3.4-9.222.044-18.183-.986-20.788-.614-.907.13-5.212-9.328-5.212-9.328" transform="translate(-1191.711 -248.532)" fill="#ffb27d"></path><path id="Trazado_729" data-name="Trazado 729" d="M1682.6,389.949l-9.128-3.319s-.89,1.814-.453,2.955,8.892,3.151,9.581.364" transform="translate(-1401.568 -323.92)" fill="#ffc197"></path><path id="Trazado_730" data-name="Trazado 730" d="M699.61,1102.575l1.817,1.475s4.97-1.782,6.091,4.123c0,0,.3,2.517-1.3,2.521a31.9,31.9,0,0,0-3.194-.209c-2.258.066-4.129-1.124-4.459-2.956l-1.08-1.552Z" transform="translate(-584.36 -923.743)" fill="#ea8e50"></path><path id="Trazado_731" data-name="Trazado 731" d="M430.274,925.77a3.713,3.713,0,0,0,1.333-2.632s-16.783-13.741-18.485-14.86a207.051,207.051,0,0,1-19.3-18.4c-2.866-3.314-6.416-2.028-10.478-.862l-3.345.959c-4.039,1.159-5.089,6.807-1.775,9.552,9.333,7.73,24.858,16.426,27.763,18.253,7.212,4.536,21.327,9.927,21.327,9.927a8.944,8.944,0,0,0,2.957-1.936" transform="translate(-315.229 -743.772)" fill="#1e3d70"></path><path id="Trazado_732" data-name="Trazado 732" d="M799.7,1642.592a12.652,12.652,0,0,0,10.314,1.439s5.032-1.147,6.136,1.363c0,0-7.718,3.921-9.67,4.993a23.39,23.39,0,0,0-4.093,3.069,2.024,2.024,0,0,1-2.931-.226c-.34-.417-.728-.915-1.154-1.491-1.19-1.612-3.963-6.821-3.963-6.821Z" transform="translate(-665.499 -1376.173)" fill="#204272"></path><path id="Trazado_733" data-name="Trazado 733" d="M540.883,808.122A28.478,28.478,0,1,1,569.361,836.6a28.478,28.478,0,0,1-28.478-28.478" transform="translate(-453.155 -653.191)" fill="#e2810e"></path><path id="Trazado_734" data-name="Trazado 734" d="M525.566,808.122A28.478,28.478,0,1,1,554.044,836.6a28.477,28.477,0,0,1-28.478-28.478" transform="translate(-440.322 -653.191)" fill="#ffc76c"></path><path id="Trazado_735" data-name="Trazado 735" d="M567.12,849.22a25.946,25.946,0,1,1,18.347-7.6,25.777,25.777,0,0,1-18.347,7.6m0-50.344a24.4,24.4,0,1,0,24.4,24.4,24.426,24.426,0,0,0-24.4-24.4" transform="translate(-453.399 -668.005)" fill="#ffa412"></path><path id="Trazado_736" data-name="Trazado 736" d="M646.018,865.849a4.281,4.281,0,0,0-.061-1.507,3.128,3.128,0,0,0-.637-1.251,5.911,5.911,0,0,0-1.274-1.124,15.6,15.6,0,0,0-1.974-1.105,40.835,40.835,0,0,1-3.646-2,12.923,12.923,0,0,1-2.726-2.218,7.6,7.6,0,0,1-1.61-2.7,8.574,8.574,0,0,1,.693-6.484,7.215,7.215,0,0,1,2.01-2.233,9,9,0,0,1,2.879-1.371,12,12,0,0,1,3.594-.414l.507-4.277,3.442.408L646.7,843.9a10.76,10.76,0,0,1,3.24,1.377,8.139,8.139,0,0,1,3.626,5.2,10.832,10.832,0,0,1,.142,3.675l-6.217-.738a5.273,5.273,0,0,0-.639-3.714,3.665,3.665,0,0,0-2.71-1.527,4.657,4.657,0,0,0-1.7.072,3.156,3.156,0,0,0-1.239.6,2.943,2.943,0,0,0-.8,1.03,4.323,4.323,0,0,0-.379,1.354,3.964,3.964,0,0,0,.056,1.364,2.93,2.93,0,0,0,.611,1.2,5.923,5.923,0,0,0,1.284,1.125,20.035,20.035,0,0,0,2.052,1.186q1.994,1.027,3.607,2.049a13.066,13.066,0,0,1,2.712,2.237,7.335,7.335,0,0,1,1.888,6.152,7.841,7.841,0,0,1-.988,3.084,7.126,7.126,0,0,1-2.019,2.213,8.7,8.7,0,0,1-2.895,1.319,12.97,12.97,0,0,1-3.612.382l-.472,3.977-3.421-.406.47-3.957a14.531,14.531,0,0,1-3.36-1.189,9.212,9.212,0,0,1-2.753-2.08,8.245,8.245,0,0,1-1.727-3.093,10.033,10.033,0,0,1-.286-4.208l6.217.738a6.183,6.183,0,0,0,.117,2.415,4,4,0,0,0,.885,1.645,3.881,3.881,0,0,0,1.422.979,6.649,6.649,0,0,0,1.7.435,5.547,5.547,0,0,0,1.806-.049,3.7,3.7,0,0,0,1.366-.568,2.946,2.946,0,0,0,.9-1,3.594,3.594,0,0,0,.421-1.338" transform="translate(-528.724 -703.05)" fill="#ffa412"></path><path id="Trazado_737" data-name="Trazado 737" d="M517.757,1257.127s-2.48,5.719-8.205,4.667c0,0-11.682-9.648-19.7-19.67a44.519,44.519,0,0,1-6.121-9.565c-5.314-12.3-19.656-30.653-28.775-39.953l22.815-8.254s7.308,14.7,17.031,32.757c7.007,13.01,15.267,27.763,22.95,40.016" transform="translate(-381.169 -992.258)" fill="#2b478b"></path><path id="Trazado_738" data-name="Trazado 738" d="M494.808,1217.111l-4.95,25.014a44.512,44.512,0,0,1-6.121-9.565c-5.314-12.3-19.656-30.653-28.775-39.953l22.815-8.254s7.308,14.7,17.031,32.757" transform="translate(-381.17 -992.258)" fill="#233862"></path><path id="Trazado_739" data-name="Trazado 739" d="M543.255,1650.133s-.248,4.563,5.283,5.172c0,0,3.424.088,3.433,2.992l-16.659-.006s-.148-1.186-.261-3.7c-.087-1.927,1.867-6.964,1.867-6.964Z" transform="translate(-448.266 -1380.395)" fill="#204272"></path><path id="Trazado_740" data-name="Trazado 740" d="M435.006,1179.124s10.164,11.168,16.615,31.289c3.51,10.947-6.434,38.471-8.372,48.034,0,0-6.671.566-11.232-1.2,0,0-.347-19.752,2.321-34.975,1.493-8.52-13.382-18.221-19.882-33.616-4.422-10.473.957-10.295,7.568-10.547Z" transform="translate(-345.882 -987.029)" fill="#2b478b"></path><path id="Trazado_741" data-name="Trazado 741" d="M388.142,805.962c-5.655,3.193-17.232.248-17.232.248s4.7-5.375,2.565-14.031l4.44,2.255,4.769,2.422a39.565,39.565,0,0,1,.523,4.274c.055.707.1,1.5.137,2.36a14.832,14.832,0,0,1,4.8,2.471" transform="translate(-310.751 -663.692)" fill="#ffb07b"></path><path id="Trazado_742" data-name="Trazado 742" d="M386.87,912.4c0,.994-1.145,1.47-1.388,1.518-2.281.417-8.649,2.894-14.386,3.462a46.005,46.005,0,0,1-14.242-.964c-.653-.132-2.184-.544-2.293-1.169-.136-.683-19.005-38.466-4.337-54.7.344-.381,3.24.305,5.888.934a10.87,10.87,0,0,0,6.692-.547l2.483,1.307c3.05,1.7,8.82,7.737,9.5,12.474.343,2.409,1.72,4.193,2.119,6.312q.222,1.176.453,2.3.451,2.2.929,4.181c.862,3.583,1.773,6.667,2.667,9.332.952,2.829,1.885,5.182,2.719,7.151,1.082,2.553,2,4.46,2.566,5.921a7.3,7.3,0,0,1,.635,2.489" transform="translate(-288.744 -720.886)" fill="#aec3ff"></path><path id="Trazado_743" data-name="Trazado 743" d="M415.844,976.154c-26.636-12.549-35.861-36.646-35.861-36.646s21.641,7.983,26.979,10.062q.451,2.2.929,4.181c.863,3.583,1.773,6.667,2.668,9.332.952,2.829,1.885,5.183,2.719,7.151,1.082,2.553,2,4.46,2.566,5.921" transform="translate(-318.352 -787.125)" fill="#91b0f2"></path><path id="Trazado_744" data-name="Trazado 744" d="M690.962,1119.85l2.3.844a4.923,4.923,0,0,1,7.479,2.041s1.038,2.315-.605,2.818-1.046.029-3.355.8-4.585.215-5.457-1.435l-1.564-1.148Z" transform="translate(-577.886 -938.093)" fill="#ffb07b"></path><path id="Trazado_745" data-name="Trazado 745" d="M414.863,934.937c.851-2.22,1.24-3.226,1.24-3.226s-17.392-14.176-19.164-15.392c-1.208-.828-13.23-9.815-19.091-16.818a12.267,12.267,0,0,0-11.926-4.132l-3.651.766a5.43,5.43,0,0,0-2.421,9.437c9.631,8.257,25.876,17.833,28.905,19.825,7.519,4.945,24.15,11.874,24.15,11.874a4.283,4.283,0,0,0,1.958-2.333" transform="translate(-299.893 -749.925)" fill="#aec3ff"></path><path id="Trazado_746" data-name="Trazado 746" d="M399.322,812.778c-5.561.312-9.177-4.279-9.177-4.279a44.186,44.186,0,0,0,3.885-2.418L398.8,808.5a39.572,39.572,0,0,1,.523,4.274" transform="translate(-326.866 -675.339)" fill="#ea8e50"></path><path id="Trazado_747" data-name="Trazado 747" d="M374.718,738.893s-8.426,6.046-12.11.742-7.254-8.1-2.03-12.182,7.686-2.794,9.347-1.323,6.89,11.054,4.794,12.763" transform="translate(-299.893 -607.163)" fill="#ffb07b"></path><path id="Trazado_748" data-name="Trazado 748" d="M331.544,685.991a13.568,13.568,0,0,0-.982-3.474s-.529,2.19-4.532,1.888-10.347.394-12.462,4.955q-.2.435-.361.895a10.554,10.554,0,0,1-.475-2.527,7.79,7.79,0,0,0,0,4.42h0c-.012.071-.021.143-.031.215a8.911,8.911,0,0,0-1.625,3.069,2.781,2.781,0,0,1,1.5-1.33c-.018,3.549,1.422,7.019,3.948,8.052,3.694,1.511,3.665.358,7.38,2.823,0,0,1-1.237.317-2.067s-3.247-2.039-1.812-3.248,1.964.151,2.492-.68-2.115-3.248,1.284-5.513,5.664-5.438,5.362-7.477" transform="translate(-260.622 -571.816)" fill="#233862"></path><path id="Trazado_749" data-name="Trazado 749" d="M2361.8,1065.74a2.287,2.287,0,0,1,.8,1.276,9.845,9.845,0,0,1-.058,2.527c-.112,1.752,2.312,4.325,3.878,5.22s0-3.729,0-4.847a6.673,6.673,0,0,0-.82-4.474c-1.268-2.536-3.8.3-3.8.3" transform="translate(-1978.727 -891.75)" fill="#ffb27d"></path><path id="Trazado_750" data-name="Trazado 750" d="M2143.812,767.922a7.286,7.286,0,0,1,10.977-6.859q.155.094.308.192c7.556,4.864,22.068,24.643,24.217,28.58,2.239,4.1,5.2,21.613,5.2,21.613s-4.093,1.5-6.007-.056c0,0-6.4-15.186-8.755-17.791-2.479-2.745-25.413-15.423-25.632-20.8-.057-1.422-.172-3.132-.309-4.877" transform="translate(-1796.078 -636.742)" fill="#ed7d2b"></path><path id="Trazado_751" data-name="Trazado 751" d="M2368.223,1620.974s3.046,2.78,2.452,4.756-3.344,3.293-3.715,5.707-1.857,3.731-3.195,3.731h-6.377s-.985-1.7,1.393-2.211,3.274-3.35,3.126-5.984a46.439,46.439,0,0,1,.223-6.146l5.053-1.171Z" transform="translate(-1974.864 -1356.958)" fill="#224275"></path><path id="Trazado_752" data-name="Trazado 752" d="M2102.287,1659.464s.547,6.327-.791,6.986l-17.117-.035s0-1.976,2.749-2.414,7.58-2.049,8.4-5.634,6.762,1.1,6.762,1.1" transform="translate(-1746.305 -1388.256)" fill="#224275"></path><path id="Trazado_753" data-name="Trazado 753" d="M2105.688,1113.095s.9,11.092,1.964,24.424c1.443,18.111,3.177,40.358,3.348,44.572.3,7.318,1.487,19.024,1.487,19.024s2.823,2.781,8.471,1.609a188.919,188.919,0,0,0,6.472-34.392c.022-.29.044-.582.066-.873,1.338-18,3.418-55.9,3.418-55.9Z" transform="translate(-1764.158 -931.269)" fill="#aec3ff"></path><path id="Trazado_754" data-name="Trazado 754" d="M2105.688,1113.095s.9,11.092,1.964,24.424l19.778,30.814c.022-.29.044-.582.066-.873,1.338-18,3.418-55.9,3.418-55.9Z" transform="translate(-1764.158 -931.269)" fill="#91b0f2"></path><path id="Trazado_755" data-name="Trazado 755" d="M2131.109,1091.737s16.273,40.169,26.974,59.046,14.044,24.145,14.044,24.145,6.13-2.415,6.688-4.061c0,0-4.092-36.443-11.258-45.327-4.049-5.02-8.806-20.084-9.029-25.353s-1.449-15.694-1.449-15.694Z" transform="translate(-1785.455 -908.594)" fill="#aec3ff"></path><path id="Trazado_756" data-name="Trazado 756" d="M2128.317,689.31s-10.9,5.53-17.289,3.685a14.054,14.054,0,0,1,2.478-2.37,3.5,3.5,0,0,0,1.358-3.337q-.1-.6-.162-1.123a23.753,23.753,0,0,1-.265-3.705l4.11-3.1,3.964-3.277c-.139,9,5.806,13.23,5.806,13.23" transform="translate(-1768.632 -566.424)" fill="#ffb27d"></path><path id="Trazado_757" data-name="Trazado 757" d="M2110.743,796.2A44.932,44.932,0,0,1,2097.3,802c-5.753,1.364-12.823.962-15.189,1.322a.983.983,0,0,1-.69-.175c-.186-.1-1.229-7.113-2.275-15.97-.047-.356-.1-.716-.115-1.077l-.015-.119c-.407-3.463-.763-7.1-1.072-10.745-.252-2.837-.46-5.642-.6-8.278-.181-3.3-.256-6.326-.181-8.817.033-1.138.1-2.162.2-3.051a21.6,21.6,0,0,1,5.111-11.64l2.685-2.155a9.349,9.349,0,0,0,6.216-1.723c2.355-1.55,4.9-3.217,5.375-2.938,3.608,1.974,6.547,7.091,8.645,13.847a77.062,77.062,0,0,1,2.717,12.976c.19,1.451.352,2.938.476,4.42.024.274.044.548.066.818.283,4.051.745,7.847,1.258,11.236.69,4.572,1.475,8.4,2.03,11.1.279,1.373.491,2.434.617,3.195.113.663-1.216,1.614-1.808,1.983" transform="translate(-1740.227 -617.125)" fill="#f99746"></path><path id="Trazado_758" data-name="Trazado 758" d="M2139.8,695.484s-2.682,5.127-7.951,6.65a43.4,43.4,0,0,1-.335-6.994l4.181.186Z" transform="translate(-1785.776 -582.391)" fill="#ed985f"></path><path id="Trazado_759" data-name="Trazado 759" d="M2107.51,620.294s9.851,4.029,12.26-2.043,5.3-9.642-.886-12.471-8.336-.993-9.641.837-4.233,12.472-1.733,13.676" transform="translate(-1764.864 -506.302)" fill="#ffb27d"></path><path id="Trazado_760" data-name="Trazado 760" d="M2121.984,585.468c.118-.085.352-.122.835-.038a1.986,1.986,0,0,0-.833-.456,2.461,2.461,0,0,0-1.106-2.489,1.467,1.467,0,0,1,.456,1.192c-1.01-1.662-3.615-3.3-11.6-4.488-10.527-1.562-8.642,5.842-7.485,6.938s5.024-.291,7.472.48,2.094,4.484,2.826,5.173.6-.262,1.864-.516.937,1.668.322,2.825.584,3.146.584,3.146l1.983-1.346c1.983-1.346,5.149-8.252,4.782-9.964-.033-.151-.064-.3-.1-.458" transform="translate(-1760.505 -485.066)" fill="#2c3a64"></path><path id="Trazado_761" data-name="Trazado 761" d="M2095.636,869.972s-8.884,6.759-18.3,8.24c-.181-3.3-.256-6.326-.181-8.817Z" transform="translate(-1740.228 -728.384)" fill="#ed7d2b"></path><path id="Trazado_762" data-name="Trazado 762" d="M1813.313,689.551c-.089-.185-.027-6.506-3.149-7.011-2.037-.33-7.317-1.739-7.267,1.1.02,1.115,6.627,7.992,6.627,7.992Z" transform="translate(-1510.477 -571.298)" fill="#ffb27d"></path><path id="Trazado_763" data-name="Trazado 763" d="M1899.2,735.6a7.286,7.286,0,0,1-4.553,12.117q-.181.02-.361.034c-8.956.727-34.44-6.571-37.966-8.521-5.854-3.238-15.89-13.48-15.89-13.48s2.341-3.676,4.805-3.6c0,0,13.435,8.557,18.245,9.581,3.245.691,29.073-3.953,32.513.187.91,1.095,2.039,2.383,3.208,3.687" transform="translate(-1541.923 -605.017)" fill="#f99746"></path><path id="Trazado_764" data-name="Trazado 764" d="M2387.346,1082.673s.478,1.053.817,1.873.526,2.349.265,2.2a7.811,7.811,0,0,1-1.491-1.794c-.3-.555.41-2.279.41-2.279" transform="translate(-1999.728 -907.069)" fill="#ffb27d"></path><g id="Grupo_392" data-name="Grupo 392" transform="translate(150.647 156.574)" opacity="0.5"><g id="Grupo_391" data-name="Grupo 391"><g id="Grupo_390" data-name="Grupo 390" clip-path="url(#clip-path-3)"><g id="Grupo_386" data-name="Grupo 386" transform="translate(17.545)" opacity="0.5"><g id="Grupo_385" data-name="Grupo 385"><g id="Grupo_384" data-name="Grupo 384" clip-path="url(#clip-path-4)"><path id="Trazado_765" data-name="Trazado 765" d="M1058.47,1007.789s-3.1-25.948-16.394-41.434a2.9,2.9,0,0,0-5.092,1.964c0,.045,0,.091,0,.137.172,4.629,15.059,24.154,21.483,39.332" transform="translate(-1036.982 -965.347)" fill="#afcdfb"></path></g></g></g><g id="Grupo_389" data-name="Grupo 389" transform="translate(0 2.604)" opacity="0.5"><g id="Grupo_388" data-name="Grupo 388"><g id="Grupo_387" data-name="Grupo 387" clip-path="url(#clip-path-5)"><path id="Trazado_766" data-name="Trazado 766" d="M969.455,1028.667s-13.25-32.433-35.881-46.777a3.079,3.079,0,0,0-4.174.789c-.6.877-.873,2.247-.2,4.386,1.8,5.7,27.043,24.906,40.252,41.6" transform="translate(-928.807 -981.4)" fill="#afcdfb"></path></g></g></g></g></g></g><g id="Grupo_395" data-name="Grupo 395" transform="translate(120.86 202.408)" opacity="0.5"><g id="Grupo_394" data-name="Grupo 394"><g id="Grupo_393" data-name="Grupo 393" clip-path="url(#clip-path-6)"><path id="Trazado_767" data-name="Trazado 767" d="M745.319,1261.975c1.3-13.519,23.8-13.189,23.8-13.189s18.654,20.1,23.054,19.9-12.594-20.3-12.594-20.3c8.209-2.227,31.219,4.387,31.219,4.387s3.141,26.614,7.357,25.343-3.983-23.424-3.983-23.424c8.489,1.049,17.63,9.191,17.63,9.191,12.033,13.744-6.237,28.486-6.237,28.486a43.569,43.569,0,0,0,8.727,18.739h0a31.587,31.587,0,0,1,3.463,4.8l-2.2.375q-.421-.84-.888-1.608a.013.013,0,0,0-.006-.009l-.014-.022c-.209-.315-.508-.762-.878-1.306v0s0,0,0,0c-.9-1.2-1.517-2.1-1.924-2.752l0-.006c-2.719-3.791-6.539-8.684-8.668-9.485a4.323,4.323,0,0,0,.3-1.09l-.3,1.09c-2.4,8.718-21.014,13.27-31.88,12.9s-6.793-4.108-1.957-9.876,16.9-6.516,20.078-9-2.257-3.495-9.165-1.766-9.218,9.325-20.344,12.325-23.358-16.805-23.358-16.805c8.22,1.1,21.488-5.593,21.569-8.377s-20.605,1.011-23.973.752-10.121-5.759-8.819-19.277" transform="translate(-745.154 -1247.935)" fill="#afcdfb"></path></g></g></g><g id="Grupo_398" data-name="Grupo 398" transform="translate(266.537 199.884)" opacity="0.5"><g id="Grupo_397" data-name="Grupo 397"><g id="Grupo_396" data-name="Grupo 396" clip-path="url(#clip-path-7)"><path id="Trazado_768" data-name="Trazado 768" d="M1715.528,1246.18c.217-9.991-16.249-11.694-16.249-11.694s-15.368,13.074-18.566,12.552,10.956-13.743,10.956-13.743c-5.806-2.337-23.191.507-23.191.507s-4.6,19.176-7.566,17.883,4.935-16.772,4.935-16.772c-6.294.033-13.677,5.192-13.677,5.192-9.98,9,2.1,21.354,2.1,21.354a32.058,32.058,0,0,1-8,12.938h0a23.268,23.268,0,0,0-2.945,3.205l1.577.464q.38-.578.788-1.1a.01.01,0,0,1,.005-.006l.012-.015c.18-.212.437-.513.755-.878h0l0,0c.759-.8,1.29-1.4,1.644-1.844l0,0c2.315-2.535,5.529-5.78,7.153-6.181a3.182,3.182,0,0,1-.125-.823l.125.823c1,6.577,14.208,11.512,22.181,12.182s5.319-2.415,2.283-7.048-11.785-6.221-13.894-8.308,1.951-2.359,6.85-.5,5.93,7.61,13.8,10.764,18.52-10.261,18.52-10.261c-6.1.09-15.218-5.944-15.036-7.985s14.969,2.519,17.453,2.622,7.893-3.333,8.11-13.324" transform="translate(-1643.323 -1232.373)" fill="#afcdfb"></path></g></g></g><path id="Trazado_769" data-name="Trazado 769" d="M991.72,1285.092v12.643a4.518,4.518,0,0,1-4.6,4.4h-9.472a4.518,4.518,0,0,1-4.6-4.4v-12.643a4.518,4.518,0,0,1,4.6-4.4h9.472a4.518,4.518,0,0,1,4.6,4.4" transform="translate(-815.224 -1072.97)" fill="#ed7d2b"></path><path id="Trazado_770" data-name="Trazado 770" d="M991.72,1285.092v7.043a4.519,4.519,0,0,1-4.6,4.4h-9.472a4.519,4.519,0,0,1-4.6-4.4v-7.043a4.518,4.518,0,0,1,4.6-4.4h9.472a4.518,4.518,0,0,1,4.6,4.4" transform="translate(-815.224 -1072.97)" fill="#f99746"></path><path id="Trazado_771" data-name="Trazado 771" d="M1154.411,1103.759a44.85,44.85,0,0,1-3.882,18.269c-7.494,16.873-25.018,28.784-45.309,28.784h-14.063c-.844,0-1.68-.02-2.515-.061a50.259,50.259,0,0,1-27.495-9.776,48.308,48.308,0,0,1-12.32-13.322,45,45,0,0,1-2.978-42.162c7.492-16.87,25.016-28.781,45.307-28.781h14.063a49.7,49.7,0,0,1,43.03,24.323,45.077,45.077,0,0,1,6.161,22.728" transform="translate(-872.967 -885.316)" fill="#ed7d2b"></path><path id="Trazado_772" data-name="Trazado 772" d="M1458.933,1480.321l-4.589,28.5a3.517,3.517,0,0,0,3.518,4.369h12.058a6.947,6.947,0,0,0,6.137-3.579l18.741-35.756Z" transform="translate(-1218.356 -1234.802)" fill="#ed7d2b"></path><path id="Trazado_773" data-name="Trazado 773" d="M1121.682,1530.155h-12.058a6.945,6.945,0,0,1-6.137-3.58L1091.9,1507l-7.638-12.9,37.262,3.673,1.347,10.244,1.206,9.181,1.128,8.582a3.518,3.518,0,0,1-3.519,4.369" transform="translate(-908.398 -1251.769)" fill="#ed7d2b"></path><path id="Trazado_774" data-name="Trazado 774" d="M1147,1098.321c-9.929,27.311-19.325,41.913-57.381,43.184q-1.108.037-2.188.065a253.271,253.271,0,0,1-26.289-.595c-1.711-.134-3.273-.28-4.682-.425l-7.638-12.9a45,45,0,0,1-2.978-42.162c7.492-16.871,25.016-28.781,45.307-28.781h14.063a49.7,49.7,0,0,1,43.03,24.323,36.906,36.906,0,0,1-1.244,17.289" transform="translate(-872.966 -885.316)" fill="#f99746"></path><path id="Trazado_775" data-name="Trazado 775" d="M1191.3,972.706h-19.347c-1.951,0-3.532-1.133-3.532-2.531V944.908a1.974,1.974,0,0,1,.386-1.164,4.367,4.367,0,0,1,5.283-.852c7.346,3.983,19.38,12.638,20.734,27.111.138,1.462-1.48,2.7-3.524,2.7" transform="translate(-978.909 -789.525)" fill="#f99746"></path><path id="Trazado_776" data-name="Trazado 776" d="M1172.739,979.787h-.787c-1.951,0-3.532-1.133-3.532-2.531V951.989a1.974,1.974,0,0,1,.386-1.164,2.438,2.438,0,0,1,.239.223c4.2,4.475,10.26,13.267,8.553,25.582-.248,1.791-2.348,3.156-4.86,3.156" transform="translate(-978.909 -796.606)" fill="#ed7d2b"></path><path id="Trazado_777" data-name="Trazado 777" d="M1132.18,1219.287a2.885,2.885,0,1,1,2.883,2.757,2.822,2.822,0,0,1-2.883-2.757" transform="translate(-948.547 -1019.215)" fill="#2b478b"></path><path id="Trazado_778" data-name="Trazado 778" d="M1490.345,1682.689v2.947a1,1,0,0,0,.232.634,1.343,1.343,0,0,0,.635.425,1.48,1.48,0,0,0,.247.059,1.6,1.6,0,0,0,.239.018h55.894a1.277,1.277,0,0,0,1.351-1.077c0-.019,0-.039,0-.058v-2.947c0-.019,0-.039,0-.058a1.277,1.277,0,0,0-1.351-1.077H1491.7a1.565,1.565,0,0,0-.239.018,1.456,1.456,0,0,0-.247.059,1.342,1.342,0,0,0-.635.425,1,1,0,0,0-.232.634" transform="translate(-1248.62 -1408.815)" fill="#ffc76c"></path><path id="Trazado_779" data-name="Trazado 779" d="M1659.565,1686.772h29.945a1.182,1.182,0,0,0,1.206-1.077c0-.019,0-.039,0-.058v-2.947c0-.019,0-.039,0-.058a1.182,1.182,0,0,0-1.206-1.077h-26.267a9.148,9.148,0,0,1-3.678,5.218" transform="translate(-1390.393 -1408.815)" fill="#ffae39"></path><rect id="Rect&#xE1;ngulo_673" data-name="Rect&#xE1;ngulo 673" width="0.635" height="5.218" transform="translate(248.526 272.739)" fill="#ffa412"></rect><rect id="Rect&#xE1;ngulo_674" data-name="Rect&#xE1;ngulo 674" width="0.635" height="5.218" transform="translate(250.677 272.739)" fill="#ffa412"></rect><rect id="Rect&#xE1;ngulo_675" data-name="Rect&#xE1;ngulo 675" width="0.635" height="5.218" transform="translate(253.256 272.739)" fill="#ffa412"></rect><rect id="Rect&#xE1;ngulo_676" data-name="Rect&#xE1;ngulo 676" width="0.635" height="5.218" transform="translate(257.208 272.739)" fill="#ffa412"></rect><rect id="Rect&#xE1;ngulo_677" data-name="Rect&#xE1;ngulo 677" width="0.635" height="5.218" transform="translate(261.388 272.739)" fill="#ffa412"></rect><rect id="Rect&#xE1;ngulo_678" data-name="Rect&#xE1;ngulo 678" width="0.635" height="5.218" transform="translate(267.795 272.739)" fill="#ffa412"></rect><rect id="Rect&#xE1;ngulo_679" data-name="Rect&#xE1;ngulo 679" width="0.635" height="5.218" transform="translate(273.795 272.739)" fill="#ffa412"></rect><rect id="Rect&#xE1;ngulo_680" data-name="Rect&#xE1;ngulo 680" width="0.635" height="5.218" transform="translate(279.152 272.739)" fill="#ffa412"></rect><rect id="Rect&#xE1;ngulo_681" data-name="Rect&#xE1;ngulo 681" width="0.635" height="5.218" transform="translate(246.48 272.739)" fill="#ffa412"></rect><rect id="Rect&#xE1;ngulo_682" data-name="Rect&#xE1;ngulo 682" width="0.635" height="5.218" transform="translate(245.127 272.739)" fill="#ffa412"></rect><rect id="Rect&#xE1;ngulo_683" data-name="Rect&#xE1;ngulo 683" width="0.635" height="5.218" transform="translate(243.822 272.739)" fill="#ffa412"></rect><path id="Trazado_780" data-name="Trazado 780" d="M1497.212,1681.572v5.182a1.563,1.563,0,0,0,.239.018h.4v-5.218h-.4a1.563,1.563,0,0,0-.239.018" transform="translate(-1254.373 -1408.815)" fill="#ffa412"></path><path id="Trazado_781" data-name="Trazado 781" d="M1491.773,1682.452v4.215a1.347,1.347,0,0,0,.635.425v-5.065a1.345,1.345,0,0,0-.635.425" transform="translate(-1249.816 -1409.211)" fill="#ffa412"></path><path id="Trazado_782" data-name="Trazado 782" d="M1527.19,1650.518v2.947a1,1,0,0,0,.232.634,1.345,1.345,0,0,0,.635.425,1.443,1.443,0,0,0,.247.059,1.6,1.6,0,0,0,.239.018h55.894a1.277,1.277,0,0,0,1.351-1.077c0-.02,0-.039,0-.058v-2.947c0-.019,0-.039,0-.058a1.277,1.277,0,0,0-1.351-1.077h-55.894c-.036,0-.072,0-.107,0l-.046,0-.05.006-.036,0a1.5,1.5,0,0,0-.247.059l-.035.012-.034.013-.068.028-.039.018-.034.017c-.022.011-.043.022-.063.034s-.047.028-.07.043l-.052.036,0,0-.034.026a1.169,1.169,0,0,0-.1.085l-.027.026-.026.028c-.017.019-.034.038-.05.058a1,1,0,0,0-.232.634" transform="translate(-1279.489 -1381.861)" fill="#ffc76c"></path><path id="Trazado_783" data-name="Trazado 783" d="M1696.411,1654.6h29.944a1.181,1.181,0,0,0,1.206-1.077c0-.02,0-.039,0-.058v-2.947c0-.019,0-.039,0-.058a1.181,1.181,0,0,0-1.206-1.077h-26.266l-.037.129a9.128,9.128,0,0,1-3.641,5.089" transform="translate(-1421.263 -1381.861)" fill="#ffae39"></path><rect id="Rect&#xE1;ngulo_684" data-name="Rect&#xE1;ngulo 684" width="0.635" height="5.218" transform="translate(254.503 267.521)" fill="#ffa412"></rect><rect id="Rect&#xE1;ngulo_685" data-name="Rect&#xE1;ngulo 685" width="0.635" height="5.218" transform="translate(256.653 267.521)" fill="#ffa412"></rect><rect id="Rect&#xE1;ngulo_686" data-name="Rect&#xE1;ngulo 686" width="0.635" height="5.218" transform="translate(259.232 267.521)" fill="#ffa412"></rect><rect id="Rect&#xE1;ngulo_687" data-name="Rect&#xE1;ngulo 687" width="0.635" height="5.218" transform="translate(263.184 267.521)" fill="#ffa412"></rect><rect id="Rect&#xE1;ngulo_688" data-name="Rect&#xE1;ngulo 688" width="0.635" height="5.218" transform="translate(267.364 267.521)" fill="#ffa412"></rect><rect id="Rect&#xE1;ngulo_689" data-name="Rect&#xE1;ngulo 689" width="0.635" height="5.218" transform="translate(273.772 267.521)" fill="#ffa412"></rect><rect id="Rect&#xE1;ngulo_690" data-name="Rect&#xE1;ngulo 690" width="0.635" height="5.218" transform="translate(279.771 267.521)" fill="#ffa412"></rect><rect id="Rect&#xE1;ngulo_691" data-name="Rect&#xE1;ngulo 691" width="0.635" height="5.218" transform="translate(285.128 267.521)" fill="#ffa412"></rect><rect id="Rect&#xE1;ngulo_692" data-name="Rect&#xE1;ngulo 692" width="0.635" height="5.218" transform="translate(252.456 267.521)" fill="#ffa412"></rect><rect id="Rect&#xE1;ngulo_693" data-name="Rect&#xE1;ngulo 693" width="0.635" height="5.218" transform="translate(251.104 267.521)" fill="#ffa412"></rect><rect id="Rect&#xE1;ngulo_694" data-name="Rect&#xE1;ngulo 694" width="0.635" height="5.218" transform="translate(249.798 267.521)" fill="#ffa412"></rect><path id="Trazado_784" data-name="Trazado 784" d="M1534.058,1649.4v5.182a1.562,1.562,0,0,0,.238.018h.4v-5.218h-.4a1.594,1.594,0,0,0-.238.018" transform="translate(-1285.243 -1381.862)" fill="#ffa412"></path><path id="Trazado_785" data-name="Trazado 785" d="M1528.618,1650.279v4.215a1.348,1.348,0,0,0,.635.425v-5.065a1.346,1.346,0,0,0-.635.425" transform="translate(-1280.685 -1382.257)" fill="#ffa412"></path><path id="Trazado_786" data-name="Trazado 786" d="M1509.385,1619.14v2.947a1,1,0,0,0,.232.634,1.346,1.346,0,0,0,.635.425,1.466,1.466,0,0,0,.247.058,1.579,1.579,0,0,0,.239.018h55.894a1.55,1.55,0,0,0,.624-.129,1.159,1.159,0,0,0,.723-.9.508.508,0,0,0,0-.051c0-.019,0-.039,0-.058v-2.947c0-.02,0-.039,0-.058a1.277,1.277,0,0,0-1.351-1.077h-55.894a1.579,1.579,0,0,0-.239.018,1.466,1.466,0,0,0-.247.058,1.345,1.345,0,0,0-.635.425,1,1,0,0,0-.232.634" transform="translate(-1264.571 -1355.573)" fill="#ffc76c"></path><path id="Trazado_787" data-name="Trazado 787" d="M1678.606,1623.222h29.944a1.254,1.254,0,0,0,.556-.129,1.14,1.14,0,0,0,.645-.9.508.508,0,0,0,0-.051c0-.019,0-.039,0-.058v-2.947c0-.02,0-.039,0-.058a1.182,1.182,0,0,0-1.206-1.077h-26.267a9.157,9.157,0,0,1-3.493,5.089l-.184.129" transform="translate(-1406.346 -1355.573)" fill="#ffae39"></path><rect id="Rect&#xE1;ngulo_695" data-name="Rect&#xE1;ngulo 695" width="0.635" height="5.218" transform="translate(251.615 262.432)" fill="#ffa412"></rect><rect id="Rect&#xE1;ngulo_696" data-name="Rect&#xE1;ngulo 696" width="0.635" height="5.218" transform="translate(253.765 262.432)" fill="#ffa412"></rect><rect id="Rect&#xE1;ngulo_697" data-name="Rect&#xE1;ngulo 697" width="0.635" height="5.218" transform="translate(256.344 262.432)" fill="#ffa412"></rect><rect id="Rect&#xE1;ngulo_698" data-name="Rect&#xE1;ngulo 698" width="0.635" height="5.218" transform="translate(260.296 262.432)" fill="#ffa412"></rect><rect id="Rect&#xE1;ngulo_699" data-name="Rect&#xE1;ngulo 699" width="0.635" height="5.218" transform="translate(264.476 262.432)" fill="#ffa412"></rect><rect id="Rect&#xE1;ngulo_700" data-name="Rect&#xE1;ngulo 700" width="0.635" height="5.218" transform="translate(270.884 262.432)" fill="#ffa412"></rect><rect id="Rect&#xE1;ngulo_701" data-name="Rect&#xE1;ngulo 701" width="0.635" height="5.218" transform="translate(276.883 262.432)" fill="#ffa412"></rect><rect id="Rect&#xE1;ngulo_702" data-name="Rect&#xE1;ngulo 702" width="0.635" height="5.218" transform="translate(282.24 262.432)" fill="#ffa412"></rect><rect id="Rect&#xE1;ngulo_703" data-name="Rect&#xE1;ngulo 703" width="0.635" height="5.218" transform="translate(249.568 262.432)" fill="#ffa412"></rect><rect id="Rect&#xE1;ngulo_704" data-name="Rect&#xE1;ngulo 704" width="0.635" height="5.218" transform="translate(248.215 262.432)" fill="#ffa412"></rect><rect id="Rect&#xE1;ngulo_705" data-name="Rect&#xE1;ngulo 705" width="0.635" height="5.218" transform="translate(246.91 262.432)" fill="#ffa412"></rect><path id="Trazado_788" data-name="Trazado 788" d="M1516.252,1618.023v5.181a1.549,1.549,0,0,0,.239.018h.4v-5.218h-.4a1.534,1.534,0,0,0-.239.018" transform="translate(-1270.325 -1355.574)" fill="#ffa412"></path><path id="Trazado_789" data-name="Trazado 789" d="M1510.813,1618.9v4.215a1.345,1.345,0,0,0,.635.425v-5.065a1.345,1.345,0,0,0-.635.425" transform="translate(-1265.768 -1355.968)" fill="#ffa412"></path><path id="Trazado_790" data-name="Trazado 790" d="M1501.13,1586.969v2.947a1,1,0,0,0,.232.634,1.343,1.343,0,0,0,.635.425,1.461,1.461,0,0,0,.247.058,1.564,1.564,0,0,0,.239.018h55.894a1.277,1.277,0,0,0,1.351-1.077c0-.02,0-.039,0-.058v-2.947c0-.019,0-.039,0-.058a1.247,1.247,0,0,0-1.191-1.069,1.528,1.528,0,0,0-.16-.008h-55.894a1.564,1.564,0,0,0-.239.018,1.473,1.473,0,0,0-.247.058,1.344,1.344,0,0,0-.635.425,1,1,0,0,0-.232.634" transform="translate(-1257.656 -1328.62)" fill="#ffc76c"></path><path id="Trazado_791" data-name="Trazado 791" d="M1670.352,1591.051H1700.3a1.182,1.182,0,0,0,1.206-1.077c0-.02,0-.039,0-.058v-2.947c0-.019,0-.039,0-.058a1.172,1.172,0,0,0-1.063-1.069,1.21,1.21,0,0,0-.143-.008h-26.267l0,.008a9.148,9.148,0,0,1-3.675,5.21" transform="translate(-1399.431 -1328.62)" fill="#ffae39"></path><rect id="Rect&#xE1;ngulo_706" data-name="Rect&#xE1;ngulo 706" width="0.635" height="5.218" transform="translate(250.276 257.213)" fill="#ffa412"></rect><rect id="Rect&#xE1;ngulo_707" data-name="Rect&#xE1;ngulo 707" width="0.635" height="5.218" transform="translate(252.426 257.213)" fill="#ffa412"></rect><rect id="Rect&#xE1;ngulo_708" data-name="Rect&#xE1;ngulo 708" width="0.635" height="5.218" transform="translate(255.005 257.213)" fill="#ffa412"></rect><rect id="Rect&#xE1;ngulo_709" data-name="Rect&#xE1;ngulo 709" width="0.635" height="5.218" transform="translate(258.957 257.213)" fill="#ffa412"></rect><rect id="Rect&#xE1;ngulo_710" data-name="Rect&#xE1;ngulo 710" width="0.635" height="5.218" transform="translate(263.137 257.213)" fill="#ffa412"></rect><rect id="Rect&#xE1;ngulo_711" data-name="Rect&#xE1;ngulo 711" width="0.635" height="5.218" transform="translate(269.545 257.213)" fill="#ffa412"></rect><rect id="Rect&#xE1;ngulo_712" data-name="Rect&#xE1;ngulo 712" width="0.635" height="5.218" transform="translate(275.544 257.213)" fill="#ffa412"></rect><rect id="Rect&#xE1;ngulo_713" data-name="Rect&#xE1;ngulo 713" width="0.635" height="5.218" transform="translate(280.901 257.213)" fill="#ffa412"></rect><rect id="Rect&#xE1;ngulo_714" data-name="Rect&#xE1;ngulo 714" width="0.635" height="5.218" transform="translate(248.229 257.213)" fill="#ffa412"></rect><rect id="Rect&#xE1;ngulo_715" data-name="Rect&#xE1;ngulo 715" width="0.635" height="5.218" transform="translate(246.877 257.213)" fill="#ffa412"></rect><rect id="Rect&#xE1;ngulo_716" data-name="Rect&#xE1;ngulo 716" width="0.635" height="5.218" transform="translate(245.571 257.213)" fill="#ffa412"></rect><path id="Trazado_792" data-name="Trazado 792" d="M1508,1585.85v5.182a1.547,1.547,0,0,0,.239.018h.4v-5.218h-.4a1.579,1.579,0,0,0-.239.018" transform="translate(-1263.409 -1328.619)" fill="#ffa412"></path><path id="Trazado_793" data-name="Trazado 793" d="M1502.559,1586.729v4.215a1.347,1.347,0,0,0,.635.425V1586.3a1.347,1.347,0,0,0-.635.425" transform="translate(-1258.853 -1329.014)" fill="#ffa412"></path><path id="Trazado_794" data-name="Trazado 794" d="M1526.466,1554.848v2.947a1,1,0,0,0,.232.634,1.345,1.345,0,0,0,.635.425,1.505,1.505,0,0,0,.247.058l.079.01.044,0,.044,0,.072,0h55.894a1.277,1.277,0,0,0,1.351-1.077c0-.019,0-.039,0-.058v-2.947c0-.02,0-.039,0-.058s0-.032,0-.048a1.224,1.224,0,0,0-1.014-.994l-.041-.008a1.6,1.6,0,0,0-.292-.027h-55.894c-.041,0-.082,0-.121,0l-.054.005h0l-.063.009a1.493,1.493,0,0,0-.247.058,1.346,1.346,0,0,0-.635.425,1,1,0,0,0-.232.634" transform="translate(-1278.882 -1301.708)" fill="#ffc76c"></path><path id="Trazado_795" data-name="Trazado 795" d="M1695.688,1558.93h29.944a1.182,1.182,0,0,0,1.206-1.077c0-.019,0-.039,0-.058v-2.947c0-.02,0-.039,0-.058s0-.032,0-.048a1.167,1.167,0,0,0-.937-1,.51.51,0,0,0-.052-.01,1.279,1.279,0,0,0-.214-.018h-26.267c0,.013-.007.024-.01.037a9.144,9.144,0,0,1-3.655,5.173l-.012.008" transform="translate(-1420.657 -1301.708)" fill="#ffae39"></path><rect id="Rect&#xE1;ngulo_717" data-name="Rect&#xE1;ngulo 717" width="0.635" height="5.218" transform="translate(254.385 252.004)" fill="#ffa412"></rect><rect id="Rect&#xE1;ngulo_718" data-name="Rect&#xE1;ngulo 718" width="0.635" height="5.218" transform="translate(256.535 252.004)" fill="#ffa412"></rect><rect id="Rect&#xE1;ngulo_719" data-name="Rect&#xE1;ngulo 719" width="0.635" height="5.218" transform="translate(259.114 252.004)" fill="#ffa412"></rect><rect id="Rect&#xE1;ngulo_720" data-name="Rect&#xE1;ngulo 720" width="0.635" height="5.218" transform="translate(263.067 252.004)" fill="#ffa412"></rect><rect id="Rect&#xE1;ngulo_721" data-name="Rect&#xE1;ngulo 721" width="0.635" height="5.218" transform="translate(267.246 252.004)" fill="#ffa412"></rect><rect id="Rect&#xE1;ngulo_722" data-name="Rect&#xE1;ngulo 722" width="0.635" height="5.218" transform="translate(273.654 252.004)" fill="#ffa412"></rect><rect id="Rect&#xE1;ngulo_723" data-name="Rect&#xE1;ngulo 723" width="0.635" height="5.218" transform="translate(279.654 252.004)" fill="#ffa412"></rect><rect id="Rect&#xE1;ngulo_724" data-name="Rect&#xE1;ngulo 724" width="0.635" height="5.218" transform="translate(285.011 252.004)" fill="#ffa412"></rect><rect id="Rect&#xE1;ngulo_725" data-name="Rect&#xE1;ngulo 725" width="0.635" height="5.218" transform="translate(252.338 252.004)" fill="#ffa412"></rect><rect id="Rect&#xE1;ngulo_726" data-name="Rect&#xE1;ngulo 726" width="0.635" height="5.218" transform="translate(250.986 252.004)" fill="#ffa412"></rect><rect id="Rect&#xE1;ngulo_727" data-name="Rect&#xE1;ngulo 727" width="0.635" height="5.218" transform="translate(249.68 252.004)" fill="#ffa412"></rect><path id="Trazado_796" data-name="Trazado 796" d="M1533.333,1553.729v5.181a1.551,1.551,0,0,0,.239.018h.4v-5.218h-.4a1.582,1.582,0,0,0-.239.018" transform="translate(-1284.635 -1301.708)" fill="#ffa412"></path><path id="Trazado_797" data-name="Trazado 797" d="M1527.895,1554.608v4.215a1.346,1.346,0,0,0,.635.425v-5.065a1.345,1.345,0,0,0-.635.425" transform="translate(-1280.079 -1302.103)" fill="#ffa412"></path><path id="Trazado_798" data-name="Trazado 798" d="M1527.19,1522.9v2.947a1,1,0,0,0,.232.634,1.346,1.346,0,0,0,.635.425,1.406,1.406,0,0,0,.193.049h0l.053.01a1.581,1.581,0,0,0,.239.018h55.894a1.445,1.445,0,0,0,.175-.01c.023,0,.045-.005.067-.009a1.23,1.23,0,0,0,1.109-1.059c0-.019,0-.039,0-.058V1522.9c0-.019,0-.039,0-.058a1.277,1.277,0,0,0-1.351-1.077h-55.894c-.036,0-.072,0-.107,0l-.046,0-.05.005-.036.005a1.466,1.466,0,0,0-.247.058l-.035.012-.034.013-.068.028c-.024.011-.049.022-.073.035s-.043.022-.063.034-.047.028-.07.043l-.052.036,0,0-.034.026a1.241,1.241,0,0,0-.1.085l-.027.026-.026.028c-.017.019-.034.038-.05.058a1,1,0,0,0-.232.634" transform="translate(-1279.489 -1274.946)" fill="#ffc76c"></path><path id="Trazado_799" data-name="Trazado 799" d="M1696.411,1526.987h29.944l.071,0c.026,0,.052,0,.077-.007a1.17,1.17,0,0,0,1.058-1.068c0-.019,0-.039,0-.058V1522.9c0-.019,0-.039,0-.058a1.182,1.182,0,0,0-1.206-1.077h-26.266l-.037.129a9.136,9.136,0,0,1-3.587,5.052l-.054.037" transform="translate(-1421.263 -1274.946)" fill="#ffae39"></path><rect id="Rect&#xE1;ngulo_728" data-name="Rect&#xE1;ngulo 728" width="0.635" height="5.218" transform="translate(254.503 246.823)" fill="#ffa412"></rect><rect id="Rect&#xE1;ngulo_729" data-name="Rect&#xE1;ngulo 729" width="0.635" height="5.218" transform="translate(256.653 246.823)" fill="#ffa412"></rect><rect id="Rect&#xE1;ngulo_730" data-name="Rect&#xE1;ngulo 730" width="0.635" height="5.218" transform="translate(259.232 246.823)" fill="#ffa412"></rect><rect id="Rect&#xE1;ngulo_731" data-name="Rect&#xE1;ngulo 731" width="0.635" height="5.218" transform="translate(263.184 246.823)" fill="#ffa412"></rect><rect id="Rect&#xE1;ngulo_732" data-name="Rect&#xE1;ngulo 732" width="0.635" height="5.218" transform="translate(267.364 246.823)" fill="#ffa412"></rect><rect id="Rect&#xE1;ngulo_733" data-name="Rect&#xE1;ngulo 733" width="0.635" height="5.218" transform="translate(273.772 246.823)" fill="#ffa412"></rect><rect id="Rect&#xE1;ngulo_734" data-name="Rect&#xE1;ngulo 734" width="0.635" height="5.218" transform="translate(279.771 246.823)" fill="#ffa412"></rect><rect id="Rect&#xE1;ngulo_735" data-name="Rect&#xE1;ngulo 735" width="0.635" height="5.218" transform="translate(285.128 246.823)" fill="#ffa412"></rect><rect id="Rect&#xE1;ngulo_736" data-name="Rect&#xE1;ngulo 736" width="0.635" height="5.218" transform="translate(252.456 246.823)" fill="#ffa412"></rect><rect id="Rect&#xE1;ngulo_737" data-name="Rect&#xE1;ngulo 737" width="0.635" height="5.218" transform="translate(251.104 246.823)" fill="#ffa412"></rect><rect id="Rect&#xE1;ngulo_738" data-name="Rect&#xE1;ngulo 738" width="0.635" height="5.218" transform="translate(249.798 246.823)" fill="#ffa412"></rect><path id="Trazado_800" data-name="Trazado 800" d="M1534.058,1521.787v5.182a1.562,1.562,0,0,0,.238.018h.4v-5.218h-.4a1.578,1.578,0,0,0-.238.018" transform="translate(-1285.243 -1274.946)" fill="#ffa412"></path><path id="Trazado_801" data-name="Trazado 801" d="M1528.618,1522.667v4.215a1.346,1.346,0,0,0,.635.425v-5.065a1.346,1.346,0,0,0-.635.425" transform="translate(-1280.685 -1275.343)" fill="#ffa412"></path><path id="Trazado_802" data-name="Trazado 802" d="M1509.385,1491.527v2.947a1,1,0,0,0,.232.634,1.344,1.344,0,0,0,.635.425,1.443,1.443,0,0,0,.247.059,1.579,1.579,0,0,0,.239.018h55.894a1.549,1.549,0,0,0,.624-.129,1.159,1.159,0,0,0,.723-.9c0-.017,0-.034,0-.051s0-.039,0-.058v-2.947c0-.02,0-.039,0-.058a1.277,1.277,0,0,0-1.351-1.077h-55.894a1.579,1.579,0,0,0-.239.018,1.443,1.443,0,0,0-.247.059,1.345,1.345,0,0,0-.635.425,1,1,0,0,0-.232.634" transform="translate(-1264.571 -1248.658)" fill="#ffc76c"></path><path id="Trazado_803" data-name="Trazado 803" d="M1678.606,1495.609h29.944a1.254,1.254,0,0,0,.556-.129,1.14,1.14,0,0,0,.645-.9c0-.017,0-.034,0-.051s0-.039,0-.058v-2.947c0-.02,0-.039,0-.058a1.182,1.182,0,0,0-1.206-1.077h-26.267a9.157,9.157,0,0,1-3.493,5.089l-.184.129" transform="translate(-1406.346 -1248.658)" fill="#ffae39"></path><rect id="Rect&#xE1;ngulo_739" data-name="Rect&#xE1;ngulo 739" width="0.635" height="5.218" transform="translate(251.615 241.734)" fill="#ffa412"></rect><rect id="Rect&#xE1;ngulo_740" data-name="Rect&#xE1;ngulo 740" width="0.635" height="5.218" transform="translate(253.765 241.734)" fill="#ffa412"></rect><rect id="Rect&#xE1;ngulo_741" data-name="Rect&#xE1;ngulo 741" width="0.635" height="5.218" transform="translate(256.344 241.734)" fill="#ffa412"></rect><rect id="Rect&#xE1;ngulo_742" data-name="Rect&#xE1;ngulo 742" width="0.635" height="5.218" transform="translate(260.296 241.734)" fill="#ffa412"></rect><rect id="Rect&#xE1;ngulo_743" data-name="Rect&#xE1;ngulo 743" width="0.635" height="5.218" transform="translate(264.476 241.734)" fill="#ffa412"></rect><rect id="Rect&#xE1;ngulo_744" data-name="Rect&#xE1;ngulo 744" width="0.635" height="5.218" transform="translate(270.884 241.734)" fill="#ffa412"></rect><rect id="Rect&#xE1;ngulo_745" data-name="Rect&#xE1;ngulo 745" width="0.635" height="5.218" transform="translate(276.883 241.734)" fill="#ffa412"></rect><rect id="Rect&#xE1;ngulo_746" data-name="Rect&#xE1;ngulo 746" width="0.635" height="5.218" transform="translate(282.24 241.734)" fill="#ffa412"></rect><rect id="Rect&#xE1;ngulo_747" data-name="Rect&#xE1;ngulo 747" width="0.635" height="5.218" transform="translate(249.568 241.734)" fill="#ffa412"></rect><rect id="Rect&#xE1;ngulo_748" data-name="Rect&#xE1;ngulo 748" width="0.635" height="5.218" transform="translate(248.215 241.734)" fill="#ffa412"></rect><rect id="Rect&#xE1;ngulo_749" data-name="Rect&#xE1;ngulo 749" width="0.635" height="5.218" transform="translate(246.91 241.734)" fill="#ffa412"></rect><path id="Trazado_804" data-name="Trazado 804" d="M1516.252,1490.41v5.182a1.549,1.549,0,0,0,.239.018h.4v-5.218h-.4a1.565,1.565,0,0,0-.239.018" transform="translate(-1270.325 -1248.659)" fill="#ffa412"></path><path id="Trazado_805" data-name="Trazado 805" d="M1510.813,1491.289v4.215a1.346,1.346,0,0,0,.635.425v-5.065a1.348,1.348,0,0,0-.635.425" transform="translate(-1265.768 -1249.054)" fill="#ffa412"></path><path id="Trazado_806" data-name="Trazado 806" d="M1481.224,1459.356v2.947a1,1,0,0,0,.232.634,1.347,1.347,0,0,0,.635.425,1.457,1.457,0,0,0,.248.058,1.563,1.563,0,0,0,.238.018h55.894a1.276,1.276,0,0,0,1.35-1.077c0-.02,0-.039,0-.058v-2.947c0-.02,0-.039,0-.058a1.246,1.246,0,0,0-1.19-1.069,1.512,1.512,0,0,0-.16-.008h-55.894a1.6,1.6,0,0,0-.238.018,1.493,1.493,0,0,0-.248.059,1.346,1.346,0,0,0-.635.425,1,1,0,0,0-.232.634" transform="translate(-1240.978 -1221.705)" fill="#ffc76c"></path><path id="Trazado_807" data-name="Trazado 807" d="M1650.444,1463.438h29.944a1.182,1.182,0,0,0,1.206-1.077c0-.02,0-.039,0-.058v-2.947c0-.02,0-.039,0-.058a1.171,1.171,0,0,0-1.063-1.069,1.191,1.191,0,0,0-.143-.008h-26.267l0,.008a9.147,9.147,0,0,1-3.675,5.21" transform="translate(-1382.751 -1221.705)" fill="#ffae39"></path><rect id="Rect&#xE1;ngulo_750" data-name="Rect&#xE1;ngulo 750" width="0.635" height="5.218" transform="translate(247.047 236.515)" fill="#ffa412"></rect><rect id="Rect&#xE1;ngulo_751" data-name="Rect&#xE1;ngulo 751" width="0.635" height="5.218" transform="translate(249.197 236.515)" fill="#ffa412"></rect><rect id="Rect&#xE1;ngulo_752" data-name="Rect&#xE1;ngulo 752" width="0.635" height="5.218" transform="translate(251.776 236.515)" fill="#ffa412"></rect><rect id="Rect&#xE1;ngulo_753" data-name="Rect&#xE1;ngulo 753" width="0.635" height="5.218" transform="translate(255.728 236.515)" fill="#ffa412"></rect><rect id="Rect&#xE1;ngulo_754" data-name="Rect&#xE1;ngulo 754" width="0.635" height="5.218" transform="translate(259.908 236.515)" fill="#ffa412"></rect><rect id="Rect&#xE1;ngulo_755" data-name="Rect&#xE1;ngulo 755" width="0.635" height="5.218" transform="translate(266.316 236.515)" fill="#ffa412"></rect><rect id="Rect&#xE1;ngulo_756" data-name="Rect&#xE1;ngulo 756" width="0.635" height="5.218" transform="translate(272.315 236.515)" fill="#ffa412"></rect><rect id="Rect&#xE1;ngulo_757" data-name="Rect&#xE1;ngulo 757" width="0.635" height="5.218" transform="translate(277.673 236.515)" fill="#ffa412"></rect><rect id="Rect&#xE1;ngulo_758" data-name="Rect&#xE1;ngulo 758" width="0.635" height="5.218" transform="translate(245 236.515)" fill="#ffa412"></rect><rect id="Rect&#xE1;ngulo_759" data-name="Rect&#xE1;ngulo 759" width="0.635" height="5.218" transform="translate(243.648 236.515)" fill="#ffa412"></rect><rect id="Rect&#xE1;ngulo_760" data-name="Rect&#xE1;ngulo 760" width="0.635" height="5.218" transform="translate(242.342 236.515)" fill="#ffa412"></rect><path id="Trazado_808" data-name="Trazado 808" d="M1488.089,1458.237v5.182a1.581,1.581,0,0,0,.239.018h.4v-5.218h-.4a1.55,1.55,0,0,0-.239.018" transform="translate(-1246.729 -1221.704)" fill="#ffa412"></path><path id="Trazado_809" data-name="Trazado 809" d="M1482.65,1459.117v4.215a1.346,1.346,0,0,0,.635.425v-5.065a1.345,1.345,0,0,0-.635.425" transform="translate(-1242.173 -1222.1)" fill="#ffa412"></path><path id="Trazado_810" data-name="Trazado 810" d="M1526.466,1427.234v2.947a1,1,0,0,0,.232.634,1.347,1.347,0,0,0,.635.425,1.505,1.505,0,0,0,.247.058l.079.01c.021,0,.042,0,.063,0l.031,0h55.96a1.277,1.277,0,0,0,1.351-1.077c0-.019,0-.039,0-.058v-2.947c0-.019,0-.038,0-.058a1.277,1.277,0,0,0-1.351-1.077h-55.894l-.072,0a1.613,1.613,0,0,0-.167.016,1.493,1.493,0,0,0-.247.059c-.04.013-.08.028-.117.044s-.047.02-.069.032l-.007,0-.068.036-.011.006a.7.7,0,0,0-.061.037,1.147,1.147,0,0,0-.134.1c-.013.01-.026.022-.038.033l-.007.006-.023.021,0,0c-.013.013-.027.027-.04.042s-.037.04-.054.062a1,1,0,0,0-.232.634" transform="translate(-1278.882 -1194.794)" fill="#ffc76c"></path><path id="Trazado_811" data-name="Trazado 811" d="M1695.688,1431.317h29.944a1.182,1.182,0,0,0,1.206-1.077c0-.019,0-.039,0-.058v-2.947c0-.019,0-.038,0-.058a1.182,1.182,0,0,0-1.206-1.077h-26.267c-.01.039-.022.08-.034.12a9.128,9.128,0,0,1-3.631,5.089l-.012.008" transform="translate(-1420.657 -1194.794)" fill="#ffae39"></path><rect id="Rect&#xE1;ngulo_761" data-name="Rect&#xE1;ngulo 761" width="0.635" height="5.218" transform="translate(254.385 231.306)" fill="#ffa412"></rect><rect id="Rect&#xE1;ngulo_762" data-name="Rect&#xE1;ngulo 762" width="0.635" height="5.218" transform="translate(256.535 231.306)" fill="#ffa412"></rect><rect id="Rect&#xE1;ngulo_763" data-name="Rect&#xE1;ngulo 763" width="0.635" height="5.218" transform="translate(259.114 231.306)" fill="#ffa412"></rect><rect id="Rect&#xE1;ngulo_764" data-name="Rect&#xE1;ngulo 764" width="0.635" height="5.218" transform="translate(263.067 231.306)" fill="#ffa412"></rect><rect id="Rect&#xE1;ngulo_765" data-name="Rect&#xE1;ngulo 765" width="0.635" height="5.218" transform="translate(267.246 231.306)" fill="#ffa412"></rect><rect id="Rect&#xE1;ngulo_766" data-name="Rect&#xE1;ngulo 766" width="0.635" height="5.218" transform="translate(273.654 231.306)" fill="#ffa412"></rect><rect id="Rect&#xE1;ngulo_767" data-name="Rect&#xE1;ngulo 767" width="0.635" height="5.218" transform="translate(279.654 231.306)" fill="#ffa412"></rect><rect id="Rect&#xE1;ngulo_768" data-name="Rect&#xE1;ngulo 768" width="0.635" height="5.218" transform="translate(285.011 231.306)" fill="#ffa412"></rect><rect id="Rect&#xE1;ngulo_769" data-name="Rect&#xE1;ngulo 769" width="0.635" height="5.218" transform="translate(252.338 231.306)" fill="#ffa412"></rect><rect id="Rect&#xE1;ngulo_770" data-name="Rect&#xE1;ngulo 770" width="0.635" height="5.218" transform="translate(250.986 231.306)" fill="#ffa412"></rect><rect id="Rect&#xE1;ngulo_771" data-name="Rect&#xE1;ngulo 771" width="0.635" height="5.218" transform="translate(249.68 231.306)" fill="#ffa412"></rect><path id="Trazado_812" data-name="Trazado 812" d="M1533.333,1426.117v5.182a1.566,1.566,0,0,0,.239.018h.4V1426.1h-.4a1.582,1.582,0,0,0-.239.018" transform="translate(-1284.635 -1194.794)" fill="#ffa412"></path><path id="Trazado_813" data-name="Trazado 813" d="M1527.895,1427v4.215a1.347,1.347,0,0,0,.635.425v-5.065a1.345,1.345,0,0,0-.635.425" transform="translate(-1280.079 -1195.189)" fill="#ffa412"></path><path id="Trazado_814" data-name="Trazado 814" d="M1501.13,1395.806v2.947a1,1,0,0,0,.232.634,1.344,1.344,0,0,0,.635.425,1.473,1.473,0,0,0,.247.059,1.58,1.58,0,0,0,.239.018h55.894a1.55,1.55,0,0,0,.6-.12,1.162,1.162,0,0,0,.743-.91c0-.015,0-.031,0-.047s0-.039,0-.058v-2.947c0-.02,0-.039,0-.058a1.247,1.247,0,0,0-1.191-1.069,1.562,1.562,0,0,0-.16-.008h-55.894a1.549,1.549,0,0,0-.239.018,1.45,1.45,0,0,0-.247.058,1.346,1.346,0,0,0-.635.425,1,1,0,0,0-.232.634" transform="translate(-1257.656 -1168.462)" fill="#ffc76c"></path><path id="Trazado_815" data-name="Trazado 815" d="M1670.352,1399.888H1700.3a1.256,1.256,0,0,0,.539-.12,1.142,1.142,0,0,0,.663-.91c0-.015,0-.031,0-.047s0-.039,0-.058v-2.947c0-.02,0-.039,0-.058a1.172,1.172,0,0,0-1.063-1.069,1.237,1.237,0,0,0-.143-.008h-26.267l0,.008a9.153,9.153,0,0,1-3.5,5.09c-.056.041-.114.081-.172.12" transform="translate(-1399.431 -1168.462)" fill="#ffae39"></path><rect id="Rect&#xE1;ngulo_772" data-name="Rect&#xE1;ngulo 772" width="0.635" height="5.218" transform="translate(250.276 226.208)" fill="#ffa412"></rect><rect id="Rect&#xE1;ngulo_773" data-name="Rect&#xE1;ngulo 773" width="0.635" height="5.218" transform="translate(252.426 226.208)" fill="#ffa412"></rect><rect id="Rect&#xE1;ngulo_774" data-name="Rect&#xE1;ngulo 774" width="0.635" height="5.218" transform="translate(255.005 226.208)" fill="#ffa412"></rect><rect id="Rect&#xE1;ngulo_775" data-name="Rect&#xE1;ngulo 775" width="0.635" height="5.218" transform="translate(258.957 226.208)" fill="#ffa412"></rect><rect id="Rect&#xE1;ngulo_776" data-name="Rect&#xE1;ngulo 776" width="0.635" height="5.218" transform="translate(263.137 226.208)" fill="#ffa412"></rect><rect id="Rect&#xE1;ngulo_777" data-name="Rect&#xE1;ngulo 777" width="0.635" height="5.218" transform="translate(269.545 226.208)" fill="#ffa412"></rect><rect id="Rect&#xE1;ngulo_778" data-name="Rect&#xE1;ngulo 778" width="0.635" height="5.218" transform="translate(275.544 226.208)" fill="#ffa412"></rect><rect id="Rect&#xE1;ngulo_779" data-name="Rect&#xE1;ngulo 779" width="0.635" height="5.218" transform="translate(280.901 226.208)" fill="#ffa412"></rect><rect id="Rect&#xE1;ngulo_780" data-name="Rect&#xE1;ngulo 780" width="0.635" height="5.218" transform="translate(248.229 226.208)" fill="#ffa412"></rect><rect id="Rect&#xE1;ngulo_781" data-name="Rect&#xE1;ngulo 781" width="0.635" height="5.218" transform="translate(246.877 226.208)" fill="#ffa412"></rect><rect id="Rect&#xE1;ngulo_782" data-name="Rect&#xE1;ngulo 782" width="0.635" height="5.218" transform="translate(245.571 226.208)" fill="#ffa412"></rect><path id="Trazado_816" data-name="Trazado 816" d="M1508,1394.688v5.181a1.547,1.547,0,0,0,.239.018h.4v-5.218h-.4a1.547,1.547,0,0,0-.239.018" transform="translate(-1263.409 -1168.462)" fill="#ffa412"></path><path id="Trazado_817" data-name="Trazado 817" d="M1502.559,1395.567v4.215a1.345,1.345,0,0,0,.635.425v-5.064a1.344,1.344,0,0,0-.635.425" transform="translate(-1258.853 -1168.858)" fill="#ffa412"></path><path id="Trazado_818" data-name="Trazado 818" d="M1490.345,1363.685v2.947a1,1,0,0,0,.232.634,1.344,1.344,0,0,0,.635.425,1.468,1.468,0,0,0,.247.058l.079.01.044,0,.044,0,.072,0h55.894a1.277,1.277,0,0,0,1.351-1.077c0-.019,0-.039,0-.058v-2.947c0-.019,0-.039,0-.058a1.277,1.277,0,0,0-1.351-1.077H1491.7a1.581,1.581,0,0,0-.239.018,1.479,1.479,0,0,0-.247.058,1.346,1.346,0,0,0-.635.425,1,1,0,0,0-.232.634" transform="translate(-1248.62 -1141.551)" fill="#ffc76c"></path><path id="Trazado_819" data-name="Trazado 819" d="M1659.565,1367.767h29.945a1.182,1.182,0,0,0,1.206-1.077c0-.019,0-.039,0-.058v-2.947c0-.019,0-.039,0-.058a1.182,1.182,0,0,0-1.206-1.077h-26.267a9.146,9.146,0,0,1-3.666,5.21l-.012.008" transform="translate(-1390.393 -1141.551)" fill="#ffae39"></path><rect id="Rect&#xE1;ngulo_783" data-name="Rect&#xE1;ngulo 783" width="0.635" height="5.218" transform="translate(248.526 220.998)" fill="#ffa412"></rect><rect id="Rect&#xE1;ngulo_784" data-name="Rect&#xE1;ngulo 784" width="0.635" height="5.218" transform="translate(250.677 220.998)" fill="#ffa412"></rect><rect id="Rect&#xE1;ngulo_785" data-name="Rect&#xE1;ngulo 785" width="0.635" height="5.218" transform="translate(253.256 220.998)" fill="#ffa412"></rect><rect id="Rect&#xE1;ngulo_786" data-name="Rect&#xE1;ngulo 786" width="0.635" height="5.218" transform="translate(257.208 220.998)" fill="#ffa412"></rect><rect id="Rect&#xE1;ngulo_787" data-name="Rect&#xE1;ngulo 787" width="0.635" height="5.218" transform="translate(261.388 220.998)" fill="#ffa412"></rect><rect id="Rect&#xE1;ngulo_788" data-name="Rect&#xE1;ngulo 788" width="0.635" height="5.218" transform="translate(267.795 220.998)" fill="#ffa412"></rect><rect id="Rect&#xE1;ngulo_789" data-name="Rect&#xE1;ngulo 789" width="0.635" height="5.218" transform="translate(273.795 220.998)" fill="#ffa412"></rect><rect id="Rect&#xE1;ngulo_790" data-name="Rect&#xE1;ngulo 790" width="0.635" height="5.218" transform="translate(279.152 220.998)" fill="#ffa412"></rect><rect id="Rect&#xE1;ngulo_791" data-name="Rect&#xE1;ngulo 791" width="0.635" height="5.218" transform="translate(246.48 220.998)" fill="#ffa412"></rect><rect id="Rect&#xE1;ngulo_792" data-name="Rect&#xE1;ngulo 792" width="0.635" height="5.218" transform="translate(245.127 220.998)" fill="#ffa412"></rect><rect id="Rect&#xE1;ngulo_793" data-name="Rect&#xE1;ngulo 793" width="0.635" height="5.218" transform="translate(243.822 220.998)" fill="#ffa412"></rect><path id="Trazado_820" data-name="Trazado 820" d="M1497.212,1362.567v5.182a1.577,1.577,0,0,0,.238.018h.4v-5.218h-.4a1.577,1.577,0,0,0-.238.018" transform="translate(-1254.373 -1141.551)" fill="#ffa412"></path><path id="Trazado_821" data-name="Trazado 821" d="M1491.773,1363.446v4.215a1.347,1.347,0,0,0,.635.425v-5.065a1.347,1.347,0,0,0-.635.425" transform="translate(-1249.816 -1141.946)" fill="#ffa412"></path><path id="Trazado_822" data-name="Trazado 822" d="M1794.518,1411.432A26.564,26.564,0,1,0,1767.954,1438a26.564,26.564,0,0,0,26.564-26.564" transform="translate(-1458.947 -1160.25)" fill="#e2810e"></path><path id="Trazado_823" data-name="Trazado 823" d="M1808.805,1411.432A26.564,26.564,0,1,0,1782.241,1438a26.564,26.564,0,0,0,26.564-26.564" transform="translate(-1470.916 -1160.25)" fill="#ffc76c"></path><path id="Trazado_824" data-name="Trazado 824" d="M1777.326,1442.678a24.2,24.2,0,1,1,17.114,7.089,24.046,24.046,0,0,1-17.114-7.089m-5.645-17.114a22.759,22.759,0,1,0,22.759-22.759,22.785,22.785,0,0,0-22.759,22.759" transform="translate(-1483.115 -1174.068)" fill="#ffa412"></path><path id="Trazado_825" data-name="Trazado 825" d="M1868.084,1465.279a3.985,3.985,0,0,0-.057-1.405,2.913,2.913,0,0,0-.594-1.167,5.5,5.5,0,0,0-1.188-1.049,14.556,14.556,0,0,0-1.841-1.031,38.007,38.007,0,0,1-3.4-1.869,12.05,12.05,0,0,1-2.543-2.069,7.092,7.092,0,0,1-1.5-2.522,8,8,0,0,1,.646-6.048,6.725,6.725,0,0,1,1.875-2.083,8.4,8.4,0,0,1,2.685-1.279,11.2,11.2,0,0,1,3.353-.386l.473-3.989,3.211.381-.48,4.045a10.031,10.031,0,0,1,3.022,1.285,7.59,7.59,0,0,1,3.383,4.853,10.108,10.108,0,0,1,.132,3.428l-5.8-.688a4.921,4.921,0,0,0-.6-3.464,3.419,3.419,0,0,0-2.527-1.425,4.342,4.342,0,0,0-1.585.067,2.94,2.94,0,0,0-1.156.562,2.743,2.743,0,0,0-.745.961,4.043,4.043,0,0,0-.353,1.263,3.7,3.7,0,0,0,.052,1.273,2.736,2.736,0,0,0,.57,1.117,5.528,5.528,0,0,0,1.2,1.049,18.656,18.656,0,0,0,1.914,1.106q1.86.958,3.365,1.912a12.2,12.2,0,0,1,2.53,2.086,6.842,6.842,0,0,1,1.761,5.739,7.309,7.309,0,0,1-.921,2.877,6.65,6.65,0,0,1-1.883,2.064,8.124,8.124,0,0,1-2.7,1.23,12.1,12.1,0,0,1-3.37.356l-.44,3.709-3.191-.379.438-3.691a13.572,13.572,0,0,1-3.135-1.109,8.589,8.589,0,0,1-2.568-1.94,7.687,7.687,0,0,1-1.611-2.885,9.365,9.365,0,0,1-.267-3.926l5.8.688a5.767,5.767,0,0,0,.109,2.253,3.73,3.73,0,0,0,.825,1.535,3.617,3.617,0,0,0,1.327.914,6.209,6.209,0,0,0,1.59.406,5.171,5.171,0,0,0,1.684-.046,3.447,3.447,0,0,0,1.274-.53,2.75,2.75,0,0,0,.843-.93,3.346,3.346,0,0,0,.392-1.248" transform="translate(-1553.419 -1206.758)" fill="#ffa412"></path><path id="Trazado_826" data-name="Trazado 826" d="M1124.991,1470.389s-3.352,4.72-6.426,4.785-7.749-2.187-7.749-2.187-2.822-6.29-.908-8.75a4.111,4.111,0,0,1,3.927.645,6.034,6.034,0,0,1,1.039,1,3.3,3.3,0,0,0,1.613,1.094c2.193.667,4.8-.9,5.77.612a10.286,10.286,0,0,0,1.7,2.007,7.735,7.735,0,0,0,1.039.8" transform="translate(-929.33 -1226.546)" fill="#ffeddc"></path><path id="Trazado_827" data-name="Trazado 827" d="M936.88,1562.156s11.849-28.712,33.178-29.258c0,0,19.688,2.188,20.781,29.258Z" transform="translate(-784.924 -1284.27)" fill="#ffeddc"></path><path id="Trazado_828" data-name="Trazado 828" d="M1105.194,1519.11s8.549,1.9,11.187.784c0,0,.4-3.575-3.2-3.073a7.554,7.554,0,0,1-5.013-1.322c-1.336-.68-3.327,2.116-2.972,3.611" transform="translate(-925.903 -1269.606)" fill="#2b478b"></path><path id="Trazado_829" data-name="Trazado 829" d="M1139.783,1475.222c-.547.41-2.226-5.781-2.226-5.781a6.007,6.007,0,0,1,1.039,1,3.3,3.3,0,0,0,1.613,1.094c.006.181.1,3.292-.427,3.691" transform="translate(-953.052 -1231.106)" fill="#e5c1a1"></path><path id="Trazado_830" data-name="Trazado 830" d="M1175.819,1488.106c-.12.071-4.074,2.439-4.61,2.439s2.915-4.446,2.915-4.446a10.291,10.291,0,0,0,1.7,2.007" transform="translate(-981.196 -1245.062)" fill="#e5c1a1"></path><path id="Trazado_831" data-name="Trazado 831" d="M1008.228,1597.911c-.219-.187,8.386-12.669,10.755-12.761s7.694,2.735,11.549,3.1,7.592-.729,8.321,1.55,2.734,10.357,1.5,11.65-27.4.5-32.129-3.538" transform="translate(-844.696 -1328.045)" fill="#f9ddbf"></path><path id="Trazado_832" data-name="Trazado 832" d="M1579.18,1500.279a1.458,1.458,0,0,1,.26,1.559.015.015,0,0,1,0,.008,9.693,9.693,0,0,1-3.062,3.359c-.185.149-.349.284-.491.41-.037.033-.075.066-.11.1l-.085.077c-1.346,1.241-.839,1.525-3.257,4.042-2.757,2.869-4.655,2.92-5.2,2.659-.457-.223.471-1.744,1.5-3.454.05-.082.1-.166.15-.249.137-.227.273-.458.409-.687,1.205-2.058.9-3.024.61-6.086-.232-2.489-3.872-13.9-3.872-13.9l5.283-.91s1.591,9.09,3.344,10.49c.937.746,1.987.756,2.888,1.309q.1.058.187.118a6.941,6.941,0,0,1,1.446,1.162" transform="translate(-1312.031 -1245.984)" fill="#ffb27d"></path><path id="Trazado_833" data-name="Trazado 833" d="M1584.778,1561.224a1.458,1.458,0,0,1,.26,1.559.013.013,0,0,1,0,.008,11.219,11.219,0,0,1-3.067,3.348c-.182.151-.343.29-.486.421-.038.033-.075.066-.11.1l-.085.077c-1.346,1.241-.839,1.525-3.257,4.042-2.757,2.869-4.655,2.92-5.2,2.659-.457-.223.471-1.744,1.5-3.454a11.749,11.749,0,0,0,4.914-3.621c1.66-2.118,2.767-4.84,3.9-6.417q.1.057.187.118a6.95,6.95,0,0,1,1.446,1.162" transform="translate(-1317.628 -1306.93)" fill="#233862"></path><path id="Trazado_834" data-name="Trazado 834" d="M1302.528,1488.674c-.326,1.631-2.651,1.359-5.248.724s-1.98.12-5.676-.289-4.816-1.787-4.929-2.337c-.1-.488,1.725-.66,3.684-.885.246-.028.494-.058.741-.089,2.212-.277,3.832-1.7,5.841-2.877,1.9-1.11,4.743-5.634,4.743-5.634l5.069.4s-2.66,4.04-3.689,5.8a6.127,6.127,0,0,0-.5,3.454,6.506,6.506,0,0,1-.039,1.734" transform="translate(-1077.981 -1237.679)" fill="#ffb27d"></path><path id="Trazado_835" data-name="Trazado 835" d="M1297.279,1533.818c-2.6-.635-1.98.12-5.676-.289s-4.816-1.788-4.929-2.337c-.1-.488,1.726-.66,3.685-.885l.018.038a10.421,10.421,0,0,0,5.294,1.646c2.508.061,5.164-.658,6.9-.63a6.515,6.515,0,0,1-.039,1.734c-.326,1.631-2.651,1.359-5.248.724" transform="translate(-1077.98 -1282.099)" fill="#233862"></path><path id="Trazado_836" data-name="Trazado 836" d="M1504.21,1305.674l4.739,12.752,6.187,16.65a10.027,10.027,0,0,0,3.287-.3,14.256,14.256,0,0,0,3.179-1.547s-1.718-17.877-4.923-28.139a18.275,18.275,0,0,0-2.757-5.964c-4.968-5.871-9.711,6.55-9.711,6.55" transform="translate(-1260.236 -1087.093)" fill="#233862"></path><path id="Trazado_837" data-name="Trazado 837" d="M1389.167,1209.637c3.1-1,11.959.285,20.854,2.025l1.862-3.072,19.212-1.5s6.34,14.059,2.869,23.017a3.249,3.249,0,0,1-3.252,2.189h-.28s-11.435-.007-15.148-.007c-9.555,0-20.221-6.568-21.6-6.844-2.259-.452-3.162,4.065-5.42,8.808s-21.229,21-21.229,21a16.692,16.692,0,0,1-4.12-.423,4.055,4.055,0,0,1-1.769-1.117s21.021-41.822,28.022-44.081" transform="translate(-1140.375 -1011.307)" fill="#2b478b"></path><path id="Trazado_838" data-name="Trazado 838" d="M1621.076,891.538c6.059,4.927,20.658,13.466,20.737,13.43,0,0,4.676,2.8,7.867,1.427,5.318-2.291,9.4-10.313,2.046-19.187-3.669-4.426-6.71-5.884-6-11.768.774-6.376-2.105-14.391-9.443-14.727-.613-.028-4.329-.525-6.981.308-6.759,2.121-18.061,27.253-8.23,30.518" transform="translate(-1354.92 -720.965)" fill="#233862"></path><path id="Trazado_839" data-name="Trazado 839" d="M1683.278,1040.383c-.4,1.092-10.783,2.065-16.693,1.673-1.877-.122-3.307-.386-3.814-.824-2.108-1.831-1.9,2.2-2.187-17.073-.14-9.4,7.975-17.77,7.975-17.77s.648,4.015,8.7-.763c.286-.167,3.456,4.526,6.506,10.305,3.361,6.385-.079,23.33-.484,24.452" transform="translate(-1391.245 -842.515)" fill="#aec3ff"></path><path id="Trazado_840" data-name="Trazado 840" d="M1533.427,1357.375l6.187,16.65a10.027,10.027,0,0,0,3.287-.3,14.254,14.254,0,0,0,3.179-1.547s-1.718-17.877-4.923-28.139Z" transform="translate(-1284.714 -1126.042)" fill="#2b478b"></path><path id="Trazado_841" data-name="Trazado 841" d="M1590.189,1010.345s-7.348,1.8-9.254,4.97c-2.321,3.857-13.895,21.246-13.895,21.246s11.41,4.036,13.355,2.091,6.767-18.044,6.767-18.044Z" transform="translate(-1312.876 -846.472)" fill="#aec3ff"></path><path id="Trazado_842" data-name="Trazado 842" d="M1713.852,971.428a19.965,19.965,0,0,1-5.16,3.561c-.86.314-2.288.657-2.288.657s-1.146-1.16-1.163-1.175c-1.019-.951,0-1.226-.149-3.024-.008-.085-.015-.172-.025-.26a32.516,32.516,0,0,0-.824-4.359.016.016,0,0,1,0-.006l7.11-2.033-.229.393c.438,3.69,1.764,6.138,2.729,6.246" transform="translate(-1427.823 -808.305)" fill="#ffb27d"></path><path id="Trazado_843" data-name="Trazado 843" d="M1711.351,964.789a7.944,7.944,0,0,1-6.406,5.437,33.954,33.954,0,0,0-.7-3.4.016.016,0,0,1,0-.006Z" transform="translate(-1427.823 -808.305)" fill="#ed975d"></path><path id="Trazado_844" data-name="Trazado 844" d="M1675.653,905.247s9.584-.638,9.1-6.6.419-10.06-5.721-9.906-7.141,2.527-7.462,4.557,1.581,11.96,4.087,11.948" transform="translate(-1400.418 -744.589)" fill="#ffb27d"></path><path id="Trazado_845" data-name="Trazado 845" d="M1686.326,881.459s2.382,6.987,8.036,7.8c4.124.592,5.762-.522,5.762-.522a16.188,16.188,0,0,1-3.55-5.553,2.914,2.914,0,0,0-2.282-1.875c-2.936-.453-6.726-2.4-7.966.151" transform="translate(-1412.814 -737.413)" fill="#233862"></path><path id="Trazado_846" data-name="Trazado 846" d="M1672.448,889.074a6.323,6.323,0,0,0-2.9,3.246,12.2,12.2,0,0,0-.722,6.091s-2.756-6.375-.76-9.249c2.116-3.047,4.387-.088,4.387-.088" transform="translate(-1396.904 -743.791)" fill="#233862"></path><path id="Trazado_847" data-name="Trazado 847" d="M1702.266,1005.836s.586,3.538,1.312,4.2a5.143,5.143,0,0,1-2.71-3.055s.643-1.063,1.4-1.144" transform="translate(-1424.997 -842.695)" fill="#91b0f2"></path><path id="Trazado_848" data-name="Trazado 848" d="M1642.8,1079.962s-5.352,6.421-4.693,8.746,4.365,2.325,4.365,2.325-.692-4.954,0-7.532,1.127-3.691.328-3.539" transform="translate(-1372.371 -904.787)" fill="#91b0f2"></path><path id="Trazado_849" data-name="Trazado 849" d="M1733.261,1119.025s7.71-4.7,7.609-7.429,0-7.739.726-7.037,3.009,6.329,2.789,7.922-8,12.718-8.969,12.691c-6.872-.192-2.155-6.146-2.155-6.146" transform="translate(-1450.813 -925.349)" fill="#91b0f2"></path><path id="Trazado_850" data-name="Trazado 850" d="M1723.529,995.611s-4.21,5.295-5.952,5.858a11.974,11.974,0,0,0,8.44-4.13s-1.167-1.711-2.488-1.728" transform="translate(-1438.996 -834.128)" fill="#91b0f2"></path><path id="Trazado_851" data-name="Trazado 851" d="M1513.777,1057.87a19.539,19.539,0,1,1,19.538,19.538,19.539,19.539,0,0,1-19.538-19.538" transform="translate(-1268.251 -869.919)" fill="#e2810e"></path><path id="Trazado_852" data-name="Trazado 852" d="M1503.269,1057.87a19.539,19.539,0,1,1,19.538,19.538,19.538,19.538,0,0,1-19.538-19.538" transform="translate(-1259.448 -869.919)" fill="#ffc76c"></path><path id="Trazado_853" data-name="Trazado 853" d="M1531.778,1086.066a17.8,17.8,0,1,1,12.587-5.214,17.684,17.684,0,0,1-12.587,5.214m0-34.541a16.74,16.74,0,1,0,16.74,16.74,16.759,16.759,0,0,0-16.74-16.74" transform="translate(-1268.418 -880.083)" fill="#ffa412"></path><path id="Trazado_854" data-name="Trazado 854" d="M1585.91,1097.476a2.939,2.939,0,0,0-.042-1.034,2.143,2.143,0,0,0-.437-.858,4.059,4.059,0,0,0-.874-.771,10.755,10.755,0,0,0-1.354-.758,28.042,28.042,0,0,1-2.5-1.375,8.87,8.87,0,0,1-1.87-1.522,5.217,5.217,0,0,1-1.1-1.855,5.882,5.882,0,0,1,.475-4.449,4.944,4.944,0,0,1,1.379-1.532,6.18,6.18,0,0,1,1.975-.941,8.225,8.225,0,0,1,2.466-.284l.348-2.934,2.361.28-.353,2.975a7.382,7.382,0,0,1,2.223.945,5.585,5.585,0,0,1,2.488,3.57,7.438,7.438,0,0,1,.1,2.521l-4.266-.506a3.618,3.618,0,0,0-.439-2.548,2.515,2.515,0,0,0-1.859-1.048,3.2,3.2,0,0,0-1.166.049,2.167,2.167,0,0,0-.85.413,2.021,2.021,0,0,0-.548.707,2.967,2.967,0,0,0-.26.928,2.716,2.716,0,0,0,.039.936,2.01,2.01,0,0,0,.419.821,4.062,4.062,0,0,0,.881.772,13.717,13.717,0,0,0,1.408.814q1.368.7,2.475,1.406a8.955,8.955,0,0,1,1.861,1.535,5.033,5.033,0,0,1,1.3,4.221,5.376,5.376,0,0,1-.678,2.116,4.893,4.893,0,0,1-1.385,1.518,5.966,5.966,0,0,1-1.986.9,8.9,8.9,0,0,1-2.478.262l-.324,2.728-2.347-.279.322-2.715a9.968,9.968,0,0,1-2.306-.816,6.323,6.323,0,0,1-1.889-1.427,5.659,5.659,0,0,1-1.185-2.122,6.886,6.886,0,0,1-.2-2.887l4.266.506a4.237,4.237,0,0,0,.081,1.657,2.738,2.738,0,0,0,.607,1.129,2.66,2.66,0,0,0,.976.672,4.552,4.552,0,0,0,1.169.3,3.8,3.8,0,0,0,1.239-.034,2.537,2.537,0,0,0,.937-.39,2.019,2.019,0,0,0,.62-.684,2.47,2.47,0,0,0,.289-.918" transform="translate(-1320.099 -904.129)" fill="#ffa412"></path><path id="Trazado_855" data-name="Trazado 855" d="M1494.814,1163.392s-.219-3.21.994-3.083c1.489.155,3.07,3.686,2.344,4.369s-3.323-.494-3.338-1.285" transform="translate(-1252.351 -972.109)" fill="#ffb27d"></path><path id="Trazado_856" data-name="Trazado 856" d="M1704.572,1217.509l-1.81-1.085a4.682,4.682,0,0,0-1.783-.354c-.661.095-2.232-.183-2.281.074s1.509,1.4,1.509,1.4c-.938,1.438-4.334,1.7-4.592,2.244-.313.656,1.221,1.273,2.053,1.63s2.961.683,4.189-.251c.9-.682,2.375-1.581,2.375-1.581Z" transform="translate(-1420.561 -1018.799)" fill="#ffb27d"></path><path id="Trazado_857" data-name="Trazado 857" d="M1746.088,1005.656s7.6.5,9.5,3.463,8.007,19.859,7.018,25.03-19.072,11.377-19.072,11.377a3.394,3.394,0,0,1-.8-2.547,5.3,5.3,0,0,1,.578-2.186s11.095-9.271,10.332-11.118c-2.82-6.819-7.561-24.019-7.561-24.019" transform="translate(-1460.077 -842.544)" fill="#aec3ff"></path><path id="Trazado_858" data-name="Trazado 858" d="M511.059,1714.2l-445.3-.153a.566.566,0,0,1-.564-.564v-.344a.566.566,0,0,1,.564-.564l445.3.153a.566.566,0,0,1,.564.564v.344a.566.566,0,0,1-.564.564" transform="translate(-54.623 -1434.806)" fill="#2e3552"></path><path id="Trazado_859" data-name="Trazado 859" d="M1546.129,539.887a2.4,2.4,0,0,0-.328-.777,1.748,1.748,0,0,0-.579-.53,3.31,3.31,0,0,0-.887-.339,8.732,8.732,0,0,0-1.25-.191,22.858,22.858,0,0,1-2.3-.333,7.216,7.216,0,0,1-1.862-.627,4.251,4.251,0,0,1-1.374-1.1,4.794,4.794,0,0,1-.909-3.53,4.029,4.029,0,0,1,.614-1.564,5.037,5.037,0,0,1,1.238-1.282,6.718,6.718,0,0,1,1.8-.922l-.573-2.338,1.882-.461.581,2.371a6.011,6.011,0,0,1,1.966.085,4.55,4.55,0,0,1,2.919,2.012,6.047,6.047,0,0,1,.795,1.9l-3.4.833a2.948,2.948,0,0,0-1.063-1.819,2.049,2.049,0,0,0-1.718-.268,2.606,2.606,0,0,0-.875.371,1.766,1.766,0,0,0-.53.558,1.643,1.643,0,0,0-.216.7,2.418,2.418,0,0,0,.067.783,2.211,2.211,0,0,0,.3.7,1.637,1.637,0,0,0,.555.507,3.3,3.3,0,0,0,.893.337,11.194,11.194,0,0,0,1.307.218q1.245.146,2.29.365a7.3,7.3,0,0,1,1.858.639,4.1,4.1,0,0,1,2.2,2.85,4.38,4.38,0,0,1,.088,1.808,3.986,3.986,0,0,1-.623,1.554,4.86,4.86,0,0,1-1.256,1.258,7.256,7.256,0,0,1-1.816.909l.533,2.174-1.87.458-.531-2.163a8.125,8.125,0,0,1-1.992.037,5.151,5.151,0,0,1-1.849-.549,4.608,4.608,0,0,1-1.511-1.28,5.609,5.609,0,0,1-.976-2.147l3.4-.834a3.453,3.453,0,0,0,.535,1.241,2.236,2.236,0,0,0,.786.688,2.174,2.174,0,0,0,.937.234,3.709,3.709,0,0,0,.978-.107,3.1,3.1,0,0,0,.936-.38,2.07,2.07,0,0,0,.6-.565,1.653,1.653,0,0,0,.278-.7,2.01,2.01,0,0,0-.042-.783" transform="translate(-1287.359 -440.596)" fill="#a8d29f"></path></g></g></g></svg>