<svg xmlns="http://www.w3.org/2000/svg" xmlns:xlink="http://www.w3.org/1999/xlink" id="Grupo_1284" data-name="Grupo 1284" width="587.671" height="278" viewBox="0 0 587.671 278"><defs><clipPath id="clip-path"><rect id="Rect&#xE1;ngulo_3955" data-name="Rect&#xE1;ngulo 3955" width="587.671" height="278" fill="none"></rect></clipPath><clipPath id="clip-path-2"><rect id="Rect&#xE1;ngulo_3954" data-name="Rect&#xE1;ngulo 3954" width="587.671" height="277.999" fill="none"></rect></clipPath><clipPath id="clip-path-3"><rect id="Rect&#xE1;ngulo_3837" data-name="Rect&#xE1;ngulo 3837" width="133.037" height="55.237" fill="none"></rect></clipPath></defs><g id="Grupo_1283" data-name="Grupo 1283" transform="translate(0)" clip-path="url(#clip-path)"><g id="Grupo_1282" data-name="Grupo 1282" transform="translate(0.001 0.001)"><g id="Grupo_1281" data-name="Grupo 1281" clip-path="url(#clip-path-2)"><path id="Trazado_5930" data-name="Trazado 5930" d="M26.178,277.7v0c.018.1.039.2.061.3l9.006-.029,139.631-.429,92.139-.282,2.8-.01,6.486-.018,84.291-.259,133.978-.413,24.674-.076,6.558-.021,2.293-.006.366,0,.754,0,25.593-.08h0l7.131-.018h0l.776,0,4.168-.014h0l2.855-.01,1.26,0s.055-.09.159-.266c.035-.061.078-.135.127-.219l.245-.427c.031-.057.065-.116.1-.18.125-.222.266-.474.423-.762.192-.349.406-.747.643-1.19v0c.882-1.654,2.052-3.948,3.382-6.8q.656-1.4,1.356-2.986c.186-.421.372-.847.562-1.284v0q.276-.634.552-1.295l.018-.043q.19-.453.384-.921c.135-.319.268-.641.4-.968.686-1.687,1.389-3.478,2.087-5.367l.055-.149v0q.686-1.853,1.364-3.827.374-1.085.739-2.2c.014-.045.031-.09.045-.139.108-.331.214-.662.323-1,.09-.282.18-.564.267-.848q.276-.876.549-1.771.35-1.149.69-2.33.46-1.6.9-3.26c.088-.331.176-.664.261-1q.386-1.5.755-3.033.12-.493.233-.988c.049-.2.1-.408.143-.613q.555-2.429,1.048-4.95.542-2.775.993-5.655.414-2.656.739-5.393.306-2.582.519-5.226c.335-4.123.488-8.357.423-12.668a117.955,117.955,0,0,0-2.592-23.1c-.061-.286-.125-.57-.188-.856q-.628-2.8-1.411-5.608-.6-2.141-1.293-4.287-.506-1.553-1.062-3.11-1.262-3.523-2.808-7.044-.426-.974-.878-1.948a118.012,118.012,0,0,0-25.64-35.424l-.66-.633a181.207,181.207,0,0,0-17.3-14.645l-.627-.462C474.565,55.658,421.755,86.74,393.732,85.019c-5.514-.337-10.356-2.528-15.117-6-8.722-6.357-17.161-17.014-28.934-28.453C332.03,33.426,306.892,14.521,262.092,5.687,206.656-5.245,130.5-2.18,97.552,30.675,77.622,50.55,73.5,81.324,99.347,126.5q2.355,4.117,5.05,8.4,2.264,3.6,3.956,6.87a49.954,49.954,0,0,1,5.237,14.643c1.7,10.364-2.212,17.7-9.231,23.739a56.659,56.659,0,0,1-6.329,4.65l-.441.282c-8.2,5.183-18.566,9.633-28.9,14.851a152.038,152.038,0,0,0-16.718,9.6,75.171,75.171,0,0,0-13.54,11.5,54.336,54.336,0,0,0-6.94,9.443c-.114.194-.224.388-.333.582a52.643,52.643,0,0,0-5.7,15.59c-.059.3-.116.594-.169.894-1.554,8.488-1.446,18.415.886,30.158" transform="translate(-8.916 -0.004)" fill="#ebf3fa"></path><path id="Trazado_5931" data-name="Trazado 5931" d="M480.815,242.423l400.426,69.22L867.74,286.3,479.02,146.6c-19.931,19.875-24.048,50.651,1.8,95.824" transform="translate(-390.384 -115.929)" fill="#f8fbff"></path><path id="Trazado_5932" data-name="Trazado 5932" d="M1041.839,121.758l162.3,53.545c-8.722-6.358-17.161-17.013-28.935-28.451Z" transform="translate(-834.436 -96.285)" fill="#f8fbff"></path><path id="Trazado_5933" data-name="Trazado 5933" d="M1766.654,207.14a7.136,7.136,0,1,1-7.136,7.136,7.136,7.136,0,0,1,7.136-7.136" transform="translate(-1554.241 -163.803)" fill="#f8fbff"></path><rect id="Rect&#xE1;ngulo_3685" data-name="Rect&#xE1;ngulo 3685" width="37.056" height="180.201" transform="translate(302.439 69.836)" fill="#c4d9ed"></rect><rect id="Rect&#xE1;ngulo_3686" data-name="Rect&#xE1;ngulo 3686" width="37.056" height="180.201" transform="translate(294.117 69.836)" fill="#d5e7f7"></rect><rect id="Rect&#xE1;ngulo_3687" data-name="Rect&#xE1;ngulo 3687" width="37.047" height="10.413" transform="translate(294.117 69.789)" fill="#c4d9ed"></rect><rect id="Rect&#xE1;ngulo_3688" data-name="Rect&#xE1;ngulo 3688" width="37.047" height="10.413" transform="translate(294.117 92.373)" fill="#c4d9ed"></rect><rect id="Rect&#xE1;ngulo_3689" data-name="Rect&#xE1;ngulo 3689" width="37.047" height="10.413" transform="translate(294.117 114.957)" fill="#c4d9ed"></rect><rect id="Rect&#xE1;ngulo_3690" data-name="Rect&#xE1;ngulo 3690" width="37.047" height="10.413" transform="translate(294.117 137.541)" fill="#c4d9ed"></rect><rect id="Rect&#xE1;ngulo_3691" data-name="Rect&#xE1;ngulo 3691" width="37.047" height="10.413" transform="translate(294.117 160.126)" fill="#c4d9ed"></rect><rect id="Rect&#xE1;ngulo_3692" data-name="Rect&#xE1;ngulo 3692" width="37.047" height="10.413" transform="translate(294.117 182.71)" fill="#c4d9ed"></rect><rect id="Rect&#xE1;ngulo_3693" data-name="Rect&#xE1;ngulo 3693" width="37.047" height="10.413" transform="translate(294.117 205.294)" fill="#c4d9ed"></rect><rect id="Rect&#xE1;ngulo_3694" data-name="Rect&#xE1;ngulo 3694" width="37.047" height="10.413" transform="translate(294.117 227.879)" fill="#c4d9ed"></rect><rect id="Rect&#xE1;ngulo_3695" data-name="Rect&#xE1;ngulo 3695" width="37.056" height="154.702" transform="translate(243.201 95.335)" fill="#c4d9ed"></rect><rect id="Rect&#xE1;ngulo_3696" data-name="Rect&#xE1;ngulo 3696" width="37.056" height="154.702" transform="translate(234.879 95.335)" fill="#d5e7f7"></rect><rect id="Rect&#xE1;ngulo_3697" data-name="Rect&#xE1;ngulo 3697" width="37.047" height="8.94" transform="translate(234.879 95.294)" fill="#c4d9ed"></rect><rect id="Rect&#xE1;ngulo_3698" data-name="Rect&#xE1;ngulo 3698" width="37.047" height="8.939" transform="translate(234.879 114.683)" fill="#c4d9ed"></rect><rect id="Rect&#xE1;ngulo_3699" data-name="Rect&#xE1;ngulo 3699" width="37.047" height="8.939" transform="translate(234.879 134.071)" fill="#c4d9ed"></rect><rect id="Rect&#xE1;ngulo_3700" data-name="Rect&#xE1;ngulo 3700" width="37.047" height="8.94" transform="translate(234.879 153.46)" fill="#c4d9ed"></rect><rect id="Rect&#xE1;ngulo_3701" data-name="Rect&#xE1;ngulo 3701" width="37.047" height="8.939" transform="translate(234.879 172.848)" fill="#c4d9ed"></rect><rect id="Rect&#xE1;ngulo_3702" data-name="Rect&#xE1;ngulo 3702" width="37.047" height="8.939" transform="translate(234.879 192.237)" fill="#c4d9ed"></rect><rect id="Rect&#xE1;ngulo_3703" data-name="Rect&#xE1;ngulo 3703" width="37.047" height="8.94" transform="translate(234.879 211.625)" fill="#c4d9ed"></rect><rect id="Rect&#xE1;ngulo_3704" data-name="Rect&#xE1;ngulo 3704" width="37.047" height="8.94" transform="translate(234.879 231.014)" fill="#c4d9ed"></rect><rect id="Rect&#xE1;ngulo_3705" data-name="Rect&#xE1;ngulo 3705" width="15.517" height="22.628" transform="translate(344.033 244.51)" fill="#dceaf9"></rect><path id="Trazado_5934" data-name="Trazado 5934" d="M24.253,578.426v62.823H188.625l1.119-.01,41.949-.394c.035-.061.078-.135.127-.219l.245-.427c.031-.057.065-.117.1-.18.124-.222.265-.473.423-.762.192-.349.406-.747.643-1.191v0c.882-1.655,2.053-3.948,3.382-6.8q.656-1.4,1.356-2.986c.186-.421.372-.847.562-1.285v0q.276-.634.551-1.295l.018-.043c.127-.3.255-.609.384-.921s.267-.641.4-.968c.686-1.687,1.389-3.478,2.087-5.367l.055-.149v0q.686-1.853,1.364-3.827.374-1.085.74-2.2c.014-.045.031-.09.045-.139.108-.331.215-.662.323-1,.09-.282.18-.564.268-.847q.276-.876.549-1.771.349-1.149.69-2.33.459-1.6.9-3.259c.088-.331.176-.664.261-1q.386-1.5.756-3.033.12-.493.233-.988c.049-.2.1-.408.143-.613q.554-2.429,1.048-4.95.542-2.776.993-5.655.413-2.656.739-5.393.306-2.582.518-5.226c.335-4.123.488-8.357.423-12.668a117.969,117.969,0,0,0-2.592-23.1c-.061-.286-.124-.57-.188-.856q-.628-2.8-1.411-5.608-.6-2.142-1.293-4.287-.506-1.553-1.062-3.11-1.262-3.523-2.808-7.044l-.878-1.948a118.02,118.02,0,0,0-25.64-35.425l-.66-.633H214.8v24.031H193.535V466.224H170.068v25.42h-5.351V461.3H141.25v56.9H111.57v33.178H100.481v8.359H75.008V545.338H60.384V506.227H42.318v72.2Z" transform="translate(330.559 -364.786)" fill="#d5e7f7"></path><rect id="Rect&#xE1;ngulo_3706" data-name="Rect&#xE1;ngulo 3706" width="23.48" height="5.797" transform="translate(471.796 100.351)" fill="#c4d9ed"></rect><rect id="Rect&#xE1;ngulo_3707" data-name="Rect&#xE1;ngulo 3707" width="23.48" height="5.797" transform="translate(471.796 111.242)" fill="#c4d9ed"></rect><rect id="Rect&#xE1;ngulo_3708" data-name="Rect&#xE1;ngulo 3708" width="23.48" height="5.797" transform="translate(471.796 121.04)" fill="#c4d9ed"></rect><rect id="Rect&#xE1;ngulo_3709" data-name="Rect&#xE1;ngulo 3709" width="23.48" height="5.797" transform="translate(500.608 121.04)" fill="#c4d9ed"></rect><rect id="Rect&#xE1;ngulo_3710" data-name="Rect&#xE1;ngulo 3710" width="23.48" height="5.797" transform="translate(500.608 111.242)" fill="#c4d9ed"></rect><rect id="Rect&#xE1;ngulo_3711" data-name="Rect&#xE1;ngulo 3711" width="23.48" height="5.797" transform="translate(500.608 101.459)" fill="#c4d9ed"></rect><rect id="Rect&#xE1;ngulo_3712" data-name="Rect&#xE1;ngulo 3712" width="52.299" height="5.797" transform="translate(471.796 130.541)" fill="#c4d9ed"></rect><rect id="Rect&#xE1;ngulo_3713" data-name="Rect&#xE1;ngulo 3713" width="52.299" height="5.797" transform="translate(471.796 140.041)" fill="#c4d9ed"></rect><rect id="Rect&#xE1;ngulo_3714" data-name="Rect&#xE1;ngulo 3714" width="18.224" height="8.949" transform="translate(372.886 141.446)" fill="#c4d9ed"></rect><rect id="Rect&#xE1;ngulo_3715" data-name="Rect&#xE1;ngulo 3715" width="18.224" height="8.948" transform="translate(372.886 154.754)" fill="#c4d9ed"></rect><rect id="Rect&#xE1;ngulo_3716" data-name="Rect&#xE1;ngulo 3716" width="18.224" height="8.949" transform="translate(372.886 168.062)" fill="#c4d9ed"></rect><rect id="Rect&#xE1;ngulo_3717" data-name="Rect&#xE1;ngulo 3717" width="18.224" height="8.949" transform="translate(372.886 182.013)" fill="#c4d9ed"></rect><rect id="Rect&#xE1;ngulo_3718" data-name="Rect&#xE1;ngulo 3718" width="18.224" height="8.948" transform="translate(372.886 195.531)" fill="#c4d9ed"></rect><rect id="Rect&#xE1;ngulo_3719" data-name="Rect&#xE1;ngulo 3719" width="18.224" height="8.949" transform="translate(372.886 209.048)" fill="#c4d9ed"></rect><rect id="Rect&#xE1;ngulo_3720" data-name="Rect&#xE1;ngulo 3720" width="18.224" height="8.948" transform="translate(372.886 223.191)" fill="#c4d9ed"></rect><rect id="Rect&#xE1;ngulo_3721" data-name="Rect&#xE1;ngulo 3721" width="52.299" height="3.68" transform="translate(471.796 149.326)" fill="#c4d9ed"></rect><rect id="Rect&#xE1;ngulo_3722" data-name="Rect&#xE1;ngulo 3722" width="6.72" height="39.107" transform="translate(390.857 141.446)" fill="#c4d9ed"></rect><rect id="Rect&#xE1;ngulo_3723" data-name="Rect&#xE1;ngulo 3723" width="13.516" height="14.393" transform="translate(405.568 180.553)" fill="#c4d9ed"></rect><path id="Trazado_5935" data-name="Trazado 5935" d="M281.611,484.948v5.8l0,23.284,0,5.8v4.258h4.658V485.41l-.627-.462Z" transform="translate(242.477 -383.489)" fill="#c4d9ed"></path><rect id="Rect&#xE1;ngulo_3724" data-name="Rect&#xE1;ngulo 3724" width="2.864" height="30.327" transform="translate(495.276 96.51)" fill="#c4d9ed"></rect><g id="Grupo_1280" data-name="Grupo 1280" transform="translate(446.979 159.117)" opacity="0.8"><g id="Grupo_1279" data-name="Grupo 1279" transform="translate(0)"><g id="Grupo_1278" data-name="Grupo 1278" clip-path="url(#clip-path-3)"><rect id="Rect&#xE1;ngulo_3725" data-name="Rect&#xE1;ngulo 3725" width="3.978" height="5.607" transform="translate(0)" fill="#c4d9ed"></rect><rect id="Rect&#xE1;ngulo_3726" data-name="Rect&#xE1;ngulo 3726" width="3.978" height="5.607" transform="translate(7.439)" fill="#c4d9ed"></rect><rect id="Rect&#xE1;ngulo_3727" data-name="Rect&#xE1;ngulo 3727" width="3.978" height="5.607" transform="translate(14.712)" fill="#c4d9ed"></rect><rect id="Rect&#xE1;ngulo_3728" data-name="Rect&#xE1;ngulo 3728" width="3.978" height="5.607" transform="translate(21.608)" fill="#c4d9ed"></rect><rect id="Rect&#xE1;ngulo_3729" data-name="Rect&#xE1;ngulo 3729" width="3.978" height="5.607" transform="translate(28.636)" fill="#c4d9ed"></rect><rect id="Rect&#xE1;ngulo_3730" data-name="Rect&#xE1;ngulo 3730" width="3.978" height="5.607" transform="translate(35.745)" fill="#c4d9ed"></rect><rect id="Rect&#xE1;ngulo_3731" data-name="Rect&#xE1;ngulo 3731" width="3.978" height="5.607" transform="translate(43.184)" fill="#c4d9ed"></rect><rect id="Rect&#xE1;ngulo_3732" data-name="Rect&#xE1;ngulo 3732" width="3.978" height="5.607" transform="translate(50.457)" fill="#c4d9ed"></rect><rect id="Rect&#xE1;ngulo_3733" data-name="Rect&#xE1;ngulo 3733" width="3.978" height="5.607" transform="translate(57.353)" fill="#c4d9ed"></rect><rect id="Rect&#xE1;ngulo_3734" data-name="Rect&#xE1;ngulo 3734" width="3.978" height="5.607" transform="translate(64.381)" fill="#c4d9ed"></rect><rect id="Rect&#xE1;ngulo_3735" data-name="Rect&#xE1;ngulo 3735" width="3.978" height="5.607" transform="translate(71.705)" fill="#c4d9ed"></rect><rect id="Rect&#xE1;ngulo_3736" data-name="Rect&#xE1;ngulo 3736" width="3.978" height="5.607" transform="translate(79.145)" fill="#c4d9ed"></rect><rect id="Rect&#xE1;ngulo_3737" data-name="Rect&#xE1;ngulo 3737" width="3.978" height="5.607" transform="translate(86.418)" fill="#c4d9ed"></rect><rect id="Rect&#xE1;ngulo_3738" data-name="Rect&#xE1;ngulo 3738" width="3.978" height="5.607" transform="translate(93.313)" fill="#c4d9ed"></rect><rect id="Rect&#xE1;ngulo_3739" data-name="Rect&#xE1;ngulo 3739" width="3.978" height="5.607" transform="translate(100.341)" fill="#c4d9ed"></rect><rect id="Rect&#xE1;ngulo_3740" data-name="Rect&#xE1;ngulo 3740" width="3.978" height="5.607" transform="translate(107.45)" fill="#c4d9ed"></rect><rect id="Rect&#xE1;ngulo_3741" data-name="Rect&#xE1;ngulo 3741" width="3.978" height="5.607" transform="translate(114.89)" fill="#c4d9ed"></rect><rect id="Rect&#xE1;ngulo_3742" data-name="Rect&#xE1;ngulo 3742" width="3.978" height="5.607" transform="translate(122.163)" fill="#c4d9ed"></rect><path id="Trazado_5936" data-name="Trazado 5936" d="M50.532,772.476v3.11h1.062q-.506-1.553-1.062-3.11" transform="translate(78.526 -769.978)" fill="#c4d9ed"></path><rect id="Rect&#xE1;ngulo_3743" data-name="Rect&#xE1;ngulo 3743" width="3.978" height="5.607" transform="translate(0 9.895)" fill="#c4d9ed"></rect><rect id="Rect&#xE1;ngulo_3744" data-name="Rect&#xE1;ngulo 3744" width="3.978" height="5.607" transform="translate(7.439 9.895)" fill="#c4d9ed"></rect><rect id="Rect&#xE1;ngulo_3745" data-name="Rect&#xE1;ngulo 3745" width="3.978" height="5.607" transform="translate(14.712 9.895)" fill="#c4d9ed"></rect><rect id="Rect&#xE1;ngulo_3746" data-name="Rect&#xE1;ngulo 3746" width="3.978" height="5.607" transform="translate(21.608 9.895)" fill="#c4d9ed"></rect><rect id="Rect&#xE1;ngulo_3747" data-name="Rect&#xE1;ngulo 3747" width="3.978" height="5.607" transform="translate(28.636 9.895)" fill="#c4d9ed"></rect><rect id="Rect&#xE1;ngulo_3748" data-name="Rect&#xE1;ngulo 3748" width="3.978" height="5.607" transform="translate(35.745 9.895)" fill="#c4d9ed"></rect><rect id="Rect&#xE1;ngulo_3749" data-name="Rect&#xE1;ngulo 3749" width="3.978" height="5.607" transform="translate(43.184 9.895)" fill="#c4d9ed"></rect><rect id="Rect&#xE1;ngulo_3750" data-name="Rect&#xE1;ngulo 3750" width="3.978" height="5.607" transform="translate(50.457 9.895)" fill="#c4d9ed"></rect><rect id="Rect&#xE1;ngulo_3751" data-name="Rect&#xE1;ngulo 3751" width="3.978" height="5.607" transform="translate(57.353 9.895)" fill="#c4d9ed"></rect><rect id="Rect&#xE1;ngulo_3752" data-name="Rect&#xE1;ngulo 3752" width="3.978" height="5.607" transform="translate(64.381 9.895)" fill="#c4d9ed"></rect><rect id="Rect&#xE1;ngulo_3753" data-name="Rect&#xE1;ngulo 3753" width="3.978" height="5.607" transform="translate(71.705 9.895)" fill="#c4d9ed"></rect><rect id="Rect&#xE1;ngulo_3754" data-name="Rect&#xE1;ngulo 3754" width="3.978" height="5.607" transform="translate(79.145 9.895)" fill="#c4d9ed"></rect><rect id="Rect&#xE1;ngulo_3755" data-name="Rect&#xE1;ngulo 3755" width="3.978" height="5.607" transform="translate(86.418 9.895)" fill="#c4d9ed"></rect><rect id="Rect&#xE1;ngulo_3756" data-name="Rect&#xE1;ngulo 3756" width="3.978" height="5.607" transform="translate(93.313 9.895)" fill="#c4d9ed"></rect><rect id="Rect&#xE1;ngulo_3757" data-name="Rect&#xE1;ngulo 3757" width="3.978" height="5.607" transform="translate(100.341 9.895)" fill="#c4d9ed"></rect><rect id="Rect&#xE1;ngulo_3758" data-name="Rect&#xE1;ngulo 3758" width="3.978" height="5.607" transform="translate(107.45 9.895)" fill="#c4d9ed"></rect><rect id="Rect&#xE1;ngulo_3759" data-name="Rect&#xE1;ngulo 3759" width="3.978" height="5.607" transform="translate(114.89 9.895)" fill="#c4d9ed"></rect><rect id="Rect&#xE1;ngulo_3760" data-name="Rect&#xE1;ngulo 3760" width="3.978" height="5.607" transform="translate(122.163 9.895)" fill="#c4d9ed"></rect><path id="Trazado_5937" data-name="Trazado 5937" d="M37.608,807.83v5.608h3.766q-.628-2.8-1.411-5.608Z" transform="translate(91.45 -797.936)" fill="#c4d9ed"></path><rect id="Rect&#xE1;ngulo_3761" data-name="Rect&#xE1;ngulo 3761" width="3.978" height="5.607" transform="translate(0 19.639)" fill="#c4d9ed"></rect><rect id="Rect&#xE1;ngulo_3762" data-name="Rect&#xE1;ngulo 3762" width="3.978" height="5.607" transform="translate(7.439 19.639)" fill="#c4d9ed"></rect><rect id="Rect&#xE1;ngulo_3763" data-name="Rect&#xE1;ngulo 3763" width="3.978" height="5.607" transform="translate(14.712 19.639)" fill="#c4d9ed"></rect><rect id="Rect&#xE1;ngulo_3764" data-name="Rect&#xE1;ngulo 3764" width="3.978" height="5.607" transform="translate(21.608 19.639)" fill="#c4d9ed"></rect><rect id="Rect&#xE1;ngulo_3765" data-name="Rect&#xE1;ngulo 3765" width="3.978" height="5.607" transform="translate(28.636 19.639)" fill="#c4d9ed"></rect><rect id="Rect&#xE1;ngulo_3766" data-name="Rect&#xE1;ngulo 3766" width="3.978" height="5.607" transform="translate(35.745 19.639)" fill="#c4d9ed"></rect><rect id="Rect&#xE1;ngulo_3767" data-name="Rect&#xE1;ngulo 3767" width="3.978" height="5.607" transform="translate(43.184 19.639)" fill="#c4d9ed"></rect><rect id="Rect&#xE1;ngulo_3768" data-name="Rect&#xE1;ngulo 3768" width="3.978" height="5.607" transform="translate(50.457 19.639)" fill="#c4d9ed"></rect><rect id="Rect&#xE1;ngulo_3769" data-name="Rect&#xE1;ngulo 3769" width="3.978" height="5.607" transform="translate(57.353 19.639)" fill="#c4d9ed"></rect><rect id="Rect&#xE1;ngulo_3770" data-name="Rect&#xE1;ngulo 3770" width="3.978" height="5.607" transform="translate(64.381 19.639)" fill="#c4d9ed"></rect><rect id="Rect&#xE1;ngulo_3771" data-name="Rect&#xE1;ngulo 3771" width="3.978" height="5.607" transform="translate(71.705 19.639)" fill="#c4d9ed"></rect><rect id="Rect&#xE1;ngulo_3772" data-name="Rect&#xE1;ngulo 3772" width="3.978" height="5.607" transform="translate(79.145 19.639)" fill="#c4d9ed"></rect><rect id="Rect&#xE1;ngulo_3773" data-name="Rect&#xE1;ngulo 3773" width="3.978" height="5.607" transform="translate(86.418 19.639)" fill="#c4d9ed"></rect><rect id="Rect&#xE1;ngulo_3774" data-name="Rect&#xE1;ngulo 3774" width="3.978" height="5.607" transform="translate(93.313 19.639)" fill="#c4d9ed"></rect><rect id="Rect&#xE1;ngulo_3775" data-name="Rect&#xE1;ngulo 3775" width="3.978" height="5.607" transform="translate(100.341 19.639)" fill="#c4d9ed"></rect><rect id="Rect&#xE1;ngulo_3776" data-name="Rect&#xE1;ngulo 3776" width="3.978" height="5.607" transform="translate(107.45 19.639)" fill="#c4d9ed"></rect><rect id="Rect&#xE1;ngulo_3777" data-name="Rect&#xE1;ngulo 3777" width="3.978" height="5.607" transform="translate(114.89 19.639)" fill="#c4d9ed"></rect><rect id="Rect&#xE1;ngulo_3778" data-name="Rect&#xE1;ngulo 3778" width="3.978" height="5.607" transform="translate(122.163 19.639)" fill="#c4d9ed"></rect><rect id="Rect&#xE1;ngulo_3779" data-name="Rect&#xE1;ngulo 3779" width="3.978" height="5.607" transform="translate(129.058 19.639)" fill="#c4d9ed"></rect><rect id="Rect&#xE1;ngulo_3780" data-name="Rect&#xE1;ngulo 3780" width="3.978" height="5.607" transform="translate(0 29.991)" fill="#c4d9ed"></rect><rect id="Rect&#xE1;ngulo_3781" data-name="Rect&#xE1;ngulo 3781" width="3.978" height="5.607" transform="translate(7.439 29.991)" fill="#c4d9ed"></rect><rect id="Rect&#xE1;ngulo_3782" data-name="Rect&#xE1;ngulo 3782" width="3.978" height="5.607" transform="translate(14.712 29.991)" fill="#c4d9ed"></rect><rect id="Rect&#xE1;ngulo_3783" data-name="Rect&#xE1;ngulo 3783" width="3.978" height="5.607" transform="translate(21.608 29.991)" fill="#c4d9ed"></rect><rect id="Rect&#xE1;ngulo_3784" data-name="Rect&#xE1;ngulo 3784" width="3.978" height="5.607" transform="translate(28.636 29.991)" fill="#c4d9ed"></rect><rect id="Rect&#xE1;ngulo_3785" data-name="Rect&#xE1;ngulo 3785" width="3.978" height="5.607" transform="translate(35.745 29.991)" fill="#c4d9ed"></rect><rect id="Rect&#xE1;ngulo_3786" data-name="Rect&#xE1;ngulo 3786" width="3.978" height="5.607" transform="translate(43.184 29.991)" fill="#c4d9ed"></rect><rect id="Rect&#xE1;ngulo_3787" data-name="Rect&#xE1;ngulo 3787" width="3.978" height="5.607" transform="translate(50.457 29.991)" fill="#c4d9ed"></rect><rect id="Rect&#xE1;ngulo_3788" data-name="Rect&#xE1;ngulo 3788" width="3.978" height="5.607" transform="translate(57.353 29.991)" fill="#c4d9ed"></rect><rect id="Rect&#xE1;ngulo_3789" data-name="Rect&#xE1;ngulo 3789" width="3.978" height="5.607" transform="translate(64.381 29.991)" fill="#c4d9ed"></rect><rect id="Rect&#xE1;ngulo_3790" data-name="Rect&#xE1;ngulo 3790" width="3.978" height="5.607" transform="translate(71.705 29.991)" fill="#c4d9ed"></rect><rect id="Rect&#xE1;ngulo_3791" data-name="Rect&#xE1;ngulo 3791" width="3.978" height="5.607" transform="translate(79.145 29.991)" fill="#c4d9ed"></rect><rect id="Rect&#xE1;ngulo_3792" data-name="Rect&#xE1;ngulo 3792" width="3.978" height="5.607" transform="translate(86.418 29.991)" fill="#c4d9ed"></rect><rect id="Rect&#xE1;ngulo_3793" data-name="Rect&#xE1;ngulo 3793" width="3.978" height="5.607" transform="translate(93.313 29.991)" fill="#c4d9ed"></rect><rect id="Rect&#xE1;ngulo_3794" data-name="Rect&#xE1;ngulo 3794" width="3.978" height="5.607" transform="translate(100.341 29.991)" fill="#c4d9ed"></rect><rect id="Rect&#xE1;ngulo_3795" data-name="Rect&#xE1;ngulo 3795" width="3.978" height="5.607" transform="translate(107.45 29.991)" fill="#c4d9ed"></rect><rect id="Rect&#xE1;ngulo_3796" data-name="Rect&#xE1;ngulo 3796" width="3.978" height="5.607" transform="translate(114.89 29.991)" fill="#c4d9ed"></rect><rect id="Rect&#xE1;ngulo_3797" data-name="Rect&#xE1;ngulo 3797" width="3.978" height="5.607" transform="translate(122.163 29.991)" fill="#c4d9ed"></rect><rect id="Rect&#xE1;ngulo_3798" data-name="Rect&#xE1;ngulo 3798" width="3.978" height="5.607" transform="translate(129.058 29.991)" fill="#c4d9ed"></rect><rect id="Rect&#xE1;ngulo_3799" data-name="Rect&#xE1;ngulo 3799" width="3.978" height="5.607" transform="translate(0 39.886)" fill="#c4d9ed"></rect><rect id="Rect&#xE1;ngulo_3800" data-name="Rect&#xE1;ngulo 3800" width="3.978" height="5.607" transform="translate(7.439 39.886)" fill="#c4d9ed"></rect><rect id="Rect&#xE1;ngulo_3801" data-name="Rect&#xE1;ngulo 3801" width="3.978" height="5.607" transform="translate(14.712 39.886)" fill="#c4d9ed"></rect><rect id="Rect&#xE1;ngulo_3802" data-name="Rect&#xE1;ngulo 3802" width="3.978" height="5.607" transform="translate(21.608 39.886)" fill="#c4d9ed"></rect><rect id="Rect&#xE1;ngulo_3803" data-name="Rect&#xE1;ngulo 3803" width="3.978" height="5.607" transform="translate(28.636 39.886)" fill="#c4d9ed"></rect><rect id="Rect&#xE1;ngulo_3804" data-name="Rect&#xE1;ngulo 3804" width="3.978" height="5.607" transform="translate(35.745 39.886)" fill="#c4d9ed"></rect><rect id="Rect&#xE1;ngulo_3805" data-name="Rect&#xE1;ngulo 3805" width="3.978" height="5.607" transform="translate(43.184 39.886)" fill="#c4d9ed"></rect><rect id="Rect&#xE1;ngulo_3806" data-name="Rect&#xE1;ngulo 3806" width="3.978" height="5.607" transform="translate(50.457 39.886)" fill="#c4d9ed"></rect><rect id="Rect&#xE1;ngulo_3807" data-name="Rect&#xE1;ngulo 3807" width="3.978" height="5.607" transform="translate(57.353 39.886)" fill="#c4d9ed"></rect><rect id="Rect&#xE1;ngulo_3808" data-name="Rect&#xE1;ngulo 3808" width="3.978" height="5.607" transform="translate(64.381 39.886)" fill="#c4d9ed"></rect><rect id="Rect&#xE1;ngulo_3809" data-name="Rect&#xE1;ngulo 3809" width="3.978" height="5.607" transform="translate(71.705 39.886)" fill="#c4d9ed"></rect><rect id="Rect&#xE1;ngulo_3810" data-name="Rect&#xE1;ngulo 3810" width="3.978" height="5.607" transform="translate(79.145 39.886)" fill="#c4d9ed"></rect><rect id="Rect&#xE1;ngulo_3811" data-name="Rect&#xE1;ngulo 3811" width="3.978" height="5.607" transform="translate(86.418 39.886)" fill="#c4d9ed"></rect><rect id="Rect&#xE1;ngulo_3812" data-name="Rect&#xE1;ngulo 3812" width="3.978" height="5.607" transform="translate(93.313 39.886)" fill="#c4d9ed"></rect><rect id="Rect&#xE1;ngulo_3813" data-name="Rect&#xE1;ngulo 3813" width="3.978" height="5.607" transform="translate(100.341 39.886)" fill="#c4d9ed"></rect><rect id="Rect&#xE1;ngulo_3814" data-name="Rect&#xE1;ngulo 3814" width="3.978" height="5.607" transform="translate(107.45 39.886)" fill="#c4d9ed"></rect><rect id="Rect&#xE1;ngulo_3815" data-name="Rect&#xE1;ngulo 3815" width="3.978" height="5.607" transform="translate(114.89 39.886)" fill="#c4d9ed"></rect><rect id="Rect&#xE1;ngulo_3816" data-name="Rect&#xE1;ngulo 3816" width="3.978" height="5.607" transform="translate(122.163 39.886)" fill="#c4d9ed"></rect><rect id="Rect&#xE1;ngulo_3817" data-name="Rect&#xE1;ngulo 3817" width="3.978" height="5.607" transform="translate(129.058 39.886)" fill="#c4d9ed"></rect><rect id="Rect&#xE1;ngulo_3818" data-name="Rect&#xE1;ngulo 3818" width="3.978" height="5.607" transform="translate(0 49.629)" fill="#c4d9ed"></rect><rect id="Rect&#xE1;ngulo_3819" data-name="Rect&#xE1;ngulo 3819" width="3.978" height="5.607" transform="translate(7.439 49.629)" fill="#c4d9ed"></rect><rect id="Rect&#xE1;ngulo_3820" data-name="Rect&#xE1;ngulo 3820" width="3.978" height="5.607" transform="translate(14.712 49.629)" fill="#c4d9ed"></rect><rect id="Rect&#xE1;ngulo_3821" data-name="Rect&#xE1;ngulo 3821" width="3.978" height="5.607" transform="translate(21.608 49.629)" fill="#c4d9ed"></rect><rect id="Rect&#xE1;ngulo_3822" data-name="Rect&#xE1;ngulo 3822" width="3.978" height="5.607" transform="translate(28.636 49.629)" fill="#c4d9ed"></rect><rect id="Rect&#xE1;ngulo_3823" data-name="Rect&#xE1;ngulo 3823" width="3.978" height="5.607" transform="translate(35.745 49.629)" fill="#c4d9ed"></rect><rect id="Rect&#xE1;ngulo_3824" data-name="Rect&#xE1;ngulo 3824" width="3.978" height="5.607" transform="translate(43.184 49.629)" fill="#c4d9ed"></rect><rect id="Rect&#xE1;ngulo_3825" data-name="Rect&#xE1;ngulo 3825" width="3.978" height="5.607" transform="translate(50.457 49.629)" fill="#c4d9ed"></rect><rect id="Rect&#xE1;ngulo_3826" data-name="Rect&#xE1;ngulo 3826" width="3.978" height="5.607" transform="translate(57.353 49.629)" fill="#c4d9ed"></rect><rect id="Rect&#xE1;ngulo_3827" data-name="Rect&#xE1;ngulo 3827" width="3.978" height="5.607" transform="translate(64.381 49.629)" fill="#c4d9ed"></rect><rect id="Rect&#xE1;ngulo_3828" data-name="Rect&#xE1;ngulo 3828" width="3.978" height="5.607" transform="translate(71.705 49.629)" fill="#c4d9ed"></rect><rect id="Rect&#xE1;ngulo_3829" data-name="Rect&#xE1;ngulo 3829" width="3.978" height="5.607" transform="translate(79.145 49.629)" fill="#c4d9ed"></rect><rect id="Rect&#xE1;ngulo_3830" data-name="Rect&#xE1;ngulo 3830" width="3.978" height="5.607" transform="translate(86.418 49.629)" fill="#c4d9ed"></rect><rect id="Rect&#xE1;ngulo_3831" data-name="Rect&#xE1;ngulo 3831" width="3.978" height="5.607" transform="translate(93.313 49.629)" fill="#c4d9ed"></rect><rect id="Rect&#xE1;ngulo_3832" data-name="Rect&#xE1;ngulo 3832" width="3.978" height="5.607" transform="translate(100.341 49.629)" fill="#c4d9ed"></rect><rect id="Rect&#xE1;ngulo_3833" data-name="Rect&#xE1;ngulo 3833" width="3.978" height="5.607" transform="translate(107.45 49.629)" fill="#c4d9ed"></rect><rect id="Rect&#xE1;ngulo_3834" data-name="Rect&#xE1;ngulo 3834" width="3.978" height="5.607" transform="translate(114.89 49.629)" fill="#c4d9ed"></rect><rect id="Rect&#xE1;ngulo_3835" data-name="Rect&#xE1;ngulo 3835" width="3.978" height="5.607" transform="translate(122.163 49.629)" fill="#c4d9ed"></rect><rect id="Rect&#xE1;ngulo_3836" data-name="Rect&#xE1;ngulo 3836" width="3.978" height="5.607" transform="translate(129.058 49.629)" fill="#c4d9ed"></rect></g></g></g><rect id="Rect&#xE1;ngulo_3838" data-name="Rect&#xE1;ngulo 3838" width="92.208" height="49.744" transform="translate(419.085 226.314)" fill="#c4d9ed"></rect><rect id="Rect&#xE1;ngulo_3839" data-name="Rect&#xE1;ngulo 3839" width="92.208" height="24.872" transform="translate(349.166 251.186)" fill="#c4d9ed"></rect><path id="Trazado_5938" data-name="Trazado 5938" d="M43.9,1118.765v41.995H87.474c.035-.061.078-.135.127-.219l.245-.427c.031-.057.065-.117.1-.18.124-.222.265-.474.423-.762.192-.349.407-.748.643-1.191v0c.882-1.655,2.053-3.948,3.382-6.8q.656-1.4,1.356-2.986c.186-.421.372-.848.562-1.285v0q.276-.634.551-1.295l.018-.043q.19-.454.384-.921c.135-.319.267-.641.4-.968.686-1.687,1.389-3.478,2.087-5.367l.055-.149v0q.686-1.853,1.364-3.827.374-1.085.739-2.2c.014-.045.031-.09.045-.139.108-.331.214-.662.323-1,.09-.282.18-.564.267-.848q.276-.876.549-1.77.349-1.149.69-2.33.46-1.6.9-3.259c.088-.331.176-.664.261-1q.386-1.5.755-3.033Z" transform="translate(474.78 -884.701)" fill="#c4d9ed"></path><rect id="Rect&#xE1;ngulo_3840" data-name="Rect&#xE1;ngulo 3840" width="17.179" height="9.213" transform="translate(425.245 232.139)" fill="#d5e7f7"></rect><rect id="Rect&#xE1;ngulo_3841" data-name="Rect&#xE1;ngulo 3841" width="17.179" height="9.213" transform="translate(447.297 232.139)" fill="#d5e7f7"></rect><rect id="Rect&#xE1;ngulo_3842" data-name="Rect&#xE1;ngulo 3842" width="17.179" height="9.213" transform="translate(468.929 232.139)" fill="#d5e7f7"></rect><rect id="Rect&#xE1;ngulo_3843" data-name="Rect&#xE1;ngulo 3843" width="17.179" height="9.213" transform="translate(490.146 232.139)" fill="#d5e7f7"></rect><rect id="Rect&#xE1;ngulo_3844" data-name="Rect&#xE1;ngulo 3844" width="8.85" height="50.172" transform="translate(510.334 226.314)" fill="#adc9e0"></rect><rect id="Rect&#xE1;ngulo_3845" data-name="Rect&#xE1;ngulo 3845" width="0.479" height="3.894" transform="translate(376.513 137.552)" fill="#dceaf9"></rect><rect id="Rect&#xE1;ngulo_3846" data-name="Rect&#xE1;ngulo 3846" width="0.479" height="3.894" transform="translate(393.733 137.552)" fill="#dceaf9"></rect><path id="Trazado_5939" data-name="Trazado 5939" d="M40.819,1034.643q-.322,2.736-.739,5.393-.447,2.877-.993,5.655-.49,2.521-1.048,4.95c-.047.2-.094.408-.143.613q-.113.5-.233.988-.367,1.535-.755,3.033-.129.5-.261,1-.438,1.657-.9,3.259-.34,1.179-.69,2.33-.273.894-.549,1.77c-.088.284-.178.566-.267.848-.108.335-.215.666-.323,1-.014.049-.031.094-.045.139q-.368,1.118-.739,2.2-.677,1.973-1.364,3.827v0l-.055.149c-.7,1.889-1.4,3.68-2.087,5.367-.135.327-.268.649-.4.968s-.257.619-.384.921l-.018.043v-44.451Z" transform="translate(540.821 -818.178)" fill="#d5e7f7"></path><path id="Trazado_5940" data-name="Trazado 5940" d="M42.792,1114.041v27.839l.018-.043q.19-.453.384-.921c.135-.319.267-.641.4-.968.686-1.687,1.389-3.478,2.087-5.367l.055-.149v0q.686-1.853,1.364-3.827.374-1.085.74-2.2c.014-.045.031-.09.045-.139.108-.331.214-.662.323-1,.09-.282.18-.564.268-.848q.276-.876.549-1.771.349-1.149.69-2.33.459-1.6.9-3.26c.087-.331.175-.664.261-1q.386-1.5.755-3.033.12-.493.233-.988Z" transform="translate(526.852 -880.965)" fill="#d5e7f7"></path><path id="Trazado_5941" data-name="Trazado 5941" d="M37.1,1087.451v13.84h6.925q.459-1.6.9-3.26c.087-.331.175-.664.261-1q.386-1.5.755-3.033.12-.493.233-.988c.049-.2.1-.408.143-.613q.554-2.429,1.047-4.95Z" transform="translate(532.542 -859.938)" fill="#c4d9ed"></path><path id="Trazado_5942" data-name="Trazado 5942" d="M58.987,1173.2v4.185q.374-1.085.739-2.2c.014-.045.031-.09.045-.139.108-.331.214-.662.323-1,.09-.282.18-.564.267-.848Z" transform="translate(514.968 -927.75)" fill="#c4d9ed"></path><rect id="Rect&#xE1;ngulo_3847" data-name="Rect&#xE1;ngulo 3847" width="2.732" height="4.727" transform="translate(574.474 231.402)" fill="#adc9e0"></rect><rect id="Rect&#xE1;ngulo_3848" data-name="Rect&#xE1;ngulo 3848" width="63.311" height="42.578" transform="translate(303.309 233.077)" fill="#d5e7f7"></rect><rect id="Rect&#xE1;ngulo_3849" data-name="Rect&#xE1;ngulo 3849" width="63.311" height="13.839" transform="translate(303.309 227.514)" fill="#c4d9ed"></rect><rect id="Rect&#xE1;ngulo_3850" data-name="Rect&#xE1;ngulo 3850" width="3.252" height="4.583" transform="translate(307.62 245.454)" fill="#c4d9ed"></rect><rect id="Rect&#xE1;ngulo_3851" data-name="Rect&#xE1;ngulo 3851" width="3.252" height="4.583" transform="translate(313.7 245.454)" fill="#c4d9ed"></rect><rect id="Rect&#xE1;ngulo_3852" data-name="Rect&#xE1;ngulo 3852" width="3.252" height="4.583" transform="translate(319.645 245.454)" fill="#c4d9ed"></rect><rect id="Rect&#xE1;ngulo_3853" data-name="Rect&#xE1;ngulo 3853" width="3.251" height="4.583" transform="translate(325.281 245.454)" fill="#c4d9ed"></rect><rect id="Rect&#xE1;ngulo_3854" data-name="Rect&#xE1;ngulo 3854" width="3.251" height="4.583" transform="translate(331.025 245.454)" fill="#c4d9ed"></rect><rect id="Rect&#xE1;ngulo_3855" data-name="Rect&#xE1;ngulo 3855" width="3.251" height="4.583" transform="translate(336.835 245.454)" fill="#c4d9ed"></rect><rect id="Rect&#xE1;ngulo_3856" data-name="Rect&#xE1;ngulo 3856" width="3.252" height="4.583" transform="translate(342.916 245.454)" fill="#c4d9ed"></rect><rect id="Rect&#xE1;ngulo_3857" data-name="Rect&#xE1;ngulo 3857" width="3.251" height="4.583" transform="translate(348.86 245.454)" fill="#c4d9ed"></rect><rect id="Rect&#xE1;ngulo_3858" data-name="Rect&#xE1;ngulo 3858" width="3.251" height="4.583" transform="translate(354.496 245.454)" fill="#c4d9ed"></rect><rect id="Rect&#xE1;ngulo_3859" data-name="Rect&#xE1;ngulo 3859" width="3.251" height="4.583" transform="translate(360.241 245.454)" fill="#c4d9ed"></rect><rect id="Rect&#xE1;ngulo_3860" data-name="Rect&#xE1;ngulo 3860" width="3.252" height="4.583" transform="translate(307.62 253.541)" fill="#c4d9ed"></rect><rect id="Rect&#xE1;ngulo_3861" data-name="Rect&#xE1;ngulo 3861" width="3.252" height="4.583" transform="translate(313.7 253.541)" fill="#c4d9ed"></rect><rect id="Rect&#xE1;ngulo_3862" data-name="Rect&#xE1;ngulo 3862" width="3.252" height="4.583" transform="translate(319.645 253.541)" fill="#c4d9ed"></rect><rect id="Rect&#xE1;ngulo_3863" data-name="Rect&#xE1;ngulo 3863" width="3.251" height="4.583" transform="translate(325.281 253.541)" fill="#c4d9ed"></rect><rect id="Rect&#xE1;ngulo_3864" data-name="Rect&#xE1;ngulo 3864" width="3.251" height="4.583" transform="translate(331.025 253.541)" fill="#c4d9ed"></rect><rect id="Rect&#xE1;ngulo_3865" data-name="Rect&#xE1;ngulo 3865" width="3.251" height="4.583" transform="translate(336.835 253.541)" fill="#c4d9ed"></rect><rect id="Rect&#xE1;ngulo_3866" data-name="Rect&#xE1;ngulo 3866" width="3.252" height="4.583" transform="translate(342.916 253.541)" fill="#c4d9ed"></rect><rect id="Rect&#xE1;ngulo_3867" data-name="Rect&#xE1;ngulo 3867" width="3.251" height="4.583" transform="translate(348.86 253.541)" fill="#c4d9ed"></rect><rect id="Rect&#xE1;ngulo_3868" data-name="Rect&#xE1;ngulo 3868" width="3.251" height="4.583" transform="translate(354.496 253.541)" fill="#c4d9ed"></rect><rect id="Rect&#xE1;ngulo_3869" data-name="Rect&#xE1;ngulo 3869" width="3.251" height="4.583" transform="translate(360.241 253.541)" fill="#c4d9ed"></rect><rect id="Rect&#xE1;ngulo_3870" data-name="Rect&#xE1;ngulo 3870" width="3.252" height="4.583" transform="translate(307.62 261.505)" fill="#c4d9ed"></rect><rect id="Rect&#xE1;ngulo_3871" data-name="Rect&#xE1;ngulo 3871" width="3.252" height="4.583" transform="translate(313.7 261.505)" fill="#c4d9ed"></rect><rect id="Rect&#xE1;ngulo_3872" data-name="Rect&#xE1;ngulo 3872" width="3.252" height="4.583" transform="translate(319.645 261.505)" fill="#c4d9ed"></rect><rect id="Rect&#xE1;ngulo_3873" data-name="Rect&#xE1;ngulo 3873" width="3.251" height="4.583" transform="translate(325.281 261.505)" fill="#c4d9ed"></rect><rect id="Rect&#xE1;ngulo_3874" data-name="Rect&#xE1;ngulo 3874" width="3.251" height="4.583" transform="translate(331.025 261.505)" fill="#c4d9ed"></rect><rect id="Rect&#xE1;ngulo_3875" data-name="Rect&#xE1;ngulo 3875" width="3.251" height="4.583" transform="translate(336.835 261.505)" fill="#c4d9ed"></rect><rect id="Rect&#xE1;ngulo_3876" data-name="Rect&#xE1;ngulo 3876" width="3.252" height="4.583" transform="translate(342.916 261.505)" fill="#c4d9ed"></rect><rect id="Rect&#xE1;ngulo_3877" data-name="Rect&#xE1;ngulo 3877" width="3.251" height="4.583" transform="translate(348.86 261.505)" fill="#c4d9ed"></rect><rect id="Rect&#xE1;ngulo_3878" data-name="Rect&#xE1;ngulo 3878" width="3.251" height="4.583" transform="translate(354.496 261.505)" fill="#c4d9ed"></rect><rect id="Rect&#xE1;ngulo_3879" data-name="Rect&#xE1;ngulo 3879" width="3.251" height="4.583" transform="translate(360.241 261.505)" fill="#c4d9ed"></rect><rect id="Rect&#xE1;ngulo_3880" data-name="Rect&#xE1;ngulo 3880" width="2.733" height="4.727" transform="translate(308.139 231.402)" fill="#adc9e0"></rect><rect id="Rect&#xE1;ngulo_3881" data-name="Rect&#xE1;ngulo 3881" width="2.733" height="4.727" transform="translate(335.265 231.402)" fill="#adc9e0"></rect><rect id="Rect&#xE1;ngulo_3882" data-name="Rect&#xE1;ngulo 3882" width="2.732" height="4.727" transform="translate(356.844 231.402)" fill="#adc9e0"></rect><rect id="Rect&#xE1;ngulo_3883" data-name="Rect&#xE1;ngulo 3883" width="63.311" height="42.578" transform="translate(236.022 233.077)" fill="#d5e7f7"></rect><rect id="Rect&#xE1;ngulo_3884" data-name="Rect&#xE1;ngulo 3884" width="63.311" height="13.839" transform="translate(236.022 227.514)" fill="#c4d9ed"></rect><rect id="Rect&#xE1;ngulo_3885" data-name="Rect&#xE1;ngulo 3885" width="3.251" height="4.583" transform="translate(240.333 245.454)" fill="#c4d9ed"></rect><rect id="Rect&#xE1;ngulo_3886" data-name="Rect&#xE1;ngulo 3886" width="3.251" height="4.583" transform="translate(246.413 245.454)" fill="#c4d9ed"></rect><rect id="Rect&#xE1;ngulo_3887" data-name="Rect&#xE1;ngulo 3887" width="3.252" height="4.583" transform="translate(252.357 245.454)" fill="#c4d9ed"></rect><rect id="Rect&#xE1;ngulo_3888" data-name="Rect&#xE1;ngulo 3888" width="3.251" height="4.583" transform="translate(257.994 245.454)" fill="#c4d9ed"></rect><rect id="Rect&#xE1;ngulo_3889" data-name="Rect&#xE1;ngulo 3889" width="3.251" height="4.583" transform="translate(263.738 245.454)" fill="#c4d9ed"></rect><rect id="Rect&#xE1;ngulo_3890" data-name="Rect&#xE1;ngulo 3890" width="3.251" height="4.583" transform="translate(269.548 245.454)" fill="#c4d9ed"></rect><rect id="Rect&#xE1;ngulo_3891" data-name="Rect&#xE1;ngulo 3891" width="3.252" height="4.583" transform="translate(275.628 245.454)" fill="#c4d9ed"></rect><rect id="Rect&#xE1;ngulo_3892" data-name="Rect&#xE1;ngulo 3892" width="3.252" height="4.583" transform="translate(281.573 245.454)" fill="#c4d9ed"></rect><rect id="Rect&#xE1;ngulo_3893" data-name="Rect&#xE1;ngulo 3893" width="3.251" height="4.583" transform="translate(287.209 245.454)" fill="#c4d9ed"></rect><rect id="Rect&#xE1;ngulo_3894" data-name="Rect&#xE1;ngulo 3894" width="3.251" height="4.583" transform="translate(292.953 245.454)" fill="#c4d9ed"></rect><rect id="Rect&#xE1;ngulo_3895" data-name="Rect&#xE1;ngulo 3895" width="3.251" height="4.583" transform="translate(240.333 253.541)" fill="#c4d9ed"></rect><rect id="Rect&#xE1;ngulo_3896" data-name="Rect&#xE1;ngulo 3896" width="3.251" height="4.583" transform="translate(246.413 253.541)" fill="#c4d9ed"></rect><rect id="Rect&#xE1;ngulo_3897" data-name="Rect&#xE1;ngulo 3897" width="3.252" height="4.583" transform="translate(252.357 253.541)" fill="#c4d9ed"></rect><rect id="Rect&#xE1;ngulo_3898" data-name="Rect&#xE1;ngulo 3898" width="3.251" height="4.583" transform="translate(257.994 253.541)" fill="#c4d9ed"></rect><rect id="Rect&#xE1;ngulo_3899" data-name="Rect&#xE1;ngulo 3899" width="3.251" height="4.583" transform="translate(263.738 253.541)" fill="#c4d9ed"></rect><rect id="Rect&#xE1;ngulo_3900" data-name="Rect&#xE1;ngulo 3900" width="3.251" height="4.583" transform="translate(269.548 253.541)" fill="#c4d9ed"></rect><rect id="Rect&#xE1;ngulo_3901" data-name="Rect&#xE1;ngulo 3901" width="3.252" height="4.583" transform="translate(275.628 253.541)" fill="#c4d9ed"></rect><rect id="Rect&#xE1;ngulo_3902" data-name="Rect&#xE1;ngulo 3902" width="3.252" height="4.583" transform="translate(281.573 253.541)" fill="#c4d9ed"></rect><rect id="Rect&#xE1;ngulo_3903" data-name="Rect&#xE1;ngulo 3903" width="3.251" height="4.583" transform="translate(287.209 253.541)" fill="#c4d9ed"></rect><rect id="Rect&#xE1;ngulo_3904" data-name="Rect&#xE1;ngulo 3904" width="3.251" height="4.583" transform="translate(292.953 253.541)" fill="#c4d9ed"></rect><rect id="Rect&#xE1;ngulo_3905" data-name="Rect&#xE1;ngulo 3905" width="3.251" height="4.583" transform="translate(240.333 261.505)" fill="#c4d9ed"></rect><rect id="Rect&#xE1;ngulo_3906" data-name="Rect&#xE1;ngulo 3906" width="3.251" height="4.583" transform="translate(246.413 261.505)" fill="#c4d9ed"></rect><rect id="Rect&#xE1;ngulo_3907" data-name="Rect&#xE1;ngulo 3907" width="3.252" height="4.583" transform="translate(252.357 261.505)" fill="#c4d9ed"></rect><rect id="Rect&#xE1;ngulo_3908" data-name="Rect&#xE1;ngulo 3908" width="3.251" height="4.583" transform="translate(257.994 261.505)" fill="#c4d9ed"></rect><rect id="Rect&#xE1;ngulo_3909" data-name="Rect&#xE1;ngulo 3909" width="3.251" height="4.583" transform="translate(263.738 261.505)" fill="#c4d9ed"></rect><rect id="Rect&#xE1;ngulo_3910" data-name="Rect&#xE1;ngulo 3910" width="3.251" height="4.583" transform="translate(269.548 261.505)" fill="#c4d9ed"></rect><rect id="Rect&#xE1;ngulo_3911" data-name="Rect&#xE1;ngulo 3911" width="3.252" height="4.583" transform="translate(275.628 261.505)" fill="#c4d9ed"></rect><rect id="Rect&#xE1;ngulo_3912" data-name="Rect&#xE1;ngulo 3912" width="3.252" height="4.583" transform="translate(281.573 261.505)" fill="#c4d9ed"></rect><rect id="Rect&#xE1;ngulo_3913" data-name="Rect&#xE1;ngulo 3913" width="3.251" height="4.583" transform="translate(287.209 261.505)" fill="#c4d9ed"></rect><rect id="Rect&#xE1;ngulo_3914" data-name="Rect&#xE1;ngulo 3914" width="3.251" height="4.583" transform="translate(292.953 261.505)" fill="#c4d9ed"></rect><rect id="Rect&#xE1;ngulo_3915" data-name="Rect&#xE1;ngulo 3915" width="2.732" height="4.727" transform="translate(240.852 231.402)" fill="#adc9e0"></rect><rect id="Rect&#xE1;ngulo_3916" data-name="Rect&#xE1;ngulo 3916" width="2.732" height="4.727" transform="translate(267.978 231.402)" fill="#adc9e0"></rect><rect id="Rect&#xE1;ngulo_3917" data-name="Rect&#xE1;ngulo 3917" width="2.732" height="4.727" transform="translate(289.557 231.402)" fill="#adc9e0"></rect><rect id="Rect&#xE1;ngulo_3918" data-name="Rect&#xE1;ngulo 3918" width="63.311" height="42.578" transform="translate(168.585 233.077)" fill="#d5e7f7"></rect><rect id="Rect&#xE1;ngulo_3919" data-name="Rect&#xE1;ngulo 3919" width="63.311" height="13.839" transform="translate(168.585 227.514)" fill="#c4d9ed"></rect><rect id="Rect&#xE1;ngulo_3920" data-name="Rect&#xE1;ngulo 3920" width="3.252" height="4.583" transform="translate(172.896 245.454)" fill="#c4d9ed"></rect><rect id="Rect&#xE1;ngulo_3921" data-name="Rect&#xE1;ngulo 3921" width="3.252" height="4.583" transform="translate(178.977 245.454)" fill="#c4d9ed"></rect><rect id="Rect&#xE1;ngulo_3922" data-name="Rect&#xE1;ngulo 3922" width="3.251" height="4.583" transform="translate(184.921 245.454)" fill="#c4d9ed"></rect><rect id="Rect&#xE1;ngulo_3923" data-name="Rect&#xE1;ngulo 3923" width="3.252" height="4.583" transform="translate(190.557 245.454)" fill="#c4d9ed"></rect><rect id="Rect&#xE1;ngulo_3924" data-name="Rect&#xE1;ngulo 3924" width="3.251" height="4.583" transform="translate(196.302 245.454)" fill="#c4d9ed"></rect><rect id="Rect&#xE1;ngulo_3925" data-name="Rect&#xE1;ngulo 3925" width="3.252" height="4.583" transform="translate(202.112 245.454)" fill="#c4d9ed"></rect><rect id="Rect&#xE1;ngulo_3926" data-name="Rect&#xE1;ngulo 3926" width="3.252" height="4.583" transform="translate(208.192 245.454)" fill="#c4d9ed"></rect><rect id="Rect&#xE1;ngulo_3927" data-name="Rect&#xE1;ngulo 3927" width="3.251" height="4.583" transform="translate(214.136 245.454)" fill="#c4d9ed"></rect><rect id="Rect&#xE1;ngulo_3928" data-name="Rect&#xE1;ngulo 3928" width="3.252" height="4.583" transform="translate(219.772 245.454)" fill="#c4d9ed"></rect><rect id="Rect&#xE1;ngulo_3929" data-name="Rect&#xE1;ngulo 3929" width="3.251" height="4.583" transform="translate(225.517 245.454)" fill="#c4d9ed"></rect><rect id="Rect&#xE1;ngulo_3930" data-name="Rect&#xE1;ngulo 3930" width="3.252" height="4.583" transform="translate(172.896 253.541)" fill="#c4d9ed"></rect><rect id="Rect&#xE1;ngulo_3931" data-name="Rect&#xE1;ngulo 3931" width="3.252" height="4.583" transform="translate(178.977 253.541)" fill="#c4d9ed"></rect><rect id="Rect&#xE1;ngulo_3932" data-name="Rect&#xE1;ngulo 3932" width="3.251" height="4.583" transform="translate(184.921 253.541)" fill="#c4d9ed"></rect><rect id="Rect&#xE1;ngulo_3933" data-name="Rect&#xE1;ngulo 3933" width="3.252" height="4.583" transform="translate(190.557 253.541)" fill="#c4d9ed"></rect><rect id="Rect&#xE1;ngulo_3934" data-name="Rect&#xE1;ngulo 3934" width="3.251" height="4.583" transform="translate(196.302 253.541)" fill="#c4d9ed"></rect><rect id="Rect&#xE1;ngulo_3935" data-name="Rect&#xE1;ngulo 3935" width="3.252" height="4.583" transform="translate(202.112 253.541)" fill="#c4d9ed"></rect><rect id="Rect&#xE1;ngulo_3936" data-name="Rect&#xE1;ngulo 3936" width="3.252" height="4.583" transform="translate(208.192 253.541)" fill="#c4d9ed"></rect><rect id="Rect&#xE1;ngulo_3937" data-name="Rect&#xE1;ngulo 3937" width="3.251" height="4.583" transform="translate(214.136 253.541)" fill="#c4d9ed"></rect><rect id="Rect&#xE1;ngulo_3938" data-name="Rect&#xE1;ngulo 3938" width="3.252" height="4.583" transform="translate(219.772 253.541)" fill="#c4d9ed"></rect><rect id="Rect&#xE1;ngulo_3939" data-name="Rect&#xE1;ngulo 3939" width="3.251" height="4.583" transform="translate(225.517 253.541)" fill="#c4d9ed"></rect><rect id="Rect&#xE1;ngulo_3940" data-name="Rect&#xE1;ngulo 3940" width="3.252" height="4.583" transform="translate(172.896 261.505)" fill="#c4d9ed"></rect><rect id="Rect&#xE1;ngulo_3941" data-name="Rect&#xE1;ngulo 3941" width="3.252" height="4.583" transform="translate(178.977 261.505)" fill="#c4d9ed"></rect><rect id="Rect&#xE1;ngulo_3942" data-name="Rect&#xE1;ngulo 3942" width="3.251" height="4.583" transform="translate(184.921 261.505)" fill="#c4d9ed"></rect><rect id="Rect&#xE1;ngulo_3943" data-name="Rect&#xE1;ngulo 3943" width="3.252" height="4.583" transform="translate(190.557 261.505)" fill="#c4d9ed"></rect><rect id="Rect&#xE1;ngulo_3944" data-name="Rect&#xE1;ngulo 3944" width="3.251" height="4.583" transform="translate(196.302 261.505)" fill="#c4d9ed"></rect><rect id="Rect&#xE1;ngulo_3945" data-name="Rect&#xE1;ngulo 3945" width="3.252" height="4.583" transform="translate(202.112 261.505)" fill="#c4d9ed"></rect><rect id="Rect&#xE1;ngulo_3946" data-name="Rect&#xE1;ngulo 3946" width="3.252" height="4.583" transform="translate(208.192 261.505)" fill="#c4d9ed"></rect><rect id="Rect&#xE1;ngulo_3947" data-name="Rect&#xE1;ngulo 3947" width="3.251" height="4.583" transform="translate(214.136 261.505)" fill="#c4d9ed"></rect><rect id="Rect&#xE1;ngulo_3948" data-name="Rect&#xE1;ngulo 3948" width="3.252" height="4.583" transform="translate(219.772 261.505)" fill="#c4d9ed"></rect><rect id="Rect&#xE1;ngulo_3949" data-name="Rect&#xE1;ngulo 3949" width="3.251" height="4.583" transform="translate(225.517 261.505)" fill="#c4d9ed"></rect><rect id="Rect&#xE1;ngulo_3950" data-name="Rect&#xE1;ngulo 3950" width="2.733" height="4.727" transform="translate(173.415 231.402)" fill="#adc9e0"></rect><rect id="Rect&#xE1;ngulo_3951" data-name="Rect&#xE1;ngulo 3951" width="2.733" height="4.727" transform="translate(200.542 231.402)" fill="#adc9e0"></rect><rect id="Rect&#xE1;ngulo_3952" data-name="Rect&#xE1;ngulo 3952" width="2.732" height="4.727" transform="translate(222.121 231.402)" fill="#adc9e0"></rect><path id="Trazado_5943" data-name="Trazado 5943" d="M1299.585,976.179v0l298.915-1.558s-8.912-36.5-48.72-36.5-53.843-30.064-100.406-29.8c-30.466.176-50.478-15.878-77.937-25.044l-.441.282c-8.2,5.183-18.566,9.633-28.9,14.851a152.046,152.046,0,0,0-16.718,9.6,75.17,75.17,0,0,0-13.54,11.5,54.338,54.338,0,0,0-6.94,9.443c-.114.194-.224.388-.333.582a52.645,52.645,0,0,0-5.7,15.59c-.059.3-.116.594-.17.894-1.554,8.488-1.446,18.415.886,30.158" transform="translate(-1282.322 -698.486)" fill="#b9e0ad"></path><path id="Trazado_5944" data-name="Trazado 5944" d="M1267,1224.542s-67.057-17.955-185.563-12.275-200.374-13.423-200.374-13.423v27.151Z" transform="translate(-863.662 -948.025)" fill="#acd29a"></path><path id="Trazado_5945" data-name="Trazado 5945" d="M2351.642,1049.6a52.624,52.624,0,0,1,5.7-15.589c3.919-2.683,9.013-5.037,12.884-2.842,7.273,4.124-12.676,5.965-15.629,12.2a23.43,23.43,0,0,0-1.934,5.885,10.822,10.822,0,0,1,4.412-.453c1.7.252,4.574,2.354,6.322,3.747a12.389,12.389,0,0,1-1.748-4.986c-.454-4.566,1.334-9.72,4.193-6.317,2.072,2.467,1.141,8.979.471,12.378,1.106.434,2.219.906,3.331,1.419,4.256-14.993,14.252-38.826,33.719-39.644,0,0,7.682,2.927-.828,12.551-7.241,8.188-18.811,11.469-29.778,28.639q1.017.545,2.023,1.139c5.259-5.037,15.1-13.032,23.335-11.586,8.793,1.545-10.3,9.282-20.794,13.191a45.761,45.761,0,0,1,6.813,5.584s3.429,4.574,18.581,2.287,28.3,13.45,28.3,13.45h-78.658c-2.413-12.158-2.445-22.37-.715-31.053" transform="translate(-2335.095 -802.959)" fill="#82b378"></path><path id="Trazado_5946" data-name="Trazado 5946" d="M47.517,1171.932l26.347-.082h0l7.131-.018h0l.776,0,4.168-.014h0l2.855-.01,1.26,0s.1-.163.286-.484l.245-.427c.031-.057.065-.116.1-.18.124-.222.265-.474.423-.762.192-.349.406-.747.643-1.19v0c.882-1.654,2.052-3.948,3.382-6.8q.656-1.4,1.356-2.986c.186-.421.372-.847.562-1.284v0q.285-.656.57-1.338c.127-.3.255-.609.384-.921s.268-.641.4-.968c.686-1.687,1.389-3.478,2.087-5.367l.055-.149v0q1.063-2.87,2.1-6.028c.014-.045.031-.09.045-.139.108-.331.215-.662.323-1q.41-1.289.817-2.618.824-2.711,1.589-5.589c.088-.331.176-.664.261-1a37.049,37.049,0,0,0-4.961-.157,26.737,26.737,0,0,0-6.888,1.125,21.986,21.986,0,0,0-7.479,4.015c-4.446,3.617-7.281,8.571-10.021,12.974a36.617,36.617,0,0,1-5.067,6.835,10.921,10.921,0,0,1-6.482,3.3,29.487,29.487,0,0,0-4.877.991c-9.086,2.689-11.89,8.912-12.4,10.277" transform="translate(472.033 -895.477)" fill="#8ebf82"></path><path id="Trazado_5947" data-name="Trazado 5947" d="M517.035,986.943l3.006-.587s-7.185-28.413-6.2-30.759c.8-1.948,9.079-3.355,13.138-6.757a6.412,6.412,0,0,0,1.9-2.44,9.089,9.089,0,0,0-1.361-9.2,95.031,95.031,0,0,0-14.053,4.551c-4.762,2.041-9.173,4.692-10.393,7.765-2.932,7.437,13.962,37.422,13.962,37.422" transform="translate(-47.09 -741.125)" fill="#e58638"></path><path id="Trazado_5948" data-name="Trazado 5948" d="M538.442,1169.491a1.021,1.021,0,0,1,.535-.721,8.593,8.593,0,0,0,3.274-2.422c.617-.822,3.163-3.254,3.163-3.254l.015-.007c.065-.016.4-.012,2.014.649.835.341,1.7-1.226,1.7-1.226a1.589,1.589,0,0,1,.512.368,1.47,1.47,0,0,1,.409.94,5.9,5.9,0,0,0,1.128,2.233c.282.394.5.668.5.668s.174.34-1.245.879l-1.7.439c-.59.068-1.047.031-1.648.114a1.772,1.772,0,0,0-1.3.648.184.184,0,0,0-.012.019l-7.217,1.866c-.241-.182-.2-.758-.134-1.193" transform="translate(-76.674 -919.293)" fill="#415da5"></path><path id="Trazado_5949" data-name="Trazado 5949" d="M384.906,984.11l3.038-3.144-.268-.548.482.326,0,0,.008.012,34.41,23.265,7.671-24,2.6.83-7.915,24.756L455.093,1026l-36.351,3.161-.236-2.716,28.687-2.495L423.849,1009l-6.4,20.021-2.6-.83.732-2.292-1.741,1.123Zm36.567,23.371L393.8,989.761l22.05,35.323Z" transform="translate(52.049 -774.984)" fill="#739cf3"></path><path id="Trazado_5950" data-name="Trazado 5950" d="M669.6,942.076a2.64,2.64,0,0,1,3.147-1.572c3.973-10.309,5.294-13.7,5.767-14.867l-3.234-2.058a2.765,2.765,0,1,1,2.86-2l6.428,4.091a2.768,2.768,0,1,1-1.315,2.981l-2.421-1.541c-.866,2.156-3.819,9.414-5.711,14.322l-15.578,33.337-2.525-1.03Z" transform="translate(-238.507 -725.985)" fill="#415da5"></path><path id="Trazado_5951" data-name="Trazado 5951" d="M569.565,1212.965h2.506l11.917-5.431.44.965-9.8,4.466h.845a1.262,1.262,0,1,1,0,2.525h-5.908a1.262,1.262,0,1,1,0-2.525" transform="translate(-115.657 -954.898)" fill="#415da5"></path><path id="Trazado_5952" data-name="Trazado 5952" d="M308.926,1102.693c0-.148.008-.294.022-.439l-19.083-3.2.1-.6,19.083,3.2a4.467,4.467,0,0,1,1.542-2.442l-11.582-16.546.5-.347,11.113,15.875-5.993-17.979.575-.192,6.219,18.659a4.449,4.449,0,0,1,1.673-.449V1078.3h.606v19.932a4.481,4.481,0,0,1,1,.183l6.186-17.237.571.2-5.887,16.4,11.836-13.625.458.4-12.337,14.2a4.488,4.488,0,0,1,1.6,1.466l.7-.12,17.251-8.745.274.541-15.5,7.856,17.277-2.972.1.6-19.215,3.3-.5.255a4.454,4.454,0,0,1,.354,1.746c0,.119-.006.237-.015.354l19.071,2.83-.089.6-19.07-2.83a4.459,4.459,0,0,1-.149.527l17.414,7.481-.239.557-17.415-7.481-.009.018,13.669,13.787-.43.427-13.564-13.682a4.5,4.5,0,0,1-.994,1.011l10.03,15.779-.511.325-10.03-15.778c-.088.048-.178.092-.27.134,2.506,6.6,7.094,18.684,7.207,19.021l-.575.192c-.1-.3-4.141-10.949-7.2-19a4.465,4.465,0,0,1-1.3.193q-.112,0-.222-.005l1.584,19.143-.6.05-1.595-19.267a4.436,4.436,0,0,1-.563-.145c-3.152,7.753-7.292,17.946-7.4,18.272l-.575-.192c.113-.338,4.813-11.907,7.416-18.308-.056-.027-.112-.055-.167-.085l-10.644,16.833-.512-.324,10.645-16.834a4.5,4.5,0,0,1-1.083-1.133l-15.8,10.955-.345-.5,15.842-10.985a4.453,4.453,0,0,1-.445-1.945" transform="translate(189.796 -852.705)" fill="#415da5"></path><path id="Trazado_5953" data-name="Trazado 5953" d="M304.731,1122.029a26.2,26.2,0,1,0-13.259-3.6,26.236,26.236,0,0,0,13.259,3.6m0-48.778a22.578,22.578,0,1,1-22.571,22.572,22.6,22.6,0,0,1,22.571-22.572" transform="translate(198.461 -845.834)" fill="#2c3a64"></path><path id="Trazado_5954" data-name="Trazado 5954" d="M711.983,1102.693q0-.222.022-.439l-19.083-3.2.1-.6,19.083,3.2a4.468,4.468,0,0,1,1.542-2.442l-11.582-16.546.5-.347,11.113,15.875-5.993-17.979.575-.192,6.219,18.659a4.448,4.448,0,0,1,1.673-.449V1078.3h.606v19.932a4.483,4.483,0,0,1,1,.183l6.186-17.237.57.2-5.887,16.4,11.836-13.625.457.4-12.337,14.2a4.489,4.489,0,0,1,1.6,1.466l.7-.12,17.251-8.745.274.541-15.5,7.856,17.278-2.972.1.6-19.215,3.3-.5.255a4.457,4.457,0,0,1,.354,1.746c0,.119-.006.237-.015.354l19.071,2.83-.089.6-19.07-2.83a4.42,4.42,0,0,1-.15.527l17.414,7.481-.239.557-17.415-7.481-.01.018,13.669,13.787-.43.427-13.564-13.682a4.494,4.494,0,0,1-.995,1.011l10.03,15.779-.511.325-10.03-15.778c-.088.048-.178.092-.27.134,2.506,6.6,7.094,18.684,7.207,19.021l-.575.192c-.1-.3-4.141-10.949-7.2-19a4.463,4.463,0,0,1-1.3.193c-.074,0-.148,0-.222-.005l1.584,19.143-.6.05-1.594-19.267a4.424,4.424,0,0,1-.563-.145c-3.153,7.753-7.292,17.946-7.4,18.272l-.575-.192c.113-.338,4.813-11.907,7.416-18.308-.056-.027-.112-.055-.167-.085l-10.644,16.833-.512-.324,10.645-16.834a4.493,4.493,0,0,1-1.083-1.133l-15.8,10.955-.345-.5,15.842-10.985a4.452,4.452,0,0,1-.445-1.945" transform="translate(-297.586 -852.705)" fill="#415da5"></path><path id="Trazado_5955" data-name="Trazado 5955" d="M707.788,1122.029a26.2,26.2,0,1,0-13.259-3.6,26.236,26.236,0,0,0,13.259,3.6m0-48.778a22.578,22.578,0,1,1-22.571,22.572,22.6,22.6,0,0,1,22.571-22.572" transform="translate(-288.923 -845.834)" fill="#2c3a64"></path><path id="Trazado_5956" data-name="Trazado 5956" d="M334.7,1033.818h0a1.657,1.657,0,0,1,2.112-1.014l1.511.531a4.647,4.647,0,0,0,3.614-.223c5.508-2.746,12.211-4.135,19.973-4.135h.28a110.766,110.766,0,0,1,12.322,1.259,1.478,1.478,0,0,1,1.261,1.463v.958a.435.435,0,0,1-.525.426l-.008,0c-4.907-1.03-21.872-3.814-34.134,3.594a1.361,1.361,0,0,1-1.157.119l-4.6-1.615a1.07,1.07,0,0,1-.655-1.364" transform="translate(141.885 -813.699)" fill="#d57912"></path><path id="Trazado_5957" data-name="Trazado 5957" d="M451.642,966.341c1.25-1.212,8.37-.038,9.733.114s6.476-.947,7.877-.8.909,2.386.909,2.386c-2.159,5.378-9.013,3.03-9.96,2.234s-4.28-1.212-6.779-1.439-3.03-1.288-1.78-2.5" transform="translate(23.07 -763.616)" fill="#415da5"></path><path id="Trazado_5958" data-name="Trazado 5958" d="M545.277,1179.671a6.817,6.817,0,1,1-6.817,6.817,6.817,6.817,0,0,1,6.817-6.817" transform="translate(-77.078 -932.864)" fill="#2c3a64"></path><path id="Trazado_5959" data-name="Trazado 5959" d="M562.846,842.632l.032-.006c2.272-1.239,14.351-7.892,14.883-9.486.328-.985,1.853-5.138,3.519-8.821.422-.915.983-.822,1.405-1.643.915-1.759,4.353-.306,5.01-.611,2.158-.985,4.541-1.828,4.541.33,0,0-.61,1.572-1.548,3.754-.376.868-.8,1.83-1.244,2.839-1.877,4.106-4.316,8.8-6.006,9.642-2.738,1.348-13.1,5.736-17.146,6.475l.005.007s-1.947,1.918-2.379,2.28a2.556,2.556,0,0,1-2.339.438c-.935-.331-.91-1.879-.961-2.271a2.934,2.934,0,0,1,2.228-2.926" transform="translate(-121.855 -649.267)" fill="#ed975d"></path><path id="Trazado_5960" data-name="Trazado 5960" d="M552.018,777.435s.667,1.49,1.63,3.181c.052.087.1.179.157.27a17.244,17.244,0,0,0,2.545,3.508l8.092-3.778a26.817,26.817,0,0,1-5.434-5.717,7.081,7.081,0,0,1-.466-.876l-1.573-.057Z" transform="translate(-92.263 -612.04)" fill="#ffb27d"></path><path id="Trazado_5961" data-name="Trazado 5961" d="M577.991,777.435s.667,1.49,1.63,3.181c.052.087.1.179.157.27a13.363,13.363,0,0,0,5.2-5.988,7.081,7.081,0,0,1-.466-.876l-1.573-.057Z" transform="translate(-118.236 -612.04)" fill="#ed975d"></path><path id="Trazado_5962" data-name="Trazado 5962" d="M571.953,731.711s9.315,1.461,10.136-4.354,2.575-9.543-3.338-10.722-7.384.877-8.13,2.752-1.07,11.795,1.332,12.325" transform="translate(-114.581 -566.429)" fill="#ffb27d"></path><path id="Trazado_5963" data-name="Trazado 5963" d="M572.591,704.991a1.615,1.615,0,0,0-.763.441l0-.007a4.6,4.6,0,0,0-1.255-2.522,3.293,3.293,0,0,1,.4,2.119c-1.754-3-10.3-.64-11.1-.441s-1.366-1-1.366-1a4.792,4.792,0,0,0-.7,5.528c1.048,1.752,4.447,4.329,5.425,3.839s.981.523.93,1.946,2.414,3.815,4.152,4.163c1.4.28,1.509-.678,1.892-1.29a1.932,1.932,0,0,1,.34-.411c1.907-1.721,2.957-5.161,2.53-8.55a8.489,8.489,0,0,0-1.038-3.025,4.364,4.364,0,0,1,.552-.788" transform="translate(-102.086 -555.844)" fill="#2c3a64"></path><path id="Trazado_5964" data-name="Trazado 5964" d="M569.324,817.759c.727.234,2.487.891,2.956,1.689.492.8,5.654-1.431,6.264-3.519-1.478-1.619-4.012-3-5.489-2.534-.868.258-2.276,2.111-3.73,4.364" transform="translate(-109.985 -643.146)" fill="#1e3d70"></path><path id="Trazado_5965" data-name="Trazado 5965" d="M466.98,929.924c.838-1.676,10.678-20.221,10.678-20.221.1.006,14.828-9.264,14.828-9.264a16.64,16.64,0,0,1,3.322,7.327,23.084,23.084,0,0,1,.642,3.769c.44,5.132-21.677,25.668-22.185,28.518-1.2,6.746-8.478,20.64-11.9,27.532l-2.727-1.045s5.385-32.707,7.34-36.616" transform="translate(-4.951 -712.053)" fill="#ee9849"></path><path id="Trazado_5966" data-name="Trazado 5966" d="M467.555,805.73l2.349,3.346.188.423,4.88,11.143,1.327,5.226a.525.525,0,0,0,.423.388,19.984,19.984,0,0,0,6.884-.312,32.036,32.036,0,0,0,11.255-6.694,1.413,1.413,0,0,0,.339-1.557,65.206,65.206,0,0,0-12.463-19.525c-2.158-2.346-7.812-4.27-7.812-4.27-1.548,1.6-7.085,4.387-7.085,4.387-1.22.962-.285,7.446-.285,7.446" transform="translate(-5.381 -627.801)" fill="#2a4e96"></path><path id="Trazado_5967" data-name="Trazado 5967" d="M554.385,841.244l4.88,11.144c3.707-7.484,1.361-18.346,1.361-18.346s-5.959,5.161-6.17,5.56a12.286,12.286,0,0,0-.07,1.642" transform="translate(-89.674 -659.547)" fill="#1e3d70"></path><path id="Trazado_5968" data-name="Trazado 5968" d="M555.231,839.365l.029-.005c2.264-1.236,14.354-7.893,14.885-9.488.328-.985,1.854-5.138,3.519-8.821.422-.915.845-1.807,1.267-2.628.915-1.76,1.783-3.1,2.44-3.4,2.159-.986,7.249,1.947,7.249,4.105,0,0-.61,1.572-1.549,3.754-.375.868-.8,1.83-1.243,2.839-1.877,4.106-4.316,8.8-6.006,9.642-2.738,1.348-13.1,5.736-17.146,6.475l.006.007s-1.947,1.918-2.379,2.28a2.555,2.555,0,0,1-2.339.438c-.935-.331-1.142-1.6-1.193-1.988s-.442-2.484,2.46-3.209" transform="translate(-112.59 -644.351)" fill="#ffb27d"></path><path id="Trazado_5969" data-name="Trazado 5969" d="M551.694,820.27a46.152,46.152,0,0,1,8.486,4.853c.463-1.049.9-2.049,1.292-2.951.975-2.268,1.609-3.9,1.609-3.9,0-2.243-5.292-5.292-7.535-4.267-.683.317-1.585,1.707-2.536,3.536-.439.853-.878,1.78-1.317,2.731" transform="translate(-90.836 -643.538)" fill="#2a4e96"></path><path id="Trazado_5970" data-name="Trazado 5970" d="M622.163,1213.06h-1.755c-.588-.082-1.022-.232-1.625-.3a1.77,1.77,0,0,0-1.421.3l-.016.015h-7.454c-.188-.237-.008-.785.169-1.189a1.023,1.023,0,0,1,.7-.564,8.592,8.592,0,0,0,3.776-1.525c.8-.641,3.877-2.359,3.877-2.359l.016,0c.068,0,.389.089,1.787,1.132.723.539,1.955-.761,1.955-.761a1.592,1.592,0,0,1,.4.484,1.471,1.471,0,0,1,.16,1.012,5.893,5.893,0,0,0,.534,2.444c.174.453.32.773.32.773s.084.373-1.426.54" transform="translate(-163.503 -954.819)" fill="#739cf3"></path><path id="Trazado_5971" data-name="Trazado 5971" d="M618.827,1208.291a5.863,5.863,0,0,1-1.89.843c-.792.092-2.273-1.7-2.273-1.7l.016,0c.068,0,.389.089,1.787,1.132.723.539,1.955-.761,1.955-.761a1.592,1.592,0,0,1,.4.484" transform="translate(-159.755 -954.819)" fill="#415da5"></path><path id="Trazado_5972" data-name="Trazado 5972" d="M622.163,1229.36h-1.755c-.588-.082-1.022-.232-1.625-.3a1.77,1.77,0,0,0-1.421.3l-.016.015h-7.454c-.188-.237-.008-.785.169-1.189.226-.178.29.773.415.925a37.572,37.572,0,0,0,6.425-.166,4,4,0,0,1,2.814-.3,7.54,7.54,0,0,0,3.553-.594c.174.453.32.773.32.773s.084.373-1.426.54" transform="translate(-163.503 -971.119)" fill="#415da5"></path><path id="Trazado_5973" data-name="Trazado 5973" d="M2137.532,1160s-1.109,2.523-2.638,1.414a7.377,7.377,0,0,1-2.179-3.555l4.791,1.4Z" transform="translate(-1996.063 -915.615)" fill="#ce8e55"></path><path id="Trazado_5974" data-name="Trazado 5974" d="M2124.965,1168.183a1.278,1.278,0,0,1,.841-.769,9.687,9.687,0,0,0,4.55-2.078c.967-.874,4.671-3.215,4.671-3.215l.02,0c.081,0,.469.12,2.153,1.543.871.734,2.355-1.037,2.355-1.037a2.111,2.111,0,0,1,.487.66,2.231,2.231,0,0,1,.193,1.379,8.941,8.941,0,0,0,.644,3.33c.209.616.386,1.053.386,1.053s.1.508-1.718.736h-2.114c-.708-.112-1.231-.317-1.958-.411a1.958,1.958,0,0,0-1.712.411.252.252,0,0,0-.02.021h-8.982c-.226-.322-.009-1.07.2-1.62" transform="translate(-1998.112 -918.982)" fill="#aa5a0b"></path><path id="Trazado_5975" data-name="Trazado 5975" d="M2081.967,904.1c-3.329,6.387-17.445,14.9-16.782,15.673,4.7,5.5,7.735,26.359,7.735,26.359a4.7,4.7,0,0,1-1.831.565,9.871,9.871,0,0,1-3-.471c-5.849-11.927-15.062-24.962-14.259-27.829,2.044-7.3,17.547-26.836,17.547-26.836l13.877-3.07,4.2-.141s-2.947,7.026-7.492,15.75" transform="translate(-1931.476 -702.495)" fill="#2c3a64"></path><path id="Trazado_5976" data-name="Trazado 5976" d="M2324.508,1048.764l16.2-34.678-2.171-.868a2.746,2.746,0,0,0-3.573,1.536l-13.087,32.939Z" transform="translate(-2238.821 -801.08)" fill="#415da5"></path><path id="Trazado_5977" data-name="Trazado 5977" d="M1971.219,952.521c6.149-15.956,6.226-16.071,6.341-16.244l2.36,1.572c.031-.047-.962,2.395-2.255,5.606l35.6,24.072,7.98-24.961,2.7.864-8.233,25.752,31.372,21.21-37.813,3.288-.245-2.826,29.841-2.595-24.282-15.546-6.658,20.826-2.7-.864.762-2.384-1.811,1.168-28.694-42.555c-.625,1.574-1.233,3.122-1.761,4.493Zm35.043,36.921,5.854-18.311L1983.325,952.7Z" transform="translate(-1871.832 -740.392)" fill="#ee9849"></path><path id="Trazado_5978" data-name="Trazado 5978" d="M2258.171,926.875a2.441,2.441,0,0,1,2.3,1.615l6.718-.383a2.445,2.445,0,1,1,.6,2.815l-8.333.476a2.441,2.441,0,1,1-1.276-4.522" transform="translate(-2156.121 -732.791)" fill="#415da5"></path><path id="Trazado_5979" data-name="Trazado 5979" d="M1892.183,1093.947q0-.231.022-.457l-19.851-3.33.1-.622,19.851,3.33a4.649,4.649,0,0,1,1.6-2.54l-12.048-17.212.516-.361,11.56,16.514-6.234-18.7.6-.2,6.469,19.409a4.621,4.621,0,0,1,1.741-.467v-20.733h.63v20.733a4.645,4.645,0,0,1,1.042.19l6.435-17.931.593.213-6.124,17.064,12.312-14.174.476.413-12.833,14.773a4.672,4.672,0,0,1,1.662,1.525l.726-.125,17.945-9.1.285.562-16.12,8.172,17.973-3.091.107.621-19.989,3.438-.525.266a4.63,4.63,0,0,1,.368,1.817c0,.124-.006.247-.016.369l19.839,2.944-.093.623-19.837-2.943a4.592,4.592,0,0,1-.155.549l18.115,7.782-.249.579-18.115-7.782-.01.019,14.219,14.342-.447.444-14.11-14.233a4.671,4.671,0,0,1-1.034,1.052l10.434,16.414-.532.338-10.433-16.413c-.092.05-.186.1-.281.14,2.607,6.863,7.38,19.435,7.5,19.786l-.6.2c-.1-.311-4.308-11.389-7.488-19.761a4.652,4.652,0,0,1-1.353.2c-.077,0-.154,0-.231-.006l1.648,19.913-.628.052-1.658-20.042a4.61,4.61,0,0,1-.586-.151c-3.279,8.065-7.585,18.667-7.7,19.007l-.6-.2c.117-.352,5.007-12.386,7.714-19.044-.058-.028-.116-.058-.173-.089l-11.072,17.51-.533-.337,11.073-17.511a4.662,4.662,0,0,1-1.127-1.178l-16.434,11.4-.359-.518,16.479-11.427a4.629,4.629,0,0,1-.462-2.023" transform="translate(-1725.684 -845.013)" fill="#2c3a64"></path><path id="Trazado_5980" data-name="Trazado 5980" d="M1887.821,1114.061a27.249,27.249,0,1,0-13.792-3.741,27.291,27.291,0,0,0,13.792,3.741m0-50.74a23.485,23.485,0,1,1-23.479,23.479,23.506,23.506,0,0,1,23.479-23.479" transform="translate(-1716.673 -837.866)" fill="#2c3a64"></path><path id="Trazado_5981" data-name="Trazado 5981" d="M1901.1,1123.863a24.012,24.012,0,1,0-24.012-24.012,24.039,24.039,0,0,0,24.012,24.012m0-47.055a23.043,23.043,0,1,1-23.043,23.043,23.069,23.069,0,0,1,23.043-23.043" transform="translate(-1730.158 -850.755)" fill="#b84c42"></path><path id="Trazado_5982" data-name="Trazado 5982" d="M2289.6,1090.162l.1-.622,23.683,3.973-.9-1.292-.281.094-.315-.945-12.776-18.251.517-.361,11.56,16.514-6.234-18.7.6-.2,6.9,20.714,1.465,2.094.259-.179.019-.053-.437-.442v-23.924h.63V1092l.156-.027.6-1.659-.044-.038.1-.113,6.671-18.591.593.213-6.124,17.064,12.313-14.174.476.413-13.376,15.4-.49,1.363,3.419-.588,17.945-9.1.285.563-16.12,8.172,17.973-3.091.107.621-19.989,3.438-3.236,1.641.413.417,22.49,3.337-.093.624-21.656-3.213.179.181,19.6,8.419-.249.58-18.166-7.8,14.259,14.383-.448.444-15.357-15.491-1.727-.742,12.374,19.466-.532.338-11.263-17.718c2.411,6.346,7.92,20.854,8.046,21.231l-.6.2c-.119-.358-5.683-15.011-8.85-23.348l-.444,1.09,1.871,22.6-.629.052-1.768-21.365c-3.322,8.167-8.055,19.822-8.177,20.178l-.6-.2c.124-.371,5.542-13.7,8.128-20.061l-11.659,18.438-.533-.337,13.281-21-19.768,13.707-.36-.518,19.273-13.364Zm25.465,2.36.293.423,1.414-.716Z" transform="translate(-2230.22 -845.013)" fill="#415da5"></path><path id="Trazado_5983" data-name="Trazado 5983" d="M2395.179,1172.269a4.649,4.649,0,1,0-4.649,4.649,4.649,4.649,0,0,0,4.649-4.649" transform="translate(-2306.677 -923.334)" fill="#2c3a64"></path><path id="Trazado_5984" data-name="Trazado 5984" d="M2305.062,1114.061a27.247,27.247,0,1,0-13.792-3.741,27.292,27.292,0,0,0,13.792,3.741m0-50.74a23.486,23.486,0,1,1-23.479,23.479,23.506,23.506,0,0,1,23.479-23.479" transform="translate(-2221.208 -837.866)" fill="#2c3a64"></path><path id="Trazado_5985" data-name="Trazado 5985" d="M2318.34,1123.863a24.012,24.012,0,1,0-24.012-24.012,24.039,24.039,0,0,0,24.012,24.012m0-47.055a23.043,23.043,0,1,1-23.043,23.043,23.069,23.069,0,0,1,23.043-23.043" transform="translate(-2234.695 -850.755)" fill="#b84c42"></path><path id="Trazado_5986" data-name="Trazado 5986" d="M1918.995,1022.3a1.723,1.723,0,0,1,2.2-1.055l1.572.552a4.835,4.835,0,0,0,3.759-.232c5.729-2.856,12.7-4.3,20.776-4.3h.292a115.287,115.287,0,0,1,12.817,1.31,1.538,1.538,0,0,1,1.312,1.522v1a.452.452,0,0,1-.546.443h-.008c-5.1-1.072-22.752-3.968-35.507,3.739a1.418,1.418,0,0,1-1.2.124l-4.781-1.68a1.112,1.112,0,0,1-.681-1.419" transform="translate(-1775.524 -804.438)" fill="#ee9849"></path><path id="Trazado_5987" data-name="Trazado 5987" d="M2059.9,953.883s.512-2.324-.945-2.482-6.776.985-8.194.827-8.824-1.379-10.124-.118-.749,2.364,1.851,2.6,6.067.67,7.052,1.5,8.115,3.27,10.361-2.324" transform="translate(-1899.118 -752.341)" fill="#415da5"></path><path id="Trazado_5988" data-name="Trazado 5988" d="M2132.265,1185.735h2.607l5.49-2.5a7.106,7.106,0,1,1,.413,1.024l-3.243,1.478h.879a1.313,1.313,0,1,1,0,2.626h-6.146a1.313,1.313,0,1,1,0-2.626" transform="translate(-2012.383 -928.397)" fill="#415da5"></path><path id="Trazado_5989" data-name="Trazado 5989" d="M2225.514,1195.685s-.719,2.58-2.209,2.389-2.3-2.9-2.3-2.9Z" transform="translate(-2102.516 -945.127)" fill="#ce8e55"></path><path id="Trazado_5990" data-name="Trazado 5990" d="M2227.714,1202.844H2225.6c-.708-.111-1.231-.317-1.958-.411a1.961,1.961,0,0,0-1.712.411l-.02.021h-8.982c-.226-.322-.009-1.07.2-1.62a1.277,1.277,0,0,1,.841-.768,9.688,9.688,0,0,0,4.55-2.078c.968-.874,4.672-3.215,4.672-3.215l.02,0c.082,0,.469.12,2.154,1.543.871.734,2.355-1.037,2.355-1.037a2.114,2.114,0,0,1,.487.66,2.23,2.23,0,0,1,.193,1.379,8.94,8.94,0,0,0,.644,3.33c.209.617.386,1.053.386,1.053s.1.508-1.718.735" transform="translate(-2104.725 -945.127)" fill="#d57912"></path><path id="Trazado_5991" data-name="Trazado 5991" d="M2223.694,1196.345a6.7,6.7,0,0,1-2.277,1.148c-.954.125-2.739-2.31-2.739-2.31l.02,0c.082,0,.469.12,2.154,1.543.871.734,2.355-1.037,2.355-1.037a2.113,2.113,0,0,1,.487.66" transform="translate(-2100.21 -945.127)" fill="#aa3f3a"></path><path id="Trazado_5992" data-name="Trazado 5992" d="M2227.714,1225.052H2225.6c-.708-.111-1.231-.317-1.958-.411a1.961,1.961,0,0,0-1.712.411l-.02.021h-8.982c-.226-.322-.009-1.07.2-1.62.273-.243.35,1.053.5,1.26a40.082,40.082,0,0,0,7.742-.226,4.333,4.333,0,0,1,3.391-.415c1.509.36,3.731-.564,4.281-.809.209.617.386,1.053.386,1.053s.1.508-1.718.735" transform="translate(-2104.725 -967.336)" fill="#aa3f3a"></path><path id="Trazado_5993" data-name="Trazado 5993" d="M2087.76,872.351s5.557,12.064-1.171,17.569-26.3,13.3-26.606,14.526-1.652,21.273-6.545,35.953c0,0-1.685.672-4.509-.506-1.58-.659-3.7-38.734-.95-42.4s18.091-14.161,18.091-14.161Z" transform="translate(-1930.441 -689.841)" fill="#35488b"></path><path id="Trazado_5994" data-name="Trazado 5994" d="M2154.24,646s-6.774,6.488-11.874,6.491a11.66,11.66,0,0,1,2.324-3.544c-.327-.639-.614-1.227-.859-1.754a30.37,30.37,0,0,1-1.254-3.035l3.663-5.519.822-1.238a14.7,14.7,0,0,0,.978,2.568c.03.06.059.121.089.18A12.179,12.179,0,0,0,2154.24,646" transform="translate(-2014.789 -504.043)" fill="#ffb27d"></path><path id="Trazado_5995" data-name="Trazado 5995" d="M2145.5,786.261s9.695-12.41,10.552-13.506,9.437-19.583,9.437-19.583l13.068-1.134s-14.073,22.839-16.3,25.572c-3.677,4.516-14.1,10.059-14.1,10.059.2,1.191-.75,2.37-2.239,2.884s-1,.522-2.038.909-1.419-1.21-1.419-1.21a3.185,3.185,0,0,1,3.039-3.991" transform="translate(-2039.113 -594.699)" fill="#ffb27d"></path><path id="Trazado_5996" data-name="Trazado 5996" d="M2088.742,713.815c.185.5-.69,1.4-1.082,1.747a40.872,40.872,0,0,1-5.281,4.076,27.668,27.668,0,0,1-4.052,2.139c-4.157,1.8-9.54,2.439-11.275,3.014a.8.8,0,0,1-.546-.031c-.146-.057-1.9-5.275-3.9-11.923-.081-.255-.169-.535-.228-.8l-.029-.093c-.792-2.586-1.558-5.332-2.294-8.062-1.626-6.025-2.977-11.908-3.193-15.34a16.785,16.785,0,0,1,2.48-9.6l1.155-1.923a7.971,7.971,0,0,0,4.8-2.184c1.549-1.485,3.237-3.093,3.635-2.963,4.708,1.64,9.263,9.447,12.251,19.016.094.3.188.606.28.911q.442,1.488.836,3.024a134.339,134.339,0,0,0,5.543,16.638c.394,1,.706,1.794.9,2.348" transform="translate(-1931.422 -531.305)" fill="#ee9849"></path><path id="Trazado_5997" data-name="Trazado 5997" d="M2073.288,759.813c.185.5-.69,1.4-1.082,1.747a40.872,40.872,0,0,1-5.281,4.076c-11.2-16.147-10.059-35.6-10.059-35.6l9.145,7.764q.442,1.488.836,3.024a134.339,134.339,0,0,0,5.543,16.638c.394,1,.706,1.794.9,2.348" transform="translate(-1915.968 -577.303)" fill="#e58638"></path><path id="Trazado_5998" data-name="Trazado 5998" d="M2177.065,644.737s-.005.029-.017.085c-.135.654-1.12,4.91-4.3,7.045a30.37,30.37,0,0,1-1.254-3.035l3.663-5.519a14.457,14.457,0,0,1,1.8,1.33l.105.094" transform="translate(-2043.71 -508.721)" fill="#ed975d"></path><path id="Trazado_5999" data-name="Trazado 5999" d="M2171.124,618.63s8.14.255,8.22-4.816,1.186-8.454-4.008-8.831-6.234,1.542-6.673,3.228.345,10.223,2.46,10.42" transform="translate(-2045.524 -478.372)" fill="#ffb27d"></path><path id="Trazado_6000" data-name="Trazado 6000" d="M2159.342,836.662l.72-.258a.7.7,0,0,1,.888.419l.163.455a.7.7,0,0,1-.419.888l-.72.258a.7.7,0,0,1-.888-.419l-.163-.455a.7.7,0,0,1,.419-.888" transform="translate(-2025.159 -661.382)" fill="#739cf3"></path><path id="Trazado_6001" data-name="Trazado 6001" d="M2134.52,841.386l3.081,8.593a1.126,1.126,0,0,0,1.437.678l3.261-1.169a1.127,1.127,0,0,0,.678-1.437l-3.081-8.593a1.127,1.127,0,0,0-1.437-.679l-3.261,1.169a1.127,1.127,0,0,0-.678,1.437" transform="translate(-2001.938 -663.241)" fill="#b2cbfd"></path><path id="Trazado_6002" data-name="Trazado 6002" d="M2134.455,846.5l2.956,8.245a1.127,1.127,0,0,0,1.437.678l3.261-1.169a1.127,1.127,0,0,0,.678-1.437l-2.895-8.076a7.36,7.36,0,0,0-2.225,1.076c-.606.513-2.355.647-3.212.682" transform="translate(-2001.748 -668.01)" fill="#739cf3"></path><rect id="Rect&#xE1;ngulo_3953" data-name="Rect&#xE1;ngulo 3953" width="5.724" height="5.714" transform="translate(134.912 184.652) rotate(-109.722)" fill="#415da5"></rect><path id="Trazado_6003" data-name="Trazado 6003" d="M2053.06,718.831a16.135,16.135,0,0,1,4.846-1.291s7.659-9.93,8.833-12.19-12.172-9.08-12.64-12.855-1.215-10.776,4.18-10.462c0,0,12.854,10.317,17.981,23.079,0,0-5.751,10.755-15.812,15.463,0,0-5.8,3.495-6.815,3.743s-1.826-.948-2.187-1.633.155-2.955,1.615-3.852" transform="translate(-1917.764 -539.331)" fill="#ffb27d"></path><path id="Trazado_6004" data-name="Trazado 6004" d="M2106.583,692.114s4.873-6.574,9.559-7.895a.272.272,0,0,0,.139-.434c-1.067-1.305-5.128-6.083-8.735-7.764,0,0-6.36,3.32-5.549,6.647s4.587,9.446,4.587,9.446" transform="translate(-1968.432 -534.586)" fill="#ee9849"></path><path id="Trazado_6005" data-name="Trazado 6005" d="M2155.3,585.951a10.673,10.673,0,0,1-1.206-2.569s1.442,1.029,3.665-1.212,6.349-5.095,9.954-3.474q.344.155.675.346a8.3,8.3,0,0,0-1.019-1.746,6.121,6.121,0,0,1,2.276,2.626h0c.043.036.086.074.129.112a7.008,7.008,0,0,1,2.546.986,2.187,2.187,0,0,0-1.574-.02c1.839,2.1,2.77,4.9,1.8,6.816-1.417,2.8-1.993,2.1-2.93,5.477,0,0-1.229-.221-1.253-1.065s.879-2.883-.6-2.862-1.089,1.1-1.831.88-.416-3.018-3.6-2.614-6.165-.313-7.036-1.68" transform="translate(-2035.938 -456.516)" fill="#233862"></path><path id="Trazado_6006" data-name="Trazado 6006" d="M1517.178,1093.947q0-.231.023-.457l-19.851-3.33.1-.622,19.851,3.33a4.647,4.647,0,0,1,1.6-2.54l-12.048-17.212.517-.361,11.56,16.514-6.234-18.7.6-.2,6.47,19.409a4.616,4.616,0,0,1,1.74-.467v-20.733h.63v20.733a4.644,4.644,0,0,1,1.042.19l6.435-17.931.593.213-6.124,17.064,12.312-14.174.476.413-12.833,14.773a4.666,4.666,0,0,1,1.661,1.525l.726-.125,17.945-9.1.285.562-16.12,8.172,17.972-3.091.107.621-19.988,3.438-.525.266a4.635,4.635,0,0,1,.369,1.817c0,.124-.007.247-.016.369l19.839,2.944-.093.623-19.837-2.943a4.592,4.592,0,0,1-.155.549l18.115,7.782-.249.579-18.115-7.782-.01.019,14.218,14.342-.447.444-14.11-14.233a4.673,4.673,0,0,1-1.034,1.052l10.434,16.414-.532.338-10.433-16.413c-.092.05-.186.1-.281.14,2.607,6.863,7.38,19.435,7.5,19.786l-.6.2c-.1-.311-4.308-11.389-7.488-19.761a4.651,4.651,0,0,1-1.353.2c-.078,0-.154,0-.231-.006l1.648,19.913-.628.052-1.658-20.042a4.616,4.616,0,0,1-.586-.151c-3.28,8.065-7.585,18.667-7.7,19.007l-.6-.2c.117-.352,5.007-12.386,7.714-19.044-.058-.028-.116-.058-.173-.089l-11.073,17.51-.533-.337,11.073-17.511a4.662,4.662,0,0,1-1.127-1.178l-16.434,11.4-.359-.518,16.479-11.427a4.626,4.626,0,0,1-.463-2.023" transform="translate(-1272.221 -845.013)" fill="#2c3a64"></path><path id="Trazado_6007" data-name="Trazado 6007" d="M1512.818,1114.061a27.248,27.248,0,1,0-13.792-3.741,27.291,27.291,0,0,0,13.792,3.741m0-50.74a23.486,23.486,0,1,1-23.479,23.479,23.506,23.506,0,0,1,23.479-23.479" transform="translate(-1263.212 -837.866)" fill="#2c3a64"></path><path id="Trazado_6008" data-name="Trazado 6008" d="M1526.094,1123.863a24.012,24.012,0,1,0-24.012-24.012,24.039,24.039,0,0,0,24.012,24.012m0-47.055a23.043,23.043,0,1,1-23.043,23.043,23.069,23.069,0,0,1,23.043-23.043" transform="translate(-1276.697 -850.755)" fill="#b84c42"></path><path id="Trazado_6009" data-name="Trazado 6009" d="M1493.322,910.469a2.74,2.74,0,0,1,2.381-1.719c11.768-27.036,11.895-27.248,12.073-27.539l1.7,3.371c.09-.148-6.425,14.336-11.076,24.953l.664.266-16.2,34.678-2.626-1.072Z" transform="translate(-1231.499 -696.848)" fill="#b84c42"></path><path id="Trazado_6010" data-name="Trazado 6010" d="M1346.321,589.694c.025-.33.413-3.878,5.84-3.861,0,0-2.677.218-3.181,1.372,0,0,1.869-1.38,3.329-.858s2.231,3.142,2.208,3.994-.947,3.566-1.894,3.764a2.866,2.866,0,0,1-1.136-.041,12.746,12.746,0,0,1,.679,1.327c2,4.52-.4,8.775-2.209,8.227-1.163-.352-1.57,1.64-1.57,1.64l-11.061-9.663s4.515-8.512,9-5.9" transform="translate(-1046.638 -463.267)" fill="#2c3a64"></path><path id="Trazado_6011" data-name="Trazado 6011" d="M1309.034,883.313s-2.037,4.238-4.613,10.112a217.163,217.163,0,0,0-8.574,22.258,35.908,35.908,0,0,0-1.845,9.251c0,.779,3,3.942,3.87,5.148,5.473,7.617,12.948,17.788,12.948,17.788l2.041-.512s-2.858-12.721-7.022-19.073c-.819-1.249-3.126-2.769-3.016-2.906l0,0c.359-.45,1.256-1.58,2.479-3.19a154.462,154.462,0,0,0,13.159-20.065q.366-.7.71-1.4c2.069-4.2,3.434-8.14,3.3-11.059Z" transform="translate(-1005.543 -698.509)" fill="#ed975d"></path><path id="Trazado_6012" data-name="Trazado 6012" d="M1337.61,1173.8l-1.4.888c-.517.224-.951.307-1.473.549a1.54,1.54,0,0,0-.964.993.2.2,0,0,0,0,.022l-5.965,3.774c-.286-.119-.456-.707-.546-1.161a1,1,0,0,1,.235-.864,7.611,7.611,0,0,0,2.148-3.292c.275-.987,1.752-4.1,1.752-4.1l.011-.011c.055-.033.362-.117,2.079.12.887.122,1.129-1.678,1.129-1.678a1.659,1.659,0,0,1,.6.234,1.753,1.753,0,0,1,.708.835,7.026,7.026,0,0,0,1.827,1.941c.4.322.7.537.7.537s.281.295-.832,1.21" transform="translate(-1028.484 -924.459)" fill="#b84c42"></path><path id="Trazado_6013" data-name="Trazado 6013" d="M1346.658,1169.276a5.263,5.263,0,0,1-1.03,1.719c-.581.484-2.789-.384-2.789-.384l.011-.011c.055-.033.362-.117,2.078.12.887.121,1.129-1.678,1.129-1.678a1.662,1.662,0,0,1,.6.234" transform="translate(-1039.933 -924.459)" fill="#aa3e39"></path><path id="Trazado_6014" data-name="Trazado 6014" d="M1337.591,1185.176l-1.4.888c-.517.224-.951.307-1.473.549a1.54,1.54,0,0,0-.964.992.206.206,0,0,0,0,.022l-5.965,3.774c-.286-.119-.456-.707-.546-1.161.079-.276.675.553.862.626a31.474,31.474,0,0,0,5.046-3.4,3.407,3.407,0,0,1,2.078-1.7,6.417,6.417,0,0,0,2.5-2.337c.4.322.7.537.7.537s.281.295-.832,1.21" transform="translate(-1028.464 -935.835)" fill="#aa3e39"></path><path id="Trazado_6015" data-name="Trazado 6015" d="M1179.34,970.342l3.16-3.271-.278-.57.5.339,0,0,.008.013,35.794,24.2,7.98-24.96,2.7.864-8.233,25.752,31.371,21.21-37.813,3.288-.245-2.826,29.841-2.595-24.282-15.546-6.658,20.826-2.7-.864.762-2.384-1.812,1.168Zm38.038,24.312-28.791-18.433,22.937,36.744Z" transform="translate(-911.418 -763.967)" fill="#d8716b"></path><path id="Trazado_6016" data-name="Trazado 6016" d="M1422.767,851.473a3.551,3.551,0,0,1,6.952.847l15.829,3.972a3.553,3.553,0,1,1-.486,4.145l-17.994-4.516a3.552,3.552,0,0,1-4.3-4.448" transform="translate(-1161.677 -671.322)" fill="#415da5"></path><path id="Trazado_6017" data-name="Trazado 6017" d="M1399.992,1167.36l-5.322,3.073a1.313,1.313,0,1,0,1.313,2.274l5.322-3.073a1.313,1.313,0,1,0-1.313-2.274" transform="translate(-1105.942 -922.99)" fill="#415da5"></path><path id="Trazado_6018" data-name="Trazado 6018" d="M1373.429,1175.463l6.711,7.426.619-.538-6.711-7.425Z" transform="translate(-1080.434 -929.111)" fill="#415da5"></path><path id="Trazado_6019" data-name="Trazado 6019" d="M1127.115,1022.05a1.723,1.723,0,0,1,2.2-1.055l1.572.552a4.835,4.835,0,0,0,3.759-.232c5.73-2.856,12.7-4.3,20.776-4.3h.292a115.309,115.309,0,0,1,12.817,1.31,1.538,1.538,0,0,1,1.312,1.522v1a.453.453,0,0,1-.546.443l-.008,0c-5.1-1.071-22.752-3.968-35.507,3.739a1.418,1.418,0,0,1-1.2.124l-4.78-1.68a1.112,1.112,0,0,1-.681-1.419" transform="translate(-817.97 -804.238)" fill="#b84c42"></path><path id="Trazado_6020" data-name="Trazado 6020" d="M1268.025,953.632s.512-2.324-.945-2.482-6.776.985-8.194.827-8.824-1.379-10.124-.118-.749,2.364,1.851,2.6,6.067.67,7.052,1.5,8.115,3.27,10.36-2.324" transform="translate(-941.563 -752.142)" fill="#415da5"></path><path id="Trazado_6021" data-name="Trazado 6021" d="M1353.253,1180.861a7.091,7.091,0,1,0-7.091,7.091,7.091,7.091,0,0,0,7.091-7.091" transform="translate(-1045.74 -928.198)" fill="#415da5"></path><path id="Trazado_6022" data-name="Trazado 6022" d="M1092.263,1093.947c0-.154.008-.307.023-.457l-19.851-3.33.1-.622,19.851,3.33a4.649,4.649,0,0,1,1.6-2.54l-12.048-17.212.516-.361,11.56,16.514-6.234-18.7.6-.2,6.47,19.409a4.618,4.618,0,0,1,1.74-.467v-20.733h.631v20.733a4.644,4.644,0,0,1,1.042.19l6.435-17.931.593.213-6.124,17.064,12.313-14.174.476.413-12.833,14.773a4.671,4.671,0,0,1,1.661,1.525l.726-.125,17.945-9.1.285.562-16.12,8.172,17.973-3.091.107.621-19.988,3.438-.525.266a4.63,4.63,0,0,1,.369,1.817c0,.124-.006.247-.016.369l19.839,2.944-.093.623-19.837-2.943a4.733,4.733,0,0,1-.155.549l18.115,7.782-.249.579-18.115-7.782-.01.019,14.219,14.342-.447.444-14.11-14.233a4.672,4.672,0,0,1-1.034,1.052l10.433,16.414-.532.338-10.433-16.413c-.092.05-.186.1-.281.14,2.607,6.863,7.38,19.435,7.5,19.786l-.6.2c-.1-.311-4.308-11.389-7.488-19.761a4.651,4.651,0,0,1-1.353.2c-.077,0-.154,0-.231-.006l1.648,19.913-.628.052-1.659-20.042a4.607,4.607,0,0,1-.586-.151c-3.279,8.065-7.585,18.667-7.7,19.007l-.6-.2c.117-.352,5.007-12.386,7.714-19.044-.059-.028-.117-.058-.173-.089l-11.073,17.51-.533-.337,11.073-17.511a4.658,4.658,0,0,1-1.127-1.178l-16.434,11.4-.359-.518,16.479-11.427a4.632,4.632,0,0,1-.463-2.023" transform="translate(-758.407 -845.013)" fill="#2c3a64"></path><path id="Trazado_6023" data-name="Trazado 6023" d="M1087.9,1114.061a27.248,27.248,0,1,0-13.792-3.741,27.292,27.292,0,0,0,13.792,3.741m0-50.74a23.486,23.486,0,1,1-23.479,23.479,23.506,23.506,0,0,1,23.479-23.479" transform="translate(-749.395 -837.866)" fill="#2c3a64"></path><path id="Trazado_6024" data-name="Trazado 6024" d="M1101.178,1123.863a24.012,24.012,0,1,0-24.012-24.012,24.039,24.039,0,0,0,24.012,24.012m0-47.055a23.043,23.043,0,1,1-23.043,23.043,23.069,23.069,0,0,1,23.043-23.043" transform="translate(-762.882 -850.755)" fill="#b84c42"></path><path id="Trazado_6025" data-name="Trazado 6025" d="M1393.6,754.13a10.759,10.759,0,0,1,3.125-.516,7.456,7.456,0,0,0,3.323-1.217s7.142-4.663,8.688-6.256c3.315-3.417,6.47-21,9.365-19.675,0,0,3.853,2.169,3.4,7.66s-5.493,14.148-9.324,16.3c-2.81,1.576-10.543,3.97-11.673,4.316-1.272.489-2.879,1.7-3.349,1.858-.516.172-1.883-.317-2.667,0-2.856,1.154-2.9.258-2.9.258a3.043,3.043,0,0,1,2.007-2.724" transform="translate(-1125.015 -574.42)" fill="#ed975d"></path><path id="Trazado_6026" data-name="Trazado 6026" d="M1279.647,697.052a14.2,14.2,0,0,0,.9,3.317c.336.848.724,1.657,1.124,2.5,1.17,2.477,3.927,3.7,4.02,8.457.032,1.64,1.4,5.332.625,8.008-3.812,13.189,21.131,1.2,19.78-2.307-2.685-6.963-6.519-10.988-6.438-16.723a.215.215,0,0,1,0-.044c.024-.278.062-1.022.1-2.006.1-2.407.24-6.246.289-8.189,0-.046,0-.09,0-.133.02-.832.045-1.435.078-1.593-1.854-7.891-6.121-7.925-7.578-7.9-.54.009-1.107.044-1.572.084-.915-.521-2.5-2.948-3.319-6.939l-.333.141-5.593,2.377s.517,1.809.884,3.538a6.962,6.962,0,0,1,.263,3.008c-.44.16-.7.261-.7.261a.023.023,0,0,1,0,.005c-.1.222-3.435,7.863-2.542,14.139" transform="translate(-986.176 -532.658)" fill="#ffb27d"></path><path id="Trazado_6027" data-name="Trazado 6027" d="M1310,793.616c.336.849.724,1.657,1.123,2.5,1.17,2.477,3.927,3.7,4.021,8.457.084.009.17.016.257.023,10.228.8,13.714-11.09,13.714-11.09.024-.278.062-1.022.1-2.006l-18.458.03a18.616,18.616,0,0,0-.762,2.086" transform="translate(-1015.628 -625.905)" fill="#ed975d"></path><path id="Trazado_6028" data-name="Trazado 6028" d="M1369.425,676.637s.517,1.808.884,3.537c3.246-.776,4.348-4.116,4.709-5.915Z" transform="translate(-1073.854 -533.194)" fill="#ed975d"></path><path id="Trazado_6029" data-name="Trazado 6029" d="M1308.6,714.708c.308-.82,1.8-3.963,1.8-3.963a15.356,15.356,0,0,1,4.514-2.187.024.024,0,0,1,0,.005c-.06.189-1.634,5.159-1.169,6.25.474,1.11,10.341-2.045,10.9-2.828.45-.628.591-4.036.628-5.365.009-.33.013-.532.013-.532s3.654-.357,5.664.548a15.764,15.764,0,0,0-1.241,3.644c-.035.182-.065.365-.09.548a7.4,7.4,0,0,0-.073,1.159c.021.967.9,1.752,2.069,2.678.366.288.763.59,1.17.916,0,.043,0,.087,0,.133-.069,2.738-.309,9.237-.394,10.195,0,.015,0,.029,0,.044a61.46,61.46,0,0,0-9.918.323,33.476,33.476,0,0,0-3.944.713,17.192,17.192,0,0,0-4.125,1.53l-.147.082s-1.627-3.531-3.4-7.757c-.064-.154-.122-.306-.173-.458a9.793,9.793,0,0,1-.114-4.9,3.4,3.4,0,0,0-1.969-.774" transform="translate(-1018.908 -558.308)" fill="#739cf3"></path><path id="Trazado_6030" data-name="Trazado 6030" d="M1371.586,641.988s7.752-1.49,6.749-6.3-.677-8.247-5.669-7.5-5.568,2.784-5.624,4.472,2.5,9.594,4.543,9.33" transform="translate(-1076.763 -496.678)" fill="#ffb27d"></path><path id="Trazado_6031" data-name="Trazado 6031" d="M1308.6,761.28l.147-.082a17.2,17.2,0,0,1,4.125-1.53,33.444,33.444,0,0,1,3.944-.713,61.406,61.406,0,0,1,9.919-.323c0-.015,0-.029,0-.044.085-.958.324-7.457.394-10.2,0-.046,0-.09,0-.133-.408-.326-.8-.628-1.17-.916-5.022,2.439-14.474,7.689-17.366,13.935" transform="translate(-1013.252 -590.988)" fill="#6488d3"></path><path id="Trazado_6032" data-name="Trazado 6032" d="M1357.583,626.5c.891-1.7,1.86-1.569,2.456-1.239a5.517,5.517,0,0,1,7.176-.344,9.39,9.39,0,0,0,4.144,4.8s-1.226,1.165-4.646,1.01a5.637,5.637,0,0,1-3.009-1.264,18.408,18.408,0,0,0,3.895,3.139c-4.252-.98-6.939-6.047-7.213-6.584a6.19,6.19,0,0,0-1.214,2.6c-.128,1.306.227,3.865-.526,3.933,0,0-2.4-3.5-1.061-6.049" transform="translate(-1067.634 -493.246)" fill="#2c3a64"></path><path id="Trazado_6033" data-name="Trazado 6033" d="M1310.415,883.091s5.766,9.14-1.359,14.167-31.114,7.432-29.938,8.407c3.6,2.983,6.866,7.57,6.694,35.036l-1.778.918s-17.106-37.214-15.96-41.649c.76-2.936,25.71-18.826,42.34-16.879" transform="translate(-990.239 -698.203)" fill="#ffb27d"></path><path id="Trazado_6034" data-name="Trazado 6034" d="M1277.922,878.914s14.536-2.408,16.035-7.539c1.12-3.833,1.452-5.4-5.136-17.782,0,0-2.753,5.229-17.12,4.018,0,0,.073.679.073,1.6-.018,1.523-.257,3.688-1.45,4.312-.018.019-.055.019-.073.037-1.89.862-4.818,2.6-5.258,2.768-.018,0,8.818,1.691,12.928,12.591" transform="translate(-971.578 -675.006)" fill="#ee9849"></path><path id="Trazado_6035" data-name="Trazado 6035" d="M1315.016,884.741a79.808,79.808,0,0,1,13.8-2.385,51.261,51.261,0,0,0-12.349-1.927c-.018,1.523-.257,3.688-1.45,4.312" transform="translate(-1016.268 -696.229)" fill="#e58638"></path><path id="Trazado_6036" data-name="Trazado 6036" d="M1390.787,1146.267l-1.5.719c-.54.162-.98.195-1.527.375a1.542,1.542,0,0,0-1.073.874.217.217,0,0,0-.007.022l-6.362,3.056c-.27-.151-.37-.755-.407-1.217a1,1,0,0,1,.334-.831,7.613,7.613,0,0,0,2.516-3.02c.388-.948,2.216-3.867,2.216-3.867l.012-.01c.058-.027.373-.074,2.051.36.867.223,1.316-1.536,1.316-1.536a1.658,1.658,0,0,1,.569.3,1.752,1.752,0,0,1,.606.911,7.022,7.022,0,0,0,1.589,2.14c.358.365.632.615.632.615s.244.325-.967,1.106" transform="translate(-1092.805 -902.436)" fill="#b84c42"></path><path id="Trazado_6037" data-name="Trazado 6037" d="M1397.467,1141.495a5.257,5.257,0,0,1-1.222,1.588c-.633.413-2.726-.7-2.726-.7l.012-.01c.058-.027.373-.074,2.051.36.867.223,1.316-1.536,1.316-1.536a1.658,1.658,0,0,1,.569.3" transform="translate(-1101.345 -902.436)" fill="#aa3e39"></path><path id="Trazado_6038" data-name="Trazado 6038" d="M1390.784,1158.942l-1.5.719c-.54.162-.98.195-1.527.375a1.542,1.542,0,0,0-1.073.874c-.005.014-.007.022-.007.022l-6.362,3.056c-.27-.151-.37-.755-.407-1.217.111-.265.606.627.783.722a31.473,31.473,0,0,0,5.407-2.794,3.407,3.407,0,0,1,2.261-1.447,6.419,6.419,0,0,0,2.758-2.03c.358.365.632.615.632.615s.244.325-.967,1.106" transform="translate(-1092.802 -915.111)" fill="#aa3e39"></path><path id="Trazado_6039" data-name="Trazado 6039" d="M1307.592,742.523a10.757,10.757,0,0,1,3.125-.516,7.455,7.455,0,0,0,3.323-1.218s13.362-6.385,14.836-8.732c1.92-3.057,5.15-13.381,8.04-19.263,1.378-2.8,2.679-4.6,3.726-4.119,0,0,2.615.826,2.461,6.136q-.011.445-.052.934c-.508,6.15-6.945,20.7-11.2,23.17s-17.258,4.251-17.258,4.251c-1.366-.044-2.934,1.65-3.45,1.822s-2.035-.195-2.666,0c-2.888.89-2.9.258-2.9.258a3.043,3.043,0,0,1,2.007-2.724" transform="translate(-1028.591 -560.347)" fill="#ffb27d"></path><path id="Trazado_6040" data-name="Trazado 6040" d="M1305.586,712.795c3.566-.841,6.186,2.018,6.186,2.018.155-5.31-2.461-6.136-2.461-6.136-1.047-.48-2.348,1.315-3.726,4.119" transform="translate(-997.259 -560.348)" fill="#739cf3"></path><path id="Trazado_6041" data-name="Trazado 6041" d="M62.044,1066.731c3.114-.359,5.882,5.925,8.1,13.751.849,2.99,1.617,6.2,2.294,9.361-.108.335-.215.666-.323,1-.014.049-.031.094-.045.139q-1.036,3.155-2.1,6.029v0l-.055.149c-2.269-4.826-4.769-10.454-6.656-15.552-2.92-7.9-4.37-14.512-1.211-14.876" transform="translate(502.626 -843.541)" fill="#82b378"></path><path id="Trazado_6042" data-name="Trazado 6042" d="M92,1090.233c6.488-1.8,13.219,4.956,18.987,13.754a149.1,149.1,0,0,1,10.691,20.13v0c-.19.437-.376.864-.562,1.284q-.7,1.581-1.356,2.986c-1.33,2.849-2.5,5.142-3.382,6.8-4.738-5.216-10.432-11.753-15.413-18.225-9.572-12.441-16.513-24.64-8.965-26.729" transform="translate(447.417 -861.907)" fill="#82b378"></path><path id="Trazado_6043" data-name="Trazado 6043" d="M120.914,1230.086a2.6,2.6,0,0,1,2.555-2.155c5.565-.055,11.457,2,17.054,4.985a97.522,97.522,0,0,1,19.066,13.95c-.186.321-.286.484-.286.484l-1.26,0-2.855.01h0l-4.168.014c-7.705-3.512-16.4-7.523-21.854-10.174-1.631-.792-2.973-1.464-3.909-1.962-3.807-2.03-4.55-3.848-4.342-5.157" transform="translate(402.79 -971.027)" fill="#82b378"></path><path id="Trazado_6044" data-name="Trazado 6044" d="M.666,1321.8H587a.668.668,0,0,0,.666-.666v-.227a.668.668,0,0,0-.666-.666H.666A.668.668,0,0,0,0,1320.9v.227a.668.668,0,0,0,.666.666" transform="translate(0 -1044.022)" fill="#2e3552"></path></g></g></g></svg>