<svg xmlns="http://www.w3.org/2000/svg" xmlns:xlink="http://www.w3.org/1999/xlink" id="Grupo_414" data-name="Grupo 414" width="492.326" height="256.631" viewBox="0 0 492.326 256.631"><defs><clipPath id="clip-path"><rect id="Rect&#xE1;ngulo_942" data-name="Rect&#xE1;ngulo 942" width="492.326" height="256.631" fill="none"></rect></clipPath><clipPath id="clip-path-2"><rect id="Rect&#xE1;ngulo_941" data-name="Rect&#xE1;ngulo 941" width="492.327" height="256.632" fill="none"></rect></clipPath><clipPath id="clip-path-3"><rect id="Rect&#xE1;ngulo_817" data-name="Rect&#xE1;ngulo 817" width="63.172" height="77.968" fill="none"></rect></clipPath></defs><g id="Grupo_413" data-name="Grupo 413" clip-path="url(#clip-path)"><g id="Grupo_412" data-name="Grupo 412" transform="translate(0 -0.001)"><g id="Grupo_411" data-name="Grupo 411" clip-path="url(#clip-path-2)"><path id="Trazado_1024" data-name="Trazado 1024" d="M160.979,255.949c.022.018,426.809-.057,426.809-.057s11.4-20.158,15.626-66.564C612.727,87.088,540.725,71.32,519.775,67.055,455.624,54,484.821-10.621,317.656,1.5,302.335,2.614,266.211,11.584,253.761,17.4c-8.732,4.073-41.63,22.3-51.283,53.126a59.493,59.493,0,0,0-.706,32.907c10.879,43.144-17.484,40.664-38.209,61.225-27.662,27.44-24.77,72.315-2.584,91.3" transform="translate(-119.179 0.005)" fill="#ebf3fa"></path><path id="Trazado_1025" data-name="Trazado 1025" d="M860.214,393.457l-31.958,37.968-50.617-42.607h0l-21.327-17.952L788.269,332.9l39.822,33.519Z" transform="translate(-627.791 -276.329)" fill="#c8d3f8"></path><path id="Trazado_1026" data-name="Trazado 1026" d="M885.451,427.991,860.64,457.467l-64.666-54.431,24.811-29.476Zm-22.665,25.1L881.5,430.866a3.571,3.571,0,0,0-.432-5.032l-57.356-48.279a3.635,3.635,0,0,0-5.122.44l-18.636,22.14a3.6,3.6,0,0,0,.436,5.08l57.393,48.31a3.553,3.553,0,0,0,5.006-.43" transform="translate(-660.714 -310.08)" fill="#7a8ee1"></path><path id="Trazado_1027" data-name="Trazado 1027" d="M1001.935,577.746a10.366,10.366,0,1,1,14.606-1.255,10.366,10.366,0,0,1-14.606,1.255" transform="translate(-828.612 -464.381)" fill="#7a8ee1"></path><path id="Trazado_1028" data-name="Trazado 1028" d="M1141.819,163.99,1102.2,186.469l-29.968-52.813h0L1059.61,111.4l39.614-22.478,23.577,41.549Z" transform="translate(-879.55 -73.812)" fill="#c8d3f8"></path><path id="Trazado_1029" data-name="Trazado 1029" d="M1165.751,190.622,1135,208.073,1096.711,140.6l30.755-17.451ZM1138.238,205l23.194-13.161a3.277,3.277,0,0,0,1.233-4.468l-33.958-59.844a3.337,3.337,0,0,0-4.549-1.255l-23.1,13.108a3.309,3.309,0,0,0-1.245,4.511l33.98,59.883a3.261,3.261,0,0,0,4.445,1.227" transform="translate(-910.346 -102.223)" fill="#7a8ee1"></path><path id="Trazado_1030" data-name="Trazado 1030" d="M1245.095,331.242a9.514,9.514,0,1,1,12.97,3.579,9.514,9.514,0,0,1-12.97-3.579" transform="translate(-1032.485 -263.157)" fill="#7a8ee1"></path><path id="Trazado_1031" data-name="Trazado 1031" d="M2096.139,806.142c-4-16.9-32.442-12.58-32.442-12.58s-20.147,28.7-25.755,29.221,12.434-27.9,12.434-27.9c-10.788-1.4-38.794,10.978-38.794,10.978s.64,34.267-4.922,33.388.981-30.371.981-30.371c-10.574,2.8-20.743,14.706-20.743,14.706-12.861,19.5,12.847,35.01,12.847,35.01s-.034,11.88-7.8,25.257h0a40.428,40.428,0,0,0-3.555,6.678l2.855.092q.387-1.137.846-2.191a.017.017,0,0,1,.006-.013c0-.01.01-.02.014-.03.21-.435.511-1.053.886-1.807v0s0,0,0,0c.927-1.68,1.557-2.922,1.96-3.821a.032.032,0,0,0,0-.008c2.787-5.276,6.778-12.138,9.336-13.522a5.528,5.528,0,0,1-.569-1.329l.569,1.329c4.549,10.63,28.928,13.165,42.633,10.812s7.894-6.384.765-12.854-22.542-5.322-27-7.912,2.252-4.819,11.306-3.828,13.3,10.214,27.915,12.084,26.678-25.347,26.678-25.347c-10.225,2.815-28.2-3.357-28.782-6.87s26.283-2.3,30.505-3.208,11.824-9.053,7.828-25.956" transform="translate(-1646.272 -658.3)" fill="#dfebfd"></path><g id="Grupo_410" data-name="Grupo 410" transform="translate(312.749 106.296)" opacity="0.5"><g id="Grupo_409" data-name="Grupo 409"><g id="Grupo_408" data-name="Grupo 408" clip-path="url(#clip-path-3)"><path id="Trazado_1032" data-name="Trazado 1032" d="M1844.474,629.323c6.305-8.8,21.684.426,21.684.426s4.823,21.319,7.934,22.946-.564-19.033-.564-19.033c6.551,1.748,19.771,15.513,19.771,15.513s-8.48,19.607-5.065,20.417,6.623-17.744,6.623-17.744c5.434,4.12,8.48,13.39,8.48,13.39,2.8,14.29-15.7,17.147-15.7,17.147a34.734,34.734,0,0,0-1.478,16.411h0a25.178,25.178,0,0,1,.469,4.693l-1.668-.623c.031-.5.042-.986.031-1.464a.01.01,0,0,0,0-.009c0-.007,0-.014,0-.021-.018-.3-.045-.728-.083-1.252v0s0,0,0,0c-.137-1.188-.206-2.053-.226-2.667a.022.022,0,0,1,0-.006c-.358-3.7-1.035-8.6-2.183-10.007a3.456,3.456,0,0,0,.643-.632l-.643.632c-5.139,5.053-19.8.744-27.142-3.857s-3.041-5.55,2.6-7.593,14.258,2.267,17.443,1.829-.158-3.312-5.613-4.883-10.086,2.742-18.957.36-9.383-20.93-9.383-20.93c5.23,4.043,17.053,4.739,18.223,2.852s-14.611-7.545-16.831-9.071-4.675-8.019,1.631-16.819" transform="translate(-1840.454 -625.519)" fill="#afcdfb"></path></g></g></g><path id="Trazado_1033" data-name="Trazado 1033" d="M1332.583,639.231c-9.551-10.827-28.712,3.484-28.712,3.484s-3.528,28.935-7.437,31.511-1.814-25.328-1.814-25.328c-8.456,3.2-24.142,23.244-24.142,23.244s13.891,24.872,9.469,26.407-11.177-22.651-11.177-22.651c-6.654,6.2-9.448,18.907-9.448,18.907-1.79,19.336,23.132,20.636,23.132,20.636a46.316,46.316,0,0,1,4.171,21.575h0a33.584,33.584,0,0,0,.009,6.289l2.129-1.051c-.108-.657-.189-1.3-.238-1.938a.014.014,0,0,1,0-.012c0-.009,0-.018,0-.028-.016-.4-.038-.972-.058-1.672v0s0,0,0,0c.022-1.595,0-2.752-.06-3.569a.036.036,0,0,0,0-.007c-.023-4.959.215-11.554,1.548-13.571a4.6,4.6,0,0,1-.938-.752l.938.752c7.5,6.012,26.366-1.679,35.492-8.772s3.287-7.773-4.474-9.723-18.612,4.928-22.9,4.775-.236-4.416,6.79-7.235,13.751,2.28,25.2-2.075,9.631-29.033,9.631-29.033c-6.394,6.069-21.988,8.583-23.793,6.237s18.37-11.978,21.109-14.3,5.123-11.269-4.428-22.1" transform="translate(-1045.248 -527.244)" fill="#dfebfd"></path><path id="Trazado_1034" data-name="Trazado 1034" d="M2586.625,720.987s11.8,12.231,12.354,16.834-5.651,11.79-5.651,11.79Z" transform="translate(-2147.078 -598.468)" fill="#ed7d2b"></path><path id="Trazado_1035" data-name="Trazado 1035" d="M2477.329,1456.686s-.416,6.488-1.672,6.578c-.167.012-6.367,0-6.367,0l-7.914-.063a2.568,2.568,0,0,1,2.37-2.3c2.315-.4,6.19-2.016,7.6-5.07,1.481-3.213,5.985.862,5.985.862" transform="translate(-2043.113 -1207.409)" fill="#163560"></path><path id="Trazado_1036" data-name="Trazado 1036" d="M2581.068,1456.91s-.416,6.487-1.672,6.578c-.167.012-6.366,0-6.366,0l-7.915-.063a2.568,2.568,0,0,1,2.37-2.3c2.314-.4,6.19-2.016,7.6-5.07,1.481-3.214,5.985.862,5.985.862" transform="translate(-2129.223 -1207.595)" fill="#163560"></path><path id="Trazado_1037" data-name="Trazado 1037" d="M2504.568,1008.225s2.042,13.243,9.712,36.761,8.7,33.7,8.7,33.7l8.284-.214s.126-25.684-3.406-37.509-.676-42.606-.676-42.606Z" transform="translate(-2078.966 -828.701)" fill="#163560"></path><path id="Trazado_1038" data-name="Trazado 1038" d="M2480.919,1002.281a321.332,321.332,0,0,0,3.062,44.452c3.4,24.5,2.206,34.9,2.206,34.9l8.267.293s4.994-24.494,3.6-36.757,6.857-42.056,6.857-42.056Z" transform="translate(-2059.327 -831.962)" fill="#1c468a"></path><path id="Trazado_1039" data-name="Trazado 1039" d="M2523.111,679.561l-4.411,2.878-6.364-1.2c.089-.514.514-2.643.9-4.571.023-.114.047-.228.069-.339.331-1.641.618-3.05.618-3.05l5.951-2.61,2.219-.973c-.006.034-.176,1.821-.2,2.082a15.155,15.155,0,0,0,1.217,7.783" transform="translate(-2085.414 -555.893)" fill="#ffb27d"></path><path id="Trazado_1040" data-name="Trazado 1040" d="M2509.5,709.231c.124-.052,7.671-2.261,8.49-1.989s1.3,1.859,1.3,1.859l-12.343,2.762a6.126,6.126,0,0,1,2.553-2.632" transform="translate(-2080.942 -587.04)" fill="#ed7d2b"></path><path id="Trazado_1041" data-name="Trazado 1041" d="M2501.189,768.748c-1.291,5.829-22.569,6.475-28.042,1.169-.623-.6-.647-3.412-.4-7.2.476-7.395,1.978-18.516,2.048-24.2a44.938,44.938,0,0,1,.926-8.1,65.766,65.766,0,0,1,2.719-9.691s10.4-3.337,12.343-2.762c9.363,2.773,11.7,44.951,10.41,50.78" transform="translate(-2052.429 -595.907)" fill="#f99746"></path><path id="Trazado_1042" data-name="Trazado 1042" d="M2473.445,818.55c.476-7.395,1.978-18.516,2.048-24.2a44.939,44.939,0,0,1,.925-8.1l6.254-1.09s6.058,24.978-9.227,33.389" transform="translate(-2053.131 -651.737)" fill="#ed7d2b"></path><path id="Trazado_1043" data-name="Trazado 1043" d="M2484.76,916.294a1.472,1.472,0,0,1-.472,1.7,2.853,2.853,0,0,0-1.276,2.6c.2.81,2.163,2.135,2.844,1.924s2.068-1.275,1.92-1.7.94-3.746-.717-5.028a1.339,1.339,0,0,0-2.3.506" transform="translate(-2061.038 -759.782)" fill="#ffb27d"></path><path id="Trazado_1044" data-name="Trazado 1044" d="M2445.6,725.8s-6.1,1.128-10.973,8.276-8.081,12.464-7.192,15.046,9.027,11.549,10.433,11.552,3.678-1.015,3.811-3.315c0,0-5.725-8.62-4.59-9.907.485-.55,7.469-6.2,8.459-3.636,1.638,4.234.052-18.016.052-18.016" transform="translate(-2014.821 -602.464)" fill="#f99746"></path><path id="Trazado_1045" data-name="Trazado 1045" d="M2525.849,676.61c-1.31,2.209-6.18,4.111-8.21,4.81.023-.114.047-.228.069-.339.331-1.641.618-3.05.618-3.05l5.951-2.61c1.314-.015,2.114.281,1.573,1.19" transform="translate(-2089.815 -560.644)" fill="#fca56b"></path><path id="Trazado_1046" data-name="Trazado 1046" d="M2502.684,611.683s9.571,3.008,11.353-2.981,4.217-9.634-1.818-11.808-7.908-.244-8.989,1.611-2.989,12.241-.545,13.178" transform="translate(-2076.415 -494.663)" fill="#ffb27d"></path><path id="Trazado_1047" data-name="Trazado 1047" d="M2509.548,581.949s.6,6.975,2.039,6.676,2.751-.521,2.536,1.58-2.221,4.525,2.223,4.906,10.858-11.067,9.642-13.24c-3.51-6.27-21.515-7.572-16.439.078" transform="translate(-2082.356 -478.684)" fill="#163560"></path><path id="Trazado_1048" data-name="Trazado 1048" d="M881.538,861.618s3.641,6.169,6.979,6.255,8.417-2.859,8.417-2.859,3.065-8.22.986-11.437a3.84,3.84,0,0,0-4.265.843,7.27,7.27,0,0,0-1.129,1.3,3.621,3.621,0,0,1-1.752,1.429c-2.382.872-5.209-1.18-6.266.8a13.118,13.118,0,0,1-1.841,2.623,8.742,8.742,0,0,1-1.129,1.044" transform="translate(-731.738 -708.269)" fill="#f9ddbf"></path><path id="Trazado_1049" data-name="Trazado 1049" d="M840.588,1023.161s8.94-78.434-40.794-83.942c0,0-38.592,9.19-28.968,83.942Z" transform="translate(-638.56 -779.616)" fill="#f9ddbf"></path><path id="Trazado_1050" data-name="Trazado 1050" d="M926.749,922.239s-9.285,2.485-12.15,1.025c0,0-.433-4.672,3.478-4.017,2.676.448,4.419-1.1,5.445-1.727,1.451-.889,3.613,2.765,3.228,4.72" transform="translate(-759.169 -761.49)" fill="#f99746"></path><path id="Trazado_1051" data-name="Trazado 1051" d="M936.3,867.612c.594.536,2.417-7.555,2.417-7.555a7.272,7.272,0,0,0-1.129,1.3,3.621,3.621,0,0,1-1.752,1.429c-.006.236-.113,4.3.463,4.825" transform="translate(-776.797 -713.905)" fill="#e5c1a1"></path><path id="Trazado_1052" data-name="Trazado 1052" d="M888.179,883.458c.131.093,4.425,3.188,5.007,3.188s-3.166-5.811-3.166-5.811a13.109,13.109,0,0,1-1.841,2.623" transform="translate(-737.25 -731.153)" fill="#e5c1a1"></path><path id="Trazado_1053" data-name="Trazado 1053" d="M1718.981,366.927a17.517,17.517,0,1,1,22.218,10.956,17.517,17.517,0,0,1-22.218-10.956" transform="translate(-1426.098 -285.356)" fill="#e2810e"></path><path id="Trazado_1054" data-name="Trazado 1054" d="M1710.467,369.818a17.517,17.517,0,1,1,22.218,10.956,17.517,17.517,0,0,1-22.218-10.956" transform="translate(-1419.031 -287.755)" fill="#ffb93e"></path><path id="Trazado_1055" data-name="Trazado 1055" d="M1740.165,388.041a15.96,15.96,0,1,1,9.183-8.054,15.856,15.856,0,0,1-9.183,8.054m-9.955-29.323a15.007,15.007,0,1,0,19.036,9.386,15.024,15.024,0,0,0-19.036-9.386" transform="translate(-1426.945 -296.302)" fill="#ffa412"></path><path id="Trazado_1056" data-name="Trazado 1056" d="M1783.892,396.644a2.631,2.631,0,0,0-.334-.865,1.924,1.924,0,0,0-.618-.6,3.636,3.636,0,0,0-.964-.4,9.592,9.592,0,0,0-1.368-.254,25.115,25.115,0,0,1-2.519-.446,7.958,7.958,0,0,1-2.026-.753,4.672,4.672,0,0,1-1.472-1.257,5.275,5.275,0,0,1-.879-3.914,4.44,4.44,0,0,1,.729-1.7,5.537,5.537,0,0,1,1.405-1.368,7.379,7.379,0,0,1,2.012-.952l-.55-2.591,2.085-.443.558,2.628a6.625,6.625,0,0,1,2.159.161,5.007,5.007,0,0,1,3.141,2.313,6.666,6.666,0,0,1,.809,2.112l-3.767.8a3.244,3.244,0,0,0-1.107-2.037,2.255,2.255,0,0,0-1.88-.354,2.867,2.867,0,0,0-.976.378,1.937,1.937,0,0,0-.6.6,1.808,1.808,0,0,0-.262.758,2.668,2.668,0,0,0,.047.863,2.445,2.445,0,0,0,.3.783,1.8,1.8,0,0,0,.592.577,3.641,3.641,0,0,0,.971.4,12.3,12.3,0,0,0,1.43.285q1.365.2,2.506.48a8.044,8.044,0,0,1,2.022.767,4.513,4.513,0,0,1,2.316,3.21,4.823,4.823,0,0,1,.035,1.992,4.381,4.381,0,0,1-.738,1.688,5.349,5.349,0,0,1-1.425,1.34,7.972,7.972,0,0,1-2.028.937l.511,2.409-2.073.44-.509-2.4a8.944,8.944,0,0,1-2.192-.028,5.674,5.674,0,0,1-2.015-.667,5.075,5.075,0,0,1-1.618-1.46,6.179,6.179,0,0,1-1-2.395l3.767-.8a3.8,3.8,0,0,0,.546,1.384,2.46,2.46,0,0,0,.84.783,2.383,2.383,0,0,0,1.022.289,4.072,4.072,0,0,0,1.079-.084,3.412,3.412,0,0,0,1.042-.385,2.28,2.28,0,0,0,.683-.6,1.811,1.811,0,0,0,.329-.759,2.21,2.21,0,0,0-.02-.863" transform="translate(-1472.233 -316.337)" fill="#ffa412"></path><path id="Trazado_1057" data-name="Trazado 1057" d="M1970.7,211.529a13.8,13.8,0,1,1,17.5,8.631,13.8,13.8,0,0,1-17.5-8.631" transform="translate(-1635.209 -160.444)" fill="#e2810e"></path><path id="Trazado_1058" data-name="Trazado 1058" d="M1963.994,213.806a13.8,13.8,0,1,1,17.5,8.631,13.8,13.8,0,0,1-17.5-8.631" transform="translate(-1629.64 -162.334)" fill="#ffb93e"></path><path id="Trazado_1059" data-name="Trazado 1059" d="M1987.389,228.163a12.572,12.572,0,1,1,7.234-6.345,12.49,12.49,0,0,1-7.234,6.345m-7.842-23.1a11.822,11.822,0,1,0,15,7.394,11.836,11.836,0,0,0-15-7.394" transform="translate(-1635.875 -169.067)" fill="#ffa412"></path><path id="Trazado_1060" data-name="Trazado 1060" d="M2021.836,234.94a2.074,2.074,0,0,0-.263-.682,1.512,1.512,0,0,0-.487-.475,2.858,2.858,0,0,0-.76-.317,7.572,7.572,0,0,0-1.078-.2,19.771,19.771,0,0,1-1.984-.351,6.253,6.253,0,0,1-1.6-.593,3.681,3.681,0,0,1-1.16-.99,4.155,4.155,0,0,1-.692-3.083,3.5,3.5,0,0,1,.574-1.338,4.363,4.363,0,0,1,1.107-1.078,5.823,5.823,0,0,1,1.585-.75l-.433-2.041,1.643-.349.439,2.07a5.223,5.223,0,0,1,1.7.127,3.945,3.945,0,0,1,2.474,1.822,5.253,5.253,0,0,1,.638,1.664l-2.968.63a2.555,2.555,0,0,0-.872-1.6,1.776,1.776,0,0,0-1.481-.279,2.259,2.259,0,0,0-.768.3,1.528,1.528,0,0,0-.474.469,1.425,1.425,0,0,0-.206.6,2.091,2.091,0,0,0,.037.68,1.921,1.921,0,0,0,.238.617,1.423,1.423,0,0,0,.467.454,2.866,2.866,0,0,0,.764.316,9.725,9.725,0,0,0,1.126.225q1.075.161,1.974.378a6.335,6.335,0,0,1,1.593.6,3.555,3.555,0,0,1,1.825,2.529,3.8,3.8,0,0,1,.027,1.569,3.456,3.456,0,0,1-.582,1.33,4.216,4.216,0,0,1-1.123,1.056,6.286,6.286,0,0,1-1.6.738l.4,1.9-1.633.347-.4-1.889a7.046,7.046,0,0,1-1.727-.022,4.467,4.467,0,0,1-1.587-.525,4,4,0,0,1-1.274-1.15,4.861,4.861,0,0,1-.787-1.886l2.968-.63a3,3,0,0,0,.43,1.09,1.94,1.94,0,0,0,.662.617,1.881,1.881,0,0,0,.8.228,3.218,3.218,0,0,0,.85-.066,2.689,2.689,0,0,0,.821-.3,1.794,1.794,0,0,0,.538-.473,1.426,1.426,0,0,0,.259-.6,1.743,1.743,0,0,0-.015-.68" transform="translate(-1671.551 -184.85)" fill="#ffa412"></path><path id="Trazado_1061" data-name="Trazado 1061" d="M1066.391,983s-2.232,3.142-4.278,3.186-5.159-1.456-5.159-1.456-1.879-4.187-.6-5.826a2.737,2.737,0,0,1,2.614.43,4.01,4.01,0,0,1,.692.663,2.2,2.2,0,0,0,1.074.728c1.46.444,3.193-.6,3.841.408a6.841,6.841,0,0,0,1.129,1.336,5.135,5.135,0,0,0,.692.532" transform="translate(-876.476 -812.423)" fill="#ffeddc"></path><path id="Trazado_1062" data-name="Trazado 1062" d="M946.376,1042.005s7.889-19.115,22.089-19.479c0,0,13.108,1.456,13.836,19.479Z" transform="translate(-785.558 -848.767)" fill="#ffeddc"></path><path id="Trazado_1063" data-name="Trazado 1063" d="M1053.335,1013.877s5.692,1.266,7.448.522a1.758,1.758,0,0,0-2.132-2.046,5.03,5.03,0,0,1-3.338-.88c-.889-.453-2.215,1.409-1.979,2.4" transform="translate(-874.318 -839.533)" fill="#db6a1d"></path><path id="Trazado_1064" data-name="Trazado 1064" d="M1075.381,986.051c-.364.273-1.482-3.849-1.482-3.849a4.006,4.006,0,0,1,.692.663,2.2,2.2,0,0,0,1.074.728c0,.12.069,2.192-.284,2.458" transform="translate(-891.411 -815.295)" fill="#e5c1a1"></path><path id="Trazado_1065" data-name="Trazado 1065" d="M1098.355,994.122a23.435,23.435,0,0,1-3.069,1.624c-.364,0,1.941-2.96,1.941-2.96a6.847,6.847,0,0,0,1.129,1.336" transform="translate(-909.13 -824.08)" fill="#e5c1a1"></path><path id="Trazado_1066" data-name="Trazado 1066" d="M991.716,1064.226c-.146-.125,5.583-8.435,7.161-8.5s5.122,1.82,7.689,2.063,5.054-.486,5.54,1.031,1.82,6.9,1,7.756-18.241.335-21.391-2.356" transform="translate(-823.191 -876.327)" fill="#f9ddbf"></path><path id="Trazado_1067" data-name="Trazado 1067" d="M1352.446,593.912l-16.271,48.4a86.553,86.553,0,0,1-17.4,30.044,88.121,88.121,0,0,1-58.934,29.28,87.119,87.119,0,0,1-64.5-21.682,88.12,88.12,0,0,1-29.28-58.933,86.544,86.544,0,0,1,4.284-34.452l16.271-48.4,40.839,13.728-16.271,48.4a44.387,44.387,0,0,0,84.146,28.286l16.271-48.4Z" transform="translate(-967.697 -446.717)" fill="#699dee"></path><rect id="Rect&#xE1;ngulo_818" data-name="Rect&#xE1;ngulo 818" width="48.801" height="43.115" transform="translate(218.924 91.453) rotate(-71.42)" fill="#e0e0e0"></rect><rect id="Rect&#xE1;ngulo_819" data-name="Rect&#xE1;ngulo 819" width="48.801" height="43.114" transform="translate(343.881 133.458) rotate(-71.42)" fill="#e0e0e0"></rect><path id="Trazado_1068" data-name="Trazado 1068" d="M1239.12,656.516l-13.728,40.84a86.53,86.53,0,0,1-30.045-17.4,88.12,88.12,0,0,1-29.28-58.933,86.547,86.547,0,0,1,4.284-34.452l16.271-48.4,40.84,13.728-16.271,48.4a44.581,44.581,0,0,0,27.93,56.216" transform="translate(-967.697 -446.717)" fill="#f99746"></path><path id="Trazado_1069" data-name="Trazado 1069" d="M1835.891,1373.586a1.37,1.37,0,0,0-.244,1.465.012.012,0,0,0,0,.007,9.1,9.1,0,0,0,2.877,3.156c.173.14.327.267.462.385.035.031.071.062.1.093l.08.072c1.265,1.166.789,1.433,3.061,3.8,2.591,2.7,4.374,2.744,4.882,2.5.429-.209-.443-1.639-1.409-3.246-.047-.077-.093-.156-.141-.234-.129-.213-.257-.43-.384-.645-1.133-1.934-.842-2.841-.573-5.719.218-2.339,3.638-13.066,3.638-13.066l-4.965-.855s-1.495,8.541-3.142,9.857c-.881.7-1.867.71-2.714,1.23-.06.036-.118.073-.176.111a6.506,6.506,0,0,0-1.358,1.092" transform="translate(-1523.624 -1129.969)" fill="#ffb27d"></path><path id="Trazado_1070" data-name="Trazado 1070" d="M1835.891,1427.743a1.37,1.37,0,0,0-.244,1.465.013.013,0,0,0,0,.007,10.547,10.547,0,0,0,2.882,3.146c.171.142.323.273.457.395.035.031.071.062.1.093l.08.072c1.265,1.166.789,1.433,3.061,3.8,2.591,2.7,4.374,2.744,4.882,2.5.429-.209-.443-1.639-1.409-3.246a11.039,11.039,0,0,1-4.618-3.4c-1.56-1.99-2.6-4.548-3.663-6.03-.06.036-.118.073-.176.111a6.505,6.505,0,0,0-1.358,1.092" transform="translate(-1523.624 -1184.126)" fill="#233862"></path><path id="Trazado_1071" data-name="Trazado 1071" d="M2053.8,1363.1c.307,1.533,2.491,1.277,4.932.68s1.861.113,5.334-.272,4.526-1.68,4.631-2.2c.1-.458-1.621-.62-3.462-.832-.231-.026-.464-.055-.7-.083-2.079-.261-3.6-1.6-5.488-2.7-1.788-1.043-4.457-5.294-4.457-5.294l-4.763.377s2.5,3.8,3.467,5.447a5.754,5.754,0,0,1,.468,3.246,6.116,6.116,0,0,0,.036,1.63" transform="translate(-1701.497 -1122.588)" fill="#ffb27d"></path><path id="Trazado_1072" data-name="Trazado 1072" d="M2077.767,1403.257c2.44-.6,1.86.113,5.334-.272s4.526-1.68,4.631-2.2c.095-.458-1.621-.62-3.462-.832l-.017.035a9.793,9.793,0,0,1-4.974,1.546c-2.356.057-4.852-.618-6.48-.592a6.126,6.126,0,0,0,.037,1.63c.306,1.533,2.491,1.277,4.931.68" transform="translate(-1720.537 -1162.061)" fill="#233862"></path><path id="Trazado_1073" data-name="Trazado 1073" d="M1885.942,1198.834l-4.453,11.982-5.813,15.645a9.415,9.415,0,0,1-3.089-.282,13.387,13.387,0,0,1-2.987-1.454s1.614-16.8,4.626-26.442a17.176,17.176,0,0,1,2.591-5.6c4.669-5.517,9.125,6.155,9.125,6.155" transform="translate(-1551.898 -988.776)" fill="#233862"></path><path id="Trazado_1074" data-name="Trazado 1074" d="M1728.734,1112.46c-2.917-.941-11.238.267-19.6,1.9l-1.75-2.886-18.053-1.41s-5.957,13.211-2.7,21.629a3.053,3.053,0,0,0,3.055,2.057h.264s10.745-.006,14.234-.006c8.978,0,19-6.172,20.3-6.431,2.122-.425,2.971,3.82,5.093,8.276s19.949,19.737,19.949,19.737a15.687,15.687,0,0,0,3.872-.4,3.815,3.815,0,0,0,1.662-1.049s-19.753-39.3-26.332-41.422" transform="translate(-1399.217 -921.432)" fill="#2b478b"></path><path id="Trazado_1075" data-name="Trazado 1075" d="M1659.851,801.612c-2.313-1.214-5.832-1.379-6.4-1.455-6.841-.92-10.958,9.021-11.2,12.033-.446,5.552-3.383,6.4-7.517,9.875-8.289,6.972-5.858,15.073-1.326,18.083,2.72,1.806,7.513,0,7.513,0,.068.047,13.11-7.29,19.538-10.83,9.637-1.37,5.289-24.611-.6-27.706" transform="translate(-1352.391 -664.135)" fill="#233862"></path><path id="Trazado_1076" data-name="Trazado 1076" d="M1738.21,904.949c.028.018-3.163,1.108-5.3.163-2.007-.887-3.528-4.19-3.5-4.192.913-.042,1.916-.841,2.688-6.079l.389.14,6.538,2.353s-.474,2.1-.78,4.1c-.258,1.677-.4,3.284-.04,3.521" transform="translate(-1435.534 -742.779)" fill="#ffb27d"></path><path id="Trazado_1077" data-name="Trazado 1077" d="M1754.062,898.015s-.474,2.1-.78,4.1c-3.755-.676-5.229-4.418-5.758-6.448Z" transform="translate(-1450.566 -743.461)" fill="#ed975d"></path><path id="Trazado_1078" data-name="Trazado 1078" d="M1751.836,844.9s-8.946-1.2-8.112-6.76.24-9.458,5.987-8.927,6.536,2.819,6.709,4.742-2.235,11.114-4.584,10.945" transform="translate(-1447.366 -688.261)" fill="#ffb27d"></path><path id="Trazado_1079" data-name="Trazado 1079" d="M1743.557,828.5s-5.726,4.935-9.622,5.333-5.37-.853-5.37-.853a15.209,15.209,0,0,0,3.677-4.982,2.738,2.738,0,0,1,2.258-1.615c2.781-.24,8.054-.35,9.056,2.117" transform="translate(-1434.829 -685.86)" fill="#233862"></path><path id="Trazado_1080" data-name="Trazado 1080" d="M1795.721,831.592a14.107,14.107,0,0,1,2.519,3.226,10.83,10.83,0,0,1,.293,5.756s2.985-5.8,1.3-8.624c-1.792-2.99-4.107-.359-4.107-.359" transform="translate(-1490.573 -689.39)" fill="#233862"></path><path id="Trazado_1081" data-name="Trazado 1081" d="M1708.243,946.793c-.27,18.108-.074,14.324-2.055,16.043a7.6,7.6,0,0,1-3.585.777c-5.552.368-15.313-.546-15.684-1.572-1.281-3.551-.377-4.654-1.445-10.09-.111-.578-.249-1.2-.411-1.885-.891-3.733-1.758-5,1.4-11,2.866-5.433,5.844-9.843,6.112-9.684,7.563,4.489,8.172.716,8.172.716s7.626,7.865,7.494,16.7" transform="translate(-1398.034 -771.445)" fill="#fff"></path><path id="Trazado_1082" data-name="Trazado 1082" d="M1881.489,1245.426l-5.813,15.645a9.411,9.411,0,0,1-3.089-.282,13.383,13.383,0,0,1-2.987-1.454s1.614-16.8,4.626-26.442Z" transform="translate(-1551.898 -1023.387)" fill="#2b478b"></path><path id="Trazado_1083" data-name="Trazado 1083" d="M1781.409,933.607s7.782,1.319,8.7,4.67,6.291,23.047,6.291,23.047-3.956.711-5.783-1.117-6.359-16.955-6.359-16.955Z" transform="translate(-1478.693 -774.958)" fill="#fff"></path><path id="Trazado_1084" data-name="Trazado 1084" d="M1708.64,1037.049c-5.552.369-15.313-.546-15.684-1.572-1.281-3.551-.377-4.654-1.445-10.09l2.678-7.541s-.443,8.4,2.034,10.607,10.14,4.264,11.344,6.109a6.759,6.759,0,0,1,1.074,2.487" transform="translate(-1404.071 -844.882)" fill="#ebf3ff"></path><path id="Trazado_1085" data-name="Trazado 1085" d="M1754.876,1105.924s5.478-1.22,6.362-.734a12.864,12.864,0,0,1,3.314,2.873c.271.616-1.968-.468-2.7-.663a6.474,6.474,0,0,0-2.327.51,7.733,7.733,0,0,1-4.17.418Z" transform="translate(-1456.669 -917.289)" fill="#ffb27d"></path><path id="Trazado_1086" data-name="Trazado 1086" d="M1646.606,929.377s-7.355.453-9.9,4c-3.584,5-10.695,26.3-6.62,29.146,4.589,3.2,20.886.837,20.886.837s.542-2.535-.212-3.761-13.017-3.207-13.583-3.773,7.074-11.036,7.074-12.734,2.356-13.72,2.356-13.72" transform="translate(-1352.068 -771.447)" fill="#fff"></path><path id="Trazado_1087" data-name="Trazado 1087" d="M1793.875,1114.723a10.6,10.6,0,0,0,1.524,1.657,1.123,1.123,0,0,0,.619.133l-.773-1.392Z" transform="translate(-1489.041 -925.297)" fill="#ffb27d"></path><path id="Trazado_1088" data-name="Trazado 1088" d="M1792.314,1105.75l3.337,1.621a.6.6,0,0,1-.553.213,7.955,7.955,0,0,1-1.447-.4Z" transform="translate(-1487.745 -917.848)" fill="#ffb27d"></path><path id="Trazado_1089" data-name="Trazado 1089" d="M1802.844,1041.365h26.4l7.941-19.747h-26.357Z" transform="translate(-1496.486 -848.013)" fill="#f99746"></path><path id="Trazado_1090" data-name="Trazado 1090" d="M1789.734,1133.295h-34.858v.769h34.549Z" transform="translate(-1456.669 -940.713)" fill="#ed7d2b"></path><path id="Trazado_1091" data-name="Trazado 1091" d="M1906.445,1073.581a.914.914,0,0,0-.9-1.257,1.8,1.8,0,0,0-1.617,1.257.915.915,0,0,0,.9,1.257,1.8,1.8,0,0,0,1.617-1.257" transform="translate(-1580.353 -890.102)" fill="#fff"></path><path id="Trazado_1092" data-name="Trazado 1092" d="M491.769,1503.831H.558a.559.559,0,0,1-.558-.558v-.19a.56.56,0,0,1,.558-.558H491.769a.56.56,0,0,1,.558.558v.19a.559.559,0,0,1-.558.558" transform="translate(0 -1247.199)" fill="#2e3552"></path><path id="Trazado_1093" data-name="Trazado 1093" d="M992.263,1476.053v3.268a1.113,1.113,0,0,1-.257.7,1.494,1.494,0,0,1-.7.471,1.612,1.612,0,0,1-.275.065,1.726,1.726,0,0,1-.264.02h-61.98a1.416,1.416,0,0,1-1.5-1.195c0-.022,0-.043,0-.064v-3.268c0-.021,0-.043,0-.065a1.416,1.416,0,0,1,1.5-1.194h61.98a1.758,1.758,0,0,1,.264.02,1.6,1.6,0,0,1,.275.065,1.494,1.494,0,0,1,.7.471,1.113,1.113,0,0,1,.257.7" transform="translate(-769.71 -1224.181)" fill="#ffb93e"></path><path id="Trazado_1094" data-name="Trazado 1094" d="M961.828,1480.58H928.623a1.311,1.311,0,0,1-1.337-1.194c0-.022,0-.043,0-.065v-3.268c0-.021,0-.043,0-.065a1.311,1.311,0,0,1,1.337-1.194H957.75a10.144,10.144,0,0,0,4.078,5.786" transform="translate(-769.71 -1224.181)" fill="#ffa412"></path><rect id="Rect&#xE1;ngulo_820" data-name="Rect&#xE1;ngulo 820" width="0.705" height="5.786" transform="translate(214.307 250.614)" fill="#ffa412"></rect><rect id="Rect&#xE1;ngulo_821" data-name="Rect&#xE1;ngulo 821" width="0.705" height="5.786" transform="translate(211.922 250.614)" fill="#ffa412"></rect><rect id="Rect&#xE1;ngulo_822" data-name="Rect&#xE1;ngulo 822" width="0.705" height="5.786" transform="translate(209.063 250.614)" fill="#ffa412"></rect><rect id="Rect&#xE1;ngulo_823" data-name="Rect&#xE1;ngulo 823" width="0.705" height="5.786" transform="translate(204.68 250.614)" fill="#ffa412"></rect><rect id="Rect&#xE1;ngulo_824" data-name="Rect&#xE1;ngulo 824" width="0.705" height="5.786" transform="translate(200.045 250.614)" fill="#ffa412"></rect><rect id="Rect&#xE1;ngulo_825" data-name="Rect&#xE1;ngulo 825" width="0.705" height="5.786" transform="translate(192.94 250.614)" fill="#ffa412"></rect><rect id="Rect&#xE1;ngulo_826" data-name="Rect&#xE1;ngulo 826" width="0.705" height="5.786" transform="translate(186.287 250.614)" fill="#ffa412"></rect><rect id="Rect&#xE1;ngulo_827" data-name="Rect&#xE1;ngulo 827" width="0.705" height="5.786" transform="translate(180.346 250.614)" fill="#ffa412"></rect><rect id="Rect&#xE1;ngulo_828" data-name="Rect&#xE1;ngulo 828" width="0.704" height="5.786" transform="translate(216.577 250.614)" fill="#ffa412"></rect><rect id="Rect&#xE1;ngulo_829" data-name="Rect&#xE1;ngulo 829" width="0.705" height="5.786" transform="translate(218.076 250.614)" fill="#ffa412"></rect><rect id="Rect&#xE1;ngulo_830" data-name="Rect&#xE1;ngulo 830" width="0.705" height="5.786" transform="translate(219.524 250.614)" fill="#ffa412"></rect><path id="Trazado_1095" data-name="Trazado 1095" d="M1298.96,1474.814v5.746a1.728,1.728,0,0,1-.264.02h-.44v-5.786h.44a1.76,1.76,0,0,1,.264.02" transform="translate(-1077.642 -1224.181)" fill="#ffa412"></path><path id="Trazado_1096" data-name="Trazado 1096" d="M1304.721,1475.764v4.674a1.494,1.494,0,0,1-.7.471v-5.616a1.493,1.493,0,0,1,.7.471" transform="translate(-1082.425 -1224.595)" fill="#ffa412"></path><path id="Trazado_1097" data-name="Trazado 1097" d="M953.266,1442v3.267a1.112,1.112,0,0,1-.257.7,1.494,1.494,0,0,1-.7.471,1.6,1.6,0,0,1-.274.065,1.7,1.7,0,0,1-.264.02h-61.98a1.416,1.416,0,0,1-1.5-1.195c0-.022,0-.043,0-.065V1442c0-.022,0-.043,0-.065a1.416,1.416,0,0,1,1.5-1.194h61.98c.04,0,.08,0,.119,0l.05,0,.056.006.04.006a1.592,1.592,0,0,1,.274.065l.039.013.038.014.075.031.043.02.038.019.07.037c.026.016.052.031.077.048s.039.026.058.04l0,0,.038.029a1.228,1.228,0,0,1,.109.094.412.412,0,0,1,.03.029l.029.031c.019.021.038.042.056.064a1.113,1.113,0,0,1,.257.7" transform="translate(-737.34 -1195.916)" fill="#ffb93e"></path><path id="Trazado_1098" data-name="Trazado 1098" d="M922.831,1446.529H889.626a1.31,1.31,0,0,1-1.337-1.195c0-.021,0-.043,0-.065V1442c0-.022,0-.043,0-.065a1.31,1.31,0,0,1,1.337-1.195h29.126c.013.047.026.095.041.143a10.124,10.124,0,0,0,4.038,5.644" transform="translate(-737.34 -1195.916)" fill="#ffa412"></path><rect id="Rect&#xE1;ngulo_831" data-name="Rect&#xE1;ngulo 831" width="0.705" height="5.786" transform="translate(207.68 244.827)" fill="#ffa412"></rect><rect id="Rect&#xE1;ngulo_832" data-name="Rect&#xE1;ngulo 832" width="0.704" height="5.786" transform="translate(205.296 244.827)" fill="#ffa412"></rect><rect id="Rect&#xE1;ngulo_833" data-name="Rect&#xE1;ngulo 833" width="0.705" height="5.786" transform="translate(202.436 244.827)" fill="#ffa412"></rect><rect id="Rect&#xE1;ngulo_834" data-name="Rect&#xE1;ngulo 834" width="0.705" height="5.786" transform="translate(198.053 244.827)" fill="#ffa412"></rect><rect id="Rect&#xE1;ngulo_835" data-name="Rect&#xE1;ngulo 835" width="0.705" height="5.786" transform="translate(193.418 244.827)" fill="#ffa412"></rect><rect id="Rect&#xE1;ngulo_836" data-name="Rect&#xE1;ngulo 836" width="0.704" height="5.786" transform="translate(186.313 244.827)" fill="#ffa412"></rect><rect id="Rect&#xE1;ngulo_837" data-name="Rect&#xE1;ngulo 837" width="0.704" height="5.786" transform="translate(179.66 244.827)" fill="#ffa412"></rect><rect id="Rect&#xE1;ngulo_838" data-name="Rect&#xE1;ngulo 838" width="0.704" height="5.786" transform="translate(173.72 244.827)" fill="#ffa412"></rect><rect id="Rect&#xE1;ngulo_839" data-name="Rect&#xE1;ngulo 839" width="0.704" height="5.786" transform="translate(209.95 244.827)" fill="#ffa412"></rect><rect id="Rect&#xE1;ngulo_840" data-name="Rect&#xE1;ngulo 840" width="0.704" height="5.786" transform="translate(211.449 244.827)" fill="#ffa412"></rect><rect id="Rect&#xE1;ngulo_841" data-name="Rect&#xE1;ngulo 841" width="0.704" height="5.786" transform="translate(212.897 244.827)" fill="#ffa412"></rect><path id="Trazado_1099" data-name="Trazado 1099" d="M1259.964,1440.762v5.746a1.714,1.714,0,0,1-.264.02h-.44v-5.786h.44a1.714,1.714,0,0,1,.264.02" transform="translate(-1045.272 -1195.915)" fill="#ffa412"></path><path id="Trazado_1100" data-name="Trazado 1100" d="M1265.723,1441.714v4.674a1.5,1.5,0,0,1-.7.471v-5.616a1.492,1.492,0,0,1,.7.471" transform="translate(-1050.054 -1196.331)" fill="#ffa412"></path><path id="Trazado_1101" data-name="Trazado 1101" d="M972.111,1408.791v3.268a1.113,1.113,0,0,1-.257.7,1.5,1.5,0,0,1-.7.471,1.617,1.617,0,0,1-.274.064,1.711,1.711,0,0,1-.264.02h-61.98a1.717,1.717,0,0,1-.691-.143,1.286,1.286,0,0,1-.8-1c0-.019,0-.037,0-.056s0-.043,0-.065v-3.268c0-.022,0-.043,0-.065a1.416,1.416,0,0,1,1.5-1.195h61.98a1.758,1.758,0,0,1,.264.02,1.629,1.629,0,0,1,.274.065,1.494,1.494,0,0,1,.7.471,1.112,1.112,0,0,1,.257.7" transform="translate(-752.983 -1168.349)" fill="#ffb93e"></path><path id="Trazado_1102" data-name="Trazado 1102" d="M941.675,1413.318h-33.2a1.392,1.392,0,0,1-.617-.143,1.265,1.265,0,0,1-.715-1c0-.019,0-.038,0-.056s0-.043,0-.065v-3.268c0-.022,0-.043,0-.065a1.311,1.311,0,0,1,1.337-1.195H937.6a10.156,10.156,0,0,0,3.874,5.644q.1.072.2.143" transform="translate(-752.982 -1168.349)" fill="#ffa412"></path><rect id="Rect&#xE1;ngulo_842" data-name="Rect&#xE1;ngulo 842" width="0.704" height="5.786" transform="translate(210.882 239.184)" fill="#ffa412"></rect><rect id="Rect&#xE1;ngulo_843" data-name="Rect&#xE1;ngulo 843" width="0.704" height="5.786" transform="translate(208.498 239.184)" fill="#ffa412"></rect><rect id="Rect&#xE1;ngulo_844" data-name="Rect&#xE1;ngulo 844" width="0.704" height="5.786" transform="translate(205.638 239.184)" fill="#ffa412"></rect><rect id="Rect&#xE1;ngulo_845" data-name="Rect&#xE1;ngulo 845" width="0.705" height="5.786" transform="translate(201.255 239.184)" fill="#ffa412"></rect><rect id="Rect&#xE1;ngulo_846" data-name="Rect&#xE1;ngulo 846" width="0.704" height="5.786" transform="translate(196.621 239.184)" fill="#ffa412"></rect><rect id="Rect&#xE1;ngulo_847" data-name="Rect&#xE1;ngulo 847" width="0.704" height="5.786" transform="translate(189.515 239.184)" fill="#ffa412"></rect><rect id="Rect&#xE1;ngulo_848" data-name="Rect&#xE1;ngulo 848" width="0.704" height="5.786" transform="translate(182.863 239.184)" fill="#ffa412"></rect><rect id="Rect&#xE1;ngulo_849" data-name="Rect&#xE1;ngulo 849" width="0.704" height="5.786" transform="translate(176.922 239.184)" fill="#ffa412"></rect><rect id="Rect&#xE1;ngulo_850" data-name="Rect&#xE1;ngulo 850" width="0.704" height="5.786" transform="translate(213.152 239.184)" fill="#ffa412"></rect><rect id="Rect&#xE1;ngulo_851" data-name="Rect&#xE1;ngulo 851" width="0.704" height="5.786" transform="translate(214.652 239.184)" fill="#ffa412"></rect><rect id="Rect&#xE1;ngulo_852" data-name="Rect&#xE1;ngulo 852" width="0.704" height="5.786" transform="translate(216.1 239.184)" fill="#ffa412"></rect><path id="Trazado_1103" data-name="Trazado 1103" d="M1278.808,1407.552v5.746a1.727,1.727,0,0,1-.264.02h-.44v-5.786h.44a1.774,1.774,0,0,1,.264.02" transform="translate(-1060.915 -1168.349)" fill="#ffa412"></path><path id="Trazado_1104" data-name="Trazado 1104" d="M1284.569,1408.5v4.674a1.493,1.493,0,0,1-.7.471v-5.616a1.493,1.493,0,0,1,.7.471" transform="translate(-1065.697 -1168.763)" fill="#ffa412"></path><path id="Trazado_1105" data-name="Trazado 1105" d="M980.847,1374.742v3.267a1.112,1.112,0,0,1-.257.7,1.494,1.494,0,0,1-.7.471,1.631,1.631,0,0,1-.274.065,1.73,1.73,0,0,1-.265.02h-61.98a1.416,1.416,0,0,1-1.5-1.195c0-.022,0-.043,0-.065v-3.267c0-.022,0-.043,0-.065a1.382,1.382,0,0,1,1.321-1.185,1.6,1.6,0,0,1,.177-.009h61.98a1.73,1.73,0,0,1,.265.02,1.574,1.574,0,0,1,.274.065,1.492,1.492,0,0,1,.7.471,1.113,1.113,0,0,1,.257.7" transform="translate(-760.234 -1140.085)" fill="#ffb93e"></path><path id="Trazado_1106" data-name="Trazado 1106" d="M950.413,1379.268h-33.2a1.311,1.311,0,0,1-1.337-1.194c0-.022,0-.043,0-.065v-3.268c0-.021,0-.043,0-.064a1.3,1.3,0,0,1,1.179-1.186,1.318,1.318,0,0,1,.158-.009h29.127l0,.009a10.145,10.145,0,0,0,4.075,5.777" transform="translate(-760.235 -1140.084)" fill="#ffa412"></path><rect id="Rect&#xE1;ngulo_853" data-name="Rect&#xE1;ngulo 853" width="0.705" height="5.786" transform="translate(212.367 233.397)" fill="#ffa412"></rect><rect id="Rect&#xE1;ngulo_854" data-name="Rect&#xE1;ngulo 854" width="0.705" height="5.786" transform="translate(209.982 233.397)" fill="#ffa412"></rect><rect id="Rect&#xE1;ngulo_855" data-name="Rect&#xE1;ngulo 855" width="0.705" height="5.786" transform="translate(207.123 233.397)" fill="#ffa412"></rect><rect id="Rect&#xE1;ngulo_856" data-name="Rect&#xE1;ngulo 856" width="0.705" height="5.786" transform="translate(202.74 233.397)" fill="#ffa412"></rect><rect id="Rect&#xE1;ngulo_857" data-name="Rect&#xE1;ngulo 857" width="0.705" height="5.786" transform="translate(198.105 233.397)" fill="#ffa412"></rect><rect id="Rect&#xE1;ngulo_858" data-name="Rect&#xE1;ngulo 858" width="0.705" height="5.786" transform="translate(191 233.397)" fill="#ffa412"></rect><rect id="Rect&#xE1;ngulo_859" data-name="Rect&#xE1;ngulo 859" width="0.705" height="5.786" transform="translate(184.347 233.397)" fill="#ffa412"></rect><rect id="Rect&#xE1;ngulo_860" data-name="Rect&#xE1;ngulo 860" width="0.705" height="5.786" transform="translate(178.407 233.397)" fill="#ffa412"></rect><rect id="Rect&#xE1;ngulo_861" data-name="Rect&#xE1;ngulo 861" width="0.704" height="5.786" transform="translate(214.637 233.397)" fill="#ffa412"></rect><rect id="Rect&#xE1;ngulo_862" data-name="Rect&#xE1;ngulo 862" width="0.705" height="5.786" transform="translate(216.136 233.397)" fill="#ffa412"></rect><rect id="Rect&#xE1;ngulo_863" data-name="Rect&#xE1;ngulo 863" width="0.705" height="5.786" transform="translate(217.584 233.397)" fill="#ffa412"></rect><path id="Trazado_1107" data-name="Trazado 1107" d="M1287.545,1373.5v5.746a1.741,1.741,0,0,1-.264.02h-.44v-5.786h.44a1.71,1.71,0,0,1,.264.02" transform="translate(-1068.167 -1140.084)" fill="#ffa412"></path><path id="Trazado_1108" data-name="Trazado 1108" d="M1293.306,1374.452v4.674a1.494,1.494,0,0,1-.7.471v-5.616a1.493,1.493,0,0,1,.7.471" transform="translate(-1072.949 -1140.499)" fill="#ffa412"></path><path id="Trazado_1109" data-name="Trazado 1109" d="M954.032,1340.744v3.268a1.112,1.112,0,0,1-.257.7,1.493,1.493,0,0,1-.7.471,1.6,1.6,0,0,1-.274.065l-.087.011-.049,0-.049,0-.08,0h-61.98a1.416,1.416,0,0,1-1.5-1.195c0-.022,0-.043,0-.065v-3.268c0-.022,0-.043,0-.065s0-.036,0-.053a1.359,1.359,0,0,1,1.124-1.1l.046-.009a1.773,1.773,0,0,1,.324-.03h61.98c.046,0,.09,0,.134.005l.06.006h0l.07.01a1.608,1.608,0,0,1,.274.065,1.493,1.493,0,0,1,.7.471,1.113,1.113,0,0,1,.257.7" transform="translate(-737.976 -1111.865)" fill="#ffb93e"></path><path id="Trazado_1110" data-name="Trazado 1110" d="M923.6,1345.271H890.392a1.311,1.311,0,0,1-1.337-1.194c0-.022,0-.043,0-.065v-3.268c0-.022,0-.043,0-.065s0-.036,0-.053a1.293,1.293,0,0,1,1.039-1.11.549.549,0,0,1,.057-.011,1.413,1.413,0,0,1,.237-.02h29.127c0,.014.007.027.012.041a10.138,10.138,0,0,0,4.053,5.736l.013.009" transform="translate(-737.976 -1111.865)" fill="#ffa412"></path><rect id="Rect&#xE1;ngulo_864" data-name="Rect&#xE1;ngulo 864" width="0.705" height="5.786" transform="translate(207.81 227.62)" fill="#ffa412"></rect><rect id="Rect&#xE1;ngulo_865" data-name="Rect&#xE1;ngulo 865" width="0.705" height="5.786" transform="translate(205.426 227.62)" fill="#ffa412"></rect><rect id="Rect&#xE1;ngulo_866" data-name="Rect&#xE1;ngulo 866" width="0.705" height="5.786" transform="translate(202.566 227.62)" fill="#ffa412"></rect><rect id="Rect&#xE1;ngulo_867" data-name="Rect&#xE1;ngulo 867" width="0.705" height="5.786" transform="translate(198.183 227.62)" fill="#ffa412"></rect><rect id="Rect&#xE1;ngulo_868" data-name="Rect&#xE1;ngulo 868" width="0.705" height="5.786" transform="translate(193.548 227.62)" fill="#ffa412"></rect><rect id="Rect&#xE1;ngulo_869" data-name="Rect&#xE1;ngulo 869" width="0.704" height="5.786" transform="translate(186.443 227.62)" fill="#ffa412"></rect><rect id="Rect&#xE1;ngulo_870" data-name="Rect&#xE1;ngulo 870" width="0.704" height="5.786" transform="translate(179.79 227.62)" fill="#ffa412"></rect><rect id="Rect&#xE1;ngulo_871" data-name="Rect&#xE1;ngulo 871" width="0.704" height="5.786" transform="translate(173.85 227.62)" fill="#ffa412"></rect><rect id="Rect&#xE1;ngulo_872" data-name="Rect&#xE1;ngulo 872" width="0.705" height="5.786" transform="translate(210.08 227.62)" fill="#ffa412"></rect><rect id="Rect&#xE1;ngulo_873" data-name="Rect&#xE1;ngulo 873" width="0.705" height="5.786" transform="translate(211.579 227.62)" fill="#ffa412"></rect><rect id="Rect&#xE1;ngulo_874" data-name="Rect&#xE1;ngulo 874" width="0.704" height="5.786" transform="translate(213.028 227.62)" fill="#ffa412"></rect><path id="Trazado_1111" data-name="Trazado 1111" d="M1260.73,1339.5v5.746a1.726,1.726,0,0,1-.264.02h-.44v-5.786h.44a1.742,1.742,0,0,1,.264.02" transform="translate(-1045.908 -1111.864)" fill="#ffa412"></path><path id="Trazado_1112" data-name="Trazado 1112" d="M1266.49,1340.455v4.674a1.493,1.493,0,0,1-.7.471v-5.616a1.492,1.492,0,0,1,.7.471" transform="translate(-1050.69 -1112.279)" fill="#ffa412"></path><path id="Trazado_1113" data-name="Trazado 1113" d="M953.266,1306.935v3.268a1.113,1.113,0,0,1-.257.7,1.494,1.494,0,0,1-.7.471,1.546,1.546,0,0,1-.214.054h0l-.059.01a1.7,1.7,0,0,1-.264.021h-61.98a1.634,1.634,0,0,1-.194-.011c-.025,0-.05-.005-.074-.01a1.363,1.363,0,0,1-1.23-1.174c0-.022,0-.043,0-.065v-3.268c0-.022,0-.043,0-.065a1.416,1.416,0,0,1,1.5-1.195h61.98c.04,0,.08,0,.119,0l.05,0,.056.006.04.005a1.592,1.592,0,0,1,.274.065l.039.013.038.014.075.031c.027.012.055.025.081.039s.047.025.07.038.052.031.077.048l.058.04,0,0,.038.029a1.209,1.209,0,0,1,.109.094.389.389,0,0,1,.03.029l.029.031c.019.021.038.042.056.064a1.114,1.114,0,0,1,.257.7" transform="translate(-737.34 -1083.801)" fill="#ffb93e"></path><path id="Trazado_1114" data-name="Trazado 1114" d="M922.831,1311.463H889.626l-.079,0c-.029,0-.057,0-.085-.008a1.3,1.3,0,0,1-1.173-1.185c0-.021,0-.043,0-.065v-3.268c0-.022,0-.043,0-.065a1.31,1.31,0,0,1,1.337-1.195h29.126c.013.048.026.095.041.143a10.129,10.129,0,0,0,3.978,5.6l.06.041" transform="translate(-737.34 -1083.801)" fill="#ffa412"></path><rect id="Rect&#xE1;ngulo_875" data-name="Rect&#xE1;ngulo 875" width="0.705" height="5.786" transform="translate(207.68 221.875)" fill="#ffa412"></rect><rect id="Rect&#xE1;ngulo_876" data-name="Rect&#xE1;ngulo 876" width="0.704" height="5.786" transform="translate(205.296 221.875)" fill="#ffa412"></rect><rect id="Rect&#xE1;ngulo_877" data-name="Rect&#xE1;ngulo 877" width="0.705" height="5.786" transform="translate(202.436 221.875)" fill="#ffa412"></rect><rect id="Rect&#xE1;ngulo_878" data-name="Rect&#xE1;ngulo 878" width="0.705" height="5.786" transform="translate(198.053 221.875)" fill="#ffa412"></rect><rect id="Rect&#xE1;ngulo_879" data-name="Rect&#xE1;ngulo 879" width="0.705" height="5.786" transform="translate(193.418 221.875)" fill="#ffa412"></rect><rect id="Rect&#xE1;ngulo_880" data-name="Rect&#xE1;ngulo 880" width="0.704" height="5.786" transform="translate(186.313 221.875)" fill="#ffa412"></rect><rect id="Rect&#xE1;ngulo_881" data-name="Rect&#xE1;ngulo 881" width="0.704" height="5.786" transform="translate(179.66 221.875)" fill="#ffa412"></rect><rect id="Rect&#xE1;ngulo_882" data-name="Rect&#xE1;ngulo 882" width="0.704" height="5.786" transform="translate(173.72 221.875)" fill="#ffa412"></rect><rect id="Rect&#xE1;ngulo_883" data-name="Rect&#xE1;ngulo 883" width="0.704" height="5.786" transform="translate(209.95 221.875)" fill="#ffa412"></rect><rect id="Rect&#xE1;ngulo_884" data-name="Rect&#xE1;ngulo 884" width="0.704" height="5.786" transform="translate(211.449 221.875)" fill="#ffa412"></rect><rect id="Rect&#xE1;ngulo_885" data-name="Rect&#xE1;ngulo 885" width="0.704" height="5.786" transform="translate(212.897 221.875)" fill="#ffa412"></rect><path id="Trazado_1115" data-name="Trazado 1115" d="M1259.964,1305.7v5.746a1.745,1.745,0,0,1-.264.02h-.44v-5.786h.44a1.745,1.745,0,0,1,.264.02" transform="translate(-1045.272 -1083.802)" fill="#ffa412"></path><path id="Trazado_1116" data-name="Trazado 1116" d="M1265.723,1306.648v4.674a1.494,1.494,0,0,1-.7.471v-5.616a1.492,1.492,0,0,1,.7.471" transform="translate(-1050.054 -1084.217)" fill="#ffa412"></path><path id="Trazado_1117" data-name="Trazado 1117" d="M972.111,1273.725v3.268a1.113,1.113,0,0,1-.257.7,1.494,1.494,0,0,1-.7.471,1.629,1.629,0,0,1-.274.065,1.727,1.727,0,0,1-.264.02h-61.98a1.715,1.715,0,0,1-.691-.143,1.285,1.285,0,0,1-.8-1c0-.019,0-.037,0-.056s0-.043,0-.065v-3.268c0-.021,0-.043,0-.065a1.416,1.416,0,0,1,1.5-1.194h61.98a1.758,1.758,0,0,1,.264.02,1.617,1.617,0,0,1,.274.065,1.5,1.5,0,0,1,.7.471,1.113,1.113,0,0,1,.257.7" transform="translate(-752.983 -1056.234)" fill="#ffb93e"></path><path id="Trazado_1118" data-name="Trazado 1118" d="M941.675,1278.252h-33.2a1.39,1.39,0,0,1-.617-.143,1.265,1.265,0,0,1-.715-1c0-.019,0-.038,0-.056s0-.043,0-.065v-3.268c0-.021,0-.043,0-.065a1.311,1.311,0,0,1,1.337-1.194H937.6a10.156,10.156,0,0,0,3.874,5.643q.1.072.2.143" transform="translate(-752.982 -1056.234)" fill="#ffa412"></path><rect id="Rect&#xE1;ngulo_886" data-name="Rect&#xE1;ngulo 886" width="0.704" height="5.786" transform="translate(210.882 216.232)" fill="#ffa412"></rect><rect id="Rect&#xE1;ngulo_887" data-name="Rect&#xE1;ngulo 887" width="0.704" height="5.786" transform="translate(208.498 216.232)" fill="#ffa412"></rect><rect id="Rect&#xE1;ngulo_888" data-name="Rect&#xE1;ngulo 888" width="0.704" height="5.786" transform="translate(205.638 216.232)" fill="#ffa412"></rect><rect id="Rect&#xE1;ngulo_889" data-name="Rect&#xE1;ngulo 889" width="0.705" height="5.786" transform="translate(201.255 216.232)" fill="#ffa412"></rect><rect id="Rect&#xE1;ngulo_890" data-name="Rect&#xE1;ngulo 890" width="0.704" height="5.786" transform="translate(196.621 216.232)" fill="#ffa412"></rect><rect id="Rect&#xE1;ngulo_891" data-name="Rect&#xE1;ngulo 891" width="0.704" height="5.786" transform="translate(189.515 216.232)" fill="#ffa412"></rect><rect id="Rect&#xE1;ngulo_892" data-name="Rect&#xE1;ngulo 892" width="0.704" height="5.786" transform="translate(182.863 216.232)" fill="#ffa412"></rect><rect id="Rect&#xE1;ngulo_893" data-name="Rect&#xE1;ngulo 893" width="0.704" height="5.786" transform="translate(176.922 216.232)" fill="#ffa412"></rect><rect id="Rect&#xE1;ngulo_894" data-name="Rect&#xE1;ngulo 894" width="0.704" height="5.786" transform="translate(213.152 216.232)" fill="#ffa412"></rect><rect id="Rect&#xE1;ngulo_895" data-name="Rect&#xE1;ngulo 895" width="0.704" height="5.786" transform="translate(214.652 216.232)" fill="#ffa412"></rect><rect id="Rect&#xE1;ngulo_896" data-name="Rect&#xE1;ngulo 896" width="0.704" height="5.786" transform="translate(216.1 216.232)" fill="#ffa412"></rect><path id="Trazado_1119" data-name="Trazado 1119" d="M1278.808,1272.487v5.746a1.727,1.727,0,0,1-.264.02h-.44v-5.786h.44a1.758,1.758,0,0,1,.264.02" transform="translate(-1060.915 -1056.235)" fill="#ffa412"></path><path id="Trazado_1120" data-name="Trazado 1120" d="M1284.569,1273.437v4.674a1.493,1.493,0,0,1-.7.471v-5.616a1.493,1.493,0,0,1,.7.471" transform="translate(-1065.697 -1056.649)" fill="#ffa412"></path><path id="Trazado_1121" data-name="Trazado 1121" d="M1001.917,1239.674v3.267a1.112,1.112,0,0,1-.257.7,1.493,1.493,0,0,1-.7.471,1.621,1.621,0,0,1-.274.064,1.7,1.7,0,0,1-.264.021h-61.98a1.416,1.416,0,0,1-1.5-1.195c0-.022,0-.043,0-.065v-3.267c0-.021,0-.043,0-.065a1.382,1.382,0,0,1,1.32-1.185,1.581,1.581,0,0,1,.177-.009h61.98a1.742,1.742,0,0,1,.264.02,1.622,1.622,0,0,1,.274.065,1.494,1.494,0,0,1,.7.471,1.113,1.113,0,0,1,.257.7" transform="translate(-777.724 -1027.969)" fill="#ffb93e"></path><path id="Trazado_1122" data-name="Trazado 1122" d="M971.482,1244.2H938.277a1.311,1.311,0,0,1-1.337-1.195c0-.021,0-.043,0-.065v-3.268c0-.021,0-.043,0-.065a1.344,1.344,0,0,1,1.337-1.194H967.4l0,.009a10.144,10.144,0,0,0,4.075,5.777" transform="translate(-777.724 -1027.969)" fill="#ffa412"></path><rect id="Rect&#xE1;ngulo_897" data-name="Rect&#xE1;ngulo 897" width="0.704" height="5.786" transform="translate(215.948 210.446)" fill="#ffa412"></rect><rect id="Rect&#xE1;ngulo_898" data-name="Rect&#xE1;ngulo 898" width="0.704" height="5.786" transform="translate(213.563 210.446)" fill="#ffa412"></rect><rect id="Rect&#xE1;ngulo_899" data-name="Rect&#xE1;ngulo 899" width="0.704" height="5.786" transform="translate(210.704 210.446)" fill="#ffa412"></rect><rect id="Rect&#xE1;ngulo_900" data-name="Rect&#xE1;ngulo 900" width="0.705" height="5.786" transform="translate(206.321 210.446)" fill="#ffa412"></rect><rect id="Rect&#xE1;ngulo_901" data-name="Rect&#xE1;ngulo 901" width="0.704" height="5.786" transform="translate(201.686 210.446)" fill="#ffa412"></rect><rect id="Rect&#xE1;ngulo_902" data-name="Rect&#xE1;ngulo 902" width="0.704" height="5.786" transform="translate(194.581 210.446)" fill="#ffa412"></rect><rect id="Rect&#xE1;ngulo_903" data-name="Rect&#xE1;ngulo 903" width="0.705" height="5.786" transform="translate(187.928 210.446)" fill="#ffa412"></rect><rect id="Rect&#xE1;ngulo_904" data-name="Rect&#xE1;ngulo 904" width="0.705" height="5.786" transform="translate(181.987 210.446)" fill="#ffa412"></rect><rect id="Rect&#xE1;ngulo_905" data-name="Rect&#xE1;ngulo 905" width="0.704" height="5.786" transform="translate(218.217 210.446)" fill="#ffa412"></rect><rect id="Rect&#xE1;ngulo_906" data-name="Rect&#xE1;ngulo 906" width="0.705" height="5.786" transform="translate(219.717 210.446)" fill="#ffa412"></rect><rect id="Rect&#xE1;ngulo_907" data-name="Rect&#xE1;ngulo 907" width="0.705" height="5.786" transform="translate(221.165 210.446)" fill="#ffa412"></rect><path id="Trazado_1123" data-name="Trazado 1123" d="M1308.616,1238.435v5.746a1.73,1.73,0,0,1-.265.02h-.44v-5.786h.44a1.745,1.745,0,0,1,.265.02" transform="translate(-1085.657 -1027.969)" fill="#ffa412"></path><path id="Trazado_1124" data-name="Trazado 1124" d="M1314.377,1239.386v4.674a1.494,1.494,0,0,1-.7.471v-5.616a1.491,1.491,0,0,1,.7.471" transform="translate(-1090.44 -1028.385)" fill="#ffa412"></path><path id="Trazado_1125" data-name="Trazado 1125" d="M954.032,1205.677v3.267a1.112,1.112,0,0,1-.257.7,1.493,1.493,0,0,1-.7.471,1.619,1.619,0,0,1-.274.065l-.087.011c-.023,0-.046,0-.07.006l-.035,0-.073,0h-61.98a1.416,1.416,0,0,1-1.5-1.195c0-.022,0-.043,0-.065v-3.267c0-.021,0-.043,0-.065a1.416,1.416,0,0,1,1.5-1.194h61.98l.08,0a1.755,1.755,0,0,1,.185.018,1.643,1.643,0,0,1,.274.065c.045.015.089.031.13.049s.052.022.077.035l.008,0,.075.04.012.007a.711.711,0,0,1,.067.041,1.225,1.225,0,0,1,.149.109c.015.012.029.024.042.037l.007.007a.28.28,0,0,1,.026.024l0,0c.015.015.03.03.044.046s.041.044.06.068a1.112,1.112,0,0,1,.257.7" transform="translate(-737.976 -999.75)" fill="#ffb93e"></path><path id="Trazado_1126" data-name="Trazado 1126" d="M923.6,1210.2H890.392a1.311,1.311,0,0,1-1.337-1.195c0-.021,0-.043,0-.065v-3.268c0-.021,0-.043,0-.065a1.311,1.311,0,0,1,1.337-1.195h29.127c.012.044.024.089.038.134a10.122,10.122,0,0,0,4.026,5.643l.013.009" transform="translate(-737.976 -999.75)" fill="#ffa412"></path><rect id="Rect&#xE1;ngulo_908" data-name="Rect&#xE1;ngulo 908" width="0.705" height="5.786" transform="translate(207.81 204.668)" fill="#ffa412"></rect><rect id="Rect&#xE1;ngulo_909" data-name="Rect&#xE1;ngulo 909" width="0.705" height="5.786" transform="translate(205.426 204.668)" fill="#ffa412"></rect><rect id="Rect&#xE1;ngulo_910" data-name="Rect&#xE1;ngulo 910" width="0.705" height="5.786" transform="translate(202.566 204.668)" fill="#ffa412"></rect><rect id="Rect&#xE1;ngulo_911" data-name="Rect&#xE1;ngulo 911" width="0.705" height="5.786" transform="translate(198.183 204.668)" fill="#ffa412"></rect><rect id="Rect&#xE1;ngulo_912" data-name="Rect&#xE1;ngulo 912" width="0.705" height="5.786" transform="translate(193.548 204.668)" fill="#ffa412"></rect><rect id="Rect&#xE1;ngulo_913" data-name="Rect&#xE1;ngulo 913" width="0.704" height="5.786" transform="translate(186.443 204.668)" fill="#ffa412"></rect><rect id="Rect&#xE1;ngulo_914" data-name="Rect&#xE1;ngulo 914" width="0.704" height="5.786" transform="translate(179.79 204.668)" fill="#ffa412"></rect><rect id="Rect&#xE1;ngulo_915" data-name="Rect&#xE1;ngulo 915" width="0.704" height="5.786" transform="translate(173.85 204.668)" fill="#ffa412"></rect><rect id="Rect&#xE1;ngulo_916" data-name="Rect&#xE1;ngulo 916" width="0.705" height="5.786" transform="translate(210.08 204.668)" fill="#ffa412"></rect><rect id="Rect&#xE1;ngulo_917" data-name="Rect&#xE1;ngulo 917" width="0.705" height="5.786" transform="translate(211.579 204.668)" fill="#ffa412"></rect><rect id="Rect&#xE1;ngulo_918" data-name="Rect&#xE1;ngulo 918" width="0.704" height="5.786" transform="translate(213.028 204.668)" fill="#ffa412"></rect><path id="Trazado_1127" data-name="Trazado 1127" d="M1260.73,1204.438v5.746a1.726,1.726,0,0,1-.264.02h-.44v-5.786h.44a1.742,1.742,0,0,1,.264.02" transform="translate(-1045.908 -999.75)" fill="#ffa412"></path><path id="Trazado_1128" data-name="Trazado 1128" d="M1266.49,1205.389v4.674a1.494,1.494,0,0,1-.7.471v-5.616a1.492,1.492,0,0,1,.7.471" transform="translate(-1050.69 -1000.165)" fill="#ffa412"></path><path id="Trazado_1129" data-name="Trazado 1129" d="M980.847,1172.413v3.268a1.113,1.113,0,0,1-.257.7,1.494,1.494,0,0,1-.7.471,1.655,1.655,0,0,1-.274.065,1.73,1.73,0,0,1-.265.02h-61.98a1.715,1.715,0,0,1-.67-.134,1.289,1.289,0,0,1-.824-1.009c0-.017,0-.034,0-.052s0-.043,0-.065v-3.268c0-.022,0-.043,0-.065a1.382,1.382,0,0,1,1.321-1.185,1.6,1.6,0,0,1,.177-.009h61.98a1.746,1.746,0,0,1,.265.02,1.631,1.631,0,0,1,.274.065,1.492,1.492,0,0,1,.7.471,1.113,1.113,0,0,1,.257.7" transform="translate(-760.234 -972.138)" fill="#ffb93e"></path><path id="Trazado_1130" data-name="Trazado 1130" d="M950.413,1176.94h-33.2a1.386,1.386,0,0,1-.6-.134,1.267,1.267,0,0,1-.735-1.009c0-.017,0-.034,0-.052s0-.043,0-.065v-3.268c0-.022,0-.043,0-.065a1.344,1.344,0,0,1,1.337-1.194h29.127l0,.009a10.152,10.152,0,0,0,3.885,5.643c.062.045.126.09.191.134" transform="translate(-760.235 -972.138)" fill="#ffa412"></path><rect id="Rect&#xE1;ngulo_919" data-name="Rect&#xE1;ngulo 919" width="0.705" height="5.786" transform="translate(212.367 199.016)" fill="#ffa412"></rect><rect id="Rect&#xE1;ngulo_920" data-name="Rect&#xE1;ngulo 920" width="0.705" height="5.786" transform="translate(209.982 199.016)" fill="#ffa412"></rect><rect id="Rect&#xE1;ngulo_921" data-name="Rect&#xE1;ngulo 921" width="0.705" height="5.786" transform="translate(207.123 199.016)" fill="#ffa412"></rect><rect id="Rect&#xE1;ngulo_922" data-name="Rect&#xE1;ngulo 922" width="0.705" height="5.786" transform="translate(202.74 199.016)" fill="#ffa412"></rect><rect id="Rect&#xE1;ngulo_923" data-name="Rect&#xE1;ngulo 923" width="0.705" height="5.786" transform="translate(198.105 199.016)" fill="#ffa412"></rect><rect id="Rect&#xE1;ngulo_924" data-name="Rect&#xE1;ngulo 924" width="0.705" height="5.786" transform="translate(191 199.016)" fill="#ffa412"></rect><rect id="Rect&#xE1;ngulo_925" data-name="Rect&#xE1;ngulo 925" width="0.705" height="5.786" transform="translate(184.347 199.016)" fill="#ffa412"></rect><rect id="Rect&#xE1;ngulo_926" data-name="Rect&#xE1;ngulo 926" width="0.705" height="5.786" transform="translate(178.407 199.016)" fill="#ffa412"></rect><rect id="Rect&#xE1;ngulo_927" data-name="Rect&#xE1;ngulo 927" width="0.704" height="5.786" transform="translate(214.637 199.016)" fill="#ffa412"></rect><rect id="Rect&#xE1;ngulo_928" data-name="Rect&#xE1;ngulo 928" width="0.705" height="5.786" transform="translate(216.136 199.016)" fill="#ffa412"></rect><rect id="Rect&#xE1;ngulo_929" data-name="Rect&#xE1;ngulo 929" width="0.705" height="5.786" transform="translate(217.584 199.016)" fill="#ffa412"></rect><path id="Trazado_1131" data-name="Trazado 1131" d="M1287.545,1171.173v5.746a1.741,1.741,0,0,1-.264.02h-.44v-5.786h.44a1.741,1.741,0,0,1,.264.02" transform="translate(-1068.167 -972.137)" fill="#ffa412"></path><path id="Trazado_1132" data-name="Trazado 1132" d="M1293.306,1172.125v4.674a1.5,1.5,0,0,1-.7.471v-5.616a1.491,1.491,0,0,1,.7.471" transform="translate(-1072.949 -972.553)" fill="#ffa412"></path><path id="Trazado_1133" data-name="Trazado 1133" d="M992.263,1138.416v3.268a1.112,1.112,0,0,1-.257.7,1.493,1.493,0,0,1-.7.471,1.624,1.624,0,0,1-.275.065l-.087.011-.049,0-.049,0-.08,0h-61.98a1.416,1.416,0,0,1-1.5-1.195c0-.022,0-.043,0-.065v-3.268c0-.022,0-.043,0-.065a1.416,1.416,0,0,1,1.5-1.194h61.98a1.757,1.757,0,0,1,.264.02,1.624,1.624,0,0,1,.275.065,1.494,1.494,0,0,1,.7.471,1.113,1.113,0,0,1,.257.7" transform="translate(-769.71 -943.918)" fill="#ffb93e"></path><path id="Trazado_1134" data-name="Trazado 1134" d="M961.828,1142.943H928.623a1.311,1.311,0,0,1-1.337-1.195c0-.021,0-.043,0-.065v-3.268c0-.022,0-.043,0-.064a1.311,1.311,0,0,1,1.337-1.195H957.75a10.142,10.142,0,0,0,4.064,5.777l.013.009" transform="translate(-769.71 -943.918)" fill="#ffa412"></path><rect id="Rect&#xE1;ngulo_930" data-name="Rect&#xE1;ngulo 930" width="0.704" height="5.786" transform="translate(214.307 193.239)" fill="#ffa412"></rect><rect id="Rect&#xE1;ngulo_931" data-name="Rect&#xE1;ngulo 931" width="0.704" height="5.786" transform="translate(211.922 193.239)" fill="#ffa412"></rect><rect id="Rect&#xE1;ngulo_932" data-name="Rect&#xE1;ngulo 932" width="0.704" height="5.786" transform="translate(209.063 193.239)" fill="#ffa412"></rect><rect id="Rect&#xE1;ngulo_933" data-name="Rect&#xE1;ngulo 933" width="0.704" height="5.786" transform="translate(204.68 193.239)" fill="#ffa412"></rect><rect id="Rect&#xE1;ngulo_934" data-name="Rect&#xE1;ngulo 934" width="0.704" height="5.786" transform="translate(200.045 193.239)" fill="#ffa412"></rect><rect id="Rect&#xE1;ngulo_935" data-name="Rect&#xE1;ngulo 935" width="0.704" height="5.786" transform="translate(192.94 193.239)" fill="#ffa412"></rect><rect id="Rect&#xE1;ngulo_936" data-name="Rect&#xE1;ngulo 936" width="0.704" height="5.786" transform="translate(186.287 193.239)" fill="#ffa412"></rect><rect id="Rect&#xE1;ngulo_937" data-name="Rect&#xE1;ngulo 937" width="0.705" height="5.786" transform="translate(180.347 193.239)" fill="#ffa412"></rect><rect id="Rect&#xE1;ngulo_938" data-name="Rect&#xE1;ngulo 938" width="0.705" height="5.786" transform="translate(216.577 193.239)" fill="#ffa412"></rect><rect id="Rect&#xE1;ngulo_939" data-name="Rect&#xE1;ngulo 939" width="0.704" height="5.786" transform="translate(218.076 193.239)" fill="#ffa412"></rect><rect id="Rect&#xE1;ngulo_940" data-name="Rect&#xE1;ngulo 940" width="0.705" height="5.786" transform="translate(219.524 193.239)" fill="#ffa412"></rect><path id="Trazado_1135" data-name="Trazado 1135" d="M1298.961,1137.176v5.746a1.76,1.76,0,0,1-.265.02h-.44v-5.786h.44a1.744,1.744,0,0,1,.265.02" transform="translate(-1077.643 -943.918)" fill="#ffa412"></path><path id="Trazado_1136" data-name="Trazado 1136" d="M1304.721,1138.128v4.674a1.494,1.494,0,0,1-.7.471v-5.616a1.493,1.493,0,0,1,.7.471" transform="translate(-1082.425 -944.333)" fill="#ffa412"></path><path id="Trazado_1137" data-name="Trazado 1137" d="M732.789,1191.7a29.457,29.457,0,1,1,29.457,29.457,29.457,29.457,0,0,1-29.457-29.457" transform="translate(-608.266 -964.738)" fill="#e2810e"></path><path id="Trazado_1138" data-name="Trazado 1138" d="M717.667,1191.7a29.457,29.457,0,1,1,29.457,29.457,29.457,29.457,0,0,1-29.457-29.457" transform="translate(-595.713 -964.738)" fill="#ffb93e"></path><path id="Trazado_1139" data-name="Trazado 1139" d="M759.913,1233.373a26.838,26.838,0,1,1,18.977-7.861,26.663,26.663,0,0,1-18.977,7.861m0-52.075a25.237,25.237,0,1,0,25.237,25.237,25.266,25.266,0,0,0-25.237-25.237" transform="translate(-608.503 -979.229)" fill="#ffa412"></path><path id="Trazado_1140" data-name="Trazado 1140" d="M837.29,1248.6a4.428,4.428,0,0,0-.064-1.558,3.233,3.233,0,0,0-.659-1.294,6.11,6.11,0,0,0-1.318-1.163,16.182,16.182,0,0,0-2.042-1.143,42.28,42.28,0,0,1-3.771-2.072,13.36,13.36,0,0,1-2.819-2.295,7.856,7.856,0,0,1-1.665-2.8,8.867,8.867,0,0,1,.717-6.707,7.455,7.455,0,0,1,2.08-2.31,9.308,9.308,0,0,1,2.978-1.418,12.411,12.411,0,0,1,3.718-.429l.525-4.424,3.561.423L838,1225.9a11.136,11.136,0,0,1,3.351,1.425,8.417,8.417,0,0,1,3.751,5.382,11.205,11.205,0,0,1,.147,3.8l-6.431-.763a5.457,5.457,0,0,0-.661-3.841,3.792,3.792,0,0,0-2.8-1.58,4.82,4.82,0,0,0-1.758.075,3.259,3.259,0,0,0-1.281.623,3.04,3.04,0,0,0-.826,1.065,4.484,4.484,0,0,0-.392,1.4,4.106,4.106,0,0,0,.058,1.411,3.032,3.032,0,0,0,.632,1.239,6.127,6.127,0,0,0,1.329,1.163,20.685,20.685,0,0,0,2.122,1.227q2.062,1.062,3.732,2.12a13.523,13.523,0,0,1,2.806,2.314,7.589,7.589,0,0,1,1.953,6.364,8.11,8.11,0,0,1-1.022,3.19,7.37,7.37,0,0,1-2.088,2.289,8.99,8.99,0,0,1-2.994,1.364,13.412,13.412,0,0,1-3.736.4l-.488,4.114-3.538-.42.486-4.093a15.049,15.049,0,0,1-3.476-1.23,9.533,9.533,0,0,1-2.848-2.151,8.528,8.528,0,0,1-1.787-3.2,10.379,10.379,0,0,1-.3-4.353l6.431.763a6.4,6.4,0,0,0,.121,2.5,4.135,4.135,0,0,0,.915,1.7,4.014,4.014,0,0,0,1.471,1.013,6.865,6.865,0,0,0,1.763.45,5.741,5.741,0,0,0,1.867-.051,3.833,3.833,0,0,0,1.412-.587,3.045,3.045,0,0,0,.935-1.032,3.715,3.715,0,0,0,.435-1.384" transform="translate(-682.185 -1013.51)" fill="#ffa412"></path><path id="Trazado_1141" data-name="Trazado 1141" d="M699,736.3c.088-.354-7.7,3.518-8.09,3.956-3.651,4.049-2.61,9.333-.521,9.384,1.34.032,1.08,2.26,1.08,2.26l14.924-6.313s-1.8-10.478-7.393-9.286" transform="translate(-571.493 -611.104)" fill="#2c3a64"></path><path id="Trazado_1142" data-name="Trazado 1142" d="M659.44,713.176s.533-5.814-5.963-5.814a7.628,7.628,0,0,1,2.987,1.6s-4.143-2.432-8.652,1.305-1.707,13.111-3.078,14.891-6.71,2.136-6.058,7.89,16.945,12.962,15.9,17.723c0,0,6.385-9.386,1.819-13.669a8.461,8.461,0,0,1,2.452,4.588s.6-4.865-2.492-6.421c-2.739-1.377-4.983-6.413-4.746-7.313s7.831-14.782,7.831-14.782" transform="translate(-530.1 -587.159)" fill="#2c3a64"></path><path id="Trazado_1143" data-name="Trazado 1143" d="M671.321,879.9a5.768,5.768,0,0,0-10.215-2.38,5.222,5.222,0,0,0-1.029,2.534c-.676,5.475,8.079,27.777,9.332,29.8,2.283,3.676,15.722,16.278,15.722,16.278l2.477-1.5s-9.533-16.139-11.009-17.649c-1.707-1.747-3.377-17.919-5.279-27.077" transform="translate(-547.879 -726.53)" fill="#ed985f"></path><path id="Trazado_1144" data-name="Trazado 1144" d="M802.157,1154.9s3.615-2.374,4.984-2.22,5.329,1.292,5.378,1.875-4.413.946-4.713,1.264-3.329,2.341-4.427,1.707-1.221-2.625-1.221-2.625" transform="translate(-665.846 -956.796)" fill="#ed985f"></path><path id="Trazado_1145" data-name="Trazado 1145" d="M474.082,1083.227l-3.23-.475a38.179,38.179,0,0,1-12.476-24.731,28.77,28.77,0,0,1-.077-4.979.87.87,0,0,0-.113-.549s0,0,0-.005c-.347-.533-1.213-1.867-2.384-3.766-1.155-1.87-3.13-5.406-5.3-9.373-3.916-7.145-8.474-15.69-10.038-18.412-4.982-8.675-2.581-14.508-2.581-14.508s13.9-1.374,17.708-4.706l1.372,2.114s3.011,13.332,2.869,13.393q.223.68.452,1.385a231.825,231.825,0,0,1,6.6,23.97,39.636,39.636,0,0,1,1.043,10.356,18.158,18.158,0,0,0,.246,3.793c1.346,9.568,5.916,26.492,5.916,26.492" transform="translate(-362.987 -831.499)" fill="#2b478b"></path><path id="Trazado_1146" data-name="Trazado 1146" d="M627.449,1468.777H613.975a7.4,7.4,0,0,1,.381-3.611c.674-1.5,1.635-1.543.123-3.886.856.881,3.608,1.246,5.556.984.239.387,1.539,2.983,2.336,3.556.881.633,4.807.407,5.078,2.957" transform="translate(-509.58 -1212.963)" fill="#233862"></path><path id="Trazado_1147" data-name="Trazado 1147" d="M460.276,1018.616c-1.177,6.492-3.957,17.295-9.782,20.733-3.915-7.145-8.474-15.69-10.038-18.412-4.982-8.675-2.581-14.508-2.581-14.508s13.9-1.374,17.708-4.706l1.372,2.114s3.011,13.332,2.869,13.393q.222.68.452,1.385" transform="translate(-362.987 -831.5)" fill="#233862"></path><path id="Trazado_1148" data-name="Trazado 1148" d="M681.96,884.926a14.428,14.428,0,0,1,2.775,4.354s-3.039,8.727-10.142,9.822c0,0,5.619-14.179,7.366-14.176" transform="translate(-559.96 -734.549)" fill="#ed7d2b"></path><path id="Trazado_1149" data-name="Trazado 1149" d="M351.708,993.7l.046-2.52c-5.021.633-17.312-6-17.312-6s-5.253,3.494-5.972,13.471c-.351,4.87-2.571,25.465-2.817,31.615-.09,2.229-.119,3.819-.129,4.455a.012.012,0,0,1,0,.006.875.875,0,0,1-.214.518,28.789,28.789,0,0,0-2.721,4.17c-7.661,14.255-3.655,33.624-3.655,33.624l1.779-.452s6.478-20.079,10.712-28.765a18.179,18.179,0,0,1,1.917-3.282,39.615,39.615,0,0,0,4.925-9.169,239.675,239.675,0,0,0,8.33-24.963c.153.028,5.109-12.709,5.109-12.709" transform="translate(-263.869 -817.764)" fill="#2b478b"></path><path id="Trazado_1150" data-name="Trazado 1150" d="M667.47,841.85c-8.208-1.884-2.964-13.418-2.488-13.215,1.137-.232,3.635-2.229,5.869-6.129l.3.262,5.041,4.42s-1.165,1.719-2.146,3.4c-.766,1.318-1.417,2.617-1.314,3.063.406.319-3.075,8.7-5.265,8.2" transform="translate(-550.249 -682.736)" fill="#ffb27d"></path><path id="Trazado_1151" data-name="Trazado 1151" d="M716.074,828.473s-1.166,1.717-2.146,3.4c-3.134-1.932-3.138-5.813-2.9-7.823Z" transform="translate(-590.129 -684.02)" fill="#ed985f"></path><path id="Trazado_1152" data-name="Trazado 1152" d="M715.193,786.67s-7.611-4.235-4.9-8.934,3.553-8.41,8.527-5.9,4.875,4.838,4.352,6.626-5.929,9.193-7.979,8.212" transform="translate(-589.108 -640.004)" fill="#ffb27d"></path><path id="Trazado_1153" data-name="Trazado 1153" d="M720.549,772.609c-.349-2.086-1.408-2.285-2.147-2.146a6.087,6.087,0,0,0-7.4-2.834,10.363,10.363,0,0,1-6,3.6s.883,1.643,4.522,2.66a6.219,6.219,0,0,0,3.589-.287,20.3,20.3,0,0,1-5.164,1.947c4.8.439,9.358-3.945,9.831-4.414a6.825,6.825,0,0,1,.377,3.141c-.316,1.413-1.57,3.972-.8,4.3,0,0,3.72-2.845,3.2-5.974" transform="translate(-585.2 -636.895)" fill="#2c3a64"></path><path id="Trazado_1154" data-name="Trazado 1154" d="M320.924,1468.3H307.45a7.4,7.4,0,0,1,.381-3.611c.674-1.495,1.731-2.175,1.478-3.983a4.852,4.852,0,0,0,4.2,1.607,14.78,14.78,0,0,0,2.338,3.031c.881.633,4.807.407,5.078,2.957" transform="translate(-255.143 -1212.488)" fill="#233862"></path><path id="Trazado_1155" data-name="Trazado 1155" d="M462.916,870.055a32.769,32.769,0,0,1-6.656,1.207c-3.543.387-7.2.651-9.117,1.416a2.057,2.057,0,0,0-1.312,1.063c-.831,2.5-4.491,6.352-4.491,6.352C417.877,879.023,415.3,869.21,415.3,869.21c15.785-18.355,42.513-23.669,42.513-23.669s1.909-.809,6.717,3.011c3.208,2.551,2.786,3.53,2.786,3.53s.7,16.193-4.4,17.972" transform="translate(-344.729 -701.798)" fill="#f99746"></path><path id="Trazado_1156" data-name="Trazado 1156" d="M611.424,904.01c-3.543.387-7.2.651-9.117,1.416a37.362,37.362,0,0,1,4.739-20.5s3.6,14.659,4.378,19.088" transform="translate(-499.894 -734.547)" fill="#ed7d2b"></path><path id="Trazado_1157" data-name="Trazado 1157" d="M630.746,871.6s-8.88.877-9.592,6.647,8.513,29.27,9.834,31.4c2.405,3.874,16.568,17.153,16.568,17.153l2.61-1.582s-10.046-17.007-11.6-18.6c-2.442-2.5-4.813-33.02-7.82-35.019" transform="translate(-515.569 -723.489)" fill="#ffb27d"></path><path id="Trazado_1158" data-name="Trazado 1158" d="M613.756,874.964c.023.131,8.195,2.669,13.454,0,0,0,1.125-12.134-5.153-11.475s-10,2.636-10.154,5.642a10.622,10.622,0,0,0,1.854,5.833" transform="translate(-507.914 -716.733)" fill="#f99746"></path><path id="Trazado_1159" data-name="Trazado 1159" d="M771.968,1171.846s3.185-2.925,4.561-2.995,5.468.417,5.61.984-4.2,1.645-4.448,2.007-2.908,2.847-4.095,2.4-1.628-2.394-1.628-2.394" transform="translate(-640.787 -970.221)" fill="#ffb27d"></path></g></g></g></svg>