<svg xmlns="http://www.w3.org/2000/svg" xmlns:xlink="http://www.w3.org/1999/xlink" id="Grupo_1351" data-name="Grupo 1351" width="518.902" height="278" viewBox="0 0 518.902 278"><defs><clipPath id="clip-path"><rect id="Rect&#xE1;ngulo_3996" data-name="Rect&#xE1;ngulo 3996" width="518.902" height="278" fill="none"></rect></clipPath><clipPath id="clip-path-3"><rect id="Rect&#xE1;ngulo_3989" data-name="Rect&#xE1;ngulo 3989" width="513.406" height="277.613" fill="none"></rect></clipPath><clipPath id="clip-path-4"><rect id="Rect&#xE1;ngulo_3992" data-name="Rect&#xE1;ngulo 3992" width="50.157" height="84.103" fill="none"></rect></clipPath></defs><g id="Grupo_1350" data-name="Grupo 1350" clip-path="url(#clip-path)"><g id="Grupo_1349" data-name="Grupo 1349" transform="translate(0 0)"><g id="Grupo_1348" data-name="Grupo 1348" clip-path="url(#clip-path)"><g id="Grupo_1344" data-name="Grupo 1344" transform="translate(0 0)" opacity="0.5"><g id="Grupo_1343" data-name="Grupo 1343"><g id="Grupo_1342" data-name="Grupo 1342" clip-path="url(#clip-path-3)"><path id="Trazado_6236" data-name="Trazado 6236" d="M503.447,275.845v0l-.12.214c-.285.511-.581,1.03-.883,1.552l-461.873-.14s-.449-.5-1.254-1.462c-.046-.054-.092-.11-.14-.168A173.515,173.515,0,0,1,28.1,260.8s0,0,0-.008C15.2,241.289-2.673,206.743.335,168.4a105.062,105.062,0,0,1,8.116-33.124c14.427-33.9,57.471-56.744,96.247-57.2,15.008-.18,29.38,3,41.2,10.187a25.567,25.567,0,0,0,7.8,2.928,48.3,48.3,0,0,0,8.612,1.021C187.5,93.1,228.454,78.9,252.747,43.2c12.9-18.961,32.7-31.373,55.464-37.837q1.591-.449,3.2-.863a140.008,140.008,0,0,1,15.9-3.1q1.462-.2,2.934-.368A170.987,170.987,0,0,1,403.591,9.1q4.661,1.573,9.2,3.413c44.4,17.982,78.95,54.7,75.913,105.971q-.18,3.041-.539,6.151a119.261,119.261,0,0,1-2.037,12.089q-.8,3.633-1.847,7.349c-18.3,64.994,54.863,67.928,19.162,131.772" transform="translate(0 0.001)" fill="#dceaff"></path></g></g></g><path id="Trazado_6237" data-name="Trazado 6237" d="M1175.311,730.35v0L815.8,730.39l3.1-107.443V593.754h13.447v-22.8h26.825v19.352h8.192v-35.79h1.781v-2.5h.32v2.5h6.471v-2.5h.321v2.5h9.159v-2.5h.322v2.5H891.5v-2.5h.318v2.5h2.368v33.41h9.055v-5.4l10.679.048v-8.757h2.147v-1.731h.286v1.731H924.6v0h1.65v-1.735h.284v1.735h1.989v17.411h12.712v6.409H948.3v-3.721h6.554V579.143h3.269v-6.892h.493v6.892h7.833V566.225h.769v12.917h5.183v-.18H972.4v-1.64h.008v-1.552H972.4v-2.582h.008v-1.648H972.4v-2.582h.008v-1.648H972.4v-2.582h.008v-1.781H972.4v-2.58h.008V558.1H972.4v-2.58h.008v-1.712h1.544v-1.931h.248v1.931h11.44v-1.931h.246v1.931h2.089v13.5l1.468.008v-.008h-.012v-2.582h.012v-1.781h-.012v-2.58h.012v-1.776h-.012V556.01h.012V556h13.872v.008h2.385l.371.206v17.221h2.552v-2.482h29.28v19.352h8.941v-35.79h1.943v-2.5h.351v2.5h7.06v-2.5h.349v2.5h10v-2.5h.349v2.5h6.293v-2.5h.347v2.5h2.586v33.41H1086v-5.4l11.653.048v-8.755H1100v-1.733h.312v1.733h9v0h1.8v-1.735h.31v1.735h2.171v17.413h13.874v6.407h7.715v-3.721h7.154V579.141h3.567v-6.89h.539v6.89h8.55V566.225h.839v12.915h4.2A119.244,119.244,0,0,1,1158,591.229q-.8,3.633-1.847,7.349c-18.3,64.994,54.863,67.928,19.162,131.772" transform="translate(-671.864 -454.504)" fill="#dfebfa"></path><path id="Trazado_6238" data-name="Trazado 6238" d="M2296.647,55V318.328h-9.205V51.585q4.664,1.573,9.205,3.413" transform="translate(-1883.852 -42.483)" fill="#afcdfb"></path><path id="Trazado_6239" data-name="Trazado 6239" d="M153.7,455.614V640.437H39.317c-.046-.054-.092-.11-.14-.168A173.519,173.519,0,0,1,28.1,625.231s0,0,0-.008c-12.9-19.508-30.77-54.054-27.762-92.4A105.054,105.054,0,0,1,8.451,499.7c14.427-33.9,57.471-56.744,96.247-57.2,14.869.164,29.04,3.373,40.809,10.187a27.708,27.708,0,0,0,8.194,2.928" transform="translate(0 -364.425)" fill="#cee1fd"></path><path id="Trazado_6240" data-name="Trazado 6240" d="M1858.081,5.875V38.3c0,2.528-.617,4.591-1.37,4.591h-.2c-.753,0-1.368-2.063-1.368-4.591V6.243q1.462-.2,2.934-.368" transform="translate(-1527.83 -4.838)" fill="#9fc1f4"></path><path id="Trazado_6241" data-name="Trazado 6241" d="M1768.8,171.479c-10.688,0-19.352,9.161-19.352,20.462h38.7c0-11.3-8.664-20.462-19.352-20.462" transform="translate(-1440.78 -141.224)" fill="#ff9843"></path><path id="Trazado_6242" data-name="Trazado 6242" d="M1801.08,172.029a7.961,7.961,0,0,0-1.7-.185c-6.964,0-12.608,9.133-12.608,20.4h3.4c0-10.333,4.749-18.87,10.909-20.213" transform="translate(-1471.519 -141.524)" fill="#ffc48a"></path><path id="Trazado_6243" data-name="Trazado 6243" d="M2570.321,1334.2s-5.15-6.008-.318-9.825c0,0,3.53-2.137,6.408-1.963,0,0-4.079,6.839-2.759,7.519s3.995-7.948,3.995-7.948,8.033-.779,10.617.464c0,0-6.867,5.619-5.421,5.954s8.864-5.181,8.864-5.181,7.476,1.272,7.077,5.833-2.975,5.969-4.107,5.848-7.755-2.65-7.9-1.722,3.843,3.959,6.634,4.1c0,0-5.271,5.813-8.774,4.135s-3.8-4.337-5.985-5.334-4.048-.995-3.146.022,4.854,2.006,6.1,4.215,2.369,3.7-1.255,3.153-9.516-3.2-9.774-6.234Z" transform="translate(-2114.855 -1088.539)" fill="#77a4e5"></path><path id="Trazado_6244" data-name="Trazado 6244" d="M2585.154,1363.71s-20.306-.783-24.79,5.025a14.686,14.686,0,0,1-4.043,5.675l-.476,1.3s3.519-3.71,4.778-3.935c0,0-1.969-7.194,24.531-8.061" transform="translate(-2104.898 -1123.072)" fill="#77a4e5"></path><path id="Trazado_6245" data-name="Trazado 6245" d="M2536.783,1422.131a12.751,12.751,0,0,0-4.661,8.983l.791.071s1.392-5.955,3.908-8.284-.038-.77-.038-.77" transform="translate(-2085.361 -1170.793)" fill="#77a4e5"></path><path id="Trazado_6246" data-name="Trazado 6246" d="M2339.14,1250.5s8.192-4.588,4.369-10.814c0,0-3.059-3.823-6.336-4.806,0,0,1.748,9.285,0,9.5s-1.2-10.486-1.2-10.486-8.629-4.151-12.016-3.823c0,0,5.353,9.066,3.6,8.848s-7.756-9.394-7.756-9.394-8.848-1.638-10.268,3.6.874,7.865,2.184,8.192,9.722.218,9.5,1.311-5.9,2.84-9.066,1.857c0,0,3.5,8.629,8.083,8.192s6.008-3.277,8.848-3.5,4.915.546,3.5,1.311-6.226.251-8.52,2.2-4.151,3.151.109,4.025,11.906.328,13.435-2.949Z" transform="translate(-1901.681 -1012.396)" fill="#77a4e5"></path><path id="Trazado_6247" data-name="Trazado 6247" d="M2334.537,1260.379s22.938,7.428,25.56,15.729a17.425,17.425,0,0,0,2.184,7.974v1.638s-2.4-5.571-3.714-6.335c0,0,5.134-7.209-24.031-19.006" transform="translate(-1922.638 -1038.001)" fill="#77a4e5"></path><path id="Trazado_6248" data-name="Trazado 6248" d="M2486.669,1389.962a15.129,15.129,0,0,1,1.521,11.911l-.91-.245s.884-7.2-.967-10.825.356-.842.356-.842" transform="translate(-2047.026 -1143.881)" fill="#77a4e5"></path><path id="Trazado_6249" data-name="Trazado 6249" d="M2520.134,1183.136s-10.8-6.047-5.76-14.255c0,0,4.032-5.039,8.351-6.335,0,0-2.3,12.239,0,12.527s1.584-13.823,1.584-13.823,11.375-5.472,15.839-5.039c0,0-7.055,11.951-4.751,11.663s10.223-12.383,10.223-12.383,11.663-2.16,13.534,4.751-1.152,10.367-2.88,10.8-12.815.288-12.527,1.728,7.775,3.744,11.951,2.448c0,0-4.608,11.375-10.655,10.8s-7.919-4.32-11.663-4.608-6.48.72-4.608,1.728,8.207.33,11.231,2.9,5.471,4.154-.144,5.307-15.694.432-17.71-3.888Z" transform="translate(-2069.641 -951.355)" fill="#9fc1f4"></path><path id="Trazado_6250" data-name="Trazado 6250" d="M2573.523,1196.152s-30.237,9.791-33.693,20.734a22.97,22.97,0,0,1-2.88,10.511v2.16s3.168-7.343,4.9-8.351c0,0-6.767-9.5,31.677-25.054" transform="translate(-2089.338 -985.106)" fill="#9fc1f4"></path><path id="Trazado_6251" data-name="Trazado 6251" d="M2523.771,1366.967a19.943,19.943,0,0,0-2,15.7l1.2-.322s-1.165-9.494,1.275-14.269-.47-1.11-.47-1.11" transform="translate(-2076.158 -1124.676)" fill="#9fc1f4"></path><path id="Trazado_6252" data-name="Trazado 6252" d="M2452.472,1469.433a21.153,21.153,0,0,0,21.154-21.154h-42.307a21.154,21.154,0,0,0,21.154,21.154" transform="translate(-2002.343 -1192.748)" fill="#9fc1f4"></path><path id="Trazado_6253" data-name="Trazado 6253" d="M2469.711,1469.27a21.168,21.168,0,0,1-23.781-20.992h5.255a21.157,21.157,0,0,0,18.525,20.992" transform="translate(-2014.377 -1192.747)" fill="#afcdfb"></path><rect id="Rect&#xE1;ngulo_3990" data-name="Rect&#xE1;ngulo 3990" width="43.484" height="0.649" transform="translate(428.28 255.531)" fill="#9fc1f4"></rect><path id="Trazado_6254" data-name="Trazado 6254" d="M1896.037,1143.721l-20.787-86.274,1.452-3.4,20.593,89.661a.367.367,0,0,1-.358.449h-.344a.573.573,0,0,1-.557-.439" transform="translate(-1544.386 -868.076)" fill="#77a4e5"></path><path id="Trazado_6255" data-name="Trazado 6255" d="M1458.14,1387.8h0a.692.692,0,0,1-.683-.8l6.122-37.109h2.623l-7.3,37.286a.776.776,0,0,1-.762.627" transform="translate(-1200.3 -1111.715)" fill="#77a4e5"></path><path id="Trazado_6256" data-name="Trazado 6256" d="M1791,1387.8h0a.692.692,0,0,1-.683-.8l6.122-37.109h2.623l-7.3,37.286a.776.776,0,0,1-.762.627" transform="translate(-1474.432 -1111.715)" fill="#77a4e5"></path><path id="Trazado_6257" data-name="Trazado 6257" d="M1533.653,907.043h-73.117l15.148-94.968H1548.8Z" transform="translate(-1202.843 -668.795)" fill="#f5fbff"></path><rect id="Rect&#xE1;ngulo_3991" data-name="Rect&#xE1;ngulo 3991" width="83.973" height="2.794" transform="translate(252.307 237.524)" fill="#77a4e5"></rect><path id="Trazado_6258" data-name="Trazado 6258" d="M1582.6,858.592a15.272,15.272,0,0,1-.327,2.21c-1.524,6.787-7.568,11.987-14.4,12-7.556.013-13.214-6.327-12.637-14.162s7.169-14.2,14.726-14.209a12.687,12.687,0,0,1,4.461.786,12.23,12.23,0,0,1,5.011,3.473,12.756,12.756,0,0,1,1.37,1.91,12.6,12.6,0,0,1,.635,1.227,13.471,13.471,0,0,1,1.075,3.8,14.416,14.416,0,0,1,.121,2.076q-.006.442-.039.893" transform="translate(-1280.807 -695.441)" fill="#bdd1f9"></path><path id="Trazado_6259" data-name="Trazado 6259" d="M1645.5,859.355l-12.522,6.79s5.167-9.1,7.288-12.573a12.342,12.342,0,0,1,3.23,2.646,12.747,12.747,0,0,1,1.37,1.91,12.561,12.561,0,0,1,.635,1.227" transform="translate(-1344.856 -702.97)" fill="#fff"></path><path id="Trazado_6260" data-name="Trazado 6260" d="M1657.929,851.958l-11.438,6.2s4.719-8.311,6.657-11.484a11.262,11.262,0,0,1,2.95,2.417,11.6,11.6,0,0,1,1.251,1.744,11.469,11.469,0,0,1,.58,1.121" transform="translate(-1355.988 -697.291)" fill="#f99746"></path><path id="Trazado_6261" data-name="Trazado 6261" d="M1561.034,1147.313l-60.181,0,6.093-34.723,60.181,0Zm-59.695-.354,59.331,0,5.97-34.024-59.332,0Z" transform="translate(-1236.047 -916.284)" fill="#bdd1f9"></path><path id="Trazado_6262" data-name="Trazado 6262" d="M1572.469,1239.429l-53.374,0s9.468-5.077,12.065-4.811,6.33,2.322,8.73,2.4,5-7.126,7.672-6.787,3.677,6.714,5.061,6.091a14,14,0,0,1,7.93,0c2.392.893,5.879-2.837,7.982-2.72s3.934,5.828,3.934,5.828" transform="translate(-1251.07 -1013.161)" fill="#f99746"></path><path id="Trazado_6263" data-name="Trazado 6263" d="M1544.252,1222.057h-10.194l.095-.541h10.194Z" transform="translate(-1263.393 -1005.995)" fill="#f99746"></path><path id="Trazado_6264" data-name="Trazado 6264" d="M1543.1,1228.6H1532.91l.095-.541H1543.2Z" transform="translate(-1262.447 -1011.385)" fill="#f99746"></path><path id="Trazado_6265" data-name="Trazado 6265" d="M1536.405,1140.775l53.374,0s-7.686-5.079-10.377-4.813-7.144,2.321-9.573,2.4-2.5-7.127-5.29-6.788-6.033,6.713-7.2,6.09-5.224-.893-7.93,0-4.883-2.838-7.028-2.721-5.979,5.828-5.979,5.828" transform="translate(-1265.326 -931.916)" fill="#bdd1f9"></path><path id="Trazado_6266" data-name="Trazado 6266" d="M1560.574,1129.034H1550.38l.095-.541h10.194Z" transform="translate(-1276.835 -929.384)" fill="#bdd1f9"></path><path id="Trazado_6267" data-name="Trazado 6267" d="M1559.426,1135.579h-10.194l.095-.541h10.194Z" transform="translate(-1275.889 -934.774)" fill="#bdd1f9"></path><path id="Trazado_6268" data-name="Trazado 6268" d="M1545.09,1033.934h-2.341l2.034-10.97h2.341Z" transform="translate(-1270.55 -842.475)" fill="#bdd1f9"></path><path id="Trazado_6269" data-name="Trazado 6269" d="M1563.164,1045.474h-2.341l1.576-8.5h2.341Z" transform="translate(-1285.435 -854.014)" fill="#bdd1f9"></path><path id="Trazado_6270" data-name="Trazado 6270" d="M1581.239,1043.774H1578.9l1.643-8.862h2.341Z" transform="translate(-1300.321 -852.315)" fill="#bdd1f9"></path><path id="Trazado_6271" data-name="Trazado 6271" d="M1599.314,1053.674h-2.341l1.25-6.741h2.341Z" transform="translate(-1315.207 -862.215)" fill="#bdd1f9"></path><path id="Trazado_6272" data-name="Trazado 6272" d="M1617.388,1051.383h-2.341l1.341-7.232h2.341Z" transform="translate(-1330.093 -859.924)" fill="#bdd1f9"></path><path id="Trazado_6273" data-name="Trazado 6273" d="M1635.463,1058.961h-2.341l1.04-5.608h2.341Z" transform="translate(-1344.979 -867.502)" fill="#bdd1f9"></path><path id="Trazado_6274" data-name="Trazado 6274" d="M1722.582,1033.934h-2.341l2.034-10.97h2.341Z" transform="translate(-1416.726 -842.475)" fill="#f99746"></path><path id="Trazado_6275" data-name="Trazado 6275" d="M1740.656,1045.474h-2.341l1.576-8.5h2.341Z" transform="translate(-1431.611 -854.014)" fill="#f99746"></path><path id="Trazado_6276" data-name="Trazado 6276" d="M1758.731,1043.774h-2.341l1.643-8.862h2.341Z" transform="translate(-1446.497 -852.315)" fill="#f99746"></path><path id="Trazado_6277" data-name="Trazado 6277" d="M1776.805,1053.674h-2.341l1.25-6.741h2.341Z" transform="translate(-1461.383 -862.215)" fill="#f99746"></path><path id="Trazado_6278" data-name="Trazado 6278" d="M1794.88,1051.383h-2.341l1.341-7.232h2.341Z" transform="translate(-1476.268 -859.924)" fill="#f99746"></path><path id="Trazado_6279" data-name="Trazado 6279" d="M1812.956,1058.961h-2.341l1.04-5.608H1814Z" transform="translate(-1491.155 -867.502)" fill="#f99746"></path><path id="Trazado_6280" data-name="Trazado 6280" d="M1761.82,877.306h-7.62l.2-1.044h7.62Z" transform="translate(-1444.693 -721.656)" fill="#bdd1f9"></path><path id="Trazado_6281" data-name="Trazado 6281" d="M1811.1,877.306h-8.414l.2-1.044h8.414Z" transform="translate(-1484.624 -721.656)" fill="#bdd1f9"></path><path id="Trazado_6282" data-name="Trazado 6282" d="M1859.327,877.306h-5.364l.2-1.044h5.364Z" transform="translate(-1526.855 -721.656)" fill="#bdd1f9"></path><path id="Trazado_6283" data-name="Trazado 6283" d="M1893.43,877.306h-4.14l.2-1.044h4.14Z" transform="translate(-1555.948 -721.656)" fill="#bdd1f9"></path><path id="Trazado_6284" data-name="Trazado 6284" d="M1757.08,902.55h-7.621l.2-1.044h7.621Z" transform="translate(-1440.789 -742.447)" fill="#bdd1f9"></path><path id="Trazado_6285" data-name="Trazado 6285" d="M1806.358,902.55h-8.414l.2-1.044h8.414Z" transform="translate(-1480.719 -742.447)" fill="#bdd1f9"></path><path id="Trazado_6286" data-name="Trazado 6286" d="M1854.587,902.55h-5.364l.2-1.044h5.364Z" transform="translate(-1522.951 -742.447)" fill="#bdd1f9"></path><path id="Trazado_6287" data-name="Trazado 6287" d="M1888.689,902.55h-4.14l.2-1.044h4.14Z" transform="translate(-1552.045 -742.447)" fill="#bdd1f9"></path><path id="Trazado_6288" data-name="Trazado 6288" d="M1768.484,863.5h-11.692l.2-1.044h11.692Z" transform="translate(-1446.828 -710.287)" fill="#bdd1f9"></path><path id="Trazado_6289" data-name="Trazado 6289" d="M1836.11,863.5h-6.74l.2-1.044h6.74Z" transform="translate(-1506.601 -710.287)" fill="#bdd1f9"></path><path id="Trazado_6290" data-name="Trazado 6290" d="M1880.44,863.5h-7.484l.2-1.044h7.484Z" transform="translate(-1542.497 -710.287)" fill="#bdd1f9"></path><path id="Trazado_6291" data-name="Trazado 6291" d="M1763.443,890.342h-11.692l.2-1.044h11.692Z" transform="translate(-1442.677 -732.392)" fill="#bdd1f9"></path><path id="Trazado_6292" data-name="Trazado 6292" d="M1831.07,890.342h-6.739l.2-1.044h6.74Z" transform="translate(-1502.45 -732.392)" fill="#bdd1f9"></path><path id="Trazado_6293" data-name="Trazado 6293" d="M1875.4,890.342h-7.485l.2-1.044h7.484Z" transform="translate(-1538.346 -732.392)" fill="#bdd1f9"></path><path id="Trazado_6294" data-name="Trazado 6294" d="M1752.34,927.794h-7.62l.2-1.044h7.62Z" transform="translate(-1436.885 -763.237)" fill="#bdd1f9"></path><path id="Trazado_6295" data-name="Trazado 6295" d="M1801.617,927.794H1793.2l.2-1.044h8.414Z" transform="translate(-1476.815 -763.237)" fill="#bdd1f9"></path><path id="Trazado_6296" data-name="Trazado 6296" d="M1849.846,927.794h-5.364l.2-1.044h5.364Z" transform="translate(-1519.046 -763.237)" fill="#bdd1f9"></path><path id="Trazado_6297" data-name="Trazado 6297" d="M1883.949,927.794h-4.14l.2-1.044h4.14Z" transform="translate(-1548.141 -763.237)" fill="#bdd1f9"></path><path id="Trazado_6298" data-name="Trazado 6298" d="M1758.7,915.587H1747.01l.2-1.044H1758.9Z" transform="translate(-1438.772 -753.183)" fill="#bdd1f9"></path><path id="Trazado_6299" data-name="Trazado 6299" d="M1826.329,915.587h-6.74l.2-1.044h6.74Z" transform="translate(-1498.546 -753.183)" fill="#bdd1f9"></path><path id="Trazado_6300" data-name="Trazado 6300" d="M1870.659,915.587h-7.484l.2-1.044h7.484Z" transform="translate(-1534.441 -753.183)" fill="#bdd1f9"></path><path id="Trazado_6301" data-name="Trazado 6301" d="M1747.9,951.461h-7.621l.2-1.044h7.621Z" transform="translate(-1433.225 -782.728)" fill="#bdd1f9"></path><path id="Trazado_6302" data-name="Trazado 6302" d="M1797.174,951.461h-8.414l.2-1.044h8.414Z" transform="translate(-1473.156 -782.728)" fill="#bdd1f9"></path><path id="Trazado_6303" data-name="Trazado 6303" d="M1845.4,951.461h-5.364l.2-1.044h5.364Z" transform="translate(-1515.386 -782.728)" fill="#bdd1f9"></path><path id="Trazado_6304" data-name="Trazado 6304" d="M1879.5,951.461h-4.14l.2-1.044h4.14Z" transform="translate(-1544.481 -782.728)" fill="#bdd1f9"></path><path id="Trazado_6305" data-name="Trazado 6305" d="M1754.258,939.253h-11.692l.2-1.044h11.692Z" transform="translate(-1435.112 -772.674)" fill="#bdd1f9"></path><path id="Trazado_6306" data-name="Trazado 6306" d="M1821.884,939.253h-6.74l.2-1.044h6.74Z" transform="translate(-1494.885 -772.674)" fill="#bdd1f9"></path><path id="Trazado_6307" data-name="Trazado 6307" d="M1866.215,939.253h-7.484l.2-1.044h7.484Z" transform="translate(-1530.781 -772.674)" fill="#bdd1f9"></path><path id="Trazado_6308" data-name="Trazado 6308" d="M1667.764,1029.825h-3.73l.1-.511h3.73Z" transform="translate(-1370.436 -847.705)" fill="#bdd1f9"></path><path id="Trazado_6309" data-name="Trazado 6309" d="M1691.884,1029.825h-4.119l.1-.511h4.119Z" transform="translate(-1389.98 -847.705)" fill="#bdd1f9"></path><path id="Trazado_6310" data-name="Trazado 6310" d="M1665.444,1042.182h-3.73l.1-.511h3.73Z" transform="translate(-1368.525 -857.882)" fill="#bdd1f9"></path><path id="Trazado_6311" data-name="Trazado 6311" d="M1689.564,1042.182h-4.119l.1-.511h4.119Z" transform="translate(-1388.07 -857.882)" fill="#bdd1f9"></path><path id="Trazado_6312" data-name="Trazado 6312" d="M1671.025,1023.068H1665.3l.1-.511h5.723Z" transform="translate(-1371.481 -842.14)" fill="#bdd1f9"></path><path id="Trazado_6313" data-name="Trazado 6313" d="M1704.126,1023.068h-3.3l.1-.511h3.3Z" transform="translate(-1400.738 -842.14)" fill="#bdd1f9"></path><path id="Trazado_6314" data-name="Trazado 6314" d="M1668.558,1036.207h-5.723l.1-.511h5.723Z" transform="translate(-1369.449 -852.96)" fill="#bdd1f9"></path><path id="Trazado_6315" data-name="Trazado 6315" d="M1701.659,1036.207h-3.3l.1-.511h3.3Z" transform="translate(-1398.706 -852.96)" fill="#bdd1f9"></path><path id="Trazado_6316" data-name="Trazado 6316" d="M1837.112,1029.825h-3.73l.1-.511h3.73Z" transform="translate(-1509.904 -847.705)" fill="#bdd1f9"></path><path id="Trazado_6317" data-name="Trazado 6317" d="M1861.232,1029.825h-4.119l.1-.511h4.119Z" transform="translate(-1529.45 -847.705)" fill="#bdd1f9"></path><path id="Trazado_6318" data-name="Trazado 6318" d="M1834.792,1042.182h-3.73l.1-.511h3.73Z" transform="translate(-1507.994 -857.882)" fill="#bdd1f9"></path><path id="Trazado_6319" data-name="Trazado 6319" d="M1858.912,1042.182h-4.119l.1-.511h4.119Z" transform="translate(-1527.539 -857.882)" fill="#bdd1f9"></path><path id="Trazado_6320" data-name="Trazado 6320" d="M1840.374,1023.068h-5.723l.1-.511h5.723Z" transform="translate(-1510.95 -842.14)" fill="#bdd1f9"></path><path id="Trazado_6321" data-name="Trazado 6321" d="M1873.475,1023.068h-3.3l.1-.511h3.3Z" transform="translate(-1540.207 -842.14)" fill="#bdd1f9"></path><path id="Trazado_6322" data-name="Trazado 6322" d="M1837.907,1036.207h-5.723l.1-.511H1838Z" transform="translate(-1508.918 -852.96)" fill="#bdd1f9"></path><path id="Trazado_6323" data-name="Trazado 6323" d="M1871.008,1036.207h-3.3l.1-.511h3.3Z" transform="translate(-1538.176 -852.96)" fill="#bdd1f9"></path><path id="Trazado_6324" data-name="Trazado 6324" d="M1886.744,1499.4c-.131,1.785-2.65,1.8-5.508,1.473s-2.1.391-6.1.447-5.381-1.267-5.575-1.839c-.173-.507,1.755-.934,3.817-1.436.26-.062.52-.128.78-.193,2.325-.591,3.864-2.331,5.854-3.851,1.884-1.439,4.314-6.648,4.314-6.648l5.467-.247s-2.3,4.669-3.167,6.682a6.592,6.592,0,0,0-.071,3.755,7,7,0,0,1,.189,1.857" transform="translate(-1539.692 -1224.727)" fill="#ffb27d"></path><path id="Trazado_6325" data-name="Trazado 6325" d="M1881.236,1549.594c-2.858-.332-2.1.392-6.1.447s-5.381-1.267-5.575-1.839c-.173-.507,1.755-.934,3.817-1.436l.025.038a11.215,11.215,0,0,0,5.872,1.052c2.686-.269,5.427-1.39,7.28-1.591a7.01,7.01,0,0,1,.189,1.857c-.131,1.785-2.65,1.8-5.508,1.473" transform="translate(-1539.692 -1273.445)" fill="#233862"></path><path id="Trazado_6326" data-name="Trazado 6326" d="M2100.728,1484.434c-.129,1.785-2.648,1.807-5.506,1.478s-2.1.394-6.1.454-5.382-1.261-5.577-1.833c-.173-.507,1.754-.936,3.815-1.44.26-.062.52-.128.78-.194,2.325-.594,3.862-2.335,5.85-3.857,1.883-1.441,0-9.973,0-9.973l6.013-.585s-.288,7.183-.284,10.449a18.391,18.391,0,0,0,.816,3.644,7,7,0,0,1,.191,1.857" transform="translate(-1715.921 -1209.388)" fill="#ffb27d"></path><path id="Trazado_6327" data-name="Trazado 6327" d="M2095.221,1551.7c-2.858-.328-2.1.394-6.1.454s-5.382-1.261-5.577-1.833c-.173-.507,1.754-.936,3.815-1.44l.025.037a11.213,11.213,0,0,0,5.873,1.046c2.686-.272,5.425-1.4,7.278-1.6a7,7,0,0,1,.191,1.857c-.129,1.785-2.648,1.807-5.506,1.478" transform="translate(-1715.921 -1275.175)" fill="#233862"></path><path id="Trazado_6328" data-name="Trazado 6328" d="M2079.91,668.711c-1.035-4.257.465-6.24,1.819-7.3a6.449,6.449,0,0,1,2.124-3.122A7.665,7.665,0,0,1,2088,657.5a1.94,1.94,0,0,0-.875-.415,6.43,6.43,0,0,1,2.3.6c9.88-3.807,11.433,10.74,11.225,14.12s-.179,7.36,4.962,10.022c9.807,5.081-3.26,24.228-3.26,24.228.25-2.731-12.352-17.144-18.927-21.46-1.6-2.356-2.169-6.518-2.212-6.846a17.97,17.97,0,0,0,1.346,6.194c-3-2.758-3.44-9.38-2.647-15.23" transform="translate(-1712.651 -541.124)" fill="#a9453d"></path><path id="Trazado_6329" data-name="Trazado 6329" d="M2103.646,768.925c-.033.015,3.174,1.68,5.587,1.02,2.269-.619,3.752-3.561,3.72-3.568-.961-.191-1.238-1.512-1.217-7.186l-.435.085-7.3,1.447s.166,2.3.171,4.464c.005,1.819-.1,3.543-.522,3.737" transform="translate(-1732.484 -625.241)" fill="#ffb27d"></path><path id="Trazado_6330" data-name="Trazado 6330" d="M2105.635,761.121s.166,2.3.171,4.465c4.088-.115,6.248-3.844,7.134-5.911Z" transform="translate(-1734.122 -625.64)" fill="#ed975d"></path><path id="Trazado_6331" data-name="Trazado 6331" d="M1936.783,1124.795a1.792,1.792,0,0,0,1.624,2.335l2.854.133,3.02.093a2.425,2.425,0,0,0,1.954-.892,84.9,84.9,0,0,0,14.329-27.13q.19-.6.4-1.219c2.972-8.666,9.133-19.543,12.38-29.389.517-1.568.981-3.044,1.4-4.441.133-.448.263-.887.386-1.32a104.4,104.4,0,0,0,3.724-19.6l-23.445.188a516.445,516.445,0,0,1-18.625,81.247" transform="translate(-1594.991 -859.272)" fill="#2a4e96"></path><path id="Trazado_6332" data-name="Trazado 6332" d="M2045.486,826.246c.059,11.156-1.637,15.943-1.637,15.943a31.5,31.5,0,0,0,21.969,1.346c.14-.044,8.536-2.421,8.536-2.421-.2-.452-1.858-7.917-2.053-8.331-2.519-5.409-3.205-7.681-3.5-9.343a35.366,35.366,0,0,1-.29-9.347,75.014,75.014,0,0,1,2.893-14.679,76.2,76.2,0,0,1-9.679-3.308,7.557,7.557,0,0,1-5.221,1.936c-2.377-.052-3.147-1.069-3.024-2.18-2.532,1.409-4.553,2.74-4.553,2.74-2.152,3.739-6.518,7.37-6.834,13.1-.078,1.41,3.4,14.226,3.4,14.539" transform="translate(-1681.787 -655.442)" fill="#fff"></path><path id="Trazado_6333" data-name="Trazado 6333" d="M2159.186,884.617c1.025,1.451,2.99,10.267,7.878,11.375-2.519-6.283-4.431-9.039-4.73-10.97a47.66,47.66,0,0,1-.29-10.857c-1.636-2.868-2.858-4.835-2.858-4.835-.129-.464-2.6-8.108-3.393-1.275s2.248,14.94,3.393,16.562" transform="translate(-1775.324 -712.57)" fill="#5f9aa8"></path><path id="Trazado_6334" data-name="Trazado 6334" d="M2082.861,703.321s9.671.159,9.678-5.865,1.259-10.061-4.915-10.418-7.377,1.941-7.868,3.951.59,12.135,3.105,12.331" transform="translate(-1712.714 -565.788)" fill="#ffb27d"></path><path id="Trazado_6335" data-name="Trazado 6335" d="M2099.926,680.659s2.648,7.068,6.712,8.113,5.826-.044,5.826-.044a11.507,11.507,0,0,1-3.764-6.8s-6.777-4.634-8.774-1.27" transform="translate(-1729.421 -559.556)" fill="#a9453d"></path><path id="Trazado_6336" data-name="Trazado 6336" d="M2080.788,684.247a8.538,8.538,0,0,0-2.459,3.112c-.483,1.534-.7,4.692-1.62,4.585,0,0-2-4.8.247-7.521,2.377-2.882,3.832-.175,3.832-.175" transform="translate(-1709.627 -562.571)" fill="#a9453d"></path><path id="Trazado_6337" data-name="Trazado 6337" d="M1990.325,1011.958l-4.568,13.927,2.606,1.045,7.553-12.3Z" transform="translate(-1635.395 -833.411)" fill="#ffb27d"></path><path id="Trazado_6338" data-name="Trazado 6338" d="M2018.664,806.745s-5.386,2.138-6.945,5.47-3.919,25.684-4.859,27.98-1.647,4.113-1.647,4.113,2.715,2.288,5.447,2.457,8-40.019,8-40.019" transform="translate(-1651.419 -664.405)" fill="#f99746"></path><path id="Trazado_6339" data-name="Trazado 6339" d="M2038.269,795.862s-5.6,13.823-5.76,16.621-.658,45.748-.658,45.748.329,1.975-3.456,1.152-4.772-1.645-4.772-1.645,3.62-26.494,2.633-35.71,7.57-24.245,7.57-24.245Z" transform="translate(-1666.58 -655.442)" fill="#f99746"></path><path id="Trazado_6340" data-name="Trazado 6340" d="M1962.563,1206.542l3.278.1a1.894,1.894,0,0,0,1.52-.686,84.608,84.608,0,0,0,14.5-27.344q.19-.6.4-1.219c2.972-8.666,9.133-19.544,12.38-29.389.517-1.568.981-3.044,1.4-4.441.133-.448.263-.887.386-1.32l-3.453-2.62s-10.366,16.785-13.575,32.581c-2.787,13.721-13.951,30.232-16.841,34.338" transform="translate(-1616.294 -938.551)" fill="#1e3d70"></path><path id="Trazado_6341" data-name="Trazado 6341" d="M2122.155,1152.882c-.056,7.267.289,23.465,1.173,31.382a1.43,1.43,0,0,0,1.423,1.271h2.446c1.031,0,1.8-.008,2.315-.015a.941.941,0,0,0,.907-.76c2.433-12.379,4.174-22.664,5.448-31.55,1.066-7.438,2.014-13.815,2.743-19.3.734-5.524,1.244-10.15,1.427-14.059q.042-.923.061-1.8t.01-1.7l-20.258-1.975c.255,13.46,2.337,34.043,2.3,38.507" transform="translate(-1745.83 -917.757)" fill="#2a4e96"></path><path id="Trazado_6342" data-name="Trazado 6342" d="M2161.486,1211.084c.926,0,1.643-.006,2.15-.013a1.141,1.141,0,0,0,1.1-.922c2.417-12.308,4.148-22.542,5.417-31.39,1.066-7.438,2.014-13.815,2.743-19.3.734-5.524,1.244-10.15,1.427-14.059l-7.433,4.372s4.744,1.674,2.934,14.345-5.822,45.177-8.342,46.971" transform="translate(-1780.119 -943.305)" fill="#1e3d70"></path><path id="Trazado_6343" data-name="Trazado 6343" d="M2123.752,858.724s1.427,5.156,6.364,4.5,11.957-3.62,11.957-3.62-2.11-6.667-4.733-15.424c-3.176-10.6-7.107-24.271-8.96-32.893a53.373,53.373,0,0,1-1.007-5.878l-4.1-7.947s-6.107,13.706-6.436,17.162,6.911,44.1,6.911,44.1" transform="translate(-1743.342 -656.757)" fill="#f99746"></path><path id="Trazado_6344" data-name="Trazado 6344" d="M2094.936,814.105l-5.406-16.647a83.378,83.378,0,0,1,10.255,3.759s2.142,2.762,3.468,9.133c0,0,1.4,15.3-1.726,20.891,0,0-9.874,1.975-25.672-3.456v-3.62s17.279.905,20.817,1.317Z" transform="translate(-1709.596 -656.756)" fill="#ffb27d"></path><path id="Trazado_6345" data-name="Trazado 6345" d="M2157.284,886.392c.22,5.6,1.537,16.456,13.275,22.27.031.015.063.031.094.044-3.176-10.6-7.107-24.271-8.96-32.893-2.156,3.222-4.529,7.5-4.409,10.578" transform="translate(-1776.655 -721.288)" fill="#ed7d2b"></path><path id="Trazado_6346" data-name="Trazado 6346" d="M2150.662,797.458s10.021.706,12.435,6.082,3.181,23.258.11,28.524c0,0-4.229,1.2-11.709-.194l-.276-.053s-2.386-5.842-.247-6.994c0,0,6.308.329,5.65-1.755s-5.962-25.609-5.962-25.609" transform="translate(-1770.728 -656.756)" fill="#f99746"></path><path id="Trazado_6347" data-name="Trazado 6347" d="M2010.969,937.627l.3.949,16.443-5.115a.632.632,0,0,0,.111-.582.465.465,0,0,0-.406-.367Z" transform="translate(-1656.159 -767.982)" fill="#a9453d"></path><path id="Trazado_6348" data-name="Trazado 6348" d="M2004.229,962.4l1.189-.9.3.949Z" transform="translate(-1650.608 -791.857)" fill="#a9453d"></path><path id="Trazado_6349" data-name="Trazado 6349" d="M1966.171,1088.733s-4.171,2.305-4.72,4.062-.172,5.433.49,5.379,1.65-3.952,2.2-4.226,1.317-1.1,1.317-.494-.549,1.7-.275,1.866,1.153-1.536,1.756-1.866.858-3.043,1.444-3.772-2.212-.948-2.212-.948" transform="translate(-1615.16 -896.64)" fill="#ffb27d"></path><path id="Trazado_6350" data-name="Trazado 6350" d="M2031.786,939.578s-3.731-2.3-5.3-1.944-5.553,3.242-3.635,3.867,3.472-.031,4.21.424,1.282,1.285,4.72,1.273,0-3.62,0-3.62" transform="translate(-1665.528 -772.17)" fill="#ffb27d"></path><g id="Grupo_1347" data-name="Grupo 1347" transform="translate(166.871 191.975)" opacity="0.6"><g id="Grupo_1346" data-name="Grupo 1346"><g id="Grupo_1345" data-name="Grupo 1345" clip-path="url(#clip-path-4)"><path id="Trazado_6351" data-name="Trazado 6351" d="M1048.606,1361.928h-.062a.646.646,0,0,1-.646-.661l.979-42.452,2.885-.337-2.46,42.791a.7.7,0,0,1-.7.658" transform="translate(-1029.881 -1277.825)" fill="#77a4e5"></path><path id="Trazado_6352" data-name="Trazado 6352" d="M953.315,1361.928h-.062a.646.646,0,0,1-.646-.661l.979-42.452,2.885-.337-2.46,42.791a.7.7,0,0,1-.7.658" transform="translate(-951.404 -1277.825)" fill="#77a4e5"></path><path id="Trazado_6353" data-name="Trazado 6353" d="M1204.826,1361.928h.062a.646.646,0,0,0,.646-.661l-.98-42.452-2.885-.337,2.46,42.791a.7.7,0,0,0,.7.658" transform="translate(-1156.521 -1277.825)" fill="#77a4e5"></path><path id="Trazado_6354" data-name="Trazado 6354" d="M945.783,1126.421v-29.09a9.268,9.268,0,0,1,9.268-9.268h20.958a9.268,9.268,0,0,1,9.268,9.268v30.2Z" transform="translate(-945.783 -1088.063)" fill="#77a4e5"></path><path id="Trazado_6355" data-name="Trazado 6355" d="M989.034,1310.057H948.567a2.783,2.783,0,0,1-2.783-2.783v-1.81h43.25Z" transform="translate(-945.784 -1267.107)" fill="#77a4e5"></path><path id="Trazado_6356" data-name="Trazado 6356" d="M1065.888,1310.057h-30.615a2.058,2.058,0,0,1-2.058-2.058v-.477a2.058,2.058,0,0,1,2.058-2.058h30.615a2.058,2.058,0,0,1,2.058,2.058V1308a2.058,2.058,0,0,1-2.058,2.058" transform="translate(-1017.789 -1267.107)" fill="#77a4e5"></path></g></g></g><path id="Trazado_6357" data-name="Trazado 6357" d="M1330.531,1421.147c.292,1.462,2.377,1.218,4.7.649s1.775.107,5.089-.26,4.318-1.6,4.419-2.1c.09-.437-1.547-.591-3.3-.794-.221-.025-.443-.052-.665-.079-1.983-.249-3.435-1.528-5.236-2.579-1.706-1-4.252-5.051-4.252-5.051l-4.545.36s2.385,3.622,3.307,5.2a5.492,5.492,0,0,1,.446,3.1,5.83,5.83,0,0,0,.035,1.555" transform="translate(-1092.655 -1161.996)" fill="#ffb27d"></path><path id="Trazado_6358" data-name="Trazado 6358" d="M1352.594,1457.783c2.328-.569,1.775.107,5.089-.26s4.318-1.6,4.419-2.1c.09-.437-1.547-.591-3.3-.794l-.016.034a9.344,9.344,0,0,1-4.746,1.475c-2.248.055-4.63-.59-6.182-.564a5.836,5.836,0,0,0,.035,1.555c.292,1.462,2.377,1.218,4.7.649" transform="translate(-1110.014 -1197.983)" fill="#233862"></path><path id="Trazado_6359" data-name="Trazado 6359" d="M1125.625,1462.2c-.9,1.187.658,2.588,2.625,3.958s1.094,1.4,3.561,3.645,4.058,2.178,4.495,1.928c.388-.221-.58-1.551-1.59-3-.127-.182-.254-.366-.38-.551-1.125-1.652-1.126-3.587-1.53-5.633-.382-1.938,2.783-9.06,2.783-9.06l-5.084-.64a56.861,56.861,0,0,1-1.235,6.035c-.336,1.02-1.748,1.692-2.5,2.267a5.825,5.825,0,0,0-1.143,1.055" transform="translate(-926.806 -1196.504)" fill="#ffb27d"></path><path id="Trazado_6360" data-name="Trazado 6360" d="M1128.25,1504.9c1.967,1.37,1.094,1.4,3.561,3.645s4.058,2.178,4.495,1.928c.388-.221-.58-1.551-1.59-3l-.036.01a9.343,9.343,0,0,1-4.246-2.583c-1.528-1.65-2.621-3.862-3.667-5.01a5.825,5.825,0,0,0-1.143,1.055c-.9,1.187.658,2.588,2.626,3.958" transform="translate(-926.806 -1235.254)" fill="#233862"></path><path id="Trazado_6361" data-name="Trazado 6361" d="M1164.987,1262.329l-4.644,12.5-6.062,16.315a9.822,9.822,0,0,1-3.221-.294,13.968,13.968,0,0,1-3.115-1.516s1.683-17.518,4.824-27.573a17.91,17.91,0,0,1,2.7-5.844c4.868-5.753,9.516,6.418,9.516,6.418" transform="translate(-945.405 -1033.049)" fill="#163560"></path><path id="Trazado_6362" data-name="Trazado 6362" d="M1008.124,1175.379c-3.042-.981-12.209-.4-20.925,1.31l-1.334-2.336-18.826-1.47s-6.212,13.777-2.811,22.555a3.184,3.184,0,0,0,3.186,2.145h.275s11.2-.007,14.843-.007c9.362,0,19.814-6.436,21.166-6.706,2.213-.443,3.1,3.983,5.311,8.631s20.8,20.581,20.8,20.581a16.357,16.357,0,0,0,4.037-.414,3.976,3.976,0,0,0,1.734-1.094s-20.6-40.982-27.459-43.195" transform="translate(-793.263 -965.943)" fill="#2a4e96"></path><path id="Trazado_6363" data-name="Trazado 6363" d="M945.139,857.061c-2.65-.631-6.248.11-6.845.18-7.15.834-8.748,11.94-8.216,15.046.98,5.725-1.77,7.337-5.051,11.916-6.579,9.181-2.034,16.741,3.321,18.614,3.213,1.124,7.591-1.937,7.591-1.937.081.03,11.367-10.746,16.951-15.979,9.385-3.868-1-26.232-7.752-27.84" transform="translate(-759.131 -705.635)" fill="#233862"></path><path id="Trazado_6364" data-name="Trazado 6364" d="M1016.585,966.318c.033.011-2.911,1.935-5.31,1.53-2.257-.379-4.645-3.324-4.615-3.334.912-.278,1.719-1.343,1.149-6.836l.429.041,7.213.692s.062,2.242.267,4.339c.172,1.761.445,3.42.868,3.568" transform="translate(-829.047 -788.708)" fill="#ffb27d"></path><path id="Trazado_6365" data-name="Trazado 6365" d="M1022.818,958.6s.062,2.242.267,4.339c-3.969.285-6.423-3.116-7.48-5.031Z" transform="translate(-836.414 -788.897)" fill="#ed975d"></path><path id="Trazado_6366" data-name="Trazado 6366" d="M1015.686,899.816s-9.349,1.092-9.939-4.74-2.2-9.619,3.749-10.563,7.331,1.164,8,3.062.606,11.806-1.811,12.241" transform="translate(-827.762 -728.259)" fill="#ffb27d"></path><path id="Trazado_6367" data-name="Trazado 6367" d="M1003.731,880.5s-4.514,6.463-8.348,7.869-5.646.523-5.646.523a15.863,15.863,0,0,0,2.432-5.983,2.856,2.856,0,0,1,1.865-2.213c2.749-.959,8.048-2.429,9.7-.2" transform="translate(-815.111 -724.182)" fill="#233862"></path><path id="Trazado_6368" data-name="Trazado 6368" d="M1047.9,880.849a14.7,14.7,0,0,1,3.377,2.611,11.29,11.29,0,0,1,1.78,5.741s1.52-6.634-.914-9.048c-2.581-2.56-4.243.7-4.243.7" transform="translate(-863.013 -724.053)" fill="#233862"></path><path id="Trazado_6369" data-name="Trazado 6369" d="M986.812,1009.908c-.282,18.883-.077,14.937-2.143,16.729-.5.432-1.9.689-3.739.81-5.79.385-15.969-.569-16.356-1.64-1.336-3.7-.393-4.853-1.507-10.521-.116-.6-.26-1.255-.429-1.966-.929-3.893-1.833-5.218,1.463-11.473,2.989-5.666,6.217-10.192,6.5-10.026,7.886,4.681,8.4.674,8.4.674s7.953,8.2,7.814,17.412" transform="translate(-792.085 -816.823)" fill="#fff"></path><path id="Trazado_6370" data-name="Trazado 6370" d="M1159.36,1309.314l-6.2,16.995a10.475,10.475,0,0,1-3.85.49,4.823,4.823,0,0,1-2.559-1.142s1.894-19.355,5.034-29.411Z" transform="translate(-944.421 -1067.539)" fill="#2a4e96"></path><path id="Trazado_6371" data-name="Trazado 6371" d="M1059.372,995.656s8.115,1.376,9.068,4.87,7.921,22.746,7.921,22.746-5.486,2.028-7.392.122-6.631-17.681-6.631-17.681Z" transform="translate(-872.459 -819.985)" fill="#fff"></path><path id="Trazado_6372" data-name="Trazado 6372" d="M986.946,1108.132c-5.79.384-15.969-.57-16.356-1.64-1.335-3.7-.393-4.853-1.507-10.521l2.716-6.183s-.385,7.077,2.2,9.38,10.574,4.446,11.829,6.371a7.043,7.043,0,0,1,1.12,2.594" transform="translate(-798.101 -897.508)" fill="#dfebfd"></path><path id="Trazado_6373" data-name="Trazado 6373" d="M1073,1170.92a12.885,12.885,0,0,0,2.215,1.608,1.362,1.362,0,0,0,.77.009l-1.257-1.472Z" transform="translate(-883.68 -964.326)" fill="#ffb27d"></path><path id="Trazado_6374" data-name="Trazado 6374" d="M1069.124,1160.987l4.366,1.127a.723.723,0,0,1-.607.387,9.685,9.685,0,0,1-1.82-.125Z" transform="translate(-880.491 -956.145)" fill="#ffb27d"></path><path id="Trazado_6375" data-name="Trazado 6375" d="M1027.164,1163.237s6.233-2.773,7.4-2.407,4.171,1.955,4.641,2.624-2.457-.083-3.372-.141a7.883,7.883,0,0,0-2.65,1.168,9.4,9.4,0,0,1-4.867,1.5Z" transform="translate(-845.934 -955.989)" fill="#ffb27d"></path><path id="Trazado_6376" data-name="Trazado 6376" d="M924.878,991.842s-8.819,1.655-10.453,4.1c-3.565,5.333-11.153,27.431-6.9,30.394,4.786,3.337,21.78.873,21.78.873s.565-2.643-.221-3.922-13.574-3.344-14.164-3.935,5.83-9.124,5.146-10.757c-2.191-5.232,4.814-16.752,4.814-16.752" transform="translate(-746.365 -816.844)" fill="#fff"></path><path id="Trazado_6377" data-name="Trazado 6377" d="M1205.693,1169.287s6.172,1.667,6.806,2.625a14.653,14.653,0,0,1,1.824,4.651c-.053.765-1.738-1.512-2.369-2.094a7.377,7.377,0,0,0-2.617-.717,7.8,7.8,0,0,1-3.407-1.555,1.869,1.869,0,0,0-1.021-.228Z" transform="translate(-992.319 -962.981)" fill="#ffb27d"></path><path id="Trazado_6378" data-name="Trazado 6378" d="M1244.868,1193.677a12.073,12.073,0,0,0,.661,2.478,1.279,1.279,0,0,0,.555.461l-.044-1.813Z" transform="translate(-1025.227 -983.068)" fill="#ffb27d"></path><path id="Trazado_6379" data-name="Trazado 6379" d="M1247.923,1184.164l2.509,3.4a.678.678,0,0,1-.671-.077,9.072,9.072,0,0,1-1.25-1.167Z" transform="translate(-1027.743 -975.233)" fill="#ffb27d"></path><path id="Trazado_6380" data-name="Trazado 6380" d="M1210.7,1185.777a3.888,3.888,0,0,0,1.714,1.887c1.142.5,1.981,1.246,2.164.977s-.865-1.684-.865-1.684Z" transform="translate(-997.084 -976.561)" fill="#ffb27d"></path><path id="Trazado_6381" data-name="Trazado 6381" d="M1119.519,1126.374l12.979,8.206a10.735,10.735,0,0,1-1.819,1.99c-2.4.881-13.213.037-16.914-5.522Z" transform="translate(-917.255 -927.639)" fill="#fff"></path><path id="Trazado_6382" data-name="Trazado 6382" d="M1115.751,1174.456c.766,0,8.384-.528,8.384-.528a3.605,3.605,0,0,0,.251,2.073l-7.424,1.421-1.526-.448Z" transform="translate(-918.631 -966.803)" fill="#f9ddbf"></path><path id="Trazado_6383" data-name="Trazado 6383" d="M1042.557,1178.146l12.707-1.224s-.447,2.35,1.211,2.965l-14.009,1.025s-1.128-1.589.091-2.765" transform="translate(-858.145 -969.268)" fill="#f99746"></path><path id="Trazado_6384" data-name="Trazado 6384" d="M1124.534,1173.7l-8.588.661s.064-.3.225-.3,8.531-.612,8.531-.612l-.029.234Z" transform="translate(-919.051 -966.412)" fill="#f99746"></path><path id="Trazado_6385" data-name="Trazado 6385" d="M1121.437,1186.1l7.562-1.437-.069-.2-8.061,1.543Z" transform="translate(-923.107 -975.486)" fill="#f99746"></path><path id="Trazado_6386" data-name="Trazado 6386" d="M621.6,1337.9h-.068a.719.719,0,0,1-.717-.738l1.087-47.4,3.2-.376-2.731,47.781a.776.776,0,0,1-.773.734" transform="translate(-511.282 -1061.89)" fill="#77a4e5"></path><path id="Trazado_6387" data-name="Trazado 6387" d="M515.822,1337.9h-.068a.719.719,0,0,1-.717-.738l1.087-47.4,3.2-.376-2.731,47.781a.777.777,0,0,1-.773.734" transform="translate(-424.165 -1061.89)" fill="#77a4e5"></path><path id="Trazado_6388" data-name="Trazado 6388" d="M795.026,1337.9h.068a.719.719,0,0,0,.717-.738l-1.087-47.4-3.2-.376,2.731,47.781a.776.776,0,0,0,.773.734" transform="translate(-651.867 -1061.89)" fill="#77a4e5"></path><path id="Trazado_6389" data-name="Trazado 6389" d="M507.461,1074.934v-32.482a10.319,10.319,0,0,1,10.288-10.349h23.266a10.319,10.319,0,0,1,10.288,10.349v33.723Z" transform="translate(-417.926 -850.002)" fill="#77a4e5"></path><path id="Trazado_6390" data-name="Trazado 6390" d="M555.472,1279.983H510.559a3.1,3.1,0,0,1-3.1-3.1v-2.03h48.011Z" transform="translate(-417.926 -1049.923)" fill="#77a4e5"></path><path id="Trazado_6391" data-name="Trazado 6391" d="M640.783,1279.983H606.811a2.291,2.291,0,0,1-2.291-2.291v-.546a2.291,2.291,0,0,1,2.291-2.291h33.972a2.291,2.291,0,0,1,2.291,2.291v.546a2.291,2.291,0,0,1-2.291,2.291" transform="translate(-497.86 -1049.923)" fill="#77a4e5"></path><path id="Trazado_6392" data-name="Trazado 6392" d="M695.3,964.107s-1.947,1.657-2.37,5.953c-.321,3.262,1.942,28.588,3.645,30.6,4.791,5.663,10.8,3.27,13.148,4.13l2.219-1.994s-7.8-5.758-8.4-7.637c-2.286-7.232-.869-28.322-8.246-31.053" transform="translate(-570.649 -794.002)" fill="#f9ddbf"></path><path id="Trazado_6393" data-name="Trazado 6393" d="M616.115,819.765s.132-4.645-5.994-5.556-7.818.521-8.86,2.083-2.995,7.942-2.8,10.48,7.182,5.678,7.068,7.159,10.585-14.167,10.585-14.167" transform="translate(-492.86 -670.317)" fill="#163560"></path><path id="Trazado_6394" data-name="Trazado 6394" d="M857.471,1489.415c-.2,1.569,1.942,2.032,4.432,2.25s1.718.71,5.115,1.466,4.8-.146,5.064-.607c.235-.409-1.331-1.12-3-1.919-.21-.1-.42-.2-.63-.305-1.876-.923-2.884-2.7-4.313-4.371-1.354-1.58-2.517-6.522-2.517-6.522l-4.61-1.181s1.148,4.452,1.534,6.349a5.918,5.918,0,0,1-.592,3.266,6.272,6.272,0,0,0-.484,1.575" transform="translate(-705.804 -1217.411)" fill="#ffb27d"></path><path id="Trazado_6395" data-name="Trazado 6395" d="M863.983,1536.542c2.49.218,1.718.71,5.114,1.466s4.8-.146,5.065-.607c.235-.409-1.331-1.12-3-1.919l-.028.028a9.579,9.579,0,0,1-5.181-.127c-2.24-.708-4.378-2.164-5.92-2.666a6.28,6.28,0,0,0-.484,1.575c-.2,1.57,1.942,2.032,4.432,2.25" transform="translate(-707.884 -1262.288)" fill="#233862"></path><path id="Trazado_6396" data-name="Trazado 6396" d="M632.436,1158.685s30.821,3.2,35.9,7.916,4.175,48.673,4.175,48.673c-.791.821-1.374.8-2.624.7a17.457,17.457,0,0,1-3.644-1.125s-6.6-21.583-6.683-26.58-1.126-13.478-3.223-13.978-27.048,2.3-29.784-5.584a16.989,16.989,0,0,1,1.807-14.365Z" transform="translate(-515.286 -950.674)" fill="#ed7d2b"></path><path id="Trazado_6397" data-name="Trazado 6397" d="M576.849,1006.935a14.026,14.026,0,0,0,7.7,2.406c7.14.26,16.049-.592,17.8-2.248a3.018,3.018,0,0,0,.74-2.035c.193-2.74-1.115-7.247-1.994-10.977-.57-2.423-.959-4.517-.641-5.587.969-3.257,3.978-9.9,4.238-12.076s-2.344-13.869-5.943-15.316-17.492,0-17.492,0c-5.427,1.1-5.655,12.672-3.853,22.52.047.254.094.506.143.756,1.953,10-4.409,20.072-.7,22.558" transform="translate(-474.095 -790.996)" fill="#f9ddbf"></path><path id="Trazado_6398" data-name="Trazado 6398" d="M639.6,930.074c-.1.635-1.835,1.664-5.548.685-3.558-.938-3.985-2.1-3.984-2.862,0-.906,1.547-2.126,1.527-7.7l.427.084L639.2,921.7s-.163,2.258-.168,4.384c0,1.786.736,2.931.574,3.987" transform="translate(-518.903 -757.841)" fill="#ffb27d"></path><path id="Trazado_6399" data-name="Trazado 6399" d="M648.314,922.095s-.163,2.257-.168,4.384c-4.014-.113-6.136-3.775-7.005-5.8Z" transform="translate(-528.019 -758.233)" fill="#ed975d"></path><path id="Trazado_6400" data-name="Trazado 6400" d="M644.536,865.334s-9.5.157-9.5-5.759-1.237-9.88,4.827-10.23,7.244,1.906,7.727,3.88-.579,11.916-3.05,12.11" transform="translate(-522.901 -699.458)" fill="#ffb27d"></path><path id="Trazado_6401" data-name="Trazado 6401" d="M629.93,843.079s-2.6,6.941-6.591,7.967-5.722-.043-5.722-.043a11.3,11.3,0,0,0,3.7-6.677s6.655-4.55,8.617-1.247" transform="translate(-508.646 -693.338)" fill="#163560"></path><path id="Trazado_6402" data-name="Trazado 6402" d="M683.751,846.6a8.386,8.386,0,0,1,2.415,3.056c.474,1.507.687,4.608,1.59,4.5,0,0,1.959-4.718-.243-7.386-2.335-2.83-3.763-.172-3.763-.172" transform="translate(-563.112 -696.298)" fill="#163560"></path><path id="Trazado_6403" data-name="Trazado 6403" d="M728.416,1480.506c-.023,1.583,2.155,1.795,4.654,1.725s1.786.508,5.245.868,4.753-.7,4.965-1.187c.188-.433-1.447-.959-3.193-1.562-.22-.075-.44-.153-.66-.231-1.967-.7-3.166-2.353-4.772-3.846-1.521-1.414,1.836-8.254,1.836-8.254l-4.4-2.178s-.835,4.883-1.909,9.155c-.278,1.1-1.183,2.922-1.459,3.888a6.292,6.292,0,0,0-.306,1.621" transform="translate(-599.896 -1207.213)" fill="#ffb27d"></path><path id="Trazado_6404" data-name="Trazado 6404" d="M577.8,1089.474c1.33.89,3.518,3.438,7.508,3.581,6.585-1.5,14.082-3.242,18.542-4.283.193-2.74-1.115-7.247-1.994-10.977-5.2,1.588-12.94-3.822-15.541-5.96-2.734-2.246-2.648-9.729-2.648-9.729l-5.5,5.23c.047.254.094.506.143.756,1.953,10-4.219,18.9-.509,21.382" transform="translate(-474.853 -874.711)" fill="#f2ccaa"></path><path id="Trazado_6405" data-name="Trazado 6405" d="M733.07,1543.115c2.5-.07,1.786.508,5.245.868s4.753-.7,4.965-1.187c.188-.433-1.447-.959-3.193-1.561l-.024.031a9.588,9.588,0,0,1-5.162.47c-2.3-.446-4.59-1.646-6.178-1.967a6.293,6.293,0,0,0-.306,1.621c-.023,1.582,2.155,1.795,4.654,1.725" transform="translate(-599.896 -1268.096)" fill="#233862"></path><path id="Trazado_6406" data-name="Trazado 6406" d="M581.413,1180.6c7.825-.223,31.2,1.643,35.687,5.028,5.526,4.167-10.262,49.227-10.262,49.227a20.388,20.388,0,0,1-2.414.112,7.739,7.739,0,0,1-3.529-1.048s.061-26.521,1.906-31.594c1.7-4.687,2.749-6.346.614-6.626s-28.788,3.12-31.012-4.926a19.929,19.929,0,0,1,.83-12.1s.962,2.135,8.181,1.929" transform="translate(-470.913 -970.707)" fill="#f99746"></path><path id="Trazado_6407" data-name="Trazado 6407" d="M572.588,964.026s-5.436.461-5.859,4.758c-.321,3.262-2.686,26.4-.983,28.414,4.791,5.663,20.767,6.863,23.119,7.723l.647-2.678s-17.055-8.593-16.795-10.545,5.083-28.445-.13-27.671" transform="translate(-465.425 -793.922)" fill="#f9ddbf"></path><path id="Trazado_6408" data-name="Trazado 6408" d="M598.49,814.036s.39-2.478-3.047-3.118-3.5,6.661-3.87,8.421.55,2.814,1.861,2.922,5.056-8.225,5.056-8.225" transform="translate(-487.13 -667.809)" fill="#163560"></path><path id="Trazado_6409" data-name="Trazado 6409" d="M697.572,1174.895s4.857-1.374,6.014-1.053,5.121,2.946,4.564,3.659-4.049-.427-5.656-.211-2.85,1.009-4.007.837a13.427,13.427,0,0,1-2.367-.626Z" transform="translate(-573.298 -966.692)" fill="#ffb27d"></path><path id="Trazado_6410" data-name="Trazado 6410" d="M704.348,1170.835a18.211,18.211,0,0,0,3.052-1.916.189.189,0,0,1,.3.034c.181.286.351.837-.483,1.386a4.484,4.484,0,0,1-2.865.5" transform="translate(-580.075 -962.632)" fill="#ffb27d"></path><path id="Trazado_6411" data-name="Trazado 6411" d="M790.474,1183.391s5.04.276,6.03.955,3.888,4.448,3.129,4.942-3.692-1.718-5.282-2.035-3.023.029-4.061-.508a13.429,13.429,0,0,1-2.035-1.36Z" transform="translate(-649.177 -974.596)" fill="#ffb27d"></path><path id="Trazado_6412" data-name="Trazado 6412" d="M505.755,1517.751H485.247c-.986-1.2-.623-5.646-.474-7.1.031-.292.052-.462.052-.462s7-5.6,7.965-1.312c.029.135.065.266.1.4,1.212,4.012,6.648,5.835,9.787,6.343a3.556,3.556,0,0,1,3.074,2.132" transform="translate(-399.085 -1241.326)" fill="#1b3051"></path><path id="Trazado_6413" data-name="Trazado 6413" d="M227.276,1189.012c.741,0,35.13,6.457,40.818,13.5,2.842,3.517,3.264,44.142,3.264,44.142s-3.516,4.359-11.108,1.828c0,0-5.567-27.794-5.156-36.225.114-2.331-23.5-.337-27.818-1.456s-14.88-10.519-12.553-15.1,12.553-6.689,12.553-6.689" transform="translate(-176.566 -979.226)" fill="#233862"></path><path id="Trazado_6414" data-name="Trazado 6414" d="M424.226,1178.195a12.679,12.679,0,0,0,4.458,2.436,20.2,20.2,0,0,1,3.276,1c2.042.937,5.916,5.121,5.555,5.537-1.155,1.333-5.807-2.14-6.7-1.894s1.46,2.264.528,2.812c-.487.286-1.4-1.458-2.263-1.7-1.161-.332-1.932-2.085-2.279-2.205a27.732,27.732,0,0,1-3.5-2.767Z" transform="translate(-348.615 -970.317)" fill="#ffb27d"></path><path id="Trazado_6415" data-name="Trazado 6415" d="M557.126,1517.751H536.618c-.986-1.2-.623-5.646-.474-7.1.031-.292.052-.462.052-.462s7-5.6,7.965-1.312c.029.135.065.266.1.4,1.212,4.012,6.648,5.835,9.787,6.343a3.556,3.556,0,0,1,3.074,2.132" transform="translate(-441.392 -1241.326)" fill="#1e3c68"></path><path id="Trazado_6416" data-name="Trazado 6416" d="M284.713,1189.012c.74,0,35.13,6.457,40.818,13.5,2.842,3.517,3.264,44.142,3.264,44.142s-3.516,4.359-11.108,1.828c0,0-5.567-27.794-5.156-36.225.114-2.331-23.5-.337-27.818-1.456s-14.88-10.519-12.553-15.1,12.553-6.689,12.553-6.689" transform="translate(-223.868 -979.226)" fill="#2b478b"></path><path id="Trazado_6417" data-name="Trazado 6417" d="M279.581,866.3a33.379,33.379,0,0,1-7.31-1.591c-2.8-.909-5.061-2.238-3.605-4.8,1.341-2.361,3.513-7.634,3.366-12l5.215,4.2,3.542,2.854a42.418,42.418,0,0,1-.4,4.632q-.106.806-.251,1.738a1.264,1.264,0,0,0,.582,1.269l.08.05a1.978,1.978,0,0,1-1.217,3.649" transform="translate(-220.888 -698.304)" fill="#ffb27d"></path><path id="Trazado_6418" data-name="Trazado 6418" d="M310.372,873.723a8.616,8.616,0,0,1-.13,2.867,14.812,14.812,0,0,1-6.11-3.034c1.608-.441,2.193-2.179,3.39-2.017Z" transform="translate(-250.472 -717.758)" fill="#ed975d"></path><path id="Trazado_6419" data-name="Trazado 6419" d="M288.234,793.077s-12.147,2.018-13.287-5.566-3.476-12.431,4.231-14.04,9.653,1.058,10.649,3.5,1.537,15.389-1.593,16.11" transform="translate(-225.413 -636.598)" fill="#ffb27d"></path><path id="Trazado_6420" data-name="Trazado 6420" d="M279.051,766.08c.522,1.826-.874,4.051-3.218,4.783-3.479,1.087-2.71,5.354-4.275,5.3s-2.2-2.453-3.595-.54c-1.193,1.632.993,3.567.842,4.462-.258,1.536-2.665,4.68-4.834,4.522s-6.227-10.465-5.416-13.653,4.058-6.551,7.131-7.015,7.34.863,8.326.863,4.756.3,5.038,1.282" transform="translate(-212.85 -629.067)" fill="#2b478b"></path><path id="Trazado_6421" data-name="Trazado 6421" d="M230.091,952.047c-.2,1.751-.572,2.941-1.151,3.328-1.811,1.213-4.212,2.721-6.892,4.214-9.5,5.3-22.511,10.412-25.157,1.457-3.108-10.517-1.066-30.266,1.982-42.532,1.755-7.067,6.608-14.481,9.889-14.474,5.591.01,13.627,1.486,16.873,9.491,1.256,3.1,3.1,13.847,4.045,23.691a81.5,81.5,0,0,1,.41,14.824" transform="translate(-160.878 -744.534)" fill="#fff"></path><path id="Trazado_6422" data-name="Trazado 6422" d="M268.21,891.112l1.266-2.852S280.7,889.4,282.6,895.851c0,0-8.676-4.6-14.394-4.74" transform="translate(-220.888 -731.538)" fill="#dfebfd"></path><path id="Trazado_6423" data-name="Trazado 6423" d="M304.223,1097.075c-.2,1.751-.572,2.941-1.151,3.328-1.811,1.213-4.212,2.721-6.892,4.214-2.8-1.7-8.537-5.756-9.88-10.536-1.754-6.25-.525-13.941-.525-13.941Z" transform="translate(-235.01 -889.563)" fill="#dfebfd"></path><path id="Trazado_6424" data-name="Trazado 6424" d="M281.114,949.709s.974,26.863,2.5,32.174c2.6,9.057,26.363,12.283,26.363,12.283a4.865,4.865,0,0,0,.775-4.221s-14.2-11.2-14.619-13.326,3.095-16.574-.917-21.826-11.408-9.8-14.1-5.083" transform="translate(-231.515 -780.517)" fill="#fff"></path><path id="Trazado_6425" data-name="Trazado 6425" d="M106.9,1360.979l-.078,0a1.062,1.062,0,0,1-1.074-1.136l4.268-42.626,3.724.332-6.129,42.855a.693.693,0,0,1-.712.576" transform="translate(-87.083 -1084.81)" fill="#77a4e5"></path><path id="Trazado_6426" data-name="Trazado 6426" d="M231.41,1360.979l-.078,0a1.062,1.062,0,0,1-1.074-1.136l4.268-42.626,3.724.332-6.129,42.855a.693.693,0,0,1-.712.576" transform="translate(-189.628 -1084.81)" fill="#77a4e5"></path><path id="Trazado_6427" data-name="Trazado 6427" d="M438.633,1360.979l.078,0a1.062,1.062,0,0,0,1.074-1.136l-4.268-42.626-3.724.332,6.129,42.855a.693.693,0,0,0,.712.576" transform="translate(-355.609 -1084.81)" fill="#77a4e5"></path><path id="Trazado_6428" data-name="Trazado 6428" d="M99.808,1063.845l-4.051-35.6c-.531-5.13,1.186-10.154,8.589-10.543l13.025-.793c7.72-.319,11.205,6.106,12.182,11.053l7.732,39.135Z" transform="translate(-78.789 -837.477)" fill="#77a4e5"></path><path id="Trazado_6429" data-name="Trazado 6429" d="M121.613,1288.9h57.808a2.118,2.118,0,0,0,2.112-2.112v-2.6a2.118,2.118,0,0,0-2.112-2.112H119.5v4.712a2.118,2.118,0,0,0,2.112,2.112" transform="translate(-98.417 -1055.867)" fill="#77a4e5"></path><path id="Trazado_6430" data-name="Trazado 6430" d="M121.141,1288.9h34.133a1.645,1.645,0,0,0,1.64-1.64v-3.544a1.645,1.645,0,0,0-1.64-1.64H119.5v5.184a1.645,1.645,0,0,0,1.64,1.64" transform="translate(-98.417 -1055.867)" fill="#77a4e5"></path><path id="Trazado_6431" data-name="Trazado 6431" d="M531.572,1565.762H16.993a.729.729,0,0,1-.727-.727v-.661a.729.729,0,0,1,.727-.727H531.572a.729.729,0,0,1,.727.727v.661a.729.729,0,0,1-.727.727" transform="translate(-13.396 -1287.762)" fill="#2e3552"></path><path id="Trazado_6432" data-name="Trazado 6432" d="M537.107,564.3H517.1a1.675,1.675,0,0,1-1.67-1.67V543.319a1.675,1.675,0,0,1,1.67-1.67h20.012a1.675,1.675,0,0,1,1.67,1.67v19.315a1.675,1.675,0,0,1-1.67,1.67" transform="translate(-424.485 -446.082)" fill="#77a4e5"></path><path id="Trazado_6433" data-name="Trazado 6433" d="M540.962,567.9H522.684a1.53,1.53,0,0,1-1.526-1.526V548.738a1.53,1.53,0,0,1,1.526-1.526h18.278a1.53,1.53,0,0,1,1.526,1.526v17.641a1.53,1.53,0,0,1-1.526,1.526" transform="translate(-429.206 -450.663)" fill="#dfebfd"></path><path id="Trazado_6434" data-name="Trazado 6434" d="M578.861,556.673a.484.484,0,1,1,.484.484.484.484,0,0,1-.484-.484" transform="translate(-476.728 -458.056)" fill="#77a4e5"></path><path id="Trazado_6435" data-name="Trazado 6435" d="M600.7,561.645a.484.484,0,1,1,.188.658.484.484,0,0,1-.188-.658" transform="translate(-494.663 -462.345)" fill="#77a4e5"></path><path id="Trazado_6436" data-name="Trazado 6436" d="M618.9,577.5a.484.484,0,1,1-.144.669.484.484,0,0,1,.144-.669" transform="translate(-509.523 -475.546)" fill="#77a4e5"></path><path id="Trazado_6437" data-name="Trazado 6437" d="M627.067,601.17a.484.484,0,1,1-.484.484.484.484,0,0,1,.484-.484" transform="translate(-516.03 -495.101)" fill="#77a4e5"></path><path id="Trazado_6438" data-name="Trazado 6438" d="M620.677,627.555a.484.484,0,1,1-.684,0,.484.484,0,0,1,.684,0" transform="translate(-510.487 -516.714)" fill="#77a4e5"></path><path id="Trazado_6439" data-name="Trazado 6439" d="M603.461,644.818a.484.484,0,1,1-.684,0,.484.484,0,0,1,.684,0" transform="translate(-496.307 -530.931)" fill="#77a4e5"></path><path id="Trazado_6440" data-name="Trazado 6440" d="M578.861,652.118a.484.484,0,1,1,.484.484.484.484,0,0,1-.484-.484" transform="translate(-476.728 -536.661)" fill="#77a4e5"></path><path id="Trazado_6441" data-name="Trazado 6441" d="M557.9,561.645a.484.484,0,1,0-.188.658.484.484,0,0,0,.188-.658" transform="translate(-458.721 -462.345)" fill="#77a4e5"></path><path id="Trazado_6442" data-name="Trazado 6442" d="M539.7,577.5a.484.484,0,1,0,.144.669.484.484,0,0,0-.144-.669" transform="translate(-443.861 -475.546)" fill="#77a4e5"></path><path id="Trazado_6443" data-name="Trazado 6443" d="M531.534,601.17a.484.484,0,1,0,.484.484.484.484,0,0,0-.484-.484" transform="translate(-437.353 -495.101)" fill="#77a4e5"></path><path id="Trazado_6444" data-name="Trazado 6444" d="M537.924,627.555a.484.484,0,1,0,.684,0,.484.484,0,0,0-.684,0" transform="translate(-442.898 -516.714)" fill="#77a4e5"></path><path id="Trazado_6445" data-name="Trazado 6445" d="M555.141,644.818a.484.484,0,1,0,.684,0,.484.484,0,0,0-.684,0" transform="translate(-457.076 -530.931)" fill="#77a4e5"></path><path id="Trazado_6446" data-name="Trazado 6446" d="M580.863,601.654a.484.484,0,1,1,.484.484.484.484,0,0,1-.484-.484" transform="translate(-478.377 -495.101)" fill="#77a4e5"></path><rect id="Rect&#xE1;ngulo_3993" data-name="Rect&#xE1;ngulo 3993" width="0.132" height="6.043" transform="translate(102.904 100.51)" fill="#77a4e5"></rect><rect id="Rect&#xE1;ngulo_3994" data-name="Rect&#xE1;ngulo 3994" width="4.073" height="0.396" transform="translate(102.786 106.388) rotate(-38.13)" fill="#77a4e5"></rect></g></g></g></svg>