<svg xmlns="http://www.w3.org/2000/svg" xmlns:xlink="http://www.w3.org/1999/xlink" width="521.98" height="249.999" viewBox="0 0 521.98 249.999"><defs><clipPath id="clip-path"><rect id="Rect&#xE1;ngulo_3073" data-name="Rect&#xE1;ngulo 3073" width="521.98" height="249.999" fill="none"></rect></clipPath><clipPath id="clip-path-2"><rect id="Rect&#xE1;ngulo_3057" data-name="Rect&#xE1;ngulo 3057" width="51.346" height="60.405" fill="none"></rect></clipPath><clipPath id="clip-path-3"><rect id="Rect&#xE1;ngulo_3058" data-name="Rect&#xE1;ngulo 3058" width="2.593" height="11.084" fill="none"></rect></clipPath><clipPath id="clip-path-4"><rect id="Rect&#xE1;ngulo_3071" data-name="Rect&#xE1;ngulo 3071" width="10.901" height="24.296" fill="none"></rect></clipPath><clipPath id="clip-path-5"><rect id="Rect&#xE1;ngulo_3072" data-name="Rect&#xE1;ngulo 3072" width="19.355" height="29.646" fill="none"></rect></clipPath></defs><g id="Grupo_736" data-name="Grupo 736" transform="translate(0 -0.001)"><g id="Grupo_737" data-name="Grupo 737"><g id="Grupo_734" data-name="Grupo 734" transform="translate(0 0.001)"><g id="Grupo_733" data-name="Grupo 733" clip-path="url(#clip-path)"><path id="Trazado_3925" data-name="Trazado 3925" d="M1756.006,1174.239c0,.021-.006.045-.009.068a28.251,28.251,0,0,1-.774,3.74,22.216,22.216,0,0,1-2.181,5.3c-2.922,4.929-8.464,10.414-21.754,12.2-.644.085-1.308.167-1.989.235q-1.86.19-3.912.284c-.087,0-.174.007-.261.009s-.174.008-.263.01a64.428,64.428,0,0,1-13.015-1.95c-9.9-2.349-16.352-7.185-20.431-13.068a0,0,0,0,1,0,0q-.52-.749-.99-1.52a32.47,32.47,0,0,1-2.122-4.13,43.269,43.269,0,0,1-3.214-16.287,53.778,53.778,0,0,1,1.721-12.776,23.193,23.193,0,0,1,3.148-7.007,19.024,19.024,0,0,1,1.2-1.6,17.8,17.8,0,0,1,4.884-4.113c4.73-2.7,20.287-5.381,33.464,1.573,24.256,12.8,27.907,28.608,26.5,39.025" transform="translate(-1629.686 -972.828)" fill="#2d457a"></path><path id="Trazado_3824" data-name="Trazado 3824" d="M2304.711,1170.178h0a2.1,2.1,0,0,0-.3.037,52.079,52.079,0,0,1-5.851-.61s1.4,5.914,2.175,6.141c2.089.616,3.847,2.458,5.6,2.882a2.352,2.352,0,0,0,2.705-2.074,2.136,2.136,0,0,0-.226-1.192l-2.077-4.025a2.158,2.158,0,0,0-2.033-1.159" transform="translate(-1977.461 -1006.215)" fill="#e7b2b6"></path><path id="Trazado_3825" data-name="Trazado 3825" d="M2290.659,1163.344l3.619.755.734,6.78-4.471-.02Z" transform="translate(-1970.558 -1000.829)" fill="#d0d6ec"></path><path id="Trazado_3826" data-name="Trazado 3826" d="M2108.487,906.57l-.117,7.515s-6.394.248-12.8-.008c-5.631-.222-11.276-.833-12.6-2.34-1.514-1.719-2.6-14.943-3.288-26.906-.6-10.461-.89-19.958-.89-19.958s4.832,2.262,5.692,2.845c3.658,2.479,9.085,34.3,9.085,34.3s13.158,3.854,14.923,4.548" transform="translate(-1788.386 -744.054)" fill="#dfe5f4"></path><path id="Trazado_3827" data-name="Trazado 3827" d="M2436.106,1726.948l1.433,5.461,14.87.006s-3.716-7.215-16.3-5.467" transform="translate(-2095.788 -1485.463)" fill="#221e50"></path><path id="Trazado_3828" data-name="Trazado 3828" d="M1946.974,1559.78a4.21,4.21,0,0,1-2.7.711c-2.15,0-2.7-.711-2.7-.711v-30.194h5.4Z" transform="translate(-1670.344 -1315.907)" fill="#b9c0d6"></path><path id="Trazado_3829" data-name="Trazado 3829" d="M1756.006,1174.239c0,.021-.006.045-.009.068a28.251,28.251,0,0,1-.774,3.74,22.216,22.216,0,0,1-2.181,5.3c-2.922,4.929-8.464,10.414-21.754,12.2-.644.085-1.308.167-1.989.235q-1.86.19-3.912.284c-.087,0-.174.007-.261.009s-.174.008-.263.01a64.428,64.428,0,0,1-13.015-1.95c-9.9-2.349-16.352-7.185-20.431-13.068a0,0,0,0,1,0,0q-.52-.749-.99-1.52a32.47,32.47,0,0,1-2.122-4.13,43.269,43.269,0,0,1-3.214-16.287,53.778,53.778,0,0,1,1.721-12.776,23.193,23.193,0,0,1,3.148-7.007,19.024,19.024,0,0,1,1.2-1.6,17.8,17.8,0,0,1,4.884-4.113c4.73-2.7,20.287-5.381,33.464,1.573,24.256,12.8,27.907,28.608,26.5,39.025" transform="translate(-1449.686 -972.828)" fill="#2d457a"></path><path id="Trazado_3830" data-name="Trazado 3830" d="M1830.967,1744.376H1786.2a1.9,1.9,0,0,1,0-3.8h44.766a1.9,1.9,0,1,1,0,3.8" transform="translate(-1535.04 -1497.424)" fill="#b9c0d6"></path><path id="Trazado_3831" data-name="Trazado 3831" d="M1788.857,1454.046a18.256,18.256,0,0,1-2.955,7.463c-2.922,4.066-8.465,8.593-21.754,10.072-.644.07-1.308.136-1.989.191q-1.86.159-3.912.235c-.087,0-.174.008-.261.008s-.174.008-.263.01a64.425,64.425,0,0,1-13.015-1.95c-9.9-2.349-16.352-7.185-20.431-13.068,0,0,0,0,0,0q-.519-.75-.99-1.52c7.512-1.792,23.558-4.934,39.5-3.651,8.648.7,17.618,1.467,25.3,2.145l.774.068" transform="translate(-1482.546 -1248.758)" fill="#c5592d"></path><path id="Trazado_3832" data-name="Trazado 3832" d="M1737.068,856.063s-4.147-1.16-4.319-1.175c.193.3-1.764,2.5-5.879,3.083a3.434,3.434,0,0,1-1.433.814c-5.211.269-11.164-2.491-11.775-4.153-13.554,2.652-14.473,3.907-14.831,4.275-10.214,10.514-16.155,35.625-17.223,40.451a1.226,1.226,0,0,0,.532,1.294,39.142,39.142,0,0,0,11.523,4.778,48.364,48.364,0,0,0,5.892,1.094c.712,6.076,2.3,9.672,3.81,11.561,0,0,6.727-.095,14.062-.375,8.336-.322,18.7-.592,19.641-1.531,1.318-1.321,6.07-33.569,0-60.117m-38.1,35.287c-.24,3.384.271,1.953.261,4.492-.967-.326-1.829-.634-2.5-.912a3.812,3.812,0,0,1-1.546-.878s1.588-2.364,3.091-5.112a37.159,37.159,0,0,0,1.834-3.787,18.048,18.048,0,0,0-1.135,6.2" transform="translate(-1446.667 -735.243)" fill="#dfe5f4"></path><path id="Trazado_3833" data-name="Trazado 3833" d="M1942.969,782.017s1.137,9.325,1.266,10.643l-7.546,1.165-4.956-4.1a22.772,22.772,0,0,0,1.95-11.42Z" transform="translate(-1661.874 -669.576)" fill="#ed975d"></path><path id="Trazado_3834" data-name="Trazado 3834" d="M1791.842,1089.8a42.888,42.888,0,0,0-13.927,3.2c-1.51-1.889-3.233-8.313-3.945-14.389a48.36,48.36,0,0,1-5.892-1.094c1.105-3.82,2.247-7.711,3.066-10.5.676.278,1.537.587,2.5.912.009-2.538-.5-1.107-.261-4.492.229-3.227,1.136-8.453,2.824-8.765s2.111,7.668,2.877,14.991a49.47,49.47,0,0,0,1.592,9.33,6.3,6.3,0,0,0,.926,1.895c3.149,3.96,11.092,6.485,10.236,8.911" transform="translate(-1521.082 -907.329)" fill="#d0d6ec"></path><path id="Trazado_3835" data-name="Trazado 3835" d="M1949.3,698.359s-10.811.494-11.015-6.243-1.737-11.211,5.157-11.811,8.313,1.93,8.928,4.162-.263,13.59-3.071,13.892" transform="translate(-1667.269 -585.191)" fill="#ffb27d"></path><path id="Trazado_3836" data-name="Trazado 3836" d="M1922.177,649.648s.808-8.99,10.439-8.668,5.464-8.787-2.811-10.129c0,0,.864,3.21-4.342,3.717-10.927,1.064-4.257,13.654-3.286,15.08" transform="translate(-1651.157 -542.724)" fill="#2d457a"></path><path id="Trazado_3837" data-name="Trazado 3837" d="M1975.179,881.8l4.964-.527a.736.736,0,0,1,.5.918c-.12.782-1.756,2.9-2.373,3s-4.439-1.958-3.094-3.4" transform="translate(-1699.006 -758.166)" fill="#ef8220"></path><path id="Trazado_3838" data-name="Trazado 3838" d="M1809.936,1300.7s6.254,16.278,26.7,16.666c32.1.609,32.1.729,32.1.729s-2.447,15.54,20.329,36.628h12.823l-24.62-60.015-41.9-1.58s-29.289-.659-31.593,3.381c-.5.878,6.159,4.19,6.159,4.19" transform="translate(-1551.771 -1112.452)" fill="#333383"></path><path id="Trazado_3841" data-name="Trazado 3841" d="M1998.538,845.177s-.826,3.689-3,5.473l3.36,4.37s4.071-4.818,3.951-8.267a27.2,27.2,0,0,0-4.306-1.576" transform="translate(-1716.762 -727.109)" fill="#d0d6ec"></path><path id="Trazado_3842" data-name="Trazado 3842" d="M1999.751,845.177s-.629,3.472-2.808,5.257l3.229,3.975s3.543-4.119,3.886-7.655a27.2,27.2,0,0,0-4.307-1.576" transform="translate(-1717.975 -727.109)" fill="#dfe5f4"></path><path id="Trazado_3843" data-name="Trazado 3843" d="M1912.45,845.177s5.139,4.869,8.5,5.257l-2.3,5.742s-10.01-5.93-10.04-9.483c0,0,2.755-1.484,3.84-1.516" transform="translate(-1641.982 -727.109)" fill="#d0d6ec"></path><path id="Trazado_3844" data-name="Trazado 3844" d="M1915.076,843.781s4.772,5.064,8.134,5.451l-1.863,5.292s-10.081-5.675-10.11-9.228c0,0,2.755-1.484,3.84-1.516" transform="translate(-1644.241 -725.908)" fill="#dfe5f4"></path><path id="Trazado_3845" data-name="Trazado 3845" d="M1697.171,1135.079s14.937,4.081,16.31,5.71l-.118,7.515s-15.613.987-26.9-6.077a.924.924,0,0,1-.006-1.563c2.723-1.731,9.264-5.771,10.713-5.585" transform="translate(-1450.495 -976.506)" fill="#dfe5f4"></path><path id="Trazado_3846" data-name="Trazado 3846" d="M2111.717,1002.223c-5.631-.222-11.586-.608-12.6-2.339-3.4-5.8-.057-20.588-.742-32.55,5.395,10.978,1.4,19.732,2.429,25.466,1.024,5.686,6.127,8.264,10.916,9.424" transform="translate(-1804.536 -832.2)" fill="#d0d6ec"></path><path id="Trazado_3847" data-name="Trazado 3847" d="M1981.5,1362.382a7.245,7.245,0,0,1-1.811-.628,6.982,6.982,0,0,0-1.644-.582c-6.37-.929-12.144-2.066-17.238-3.069q-2-.395-3.927-.768c-11.593-2.233-18.171-3.456-18.237-3.464.066.008,6.691.838,18.3,3.073q1.926.371,3.929.768c5.089,1,10.858,2.138,17.217,3.066a7.26,7.26,0,0,1,1.757.615,6.964,6.964,0,0,0,1.695.595c1.676.232,1.636.626-.041.394" transform="translate(-1667.823 -1164.739)" fill="#2b295e"></path><path id="Trazado_3848" data-name="Trazado 3848" d="M2213.759,1166.6l-.148-.417c-.013-.034-.024-.068-.036-.1l-.027-.074-.04-.112c-.011-.036-.023-.066-.032-.091s-.015-.045-.021-.059Z" transform="translate(-1904.242 -1002.902)" fill="#2b295e"></path><path id="Trazado_3849" data-name="Trazado 3849" d="M2213.456,1165.754c.005.013.011.032.021.059s.021.055.032.091l.04.112.027.074c.011.03.023.064.036.1l.148.417.074.206Z" transform="translate(-1904.242 -1002.902)" fill="#2b295e"></path><path id="Trazado_3850" data-name="Trazado 3850" d="M2213.456,1165.754c.005.013.011.032.021.059Z" transform="translate(-1904.242 -1002.902)" fill="#2b295e"></path><path id="Trazado_3851" data-name="Trazado 3851" d="M2328.214,1482.909l-.11.03c-3.926-7.007-8.154-15.466-12.078-24.451-.6-1.372-1.207-2.79-1.807-4.209-.66-1.565-1.319-3.155-1.959-4.724a5.664,5.664,0,0,1-.314-1.45v0c.115-.169.227-.341.339-.513,0,.013,0,.026,0,.04a6.984,6.984,0,0,0,.333,1.764c.638,1.567,1.3,3.155,1.957,4.719.6,1.418,1.208,2.834,1.806,4.206,3.918,8.972,7.91,17.6,11.83,24.591" transform="translate(-1988.972 -1245.366)" fill="#2b295e"></path><path id="Trazado_3852" data-name="Trazado 3852" d="M1982.7,903.787s-.941,8.881-1.108,11.852c-.47,8.358-.643,33.48-.643,33.48a5.707,5.707,0,0,0,1.217,3.942,22.478,22.478,0,0,0,2.993,2.947,11.075,11.075,0,0,0,3-5.41c.567-2.35-.794-22.075-2.167-35.214a117.8,117.8,0,0,0-1.829-11.775s-1.122-.2-1.462.179" transform="translate(-1704.198 -777.333)" fill="#ef8220"></path><path id="Trazado_3853" data-name="Trazado 3853" d="M1906.565,1188.5l-1.867-3.618a1.939,1.939,0,0,0-1.827-1.042h0c-.089,0-5.525-.515-5.525-.515s2.877,7.224,3.4,7.767a1.006,1.006,0,0,0,.716.306c1.267.008,5-.086,5.236-1.477a1.957,1.957,0,0,0,.068-.35,1.918,1.918,0,0,0-.2-1.072" transform="translate(-1632.291 -1018.02)" fill="#ffb27d"></path><path id="Trazado_3854" data-name="Trazado 3854" d="M1881.8,1175.99l3.618.755.734,6.78-4.471-.02Z" transform="translate(-1618.814 -1011.708)" fill="#d0d6ec"></path><path id="Trazado_3855" data-name="Trazado 3855" d="M955.982,1252.831h0a1.134,1.134,0,0,0-.135.088,28.2,28.2,0,0,1-3,1.1s.183,2.468.235,2.507l6.883-.3-.3-1.109a1.174,1.174,0,0,0-.056-.208,1.156,1.156,0,0,0-.394-.527l-1.971-1.467a1.17,1.17,0,0,0-1.267-.081" transform="translate(-819.739 -1077.687)" fill="#e7b2b6"></path><path id="Trazado_3856" data-name="Trazado 3856" d="M927.844,1610.931l1.028,8.094,4.206.129,2.72-11.718Z" transform="translate(-798.227 -1382.883)" fill="#e7b2b6"></path><path id="Trazado_3857" data-name="Trazado 3857" d="M928.469,1667.154l-.624,4.5,11.844,5.453s-.578-6.72-11.22-9.951" transform="translate(-798.227 -1434.257)" fill="#d35c2b"></path><path id="Trazado_3858" data-name="Trazado 3858" d="M1112.982,1671.036l5.714,5.824,3.428-2.441-4.922-10.977Z" transform="translate(-957.501 -1431.064)" fill="#e7b2b6"></path><path id="Trazado_3859" data-name="Trazado 3859" d="M1136.355,1741.1l1.314,4.346h13.04s-3.336-5.863-14.353-4.346" transform="translate(-977.609 -1497.66)" fill="#d35c2b"></path><path id="Trazado_3860" data-name="Trazado 3860" d="M683.647,1552.759a4.322,4.322,0,0,1-2.77.73c-2.207,0-2.77-.73-2.77-.73v-31h5.54Z" transform="translate(-583.377 -1309.174)" fill="#b9c0d6"></path><path id="Trazado_3862" data-name="Trazado 3862" d="M564.542,1742.285H518.58a1.949,1.949,0,0,1,0-3.9h45.961a1.949,1.949,0,0,1,0,3.9" transform="translate(-444.459 -1495.538)" fill="#b9c0d6"></path><path id="Trazado_3863" data-name="Trazado 3863" d="M512.72,1412.838a25.6,25.6,0,0,1-3.034,9.287c-3,5.058-8.691,10.69-22.335,12.531-.661.087-1.343.169-2.043.239q-1.909.2-4.017.292c-.179.007-.357.015-.538.019a66.151,66.151,0,0,1-13.362-2c-10.165-2.412-16.788-7.377-20.976-13.415a0,0,0,0,1,0,0,32.7,32.7,0,0,1-2.412-4.744c6.959-2.11,24.515-6.66,41.949-4.959,9.178.9,18.71,1.893,26.769,2.754" transform="translate(-381.976 -1212.779)" fill="#c5592d"></path><path id="Trazado_3864" data-name="Trazado 3864" d="M532.963,819.673c-3.094-3.068-2.7-26.919-2.732-28.376-.1-4.212-1.694-5.972-1.694-5.972-.817-2.231-14.116-3.366-17.452,5.145-2.14,5.461-7.615,16.079-7.615,16.079-22.372,31.042-13.482,46.357-13.482,46.357l.956-.106c-.329-1.016-.589-2.452-.253-3.062l.911,3.04,16.527-2.126a50.121,50.121,0,0,1,1.4-8.128l.078,8.406,2.218.117c-.878-17.725,2.888-26.428,4-28.586-.956,9.854,3.813,25.923,3.813,25.923l.683-.154-1.549-8.034,1.981,7.937,1.92-.437q-.459-1.6-.843-3.13c.528,1.963.843,3.13.843,3.13,4.117-4.48,11.66-4.083,11.66-4.083,4.1-5.761-1.375-23.943-1.375-23.943" transform="translate(-420.038 -674.239)" fill="#a9453d"></path><path id="Trazado_3865" data-name="Trazado 3865" d="M683.863,894.478s-1.282,7.45,3.356,10.966L682.8,913.2l-8.122-9.549a52.991,52.991,0,0,0,.805-11.722Z" transform="translate(-580.429 -767.328)" fill="#ffb27d"></path><path id="Trazado_3866" data-name="Trazado 3866" d="M684.477,832.47s-10.064,1.837-11.112-4.448-3.052-10.28,3.329-11.719,8.033.751,8.893,2.763,1.481,12.764-1.11,13.4" transform="translate(-578.313 -701.869)" fill="#ffb27d"></path><path id="Trazado_3867" data-name="Trazado 3867" d="M619.146,794.292s-12.535,9.66-11.428,16.8c1.04,6.7-.933,7.3-2.4,7.939-3.784,1.65-8.745-1.366-10.711-1.269-1.4.069,2.2-1.615,4.481-4.668,6.081-8.122,5.489-19.1,6.7-19.886,8.269-5.384,13.354,1.088,13.354,1.088" transform="translate(-511.273 -680.555)" fill="#a9453d"></path><path id="Trazado_3868" data-name="Trazado 3868" d="M809.407,1030.867a69.034,69.034,0,0,1-11.8-1.634c-8.59-2.416-9.853-3.531-11.116-11.887a105.989,105.989,0,0,1-.657-22.591c.043-.606.087-1.162.132-1.661.163-1.866.311-2.952.311-2.952a8.97,8.97,0,0,1,5.947,7.285c1.106,6.957,1.862,20.034,2.616,22.428.429,1.364,14.056,8.3,14.056,8.3l.395,2.093Z" transform="translate(-675.785 -851.821)" fill="#ef8220"></path><path id="Trazado_3869" data-name="Trazado 3869" d="M809.407,1059.278a69.034,69.034,0,0,1-11.8-1.634c-8.59-2.416-9.853-3.531-11.116-11.887a105.988,105.988,0,0,1-.657-22.591c1.333.579,2.647,2.5,3.28,7.336,1.555,11.854-1.166,19.239,3.692,22.64,4.052,2.835,12.832,4.831,16.484,5.513Z" transform="translate(-675.785 -880.232)" fill="#d0d6ec"></path><path id="Trazado_3870" data-name="Trazado 3870" d="M539.5,985.522a4.36,4.36,0,0,1-.223-.422,6.939,6.939,0,0,1-.585-2.085,35.959,35.959,0,0,0-1.846-6.627l-5.558-2.233c.076.119,2.721,4.322-4.042,4.271-2.622-.019-3.718-2.392-4.47-4.161l-8.292,1.959s-4.582.849-5.636,2.59c-7.727,12.789-12.288,24.575-13.226,28.316a2.165,2.165,0,0,0,.661,1.936c1.391,1.036,2.439,1.3,6.866,2.1.746.136,1.465.239,2.153.315a27.15,27.15,0,0,0,7.3-.124c-1.475,4.878-3.646,10-3.646,10a8.707,8.707,0,0,0,2.437.931c.425.115,17.482,2.9,18.044,3.012,2.151.424,9.678-3.763,9.678-3.763s-4.884-6-.982-18.708c1.926-6.269,3.24-14.124,1.372-17.317m-31.92,19.554a22.532,22.532,0,0,0-3.367-.7c7.015-9.8,7.669-10.411,7.735-10.491a.063.063,0,0,1,0,.012c.085.33,1.978,7.589,1.978,10.861a14.2,14.2,0,0,1-.093,2.236,60.274,60.274,0,0,0-6.257-1.921" transform="translate(-426.349 -838.069)" fill="#f99746"></path><path id="Trazado_3871" data-name="Trazado 3871" d="M602.916,1124.189c-.937,3.5-2.911,8.292-6.069,9.847a10.038,10.038,0,0,1-3.146.729,8.706,8.706,0,0,1-2.437-.931s5.339-10.821,4.979-16.606a95.276,95.276,0,0,0-1.978-10.861c.414-.789.972-1.51,1.627-1.481,1.424.064,7.964,15.805,7.025,19.3" transform="translate(-508.666 -950.536)" fill="#ef8220"></path><path id="Trazado_3872" data-name="Trazado 3872" d="M573.373,1309.281c-.6,1.254-8.5,15.47,4.616,19.26s41.485,2.764,41.485,2.764,3.009,11.891,6.72,17.117c5.959,8.393,16.583,17.806,16.583,17.806h12.163s-21.039-45.576-25.315-48.685c-3.127-2.274-18.859-6.3-27.556-7.648-2.118-.329-14.939-.717-18.371-.852-5.378-.211-9.994-.458-10.327.239" transform="translate(-490.776 -1125.982)" fill="#555ca5"></path><path id="Trazado_3873" data-name="Trazado 3873" d="M796.687,1280.3s26.772-8.18,31.883-5.242c9.083,5.219-6.462,51.641-6.462,51.641l-8.958-1.435s-1.676-12.555-.339-20.986c.777-4.9,3.6-17.531,3.6-17.531s-6.84-2.777-9.2-3.461c-2.964-.859-10.527-2.985-10.527-2.985" transform="translate(-685.392 -1096.387)" fill="#333383"></path><path id="Trazado_3876" data-name="Trazado 3876" d="M634.1,1213.556h0a1.193,1.193,0,0,0-.161-.017,11.49,11.49,0,0,1-2.144-.837l-.449,2.448c.005.063-.289.833.036,1.269,2.065,2.769,2.818,2.4,2.818,2.4l1.314-1.162a1.2,1.2,0,0,0,.088-.2,1.158,1.158,0,0,0,.028-.657l-.6-2.382a1.171,1.171,0,0,0-.93-.863" transform="translate(-543.045 -1043.291)" fill="#f99746"></path><path id="Trazado_3877" data-name="Trazado 3877" d="M688.968,1381.624a7.445,7.445,0,0,1-1.859-.645,7.179,7.179,0,0,0-1.688-.6c-6.54-.954-12.468-2.121-17.7-3.151q-2.058-.405-4.032-.788c-11.9-2.293-18.656-3.548-18.724-3.557.067.008,6.87.86,18.789,3.156q1.978.381,4.034.789c5.225,1.029,11.148,2.2,17.677,3.147a7.476,7.476,0,0,1,1.8.631,7.141,7.141,0,0,0,1.74.611c1.721.238,1.68.643-.042.4" transform="translate(-554.867 -1181.097)" fill="#333383"></path><path id="Trazado_3878" data-name="Trazado 3878" d="M883.435,1148.211c.006.013.012.033.021.06Z" transform="translate(-760.021 -987.809)" fill="#333383"></path><path id="Trazado_3879" data-name="Trazado 3879" d="M1001.257,1473.834l-.113.031c-4.031-7.194-8.372-15.879-12.4-25.1-.616-1.409-1.24-2.864-1.856-4.322-.678-1.607-1.355-3.24-2.011-4.851a5.812,5.812,0,0,1-.323-1.489v0c.118-.173.233-.35.348-.526,0,.013,0,.027,0,.041a7.172,7.172,0,0,0,.342,1.811c.655,1.609,1.331,3.24,2.009,4.844.616,1.456,1.24,2.909,1.854,4.318,4.023,9.211,8.121,18.065,12.146,25.248" transform="translate(-847.014 -1236.747)" fill="#333383"></path><path id="Trazado_3880" data-name="Trazado 3880" d="M883.456,1148.27l-.021-.06c.006.014.012.033.021.06" transform="translate(-760.021 -987.809)" fill="#333383"></path><path id="Trazado_3881" data-name="Trazado 3881" d="M497.868,1188.821s3.757-1.247,11.628,1.182c6.386,1.971,5.668,1.879,5.668,1.879l-.566,3.336a25.74,25.74,0,0,1-15.928-.6s-3.728-.824-2.886-3.452,2.085-2.344,2.085-2.344" transform="translate(-426.417 -1022.471)" fill="#ef8220"></path><path id="Trazado_3924" data-name="Trazado 3924" d="M0,0H450.475V72.234H0Z" transform="translate(49.7 175.137)" fill="#c8d3f8"></path><path id="Trazado_3882" data-name="Trazado 3882" d="M520.7,1770.773H1.278a1.314,1.314,0,0,0,0,2.627H520.7a1.314,1.314,0,0,0,0-2.627" transform="translate(0 -1523.401)" fill="#405c9c"></path><rect id="Rect&#xE1;ngulo_3056" data-name="Rect&#xE1;ngulo 3056" width="466.453" height="5.376" transform="translate(44.31 170.651)" fill="#405c9c"></rect><path id="Trazado_3883" data-name="Trazado 3883" d="M736.706,1054.673h33.881l-7.4,23.316H728.692Z" transform="translate(-626.895 -907.338)" fill="#405c9c"></path><path id="Trazado_3884" data-name="Trazado 3884" d="M2156.63,1054.673h33.881l-8.807,23.316h-33.089Z" transform="translate(-1848.459 -907.338)" fill="#405c9c"></path><path id="Trazado_3885" data-name="Trazado 3885" d="M904.584,949.178h13.1a18.51,18.51,0,0,1,6.575,17.024l-14.571,1.061s3.195-9.355-5.1-18.085" transform="translate(-778.216 -816.581)" fill="#dfe5f4"></path><path id="Trazado_3886" data-name="Trazado 3886" d="M1188.04,894.826a86.48,86.48,0,0,0,4.233,11.739l5.6-1.922a56.723,56.723,0,0,1-.862-12.549Z" transform="translate(-1022.074 -767.472)" fill="#ed975d"></path><path id="Trazado_3887" data-name="Trazado 3887" d="M1075.389,1306.064s-40.557,5.507-45.952,14.257c0,0-2.674,3.932,1.5,15.226s14.773,29.835,14.773,29.835h6.046s-9.28-35.876-9.592-37.436c0,0,30.566,3.581,34.624-2.312s-1.4-19.57-1.4-19.57" transform="translate(-884.901 -1123.611)" fill="#ed975d"></path><path id="Trazado_3888" data-name="Trazado 3888" d="M989.28,1306.064s-39.3,5.507-44.691,14.257c0,0-2.674,3.932,1.5,15.226s14.773,29.835,14.773,29.835h6.046s-9.28-35.876-9.592-37.436c0,0,30.566,3.581,34.624-2.312s-1.4-19.57-1.4-19.57Z" transform="translate(-811.906 -1123.611)" fill="#ffb27d"></path><path id="Trazado_3889" data-name="Trazado 3889" d="M951.178,975.758c-3.189,1.594-19.719,17.766-19.719,17.766s-8.238-10.925-9.5-13.163a1.236,1.236,0,0,1-.061-.376,4.987,4.987,0,0,0-2.608-3.78c-1.6-.978-1.088-.863-2.212-1.581s-1.373,1.056-1.373,1.056a5.106,5.106,0,0,0,3.081,5.266.764.764,0,0,1,.452.706s4.654,18.232,12.224,21.91c0,0,18.982-11.122,19.719-16.925s6.756-12.168,6.756-12.168a14.822,14.822,0,0,0-6.756,1.289" transform="translate(-787.767 -838.325)" fill="#ffb27d"></path><path id="Trazado_3890" data-name="Trazado 3890" d="M1089.975,1026.645c-5.16,3.821-41.767,1.637-41.767,1.637.382-.864.239-2.891-.134-5.258-.8-5.1-2.675-11.783-2.675-11.783,7.726-3.063,27.606-6.3,27.8-7.514.152-.951-6.094-12.2-9.4-17.709,0-.007-.008-.015-.013-.021l0,0a32.8,32.8,0,0,0-1.851-2.891c-1.223-1.418-.509-7.147-.727-7.42,0,0,0,0,0,0-.26-.223-3.556,3.114-3.556,3.114-.327-2.807-5.492-10.708-5.492-10.708s9.4-8.605,10.786-9.418c1.963-1.154,12.876-2.845,20.516-3.282,4.331-.247,5.4,5.891,5.765,13.115.278,5.516.149,11.667.751,16.09,1.388,10.218,8.979,21,9.416,27.761s-4.256,10.477-9.416,14.3" transform="translate(-899.359 -821.912)" fill="#f2d370"></path><path id="Trazado_3891" data-name="Trazado 3891" d="M1166.022,824.537s10.774,1.967,11.9-4.761,3.268-11.006-3.564-12.546-8.6.8-9.52,2.958-1.586,13.664,1.188,14.349" transform="translate(-1001.422 -694.035)" fill="#ffb27d"></path><path id="Trazado_3892" data-name="Trazado 3892" d="M1189.147,838.664l-2.2.133-.643-2.437v2.475l-7.659.46a108.453,108.453,0,0,0-1.1-11.968c.228,3.084.5,9.279.358,12.086l-2.25.062s-2.629-25.946-7.039-29.032c-6.972-4.88-4.413-9.08-4.413-9.08,2.3-6.008,11.969-5.859,15.448-2.871,6.816,5.849,9.5,40.173,9.5,40.173" transform="translate(-1001.167 -685.21)" fill="#2d457a"></path><path id="Trazado_3893" data-name="Trazado 3893" d="M1261.408,1009.376a6.691,6.691,0,0,1,.159,1.11c-.092-.65-.152-1.056-.159-1.11" transform="translate(-1085.192 -868.369)" fill="#555ca5"></path><g id="Grupo_723" data-name="Grupo 723" transform="translate(148.715 146.586)" opacity="0.2"><g id="Grupo_722" data-name="Grupo 722"><g id="Grupo_721" data-name="Grupo 721" clip-path="url(#clip-path-2)"><path id="Trazado_3894" data-name="Trazado 3894" d="M1106.448,1107.459c-5.16,3.821-41.767,1.637-41.767,1.637.381-.864.239-2.891-.134-5.258,7.355-.047,28.734-.29,34.129-1.483,6.548-1.449,6.382-17.175,2.456-25.807-3.907-8.587,4.516-26.257,4.566-27.236.278,5.517.149,11.667.751,16.09,1.388,10.218,8.979,21,9.416,27.761s-4.256,10.477-9.416,14.3" transform="translate(-1064.547 -1049.312)" fill="#de8f39"></path></g></g></g><g id="Grupo_726" data-name="Grupo 726" transform="translate(161.835 152.995)" opacity="0.2"><g id="Grupo_725" data-name="Grupo 725"><g id="Grupo_724" data-name="Grupo 724" clip-path="url(#clip-path-3)"><path id="Trazado_3895" data-name="Trazado 3895" d="M1161.066,1106.28a32.781,32.781,0,0,0-1.852-2.891c-1.223-1.418-.509-7.147-.727-7.42,0,0,0,0,0,0a1.851,1.851,0,0,1,1.683-.761c1.8.164-.755,8.245.9,11.076" transform="translate(-1158.474 -1095.195)" fill="#de8f39"></path></g></g></g><path id="Trazado_3896" data-name="Trazado 3896" d="M1099.747,1724.264l-1.527,6.19H1083.07s3.876-8.35,16.678-6.19" transform="translate(-931.768 -1483.082)" fill="#2d457a"></path><path id="Trazado_3897" data-name="Trazado 3897" d="M1018.521,1724.264l-1.527,6.19h-15.151s3.876-8.35,16.677-6.19" transform="translate(-861.888 -1483.082)" fill="#2d457a"></path><path id="Trazado_3898" data-name="Trazado 3898" d="M1114.56,1545.739a2.079,2.079,0,0,1-2.073,2.073h-48.879a2.073,2.073,0,1,1,0-4.147h21.916v-32.183h5.891v32.183h21.071a2.079,2.079,0,0,1,2.073,2.073" transform="translate(-913.241 -1300.333)" fill="#405c9c"></path><path id="Trazado_3899" data-name="Trazado 3899" d="M1197.068,1090.138c-2.537,15.785-6.214,38.522-6.833,41.545-.96,4.691-10.246,4.595-32.658,4.188-3.769-.069-7.135-.109-10.123-.128-2.156-.014-4.116-.019-5.891-.014-10.4.024-14.483.319-14.483.319s-6.279-11.573,30.5-7.775c4.168.43,5.992-20.542,6.781-36.874a18.512,18.512,0,0,1,19.708-17.575,14.092,14.092,0,0,1,13,16.314" transform="translate(-969.279 -923.779)" fill="#ef8220"></path><path id="Trazado_3900" data-name="Trazado 3900" d="M438,22.911V.005h-4.69V22.911H371.763V70.618H497.549V22.911Z" transform="translate(-319.829 -0.005)" fill="#d0d6ec"></path><rect id="Rect&#xE1;ngulo_3059" data-name="Rect&#xE1;ngulo 3059" width="121.508" height="43.26" transform="translate(54.191 24.933)" fill="#c8d3f8"></rect><rect id="Rect&#xE1;ngulo_3060" data-name="Rect&#xE1;ngulo 3060" width="20.542" height="34.632" transform="translate(59.593 28.838)" fill="#fff"></rect><rect id="Rect&#xE1;ngulo_3061" data-name="Rect&#xE1;ngulo 3061" width="86.375" height="4.358" transform="translate(85.191 28.839)" fill="#fff"></rect><rect id="Rect&#xE1;ngulo_3062" data-name="Rect&#xE1;ngulo 3062" width="86.375" height="4.358" transform="translate(85.191 36.943)" fill="#fff"></rect><rect id="Rect&#xE1;ngulo_3063" data-name="Rect&#xE1;ngulo 3063" width="86.375" height="4.358" transform="translate(85.191 46.155)" fill="#fff"></rect><path id="Trazado_3901" data-name="Trazado 3901" d="M2672.333,22.911V.005h-4.69V22.911H2606.1V70.618h125.786V22.911Z" transform="translate(-2242.034 -0.005)" fill="#d0d6ec"></path><rect id="Rect&#xE1;ngulo_3064" data-name="Rect&#xE1;ngulo 3064" width="121.508" height="43.26" transform="translate(366.322 24.933)" fill="#c8d3f8"></rect><rect id="Rect&#xE1;ngulo_3065" data-name="Rect&#xE1;ngulo 3065" width="20.542" height="34.632" transform="translate(371.725 28.838)" fill="#fff"></rect><rect id="Rect&#xE1;ngulo_3066" data-name="Rect&#xE1;ngulo 3066" width="86.375" height="4.358" transform="translate(397.322 28.839)" fill="#fff"></rect><rect id="Rect&#xE1;ngulo_3067" data-name="Rect&#xE1;ngulo 3067" width="86.375" height="4.358" transform="translate(397.322 36.943)" fill="#fff"></rect><rect id="Rect&#xE1;ngulo_3068" data-name="Rect&#xE1;ngulo 3068" width="86.375" height="4.358" transform="translate(397.322 46.155)" fill="#fff"></rect><path id="Trazado_3902" data-name="Trazado 3902" d="M1568.8,22.911V.005h-4.689V22.911h-61.543V70.618h125.786V22.911Z" transform="translate(-1292.663 -0.005)" fill="#d0d6ec"></path><rect id="Rect&#xE1;ngulo_3069" data-name="Rect&#xE1;ngulo 3069" width="121.508" height="43.26" transform="translate(212.162 24.933)" fill="#c8d3f8"></rect><path id="Trazado_3907" data-name="Trazado 3907" d="M1197.068,1094.371c-2.537,15.784-6.214,38.522-6.833,41.545-.96,4.691-10.246,4.595-32.658,4.188-3.769-.069-30.5.177-30.5.177s-6.279-11.573,30.5-7.775c13.006,2.963,10.083-37.981,14.976-46.525,3.439-6,10.728-7.278,14.918-7.277a14.11,14.11,0,0,1,9.6,15.667" transform="translate(-969.279 -928.012)" fill="#f99746"></path><path id="Trazado_3909" data-name="Trazado 3909" d="M2529,1276.045s-49.988,18.042-50.567,19.454l-18.723,44.591c-5.117,1.678-6.863,5.067-6.863,5.067l15.508-.006,1.278-4.87h3.372c19.156-17.736,21.2-31.708,21.278-36.453a1.851,1.851,0,0,1,1.794-1.822c3.022-.094-2.756-.291,17.923-.684,21.319-.4,28.233-20,28.233-20Z" transform="translate(-2110.195 -1097.785)" fill="#2d457a"></path><path id="Trazado_3910" data-name="Trazado 3910" d="M2371.9,1728.205l-1.495,5.7-15.508.006s3.875-7.524,17-5.7" transform="translate(-2025.925 -1486.535)" fill="#2d457a"></path><path id="Trazado_3911" data-name="Trazado 3911" d="M2499.358,1283.94s-6.523,16.976-27.841,17.381c-20.678.392-28.584.59-31.606.684a1.851,1.851,0,0,0-1.794,1.822c-.074,4.745-2.123,18.717-21.278,36.453h-13.374l21.419-53.471c.579-1.412,47.949-10.765,47.949-10.765Z" transform="translate(-2067.707 -1097.784)" fill="#35488b"></path><path id="Trazado_3912" data-name="Trazado 3912" d="M2667.25,1348.008a7.567,7.567,0,0,0,1.888-.655,7.269,7.269,0,0,1,1.715-.607c6.643-.969,12.665-2.155,17.977-3.2q2.09-.412,4.1-.8c12.09-2.329,18.95-3.6,19.019-3.613-.068.008-6.979.874-19.085,3.205q-2.009.387-4.1.8c-5.308,1.045-11.323,2.229-17.955,3.2a7.577,7.577,0,0,0-1.832.641,7.267,7.267,0,0,1-1.768.62c-1.748.242-1.707.653.043.411" transform="translate(-2293.495 -1152.059)" fill="#2b295e"></path><path id="Trazado_3913" data-name="Trazado 3913" d="M2484.643,1473.7l.115.032c4.094-7.307,8.5-16.129,12.6-25.5.626-1.431,1.26-2.91,1.885-4.39.689-1.632,1.376-3.291,2.043-4.927a5.914,5.914,0,0,0,.328-1.512v0c-.12-.176-.237-.355-.353-.535,0,.014,0,.028,0,.042a7.3,7.3,0,0,1-.348,1.84c-.665,1.635-1.352,3.291-2.041,4.921-.626,1.479-1.259,2.955-1.883,4.386-4.086,9.356-8.249,18.35-12.337,25.645" transform="translate(-2137.544 -1236.143)" fill="#2b295e"></path><path id="Trazado_3914" data-name="Trazado 3914" d="M2820.7,832.193a34.026,34.026,0,0,1-4.08-7.991l7.445-4.395c2.628,5.511,8.792,9.633,8.792,9.633s-12.127,2.8-12.158,2.752" transform="translate(-2423.148 -705.284)" fill="#91562d"></path><path id="Trazado_3915" data-name="Trazado 3915" d="M2778.652,732.941s11.694.534,11.915-6.753,1.879-12.127-5.579-12.776-8.993,2.088-9.658,4.5.285,14.7,3.321,15.027" transform="translate(-2387.45 -613.667)" fill="#a05f32"></path><path id="Trazado_3916" data-name="Trazado 3916" d="M2775.761,705.366a6.966,6.966,0,0,1,5.208,5.219c1.283,4.6,6.8,9.185,8.506,8.958,0,0,10.106-13.634-.189-19.241-7.623-4.151-14.715.75-13.525,5.064" transform="translate(-2387.881 -601.119)" fill="#2d457a"></path><path id="Trazado_3917" data-name="Trazado 3917" d="M2439.643,1193.849c.657-1.822,1.3-4.542,1.3-4.542a52.132,52.132,0,0,1-5.851.61,2.121,2.121,0,0,0-.3-.037h0a2.158,2.158,0,0,0-2.033,1.159l-1.45,2.811Z" transform="translate(-2091.667 -1023.164)" fill="#a05f32"></path><path id="Trazado_3918" data-name="Trazado 3918" d="M2564.791,874.024c-.486-.74-.965-1.46-1.427-2.15-2.476-3.7-3.723-5.931-5.583-7.56-3.8-3.327-11.1-2.445-11.128-2.441h0s-2.927,1.031-4.311,1.367a49.634,49.634,0,0,0-5.491,1.661c-.185.05-11.343,3.1-12.364,7.211-1.73,6.968-12.92,30.123-12.92,30.123s-16.726,3.708-21.56,5.428l-.994,4.4,28.211-.034s8.577-8.637,13.48-16.258l.054.152c1.113,3.145,2.209,6.311,3.083,9.266,2.32,7.861,4.205,14.781,8.8,15.716,2.855.581,5.327,1.081,7.474,1.49,16.509,3.153,13.674.939,16.856-11.395a32.446,32.446,0,0,0,.283-14.215c.948-.349,1.866-.72,2.713-1.111a16.162,16.162,0,0,0,2.989-1.717c2.895-2.208-3.073-12.188-8.164-19.933" transform="translate(-2141.304 -741.379)" fill="#f2d370"></path><g id="Grupo_729" data-name="Grupo 729" transform="translate(421.508 130)" opacity="0.2"><g id="Grupo_728" data-name="Grupo 728"><g id="Grupo_727" data-name="Grupo 727" clip-path="url(#clip-path-4)"><path id="Trazado_3919" data-name="Trazado 3919" d="M3027.434,953.166a16.169,16.169,0,0,1-2.99,1.717c-3.789-8.222-6.19-19.276-7.153-24.3.631.84,1.3,1.726,1.979,2.645,5.09,7.745,11.058,17.725,8.164,19.933" transform="translate(-3017.292 -930.588)" fill="#de8f39"></path></g></g></g><g id="Grupo_732" data-name="Grupo 732" transform="translate(389.455 151.371)" opacity="0.2"><g id="Grupo_731" data-name="Grupo 731"><g id="Grupo_730" data-name="Grupo 730" clip-path="url(#clip-path-5)"><path id="Trazado_3920" data-name="Trazado 3920" d="M2807.194,1113.21c-2.147-.408-4.619-.908-7.474-1.489-4.593-.935-6.479-7.855-8.8-15.716-.873-2.956-1.969-6.121-3.083-9.266a4.363,4.363,0,0,1,2.827-3.145c3.448-.988,16.48,23.5,16.528,29.617" transform="translate(-2787.839 -1083.564)" fill="#de8f39"></path></g></g></g><path id="Trazado_3921" data-name="Trazado 3921" d="M2682.892,1543.664h-21.016v-32.183h-5.892v32.183h-21.862a2.11,2.11,0,0,0-2.113,1.82,2.079,2.079,0,0,0,2.058,2.326h48.879a2.079,2.079,0,0,0,2.058-2.326,2.11,2.11,0,0,0-2.113-1.82" transform="translate(-2264.312 -1300.331)" fill="#405c9c"></path><path id="Trazado_3922" data-name="Trazado 3922" d="M2767.475,1090.334c-2.535,15.77-6.167,38.219-6.782,41.222-.731,3.566-6.269,4.365-18.727,4.365-3.933,0-8.555-.079-13.933-.177-22.412-.407-30.5.177-30.5.177s-6.277-11.573,30.5-7.775c4.192.433,6.015-20.8,6.8-37.169a18.2,18.2,0,0,1,19.369-17.3,14.4,14.4,0,0,1,13.277,16.658" transform="translate(-2320.347 -923.653)" fill="#ef8220"></path><path id="Trazado_3923" data-name="Trazado 3923" d="M2767.475,1104.33c-2.535,15.769-6.167,38.219-6.782,41.222-.731,3.566-6.269,4.365-18.727,4.365h-44.431s-6.277-11.573,30.5-7.775c13.737,2.81,10.881-35.84,11.192-39.051s6.161-11.213,12.771-12.864,13.072,3.583,13.072,3.583l0,0a14.329,14.329,0,0,1,2.4,10.519" transform="translate(-2320.347 -937.648)" fill="#f99746"></path><rect id="Rect&#xE1;ngulo_3074" data-name="Rect&#xE1;ngulo 3074" width="20.542" height="34.632" transform="translate(216.593 28.839)" fill="#fff"></rect><rect id="Rect&#xE1;ngulo_3075" data-name="Rect&#xE1;ngulo 3075" width="86.375" height="4.358" transform="translate(242.191 28.839)" fill="#fff"></rect><rect id="Rect&#xE1;ngulo_3076" data-name="Rect&#xE1;ngulo 3076" width="86.375" height="4.358" transform="translate(242.191 36.943)" fill="#fff"></rect><rect id="Rect&#xE1;ngulo_3077" data-name="Rect&#xE1;ngulo 3077" width="86.375" height="4.358" transform="translate(242.191 46.155)" fill="#fff"></rect></g></g></g></g></svg>