<svg xmlns="http://www.w3.org/2000/svg" xmlns:xlink="http://www.w3.org/1999/xlink" id="Grupo_1257" data-name="Grupo 1257" width="488.929" height="257" viewBox="0 0 488.929 257"><defs><clipPath id="clip-path"><rect id="Rect&#xE1;ngulo_449" data-name="Rect&#xE1;ngulo 449" width="488.929" height="257" fill="none"></rect></clipPath><clipPath id="clip-path-2"><rect id="Rect&#xE1;ngulo_448" data-name="Rect&#xE1;ngulo 448" width="488.93" height="256.999" fill="none"></rect></clipPath><clipPath id="clip-path-3"><rect id="Rect&#xE1;ngulo_444" data-name="Rect&#xE1;ngulo 444" width="116.642" height="131.46" fill="none"></rect></clipPath><clipPath id="clip-path-4"><rect id="Rect&#xE1;ngulo_445" data-name="Rect&#xE1;ngulo 445" width="62.629" height="131.46" fill="none"></rect></clipPath><clipPath id="clip-path-5"><rect id="Rect&#xE1;ngulo_446" data-name="Rect&#xE1;ngulo 446" width="101.847" height="15.241" fill="none"></rect></clipPath><clipPath id="clip-path-6"><rect id="Rect&#xE1;ngulo_447" data-name="Rect&#xE1;ngulo 447" width="33.285" height="73.08" fill="none"></rect></clipPath></defs><g id="Grupo_291" data-name="Grupo 291" clip-path="url(#clip-path)"><g id="Grupo_290" data-name="Grupo 290" transform="translate(0 0.001)"><g id="Grupo_289" data-name="Grupo 289" clip-path="url(#clip-path-2)"><path id="Trazado_166" data-name="Trazado 166" d="M38.339,256.389S-18.553,195.3,28.718,129.171C70.66,70.494,119.561,74.5,155.438,98.317c15.281,10.142,59.336,1.25,96.834-58.457,51.136-81.424,228.391-32.04,196.072,93.232-15.64,60.623,47.6,62.826,15.376,123.425Z" transform="translate(-8.065 -0.004)" fill="#ebf3fa"></path><path id="Trazado_167" data-name="Trazado 167" d="M1532.9,1012.627l4.364.718a1.862,1.862,0,0,1,.9.407,1.554,1.554,0,0,1,.516.794,1.251,1.251,0,0,1,.042.284,1.267,1.267,0,0,1-.016.264l-10.04,60.85a1.6,1.6,0,0,1-1.838,1.208l-.087-.012-4.364-.718-.086-.016a1.6,1.6,0,0,1-1.353-1.733l10.04-60.85a1.3,1.3,0,0,1,.07-.255,1.248,1.248,0,0,1,.131-.255,1.558,1.558,0,0,1,.743-.588,1.861,1.861,0,0,1,.981-.1" transform="translate(-1233.724 -821.393)" fill="#ffb93e"></path><path id="Trazado_168" data-name="Trazado 168" d="M1533.918,1176.245l-5.379,32.6a1.538,1.538,0,0,1-1.812,1.05l-.086-.012-4.364-.718-.086-.016a1.536,1.536,0,0,1-1.379-1.575l4.718-28.6a14.6,14.6,0,0,0,8.388-2.733" transform="translate(-1233.627 -954.137)" fill="#ffa412"></path><rect id="Rect&#xE1;ngulo_340" data-name="Rect&#xE1;ngulo 340" width="0.701" height="7.831" transform="translate(296.159 199.05) rotate(-80.622)" fill="#ffa412"></rect><rect id="Rect&#xE1;ngulo_341" data-name="Rect&#xE1;ngulo 341" width="0.701" height="7.831" transform="matrix(0.163, -0.987, 0.987, 0.163, 295.772, 201.392)" fill="#ffa412"></rect><rect id="Rect&#xE1;ngulo_342" data-name="Rect&#xE1;ngulo 342" width="0.701" height="7.831" transform="translate(295.309 204.199) rotate(-80.634)" fill="#ffa412"></rect><rect id="Rect&#xE1;ngulo_343" data-name="Rect&#xE1;ngulo 343" width="0.701" height="7.831" transform="matrix(0.163, -0.987, 0.987, 0.163, 294.599, 208.503)" fill="#ffa412"></rect><rect id="Rect&#xE1;ngulo_344" data-name="Rect&#xE1;ngulo 344" width="0.701" height="7.831" transform="matrix(0.163, -0.987, 0.987, 0.163, 293.848, 213.053)" fill="#ffa412"></rect><rect id="Rect&#xE1;ngulo_345" data-name="Rect&#xE1;ngulo 345" width="0.701" height="7.831" transform="translate(292.697 220.029) rotate(-80.634)" fill="#ffa412"></rect><rect id="Rect&#xE1;ngulo_346" data-name="Rect&#xE1;ngulo 346" width="0.701" height="7.831" transform="translate(291.619 226.559) rotate(-80.622)" fill="#ffa412"></rect><rect id="Rect&#xE1;ngulo_347" data-name="Rect&#xE1;ngulo 347" width="0.701" height="7.831" transform="translate(290.657 232.393) rotate(-80.637)" fill="#ffa412"></rect><rect id="Rect&#xE1;ngulo_348" data-name="Rect&#xE1;ngulo 348" width="0.701" height="7.831" transform="translate(296.526 196.823) rotate(-80.634)" fill="#ffa412"></rect><rect id="Rect&#xE1;ngulo_349" data-name="Rect&#xE1;ngulo 349" width="0.701" height="7.831" transform="translate(296.769 195.35) rotate(-80.622)" fill="#ffa412"></rect><rect id="Rect&#xE1;ngulo_350" data-name="Rect&#xE1;ngulo 350" width="0.701" height="7.831" transform="translate(297.004 193.93) rotate(-80.649)" fill="#ffa412"></rect><path id="Trazado_169" data-name="Trazado 169" d="M1573.8,1018.406l7.728,1.271.071-.432a1.3,1.3,0,0,0,.016-.264l-7.674-1.262a1.28,1.28,0,0,0-.07.255Z" transform="translate(-1276.623 -825.544)" fill="#ffa412"></path><path id="Trazado_170" data-name="Trazado 170" d="M1575.242,1013.844l7.5,1.233a1.556,1.556,0,0,0-.516-.795l-6.242-1.026a1.559,1.559,0,0,0-.744.588" transform="translate(-1277.791 -821.925)" fill="#ffa412"></path><path id="Trazado_171" data-name="Trazado 171" d="M1574.825,1012.627l4.364.718a1.864,1.864,0,0,1,.9.407,1.557,1.557,0,0,1,.515.794,1.258,1.258,0,0,1,.042.284,1.276,1.276,0,0,1-.016.264l-10.04,60.85a1.6,1.6,0,0,1-1.838,1.208l-.087-.012-4.364-.718-.086-.016a1.6,1.6,0,0,1-1.353-1.733l10.04-60.85a1.289,1.289,0,0,1,.07-.255,1.267,1.267,0,0,1,.131-.255,1.557,1.557,0,0,1,.744-.588,1.86,1.86,0,0,1,.98-.1" transform="translate(-1267.733 -821.393)" fill="#ffb93e"></path><path id="Trazado_172" data-name="Trazado 172" d="M1575.844,1176.245l-5.379,32.6a1.537,1.537,0,0,1-1.812,1.05l-.087-.012-4.364-.718-.086-.016a1.536,1.536,0,0,1-1.379-1.575l4.718-28.6a14.6,14.6,0,0,0,8.388-2.733" transform="translate(-1267.636 -954.137)" fill="#ffa412"></path><rect id="Rect&#xE1;ngulo_351" data-name="Rect&#xE1;ngulo 351" width="0.701" height="7.831" transform="translate(304.075 199.05) rotate(-80.622)" fill="#ffa412"></rect><rect id="Rect&#xE1;ngulo_352" data-name="Rect&#xE1;ngulo 352" width="0.701" height="7.831" transform="translate(303.689 201.393) rotate(-80.651)" fill="#ffa412"></rect><rect id="Rect&#xE1;ngulo_353" data-name="Rect&#xE1;ngulo 353" width="0.701" height="7.831" transform="translate(303.226 204.199) rotate(-80.634)" fill="#ffa412"></rect><rect id="Rect&#xE1;ngulo_354" data-name="Rect&#xE1;ngulo 354" width="0.701" height="7.831" transform="matrix(0.163, -0.987, 0.987, 0.163, 302.516, 208.503)" fill="#ffa412"></rect><rect id="Rect&#xE1;ngulo_355" data-name="Rect&#xE1;ngulo 355" width="0.701" height="7.831" transform="matrix(0.163, -0.987, 0.987, 0.163, 301.765, 213.053)" fill="#ffa412"></rect><rect id="Rect&#xE1;ngulo_356" data-name="Rect&#xE1;ngulo 356" width="0.701" height="7.831" transform="translate(300.614 220.029) rotate(-80.634)" fill="#ffa412"></rect><rect id="Rect&#xE1;ngulo_357" data-name="Rect&#xE1;ngulo 357" width="0.701" height="7.831" transform="translate(299.536 226.559) rotate(-80.622)" fill="#ffa412"></rect><rect id="Rect&#xE1;ngulo_358" data-name="Rect&#xE1;ngulo 358" width="0.701" height="7.831" transform="translate(298.574 232.393) rotate(-80.637)" fill="#ffa412"></rect><rect id="Rect&#xE1;ngulo_359" data-name="Rect&#xE1;ngulo 359" width="0.701" height="7.831" transform="translate(304.443 196.823) rotate(-80.634)" fill="#ffa412"></rect><rect id="Rect&#xE1;ngulo_360" data-name="Rect&#xE1;ngulo 360" width="0.701" height="7.831" transform="translate(304.686 195.352) rotate(-80.651)" fill="#ffa412"></rect><rect id="Rect&#xE1;ngulo_361" data-name="Rect&#xE1;ngulo 361" width="0.701" height="7.831" transform="translate(304.92 193.929) rotate(-80.634)" fill="#ffa412"></rect><path id="Trazado_173" data-name="Trazado 173" d="M1615.729,1018.406l7.728,1.271.071-.432a1.285,1.285,0,0,0,.016-.264l-7.674-1.262a1.281,1.281,0,0,0-.07.255Z" transform="translate(-1310.633 -825.544)" fill="#ffa412"></path><path id="Trazado_174" data-name="Trazado 174" d="M1617.168,1013.844l7.5,1.233a1.558,1.558,0,0,0-.516-.795l-6.242-1.026a1.56,1.56,0,0,0-.744.588" transform="translate(-1311.8 -821.925)" fill="#ffa412"></path><path id="Trazado_175" data-name="Trazado 175" d="M1195.185,1314.14l-.008,4.422a1.862,1.862,0,0,1-.258.951,1.555,1.555,0,0,1-.7.636,1.255,1.255,0,0,1-.273.087,1.28,1.28,0,0,1-.263.027l-61.673-.146a1.6,1.6,0,0,1-1.488-1.62c0-.029,0-.058,0-.088l.008-4.423c0-.029,0-.058,0-.088a1.6,1.6,0,0,1,1.493-1.613l61.673.146a1.278,1.278,0,0,1,.263.028,1.264,1.264,0,0,1,.273.088,1.558,1.558,0,0,1,.7.64,1.863,1.863,0,0,1,.254.952" transform="translate(-917.044 -1064.489)" fill="#ffb93e"></path><path id="Trazado_176" data-name="Trazado 176" d="M1164.888,1320.193l-33.041-.078a1.538,1.538,0,0,1-1.328-1.62c0-.03,0-.059,0-.088l.008-4.423c0-.029,0-.058,0-.088a1.535,1.535,0,0,1,1.334-1.614l28.983.069a14.6,14.6,0,0,0,4.043,7.841" transform="translate(-917.043 -1064.487)" fill="#ffa412"></path><rect id="Rect&#xE1;ngulo_362" data-name="Rect&#xE1;ngulo 362" width="7.831" height="0.701" transform="translate(269.921 255.759) rotate(-89.861)" fill="#ffa412"></rect><rect id="Rect&#xE1;ngulo_363" data-name="Rect&#xE1;ngulo 363" width="7.832" height="0.701" transform="translate(267.548 255.753) rotate(-89.861)" fill="#ffa412"></rect><rect id="Rect&#xE1;ngulo_364" data-name="Rect&#xE1;ngulo 364" width="7.832" height="0.701" transform="translate(264.702 255.746) rotate(-89.846)" fill="#ffa412"></rect><rect id="Rect&#xE1;ngulo_365" data-name="Rect&#xE1;ngulo 365" width="7.831" height="0.701" transform="translate(260.342 255.736) rotate(-89.861)" fill="#ffa412"></rect><rect id="Rect&#xE1;ngulo_366" data-name="Rect&#xE1;ngulo 366" width="7.832" height="0.701" transform="translate(255.73 255.725) rotate(-89.861)" fill="#ffa412"></rect><rect id="Rect&#xE1;ngulo_367" data-name="Rect&#xE1;ngulo 367" width="7.832" height="0.701" transform="translate(248.66 255.708) rotate(-89.861)" fill="#ffa412"></rect><rect id="Rect&#xE1;ngulo_368" data-name="Rect&#xE1;ngulo 368" width="7.832" height="0.701" transform="translate(242.04 255.693) rotate(-89.861)" fill="#ffa412"></rect><rect id="Rect&#xE1;ngulo_369" data-name="Rect&#xE1;ngulo 369" width="7.831" height="0.701" transform="translate(236.128 255.679) rotate(-89.846)" fill="#ffa412"></rect><rect id="Rect&#xE1;ngulo_370" data-name="Rect&#xE1;ngulo 370" width="7.832" height="0.701" transform="translate(272.18 255.764) rotate(-89.861)" fill="#ffa412"></rect><rect id="Rect&#xE1;ngulo_371" data-name="Rect&#xE1;ngulo 371" width="7.831" height="0.701" transform="translate(273.673 255.768) rotate(-89.877)" fill="#ffa412"></rect><rect id="Rect&#xE1;ngulo_372" data-name="Rect&#xE1;ngulo 372" width="7.831" height="0.701" transform="translate(275.112 255.771) rotate(-89.861)" fill="#ffa412"></rect><path id="Trazado_177" data-name="Trazado 177" d="M1462.707,1313.055l-.014,7.831h.438a1.27,1.27,0,0,0,.263-.027l.014-7.777a1.3,1.3,0,0,0-.263-.028Z" transform="translate(-1186.494 -1065.113)" fill="#ffa412"></path><path id="Trazado_178" data-name="Trazado 178" d="M1467.867,1313.676l-.014,7.6a1.558,1.558,0,0,0,.7-.636l.011-6.326a1.555,1.555,0,0,0-.7-.64" transform="translate(-1190.68 -1065.617)" fill="#ffa412"></path><path id="Trazado_179" data-name="Trazado 179" d="M1160.339,1272.583l-.008,4.423a1.861,1.861,0,0,1-.257.951,1.558,1.558,0,0,1-.7.636,1.267,1.267,0,0,1-.273.087,1.287,1.287,0,0,1-.263.027l-61.673-.146a1.6,1.6,0,0,1-1.487-1.62c0-.029,0-.058,0-.087l.008-4.423c0-.029,0-.058,0-.087a1.6,1.6,0,0,1,1.493-1.613l61.673.146q.06,0,.118.006a.443.443,0,0,1,.05.006l.055.008.04.008a1.277,1.277,0,0,1,.273.088l.039.018.038.019.075.042.043.028a.422.422,0,0,1,.038.026c.024.016.047.033.07.051s.052.043.076.065.039.035.058.054l0,0,.038.039a1.59,1.59,0,0,1,.108.127l.03.04c.01.013.019.027.028.042s.038.057.055.087a1.858,1.858,0,0,1,.254.952" transform="translate(-888.779 -1030.779)" fill="#ffb93e"></path><path id="Trazado_180" data-name="Trazado 180" d="M1130.043,1278.637l-33.041-.078a1.537,1.537,0,0,1-1.328-1.62c0-.029,0-.059,0-.088l.008-4.423c0-.029,0-.058,0-.088a1.535,1.535,0,0,1,1.333-1.614l28.982.069c.013.064.026.128.04.193a14.488,14.488,0,0,0,4,7.648" transform="translate(-888.778 -1030.778)" fill="#ffa412"></path><rect id="Rect&#xE1;ngulo_373" data-name="Rect&#xE1;ngulo 373" width="7.831" height="0.701" transform="translate(263.341 247.911) rotate(-89.861)" fill="#ffa412"></rect><rect id="Rect&#xE1;ngulo_374" data-name="Rect&#xE1;ngulo 374" width="7.832" height="0.701" transform="translate(260.969 247.906) rotate(-89.861)" fill="#ffa412"></rect><rect id="Rect&#xE1;ngulo_375" data-name="Rect&#xE1;ngulo 375" width="7.831" height="0.701" transform="translate(258.123 247.899) rotate(-89.861)" fill="#ffa412"></rect><rect id="Rect&#xE1;ngulo_376" data-name="Rect&#xE1;ngulo 376" width="7.831" height="0.701" transform="translate(253.762 247.889) rotate(-89.861)" fill="#ffa412"></rect><rect id="Rect&#xE1;ngulo_377" data-name="Rect&#xE1;ngulo 377" width="7.831" height="0.701" transform="translate(249.151 247.878) rotate(-89.877)" fill="#ffa412"></rect><rect id="Rect&#xE1;ngulo_378" data-name="Rect&#xE1;ngulo 378" width="7.831" height="0.701" transform="translate(242.079 247.861) rotate(-89.846)" fill="#ffa412"></rect><rect id="Rect&#xE1;ngulo_379" data-name="Rect&#xE1;ngulo 379" width="7.831" height="0.701" transform="translate(235.46 247.845) rotate(-89.861)" fill="#ffa412"></rect><rect id="Rect&#xE1;ngulo_380" data-name="Rect&#xE1;ngulo 380" width="7.831" height="0.701" transform="translate(229.55 247.831) rotate(-89.877)" fill="#ffa412"></rect><rect id="Rect&#xE1;ngulo_381" data-name="Rect&#xE1;ngulo 381" width="7.832" height="0.701" transform="translate(265.6 247.917) rotate(-89.861)" fill="#ffa412"></rect><rect id="Rect&#xE1;ngulo_382" data-name="Rect&#xE1;ngulo 382" width="7.832" height="0.701" transform="translate(267.092 247.921) rotate(-89.861)" fill="#ffa412"></rect><rect id="Rect&#xE1;ngulo_383" data-name="Rect&#xE1;ngulo 383" width="7.832" height="0.701" transform="translate(268.533 247.924) rotate(-89.861)" fill="#ffa412"></rect><path id="Trazado_181" data-name="Trazado 181" d="M1427.861,1271.5l-.014,7.832h.438a1.3,1.3,0,0,0,.263-.027l.014-7.777a1.286,1.286,0,0,0-.263-.028Z" transform="translate(-1158.228 -1031.403)" fill="#ffa412"></path><path id="Trazado_182" data-name="Trazado 182" d="M1433.022,1272.12l-.014,7.6a1.559,1.559,0,0,0,.7-.636l.011-6.326a1.555,1.555,0,0,0-.7-.639" transform="translate(-1162.415 -1031.908)" fill="#ffa412"></path><path id="Trazado_183" data-name="Trazado 183" d="M1177.288,1232.173l-.008,4.423a1.861,1.861,0,0,1-.257.951,1.557,1.557,0,0,1-.7.636,1.333,1.333,0,0,1-.537.114l-61.673-.147a1.334,1.334,0,0,1-.688-.195,1.733,1.733,0,0,1-.8-1.349c0-.025,0-.051,0-.076s0-.058,0-.088l.008-4.422c0-.029,0-.058,0-.088a1.6,1.6,0,0,1,1.494-1.613l61.673.146a1.315,1.315,0,0,1,.263.028,1.267,1.267,0,0,1,.273.089,1.557,1.557,0,0,1,.7.64,1.859,1.859,0,0,1,.254.952" transform="translate(-902.528 -998)" fill="#ffb93e"></path><path id="Trazado_184" data-name="Trazado 184" d="M1146.992,1238.227l-33.041-.078a1.1,1.1,0,0,1-.613-.195,1.773,1.773,0,0,1-.709-1.349c0-.026,0-.051-.005-.076s0-.058,0-.088l.008-4.422c0-.029,0-.058,0-.088a1.536,1.536,0,0,1,1.334-1.614l28.983.069a14.746,14.746,0,0,0,3.841,7.647q.1.1.2.193" transform="translate(-902.528 -997.998)" fill="#ffa412"></path><path id="Trazado_185" data-name="Trazado 185" d="M1185.186,1190.718l-.008,4.422a1.86,1.86,0,0,1-.257.951,1.553,1.553,0,0,1-.7.636,1.261,1.261,0,0,1-.273.087,1.275,1.275,0,0,1-.263.027l-61.673-.147a1.6,1.6,0,0,1-1.488-1.62c0-.029,0-.058,0-.088l.008-4.422c0-.029,0-.058,0-.088a1.632,1.632,0,0,1,1.317-1.6,1.207,1.207,0,0,1,.177-.012l61.673.146a1.276,1.276,0,0,1,.263.028,1.248,1.248,0,0,1,.273.088,1.554,1.554,0,0,1,.7.64,1.861,1.861,0,0,1,.254.952" transform="translate(-908.934 -964.373)" fill="#ffb93e"></path><path id="Trazado_186" data-name="Trazado 186" d="M1154.891,1196.771l-33.041-.078a1.538,1.538,0,0,1-1.328-1.62c0-.029,0-.058,0-.088l.008-4.423c0-.029,0-.058,0-.088a1.6,1.6,0,0,1,1.176-1.6.982.982,0,0,1,.157-.012l28.983.069,0,.012a14.6,14.6,0,0,0,4.041,7.829" transform="translate(-908.934 -964.37)" fill="#ffa412"></path><path id="Trazado_187" data-name="Trazado 187" d="M1161.25,1149.252l-.008,4.423a1.861,1.861,0,0,1-.257.951,1.556,1.556,0,0,1-.7.636,1.269,1.269,0,0,1-.273.087c-.029.005-.058.011-.086.015l-.049.005-.049,0c-.026,0-.052,0-.079,0l-61.673-.146a1.6,1.6,0,0,1-1.488-1.62c0-.029,0-.058,0-.088l.008-4.422c0-.03,0-.059,0-.088s0-.048,0-.072a1.663,1.663,0,0,1,1.121-1.49l.046-.012a1.317,1.317,0,0,1,.323-.04l61.673.146c.045,0,.09,0,.134.007l.06.008h0l.069.014a1.247,1.247,0,0,1,.273.088,1.556,1.556,0,0,1,.7.64,1.862,1.862,0,0,1,.254.952" transform="translate(-889.518 -930.737)" fill="#ffb93e"></path><path id="Trazado_188" data-name="Trazado 188" d="M1130.954,1155.306l-33.041-.078a1.538,1.538,0,0,1-1.328-1.62c0-.029,0-.058,0-.088l.008-4.423c0-.029,0-.058,0-.088s0-.048,0-.072a1.63,1.63,0,0,1,1.036-1.5.419.419,0,0,1,.057-.015,1.036,1.036,0,0,1,.236-.027l28.983.069c0,.019.007.037.011.056a14.575,14.575,0,0,0,4.019,7.773l.013.012" transform="translate(-889.518 -930.735)" fill="#ffa412"></path><path id="Trazado_189" data-name="Trazado 189" d="M1160.639,1108.072l-.008,4.423a1.859,1.859,0,0,1-.257.951,1.557,1.557,0,0,1-.7.636,1.226,1.226,0,0,1-.213.073h0c-.02.006-.039.01-.058.014a1.263,1.263,0,0,1-.263.026l-61.673-.146a1.176,1.176,0,0,1-.193-.016.584.584,0,0,1-.073-.013,1.652,1.652,0,0,1-1.221-1.591c0-.029,0-.058,0-.088l.008-4.422c0-.03,0-.058,0-.088a1.6,1.6,0,0,1,1.494-1.613l61.673.146c.039,0,.079,0,.118.006l.05.006a.5.5,0,0,1,.056.009l.04.008a1.245,1.245,0,0,1,.273.088l.039.018.038.019.075.042c.027.017.054.034.081.053s.047.033.07.051.052.043.076.065.039.035.058.054l0,0,.038.039a1.617,1.617,0,0,1,.108.127l.029.04.029.042c.019.028.038.058.055.087a1.86,1.86,0,0,1,.254.952" transform="translate(-889.022 -897.333)" fill="#ffb93e"></path><path id="Trazado_190" data-name="Trazado 190" d="M1130.342,1114.125l-33.041-.078-.078,0c-.029,0-.057-.006-.085-.011a1.6,1.6,0,0,1-1.164-1.606c0-.029,0-.059,0-.088l.008-4.423c0-.029,0-.058,0-.088a1.535,1.535,0,0,1,1.333-1.614l28.982.069c.013.064.026.128.04.193a14.535,14.535,0,0,0,3.945,7.592l.059.056" transform="translate(-889.021 -897.33)" fill="#ffa412"></path><path id="Trazado_191" data-name="Trazado 191" d="M1177.587,1067.662l-.008,4.423a1.866,1.866,0,0,1-.257.951,1.556,1.556,0,0,1-.7.636,1.327,1.327,0,0,1-.536.114l-61.673-.146a1.335,1.335,0,0,1-.688-.195,1.734,1.734,0,0,1-.8-1.349c0-.025,0-.051,0-.076s0-.058,0-.088l.008-4.422c0-.029,0-.058,0-.088a1.6,1.6,0,0,1,1.494-1.613l61.673.146a1.287,1.287,0,0,1,.263.028,1.262,1.262,0,0,1,.273.088,1.555,1.555,0,0,1,.7.64,1.862,1.862,0,0,1,.254.952" transform="translate(-902.77 -864.553)" fill="#ffb93e"></path><path id="Trazado_192" data-name="Trazado 192" d="M1147.292,1073.714l-33.041-.078a1.1,1.1,0,0,1-.613-.195,1.773,1.773,0,0,1-.709-1.349c0-.025,0-.051,0-.076s0-.058,0-.088l.008-4.423c0-.029,0-.058,0-.087a1.536,1.536,0,0,1,1.334-1.614l28.983.069a14.747,14.747,0,0,0,3.841,7.648q.1.1.2.193" transform="translate(-902.77 -864.55)" fill="#ffa412"></path><path id="Trazado_193" data-name="Trazado 193" d="M1204.353,1026.25l-.008,4.423a1.861,1.861,0,0,1-.257.951,1.557,1.557,0,0,1-.7.636,1.281,1.281,0,0,1-.273.087,1.265,1.265,0,0,1-.263.026l-61.673-.146a1.6,1.6,0,0,1-1.488-1.62c0-.029,0-.058,0-.088l.008-4.422c0-.029,0-.059,0-.088a1.633,1.633,0,0,1,1.317-1.6,1.244,1.244,0,0,1,.177-.012l61.673.147a1.339,1.339,0,0,1,.536.116,1.558,1.558,0,0,1,.7.64,1.861,1.861,0,0,1,.254.952" transform="translate(-924.482 -830.961)" fill="#ffb93e"></path><path id="Trazado_194" data-name="Trazado 194" d="M1174.057,1032.3l-33.041-.078a1.538,1.538,0,0,1-1.327-1.62c0-.029,0-.058,0-.088l.008-4.422c0-.029,0-.058,0-.088a1.6,1.6,0,0,1,1.176-1.6.957.957,0,0,1,.158-.012l28.983.069,0,.012a14.589,14.589,0,0,0,4.041,7.829" transform="translate(-924.481 -830.96)" fill="#ffa412"></path><path id="Trazado_195" data-name="Trazado 195" d="M1161.549,984.741l-.008,4.423a1.862,1.862,0,0,1-.258.951,1.557,1.557,0,0,1-.7.636,1.249,1.249,0,0,1-.273.087c-.029.006-.058.011-.087.015s-.047.006-.07.007l-.034,0h-.073l-61.673-.146a1.6,1.6,0,0,1-1.487-1.62c0-.029,0-.058,0-.088l.008-4.423c0-.029,0-.058,0-.088a1.6,1.6,0,0,1,1.494-1.613l61.673.146c.026,0,.053,0,.079,0a1.266,1.266,0,0,1,.184.025,1.35,1.35,0,0,1,.4.154c.026.015.052.03.077.047l.008.005c.026.017.05.035.075.054a.077.077,0,0,1,.012.009.814.814,0,0,1,.067.056,1.329,1.329,0,0,1,.148.148c.015.016.029.033.042.05a.06.06,0,0,1,.007.009.353.353,0,0,1,.026.032l0,.007c.015.02.03.041.044.062s.04.06.059.093a1.86,1.86,0,0,1,.254.952" transform="translate(-889.761 -797.29)" fill="#ffb93e"></path><path id="Trazado_196" data-name="Trazado 196" d="M1131.253,990.793l-33.04-.078a1.538,1.538,0,0,1-1.328-1.62c0-.029,0-.059,0-.088l.008-4.423c0-.029,0-.058,0-.088a1.536,1.536,0,0,1,1.334-1.614l28.983.069c.012.059.024.12.038.181a14.5,14.5,0,0,0,3.992,7.648l.013.012" transform="translate(-889.76 -797.287)" fill="#ffa412"></path><path id="Trazado_197" data-name="Trazado 197" d="M1185.635,944.282l-.008,4.423a1.859,1.859,0,0,1-.258.951,1.555,1.555,0,0,1-.7.636,1.334,1.334,0,0,1-.536.114l-61.673-.146a1.328,1.328,0,0,1-.667-.182,1.727,1.727,0,0,1-.817-1.368c0-.023,0-.046,0-.07s0-.058,0-.088l.008-4.422c0-.029,0-.058,0-.088a1.632,1.632,0,0,1,1.317-1.6,1.187,1.187,0,0,1,.177-.012l61.673.147a1.331,1.331,0,0,1,.536.116,1.56,1.56,0,0,1,.7.64,1.861,1.861,0,0,1,.254.952" transform="translate(-909.298 -764.471)" fill="#ffb93e"></path><path id="Trazado_198" data-name="Trazado 198" d="M1155.339,950.335l-33.041-.079a1.087,1.087,0,0,1-.594-.182,1.765,1.765,0,0,1-.729-1.368c0-.023,0-.046,0-.07s0-.058,0-.088l.008-4.423c0-.029,0-.058,0-.088a1.6,1.6,0,0,1,1.176-1.6.961.961,0,0,1,.157-.012l28.983.069,0,.012a14.726,14.726,0,0,0,3.851,7.647c.062.061.125.122.189.181" transform="translate(-909.298 -764.469)" fill="#ffa412"></path><path id="Trazado_199" data-name="Trazado 199" d="M1161.7,902.816l-.008,4.423a1.859,1.859,0,0,1-.258.951,1.555,1.555,0,0,1-.7.636,1.257,1.257,0,0,1-.273.087c-.029.005-.058.011-.087.015l-.049.006-.049,0-.079,0-61.673-.147a1.6,1.6,0,0,1-1.488-1.62c0-.029,0-.058,0-.088l.008-4.422c0-.029,0-.058,0-.088a1.6,1.6,0,0,1,1.494-1.613l61.673.146a1.3,1.3,0,0,1,.263.028,1.253,1.253,0,0,1,.273.088,1.555,1.555,0,0,1,.7.64,1.86,1.86,0,0,1,.254.952" transform="translate(-889.881 -730.835)" fill="#ffb93e"></path><path id="Trazado_200" data-name="Trazado 200" d="M1131.4,908.869l-33.041-.078a1.538,1.538,0,0,1-1.328-1.62c0-.029,0-.058,0-.088l.008-4.423c0-.029,0-.058,0-.088a1.536,1.536,0,0,1,1.334-1.614l28.983.069a14.6,14.6,0,0,0,4.03,7.829l.013.012" transform="translate(-889.881 -730.833)" fill="#ffa412"></path><rect id="Rect&#xE1;ngulo_384" data-name="Rect&#xE1;ngulo 384" width="7.832" height="0.701" transform="translate(266.542 240.281) rotate(-89.861)" fill="#ffa412"></rect><rect id="Rect&#xE1;ngulo_385" data-name="Rect&#xE1;ngulo 385" width="7.831" height="0.701" transform="translate(264.17 240.275) rotate(-89.876)" fill="#ffa412"></rect><rect id="Rect&#xE1;ngulo_386" data-name="Rect&#xE1;ngulo 386" width="7.831" height="0.701" transform="translate(261.325 240.269) rotate(-89.876)" fill="#ffa412"></rect><rect id="Rect&#xE1;ngulo_387" data-name="Rect&#xE1;ngulo 387" width="7.832" height="0.701" transform="translate(256.963 240.258) rotate(-89.861)" fill="#ffa412"></rect><rect id="Rect&#xE1;ngulo_388" data-name="Rect&#xE1;ngulo 388" width="7.832" height="0.701" transform="translate(252.351 240.247) rotate(-89.861)" fill="#ffa412"></rect><rect id="Rect&#xE1;ngulo_389" data-name="Rect&#xE1;ngulo 389" width="7.832" height="0.701" transform="translate(245.281 240.231) rotate(-89.861)" fill="#ffa412"></rect><rect id="Rect&#xE1;ngulo_390" data-name="Rect&#xE1;ngulo 390" width="7.831" height="0.701" transform="translate(238.662 240.215) rotate(-89.876)" fill="#ffa412"></rect><rect id="Rect&#xE1;ngulo_391" data-name="Rect&#xE1;ngulo 391" width="7.831" height="0.701" transform="translate(232.75 240.201) rotate(-89.861)" fill="#ffa412"></rect><rect id="Rect&#xE1;ngulo_392" data-name="Rect&#xE1;ngulo 392" width="7.831" height="0.701" transform="translate(268.8 240.286) rotate(-89.861)" fill="#ffa412"></rect><rect id="Rect&#xE1;ngulo_393" data-name="Rect&#xE1;ngulo 393" width="7.831" height="0.701" transform="translate(270.293 240.29) rotate(-89.876)" fill="#ffa412"></rect><rect id="Rect&#xE1;ngulo_394" data-name="Rect&#xE1;ngulo 394" width="7.831" height="0.701" transform="translate(271.733 240.293) rotate(-89.861)" fill="#ffa412"></rect><path id="Trazado_201" data-name="Trazado 201" d="M1444.811,1231.087l-.014,7.831h.438a1.289,1.289,0,0,0,.263-.027l.014-7.777a1.306,1.306,0,0,0-.263-.028Z" transform="translate(-1171.977 -998.623)" fill="#ffa412"></path><path id="Trazado_202" data-name="Trazado 202" d="M1449.971,1231.709l-.014,7.6a1.559,1.559,0,0,0,.7-.636l.011-6.326a1.558,1.558,0,0,0-.7-.64" transform="translate(-1176.163 -999.127)" fill="#ffa412"></path><rect id="Rect&#xE1;ngulo_395" data-name="Rect&#xE1;ngulo 395" width="7.831" height="0.701" transform="translate(246.772 232.402) rotate(-89.861)" fill="#ffa412"></rect><rect id="Rect&#xE1;ngulo_396" data-name="Rect&#xE1;ngulo 396" width="7.831" height="0.701" transform="translate(240.152 232.387) rotate(-89.861)" fill="#ffa412"></rect><rect id="Rect&#xE1;ngulo_397" data-name="Rect&#xE1;ngulo 397" width="7.832" height="0.701" transform="translate(234.241 232.373) rotate(-89.861)" fill="#ffa412"></rect><path id="Trazado_203" data-name="Trazado 203" d="M1429.467,1097.612l.014-7.832h-.615c.033,0,.065-.008.1-.015l.014-7.777a1.287,1.287,0,0,0-.13-.021l.014-7.589h.273l-.014,7.523a1.557,1.557,0,0,0,.7-.636l.011-6.326a1.588,1.588,0,0,0-.555-.561h.245l.014-7.831-.7,0-.014,7.659a1.285,1.285,0,0,0-.224-.021h-.438l-.014,7.831h.13l-.014,7.775h.438c.027,0,.053,0,.08,0l-.014,7.823Z" transform="translate(-1158.472 -865.152)" fill="#ffa412"></path><rect id="Rect&#xE1;ngulo_398" data-name="Rect&#xE1;ngulo 398" width="7.832" height="0.701" transform="translate(271.784 232.462) rotate(-89.861)" fill="#ffa412"></rect><rect id="Rect&#xE1;ngulo_399" data-name="Rect&#xE1;ngulo 399" width="7.831" height="0.701" transform="matrix(0.003, -1, 1, 0.003, 273.224, 232.465)" fill="#ffa412"></rect><path id="Trazado_204" data-name="Trazado 204" d="M1452.71,1189.631l-.014,7.832h.438a1.273,1.273,0,0,0,.263-.027l.014-7.776a1.271,1.271,0,0,0-.263-.028Z" transform="translate(-1178.385 -964.995)" fill="#ffa412"></path><path id="Trazado_205" data-name="Trazado 205" d="M1457.869,1190.252l-.014,7.6a1.555,1.555,0,0,0,.7-.636l.011-6.326a1.556,1.556,0,0,0-.7-.64" transform="translate(-1182.57 -965.499)" fill="#ffa412"></path><path id="Trazado_206" data-name="Trazado 206" d="M1393.228,1122.519l.014-7.831h-.129l.014-7.776-.7,0-.014,7.831h.129l-.014,7.763-.684,0-.014,7.832.7,0,.014-7.819Z" transform="translate(-1129.012 -897.894)" fill="#ffa412"></path><path id="Trazado_207" data-name="Trazado 207" d="M1368.112,1114.621h-.13l.014-7.775-.7,0-.014,7.832h.13l-.014,7.776h.173l-.014,7.819.7,0,.014-7.831h-.173Z" transform="translate(-1109.099 -897.84)" fill="#ffa412"></path><path id="Trazado_208" data-name="Trazado 208" d="M1433.932,1148.787l-.014,7.6a1.557,1.557,0,0,0,.7-.636l.012-6.326a1.557,1.557,0,0,0-.7-.64" transform="translate(-1163.153 -931.863)" fill="#ffa412"></path><path id="Trazado_209" data-name="Trazado 209" d="M1344.9,1106.791l-.7,0-.014,7.831h.13l-.014,7.763h-.078l-.014,7.831.7,0,.014-7.819H1345l.014-7.831h-.129Z" transform="translate(-1090.364 -897.796)" fill="#ffa412"></path><path id="Trazado_210" data-name="Trazado 210" d="M1320.476,1106.733l-.7,0-.014,7.832h.13l-.014,7.776h.7l.014-7.831h-.13Z" transform="translate(-1070.552 -897.749)" fill="#ffa412"></path><path id="Trazado_211" data-name="Trazado 211" d="M1283.034,1106.645l-.7,0-.014,7.831h.13l-.014,7.775.7,0,.014-7.831h-.13Z" transform="translate(-1040.18 -897.677)" fill="#ffa412"></path><path id="Trazado_212" data-name="Trazado 212" d="M1247.977,1106.561l-.7,0-.014,7.832h.13l-.014,7.776h.7l.014-7.831h-.13Z" transform="translate(-1011.743 -897.609)" fill="#ffa412"></path><path id="Trazado_213" data-name="Trazado 213" d="M1216.672,1106.486l-.7,0-.014,7.832h.13l-.014,7.776h.7l.014-7.831h-.13Z" transform="translate(-986.349 -897.549)" fill="#ffa412"></path><path id="Trazado_214" data-name="Trazado 214" d="M1407.59,1106.94h-.7l-.014,7.831h.13l-.014,7.763h-.1l-.014,7.832.7,0,.014-7.819h.1l.014-7.831h-.13Z" transform="translate(-1141.216 -897.917)" fill="#ffa412"></path><path id="Trazado_215" data-name="Trazado 215" d="M1413.129,1074.141l-.564,0,.014-7.638-.7,0-.014,7.832h.564l-.014,7.638h.13l-.014,7.775.7,0,.014-7.831h-.129Z" transform="translate(-1145.263 -865.114)" fill="#ffa412"></path><rect id="Rect&#xE1;ngulo_400" data-name="Rect&#xE1;ngulo 400" width="7.831" height="0.701" transform="translate(264.226 209.211) rotate(-89.861)" fill="#ffa412"></rect><path id="Trazado_216" data-name="Trazado 216" d="M1382.7,1074.073h-.341l-.014,7.832h.13l-.014,7.775.7,0,.014-7.831h-.13l.014-7.583h.341l.014-7.831-.7,0Z" transform="translate(-1121.322 -865.061)" fill="#ffa412"></path><rect id="Rect&#xE1;ngulo_401" data-name="Rect&#xE1;ngulo 401" width="7.831" height="0.701" transform="matrix(0.003, -1, 1, 0.003, 257.018, 209.194)" fill="#ffa412"></rect><rect id="Rect&#xE1;ngulo_402" data-name="Rect&#xE1;ngulo 402" width="7.831" height="0.701" transform="translate(252.407 209.183) rotate(-89.861)" fill="#ffa412"></rect><rect id="Rect&#xE1;ngulo_403" data-name="Rect&#xE1;ngulo 403" width="7.831" height="0.701" transform="translate(245.337 209.166) rotate(-89.861)" fill="#ffa412"></rect><rect id="Rect&#xE1;ngulo_404" data-name="Rect&#xE1;ngulo 404" width="7.831" height="0.701" transform="matrix(0.002, -1, 1, 0.002, 238.718, 209.15)" fill="#ffa412"></rect><rect id="Rect&#xE1;ngulo_405" data-name="Rect&#xE1;ngulo 405" width="7.832" height="0.701" transform="translate(232.806 209.136) rotate(-89.861)" fill="#ffa412"></rect><path id="Trazado_217" data-name="Trazado 217" d="M1420.287,1074.167h-.254l-.014,7.831h.13l-.014,7.763-.657,0-.014,7.831.7,0,.014-7.819.657,0,.014-7.831h-.13l.014-7.582h.254l.014-7.831-.7,0Z" transform="translate(-1151.427 -865.137)" fill="#ffa412"></path><rect id="Rect&#xE1;ngulo_406" data-name="Rect&#xE1;ngulo 406" width="7.832" height="0.701" transform="translate(271.79 209.229) rotate(-89.861)" fill="#ffa412"></rect><path id="Trazado_218" data-name="Trazado 218" d="M1445.8,1074.383l.014-7.777a1.308,1.308,0,0,0-.263-.028h-.438l-.014,7.832h.438a1.28,1.28,0,0,0,.263-.027" transform="translate(-1172.22 -865.177)" fill="#ffa412"></path><path id="Trazado_219" data-name="Trazado 219" d="M1450.958,1074.163l.011-6.326a1.559,1.559,0,0,0-.7-.64l-.014,7.6a1.555,1.555,0,0,0,.7-.636" transform="translate(-1176.406 -865.681)" fill="#ffa412"></path><rect id="Rect&#xE1;ngulo_407" data-name="Rect&#xE1;ngulo 407" width="7.832" height="0.701" transform="translate(271.653 201.397) rotate(-89.861)" fill="#ffa412"></rect><rect id="Rect&#xE1;ngulo_408" data-name="Rect&#xE1;ngulo 408" width="7.831" height="0.701" transform="translate(262.073 201.374) rotate(-89.861)" fill="#ffa412"></rect><rect id="Rect&#xE1;ngulo_409" data-name="Rect&#xE1;ngulo 409" width="7.832" height="0.701" transform="translate(257.462 201.363) rotate(-89.861)" fill="#ffa412"></rect><rect id="Rect&#xE1;ngulo_410" data-name="Rect&#xE1;ngulo 410" width="7.832" height="0.701" transform="translate(250.391 201.346) rotate(-89.861)" fill="#ffa412"></rect><rect id="Rect&#xE1;ngulo_411" data-name="Rect&#xE1;ngulo 411" width="7.832" height="0.701" transform="translate(243.772 201.331) rotate(-89.861)" fill="#ffa412"></rect><rect id="Rect&#xE1;ngulo_412" data-name="Rect&#xE1;ngulo 412" width="7.831" height="0.701" transform="matrix(0.002, -1, 1, 0.002, 237.862, 201.317)" fill="#ffa412"></rect><rect id="Rect&#xE1;ngulo_413" data-name="Rect&#xE1;ngulo 413" width="7.832" height="0.701" transform="translate(273.911 201.402) rotate(-89.861)" fill="#ffa412"></rect><rect id="Rect&#xE1;ngulo_414" data-name="Rect&#xE1;ngulo 414" width="7.831" height="0.701" transform="translate(275.403 201.406) rotate(-89.861)" fill="#ffa412"></rect><rect id="Rect&#xE1;ngulo_415" data-name="Rect&#xE1;ngulo 415" width="7.831" height="0.701" transform="translate(276.844 201.409) rotate(-89.861)" fill="#ffa412"></rect><path id="Trazado_220" data-name="Trazado 220" d="M1471.878,1025.167l-.014,7.831h.438a1.282,1.282,0,0,0,.263-.026l.014-7.777a1.3,1.3,0,0,0-.263-.028Z" transform="translate(-1193.933 -831.587)" fill="#ffa412"></path><path id="Trazado_221" data-name="Trazado 221" d="M1477.038,1025.787l-.013,7.6a1.56,1.56,0,0,0,.7-.636l.012-6.326a1.556,1.556,0,0,0-.7-.64" transform="translate(-1198.119 -832.089)" fill="#ffa412"></path><path id="Trazado_222" data-name="Trazado 222" d="M1392.948,924.954l.7,0,.014-7.832-.684,0,.014-7.638.684,0,.015-7.831h-.7l-.014,7.819-.684,0-.014,7.831.684,0Z" transform="translate(-1129.376 -731.396)" fill="#ffa412"></path><rect id="Rect&#xE1;ngulo_416" data-name="Rect&#xE1;ngulo 416" width="7.831" height="0.701" transform="matrix(0.003, -1, 1, 0.003, 261.196, 193.553)" fill="#ffa412"></rect><rect id="Rect&#xE1;ngulo_417" data-name="Rect&#xE1;ngulo 417" width="7.832" height="0.701" transform="translate(249.379 193.525) rotate(-89.861)" fill="#ffa412"></rect><rect id="Rect&#xE1;ngulo_418" data-name="Rect&#xE1;ngulo 418" width="7.832" height="0.701" transform="translate(242.309 193.508) rotate(-89.861)" fill="#ffa412"></rect><rect id="Rect&#xE1;ngulo_419" data-name="Rect&#xE1;ngulo 419" width="7.831" height="0.701" transform="translate(235.689 193.492) rotate(-89.861)" fill="#ffa412"></rect><rect id="Rect&#xE1;ngulo_420" data-name="Rect&#xE1;ngulo 420" width="7.831" height="0.701" transform="translate(229.778 193.478) rotate(-89.861)" fill="#ffa412"></rect><path id="Trazado_223" data-name="Trazado 223" d="M1407.429,924.984l.62,0-.014,7.819.7,0,.014-7.831-.621,0,.014-7.819h-.1l.014-7.638h.1l.015-7.831h-.7l-.014,7.819h-.1l-.014,7.831h.1Z" transform="translate(-1141.599 -731.42)" fill="#ffa412"></path><rect id="Rect&#xE1;ngulo_421" data-name="Rect&#xE1;ngulo 421" width="7.831" height="0.701" transform="matrix(0.002, -1, 1, 0.002, 267.323, 193.568)" fill="#ffa412"></rect><path id="Trazado_224" data-name="Trazado 224" d="M1422.747,917.374h.123l.014-7.831h-.615c.032,0,.065-.008.1-.015l.014-7.777a1.266,1.266,0,0,0-.263-.028h-.438l-.014,7.831h.438c.027,0,.053,0,.08,0l-.014,7.647c-.026,0-.052,0-.079,0h-.438l-.014,7.819h-.383l.014-7.819h-.657l.014-7.638.657,0,.014-7.831-.7,0-.014,7.819-.657,0-.014,7.831.657,0-.014,7.651h.533l-.014,7.819.7,0,.014-7.819h.288a1.282,1.282,0,0,0,.263-.027l.014-7.623h.273l-.014,7.536a1.553,1.553,0,0,0,.7-.636l.012-6.326a1.582,1.582,0,0,0-.578-.573" transform="translate(-1151.791 -731.448)" fill="#ffa412"></path><rect id="Rect&#xE1;ngulo_422" data-name="Rect&#xE1;ngulo 422" width="7.831" height="0.701" transform="translate(246.858 185.868) rotate(-89.877)" fill="#ffa412"></rect><rect id="Rect&#xE1;ngulo_423" data-name="Rect&#xE1;ngulo 423" width="7.832" height="0.701" transform="translate(240.237 185.853) rotate(-89.861)" fill="#ffa412"></rect><rect id="Rect&#xE1;ngulo_424" data-name="Rect&#xE1;ngulo 424" width="7.832" height="0.701" transform="translate(234.326 185.839) rotate(-89.861)" fill="#ffa412"></rect><rect id="Rect&#xE1;ngulo_425" data-name="Rect&#xE1;ngulo 425" width="7.832" height="0.701" transform="translate(271.869 185.928) rotate(-89.861)" fill="#ffa412"></rect><rect id="Rect&#xE1;ngulo_426" data-name="Rect&#xE1;ngulo 426" width="7.831" height="0.701" transform="translate(273.309 185.931) rotate(-89.861)" fill="#ffa412"></rect><path id="Trazado_225" data-name="Trazado 225" d="M1453.158,943.2l-.014,7.832h.438a1.273,1.273,0,0,0,.263-.027l.014-7.777a1.285,1.285,0,0,0-.263-.028Z" transform="translate(-1178.748 -765.094)" fill="#ffa412"></path><path id="Trazado_226" data-name="Trazado 226" d="M1459,950.782l.012-6.326a1.559,1.559,0,0,0-.7-.64l-.014,7.6a1.553,1.553,0,0,0,.7-.636" transform="translate(-1182.933 -765.598)" fill="#ffa412"></path><rect id="Rect&#xE1;ngulo_427" data-name="Rect&#xE1;ngulo 427" width="7.831" height="0.701" transform="translate(261.225 178.083) rotate(-89.861)" fill="#ffa412"></rect><path id="Trazado_227" data-name="Trazado 227" d="M1368.935,901.59h-.7l-.014,7.831h.173l-.014,7.638h-.173l-.014,7.831h.7l.014-7.651h.173l.014-7.831h-.173Z" transform="translate(-1109.838 -731.343)" fill="#ffa412"></path><path id="Trazado_228" data-name="Trazado 228" d="M1344.85,909.352h-.078l-.014,7.831h.078l-.014,7.651.7,0,.014-7.831h-.078l.014-7.638h.078l.014-7.831-.7,0Z" transform="translate(-1090.829 -731.298)" fill="#ffa412"></path><rect id="Rect&#xE1;ngulo_428" data-name="Rect&#xE1;ngulo 428" width="7.832" height="0.701" transform="translate(249.407 178.055) rotate(-89.861)" fill="#ffa412"></rect><rect id="Rect&#xE1;ngulo_429" data-name="Rect&#xE1;ngulo 429" width="7.831" height="0.701" transform="translate(242.337 178.038) rotate(-89.861)" fill="#ffa412"></rect><rect id="Rect&#xE1;ngulo_430" data-name="Rect&#xE1;ngulo 430" width="7.832" height="0.701" transform="translate(235.716 178.023) rotate(-89.846)" fill="#ffa412"></rect><rect id="Rect&#xE1;ngulo_431" data-name="Rect&#xE1;ngulo 431" width="7.831" height="0.701" transform="matrix(0.002, -1, 1, 0.002, 229.807, 178.009)" fill="#ffa412"></rect><rect id="Rect&#xE1;ngulo_432" data-name="Rect&#xE1;ngulo 432" width="7.831" height="0.701" transform="matrix(0.003, -1, 1, 0.003, 267.348, 178.098)" fill="#ffa412"></rect><path id="Trazado_229" data-name="Trazado 229" d="M1434.38,902.352l-.014,7.6a1.557,1.557,0,0,0,.7-.636l.011-6.326a1.555,1.555,0,0,0-.7-.64" transform="translate(-1163.517 -731.963)" fill="#ffa412"></path><path id="Trazado_230" data-name="Trazado 230" d="M1488.37,1012.793l4.354.773a1.862,1.862,0,0,1,.892.418,1.559,1.559,0,0,1,.505.8,1.342,1.342,0,0,1,.019.548l-10.818,60.717a1.6,1.6,0,0,1-1.853,1.185l-.087-.014-4.355-.773-.086-.017a1.6,1.6,0,0,1-1.33-1.75l10.818-60.717c.007-.039.016-.078.026-.115,0-.016.009-.033.014-.049s.011-.036.018-.053.01-.025.014-.038a1.284,1.284,0,0,1,.134-.254l.024-.035.025-.034c.017-.022.036-.045.054-.067l.034-.038c.011-.012.02-.022.032-.033s.041-.041.062-.06.051-.044.077-.064.041-.032.063-.048l0,0,.045-.03a1.508,1.508,0,0,1,.144-.084l.044-.022.046-.021c.031-.014.063-.027.1-.039a1.861,1.861,0,0,1,.982-.085" transform="translate(-1196.957 -821.525)" fill="#ffb93e"></path><path id="Trazado_231" data-name="Trazado 231" d="M1488.987,1176.492l-5.8,32.529a1.537,1.537,0,0,1-1.825,1.027l-.087-.014-4.355-.773-.086-.017a1.535,1.535,0,0,1-1.358-1.593l5.083-28.533.2-.006a14.485,14.485,0,0,0,8.226-2.62" transform="translate(-1196.854 -954.337)" fill="#ffa412"></path><rect id="Rect&#xE1;ngulo_433" data-name="Rect&#xE1;ngulo 433" width="0.701" height="7.831" transform="matrix(0.176, -0.984, 0.984, 0.176, 288.295, 199.046)" fill="#ffa412"></rect><rect id="Rect&#xE1;ngulo_434" data-name="Rect&#xE1;ngulo 434" width="0.701" height="7.831" transform="translate(287.879 201.384) rotate(-79.913)" fill="#ffa412"></rect><rect id="Rect&#xE1;ngulo_435" data-name="Rect&#xE1;ngulo 435" width="0.701" height="7.831" transform="matrix(0.175, -0.985, 0.985, 0.175, 287.38, 204.184)" fill="#ffa412"></rect><rect id="Rect&#xE1;ngulo_436" data-name="Rect&#xE1;ngulo 436" width="0.701" height="7.831" transform="matrix(0.175, -0.985, 0.985, 0.175, 286.615, 208.478)" fill="#ffa412"></rect><rect id="Rect&#xE1;ngulo_437" data-name="Rect&#xE1;ngulo 437" width="0.701" height="7.831" transform="translate(285.806 213.019) rotate(-79.913)" fill="#ffa412"></rect><rect id="Rect&#xE1;ngulo_438" data-name="Rect&#xE1;ngulo 438" width="0.701" height="7.832" transform="matrix(0.175, -0.984, 0.984, 0.175, 284.566, 219.978)" fill="#ffa412"></rect><rect id="Rect&#xE1;ngulo_439" data-name="Rect&#xE1;ngulo 439" width="0.701" height="7.831" transform="translate(283.405 226.497) rotate(-79.913)" fill="#ffa412"></rect><rect id="Rect&#xE1;ngulo_440" data-name="Rect&#xE1;ngulo 440" width="0.701" height="7.831" transform="translate(282.368 232.314) rotate(-79.886)" fill="#ffa412"></rect><rect id="Rect&#xE1;ngulo_441" data-name="Rect&#xE1;ngulo 441" width="0.701" height="7.831" transform="matrix(0.175, -0.985, 0.985, 0.175, 288.692, 196.823)" fill="#ffa412"></rect><rect id="Rect&#xE1;ngulo_442" data-name="Rect&#xE1;ngulo 442" width="0.701" height="7.831" transform="matrix(0.175, -0.984, 0.984, 0.175, 288.953, 195.354)" fill="#ffa412"></rect><rect id="Rect&#xE1;ngulo_443" data-name="Rect&#xE1;ngulo 443" width="0.701" height="7.831" transform="matrix(0.175, -0.985, 0.985, 0.175, 289.206, 193.936)" fill="#ffa412"></rect><path id="Trazado_232" data-name="Trazado 232" d="M1532.58,1018.464l7.711,1.369.077-.431a1.28,1.28,0,0,0,.019-.264l-7.657-1.36a1.275,1.275,0,0,0-.073.254Z" transform="translate(-1243.185 -825.593)" fill="#ffa412"></path><path id="Trazado_233" data-name="Trazado 233" d="M1534.084,1013.954l7.485,1.329a1.557,1.557,0,0,0-.505-.8l-6.228-1.106a1.559,1.559,0,0,0-.751.578" transform="translate(-1244.405 -822.022)" fill="#ffa412"></path><path id="Trazado_234" data-name="Trazado 234" d="M2206.007,1227.785h-26.5c-1.42-1.2.983-3.941,3.494-4.124a15.48,15.48,0,0,1,4.045.479c.365-4.844,2.447-26.62,10.3-25.745,8.826.979,0,9.59-2.5,14.687a121.188,121.188,0,0,0-4.688,11.745c.716.155,1.458.308,2.216.447,1.17-3.592,5.523-15.673,11.058-14.969,6.5.824,3.886,5.668-.72,8.544-3.379,2.114-7.529,5.12-9.5,6.572a28.178,28.178,0,0,0,5.183.415c4.54-.108,6.756,1.23,7.615,1.95" transform="translate(-1767.607 -972.083)" fill="#95aaf5"></path><path id="Trazado_235" data-name="Trazado 235" d="M446.828,1265.93c-1.053-1.654-4.221-5.945-8.44-5.377-4.6.619,5.077,3.65,8.039,5.39a4.908,4.908,0,0,1-1.639-.191c-1.98-.706-5.371.648-6.455,1.122h18.851a2.987,2.987,0,0,0-1.348-1.724,3.367,3.367,0,0,0-1.735-.154c1.121-1.321,1.9-5.542-1.221-4.456-2.28.793-2.273,3.373-2.05,4.9-.485.076-.977.153-1.463.223-.939-4.783-4.258-18.8-10.986-19.175-6.821-.379,5.784,14.538,9.981,19.309-.538.065-1.056.114-1.535.136" transform="translate(-353.992 -1011.107)" fill="#95aaf5"></path><path id="Trazado_236" data-name="Trazado 236" d="M1287.011,487.564a27.146,27.146,0,1,0-10.668,36.878,27.146,27.146,0,0,0,10.668-36.878" transform="translate(-1002.678 -384.105)" fill="#e2810e"></path><path id="Trazado_237" data-name="Trazado 237" d="M1276.028,493.619A27.146,27.146,0,1,0,1265.36,530.5a27.146,27.146,0,0,0,10.668-36.878" transform="translate(-993.769 -389.016)" fill="#ffb93e"></path><path id="Trazado_238" data-name="Trazado 238" d="M1263.456,543.279a24.726,24.726,0,1,1,11.9-3.069,24.751,24.751,0,0,1-11.9,3.069m-.075-48a23.327,23.327,0,1,0,6.5.927,23.363,23.363,0,0,0-6.5-.927" transform="translate(-1004.773 -400.562)" fill="#ffa412"></path><path id="Trazado_239" data-name="Trazado 239" d="M1327.193,552.806a4.083,4.083,0,0,0-.744-1.23,2.983,2.983,0,0,0-1.108-.751,5.629,5.629,0,0,0-1.581-.352,14.874,14.874,0,0,0-2.156-.014,39.062,39.062,0,0,1-3.965.005,12.325,12.325,0,0,1-3.3-.6,7.248,7.248,0,0,1-2.588-1.516,8.176,8.176,0,0,1-2.406-5.732,6.876,6.876,0,0,1,.651-2.79,8.579,8.579,0,0,1,1.772-2.469,11.44,11.44,0,0,1,2.81-2l-1.544-3.8,3.061-1.243,1.566,3.857a10.268,10.268,0,0,1,3.338-.341,7.759,7.759,0,0,1,5.422,2.675,10.326,10.326,0,0,1,1.809,3l-5.53,2.245a5.028,5.028,0,0,0-2.243-2.806,3.494,3.494,0,0,0-2.965-.028,4.45,4.45,0,0,0-1.385.842,3.015,3.015,0,0,0-.757,1.073,2.807,2.807,0,0,0-.193,1.228,4.124,4.124,0,0,0,.307,1.3,3.78,3.78,0,0,0,.675,1.113,2.8,2.8,0,0,0,1.061.719,5.636,5.636,0,0,0,1.59.348,18.973,18.973,0,0,0,2.259.046q2.137-.06,3.954.051a12.444,12.444,0,0,1,3.294.619,6.992,6.992,0,0,1,4.407,4.267,7.471,7.471,0,0,1,.595,3.029,6.786,6.786,0,0,1-.667,2.776,8.291,8.291,0,0,1-1.809,2.433,12.355,12.355,0,0,1-2.84,1.981l1.437,3.537-3.043,1.235L1324.952,562a13.854,13.854,0,0,1-3.352.554,8.787,8.787,0,0,1-3.255-.469,7.855,7.855,0,0,1-2.865-1.787,9.566,9.566,0,0,1-2.176-3.381l5.53-2.245a5.892,5.892,0,0,0,1.209,1.962,3.81,3.81,0,0,0,1.5.966,3.7,3.7,0,0,0,1.638.163,6.33,6.33,0,0,0,1.623-.421,5.29,5.29,0,0,0,1.484-.872,3.534,3.534,0,0,0,.879-1.1,2.809,2.809,0,0,0,.3-1.248,3.421,3.421,0,0,0-.265-1.311" transform="translate(-1062.105 -430.174)" fill="#ffa412"></path><path id="Trazado_240" data-name="Trazado 240" d="M1458.224,530.359c-1.136-.8-3.711-2.566-3.845-2.173a1.73,1.73,0,0,0,.35,1.263c-1.558-.582-3.139-.964-6.88-.245a2.8,2.8,0,0,0-1.84,1.211,1.237,1.237,0,0,0,.431,1.93c1.908,1.187,1.355.476,4.008,2.2s5.9,2.169,7.841.957l2.6-.434.323-4.283s-1.484-.177-2.992-.429" transform="translate(-1172.724 -428.404)" fill="#ffb27d"></path><path id="Trazado_241" data-name="Trazado 241" d="M1805.315,290.8s-6.139,7.283-13.957,4.237a23.678,23.678,0,0,1-1.706-7.066c0-.369-.007-.727-.013-1.067-.042-3.377-.155-5.271-.155-5.271l.008,0c.356-.148,11.951-4.909,11.941-4.513-.2,9.132,3.882,13.683,3.882,13.683" transform="translate(-1451.578 -224.775)" fill="#ffb27d"></path><path id="Trazado_242" data-name="Trazado 242" d="M1800.27,288.386a18.135,18.135,0,0,1-10.63,7.609c-.042-3.377-.156-5.271-.156-5.271l.008,0c.321-.086,11.11-2.947,10.777-2.336" transform="translate(-1451.578 -233.862)" fill="#ed975d"></path><path id="Trazado_243" data-name="Trazado 243" d="M1767.909,206.95s13.04,3.066,14.825-5.085,4.668-13.243-3.582-15.545-10.554.453-11.812,3.028-2.777,16.594.569,17.6" transform="translate(-1432.432 -150.439)" fill="#ffb27d"></path><path id="Trazado_244" data-name="Trazado 244" d="M1763.546,176.635c.178.114,2.984.976,8.3-9.61a9.219,9.219,0,0,0-.542-8.433c-1.944-3.176-8.839-5.674-14.567-6.761s-7.1,2.137-8.452,5.376c-1.416,3.4-5.506,6.2-5.506,6.2,4.939,2.759,10.889-1.187,12.95-.538s2.789,3.9,2.944,4.939.392,1.907,2.984.977,1.172,3.673.757,4.553c0,0-.352,2.344,1.135,3.3" transform="translate(-1413.69 -122.987)" fill="#a9453d"></path><path id="Trazado_245" data-name="Trazado 245" d="M2029.594,1276.688h7.9c1.655,0,3.495-1.657,3.955-4.692s3.863-4.692,4.6-7.176-3.036-5.981-3.036-5.981l-.631-.81-.656-.845-6.255,1.471s-.154,1.489-.251,3.386a43.291,43.291,0,0,0-.025,4.342c.184,3.313-.928,6.879-3.87,7.523s-1.726,2.781-1.726,2.781" transform="translate(-1646.145 -1019.793)" fill="#2c3a64"></path><path id="Trazado_246" data-name="Trazado 246" d="M1739.561,1311.517h20.931a1.89,1.89,0,0,0,.444-.129c1.4-.7.96-6.05.792-7.7-.032-.306-.055-.486-.055-.486s-7.36-5.887-8.373-1.379c-.032.141-.069.279-.108.415v0c-1.278,4.217-6.989,6.133-10.288,6.667-2.521.41-3.175,1.878-3.343,2.613" transform="translate(-1411.082 -1054.621)" fill="#2c3a64"></path><path id="Trazado_247" data-name="Trazado 247" d="M1761.9,712.975s1.118,13.946,2.431,30.709c1.786,22.772,3.933,50.743,4.145,56.042.367,9.2,1.841,23.92,1.841,23.92s3.494,3.5,10.488,2.023a240.8,240.8,0,0,0,8.012-43.241c.027-.364.055-.731.083-1.1,1.656-22.631,4.231-70.285,4.231-70.285Z" transform="translate(-1429.204 -576.778)" fill="#2b478b"></path><path id="Trazado_248" data-name="Trazado 248" d="M1761.9,712.975s1.118,13.946,2.431,30.709l24.486,38.743c.027-.364.055-.731.083-1.1,1.656-22.631,4.231-70.285,4.231-70.285Z" transform="translate(-1429.204 -576.778)" fill="#233862"></path><path id="Trazado_249" data-name="Trazado 249" d="M1788.934,690.919s20.147,50.505,33.394,74.24,17.387,30.358,17.387,30.358,7.59-3.036,8.279-5.106c0,0-5.066-45.821-13.937-56.991-5.013-6.312-10.9-25.253-11.177-31.876s-1.794-19.733-1.794-19.733Z" transform="translate(-1451.131 -553.066)" fill="#2b478b"></path><path id="Trazado_250" data-name="Trazado 250" d="M2031.572,676.342l.213,3.248a7,7,0,0,0,3.86,8.73s2.569,1.036,2.674-.964-.225-1.248-.016-4.064-.9-5.478-2.762-6.375l-1.529-1.764Z" transform="translate(-1647.823 -547.665)" fill="#ffb27d"></path><path id="Trazado_251" data-name="Trazado 251" d="M1883.211,418.16c-2.23.716-2.587.554-2.587.554s-10.854-19.761-11.953-21.57-23.045-22.159-23.045-22.159l5.64-21.03s24.96,32.322,27.655,36.96c4.454,7.664,7.064,25.464,7.064,25.464a6.527,6.527,0,0,1-2.774,1.781" transform="translate(-1497.118 -287.119)" fill="#1e3d70"></path><path id="Trazado_252" data-name="Trazado 252" d="M1739.267,363.041c.078,4.319.329,9.174.667,14.1q.031.439.062.877c.217,3.055.452,6.117.721,9.1.108,1.2.223,2.38.343,3.543l.019.157c.009.435.062.907.11,1.337,1.1,11.184,2.254,20.019,2.468,20.155a1.255,1.255,0,0,0,.859.219c2.933-.368,11.683.3,18.847-1.261a54.317,54.317,0,0,0,16.766-6.952c.732-.433,2.4-1.579,2.266-2.436-.134-.942-.38-2.3-.693-4.012a217.131,217.131,0,0,1-3.6-28.157q-.186-3.346-.541-6.6a100.211,100.211,0,0,0-2.921-15.762c-2.457-8.845-6.066-15.617-10.594-18.267-.592-.331-3.775,1.694-6.7,3.571a12.908,12.908,0,0,1-8.308,1.968l-2.433,2.691a27.175,27.175,0,0,0-6.941,14.469q-.1.718-.166,1.528a95.079,95.079,0,0,0-.228,9.726" transform="translate(-1410.822 -266.918)" fill="#2a4e96"></path><path id="Trazado_253" data-name="Trazado 253" d="M1739.267,445.939c.078,4.319.329,9.174.667,14.1q.031.439.062.877c16.752-10.486,19.333-29.674,19.333-29.674-8.241.361-14.789,2.256-19.835,4.965a95.08,95.08,0,0,0-.228,9.726" transform="translate(-1410.822 -349.816)" fill="#1e3d70"></path><path id="Trazado_254" data-name="Trazado 254" d="M1515.154,405.179c-.173-2.485,1.114-2.9,1.114-2.9s25.258-4.577,27.405-5.253,20.507-19.775,20.507-19.775,7.037-7.937,12.8-6.184c5.008,1.523,6.965,5.429,7.631,9.15a10.961,10.961,0,0,1-5.09,11.251c-8.619,5.287-25.876,15.7-29.94,16.9-9.045,2.652-33.348.213-33.348.213a7.843,7.843,0,0,1-1.079-3.4" transform="translate(-1229.036 -300.796)" fill="#2a4e96"></path><g id="Grupo_279" data-name="Grupo 279" transform="translate(199.196 125.28)" opacity="0.2"><g id="Grupo_278" data-name="Grupo 278"><g id="Grupo_277" data-name="Grupo 277" clip-path="url(#clip-path-3)"><path id="Trazado_255" data-name="Trazado 255" d="M1171.545,691.079v93.886a9.987,9.987,0,0,1-9.957,9.958h-96.506a10.136,10.136,0,0,1-6.853-2.669,10.266,10.266,0,0,1-2.181-2.833c-.03-.057-.059-.114-.087-.173a10.035,10.035,0,0,1-1.032-3.8c-.018-.232-.025-.465-.025-.7V691.682a15.408,15.408,0,0,1,7.16-12.971l.011-.006a13.342,13.342,0,0,0,5.533-15.241h91.231a13.34,13.34,0,0,0,5.081,14.938h0c.23.16.465.314.7.458v0a14.318,14.318,0,0,1,6.915,12.217" transform="translate(-1054.903 -663.463)" fill="#ed9f4a"></path></g></g></g><g id="Grupo_282" data-name="Grupo 282" transform="translate(253.208 125.28)" opacity="0.2"><g id="Grupo_281" data-name="Grupo 281"><g id="Grupo_280" data-name="Grupo 280" clip-path="url(#clip-path-4)"><path id="Trazado_256" data-name="Trazado 256" d="M1403.572,691.079v93.886a9.99,9.99,0,0,1-9.254,9.933c-.232.018-.466.025-.7.025h-42.494a10.208,10.208,0,0,1-10.178-10.178V691.682a15.408,15.408,0,0,1,7.16-12.971,13.339,13.339,0,0,0,5.546-15.247h37.217a13.341,13.341,0,0,0,5.79,15.4,14.318,14.318,0,0,1,6.915,12.217" transform="translate(-1340.943 -663.463)" fill="#ed9f4a"></path></g></g></g><g id="Grupo_285" data-name="Grupo 285" transform="translate(206.367 125.28)" opacity="0.6"><g id="Grupo_284" data-name="Grupo 284"><g id="Grupo_283" data-name="Grupo 283" clip-path="url(#clip-path-5)"><path id="Trazado_257" data-name="Trazado 257" d="M1194.73,678.4c-2.98-1.784-15.889-8.109-48.719-7.841-37.6.308-52.666,7.908-53.127,8.144a13.341,13.341,0,0,0,5.533-15.241h91.231a13.339,13.339,0,0,0,5.081,14.938" transform="translate(-1092.883 -663.464)" fill="#ed9f4a"></path></g></g></g><path id="Trazado_258" data-name="Trazado 258" d="M1206.607,656.71v4.258a.764.764,0,0,1-.761.763h-93.84a.764.764,0,0,1-.763-.763V656.71a.765.765,0,0,1,.763-.763h93.84a.765.765,0,0,1,.761.763" transform="translate(-901.408 -532.086)" fill="#95aaf5"></path><path id="Trazado_259" data-name="Trazado 259" d="M1457.137,656.71v4.258a.764.764,0,0,1-.761.763h-35.52a.765.765,0,0,1-.763-.763V656.71a.766.766,0,0,1,.763-.763h35.52a.765.765,0,0,1,.761.763" transform="translate(-1151.938 -532.086)" fill="#718fe5"></path><path id="Trazado_260" data-name="Trazado 260" d="M1235.9,751.841s-2.419,3.405-4.636,3.453-5.591-1.578-5.591-1.578-2.036-4.537-.655-6.313a2.964,2.964,0,0,1,2.833.466,4.343,4.343,0,0,1,.75.718,2.378,2.378,0,0,0,1.164.789c1.582.482,3.46-.651,4.163.442a7.415,7.415,0,0,0,1.223,1.448,5.592,5.592,0,0,0,.75.576" transform="translate(-993.31 -606.133)" fill="#f9ddbf"></path><path id="Trazado_261" data-name="Trazado 261" d="M1117.723,811.039s8.549-20.714,23.937-21.109c0,0,14.2,1.578,14.993,21.109Z" transform="translate(-906.665 -640.769)" fill="#f9ddbf"></path><path id="Trazado_262" data-name="Trazado 262" d="M1222.033,781.763s6.168,1.372,8.071.565a1.905,1.905,0,0,0-2.31-2.217,5.452,5.452,0,0,1-3.617-.954c-.964-.491-2.4,1.527-2.144,2.605" transform="translate(-991.253 -631.969)" fill="#f1a34f"></path><path id="Trazado_263" data-name="Trazado 263" d="M1243.69,754.776c-.395.3-1.606-4.171-1.606-4.171a4.337,4.337,0,0,1,.75.718,2.38,2.38,0,0,0,1.164.789c0,.13.075,2.375-.307,2.663" transform="translate(-1007.543 -608.87)" fill="#e5c1a1"></path><path id="Trazado_264" data-name="Trazado 264" d="M1266.27,762.375a25.434,25.434,0,0,1-3.326,1.76c-.395,0,2.1-3.208,2.1-3.208a7.422,7.422,0,0,0,1.223,1.448" transform="translate(-1024.43 -617.243)" fill="#e5c1a1"></path><path id="Trazado_265" data-name="Trazado 265" d="M1161.938,831.517c-.158-.135,6.05-9.141,7.76-9.206s5.551,1.973,8.332,2.236,5.477-.526,6,1.118,1.973,7.473,1.085,8.405-19.767.363-23.181-2.553" transform="translate(-942.528 -667.034)" fill="#e5c1a1"></path><g id="Grupo_288" data-name="Grupo 288" transform="translate(199.196 180.991)" opacity="0.5"><g id="Grupo_287" data-name="Grupo 287"><g id="Grupo_286" data-name="Grupo 286" clip-path="url(#clip-path-6)"><path id="Trazado_266" data-name="Trazado 266" d="M1068.206,1027.154c-.495.26-.993.506-1.494.744-.477.276-.963.547-1.458.806a39.809,39.809,0,0,1-7.024,2.875,10.254,10.254,0,0,1-2.181-2.833c-.381.2-.761.4-1.145.588V958.5a40.315,40.315,0,0,1,5.2,1.047,38.231,38.231,0,0,1,23.275,17.631c10.3,17.793,3.5,40.169-15.177,49.978" transform="translate(-1054.904 -958.499)" fill="#e2810e"></path></g></g></g><path id="Trazado_267" data-name="Trazado 267" d="M848.4,956.793a38.619,38.619,0,1,0-15.177,52.464A38.619,38.619,0,0,0,848.4,956.793" transform="translate(-629.43 -759.914)" fill="#e2810e"></path><path id="Trazado_268" data-name="Trazado 268" d="M819.046,1017.027q-.714.435-1.451.842c-.166.092-.333.182-.5.27-.381.2-.761.4-1.145.588a38.62,38.62,0,0,1-35.642-68.5q.742-.409,1.5-.782.73-.364,1.472-.693a38.57,38.57,0,0,1,11.592-3.116,38.625,38.625,0,0,1,24.179,71.391" transform="translate(-616.754 -766.9)" fill="#ffb93e"></path><path id="Trazado_269" data-name="Trazado 269" d="M814.878,1036.077a35.333,35.333,0,0,1-9.828-1.4,34.975,34.975,0,1,1,9.828,1.4m-29.026-19.229a33.087,33.087,0,1,0-2.808-25.167,32.869,32.869,0,0,0,2.808,25.167" transform="translate(-632.41 -783.326)" fill="#ffa412"></path><path id="Trazado_270" data-name="Trazado 270" d="M913.407,1046.365c-.076-.19-.157-.374-.24-.555a10.133,10.133,0,0,0-2.342-3.346,10.46,10.46,0,0,0-3.687-2.169,17.64,17.64,0,0,0-4.685-.88q-2.586-.159-5.627-.073a27.075,27.075,0,0,1-3.213-.065,8.058,8.058,0,0,1-2.262-.495,3.967,3.967,0,0,1-1.51-1.023,5.381,5.381,0,0,1-.959-1.583,5.865,5.865,0,0,1-.436-1.856,3.982,3.982,0,0,1,.275-1.746,4.268,4.268,0,0,1,1.077-1.526,6.288,6.288,0,0,1,1.97-1.2,4.969,4.969,0,0,1,4.219.04,7.159,7.159,0,0,1,3.189,3.992l7.868-3.194a14.709,14.709,0,0,0-2.576-4.271,11.037,11.037,0,0,0-7.713-3.8,14.581,14.581,0,0,0-4.748.485l-2.228-5.487-4.355,1.768,2.2,5.411a16.326,16.326,0,0,0-4,2.845,12.213,12.213,0,0,0-2.52,3.513,9.792,9.792,0,0,0-.926,3.969,11.628,11.628,0,0,0,3.422,8.154,10.3,10.3,0,0,0,3.683,2.157,17.429,17.429,0,0,0,4.688.85,55.393,55.393,0,0,0,5.641-.006,20.852,20.852,0,0,1,3.069.02,8,8,0,0,1,2.249.5,4.255,4.255,0,0,1,1.575,1.069,5.8,5.8,0,0,1,1.059,1.749,4.852,4.852,0,0,1,.376,1.865,3.978,3.978,0,0,1-.42,1.776,5.018,5.018,0,0,1-1.25,1.568,7.547,7.547,0,0,1-2.113,1.24,9.086,9.086,0,0,1-2.309.6,5.278,5.278,0,0,1-2.33-.233,5.418,5.418,0,0,1-2.127-1.375,8.355,8.355,0,0,1-1.721-2.791l-7.866,3.194a13.586,13.586,0,0,0,3.094,4.81,11.169,11.169,0,0,0,4.076,2.542,12.465,12.465,0,0,0,4.631.668,19.646,19.646,0,0,0,4.77-.788l2.031,5.007,4.328-1.757-2.043-5.031a17.577,17.577,0,0,0,4.039-2.82,11.923,11.923,0,0,0,2.438-3.183c.047-.092.094-.184.138-.278a9.676,9.676,0,0,0,.948-3.949,10.63,10.63,0,0,0-.847-4.309" transform="translate(-713.971 -825.456)" fill="#ffa412"></path><path id="Trazado_271" data-name="Trazado 271" d="M752.59,429.425c.118-.473-10.286,4.7-10.814,5.287-4.879,5.413-3.488,12.476-.7,12.544,1.79.043,1.444,3.021,1.444,3.021l19.948-8.439s-2.4-14.006-9.882-12.412" transform="translate(-599.086 -348.236)" fill="#2c3a64"></path><path id="Trazado_272" data-name="Trazado 272" d="M706.389,402.372s.713-7.771-7.97-7.771a10.2,10.2,0,0,1,3.992,2.141s-5.538-3.251-11.565,1.744-2.282,17.525-4.115,19.9-8.969,2.855-8.1,10.547,22.65,17.326,21.252,23.69c0,0,8.534-12.546,2.432-18.271,0,0,2.975,2.8,3.278,6.132,0,0,.807-6.5-3.331-8.582-3.662-1.841-6.661-8.572-6.344-9.775s10.467-19.759,10.467-19.759" transform="translate(-550.429 -320.09)" fill="#2c3a64"></path><path id="Trazado_273" data-name="Trazado 273" d="M719.4,602.76a7.71,7.71,0,0,0-13.654-3.182,6.984,6.984,0,0,0-1.375,3.387c-.9,7.318,10.8,37.127,12.474,39.826,3.051,4.914,21.015,21.758,21.015,21.758l3.311-2.006s-12.742-21.572-14.715-23.591c-2.281-2.334-4.514-23.951-7.056-36.193" transform="translate(-571.328 -483.918)" fill="#ed985f"></path><path id="Trazado_274" data-name="Trazado 274" d="M875.272,933.225s4.832-3.172,6.661-2.968,7.124,1.728,7.188,2.506-5.9,1.264-6.3,1.689-4.45,3.129-5.918,2.281-1.632-3.508-1.632-3.508" transform="translate(-709.995 -754.59)" fill="#ed985f"></path><path id="Trazado_275" data-name="Trazado 275" d="M485.562,857.62l-4.317-.634a51.033,51.033,0,0,1-16.676-33.057,38.468,38.468,0,0,1-.1-6.655,1.165,1.165,0,0,0-.151-.734s0,0,0-.006c-.465-.712-1.621-2.5-3.186-5.034-1.543-2.5-4.184-7.226-7.089-12.529-5.234-9.55-11.327-20.972-13.417-24.611-6.659-11.595-3.449-19.391-3.449-19.391s18.578-1.837,23.668-6.29l1.834,2.826s4.025,17.82,3.835,17.9q.3.909.6,1.851a309.867,309.867,0,0,1,8.823,32.039c1.12,5.616,1.713,10.508,1.394,13.842a24.279,24.279,0,0,0,.328,5.07c1.8,12.789,7.908,35.411,7.908,35.411" transform="translate(-353.991 -607.307)" fill="#2b478b"></path><path id="Trazado_276" data-name="Trazado 276" d="M666.934,1311.485h-18.01a9.889,9.889,0,0,1,.509-4.827c.9-2,2.186-2.062.164-5.194,1.144,1.178,4.823,1.666,7.427,1.315.319.517,2.057,3.987,3.122,4.753,1.177.846,6.425.544,6.788,3.953" transform="translate(-526.308 -1055.711)" fill="#233862"></path><path id="Trazado_277" data-name="Trazado 277" d="M467.11,771.257c-1.573,8.676-5.289,23.117-13.075,27.713-5.234-9.55-11.327-20.972-13.417-24.611-6.659-11.595-3.45-19.391-3.45-19.391s18.578-1.837,23.669-6.29l1.834,2.826s4.025,17.82,3.835,17.9q.3.909.6,1.851" transform="translate(-353.991 -607.307)" fill="#233862"></path><path id="Trazado_278" data-name="Trazado 278" d="M731.677,608.186a19.283,19.283,0,0,1,3.709,5.82s-4.062,11.665-13.556,13.128c0,0,7.511-18.953,9.846-18.948" transform="translate(-585.528 -493.344)" fill="#ed7d2b"></path><path id="Trazado_279" data-name="Trazado 279" d="M337.967,740.163l.061-3.369c-6.711.846-23.14-8.02-23.14-8.02s-7.021,4.67-7.982,18.006c-.469,6.509-3.437,34.038-3.765,42.258-.12,2.979-.159,5.106-.173,5.955a.019.019,0,0,1,0,.008,1.171,1.171,0,0,1-.285.693,38.455,38.455,0,0,0-3.636,5.574c-10.241,19.054-4.885,44.943-4.885,44.943l2.378-.6s8.659-26.839,14.318-38.448a24.322,24.322,0,0,1,2.563-4.387c2.128-2.584,4.372-6.973,6.583-12.256,4.181-9.986,8.239-23.164,11.134-33.367.2.037,6.829-16.987,6.829-16.987" transform="translate(-237.479 -591.162)" fill="#2b478b"></path><path id="Trazado_280" data-name="Trazado 280" d="M713.875,558.959c-10.971-2.518-3.962-17.935-3.326-17.664,1.52-.31,4.858-2.979,7.845-8.192l.4.35,6.738,5.908s-1.557,2.3-2.868,4.548c-1.024,1.762-1.894,3.5-1.756,4.094.542.427-4.11,11.628-7.037,10.955" transform="translate(-574.114 -432.439)" fill="#ffb27d"></path><path id="Trazado_281" data-name="Trazado 281" d="M772.413,540.873s-1.558,2.295-2.868,4.548c-4.189-2.583-4.194-7.769-3.871-10.456Z" transform="translate(-620.991 -433.949)" fill="#ed985f"></path><path id="Trazado_282" data-name="Trazado 282" d="M771.4,492.09s-10.172-5.66-6.55-11.941,4.749-11.241,11.4-7.893,6.516,6.466,5.817,8.857S774.14,493.4,771.4,492.09" transform="translate(-619.792 -382.207)" fill="#ffb27d"></path><path id="Trazado_283" data-name="Trazado 283" d="M779.189,473.8c-.466-2.789-1.882-3.055-2.87-2.868a8.136,8.136,0,0,0-9.894-3.788,13.851,13.851,0,0,1-8.018,4.816s1.181,2.2,6.044,3.556a8.311,8.311,0,0,0,4.8-.384,27.153,27.153,0,0,1-6.9,2.6c6.409.586,12.508-5.273,13.14-5.9a9.124,9.124,0,0,1,.5,4.2c-.422,1.889-2.1,5.31-1.075,5.753,0,0,4.973-3.8,4.274-7.985" transform="translate(-615.198 -378.553)" fill="#2c3a64"></path><path id="Trazado_284" data-name="Trazado 284" d="M298.226,1310.926h-18.01a9.889,9.889,0,0,1,.509-4.827c.9-2,2.313-2.906,1.975-5.324a6.485,6.485,0,0,0,5.613,2.147,19.752,19.752,0,0,0,3.125,4.051c1.177.846,6.425.544,6.787,3.953" transform="translate(-227.223 -1055.152)" fill="#233862"></path><path id="Trazado_285" data-name="Trazado 285" d="M473.58,593.588a43.819,43.819,0,0,1-8.9,1.613c-4.736.517-9.625.871-12.186,1.892a2.751,2.751,0,0,0-1.754,1.421c-1.11,3.339-6,8.49-6,8.49-31.361-1.427-34.8-14.545-34.8-14.545,21.1-24.535,56.824-31.636,56.824-31.636s2.552-1.082,8.978,4.025c4.288,3.41,3.724,4.718,3.724,4.718s.937,21.643-5.882,24.022" transform="translate(-332.528 -454.846)" fill="#f99746"></path><path id="Trazado_286" data-name="Trazado 286" d="M647.076,633.7c-4.736.517-9.625.871-12.186,1.892a49.939,49.939,0,0,1,6.334-27.405s4.815,19.594,5.852,25.513" transform="translate(-514.921 -493.341)" fill="#ed7d2b"></path><path id="Trazado_287" data-name="Trazado 287" d="M670.377,592.158s-11.869,1.173-12.821,8.885,11.379,39.124,13.145,41.968c3.215,5.178,22.145,22.928,22.145,22.928l3.489-2.115s-13.428-22.732-15.507-24.859c-3.264-3.34-6.434-44.136-10.452-46.807" transform="translate(-533.348 -480.342)" fill="#ffb27d"></path><path id="Trazado_288" data-name="Trazado 288" d="M648.9,597.743c.031.176,10.954,3.568,17.983,0,0,0,1.5-16.218-6.888-15.338s-13.361,3.523-13.573,7.541,2.478,7.8,2.478,7.8" transform="translate(-524.351 -472.402)" fill="#f99746"></path><path id="Trazado_289" data-name="Trazado 289" d="M838.96,953.714s4.258-3.91,6.1-4,7.309.557,7.5,1.315-5.618,2.2-5.945,2.682-3.887,3.8-5.473,3.2-2.176-3.2-2.176-3.2" transform="translate(-680.54 -770.372)" fill="#ffb27d"></path><path id="Trazado_290" data-name="Trazado 290" d="M488.376,1355.448H.554a.556.556,0,0,1-.554-.554v-.189a.555.555,0,0,1,.554-.554H488.376a.556.556,0,0,1,.554.554v.189a.556.556,0,0,1-.554.554" transform="translate(0 -1098.449)" fill="#2e3552"></path></g></g></g></svg>