<svg xmlns="http://www.w3.org/2000/svg" xmlns:xlink="http://www.w3.org/1999/xlink" width="451.607" height="366" viewBox="0 0 451.607 366"><defs><clipPath id="clip-path"><rect id="Rect&#xE1;ngulo_215" data-name="Rect&#xE1;ngulo 215" width="60.602" height="39.269" transform="translate(0 0)" fill="none"></rect></clipPath><clipPath id="clip-path-2"><path id="Trazado_7734" data-name="Trazado 7734" d="M0,209.141c0,84.6,75.285,129.908,166.423,139.1A355.256,355.256,0,0,0,202.036,350c2.269,0,4.517-.027,6.754-.075.106,0,.213-.006.32-.006q4.762-.112,9.423-.364a274.534,274.534,0,0,0,36.934-4.471,247.425,247.425,0,0,0,29.451-7.525q3.986-1.288,7.872-2.7c91.968-33.342,139.273-116.06,139.273-190.1,0-95.411-124.38-163.2-230.027-140.278C98.152,27.024,0,113.73,0,209.141" transform="translate(0 0.001)" fill="#fff"></path></clipPath><clipPath id="clip-path-3"><rect id="Rect&#xE1;ngulo_4582" data-name="Rect&#xE1;ngulo 4582" width="256.812" height="631.341" fill="none"></rect></clipPath><clipPath id="clip-path-4"><rect id="Rect&#xE1;ngulo_215-2" data-name="Rect&#xE1;ngulo 215" width="60.601" height="39.269" fill="none"></rect></clipPath></defs><g id="Grupo_1640" data-name="Grupo 1640" transform="translate(-763 -1152)"><path id="Trazado_7715" data-name="Trazado 7715" d="M0,209.141c0,84.6,75.285,129.908,166.423,139.1A355.256,355.256,0,0,0,202.036,350c2.269,0,4.517-.027,6.754-.075.106,0,.213-.006.32-.006q4.762-.112,9.423-.364a274.534,274.534,0,0,0,36.934-4.471,247.425,247.425,0,0,0,29.451-7.525q3.986-1.288,7.872-2.7c91.968-33.342,139.273-116.06,139.273-190.1,0-95.411-124.38-163.2-230.027-140.278C98.152,27.024,0,113.73,0,209.141" transform="translate(767.669 1168)" fill="#fff"></path><g id="Grupo_585" data-name="Grupo 585" transform="translate(763 1190.966)"><path id="Trazado_78" data-name="Trazado 78" d="M47.231,0A56.908,56.908,0,0,0,25.144,3.969C9.328,10.531-4.095,27.894,1.158,45.631c1.706,5.762.81,12.118,6.55,14.622,3.106,1.355,11.563,2.161,14.778,1.094C31.033,58.508,36.651,50.742,32,42.13c-1.488-2.758-3.415-5.277-4.7-8.136s-1.871-6.251-.561-9.1c2.572-5.588,11.118-7.365,16.66-7.2a19.392,19.392,0,0,1,15.987,8.983c4.387,6.917,5.5,15.33,4.856,23.359-.687,8.591-4.309,15.152-9.738,21.743C49.832,77.457,44.685,82.9,41.579,89.566c-2.852,6.117-3.784,12.894-3.913,19.586-.025,1.3-6.475,13.52-6.447,17.254,0,.528,7.316,2.275,7.843,2.281l13.42.15a1.07,1.07,0,0,0,1.083-1.055c.2-18.167,5.792-35.488,19.938-47.689,5.147-4.44,10.69-8.055,14.693-13.659,5.7-7.987,8.519-15.847,7.707-25.7-.742-9-3.706-18.01-9.574-25C80.021,8.227,70.789,3.539,61.2,1.516A70.79,70.79,0,0,0,47.231,0" transform="matrix(-0.966, 0.259, -0.259, -0.966, 126.113, 152.235)" fill="#3728ae"></path><path id="Trazado_79" data-name="Trazado 79" d="M28.377,14.516c0,8.354-4.631,15.745-12.985,15.745-1.8,0-7.943.017-9.547-.563C.021,27.594,0,23.12,0,16.57,0,8.216,2.821,0,11.175,0s17.2,6.162,17.2,14.516" transform="matrix(-0.966, 0.259, -0.259, -0.966, 59.481, 30.65)" fill="#3728ae"></path><path id="Trazado_80" data-name="Trazado 80" d="M47.231,0A56.909,56.909,0,0,0,25.144,3.969C9.328,10.531-4.095,27.894,1.158,45.631,2.864,51.392,6.81,58.645,12.55,61.149a14.037,14.037,0,0,0,9.937.2C31.033,58.508,36.651,50.742,32,42.13c-1.489-2.758-3.415-5.277-4.7-8.136s-1.871-6.251-.561-9.1c2.572-5.588,11.118-7.365,16.66-7.2a19.392,19.392,0,0,1,15.987,8.983c4.387,6.917,5.5,15.33,4.856,23.359-.687,8.591-4.309,15.152-9.738,21.743C49.832,77.457,44.685,82.9,41.579,89.566c-2.852,6.117-3.784,12.894-3.913,19.586-.025,1.3.412,14.841.439,18.575a.966.966,0,0,0,.956.96l13.42.15a1.07,1.07,0,0,0,1.083-1.055c.2-18.167,5.792-35.488,19.938-47.689,5.147-4.44,10.69-8.055,14.693-13.659,5.7-7.987,8.519-15.847,7.707-25.7-.742-9-3.706-18.01-9.574-25C80.021,8.227,70.79,3.539,61.2,1.516A70.79,70.79,0,0,0,47.231,0" transform="matrix(-0.966, 0.259, -0.259, -0.966, 133.593, 152.201)" fill="#988def"></path><path id="Trazado_81" data-name="Trazado 81" d="M30.253,15.127A15.126,15.126,0,1,1,15.126,0,15.126,15.126,0,0,1,30.253,15.127" transform="matrix(-0.966, 0.259, -0.259, -0.966, 66.587, 29.222)" fill="#988def"></path><g id="Grupo_169" data-name="Grupo 169" transform="matrix(-0.966, 0.259, -0.259, -0.966, 127.195, 149.128)" clip-path="url(#clip-path)"><path id="Trazado_82" data-name="Trazado 82" d="M.781,39.269a.194.194,0,0,1-.189-.152C-.469,34.331-.624,26.836,4.654,18.309A36.837,36.837,0,0,1,26.134,1.758C35.863-1.086,47.413-.477,60.465,3.567a.194.194,0,0,1-.115.371C35.275-3.832,15.612,1.345,4.984,18.513-.225,26.929-.074,34.317.97,39.033a.194.194,0,0,1-.148.231.19.19,0,0,1-.042,0" transform="translate(0 0)" fill="#fff"></path></g></g><g id="Enmascarar_grupo_1167" data-name="Enmascarar grupo 1167" transform="translate(767.669 1168)" clip-path="url(#clip-path-2)"><g id="Grupo_1632" data-name="Grupo 1632" transform="translate(102.457 17.508)"><g id="Grupo_1631" data-name="Grupo 1631" clip-path="url(#clip-path-3)"><path id="Trazado_7716" data-name="Trazado 7716" d="M69.048,958.728c5.1-3.112,2.2-26.329,2.2-26.329s-23.758-19.007-27.024-4.455-22.572,21.086-33.56,22.868C3.075,952.042.727,956.243,0,958.728Z" transform="translate(0 -327.387)" fill="#132642"></path><path id="Trazado_7717" data-name="Trazado 7717" d="M229.123,958.728c5.1-3.112,2.2-26.329,2.2-26.329s-23.758-19.007-27.025-4.455-22.57,21.086-33.56,22.868c-7.585,1.23-9.933,5.431-10.661,7.916Z" transform="translate(-56.812 -327.387)" fill="#1d3356"></path><path id="Trazado_7718" data-name="Trazado 7718" d="M179.183,456.734c0,22.872-8.881,55.1-8.881,55.1-6.768,32.788-65.494,256.27-71.151,258.4-9.433,3.557-33.483-3.91-33.109-7.26C84.351,598.7,90.8,462.373,91.86,457.094c3.01-2.326,75.959-25.847,87.323-.359" transform="translate(-23.437 -157.923)" fill="#1e3d70"></path><path id="Trazado_7719" data-name="Trazado 7719" d="M136.877,18.113S152.923.608,157.883.025s25.381,9.2,26.549,13.06-22.465-3.861-23.777,0-2.771,6.486-9.482,6.778a28.323,28.323,0,0,0-12.545,4.085Z" transform="translate(-48.579 0)" fill="#ffb27d"></path><path id="Trazado_7720" data-name="Trazado 7720" d="M185.387,131.7l.018,4.123s-.921,12.893,12.106,14.776,22.894-5.028,22.541-14.977c-1.173-7.7-2.461-12.994-2.549-19.368a54.713,54.713,0,0,1,.463-7.72l-25.241-.614-7.434,1.48Z" transform="translate(-65.762 -38.302)" fill="#ffb27d"></path><path id="Trazado_7721" data-name="Trazado 7721" d="M185.291,109.4l.071,16.6c28.582-2.137,32.243-14.624,32.6-17.462l-25.241-.614Z" transform="translate(-65.761 -38.302)" fill="#e8945b"></path><path id="Trazado_7722" data-name="Trazado 7722" d="M172.865,91.234s39.4,7.959,43.98-16.654S229.593,34.418,204.63,28.3s-31.611,2.357-35.137,10.2-6.758,50.033,3.373,52.738" transform="translate(-58.935 -9.298)" fill="#ffb27d"></path><path id="Trazado_7723" data-name="Trazado 7723" d="M139.922,420.718C182.8,616.015,188.3,752.16,188.3,752.16s12.86,3.757,38.49.562c0,0,5.869-86.516,8.858-151.328.877-19,9.827-131.182-2.509-185.567-4.973-21.916-98.09-17.281-93.222,4.89" transform="translate(-49.594 -142.512)" fill="#1c468a"></path><path id="Trazado_7724" data-name="Trazado 7724" d="M104.229,351.075s12.732,11.591,46.371,11.38c21.145-.134,49.735-5.055,62.525-7.7,17.207-3.565,14.468-9.791,13.073-22.531-1.79-16.326-2.508-45.927,6.679-96.1q2.029-11.109,4.743-23.577c7.73-35.414-36.8-55.933-42.539-64.29-32.7,30-41.834,2.17-41.834,2.17l-.006-.007c-.323,0-15.5,2.2-29.358-6.088-13.247-7.921-12.123,42.743-12.144,59.1-.021,17.566-3.67,60.883-4.178,79.972-.657,24.77-3.333,67.681-3.333,67.681" transform="translate(-36.992 -50.926)" fill="#9aa8f2"></path><path id="Trazado_7725" data-name="Trazado 7725" d="M20.146,70.438a40.972,40.972,0,0,0,1.149,4.46c0,.007.006.007.006.014,9.689,30.736,50.088,65.919,55.453,77.392,3.153,6.741,4.454,26.6,4.351,25.981l29.608-66.81S68.088,79.443,66.3,74.9c-2.713-6.884,38.986-44.7,38.986-44.7s2.08-3.277-.472-9.28c-1.993-4.692-5.312-6.039-5.312-6.039S17.207,55.309,20.146,70.438" transform="translate(-7.123 -5.28)" fill="#9aa8f2"></path><path id="Trazado_7726" data-name="Trazado 7726" d="M282.652,336.5c3.025-20.667,3.159-25.362,10.6-75.527-2.8.566-7.939,4.144-17.272,3.891-12.76-.346-18.238,41.264,6.67,71.636" transform="translate(-94.117 -92.62)" fill="#7a8ee1"></path><path id="Trazado_7727" data-name="Trazado 7727" d="M283.528,387.512s-20.452-12.364-26.79-10.8-20.091,7.544-19.239,11.2,16.827,6.146,19.608,5.717,7.266.075,9.088,1.646,16.315,2.157,18.085-2.086-.752-5.681-.752-5.681" transform="translate(-84.277 -133.65)" fill="#ffb27d"></path><path id="Trazado_7728" data-name="Trazado 7728" d="M245.07,150.863s31.266,6.106,43.434,16.169c12.432,10.282,58.037,71.091,55.154,92.163-2.925,21.384-53.637,54.472-53.637,54.472s-9.955,3.307-10.307-12.547c0,0,26.757-39.551,25.347-44.132-.886-2.877-40.32-34.511-40.32-34.511Z" transform="translate(-86.977 -53.542)" fill="#9aa8f2"></path><path id="Trazado_7729" data-name="Trazado 7729" d="M140.135,330.9a21.487,21.487,0,0,0,6.109,14.227l5.869,6a3.616,3.616,0,0,0,5.306-.148l8.146-9.3a12.9,12.9,0,0,0,3.178-9.047c-.331-7.378-.922-21.59-1.275-35.294-.288-11.105-.423-21.886-.134-28.425.923-20.878,8.54-87.211,8.54-87.211h-5.017a268.366,268.366,0,0,0-22.118,59.992,232.882,232.882,0,0,0-4.89,27.219s-4.594,37.874-3.713,61.986" transform="translate(-49.695 -64.488)" fill="#405c9c"></path><path id="Trazado_7730" data-name="Trazado 7730" d="M197.775,171.83l-13.939-3.341a2.112,2.112,0,0,0-1.771,2.429c.05,2.271,3.926,8.906,5.643,9.436s13.365-3.929,10.068-8.524" transform="translate(-64.616 -59.798)" fill="#405c9c"></path><path id="Trazado_7731" data-name="Trazado 7731" d="M233.261,148.694c.108-2.173-10.372-5.645-10.372-5.645s-7.882,17.661-27.287,17.943c0,0,5.529,10.762,12.047,13.549,0,0,24.972-12.946,25.612-25.848" transform="translate(-69.421 -50.769)" fill="#7a8ee1"></path><path id="Trazado_7732" data-name="Trazado 7732" d="M184.676,161.608s-6.52-10.217-6.555-16.824a45.514,45.514,0,0,0-13.3,6.51s.8,12.7,5.771,19.081a53.549,53.549,0,0,1,14.088-8.767" transform="translate(-58.495 -51.385)" fill="#7a8ee1"></path><path id="Trazado_7733" data-name="Trazado 7733" d="M231.583,52.406c-6,20.168-19.863,22.976-19.863,22.976s1.178-2.353,1.824-8.465a8.292,8.292,0,0,0-.453-2.977,12.841,12.841,0,0,1,.171-7.872c.592-1.735.583-3.4-.858-4.218-2.308-1.319-5.111,1.09-6.858,3.038a4.362,4.362,0,0,1-4.6,1.244l-.031-.01c-6.8-2.259-.608-17.708-8.033-17.384-24.547,1.073-26.731-2.746-30.717-6.841-2.878-2.955-1.68-13.052,2.3-14.149a74.972,74.972,0,0,0,16.491-6.512,35.372,35.372,0,0,1,34.73.037c16.162,6.382,20,27.351,15.9,41.131" transform="translate(-56.992 -2.375)" fill="#1e3d70"></path></g></g></g><g id="Grupo_1633" data-name="Grupo 1633" transform="translate(1082 1152)"><path id="Trazado_78-2" data-name="Trazado 78" d="M47.231,0A56.908,56.908,0,0,0,25.144,3.969C9.328,10.531-4.095,27.894,1.158,45.63c1.706,5.762.81,12.118,6.55,14.622,3.106,1.355,11.563,2.161,14.778,1.094C31.033,58.508,36.651,50.742,32,42.13c-1.488-2.758-3.415-5.277-4.7-8.136s-1.871-6.251-.561-9.1c2.572-5.588,11.118-7.365,16.66-7.2a19.392,19.392,0,0,1,15.987,8.983c4.387,6.917,5.5,15.33,4.856,23.359-.687,8.591-4.309,15.152-9.738,21.742C49.832,77.457,44.685,82.9,41.579,89.566c-2.852,6.117-3.784,12.894-3.913,19.586-.025,1.3-6.475,13.52-6.447,17.254,0,.528,7.316,2.275,7.843,2.281l13.42.15a1.07,1.07,0,0,0,1.083-1.055c.2-18.167,5.792-35.488,19.938-47.689,5.147-4.44,10.69-8.055,14.693-13.659,5.7-7.987,8.519-15.847,7.707-25.7-.742-9-3.706-18.01-9.574-25C80.021,8.227,70.789,3.539,61.2,1.516A70.79,70.79,0,0,0,47.231,0" transform="matrix(0.966, 0.259, -0.259, 0.966, 39.84, 3.711)" fill="#3728ae"></path><path id="Trazado_79-2" data-name="Trazado 79" d="M28.377,14.516c0,8.354-4.631,15.745-12.985,15.745-1.8,0-7.943.017-9.547-.563C.021,27.594,0,23.12,0,16.57,0,8.216,2.821,0,11.175,0s17.2,6.162,17.2,14.516" transform="matrix(0.966, 0.259, -0.259, 0.966, 36.753, 142.322)" fill="#3728ae"></path><path id="Trazado_80-2" data-name="Trazado 80" d="M47.231,0A56.909,56.909,0,0,0,25.144,3.969C9.328,10.531-4.095,27.894,1.158,45.63,2.865,51.392,6.81,58.644,12.55,61.148a14.037,14.037,0,0,0,9.937.2C31.033,58.508,36.651,50.742,32,42.13c-1.488-2.758-3.415-5.277-4.7-8.136s-1.871-6.251-.561-9.1c2.572-5.588,11.118-7.365,16.66-7.2a19.392,19.392,0,0,1,15.987,8.983c4.387,6.917,5.5,15.33,4.856,23.359-.687,8.591-4.309,15.152-9.738,21.742C49.832,77.457,44.685,82.9,41.579,89.566c-2.852,6.117-3.784,12.894-3.913,19.586-.025,1.3.412,14.841.439,18.575a.966.966,0,0,0,.956.96l13.42.15a1.07,1.07,0,0,0,1.083-1.055c.2-18.167,5.792-35.488,19.938-47.689,5.147-4.44,10.69-8.055,14.693-13.659,5.7-7.987,8.519-15.847,7.707-25.7-.742-9-3.706-18.01-9.574-25C80.021,8.227,70.79,3.539,61.2,1.516A70.79,70.79,0,0,0,47.231,0" transform="matrix(0.966, 0.259, -0.259, 0.966, 33.345, 0)" fill="#988def"></path><path id="Trazado_81-2" data-name="Trazado 81" d="M30.253,15.126A15.126,15.126,0,1,1,15.126,0,15.126,15.126,0,0,1,30.253,15.126" transform="matrix(0.966, 0.259, -0.259, 0.966, 29.885, 140.006)" fill="#988def"></path><g id="Grupo_169-2" data-name="Grupo 169" transform="matrix(0.966, 0.259, -0.259, 0.966, 37.349, 5.86)" clip-path="url(#clip-path-4)"><path id="Trazado_82-2" data-name="Trazado 82" d="M.781,39.269a.194.194,0,0,1-.189-.152C-.469,34.331-.624,26.836,4.654,18.309A36.837,36.837,0,0,1,26.134,1.758C35.863-1.086,47.413-.477,60.465,3.567a.194.194,0,0,1-.115.371C35.275-3.832,15.613,1.345,4.984,18.513-.225,26.929-.074,34.317.97,39.033a.194.194,0,0,1-.148.231.19.19,0,0,1-.042,0" transform="translate(0 0)" fill="#fff"></path></g></g></g></svg>