<svg xmlns="http://www.w3.org/2000/svg" xmlns:xlink="http://www.w3.org/1999/xlink" width="592.344" height="278.001" viewBox="0 0 592.344 278.001"><defs><clipPath id="clip-path"><rect id="Rect&#xE1;ngulo_4140" data-name="Rect&#xE1;ngulo 4140" width="185.59" height="140.22" fill="none"></rect></clipPath><clipPath id="clip-path-3"><path id="Trazado_7118" data-name="Trazado 7118" d="M230.452,0c-47.982.022-84.5,24.862-73.55,75.484,12.256,56.726-34.732,66.014-60.031,92.882-33.791,35.814-49.943,67.5-35.7,108.951.022.029,539.233-.056,539.233-.056s.109-.257.285-.712c.525-1.283,1.707-4.246,3.108-7.835.372-.969.766-2.023,1.182-3.135s.853-2.308,1.291-3.561c.2-.6.416-1.226.634-1.881.109-.313.219-.627.329-.968.481-1.425.985-2.963,1.488-4.559.328-1.082.678-2.165,1.007-3.3.219-.712.416-1.4.656-2.137v-.028c.241-.912.5-1.852.766-2.793.175-.627.35-1.282.525-1.938.591-2.25,1.182-4.558,1.751-6.98.416-1.795.832-3.618,1.226-5.527.044-.171.065-.341.109-.512.022-.143.066-.285.087-.427.35-1.681.7-3.419,1.029-5.185.088-.456.175-.941.241-1.424q.131-.77.262-1.539l.044-.2c.065-.37.132-.741.2-1.14.153-.969.307-1.938.46-2.935.525-3.5.985-7.151,1.357-10.855.306-2.877.547-5.841.722-8.832.065-1.4.131-2.792.2-4.217.044-1.424.088-2.849.11-4.3a186.068,186.068,0,0,0-.9-21.625c-.219-2.051-.459-4.1-.744-6.183-.022-.2-.066-.428-.088-.627-.307-2.165-.656-4.3-1.051-6.467-.241-1.368-.525-2.735-.81-4.1-.175-.769-.328-1.51-.5-2.279-.022-.114-.065-.257-.088-.371-.219-.912-.438-1.852-.656-2.764-.241-.94-.482-1.881-.744-2.821-.132-.513-.263-1.026-.416-1.539l-.262-.941a151.817,151.817,0,0,0-5.274-15.185c-.306-.712-.613-1.454-.919-2.166l-.328-.769c-.131-.314-.263-.6-.394-.883q-1.378-3.12-2.954-6.239c-.766-1.567-1.6-3.106-2.451-4.673-.394-.741-.81-1.453-1.225-2.194-.263-.427-.525-.883-.788-1.339-.7-1.168-1.4-2.365-2.145-3.533-.81-1.253-1.619-2.535-2.473-3.789-.35-.513-.7-1.026-1.05-1.511-1.007-1.453-2.057-2.906-3.129-4.359q-1.74-2.351-3.611-4.616c-1.073-1.311-2.123-2.593-3.2-3.847-2.8-3.276-5.581-6.353-8.36-9.2-1.575-1.624-3.129-3.162-4.683-4.644-1.335-1.282-2.67-2.479-4.005-3.647a1.374,1.374,0,0,0-.219-.2c-.985-.854-1.948-1.68-2.911-2.507-2.079-1.737-4.158-3.361-6.216-4.872-.635-.456-1.248-.912-1.86-1.339-2.955-2.081-5.887-3.961-8.8-5.613-.612-.371-1.248-.712-1.882-1.055-19.85-10.855-54.21-27.636-125.884,10.029C381.468,81.893,332.357,23.942,279,7.616A167.241,167.241,0,0,0,230.55,0Z" transform="translate(-55.99 0.001)" fill="none"></path></clipPath></defs><g id="Grupo_1464" data-name="Grupo 1464" transform="translate(-1812.956 -15732)"><path id="Trazado_6942" data-name="Trazado 6942" d="M619.471,190.331c-.022,1.454-.065,2.878-.11,4.3-.065,1.425-.131,2.82-.2,4.217-.175,2.991-.416,5.954-.722,8.832-.372,3.7-.832,7.351-1.357,10.855-.153,1-.306,1.966-.46,2.935-.065.4-.131.769-.2,1.139l-.044.2q-.132.769-.262,1.539c-.066.484-.153.968-.241,1.424-.328,1.766-.678,3.5-1.028,5.186-.022.142-.066.284-.088.427-.044.171-.066.341-.11.513-.394,1.909-.809,3.732-1.225,5.527-.569,2.422-1.16,4.73-1.75,6.98-.176.655-.351,1.311-.526,1.938-.263.941-.525,1.88-.766,2.792v.028c-.24.741-.437,1.424-.656,2.137-.328,1.139-.678,2.222-1.007,3.3-.5,1.6-1.007,3.135-1.488,4.559-.109.341-.219.655-.329.968-.218.655-.438,1.283-.634,1.881-.438,1.253-.876,2.45-1.292,3.562s-.809,2.165-1.182,3.134c-1.4,3.589-2.583,6.552-3.108,7.835-.175.456-.284.712-.284.712s-539.211.085-539.233.056c-14.247-41.455,1.9-73.137,35.7-108.951,25.3-26.867,72.287-36.155,60.032-92.882C142.436,8.614,210.784-13.268,279,7.616c53.356,16.326,102.467,74.277,139.454,54.846C490.129,24.8,524.489,41.578,544.339,52.433c.634.342,1.269.684,1.882,1.054,2.911,1.652,5.843,3.532,8.8,5.613.613.427,1.225.883,1.86,1.339,2.057,1.51,4.136,3.134,6.215,4.872.963.826,1.926,1.653,2.911,2.507a1.4,1.4,0,0,1,.219.2c1.335,1.168,2.67,2.365,4.005,3.647,1.554,1.482,3.107,3.02,4.683,4.644,2.779,2.849,5.559,5.927,8.361,9.2,1.072,1.254,2.123,2.536,3.2,3.847q1.871,2.265,3.611,4.616c1.072,1.453,2.123,2.906,3.129,4.359.35.485.7,1,1.05,1.511.854,1.253,1.663,2.535,2.473,3.789.744,1.168,1.444,2.365,2.145,3.533.262.456.525.912.788,1.339.416.741.831,1.453,1.226,2.194.853,1.567,1.685,3.106,2.451,4.673q1.575,3.119,2.954,6.239c.132.285.263.57.394.884l.328.768c.306.712.613,1.454.919,2.166a151.962,151.962,0,0,1,5.274,15.185q.131.47.262.94c.153.513.285,1.026.416,1.539.263.94.5,1.88.744,2.821.219.911.438,1.852.657,2.764.022.114.065.257.087.371.176.768.329,1.51.5,2.279.285,1.367.569,2.735.81,4.1.394,2.166.744,4.3,1.05,6.468.022.2.066.428.088.627.285,2.08.525,4.131.744,6.183a185.9,185.9,0,0,1,.9,21.625" transform="translate(1771.386 15732.001)" fill="#ebf3fa"></path><path id="Trazado_6943" data-name="Trazado 6943" d="M325.6,985.26s5.934-16.985,25.333-18.107,30.179-16.191,50.225-12.666,21.552,18.323,29.992,22.406,50.92-5.3,67.034-.849,23.664-6.624,38.652-11.413,24.818,1.777,35.6,9.247,25.876-.841,25.215,11.031Z" transform="translate(1571.214 15023.729)" fill="#b8e0af"></path><g id="Grupo_1456" data-name="Grupo 1456" transform="translate(1969.48 15853.297)" opacity="0.4"><g id="Grupo_1455" data-name="Grupo 1455"><g id="Grupo_1454" data-name="Grupo 1454" clip-path="url(#clip-path)"><rect id="Rect&#xE1;ngulo_4139" data-name="Rect&#xE1;ngulo 4139" width="185.59" height="140.22" transform="translate(0 0)" fill="#cbd9ef"></rect></g></g></g><path id="Trazado_6944" data-name="Trazado 6944" d="M736.381,423.866l-.033,4.718-.98,141.863c0,.342-.124.616-.273.616h-.073c-.294,0-.534-.538-.54-1.212l-1.357-136.936-.09-9.048Z" transform="translate(1268.708 15417.297)" fill="#e58638"></path><path id="Trazado_6945" data-name="Trazado 6945" d="M736.381,423.866l-.033,4.718a10.087,10.087,0,0,0-3.223,4.331l-.09-9.048Z" transform="translate(1268.708 15417.297)" fill="#cc621b"></path><g id="Grupo_1459" data-name="Grupo 1459" transform="translate(1969.48 15853.297)" opacity="0.4"><g id="Grupo_1458" data-name="Grupo 1458"><g id="Grupo_1457" data-name="Grupo 1457" clip-path="url(#clip-path)"><path id="Trazado_6946" data-name="Trazado 6946" d="M793.355,541.043V611.2H607.765V470.979H662.3c16.729,16.065,75.415,68.449,131.054,70.064" transform="translate(-607.765 -470.979)" fill="#c4d2e8"></path></g></g></g><path id="Trazado_6947" data-name="Trazado 6947" d="M1468.162,1013.617h-18.3c-.98-.832.679-2.721,2.413-2.848a10.7,10.7,0,0,1,2.793.331c.252-3.345,1.69-18.382,7.11-17.778,6.094.677,0,6.622-1.723,10.142a83.7,83.7,0,0,0-3.238,8.11c.495.107,1.007.213,1.53.309.808-2.48,3.813-10.823,7.635-10.337,4.488.569,2.684,3.914-.5,5.9-2.333,1.46-5.2,3.536-6.561,4.538a19.433,19.433,0,0,0,3.579.287c3.135-.074,4.665.849,5.258,1.346" transform="translate(736.71 14994.513)" fill="#b8e0af"></path><path id="Trazado_6948" data-name="Trazado 6948" d="M98.83,1015.115c-.994-1.561-3.983-5.611-7.966-5.075-4.339.584,4.792,3.445,7.588,5.087a4.643,4.643,0,0,1-1.547-.181c-1.869-.666-5.07.611-6.093,1.06h17.792a2.817,2.817,0,0,0-1.272-1.627,3.178,3.178,0,0,0-1.637-.146c1.058-1.247,1.793-5.231-1.152-4.206-2.152.749-2.146,3.183-1.935,4.623-.458.072-.922.145-1.38.21-.886-4.515-4.019-17.747-10.37-18.1-6.438-.357,5.46,13.723,9.421,18.226-.508.061-1,.107-1.449.128" transform="translate(1746.889 14991.951)" fill="#b8e0af"></path><path id="Trazado_6949" data-name="Trazado 6949" d="M1253.961,928.115l-.106,4.676-.738,32.594a.374.374,0,0,1-.374.365.651.651,0,0,1-.65-.625l-1.2-30.86-.238-6.15Z" transform="translate(884.394 15042.913)" fill="#cc621b"></path><path id="Trazado_6950" data-name="Trazado 6950" d="M1253.961,928.115l-.106,4.676a10.661,10.661,0,0,0-2.96,1.474l-.238-6.15Z" transform="translate(884.394 15042.913)" fill="#b25414"></path><path id="Trazado_6951" data-name="Trazado 6951" d="M676.974,928.115l-.106,4.676-.739,32.594a.373.373,0,0,1-.373.365.651.651,0,0,1-.65-.625l-1.2-30.86-.238-6.15Z" transform="translate(1312.784 15042.913)" fill="#cc621b"></path><path id="Trazado_6952" data-name="Trazado 6952" d="M676.974,928.115l-.106,4.676a10.666,10.666,0,0,0-2.96,1.474l-.238-6.15Z" transform="translate(1312.784 15042.913)" fill="#b25414"></path><path id="Trazado_6953" data-name="Trazado 6953" d="M805.25,895.232h-167.6a1.929,1.929,0,0,1-1.924-1.924v-9.672a1.929,1.929,0,0,1,1.924-1.924h167.6a1.929,1.929,0,0,1,1.924,1.924v9.672a1.929,1.929,0,0,1-1.924,1.924" transform="translate(1340.953 15077.364)" fill="#e58638"></path><path id="Trazado_6954" data-name="Trazado 6954" d="M947.233,578.763c-1.078-1.636-5.356-.72-9.556,2.046s-6.732,6.335-5.654,7.971,5.356.72,9.556-2.046,6.731-6.335,5.654-7.971" transform="translate(1121.151 15302.895)" fill="#233862"></path><path id="Trazado_6955" data-name="Trazado 6955" d="M906.594,701.086l.829.05c-.007-.019.323-14.482,1.592-20.333a57.615,57.615,0,0,1,8.609-19.51l-1.484-.476a48.267,48.267,0,0,0-2.9,5.242,53.87,53.87,0,0,0-5.073,14.212c-1.072,5.911-1.6,20.738-1.568,20.816" transform="translate(1139.848 15241.371)" fill="#233862"></path><path id="Trazado_6956" data-name="Trazado 6956" d="M920.169,580.209s-5.42-1.156-8.022,3.252-2.746,12.069-4.481,14.574-4.794,13.079-1.542,15.445,23.286-.087,24.41-1.166-.068-12.183-2.025-15.4,2.812-18.344-8.341-16.706" transform="translate(1141.26 15301.32)" fill="#a53d38"></path><path id="Trazado_6957" data-name="Trazado 6957" d="M911.44,669.3c-3.821-12.213.487-19.456.073-25.566-.31-4.575.577-4.69-.219-5.947-.81-1.278-5.265-2.075-5.673-2.112-.317-.167-.393-1.594-.389-3,0-1.682.133-3.468.133-3.468l-5.674-1.124-.338-.066c.014,3.946-1.024,6.538-1.777,7.144a27.216,27.216,0,0,0-5.6,1.113,2.623,2.623,0,0,0-1.425.945c-1.558,3.075-3.114,10.833-4.207,16.367a57.647,57.647,0,0,1-1.317,5.986c-.677,1.415-2.744,9.2-4.51,13.048l1.948.075s7.748-10.545,8.424-13.427c.214-.912.731-2.71,1.34-4.741,1.341,3.686,2.032,5.237,2,6.671-.044,1.859-1.3,3.53-3.939,9.438-1.455,3.265,25.051,11.131,21.151-1.343" transform="translate(1159.208 15265.723)" fill="#ffb27d"></path><path id="Trazado_6958" data-name="Trazado 6958" d="M939.4,854.72c.374,1.486.785,2.9,1.2,4.216.09.282.178.56.268.831.045.135.09.268.133.4.089.261.175.516.262.766.113.326.226.644.338.95.082.228.164.451.245.67,1.244,3.335,2.286,5.449,2.286,5.449l2.478-.171a67.387,67.387,0,0,1-1.116-10.765c-.006-.226-.013-.454-.017-.685-.009-.492-.015-.992-.015-1.5,0-.209,0-.422,0-.636a56.927,56.927,0,0,1,2.883-18.073,117.9,117.9,0,0,0,3.945-13.93c2.968-13.671,2.27-22.652,2.27-22.652l-13.941,1.631-.65.076c-.059,6.4-.223,15.1-.368,21.892-.025,1.18-.048,2.3-.071,3.346-.1,4.364-.169,7.347-.169,7.347-2.681,5.772-1.708,13.919.032,20.839" transform="translate(1116.749 15138.339)" fill="#ffb27d"></path><path id="Trazado_6959" data-name="Trazado 6959" d="M960.631,629.4s-.129,1.786-.133,3.468c-3.175-.09-4.854-2.986-5.542-4.592Z" transform="translate(1103.94 15265.531)" fill="#ef9e67"></path><path id="Trazado_6960" data-name="Trazado 6960" d="M999.017,767.183s-.661,9.216-.441,10.316-.072,5.025-1.578,5.748-4.48-18.251,2.019-16.063" transform="translate(1074.212 15162.528)" fill="#ffb27d"></path><path id="Trazado_6961" data-name="Trazado 6961" d="M959.191,602.278s-7.513.124-7.518-4.556-.978-7.816,3.818-8.093,5.731,1.508,6.112,3.069-.458,9.426-2.412,9.579" transform="translate(1106.441 15294.246)" fill="#ffb27d"></path><path id="Trazado_6962" data-name="Trazado 6962" d="M951.948,586.524s-2.057,5.49-5.214,6.3-4.526-.034-4.526-.034a8.942,8.942,0,0,0,2.924-5.282s5.264-3.6,6.816-.987" transform="translate(1113.405 15297.236)" fill="#a53d38"></path><path id="Trazado_6963" data-name="Trazado 6963" d="M978.049,588.416a6.635,6.635,0,0,1,1.911,2.418c.375,1.192.543,3.645,1.258,3.562,0,0,1.55-3.732-.192-5.843-1.847-2.239-2.977-.136-2.977-.136" transform="translate(1086.795 15295.79)" fill="#a53d38"></path><path id="Trazado_6964" data-name="Trazado 6964" d="M991.566,666.51s5.7,24.308,3.942,26.371-6.278,2.393-6.939,1.953,3-28.324,3-28.324" transform="translate(1079.043 15237.144)" fill="#ffa412"></path><path id="Trazado_6965" data-name="Trazado 6965" d="M963.449,587.407S961.983,593.156,958,595c0,0,3.983-3.533,4.321-7.328s1.128-.263,1.128-.263" transform="translate(1101.68 15296.984)" fill="#a53d38"></path><path id="Trazado_6966" data-name="Trazado 6966" d="M912.663,845.056a34.31,34.31,0,0,0,4.331,14.086l1.2,1.1s1.1-6.263,1.89-13.433c.755-6.815,1.791-14.028,2.962-16.229,1.751-3.289,3.041-10.016,3.97-17.122,1.535-11.76,2.079-24.564,2.079-24.564l-14.134-.7c-1.422,2.39-2.04,6.31-2.188,10.766a108.545,108.545,0,0,0,.726,14.685c.715,6.606,1.71,12.112,1.941,13.35a.012.012,0,0,0,0,.006.737.737,0,0,1-.093.473c-2.813,5.567-3.219,11.936-2.691,17.588" transform="translate(1135.489 15146.803)" fill="#ffb27d"></path><path id="Trazado_6967" data-name="Trazado 6967" d="M907.82,820.016c-12.173,4.575-30.49-.723-30.49-.723s.674-3.785,1.665-9.283c2.489-13.8,6.97-38.391,7.758-41,1.1-3.643,5.106-12.146,5.106-12.146a23.572,23.572,0,0,0,5.672,1.09,34.876,34.876,0,0,0,9.937-.747s.747,2.5,2.342,7.723-1.991,55.085-1.991,55.085" transform="translate(1161.574 15170.059)" fill="#bc3f3f"></path><path id="Trazado_6968" data-name="Trazado 6968" d="M909.75,672.041c-.609,6.01-2.278,14.164-2.278,14.164a13.523,13.523,0,0,1-2.8,1.1c-6.461,1.755-12.812-1.44-12.812-1.44s-.01-.186-.026-.411c-.013-.186-.032-.395-.054-.549-.048-.34-1.581-3.989-1.581-3.989s-.058.284-.159.768c-.561,2.667-2.485,11.433-3.664,12.222-.684.456-2.871.463-4.923-.1-2.136-.581-4.125-1.777-4.125-3.721,0-2.489,4.525-13.743,7.786-21.454a.057.057,0,0,1,0-.011c1.736-4.111,2.744-6.971,4.072-7.291,0,0,8.932,3.635,13.879,3.077,1.7-.192,4.819-1.627,5.775-1.984.028.029.055.059.08.089a.8.8,0,0,1,.056.072c.019.027.036.053.052.079.725,1.068.611,2.84.647,3.516a30.954,30.954,0,0,1,.065,5.859" transform="translate(1161.572 15240.988)" fill="#ffb93e"></path><path id="Trazado_6969" data-name="Trazado 6969" d="M927.307,707.367s1.534,3.66,1.582,4c.022.154.04.364.054.55a7.556,7.556,0,0,0,2.551,1.342c2.594.786,3.722-4.187,3.566-6.668s-3.824-9.563-5.046-9.71-2.708,10.486-2.708,10.486" transform="translate(1124.469 15214.596)" fill="#ffa412"></path><path id="Trazado_6970" data-name="Trazado 6970" d="M926.693,738.369c.1-.485.158-.769.158-.769a3.938,3.938,0,0,0-.158.769" transform="translate(1124.924 15184.362)" fill="#e58638"></path><path id="Trazado_6971" data-name="Trazado 6971" d="M941.85,753.775c4.736,0,6.615-1.329,6.759-1.44l.306-2.23c-.045.034-6.4,3.849-16.234.2l.208,1.689a24.645,24.645,0,0,0,8.96,1.786" transform="translate(1120.478 15175.078)" fill="#a53232"></path><path id="Trazado_6972" data-name="Trazado 6972" d="M877.333,711.288c0,1.951,1.99,3.149,4.125,3.732-2.943-3.5,3.5-24.71,3.661-25.251-3.259,7.735-7.786,19.024-7.786,21.519" transform="translate(1161.572 15219.875)" fill="#ffa412"></path><path id="Trazado_6973" data-name="Trazado 6973" d="M953.429,1056.775h1.582c.53-.083.921-.237,1.464-.308a1.466,1.466,0,0,1,1.28.308.165.165,0,0,1,.015.016h6.719c.169-.241.007-.8-.152-1.212a.956.956,0,0,0-.629-.575,7.247,7.247,0,0,1-3.4-1.554c-.724-.654-3.5-2.4-3.5-2.4l-.014,0c-.061,0-.351.09-1.611,1.155-.651.549-1.762-.776-1.762-.776a1.579,1.579,0,0,0-.364.494,1.671,1.671,0,0,0-.144,1.031,6.683,6.683,0,0,1-.481,2.491c-.157.461-.289.788-.289.788s-.075.38,1.285.55" transform="translate(1106.029 14951.646)" fill="#233862"></path><path id="Trazado_6974" data-name="Trazado 6974" d="M955.7,1051.914a5.012,5.012,0,0,0,1.7.859c.714.094,2.049-1.728,2.049-1.728l-.015,0c-.061,0-.351.09-1.611,1.155-.652.549-1.762-.776-1.762-.776a1.581,1.581,0,0,0-.364.494" transform="translate(1103.391 14951.646)" fill="#466aa5"></path><path id="Trazado_6975" data-name="Trazado 6975" d="M953.429,1069.447h1.582c.53-.083.921-.237,1.464-.308a1.466,1.466,0,0,1,1.28.308l.015.016h6.719c.169-.241.007-.8-.152-1.212-.2-.182-.261.788-.374.943a29.97,29.97,0,0,1-5.791-.169,3.244,3.244,0,0,0-2.537-.31,6.107,6.107,0,0,1-3.2-.605c-.157.461-.289.788-.289.788s-.075.38,1.285.55" transform="translate(1106.029 14938.973)" fill="#466aa5"></path><path id="Trazado_6976" data-name="Trazado 6976" d="M920.656,1056.775h1.582c.53-.083.921-.237,1.464-.308a1.466,1.466,0,0,1,1.281.308.168.168,0,0,1,.015.016h6.719c.169-.241.007-.8-.152-1.212a.956.956,0,0,0-.629-.575,7.248,7.248,0,0,1-3.4-1.554c-.724-.654-3.495-2.4-3.495-2.4l-.015,0c-.061,0-.351.09-1.611,1.155-.652.549-1.762-.776-1.762-.776a1.581,1.581,0,0,0-.364.494,1.667,1.667,0,0,0-.144,1.031,6.687,6.687,0,0,1-.482,2.491c-.157.461-.288.788-.288.788s-.076.38,1.285.55" transform="translate(1130.361 14951.646)" fill="#233862"></path><path id="Trazado_6977" data-name="Trazado 6977" d="M922.922,1051.914a5.011,5.011,0,0,0,1.7.859c.714.094,2.048-1.728,2.048-1.728l-.015,0c-.061,0-.351.09-1.611,1.155-.652.549-1.762-.776-1.762-.776a1.58,1.58,0,0,0-.364.494" transform="translate(1127.724 14951.646)" fill="#466aa5"></path><path id="Trazado_6978" data-name="Trazado 6978" d="M920.656,1069.447h1.582c.53-.083.921-.237,1.464-.308a1.466,1.466,0,0,1,1.281.308l.015.016h6.719c.169-.241.007-.8-.152-1.212-.2-.182-.262.788-.374.943a29.968,29.968,0,0,1-5.791-.169,3.244,3.244,0,0,0-2.537-.31,6.108,6.108,0,0,1-3.2-.605c-.157.461-.288.788-.288.788s-.076.38,1.285.55" transform="translate(1130.361 14938.973)" fill="#466aa5"></path><path id="Trazado_6979" data-name="Trazado 6979" d="M883.8,810.011c2.489-13.8,6.97-38.391,7.758-41,1.1-3.643,5.106-12.146,5.106-12.146a23.584,23.584,0,0,0,5.672,1.09c.214,2.976,1.78,32.719-18.537,52.055" transform="translate(1156.773 15170.059)" fill="#a53232"></path><path id="Trazado_6980" data-name="Trazado 6980" d="M941.33,697.695l-.828-.062c.01-.018,1.621-14.517,1.148-20.536a58.455,58.455,0,0,0-5.917-20.662l1.535-.275a48.928,48.928,0,0,1,2.175,5.632,54.718,54.718,0,0,1,3.122,14.888c.27,6.053-1.194,20.942-1.235,21.016" transform="translate(1118.213 15244.829)" fill="#233862"></path><path id="Trazado_6981" data-name="Trazado 6981" d="M918.489,797.941s.8-1.981,2.084-2.475l6.534,1.231s-1.613,1.534-1.765,2.536Z" transform="translate(1131.016 15141.399)" fill="#d2e4ff"></path><path id="Trazado_6982" data-name="Trazado 6982" d="M915.875,815.55l-11.167-2.1a.967.967,0,0,1-.771-1.129l1.4-7.4a.967.967,0,0,1,1.129-.771l11.167,2.1a.967.967,0,0,1,.771,1.129l-1.4,7.4a.967.967,0,0,1-1.129.771" transform="translate(1141.832 15134.971)" fill="#233862"></path><rect id="Rect&#xE1;ngulo_4142" data-name="Rect&#xE1;ngulo 4142" width="6.846" height="5.34" transform="translate(2048.288 15942.075) rotate(-89.497)" fill="#e58638"></rect><rect id="Rect&#xE1;ngulo_4143" data-name="Rect&#xE1;ngulo 4143" width="6.846" height="5.34" transform="translate(2047.982 15942.072) rotate(-89.497)" fill="#ee9849"></rect><rect id="Rect&#xE1;ngulo_4144" data-name="Rect&#xE1;ngulo 4144" width="6.846" height="5.34" transform="matrix(0.608, -0.794, 0.794, 0.608, 2048.229, 15941.554)" fill="#578e9b"></rect><rect id="Rect&#xE1;ngulo_4145" data-name="Rect&#xE1;ngulo 4145" width="6.846" height="5.34" transform="matrix(0.608, -0.794, 0.794, 0.608, 2047.756, 15941.191)" fill="#74acbe"></rect><path id="Trazado_6983" data-name="Trazado 6983" d="M906.084,813.8l-10.692-2.015a1.209,1.209,0,0,1-.964-1.412l1.306-6.928a1.208,1.208,0,0,1,1.411-.964l10.692,2.015a1.209,1.209,0,0,1,.964,1.411l-1.306,6.928a1.209,1.209,0,0,1-1.411.964" transform="translate(1148.896 15136.207)" fill="#2b478b"></path><path id="Trazado_6984" data-name="Trazado 6984" d="M926.518,572.453s-3.418-6.8,1.358-9.493,8.273-1.634,10.9,1.655Z" transform="translate(1125.934 15315.159)" fill="#233862"></path><path id="Trazado_6985" data-name="Trazado 6985" d="M939.369,567.861c-.983-1.575-4.423-1.321-8.574.379a34.179,34.179,0,0,0-5.086,2.631,32.782,32.782,0,0,0-5.511,4.259c-2.749,2.688-4.091,5.261-3.2,6.689a2.035,2.035,0,0,0,1.294.88c.609-1.311,2.356-2.539,2.85-3.56a15.6,15.6,0,0,1,5.7-6.079,15.943,15.943,0,0,1,6.66-2.573c.99-.063,1.72.143,2.041.658a1.716,1.716,0,0,1-.035,1.574,7.7,7.7,0,0,1,.745,1.746c2.691-2.657,3.995-5.192,3.113-6.6" transform="translate(1132.326 15311.166)" fill="#2b478b"></path><path id="Trazado_6986" data-name="Trazado 6986" d="M873,801.212s-1.852,1.894-2.146,2.114a3.615,3.615,0,0,0-.367,2.386c.532.415.921-.544,1.762-1.021s1.322-1.146,1.322-.925-1.067,1.065-.936,1.248,1.579-.826,1.909-1.046.4-2.68.4-2.68Z" transform="translate(1166.729 15137.133)" fill="#ffb27d"></path><path id="Trazado_6987" data-name="Trazado 6987" d="M774.258,589.849l.447-.031.544-1.754c2.095-5.192.221-7.085-1.077-7.962a8.123,8.123,0,0,0-3.369-1.273,6.68,6.68,0,0,0-2.511.073h-.008c-7.819-1.612-8.566,12.8-7.4,13.681s3.98.777,3.98.777a2.361,2.361,0,0,1-.323-.493c.853.7,3.373.451,3.373.451a4.093,4.093,0,0,1-1.273-2.934l2.041-.144a8,8,0,0,0,2.054,3.181c1.349,1.02,4.05.764,4.05.764a1.752,1.752,0,0,1-.223-.562c.1.271.588.459.588.459a3.56,3.56,0,0,0,1.032-.343s-1.589,0-1.921-3.89" transform="translate(1248.357 15302.305)" fill="#233862"></path><path id="Trazado_6988" data-name="Trazado 6988" d="M813.236,686.5c6.133-1.561,12.874-11.075,12.874-11.075l-1.727-1.5c-1.788,2.108-9.222,5.738-9.222,5.738.04-1.929-.011-3.688-.132-5.29-.825-10.884-4.928-14.51-6.048-15.305a2.71,2.71,0,0,0-.285-.183s0,.079-.011.229c-.016.323-.046.975-.076,1.869-.227,6.661-.5,26.82,4.625,25.515" transform="translate(1212.669 15242.805)" fill="#ffb27d"></path><path id="Trazado_6989" data-name="Trazado 6989" d="M870.14,699.078c.026-.257.2-4,.941-4.708s2.209-1.682,2.631-1.6a4.2,4.2,0,0,1,1.177,4.1,13.966,13.966,0,0,1-3.023,3.71Z" transform="translate(1166.913 15217.652)" fill="#ffb27d"></path><path id="Trazado_6990" data-name="Trazado 6990" d="M863.552,695.37l4.039.169a.243.243,0,0,0,.253-.232l.322-7.7a.243.243,0,0,0-.232-.253l-4.039-.169a.243.243,0,0,0-.253.233l-.322,7.7a.243.243,0,0,0,.233.253" transform="translate(1171.977 15221.796)" fill="#f1a34f"></path><path id="Trazado_6991" data-name="Trazado 6991" d="M867.107,695.54l3.664.153a.431.431,0,0,0,.448-.412l.306-7.326a.431.431,0,0,0-.412-.448l-3.664-.153a.43.43,0,0,0-.448.412l-.307,7.326a.431.431,0,0,0,.412.448" transform="translate(1169.471 15221.669)" fill="#d86713"></path><path id="Trazado_6992" data-name="Trazado 6992" d="M877.57,692.035s-1.1-1.229-2.2-.29.073,2.945,1.028,3.494a7.726,7.726,0,0,1,1.262.834Z" transform="translate(1163.362 15218.671)" fill="#ffb27d"></path><path id="Trazado_6993" data-name="Trazado 6993" d="M770.115,852.858c.374,1.486.785,2.9,1.2,4.216.09.282.178.56.268.831.045.135.09.268.133.4q.132.391.262.766c.113.326.226.643.338.95q.123.342.245.67c1.243,3.335,2.286,5.449,2.286,5.449l2.478-.17a67.388,67.388,0,0,1-1.116-10.765c-.006-.226-.012-.454-.017-.685-.009-.492-.016-.992-.016-1.5,0-.209,0-.422,0-.636a56.932,56.932,0,0,1,2.883-18.073,117.826,117.826,0,0,0,3.945-13.93c2.968-13.671,2.27-22.652,2.27-22.652l-13.94,1.631-.65.076c-.059,6.4-.223,15.1-.367,21.892-.025,1.18-.048,2.3-.071,3.346-.1,4.364-.169,7.347-.169,7.347-2.681,5.771-1.707,13.919.033,20.839" transform="translate(1242.436 15139.722)" fill="#cb7d45"></path><path id="Trazado_6994" data-name="Trazado 6994" d="M749.007,668.779c2.635-5.909,3.9-7.579,3.939-9.438.035-1.47-.69-3.057-2.1-6.946a14.511,14.511,0,0,1-.7-2.812c-1.113-7.5,3.223-15.6,5.917-16.156.75-.2,2.021-2.906,2.005-7.27l.338.066,5.674,1.124s-.129,1.786-.133,3.468c0,1.4.072,2.828.389,3,.409.037.78.111.78.111s4.8,3.373,5.112,7.947c.414,6.11-3.893,13.354-.073,25.566,3.9,12.473-22.606,4.608-21.151,1.343" transform="translate(1256.892 15267.104)" fill="#ffb27d"></path><path id="Trazado_6995" data-name="Trazado 6995" d="M791.347,627.539s-.129,1.786-.133,3.468c-3.175-.09-4.854-2.986-5.542-4.592Z" transform="translate(1229.627 15266.913)" fill="#ef9e67"></path><path id="Trazado_6996" data-name="Trazado 6996" d="M789.907,600.415s-7.513.124-7.518-4.556-.978-7.816,3.818-8.093,5.731,1.508,6.112,3.07-.458,9.426-2.412,9.579" transform="translate(1232.127 15295.629)" fill="#ffb27d"></path><path id="Trazado_6997" data-name="Trazado 6997" d="M782.664,584.662s-2.057,5.49-5.214,6.3-4.526-.034-4.526-.034a8.939,8.939,0,0,0,2.924-5.281s5.265-3.6,6.816-.987" transform="translate(1239.092 15298.619)" fill="#233862"></path><path id="Trazado_6998" data-name="Trazado 6998" d="M808.764,586.554a6.635,6.635,0,0,1,1.911,2.418c.375,1.192.543,3.645,1.258,3.562,0,0,1.55-3.732-.192-5.843-1.847-2.238-2.977-.136-2.977-.136" transform="translate(1212.482 15297.173)" fill="#233862"></path><path id="Trazado_6999" data-name="Trazado 6999" d="M711.234,695.608l2.256.676s7.44-12.345,8.117-15.557c.221-1.046.762-3.139,1.393-5.483,1.307-4.856,2.993-10.8,2.993-10.8l.555-2.405,1.894-8.2a25.7,25.7,0,0,0-5.747,1.258,2.637,2.637,0,0,0-1.426,1.053c-1.558,3.427-3.114,12.074-4.207,18.243-.609,3.438-1.074,6.107-1.317,6.672-.676,1.578-2.743,10.259-4.51,14.543" transform="translate(1284.894 15246.551)" fill="#ffb27d"></path><path id="Trazado_7000" data-name="Trazado 7000" d="M794.164,585.545s-1.466,5.75-5.449,7.591c0,0,3.983-3.532,4.322-7.328s1.127-.263,1.127-.263" transform="translate(1227.367 15298.366)" fill="#233862"></path><path id="Trazado_7001" data-name="Trazado 7001" d="M743.379,843.195a34.309,34.309,0,0,0,4.331,14.086l1.2,1.1s1.1-6.263,1.89-13.433c.755-6.815,1.791-14.027,2.962-16.229,1.751-3.289,3.041-10.016,3.97-17.122,1.535-11.76,2.079-24.564,2.079-24.564l-14.134-.7c-1.422,2.39-2.041,6.31-2.188,10.766a108.6,108.6,0,0,0,.726,14.685c.715,6.606,1.71,12.112,1.942,13.35a.012.012,0,0,0,0,.006.736.736,0,0,1-.093.473c-2.813,5.567-3.219,11.936-2.69,17.588" transform="translate(1261.175 15148.185)" fill="#d9935c"></path><path id="Trazado_7002" data-name="Trazado 7002" d="M807.7,670.921c.318,7.764,1.479,15.452,4.86,14.958,4.143-.6,5.223-4.472,5.443-7.347a16.507,16.507,0,0,0-.061-3.195,7.338,7.338,0,0,1-2.369-.313c-1.566-1.447-1.1-15.636-1.876-17.109s-5.805-2.419-5.805-2.419-.507,7.75-.191,15.425" transform="translate(1213.35 15245.321)" fill="#ed7d2b"></path><path id="Trazado_7003" data-name="Trazado 7003" d="M808,700.023c.318,7.764,1.479,15.452,4.86,14.958,4.143-.6,5.223-4.472,5.443-7.347-1.017-.051-2.808-.3-3.52-1.385-1.019-1.554-4.2-11.555-4.2-11.555s-1.25,2.245-2.585,5.33" transform="translate(1213.051 15216.219)" fill="#ed7d2b"></path><path id="Trazado_7004" data-name="Trazado 7004" d="M770.115,917.231c.374,1.486.785,2.9,1.2,4.216.09.282.178.56.268.831.045.135.09.268.133.4q.132.391.262.766c.113.326.226.643.338.95q.123.342.245.67c1.243,3.335,2.286,5.449,2.286,5.449l2.478-.17a67.388,67.388,0,0,1-1.116-10.765c-.006-.226-.012-.454-.017-.685-.009-.492-.016-.992-.016-1.5,0-.209,0-.422,0-.636a56.932,56.932,0,0,1,2.883-18.073,117.826,117.826,0,0,0,3.945-13.93c-1.473.3-2.77-.006-6.534-.323-.4-.033-2.287,2.309-4.156,5.409a10.033,10.033,0,0,1-2.238,6.555c-2.681,5.771-1.707,13.919.033,20.839" transform="translate(1242.436 15075.349)" fill="#233862"></path><path id="Trazado_7005" data-name="Trazado 7005" d="M743.379,916.032a34.309,34.309,0,0,0,4.331,14.086l1.2,1.1s1.1-6.263,1.89-13.433c.755-6.815,1.791-14.028,2.962-16.229,1.751-3.289,3.041-10.016,3.97-17.122-1.3.541-5.728,1.948-13.517.186.715,6.606,1.71,12.112,1.942,13.35a.012.012,0,0,0,0,.006.736.736,0,0,1-.093.473c-2.813,5.567-3.219,11.936-2.69,17.588" transform="translate(1261.175 15075.348)" fill="#2b478b"></path><path id="Trazado_7006" data-name="Trazado 7006" d="M733.44,778.315a51.015,51.015,0,0,0,7.313,1.516c5.394.746,12.935,1.014,19.669-1.516,0,0,.555-10.021-1.041-15.244s-2.342-7.724-2.342-7.724a33.768,33.768,0,0,1-12.886.36,21.091,21.091,0,0,1-2.723-.7s-4.005,8.5-5.106,12.147-2.885,11.165-2.885,11.165" transform="translate(1268.407 15171.441)" fill="#2b478b"></path><path id="Trazado_7007" data-name="Trazado 7007" d="M733.44,778.315a51.015,51.015,0,0,0,7.313,1.516c7.989-4.53,4.094-23.591,4.094-23.591q-.356-.288-.693-.533a21.091,21.091,0,0,1-2.723-.7s-4.005,8.5-5.106,12.147-2.885,11.165-2.885,11.165" transform="translate(1268.407 15171.441)" fill="#233862"></path><path id="Trazado_7008" data-name="Trazado 7008" d="M708.048,674.855c0,1.951,1.99,3.149,4.125,3.732,2.053.561,4.239.554,4.923.1,1.18-.791,3.1-9.583,3.664-12.259.1-.485.158-.769.158-.769s1.533,3.66,1.582,4c.022.154.04.364.054.55.016.225.025.411.025.411s8.322,4.2,15.607.343c0,0,2.962-17.116,1.676-20.063-.639-1.464-3.971-4.485-5.305-5.787a1.582,1.582,0,0,1-.153-1.4.613.613,0,0,0-.751-.727,7.9,7.9,0,0,1-4.053-.358,9.786,9.786,0,0,1-2.478-1.211.378.378,0,0,0-.587.268c-.126,1.02-.434,2.884-1,2.884-.775,0-6.066.645-6.454,1.3-.135.228-1.51,3.34-3.247,7.463a.047.047,0,0,0,0,.011c-3.259,7.735-7.786,19.024-7.786,21.519" transform="translate(1287.26 15255.828)" fill="#f99746"></path><path id="Trazado_7009" data-name="Trazado 7009" d="M758.023,705.506s1.534,3.66,1.582,4c.022.154.04.364.054.551a7.549,7.549,0,0,0,2.551,1.341c2.594.786,3.721-4.187,3.566-6.668s-3.824-9.563-5.046-9.71-2.708,10.485-2.708,10.485" transform="translate(1250.155 15215.977)" fill="#ed7d2b"></path><path id="Trazado_7010" data-name="Trazado 7010" d="M757.409,736.508c.1-.485.158-.769.158-.769a3.917,3.917,0,0,0-.158.769" transform="translate(1250.611 15185.744)" fill="#e58638"></path><path id="Trazado_7011" data-name="Trazado 7011" d="M772.493,752.215c4.736,0,6.688-1.63,6.832-1.741l.306-2.23c-.045.033-6.4,3.849-16.234.195l.208,1.689c3.782,1.405,6.427,2.087,8.887,2.087" transform="translate(1246.164 15176.46)" fill="#b64c41"></path><path id="Trazado_7012" data-name="Trazado 7012" d="M708.048,709.426c0,1.951,1.99,3.149,4.125,3.732-2.943-3.5,3.5-24.71,3.661-25.251-3.259,7.735-7.786,19.024-7.786,21.519" transform="translate(1287.26 15221.258)" fill="#ed7d2b"></path><path id="Trazado_7013" data-name="Trazado 7013" d="M775.959,644.562s3.962,2.509,6.959,1.915c0,0,.72-.455-.273-.912-.932-.428-3.1-1.695-2.624-2.945a9.789,9.789,0,0,1-2.478-1.211.378.378,0,0,0-.587.268c-.126,1.02-.434,2.884-1,2.884" transform="translate(1236.838 15255.828)" fill="#ed7d2b"></path><path id="Trazado_7014" data-name="Trazado 7014" d="M784.145,1054.914h1.582c.53-.083.921-.237,1.464-.308a1.467,1.467,0,0,1,1.281.308l.014.016h6.719c.169-.241.007-.8-.152-1.212a.956.956,0,0,0-.629-.575,7.248,7.248,0,0,1-3.4-1.554c-.724-.654-3.495-2.4-3.495-2.4l-.015,0c-.061,0-.35.09-1.611,1.155-.651.549-1.762-.776-1.762-.776a1.582,1.582,0,0,0-.364.494,1.668,1.668,0,0,0-.144,1.032,6.69,6.69,0,0,1-.482,2.492c-.157.461-.288.788-.288.788s-.076.38,1.285.55" transform="translate(1231.715 14953.027)" fill="#233862"></path><path id="Trazado_7015" data-name="Trazado 7015" d="M786.412,1050.053a5.012,5.012,0,0,0,1.7.859c.714.094,2.048-1.728,2.048-1.728l-.015,0c-.061,0-.351.09-1.611,1.155-.651.549-1.762-.776-1.762-.776a1.582,1.582,0,0,0-.364.494" transform="translate(1229.077 14953.027)" fill="#466aa5"></path><path id="Trazado_7016" data-name="Trazado 7016" d="M784.145,1067.586h1.582c.53-.083.921-.237,1.464-.308a1.467,1.467,0,0,1,1.281.308l.014.016h6.719c.169-.241.007-.8-.152-1.212-.2-.182-.262.788-.374.943a29.948,29.948,0,0,1-5.791-.169,3.243,3.243,0,0,0-2.536-.31,6.111,6.111,0,0,1-3.2-.605c-.157.461-.288.788-.288.788s-.076.38,1.285.55" transform="translate(1231.715 14940.354)" fill="#466aa5"></path><path id="Trazado_7017" data-name="Trazado 7017" d="M751.371,1054.914h1.582c.53-.083.921-.237,1.465-.308a1.466,1.466,0,0,1,1.281.308.165.165,0,0,1,.015.016h6.719c.169-.241.007-.8-.152-1.212a.956.956,0,0,0-.629-.575,7.249,7.249,0,0,1-3.4-1.554c-.724-.654-3.495-2.4-3.495-2.4l-.015,0c-.061,0-.351.09-1.611,1.155-.652.549-1.762-.776-1.762-.776a1.583,1.583,0,0,0-.364.494,1.67,1.67,0,0,0-.144,1.032,6.689,6.689,0,0,1-.481,2.492c-.157.461-.289.788-.289.788s-.076.38,1.285.55" transform="translate(1256.049 14953.027)" fill="#233862"></path><path id="Trazado_7018" data-name="Trazado 7018" d="M753.638,1050.053a5.012,5.012,0,0,0,1.7.859c.714.094,2.049-1.728,2.049-1.728l-.015,0c-.061,0-.351.09-1.611,1.155-.652.549-1.762-.776-1.762-.776a1.583,1.583,0,0,0-.364.494" transform="translate(1253.411 14953.027)" fill="#466aa5"></path><path id="Trazado_7019" data-name="Trazado 7019" d="M751.371,1067.586h1.582c.53-.083.921-.237,1.465-.308a1.466,1.466,0,0,1,1.281.308l.015.016h6.719c.169-.241.007-.8-.152-1.212-.2-.182-.262.788-.374.943a29.947,29.947,0,0,1-5.791-.169,3.243,3.243,0,0,0-2.536-.31,6.111,6.111,0,0,1-3.2-.605c-.157.461-.289.788-.289.788s-.076.38,1.285.55" transform="translate(1256.049 14940.354)" fill="#466aa5"></path><path id="Trazado_7020" data-name="Trazado 7020" d="M674.191,846.9a2.291,2.291,0,0,1,1.459-1.7,8.906,8.906,0,0,1,5.662-.138c4.137,1.216,4.543,3.759,4.269,5.589s.537,4.745.418,6.819-.713,7.286-3.777,7.012-12.939-2.928-12.939-2.928-1.706-3.247,1.8-7.95a16.933,16.933,0,0,0,3.108-6.7" transform="translate(1316.348 15104.869)" fill="#233862"></path><path id="Trazado_7021" data-name="Trazado 7021" d="M696.9,837.615l.82.074a1.844,1.844,0,0,1,.47-.923,1.336,1.336,0,0,1,1.188-.291,1.238,1.238,0,0,1,.983.641,1.973,1.973,0,0,1,.107,1.129l.8.185a3.262,3.262,0,0,0-.178-1.933,1.96,1.96,0,0,0-1.514-1.073,2.06,2.06,0,0,0-1.845.533,3.167,3.167,0,0,0-.829,1.658" transform="translate(1295.539 15111.758)" fill="#233862"></path><path id="Trazado_7022" data-name="Trazado 7022" d="M661.4,859.768s9.876,2.66,12.943,2.928,3.66-4.932,3.772-7.014-.688-4.986-.419-6.819a5.048,5.048,0,0,0,.062-1.118c-.079-1.632-.993-3.486-4.324-4.464a8.9,8.9,0,0,0-5.669.141,2.3,2.3,0,0,0-1.46,1.7c-.036.16-.069.354-.112.546a17.106,17.106,0,0,1-3,6.158c-3.506,4.7-1.8,7.943-1.8,7.943" transform="translate(1322.204 15106.189)" fill="#2b478b"></path><path id="Trazado_7023" data-name="Trazado 7023" d="M704.549,890.384a3.675,3.675,0,0,1-3.229.857,4.579,4.579,0,0,1-2.723-2.2Z" transform="translate(1294.277 15071.927)" fill="#233862"></path><path id="Trazado_7024" data-name="Trazado 7024" d="M676.746,884.093a3.675,3.675,0,0,1-3.229.857,4.579,4.579,0,0,1-2.723-2.2Z" transform="translate(1314.92 15076.598)" fill="#233862"></path><path id="Trazado_7025" data-name="Trazado 7025" d="M681.323,845.121c-.036.16-.069.354-.112.546a7.1,7.1,0,0,0,4.8,4.18,7.255,7.255,0,0,0,6.762-2.1c-.079-1.632-.993-3.486-4.324-4.464a8.9,8.9,0,0,0-5.669.141,2.3,2.3,0,0,0-1.46,1.7" transform="translate(1307.185 15106.189)" fill="#233862"></path><path id="Trazado_7026" data-name="Trazado 7026" d="M698.5,869.267h0a.5.5,0,0,0,.6-.378l.1-.444a.5.5,0,1,0-.977-.221l-.1.444a.5.5,0,0,0,.378.6" transform="translate(1294.638 15087.67)" fill="#d86713"></path><path id="Trazado_7027" data-name="Trazado 7027" d="M703.267,814.563a5.877,5.877,0,0,1-1.4,2.067,4,4,0,0,0-1.541,2.405,2.126,2.126,0,0,0,1.856,2.593c.9,0,1.764-1.23,2.294-4.167.029-.161.885-1.846.885-1.846Z" transform="translate(1293.021 15127.221)" fill="#ffb27d"></path><path id="Trazado_7028" data-name="Trazado 7028" d="M1231.707,888.652l.561-60.054s.484-4.325,4.257-4.325c4.026,0,4.257,4.325,4.257,4.325a.457.457,0,0,1-.471.374.488.488,0,0,1-.5-.374s-.178-3.334-3.282-3.334c-2.909,0-3.283,3.334-3.283,3.334v60.054Z" transform="translate(898.464 15120.012)" fill="#233862"></path><path id="Trazado_7029" data-name="Trazado 7029" d="M1232.46,1065.532h-2.5l.223-2.618s-.022-.364.484-.384c.47-.019,1.4-.086,1.487.2.077.25.31,2.8.31,2.8" transform="translate(899.764 14943.131)" fill="#233862"></path><path id="Trazado_7030" data-name="Trazado 7030" d="M1243.116,811.916l.171.859a5.5,5.5,0,0,1,5.238,4.534s.269,1.893-1.1,1.489-1.153-1.37-3.086-1.9-3.192-.935-3.486-2.342l-.316-1.566Z" transform="translate(891.904 15129.186)" fill="#ffb27d"></path><path id="Trazado_7031" data-name="Trazado 7031" d="M1192.238,667.338s1.123,4.419,2.092,8.459c.39,1.627.755,3.193,1.012,4.383a10.094,10.094,0,0,1,.354,2.143c-.842,1.367.7,9.7,1.914,12.731.107.269.255.583.433.932,1.7,3.337,6.233,9.885,6.233,9.885a5.669,5.669,0,0,0,2.114-.182,2.786,2.786,0,0,0,1.174-1.117c-.405-.652-2.045-8.357-4.154-12.677-.9-1.848-2.232-18.993-3.98-21.3-1.458-1.926-7.192-3.256-7.192-3.256" transform="translate(927.768 15236.529)" fill="#f99746"></path><path id="Trazado_7032" data-name="Trazado 7032" d="M1204.645,714.787c-.842,1.367.7,9.7,1.914,12.731.107.269.255.583.433.932,1.627-7.195-1.069-17.387-1.069-17.387a3.339,3.339,0,0,0-1.632,1.582,10.1,10.1,0,0,1,.354,2.143" transform="translate(918.819 15204.065)" fill="#ed7d2b"></path><path id="Trazado_7033" data-name="Trazado 7033" d="M1159.693,1043.028s-.433,6.512.8,6.6c.164.012,6.237.012,6.237.012h7.834a2.678,2.678,0,0,0-2.4-2.308c-2.266-.4-6.059-1.988-7.432-4.983-1.444-3.151-5.038.676-5.038.676" transform="translate(951.986 14959.021)" fill="#0f2949"></path><path id="Trazado_7034" data-name="Trazado 7034" d="M1113.942,1043.028s-.433,6.512.8,6.6c.164.012,6.237.012,6.237.012h7.834a2.678,2.678,0,0,0-2.4-2.308c-2.266-.4-6.059-1.988-7.432-4.983-1.444-3.151-5.038.676-5.038.676" transform="translate(985.954 14959.021)" fill="#163560"></path><path id="Trazado_7035" data-name="Trazado 7035" d="M1152.587,846.862a85.17,85.17,0,0,0-.446,9.486c.2,4.463.337,8.226.337,8.226,2.942,1,8.341-.213,8.341-.213s1.915-11.278,3.493-20.281c.708-4.034,1.295-7.524,1.514-9.172.71-5.326-.755-33.647-.755-33.647s-7.962-5.1-11.251-2.472-5.313,5.2-.013,34.019c.4,2.186-.787,7.886-1.219,14.054" transform="translate(958.721 15139.491)" fill="#2b478b"></path><path id="Trazado_7036" data-name="Trazado 7036" d="M1152.587,846.862a102.225,102.225,0,0,0-.408,10.352c2.768-2.929,8.223-9.109,12.133-13.134.708-4.034,1.295-7.524,1.514-9.172.71-5.326-.755-33.647-.755-33.647s-7.962-5.1-11.251-2.472-5.313,5.2-.013,34.019c.4,2.186-.787,7.886-1.219,14.054" transform="translate(958.721 15139.491)" fill="#233862"></path><path id="Trazado_7037" data-name="Trazado 7037" d="M1129.7,801.535s-.715,28.349-1.832,33.606-6.948,29.318-6.948,29.318-5.466.5-8.323-.726c0,0,.182-11.144,1.151-17.691.905-6.117,2.529-11.709,2.3-13.919-3.07-29.139-.854-31.547,2.628-33.917s11.027,3.329,11.027,3.329" transform="translate(986.901 15139.794)" fill="#2b478b"></path><path id="Trazado_7038" data-name="Trazado 7038" d="M1125.4,818.43a5.5,5.5,0,0,1-1.747,6.7s-1.578,1.08-1.82-.323.037-.914-.344-2.882.106-4,1.238-4.888Z" transform="translate(980.388 15125.381)" fill="#ffb27d"></path><path id="Trazado_7039" data-name="Trazado 7039" d="M1167.838,634.8s-2.186,3.323-1.75,6.423l-3.235,7.793-5.836-8.922a20.482,20.482,0,0,0,4.234-7.93Z" transform="translate(953.918 15262.645)" fill="#ffb27d"></path><path id="Trazado_7040" data-name="Trazado 7040" d="M1177.96,616.359s-7.96.345-8.1-4.434-2.3-7.957,3.658-8.377c4.9-.345,6.524,1.7,6.96,3.28s.437,9.276-2.513,9.532" transform="translate(944.755 15283.92)" fill="#ffb27d"></path><path id="Trazado_7041" data-name="Trazado 7041" d="M1116.946,702.9c1.71.159,4.064.356,6.921.536q.856.054,1.77.105c8.625.483,12.054-.914,12.054-.914s.229-.185.156-1.2c-.375-5.216-1.483-6.757-1.349-7.748.3-2.228,5.705-20.408,5.705-20.408s.1-5.743-6.283-8.439a15.1,15.1,0,0,0-2.187-.727,2.635,2.635,0,0,1-3.008,1.756,10.255,10.255,0,0,1-5.849-2.924c-.16,0-.224,0-.224,0a17.576,17.576,0,0,0-.535,1.9c-.524,2.257-.83,4.632-2.216,6.408a48.676,48.676,0,0,0-3.536,5.172,43.1,43.1,0,0,0-2.153,4.134c-5.654,12.5-1.281,22.158.732,22.346" transform="translate(986.281 15239.796)" fill="#f99746"></path><path id="Trazado_7042" data-name="Trazado 7042" d="M1122.694,740.3c1.71.159,4.064.356,6.921.536.833-14.04-4.888-27.524-4.888-27.524a5.071,5.071,0,0,0-.613.508,8.887,8.887,0,0,0-2.153,4.134c-1.7,6.366-.278,16.708.732,22.346" transform="translate(980.533 15202.397)" fill="#ed7d2b"></path><path id="Trazado_7043" data-name="Trazado 7043" d="M1181.9,634.694s1.55,6.148-1.08,7.013-9.611.172-9.608-7.365c0,0,3.663,2.185,5.414,2.13s2.88-1.065,4.5-.276c0,0,.592-.039.778-1.5" transform="translate(943.376 15261.027)" fill="#2b478b"></path><path id="Trazado_7044" data-name="Trazado 7044" d="M1119.143,662.956s-5.564.125-8.5,3.95c-2.253,2.931-4.634,18.658-4.634,21.026s2.536,15.437,3.956,16.857a5.349,5.349,0,0,0,2.145,0,4.341,4.341,0,0,0,2.068-1s-.706-14.55-.706-15.915c0-1.976,6.177-14.07,6.177-14.07s3.2-5.756-.5-10.844" transform="translate(991.793 15239.782)" fill="#f99746"></path><path id="Trazado_7045" data-name="Trazado 7045" d="M1164.191,600.771a1.382,1.382,0,0,1,.735-.744,8.512,8.512,0,0,1,7.759.184c-2.748-3.689-9.38-2.914-10.776.413-2.281,5.432,1.891,6.563,1.891,6.563s4.166-1.75,1.753-3.945a3.927,3.927,0,0,1-1.314-1.936,1.923,1.923,0,0,1-.048-.535" transform="translate(950.793 15288.182)" fill="#2b478b"></path><path id="Trazado_7046" data-name="Trazado 7046" d="M474.252,1015.439l-.972,4.089-1.29,5.424h-4.031l-.24-5.2-.186-4.007Z" transform="translate(1465.832 14978.078)" fill="#ffb27d"></path><path id="Trazado_7047" data-name="Trazado 7047" d="M526.7,664.721s3.189-3.413,5.263-.737a28.1,28.1,0,0,0,7.555,6.541c3.183,2.058-2.812,18.192-6.8,17.861s-20.253-13.051-6.02-23.665" transform="translate(1426.159 15239.779)" fill="#ed7d2b"></path><path id="Trazado_7048" data-name="Trazado 7048" d="M481.553,658.579c.8-.6,8.127-3.112,15.275-.637s-5.536,9.371-5.536,9.371l-4.111.177Z" transform="translate(1455.423 15244.299)" fill="#a53232"></path><path id="Trazado_7049" data-name="Trazado 7049" d="M484.806,638.789a37.745,37.745,0,0,1-.7,6.363l-4.452,9.6,16.758-3.983-4-5.522s-1.207-5.892-.574-8.072-7.031,1.617-7.031,1.617" transform="translate(1456.836 15259.428)" fill="#ffb27d"></path><path id="Trazado_7050" data-name="Trazado 7050" d="M499.578,647.753s1.325,3.19,3.821,3.12,3.064-2.893,3.064-2.893Z" transform="translate(1442.04 15251.07)" fill="#ed985f"></path><path id="Trazado_7051" data-name="Trazado 7051" d="M488.966,601.123a40.054,40.054,0,0,0-1.369-5.243c-.562-1.219-1.031-6.656,5.2-6.938a7.183,7.183,0,0,0,3.7-.516s0,.8-.328,1.078a4.144,4.144,0,0,1,3.844,1.359c1.687,1.875-1.125,8.438-.984,9.985Z" transform="translate(1451.161 15295.117)" fill="#2c3a64"></path><path id="Trazado_7052" data-name="Trazado 7052" d="M498.493,620.324c-1.809-.032-5.138-2.44-5.138-5.423v-4.654a1.857,1.857,0,0,1,1.688-1.98h6.9a1.857,1.857,0,0,1,1.687,1.98v4.391c0,3.127-3.063,5.723-5.138,5.686" transform="translate(1446.66 15280.387)" fill="#ffb27d"></path><path id="Trazado_7053" data-name="Trazado 7053" d="M492.692,609.692s.01-2.8,2.224-3.226,7.172,1.363,7.875-.676-9.582-2-10.1-.7,0,4.606,0,4.606" transform="translate(1447.323 15283.427)" fill="#2c3a64"></path><path id="Trazado_7054" data-name="Trazado 7054" d="M483.915,809.983l-9.81.613c-.056-.092-.12-.092-.19.012l-2.886.18-12.3-.768a130.676,130.676,0,0,0-1.879,32.94c.388,6,1,14.018,1.129,19.76H467.1c1.093-7.11,2.615-14.457,3.294-17.5q.463-2.075.862-4.112a26.052,26.052,0,0,1,.4,3.582,32.091,32.091,0,0,0,.865,5.64c.71,3.379,1.7,7.566,2.319,11.633H484.1c.106-5.6,1.274-13.246,1.375-19a322.184,322.184,0,0,0-1.558-32.976" transform="translate(1473.974 15130.621)" fill="#2b478b"></path><path id="Trazado_7055" data-name="Trazado 7055" d="M460.155,838.229s3.514,4.258,13.061,3.643,14.1-2.276,14.1-2.276Z" transform="translate(1471.31 15109.649)" fill="#233862"></path><path id="Trazado_7056" data-name="Trazado 7056" d="M485.471,714.545c-3.119.424-24.336,1.526-27.164-1.367s4.617-42.374,4.617-42.374.843-.244,2.266-.512c.725-.137,1.6-.279,2.591-.4.012.307.257,4.962,4.121,6.885,0,0,4.641-1.859,4.186-6.809-.005-.058-.012-.114-.02-.169.619.066,1.246.152,1.876.261a26.548,26.548,0,0,1,3.84.951s6.8,43.11,3.685,43.533" transform="translate(1473.158 15234.701)" fill="#bc3f3f"></path><path id="Trazado_7057" data-name="Trazado 7057" d="M438.331,697.114c-.125.164.72,1.379,1.914,2.941,2.455,3.208,6.382,7.878,6.382,7.878a16.085,16.085,0,0,1-.274,2.6,59.071,59.071,0,0,1-11.459-6.848,17.8,17.8,0,0,1-4.374-4.459c5.45-23.055,12.443-25.456,12.443-25.456l2.282,13.893s-6.531,8.946-6.913,9.446" transform="translate(1493.313 15231.75)" fill="#bc3f3f"></path><path id="Trazado_7058" data-name="Trazado 7058" d="M499.638,670.06l-1.406,4.275-1.874,2.751-2.689,1.459-2.531-1.459-4.255-6.8c.725-.137,1.6-.279,2.591-.4.012.307.257,4.962,4.121,6.885,0,0,4.641-1.859,4.186-6.809-.005-.058-.012-.114-.02-.17.619.066,1.247.152,1.876.261" transform="translate(1451.465 15234.702)" fill="#ee9849"></path><path id="Trazado_7059" data-name="Trazado 7059" d="M459.236,783.694c0,.045,0,.089-.005.133-.012.292-.029.565-.05.813a4.435,4.435,0,0,1-.448.528,4.748,4.748,0,0,1-.789.639c-.137-.065-.273-.133-.407-.2a56.537,56.537,0,0,1-10.033-6.157,12.043,12.043,0,0,0,5.351-3.636c2.454,3.209,6.382,7.879,6.382,7.879" transform="translate(1480.703 15155.989)" fill="#ffb27d"></path><path id="Trazado_7060" data-name="Trazado 7060" d="M551.135,697.433a17.792,17.792,0,0,1-4.287,4.543,59.1,59.1,0,0,1-11.326,7.065,16.062,16.062,0,0,1-.323-2.6s3.837-4.744,6.23-8c1.163-1.585,1.985-2.816,1.857-2.977-.3-.382-4.4-5.767-6.225-8.168l-.868-1.143,2.312-13.659s6.74,1.991,12.63,24.938" transform="translate(1415.594 15232.7)" fill="#bc3f3f"></path><path id="Trazado_7061" data-name="Trazado 7061" d="M547.368,776.778a56.837,56.837,0,0,1-9.96,6.373l-.346.178a6.413,6.413,0,0,1-1.162-2.308c.077-.1.176-.221.3-.371,1.1-1.375,3.871-4.849,5.75-7.4a12.037,12.037,0,0,0,5.419,3.533" transform="translate(1415.072 15157.897)" fill="#ffb27d"></path><path id="Trazado_7062" data-name="Trazado 7062" d="M505.227,663.878a37.138,37.138,0,0,0-8.288.094.149.149,0,0,1,0-.016s7.671-4.744,8.289-.078" transform="translate(1444 15240.623)" fill="#ffb27d"></path><path id="Trazado_7063" data-name="Trazado 7063" d="M498.463,700.583h-.157l-.116-7.394h.4Z" transform="translate(1443.071 15217.336)" fill="#bbd4ff"></path><path id="Trazado_7064" data-name="Trazado 7064" d="M497.647,720.925c-.143.216-.466.931-.252,1.007a.908.908,0,0,0,.69-.021c.1-.1-.168-1.394-.438-.986" transform="translate(1443.714 15196.802)" fill="#ee9849"></path><path id="Trazado_7065" data-name="Trazado 7065" d="M526.659,700.583H526.5l-.116-7.394h.4Z" transform="translate(1422.136 15217.336)" fill="#bbd4ff"></path><path id="Trazado_7066" data-name="Trazado 7066" d="M525.843,720.925c-.143.216-.466.931-.252,1.007a.908.908,0,0,0,.69-.021c.1-.1-.168-1.394-.438-.986" transform="translate(1422.779 15196.802)" fill="#ee9849"></path><path id="Trazado_7067" data-name="Trazado 7067" d="M483.284,672.027l-6.521-6.284s-1.468-1.042.852-2.6,5.669,8.884,5.669,8.884" transform="translate(1459.319 15239.762)" fill="#a53232"></path><path id="Trazado_7068" data-name="Trazado 7068" d="M523.675,672.027l6.521-6.284s1.468-1.042-.852-2.6-5.669,8.884-5.669,8.884" transform="translate(1424.149 15239.762)" fill="#a53232"></path><path id="Trazado_7069" data-name="Trazado 7069" d="M495.024,798.4a4.028,4.028,0,0,1-3.148-.942,3.961,3.961,0,0,1-.38-.392,6.226,6.226,0,0,1-1.209-2.5,8.44,8.44,0,0,1-.259-1.647l-.005-.184H479.49l.006.2a5.9,5.9,0,0,1-.546,2.9,4.134,4.134,0,0,1-.766,1.07,4.429,4.429,0,0,1-.928.711,6.388,6.388,0,0,1-3,.785l-.195-.007v4.45H495.23v-4.461Z" transform="translate(1460.984 15143.429)" fill="#a53232"></path><path id="Trazado_7070" data-name="Trazado 7070" d="M557.909,732.857s-5.871-7.7-1.224-9.947c1.845-.891,4.442,9.682,3.05,10.676s-3.684,2.248-3.684,2.248Z" transform="translate(1400.969 15195.309)" fill="#a53232"></path><path id="Trazado_7071" data-name="Trazado 7071" d="M454.278,729.379s2.04-9.673.25-8.677-4.442,9.681-3.05,10.676,3.684,2.248,3.684,2.248Z" transform="translate(1478.041 15196.962)" fill="#a53232"></path><path id="Trazado_7072" data-name="Trazado 7072" d="M553.143,696.993c-2.681-3.328-3.683-8.733-3.546-14.311a65.186,65.186,0,0,1,.714-8.1l2.2,1.713a15.2,15.2,0,0,0-1.359,6.4,31.773,31.773,0,0,0,1.841,13.051Z" transform="translate(1404.912 15231.15)" fill="#ed7d2b"></path><path id="Trazado_7073" data-name="Trazado 7073" d="M466.644,1006.49l-4.724,0c-.419.047-1.073-.565-1.073-1.44a17.408,17.408,0,0,0-.148-2.472c-.608-1.635.3-1.724,1.171-1.724h8.619c.875,0-.465,2.705-.465,3.581l.31,1.147c0,.875-2.815.91-3.691.91" transform="translate(1471.053 14988.908)" fill="#233862"></path><path id="Trazado_7074" data-name="Trazado 7074" d="M468.621,1036.742h0l1.29-5.424a8.416,8.416,0,0,1-5.561.228l.24,5.2h0s-1.031,2.672-1.313,3.328a10.736,10.736,0,0,0-.281,2.63h6.422s.047-1.927,0-2.723a24.717,24.717,0,0,0-.8-3.234" transform="translate(1469.2 14966.289)" fill="#233862"></path><path id="Trazado_7075" data-name="Trazado 7075" d="M531.786,1015.439l.972,4.09,1.29,5.424h4.031l.24-5.2.185-4.008Z" transform="translate(1418.127 14978.078)" fill="#ffb27d"></path><path id="Trazado_7076" data-name="Trazado 7076" d="M529.113,1006.49l4.724,0c.418.047,1.073-.565,1.073-1.44a17.375,17.375,0,0,1,.149-2.472c.608-1.635-.3-1.724-1.172-1.724h-8.619c-.875,0,.466,2.705.466,3.581l-.311,1.147c0,.875,2.815.91,3.691.91" transform="translate(1423.187 14988.908)" fill="#233862"></path><path id="Trazado_7077" data-name="Trazado 7077" d="M542.187,1040.071c-.281-.656-1.312-3.327-1.312-3.328h.008l.24-5.2a8.418,8.418,0,0,1-5.562-.228l1.29,5.423h-.008a24.694,24.694,0,0,0-.8,3.234c-.047.8,0,2.723,0,2.723h6.422a10.735,10.735,0,0,0-.281-2.63" transform="translate(1415.325 14966.288)" fill="#233862"></path><path id="Trazado_7078" data-name="Trazado 7078" d="M218.043,632.023H212.11l2.348-133.783.353-20.066h2.808l.051,18.051Z" transform="translate(1655.473 15376.976)" fill="#e58638"></path><path id="Trazado_7079" data-name="Trazado 7079" d="M224.44,496.225a19.3,19.3,0,0,0-3.212,2.014l.353-20.066h2.808Z" transform="translate(1648.703 15376.976)" fill="#cc6e2e"></path><path id="Trazado_7080" data-name="Trazado 7080" d="M188.738,351.69H157.2a1.808,1.808,0,0,1-1.8-1.8V305.429a1.808,1.808,0,0,1,1.8-1.8h31.542a1.808,1.808,0,0,1,1.8,1.8v44.459a1.808,1.808,0,0,1-1.8,1.8" transform="translate(1697.582 15506.569)" fill="#f99746"></path><path id="Trazado_7081" data-name="Trazado 7081" d="M192.778,355.627H164.954a1.62,1.62,0,0,1-1.615-1.615V313.569a1.62,1.62,0,0,1,1.615-1.615h27.824a1.62,1.62,0,0,1,1.615,1.615v40.442a1.62,1.62,0,0,1-1.615,1.615" transform="translate(1691.684 15500.387)" fill="#edf4ff"></path><path id="Trazado_7082" data-name="Trazado 7082" d="M187.179,370.046a2.217,2.217,0,1,0,1.81,1.81,2.219,2.219,0,0,0-1.81-1.81m-.375,3.172a.987.987,0,1,1,.986-.987.987.987,0,0,1-.986.987" transform="translate(1675.908 15457.279)" fill="#ed7d2b"></path><path id="Trazado_7083" data-name="Trazado 7083" d="M244.935,370.047a2.217,2.217,0,1,0,1.807,1.813,2.219,2.219,0,0,0-1.807-1.813m-.222,3.159a.987.987,0,1,1,.817-.818.988.988,0,0,1-.817.818" transform="translate(1633.029 15457.278)" fill="#ed7d2b"></path><path id="Trazado_7084" data-name="Trazado 7084" d="M197.355,340.855h-19.2a1.4,1.4,0,0,0-1.164.625l-2.062,3.108a1.688,1.688,0,0,0-.281.932v3.91a1.152,1.152,0,0,0,1.151,1.151.949.949,0,0,0,.912-.72,2.808,2.808,0,0,1,5.4-.086,1.137,1.137,0,0,0,1.092.806h7.466a.95.95,0,0,0,.913-.721,2.807,2.807,0,0,1,5.41-.057,1.093,1.093,0,0,0,1.055.778h.825a1,1,0,0,0,1-1v-4.3a1.711,1.711,0,0,0-.107-.595l-1.071-2.893a1.432,1.432,0,0,0-1.342-.934m-17.347,3.492a.6.6,0,0,1-.6.6h-2.5a.5.5,0,0,1-.438-.754l1.121-1.966a1.255,1.255,0,0,1,1.09-.634h.727a.6.6,0,0,1,.6.6Zm5.68,0a.6.6,0,0,1-.6.6h-3.437a.6.6,0,0,1-.6-.6v-2.163a.6.6,0,0,1,.6-.6h3.437a.6.6,0,0,1,.6.6Zm5.689,0a.6.6,0,0,1-.6.6h-3.437a.6.6,0,0,1-.6-.6v-2.163a.6.6,0,0,1,.6-.6h3.437a.6.6,0,0,1,.6.6Zm5.725,0a.6.6,0,0,1-.6.6h-3.436a.6.6,0,0,1-.6-.6v-2.163a.6.6,0,0,1,.6-.6h3.436a.6.6,0,0,1,.6.6Z" transform="translate(1683.289 15478.93)" fill="#ed7d2b"></path><path id="Trazado_7085" data-name="Trazado 7085" d="M197.651,407.609h2.223a1.729,1.729,0,0,1,1.252.424,1.18,1.18,0,0,1-.3,1.861,1.175,1.175,0,0,1,.9,1.19c0,.876-.712,1.313-1.792,1.313h-2.278Zm2,1.936c.465,0,.759-.151.759-.52,0-.315-.246-.493-.691-.493h-1.04v1.013Zm.28,1.929c.465,0,.746-.164.746-.534,0-.321-.24-.52-.78-.52h-1.218v1.053Z" transform="translate(1666.208 15429.367)" fill="#ed7d2b"></path><path id="Trazado_7086" data-name="Trazado 7086" d="M216.535,410.344v-2.736h1.054v2.709c0,.78.39,1.183,1.033,1.183s1.033-.39,1.033-1.149v-2.743h1.054v2.7a1.928,1.928,0,0,1-2.1,2.162,1.9,1.9,0,0,1-2.073-2.128" transform="translate(1652.188 15429.368)" fill="#ed7d2b"></path><path id="Trazado_7087" data-name="Trazado 7087" d="M235.633,411.5l.622-.746a2.2,2.2,0,0,0,1.43.582c.431,0,.691-.171.691-.465,0-.267-.164-.4-.964-.609-.964-.246-1.587-.513-1.587-1.478a1.5,1.5,0,0,1,1.676-1.443,2.772,2.772,0,0,1,1.779.609l-.547.793a2.247,2.247,0,0,0-1.245-.472c-.4,0-.616.185-.616.431,0,.315.205.417,1.033.629.971.253,1.518.6,1.518,1.45,0,.951-.725,1.484-1.758,1.484a3.047,3.047,0,0,1-2.032-.766" transform="translate(1638.008 15429.564)" fill="#ed7d2b"></path><path id="Trazado_7088" data-name="Trazado 7088" d="M187.835,443.377l.623-.746a2.2,2.2,0,0,0,1.43.582c.431,0,.691-.171.691-.465,0-.267-.164-.4-.964-.609-.965-.246-1.587-.513-1.587-1.478a1.5,1.5,0,0,1,1.676-1.443,2.773,2.773,0,0,1,1.779.608l-.547.794a2.247,2.247,0,0,0-1.245-.472c-.4,0-.616.185-.616.431,0,.315.205.417,1.033.629.971.253,1.519.6,1.519,1.45,0,.951-.725,1.484-1.758,1.484a3.048,3.048,0,0,1-2.032-.766" transform="translate(1673.496 15405.898)" fill="#ed7d2b"></path><path id="Trazado_7089" data-name="Trazado 7089" d="M205.841,440.453h-1.457v-.972h3.968v.972h-1.457v3.817h-1.053Z" transform="translate(1661.209 15405.703)" fill="#ed7d2b"></path><path id="Trazado_7090" data-name="Trazado 7090" d="M221.3,441.64a2.546,2.546,0,1,1,2.538,2.477,2.476,2.476,0,0,1-2.538-2.477m3.988,0a1.455,1.455,0,0,0-1.45-1.505,1.436,1.436,0,0,0-1.437,1.505,1.455,1.455,0,0,0,1.45,1.5,1.436,1.436,0,0,0,1.437-1.5" transform="translate(1648.647 15405.939)" fill="#ed7d2b"></path><path id="Trazado_7091" data-name="Trazado 7091" d="M244.705,439.482h1.957a1.643,1.643,0,0,1,1.833,1.669,1.712,1.712,0,0,1-1.936,1.683h-.8v1.437h-1.053Zm1.888,2.415a.744.744,0,0,0,.835-.739c0-.472-.328-.725-.855-.725h-.814V441.9Z" transform="translate(1631.273 15405.703)" fill="#ed7d2b"></path><path id="Trazado_7092" data-name="Trazado 7092" d="M212.636,1022.987H200.961l.835-16.172a1.7,1.7,0,0,1,1.7-1.61H210a1.808,1.808,0,0,1,1.805,1.714Z" transform="translate(1663.751 14985.677)" fill="#e58638"></path><path id="Trazado_7093" data-name="Trazado 7093" d="M206.346,1022.987h-5.385l.842-16.3a1.557,1.557,0,0,1,1.555-1.477h1.679a2.364,2.364,0,0,1,2.358,2.526Z" transform="translate(1663.751 14985.677)" fill="#cc6e2e"></path><path id="Trazado_7094" data-name="Trazado 7094" d="M387.082,423.866,387,429.234l-2.559,161.431a.712.712,0,0,1-.712.7h-.19a1.411,1.411,0,0,1-1.411-1.379l-3.545-155.825-.234-10.3Z" transform="translate(1532.05 15417.297)" fill="#e58638"></path><path id="Trazado_7095" data-name="Trazado 7095" d="M387.082,423.866,387,429.234a20.62,20.62,0,0,0-8.417,4.928l-.234-10.3Z" transform="translate(1532.05 15417.297)" fill="#cc621b"></path><path id="Trazado_7096" data-name="Trazado 7096" d="M1320.163,423.866l-.086,5.368-2.559,161.431a.712.712,0,0,1-.712.7h-.191a1.411,1.411,0,0,1-1.411-1.379l-3.545-155.825-.233-10.3Z" transform="translate(839.275 15417.297)" fill="#e58638"></path><path id="Trazado_7097" data-name="Trazado 7097" d="M1320.163,423.866l-.086,5.368a20.619,20.619,0,0,0-8.417,4.928l-.233-10.3Z" transform="translate(839.275 15417.297)" fill="#cc621b"></path><path id="Trazado_7098" data-name="Trazado 7098" d="M610.254,339.532v19.019a1.943,1.943,0,0,1-.276,1,2.288,2.288,0,0,1-1.972,1.081h-266.1a2.174,2.174,0,0,1-2.246-2.079V339.532a2.174,2.174,0,0,1,2.246-2.08h266.1a2.174,2.174,0,0,1,2.248,2.08" transform="translate(1560.773 15481.456)" fill="#ed7d2b"></path><path id="Trazado_7099" data-name="Trazado 7099" d="M842.088,339.532v19.019a1.943,1.943,0,0,1-.276,1q-1.2.552-2.443,1.081H727.006a724.541,724.541,0,0,1-75.1-23.178H839.839a2.174,2.174,0,0,1,2.248,2.08" transform="translate(1328.94 15481.456)" fill="#f99746"></path><path id="Trazado_7100" data-name="Trazado 7100" d="M335.383,1003.855s-7.49-11.439-12.116-9.247,12.116,9.247,12.116,9.247" transform="translate(1573.544 14993.752)" fill="#b8e0af"></path><path id="Trazado_7101" data-name="Trazado 7101" d="M370.678,999.852s-.441-8.262-2.864-7.931,2.864,7.931,2.864,7.931" transform="translate(1540.341 14995.547)" fill="#b8e0af"></path><path id="Trazado_7102" data-name="Trazado 7102" d="M591.579,1073.549H.765a.768.768,0,0,1-.765-.765v-.513a.768.768,0,0,1,.765-.766H591.579a.768.768,0,0,1,.765.766v.513a.767.767,0,0,1-.765.765" transform="translate(1812.956 14936.452)" fill="#2e3552"></path><g id="Grupo_1463" data-name="Grupo 1463" transform="translate(1827.376 15732)"><g id="Grupo_1462" data-name="Grupo 1462" clip-path="url(#clip-path-3)"><rect id="Rect&#xE1;ngulo_4147" data-name="Rect&#xE1;ngulo 4147" width="75.01" height="37.658" transform="translate(443.484 224.345)" fill="#8e3900"></rect><path id="Trazado_7103" data-name="Trazado 7103" d="M1829.3,923.846a22.23,22.23,0,1,1,22.23,22.23,22.23,22.23,0,0,1-22.23-22.23" transform="translate(-1372.602 -669.413)" fill="#233862"></path><path id="Trazado_7104" data-name="Trazado 7104" d="M1893.657,954.311A11.671,11.671,0,1,1,1882,942.647a11.6,11.6,0,0,1,11.662,11.664" transform="translate(-1403.064 -699.877)" fill="#466aa5"></path><path id="Trazado_7105" data-name="Trazado 7105" d="M1808.85,452.189c-.285-2.051-.6-4.1-.968-6.183-.029-.2-.086-.428-.114-.627-.4-2.165-.854-4.3-1.368-6.468l-307.85-57.1c-.456,0-.941,0-1.4.029-.085,0-.2.028-.285.028-.2,0-.37.029-.541.029h-.029a.806.806,0,0,1-.256.028c-.114.029-.228.029-.313.057a20.154,20.154,0,0,0-2.565.456l-.342.085a.1.1,0,0,1-.085.029c-.171.057-.342.085-.484.142l-.342.086-.513.171-.513.171a2.766,2.766,0,0,1-.285.113c-.171.057-.37.143-.569.228a3.171,3.171,0,0,0-.456.2c-.256.086-.484.2-.741.313-.142.085-.285.142-.456.228-.086.057-.2.086-.285.142-.2.114-.37.2-.541.285-.171.114-.342.2-.513.313a4.328,4.328,0,0,0-.484.285c-.028.029-.057.029-.085.057-.171.085-.313.2-.456.285-.142.114-.285.2-.428.314a3.687,3.687,0,0,0-.427.285,2.431,2.431,0,0,1-.285.2c-.37.285-.74.6-1.083.912a1.594,1.594,0,0,0-.228.171c-.114.113-.228.2-.313.284-.114.114-.228.2-.342.314l-.627.627a3.409,3.409,0,0,0-.313.342,4.468,4.468,0,0,0-.371.37,1.8,1.8,0,0,1-.228.256c-.143.2-.285.371-.427.542-.085.085-.142.17-.228.257a2.513,2.513,0,0,1-.2.284c-.142.2-.285.371-.427.57a2.545,2.545,0,0,0-.171.285,1.031,1.031,0,0,0-.2.285c-.114.142-.228.313-.342.484,0,.029,0,.029-.029.029-.028.086-.086.142-.114.227-.085.114-.142.228-.228.342a1.34,1.34,0,0,0-.142.285.027.027,0,0,0-.029.028,1.117,1.117,0,0,1-.142.257c-.086.143-.171.314-.256.456-.085.2-.2.4-.285.6a3.959,3.959,0,0,0-.228.513c-.057.086-.086.171-.143.256a.845.845,0,0,1-.114.285c-.085.2-.142.371-.228.57-.057.17-.142.341-.2.541-.028.085-.085.2-.114.313l-.086.257c-.028.057-.028.114-.057.171-.028.086-.057.2-.085.285-.057.142-.086.285-.142.427q-.043.171-.086.342c-.029.114-.057.2-.085.314-.313,1.111-.6,2.25-.912,3.447l-.171.6q-.513,1.88-1.026,3.846c-.085.257-.142.542-.228.826-.029.143-.057.257-.085.371-.114.4-.228.8-.313,1.2-.114.4-.228.826-.342,1.225a.73.73,0,0,1-.057.2,4.531,4.531,0,0,1-.143.6,3.552,3.552,0,0,0-.114.456c-.114.37-.2.712-.285,1.082-.142.485-.256.969-.4,1.453-.086.371-.2.769-.285,1.168-.314,1.168-.627,2.364-.941,3.562-.142.6-.285,1.168-.456,1.766-.143.6-.313,1.2-.456,1.8s-.313,1.2-.456,1.795c-.142.541-.256,1.082-.4,1.624-.4,1.567-.8,3.133-1.168,4.672-.142.6-.285,1.168-.427,1.738-.057.2-.085.4-.143.57-.142.6-.285,1.168-.427,1.738-.028.114-.028.2-.057.314q-.17.683-.342,1.367c-.057.2-.085.4-.142.57-.114.513-.228,1-.342,1.481-.057.314-.142.6-.2.884-.142.512-.256,1-.37,1.51a.171.171,0,0,1-.029.114c-.057.285-.114.57-.171.826a.26.26,0,0,0-.028.143l-.171.683c-.057.257-.114.542-.171.8-.142.542-.256,1.054-.37,1.6-.028.114-.057.257-.085.4-.143.628-.285,1.283-.427,1.909a5.945,5.945,0,0,1-.142.684c0,.057-.029.114-.029.171-.057.2-.085.427-.142.627-.028.086-.028.171-.057.257-.057.313-.114.626-.2.94v.028c-.028.2-.085.37-.114.57-.114.6-.228,1.168-.342,1.738-.6,2.963-1.054,5.556-1.31,7.636a287.516,287.516,0,0,0-2.08,33.42c-.028,4.844,0,9.6.086,14.132.029,2.051.085,4.046.143,5.984.171,5.527.4,10.627.627,15.072.142,2.592.313,4.929.427,7.009a10.775,10.775,0,0,0,10.741,10.058h78.636c-.029-.086-.029-.171-.057-.257a27.022,27.022,0,0,1-.969-7.322A27.707,27.707,0,0,1,1576.93,510.2a27.433,27.433,0,0,1,13.192,3.163,27.755,27.755,0,0,1,14.93,24.16,28.7,28.7,0,0,1-.969,7.721.837.837,0,0,0-.057.257h156.788a28.074,28.074,0,0,1,43.079-30.629c.028-.143.085-.285.114-.427.456-1.682.912-3.42,1.339-5.186.114-.456.228-.94.313-1.425l.342-1.539.057-.2c.085-.37.171-.741.256-1.139.2-.969.4-1.938.6-2.935.684-3.5,1.282-7.151,1.766-10.855.4-2.878.712-5.841.94-8.832.085-1.4.171-2.792.256-4.217.057-1.424.114-2.849.143-4.3a143.222,143.222,0,0,0-1.168-21.625" transform="translate(-1098.424 -283.482)" fill="#ed7d2b"></path><path id="Trazado_7106" data-name="Trazado 7106" d="M1609.787,897.612H1596.05a2.506,2.506,0,0,1,0-5.012h13.738a2.506,2.506,0,0,1,0,5.012" transform="translate(-1197.561 -662.719)" fill="#ffb93e"></path><path id="Trazado_7107" data-name="Trazado 7107" d="M1808.849,653.289s-345.292-1.035-345.439-.426c-.59,2.443-1.042,4.578-1.315,6.287-1.756,11.027-2.192,23.692-2.053,35.206.037,3.013.112,5.948.216,8.752h225.366v.013h121.288c.683-3.5,1.282-7.151,1.766-10.855.4-2.878.712-5.841.94-8.832.085-1.4.171-2.792.256-4.217.057-1.424.114-2.849.143-4.3a143.206,143.206,0,0,0-1.168-21.625" transform="translate(-1098.423 -484.581)" fill="#f99746"></path><path id="Trazado_7108" data-name="Trazado 7108" d="M1458.529,890.45h-5.888a2.323,2.323,0,0,1-2.316-2.316v-16.42a2.323,2.323,0,0,1,2.316-2.316h5.888a2.323,2.323,0,0,1,2.316,2.316v16.42a2.323,2.323,0,0,1-2.316,2.316" transform="translate(-1091.226 -645.492)" fill="#ffb93e"></path><path id="Trazado_7109" data-name="Trazado 7109" d="M1771.807,452.154c-.285-2.051-.6-4.1-.968-6.183-.029-.2-.086-.428-.114-.627-.4-2.165-.854-4.3-1.368-6.468-.313-1.367-.684-2.735-1.054-4.1-.228-.77-.427-1.51-.655-2.279-.029-.114-.085-.257-.114-.371-.284-.912-.57-1.853-.854-2.764-.313-.94-.627-1.881-.969-2.821-.171-.513-.342-1.026-.541-1.539l-.342-.94a129.963,129.963,0,0,0-6.866-15.185c-.4-.712-.8-1.454-1.2-2.166l-.427-.768c-.171-.314-.342-.6-.513-.884q-1.794-3.119-3.846-6.239c-1-1.567-2.08-3.106-3.191-4.673-.513-.741-1.054-1.453-1.6-2.194-.342-.427-.684-.883-1.026-1.339-.912-1.168-1.824-2.365-2.792-3.533-1.054-1.253-2.108-2.535-3.22-3.789-.456-.513-.911-1.026-1.368-1.511H1553.022l-.017-.012h-91.5c-.463,0-.925.013-1.384.042l-.3.022c-.174.013-.348.026-.522.044a.309.309,0,0,0-.046,0c-.084.009-.165.015-.249.027h-.009c-.1.011-.2.024-.306.037a22.351,22.351,0,0,0-2.549.467c-.119.029-.238.06-.357.09-.031.007-.06.015-.09.024-.161.042-.322.088-.483.134-.11.031-.22.064-.328.1-.172.053-.346.108-.518.165s-.344.117-.513.178c-.093.031-.185.064-.276.1-.189.071-.379.143-.566.22-.161.064-.319.13-.478.2q-.367.159-.727.33c-.152.071-.3.146-.454.22-.1.051-.2.1-.3.155-.179.092-.355.187-.531.286s-.35.2-.522.3l0,0q-.235.139-.469.284c-.035.022-.07.044-.1.066-.15.092-.3.189-.447.288s-.286.192-.427.291-.28.2-.419.3l-.275.2q-.569.43-1.11.894-.109.093-.218.192c-.108.095-.216.192-.321.288s-.214.194-.317.3c-.218.207-.434.419-.643.635-.108.112-.216.227-.324.341s-.231.251-.344.379c-.077.086-.152.172-.227.26q-.231.261-.443.529c-.073.088-.146.178-.216.269s-.143.183-.212.273c-.141.185-.279.372-.414.562-.066.092-.132.185-.2.28s-.131.188-.194.284a40.82,40.82,0,0,0-6.846.8c-9.056,1.887-14.776,6.884-16.607,14.476l-1.1-.105a2.866,2.866,0,0,0-3.086,2.308l-4.845,25.023a2.865,2.865,0,0,0,2.541,3.4l6.983.667a2.866,2.866,0,0,0,3.125-2.581l2.411-25.255a2.864,2.864,0,0,0-2.4-3.1c1.579-6.842,5.532-11.977,13.784-13.709a25.766,25.766,0,0,1,5.186-.53l0,.008c-.051.086-.1.174-.145.262-.086.154-.17.311-.251.467-.1.194-.2.388-.295.584-.082.167-.161.337-.238.507-.042.093-.084.185-.124.278s-.081.187-.121.282c-.079.187-.157.377-.231.566s-.135.352-.2.531c-.038.108-.077.216-.113.324-.031.086-.059.172-.088.26-.017.053-.035.1-.053.156l-.092.293c-.044.141-.086.28-.125.423-.036.119-.068.24-.1.361-.024.1-.053.2-.079.3q-.452,1.672-.927,3.447c-.053.2-.106.394-.159.593q-.506,1.874-1.026,3.839c-.075.282-.15.566-.227.853-.02.075-.042.15-.062.227-.055.209-.11.421-.167.632-.062.233-.123.467-.183.7q-.159.6-.322,1.216c-.016.062-.033.125-.051.189-.063.24-.128.481-.189.72-.031.117-.062.232-.09.348-.095.357-.187.714-.282,1.073a.03.03,0,0,1,0,.015c-.125.48-.253.963-.379,1.447h100.68v38.036Z" transform="translate(-1061.381 -283.446)" fill="#233862"></path><path id="Trazado_7110" data-name="Trazado 7110" d="M1818.655,501.309c-.285-2.051-.6-4.1-.968-6.183-.029-.2-.086-.428-.114-.627-.4-2.165-.854-4.3-1.368-6.468-.313-1.367-.683-2.735-1.054-4.1-.228-.77-.428-1.51-.656-2.279-.029-.114-.085-.257-.114-.371-.285-.912-.57-1.852-.855-2.764-.313-.94-.627-1.881-.969-2.821-.171-.513-.342-1.026-.541-1.539l-.342-.94a129.97,129.97,0,0,0-6.866-15.185c-.4-.712-.8-1.454-1.2-2.166l-.427-.768c-.171-.314-.342-.6-.513-.884q-1.794-3.119-3.846-6.239H1486.388c-.313,1.111-.6,2.25-.912,3.447l-.171.6q-.513,1.88-1.026,3.846c-.085.257-.142.542-.228.826-.029.143-.057.257-.085.371-.114.4-.228.8-.313,1.2-.114.4-.228.826-.342,1.225a.73.73,0,0,1-.057.2,4.513,4.513,0,0,1-.143.6,3.55,3.55,0,0,0-.114.456c-.114.37-.2.712-.285,1.082-.142.485-.256.969-.4,1.453-.086.371-.2.769-.285,1.168-.314,1.168-.627,2.364-.941,3.562-.142.6-.285,1.168-.456,1.766-.143.6-.313,1.2-.456,1.8s-.313,1.2-.456,1.795c-.142.541-.256,1.082-.4,1.624-.4,1.567-.8,3.134-1.168,4.672-.142.6-.285,1.168-.427,1.738-.057.2-.085.4-.143.57-.142.6-.285,1.168-.427,1.738-.028.114-.028.2-.057.314q-.17.683-.342,1.367c-.057.2-.085.4-.142.57-.114.513-.228,1-.342,1.481-.057.314-.142.6-.2.884-.142.513-.257,1-.37,1.51a.171.171,0,0,1-.029.114c-.057.285-.114.57-.171.826a.26.26,0,0,0-.028.143l-.171.683c-.057.257-.114.542-.171.8-.142.542-.256,1.054-.37,1.6-.028.114-.057.257-.085.4-.143.628-.285,1.283-.428,1.909a5.919,5.919,0,0,1-.142.684c0,.057-.029.114-.029.171-.057.2-.085.427-.142.627-.028.086-.028.171-.057.257-.057.313-.114.626-.2.94V499c-.028.2-.085.37-.114.57-.114.6-.228,1.168-.342,1.738l8.377.028h3.163l17.266.029,21.34.028h3.818l125.618.228a1,1,0,0,0-.114-.313Z" transform="translate(-1108.229 -332.601)" fill="#38568a"></path><path id="Trazado_7111" data-name="Trazado 7111" d="M1546.232,484.184a4.247,4.247,0,0,0-4.239-4.51h-19.4c-12.489,0-21.09,9.894-22.614,22.614l-4.5,55.254a3.249,3.249,0,0,0,3.238,3.512h39.772a3.174,3.174,0,0,0,3.168-2.978Z" transform="translate(-1124.738 -356.138)" fill="#38568a"></path><path id="Trazado_7112" data-name="Trazado 7112" d="M1552.793,499.345l-3.318,48.6-1.161,17.006a3.961,3.961,0,0,1-3.961,3.963h-30.991c-5.443,0-3.824-8.073-3.386-13.169L1513.4,515.8a21.738,21.738,0,0,1,.119-2.284c1.055-10.212,9.12-18.154,18.911-18.154h11.618c2.357,0,8.743,0,8.743,3.981" transform="translate(-1135.095 -367.787)" fill="#466aa5"></path><path id="Trazado_7113" data-name="Trazado 7113" d="M1915.312,954.311a11.6,11.6,0,0,1-2.286,6.932c-12.948-3.571-13.805-13.375-13.475-17.856a11.671,11.671,0,0,1,15.761,10.924" transform="translate(-1424.719 -699.877)" fill="#5f87c1"></path><path id="Trazado_7114" data-name="Trazado 7114" d="M1549.475,600.283l-1.161,17.006a3.961,3.961,0,0,1-3.961,3.963h-30.992c-5.443,0-3.824-8.073-3.386-13.169l3.425-39.946a21.768,21.768,0,0,1,.119-2.284c5.4,12.587,16.219,29.84,35.955,34.43" transform="translate(-1135.095 -420.122)" fill="#3f6098"></path><path id="Trazado_7115" data-name="Trazado 7115" d="M1915.118,515.054H1857.33a4.444,4.444,0,0,1-4.431-4.431V480.1a4.444,4.444,0,0,1,4.431-4.431h57.788a4.444,4.444,0,0,1,4.43,4.431v30.519a4.444,4.444,0,0,1-4.43,4.431" transform="translate(-1390.121 -353.168)" fill="#466aa5"></path><path id="Trazado_7116" data-name="Trazado 7116" d="M1728.868,515.054h-25.89a3.081,3.081,0,0,1-3.072-3.072V478.746a3.081,3.081,0,0,1,3.072-3.072h25.89a3.081,3.081,0,0,1,3.072,3.072v33.237a3.081,3.081,0,0,1-3.072,3.072" transform="translate(-1276.531 -353.168)" fill="#466aa5"></path><path id="Trazado_7117" data-name="Trazado 7117" d="M2205.573,515.054h-57.788a4.444,4.444,0,0,1-4.43-4.431V480.1a4.444,4.444,0,0,1,4.43-4.431h57.788A4.444,4.444,0,0,1,2210,480.1v30.519a4.444,4.444,0,0,1-4.431,4.431" transform="translate(-1605.772 -353.168)" fill="#466aa5"></path></g></g></g></svg>