<svg xmlns="http://www.w3.org/2000/svg" xmlns:xlink="http://www.w3.org/1999/xlink" width="471.625" height="278" viewBox="0 0 471.625 278"><defs><clipPath id="clip-path"><rect id="Rect&#xE1;ngulo_4128" data-name="Rect&#xE1;ngulo 4128" width="471.625" height="278" transform="translate(0 0)" fill="none"></rect></clipPath></defs><g id="Grupo_1443" data-name="Grupo 1443" transform="translate(0 -0.002)"><g id="Grupo_1442" data-name="Grupo 1442" transform="translate(0 0.002)" clip-path="url(#clip-path)"><path id="Trazado_6706" data-name="Trazado 6706" d="M41.539,277.34C-50.822,151.986,22.447,4.479,147.5.131,249.581-3.418,243.354,67.8,336.5,37.69,461.689,5.874,502.365,174.359,427.666,277.34Z" transform="translate(0 -0.002)" fill="#ebf3fa"></path><path id="Trazado_6709" data-name="Trazado 6709" d="M30.311,1690.576H495.988a.534.534,0,0,0,0-1.067H30.311a.534.534,0,0,0,0,1.067" transform="translate(-24.896 -1412.576)" fill="#2e3552"></path><path id="Trazado_6710" data-name="Trazado 6710" d="M1624.238,616.89H1605.88V433.12l9.179-23.379,9.179,23.379Z" transform="translate(-1342.655 -342.579)" fill="#405c9c"></path><rect id="Rect&#xE1;ngulo_4124" data-name="Rect&#xE1;ngulo 4124" width="253.822" height="5.693" transform="translate(145.493 65.812)" fill="#405c9c"></rect><path id="Trazado_6711" data-name="Trazado 6711" d="M583.683,1238.812H469.89a15.8,15.8,0,0,1-15.8-15.8H599.482a15.8,15.8,0,0,1-15.8,15.8" transform="translate(-379.659 -1022.545)" fill="#405c9c"></path><path id="Trazado_6712" data-name="Trazado 6712" d="M464.727,660.817l-1.387-.9,71.19-111.79,71.168,111.8-1.4.877-69.791-109.6Z" transform="translate(-387.393 -458.285)" fill="#2b478b"></path><rect id="Rect&#xE1;ngulo_4125" data-name="Rect&#xE1;ngulo 4125" width="3.267" height="28.957" transform="translate(145.493 65.812)" fill="#405c9c"></rect><path id="Trazado_6713" data-name="Trazado 6713" d="M2112.2,1238.812H1998.409a15.8,15.8,0,0,1-15.8-15.8H2128a15.8,15.8,0,0,1-15.8,15.8" transform="translate(-1657.634 -1022.545)" fill="#405c9c"></path><path id="Trazado_6714" data-name="Trazado 6714" d="M1993.247,660.817l-1.387-.9,71.19-111.79,71.168,111.8-1.4.877-69.791-109.6Z" transform="translate(-1665.368 -458.285)" fill="#2b478b"></path><rect id="Rect&#xE1;ngulo_4126" data-name="Rect&#xE1;ngulo 4126" width="3.267" height="28.957" transform="translate(396.038 65.812)" fill="#405c9c"></rect><path id="Trazado_6715" data-name="Trazado 6715" d="M1642.776,376.358h-9.317V360.281a4.659,4.659,0,1,1,9.317,0Z" transform="translate(-1365.713 -297.331)" fill="#405c9c"></path><path id="Trazado_6716" data-name="Trazado 6716" d="M1274.48,1629.311H1085.541a11.8,11.8,0,0,1,11.8-11.8h165.336A11.8,11.8,0,0,1,1274.48,1629.311Z" transform="translate(-907.606 -1352.378)" fill="#405c9c"></path><path id="Trazado_6717" data-name="Trazado 6717" d="M255.212,906.566c-.493-.951,10.752-4.373,10.93,5.007,0,0,21.065-.518,11.007-12.259-3.482-4.065-3.124-7.426-3.019-10.554s-2.169-12.222-9.966-11.306a5.806,5.806,0,0,0-4.59.491c-5.8,3.006-18.777,32.08-4.362,28.621" transform="translate(-207.891 -733.412)" fill="#b5453c"></path><path id="Trazado_6718" data-name="Trazado 6718" d="M512.58,1100.923s1.371-2.087,2.476-2.128,3.152-.614,2.988-.2-1.433.45-1.555.7,1.883.614,2.456.655,1.924,0,1.883.287-2.434,1.473-4.123,1.31a11.455,11.455,0,0,0-3.776.491Z" transform="translate(-428.561 -918.394)" fill="#ffb27d"></path><path id="Trazado_6719" data-name="Trazado 6719" d="M391.6,1032.668a20.56,20.56,0,0,0,2.1,3.172c1.629,2.041,4.142,4.4,7.3,4.864a7.831,7.831,0,0,0,4.335-.7h0a19.766,19.766,0,0,0,6.712-5.612,3.15,3.15,0,0,0-.43-3.091s-7.736,1.74-8.473,1.372-5.034-12.749-6.057-14.305-4.511-2.364-4.511-2.364Z" transform="translate(-327.41 -849.464)" fill="#b0d0ff"></path><path id="Trazado_6720" data-name="Trazado 6720" d="M403.151,1116.13c1.629,2.041,4.142,4.4,7.3,4.864a7.83,7.83,0,0,0,4.334-.7c-.15.02-3.976.492-5.5-2.236-1.556-2.784-3.238-7.2-5.549-5.731-1,.636-.953,2.216-.581,3.807" transform="translate(-336.866 -929.754)" fill="#98baf4"></path><path id="Trazado_6721" data-name="Trazado 6721" d="M205.531,1621.922s-2.36,2.154-1.9,3.685,2.591,2.551,2.878,4.422,1.439,2.891,2.476,2.891h4.941s.763-1.317-1.08-1.713-2.537-2.6-2.422-4.636a35.952,35.952,0,0,0-.173-4.762l-3.915-.907Z" transform="translate(-170.203 -1355.215)" fill="#233862"></path><path id="Trazado_6722" data-name="Trazado 6722" d="M335.742,1632.706s-.849,9.126.187,9.636l13.263-.027s0-1.531-2.13-1.871-5.872-1.587-6.506-4.365-4.813-3.373-4.813-3.373" transform="translate(-280.435 -1365.084)" fill="#233862"></path><path id="Trazado_6723" data-name="Trazado 6723" d="M279.448,1008.078c2.729-6.12,4.4-7.877,4.08-9.777-.237-1.414.723-26.362.723-26.362.324-.1.973-.19,1.328-.269a3.33,3.33,0,0,0,2.431-2.115,16.969,16.969,0,0,0,.825-5.629l.35.069,5.878,1.164s-.134,1.85-.138,3.593v.043a3.381,3.381,0,0,0,2.44,3.269c.743.214,1.388.4,1.388.4a53.9,53.9,0,0,1,2.571,12.493c.412,6.331-3.925,9.081.033,21.732,4.041,12.921-23.417,4.773-21.909,1.391" transform="translate(-233.593 -805.927)" fill="#ffb27d"></path><path id="Trazado_6724" data-name="Trazado 6724" d="M343.046,969.651s-.134,1.85-.138,3.593c-3.345-.194-5.714-2.076-6.131-3.945Z" transform="translate(-281.575 -810.417)" fill="#e8945b"></path><path id="Trazado_6725" data-name="Trazado 6725" d="M330.03,914.727s-6.62,4.093-9.106-.069-5.014-6.437-.892-9.226,5.9-1.7,7.067-.509,4.59,8.632,2.932,9.8" transform="translate(-265.747 -755.553)" fill="#ffb27d"></path><path id="Trazado_6726" data-name="Trazado 6726" d="M305.921,901.253s1.08,5.977-1.3,8.373-4.046,2.369-4.046,2.369-1.843-3.979-3.176-7.234c0,0,5.755-5.011,8.522-3.508" transform="translate(-248.651 -753.29)" fill="#b5453c"></path><path id="Trazado_6727" data-name="Trazado 6727" d="M348.057,898.08a4.829,4.829,0,0,1,2.808.356,7.836,7.836,0,0,1,3.182,3.285s-.6-4.143-3.268-5.1c-2.83-1.013-2.721,1.457-2.721,1.457" transform="translate(-291.006 -749.451)" fill="#b5453c"></path><path id="Trazado_6728" data-name="Trazado 6728" d="M274.724,1023.844a52.809,52.809,0,0,0,0,6.13c.131,2.216,2.373,5.185,2.691,5.919.8,1.842,1.7,2.141,1.7,2.141l6.964,1.707,2.448.6,7.721-2.306s3.517-9.816,2.1-15.341a42.473,42.473,0,0,0-3.57-9.363s-6.3,6.169-14.5-.523Z" transform="translate(-229.619 -846.796)" fill="#b0d0ff"></path><path id="Trazado_6729" data-name="Trazado 6729" d="M287.606,1111.618a21.676,21.676,0,0,0,.653,5.015c.8,1.842,1.7,2.141,1.7,2.141l6.964,1.707,3.024-.889s-10.1-1.53-8.977-10.216Z" transform="translate(-240.464 -927.535)" fill="#f2ccaa"></path><path id="Trazado_6730" data-name="Trazado 6730" d="M338.135,1175.8s3.824,11.9,4.069,15.954-7.309,57.563-7.613,59.43c-.287,1.76-2.472,2.882-2.472,2.882a3.306,3.306,0,0,1-2.44.188,6.039,6.039,0,0,1-2.62-1.235s-2.976-38.164-1.134-51.8a215.916,215.916,0,0,0,1.863-25.422Z" transform="translate(-271.999 -983.073)" fill="#ed7d2b"></path><path id="Trazado_6731" data-name="Trazado 6731" d="M234.244,1173.638s-5.833,7.826-6.376,13.116-.853,23.872-2.012,29.029-5.415,15.082-5.415,31.167a3.208,3.208,0,0,0,1.808,1.413,14.893,14.893,0,0,0,1.59.44,2.5,2.5,0,0,0,2.8-1.327c2.878-5.793,12.043-24.479,12.513-28.358.333-2.745,3.227-20.912,9.54-31.572,1.516-2.559-.93-12.737-.93-12.737Z" transform="translate(-184.309 -981.263)" fill="#f99746"></path><path id="Trazado_6732" data-name="Trazado 6732" d="M375.223,952.71s.408.422,1.584-.381c0,0,.987-.674.635-1.195a3.839,3.839,0,0,0-2.219,1.576" transform="translate(-313.719 -795.231)" fill="#fff"></path><path id="Trazado_6733" data-name="Trazado 6733" d="M317.241,1164.594a8.014,8.014,0,0,1-4.584,1.276c-3.642.073-12.668-.928-12.668-.928a7.467,7.467,0,0,0-.385,2.3s11.023,2.781,17.41.406a4.036,4.036,0,0,0,.227-3.057" transform="translate(-250.495 -973.702)" fill="#233862"></path><path id="Trazado_6734" data-name="Trazado 6734" d="M374.429,1170.454a1.675,1.675,0,1,1,1.662,1.881,1.784,1.784,0,0,1-1.662-1.881m.551,0a1.129,1.129,0,1,0,1.111-1.33,1.237,1.237,0,0,0-1.111,1.33" transform="translate(-313.055 -977.029)" fill="#fff"></path><rect id="Rect&#xE1;ngulo_4127" data-name="Rect&#xE1;ngulo 4127" width="20.498" height="14.975" transform="matrix(0.657, -0.754, 0.754, 0.657, 37.628, 193.045)" fill="#66a4ed"></rect><path id="Trazado_6735" data-name="Trazado 6735" d="M313.492,1177.948s4.138.484,4.125,1.466-1.031,3-1.542,3.09-3.367-2.729-3.367-2.729Z" transform="translate(-261.45 -984.867)" fill="#ffb27d"></path><path id="Trazado_6736" data-name="Trazado 6736" d="M238.776,1012.808s-5.524.387-7.642,5.535S225,1032.135,225,1033.589s2.244,5.936,14.3,8.514c0,0,1.247-1.312,1.171-2.349,0,0-7.524-6.463-7.5-7.218.038-1.429,1.233-3.315,7.84-9.923,1.8-1.8-2.027-9.8-2.027-9.8" transform="translate(-188.118 -846.796)" fill="#b0d0ff"></path><path id="Trazado_6737" data-name="Trazado 6737" d="M1917.53,519.115a1.18,1.18,0,0,1,.21,1.261.011.011,0,0,1,0,.006,7.839,7.839,0,0,1-2.477,2.717c-.149.12-.282.23-.4.331-.03.027-.061.053-.089.08l-.069.062c-1.089,1-.679,1.234-2.635,3.27-2.231,2.321-3.766,2.362-4.2,2.151-.37-.18.381-1.411,1.213-2.794.041-.067.08-.134.121-.2.111-.184.221-.371.331-.555.975-1.665.725-2.446.494-4.924-.188-2.013-3.133-11.249-3.133-11.249l4.274-.736s1.287,7.354,2.706,8.487c.758.6,1.607.611,2.336,1.059q.077.047.152.1a5.611,5.611,0,0,1,1.17.94" transform="translate(-1594.328 -425.179)" fill="#ffb27d"></path><path id="Trazado_6738" data-name="Trazado 6738" d="M1922,567.8a1.18,1.18,0,0,1,.21,1.261.011.011,0,0,1,0,.006,9.078,9.078,0,0,1-2.481,2.709c-.147.122-.278.235-.393.34-.03.027-.061.053-.089.08l-.069.062c-1.089,1-.679,1.234-2.635,3.27-2.231,2.321-3.766,2.362-4.2,2.151-.37-.18.381-1.411,1.213-2.794a9.506,9.506,0,0,0,3.976-2.93c1.343-1.714,2.239-3.916,3.153-5.191q.077.047.152.1a5.609,5.609,0,0,1,1.17.94" transform="translate(-1598.801 -473.867)" fill="#233862"></path><path id="Trazado_6739" data-name="Trazado 6739" d="M1696.084,509.81c-.264,1.319-2.145,1.1-4.246.586s-1.6.1-4.592-.234-3.9-1.446-3.988-1.891c-.082-.395,1.4-.534,2.981-.716.2-.022.4-.047.6-.072,1.789-.225,3.1-1.379,4.725-2.328,1.54-.9,3.837-4.558,3.837-4.558l4.1.325s-2.152,3.269-2.984,4.69a4.952,4.952,0,0,0-.4,2.795,5.271,5.271,0,0,1-.032,1.4" transform="translate(-1407.347 -418.544)" fill="#ffb27d"></path><path id="Trazado_6740" data-name="Trazado 6740" d="M1691.838,545.883c-2.1-.514-1.6.1-4.592-.234s-3.9-1.446-3.988-1.891c-.082-.394,1.4-.534,2.981-.716l.015.031a8.432,8.432,0,0,0,4.282,1.331c2.029.049,4.178-.532,5.579-.509a5.273,5.273,0,0,1-.031,1.4c-.264,1.319-2.145,1.1-4.246.586" transform="translate(-1407.347 -454.03)" fill="#233862"></path><path id="Trazado_6741" data-name="Trazado 6741" d="M1857.4,363.285l3.834,10.316,5.005,13.47a8.109,8.109,0,0,0,2.659-.243,11.536,11.536,0,0,0,2.572-1.252s-1.39-14.463-3.982-22.765a14.786,14.786,0,0,0-2.231-4.825c-4.019-4.75-7.857,5.3-7.857,5.3" transform="translate(-1552.95 -298.242)" fill="#913730"></path><path id="Trazado_6742" data-name="Trazado 6742" d="M1765.545,292.547c2.512-.81,9.675.23,16.871,1.639l1.507-2.485,15.355.24s4.042,9.741,1.112,15.693c-1.079,2.191-4.032,2.855-4.033,2.855s-8.219-.141-11.215-.344c-8.375-.568-14.826-4.585-15.943-4.808-1.827-.366-2.558,3.289-4.385,7.126s-17.175,16.993-17.175,16.993a13.514,13.514,0,0,1-3.333-.342,3.283,3.283,0,0,1-1.431-.9s17.006-33.836,22.67-35.663" transform="translate(-1457.194 -243.888)" fill="#b5453c"></path><path id="Trazado_6743" data-name="Trazado 6743" d="M1973.257,32.786c5.535,3.048,16.763,9.365,16.822,9.325,0,0,4.127,1.555,6.469,0,3.9-2.592,5.995-9.567-1.142-15.569-3.559-2.994-6.088-3.722-6.472-8.5-.208-2.593-3.753-11.152-9.643-10.36a9.008,9.008,0,0,1-1.484.1,5.513,5.513,0,0,0-2.989.772c-3.333,1.984-9.857,23.058-1.56,24.237" transform="translate(-1646.437 -6.378)" fill="#233862"></path><path id="Trazado_6744" data-name="Trazado 6744" d="M2018.563,100.9c-.024.016,2.723.954,4.561.14,1.728-.764,3.038-3.607,3.012-3.609-.786-.036-1.649-.724-2.314-5.234l-.335.12-5.629,2.025s.408,1.806.672,3.526c.222,1.444.342,2.827.034,3.031" transform="translate(-1687.103 -77.082)" fill="#ffb27d"></path><path id="Trazado_6745" data-name="Trazado 6745" d="M2017.857,94.951s.408,1.806.672,3.526c3.233-.582,4.5-3.8,4.958-5.551Z" transform="translate(-1687.103 -77.695)" fill="#ed975d"></path><path id="Trazado_6746" data-name="Trazado 6746" d="M1992.574,47.117s7.7-1.034,6.984-5.82-.207-8.143-5.155-7.686-5.627,2.427-5.776,4.083,1.925,9.569,3.947,9.423" transform="translate(-1662.658 -28.067)" fill="#ffb27d"></path><path id="Trazado_6747" data-name="Trazado 6747" d="M1990.378,32.913s4.93,4.249,8.284,4.591,4.623-.734,4.623-.734a13.094,13.094,0,0,1-3.166-4.29,2.357,2.357,0,0,0-1.944-1.39c-2.395-.207-6.934-.3-7.8,1.823" transform="translate(-1664.129 -25.91)" fill="#233862"></path><path id="Trazado_6748" data-name="Trazado 6748" d="M1988.868,35.706a12.136,12.136,0,0,0-2.169,2.778,9.319,9.319,0,0,0-.252,4.956s-2.57-5-1.115-7.425c1.543-2.574,3.536-.309,3.536-.309" transform="translate(-1659.536 -29.083)" fill="#233862"></path><path id="Trazado_6749" data-name="Trazado 6749" d="M1982.589,138.014c.233,15.59.064,12.333,1.769,13.812a6.549,6.549,0,0,0,3.087.669c4.78.318,13.184-.47,13.5-1.354,1.1-3.057.324-4.007,1.244-8.687.1-.5.215-1.036.354-1.623.767-3.215,1.514-4.308-1.208-9.472-2.468-4.678-5.032-8.474-5.262-8.337-6.511,3.865-7.036.616-7.036.616s-6.566,6.771-6.452,14.376" transform="translate(-1657.615 -102.854)" fill="#66a4ed"></path><path id="Trazado_6750" data-name="Trazado 6750" d="M1880.792,404.717l5.005,13.47a8.109,8.109,0,0,0,2.659-.243,11.532,11.532,0,0,0,2.572-1.252s-1.39-14.463-3.983-22.765Z" transform="translate(-1572.505 -329.357)" fill="#b5453c"></path><path id="Trazado_6751" data-name="Trazado 6751" d="M1956.142,126.794s-6.7,1.136-7.486,4.021-5.416,19.842-5.416,19.842,3.406.612,4.979-.962,5.475-14.6,5.475-14.6Z" transform="translate(-1624.716 -106.011)" fill="#66a4ed"></path><path id="Trazado_6752" data-name="Trazado 6752" d="M2012.221,218.516c4.781.317,13.184-.47,13.5-1.354,1.1-3.057.324-4.007,1.244-8.687l-2.306-6.493s.381,7.23-1.751,9.132-8.73,3.671-9.766,5.26a5.813,5.813,0,0,0-.925,2.142" transform="translate(-1682.391 -168.876)" fill="#4282cf"></path><path id="Trazado_6753" data-name="Trazado 6753" d="M2003.043,280.573s-4.716-1.05-5.477-.632a11.085,11.085,0,0,0-2.854,2.473c-.233.53,1.694-.4,2.321-.571a5.573,5.573,0,0,1,2,.439,6.659,6.659,0,0,0,3.59.36Z" transform="translate(-1667.736 -233.973)" fill="#ffb27d"></path><path id="Trazado_6754" data-name="Trazado 6754" d="M2044.91,123.019s6.333.39,8.525,3.448c3.086,4.3,9.208,22.647,5.7,25.094-3.951,2.755-17.982.721-17.982.721s-.467-2.183.183-3.238,11.207-2.761,11.694-3.249-6.091-9.5-6.091-10.963-2.028-11.812-2.028-11.812" transform="translate(-1706.444 -102.855)" fill="#66a4ed"></path><path id="Trazado_6755" data-name="Trazado 6755" d="M2001.415,288.452a9.132,9.132,0,0,1-1.312,1.427.966.966,0,0,1-.533.114l.666-1.2Z" transform="translate(-1671.814 -241.171)" fill="#ffb27d"></path><path id="Trazado_6756" data-name="Trazado 6756" d="M1997.566,280.443l-2.873,1.4a.512.512,0,0,0,.476.184,6.857,6.857,0,0,0,1.246-.342Z" transform="translate(-1667.736 -234.475)" fill="#ffb27d"></path><path id="Trazado_6757" data-name="Trazado 6757" d="M1852.024,222.351H1829.3l-6.837-17h22.692Z" transform="translate(-1523.734 -171.691)" fill="#f99746"></path><path id="Trazado_6758" data-name="Trazado 6758" d="M1862.544,305.029h30.011v.662h-29.745Z" transform="translate(-1557.249 -255.031)" fill="#ed7d2b"></path><path id="Trazado_6759" data-name="Trazado 6759" d="M1898.947,251.691a.787.787,0,0,1,.772-1.082,1.55,1.55,0,0,1,1.392,1.082.787.787,0,0,1-.772,1.082,1.551,1.551,0,0,1-1.392-1.082" transform="translate(-1587.647 -209.531)" fill="#fff"></path></g></g></svg>