<svg xmlns="http://www.w3.org/2000/svg" xmlns:xlink="http://www.w3.org/1999/xlink" width="389.742" height="330.452" viewBox="0 0 389.742 330.452"><defs><clipPath id="clip-path"><rect id="Rect&#xE1;ngulo_3490" data-name="Rect&#xE1;ngulo 3490" width="389.742" height="328.884" fill="none"></rect></clipPath><clipPath id="clip-path-6"><rect id="Rect&#xE1;ngulo_3405" data-name="Rect&#xE1;ngulo 3405" width="5.397" height="184.91" transform="translate(69.999 109.32)" fill="none"></rect></clipPath><clipPath id="clip-path-7"><rect id="Rect&#xE1;ngulo_3406" data-name="Rect&#xE1;ngulo 3406" width="42.871" height="26.906" transform="translate(50.847 76.059)" fill="none"></rect></clipPath><clipPath id="clip-path-9"><rect id="Rect&#xE1;ngulo_3424" data-name="Rect&#xE1;ngulo 3424" width="299.748" height="15.776" transform="translate(55.364 285.39)" fill="none"></rect></clipPath><clipPath id="clip-path-10"><rect id="Rect&#xE1;ngulo_3425" data-name="Rect&#xE1;ngulo 3425" width="338.312" height="15.776" transform="translate(36.082 285.39)" fill="none"></rect></clipPath><clipPath id="clip-path-12"><rect id="Rect&#xE1;ngulo_3427" data-name="Rect&#xE1;ngulo 3427" width="19.084" height="23.026" transform="translate(184.684 263.288)" fill="none"></rect></clipPath><clipPath id="clip-path-13"><rect id="Rect&#xE1;ngulo_3428" data-name="Rect&#xE1;ngulo 3428" width="75.396" height="23.032" transform="translate(140.127 255.651)" fill="none"></rect></clipPath><clipPath id="clip-path-14"><rect id="Rect&#xE1;ngulo_3429" data-name="Rect&#xE1;ngulo 3429" width="23.501" height="62.428" transform="translate(32.346 216.611)" fill="none"></rect></clipPath><clipPath id="clip-path-15"><rect id="Rect&#xE1;ngulo_3430" data-name="Rect&#xE1;ngulo 3430" width="93.866" height="76.978" transform="translate(102.518 209.815)" fill="none"></rect></clipPath><clipPath id="clip-path-16"><rect id="Rect&#xE1;ngulo_3431" data-name="Rect&#xE1;ngulo 3431" width="35.28" height="26.79" transform="translate(100.905 252.009)" fill="none"></rect></clipPath><clipPath id="clip-path-17"><rect id="Rect&#xE1;ngulo_3432" data-name="Rect&#xE1;ngulo 3432" width="21.23" height="26.79" transform="translate(114.955 252.009)" fill="none"></rect></clipPath><clipPath id="clip-path-18"><rect id="Rect&#xE1;ngulo_3433" data-name="Rect&#xE1;ngulo 3433" width="63.515" height="46.006" transform="translate(61.494 186.812)" fill="none"></rect></clipPath><clipPath id="clip-path-19"><rect id="Rect&#xE1;ngulo_3434" data-name="Rect&#xE1;ngulo 3434" width="55.674" height="43.866" transform="translate(35.182 229.429)" fill="none"></rect></clipPath><clipPath id="clip-path-20"><rect id="Rect&#xE1;ngulo_3435" data-name="Rect&#xE1;ngulo 3435" width="18.347" height="22.138" transform="translate(44.203 265.438)" fill="none"></rect></clipPath><clipPath id="clip-path-21"><rect id="Rect&#xE1;ngulo_3436" data-name="Rect&#xE1;ngulo 3436" width="23.5" height="62.428" transform="translate(53.348 216.611)" fill="none"></rect></clipPath><clipPath id="clip-path-22"><rect id="Rect&#xE1;ngulo_3437" data-name="Rect&#xE1;ngulo 3437" width="10.619" height="13.433" transform="translate(50.847 189.676)" fill="none"></rect></clipPath><clipPath id="clip-path-23"><rect id="Rect&#xE1;ngulo_3438" data-name="Rect&#xE1;ngulo 3438" width="10.619" height="13.433" transform="translate(62.989 189.676)" fill="none"></rect></clipPath><clipPath id="clip-path-24"><rect id="Rect&#xE1;ngulo_3439" data-name="Rect&#xE1;ngulo 3439" width="30.824" height="13.512" transform="translate(49.404 204.386)" fill="none"></rect></clipPath><clipPath id="clip-path-25"><rect id="Rect&#xE1;ngulo_3440" data-name="Rect&#xE1;ngulo 3440" width="13.978" height="23.075" transform="translate(115.746 253.867)" fill="none"></rect></clipPath><clipPath id="clip-path-26"><rect id="Rect&#xE1;ngulo_3441" data-name="Rect&#xE1;ngulo 3441" width="30.846" height="29.54" transform="translate(83.044 231.118)" fill="none"></rect></clipPath><clipPath id="clip-path-27"><rect id="Rect&#xE1;ngulo_3442" data-name="Rect&#xE1;ngulo 3442" width="16.846" height="29.54" transform="translate(97.044 231.118)" fill="none"></rect></clipPath><clipPath id="clip-path-28"><rect id="Rect&#xE1;ngulo_3443" data-name="Rect&#xE1;ngulo 3443" width="30.06" height="0.97" transform="translate(83.775 238.658)" fill="none"></rect></clipPath><clipPath id="clip-path-29"><rect id="Rect&#xE1;ngulo_3444" data-name="Rect&#xE1;ngulo 3444" width="28.84" height="0.97" transform="translate(84.705 242.168)" fill="none"></rect></clipPath><clipPath id="clip-path-30"><rect id="Rect&#xE1;ngulo_3445" data-name="Rect&#xE1;ngulo 3445" width="27.64" height="0.97" transform="translate(85.625 245.678)" fill="none"></rect></clipPath><clipPath id="clip-path-31"><rect id="Rect&#xE1;ngulo_3446" data-name="Rect&#xE1;ngulo 3446" width="26.43" height="0.97" transform="translate(86.555 249.188)" fill="none"></rect></clipPath><clipPath id="clip-path-32"><rect id="Rect&#xE1;ngulo_3447" data-name="Rect&#xE1;ngulo 3447" width="25.23" height="0.97" transform="translate(87.475 252.698)" fill="none"></rect></clipPath><clipPath id="clip-path-33"><rect id="Rect&#xE1;ngulo_3448" data-name="Rect&#xE1;ngulo 3448" width="37.39" height="24.82" transform="translate(94.315 260.288)" fill="none"></rect></clipPath><clipPath id="clip-path-34"><rect id="Rect&#xE1;ngulo_3449" data-name="Rect&#xE1;ngulo 3449" width="33.34" height="24.59" transform="translate(98.365 260.408)" fill="none"></rect></clipPath><clipPath id="clip-path-35"><rect id="Rect&#xE1;ngulo_3450" data-name="Rect&#xE1;ngulo 3450" width="44.306" height="29.308" transform="translate(100.703 199.038)" fill="none"></rect></clipPath><clipPath id="clip-path-36"><rect id="Rect&#xE1;ngulo_3451" data-name="Rect&#xE1;ngulo 3451" width="40.58" height="7.859" transform="translate(171.505 198.239)" fill="none"></rect></clipPath><clipPath id="clip-path-37"><rect id="Rect&#xE1;ngulo_3452" data-name="Rect&#xE1;ngulo 3452" width="63.006" height="13.593" transform="translate(140.208 271.983)" fill="none"></rect></clipPath><clipPath id="clip-path-39"><rect id="Rect&#xE1;ngulo_3454" data-name="Rect&#xE1;ngulo 3454" width="75.556" height="14.727" transform="translate(185.008 288.584)" fill="none"></rect></clipPath><clipPath id="clip-path-40"><rect id="Rect&#xE1;ngulo_3455" data-name="Rect&#xE1;ngulo 3455" width="50.307" height="60.698" transform="translate(260.565 258.294)" fill="none"></rect></clipPath><clipPath id="clip-path-41"><rect id="Rect&#xE1;ngulo_3456" data-name="Rect&#xE1;ngulo 3456" width="13.216" height="15.946" transform="translate(286.964 280.416)" fill="none"></rect></clipPath><clipPath id="clip-path-42"><rect id="Rect&#xE1;ngulo_3457" data-name="Rect&#xE1;ngulo 3457" width="33.685" height="17.632" transform="translate(279.938 273.018)" fill="none"></rect></clipPath><clipPath id="clip-path-43"><rect id="Rect&#xE1;ngulo_3458" data-name="Rect&#xE1;ngulo 3458" width="5.514" height="12.874" transform="translate(298.965 234.624)" fill="none"></rect></clipPath><clipPath id="clip-path-44"><rect id="Rect&#xE1;ngulo_3459" data-name="Rect&#xE1;ngulo 3459" width="88.984" height="74.194" transform="translate(192.515 221.108)" fill="none"></rect></clipPath><clipPath id="clip-path-45"><rect id="Rect&#xE1;ngulo_3460" data-name="Rect&#xE1;ngulo 3460" width="70.107" height="63.588" transform="translate(143.198 232.515)" fill="none"></rect></clipPath><clipPath id="clip-path-46"><rect id="Rect&#xE1;ngulo_3461" data-name="Rect&#xE1;ngulo 3461" width="149.65" height="95.307" transform="translate(142.804 200.795)" fill="none"></rect></clipPath><clipPath id="clip-path-47"><rect id="Rect&#xE1;ngulo_3462" data-name="Rect&#xE1;ngulo 3462" width="14.463" height="5.089" transform="translate(170.597 187.495)" fill="none"></rect></clipPath><clipPath id="clip-path-48"><rect id="Rect&#xE1;ngulo_3463" data-name="Rect&#xE1;ngulo 3463" width="46.453" height="12.013" transform="translate(247.352 216.813)" fill="none"></rect></clipPath><clipPath id="clip-path-49"><rect id="Rect&#xE1;ngulo_3466" data-name="Rect&#xE1;ngulo 3466" width="49.328" height="48.064" transform="translate(142.805 203.554)" fill="none"></rect></clipPath><clipPath id="clip-path-51"><rect id="Rect&#xE1;ngulo_3468" data-name="Rect&#xE1;ngulo 3468" width="7.695" height="14.719" transform="translate(144.501 222.265)" fill="none"></rect></clipPath><clipPath id="clip-path-52"><rect id="Rect&#xE1;ngulo_3469" data-name="Rect&#xE1;ngulo 3469" width="14.605" height="15.784" transform="translate(164.841 222.265)" fill="none"></rect></clipPath><clipPath id="clip-path-53"><rect id="Rect&#xE1;ngulo_3470" data-name="Rect&#xE1;ngulo 3470" width="19.021" height="24.063" transform="translate(151.126 203.489)" fill="none"></rect></clipPath><clipPath id="clip-path-54"><rect id="Rect&#xE1;ngulo_3471" data-name="Rect&#xE1;ngulo 3471" width="6.352" height="4.887" transform="translate(309.988 264.614)" fill="none"></rect></clipPath><clipPath id="clip-path-55"><rect id="Rect&#xE1;ngulo_3472" data-name="Rect&#xE1;ngulo 3472" width="17.434" height="47.309" transform="translate(138.66 242.905)" fill="none"></rect></clipPath><clipPath id="clip-path-56"><rect id="Rect&#xE1;ngulo_3473" data-name="Rect&#xE1;ngulo 3473" width="50.307" height="60.698" transform="translate(121.722 258.294)" fill="none"></rect></clipPath><clipPath id="clip-path-57"><rect id="Rect&#xE1;ngulo_3474" data-name="Rect&#xE1;ngulo 3474" width="40.103" height="31.597" transform="translate(141.622 254.479)" fill="none"></rect></clipPath><clipPath id="clip-path-58"><rect id="Rect&#xE1;ngulo_3475" data-name="Rect&#xE1;ngulo 3475" width="13.216" height="15.946" transform="translate(148.121 280.416)" fill="none"></rect></clipPath><clipPath id="clip-path-59"><rect id="Rect&#xE1;ngulo_3476" data-name="Rect&#xE1;ngulo 3476" width="57.317" height="38.035" transform="translate(124.408 248.041)" fill="none"></rect></clipPath><clipPath id="clip-path-60"><rect id="Rect&#xE1;ngulo_3477" data-name="Rect&#xE1;ngulo 3477" width="16.928" height="44.967" transform="translate(154.707 245.246)" fill="none"></rect></clipPath><clipPath id="clip-path-61"><rect id="Rect&#xE1;ngulo_3478" data-name="Rect&#xE1;ngulo 3478" width="61.967" height="62.981" transform="translate(254.169 233.123)" fill="none"></rect></clipPath><clipPath id="clip-path-62"><rect id="Rect&#xE1;ngulo_3479" data-name="Rect&#xE1;ngulo 3479" width="25.067" height="26.105" transform="translate(250.377 190.504)" fill="none"></rect></clipPath><clipPath id="clip-path-63"><rect id="Rect&#xE1;ngulo_3480" data-name="Rect&#xE1;ngulo 3480" width="3.924" height="2.691" transform="translate(253.13 214.487)" fill="none"></rect></clipPath><clipPath id="clip-path-65"><rect id="Rect&#xE1;ngulo_3482" data-name="Rect&#xE1;ngulo 3482" width="11.071" height="26.244" transform="translate(308.789 160.626)" fill="none"></rect></clipPath><clipPath id="clip-path-66"><rect id="Rect&#xE1;ngulo_3483" data-name="Rect&#xE1;ngulo 3483" width="4.114" height="15.424" transform="translate(314.43 140.959)" fill="none"></rect></clipPath><clipPath id="clip-path-67"><rect id="Rect&#xE1;ngulo_3484" data-name="Rect&#xE1;ngulo 3484" width="39.593" height="131.605" transform="translate(312.133 167.132)" fill="none"></rect></clipPath><clipPath id="clip-path-68"><rect id="Rect&#xE1;ngulo_3485" data-name="Rect&#xE1;ngulo 3485" width="33.66" height="101.438" transform="translate(312.133 197.299)" fill="none"></rect></clipPath><clipPath id="clip-path-69"><rect id="Rect&#xE1;ngulo_3486" data-name="Rect&#xE1;ngulo 3486" width="47.352" height="128.531" transform="translate(314.674 169.814)" fill="none"></rect></clipPath><clipPath id="clip-path-70"><rect id="Rect&#xE1;ngulo_3487" data-name="Rect&#xE1;ngulo 3487" width="39.896" height="74.425" transform="translate(306.337 131.406)" fill="none"></rect></clipPath><clipPath id="clip-path-71"><rect id="Rect&#xE1;ngulo_3488" data-name="Rect&#xE1;ngulo 3488" width="20.186" height="10.359" transform="translate(306.565 182.137)" fill="none"></rect></clipPath></defs><g id="Grupo_1166" data-name="Grupo 1166" transform="translate(-186 -720)"><g id="Grupo_1165" data-name="Grupo 1165" transform="translate(186 720)"><g id="Enmascarar_grupo_1164" data-name="Enmascarar grupo 1164" clip-path="url(#clip-path)"><path id="Trazado_5645" data-name="Trazado 5645" d="M141.531,139.547v30.675h-2.918v25.1H122.856v7.251H114.1V176.357h-3.21v45.734H90.981V184.357H72.014v44.618H61.509V184.357H55.965V154.24H53.632v30.675H50.713v25.1H34.957v7.251H26.2V191.05H22.993v45.733H.233V286.1h386.21V234.272h-22.76V188.539h-3.21v26.213H351.72V207.5H335.962V182.4h-2.917V151.729H330.71v30.117h-5.544v2.511h-10.5v-2.511H295.7v2.511h-5.089V154.24h-2.335v30.675h-2.918v25.1H269.6v7.251h-8.754V191.05h-3.209v45.733H241.276v-5h-9.337V187.167H212.972v44.618h-10.5V187.167h-5.544V157.05H194.59v30.675h-2.919v25.1h-12.79V169.664H159.914v44.618h-10.5V169.664h-5.544V139.547Z" fill="#e0e0e0"></path><g id="Grupo_963" data-name="Grupo 963"><g id="Grupo_962" data-name="Grupo 962" clip-path="url(#clip-path)"><path id="Trazado_5646" data-name="Trazado 5646" d="M266.394,30.962A27.787,27.787,0,1,0,294.181,3.175a27.787,27.787,0,0,0-27.787,27.787" fill="#fafafa"></path><path id="Trazado_5647" data-name="Trazado 5647" d="M308.6,30.649a4.828,4.828,0,0,1,6.217-4.626,10.357,10.357,0,0,1-.108-1.483,10.229,10.229,0,0,1,10.229-10.229,10.347,10.347,0,0,1,1.884.176,8.94,8.94,0,0,1,16.578,4.52c.05,0,.1-.008.149-.008a8.24,8.24,0,0,1,0,16.48H313.284l.006-.007a4.826,4.826,0,0,1-4.694-4.823" fill="#f0f0f0"></path><path id="Trazado_5648" data-name="Trazado 5648" d="M0,106.635a4.828,4.828,0,0,1,6.217-4.626,10.354,10.354,0,0,1-.108-1.483A10.229,10.229,0,0,1,16.338,90.3a10.347,10.347,0,0,1,1.884.176A8.94,8.94,0,0,1,34.8,94.993c.05,0,.1-.008.149-.008a8.24,8.24,0,1,1,0,16.48H4.688l.006-.006A4.828,4.828,0,0,1,0,106.635" fill="#f0f0f0"></path><path id="Trazado_5649" data-name="Trazado 5649" d="M161.86,48.921a7.639,7.639,0,0,0-9.837-7.319,16.35,16.35,0,0,0,.171-2.347A16.174,16.174,0,0,0,133.029,23.35,14.144,14.144,0,0,0,106.8,30.5c-.079,0-.156-.012-.236-.012a13.037,13.037,0,0,0,0,26.075h47.879l-.01-.011a7.638,7.638,0,0,0,7.428-7.632" fill="#f0f0f0"></path><path id="Trazado_5650" data-name="Trazado 5650" d="M299.1,114.53a9.192,9.192,0,0,0-11.838-8.808A19.465,19.465,0,0,0,264.4,83.757a17.022,17.022,0,0,0-31.566,8.606c-.1,0-.187-.015-.283-.015a15.689,15.689,0,0,0,0,31.379h57.618l-.012-.013a9.191,9.191,0,0,0,8.939-9.184" fill="#f0f0f0"></path><path id="Trazado_5651" data-name="Trazado 5651" d="M247.987,45.12a3,3,0,0,1,3.865-2.876,6.518,6.518,0,0,1-.067-.922,6.359,6.359,0,0,1,7.531-6.25,5.557,5.557,0,0,1,10.306,2.81c.032,0,.062-.005.093-.005a5.123,5.123,0,1,1,0,10.246H250.9l0,0a3,3,0,0,1-2.919-3" fill="#f0f0f0"></path><path id="Trazado_5652" data-name="Trazado 5652" d="M46.676,12.719a3,3,0,0,0-3.865-2.876,6.518,6.518,0,0,0,.067-.922,6.359,6.359,0,0,0-7.531-6.25,5.557,5.557,0,0,0-10.306,2.81c-.032,0-.062-.005-.093-.005a5.123,5.123,0,0,0,0,10.246H43.761l0,0a3,3,0,0,0,2.919-3" fill="#f0f0f0"></path></g></g><g id="Grupo_965" data-name="Grupo 965"><g id="Grupo_964" data-name="Grupo 964" clip-path="url(#clip-path)"><path id="Trazado_5653" data-name="Trazado 5653" d="M389.742,317.561c0,6.254-86.807,11.323-193.889,11.323S1.964,323.815,1.964,317.561s86.807-11.323,193.889-11.323,193.889,5.07,193.889,11.323" fill="#f5f5f5"></path></g></g><rect id="Rect&#xE1;ngulo_3402" data-name="Rect&#xE1;ngulo 3402" width="5.397" height="266.915" transform="translate(69.999 27.315)" fill="#2e353a"></rect><g id="Grupo_967" data-name="Grupo 967"><g id="Grupo_966" data-name="Grupo 966" clip-path="url(#clip-path)"><path id="Trazado_5654" data-name="Trazado 5654" d="M91.937,64.785H53.459A4.782,4.782,0,0,1,48.678,60V21.526a4.781,4.781,0,0,1,4.781-4.781H91.937a4.781,4.781,0,0,1,4.781,4.781V60a4.782,4.782,0,0,1-4.781,4.782" fill="#407bff"></path><path id="Rect&#xE1;ngulo_3403" data-name="Rect&#xE1;ngulo 3403" d="M1.782,0H40.259A1.781,1.781,0,0,1,42.04,1.781V40.259a1.781,1.781,0,0,1-1.781,1.781H1.782A1.782,1.782,0,0,1,0,40.258V1.782A1.782,1.782,0,0,1,1.782,0Z" transform="translate(51.678 19.745)" fill="none" stroke="#fff" stroke-miterlimit="10" stroke-width="2"></path></g></g><text id="P" transform="translate(62.522 48.964)" fill="#fff" font-size="28.032" font-family="Montserrat-SemiBold, Montserrat" font-weight="600"><tspan x="0" y="0">P</tspan></text><g id="Grupo_975" data-name="Grupo 975"><g id="Grupo_974" data-name="Grupo 974" clip-path="url(#clip-path)"><g id="Grupo_970" data-name="Grupo 970" opacity="0.4" style="isolation: isolate"><g id="Grupo_969" data-name="Grupo 969"><g id="Grupo_968" data-name="Grupo 968" clip-path="url(#clip-path-6)"><path id="Trazado_5655" data-name="Trazado 5655" d="M75.4,294.23H70V109.321l5.4,7Z" fill="#fff"></path></g></g></g><path id="Trazado_5656" data-name="Trazado 5656" d="M91.285,102.965H53.279a2.432,2.432,0,0,1-2.432-2.432V78.492a2.432,2.432,0,0,1,2.432-2.433H91.285a2.433,2.433,0,0,1,2.433,2.433v22.041a2.433,2.433,0,0,1-2.433,2.432" fill="#407bff"></path><g id="Grupo_973" data-name="Grupo 973" opacity="0.4" style="isolation: isolate"><g id="Grupo_972" data-name="Grupo 972"><g id="Grupo_971" data-name="Grupo 971" clip-path="url(#clip-path-7)"><path id="Trazado_5657" data-name="Trazado 5657" d="M91.285,102.965H53.279a2.432,2.432,0,0,1-2.432-2.432V78.492a2.432,2.432,0,0,1,2.432-2.433H91.285a2.433,2.433,0,0,1,2.433,2.433v22.041a2.433,2.433,0,0,1-2.433,2.432" fill="#fff"></path></g></g></g><path id="Trazado_5658" data-name="Trazado 5658" d="M67.487,93.071a3.559,3.559,0,1,1-3.559-3.559,3.559,3.559,0,0,1,3.559,3.559" fill="#fff"></path><path id="Trazado_5659" data-name="Trazado 5659" d="M83.213,93.071a3.559,3.559,0,1,1-3.559-3.559,3.558,3.558,0,0,1,3.559,3.559" fill="#fff"></path><path id="Trazado_5660" data-name="Trazado 5660" d="M63.3,88.389a9.664,9.664,0,0,1,3.066-3.463l-.692-.988a12.1,12.1,0,0,1,2.373-.988c.693-.1.693.692.693.692l2.571-.2v.692l-2.077.4-1.75,1.133.86,1.043-.86,1.681,1.948,4.683H72.7l1.979-5.066-1.088-1.3.3-1.484,6.231-.593.692,1.384L79.653,87.2l1.155,1.286s-6.032.593-5.34,5.341l-.4.791h-7.22a5.6,5.6,0,0,0-1.186-4.451c-1.682-1.78-4.649-.657-4.649-.657s-.395-1.123,1.286-1.123" fill="#fff"></path></g></g><g id="Grupo_983" data-name="Grupo 983"><g id="Grupo_982" data-name="Grupo 982" clip-path="url(#clip-path)"><path id="Trazado_5661" data-name="Trazado 5661" d="M374.394,289.159v12.007H36.082V289.159a3.576,3.576,0,0,1,3.541-3.769h331.23a3.576,3.576,0,0,1,3.541,3.769" fill="#263238"></path><rect id="Rect&#xE1;ngulo_3408" data-name="Rect&#xE1;ngulo 3408" width="21.035" height="15.776" transform="translate(55.364 285.39)" fill="#407bff"></rect><rect id="Rect&#xE1;ngulo_3409" data-name="Rect&#xE1;ngulo 3409" width="20.158" height="15.776" transform="translate(95.682 285.39)" fill="#407bff"></rect><rect id="Rect&#xE1;ngulo_3410" data-name="Rect&#xE1;ngulo 3410" width="21.035" height="15.776" transform="translate(135.122 285.39)" fill="#407bff"></rect><rect id="Rect&#xE1;ngulo_3411" data-name="Rect&#xE1;ngulo 3411" width="20.159" height="15.776" transform="translate(175.438 285.39)" fill="#407bff"></rect><rect id="Rect&#xE1;ngulo_3412" data-name="Rect&#xE1;ngulo 3412" width="20.158" height="15.776" transform="translate(214.88 285.39)" fill="#407bff"></rect><rect id="Rect&#xE1;ngulo_3413" data-name="Rect&#xE1;ngulo 3413" width="21.035" height="15.776" transform="translate(254.32 285.39)" fill="#407bff"></rect><rect id="Rect&#xE1;ngulo_3414" data-name="Rect&#xE1;ngulo 3414" width="20.159" height="15.776" transform="translate(294.636 285.39)" fill="#407bff"></rect><rect id="Rect&#xE1;ngulo_3415" data-name="Rect&#xE1;ngulo 3415" width="21.035" height="15.776" transform="translate(334.077 285.39)" fill="#407bff"></rect><g id="Grupo_978" data-name="Grupo 978" opacity="0.6" style="isolation: isolate"><g id="Grupo_977" data-name="Grupo 977"><g id="Grupo_976" data-name="Grupo 976" clip-path="url(#clip-path-9)"><rect id="Rect&#xE1;ngulo_3416" data-name="Rect&#xE1;ngulo 3416" width="21.035" height="15.776" transform="translate(55.364 285.39)" fill="#fff"></rect><rect id="Rect&#xE1;ngulo_3417" data-name="Rect&#xE1;ngulo 3417" width="20.158" height="15.776" transform="translate(95.682 285.39)" fill="#fff"></rect><rect id="Rect&#xE1;ngulo_3418" data-name="Rect&#xE1;ngulo 3418" width="21.035" height="15.776" transform="translate(135.122 285.39)" fill="#fff"></rect><rect id="Rect&#xE1;ngulo_3419" data-name="Rect&#xE1;ngulo 3419" width="20.159" height="15.776" transform="translate(175.438 285.39)" fill="#fff"></rect><rect id="Rect&#xE1;ngulo_3420" data-name="Rect&#xE1;ngulo 3420" width="20.158" height="15.776" transform="translate(214.88 285.39)" fill="#fff"></rect><rect id="Rect&#xE1;ngulo_3421" data-name="Rect&#xE1;ngulo 3421" width="21.035" height="15.776" transform="translate(254.32 285.39)" fill="#fff"></rect><rect id="Rect&#xE1;ngulo_3422" data-name="Rect&#xE1;ngulo 3422" width="20.159" height="15.776" transform="translate(294.636 285.39)" fill="#fff"></rect><rect id="Rect&#xE1;ngulo_3423" data-name="Rect&#xE1;ngulo 3423" width="21.035" height="15.776" transform="translate(334.077 285.39)" fill="#fff"></rect></g></g></g><g id="Grupo_981" data-name="Grupo 981" opacity="0.2" style="isolation: isolate"><g id="Grupo_980" data-name="Grupo 980"><g id="Grupo_979" data-name="Grupo 979" clip-path="url(#clip-path-10)"><path id="Trazado_5662" data-name="Trazado 5662" d="M374.394,289.159v12.007H36.082V289.159a3.576,3.576,0,0,1,3.541-3.769h331.23a3.576,3.576,0,0,1,3.541,3.769" fill="#fff"></path></g></g></g></g></g><g id="Grupo_1063" data-name="Grupo 1063"><g id="Grupo_1062" data-name="Grupo 1062" clip-path="url(#clip-path)"><path id="Trazado_5663" data-name="Trazado 5663" d="M182.885,231.342c20.06,0,36.322,19.621,36.322,43.825s-16.262,43.825-36.322,43.825-36.322-19.621-36.322-43.825,16.262-43.825,36.322-43.825" fill="#2e353a"></path><path id="Trazado_5664" data-name="Trazado 5664" d="M188.965,247.525c12.652,0,22.909,12.376,22.909,27.641s-10.257,27.642-22.909,27.642-22.909-12.375-22.909-27.642,10.257-27.641,22.909-27.641"></path><path id="Trazado_5665" data-name="Trazado 5665" d="M194.225,263.288c5.27,0,9.542,5.155,9.542,11.513s-4.272,11.513-9.542,11.513-9.541-5.154-9.541-11.513,4.271-11.513,9.541-11.513" fill="#407bff"></path><g id="Grupo_986" data-name="Grupo 986" opacity="0.4" style="isolation: isolate"><g id="Grupo_985" data-name="Grupo 985"><g id="Grupo_984" data-name="Grupo 984" clip-path="url(#clip-path-12)"><path id="Trazado_5666" data-name="Trazado 5666" d="M194.225,263.288c5.27,0,9.542,5.155,9.542,11.513s-4.272,11.513-9.542,11.513-9.541-5.154-9.541-11.513,4.271-11.513,9.541-11.513"></path></g></g></g><path id="Trazado_5667" data-name="Trazado 5667" d="M145.22,232.818l10.021,30.47-5.011,2.15-9.033-26.78Z"></path><path id="Trazado_5668" data-name="Trazado 5668" d="M149.436,239.393l-7.149,5.745a1.024,1.024,0,1,1-1.283-1.6l7.149-5.745a1.024,1.024,0,0,1,1.283,1.6" fill="#2e353a"></path><path id="Trazado_5669" data-name="Trazado 5669" d="M150.7,243.19l-7.149,5.745a1.024,1.024,0,1,1-1.283-1.6l7.148-5.745a1.025,1.025,0,1,1,1.284,1.6" fill="#2e353a"></path><path id="Trazado_5670" data-name="Trazado 5670" d="M151.958,246.987l-7.149,5.745a1.024,1.024,0,1,1-1.283-1.6l7.149-5.745a1.024,1.024,0,1,1,1.283,1.6" fill="#2e353a"></path><path id="Trazado_5671" data-name="Trazado 5671" d="M153.219,250.784l-7.149,5.745a1.024,1.024,0,1,1-1.283-1.6l7.148-5.745a1.025,1.025,0,1,1,1.284,1.6" fill="#2e353a"></path><path id="Trazado_5672" data-name="Trazado 5672" d="M154.48,254.581l-7.149,5.745a1.024,1.024,0,1,1-1.283-1.6l7.148-5.745a1.025,1.025,0,1,1,1.284,1.6" fill="#2e353a"></path><path id="Trazado_5673" data-name="Trazado 5673" d="M155.74,258.378l-7.149,5.745a1.024,1.024,0,1,1-1.283-1.6l7.148-5.745a1.025,1.025,0,1,1,1.284,1.6" fill="#2e353a"></path><path id="Trazado_5674" data-name="Trazado 5674" d="M135.8,258.836l75.362-3.185,4.366,4.939-12.055.51-6.683,15.187-66.65,2.818Z" fill="#2e353a"></path><g id="Grupo_989" data-name="Grupo 989" opacity="0.1" style="isolation: isolate"><g id="Grupo_988" data-name="Grupo 988"><g id="Grupo_987" data-name="Grupo 987" clip-path="url(#clip-path-13)"><path id="Trazado_5675" data-name="Trazado 5675" d="M145.787,258.414l65.37-2.763,4.367,4.94-12.056.509-6.683,15.188-56.658,2.394Z" fill="#fff"></path></g></g></g><path id="Trazado_5676" data-name="Trazado 5676" d="M113.89,280.6l-11.371,38.207h2.948l10.28-30.163h9.262l3.924,30.163H131.7l-2.03-38.509Z" fill="#2e353a"></path><path id="Trazado_5677" data-name="Trazado 5677" d="M55.847,220.451l-5.728,18.022L37.235,279.038l-4.889-3.027,12.478-40.618,5.767-18.782c1.56,1.061,3.329,2.346,5.256,3.84" fill="#407bff"></path><g id="Grupo_992" data-name="Grupo 992" opacity="0.6" style="isolation: isolate"><g id="Grupo_991" data-name="Grupo 991"><g id="Grupo_990" data-name="Grupo 990" clip-path="url(#clip-path-14)"><path id="Trazado_5678" data-name="Trazado 5678" d="M55.847,220.451l-5.728,18.022L37.235,279.038l-4.889-3.027,12.478-40.618,5.767-18.782c1.56,1.061,3.329,2.346,5.256,3.84" fill="#fff"></path></g></g></g><path id="Trazado_5679" data-name="Trazado 5679" d="M71.668,176.468,51.587,238.473h-1.52c-2.818-3.342-5.243-3.08-5.243-3.08l-1.009-1.481,20.6-59.964c.092.04,4.4-3.263,7.253,2.52" fill="#2e353a"></path><path id="Trazado_5680" data-name="Trazado 5680" d="M39.736,275.105c0,3.244-1.842,5.873-4.114,5.873s-4.115-2.629-4.115-5.873,1.842-5.873,4.115-5.873,4.114,2.629,4.114,5.873" fill="#2e353a"></path><path id="Trazado_5681" data-name="Trazado 5681" d="M197.768,209.815l18,19.614v1.689h-7.912a34.541,34.541,0,0,0-26.11-13.22Z"></path><path id="Trazado_5682" data-name="Trazado 5682" d="M102.518,225.313l12.437,47.637,13.186,12.31a1.534,1.534,0,0,0,1.533,1.533h9a1.533,1.533,0,0,0,1.533-1.533V260.318a30.93,30.93,0,0,1,18.067-28.132l38.109-17.435-2.769-4.937-63.89,4.15Z" fill="#2e353a"></path><g id="Grupo_995" data-name="Grupo 995" opacity="0.1" style="isolation: isolate"><g id="Grupo_994" data-name="Grupo 994"><g id="Grupo_993" data-name="Grupo 993" clip-path="url(#clip-path-15)"><path id="Trazado_5683" data-name="Trazado 5683" d="M102.518,225.313l12.437,47.637,13.186,12.31a1.534,1.534,0,0,0,1.533,1.533h9a1.533,1.533,0,0,0,1.533-1.533V260.318a30.93,30.93,0,0,1,18.067-28.132l38.109-17.435-2.769-4.937-63.89,4.15Z" fill="#fff"></path></g></g></g><path id="Trazado_5684" data-name="Trazado 5684" d="M130.327,278.8H106.759a5.854,5.854,0,0,1-5.853-5.853V257.86a5.853,5.853,0,0,1,5.853-5.853h23.568a5.852,5.852,0,0,1,5.853,5.853v15.09a5.853,5.853,0,0,1-5.853,5.853" fill="#2e353a"></path><g id="Grupo_998" data-name="Grupo 998" opacity="0.2" style="isolation: isolate"><g id="Grupo_997" data-name="Grupo 997"><g id="Grupo_996" data-name="Grupo 996" clip-path="url(#clip-path-16)"><path id="Trazado_5685" data-name="Trazado 5685" d="M136.185,257.859v15.09a5.86,5.86,0,0,1-5.86,5.85h-23.57a5.851,5.851,0,0,1-5.85-5.85v-15.09a5.851,5.851,0,0,1,5.85-5.85h23.57a5.86,5.86,0,0,1,5.86,5.85" fill="#fff"></path></g></g></g><g id="Grupo_1001" data-name="Grupo 1001" opacity="0.2" style="isolation: isolate"><g id="Grupo_1000" data-name="Grupo 1000"><g id="Grupo_999" data-name="Grupo 999" clip-path="url(#clip-path-17)"><path id="Trazado_5686" data-name="Trazado 5686" d="M136.185,257.859v15.09a5.86,5.86,0,0,1-5.86,5.85h-9.52a5.851,5.851,0,0,1-5.85-5.85v-15.09a5.851,5.851,0,0,1,5.85-5.85h9.52a5.86,5.86,0,0,1,5.86,5.85" fill="#fff"></path></g></g></g><path id="Trazado_5687" data-name="Trazado 5687" d="M66.6,192.029c4.721-4.732,18-8.879,36,0s25.319,20.112,21.363,25.869-30.264,20.619-47.671,12.6S58.486,200.161,66.6,192.029" fill="#407bff"></path><g id="Grupo_1004" data-name="Grupo 1004" opacity="0.2" style="isolation: isolate"><g id="Grupo_1003" data-name="Grupo 1003"><g id="Grupo_1002" data-name="Grupo 1002" clip-path="url(#clip-path-18)"><path id="Trazado_5688" data-name="Trazado 5688" d="M66.6,192.029c4.721-4.732,18-8.879,36,0s25.319,20.112,21.363,25.869-30.264,20.619-47.671,12.6S58.486,200.161,66.6,192.029"></path></g></g></g><path id="Trazado_5689" data-name="Trazado 5689" d="M144.885,215.688a5.745,5.745,0,0,1-.92,2.21c-3.96,5.76-30.26,20.62-47.67,12.6s-17.81-30.34-9.69-38.47c4.72-4.73,18-8.88,36,0a71.162,71.162,0,0,1,11.53,7.01c7.97,6.05,11.61,12.27,10.75,16.65" fill="#407bff"></path><path id="Trazado_5690" data-name="Trazado 5690" d="M56.156,204.386H78.785a4,4,0,0,0,4-4v-8.27c0-2.22-1.347-6.175-3.567-6.175L59.347,188.1Z" fill="#263238"></path><path id="Trazado_5691" data-name="Trazado 5691" d="M90.856,273.3H82.58a6.2,6.2,0,0,1-5.471-3.264c-4.33-8.115-16.926-28.913-34.635-34.029-22.136-6.4,12.031-10.233,24.33-1.4S90.856,273.3,90.856,273.3" fill="#263238"></path><g id="Grupo_1007" data-name="Grupo 1007" opacity="0.4" style="isolation: isolate"><g id="Grupo_1006" data-name="Grupo 1006"><g id="Grupo_1005" data-name="Grupo 1005" clip-path="url(#clip-path-19)"><path id="Trazado_5692" data-name="Trazado 5692" d="M90.856,273.3H82.58a6.2,6.2,0,0,1-5.471-3.264c-4.33-8.115-16.926-28.913-34.635-34.029-22.136-6.4,12.031-10.233,24.33-1.4S90.856,273.3,90.856,273.3"></path></g></g></g><path id="Trazado_5693" data-name="Trazado 5693" d="M42.474,234.726c19.286,0,34.92,18.864,34.92,42.133s-15.634,42.133-34.92,42.133-34.92-18.863-34.92-42.133,15.634-42.133,34.92-42.133" fill="#2e353a"></path><path id="Trazado_5694" data-name="Trazado 5694" d="M48.319,250.284c12.164,0,22.025,11.9,22.025,26.574s-9.861,26.575-22.025,26.575-22.025-11.9-22.025-26.575,9.861-26.574,22.025-26.574"></path><path id="Trazado_5695" data-name="Trazado 5695" d="M53.377,265.438c5.067,0,9.174,4.956,9.174,11.069s-4.107,11.069-9.174,11.069S44.2,282.62,44.2,276.507s4.107-11.069,9.174-11.069" fill="#407bff"></path><g id="Grupo_1010" data-name="Grupo 1010" opacity="0.4" style="isolation: isolate"><g id="Grupo_1009" data-name="Grupo 1009"><g id="Grupo_1008" data-name="Grupo 1008" clip-path="url(#clip-path-20)"><path id="Trazado_5696" data-name="Trazado 5696" d="M53.377,265.438c5.067,0,9.174,4.956,9.174,11.069s-4.107,11.069-9.174,11.069S44.2,282.62,44.2,276.507s4.107-11.069,9.174-11.069"></path></g></g></g><path id="Trazado_5697" data-name="Trazado 5697" d="M14.262,250.486h3.883a14.89,14.89,0,0,0,8.928-3c6.029-4.515,18.774-12.085,32.012-7.7,15.332,5.084,25.742,25.19,28.708,31.559a3.367,3.367,0,0,0,3.063,1.947s-4.822-39.38-31.771-50.084C32.946,212.83,15.245,234.677,11.428,246.6a2.975,2.975,0,0,0,2.834,3.885" fill="#407bff"></path><path id="Trazado_5698" data-name="Trazado 5698" d="M76.848,220.451,71.12,238.473,58.236,279.038l-4.889-3.027,12.478-40.618,5.767-18.782c1.56,1.061,3.329,2.346,5.256,3.84" fill="#407bff"></path><g id="Grupo_1013" data-name="Grupo 1013" opacity="0.6" style="isolation: isolate"><g id="Grupo_1012" data-name="Grupo 1012"><g id="Grupo_1011" data-name="Grupo 1011" clip-path="url(#clip-path-21)"><path id="Trazado_5699" data-name="Trazado 5699" d="M76.848,220.451,71.12,238.473,58.236,279.038l-4.889-3.027,12.478-40.618,5.767-18.782c1.56,1.061,3.329,2.346,5.256,3.84" fill="#fff"></path></g></g></g><path id="Trazado_5700" data-name="Trazado 5700" d="M92.669,176.468,72.588,238.473h-1.52c-2.818-3.342-5.243-3.08-5.243-3.08l-1.009-1.481,20.6-59.964c.092.04,4.4-3.263,7.253,2.52" fill="#2e353a"></path><path id="Trazado_5701" data-name="Trazado 5701" d="M60.738,275.105c0,3.244-1.842,5.873-4.114,5.873s-4.115-2.629-4.115-5.873,1.842-5.873,4.115-5.873,4.114,2.629,4.114,5.873" fill="#2e353a"></path><path id="Trazado_5702" data-name="Trazado 5702" d="M66.141,189.676s-2.321,14.608-9.984,14.71c-7.183.1-7.853-13.62-1-15.728,5.537-1.7,10.984,1.018,10.984,1.018" fill="#407bff"></path><path id="Trazado_5703" data-name="Trazado 5703" d="M66.141,189.676s-2.321,14.608-9.984,14.71c-7.183.1-7.853-13.62-1-15.728,5.537-1.7,10.984,1.018,10.984,1.018" fill="#263238"></path><path id="Trazado_5704" data-name="Trazado 5704" d="M50.856,196.393c-.17,3.71,2.066,6.717,4.993,6.717s5.438-3.007,5.608-6.717-2.066-6.717-4.993-6.717-5.438,3.006-5.608,6.717" fill="#407bff"></path><g id="Grupo_1016" data-name="Grupo 1016" opacity="0.7" style="isolation: isolate"><g id="Grupo_1015" data-name="Grupo 1015"><g id="Grupo_1014" data-name="Grupo 1014" clip-path="url(#clip-path-22)"><path id="Trazado_5705" data-name="Trazado 5705" d="M50.856,196.393c-.17,3.71,2.066,6.717,4.993,6.717s5.438-3.007,5.608-6.717-2.066-6.717-4.993-6.717-5.438,3.006-5.608,6.717" fill="#fff"></path></g></g></g><path id="Trazado_5706" data-name="Trazado 5706" d="M57.46,198.145c0,1.641-1.033,2.971-2.306,2.971s-2.306-1.33-2.306-2.971,1.032-2.971,2.306-2.971,2.306,1.329,2.306,2.971" fill="#fff"></path><path id="Trazado_5707" data-name="Trazado 5707" d="M59.41,194.281a1.19,1.19,0,1,1-1.153-1.486,1.351,1.351,0,0,1,1.153,1.486" fill="#fff"></path><path id="Trazado_5708" data-name="Trazado 5708" d="M78.283,189.676s-2.32,14.608-9.984,14.71c-7.183.1-7.853-13.62-1-15.728,5.537-1.7,10.984,1.018,10.984,1.018" fill="#407bff"></path><path id="Trazado_5709" data-name="Trazado 5709" d="M78.283,189.676s-2.32,14.608-9.984,14.71c-7.183.1-7.853-13.62-1-15.728,5.537-1.7,10.984,1.018,10.984,1.018" fill="#263238"></path><path id="Trazado_5710" data-name="Trazado 5710" d="M63,196.393c-.17,3.71,2.065,6.717,4.993,6.717s5.438-3.007,5.608-6.717-2.066-6.717-4.994-6.717-5.438,3.006-5.607,6.717" fill="#407bff"></path><g id="Grupo_1019" data-name="Grupo 1019" opacity="0.7" style="isolation: isolate"><g id="Grupo_1018" data-name="Grupo 1018"><g id="Grupo_1017" data-name="Grupo 1017" clip-path="url(#clip-path-23)"><path id="Trazado_5711" data-name="Trazado 5711" d="M63,196.393c-.17,3.71,2.065,6.717,4.993,6.717s5.438-3.007,5.608-6.717-2.066-6.717-4.994-6.717-5.438,3.006-5.607,6.717" fill="#fff"></path></g></g></g><path id="Trazado_5712" data-name="Trazado 5712" d="M69.6,198.145c0,1.641-1.033,2.971-2.306,2.971s-2.306-1.33-2.306-2.971,1.032-2.971,2.306-2.971S69.6,196.5,69.6,198.145" fill="#fff"></path><path id="Trazado_5713" data-name="Trazado 5713" d="M71.553,194.281a1.19,1.19,0,1,1-1.153-1.486,1.351,1.351,0,0,1,1.153,1.486" fill="#fff"></path><path id="Trazado_5714" data-name="Trazado 5714" d="M78.875,199.3h0a.971.971,0,0,0,.919-.658l6.727-19.808a1.476,1.476,0,0,0-1.4-1.951H68.811a3.127,3.127,0,0,0-2.483,1.225l-7.542,9.851h16.6a2.519,2.519,0,0,1,2.518,2.518v7.853a.97.97,0,0,0,.97.97" fill="#407bff"></path><path id="Trazado_5715" data-name="Trazado 5715" d="M73.237,217.9H51.247a1.7,1.7,0,0,1-1.676-2.486l3.253-8.539a4.121,4.121,0,0,1,3.571-2.487h21.99a1.7,1.7,0,0,1,1.677,2.487l-3.254,8.539a4.121,4.121,0,0,1-3.571,2.486" fill="#2e353a"></path><g id="Grupo_1022" data-name="Grupo 1022" opacity="0.2" style="isolation: isolate"><g id="Grupo_1021" data-name="Grupo 1021"><g id="Grupo_1020" data-name="Grupo 1020" clip-path="url(#clip-path-24)"><path id="Trazado_5716" data-name="Trazado 5716" d="M73.237,217.9H51.247a1.7,1.7,0,0,1-1.676-2.486l3.253-8.539a4.121,4.121,0,0,1,3.571-2.487h21.99a1.7,1.7,0,0,1,1.677,2.487l-3.254,8.539a4.121,4.121,0,0,1-3.571,2.486" fill="#fff"></path></g></g></g><g id="Grupo_1025" data-name="Grupo 1025" opacity="0.2" style="isolation: isolate"><g id="Grupo_1024" data-name="Grupo 1024"><g id="Grupo_1023" data-name="Grupo 1023" clip-path="url(#clip-path-25)"><path id="Trazado_5717" data-name="Trazado 5717" d="M129.724,265.4c0,6.372-3.129,11.538-6.989,11.538s-6.989-5.166-6.989-11.538,3.129-11.538,6.989-11.538,6.989,5.166,6.989,11.538" fill="#fff"></path></g></g></g><path id="Trazado_5718" data-name="Trazado 5718" d="M118.572,237.466l3.394,10.313a3.4,3.4,0,0,0,3.231,2.339h12.434a3.4,3.4,0,0,0,2.8-1.47l8.62-12.494a3.4,3.4,0,0,0-.733-4.633l-6.37-4.876a3.4,3.4,0,0,0-3.639-.316c-3.473,1.805-11.054,5.5-17.172,6.741a3.4,3.4,0,0,0-2.565,4.4" fill="#407bff"></path><path id="Trazado_5719" data-name="Trazado 5719" d="M94.318,260.285l8.623,19.2a9.213,9.213,0,0,0,8.648,5.439c7.17-.188,18.136.183,18.136.183a11.128,11.128,0,0,0,1.978-6.46H117.92a6.9,6.9,0,0,1-6.533-4.669l-4.562-13.318Z" fill="#2e353a"></path><path id="Trazado_5720" data-name="Trazado 5720" d="M113.875,238.1l-.04.56-.08.97-.21,2.54-.07.97-.21,2.54-.08.97-.2,2.54-.08.97-.2,2.54-.08.97-.25,3.11a4.226,4.226,0,0,1-4.21,3.88H92.825a4.217,4.217,0,0,1-4.08-3.14l-1.01-3.85-.26-.97-.67-2.54-.25-.97-.67-2.54-.26-.97-.67-2.54-.25-.97-.67-2.54-.26-.97-.59-2.25a4.235,4.235,0,0,1,1.84-4.65,4.262,4.262,0,0,1,2.24-.64h19.21a4.248,4.248,0,0,1,2.55.85l3.19,2.42a4.217,4.217,0,0,1,1.66,3.71" fill="#2e353a"></path><g id="Grupo_1028" data-name="Grupo 1028" opacity="0.2" style="isolation: isolate"><g id="Grupo_1027" data-name="Grupo 1027"><g id="Grupo_1026" data-name="Grupo 1026" clip-path="url(#clip-path-26)"><path id="Trazado_5721" data-name="Trazado 5721" d="M113.875,238.1l-.04.56-.08.97-.21,2.54-.07.97-.21,2.54-.08.97-.2,2.54-.08.97-.2,2.54-.08.97-.25,3.11a4.226,4.226,0,0,1-4.21,3.88H92.825a4.217,4.217,0,0,1-4.08-3.14l-1.01-3.85-.26-.97-.67-2.54-.25-.97-.67-2.54-.26-.97-.67-2.54-.25-.97-.67-2.54-.26-.97-.59-2.25a4.235,4.235,0,0,1,1.84-4.65,4.262,4.262,0,0,1,2.24-.64h19.21a4.248,4.248,0,0,1,2.55.85l3.19,2.42a4.217,4.217,0,0,1,1.66,3.71" fill="#fff"></path></g></g></g><g id="Grupo_1031" data-name="Grupo 1031" opacity="0.2" style="isolation: isolate"><g id="Grupo_1030" data-name="Grupo 1030"><g id="Grupo_1029" data-name="Grupo 1029" clip-path="url(#clip-path-27)"><path id="Trazado_5722" data-name="Trazado 5722" d="M113.875,238.1l-.04.56-.08.97-.21,2.54-.07.97-.21,2.54-.08.97-.2,2.54-.08.97-.2,2.54-.08.97-.25,3.11a4.226,4.226,0,0,1-4.21,3.88h-1.34a4.226,4.226,0,0,1-4.08-3.14l-1.01-3.85-.26-.97-.67-2.54-.25-.97-.67-2.54-.26-.97-.67-2.54-.25-.97-.67-2.54-.26-.97-.59-2.25a4.235,4.235,0,0,1,1.84-4.65,4.262,4.262,0,0,1,2.24-.64h5.21a4.248,4.248,0,0,1,2.55.85l3.19,2.42a4.217,4.217,0,0,1,1.66,3.71" fill="#fff"></path></g></g></g><g id="Grupo_1034" data-name="Grupo 1034" opacity="0.2" style="isolation: isolate"><g id="Grupo_1033" data-name="Grupo 1033"><g id="Grupo_1032" data-name="Grupo 1032" clip-path="url(#clip-path-28)"><path id="Trazado_5723" data-name="Trazado 5723" d="M113.835,238.658l-.08.97H84.035l-.26-.97Z"></path></g></g></g><g id="Grupo_1037" data-name="Grupo 1037" opacity="0.2" style="isolation: isolate"><g id="Grupo_1036" data-name="Grupo 1036"><g id="Grupo_1035" data-name="Grupo 1035" clip-path="url(#clip-path-29)"><path id="Trazado_5724" data-name="Trazado 5724" d="M113.545,242.168l-.07.97H84.955l-.25-.97Z"></path></g></g></g><g id="Grupo_1040" data-name="Grupo 1040" opacity="0.2" style="isolation: isolate"><g id="Grupo_1039" data-name="Grupo 1039"><g id="Grupo_1038" data-name="Grupo 1038" clip-path="url(#clip-path-30)"><path id="Trazado_5725" data-name="Trazado 5725" d="M113.265,245.678l-.08.97h-27.3l-.26-.97Z"></path></g></g></g><g id="Grupo_1043" data-name="Grupo 1043" opacity="0.2" style="isolation: isolate"><g id="Grupo_1042" data-name="Grupo 1042"><g id="Grupo_1041" data-name="Grupo 1041" clip-path="url(#clip-path-31)"><path id="Trazado_5726" data-name="Trazado 5726" d="M112.985,249.188l-.08.97h-26.1l-.25-.97Z"></path></g></g></g><g id="Grupo_1046" data-name="Grupo 1046" opacity="0.2" style="isolation: isolate"><g id="Grupo_1045" data-name="Grupo 1045"><g id="Grupo_1044" data-name="Grupo 1044" clip-path="url(#clip-path-32)"><path id="Trazado_5727" data-name="Trazado 5727" d="M112.705,252.7l-.08.97H87.735l-.26-.97Z"></path></g></g></g><g id="Grupo_1049" data-name="Grupo 1049" opacity="0.2" style="isolation: isolate"><g id="Grupo_1048" data-name="Grupo 1048"><g id="Grupo_1047" data-name="Grupo 1047" clip-path="url(#clip-path-33)"><path id="Trazado_5728" data-name="Trazado 5728" d="M131.705,278.648a11.317,11.317,0,0,1-1.9,6.35c-.05.07-.08.11-.08.11s-5.44-.18-11.16-.23h-.78c-1.11-.01-2.23-.01-3.31,0-1,0-1.98.01-2.89.04a9.19,9.19,0,0,1-8.64-5.44l-8.63-19.19,4.05.12,8.46.25,4.56,13.32a6.911,6.911,0,0,0,6.53,4.67Z" fill="#fff"></path></g></g></g><g id="Grupo_1052" data-name="Grupo 1052" opacity="0.2" style="isolation: isolate"><g id="Grupo_1051" data-name="Grupo 1051"><g id="Grupo_1050" data-name="Grupo 1050" clip-path="url(#clip-path-34)"><path id="Trazado_5729" data-name="Trazado 5729" d="M131.705,278.648a11.317,11.317,0,0,1-1.9,6.35c-3.03-.07-7.36-.15-11.24-.12h-.78c-.76.01-1.5.02-2.2.04a8.177,8.177,0,0,1-1.11-.04,9.21,9.21,0,0,1-7.53-5.4l-8.58-19.07,8.46.25,4.56,13.32a6.911,6.911,0,0,0,6.53,4.67Z" fill="#fff"></path></g></g></g><path id="Trazado_5730" data-name="Trazado 5730" d="M144.882,212.979l.714.021a1.426,1.426,0,0,1,1.388,1.44c-.014,1.381-.033,3.457-.033,4.666,0,2.673,4.927,7.732,5.916,8.02s47.077-14.281,47.077-14.281.792-9.934-3.56-11.937-28.4.137-30.462,2.2-9,6.706-16.269,6.706c0,0-4.771,1.277-4.771,3.164" fill="#2e353a"></path><path id="Trazado_5731" data-name="Trazado 5731" d="M212.845,201.118l-20.22,19.65-24.03,7.14-.73-5.07,23.63-16.74a1.982,1.982,0,0,0,.67-2.4l-.45-1.05a2.207,2.207,0,0,0-2.04-1.34h-18.17s3.91-1.35,7.27-2.54,26.31,0,29.67,0a5.009,5.009,0,0,1,3.64,1.34,3.56,3.56,0,0,1,.76,1.01" fill="#407bff"></path><path id="Trazado_5732" data-name="Trazado 5732" d="M87.475,179.15s8.3.207,12.615-9.094h6.871v2.989l19.4,6.1s.4,3.243-.792,3.9L104.406,177.5h-5.6s-4.151,5.35-8.985,5.605-2.345-3.954-2.345-3.954" fill="#2e353a"></path><path id="Trazado_5733" data-name="Trazado 5733" d="M101.373,175v4.484s9.21,1.714,12.517,5.274v1.187h1.2v-1.187s-.955-2.286-9.62-6.066V175Z" fill="#2e353a"></path><path id="Trazado_5734" data-name="Trazado 5734" d="M66.328,178.114a19.005,19.005,0,0,1-1.512-7.338H59.411l-1.153,2.77-11.874,8.967s-.817,2.9,3.02,2.505l10.562-7.1-.555,2.18s-5.111,2.886-6.563,4.959,1.316,1.757,1.316,1.757l.132-1.794s3.527-3.446,7.17-3.5Z" fill="#2e353a"></path><g id="Grupo_1055" data-name="Grupo 1055" opacity="0.2" style="isolation: isolate"><g id="Grupo_1054" data-name="Grupo 1054"><g id="Grupo_1053" data-name="Grupo 1053" clip-path="url(#clip-path-35)"><path id="Trazado_5735" data-name="Trazado 5735" d="M144.885,215.688c-3.84,7.65-22.02,14.48-29.8,12.22s-21.76-13.75-9.62-18.09c9.7-3.48,23.51-8.79,28.67-10.78,7.97,6.05,11.61,12.27,10.75,16.65"></path></g></g></g><g id="Grupo_1058" data-name="Grupo 1058" opacity="0.2" style="isolation: isolate"><g id="Grupo_1057" data-name="Grupo 1057"><g id="Grupo_1056" data-name="Grupo 1056" clip-path="url(#clip-path-36)"><path id="Trazado_5736" data-name="Trazado 5736" d="M192.165,203.7l-.45-1.05a2.207,2.207,0,0,0-2.04-1.34h-18.17s3.91-1.35,7.27-2.54,26.31,0,29.67,0a5.009,5.009,0,0,1,3.64,1.34s-14.6,1.74-20.59,5.99a1.982,1.982,0,0,0,.67-2.4"></path></g></g></g><path id="Trazado_5737" data-name="Trazado 5737" d="M140.208,278.381l18.4-1.582s10.375-3.674,12.9-3.7,27.251-1.121,27.251-1.121,3.561,2.4,4.352,4.816-3.143,7.515-3.143,7.515-39.291,1.291-40.92,1.261a10.236,10.236,0,0,1-3.805-1.261l-15.033-1.054Z" fill="#2e353a"></path><g id="Grupo_1061" data-name="Grupo 1061" opacity="0.2" style="isolation: isolate"><g id="Grupo_1060" data-name="Grupo 1060"><g id="Grupo_1059" data-name="Grupo 1059" clip-path="url(#clip-path-37)"><path id="Trazado_5738" data-name="Trazado 5738" d="M140.208,278.381l18.4-1.582s10.375-3.674,12.9-3.7,27.251-1.121,27.251-1.121,3.561,2.4,4.352,4.816-3.143,7.515-3.143,7.515-39.291,1.291-40.92,1.261a10.236,10.236,0,0,1-3.805-1.261l-15.033-1.054Z" fill="#fff"></path></g></g></g></g></g><path id="Trazado_5739" data-name="Trazado 5739" d="M203.2,318.992l7.288-20.282H224.56l-.792,20.282H221.2l-1.187-18.106h-6.7l-7.933,18.106Z"></path><g id="Grupo_1140" data-name="Grupo 1140"><g id="Grupo_1139" data-name="Grupo 1139" clip-path="url(#clip-path)"><path id="Trazado_5740" data-name="Trazado 5740" d="M260.564,288.584l-3.91,9a9.522,9.522,0,0,1-8.735,5.729H231.528a8.2,8.2,0,0,1-5.8-2.4H195.11a7.461,7.461,0,0,1-6.054-3.1l-4.048-5.625Z" fill="#2e353a"></path><g id="Grupo_1066" data-name="Grupo 1066" opacity="0.4" style="isolation: isolate"><g id="Grupo_1065" data-name="Grupo 1065"><g id="Grupo_1064" data-name="Grupo 1064" clip-path="url(#clip-path-39)"><path id="Trazado_5741" data-name="Trazado 5741" d="M260.564,288.584l-3.91,9a9.522,9.522,0,0,1-8.735,5.729H231.528a8.2,8.2,0,0,1-5.8-2.4H195.11a7.461,7.461,0,0,1-6.054-3.1l-4.048-5.625Z"></path></g></g></g><path id="Trazado_5742" data-name="Trazado 5742" d="M206.718,183.318s-.062.209-4.949.688-11.485,3.093-12.7,6.081" fill="none" stroke="#263238" stroke-linecap="round" stroke-linejoin="round" stroke-width="0.668"></path><path id="Trazado_5743" data-name="Trazado 5743" d="M165.634,183.318s2.451-.329,3.046,1.773.911,3.538,3.087,4.594" fill="none" stroke="#263238" stroke-linecap="round" stroke-linejoin="round" stroke-width="0.668"></path><path id="Trazado_5744" data-name="Trazado 5744" d="M314.8,280.6h-1.888V277.7h3.776A3.468,3.468,0,0,1,314.8,280.6" fill="#2e353a"></path><path id="Trazado_5745" data-name="Trazado 5745" d="M285.719,258.294c13.892,0,25.153,13.588,25.153,30.349s-11.261,30.349-25.153,30.349-25.153-13.588-25.153-30.349,11.261-30.349,25.153-30.349" fill="#2e353a"></path><g id="Grupo_1069" data-name="Grupo 1069" opacity="0.4" style="isolation: isolate"><g id="Grupo_1068" data-name="Grupo 1068"><g id="Grupo_1067" data-name="Grupo 1067" clip-path="url(#clip-path-40)"><path id="Trazado_5746" data-name="Trazado 5746" d="M285.719,258.294c13.892,0,25.153,13.588,25.153,30.349s-11.261,30.349-25.153,30.349-25.153-13.588-25.153-30.349,11.261-30.349,25.153-30.349"></path></g></g></g><path id="Trazado_5747" data-name="Trazado 5747" d="M289.929,269.5c8.762,0,15.865,8.57,15.865,19.142s-7.1,19.142-15.865,19.142-15.865-8.57-15.865-19.142,7.1-19.142,15.865-19.142"></path><path id="Trazado_5748" data-name="Trazado 5748" d="M293.572,280.416c3.649,0,6.608,3.57,6.608,7.973s-2.959,7.973-6.608,7.973-6.608-3.57-6.608-7.973,2.958-7.973,6.608-7.973" fill="#407bff"></path><g id="Grupo_1072" data-name="Grupo 1072" opacity="0.4" style="isolation: isolate"><g id="Grupo_1071" data-name="Grupo 1071"><g id="Grupo_1070" data-name="Grupo 1070" clip-path="url(#clip-path-41)"><path id="Trazado_5749" data-name="Trazado 5749" d="M293.572,280.416c3.649,0,6.608,3.57,6.608,7.973s-2.959,7.973-6.608,7.973-6.608-3.57-6.608-7.973,2.958-7.973,6.608-7.973"></path></g></g></g><path id="Trazado_5750" data-name="Trazado 5750" d="M312.361,273.1s2.84,6.152,0,11.013a64.844,64.844,0,0,1-27.209,6.541c-14.847,0,4.465-18.991,27.209-17.554" fill="#2e353a"></path><g id="Grupo_1075" data-name="Grupo 1075" opacity="0.2" style="isolation: isolate"><g id="Grupo_1074" data-name="Grupo 1074"><g id="Grupo_1073" data-name="Grupo 1073" clip-path="url(#clip-path-42)"><path id="Trazado_5751" data-name="Trazado 5751" d="M312.361,273.1s2.84,6.152,0,11.013a64.844,64.844,0,0,1-27.209,6.541c-14.847,0,4.465-18.991,27.209-17.554" fill="#fff"></path></g></g></g><path id="Trazado_5752" data-name="Trazado 5752" d="M302.051,234.626s2.428.747,2.428,6.211c0,3.313-3.362,6.661-3.362,6.661s-5.415-13.059.934-12.872" fill="#263238"></path><g id="Grupo_1078" data-name="Grupo 1078" opacity="0.7" style="isolation: isolate"><g id="Grupo_1077" data-name="Grupo 1077"><g id="Grupo_1076" data-name="Grupo 1076" clip-path="url(#clip-path-43)"><path id="Trazado_5753" data-name="Trazado 5753" d="M302.051,234.626s2.428.747,2.428,6.211c0,3.313-3.362,6.661-3.362,6.661s-5.415-13.059.934-12.872" fill="#fff"></path></g></g></g><path id="Trazado_5754" data-name="Trazado 5754" d="M291.15,233.125h12.022s1.859,3.186-2.992,6.918-9.03-6.918-9.03-6.918" fill="#263238"></path><path id="Trazado_5755" data-name="Trazado 5755" d="M303.732,239.414c0,1.068-.334,1.934-.747,1.934s-.747-.866-.747-1.934.335-1.934.747-1.934.747.866.747,1.934" fill="#fff"></path><path id="Trazado_5756" data-name="Trazado 5756" d="M235.622,252.9c0,4.311-17.206,34.971-18.931,36.189s-24.176-.145-24.176-.145l1.675,6.362h61.7L281.5,245.556l-16.94-24.448-30.877.854s1.94,26.623,1.94,30.934" fill="#407bff"></path><g id="Grupo_1081" data-name="Grupo 1081" opacity="0.5" style="isolation: isolate"><g id="Grupo_1080" data-name="Grupo 1080"><g id="Grupo_1079" data-name="Grupo 1079" clip-path="url(#clip-path-44)"><path id="Trazado_5757" data-name="Trazado 5757" d="M235.622,252.9c0,4.311-17.206,34.971-18.931,36.189s-24.176-.145-24.176-.145l1.675,6.362h61.7L281.5,245.556l-16.94-24.448-30.877.854s1.94,26.623,1.94,30.934" fill="#fff"></path></g></g></g><path id="Trazado_5758" data-name="Trazado 5758" d="M145.578,242.8s20.061,15.383,29.662,47.025a8.787,8.787,0,0,0,8.391,6.277h29.675L178.86,240.07,160.7,232.515Z" fill="#407bff"></path><g id="Grupo_1084" data-name="Grupo 1084" opacity="0.2" style="isolation: isolate"><g id="Grupo_1083" data-name="Grupo 1083"><g id="Grupo_1082" data-name="Grupo 1082" clip-path="url(#clip-path-45)"><path id="Trazado_5759" data-name="Trazado 5759" d="M143.2,241.029S165.389,258,175.233,289.867a8.787,8.787,0,0,0,8.378,6.236H213.3L178.859,240.07l-18.165-7.555Z" fill="#fff"></path></g></g></g><path id="Trazado_5760" data-name="Trazado 5760" d="M316.083,270.123a2.418,2.418,0,0,1-2.426,2.134H309.3a2.847,2.847,0,0,0-2.115.934L294.133,287.58a5.658,5.658,0,0,1-1.36,1.1,57.988,57.988,0,0,1-28.38,7.43h-60.97a6.5,6.5,0,0,1-6.4-5.976c-1.482-17.617-12.094-30.57-21.025-38.51a83.572,83.572,0,0,0-9.054-6.987,13.409,13.409,0,0,0-7.5-2.19H145.418c-1.775,0-3.031-2.256-2.483-3.937,2.313-7.024,6.6-14.567,10.876-21.053A181.307,181.307,0,0,1,166.273,200.8H185.9a6.09,6.09,0,0,1,4.985,2.756,6.859,6.859,0,0,1,1.17,4.929,89.058,89.058,0,0,0-.264,24.386c2.813,23.942,13.463,45.713,19.024,55.626a11.5,11.5,0,0,0,9.828,6.005H235.9c11.15-3.2,19.77-34.413,19.77-42.57,0-8.619-8.771-29.512-8.771-29.512h43.7V232.8c.8.094.406.2.661.321,16.739,6.722,22.583,23.886,24.66,33.884a10.22,10.22,0,0,1,.16,3.115" fill="#407bff"></path><g id="Grupo_1087" data-name="Grupo 1087" opacity="0.7" style="isolation: isolate"><g id="Grupo_1086" data-name="Grupo 1086"><g id="Grupo_1085" data-name="Grupo 1085" clip-path="url(#clip-path-46)"><path id="Trazado_5761" data-name="Trazado 5761" d="M291.261,233.121c-.255-.123.141-.227-.661-.321V222.415H246.9s8.77,20.893,8.77,29.513c0,8.157-8.619,39.369-19.769,42.569H220.642a11.5,11.5,0,0,1-9.828-6c-5.561-9.913-16.21-31.684-19.024-55.627a89.1,89.1,0,0,1,.265-24.386,6.86,6.86,0,0,0-1.171-4.928,6.088,6.088,0,0,0-4.985-2.757H166.271a181.306,181.306,0,0,0-12.462,16.654c-4.277,6.486-8.563,14.029-10.876,21.053-.547,1.681.708,3.937,2.483,3.937h14.03a13.4,13.4,0,0,1,7.5,2.191,83.32,83.32,0,0,1,9.053,6.986c8.932,7.94,19.544,20.893,21.026,38.51a6.5,6.5,0,0,0,6.4,5.976h50.745V276.786a38.521,38.521,0,0,1,3.626-16.324l7.222-15.455a20.52,20.52,0,0,1,18.6-11.839h6.76l.774-.047c1.684.676,1.758.661.113,0" fill="#fff"></path></g></g></g><path id="Trazado_5762" data-name="Trazado 5762" d="M176.893,194.295h5.592a6.452,6.452,0,0,0,4.047-1.433l11.526-9.329a2.565,2.565,0,0,1,1.612-.571H221.8a1.6,1.6,0,1,0,0-3.2H199.67a5.783,5.783,0,0,0-3.627,1.284l-11.526,9.33a3.239,3.239,0,0,1-2.032.719h-5.592a3.243,3.243,0,0,1-3.2-2.776l-.511-3.6a5.792,5.792,0,0,0-5.708-4.957h-4.216a1.6,1.6,0,1,0,0,3.2h4.216a2.575,2.575,0,0,1,2.537,2.2l.51,3.6a6.462,6.462,0,0,0,6.369,5.531" fill="#2e353a"></path><path id="Trazado_5763" data-name="Trazado 5763" d="M190.9,198.588l-2.5,4.022H165.14l-1.823-3.437a2.919,2.919,0,0,1,.491-3.427l6.911-7.071a3.852,3.852,0,0,1,.887-.68,3.856,3.856,0,0,1,1.9-.5h13.255s-.066,3.786,3.475,3.55l1.161,4.1a4.3,4.3,0,0,1-.491,3.446" fill="#263238"></path><g id="Grupo_1090" data-name="Grupo 1090" opacity="0.4" style="isolation: isolate"><g id="Grupo_1089" data-name="Grupo 1089"><g id="Grupo_1088" data-name="Grupo 1088" clip-path="url(#clip-path-47)"><path id="Trazado_5764" data-name="Trazado 5764" d="M178,192.584l-7.4-.264,1.01-4.324a3.673,3.673,0,0,1,.52-.246,3.793,3.793,0,0,1,1.378-.255H185.06Z" fill="#fff"></path></g></g></g><path id="Trazado_5765" data-name="Trazado 5765" d="M229.732,221.314v3.009c0,2.733,2.237,4.5,4.97,4.5h54.164c2.741,0,4.939-1.77,4.939-4.5v-3.009c0-2.733-2.2-4.5-4.939-4.5H234.7c-2.733,0-4.97,1.769-4.97,4.5" fill="#2e353a"></path><g id="Grupo_1093" data-name="Grupo 1093" opacity="0.1" style="isolation: isolate"><g id="Grupo_1092" data-name="Grupo 1092"><g id="Grupo_1091" data-name="Grupo 1091" clip-path="url(#clip-path-48)"><path id="Trazado_5766" data-name="Trazado 5766" d="M247.352,221.314v3.009a4.3,4.3,0,0,0,4.61,4.5h36.9c2.742,0,4.94-1.77,4.94-4.5v-3.009c0-2.733-2.2-4.5-4.94-4.5h-36.9a4.3,4.3,0,0,0-4.61,4.5" fill="#fff"></path></g></g></g><rect id="Rect&#xE1;ngulo_3464" data-name="Rect&#xE1;ngulo 3464" width="14.283" height="1.602" transform="matrix(0.607, -0.794, 0.794, 0.607, 200.264, 180.285)" fill="#2e353a"></rect><path id="Trazado_5767" data-name="Trazado 5767" d="M214.155,167.557h-4.086a2.163,2.163,0,0,0-1.989,1.312l-.548,1.277a2.165,2.165,0,0,0,1.99,3.017h4.451a2.165,2.165,0,0,0,2.143-1.858l.182-1.277a2.165,2.165,0,0,0-2.143-2.471" fill="#263238"></path><rect id="Rect&#xE1;ngulo_3465" data-name="Rect&#xE1;ngulo 3465" width="1.601" height="10.366" transform="matrix(0.979, -0.206, 0.206, 0.979, 166.611, 171.06)" fill="#2e353a"></rect><path id="Trazado_5768" data-name="Trazado 5768" d="M162.6,167.557H167a1.789,1.789,0,0,1,1.771,1.536l.29,2.029a1.789,1.789,0,0,1-1.771,2.041h-4.4a1.789,1.789,0,0,1-1.771-1.535l-.29-2.03a1.789,1.789,0,0,1,1.771-2.041" fill="#263238"></path><g id="Grupo_1096" data-name="Grupo 1096" style="isolation: isolate"><g id="Grupo_1095" data-name="Grupo 1095"><g id="Grupo_1094" data-name="Grupo 1094" clip-path="url(#clip-path-49)"><path id="Trazado_5769" data-name="Trazado 5769" d="M191.452,213.288a88.661,88.661,0,0,0-.16,14.247c.122,1.793.292,3.568.5,5.334l-7.046,13.455A9.877,9.877,0,0,1,176,251.619l-.093-.04c-.349-.355-.724-.678-1.068-.971a84.346,84.346,0,0,0-7.679-5.833,13.823,13.823,0,0,0-7.71-2.333H145.418c-1.775,0-3.031-2.256-2.483-3.937,2.313-7.024,6.6-14.567,10.876-21.054a125.287,125.287,0,0,1-1.709,22.593h6.741s12.3-17.428,22.762-20.789l9.281-15.7a6.859,6.859,0,0,1,1.17,4.929c-.254,1.6-.453,3.2-.6,4.8" fill="#407bff"></path></g></g></g><g id="Grupo_1099" data-name="Grupo 1099" opacity="0.5" style="isolation: isolate"><g id="Grupo_1098" data-name="Grupo 1098"><g id="Grupo_1097" data-name="Grupo 1097" clip-path="url(#clip-path-49)"><path id="Trazado_5770" data-name="Trazado 5770" d="M191.452,213.288a88.661,88.661,0,0,0-.16,14.247c.122,1.793.292,3.568.5,5.334l-7.046,13.455A9.877,9.877,0,0,1,176,251.619l-.093-.04c-.349-.355-.724-.678-1.068-.971a84.346,84.346,0,0,0-7.679-5.833,13.823,13.823,0,0,0-7.71-2.333H145.418c-1.775,0-3.031-2.256-2.483-3.937,2.313-7.024,6.6-14.567,10.876-21.054a125.287,125.287,0,0,1-1.709,22.593h6.741s12.3-17.428,22.762-20.789l9.281-15.7a6.859,6.859,0,0,1,1.17,4.929c-.254,1.6-.453,3.2-.6,4.8" fill="#fff"></path></g></g></g><path id="Trazado_5771" data-name="Trazado 5771" d="M152.1,222.265a38.61,38.61,0,0,1-1.822,14.719H144.5s3.748-10.21,7.6-14.719" fill="#407bff"></path><g id="Grupo_1102" data-name="Grupo 1102" opacity="0.7" style="isolation: isolate"><g id="Grupo_1101" data-name="Grupo 1101"><g id="Grupo_1100" data-name="Grupo 1100" clip-path="url(#clip-path-51)"><path id="Trazado_5772" data-name="Trazado 5772" d="M152.1,222.265a38.61,38.61,0,0,1-1.822,14.719H144.5s3.748-10.21,7.6-14.719" fill="#fff"></path></g></g></g><path id="Trazado_5773" data-name="Trazado 5773" d="M179.442,222.265c.194-.115-5.809,15.784-5.809,15.784h-8.792a39.644,39.644,0,0,1,14.6-15.784" fill="#407bff"></path><g id="Grupo_1105" data-name="Grupo 1105" opacity="0.7" style="isolation: isolate"><g id="Grupo_1104" data-name="Grupo 1104"><g id="Grupo_1103" data-name="Grupo 1103" clip-path="url(#clip-path-52)"><path id="Trazado_5774" data-name="Trazado 5774" d="M179.442,222.265c.194-.115-5.809,15.784-5.809,15.784h-8.792a39.644,39.644,0,0,1,14.6-15.784" fill="#fff"></path></g></g></g><path id="Trazado_5775" data-name="Trazado 5775" d="M174.222,233.707c0,1.971-1.24,3.57-2.771,3.57s-2.77-1.6-2.77-3.57,1.24-3.57,2.77-3.57,2.771,1.6,2.771,3.57" fill="#fff"></path><path id="Trazado_5776" data-name="Trazado 5776" d="M150.952,232.515c0,1.972-.873,3.57-1.951,3.57s-1.95-1.6-1.95-3.57.873-3.57,1.95-3.57,1.951,1.6,1.951,3.57" fill="#fff"></path><path id="Trazado_5777" data-name="Trazado 5777" d="M176.777,228.33a1.4,1.4,0,1,1-1.355-1.746,1.589,1.589,0,0,1,1.355,1.746" fill="#fff"></path><path id="Trazado_5778" data-name="Trazado 5778" d="M151.679,227.416c0,.964-.416,1.746-.928,1.746s-.929-.782-.929-1.746.416-1.746.929-1.746.928.782.928,1.746" fill="#fff"></path><path id="Trazado_5779" data-name="Trazado 5779" d="M178.521,203.489s-4.157,26.167-17.884,26.35c-12.866.17-14.067-24.4-1.79-28.174,9.917-3.052,19.674,1.824,19.674,1.824" fill="#407bff"></path><path id="Trazado_5780" data-name="Trazado 5780" d="M178.521,203.489s-4.157,26.167-17.884,26.35c-12.866.17-14.067-24.4-1.79-28.174,9.917-3.052,19.674,1.824,19.674,1.824" fill="#263238"></path><path id="Trazado_5781" data-name="Trazado 5781" d="M151.142,215.521c-.3,6.645,3.7,12.031,8.943,12.031s9.741-5.386,10.046-12.031-3.7-12.031-8.944-12.031-9.741,5.386-10.045,12.031" fill="#407bff"></path><g id="Grupo_1108" data-name="Grupo 1108" opacity="0.7" style="isolation: isolate"><g id="Grupo_1107" data-name="Grupo 1107"><g id="Grupo_1106" data-name="Grupo 1106" clip-path="url(#clip-path-53)"><path id="Trazado_5782" data-name="Trazado 5782" d="M151.142,215.521c-.3,6.645,3.7,12.031,8.943,12.031s9.741-5.386,10.046-12.031-3.7-12.031-8.944-12.031-9.741,5.386-10.045,12.031" fill="#fff"></path></g></g></g><path id="Trazado_5783" data-name="Trazado 5783" d="M162.971,218.659c0,2.939-1.85,5.322-4.131,5.322s-4.131-2.383-4.131-5.322,1.85-5.322,4.131-5.322,4.131,2.383,4.131,5.322" fill="#fff"></path><path id="Trazado_5784" data-name="Trazado 5784" d="M166.466,211.739a2.132,2.132,0,1,1-2.066-2.661,2.421,2.421,0,0,1,2.066,2.661" fill="#fff"></path><path id="Trazado_5785" data-name="Trazado 5785" d="M315.375,264.614h-4.087a1.3,1.3,0,0,0-1.3,1.3V268.2a1.3,1.3,0,0,0,1.3,1.3h4.85a6.177,6.177,0,0,0-.763-4.887" fill="#407bff"></path><g id="Grupo_1111" data-name="Grupo 1111" opacity="0.7" style="isolation: isolate"><g id="Grupo_1110" data-name="Grupo 1110"><g id="Grupo_1109" data-name="Grupo 1109" clip-path="url(#clip-path-54)"><path id="Trazado_5786" data-name="Trazado 5786" d="M315.375,264.614h-4.087a1.3,1.3,0,0,0-1.3,1.3V268.2a1.3,1.3,0,0,0,1.3,1.3h4.85a6.177,6.177,0,0,0-.763-4.887" fill="#fff"></path></g></g></g><path id="Trazado_5787" data-name="Trazado 5787" d="M210.213,179.758s-.133-.783-2.188-.783-2.787,2.988-2.787,2.988l.827,2.521h2.8l1.347-.479s5.1,1.32,5.562,2.16,1.194,1.027.971,0-5.733-3.244-5.733-3.244Z" fill="#2e353a"></path><path id="Trazado_5788" data-name="Trazado 5788" d="M169.078,179.99a1.776,1.776,0,0,0-1.609-1.014,1.69,1.69,0,0,0-1.929,1.6,10.291,10.291,0,0,0,0,1.856l-1.14.888s-3.473,1.641-3.764,1.871-.437,1.163.179,1.07a13.963,13.963,0,0,0,2.671-1.588,8.089,8.089,0,0,1,2.979-.757l2.1-1.294Z" fill="#2e353a"></path><path id="Trazado_5789" data-name="Trazado 5789" d="M152.519,242.9l-13.86,45.132,3.524,2.177,13.911-43.8Z" fill="#407bff"></path><g id="Grupo_1114" data-name="Grupo 1114" opacity="0.6" style="isolation: isolate"><g id="Grupo_1113" data-name="Grupo 1113"><g id="Grupo_1112" data-name="Grupo 1112" clip-path="url(#clip-path-55)"><path id="Trazado_5790" data-name="Trazado 5790" d="M152.519,242.9l-13.86,45.132,3.524,2.177,13.911-43.8Z" fill="#fff"></path></g></g></g><path id="Trazado_5791" data-name="Trazado 5791" d="M158.295,242.442l-5.778,18.552h-1.1c-2.03-2.408-3.777-2.219-3.777-2.219l-.727-1.067,4.381-15.266Z" fill="#2e353a"></path><path id="Trazado_5792" data-name="Trazado 5792" d="M143.981,287.379c0,2.337-1.327,4.231-2.964,4.231s-2.963-1.894-2.963-4.231,1.327-4.231,2.963-4.231,2.964,1.894,2.964,4.231" fill="#2e353a"></path><path id="Trazado_5793" data-name="Trazado 5793" d="M146.875,258.294c13.892,0,25.153,13.588,25.153,30.349s-11.261,30.349-25.153,30.349-25.153-13.588-25.153-30.349,11.261-30.349,25.153-30.349" fill="#2e353a"></path><g id="Grupo_1117" data-name="Grupo 1117" opacity="0.4" style="isolation: isolate"><g id="Grupo_1116" data-name="Grupo 1116"><g id="Grupo_1115" data-name="Grupo 1115" clip-path="url(#clip-path-56)"><path id="Trazado_5794" data-name="Trazado 5794" d="M146.875,258.294c13.892,0,25.153,13.588,25.153,30.349s-11.261,30.349-25.153,30.349-25.153-13.588-25.153-30.349,11.261-30.349,25.153-30.349"></path></g></g></g><path id="Trazado_5795" data-name="Trazado 5795" d="M181.725,286.076h-5.962a4.463,4.463,0,0,1-3.94-2.351c-3.119-5.845-12.192-20.826-24.948-24.512-15.945-4.606,8.666-7.37,17.525-1.008s17.325,27.871,17.325,27.871" fill="#263238"></path><g id="Grupo_1120" data-name="Grupo 1120" opacity="0.4" style="isolation: isolate"><g id="Grupo_1119" data-name="Grupo 1119"><g id="Grupo_1118" data-name="Grupo 1118" clip-path="url(#clip-path-57)"><path id="Trazado_5796" data-name="Trazado 5796" d="M181.725,286.076h-5.962a4.463,4.463,0,0,1-3.94-2.351c-3.119-5.845-12.192-20.826-24.948-24.512-15.945-4.606,8.666-7.37,17.525-1.008s17.325,27.871,17.325,27.871"></path></g></g></g><path id="Trazado_5797" data-name="Trazado 5797" d="M151.085,269.5c8.762,0,15.866,8.57,15.866,19.142s-7.1,19.142-15.866,19.142-15.865-8.57-15.865-19.142,7.1-19.142,15.865-19.142"></path><path id="Trazado_5798" data-name="Trazado 5798" d="M154.729,280.416c3.649,0,6.608,3.57,6.608,7.973s-2.959,7.973-6.608,7.973-6.608-3.57-6.608-7.973,2.958-7.973,6.608-7.973" fill="#407bff"></path><g id="Grupo_1123" data-name="Grupo 1123" opacity="0.4" style="isolation: isolate"><g id="Grupo_1122" data-name="Grupo 1122"><g id="Grupo_1121" data-name="Grupo 1121" clip-path="url(#clip-path-58)"><path id="Trazado_5799" data-name="Trazado 5799" d="M154.729,280.416c3.649,0,6.608,3.57,6.608,7.973s-2.959,7.973-6.608,7.973-6.608-3.57-6.608-7.973,2.958-7.973,6.608-7.973"></path></g></g></g><path id="Trazado_5800" data-name="Trazado 5800" d="M126.553,269.646h2.8a10.728,10.728,0,0,0,6.431-2.162c4.343-3.252,13.523-8.705,23.059-5.543,11.044,3.662,18.542,18.145,20.678,22.733a2.426,2.426,0,0,0,2.207,1.4S178.252,257.71,158.84,250c-18.828-7.478-31.579,8.259-34.328,16.848a2.143,2.143,0,0,0,2.041,2.8" fill="#407bff"></path><g id="Grupo_1126" data-name="Grupo 1126" opacity="0.5" style="isolation: isolate"><g id="Grupo_1125" data-name="Grupo 1125"><g id="Grupo_1124" data-name="Grupo 1124" clip-path="url(#clip-path-59)"><path id="Trazado_5801" data-name="Trazado 5801" d="M126.553,269.646h2.8a10.728,10.728,0,0,0,6.431-2.162c4.343-3.252,13.523-8.705,23.059-5.543,11.044,3.662,18.542,18.145,20.678,22.733a2.426,2.426,0,0,0,2.207,1.4S178.252,257.71,158.84,250c-18.828-7.478-31.579,8.259-34.328,16.848a2.143,2.143,0,0,0,2.041,2.8" fill="#fff"></path></g></g></g><path id="Trazado_5802" data-name="Trazado 5802" d="M171.635,248.012l-4.126,12.981-9.28,29.22-3.522-2.181,8.988-29.257,4.154-13.529c1.124.765,2.4,1.69,3.786,2.766" fill="#407bff"></path><g id="Grupo_1129" data-name="Grupo 1129" opacity="0.6" style="isolation: isolate"><g id="Grupo_1128" data-name="Grupo 1128"><g id="Grupo_1127" data-name="Grupo 1127" clip-path="url(#clip-path-60)"><path id="Trazado_5803" data-name="Trazado 5803" d="M171.635,248.012l-4.126,12.981-9.28,29.22-3.522-2.181,8.988-29.257,4.154-13.529c1.124.765,2.4,1.69,3.786,2.766" fill="#fff"></path></g></g></g><path id="Trazado_5804" data-name="Trazado 5804" d="M172.419,248.626l-3.852,12.367h-1.1c-2.03-2.407-3.776-2.218-3.776-2.218l-.727-1.067,3.785-13.189a1.79,1.79,0,0,1,.189.114c.293.188.6.4.906.613,1.124.765,2.4,1.69,3.786,2.766.255.2.52.406.784.614" fill="#2e353a"></path><path id="Trazado_5805" data-name="Trazado 5805" d="M160.031,287.379c0,2.337-1.327,4.231-2.964,4.231s-2.963-1.894-2.963-4.231,1.327-4.231,2.963-4.231,2.964,1.894,2.964,4.231" fill="#2e353a"></path><g id="Grupo_1132" data-name="Grupo 1132" opacity="0.5" style="isolation: isolate"><g id="Grupo_1131" data-name="Grupo 1131"><g id="Grupo_1130" data-name="Grupo 1130" clip-path="url(#clip-path-61)"><path id="Trazado_5806" data-name="Trazado 5806" d="M316.083,270.123a2.418,2.418,0,0,1-2.426,2.134H309.3a2.847,2.847,0,0,0-2.115.934L294.133,287.58a5.658,5.658,0,0,1-1.36,1.1,57.988,57.988,0,0,1-28.38,7.43H254.169V276.788a38.519,38.519,0,0,1,3.625-16.323l7.222-15.455a20.522,20.522,0,0,1,18.6-11.839h6.76l.774-.047a35.868,35.868,0,0,1,15.927,12.745c.4.548.774,1.1,1.143,1.662a46.9,46.9,0,0,1,3.181,5.749,52.121,52.121,0,0,1,2.068,5.013,63.8,63.8,0,0,1,2.455,8.715,10.22,10.22,0,0,1,.16,3.115" fill="#fff"></path></g></g></g><path id="Trazado_5807" data-name="Trazado 5807" d="M252.657,192.917a3.891,3.891,0,0,0-.552,1.167q-.229.8-.433,1.6c-1.209,4.783-2.052,10.3-.278,15.053.739,1.98,2.474,4.847,4.663,5.5,1.635.488,4.021.125,5.737.176l6.1.184a2.675,2.675,0,0,0,1.179-.142,2.606,2.606,0,0,0,.943-.884,53.242,53.242,0,0,0,3.084-4.567,15.28,15.28,0,0,0,2.215-5.256,12.5,12.5,0,0,0-1.041-6.788,12.669,12.669,0,0,0-5.844-6.771,13.807,13.807,0,0,0-2.309-.82c-3.315-.912-11.056-1.907-13.467,1.542" fill="#407bff"></path><g id="Grupo_1135" data-name="Grupo 1135" opacity="0.4" style="isolation: isolate"><g id="Grupo_1134" data-name="Grupo 1134"><g id="Grupo_1133" data-name="Grupo 1133" clip-path="url(#clip-path-62)"><path id="Trazado_5808" data-name="Trazado 5808" d="M252.657,192.917a3.891,3.891,0,0,0-.552,1.167q-.229.8-.433,1.6c-1.209,4.783-2.052,10.3-.278,15.053.739,1.98,2.474,4.847,4.663,5.5,1.635.488,4.021.125,5.737.176l6.1.184a2.675,2.675,0,0,0,1.179-.142,2.606,2.606,0,0,0,.943-.884,53.242,53.242,0,0,0,3.084-4.567,15.28,15.28,0,0,0,2.215-5.256,12.5,12.5,0,0,0-1.041-6.788,12.669,12.669,0,0,0-5.844-6.771,13.807,13.807,0,0,0-2.309-.82c-3.315-.912-11.056-1.907-13.467,1.542"></path></g></g></g><path id="Trazado_5809" data-name="Trazado 5809" d="M267.813,208.518a3.1,3.1,0,0,1,3.6-2.493c2.156.45,2.757,5.025-2.768,5.57-.793.079-1.157-.724-.828-3.077" fill="#e4897b"></path><path id="Trazado_5810" data-name="Trazado 5810" d="M272.092,191.065s-9.634-3.75-17.347.748,10.841,8.021,10.841,8.021l-4.115-3.258s5.4,3.077,8.121,2.86Z" fill="#263238"></path><path id="Trazado_5811" data-name="Trazado 5811" d="M251.57,211.423a5.1,5.1,0,0,0,3.779,3.976c4.438,1.047,11.626-2.515,11.626-2.515l.375,2.01s-7.1,3.137-11.978,2.057c-2.6-.574-4.493-3.82-3.8-5.528" fill="#263238"></path><path id="Trazado_5812" data-name="Trazado 5812" d="M257.054,217.164l-.261-1.58a9.9,9.9,0,0,0-2.222-1,3.044,3.044,0,0,0-1.436-.028,2.216,2.216,0,0,0,1.182,2.164,6.121,6.121,0,0,0,2.737.446" fill="#263238"></path><g id="Grupo_1138" data-name="Grupo 1138" opacity="0.5"><g id="Grupo_1137" data-name="Grupo 1137"><g id="Grupo_1136" data-name="Grupo 1136" clip-path="url(#clip-path-63)"><path id="Trazado_5813" data-name="Trazado 5813" d="M257.054,217.164l-.261-1.58a9.9,9.9,0,0,0-2.222-1,3.044,3.044,0,0,0-1.436-.028,2.216,2.216,0,0,0,1.182,2.164,6.121,6.121,0,0,0,2.737.446" fill="#fff"></path></g></g></g><path id="Trazado_5814" data-name="Trazado 5814" d="M278.995,211.794c-3.392,4.859-9.072,7.684-12.189,4.063s1.324-17.151,1.324-17.151c-7.25-4.379-15.939-3.713-15.939-3.713.606-5.369,7.546-10.92,19.685-6.177a14.18,14.18,0,0,1,8.246,7.649,11.472,11.472,0,0,1,.425,1.1,14,14,0,0,1,.591,2.311,16.141,16.141,0,0,1,.255,2.665,16.387,16.387,0,0,1-2.4,9.25" fill="#407bff"></path><path id="Trazado_5815" data-name="Trazado 5815" d="M252.511,192.813a29.823,29.823,0,0,1,17.1,3.434,29.493,29.493,0,0,1,1.093,4.673c-.006,1.088-21.584-3.48-22.662-4.911s3.107-1.32,3.107-1.32Z" fill="#263238"></path></g></g><g id="Grupo_1163" data-name="Grupo 1163"><g id="Grupo_1162" data-name="Grupo 1162" clip-path="url(#clip-path)"><path id="Trazado_5816" data-name="Trazado 5816" d="M333.326,118.448c-.159,3.861,1.427,10.1,4.435,12.111,0,0-2,4.151-8.963,5.425-7.661,1.4-4.246-3.11-4.246-3.11,4.028-1.757,3.444-4.821,2.268-7.584Z" fill="#ffb27d"></path><path id="Trazado_5817" data-name="Trazado 5817" d="M317.194,115.231c.127.5-.035.975-.361,1.067s-.692-.235-.819-.731.035-.975.361-1.068.692.235.819.732" fill="#263238"></path><path id="Trazado_5818" data-name="Trazado 5818" d="M316.526,114.486l-1.285,0s.852.757,1.285,0" fill="#263238"></path><path id="Trazado_5819" data-name="Trazado 5819" d="M316.9,115.833a14.122,14.122,0,0,1-.968,3.676,2.225,2.225,0,0,0,1.861-.173Z" fill="#ed975d"></path><path id="Trazado_5820" data-name="Trazado 5820" d="M315.679,112.109a.3.3,0,0,0,.139-.048,2.5,2.5,0,0,1,2.206-.327.3.3,0,0,0,.23-.561,3.115,3.115,0,0,0-2.767.381.3.3,0,0,0,.192.555" fill="#263238"></path><path id="Trazado_5821" data-name="Trazado 5821" d="M333.52,109.123c1.179,6.207,1.811,8.806-.482,12.816-3.449,6.033-11.342,6.354-14.355.68-2.711-5.107-4.184-14.4,1.188-18.532a8.449,8.449,0,0,1,13.649,5.036" fill="#ffb27d"></path><path id="Trazado_5822" data-name="Trazado 5822" d="M335.836,104.154c-2.656-4.546-5.706-7-14.328-4.548-6.469,1.84-11.991,11.031-1.481,16.232,0,0,2.971,4.256,6.386,5.8s4.311,2.033,7.87-.1c2.916-1.745,5.626-10.417,1.553-17.389" fill="#1e3d70"></path><path id="Trazado_5823" data-name="Trazado 5823" d="M321.469,114.7a5.727,5.727,0,0,1,.009,3.447c-.476,1.578-1.676,1.628-2.349.57a4.254,4.254,0,0,1-.223-4.207c.852-1.268,2.115-1.045,2.563.19" fill="#ed975d"></path><path id="Trazado_5824" data-name="Trazado 5824" d="M332.567,101.467s.54-5.558,5.534-5.584,8.966,4.98,9.391,13.805,10.527,5.42,12.97,7.1,2.6,3.5,2.6,3.5a3.8,3.8,0,0,0-4.073-2.06,2.835,2.835,0,0,1,2.02,2.359A3.2,3.2,0,0,0,358.74,120s.868,2.465-4.922,2.623-12.594-1.037-16.438-9.943-4.813-11.214-4.813-11.214" fill="#1e3d70"></path><path id="Trazado_5825" data-name="Trazado 5825" d="M335.466,98.8s10.076-5.907,12.942,7.649c1.956,9.252,9.016,7.3,9.016,7.3" fill="none" stroke="#1e3d70" stroke-linecap="round" stroke-linejoin="round" stroke-width="0.51"></path><path id="Trazado_5826" data-name="Trazado 5826" d="M318.746,103.057s-5.467.6-5.511,5.4,6.372,7.547,10.551,6.834" fill="none" stroke="#1e3d70" stroke-linecap="round" stroke-linejoin="round" stroke-width="0.51"></path><path id="Trazado_5827" data-name="Trazado 5827" d="M308.789,186.87s5.2-15.646,10.169-26.244l.9,1.615s-7.842,19.581-8.448,23.921Z" fill="#263238"></path><g id="Grupo_1143" data-name="Grupo 1143" opacity="0.2" style="isolation: isolate"><g id="Grupo_1142" data-name="Grupo 1142"><g id="Grupo_1141" data-name="Grupo 1141" clip-path="url(#clip-path-65)"><path id="Trazado_5828" data-name="Trazado 5828" d="M308.789,186.87s5.2-15.646,10.169-26.244l.9,1.615s-7.842,19.581-8.448,23.921Z" fill="#fff"></path></g></g></g><path id="Trazado_5829" data-name="Trazado 5829" d="M351.966,134.626c.36,1.875.747,3.9,1.2,5.845.433,1.961.885,3.917,1.4,5.845a74.967,74.967,0,0,0,3.794,11.137l5.221,11.2,2.568,5.673c.827,1.908,1.678,3.8,2.467,5.731l-3.359,1.822c-1.187-1.72-2.306-3.474-3.445-5.218l-3.314-5.292c-2.177-3.562-4.293-7.1-6.34-10.833a63.928,63.928,0,0,1-4.912-12.138c-.612-2.062-1.184-4.128-1.67-6.211-.464-2.106-.907-4.141-1.232-6.357Z" fill="#ffb27d"></path><path id="Trazado_5830" data-name="Trazado 5830" d="M368.3,179.753s3.454,4.9,3.548,5.557.285,3.6.069,3.668-4.468.508-4.468.508l-2.567-4.493s-.7-2.821-.112-4.369Z" fill="#ffb27d"></path><path id="Trazado_5831" data-name="Trazado 5831" d="M319.614,142.527c-.968,2.02-2,3.833-3.062,5.705-1.081,1.846-2.24,3.649-3.437,5.437a63.868,63.868,0,0,1-8.292,10.134c-3.063,2.959-6.132,5.709-9.268,8.465l-4.734,4.071c-1.606,1.328-3.2,2.67-4.838,3.961l-2.668-2.737c1.325-1.606,2.7-3.164,4.056-4.741l4.136-4.656,8.31-9.151a74.97,74.97,0,0,0,6.926-9.51c1.068-1.687,2.079-3.421,3.074-5.165,1.005-1.72,1.977-3.544,2.877-5.227Z" fill="#ffb27d"></path><path id="Trazado_5832" data-name="Trazado 5832" d="M283.7,177.361s-4.753,3.655-5.037,4.255-1.339,3.35-1.154,3.481,4.116,1.812,4.116,1.812l3.785-3.529s1.505-2.487,1.4-4.14Z" fill="#ffb27d"></path><path id="Trazado_5833" data-name="Trazado 5833" d="M348.848,132.046c3.376.4,7.274,11.087,7.274,11.087l-10.343,4.243s-4.867-16.269,3.069-15.33" fill="#407bff"></path><path id="Trazado_5834" data-name="Trazado 5834" d="M344.577,170.75c-5.039.182-15.731.576-26.07.958-6.469-37.068-3.43-37.761-3.43-37.761a52.972,52.972,0,0,1,6.159-1.771c.13-.029.251-.052.363-.076,1.71-.337,2.065-.373,4.332-.665,3.863-.3,7.447-.477,11.837-.43.282,0,.564,0,.837.015.793.024,1.576.063,2.333.107.511.022,1.018.067,1.5.11.571.056,1.127.109,1.648.166,2.789.294,4.761.643,4.761.643-4.876,21.743-4.8,28.218-4.271,38.7" fill="#263238"></path><g id="Grupo_1146" data-name="Grupo 1146" opacity="0.2"><g id="Grupo_1145" data-name="Grupo 1145"><g id="Grupo_1144" data-name="Grupo 1144" clip-path="url(#clip-path-66)"><path id="Trazado_5835" data-name="Trazado 5835" d="M318.526,145.457a21.625,21.625,0,0,1-2.466,10.926c-1.027-7.21-1.486-12.1-1.63-15.424,1.977.049,3.946,1,4.1,4.5"></path></g></g></g><path id="Trazado_5836" data-name="Trazado 5836" d="M331.9,261.973c-6.605,25.145-19.014,54.979-19.014,54.979l-4.3-1.673,12.6-53.306Z" fill="#eec1bb"></path><path id="Trazado_5837" data-name="Trazado 5837" d="M315.164,314.5c.125-.567-6.908-1.82-6.908-1.82s-5.321,3.291-9.7,3.252-2.671,3.01,1.954,4.142l11.441,2.8c3.287.8,1.918-2.5,3.211-8.374" fill="#263238"></path><path id="Trazado_5838" data-name="Trazado 5838" d="M304.179,313.56a.981.981,0,0,1-.57-.316.684.684,0,0,1,.013-.779.766.766,0,0,1,.484-.378,2.939,2.939,0,0,1,1.594.21c-.489-.438-.893-.924-.825-1.293.045-.24.246-.4.6-.471a1.1,1.1,0,0,1,.9.2,4.126,4.126,0,0,1,1.037,2.453.179.179,0,0,1-.007.076h0a.177.177,0,0,1-.027.053h0a.176.176,0,0,1-.044.042h0a.18.18,0,0,1-.068.029,8.95,8.95,0,0,1-3.085.175m.885-1.063a1.767,1.767,0,0,0-.853-.049.4.4,0,0,0-.258.194c-.135.254-.066.346-.044.377.261.349,1.623.277,2.749.1a8.35,8.35,0,0,0-1.594-.617m.822-1.594a.751.751,0,0,0-.337,0c-.106.021-.286.072-.3.17-.058.316.8,1.1,1.73,1.737a3.107,3.107,0,0,0-.823-1.778.759.759,0,0,0-.266-.128" fill="#407bff"></path><path id="Trazado_5839" data-name="Trazado 5839" d="M344.714,167.129s9.709,20.48,6.278,39.806-13.8,44.134-16.6,50.151-13.234,41.65-13.234,41.65l-9.034-2.941s8.072-35.366,10.607-47.686c1.2-5.82,11.451-47.266,11.451-47.266s-17.568-13.053-16.325-33.481Z" fill="#407bff"></path><g id="Grupo_1149" data-name="Grupo 1149" opacity="0.2" style="isolation: isolate"><g id="Grupo_1148" data-name="Grupo 1148"><g id="Grupo_1147" data-name="Grupo 1147" clip-path="url(#clip-path-67)"><path id="Trazado_5840" data-name="Trazado 5840" d="M312.133,295.794l9.032,2.943S331.6,263.106,334.4,257.085c1.438-3.1,4.88-11.181,8.364-20.932,3.265-9.185,6.564-19.85,8.229-29.22,3.426-19.325-6.283-39.8-6.283-39.8l-26.852.229c-1.244,20.433,16.331,33.482,16.331,33.482s-1.8,7.291-3.984,16.179c-3.027,12.323-6.774,27.715-7.468,31.089-2.537,12.314-10.605,47.683-10.605,47.683" fill="#fff"></path></g></g></g><path id="Trazado_5841" data-name="Trazado 5841" d="M353.151,272.057a398.648,398.648,0,0,1,11.607,39.328l-4.381,1.463-18.349-40.791Z" fill="#eec1bb"></path><path id="Trazado_5842" data-name="Trazado 5842" d="M364.943,308.045c-.266-.516-6.48,3.008-6.48,3.008s-2,5.928-5.391,8.691-.136,4.023,4.147,1.943l10.6-5.146c3.044-1.478-.118-3.147-2.872-8.5" fill="#263238"></path><path id="Trazado_5843" data-name="Trazado 5843" d="M355.886,314.333a.993.993,0,0,1-.64.121c-.174-.042-.4-.181-.487-.609a.763.763,0,0,1,.131-.6,2.937,2.937,0,0,1,1.362-.855c-.656-.026-1.278-.142-1.461-.469a.65.65,0,0,1,.16-.744,1.1,1.1,0,0,1,.819-.426c1.04-.06,2.3,1.163,2.364,1.227a.176.176,0,0,1,.043.063h0a.174.174,0,0,1,.013.058h0a.179.179,0,0,1-.006.061h0a.184.184,0,0,1-.034.065,8.948,8.948,0,0,1-2.264,2.1m0-1.384a1.786,1.786,0,0,0-.688.507.4.4,0,0,0-.074.314c.058.282.17.309.207.318.423.1,1.426-.821,2.177-1.681a8.443,8.443,0,0,0-1.622.542m-.384-1.751a.761.761,0,0,0-.26.214c-.068.084-.174.238-.125.325.156.281,1.315.334,2.44.234a3.1,3.1,0,0,0-1.769-.844.739.739,0,0,0-.286.071" fill="#407bff"></path><g id="Grupo_1152" data-name="Grupo 1152" opacity="0.2" style="isolation: isolate"><g id="Grupo_1151" data-name="Grupo 1151"><g id="Grupo_1150" data-name="Grupo 1150" clip-path="url(#clip-path-68)"><path id="Trazado_5844" data-name="Trazado 5844" d="M312.133,295.794l9.032,2.943S331.6,263.106,334.4,257.085c1.438-3.1,4.88-11.181,8.364-20.932l-3.211-27.945s3.838-2.248,6.239-10.908a13.947,13.947,0,0,1-7.442,3.256c-1.041.067-4.119,6.647-8.145,16.466-3.027,12.323-6.774,27.715-7.468,31.089-2.537,12.314-10.605,47.683-10.605,47.683"></path></g></g></g><path id="Trazado_5845" data-name="Trazado 5845" d="M315.878,212.348a100.073,100.073,0,0,0,6.858,24.11c3.569,8.292,7.511,14.393,10.379,20.686,5.065,11.135,18.545,41.2,18.545,41.2l10.366-3.6s-14.413-40.493-19.9-49.429c0,0-3.432-29.054-3.774-44.761,0,0,3.679-3.259,4.92-10.742,1.311-7.906-25.05-20-25.05-20a102.994,102.994,0,0,0-2.342,42.534" fill="#407bff"></path><g id="Grupo_1155" data-name="Grupo 1155" opacity="0.2" style="isolation: isolate"><g id="Grupo_1154" data-name="Grupo 1154"><g id="Grupo_1153" data-name="Grupo 1153" clip-path="url(#clip-path-69)"><path id="Trazado_5846" data-name="Trazado 5846" d="M315.878,212.348a100.073,100.073,0,0,0,6.858,24.11c3.569,8.292,7.511,14.393,10.379,20.686,5.065,11.135,18.545,41.2,18.545,41.2l10.366-3.6s-14.413-40.493-19.9-49.429c0,0-3.432-29.054-3.774-44.761,0,0,3.679-3.259,4.92-10.742,1.311-7.906-25.05-20-25.05-20a102.994,102.994,0,0,0-2.342,42.534" fill="#fff"></path></g></g></g><path id="Trazado_5847" data-name="Trazado 5847" d="M336.037,171.918,322,172.131l-.164-4.221,14.052.151Z" fill="#263238"></path><path id="Trazado_5848" data-name="Trazado 5848" d="M320.6,167.9l.165,4.253-1.418.021-.387-4.292Z" fill="#263238"></path><path id="Trazado_5849" data-name="Trazado 5849" d="M337.125,168.074l7.449.08.328,3.629-7.628.116Z" fill="#263238"></path><path id="Trazado_5850" data-name="Trazado 5850" d="M322.148,132.006s1.5-4.622,9.781-6.018,13.8-1.53,10.975,6.948-20.756-.93-20.756-.93" fill="#407bff"></path><path id="Trazado_5851" data-name="Trazado 5851" d="M315.077,133.947c-3.933,1.816-8.509,13.43-8.509,13.43l8.509,4.5,3.449-6.421s.825-4.446.018-7.406a6.633,6.633,0,0,0-3.467-4.1" fill="#407bff"></path><path id="Trazado_5852" data-name="Trazado 5852" d="M344.087,131.4c.215,17.269-17.332,50.733-17.332,50.733s-9.488,3.24-16.15,0c0,0-4.037,7.464-4.037,7.907a1.393,1.393,0,0,0,1.413,1.4s-3.835,9.53.2,12.422,17.5,2.375,19.451-.092,1.329-19.642,1.329-19.642,16.123-31.127,17.272-52.47Z" fill="#263238"></path><g id="Grupo_1158" data-name="Grupo 1158" opacity="0.2" style="isolation: isolate"><g id="Grupo_1157" data-name="Grupo 1157"><g id="Grupo_1156" data-name="Grupo 1156" clip-path="url(#clip-path-70)"><path id="Trazado_5853" data-name="Trazado 5853" d="M328.966,184.127s.612,17.176-1.337,19.646-15.41,2.98-19.441.091-.2-12.43-.2-12.43a1.391,1.391,0,0,1-1.418-1.4c0-.439,4.041-7.9,4.041-7.9,6.665,3.235,16.145,0,16.145,0s17.554-33.464,17.34-50.731l2.142.255c-1.142,21.339-17.267,52.466-17.267,52.466" fill="#fff"></path></g></g></g><g id="Grupo_1161" data-name="Grupo 1161" opacity="0.2" style="isolation: isolate"><g id="Grupo_1160" data-name="Grupo 1160"><g id="Grupo_1159" data-name="Grupo 1159" clip-path="url(#clip-path-71)"><path id="Trazado_5854" data-name="Trazado 5854" d="M326.751,182.137s-2.01,9.879-5.991,10.287-12.777-.99-12.777-.99a1.391,1.391,0,0,1-1.418-1.4c0-.439,4.042-7.9,4.042-7.9,6.664,3.235,16.144,0,16.144,0" fill="#fff"></path></g></g></g></g></g></g></g><path id="Trazado_5855" data-name="Trazado 5855" d="M387.514,1314.5H.486a.558.558,0,0,1-.486-.606v-.356a.558.558,0,0,1,.486-.606H387.514a.558.558,0,0,1,.486.606v.356a.558.558,0,0,1-.486.606" transform="translate(186 -264.047)" fill="#2e3552"></path></g></svg>