<svg xmlns="http://www.w3.org/2000/svg" xmlns:xlink="http://www.w3.org/1999/xlink" id="Grupo_1242" data-name="Grupo 1242" width="399.982" height="343.101" viewBox="0 0 399.982 343.101"><defs><clipPath id="clip-path"><rect id="Rect&#xE1;ngulo_3649" data-name="Rect&#xE1;ngulo 3649" width="399.982" height="343.101" fill="none"></rect></clipPath><clipPath id="clip-path-3"><rect id="Rect&#xE1;ngulo_3571" data-name="Rect&#xE1;ngulo 3571" width="79.772" height="1.773" fill="none"></rect></clipPath><clipPath id="clip-path-6"><rect id="Rect&#xE1;ngulo_3578" data-name="Rect&#xE1;ngulo 3578" width="19.087" height="6.2" fill="none"></rect></clipPath><clipPath id="clip-path-8"><rect id="Rect&#xE1;ngulo_3632" data-name="Rect&#xE1;ngulo 3632" width="59.051" height="79.217" fill="none"></rect></clipPath><clipPath id="clip-path-9"><rect id="Rect&#xE1;ngulo_3633" data-name="Rect&#xE1;ngulo 3633" width="136.921" height="118.608" fill="none"></rect></clipPath><clipPath id="clip-path-10"><rect id="Rect&#xE1;ngulo_3634" data-name="Rect&#xE1;ngulo 3634" width="36.48" height="13.646" fill="none"></rect></clipPath><clipPath id="clip-path-11"><rect id="Rect&#xE1;ngulo_3635" data-name="Rect&#xE1;ngulo 3635" width="11.6" height="6.028" fill="none"></rect></clipPath><clipPath id="clip-path-12"><rect id="Rect&#xE1;ngulo_3636" data-name="Rect&#xE1;ngulo 3636" width="3.501" height="4.574" fill="#ed975d"></rect></clipPath><clipPath id="clip-path-13"><rect id="Rect&#xE1;ngulo_3637" data-name="Rect&#xE1;ngulo 3637" width="70.735" height="83.256" fill="none"></rect></clipPath><clipPath id="clip-path-14"><rect id="Rect&#xE1;ngulo_3638" data-name="Rect&#xE1;ngulo 3638" width="70.731" height="83.255" fill="none"></rect></clipPath><clipPath id="clip-path-15"><rect id="Rect&#xE1;ngulo_3639" data-name="Rect&#xE1;ngulo 3639" width="84.627" height="27.497" fill="none"></rect></clipPath><clipPath id="clip-path-16"><rect id="Rect&#xE1;ngulo_3640" data-name="Rect&#xE1;ngulo 3640" width="59.263" height="12.145" fill="none"></rect></clipPath><clipPath id="clip-path-17"><rect id="Rect&#xE1;ngulo_3641" data-name="Rect&#xE1;ngulo 3641" width="2.577" height="51.735" fill="none"></rect></clipPath><clipPath id="clip-path-18"><rect id="Rect&#xE1;ngulo_3642" data-name="Rect&#xE1;ngulo 3642" width="34.663" height="108.366" fill="none"></rect></clipPath><clipPath id="clip-path-19"><rect id="Rect&#xE1;ngulo_3643" data-name="Rect&#xE1;ngulo 3643" width="58.42" height="37.819" fill="none"></rect></clipPath><clipPath id="clip-path-20"><rect id="Rect&#xE1;ngulo_3644" data-name="Rect&#xE1;ngulo 3644" width="35.522" height="45.56" fill="none"></rect></clipPath><clipPath id="clip-path-21"><rect id="Rect&#xE1;ngulo_3645" data-name="Rect&#xE1;ngulo 3645" width="35.523" height="45.56" fill="none"></rect></clipPath><clipPath id="clip-path-22"><rect id="Rect&#xE1;ngulo_3646" data-name="Rect&#xE1;ngulo 3646" width="75.877" height="46.514" fill="none"></rect></clipPath><clipPath id="clip-path-23"><rect id="Rect&#xE1;ngulo_3647" data-name="Rect&#xE1;ngulo 3647" width="42.448" height="49.317" fill="none"></rect></clipPath></defs><g id="Grupo_1241" data-name="Grupo 1241" clip-path="url(#clip-path)"><g id="Grupo_1190" data-name="Grupo 1190"><g id="Grupo_1189" data-name="Grupo 1189" clip-path="url(#clip-path)"><path id="Trazado_5866" data-name="Trazado 5866" d="M26.453,91.776h86.753s-4.668-10.862-20.264-7.483c0,0-3.283-12.35-15.186-10.642,0,0-9.85-10.671-24.215-6.534S40.407,84.293,40.407,84.293s-10.671-2.778-13.954,7.483" transform="translate(0 0)" fill="#ebf3fa"></path><path id="Trazado_5867" data-name="Trazado 5867" d="M258.67,25.612H171.917s4.668-10.862,20.264-7.483c0,0,3.283-12.35,15.186-10.642,0,0,9.85-10.671,24.215-6.534s13.133,17.176,13.133,17.176,10.672-2.778,13.955,7.483" transform="translate(0 0)" fill="#ebf3fa"></path><path id="Trazado_5868" data-name="Trazado 5868" d="M322.65,22.788h66.376s-2.542-9.139-12.146-6.147c0,0,1.978-12.259-5.084-13.672s-9.321,7.909-9.321,7.909A13.164,13.164,0,0,0,349.2,6.924a13.363,13.363,0,0,0-9.6,9.713s-11.862-6.794-16.946,6.151" transform="translate(0 0)" fill="#ebf3fa"></path><rect id="Rect&#xE1;ngulo_3493" data-name="Rect&#xE1;ngulo 3493" width="80.74" height="159.966" transform="translate(1.736 142.843)" fill="#e6e6e6"></rect><rect id="Rect&#xE1;ngulo_3494" data-name="Rect&#xE1;ngulo 3494" width="66.06" height="159.966" transform="translate(1.736 142.843)" fill="#f0f0f0"></rect><rect id="Rect&#xE1;ngulo_3495" data-name="Rect&#xE1;ngulo 3495" width="83.425" height="2.611" transform="translate(0 142.842)" fill="#e0e0e0"></rect><rect id="Rect&#xE1;ngulo_3496" data-name="Rect&#xE1;ngulo 3496" width="83.425" height="2.611" transform="translate(0 137.621)" fill="#e0e0e0"></rect><rect id="Rect&#xE1;ngulo_3497" data-name="Rect&#xE1;ngulo 3497" width="79.936" height="2.611" transform="translate(1.737 140.231)" fill="#f0f0f0"></rect><rect id="Rect&#xE1;ngulo_3498" data-name="Rect&#xE1;ngulo 3498" width="12.408" height="12.597" transform="translate(8.008 152.26)" fill="#e6e6e6"></rect><rect id="Rect&#xE1;ngulo_3499" data-name="Rect&#xE1;ngulo 3499" width="11.314" height="12.597" transform="translate(9.102 152.26)" fill="#f5f5f5"></rect><rect id="Rect&#xE1;ngulo_3500" data-name="Rect&#xE1;ngulo 3500" width="12.408" height="12.597" transform="translate(26.797 152.26)" fill="#e6e6e6"></rect><rect id="Rect&#xE1;ngulo_3501" data-name="Rect&#xE1;ngulo 3501" width="11.314" height="12.597" transform="translate(27.891 152.26)" fill="#f5f5f5"></rect><rect id="Rect&#xE1;ngulo_3502" data-name="Rect&#xE1;ngulo 3502" width="12.408" height="12.597" transform="translate(45.585 152.26)" fill="#e6e6e6"></rect><rect id="Rect&#xE1;ngulo_3503" data-name="Rect&#xE1;ngulo 3503" width="11.314" height="12.597" transform="translate(46.679 152.26)" fill="#f5f5f5"></rect><rect id="Rect&#xE1;ngulo_3504" data-name="Rect&#xE1;ngulo 3504" width="12.408" height="12.597" transform="translate(8.008 170.808)" fill="#e6e6e6"></rect><rect id="Rect&#xE1;ngulo_3505" data-name="Rect&#xE1;ngulo 3505" width="11.314" height="12.597" transform="translate(9.102 170.808)" fill="#f5f5f5"></rect><rect id="Rect&#xE1;ngulo_3506" data-name="Rect&#xE1;ngulo 3506" width="12.408" height="12.597" transform="translate(26.797 170.808)" fill="#e6e6e6"></rect><rect id="Rect&#xE1;ngulo_3507" data-name="Rect&#xE1;ngulo 3507" width="11.314" height="12.597" transform="translate(27.891 170.808)" fill="#f5f5f5"></rect><rect id="Rect&#xE1;ngulo_3508" data-name="Rect&#xE1;ngulo 3508" width="12.408" height="12.597" transform="translate(45.585 170.808)" fill="#e6e6e6"></rect><rect id="Rect&#xE1;ngulo_3509" data-name="Rect&#xE1;ngulo 3509" width="11.314" height="12.597" transform="translate(46.679 170.808)" fill="#f5f5f5"></rect><rect id="Rect&#xE1;ngulo_3510" data-name="Rect&#xE1;ngulo 3510" width="12.408" height="12.597" transform="translate(8.008 204.778)" fill="#e6e6e6"></rect><rect id="Rect&#xE1;ngulo_3511" data-name="Rect&#xE1;ngulo 3511" width="11.314" height="12.597" transform="translate(9.102 204.778)" fill="#f5f5f5"></rect><rect id="Rect&#xE1;ngulo_3512" data-name="Rect&#xE1;ngulo 3512" width="12.408" height="12.597" transform="translate(26.797 204.778)" fill="#e6e6e6"></rect><rect id="Rect&#xE1;ngulo_3513" data-name="Rect&#xE1;ngulo 3513" width="11.314" height="12.597" transform="translate(27.891 204.778)" fill="#f5f5f5"></rect><rect id="Rect&#xE1;ngulo_3514" data-name="Rect&#xE1;ngulo 3514" width="12.408" height="12.597" transform="translate(45.585 204.778)" fill="#e6e6e6"></rect><rect id="Rect&#xE1;ngulo_3515" data-name="Rect&#xE1;ngulo 3515" width="11.314" height="12.597" transform="translate(46.679 204.778)" fill="#f5f5f5"></rect><rect id="Rect&#xE1;ngulo_3516" data-name="Rect&#xE1;ngulo 3516" width="12.408" height="12.597" transform="translate(8.008 223.326)" fill="#e6e6e6"></rect><rect id="Rect&#xE1;ngulo_3517" data-name="Rect&#xE1;ngulo 3517" width="11.314" height="12.597" transform="translate(9.102 223.326)" fill="#f5f5f5"></rect><rect id="Rect&#xE1;ngulo_3518" data-name="Rect&#xE1;ngulo 3518" width="12.408" height="12.597" transform="translate(26.797 223.326)" fill="#e6e6e6"></rect><rect id="Rect&#xE1;ngulo_3519" data-name="Rect&#xE1;ngulo 3519" width="11.314" height="12.597" transform="translate(27.891 223.326)" fill="#f5f5f5"></rect><rect id="Rect&#xE1;ngulo_3520" data-name="Rect&#xE1;ngulo 3520" width="12.408" height="12.597" transform="translate(45.585 223.326)" fill="#e6e6e6"></rect><rect id="Rect&#xE1;ngulo_3521" data-name="Rect&#xE1;ngulo 3521" width="11.314" height="12.597" transform="translate(46.679 223.326)" fill="#f5f5f5"></rect><rect id="Rect&#xE1;ngulo_3522" data-name="Rect&#xE1;ngulo 3522" width="12.408" height="12.597" transform="translate(8.008 261.076)" fill="#e6e6e6"></rect><rect id="Rect&#xE1;ngulo_3523" data-name="Rect&#xE1;ngulo 3523" width="11.314" height="12.597" transform="translate(9.102 261.076)" fill="#f5f5f5"></rect><rect id="Rect&#xE1;ngulo_3524" data-name="Rect&#xE1;ngulo 3524" width="12.408" height="12.597" transform="translate(26.797 261.076)" fill="#e6e6e6"></rect><rect id="Rect&#xE1;ngulo_3525" data-name="Rect&#xE1;ngulo 3525" width="11.314" height="12.597" transform="translate(27.891 261.076)" fill="#f5f5f5"></rect><rect id="Rect&#xE1;ngulo_3526" data-name="Rect&#xE1;ngulo 3526" width="12.408" height="12.597" transform="translate(45.585 261.076)" fill="#e6e6e6"></rect><rect id="Rect&#xE1;ngulo_3527" data-name="Rect&#xE1;ngulo 3527" width="11.314" height="12.597" transform="translate(46.679 261.076)" fill="#f5f5f5"></rect><rect id="Rect&#xE1;ngulo_3528" data-name="Rect&#xE1;ngulo 3528" width="12.408" height="12.597" transform="translate(8.008 279.625)" fill="#e6e6e6"></rect><rect id="Rect&#xE1;ngulo_3529" data-name="Rect&#xE1;ngulo 3529" width="11.314" height="12.597" transform="translate(9.102 279.625)" fill="#f5f5f5"></rect><rect id="Rect&#xE1;ngulo_3530" data-name="Rect&#xE1;ngulo 3530" width="12.408" height="12.597" transform="translate(26.797 279.625)" fill="#e6e6e6"></rect><rect id="Rect&#xE1;ngulo_3531" data-name="Rect&#xE1;ngulo 3531" width="11.314" height="12.597" transform="translate(27.891 279.625)" fill="#f5f5f5"></rect><rect id="Rect&#xE1;ngulo_3532" data-name="Rect&#xE1;ngulo 3532" width="12.408" height="12.597" transform="translate(45.585 279.625)" fill="#e6e6e6"></rect><rect id="Rect&#xE1;ngulo_3533" data-name="Rect&#xE1;ngulo 3533" width="11.314" height="12.597" transform="translate(46.679 279.625)" fill="#f5f5f5"></rect><rect id="Rect&#xE1;ngulo_3534" data-name="Rect&#xE1;ngulo 3534" width="80.74" height="1.165" transform="translate(1.736 192.264)" fill="#e0e0e0"></rect><rect id="Rect&#xE1;ngulo_3535" data-name="Rect&#xE1;ngulo 3535" width="80.74" height="1.165" transform="translate(1.736 250.326)" fill="#e0e0e0"></rect><rect id="Rect&#xE1;ngulo_3536" data-name="Rect&#xE1;ngulo 3536" width="79.772" height="194.109" transform="translate(320.21 109.832)" fill="#e0e0e0"></rect><rect id="Rect&#xE1;ngulo_3537" data-name="Rect&#xE1;ngulo 3537" width="57.052" height="194.109" transform="translate(320.21 109.832)" fill="#f0f0f0"></rect><rect id="Rect&#xE1;ngulo_3538" data-name="Rect&#xE1;ngulo 3538" width="21.232" height="10.307" transform="translate(326.09 125.785)" fill="#e6e6e6"></rect><rect id="Rect&#xE1;ngulo_3539" data-name="Rect&#xE1;ngulo 3539" width="19.818" height="10.307" transform="translate(327.504 125.785)" fill="#f5f5f5"></rect><rect id="Rect&#xE1;ngulo_3540" data-name="Rect&#xE1;ngulo 3540" width="21.232" height="10.307" transform="translate(350.648 125.785)" fill="#e6e6e6"></rect><rect id="Rect&#xE1;ngulo_3541" data-name="Rect&#xE1;ngulo 3541" width="19.818" height="10.307" transform="translate(352.062 125.785)" fill="#f5f5f5"></rect><rect id="Rect&#xE1;ngulo_3542" data-name="Rect&#xE1;ngulo 3542" width="21.232" height="10.307" transform="translate(326.09 145.186)" fill="#e6e6e6"></rect><rect id="Rect&#xE1;ngulo_3543" data-name="Rect&#xE1;ngulo 3543" width="19.818" height="10.307" transform="translate(327.504 145.186)" fill="#f5f5f5"></rect><rect id="Rect&#xE1;ngulo_3544" data-name="Rect&#xE1;ngulo 3544" width="21.232" height="10.307" transform="translate(350.648 145.186)" fill="#e6e6e6"></rect><rect id="Rect&#xE1;ngulo_3545" data-name="Rect&#xE1;ngulo 3545" width="19.818" height="10.307" transform="translate(352.062 145.186)" fill="#f5f5f5"></rect><rect id="Rect&#xE1;ngulo_3546" data-name="Rect&#xE1;ngulo 3546" width="21.232" height="10.307" transform="translate(326.09 169.981)" fill="#e6e6e6"></rect><rect id="Rect&#xE1;ngulo_3547" data-name="Rect&#xE1;ngulo 3547" width="19.818" height="10.307" transform="translate(327.504 169.981)" fill="#f5f5f5"></rect><rect id="Rect&#xE1;ngulo_3548" data-name="Rect&#xE1;ngulo 3548" width="21.232" height="10.307" transform="translate(350.648 169.981)" fill="#e6e6e6"></rect><rect id="Rect&#xE1;ngulo_3549" data-name="Rect&#xE1;ngulo 3549" width="19.818" height="10.307" transform="translate(352.062 169.981)" fill="#f5f5f5"></rect><rect id="Rect&#xE1;ngulo_3550" data-name="Rect&#xE1;ngulo 3550" width="21.232" height="10.307" transform="translate(326.09 184.228)" fill="#e6e6e6"></rect><rect id="Rect&#xE1;ngulo_3551" data-name="Rect&#xE1;ngulo 3551" width="19.818" height="10.307" transform="translate(327.504 184.228)" fill="#f5f5f5"></rect><rect id="Rect&#xE1;ngulo_3552" data-name="Rect&#xE1;ngulo 3552" width="21.232" height="10.307" transform="translate(350.648 184.228)" fill="#e6e6e6"></rect><rect id="Rect&#xE1;ngulo_3553" data-name="Rect&#xE1;ngulo 3553" width="19.818" height="10.307" transform="translate(352.062 184.228)" fill="#f5f5f5"></rect><rect id="Rect&#xE1;ngulo_3554" data-name="Rect&#xE1;ngulo 3554" width="21.232" height="10.307" transform="translate(326.09 207.632)" fill="#e6e6e6"></rect><rect id="Rect&#xE1;ngulo_3555" data-name="Rect&#xE1;ngulo 3555" width="19.818" height="10.307" transform="translate(327.504 207.632)" fill="#f5f5f5"></rect><rect id="Rect&#xE1;ngulo_3556" data-name="Rect&#xE1;ngulo 3556" width="21.232" height="10.307" transform="translate(350.648 207.632)" fill="#e6e6e6"></rect><rect id="Rect&#xE1;ngulo_3557" data-name="Rect&#xE1;ngulo 3557" width="19.818" height="10.307" transform="translate(352.062 207.632)" fill="#f5f5f5"></rect><rect id="Rect&#xE1;ngulo_3558" data-name="Rect&#xE1;ngulo 3558" width="21.232" height="10.307" transform="translate(326.09 221.88)" fill="#e6e6e6"></rect><rect id="Rect&#xE1;ngulo_3559" data-name="Rect&#xE1;ngulo 3559" width="19.818" height="10.307" transform="translate(327.504 221.88)" fill="#f5f5f5"></rect><rect id="Rect&#xE1;ngulo_3560" data-name="Rect&#xE1;ngulo 3560" width="21.232" height="10.307" transform="translate(350.648 221.88)" fill="#e6e6e6"></rect><rect id="Rect&#xE1;ngulo_3561" data-name="Rect&#xE1;ngulo 3561" width="19.818" height="10.307" transform="translate(352.062 221.88)" fill="#f5f5f5"></rect><rect id="Rect&#xE1;ngulo_3562" data-name="Rect&#xE1;ngulo 3562" width="21.232" height="10.307" transform="translate(326.09 247.352)" fill="#e6e6e6"></rect><rect id="Rect&#xE1;ngulo_3563" data-name="Rect&#xE1;ngulo 3563" width="19.818" height="10.307" transform="translate(327.504 247.352)" fill="#f5f5f5"></rect><rect id="Rect&#xE1;ngulo_3564" data-name="Rect&#xE1;ngulo 3564" width="21.232" height="10.307" transform="translate(350.648 247.352)" fill="#e6e6e6"></rect><rect id="Rect&#xE1;ngulo_3565" data-name="Rect&#xE1;ngulo 3565" width="19.818" height="10.307" transform="translate(352.062 247.352)" fill="#f5f5f5"></rect><rect id="Rect&#xE1;ngulo_3566" data-name="Rect&#xE1;ngulo 3566" width="21.232" height="10.307" transform="translate(326.09 266.166)" fill="#e6e6e6"></rect><rect id="Rect&#xE1;ngulo_3567" data-name="Rect&#xE1;ngulo 3567" width="19.818" height="10.307" transform="translate(327.504 266.166)" fill="#f5f5f5"></rect><rect id="Rect&#xE1;ngulo_3568" data-name="Rect&#xE1;ngulo 3568" width="21.232" height="10.307" transform="translate(350.648 266.166)" fill="#e6e6e6"></rect><rect id="Rect&#xE1;ngulo_3569" data-name="Rect&#xE1;ngulo 3569" width="19.818" height="10.307" transform="translate(352.062 266.166)" fill="#f5f5f5"></rect><g id="Grupo_1179" data-name="Grupo 1179" transform="translate(320.21 161.85)" opacity="0.05"><g id="Grupo_1178" data-name="Grupo 1178" transform="translate(0)"><g id="Grupo_1177" data-name="Grupo 1177" clip-path="url(#clip-path-3)"><rect id="Rect&#xE1;ngulo_3570" data-name="Rect&#xE1;ngulo 3570" width="79.772" height="1.773" transform="translate(0 0)"></rect></g></g></g><g id="Grupo_1182" data-name="Grupo 1182" transform="translate(320.21 200.197)" opacity="0.05"><g id="Grupo_1181" data-name="Grupo 1181" transform="translate(0)"><g id="Grupo_1180" data-name="Grupo 1180" clip-path="url(#clip-path-3)"><rect id="Rect&#xE1;ngulo_3572" data-name="Rect&#xE1;ngulo 3572" width="79.772" height="1.773" transform="translate(0 0)"></rect></g></g></g><g id="Grupo_1185" data-name="Grupo 1185" transform="translate(320.21 238.883)" opacity="0.05"><g id="Grupo_1184" data-name="Grupo 1184" transform="translate(0)"><g id="Grupo_1183" data-name="Grupo 1183" clip-path="url(#clip-path-3)"><rect id="Rect&#xE1;ngulo_3574" data-name="Rect&#xE1;ngulo 3574" width="79.772" height="1.773"></rect></g></g></g><rect id="Rect&#xE1;ngulo_3576" data-name="Rect&#xE1;ngulo 3576" width="83.529" height="6.2" transform="translate(316.453 104.091)" fill="#e0e0e0"></rect><g id="Grupo_1188" data-name="Grupo 1188" transform="translate(380.895 104.091)" opacity="0.05"><g id="Grupo_1187" data-name="Grupo 1187" transform="translate(0)"><g id="Grupo_1186" data-name="Grupo 1186" clip-path="url(#clip-path-6)"><rect id="Rect&#xE1;ngulo_3577" data-name="Rect&#xE1;ngulo 3577" width="19.088" height="6.2" transform="translate(-0.001)"></rect></g></g></g><rect id="Rect&#xE1;ngulo_3579" data-name="Rect&#xE1;ngulo 3579" width="90.183" height="234.38" transform="translate(116.424 66.256)" fill="#e6e6e6"></rect><rect id="Rect&#xE1;ngulo_3580" data-name="Rect&#xE1;ngulo 3580" width="90.188" height="234.382" transform="translate(83.038 66.254)" fill="#f0f0f0"></rect><rect id="Rect&#xE1;ngulo_3581" data-name="Rect&#xE1;ngulo 3581" width="74.449" height="11.938" transform="translate(90.908 82.168)" fill="#e6e6e6"></rect><rect id="Rect&#xE1;ngulo_3582" data-name="Rect&#xE1;ngulo 3582" width="71.56" height="11.938" transform="translate(93.797 82.168)" fill="#f5f5f5"></rect><rect id="Rect&#xE1;ngulo_3583" data-name="Rect&#xE1;ngulo 3583" width="74.449" height="11.938" transform="translate(90.908 102.262)" fill="#e6e6e6"></rect><rect id="Rect&#xE1;ngulo_3584" data-name="Rect&#xE1;ngulo 3584" width="71.56" height="11.938" transform="translate(93.797 102.262)" fill="#f5f5f5"></rect><rect id="Rect&#xE1;ngulo_3585" data-name="Rect&#xE1;ngulo 3585" width="74.449" height="11.938" transform="translate(90.908 123.147)" fill="#e6e6e6"></rect><rect id="Rect&#xE1;ngulo_3586" data-name="Rect&#xE1;ngulo 3586" width="71.56" height="11.938" transform="translate(93.797 123.147)" fill="#f5f5f5"></rect><rect id="Rect&#xE1;ngulo_3587" data-name="Rect&#xE1;ngulo 3587" width="74.449" height="11.938" transform="translate(90.908 144.033)" fill="#e6e6e6"></rect><rect id="Rect&#xE1;ngulo_3588" data-name="Rect&#xE1;ngulo 3588" width="71.56" height="11.938" transform="translate(93.797 144.033)" fill="#f5f5f5"></rect><rect id="Rect&#xE1;ngulo_3589" data-name="Rect&#xE1;ngulo 3589" width="74.449" height="11.938" transform="translate(90.908 164.919)" fill="#e6e6e6"></rect><rect id="Rect&#xE1;ngulo_3590" data-name="Rect&#xE1;ngulo 3590" width="71.56" height="11.938" transform="translate(93.797 164.919)" fill="#f5f5f5"></rect><rect id="Rect&#xE1;ngulo_3591" data-name="Rect&#xE1;ngulo 3591" width="74.449" height="11.938" transform="translate(90.908 185.804)" fill="#e6e6e6"></rect><rect id="Rect&#xE1;ngulo_3592" data-name="Rect&#xE1;ngulo 3592" width="71.56" height="11.938" transform="translate(93.797 185.804)" fill="#f5f5f5"></rect><rect id="Rect&#xE1;ngulo_3593" data-name="Rect&#xE1;ngulo 3593" width="74.449" height="11.938" transform="translate(90.908 208.822)" fill="#e6e6e6"></rect><rect id="Rect&#xE1;ngulo_3594" data-name="Rect&#xE1;ngulo 3594" width="71.56" height="11.938" transform="translate(93.797 208.822)" fill="#f5f5f5"></rect><rect id="Rect&#xE1;ngulo_3595" data-name="Rect&#xE1;ngulo 3595" width="74.449" height="11.938" transform="translate(90.908 231.84)" fill="#e6e6e6"></rect><rect id="Rect&#xE1;ngulo_3596" data-name="Rect&#xE1;ngulo 3596" width="71.56" height="11.938" transform="translate(93.797 231.84)" fill="#f5f5f5"></rect><rect id="Rect&#xE1;ngulo_3597" data-name="Rect&#xE1;ngulo 3597" width="74.449" height="11.938" transform="translate(90.908 254.857)" fill="#e6e6e6"></rect><rect id="Rect&#xE1;ngulo_3598" data-name="Rect&#xE1;ngulo 3598" width="71.56" height="11.938" transform="translate(93.797 254.857)" fill="#f5f5f5"></rect><rect id="Rect&#xE1;ngulo_3599" data-name="Rect&#xE1;ngulo 3599" width="74.449" height="11.938" transform="translate(90.908 277.875)" fill="#e6e6e6"></rect><rect id="Rect&#xE1;ngulo_3600" data-name="Rect&#xE1;ngulo 3600" width="71.56" height="11.938" transform="translate(93.797 277.875)" fill="#f5f5f5"></rect><rect id="Rect&#xE1;ngulo_3601" data-name="Rect&#xE1;ngulo 3601" width="128.459" height="5.72" transform="translate(80.487 63.896)" fill="#f5f5f5"></rect><rect id="Rect&#xE1;ngulo_3602" data-name="Rect&#xE1;ngulo 3602" width="128.459" height="5.72" transform="translate(80.487 53.577)" fill="#f5f5f5"></rect><rect id="Rect&#xE1;ngulo_3603" data-name="Rect&#xE1;ngulo 3603" width="121.642" height="5.72" transform="translate(83.038 58.176)" fill="#f0f0f0"></rect><rect id="Rect&#xE1;ngulo_3604" data-name="Rect&#xE1;ngulo 3604" width="25.129" height="11.943" transform="translate(181.478 82.164)" fill="#e0e0e0"></rect><rect id="Rect&#xE1;ngulo_3605" data-name="Rect&#xE1;ngulo 3605" width="25.129" height="11.943" transform="translate(181.478 101.815)" fill="#e0e0e0"></rect><rect id="Rect&#xE1;ngulo_3606" data-name="Rect&#xE1;ngulo 3606" width="25.129" height="11.943" transform="translate(181.478 121.466)" fill="#e0e0e0"></rect><rect id="Rect&#xE1;ngulo_3607" data-name="Rect&#xE1;ngulo 3607" width="25.129" height="11.943" transform="translate(181.478 144.031)" fill="#e0e0e0"></rect><rect id="Rect&#xE1;ngulo_3608" data-name="Rect&#xE1;ngulo 3608" width="25.129" height="11.943" transform="translate(181.478 164.916)" fill="#e0e0e0"></rect><rect id="Rect&#xE1;ngulo_3609" data-name="Rect&#xE1;ngulo 3609" width="25.129" height="11.943" transform="translate(181.478 185.802)" fill="#e0e0e0"></rect><rect id="Rect&#xE1;ngulo_3610" data-name="Rect&#xE1;ngulo 3610" width="25.129" height="11.943" transform="translate(181.478 208.82)" fill="#e0e0e0"></rect><rect id="Rect&#xE1;ngulo_3611" data-name="Rect&#xE1;ngulo 3611" width="25.129" height="11.943" transform="translate(181.478 231.837)" fill="#e0e0e0"></rect><rect id="Rect&#xE1;ngulo_3612" data-name="Rect&#xE1;ngulo 3612" width="25.129" height="11.943" transform="translate(181.478 254.855)" fill="#e0e0e0"></rect><rect id="Rect&#xE1;ngulo_3613" data-name="Rect&#xE1;ngulo 3613" width="25.129" height="11.943" transform="translate(181.478 277.872)" fill="#e0e0e0"></rect><rect id="Rect&#xE1;ngulo_3614" data-name="Rect&#xE1;ngulo 3614" width="9.924" height="15.522" transform="translate(312.607 148.163)" fill="#e0e0e0"></rect><rect id="Rect&#xE1;ngulo_3615" data-name="Rect&#xE1;ngulo 3615" width="9.924" height="15.522" transform="translate(312.607 173.566)" fill="#e0e0e0"></rect><rect id="Rect&#xE1;ngulo_3616" data-name="Rect&#xE1;ngulo 3616" width="9.924" height="15.522" transform="translate(312.607 198.252)" fill="#e0e0e0"></rect><rect id="Rect&#xE1;ngulo_3617" data-name="Rect&#xE1;ngulo 3617" width="9.924" height="15.522" transform="translate(312.607 224.359)" fill="#e0e0e0"></rect><rect id="Rect&#xE1;ngulo_3618" data-name="Rect&#xE1;ngulo 3618" width="9.924" height="15.522" transform="translate(312.607 249.755)" fill="#e0e0e0"></rect><rect id="Rect&#xE1;ngulo_3619" data-name="Rect&#xE1;ngulo 3619" width="104.386" height="158.759" transform="translate(218.145 132.569)" fill="#e6e6e6"></rect><rect id="Rect&#xE1;ngulo_3620" data-name="Rect&#xE1;ngulo 3620" width="86.749" height="158.761" transform="translate(218.149 132.564)" fill="#f0f0f0"></rect><rect id="Rect&#xE1;ngulo_3621" data-name="Rect&#xE1;ngulo 3621" width="70.545" height="15.52" transform="translate(225.952 148.171)" fill="#ebebeb"></rect><rect id="Rect&#xE1;ngulo_3622" data-name="Rect&#xE1;ngulo 3622" width="70.545" height="15.52" transform="translate(225.952 173.567)" fill="#ebebeb"></rect><rect id="Rect&#xE1;ngulo_3623" data-name="Rect&#xE1;ngulo 3623" width="70.545" height="15.52" transform="translate(225.952 198.963)" fill="#ebebeb"></rect><rect id="Rect&#xE1;ngulo_3624" data-name="Rect&#xE1;ngulo 3624" width="70.545" height="15.52" transform="translate(225.952 224.36)" fill="#ebebeb"></rect><rect id="Rect&#xE1;ngulo_3625" data-name="Rect&#xE1;ngulo 3625" width="70.545" height="15.52" transform="translate(225.952 249.756)" fill="#ebebeb"></rect><rect id="Rect&#xE1;ngulo_3626" data-name="Rect&#xE1;ngulo 3626" width="67.944" height="15.52" transform="translate(228.553 148.171)" fill="#f5f5f5"></rect><rect id="Rect&#xE1;ngulo_3627" data-name="Rect&#xE1;ngulo 3627" width="67.944" height="15.52" transform="translate(228.553 173.567)" fill="#f5f5f5"></rect><rect id="Rect&#xE1;ngulo_3628" data-name="Rect&#xE1;ngulo 3628" width="67.944" height="15.52" transform="translate(228.553 198.963)" fill="#f5f5f5"></rect><rect id="Rect&#xE1;ngulo_3629" data-name="Rect&#xE1;ngulo 3629" width="67.944" height="15.52" transform="translate(228.553 224.36)" fill="#f5f5f5"></rect><rect id="Rect&#xE1;ngulo_3630" data-name="Rect&#xE1;ngulo 3630" width="67.944" height="15.52" transform="translate(228.553 249.756)" fill="#f5f5f5"></rect></g></g><path id="Trazado_5928" data-name="Trazado 5928" d="M.521,1314.612H415.39a.6.6,0,0,0,.521-.65v-.382a.6.6,0,0,0-.521-.65H.521a.6.6,0,0,0-.521.65v.382a.6.6,0,0,0,.521.65" transform="translate(-7.964 -1011.075)" fill="#2e3552"></path><g id="Grupo_1240" data-name="Grupo 1240"><g id="Grupo_1239" data-name="Grupo 1239" clip-path="url(#clip-path)"><path id="Trazado_5869" data-name="Trazado 5869" d="M182.665,283.824c1.734,1.335,36.664-2.425,27.631-64.4,0,0,16.57,4.212,18.351,3.933,0,0,24.317,37.275,6.612,55.737s-44.078,19.548-44.078,19.548Z" transform="translate(0 0)" fill="#407bff"></path><g id="Grupo_1193" data-name="Grupo 1193" transform="translate(182.665 219.421)" opacity="0.3"><g id="Grupo_1192" data-name="Grupo 1192" transform="translate(0)"><g id="Grupo_1191" data-name="Grupo 1191" clip-path="url(#clip-path-8)"><path id="Trazado_5870" data-name="Trazado 5870" d="M182.665,283.824c1.734,1.335,36.664-2.425,27.631-64.4,0,0,16.57,4.212,18.351,3.933,0,0,24.317,37.275,6.612,55.737s-44.078,19.548-44.078,19.548Z" transform="translate(-182.665 -219.421)"></path></g></g></g><path id="Trazado_5871" data-name="Trazado 5871" d="M221.371,229.019c.085.023-9.76.19-13.056-3.918s-5.494-11.4.479-16.455,41.224-26.6,57.819-28.3,34.35,9.035,34.35,9.035l-21.72,16.064-46.777,11.322Z" transform="translate(0 0)" fill="#263238"></path><path id="Trazado_5872" data-name="Trazado 5872" d="M189.516,274.066l.913,8.96,10.764-.909-1.621-9.214Z" transform="translate(0 0)" fill="#ffc3bd"></path><path id="Trazado_5873" data-name="Trazado 5873" d="M187.429,282.372l15.61-.217,1.112,7.879s-14.62.205-20.628-.6-5.077-3.93-5.077-3.93,7.041.168,8.983-3.131" transform="translate(0 0)" fill="#263238"></path><path id="Trazado_5874" data-name="Trazado 5874" d="M323.651,305.045c-2.33,22.9-19.939,39.873-39.33,37.9S251.1,320.8,253.428,297.9s19.939-39.873,39.331-37.9,33.222,22.14,30.892,45.044" transform="translate(0 0)" fill="#263238"></path><path id="Trazado_5875" data-name="Trazado 5875" d="M264.024,173.965s1.617,37.171-20.013,38.229-44.849-1.306-44.849-1.306l6.821,66.753-20.275,1.242s-14.55-56.661-16.836-70.9-.3-24.307,14.729-30.62,80.423-3.395,80.423-3.395" transform="translate(0 0)" fill="#407bff"></path><path id="Trazado_5876" data-name="Trazado 5876" d="M143.027,291.9l26.938-78.223L206,173.934s-31.417.126-46.52,8.8-15.744,19.117-18.467,31.525S127.132,285.4,127.132,285.4Z" transform="translate(0 0)" fill="#407bff"></path><g id="Grupo_1196" data-name="Grupo 1196" transform="translate(127.131 173.292)" opacity="0.7"><g id="Grupo_1195" data-name="Grupo 1195"><g id="Grupo_1194" data-name="Grupo 1194" clip-path="url(#clip-path-9)"><path id="Trazado_5877" data-name="Trazado 5877" d="M264.024,173.965s-33.468-1.492-58.021-.03c0,0-31.418.125-46.52,8.8s-15.744,19.116-18.468,31.524S127.131,285.4,127.131,285.4l15.895,6.5,26.938-78.223c4.527,21.679,15.744,65.2,15.744,65.2l20.275-1.242-6.821-66.753s23.219,2.364,44.849,1.306,20.013-38.229,20.013-38.229" transform="translate(-127.131 -173.292)"></path></g></g></g><path id="Trazado_5878" data-name="Trazado 5878" d="M208.8,113.684,196.375,115.2s-2.166,22.849-4.172,27.284c0,0-38.231,5.257-53.893,4.8l-7.952,5.4-.273,9.395,7.787.226,2.512-5.952s5.261-.222,6.473-3.189c0,0,40.621,9.815,55.584-1.384,0,0,9.017-13.248,6.363-38.094" transform="translate(0 0)" fill="#ffb27d"></path><path id="Trazado_5879" data-name="Trazado 5879" d="M244.4,52.481s3.9,4.985,2.41,9.34a7.566,7.566,0,0,1-5.487,5.033s-.726,6.933-4.816,7.128-2.7-15.263-2.7-15.263Z" transform="translate(0 0)" fill="#263238"></path><path id="Trazado_5880" data-name="Trazado 5880" d="M212.913,174.135l-2.735-44.67L193.241,118.21s5.5-19.57,16.136-22.848,33.725-10.9,47.741-7.13,12.413,20.316,10.038,32.579l-2.7.648s-.42,48.348-.434,52.5Z" transform="translate(0 0)" fill="#263238"></path><path id="Trazado_5881" data-name="Trazado 5881" d="M243.4,90.992c-5.557,5.375-16.876,8.571-20.044,5.907s.822-5.121,3.755-8.145c1.6-1.656,1.544-4.767,1.174-7.248a26.462,26.462,0,0,0-.855-3.688c-10.392-.575-14.706-5.428-15.13-13.958-.442-8.53,3.513-18.561,3.513-18.561l7.346-6.267s9.956,1.508,18.041,7.007c4.752,3.239,3.348,9.621,1.371,14.325a37.732,37.732,0,0,1-3.038,5.771c-1.151,11.73,3.867,24.857,3.867,24.857" transform="translate(0 0)" fill="#ffb27d"></path><path id="Trazado_5888" data-name="Trazado 5888" d="M242.568,60.367h-.01C231.122,60.78,229.7,47.8,229.7,47.8c-5.653,2.986-13.89-2.5-13.89-2.5l7.346-6.275s9.959,1.513,18.04,7.014c4.757,3.238,3.348,9.614,1.376,14.325" transform="translate(0 0)" fill="#263238"></path><path id="Trazado_5889" data-name="Trazado 5889" d="M212.141,49.11s-5.924-3.947-3.308-6.781,18.6,2.562,30.549,9.174c0,0-27.376-18.3-34.811-12.514-6.15,4.79,7.488,11.438,7.083,11.426Z" transform="translate(0 0)" fill="#407bff"></path><path id="Trazado_5890" data-name="Trazado 5890" d="M245.531,47.767a17.182,17.182,0,0,1-1.156,6.056l-26.887-13a14.262,14.262,0,0,1,3.943-3.181,16.714,16.714,0,0,1,5.123-1.9,18.643,18.643,0,0,1,5.781-.206c9.831,1.112,13.248,8.691,13.2,12.224" transform="translate(0 0)" fill="#407bff"></path><path id="Trazado_5891" data-name="Trazado 5891" d="M183.775,167.333c-1.759,1.836-24.389-2.856-28.338-.761-1.67.886-2.395,4.034-4.072,7.426v.009c-2.294,4.645-6.363,9.752-17.042,10.09-18.479.585-16.252-18.16-17.713-24.256,0,0-17.5-3.188-18.414-6.25s.2-3.537.2-3.537,21.6,3.976,25.777-1.457a8.979,8.979,0,0,1,2.793-1.87c.009,0,.009-.008.018-.008A20.3,20.3,0,0,1,134.578,145c7.613-.394,16.9,1.746,19.488,6.559,5.282,9.835,27.921,7.627,30.026,10.2s1.441,3.741-.317,5.568" transform="translate(0 0)" fill="#407bff"></path><path id="Trazado_5892" data-name="Trazado 5892" d="M126.494,180.141S96.131,222.153,121.133,286.8" transform="translate(0 0)" fill="none" stroke="#263238" stroke-linecap="round" stroke-linejoin="round" stroke-width="1"></path><path id="Trazado_5893" data-name="Trazado 5893" d="M166.561,201.965h0s0,.085-.016.246c0,.1-.015.247-.029.425l0,.1a79.879,79.879,0,0,1-2.02,12.028c-1.387,5.828-3.21,11.38-4.72,15.842-6.4,18.953-5.661,39.366-5.661,39.366-2.121-2.634-6.026-4.519-10.852-5.835-17.661-4.85-47.642-2.257-47.642-2.257-5.881-20.63-3.774-52.911,2.068-71.011s22.078-14.034,22.078-14.034,17.114.5,19.267.272a42.2,42.2,0,0,1,11.825.233c13.293,2.443,16.474,12.891,15.7,24.624" transform="translate(0 0)" fill="#407bff"></path><path id="Trazado_5894" data-name="Trazado 5894" d="M298.366,280.647c-30.03,27.081-87.906,29.918-130.969,26.918l-24.135-43.428-9.778-17.592L164.9,204.2l1.658-2.235s0,.086-.015.247c0,.1-.016.247-.03.425l0,.1c-.433,7.551-3.211,68.142,18.964,82.97.058.044.125.089.183.125a19.1,19.1,0,0,0,10.1,3.139c40.757,1.187,39.616-52.04,29.256-63.381l70.711-14.21s13.976,35.143,2.642,69.267" transform="translate(0 0)" fill="#407bff"></path><path id="Trazado_5895" data-name="Trazado 5895" d="M219.719,214.06s-6.628,5.5-3.206,12.875,36.384-6.95,49.364-9.558,28.056-5.162,34.46-6.491,5.908-19.856.626-21.5-57.007,7.506-65.587,12.524a87.3,87.3,0,0,0-15.657,12.153" transform="translate(0 0)" fill="#263238"></path><path id="Trazado_5896" data-name="Trazado 5896" d="M236.318,64.942a4.079,4.079,0,0,1-.384-5.082c1.592-2.4,4.83-6.219,7.931-3.369,4.334,3.983-3.071,11.273-6.147,9.515a6.326,6.326,0,0,1-1.4-1.064" transform="translate(0 0)" fill="#ffb27d"></path><g id="Grupo_1199" data-name="Grupo 1199" transform="translate(202.902 37.857)" opacity="0.2"><g id="Grupo_1198" data-name="Grupo 1198"><g id="Grupo_1197" data-name="Grupo 1197" clip-path="url(#clip-path-10)"><path id="Trazado_5897" data-name="Trazado 5897" d="M212.141,49.11s-5.924-3.947-3.308-6.781c1.162-1.259,4.628-.958,9.315.34a66.206,66.206,0,0,1,8.846,3.065c4.111,1.793,8.493,4.081,12.388,5.769,0,0-27.376-18.3-34.811-12.514-6.15,4.79,6.636,11,7.085,11.412l.22-.8Z" transform="translate(-202.902 -37.857)"></path></g></g></g><path id="Trazado_5898" data-name="Trazado 5898" d="M214.952,47.4s-6.021,1.005-1.867,7.462Z" transform="translate(0 0)" fill="#263238"></path><path id="Trazado_5899" data-name="Trazado 5899" d="M220.7,43.46s-9.054-3.186-11.569-1.388.115,5.235,3.007,7.038l2.309.294,1.356-4.1,3.529-.428Z" transform="translate(0 0)" fill="#263238"></path><g id="Grupo_1202" data-name="Grupo 1202" transform="translate(221.431 35.749)" opacity="0.3"><g id="Grupo_1201" data-name="Grupo 1201" transform="translate(0)"><g id="Grupo_1200" data-name="Grupo 1200" clip-path="url(#clip-path-11)"><path id="Trazado_5900" data-name="Trazado 5900" d="M233.031,38.561l-2.172,3.216-9.428-4.133a16.715,16.715,0,0,1,5.123-1.9Z" transform="translate(-221.431 -35.749)" fill="#fff"></path></g></g></g><g id="Grupo_1205" data-name="Grupo 1205" transform="translate(227.425 76.932)"><g id="Grupo_1204" data-name="Grupo 1204" transform="translate(0)"><g id="Grupo_1203" data-name="Grupo 1203" clip-path="url(#clip-path-12)"><path id="Trazado_5901" data-name="Trazado 5901" d="M230.926,76.932a15.815,15.815,0,0,1-2.646,4.574,26.248,26.248,0,0,0-.855-3.688,10.236,10.236,0,0,0,3.5-.886" transform="translate(-227.425 -76.932)" fill="#ed975d"></path></g></g></g><path id="Trazado_5902" data-name="Trazado 5902" d="M141.278,164.881c-.4,6.929-3.4,12.591-7.078,13.955h-.013a4.719,4.719,0,0,1-1.965.307c-4.538-.258-7.841-7.066-7.378-15.2s4.517-14.512,9.055-14.254a6.318,6.318,0,0,1,4.75,3.209c.007,0,.007.009.007.009,1.848,2.8,2.9,7.152,2.622,11.972" transform="translate(0 0)" fill="#f5f5f5"></path><path id="Trazado_5903" data-name="Trazado 5903" d="M141.278,164.881c-.4,6.929-3.4,12.591-7.078,13.955h-.013c-4.193-.239-7.248-6.526-6.821-14.03s4.176-13.4,8.37-13.165a4.9,4.9,0,0,1,2.913,1.259c.007,0,.007.009.007.009,1.848,2.8,2.9,7.152,2.622,11.972" transform="translate(0 0)" fill="#fff"></path><path id="Trazado_5904" data-name="Trazado 5904" d="M303.354,263.108c-7.735-5.434-37.645-10.758-37.645-10.758-18.174-.038-34.115,16.341-36.324,38.056-1.8,17.661,6.015,33.694,18.576,41.014,0,0,1.045.431,2.814,1.129,6.654,2.627,23.551,9.026,33.545,10.4" transform="translate(0 0)" fill="#263238"></path><g id="Grupo_1208" data-name="Grupo 1208" transform="translate(253.172 259.845)" opacity="0.3"><g id="Grupo_1207" data-name="Grupo 1207" transform="translate(0)"><g id="Grupo_1206" data-name="Grupo 1206" clip-path="url(#clip-path-13)"><path id="Trazado_5905" data-name="Trazado 5905" d="M323.651,305.045c-2.33,22.9-19.939,39.873-39.33,37.9S251.1,320.8,253.428,297.9s19.939-39.873,39.331-37.9,33.222,22.14,30.892,45.044" transform="translate(-253.172 -259.845)"></path></g></g></g><path id="Trazado_5906" data-name="Trazado 5906" d="M168.2,303.72c-2.33,22.9-19.939,39.873-39.33,37.9s-33.223-22.14-30.893-45.044,19.939-39.873,39.331-37.9,33.222,22.14,30.892,45.044" transform="translate(0 0)" fill="#263238"></path><path id="Trazado_5907" data-name="Trazado 5907" d="M154.661,266.316l-17.9,75.065a29.943,29.943,0,0,1-7.886.239c-.068-.01-.136-.012-.2-.023-3.432-.883-1.9.069-5.34-1.07-8.749-2.887-21.465-8.015-21.465-8.015C88.4,325.97,80.791,310.033,82.641,291.833c2.244-22.046,18.064-38.519,36.678-37.168,0,0,8.845,1.629,17.941,4.006,3.948,1.035,7.952,2.2,11.288,3.438.009,0,.017,0,.017.009a32.969,32.969,0,0,1,6.1,4.2" transform="translate(0 0)" fill="#263238"></path><g id="Grupo_1211" data-name="Grupo 1211" transform="translate(97.724 258.52)" opacity="0.3"><g id="Grupo_1210" data-name="Grupo 1210" transform="translate(0)"><g id="Grupo_1209" data-name="Grupo 1209" clip-path="url(#clip-path-14)"><path id="Trazado_5908" data-name="Trazado 5908" d="M168.2,303.72c-2.006,19.745-15.365,35.072-31.437,37.662a29.942,29.942,0,0,1-7.886.238c-.068-.01-.136-.012-.2-.023a30.208,30.208,0,0,1-10.5-3.133c-13.506-6.85-22.059-23.487-20.186-41.891,2.328-22.887,19.9-39.837,39.281-37.9h.051a30.24,30.24,0,0,1,11.237,3.436c.008,0,.017,0,.016.009a32.969,32.969,0,0,1,6.1,4.2c9.546,8.285,15.085,22.245,13.536,37.4" transform="translate(-97.724 -258.521)"></path></g></g></g><path id="Trazado_5909" data-name="Trazado 5909" d="M163.328,277.374a17.576,17.576,0,0,0-1.96-2.624c-4.465-6.109-14.689-8.384-21.382-7.846a31.128,31.128,0,0,0-14.323,5.136c-4.879,3.163-8.376,7.993-13.209,11.328-9.179,6.333-23.109,6.158-32.331-.371a13.512,13.512,0,0,1-1.481-1.21,6.81,6.81,0,0,1-1.8-3.554,8.949,8.949,0,0,1,.375-4.98C79.2,267.638,85.884,262.7,90.1,259.685a56.455,56.455,0,0,1,28.951-10.214c29.761-2.063,42.414,23.326,44.282,27.9" transform="translate(0 0)" fill="#407bff"></path><g id="Grupo_1214" data-name="Grupo 1214" transform="translate(76.641 260.511)" opacity="0.3"><g id="Grupo_1213" data-name="Grupo 1213" transform="translate(0)"><g id="Grupo_1212" data-name="Grupo 1212" clip-path="url(#clip-path-15)"><path id="Trazado_5910" data-name="Trazado 5910" d="M161.268,278.171c-6.391-9.217-14.589-11.8-21.282-11.267a31.13,31.13,0,0,0-14.323,5.137c-4.879,3.162-8.376,7.992-13.209,11.327-9.179,6.334-23.109,6.158-32.331-.371a13.512,13.512,0,0,1-1.481-1.21,6.811,6.811,0,0,1-1.8-3.553,8.961,8.961,0,0,1,.374-4.981c3.091,3.574,12.09,12.175,24.274,7.973,15.2-5.248,18.912-20.855,35.168-20.714,12.9.112,20.854,10.182,24.614,17.659" transform="translate(-76.641 -260.512)"></path></g></g></g><g id="Grupo_1217" data-name="Grupo 1217" transform="translate(94.405 248.855)" opacity="0.3"><g id="Grupo_1216" data-name="Grupo 1216" transform="translate(0)"><g id="Grupo_1215" data-name="Grupo 1215" clip-path="url(#clip-path-16)"><path id="Trazado_5911" data-name="Trazado 5911" d="M94.4,256.912a42.116,42.116,0,0,1,14.373-6.585,47.766,47.766,0,0,1,15.844-1.3,49.435,49.435,0,0,1,7.86,1.369,48.6,48.6,0,0,1,7.545,2.551l1.824.8,1.78.888c1.2.565,2.332,1.259,3.488,1.9,1.144.666,2.229,1.429,3.344,2.136,1.087.752,2.143,1.547,3.205,2.329a75.5,75.5,0,0,0-13.931-7.341,53.168,53.168,0,0,0-15.2-3.637,50.559,50.559,0,0,0-23.08,3.37,41.418,41.418,0,0,0-7.05,3.52" transform="translate(-94.405 -248.856)"></path></g></g></g><g id="Grupo_1220" data-name="Grupo 1220" transform="translate(124.237 198.027)" opacity="0.3"><g id="Grupo_1219" data-name="Grupo 1219" transform="translate(0)"><g id="Grupo_1218" data-name="Grupo 1218" clip-path="url(#clip-path-17)"><path id="Trazado_5912" data-name="Trazado 5912" d="M126.814,249.762a54.778,54.778,0,0,1-2.235-12.813c-.33-4.334-.394-8.685-.307-13.026q.193-6.512.791-12.995l.724-6.466c.319-2.146.6-4.295.954-6.435l-.911,12.961-.36,6.478c-.062,2.161-.195,4.32-.2,6.48-.17,4.32-.09,8.641.073,12.956.068,2.159.242,4.311.454,6.461a46.062,46.062,0,0,0,1.017,6.4" transform="translate(-124.237 -198.027)"></path></g></g></g><g id="Grupo_1223" data-name="Grupo 1223" transform="translate(150.814 177.341)" opacity="0.3"><g id="Grupo_1222" data-name="Grupo 1222"><g id="Grupo_1221" data-name="Grupo 1221" clip-path="url(#clip-path-18)"><path id="Trazado_5913" data-name="Trazado 5913" d="M185.477,285.707c-20.878-13.436-21.708-48.085-20.983-70.942.123-3.932.286-7.5.41-10.567a65.31,65.31,0,0,0-.012-9.234c-2.166-15.727-14.078-17.616-14.078-17.616.017,0,.025-.007.042-.007,13.294,2.443,16.474,12.891,15.705,24.624v0s0,.085-.016.247c0,.1-.016.247-.029.425l0,.1c-.432,7.551-3.21,68.142,18.964,82.97" transform="translate(-150.814 -177.341)"></path></g></g></g><g id="Grupo_1226" data-name="Grupo 1226" transform="translate(126.985 144.957)" opacity="0.2"><g id="Grupo_1225" data-name="Grupo 1225" transform="translate(0)"><g id="Grupo_1224" data-name="Grupo 1224" clip-path="url(#clip-path-19)"><path id="Trazado_5914" data-name="Trazado 5914" d="M183.775,167.333c-1.759,1.836-24.389-2.856-28.338-.761-1.67.886-2.395,4.034-4.072,7.426v.009c-.009.008-.009.016-.018.024-4.718,7.509-11.351,8.684-11.764,8.745,7.922-5.979,10.127-20.444,6.2-29.571-3.911-9.05-17.993-6.764-18.793-6.486A20.3,20.3,0,0,1,134.578,145c7.613-.394,16.9,1.746,19.488,6.559,5.282,9.835,27.921,7.627,30.026,10.2s1.441,3.741-.317,5.568" transform="translate(-126.985 -144.957)"></path></g></g></g><path id="Trazado_5915" data-name="Trazado 5915" d="M166.063,158.6a13.887,13.887,0,0,0-1.572,8.316l19.167,2.157a10.448,10.448,0,0,0,2.437-8.343s-18.995-1.912-20.032-2.13" transform="translate(0 0)" fill="#263238"></path><path id="Trazado_5916" data-name="Trazado 5916" d="M107.85,157.891s-1.907-4.056.377-6.622c-5.117-.464-8.286-.972-11.591-1.486-.481,1.492-.728,2.926.992,5.192s10.222,2.916,10.222,2.916" transform="translate(0 0)" fill="#263238"></path><path id="Trazado_5917" data-name="Trazado 5917" d="M97.2,183.306c-3.316,5.412-6.16,14.071-6.409,27.9" transform="translate(0 0)" fill="none" stroke="#407bff" stroke-linecap="round" stroke-linejoin="round" stroke-width="1"></path><path id="Trazado_5918" data-name="Trazado 5918" d="M108.131,174.385a13.828,13.828,0,0,0-6.426,3.467" transform="translate(0 0)" fill="none" stroke="#407bff" stroke-linecap="round" stroke-linejoin="round" stroke-width="1"></path><path id="Trazado_5919" data-name="Trazado 5919" d="M257.256,122.255l-12.618,1.538s-2.2,23.2-4.236,27.7c0,0-38.815,5.337-54.716,4.874l-8.073,5.48-.278,9.538,7.907.231,2.55-6.043s5.341-.226,6.572-3.238c0,0,41.241,9.964,56.431-1.4,0,0,9.156-13.45,6.461-38.676" transform="translate(0 0)" fill="#ffb27d"></path><g id="Grupo_1229" data-name="Grupo 1229" transform="translate(118.993 277.417)" opacity="0.2"><g id="Grupo_1228" data-name="Grupo 1228" transform="translate(0)"><g id="Grupo_1227" data-name="Grupo 1227" clip-path="url(#clip-path-20)"><path id="Trazado_5920" data-name="Trazado 5920" d="M154.5,300.715c-.366,12.579-8.6,22.543-18.408,22.257a13.852,13.852,0,0,1-3.881-.666c-7.866-2.5-13.525-11.765-13.208-22.625.3-10.493,6.094-19.175,13.7-21.585a14.049,14.049,0,0,1,4.713-.672c9.8.286,17.447,10.712,17.081,23.291" transform="translate(-118.993 -277.418)" fill="#fafafa"></path></g></g></g><path id="Trazado_5921" data-name="Trazado 5921" d="M145.475,300.69c-.313,10.732-5.97,19.562-13.261,21.615-7.866-2.5-13.525-11.765-13.208-22.624.3-10.494,6.1-19.175,13.7-21.586,7.564,2.043,13.09,11.463,12.766,22.595" transform="translate(0 0)" fill="#263238"></path><g id="Grupo_1232" data-name="Grupo 1232" transform="translate(273.066 278.401)" opacity="0.2"><g id="Grupo_1231" data-name="Grupo 1231" transform="translate(0)"><g id="Grupo_1230" data-name="Grupo 1230" clip-path="url(#clip-path-21)"><path id="Trazado_5922" data-name="Trazado 5922" d="M308.576,301.7c-.366,12.579-8.6,22.543-18.408,22.258a13.89,13.89,0,0,1-3.881-.667c-7.866-2.5-13.525-11.765-13.208-22.625.3-10.493,6.094-19.174,13.7-21.585a14.048,14.048,0,0,1,4.713-.672c9.8.286,17.447,10.712,17.081,23.291" transform="translate(-273.066 -278.401)" fill="#fafafa"></path></g></g></g><path id="Trazado_5923" data-name="Trazado 5923" d="M299.548,301.673c-.313,10.732-5.97,19.562-13.261,21.615-7.866-2.5-13.525-11.765-13.208-22.624.3-10.494,6.094-19.175,13.7-21.585,7.564,2.043,13.09,11.462,12.766,22.594" transform="translate(0 0)" fill="#263238"></path><path id="Trazado_5924" data-name="Trazado 5924" d="M324.042,268.533c.168,12.373-18.666,20.563-50.17,25.719a79.192,79.192,0,0,1-25.707.3c-14.028-2.308-20.832-8.221-20.832-8.221s3.562-42.758,38.787-48.172c23.974-3.68,42.057,5.978,51.224,16.424,4.3,4.9,6.643,9.989,6.7,13.951" transform="translate(0 0)" fill="#407bff"></path><g id="Grupo_1235" data-name="Grupo 1235" transform="translate(248.166 248.941)" opacity="0.3"><g id="Grupo_1234" data-name="Grupo 1234" transform="translate(0)"><g id="Grupo_1233" data-name="Grupo 1233" clip-path="url(#clip-path-22)"><path id="Trazado_5925" data-name="Trazado 5925" d="M324.042,268.533c.168,12.373-18.666,20.563-50.17,25.719a79.192,79.192,0,0,1-25.707.3c1.515-11.608,8.3-42.057,37.766-45.22,13.371-1.433,23.693,1.261,31.413,5.251,4.3,4.9,6.643,9.989,6.7,13.951" transform="translate(-248.166 -248.942)"></path></g></g></g><g id="Grupo_1238" data-name="Grupo 1238" transform="translate(229.368 237.2)" opacity="0.3"><g id="Grupo_1237" data-name="Grupo 1237" transform="translate(0)"><g id="Grupo_1236" data-name="Grupo 1236" clip-path="url(#clip-path-23)"><path id="Trazado_5926" data-name="Trazado 5926" d="M229.368,286.517a68.814,68.814,0,0,1,4.135-17.04,61.448,61.448,0,0,1,8.435-15.439,46.377,46.377,0,0,1,6.017-6.472,38.174,38.174,0,0,1,7.163-5.164,41.621,41.621,0,0,1,16.7-5.2,50.057,50.057,0,0,0-8.455,2.176c-1.391.421-2.7,1.071-4.038,1.616-1.282.678-2.6,1.278-3.817,2.074-1.257.719-2.416,1.587-3.61,2.4-1.129.9-2.287,1.771-3.332,2.774a45.715,45.715,0,0,0-5.834,6.4,63.623,63.623,0,0,0-8.514,15.111,79.409,79.409,0,0,0-2.86,8.243,74.012,74.012,0,0,0-1.988,8.517" transform="translate(-229.368 -237.2)"></path></g></g></g><path id="Trazado_5927" data-name="Trazado 5927" d="M182.1,272.394l2.074,7.066,21.813-1.82.288-9.877Z" transform="translate(0 0)" fill="#407bff"></path></g></g><line id="L&#xED;nea_1" data-name="L&#xED;nea 1" y1="1.949" x2="47.988" transform="translate(311.943 222.298)" fill="none" stroke="#407bff" stroke-linecap="round" stroke-linejoin="round" stroke-width="1"></line><line id="L&#xED;nea_2" data-name="L&#xED;nea 2" y1="0.29" x2="7.135" transform="translate(375.788 213.263)" fill="none" stroke="#407bff" stroke-linecap="round" stroke-linejoin="round" stroke-width="1"></line><line id="L&#xED;nea_3" data-name="L&#xED;nea 3" y1="1.437" x2="35.382" transform="translate(334.936 213.775)" fill="none" stroke="#407bff" stroke-linecap="round" stroke-linejoin="round" stroke-width="1"></line><line id="L&#xED;nea_4" data-name="L&#xED;nea 4" y1="1.204" x2="29.653" transform="translate(359.7 238.855)" fill="none" stroke="#407bff" stroke-linecap="round" stroke-linejoin="round" stroke-width="1"></line><line id="L&#xED;nea_5" data-name="L&#xED;nea 5" y1="0.525" x2="12.926" transform="translate(341.366 240.279)" fill="none" stroke="#407bff" stroke-linecap="round" stroke-linejoin="round" stroke-width="1"></line></g></svg>