<svg xmlns="http://www.w3.org/2000/svg" width="660.94" height="260.001" viewBox="0 0 660.94 260.001"><g id="Grupo_960" data-name="Grupo 960" transform="translate(-2480 -9872.951)"><path id="Trazado_5493" data-name="Trazado 5493" d="M671.113,259.236S739.8,187.4,682.73,109.62c-50.64-69.009-109.681-64.291-153-36.287-18.45,11.927-85.223,66.119-130.5-4.1-61.74-95.76-262.172-102.331-223.151,45,18.884,71.3-75.589,73.888-36.684,145.156Z" transform="translate(2380.049 9872.95)" fill="#ebf3fa"></path><path id="Trazado_5494" data-name="Trazado 5494" d="M335.523,704.972s-19.276,8.4-22.775,8.245-25.059-6.567-25.059-6.567l.549,3.709s16.639,9.569,22.456,10.112c5.727.535,25.31-5.14,27.2-6.338s3.123-7.949-2.371-9.161" transform="translate(2258.649 9330.538)" fill="#ed985f"></path><path id="Trazado_5495" data-name="Trazado 5495" d="M473.089,569.817s7.111-1.351,10.653,1.236c6.415,4.685,6.76,20.837,9.164,23.243s8.2,1.38,8.716,13.829-2.308,13.491,1.055,19.048-1.422,11.12-1.422,11.12,1.96-3.068,1.12-5.282c0,0-.816,4.887-3.92,6.032s-3.564,1.985-4.06,3.665c0,0-26.486-13.572-26.515-23.2s-5.212-19.162-2.667-23.333a9.227,9.227,0,0,0-1.273,3.77,4.963,4.963,0,0,1,1.12-5.65c2.647-2.724-3.105-8.362-2.253-14.89.585-4.482,3.73-9.392,10.283-9.588" transform="translate(2123.979 9434.799)" fill="#233862"></path><path id="Trazado_5496" data-name="Trazado 5496" d="M484.971,677.283a18.543,18.543,0,0,0,6.48,2.758c9.989,2.308,13.817-6.134,15.254-11.929a8.583,8.583,0,0,0-3.384-1.04c-.722-.085-1.481-.142-2.11-.173-1.122-.859-2.793-4.375-3.163-9.834l-.47.126-7.872,2.155s.361,2.5.537,4.868c.137,1.851.158,3.62-.193,4.053-.614.133-.983.22-.983.22a.02.02,0,0,1,0,.007,50.7,50.7,0,0,0-4.094,8.79" transform="translate(2106.858 9367.398)" fill="#ffb27d"></path><path id="Trazado_5497" data-name="Trazado 5497" d="M505.507,659.772s.362,2.5.537,4.868c4.46-.446,6.53-4.693,7.336-7.022Z" transform="translate(2091.057 9366.973)" fill="#ed985f"></path><path id="Trazado_5498" data-name="Trazado 5498" d="M485.02,616.5s10.586-.584,10.121-7.171.588-11.1-6.191-11-7.913,2.7-8.292,4.937,1.6,13.221,4.362,13.238" transform="translate(2110.213 9412.595)" fill="#ffb27d"></path><path id="Trazado_5499" data-name="Trazado 5499" d="M475.76,595.046c1.492-2.1,2.759-1.752,3.493-1.206a7.41,7.41,0,0,1,9.613.839,12.614,12.614,0,0,0,4.649,7.138s-1.842,1.329-6.367.505a7.572,7.572,0,0,1-3.777-2.225,24.732,24.732,0,0,0,4.617,4.881c-5.483-2.073-8.144-9.3-8.412-10.066a8.306,8.306,0,0,0-2.085,3.238c-.407,1.715-2.162,4.4-3.177,4.351,0,0-.792-4.307,1.446-7.454" transform="translate(2115.163 9417.126)" fill="#233862"></path><path id="Trazado_5500" data-name="Trazado 5500" d="M488.163,727.921c.956-4.887,4.073-24.413.956-30.7-1.119-2.257-5.512-2.461-10.332-2.263-1.5.968-7.214,4.627-9.562,4.17-.025,0-.071-.016-.132-.031-1.105-.277-1.523-1.053-.6-1.723a21.034,21.034,0,0,0-5.352.328c-1.674.315-6.19,2.652-6.19,2.652s2.274,4.108,5.628,5.527c-.57,5.1.278,7.351,5.569,19.133,4.472,9.959-.6,18.925-.6,18.925s26.323,21.164,26.469,10.388c.11-8.113-7.074-20.165-5.852-26.411" transform="translate(2128.416 9338.283)" fill="#b5453c"></path><path id="Trazado_5501" data-name="Trazado 5501" d="M415.065,814.187a4.894,4.894,0,0,1-3.521-2.143q-.191-.285-.407-.613c-3-4.536-4.162-18.427-10.9-33.226-1.642-3.6-7.534-4.251-9.141-8.324,0,0-3.955-13.2,7.57-13.59s30.864,36.73,31.169,40.623c.3,3.771,7.619,19.8-14.769,17.272" transform="translate(2179.591 9291.054)" fill="#dd6d22"></path><path id="Trazado_5502" data-name="Trazado 5502" d="M298.593,977.669H315a6.818,6.818,0,0,0-.464-4.4c-.953-1.575-.588-2.473.118-3.776a6.38,6.38,0,0,1-2.763.52,5.777,5.777,0,0,1-2.439-.858,59.033,59.033,0,0,1-4.673,4.91c-1.072.77-5.852.5-6.182,3.6" transform="translate(2250.259 9127.269)" fill="#9e332e"></path><path id="Trazado_5503" data-name="Trazado 5503" d="M502.049,727.166s2.135,19.423-11.711,23.493-17.776-17.871-6.6-19.449a107.651,107.651,0,0,0,18.307-4.044" transform="translate(2112.801 9313.461)" fill="#9e332e"></path><path id="Trazado_5504" data-name="Trazado 5504" d="M351.478,758.369c-.988,7.4-4.845,30.776-11.649,42.179-2.194,3.676,5.527,5.737,5.568,5.726,1.036-.271,2.76-1.922,3.555-2.638,5.524-4.978,16.737-19.075,16.737-30.376,0-5.51.1-16.034-3.91-18.709-2.467-1.647-9.909.878-10.3,3.819" transform="translate(2218.833 9292.793)" fill="#ed7d2b"></path><path id="Trazado_5505" data-name="Trazado 5505" d="M457.534,811.075s-.608-.846-1.668-2.453c-1.262-1.91-2.658-5.671-4.351-10.49-1.779-5.06-3.89-11.284-6.527-17.761-.814-2-1.678-4.023-2.6-6.043-1.642-3.6-6.158-3.1-7.764-7.178,0,0-6.269-14.119,5.255-14.508s33.423,37.77,34.682,41.465c1.378,4.045,8.1,20.845-17.029,16.969" transform="translate(2146.904 9293.862)" fill="#f99746"></path><path id="Trazado_5506" data-name="Trazado 5506" d="M350.811,977.669h16.4a6.817,6.817,0,0,0-.464-4.4c-.953-1.575-.588-2.473.118-3.776a6.38,6.38,0,0,1-2.763.52,5.778,5.778,0,0,1-2.439-.858,59.023,59.023,0,0,1-4.673,4.91c-1.072.77-5.852.5-6.182,3.6" transform="translate(2210.082 9127.269)" fill="#b5453c"></path><path id="Trazado_5507" data-name="Trazado 5507" d="M491.77,854.2c-1.779-5.06-3.89-11.285-6.527-17.761.689-4.907,2.175-9.2,4.673-10.93,0,0,6.061,18.779,1.854,28.692" transform="translate(2106.648 9237.799)" fill="#ed7d2b"></path><path id="Trazado_5508" data-name="Trazado 5508" d="M401.23,758.823c-.988,7.4-2.379,31.3-9.183,42.7-2.193,3.676,5.527,5.737,5.568,5.726,1.036-.271,2.76-1.922,3.556-2.638,5.524-4.978,16.737-19.075,16.737-30.376,0-5.51-6.467-15.592-10.474-18.267a4.03,4.03,0,0,0-6.2,2.852" transform="translate(2178.656 9291.813)" fill="#f99746"></path><path id="Trazado_5509" data-name="Trazado 5509" d="M275.958,664.894l16.8-1.784a1.084,1.084,0,0,1,1.128.693l6.01,15.792a1.084,1.084,0,0,1-.97,1.469l-16.668.673a1.085,1.085,0,0,1-1.044-.665l-6.14-14.681a1.084,1.084,0,0,1,.886-1.5" transform="translate(2268.422 9362.751)" fill="#9e332e"></path><path id="Trazado_5510" data-name="Trazado 5510" d="M269.63,665.556l16.8-1.784a1.084,1.084,0,0,1,1.128.693l6.01,15.793a1.084,1.084,0,0,1-.97,1.469l-16.668.673a1.084,1.084,0,0,1-1.044-.665l-6.14-14.681a1.084,1.084,0,0,1,.886-1.5" transform="translate(2273.291 9362.243)" fill="#b5453c"></path><path id="Trazado_5511" data-name="Trazado 5511" d="M313.028,700.1a.691.691,0,0,1,.649-1.021,1.615,1.615,0,0,1,1.392,1.021.691.691,0,0,1-.649,1.021,1.615,1.615,0,0,1-1.392-1.021" transform="translate(2239.203 9335.07)" fill="#9e332e"></path><path id="Trazado_5512" data-name="Trazado 5512" d="M274.94,676.329a.339.339,0,0,1,.319-.5.794.794,0,0,1,.684.5.34.34,0,0,1-.319.5.794.794,0,0,1-.684-.5" transform="translate(2268.483 9352.962)" fill="#9e332e"></path><path id="Trazado_5513" data-name="Trazado 5513" d="M379.335,696.785s-23.281,8.574-26.779,8.4c-2.261-.114-21.055-6.72-21.055-6.72s-1.394-2.145-2.91-2.593c0,0-2.672-1.225-3.435-1.454s-.611,0-.382.727a2.633,2.633,0,0,0,.929,1.039c-1.284.353-2.552.831-3.143.945-.993.191-3.818,1.107-2.978,2.482s4.734,1.68,6.414,1.375a7.784,7.784,0,0,1,3.818.672s18.292,11.757,23.321,11.7c9.928-.115,26.681-6.209,28.571-7.407s3.123-7.949-2.371-9.161" transform="translate(2234.228 9338.725)" fill="#ffb27d"></path><path id="Trazado_5514" data-name="Trazado 5514" d="M280.159,696.923s1.684-2.665,2.236-2.773c1.68-.332,1.68,1.881,1.324,3.308-.382,1.531-1.677,2.976-2.034,2.85s-1.922-1.977-1.526-3.384" transform="translate(2264.492 9338.891)" fill="#ffb27d"></path><path id="Trazado_5515" data-name="Trazado 5515" d="M279.959,708.607a4.459,4.459,0,0,0,2.3,4.549Z" transform="translate(2264.628 9327.741)" fill="#ffb27d"></path><path id="Trazado_5516" data-name="Trazado 5516" d="M491.137,659.924a9.776,9.776,0,0,1,3.817-.168s-.149,1.1-2.227,1.207a1.657,1.657,0,0,1-1.59-1.04" transform="translate(2102.114 9365.381)" fill="#fff"></path><path id="Trazado_5517" data-name="Trazado 5517" d="M527.211,707.4a12.792,12.792,0,0,0,9.233,8.092s11.809-3.638,5.929-11.683c0,0-5.814-4.32-15.163,3.592" transform="translate(2074.358 9332.341)" fill="#b5453c"></path><path id="Trazado_5518" data-name="Trazado 5518" d="M491.446,158.353c0-.666.015-1.347.03-2.013a55.535,55.535,0,0,1,2.516-14.564c-1.243.044-2.442.118-3.6.192a56.667,56.667,0,0,0-2.191,12.314c-.089,1.243-.133,2.487-.148,3.745v.326c0,1.258.044,2.516.119,3.76,1.14.533,2.309,1.036,3.537,1.539-.119-1.184-.207-2.383-.237-3.582-.015-.577-.03-1.14-.03-1.717m108.637-22.689a58.39,58.39,0,0,0-76.416-31.037c-.858.37-1.717.755-2.546,1.155-1.377.666-2.738,1.376-4.041,2.146a57.313,57.313,0,0,0-11.944,9.206c-.755.74-1.48,1.51-2.191,2.309-.888.977-1.731,2-2.545,3.034a58.735,58.735,0,0,0-3.612,5.165c-.622.992-1.2,2.013-1.761,3.034-.873,1.613-1.658,3.271-2.383,4.988-.548,1.288-1.036,2.575-1.48,3.893-.281.8-.533,1.6-.769,2.413a56.667,56.667,0,0,0-2.191,12.314c-.089,1.243-.133,2.487-.148,3.745v.326c0,1.258.044,2.516.119,3.76.059,1.021.163,2.042.281,3.064a57.014,57.014,0,0,0,4.188,15.867,58.317,58.317,0,0,0,107.2.547c.074-.178.163-.37.237-.547.326-.77.636-1.539.918-2.309a58.405,58.405,0,0,0-.918-43.07M597,179.651c-.015.03-.015.044-.03.074-.37.858-.755,1.717-1.169,2.56a54.959,54.959,0,0,1-100.053-2.56,53.975,53.975,0,0,1-3.671-13.084c-.163-.992-.281-1.983-.37-2.99-.119-1.184-.207-2.383-.237-3.582-.015-.577-.03-1.14-.03-1.717,0-.666.015-1.347.03-2.013a55.535,55.535,0,0,1,2.516-14.564c.251-.8.518-1.584.814-2.368.3-.814.607-1.628.947-2.427.488-1.125.992-2.235,1.539-3.315.518-1.036,1.066-2.043,1.643-3.034a55.133,55.133,0,0,1,5.536-7.8c.858-1.006,1.746-1.983,2.679-2.931l.385-.385a54.938,54.938,0,0,1,14.149-10.242c1.081-.548,2.176-1.051,3.3-1.524.3-.133.607-.252.9-.37A54.957,54.957,0,0,1,597,179.651" transform="translate(2104.483 9795.969)" fill="#adcbf9"></path><path id="Trazado_5519" data-name="Trazado 5519" d="M548.218,301.421l-4.514-.1c1.45,1.88,1.776,3.612.873,5.077-.9,1.495-3.064,2.723-6.29,3.656a36.555,36.555,0,0,1-4,.918,89.9,89.9,0,0,1-14.638,1.184c-14.564.178-32.65-1.806-50.914-5.55a245.343,245.343,0,0,1-33.183-9.087c-1.451-.518-2.857-1.051-4.2-1.584-.8-.311-1.584-.636-2.353-.962-1.229-.5-2.4-1.007-3.537-1.539-.8-.355-1.569-.725-2.324-1.1-10.494-5.121-15.289-10.064-13.143-13.572,1.731-2.842,8.037-4.766,17.687-5.476,1.154-.074,2.353-.148,3.6-.192.252-.8.518-1.584.814-2.368-1.258.03-2.472.089-3.641.148-12.166.725-18.678,2.866-21.047,6.744-2.753,4.514,1.006,10.573,13.039,16.463,1.658.814,3.434,1.613,5.3,2.412,1.169.489,2.383.977,3.626,1.465l1.732.666c1.421.533,2.871,1.066,4.366,1.584a258.751,258.751,0,0,0,31.94,8.584,270.823,270.823,0,0,0,46.5,5.654c2.043.059,4.026.059,5.95.044a105.848,105.848,0,0,0,13.232-.888c1.436-.192,2.783-.429,4.041-.7,5.935-1.229,9.843-3.153,11.4-5.7,1.08-1.761.947-3.715-.311-5.787" transform="translate(2167.198 9664.653)" fill="#adcbf9"></path><path id="Trazado_5520" data-name="Trazado 5520" d="M587.316,177.948c-.057.106-.119.21-.182.311-1.785,2.834-5.775,4.3-11.377,4.3a46.2,46.2,0,0,1-9.082-1.015c-11.022-2.236-24.052-7.852-36.688-15.815-12.421-7.826-22.96-16.973-29.749-25.809-.119-.154-.234-.307-.35-.459q-.966-1.281-1.8-2.523c-4.951-7.351-6.44-13.584-4.068-17.348,1.785-2.834,5.775-4.3,11.377-4.3a46.22,46.22,0,0,1,9.082,1.015q1.909.386,3.895.91,2.261.589,4.6,1.351,1.624-.82,3.311-1.532c.3-.126.6-.25.9-.37q-2.418-.876-4.771-1.593c-2.508-.765-4.95-1.392-7.307-1.87-11.9-2.414-20.337-.745-23.766,4.7-3.264,5.178-1.486,12.973,4.992,22.064q.5.7,1.028,1.4.6.791,1.231,1.583c7.023,8.779,17.492,17.76,29.709,25.457,12.952,8.161,26.358,13.928,37.747,16.239a49.228,49.228,0,0,0,9.7,1.079c6.793,0,11.66-1.961,14.063-5.777a9.976,9.976,0,0,0,.967-2Z" transform="translate(2103.187 9786.682)" fill="#adcbf9"></path><path id="Trazado_5521" data-name="Trazado 5521" d="M626.355,224.473a5.777,5.777,0,0,1-1.978-.341c-10-3.628-5.377-33.218,4.052-59.217,8.721-24.046,22.813-48.388,32.873-48.388a5.786,5.786,0,0,1,1.978.341c5.7,2.066,6.043,12.259,5.331,20.446-.951,10.941-4.284,24.711-9.383,38.772-8.721,24.046-22.813,48.388-32.873,48.388M661.3,119.615c-6.328,0-19.585,17.722-29.969,46.353-5.01,13.815-8.281,27.306-9.21,37.986-1,11.49,1.053,16.458,3.307,17.275a2.658,2.658,0,0,0,.925.156c6.328,0,19.585-17.722,29.969-46.352,5.01-13.815,8.281-27.305,9.21-37.986,1-11.49-1.053-16.457-3.307-17.275a2.668,2.668,0,0,0-.925-.156" transform="translate(2003.914 9783.294)" fill="#adcbf9"></path><path id="Trazado_5522" data-name="Trazado 5522" d="M661.739,187.048a134.968,134.968,0,0,1-30.409-3.168c-10.87-2.524-20.215-6.55-27.777-11.968-13.014-9.324-16.212-19.461-16.342-19.889l2.954-.9c.03.1,3.121,9.721,15.4,18.433,11.413,8.1,33.3,17.041,72.79,13.668l.263,3.077q-8.763.748-16.88.748" transform="translate(2028.193 9756.676)" fill="#adcbf9"></path><path id="Trazado_5523" data-name="Trazado 5523" d="M587.028,460.8A153.213,153.213,0,0,0,530,434.315c-15.233-3.467-25.432-3.141-25.533-3.136l-.113-3.087c.43-.016,10.708-.345,26.331,3.211a156.33,156.33,0,0,1,58.191,27.023Z" transform="translate(2091.948 9543.584)" fill="#adcbf9"></path><path id="Trazado_5524" data-name="Trazado 5524" d="M2270.312,1029.223a12.192,12.192,0,0,1-12.192,12.191H2158.8v-23.641h100.062a11.429,11.429,0,0,1,11.447,11.449" transform="translate(818.993 9089.863)" fill="#f99746"></path><path id="Trazado_5525" data-name="Trazado 5525" d="M1822.365,1029.462a11.914,11.914,0,0,1-3.463,8.416l-.037.037a11.915,11.915,0,0,1-8.45,3.5H1697.574v-23.641h113.105a11.688,11.688,0,0,1,11.685,11.688" transform="translate(1173.867 9089.863)" fill="#fcecdb"></path><path id="Trazado_5526" data-name="Trazado 5526" d="M1812.426,1106.727a1.768,1.768,0,0,1-1.767,1.77H1674.238a1.768,1.768,0,1,1,0-3.537h136.421a1.768,1.768,0,0,1,1.767,1.767" transform="translate(1193.184 9022.782)" fill="#ed7d2b"></path><path id="Trazado_5527" data-name="Trazado 5527" d="M1812.426,1019.541a1.768,1.768,0,0,1-1.767,1.77H1674.238a1.768,1.768,0,1,1,0-3.537h136.421a1.768,1.768,0,0,1,1.767,1.767" transform="translate(1193.184 9089.863)" fill="#ed7d2b"></path><path id="Trazado_5528" data-name="Trazado 5528" d="M1697.578,1069.035l15.129.4-15.129.24Z" transform="translate(1173.864 9050.424)" fill="#f4d2b8"></path><path id="Trazado_5529" data-name="Trazado 5529" d="M1697.578,1085.12l35.994.4-35.994.24Z" transform="translate(1173.864 9038.047)" fill="#f4d2b8"></path><path id="Trazado_5530" data-name="Trazado 5530" d="M2260.708,1017.92l-32.655,23.494H2158.8v-23.641h100.062a11.549,11.549,0,0,1,1.843.147" transform="translate(818.993 9089.864)" fill="#ed7d2b"></path><path id="Trazado_5531" data-name="Trazado 5531" d="M678.985,1027.542H610.679v-27.8h69.049a11.437,11.437,0,0,1,11.437,11.437v4.182a12.179,12.179,0,0,1-12.179,12.179" transform="translate(2010.137 9103.736)" fill="#86d1cd"></path><path id="Trazado_5532" data-name="Trazado 5532" d="M356.484,1027.542h-78.7v-27.8h78.956a11.115,11.115,0,0,1,11.115,11.115v5.316a11.367,11.367,0,0,1-11.367,11.367" transform="translate(2266.273 9103.736)" fill="#fcecdb"></path><path id="Trazado_5533" data-name="Trazado 5533" d="M358.912,1106.423H261.426a1.766,1.766,0,0,1-1.766-1.766v-.625a1.766,1.766,0,0,1,1.766-1.766h97.486a1.766,1.766,0,0,1,1.766,1.766v.625a1.766,1.766,0,0,1-1.766,1.766" transform="translate(2280.215 9024.854)" fill="#86d1cd"></path><path id="Trazado_5534" data-name="Trazado 5534" d="M358.912,1003.9H261.426a1.766,1.766,0,0,1-1.766-1.766v-.625a1.766,1.766,0,0,1,1.766-1.766h97.486a1.766,1.766,0,0,1,1.766,1.766v.625a1.766,1.766,0,0,1-1.766,1.766" transform="translate(2280.215 9103.735)" fill="#86d1cd"></path><path id="Trazado_5535" data-name="Trazado 5535" d="M277.78,1060.021l10.92.467-10.92.281Z" transform="translate(2266.273 9057.358)" fill="#f4d2b8"></path><path id="Trazado_5536" data-name="Trazado 5536" d="M277.78,1078.935l25.979.467-25.979.281Z" transform="translate(2266.273 9042.807)" fill="#f4d2b8"></path><path id="Trazado_5537" data-name="Trazado 5537" d="M1039.717,561.834,1029.577,682.4s-1.062,7.308,4.374,7.321c8.938.021,44.489,0,44.489,0s-6.728-1.521-6.646-4.944c.1-4.035,11.851-124.084,11.851-124.084Z" transform="translate(1687.896 9441.548)" fill="#d86713"></path><path id="Trazado_5538" data-name="Trazado 5538" d="M1091.074,680.235c-1.758.005-35.713.112-44.418,0-3.794-.047-4.459-3.373-4.49-5.525a10.793,10.793,0,0,1,.115-1.795l.264-3.134.672-7.987.593-7.056.763-9.067.642-7.654,7.205-85.67,43.929-1.14s-4.951,50.24-8.453,86.81c-.391,4.075-.763,7.982-1.107,11.629q-.168,1.747-.323,3.411c-.325,3.46-.622,6.638-.88,9.443-.136,1.479-.262,2.852-.375,4.111-.447,4.932-.709,8.081-.712,8.68a5.055,5.055,0,0,0,.086.976c.721,3.843,5.829,3.968,6.489,3.968" transform="translate(1678.146 9448.847)" fill="#ee9849"></path><path id="Trazado_5539" data-name="Trazado 5539" d="M611.174,281.118l24.7,99.211,3.382,13.587,11.5,46.21H864.477l-42.4-159.008Z" transform="translate(2009.756 9656.655)" fill="#f1a34f"></path><path id="Trazado_5540" data-name="Trazado 5540" d="M599.75,281.118l-3.423,1.141,38.457,161.319,4.551-3.451Z" transform="translate(2021.179 9656.655)" fill="#ee9849"></path><path id="Trazado_5541" data-name="Trazado 5541" d="M763.105,974.145h212.4l5.865-3.451H767.657Z" transform="translate(1892.858 9126.088)" fill="#d86713"></path><rect id="Rect&#xE1;ngulo_3392" data-name="Rect&#xE1;ngulo 3392" width="45.988" height="2.186" transform="translate(2730.553 10129.13)" fill="#f1a34f"></rect><path id="Trazado_5542" data-name="Trazado 5542" d="M852.983,410.827,818.3,283.22H609.692v-2.1H820.936L855.5,410.543Z" transform="translate(2010.896 9656.655)" fill="#f1a34f"></path><path id="Trazado_5543" data-name="Trazado 5543" d="M1090.216,985.657l-.238,1.671-43.25,8.738.594-7.057.283-3.352Z" transform="translate(1674.635 9114.574)" fill="#d86713"></path><path id="Trazado_5544" data-name="Trazado 5544" d="M1091.079,1065.308c-1.758.005-35.713.112-44.418,0-3.794-.047-4.458-3.373-4.49-5.525l43.046-8.1c-.447,4.932-.709,8.081-.712,8.68a5.046,5.046,0,0,0,.085.976c.721,3.843,5.829,3.968,6.489,3.968" transform="translate(1678.142 9063.773)" fill="#e78b37"></path><path id="Trazado_5545" data-name="Trazado 5545" d="M838.34,784.314,744.457,816.5l-11.5-46.21Z" transform="translate(1916.058 9280.278)" fill="#e78b37"></path><path id="Trazado_5546" data-name="Trazado 5546" d="M611.172,281.118h210.9L856.295,408.91H641.9Z" transform="translate(2009.757 9656.655)" fill="#699dee"></path><path id="Trazado_5547" data-name="Trazado 5547" d="M1232.6,886.443a7.227,7.227,0,0,0-6.778-5.675,4.541,4.541,0,0,0-4.572,5.675,7.227,7.227,0,0,0,6.778,5.674,4.541,4.541,0,0,0,4.572-5.674" transform="translate(1540.435 9195.278)" fill="#d86713"></path><path id="Trazado_5548" data-name="Trazado 5548" d="M875.5,426.213H678.03l-22.363-89.087-1.714-6.832-1.463-5.827L649.06,310.8H843.683l3.766,13.664,1.607,5.827,1.883,6.832Z" transform="translate(1980.606 9633.815)" fill="#e9f3fe"></path><path id="Trazado_5549" data-name="Trazado 5549" d="M847.449,324.468H652.489L649.06,310.8H843.683Z" transform="translate(1980.606 9633.815)" fill="#afcdfb"></path><path id="Trazado_5550" data-name="Trazado 5550" d="M683.8,331.884a1.29,1.29,0,0,1,1.282-1.708,2.333,2.333,0,0,1,2.134,1.708,1.291,1.291,0,0,1-1.282,1.708,2.333,2.333,0,0,1-2.134-1.708" transform="translate(1953.917 9618.909)" fill="#e9f3fe"></path><path id="Trazado_5551" data-name="Trazado 5551" d="M708.412,331.884a1.29,1.29,0,0,1,1.282-1.708,2.333,2.333,0,0,1,2.134,1.708,1.29,1.29,0,0,1-1.282,1.708,2.334,2.334,0,0,1-2.134-1.708" transform="translate(1934.98 9618.909)" fill="#e9f3fe"></path><path id="Trazado_5552" data-name="Trazado 5552" d="M734.915,331.884a1.29,1.29,0,0,1,1.282-1.708,2.333,2.333,0,0,1,2.134,1.708,1.291,1.291,0,0,1-1.282,1.708,2.333,2.333,0,0,1-2.134-1.708" transform="translate(1914.589 9618.909)" fill="#e9f3fe"></path><path id="Trazado_5553" data-name="Trazado 5553" d="M793.1,728.475a7.375,7.375,0,1,1,7.371,7.137,7.257,7.257,0,0,1-7.371-7.137" transform="translate(1869.782 9317.945)" fill="#699dee"></path><path id="Trazado_5554" data-name="Trazado 5554" d="M817.877,733.36l4.235,3.662a.788.788,0,0,1-.008,1.206l-4.163,3.512a.834.834,0,0,1-1.376-.6l-.073-7.174a.834.834,0,0,1,1.384-.608" transform="translate(1851.781 9308.854)" fill="#e9f3fe"></path><path id="Trazado_5555" data-name="Trazado 5555" d="M1034.9,751.38a1.352,1.352,0,0,1-1.345,1.345H883.13a1.345,1.345,0,0,1,0-2.69h150.425a1.35,1.35,0,0,1,1.345,1.345" transform="translate(1801.545 9295.865)" fill="#afcdfb"></path><path id="Trazado_5556" data-name="Trazado 5556" d="M899.875,750.035v2.69H883.13a1.345,1.345,0,0,1,0-2.69Z" transform="translate(1801.545 9295.865)" fill="#699dee"></path><path id="Trazado_5557" data-name="Trazado 5557" d="M964.855,470.737H834.087l-14.811-53.524-1.135-4.1-.967-3.5L814.9,401.4H943.786l2.493,8.209,1.064,3.5,1.248,4.1Z" transform="translate(1853.006 9564.109)" fill="#afcdfb"></path><path id="Trazado_5558" data-name="Trazado 5558" d="M1214,454.115h-43l-4.87-17.6-.373-1.349-.318-1.151-.747-2.7h42.376l.82,2.7.35,1.151.41,1.349Z" transform="translate(1583.873 9541.09)" fill="#e9f3fe"></path><path id="Trazado_5559" data-name="Trazado 5559" d="M1211.736,484.891h-14.907l-1.688-6.1-.129-.468-.11-.4-.259-.936h14.693l.284.936.122.4.142.468Z" transform="translate(1560.83 9505.952)" fill="#afcdfb"></path><rect id="Rect&#xE1;ngulo_3393" data-name="Rect&#xE1;ngulo 3393" width="17.096" height="7.905" transform="translate(2755.47 9982.938)" fill="none"></rect><path id="Trazado_5560" data-name="Trazado 5560" d="M1294.043,484.891h-14.908l-1.688-6.1-.129-.468-.11-.4-.259-.936h14.693l.284.936.121.4.142.468Z" transform="translate(1497.502 9505.952)" fill="#afcdfb"></path><rect id="Rect&#xE1;ngulo_3394" data-name="Rect&#xE1;ngulo 3394" width="17.094" height="7.905" transform="translate(2774.45 9982.938)" fill="none"></rect><path id="Trazado_5561" data-name="Trazado 5561" d="M1212.551,443.256h-27.246a.388.388,0,0,1,0-.776h27.246a.388.388,0,0,1,0,.776" transform="translate(1568.312 9532.502)" fill="#afcdfb"></path><path id="Trazado_5562" data-name="Trazado 5562" d="M1216.927,452.346h-27.246a.388.388,0,1,1,0-.776h27.246a.388.388,0,1,1,0,.776" transform="translate(1564.944 9525.508)" fill="#afcdfb"></path><path id="Trazado_5563" data-name="Trazado 5563" d="M1225.752,465.226h-30.676a.437.437,0,0,1,0-.874h30.676a.437.437,0,0,1,0,.874" transform="translate(1560.83 9515.673)" fill="#afcdfb"></path><path id="Trazado_5564" data-name="Trazado 5564" d="M1248.837,573.456h-43l-4.87-17.6-.373-1.349-.318-1.151-.748-2.7h42.376l.82,2.7.35,1.151.41,1.349Z" transform="translate(1557.066 9449.268)" fill="#e9f3fe"></path><path id="Trazado_5565" data-name="Trazado 5565" d="M1246.577,604.232h-14.908l-1.688-6.1-.129-.468-.11-.4-.259-.936h14.693l.284.936.121.4.142.468Z" transform="translate(1534.023 9414.13)" fill="#afcdfb"></path><rect id="Rect&#xE1;ngulo_3395" data-name="Rect&#xE1;ngulo 3395" width="17.096" height="7.905" transform="translate(2763.504 10010.457)" fill="none"></rect><path id="Trazado_5566" data-name="Trazado 5566" d="M1328.884,604.232h-14.907l-1.688-6.1-.129-.468-.11-.4-.259-.936h14.693l.284.936.121.4.142.468Z" transform="translate(1470.694 9414.13)" fill="#afcdfb"></path><rect id="Rect&#xE1;ngulo_3396" data-name="Rect&#xE1;ngulo 3396" width="17.096" height="7.905" transform="translate(2782.484 10010.457)" fill="none"></rect><path id="Trazado_5567" data-name="Trazado 5567" d="M1247.393,562.6h-27.246a.388.388,0,0,1,0-.776h27.246a.388.388,0,1,1,0,.776" transform="translate(1541.504 9440.678)" fill="#afcdfb"></path><path id="Trazado_5568" data-name="Trazado 5568" d="M1251.769,571.687h-27.246a.388.388,0,0,1,0-.776h27.246a.388.388,0,0,1,0,.776" transform="translate(1538.137 9433.686)" fill="#afcdfb"></path><path id="Trazado_5569" data-name="Trazado 5569" d="M1254.966,580.775H1227.72a.388.388,0,1,1,0-.776h27.246a.388.388,0,0,1,0,.776" transform="translate(1535.677 9426.693)" fill="#afcdfb"></path><path id="Trazado_5570" data-name="Trazado 5570" d="M368.223,1055.694a7.2,7.2,0,0,0-3.162,3.015,3.062,3.062,0,0,0-.246,1.049c-.131,2.491,0,8.127,0,8.127l-7.013-2.818-7,2.818v-7.64a4.875,4.875,0,0,1,1.715-3.77,3.068,3.068,0,0,1,1.938-.781Z" transform="translate(2210.086 9060.688)" fill="#f99746"></path><path id="Trazado_5571" data-name="Trazado 5571" d="M368.891,1055.694a7.2,7.2,0,0,0-3.162,3.015l-14.055.112a4.178,4.178,0,0,1,3.452-3.127Z" transform="translate(2209.418 9060.688)" fill="#ed7d2b"></path><path id="Trazado_5572" data-name="Trazado 5572" d="M1858.839,898.67h84.047V862.7H1857.9a14.46,14.46,0,0,0-14.46,14.46v6.106a15.4,15.4,0,0,0,15.4,15.4" transform="translate(1061.636 9209.176)" fill="#b5453c"></path><path id="Trazado_5573" data-name="Trazado 5573" d="M2217.774,898.67h96.918V862.7h-97.237a14.054,14.054,0,0,0-14.053,14.053V884.3a14.372,14.372,0,0,0,14.372,14.372" transform="translate(784.678 9209.176)" fill="#fcecdb"></path><path id="Trazado_5574" data-name="Trazado 5574" d="M2169.366,1000.731h120.35a2.233,2.233,0,0,0,2.233-2.233v-.913a2.233,2.233,0,0,0-2.233-2.233h-120.35a2.233,2.233,0,0,0-2.233,2.233v.913a2.232,2.232,0,0,0,2.233,2.233" transform="translate(812.583 9107.116)" fill="#b5453c"></path><path id="Trazado_5575" data-name="Trazado 5575" d="M2169.366,868.083h120.35a2.233,2.233,0,0,0,2.233-2.233v-.913a2.233,2.233,0,0,0-2.233-2.233h-120.35a2.233,2.233,0,0,0-2.233,2.233v.913a2.233,2.233,0,0,0,2.233,2.233" transform="translate(812.583 9209.176)" fill="#b5453c"></path><path id="Trazado_5576" data-name="Trazado 5576" d="M2641.016,940.692l-13.493.6,13.493.364Z" transform="translate(458.354 9149.172)" fill="#f4d2b8"></path><path id="Trazado_5577" data-name="Trazado 5577" d="M2578.929,904.8l-32.1.6,32.1.364Z" transform="translate(520.44 9176.79)" fill="#f4d2b8"></path><path id="Trazado_5578" data-name="Trazado 5578" d="M2548.263,906.9a6.743,6.743,0,0,1,2.82,3.015,3.386,3.386,0,0,1,.219,1.049c.117,2.491,0,8.128,0,8.128l6.255-2.818,6.238,2.818v-7.64a5.143,5.143,0,0,0-1.529-3.77,2.585,2.585,0,0,0-1.728-.781Z" transform="translate(519.338 9175.175)" fill="#b5453c"></path><path id="Trazado_5579" data-name="Trazado 5579" d="M2548.263,906.9a6.743,6.743,0,0,1,2.82,3.015l12.534.112a4,4,0,0,0-3.079-3.127Z" transform="translate(519.338 9175.175)" fill="#9e3732"></path><path id="Trazado_5580" data-name="Trazado 5580" d="M1738.611,688.389s-4.467,2.54-5.718,2.54-6.16-.949-7.528-.25a16.006,16.006,0,0,0-4.31,4.431c-.835,1.652,3.364.923,5.349-.485a1.252,1.252,0,0,1,.992-.2c1.028.224,3.165.613,4.2.231,1.386-.513,8.692-1.083,8.692-1.083Z" transform="translate(1155.884 9343.297)" fill="#e49963"></path><path id="Trazado_5581" data-name="Trazado 5581" d="M1712.062,1077.937s-.481,7.758-1.982,7.869c-.2.015-7.612.015-7.612.015l-9.463-.055a3.07,3.07,0,0,1,2.828-2.762c2.766-.482,7.4-2.426,9.071-6.082,1.763-3.846,7.158,1.015,7.158,1.015" transform="translate(1177.383 9045.495)" fill="#163560"></path><path id="Trazado_5582" data-name="Trazado 5582" d="M1815.77,523.019s-4.631,32.914-12.3,35.862c-3.784,1.455-20.506,4.752-25.452,5.083,0,0-1.212-.983-.917-4.984,0,0,17.52-6.432,20.009-9.93,3.7-5.206-2.3-21.267,2.348-26.157s12.476-6.991,16.311.125" transform="translate(1112.713 9474.069)" fill="#ed7d2b"></path><path id="Trazado_5583" data-name="Trazado 5583" d="M1782.738,774.588a57.689,57.689,0,0,1-4.524,6.472c-4.977,6.283-10.4,11.464-11.339,16.361a22.139,22.139,0,0,1-.875,3.134c-.395,1.121-.882,2.3-1.444,3.521a108.475,108.475,0,0,1-8.424,14.4c-5.452,8.078-10.578,14.819-10.578,14.819l-9.4-.4c.377-.942,4.477-12.1,9.962-25.726,2.227-5.534,4.6-11.419,6.881-17.1q.456-1.137.91-2.261c.7-1.737,1.386-3.447,2.058-5.112,5.15-12.8,9.252-22.991,9.252-22.991s20.585-7.8,22.723-2.745c1.763,4.167.327,8.248-5.2,17.622" transform="translate(1144.184 9291.844)" fill="#599dad"></path><path id="Trazado_5584" data-name="Trazado 5584" d="M1853.632,990.153s6.539,4.2,5.9,5.566c-.084.182-3.7,6.654-3.7,6.654l-4.66,8.235a3.071,3.071,0,0,1-1.033-3.816c.927-2.65,1.487-7.64-.888-10.885-2.5-3.414,4.375-5.755,4.375-5.755" transform="translate(1057.582 9111.116)" fill="#163560"></path><path id="Trazado_5585" data-name="Trazado 5585" d="M1740.962,820.075s4.087-3.6,4.808-6.249c0,0-16.84-20.176-20.492-24.7-.167-.207-.125-.435.1-.685,2.758-3.109,33.4-9.43,37.4-15.661a19.307,19.307,0,0,0,2.587-5.965,14.1,14.1,0,0,0,.19-6.427l-30.6-.885s-25.477,15.864-28.362,26.68,34.371,33.89,34.371,33.89" transform="translate(1167.052 9288.579)" fill="#6bb7bf"></path><path id="Trazado_5586" data-name="Trazado 5586" d="M1788.579,793.1c2.758-3.109,33.4-9.431,37.4-15.661a19.3,19.3,0,0,0,2.587-5.965V767.6l-13-2.045s-3.688,11.348-14.611,15.6c-10.23,3.986-12.168,11.059-12.372,11.94" transform="translate(1103.847 9283.926)" fill="#5aa9ad"></path><path id="Trazado_5587" data-name="Trazado 5587" d="M1866.433,481.7c6.191,1.6,16.453-4.135,16.453-4.135a15.19,15.19,0,0,1-5.461-8.561c-.075-.3-.142-.6-.2-.912l-3.179-.674-4.728,4.236a40.66,40.66,0,0,0,.7,4.782c.1.528.22,1.094.356,1.7a14.585,14.585,0,0,0-3.937,3.568" transform="translate(1043.946 9513.313)" fill="#e49963"></path><path id="Trazado_5588" data-name="Trazado 5588" d="M1859.983,533.041c-.887,11.925.28,30.063-.726,33.2-.868,2.71-10.759,1.1-14.707.194-1.461-.335-3.231-.813-5.059-1.378-5.1-1.579-10.655-3.833-11.252-5.507a1.414,1.414,0,0,1-.055-.193,1.524,1.524,0,0,1,.011-.7,11.942,11.942,0,0,0,1.054-3.889c.1-2.359.086-5.136.174-8.122,0-.336.009-.7.046-1.038v-.122c0-.064,0-.127,0-.191.085-3.33.26-6.832.461-10.305.129-2.181.277-4.341.448-6.41a85.742,85.742,0,0,1,1.837-13.1,21.031,21.031,0,0,1,6.756-10.429l1.882-1.614a10.88,10.88,0,0,0,6.828-.909c2.43-1.154,3.269-1.981,3.693-1.669,5.613,4.33,9.649,17.6,8.6,32.178" transform="translate(1073.402 9487.632)" fill="#f99746"></path><path id="Trazado_5589" data-name="Trazado 5589" d="M1839.609,625.911c-5.1-1.579-10.655-3.834-11.251-5.507a1.413,1.413,0,0,1-.055-.193c0-.234.006-.468.011-.7a11.942,11.942,0,0,0,1.054-3.888c.1-2.359.085-5.136.174-8.122,0-.336.009-.7.046-1.038v-.122c0-.064,0-.127,0-.191l20.614-26.263s13.857,28.855-10.6,46.026" transform="translate(1073.283 9426.781)" fill="#ed7d2b"></path><path id="Trazado_5590" data-name="Trazado 5590" d="M1878.928,471.654a40.66,40.66,0,0,0,.7,4.782c4.617-1.492,6.711-5.663,7.411-7.432-.075-.3-.142-.6-.2-.912l-3.179-.674Z" transform="translate(1034.332 9513.313)" fill="#d68d5d"></path><path id="Trazado_5591" data-name="Trazado 5591" d="M1857.612,437.606s10.069-1.681,8.926-7.935-.613-10.683-7.09-9.875-7.287,3.423-7.413,5.6,2.928,12.483,5.577,12.207" transform="translate(1055.026 9550.027)" fill="#e49963"></path><rect id="Rect&#xE1;ngulo_3397" data-name="Rect&#xE1;ngulo 3397" width="0.933" height="24.447" transform="translate(2864.562 10018.186) rotate(-18.001)" fill="#4a75cb"></rect><rect id="Rect&#xE1;ngulo_3398" data-name="Rect&#xE1;ngulo 3398" width="25.654" height="1.535" transform="translate(2872.084 10039.9) rotate(-1.224)" fill="#4a75cb"></rect><path id="Trazado_5592" data-name="Trazado 5592" d="M1749.887,718.044s-8.241,2.173-11.332,1.945-5.66-1.7-6.049-2.465-1.206-2.128.9-1.877,4.976.7,5.065.294-1.715-.366-1.715-.366-.545-.793.141-.822,2.69-.572,3.434-.2,1.431,1.746,1.974,1.688,6.9-2.862,6.9-2.862Z" transform="translate(1147.365 9324.068)" fill="#e49963"></path><path id="Trazado_5593" data-name="Trazado 5593" d="M1821.076,531.42s-.974,33.224-8.27,37c-3.6,1.863-19.857,6.984-24.737,7.858,0,0-1.312-.843-1.46-4.853,0,0,16.7-8.324,18.792-12.075,3.107-5.582-4.63-20.884-.55-26.256s11.629-8.323,16.225-1.673" transform="translate(1105.363 9467.02)" fill="#f99746"></path><path id="Trazado_5594" data-name="Trazado 5594" d="M1853.739,418.206a4.762,4.762,0,0,0-1.209-3.375s.461-2.151-.39-2.506-1.028,1.454-1.418,1.17a8.7,8.7,0,0,1-2.873-3.617c-.744-1.986-7.561.419-8.355.777s-3.348-.954-3.844-2.019a14.933,14.933,0,0,0,2.057-1.986c.638-.851,5.107-6.6,11.348-4.965s7.092,4.61,6.738,7.163.5,8.5-2.054,9.357" transform="translate(1067.63 9564.113)" fill="#2b478b"></path><path id="Trazado_5595" data-name="Trazado 5595" d="M2187.506,593.873s3.2,4.73,5.019,14.672c1.6,8.708,3,11.922,5.3,13.708s15.151,7.058,15.151,7.058l-.961,2.25s-18.828-2.564-20.943-5.711-10.177-21.739-9.552-26.021,5.983-5.957,5.983-5.957" transform="translate(801.538 9416.019)" fill="#f4a269"></path><path id="Trazado_5596" data-name="Trazado 5596" d="M2404.15,1000.892c-.169,1.836,2.387,2.283,5.348,2.43s2.066.754,6.124,1.489,5.683-.376,5.977-.924c.262-.486-1.625-1.247-3.636-2.107-.252-.107-.506-.218-.759-.329-2.263-.995-3.532-3.024-5.3-4.906-1.671-1.782-3.257-7.488-3.257-7.488l-5.514-1.178s1.548,5.135,2.085,7.328a6.79,6.79,0,0,1-.564,3.829,7.221,7.221,0,0,0-.507,1.855" transform="translate(631 9112.863)" fill="#ffb27d"></path><path id="Trazado_5597" data-name="Trazado 5597" d="M2412.854,1040.548c2.96.148,2.066.754,6.124,1.489s5.684-.376,5.978-.924c.261-.486-1.625-1.247-3.635-2.107l-.031.035a11.554,11.554,0,0,1-6.146.073c-2.684-.729-5.28-2.333-7.129-2.851a7.223,7.223,0,0,0-.507,1.855c-.169,1.836,2.387,2.283,5.348,2.43" transform="translate(627.644 9075.639)" fill="#c65447"></path><path id="Trazado_5598" data-name="Trazado 5598" d="M2145.418,746.962s36.641-2.758,43.539,1.6,17.961,55.062,17.961,55.062a4.5,4.5,0,0,1-2.208.712,18.507,18.507,0,0,1-4.542-.68s-15.9-22.689-17.019-28.4-.847-10.816-3.4-10.953-34.339,3.865-39.148-4.606-.833-16.857-.833-16.857Z" transform="translate(834.823 9301.408)" fill="#163560"></path><path id="Trazado_5599" data-name="Trazado 5599" d="M2343.347,1026.413c-.169,1.836,2.387,2.283,5.348,2.43s2.066.754,6.124,1.489,5.684-.375,5.978-.924c.261-.486-1.625-1.247-3.636-2.107-.252-.107-.506-.218-.759-.329-2.263-.995-3.532-3.024-5.3-4.906-1.671-1.782-3.258-7.488-3.258-7.488l-5.514-1.178s1.548,5.136,2.086,7.328a6.787,6.787,0,0,1-.564,3.828,7.2,7.2,0,0,0-.507,1.855" transform="translate(677.783 9093.228)" fill="#ffb27d"></path><path id="Trazado_5600" data-name="Trazado 5600" d="M2352.051,1066.07c2.961.147,2.066.753,6.124,1.489s5.683-.375,5.977-.924c.261-.486-1.625-1.247-3.636-2.107l-.031.034a11.556,11.556,0,0,1-6.146.073c-2.684-.729-5.279-2.333-7.128-2.851a7.217,7.217,0,0,0-.508,1.855c-.169,1.836,2.387,2.283,5.348,2.43" transform="translate(674.426 9056.003)" fill="#c65447"></path><path id="Trazado_5601" data-name="Trazado 5601" d="M2103.716,770.593s32.549,1.541,39.273,6.159,15.8,55.719,15.8,55.719a4.5,4.5,0,0,1-2.234.626,18.515,18.515,0,0,1-4.512-.856s-15-23.29-15.9-29.046-.425-10.841-2.968-11.076-34.463,2.525-38.939-6.127,9.476-15.4,9.476-15.4" transform="translate(869.349 9280.049)" fill="#1c468a"></path><path id="Trazado_5602" data-name="Trazado 5602" d="M2084.6,453.26a8.44,8.44,0,0,0-4.5-1.176,2.136,2.136,0,0,1,.992-.392,7.089,7.089,0,0,0-2.566.49c-10.575-4.906-13.347,10.962-13.366,14.691s-.279,8-5.919,10.972c-11.1,5.841-2.865,17.88-2.865,17.88.08.055,7.4,9.742,7.4,9.742-.073-3.019,11.836-19.021,19.375-23.282,1.931-2.471,2.861-7,2.931-7.359a19.787,19.787,0,0,1-1.931,6.706c6.491-5.221,4.283-25.745.455-28.272" transform="translate(900.061 9525.756)" fill="#b5453c"></path><path id="Trazado_5603" data-name="Trazado 5603" d="M2132.191,569.82a36.654,36.654,0,0,1,6.062,0,19.474,19.474,0,0,1,5.261,1.32c2.869,1.2,2.568,6.278-3.452,5.337s-8.293-5.151-7.871-6.658" transform="translate(839.506 9434.624)" fill="#ffb27d"></path><path id="Trazado_5604" data-name="Trazado 5604" d="M2144.36,548.65c.035.019.859,4.369-3.083,4.2-2.588-.114-8.168-3.245-7.675-5.46.234-1.053,2.189-3.785,2.583-10.021l.471.126,7.92,2.124s-.351,2.513-.515,4.892c-.138,2-.144,3.9.3,4.144" transform="translate(838.406 9459.497)" fill="#ffb27d"></path><path id="Trazado_5605" data-name="Trazado 5605" d="M2154.867,540.033s-.351,2.513-.515,4.893c-4.483-.426-6.583-4.681-7.4-7.017Z" transform="translate(828.114 9459.078)" fill="#f4a269"></path><path id="Trazado_5606" data-name="Trazado 5606" d="M2135.326,479.834a23.642,23.642,0,0,1-2.458-7.093c-.252-2.3,1.465-10.634,9.84-8.859a11.515,11.515,0,0,1,4.644,2.119c1.753,1.362,4.225,4.216.772,11.361l-.935,2.429Z" transform="translate(838.965 9516.224)" fill="#b5453c"></path><path id="Trazado_5607" data-name="Trazado 5607" d="M2153.057,496.469s-10.637-.533-10.2-7.152-.647-11.146,6.163-11.085,7.962,2.673,8.355,4.917-1.537,13.288-4.315,13.32" transform="translate(831.274 9504.994)" fill="#ffb27d"></path><path id="Trazado_5608" data-name="Trazado 5608" d="M2142.722,473.818s-3.427,7.571-7.968,8.421-6.4-.475-6.4-.475a12.67,12.67,0,0,0,4.633-7.194s7.785-4.595,9.733-.753" transform="translate(842.419 9509.569)" fill="#b5453c"></path><path id="Trazado_5609" data-name="Trazado 5609" d="M2187.349,477.637a9.4,9.4,0,0,1,2.474,3.6c.417,1.721.424,5.206,1.443,5.156,0,0,2.544-5.132.279-8.281-2.4-3.34-4.2-.473-4.2-.473" transform="translate(797.029 9506.333)" fill="#b5453c"></path><path id="Trazado_5610" data-name="Trazado 5610" d="M2120.574,614.73c-.861,1.029-3.549,1.345-6.421,1.818a19.294,19.294,0,0,0-6.324,1.833c-3.834,2.251-16.362,9.86-20.034,9.514-1.424-.134-1.158-2.852-.3-6.457,1.357-5.694,4.2-13.6,4.2-17.041A99.865,99.865,0,0,1,2093.157,593q.1-.614.206-1.239c1.65-9.872,3.934-21.512,3.934-21.512s2.548,5.559,7.512,5.559,3.81-4.239,3.81-4.239,4.53.533,5.6,1.686a44.281,44.281,0,0,1,4.323,7.494s.11,1.729-4.171,2.552a56.131,56.131,0,0,1,1.166,7.822c.092,2.311-1.577,9.545-2.057,14.045a8.314,8.314,0,0,0,.066,3.412,6.63,6.63,0,0,0,2.622,2.161c2.42,1.409,5.428,2.764,4.406,3.988" transform="translate(874.4 9434.193)" fill="#1c468a"></path><path id="Trazado_5611" data-name="Trazado 5611" d="M2116.168,672.493c2.748,4.685-7.452,6.093-9.141,7.085-3.834,2.251-15.56,10.414-19.232,10.068-1.424-.134-1.157-2.852-.295-6.457,1.357-5.695,4.2-13.6,4.2-17.041a99.9,99.9,0,0,1,1.458-11.395l4.42-4.244s4.736,12.241,9.25,14.246a37.966,37.966,0,0,0,6.653,2.166,8.3,8.3,0,0,0,.066,3.412,6.623,6.623,0,0,0,2.621,2.161" transform="translate(874.4 9372.441)" fill="#163560"></path><rect id="Rect&#xE1;ngulo_3399" data-name="Rect&#xE1;ngulo 3399" width="10.251" height="1.211" transform="translate(2996.116 10048.409)" fill="#9e332e"></rect><path id="Trazado_5612" data-name="Trazado 5612" d="M2273.269,715.26c.1-.4,9.423-15.041,9.423-15.041h20.744l-10.4,14.647Z" transform="translate(730.921 9334.194)" fill="#9e332e"></path><path id="Trazado_5613" data-name="Trazado 5613" d="M2277.054,715.426c.1-.4,9.454-15.206,9.454-15.206h19.841l-9.9,15.206Z" transform="translate(728.009 9334.194)" fill="#b5453c"></path><path id="Trazado_5614" data-name="Trazado 5614" d="M2345.532,729.822a1.656,1.656,0,0,1-1.444,1.074.74.74,0,0,1-.7-1.074,1.657,1.657,0,0,1,1.444-1.074.74.74,0,0,1,.7,1.074" transform="translate(677.022 9312.244)" fill="#9e332e"></path><path id="Trazado_5615" data-name="Trazado 5615" d="M2126.844,619.219c-.582-.25-5.075.568-6.358.809-4.069-.8-17.446-3.47-18.1-4.308-.769-.988-2.446-31.1-4.367-31.6,0,0-3.779-2.295-7.433,2.059s2.6,35.474,8.012,37.072c6.013,1.776,23.385-.284,23.385-.284h0c1.427.487,3.921.761,5.246,1.2,1.749.583,3.3.1,3.691-.583s-3.4-4.079-4.079-4.37" transform="translate(872.317 9423.985)" fill="#ffb27d"></path><path id="Trazado_5616" data-name="Trazado 5616" d="M2089.22,570.247s-7.761.7-10.015,3.253-2.913,9.469-2.913,9.469,6.834,5.517,15.069,3.376Z" transform="translate(882.477 9434.197)" fill="#1c468a"></path><path id="Trazado_5617" data-name="Trazado 5617" d="M660.192,1121.7H.749A.751.751,0,0,1,0,1120.95v-.255a.751.751,0,0,1,.749-.749H660.192a.751.751,0,0,1,.749.749v.255a.751.751,0,0,1-.749.749" transform="translate(2480 9011.252)" fill="#2e3552"></path><path id="Trazado_5618" data-name="Trazado 5618" d="M1165.626,500.557s.725-2.87,1.934-3.022,3.028-.918,3.409.047-2.889,5.953-4.192,4.721-1.152-1.747-1.152-1.747" transform="translate(1583.158 9490.474)" fill="#ffb27d"></path><path id="Trazado_5619" data-name="Trazado 5619" d="M1090.428,923.756a9.775,9.775,0,0,1,1.863,3.324.531.531,0,0,1-.524.721h-5.929a1.209,1.209,0,0,1-1.15-1.1,5.583,5.583,0,0,1,1.054-3.722c1.464-1.589,4.687.773,4.687.773" transform="translate(1645.43 9163.22)" fill="#163560"></path><path id="Trazado_5620" data-name="Trazado 5620" d="M1148.437,915.44s1.814,5.5,2.9,5.576c.144.011,5.4.011,5.4.011h6.775a3.3,3.3,0,0,0-2.609-2c-2.051-.341-5.7-1.719-7.582-4.309-1.979-2.725-4.879.719-4.879.719" transform="translate(1596.38 9169.962)" fill="#163560"></path><path id="Trazado_5621" data-name="Trazado 5621" d="M1057.027,677.394a27.1,27.1,0,0,1,1.725,6.607c-.029,5.113,10.075,28.2,10.075,28.2,3.259,1.382,6.987-.014,6.987-.014-1.106-3.2-7.256-31.824-10.521-49.288-1.373-7.332-2.3-12.462-2.3-12.462l-17.844-2.015s8.219,18.368,11.88,28.974" transform="translate(1675.852 9374.049)" fill="#2c3a64"></path><path id="Trazado_5622" data-name="Trazado 5622" d="M1045.147,648.42s8.219,18.368,11.88,28.974l8.266-14.5c-1.373-7.332-2.3-12.462-2.3-12.462Z" transform="translate(1675.852 9374.049)" fill="#2c3a64"></path><path id="Trazado_5623" data-name="Trazado 5623" d="M1034.6,657.606s4.907,51,6.047,60.88a11.37,11.37,0,0,1-6.765-.5s-6.784-23.7-7.55-30.84-8.438-29.211-7.14-31.264,15.409,1.727,15.409,1.727" transform="translate(1695.934 9368.779)" fill="#2c3a64"></path><path id="Trazado_5624" data-name="Trazado 5624" d="M1008.2,475.6s1.887,4.533,1.955,5.887-4.238,2.09-6.421.971-1.837-2.116-1.837-2.116a37.845,37.845,0,0,1-.829-4.978c.165-.37,7.132.235,7.132.235" transform="translate(1709.782 9507.288)" fill="#ffb27d"></path><path id="Trazado_5625" data-name="Trazado 5625" d="M1026.973,500.2s-7.709,9.585-8.029,10.82c-4.426-5.159-11.236-11.628-11.545-11.88a9.236,9.236,0,0,0-4.02-1.4,34.763,34.763,0,0,0-4.88-.406c-.073-.008-.111-.01-.109,0,.2.765-.627,2.18-2.454,2.307-2.168.14-5.223-1.033-5.564-2.307-.017-.064-5.082.255-4.192,9.714a3.925,3.925,0,0,0,.046.408,54.236,54.236,0,0,0,3.379,12.8c.73,1.964,3.143,16.535,3.86,16.547a12.261,12.261,0,0,0,2,.714c.718.2,1.659.434,2.813.65a57.662,57.662,0,0,0,10.571.867c8.5,0,10.659-2.422,10.659-2.422.457,0-4.729-11.72-7.444-21.789,2.822,1.646,5.819,3.214,6.139,3.408a7.462,7.462,0,0,0,3.119,1.267l0,0a.728.728,0,0,0,.095,0,1.346,1.346,0,0,0,.917-.275,6.258,6.258,0,0,0,2.4-2.711c1.169-2.152,2.556-6.506,3.75-9.411.66-1.607,1.169-3.364,1.842-4.815a7.663,7.663,0,0,0-3.358-2.087" transform="translate(1721.303 9490.306)" fill="#bc3f3f"></path><path id="Trazado_5626" data-name="Trazado 5626" d="M999.829,556.491a13.556,13.556,0,0,1-3.862,13.7,12.254,12.254,0,0,1-2-.714c-.717-.013-3.13-14.584-3.86-16.547a54.239,54.239,0,0,1-3.379-12.8c.184-.217.294-.332.294-.332s10.288,6.234,12.809,16.687" transform="translate(1720.801 9457.62)" fill="#a02e2e"></path><path id="Trazado_5627" data-name="Trazado 5627" d="M1008.551,479s-1.087,2.462-2.928,2.484-4.387-2.445-4.387-2.445Z" transform="translate(1709.638 9504.399)" fill="#e8945b"></path><path id="Trazado_5628" data-name="Trazado 5628" d="M998.617,445.722a8.435,8.435,0,0,1-2.112,1.253,2.97,2.97,0,0,1-2.081.044c-1.113-.351-2.8-.9-3.258-1.137-1.075-.561-1.32-1.7-1.79-3.273a27.427,27.427,0,0,1-1.219-4.411c-.1-1.288.523-2.021,2.756-2.22,4.1-.364,6.13.687,6.58,2.094.12.378.234.738.338,1.079,1.344,4.388,1.414,5.944.786,6.57" transform="translate(1719.708 9537.561)" fill="#ffb27d"></path><path id="Trazado_5629" data-name="Trazado 5629" d="M992.359,425.837a2.225,2.225,0,0,0-2.144-.616c-1.185.4-1.022,1.5-3.277,1.325s-3.065-1.221-3.322-.7.339,3.608.339,3.608-7.15-10.12,1.846-10.12c0,0,9.12-.56,7.421,9.727Z" transform="translate(1725.006 9550.313)" fill="#2c3a64"></path><path id="Trazado_5630" data-name="Trazado 5630" d="M1111.375,489.116l-.01.007c.011.005.01-.007.01-.007" transform="translate(1624.903 9496.62)" fill="#ffb27d"></path><path id="Trazado_5631" data-name="Trazado 5631" d="M1115.631,425.481c.03-.168.054-.278.054-.278a.719.719,0,0,0-.054.278" transform="translate(1621.621 9545.795)" fill="#d35c2b"></path><path id="Trazado_5632" data-name="Trazado 5632" d="M1172.778,481.533l-1.474-.222,4.136-23.44Z" transform="translate(1578.785 9520.66)" fill="#2c3a64"></path><path id="Trazado_5633" data-name="Trazado 5633" d="M1168.693,502.256s1.361,1.35,1.589.611,1.953-1.59,2.08-1.935-1.986-.5-2.295-.506-1.594,1.355-1.374,1.83" transform="translate(1580.814 9487.918)" fill="#ffb27d"></path><path id="Trazado_5634" data-name="Trazado 5634" d="M1018.141,505.348a14.1,14.1,0,0,1,3.872-.14s.162,1.958-.4,2.117a7,7,0,0,1-1.984,0,11.306,11.306,0,0,1-1.489-1.977" transform="translate(1696.631 9484.303)" fill="#1c468a"></path><path id="Trazado_5635" data-name="Trazado 5635" d="M1024.6,514.668s6.557,27.541,8.3,29.294a10.494,10.494,0,0,0,3.115,2.3s1.377-1.664,1.353-2.461-10.785-29.135-10.785-29.135Z" transform="translate(1691.661 9476.959)" fill="#1c468a"></path><path id="Trazado_5636" data-name="Trazado 5636" d="M1063.363,623.131a40.994,40.994,0,0,0,5.8,1.5c1.342.053,2.919-2.239,2.4-2.914-.151-.2-2.1.7-2.653.4a4.261,4.261,0,0,0-2.6-.03c-.676.08-3.269-1.378-3.269-1.378Z" transform="translate(1662.083 9395.373)" fill="#ffb27d"></path><path id="Trazado_5637" data-name="Trazado 5637" d="M993.22,525.766a100.075,100.075,0,0,0-13.927-8.458c.443-3.785.244-9.8-1.408-19.982,0,0-7.031.78-7.782,3.238-1.084,3.543,1.467,13.4,3.58,21.291l.081.048a2.688,2.688,0,0,0,.677.775c2.992,2.4,18.841,7.021,18.841,7.021,1.15-1.669-.062-3.934-.062-3.934" transform="translate(1733.79 9490.303)" fill="#bc3f3f"></path><path id="Trazado_5638" data-name="Trazado 5638" d="M1044.324,611.914l-11.891-3.537-.375,1.7,12.735,3.584Z" transform="translate(1685.923 9404.858)" fill="#fcecdb"></path><path id="Trazado_5639" data-name="Trazado 5639" d="M1091.265,603.827l-6.013,4.586.469,1.75,6.921-4.721Z" transform="translate(1644.995 9408.36)" fill="#f4d2b8"></path><path id="Trazado_5640" data-name="Trazado 5640" d="M1042.6,618.51l-13.566-4.139.045-.352,13.387,3.986Z" transform="translate(1688.246 9400.518)" fill="#2c3a64"></path><path id="Trazado_5641" data-name="Trazado 5641" d="M1087.421,614.629l7.681-5.335-.312-.318-7.5,5.15Z" transform="translate(1643.43 9404.398)" fill="#2c3a64"></path><path id="Trazado_5642" data-name="Trazado 5642" d="M1005.379,496s-3.109-3.228-3.363-3.016-.574.925-.423,1.127,4.164,2.466,4.164,2.466Z" transform="translate(1709.393 9493.654)" fill="#1c468a"></path><path id="Trazado_5643" data-name="Trazado 5643" d="M1034.084,495.157a26.132,26.132,0,0,1,.726-3.092c.1.124,1.105,1.012,1.142,1.235a5.106,5.106,0,0,1-1.851,2.176c-.6.139-.017-.319-.017-.319" transform="translate(1684.56 9494.354)" fill="#1c468a"></path><path id="Trazado_5644" data-name="Trazado 5644" d="M814.9,401.4l2.273,8.209.968,3.5,1.135,4.1,14.811,53.524H964.856l-16.263-53.524-1.248-4.1-1.064-3.5-2.493-8.209Z" transform="translate(1853.006 9564.109)" fill="none"></path></g></svg>