<svg xmlns="http://www.w3.org/2000/svg" xmlns:xlink="http://www.w3.org/1999/xlink" width="505.136" height="278" viewBox="0 0 505.136 278"><defs><clipPath id="clip-path"><rect id="Rect&#xE1;ngulo_3960" data-name="Rect&#xE1;ngulo 3960" width="505.136" height="278" transform="translate(0 0)" fill="none"></rect></clipPath></defs><g id="Grupo_1291" data-name="Grupo 1291" transform="translate(0 -0.004)"><g id="Grupo_1290" data-name="Grupo 1290" transform="translate(0 0.004)" clip-path="url(#clip-path)"><path id="Trazado_6057" data-name="Trazado 6057" d="M439.579,276.618s-82.662-74.743-36.11-175.77C425.8,52.378,485.283,41,503.313,50.922,527.087,64,558.619,28.669,626.773,4.411,678-13.822,793.951,23.354,756.189,137.7c-22.906,69.362,65.267,51.116,51.592,139.763Z" transform="translate(-310.691 -0.004)" fill="#fbecdb"></path><rect id="Rect&#xE1;ngulo_3958" data-name="Rect&#xE1;ngulo 3958" width="65.62" height="89.606" transform="translate(92.511 186.953)" fill="#f9ddbf"></rect><rect id="Rect&#xE1;ngulo_3959" data-name="Rect&#xE1;ngulo 3959" width="50.975" height="89.61" transform="translate(158.131 186.953)" fill="#fff3e9"></rect><path id="Trazado_6058" data-name="Trazado 6058" d="M522.8,736.933,501.3,781.2H435.985l34.054-44.1Z" transform="translate(-347.993 -588.204)" fill="#ed9f4a"></path><path id="Trazado_6059" data-name="Trazado 6059" d="M535.576,736.933l-21.5,44.265H448.758l34.054-44.1Z" transform="translate(-358.188 -588.204)" fill="#f9ddbf"></path><path id="Trazado_6060" data-name="Trazado 6060" d="M581.6,846.595h-1.372a8.438,8.438,0,0,0-8.438,8.438v21.443h17.975V854.759a8.164,8.164,0,0,0-8.164-8.164" transform="translate(-456.388 -675.734)" fill="#efcdaf"></path><path id="Trazado_6061" data-name="Trazado 6061" d="M698.192,783.651H638.9L603.858,736.93l19.728,0,38.54.007Z" transform="translate(-481.985 -588.201)" fill="#ed9f4a"></path><path id="Trazado_6062" data-name="Trazado 6062" d="M776.213,783.667H765.349L701.607,736.95l38.54.007Z" transform="translate(-560.006 -588.217)" fill="#e58638"></path><path id="Trazado_6063" data-name="Trazado 6063" d="M337.761,1017.514l-15.307,31.514h-46.5l24.245-31.4Z" transform="translate(-220.258 -812.158)" fill="#ed9f4a"></path><path id="Trazado_6064" data-name="Trazado 6064" d="M344.665,1017.514l-15.307,31.514h-46.5l24.245-31.4Z" transform="translate(-225.769 -812.158)" fill="#f9ddbf"></path><path id="Trazado_6065" data-name="Trazado 6065" d="M329.26,1173.661v33.75h-15.4c-.515-.076-.777-.128-.777-.128a58.7,58.7,0,0,1-17.152-3.188,49.077,49.077,0,0,1-13.077-6.708v-23.727Z" transform="translate(-225.772 -936.79)" fill="#f9ddbf"></path><path id="Trazado_6066" data-name="Trazado 6066" d="M552.062,1173.661V1201.1q-4.21,1.227-8.136,2.191a168.164,168.164,0,0,1-23.456,4.124h-7.7v-33.75Z" transform="translate(-409.281 -936.79)" fill="#fff3e9"></path><path id="Trazado_6067" data-name="Trazado 6067" d="M463.238,1051.344h-42.21l-24.951-33.263,12.574,0,28.912.006Z" transform="translate(-316.139 -812.61)" fill="#ed9f4a"></path><path id="Trazado_6068" data-name="Trazado 6068" d="M367.2,1170.308v26.754h-1.62c-.515-.076-.777-.128-.777-.128a58.7,58.7,0,0,1-17.152-3.188v-23.115a9.937,9.937,0,0,1,9.936-9.936,9.616,9.616,0,0,1,9.613,9.613" transform="translate(-277.488 -926.441)" fill="#efcdaf"></path><path id="Trazado_6069" data-name="Trazado 6069" d="M385.21,1096.094a2.194,2.194,0,1,1,2.194,2.194,2.194,2.194,0,0,1-2.194-2.194" transform="translate(-307.466 -873.127)" fill="#efcdaf"></path><path id="Trazado_6070" data-name="Trazado 6070" d="M512.965,1051.352h-8.011l-46.577-33.261,28.912.006Z" transform="translate(-365.866 -812.618)" fill="#e58638"></path><path id="Trazado_6071" data-name="Trazado 6071" d="M433.7,1189.432c-33.68-9.985-74.507-19.163-108.045-11.131s-46.424,18.87-83.255-6.064a52.853,52.853,0,0,0-9.314-5.138c6.5-1.179,15.193-3.238,11.341-5.321-4.016-2.172-10.736,1.541-14.621,4.136q-1.458-.446-2.854-.729c8.873-6.354,24.61-18.372,17.29-18.775-7.222-.4-15.952,11.66-20.214,18.333q-1.1-.107-2.161-.125c-.377-3.467-1.765-9.607-6.861-9.99-5.209-.391.942,6.379,4.626,10.048-19.83,1.319-33.252,23.831-74.89,9.624a35.7,35.7,0,0,0-19.222-.7c-3.916-8.649-15.542-32.175-25.156-29.727s14.185,22.816,23.213,30.189q-1.613.417-3.18.93c-5.466-4.03-15.718-10.546-21.575-7.685-5.725,2.8,8.627,6.8,17.968,8.988a83.211,83.211,0,0,0-21.742,13.116Z" transform="translate(-75.864 -912.869)" fill="#a8d29f"></path><path id="Trazado_6072" data-name="Trazado 6072" d="M2227.435,1198.4h-39.174c-2.117-1.776,1.436-5.828,5.155-6.1a22.822,22.822,0,0,1,5.979.707c.541-7.163,3.621-39.34,15.219-38.049,13.043,1.452,0,14.173-3.687,21.707a177.561,177.561,0,0,0-6.928,17.363c1.059.229,2.153.459,3.275.663,1.724-5.31,8.158-23.169,16.342-22.13,9.608,1.217,5.744,8.377-1.061,12.628-5,3.125-11.136,7.569-14.051,9.714a41.707,41.707,0,0,0,7.668.611c6.726-.159,10,1.828,11.264,2.89" transform="translate(-1746.114 -921.828)" fill="#a8d29f"></path><path id="Trazado_6073" data-name="Trazado 6073" d="M1345.959,280.052s9.323,4.411,11.441,3.855,10.166-1.977,11.3-1.477c0,0,1.281,2.044.314,3.389s-8.8,4.982-11.625,5.114-13.564-1.813-15.842-3.593Z" transform="translate(-1070.789 -223.532)" fill="#e8945b"></path><path id="Trazado_6074" data-name="Trazado 6074" d="M1472.9,289.609s3.595-1.492,4.772.175,1.844,3.356,1.7,4.21-2.573,1.23-3.544.566a23.588,23.588,0,0,0-3.374-1.592Z" transform="translate(-1175.28 -230.67)" fill="#e8945b"></path><path id="Trazado_6075" data-name="Trazado 6075" d="M1551.8,1317.935a15.178,15.178,0,0,0-2.028,6.936,1.494,1.494,0,0,0,1.5,1.5h12.372a1.84,1.84,0,0,0,1.787-2.288c-.576-2.265-1.809-5.688-4.28-7.766-3.942-3.315-9.347,1.614-9.347,1.614" transform="translate(-1236.991 -1049.743)" fill="#163560"></path><path id="Trazado_6076" data-name="Trazado 6076" d="M1350.809,1297.975s-.711,11.471-2.931,11.635c-.3.022-11.256.022-11.256.022h-14.138a4.833,4.833,0,0,1,4.328-4.165c4.089-.713,10.935-3.587,13.413-8.993,2.606-5.687,10.583,1.5,10.583,1.5" transform="translate(-1055.577 -1033.069)" fill="#163560"></path><path id="Trazado_6077" data-name="Trazado 6077" d="M1383.339,722.347c-.495,6.372-.559,11.4.095,13.787,2.918,10.668-5.258,58.84-5.258,58.84-6.028,2.883-14.588-.031-14.588-.031.52-6.673-2.653-66.408-5.6-102.85-1.236-15.3-2.163-26-2.163-26l36.109-4.2s-6.88,38.33-8.59,60.461" transform="translate(-1082.185 -528.303)" fill="#2b478b"></path><path id="Trazado_6078" data-name="Trazado 6078" d="M1391.929,661.886s-6.88,38.33-8.59,60.461l-25.356-30.253c-1.236-15.3-2.163-26-2.163-26Z" transform="translate(-1082.185 -528.303)" fill="#233862"></path><path id="Trazado_6079" data-name="Trazado 6079" d="M1446.97,683.091s18.278,106.432,21.423,127.041a23.087,23.087,0,0,0,13.836-1.05s.9-49.457-1.489-64.355,1.275-60.955-2.582-65.239-31.188,3.6-31.188,3.6" transform="translate(-1154.938 -541.334)" fill="#2b478b"></path><path id="Trazado_6080" data-name="Trazado 6080" d="M1452.566,249.761s-1.4,9.458-.788,12.284,10.011,4.361,13.942,2.027,2.749-3.2,2.749-3.2-.6-10.828-1.152-11.6-14.751.492-14.751.492" transform="translate(-1158.652 -198.763)" fill="#ffb27d"></path><path id="Trazado_6081" data-name="Trazado 6081" d="M1301.543,349.509c1.244-11.883.925-20.825-.247-27.552-3.432-19.743-14.187-20.4-14.187-20.274,0,2.657-5.716,5.109-10.326,4.807-3.886-.254-6.407-3.208-6.407-4.807,0-.013-.072-.012-.2,0a68.164,68.164,0,0,0-9.973.848c-3.16.546-6.186,1.443-7.606,2.923-.733.763-3.348,2.9-6.707,5.806-8.555,7.4-21.932,19.782-21.341,27.161,0,0,16.535,12.143,27.014,4.531-.571,19.76-4.157,40.69-3.278,40.675,0,0,5.841,5.058,23.587,5.058a112.293,112.293,0,0,0,21.588-1.793c6.633-1.308,9.274-2.854,9.274-2.854,1.478-.022-1.616-30.428-1.187-34.53" transform="translate(-977.389 -240.788)" fill="#f99746"></path><path id="Trazado_6082" data-name="Trazado 6082" d="M1464.2,445.869s-2.641,1.546-9.274,2.854c-9.169-4.061-27.368-14.557-28.079-32.182-.943-23.445,27.679-37.405,27.679-37.405s3.84,2.134,8.24,4.65c1.172,6.727,1.491,15.669.247,27.552-.429,4.1,2.664,34.508,1.187,34.53" transform="translate(-1138.856 -302.619)" fill="#ed7d2b"></path><path id="Trazado_6083" data-name="Trazado 6083" d="M1455.562,257.974s3.645,5.137,7.5,5.184,7.788-5.1,7.788-5.1Z" transform="translate(-1161.796 -205.91)" fill="#e8945b"></path><path id="Trazado_6084" data-name="Trazado 6084" d="M1445.437,175.7a24.714,24.714,0,0,0,5.108,2.616,6.312,6.312,0,0,0,4.368.092,57.874,57.874,0,0,0,6.163-2.372c1.93-1.17,1.806-3.538,1.9-6.831.119-3.9.511-6.958.076-9.2-.517-2.688-2.221-4.216-6.992-4.632-8.758-.76-12.406,1.433-12.559,4.369-.04.789-.076,1.54-.1,2.252-.351,9.156.373,12.4,2.032,13.709" transform="translate(-1152.024 -123.894)" fill="#ffb27d"></path><path id="Trazado_6085" data-name="Trazado 6085" d="M1433.993,129.279a3.68,3.68,0,0,1,4.129-1.285c2.7.829,2.972,3.132,7.578,2.764s5.712-2.548,6.541-1.459,1.309,7.53,1.309,7.53,9.261-21.118-9.51-21.118c0,0-19.345-1.168-10.047,20.3Z" transform="translate(-1142.562 -92.35)" fill="#2c3a64"></path><path id="Trazado_6086" data-name="Trazado 6086" d="M1274.99,282.08l.025.014c-.021.011-.025-.014-.025-.014" transform="translate(-1017.668 -225.151)" fill="#ffb27d"></path><path id="Trazado_6087" data-name="Trazado 6087" d="M1340.869,497.593a10.562,10.562,0,0,1-6.049,1.935s-3.665-4.039-6.753-7.945c-2-2.53-3.755-5-4.118-6.29-.921-3.269-18.162-4.19-20.274-6.493s8.566-8.081,8.566-8.081,17.5,2.677,20.134,6.115c1.047,1.369,2.605,4.936,4.1,8.736,2.265,5.747,4.391,12.025,4.391,12.025" transform="translate(-1040.343 -375.716)" fill="#e8945b"></path><path id="Trazado_6088" data-name="Trazado 6088" d="M1367.678,341.387s3.317-6.44,4.956-6.253-3.766,13.331-4.258,19.719-.7-13.466-.7-13.466" transform="translate(-1091.649 -267.494)" fill="#ed7d2b"></path><path id="Trazado_6089" data-name="Trazado 6089" d="M1275.026,488.047a97.212,97.212,0,0,1-5.664,11.293c-.026.044-.041.068-.041.068h-.054c-.558-.005-5.363-.111-5.834-2.04,0,0-.155-6.677.111-11.982a28.053,28.053,0,0,1,.66-5.572s-26.063-.175-25.6-7.547,14.083-11.273,21.916-7.449c0,0,10.386,3.774,15.853,8.76,2.685,2.449,1.034,8.721-1.343,14.47" transform="translate(-988.618 -369.817)" fill="#ffb27d"></path><path id="Trazado_6090" data-name="Trazado 6090" d="M1231.473,456.405s-3.47,5.1-2.656,9.859,10.714,7.3,17.643,7.6c0,0,19.816-4.541,16.743-12.441-.7-1.791-31.73-5.022-31.73-5.022" transform="translate(-980.715 -364.293)" fill="#2b478b"></path><path id="Trazado_6091" data-name="Trazado 6091" d="M1213.189,130.908s-3.147-6.442-10.75-2.5-.2,18.78-4.191,22.49,1.446,6.138.636,8.8,1.5,5.685,6.823,5.329,10.922-.069,13.325-4.723,1.857-14.895.928-16.334-6.773-13.056-6.773-13.056" transform="translate(-955.234 -101.473)" fill="#aa443e"></path><path id="Trazado_6092" data-name="Trazado 6092" d="M1288.04,256.81l-12.927-7.8c.072-.028.333-.419,1.3-3.214a15.614,15.614,0,0,0,.737-3.047c.011-.082.021-.161.029-.24a8.337,8.337,0,0,0,.035-1.879l2.832,1.024,5.237,1.9a6.486,6.486,0,0,0,.408,2.9,2.331,2.331,0,0,0,1.994,1.568Z" transform="translate(-1017.766 -192.065)" fill="#ffb27d"></path><path id="Trazado_6093" data-name="Trazado 6093" d="M1293.195,250.5a9.711,9.711,0,0,1-8.541-3.705c-.093-.122-.14-.19-.14-.19l.168-.05c.412-.122,1.529-.458,2.867-.855l5.238,1.9a6.484,6.484,0,0,0,.408,2.9" transform="translate(-1025.27 -196.115)" fill="#ed985f"></path><path id="Trazado_6094" data-name="Trazado 6094" d="M1282.193,188.373s-11.245,1.235-11.476-6.369-1.893-11.083,5.888-11.761,9.619,2.125,10.077,4.7c1.432,8.037-1.321,13.091-4.489,13.432" transform="translate(-1014.014 -135.803)" fill="#ffb27d"></path><path id="Trazado_6095" data-name="Trazado 6095" d="M1257.513,147.794c-3.979-1.007-2.458,6.043-3.463,5.56-1.125-.54-3.058-.532-2.753.826a26.126,26.126,0,0,0,.975,2.692c.23.848,0,2.527-.927,2.189s-9.531-10.165-3.455-17.819,24.195-2.939,18.489,5.067c-1,1.408-6.033,2.2-8.866,1.484" transform="translate(-994.317 -109.639)" fill="#aa443e"></path><path id="Trazado_6096" data-name="Trazado 6096" d="M1264.309,313.375a19.362,19.362,0,0,1-8.7,1.708,60.477,60.477,0,0,1-15.213-3.194c-2.637-.949-4.44-1.964-4.223-2.816.312-1.228,2.571-10.653,4.658-19.375,1.908-7.975,3.673-15.362,3.673-15.362s5.266,3.742,8.336,2.422,2.675-2.813,2.675-2.813a37.354,37.354,0,0,1,4.6-.328,62.38,62.38,0,0,1,7.1,2.2s.727,2.043-1.2,5.231c-1.6,2.641-3.15,3.153-3.15,3.153s4.52,14.249,1.45,29.174" transform="translate(-986.672 -218.38)" fill="#739af0"></path><path id="Trazado_6097" data-name="Trazado 6097" d="M1289.736,406.809s3.248-.606,4.518.225,1.646,2.133.731,2.665a5.919,5.919,0,0,1-5.772-.176Z" transform="translate(-1029.021 -324.536)" fill="#ffb27d"></path><path id="Trazado_6098" data-name="Trazado 6098" d="M1240.4,368.423c-2.637-.949-4.44-1.964-4.223-2.816.312-1.228,2.571-10.653,4.658-19.375.616-1.131,1.008-1.806,1.008-1.806s3.96,18.1-1.443,24" transform="translate(-986.672 -274.914)" fill="#4a82d3"></path><path id="Trazado_6099" data-name="Trazado 6099" d="M1222.433,282.3s-10,2.118-13.949,17.669a4.716,4.716,0,0,0,1.065,4.312c1.814,2.011,5.813,4.95,15.113,6.033,1.015.118,1.152-2.458,1.152-2.458-.1.205-6.317-4.016-8.963-6.285a1.46,1.46,0,0,1-.113-1.8,42.26,42.26,0,0,0,2.9-4.934c.736-1.766,5.593-11.736,2.8-12.538" transform="translate(-964.469 -225.323)" fill="#ffb27d"></path><path id="Trazado_6100" data-name="Trazado 6100" d="M1235.3,277.256s-5.882.418-10.677,6.813c0,0,1.623,5.882,9.241,7.452,0,0,4.7-10.591,1.436-14.265" transform="translate(-977.466 -221.3)" fill="#739af0"></path><path id="Trazado_6101" data-name="Trazado 6101" d="M1373.088,575.291a97.207,97.207,0,0,1-5.664,11.293l-.094.068c-.558-.005-5.363-.111-5.834-2.04,0,0-.155-6.677.111-11.982.765.733,3.716,2.922,11.481,2.661" transform="translate(-1086.679 -457.061)" fill="#ebf2f9"></path><path id="Trazado_6102" data-name="Trazado 6102" d="M1438.43,556.327a10.561,10.561,0,0,1-6.049,1.935s-3.665-4.039-6.753-7.945c3.475-1.5,7.146-4.813,8.411-6.014,2.265,5.747,4.391,12.025,4.391,12.025" transform="translate(-1137.904 -434.45)" fill="#ebf2f9"></path><path id="Trazado_6103" data-name="Trazado 6103" d="M1365.824,639.165a1.105,1.105,0,0,1-1.313.876,50.979,50.979,0,0,1-5.124-1.243c-1.531-.557-4.469-2.293-6-2.85-.526-.192-1.792-.7-2.61-1.035a.913.913,0,0,1-.534-1.1,19.338,19.338,0,0,1,1.545-3.854,1.4,1.4,0,0,1,.639-.567,5.948,5.948,0,0,0,3.723,1.345,8.143,8.143,0,0,0,3.358-.707c.1.214,2.193,4.426,3.672,4.964a3.67,3.67,0,0,1,2.643,4.172" transform="translate(-1077.704 -502.366)" fill="#aa443e"></path><path id="Trazado_6104" data-name="Trazado 6104" d="M1469.732,591.23a1.105,1.105,0,0,1-.488,1.5,50.923,50.923,0,0,1-4.792,2.2c-1.547.511-4.929.968-6.476,1.479-.532.176-1.842.558-2.69.8a.913.913,0,0,1-1.1-.534,19.337,19.337,0,0,1-1.174-3.983,1.406,1.406,0,0,1,.151-.841,5.943,5.943,0,0,0,3.756-1.249,8.145,8.145,0,0,0,2.2-2.635c.214.1,4.463,2.116,5.957,1.623a3.67,3.67,0,0,1,4.659,1.639" transform="translate(-1159.748 -469.304)" fill="#aa443e"></path><path id="Trazado_6105" data-name="Trazado 6105" d="M1254.049,478.038s-.75,4.346-3.577,6.348c0,0-11.477-1.579-22.162-4.282-7.855-1.986-15.284-4.579-17.409-7.6-5.019-7.123,2.626-15.794,2.626-15.794s14.735,7.111,30.688,15.822c3.267,1.784,6.582,3.635,9.834,5.506" transform="translate(-965.151 -364.536)" fill="#f99746"></path><path id="Trazado_6106" data-name="Trazado 6106" d="M1318.077,593.836s-3.409.277-4.7,1.567-3.244,5.041-1.852,6.528,8.025-1.773,8.209-2.308-1.658-5.787-1.658-5.787" transform="translate(-1046.448 -473.987)" fill="#ffb27d"></path><path id="Trazado_6107" data-name="Trazado 6107" d="M1329.65,540.614s-.75,4.346-3.577,6.348c0,0-11.477-1.579-22.162-4.282,5.023-4.367,11.586-6.541,15.905-7.571,3.267,1.784,6.582,3.635,9.834,5.506" transform="translate(-1040.752 -427.112)" fill="#ed7d2b"></path><path id="Trazado_6108" data-name="Trazado 6108" d="M1398.426,307.725c-2.294-5.45-17.384-5.658-17.384-5.658-7.677,20.146-9.522,33.359-11.552,41.851a4.31,4.31,0,0,0-.918,0s-10.785,4.208-26.815,15.85c0,0-1.677,4.6,1.334,8.36,0,0,27.622-6.1,35.337-10.618l.012,0,.23-.148q.176-.108.336-.216c25.089-16.3,22.7-41.626,19.421-49.424" transform="translate(-1070.588 -241.104)" fill="#f99746"></path><path id="Trazado_6109" data-name="Trazado 6109" d="M1284.16,809.055a10.62,10.62,0,0,1,6.655,11.6s-.715,3.62-2.945,2.015-1.184-1.309-4.369-3.5-5.262-5.657-4.9-8.407Z" transform="translate(-1020.519 -645.77)" fill="#ffb27d"></path><path id="Trazado_6110" data-name="Trazado 6110" d="M1119.125,572.225l-4.587,5.565a.92.92,0,0,1-.881.318c-4.3-.79-19.1-10.328-23.947-14.221a14.33,14.33,0,0,1-1.2-1.048c-1.807-1.841-8.04-10.928-12.464-19.02-2.547-4.661-4.494-8.991-4.648-11.418-.551-8.663,4.006-20.777,4.006-20.777,13.48,4.691,14.9,15.454,14.9,15.454l7.473,27.812,21.167,15.821a1.054,1.054,0,0,1,.183,1.515" transform="translate(-855.129 -408.367)" fill="#739af0"></path><path id="Trazado_6111" data-name="Trazado 6111" d="M1107.328,641.046a14.407,14.407,0,0,1-1.2-1.048c-1.807-1.841-8.04-10.928-12.464-19.02-.573-4.891-.18-9.478,1.836-12.685,0,0,11.459,20.164,11.827,32.753" transform="translate(-872.747 -485.526)" fill="#4a82d3"></path><path id="Trazado_6112" data-name="Trazado 6112" d="M1051.563,1149.147l-2.292,9.556-1.418,5.915-4.721,19.688a15.834,15.834,0,0,1-8.241,0,71.81,71.81,0,0,1-1.6-14.641,49.137,49.137,0,0,1,1.608-13.373,30.729,30.729,0,0,1,1.968-5.229c6.661-13.6,14.7-1.916,14.7-1.916" transform="translate(-824.748 -913.496)" fill="#ffb27d"></path><path id="Trazado_6113" data-name="Trazado 6113" d="M1055.229,1338.771h-22.187a18.861,18.861,0,0,1,.627-6.569,11.357,11.357,0,0,1,.527-1.41,22.478,22.478,0,0,0,9.224,0s4.016,3.42,6.444,4.468,5.109.479,5.365,3.51" transform="translate(-824.502 -1062.209)" fill="#2b478b"></path><path id="Trazado_6114" data-name="Trazado 6114" d="M1049.271,1200.074l-1.418,5.915a34.191,34.191,0,0,1-14.563,5.047,49.144,49.144,0,0,1,1.608-13.372,9.815,9.815,0,0,1,5.886-1.269,16.851,16.851,0,0,1,8.486,3.679" transform="translate(-824.748 -954.868)" fill="#e8945b"></path><path id="Trazado_6115" data-name="Trazado 6115" d="M1043.705,1344.348h-10.663a18.861,18.861,0,0,1,.627-6.569c2.677.834,8.124,2.924,10.037,6.569" transform="translate(-824.502 -1067.786)" fill="#1f396d"></path><path id="Trazado_6116" data-name="Trazado 6116" d="M963.932,1149.147l-2.292,9.556-1.418,5.915-4.721,19.688a15.834,15.834,0,0,1-8.241,0,71.813,71.813,0,0,1-1.6-14.641,49.126,49.126,0,0,1,1.608-13.373,30.684,30.684,0,0,1,1.968-5.229c6.66-13.6,14.7-1.916,14.7-1.916" transform="translate(-754.803 -913.496)" fill="#ffb27d"></path><path id="Trazado_6117" data-name="Trazado 6117" d="M946.563,1330.788a22.456,22.456,0,0,0,9.225,0s4.016,3.421,6.444,4.47,5.11.479,5.365,3.51H945.41a17.7,17.7,0,0,1,1.153-7.98" transform="translate(-754.556 -1062.205)" fill="#2b478b"></path><path id="Trazado_6118" data-name="Trazado 6118" d="M961.64,1200.074l-1.418,5.915a34.188,34.188,0,0,1-14.562,5.047,49.13,49.13,0,0,1,1.608-13.372,9.814,9.814,0,0,1,5.886-1.269,16.851,16.851,0,0,1,8.487,3.679" transform="translate(-754.803 -954.868)" fill="#e8945b"></path><path id="Trazado_6119" data-name="Trazado 6119" d="M955.79,882a4.52,4.52,0,0,1-4.365,3.34H915.85a4.6,4.6,0,0,1-4.583-4.948c.373-4.846,1.707-12.759,2.29-18.1a23.973,23.973,0,0,0,.213-4.924c-3.591-23.76-6.605-51.747-6.239-57.1.052-.753.088-1.142.088-1.142s2.591-.219,6.532-.372c11.456-.452,34.325-.374,38.125,7.118,3.871,7.632,6.208,58.305,6.208,58.305.565,4.735-1.433,13.156-2.694,17.822" transform="translate(-724.346 -637.428)" fill="#c65447"></path><path id="Trazado_6120" data-name="Trazado 6120" d="M913.557,862.9a23.986,23.986,0,0,0,.213-4.924c-3.591-23.76-6.605-51.747-6.239-57.1.052-.753.088-1.142.088-1.142s2.591-.219,6.532-.372a33.6,33.6,0,0,1,9.784,9.439s-1.194,44.463-10.378,54.1" transform="translate(-724.346 -638.033)" fill="#b2443b"></path><path id="Trazado_6121" data-name="Trazado 6121" d="M1029.193,315.75c-2.842-.711-4.493,1.529-4.493,4.165a4.774,4.774,0,0,0,4.774,4.774c2.637,0,4.774-3.055,4.774-5.692s-2.5-2.609-5.056-3.248" transform="translate(-817.892 -251.919)" fill="#b2443b"></path><path id="Trazado_6122" data-name="Trazado 6122" d="M1011.945,357.165s-14.8-13.333-1.4-22.772c0,0,4-1.066,6.032-.685,0,0,7.285-2.131,11.548,2.817s6.115,8.526,2.461,12.941-18.639,7.7-18.639,7.7" transform="translate(-802.112 -265.994)" fill="#c65447"></path><path id="Trazado_6123" data-name="Trazado 6123" d="M924.7,840.139a10.62,10.62,0,0,1-3.371,12.938s-3.046,2.084-3.513-.624.071-1.764-.663-5.561.205-7.723,2.389-9.433Z" transform="translate(-731.852 -668.441)" fill="#ffb27d"></path><path id="Trazado_6124" data-name="Trazado 6124" d="M1032.42,437.89s-.182,2-.521,4.695c-.165,1.318-.366,2.8-.6,4.307-.169,1.079-.356,2.167-.561,3.207l-4.583,15.48-10.763-17.417s2.53-2.092,5.957-13.434c.032-.121.056-.186.056-.186Z" transform="translate(-810.459 -346.842)" fill="#ffb27d"></path><path id="Trazado_6125" data-name="Trazado 6125" d="M943.225,568.125c.14,1.74-.3,2.056-.3,2.056s-6.618,2.4-23.262,1.569q-2.7-.135-5.082-.276c-10.726-.633-16.463-1.294-16.463-1.294s-8.785-20.278,7.72-45.263a80.079,80.079,0,0,1,6.618-8.632c2.673-3.049,3.263-7.128,4.275-11,.289-1.111-.548-1.357-.13-2.4,0,0,3.01-.851,3.32-.851,1.709,1.506,3.965,4.434,9.562,5.012,3.785.395,5.266-1.738,5.8-3.016a45.9,45.9,0,0,1,4.162,2.01,19.206,19.206,0,0,1,11.073,14.312s-9.32,30.646-9.9,34.473c-.259,1.7,1.88,4.348,2.6,13.307" transform="translate(-714.992 -400.707)" fill="#739af0"></path><path id="Trazado_6126" data-name="Trazado 6126" d="M1054.531,442.583c-.165,1.318-.723,4.926-.96,6.428-11.4-4.443-9.9-13.1-9.594-14.285.032-.12.056-.186.056-.186s6.03,4.281,10.5,8.042" transform="translate(-833.091 -346.841)" fill="#e8945b"></path><path id="Trazado_6127" data-name="Trazado 6127" d="M1055.708,394.4s-13.163.422-13.3-7.779-1.928-13.67,6.47-14.287,10.084,2.486,10.8,5.212-.546,16.533-3.966,16.854" transform="translate(-831.826 -297.123)" fill="#ffb27d"></path><path id="Trazado_6128" data-name="Trazado 6128" d="M1048.268,360.826s-.826,13.693-16.874,12.224c0,0,.341-18.963,16.874-12.224" transform="translate(-823.235 -286.848)" fill="#c65447"></path><path id="Trazado_6129" data-name="Trazado 6129" d="M1099.781,373.3a90.082,90.082,0,0,0,6.536,7.341s5-7.178-6.536-7.341" transform="translate(-877.82 -297.961)" fill="#c65447"></path><path id="Trazado_6130" data-name="Trazado 6130" d="M1099.781,373.3s4.04,6.823,6.08,8.6c0,0,5.459-8.435-6.08-8.6" transform="translate(-877.82 -297.961)" fill="#c65447"></path><path id="Trazado_6131" data-name="Trazado 6131" d="M914.581,662.008c-10.727-.632-16.463-1.293-16.463-1.293s-8.786-20.278,7.72-45.263c3.342,7.789,11.223,28.606,8.743,46.556" transform="translate(-714.993 -491.241)" fill="#4a82d3"></path><path id="Trazado_6132" data-name="Trazado 6132" d="M906.589,502.027s-12.734,2.613-18.408,9.182c-4.347,5.034-9.1,29.646-9.1,33.713,0,3.886,4.467,24.548,7.256,28.509a.922.922,0,0,0,.852.392l7.172-.76a1.054,1.054,0,0,0,.931-1.209l-4.03-26.118L905.4,520.649s8.34-9.885,1.187-18.622" transform="translate(-701.66 -400.707)" fill="#739af0"></path><path id="Trazado_6133" data-name="Trazado 6133" d="M1254.681,1332.287a5.5,5.5,0,0,0,3.469,2.626,5.983,5.983,0,0,1,3.6,2.21,1.4,1.4,0,0,1-1.128,2.234h-12.132a1.744,1.744,0,0,1-1.736-1.92c.09-.9.185-1.945.226-2.748a5.168,5.168,0,0,1,1.845-3.163Z" transform="translate(-995.121 -1062.796)" fill="#2c3a64"></path><path id="Trazado_6134" data-name="Trazado 6134" d="M1202.658,1025.674c.507,9.226-.752,30.194-.752,30.194s-.846,2.338-6.187,2.9a16,16,0,0,1-5.437-.444q-1.617-7.446-2.992-14.212c-6.595-32.354-9.167-52.338-9.167-52.338l26.032-6.051s-1.14,18.266-1.476,30.721c-.1,3.888-.131,7.21-.02,9.233" transform="translate(-940.35 -786.779)" fill="#35488b"></path><path id="Trazado_6135" data-name="Trazado 6135" d="M1204.154,985.719s-1.14,18.266-1.476,30.721l-15.389,27.668c-6.595-32.354-9.167-52.338-9.167-52.338Z" transform="translate(-940.35 -786.779)" fill="#2c3a64"></path><path id="Trazado_6136" data-name="Trazado 6136" d="M1092.61,769.666s-10.073-4.585-17.694-.574-2.962,37.118,7.936,40.327c0,0,20.417,6.528,9.758-39.753" transform="translate(-854.979 -612.559)" fill="#35488b"></path><path id="Trazado_6137" data-name="Trazado 6137" d="M1292.1,807.647a1.2,1.2,0,0,0-.1-.128,16.987,16.987,0,0,1-.943-1.984c2.026-9.92.663-15.656.663-15.656.241-2.888,1.965-23.063-2.006-32.41-1.916-4.51-5.124-4.518-5.124-4.518s.752,7.205.256,11.078c-.456,3.555,2.934,36.872,3.493,42.317-.009,0-.016,0-.019,0l.16,5.537,1.625-.384a1.169,1.169,0,0,0,.2-.072,1.156,1.156,0,0,0,.5-.434l1.312-2.079a1.171,1.171,0,0,0-.017-1.27m-3.091-.9.069-.041-.034.045c0,.005-.017,0-.035,0" transform="translate(-1025.334 -600.99)" fill="#e8945b"></path><path id="Trazado_6138" data-name="Trazado 6138" d="M1150.032,1332.287a5.5,5.5,0,0,0,3.469,2.626,5.982,5.982,0,0,1,3.6,2.21,1.4,1.4,0,0,1-1.127,2.234h-12.132a1.745,1.745,0,0,1-1.736-1.92c.09-.9.185-1.945.226-2.748a5.168,5.168,0,0,1,1.845-3.163Z" transform="translate(-911.592 -1062.796)" fill="#2c3a64"></path><path id="Trazado_6139" data-name="Trazado 6139" d="M1165.4,569.735a11.96,11.96,0,0,0-7.6,2.817c-1.858,1.805-3.791,1.9-5.167,4.029a9.3,9.3,0,0,0-1.6,7.656c.787,3.414.627,6.718,2.772,9.225,1.062,1.241,2.791,1.381,4,2.522a10.356,10.356,0,0,0,7.6,2.755c5.413,0,8.782-3.207,11.553-7.2,2.22-3.2,1.78-5.359,2.3-8.1,1.639-8.619-5.551-13.7-13.854-13.7" transform="translate(-918.517 -454.75)" fill="#35488b"></path><path id="Trazado_6140" data-name="Trazado 6140" d="M1211.888,685.133l-10.348,5.288-2.073-7.178a22.013,22.013,0,0,0,1.914-6.554,27.329,27.329,0,0,0,.214-5.909l8.431,4.317a16,16,0,0,0-.336,1.93,14.037,14.037,0,0,0,.146,4.511,6.244,6.244,0,0,0,2.051,3.595" transform="translate(-957.387 -535.402)" fill="#ffb27d"></path><path id="Trazado_6141" data-name="Trazado 6141" d="M1135.932,996.986s-1.967,26.076-1.529,67.634a16,16,0,0,0,5.235,1.533c5.345.532,6.646-1.587,6.646-1.587s5.465-20.283,6.832-29.422c1.26-8.425,9.532-38.829,9.532-38.829Z" transform="translate(-905.404 -795.237)" fill="#35488b"></path><path id="Trazado_6142" data-name="Trazado 6142" d="M1137.308,735.146a33.145,33.145,0,0,0-8.154-2.314c.045,1.488-.345,2.888-2.956,3.229-3.473.453-6.579-1.917-8.151-3.529h0s-2.449.263-5.3.887a33.293,33.293,0,0,0-4.334,1.228,9.2,9.2,0,0,0-3.879,2.321h0c-2.672,3.279-7.068,13.156-7.068,13.156s7.318,2.713,9.165,4.3l.042.353,1.146,9.512-3.411,18.945a2.879,2.879,0,0,0-.046.495,2.793,2.793,0,0,0,2.139,2.712s.293.049.833.124c3.616.508,18.3,2.259,29.808-.866a5.589,5.589,0,0,0,4.079-5.85l-1.876-23.548c1-.172,2.157-.354,3.1-.459a5.844,5.844,0,0,1,1.67-.036s-1.3-18.389-6.8-20.658" transform="translate(-875.968 -584.691)" fill="#f99746"></path><path id="Trazado_6143" data-name="Trazado 6143" d="M1142.859,857.057c-.146,6.611-4.477,14.377-8.26,16.47-.54-.075-.833-.124-.833-.124a2.793,2.793,0,0,1-2.139-2.712,2.881,2.881,0,0,1,.046-.495l3.412-18.945-1.146-9.511.085-.254s9.093,3.893,8.836,15.571" transform="translate(-903.239 -671.656)" fill="#ed7d2b"></path><path id="Trazado_6144" data-name="Trazado 6144" d="M1303.749,810.826c-.963.107-3.1.46-3.1.46l-1.083-9.864s3.62,6.953,4.186,9.4" transform="translate(-1037.282 -639.678)" fill="#ed7d2b"></path><path id="Trazado_6145" data-name="Trazado 6145" d="M1134.872,783.358l.886-4.921c15-21.708,16.14-25.6,9.392-35.349a14.379,14.379,0,0,0-6.881-4.931,33.3,33.3,0,0,1,4.334-1.228,16.287,16.287,0,0,1,3.75,2.206c20.594,17.829-11.482,44.223-11.482,44.223" transform="translate(-905.829 -588.201)" fill="#35488b"></path><path id="Trazado_6146" data-name="Trazado 6146" d="M1117.288,823.1c-5.874.406-6.688,6.426-6.688,6.426s-9.859.895-11.316,1.542c0,0,.8-2.164,2.223-5.435-1.286-1.264-5.51-3.144-8.308-4.008-2.134,5.443-2.954,10.831-1.757,16.025a1.259,1.259,0,0,0,1.171.968c3.138.146,13.506.094,21.1-6.192l.134-.036c1.817-.108,3.524-1.913,4.179-4.286s.708-1.648,1.21-3.318-1.945-1.685-1.945-1.685" transform="translate(-870.723 -655.806)" fill="#ffb27d"></path><path id="Trazado_6147" data-name="Trazado 6147" d="M1217.407,704.908c-4.794-.128-8.455-4.849-8.455-4.849l8.309.338a14.03,14.03,0,0,0,.146,4.511" transform="translate(-964.958 -558.772)" fill="#e8945b"></path><path id="Trazado_6148" data-name="Trazado 6148" d="M1210.288,636.916s-10.592,1.291-10.818-6.172,4.189-12.3,7.136-12.241c5.876.11,6.845,2.485,7.527,4.957s1.032,12.929-3.844,13.455" transform="translate(-957.383 -493.676)" fill="#ffb27d"></path><path id="Trazado_6149" data-name="Trazado 6149" d="M1239.069,685.934s.231.931,2.551.759c0,0,1.948-.143,1.876-1.168a6.271,6.271,0,0,0-4.427.409" transform="translate(-988.997 -546.995)" fill="#fff"></path><path id="Trazado_6150" data-name="Trazado 6150" d="M1199.927,617.132s-9.052-.005-6.972,6.209c1.311,3.917-3.048,4.526-3.048,4.526l-2.1-6.278,1.314-4.891Z" transform="translate(-948.082 -492.235)" fill="#35488b"></path><path id="Trazado_6151" data-name="Trazado 6151" d="M1579.74,424.974c-2.255-3.746-3.655-20.467-5.283-24.946-1.028-2.831-3.784-6.215-3.493-6.424-2.932-1.728-10.862-2.56-10.862-2.56s0,.011,0,.017c-.309-.065-.617-.129-.914-.188a2.189,2.189,0,0,1-1.955-1.71c0-.048-.009-.1-.015-.146a30.316,30.316,0,0,1-.133-3.445.177.177,0,0,1,0-.044c.026-1.715.157-2.989.157-2.989l-.032,0-10.281-1.653c-.14,3.21-.326,5.6-.523,7.381a2.818,2.818,0,0,1-2.627,2.508c-.2.011-.413.024-.619.039v0s-6.628-.258-9.163.516a4.1,4.1,0,0,0-.645.267c.154.161-24.408,24.779-23.774,27.63s11.411,19.041,15.319,22.024h3.911s-8.669-19.771-8.781-21.374c-.165-2.347,21.8-15.479,21.8-17.873,0-.87,6.123-1.134,10.128-1.1,4.24.033,12.227-2.182,12.227-2.182s3.452,26.161,7.815,33.92c3.441,6.119,18.639,21.8,18.639,21.8l3.206-2.843s-8.634-17.542-14.1-26.614" transform="translate(-1204.899 -304.012)" fill="#ffb27d"></path><path id="Trazado_6152" data-name="Trazado 6152" d="M1577.527,785.635c1.855,18.273-.392,42.2-.392,42.2h-6.3c-9.507-25.005-9.793-40.693-10.335-46.584-.295-3.21-4.628-16.039-8.518-28.379-3.25-10.3-6.187-20.266-6.208-24-.042-8.555,8.481-22.277,8.481-22.277s12.248,4.724,19.806,9.392c2.523,1.559,4.453,3.083,5.113,4.374,1.752,3.436,3.051,27.965-1.613,42.948-2.806,9.021-1.369,13.648-1.369,13.648a76.443,76.443,0,0,1,1.33,8.677" transform="translate(-1233.804 -563.99)" fill="#c65447"></path><path id="Trazado_6153" data-name="Trazado 6153" d="M1577.564,763.311c-2.806,9.021-1.369,13.648-1.369,13.648a76.454,76.454,0,0,1,1.33,8.677l-25.542-32.763c-3.251-10.3-6.187-20.266-6.208-24-.042-8.555,8.481-22.277,8.481-22.277s12.247,4.725,19.806,9.392c2.523,1.559,4.454,3.083,5.113,4.374,1.752,3.436,3.051,27.965-1.612,42.948" transform="translate(-1233.803 -563.99)" fill="#b2443b"></path><path id="Trazado_6154" data-name="Trazado 6154" d="M1604.632,1307.321s-.357,4.107-.885,4.952-2.746,3.7-5.281,4.647-9.787.458-10.35,3.093h25.559a18.071,18.071,0,0,0-.634-6.549c-.986-2.6-2.112-6.143-2.112-6.143Z" transform="translate(-1267.599 -1043.475)" fill="#2b478b"></path><path id="Trazado_6155" data-name="Trazado 6155" d="M1853.515,1298.709a52.993,52.993,0,0,1,3.562,5.455c.7,1.549,5.35,8.107,4.788,8.163s-12.955,0-12.955,0a14.976,14.976,0,0,1-1.127-5.205c.141-2.112-1.69-6.122-1.338-8.412s7.07,0,7.07,0" transform="translate(-1473.755 -1035.788)" fill="#2b478b"></path><path id="Trazado_6156" data-name="Trazado 6156" d="M1701.215,822.317h-7.07s-27.567-39.852-28.515-49.984c-1.185-12.671-10.039-62.687-10.039-62.687l28.279-8.8s2.471,6.356,4.543,12.764c.9,2.794,1.728,5.6,2.241,7.891,1.132,5.059-2.055,24.175-4.231,37.765-1.075,6.693-1.9,12.048-1.848,13.721.165,5.069,9.459,5.726,16.64,49.334" transform="translate(-1321.455 -559.396)" fill="#c65447"></path><path id="Trazado_6157" data-name="Trazado 6157" d="M1693.808,394.627c-.015.256-.031.5-.048.745.016-.24.033-.489.048-.745" transform="translate(-1351.921 -314.983)" fill="#2b478b"></path><path id="Trazado_6158" data-name="Trazado 6158" d="M1694.12,389.4c-.014.273-.029.539-.045.8.015-.261.029-.527.045-.8" transform="translate(-1352.172 -310.81)" fill="#2b478b"></path><path id="Trazado_6159" data-name="Trazado 6159" d="M1694.6,380.883c-.009.2-.017.4-.028.592.009-.194.017-.391.026-.592Z" transform="translate(-1352.572 -304.013)" fill="#2b478b"></path><path id="Trazado_6160" data-name="Trazado 6160" d="M1629.627,494.467c.921,2.771-12.384,4.39-27.151,4.194a48.239,48.239,0,0,1-11.247-1.391c-6.759-1.748-10.478-4.929-7.511-8.3.844-.959,10.2-14.354,10.2-14.354.552-1.2-.046-5.129-2.9-14.468-1.17-3.819.355-6.195.9-7.709a.005.005,0,0,1,0,0,1.527,1.527,0,0,0,.058-1.294,31.787,31.787,0,0,0-4.795-6.039,47.323,47.323,0,0,0-4.011-3.654s5.481-5.973,8.545-7.509c3.157,3.309,10,9.238,18.6,9.3,7.418.057,14.625-4.122,19.013-7.292a3.06,3.06,0,0,1,.781.616c2.741,3.217,3.523,9.02,3.523,9.02s-8.823,4.868-8.665,6.453c.438,4.368.851,5.646.659,7.2l0,.015a10.641,10.641,0,0,1-.456,1.9c-1.5,4.726-4.762,12.026-3.949,14.484.211.638,7.083,14.844,8.4,18.823" transform="translate(-1263.264 -346.361)" fill="#2b478b"></path><path id="Trazado_6161" data-name="Trazado 6161" d="M1630.624,432.138c.142-.043.3-.084.463-.12-.166.038-.323.079-.465.122Z" transform="translate(-1301.525 -344.828)" fill="#ffb27d"></path><path id="Trazado_6162" data-name="Trazado 6162" d="M1748.1,426.731a2.438,2.438,0,0,0,.791.523,2.427,2.427,0,0,1-.791-.523" transform="translate(-1395.294 -340.608)" fill="#ffb27d"></path><path id="Trazado_6163" data-name="Trazado 6163" d="M1752.02,429.324a3.585,3.585,0,0,0,.34.124,2.875,2.875,0,0,1-.34-.124" transform="translate(-1398.422 -342.677)" fill="#ffb27d"></path><path id="Trazado_6164" data-name="Trazado 6164" d="M1913.952,731.219s5.4,1.4,6.143,2.153,2.857,6.615,2.112,6.669a7.748,7.748,0,0,1-5.914-1.8c-2.341-2.576-5.839-2.988-5.666-4.873s3.324-2.153,3.324-2.153" transform="translate(-1525.014 -583.643)" fill="#ffb27d"></path><path id="Trazado_6165" data-name="Trazado 6165" d="M1570.051,679.974s-3.913,4.942-3.913,5.84.792,4.647,1.743,4.7,1.267-3.063,2.006-3.643,3.38-1.673,3.75-2.685a19.837,19.837,0,0,0,.325-4.211Z" transform="translate(-1250.056 -542.741)" fill="#ffb27d"></path><path id="Trazado_6166" data-name="Trazado 6166" d="M1692.29,387.575c4.857-.625,10.77-5.411,10.77-5.411-3.451-1.872-6.445-2.053-8.771-1.41a8.745,8.745,0,0,0-1.549.588Z" transform="translate(-1350.747 -303.641)" fill="#e8945b"></path><path id="Trazado_6167" data-name="Trazado 6167" d="M1677.952,314.353s12.013,4.009,14.395-3.51,5.536-12.067-2.034-14.944-9.976-.483-11.381,1.834-4.044,15.384-.98,16.621" transform="translate(-1338.169 -235.127)" fill="#ffb27d"></path><path id="Trazado_6168" data-name="Trazado 6168" d="M1687.753,370.465s-.443.872-2.711.169c0,0-1.9-.59-1.6-1.593a6.4,6.4,0,0,1,4.309,1.424" transform="translate(-1343.661 -294.548)" fill="#fff"></path><path id="Trazado_6169" data-name="Trazado 6169" d="M1714.976,259.991c-1.346-1.728,3.072-5.294-5.9-9.579-6.807-3.25-8.917,1.673-9.538,4.242-4.048-2.31-10.654-8.964-14.867-4.629-5.044,5.19.427,9.758.427,9.758,1.913,1.393,2.843,1.008,5.64,1.623s1.01,3.851,1.229,4.942a3.5,3.5,0,0,0,4.714,2.184c2.587-1.114,2.289,3.147-.17,4.023-.7.25-1.428,4.168-.413,4.333.854.139,3.937.168,4.25-2.347.186-1.493,2.083-2.273,4.095-3.815a6.292,6.292,0,0,0,4.428,1.845c1.589-.228,1.606-1.5,5.011-3.775s2.442-7.075,1.1-8.8" transform="translate(-1342.959 -198.42)" fill="#c65447"></path><path id="Trazado_6170" data-name="Trazado 6170" d="M1591.228,658.135c-6.759-1.749-10.479-4.929-7.51-8.3.844-.958,10.2-14.354,10.2-14.354s2.508,15.126-2.694,22.656" transform="translate(-1263.263 -507.226)" fill="#233862"></path><path id="Trazado_6171" data-name="Trazado 6171" d="M1777.352,910.787l-1.011-108.378s-.874-7.806-7.683-7.806c-7.266,0-7.683,7.806-7.683,7.806a.826.826,0,0,0,.85.675.879.879,0,0,0,.91-.675s.322-6.018,5.924-6.018c5.25,0,5.924,6.018,5.924,6.018V910.787Z" transform="translate(-1405.569 -634.235)" fill="#233862"></path><path id="Trazado_6172" data-name="Trazado 6172" d="M1823.766,1348.7h4.519l-.4-4.726s.039-.656-.874-.694c-.849-.035-2.524-.156-2.683.358-.14.451-.559,5.062-.559,5.062" transform="translate(-1455.688 -1072.144)" fill="#233862"></path><path id="Trazado_6173" data-name="Trazado 6173" d="M1760,766.146l-.308,1.55a9.931,9.931,0,0,0-9.454,8.182s-.486,3.417,1.978,2.688,2.08-2.473,5.568-3.428,5.761-1.687,6.29-4.226l.57-2.826Z" transform="translate(-1396.971 -611.521)" fill="#ffb27d"></path><path id="Trazado_6174" data-name="Trazado 6174" d="M1823.632,433.193s-2.027,7.975-3.775,15.266c-.7,2.937-1.362,5.762-1.826,7.91a18.225,18.225,0,0,0-.639,3.868c1.52,2.467-1.257,17.512-3.453,22.975-.194.484-.461,1.052-.781,1.682-3.072,6.021-11.249,17.84-11.249,17.84a10.225,10.225,0,0,1-3.816-.328,5.03,5.03,0,0,1-2.119-2.016c.731-1.177,3.691-15.081,7.5-22.877,1.629-3.335,4.028-34.277,7.182-38.444,2.631-3.475,12.979-5.876,12.979-5.876" transform="translate(-1433.505 -345.766)" fill="#f99746"></path><path id="Trazado_6175" data-name="Trazado 6175" d="M1881.626,540.605c1.52,2.468-1.257,17.512-3.453,22.975-.194.484-.461,1.052-.781,1.682-2.935-12.985,1.929-31.379,1.929-31.379,1.214.481,2.2,6.556,2.305,6.721" transform="translate(-1497.74 -426.135)" fill="#ed7d2b"></path><path id="Trazado_6176" data-name="Trazado 6176" d="M1901.358,1297.42s.781,11.752-1.438,11.916c-.3.022-11.256.022-11.256.022h-14.138a4.833,4.833,0,0,1,4.328-4.165c4.09-.713,10.935-3.587,13.413-8.993,2.606-5.687,9.092,1.22,9.092,1.22" transform="translate(-1496.204 -1032.806)" fill="#0f2949"></path><path id="Trazado_6177" data-name="Trazado 6177" d="M2006.72,1297.42s.781,11.752-1.438,11.916c-.3.022-11.256.022-11.256.022h-14.138a4.833,4.833,0,0,1,4.328-4.165c4.09-.713,10.935-3.587,13.413-8.993,2.607-5.687,9.092,1.22,9.092,1.22" transform="translate(-1580.301 -1032.806)" fill="#163560"></path><path id="Trazado_6178" data-name="Trazado 6178" d="M1914.917,822.294c.348,4.969,1.057,11.359.8,17.119-.354,8.054-.609,14.846-.609,14.846-5.31,1.806-15.053-.385-15.053-.385s-3.456-20.354-6.3-36.6c-1.277-7.28-2.336-13.578-2.732-16.552-1.281-9.612,1.364-60.722,1.364-60.722s14.368-9.209,20.3-4.461,9.589,9.386.024,61.392c-.726,3.945,1.421,14.232,2.2,25.363" transform="translate(-1509.093 -586.005)" fill="#2b478b"></path><path id="Trazado_6179" data-name="Trazado 6179" d="M1914.917,822.294a184.393,184.393,0,0,1,.736,18.682c-4.995-5.286-14.839-16.44-21.9-23.7-1.277-7.28-2.336-13.578-2.732-16.552-1.281-9.612,1.364-60.722,1.364-60.722s14.368-9.209,20.3-4.461,9.589,9.386.024,61.392c-.726,3.945,1.421,14.232,2.2,25.363" transform="translate(-1509.093 -586.005)" fill="#233862"></path><path id="Trazado_6180" data-name="Trazado 6180" d="M1963.5,740.292s1.291,51.162,3.307,60.648,12.54,52.91,12.54,52.91,9.864.9,15.019-1.31c0,0-.328-20.111-2.077-31.927-1.634-11.039-4.565-21.131-4.145-25.12,5.541-52.587,1.541-56.932-4.743-61.21s-19.9,6.008-19.9,6.008" transform="translate(-1567.223 -585.258)" fill="#2b478b"></path><path id="Trazado_6181" data-name="Trazado 6181" d="M2056.605,780.453a9.931,9.931,0,0,0,3.152,12.1s2.848,1.948,3.285-.583-.067-1.65.62-5.2-.192-7.223-2.235-8.821Z" transform="translate(-1640.826 -620.94)" fill="#ffb27d"></path><path id="Trazado_6182" data-name="Trazado 6182" d="M1917.373,356.944s3.945,6,3.158,11.592l5.838,14.065,10.532-16.1a36.964,36.964,0,0,1-7.641-14.311Z" transform="translate(-1530.403 -281.109)" fill="#ffb27d"></path><path id="Trazado_6183" data-name="Trazado 6183" d="M1889.374,309.388s14.365.622,14.627-8,4.143-14.361-6.6-15.119c-8.836-.623-11.773,3.061-12.561,5.919s-.789,16.74,4.535,17.2" transform="translate(-1504.134 -228.437)" fill="#ffb27d"></path><path id="Trazado_6184" data-name="Trazado 6184" d="M1902.78,495.177c-3.086.287-7.335.643-12.491.967q-1.545.1-3.195.19c-15.566.872-21.754-1.649-21.754-1.649s-.413-.333-.282-2.161c.676-9.414,2.675-12.194,2.434-13.983-.541-4.021-10.3-36.831-10.3-36.831s-.188-10.364,11.339-15.229a27.311,27.311,0,0,1,3.947-1.312,4.755,4.755,0,0,0,5.428,3.169,18.5,18.5,0,0,0,10.556-5.277c.289,0,.4.009.4.009a31.544,31.544,0,0,1,.965,3.42c.945,4.074,1.5,8.36,4,11.564a87.78,87.78,0,0,1,6.381,9.334,77.68,77.68,0,0,1,3.886,7.461c10.2,22.553,2.31,39.987-1.321,40.328" transform="translate(-1482.372 -337.678)" fill="#f99746"></path><path id="Trazado_6185" data-name="Trazado 6185" d="M2033.063,587.766c-3.087.287-7.335.643-12.491.967-1.5-25.337,8.821-49.672,8.821-49.672a9.11,9.11,0,0,1,1.106.916,16.042,16.042,0,0,1,3.886,7.461c3.075,11.488.5,30.154-1.321,40.328" transform="translate(-1612.655 -430.267)" fill="#ed7d2b"></path><path id="Trazado_6186" data-name="Trazado 6186" d="M1882.619,357.837s-2.8,11.095,1.949,12.657,17.345.311,17.34-13.292c0,0-6.612,3.943-9.77,3.844s-5.2-1.922-8.115-.5c0,0-1.068-.071-1.4-2.711" transform="translate(-1502.011 -285.111)" fill="#c8d9e8"></path><path id="Trazado_6187" data-name="Trazado 6187" d="M2001.363,423.1s10.042.226,15.347,7.129c4.065,5.29,8.363,33.672,8.363,37.946s-4.577,27.858-7.14,30.421a9.656,9.656,0,0,1-3.872,0,7.83,7.83,0,0,1-3.733-1.813s1.275-26.258,1.275-28.721c0-3.566-11.148-25.393-11.148-25.393s-5.782-10.388.907-19.569" transform="translate(-1594.866 -337.708)" fill="#f99746"></path><path id="Trazado_6188" data-name="Trazado 6188" d="M1917.307,278.4a2.493,2.493,0,0,0-1.326-1.343c-8.091-3.524-14,.332-14,.332,4.959-6.657,16.927-5.259,19.448.745,4.116,9.8-3.413,11.845-3.413,11.845s-7.518-3.159-3.165-7.119a7.085,7.085,0,0,0,2.371-3.494,3.475,3.475,0,0,0,.086-.965" transform="translate(-1518.116 -217.885)" fill="#c8d9e8"></path><path id="Trazado_6189" data-name="Trazado 6189" d="M1896.583,383.586s-.264.943-2.626.7c0,0-1.983-.206-1.878-1.25a6.4,6.4,0,0,1,4.5.554" transform="translate(-1510.211 -305.585)" fill="#fff"></path><path id="Trazado_6190" data-name="Trazado 6190" d="M504.544,1371.765H.593a.6.6,0,0,1-.593-.593v-.252a.6.6,0,0,1,.593-.593H504.544a.6.6,0,0,1,.593.593v.252a.6.6,0,0,1-.593.593" transform="translate(0 -1093.765)" fill="#2e3552"></path></g></g></svg>