<svg xmlns="http://www.w3.org/2000/svg" xmlns:xlink="http://www.w3.org/1999/xlink" id="Grupo_961" data-name="Grupo 961" width="484.244" height="278" viewBox="0 0 484.244 278"><defs><clipPath id="clip-path"><rect id="Rect&#xE1;ngulo_2756" data-name="Rect&#xE1;ngulo 2756" width="484.244" height="278" fill="none"></rect></clipPath><clipPath id="clip-path-2"><rect id="Rect&#xE1;ngulo_2755" data-name="Rect&#xE1;ngulo 2755" width="484.244" height="278.001" fill="none"></rect></clipPath><clipPath id="clip-path-3"><rect id="Rect&#xE1;ngulo_2633" data-name="Rect&#xE1;ngulo 2633" width="112.456" height="52.797" fill="none"></rect></clipPath><clipPath id="clip-path-4"><rect id="Rect&#xE1;ngulo_2754" data-name="Rect&#xE1;ngulo 2754" width="5.786" height="2.792" fill="none"></rect></clipPath></defs><g id="Enmascarar_grupo_699" data-name="Enmascarar grupo 699" transform="translate(0)" clip-path="url(#clip-path)"><g id="Grupo_698" data-name="Grupo 698" transform="translate(0 -0.001)"><g id="Grupo_697" data-name="Grupo 697" clip-path="url(#clip-path-2)"><path id="Trazado_3567" data-name="Trazado 3567" d="M505.14,203.723c-.021,1.237-.042,2.472-.105,3.683-.042,1.211-.084,2.4-.168,3.608-.295,5.2-.821,10.243-1.515,15.062-.211,1.438-.421,2.851-.652,4.238-.042.328-.105.656-.147.958l-.042.177c-.147.858-.295,1.69-.442,2.548-.273,1.488-.568,2.977-.863,4.415-.063.278-.126.53-.168.808q-1.2,5.677-2.567,10.672-.221.832-.442,1.664c-.4,1.463-.8,2.85-1.2,4.213-.295.984-.589,1.918-.863,2.826-1.536,4.894-3.03,8.957-4.229,12.035-1.115,2.851-2.062,5.248-2.546,6.459-.21.53-.337.833-.337.833s-233.258.05-362.017.075H43.862a.022.022,0,0,0-.021-.025c-.295-.277-.568-.53-.842-.807h-.021c-.126-.127-.252-.228-.358-.354L36.5,268.866a37.937,37.937,0,0,1-3.282-7.292,47.161,47.161,0,0,1-2.4-15.264c0-.251,0-.53.021-.807,0-.479.021-.984.021-1.463q.032-.643.063-1.286c.105-1.565.252-3.129.463-4.692,0-.052.021-.1.021-.152.042-.253.084-.531.105-.808.042-.328.105-.655.168-.984.189-1.16.421-2.321.673-3.506.042-.278.105-.556.168-.833.084-.328.147-.655.252-.984.232-1.034.526-2.068.82-3.128.568-2.019,1.241-4.037,2-6.081a4.317,4.317,0,0,1,.168-.479c.694-1.842,1.452-3.659,2.272-5.5,1.242-2.774,2.651-5.525,4.187-8.25.337-.58.673-1.16,1.01-1.715q2.556-4.352,5.617-8.553a120.678,120.678,0,0,1,8.058-9.991c.652-.732,1.3-1.439,1.957-2.145.147-.152.295-.3.442-.479.379-.378.758-.782,1.136-1.16,1.6-1.666,3.156-3.23,4.692-4.743.778-.757,1.536-1.489,2.293-2.221,1.494-1.438,2.945-2.851,4.334-4.213A83.08,83.08,0,0,0,82.805,159.5a41.043,41.043,0,0,0,2.777-4.744,40.241,40.241,0,0,0,3.408-9.94c.168-.932.336-1.892.463-2.875a54.539,54.539,0,0,0,.5-8.755,80.587,80.587,0,0,0-.5-8.074c-.063-.6-.147-1.235-.231-1.892-.442-3.556-1.115-7.417-2.02-11.63q-.379-1.778-.82-3.633c-.505-2.145-.9-4.264-1.22-6.332a71.711,71.711,0,0,1-.821-11.632,63.031,63.031,0,0,1,.821-9.89v-.051a68.727,68.727,0,0,1,1.957-8.78C97.2,36.908,131.489,16.6,140.6,12.057,153.58,5.573,168.959,1.94,184.928.6c1.3-.1,2.609-.2,3.913-.278C192.523.1,196.247,0,199.95,0c1.515,0,3.009.026,4.5.051,2.5.076,4.986.177,7.49.353,2.314.152,4.608.328,6.9.555A192.2,192.2,0,0,1,246.256,5.7a131.469,131.469,0,0,1,21.355,7.291l.021.025a117.378,117.378,0,0,1,35.85,24.7c2.125,2.119,4.145,4.263,6.038,6.408.252.277.526.58.778.883.589.656,1.157,1.312,1.725,1.993.252.3.526.606.778.908,1.662,1.993,3.261,3.986,4.776,5.929.758.984,1.515,1.968,2.251,2.926,4,5.3,7.532,10.243,10.9,14.507.421.555.842,1.059,1.262,1.589,5.786,7.065,11.151,11.858,17.715,12.388,4.124.328,8.941-.505,14.349-1.766.547-.126,1.073-.251,1.62-.4,8.31-1.993,17.988-4.819,28.739-6,13.886-1.54,29.6-.329,46.559,8.905.547.3,1.073.606,1.62.908,2.483,1.439,4.986,3.028,7.511,4.819.526.354,1.052.732,1.578,1.11,2.567,1.892,5.176,3.986,7.805,6.307a1.181,1.181,0,0,1,.189.177c1.136.983,2.272,2.042,3.408,3.128,1.326,1.261,2.672,2.573,4.019,3.96,3.24,3.356,6.543,7.039,9.846,11.126,2.4,2.952,4.629,5.929,6.648,8.956,1.41,2.07,2.735,4.164,3.955,6.258.231.378.442.757.673,1.135q3.156,5.564,5.68,11.2c.189.455.4.934.61,1.388a127.974,127.974,0,0,1,5.491,15.617c.126.453.252.882.379,1.312.631,2.345,1.178,4.692,1.683,7.039.673,3.2,1.22,6.383,1.662,9.561a152.908,152.908,0,0,1,1.41,23.741" transform="translate(-24.329 0.003)" fill="#edf4ff"></path><path id="Trazado_3568" data-name="Trazado 3568" d="M344.331,377.265V549.5H314.577V439.1a54.126,54.126,0,0,0,.509-8.755,79.955,79.955,0,0,0-.509-8.074V377.265Z" transform="translate(-248.346 -297.835)" fill="#c4d9ed"></path><path id="Trazado_3569" data-name="Trazado 3569" d="M312.524,377.265V549.5H282.771V456.662a40.972,40.972,0,0,0,2.8-4.744,40.042,40.042,0,0,0,3.433-9.94c.17-.932.339-1.892.466-2.875a54.13,54.13,0,0,0,.508-8.755,80.014,80.014,0,0,0-.508-8.074c-.064-.6-.148-1.236-.233-1.892-.445-3.557-1.123-7.417-2.034-11.63q-.382-1.778-.827-3.633c-.509-2.145-.911-4.264-1.229-6.332a71.187,71.187,0,0,1-.826-11.632,62.539,62.539,0,0,1,.826-9.89Z" transform="translate(-223.236 -297.835)" fill="#d5e7f7"></path><path id="Trazado_3570" data-name="Trazado 3570" d="M290.945,377.077a62.525,62.525,0,0,0-.826,9.89h28.206v-9.94h-27.38Z" transform="translate(-229.037 -297.647)" fill="#c4d9ed"></path><path id="Trazado_3571" data-name="Trazado 3571" d="M321.424,479.484v9.965H296.1q-.382-1.778-.827-3.633c-.509-2.145-.911-4.264-1.229-6.332Z" transform="translate(-232.136 -378.533)" fill="#c4d9ed"></path><path id="Trazado_3572" data-name="Trazado 3572" d="M336.761,582.054v9.966H314.213a80.033,80.033,0,0,0-.508-8.074c-.064-.6-.148-1.235-.233-1.892Z" transform="translate(-247.473 -459.507)" fill="#c4d9ed"></path><path id="Trazado_3573" data-name="Trazado 3573" d="M323.013,684.63v9.94H296.057a40.04,40.04,0,0,0,3.433-9.94Z" transform="translate(-233.725 -540.487)" fill="#c4d9ed"></path><rect id="Rect&#xE1;ngulo_2488" data-name="Rect&#xE1;ngulo 2488" width="29.744" height="9.953" transform="translate(59.544 165.724)" fill="#c4d9ed"></rect><rect id="Rect&#xE1;ngulo_2489" data-name="Rect&#xE1;ngulo 2489" width="29.744" height="9.953" transform="translate(59.544 187.311)" fill="#c4d9ed"></rect><rect id="Rect&#xE1;ngulo_2490" data-name="Rect&#xE1;ngulo 2490" width="29.744" height="9.953" transform="translate(59.544 208.898)" fill="#c4d9ed"></rect><rect id="Rect&#xE1;ngulo_2491" data-name="Rect&#xE1;ngulo 2491" width="29.744" height="9.953" transform="translate(59.544 230.485)" fill="#c4d9ed"></rect><path id="Trazado_3574" data-name="Trazado 3574" d="M118.361,814.407v80.2H88.607V849.627c.339-.58.678-1.161,1.017-1.715q2.575-4.352,5.658-8.553a120.833,120.833,0,0,1,8.117-9.991c.657-.732,1.314-1.439,1.971-2.145.148-.151.3-.3.445-.479.381-.378.763-.782,1.144-1.16,1.61-1.666,3.179-3.23,4.726-4.743.784-.758,1.547-1.489,2.31-2.221,1.5-1.437,2.967-2.851,4.366-4.213" transform="translate(-69.952 -642.94)" fill="#c4d9ed"></path><path id="Trazado_3575" data-name="Trazado 3575" d="M86.655,844.967v73.77H56.9V887.983a4.294,4.294,0,0,1,.169-.479c.7-1.842,1.462-3.659,2.289-5.5,1.25-2.774,2.67-5.525,4.217-8.25.339-.58.678-1.161,1.017-1.715q2.574-4.352,5.658-8.553a120.865,120.865,0,0,1,8.117-9.991c.657-.732,1.314-1.439,1.971-2.145.148-.151.3-.3.445-.479.381-.378.763-.782,1.144-1.16,1.611-1.666,3.179-3.23,4.726-4.743" transform="translate(-44.922 -667.066)" fill="#d5e7f7"></path><path id="Trazado_3576" data-name="Trazado 3576" d="M167.151,844.967v8.527h-8.286c.657-.732,1.314-1.439,1.971-2.145.148-.151.3-.3.445-.479.381-.378.763-.782,1.144-1.16,1.611-1.666,3.179-3.23,4.726-4.743" transform="translate(-125.417 -667.066)" fill="#c4d9ed"></path><path id="Trazado_3577" data-name="Trazado 3577" d="M115.5,932.921v8.553H93.44q2.574-4.352,5.658-8.553Z" transform="translate(-73.767 -736.503)" fill="#c4d9ed"></path><path id="Trazado_3578" data-name="Trazado 3578" d="M86.655,1020.875v8.553H56.9v-2.573a4.309,4.309,0,0,1,.169-.479c.7-1.842,1.462-3.659,2.289-5.5Z" transform="translate(-44.922 -805.939)" fill="#c4d9ed"></path><rect id="Rect&#xE1;ngulo_2492" data-name="Rect&#xE1;ngulo 2492" width="29.744" height="8.545" transform="translate(11.984 233.482)" fill="#c4d9ed"></rect><rect id="Rect&#xE1;ngulo_2493" data-name="Rect&#xE1;ngulo 2493" width="12.459" height="21.628" transform="translate(99.621 246.381)" fill="#dceaf9"></rect><path id="Trazado_3579" data-name="Trazado 3579" d="M688.93,553.822V540.464h-3.406V517.495H667.261v22.969H650.186V503.036H631.345v24.3h-4.3V498.326H608.207v54.385H584.378v31.714h-8.9v7.989H555.024V578.656H543.282V541.273h-14.5v69.009h-14.5v60.049H703.481V553.822Z" transform="translate(-405.998 -393.408)" fill="#d5e7f7"></path><rect id="Rect&#xE1;ngulo_2494" data-name="Rect&#xE1;ngulo 2494" width="18.852" height="5.541" transform="translate(202.199 108.59)" fill="#c4d9ed"></rect><rect id="Rect&#xE1;ngulo_2495" data-name="Rect&#xE1;ngulo 2495" width="18.852" height="5.541" transform="translate(202.199 119)" fill="#c4d9ed"></rect><rect id="Rect&#xE1;ngulo_2496" data-name="Rect&#xE1;ngulo 2496" width="18.852" height="5.541" transform="translate(202.199 128.365)" fill="#c4d9ed"></rect><rect id="Rect&#xE1;ngulo_2497" data-name="Rect&#xE1;ngulo 2497" width="18.852" height="5.541" transform="translate(225.331 128.365)" fill="#c4d9ed"></rect><rect id="Rect&#xE1;ngulo_2498" data-name="Rect&#xE1;ngulo 2498" width="18.852" height="5.541" transform="translate(225.331 119)" fill="#c4d9ed"></rect><rect id="Rect&#xE1;ngulo_2499" data-name="Rect&#xE1;ngulo 2499" width="18.852" height="5.541" transform="translate(225.331 109.648)" fill="#c4d9ed"></rect><rect id="Rect&#xE1;ngulo_2500" data-name="Rect&#xE1;ngulo 2500" width="41.99" height="5.541" transform="translate(202.199 137.446)" fill="#c4d9ed"></rect><rect id="Rect&#xE1;ngulo_2501" data-name="Rect&#xE1;ngulo 2501" width="41.99" height="5.541" transform="translate(202.199 146.527)" fill="#c4d9ed"></rect><rect id="Rect&#xE1;ngulo_2502" data-name="Rect&#xE1;ngulo 2502" width="14.632" height="8.553" transform="translate(122.786 147.869)" fill="#c4d9ed"></rect><rect id="Rect&#xE1;ngulo_2503" data-name="Rect&#xE1;ngulo 2503" width="14.632" height="8.553" transform="translate(122.786 160.59)" fill="#c4d9ed"></rect><rect id="Rect&#xE1;ngulo_2504" data-name="Rect&#xE1;ngulo 2504" width="14.632" height="8.553" transform="translate(122.786 173.31)" fill="#c4d9ed"></rect><rect id="Rect&#xE1;ngulo_2505" data-name="Rect&#xE1;ngulo 2505" width="14.632" height="8.553" transform="translate(122.786 186.644)" fill="#c4d9ed"></rect><rect id="Rect&#xE1;ngulo_2506" data-name="Rect&#xE1;ngulo 2506" width="14.632" height="8.553" transform="translate(122.786 199.565)" fill="#c4d9ed"></rect><rect id="Rect&#xE1;ngulo_2507" data-name="Rect&#xE1;ngulo 2507" width="14.632" height="8.553" transform="translate(122.786 212.486)" fill="#c4d9ed"></rect><rect id="Rect&#xE1;ngulo_2508" data-name="Rect&#xE1;ngulo 2508" width="14.632" height="8.553" transform="translate(122.786 226.004)" fill="#c4d9ed"></rect><rect id="Rect&#xE1;ngulo_2509" data-name="Rect&#xE1;ngulo 2509" width="41.99" height="3.517" transform="translate(202.199 155.402)" fill="#c4d9ed"></rect><rect id="Rect&#xE1;ngulo_2510" data-name="Rect&#xE1;ngulo 2510" width="5.395" height="37.379" transform="translate(137.215 147.869)" fill="#c4d9ed"></rect><rect id="Rect&#xE1;ngulo_2511" data-name="Rect&#xE1;ngulo 2511" width="10.852" height="13.758" transform="translate(149.026 185.249)" fill="#c4d9ed"></rect><path id="Trazado_3580" data-name="Trazado 3580" d="M1159.791,520.792h3.745V558.2h-3.74Z" transform="translate(-915.608 -411.143)" fill="#c4d9ed"></path><rect id="Rect&#xE1;ngulo_2512" data-name="Rect&#xE1;ngulo 2512" width="2.299" height="28.988" transform="translate(221.051 104.919)" fill="#c4d9ed"></rect><g id="Grupo_693" data-name="Grupo 693" transform="translate(182.274 164.76)" opacity="0.8"><g id="Grupo_692" data-name="Grupo 692"><g id="Grupo_691" data-name="Grupo 691" clip-path="url(#clip-path-3)"><rect id="Rect&#xE1;ngulo_2513" data-name="Rect&#xE1;ngulo 2513" width="3.194" height="5.36" transform="translate(0)" fill="#c4d9ed"></rect><rect id="Rect&#xE1;ngulo_2514" data-name="Rect&#xE1;ngulo 2514" width="3.194" height="5.36" transform="translate(5.973)" fill="#c4d9ed"></rect><rect id="Rect&#xE1;ngulo_2515" data-name="Rect&#xE1;ngulo 2515" width="3.194" height="5.36" transform="translate(11.812)" fill="#c4d9ed"></rect><rect id="Rect&#xE1;ngulo_2516" data-name="Rect&#xE1;ngulo 2516" width="3.194" height="5.36" transform="translate(17.349)" fill="#c4d9ed"></rect><rect id="Rect&#xE1;ngulo_2517" data-name="Rect&#xE1;ngulo 2517" width="3.194" height="5.36" transform="translate(22.991)" fill="#c4d9ed"></rect><rect id="Rect&#xE1;ngulo_2518" data-name="Rect&#xE1;ngulo 2518" width="3.194" height="5.36" transform="translate(28.699)" fill="#c4d9ed"></rect><rect id="Rect&#xE1;ngulo_2519" data-name="Rect&#xE1;ngulo 2519" width="3.194" height="5.36" transform="translate(34.672)" fill="#c4d9ed"></rect><rect id="Rect&#xE1;ngulo_2520" data-name="Rect&#xE1;ngulo 2520" width="3.194" height="5.36" transform="translate(40.511)" fill="#c4d9ed"></rect><rect id="Rect&#xE1;ngulo_2521" data-name="Rect&#xE1;ngulo 2521" width="3.194" height="5.36" transform="translate(46.048)" fill="#c4d9ed"></rect><rect id="Rect&#xE1;ngulo_2522" data-name="Rect&#xE1;ngulo 2522" width="3.194" height="5.36" transform="translate(51.69)" fill="#c4d9ed"></rect><rect id="Rect&#xE1;ngulo_2523" data-name="Rect&#xE1;ngulo 2523" width="3.194" height="5.36" transform="translate(57.571)" fill="#c4d9ed"></rect><rect id="Rect&#xE1;ngulo_2524" data-name="Rect&#xE1;ngulo 2524" width="3.194" height="5.36" transform="translate(63.543)" fill="#c4d9ed"></rect><rect id="Rect&#xE1;ngulo_2525" data-name="Rect&#xE1;ngulo 2525" width="3.194" height="5.36" transform="translate(69.383)" fill="#c4d9ed"></rect><rect id="Rect&#xE1;ngulo_2526" data-name="Rect&#xE1;ngulo 2526" width="3.194" height="5.36" transform="translate(74.919)" fill="#c4d9ed"></rect><rect id="Rect&#xE1;ngulo_2527" data-name="Rect&#xE1;ngulo 2527" width="3.194" height="5.36" transform="translate(80.562)" fill="#c4d9ed"></rect><rect id="Rect&#xE1;ngulo_2528" data-name="Rect&#xE1;ngulo 2528" width="3.194" height="5.36" transform="translate(86.269)" fill="#c4d9ed"></rect><rect id="Rect&#xE1;ngulo_2529" data-name="Rect&#xE1;ngulo 2529" width="3.194" height="5.36" transform="translate(92.242)" fill="#c4d9ed"></rect><rect id="Rect&#xE1;ngulo_2530" data-name="Rect&#xE1;ngulo 2530" width="3.194" height="5.36" transform="translate(98.082)" fill="#c4d9ed"></rect><rect id="Rect&#xE1;ngulo_2531" data-name="Rect&#xE1;ngulo 2531" width="3.194" height="5.36" transform="translate(103.618)" fill="#c4d9ed"></rect><rect id="Rect&#xE1;ngulo_2532" data-name="Rect&#xE1;ngulo 2532" width="3.194" height="5.36" transform="translate(109.261)" fill="#c4d9ed"></rect><rect id="Rect&#xE1;ngulo_2533" data-name="Rect&#xE1;ngulo 2533" width="3.194" height="5.36" transform="translate(0 9.458)" fill="#c4d9ed"></rect><rect id="Rect&#xE1;ngulo_2534" data-name="Rect&#xE1;ngulo 2534" width="3.194" height="5.36" transform="translate(5.973 9.458)" fill="#c4d9ed"></rect><rect id="Rect&#xE1;ngulo_2535" data-name="Rect&#xE1;ngulo 2535" width="3.194" height="5.36" transform="translate(11.812 9.458)" fill="#c4d9ed"></rect><rect id="Rect&#xE1;ngulo_2536" data-name="Rect&#xE1;ngulo 2536" width="3.194" height="5.36" transform="translate(17.349 9.458)" fill="#c4d9ed"></rect><rect id="Rect&#xE1;ngulo_2537" data-name="Rect&#xE1;ngulo 2537" width="3.194" height="5.36" transform="translate(22.991 9.458)" fill="#c4d9ed"></rect><rect id="Rect&#xE1;ngulo_2538" data-name="Rect&#xE1;ngulo 2538" width="3.194" height="5.36" transform="translate(28.699 9.458)" fill="#c4d9ed"></rect><rect id="Rect&#xE1;ngulo_2539" data-name="Rect&#xE1;ngulo 2539" width="3.194" height="5.36" transform="translate(34.672 9.458)" fill="#c4d9ed"></rect><rect id="Rect&#xE1;ngulo_2540" data-name="Rect&#xE1;ngulo 2540" width="3.194" height="5.36" transform="translate(40.511 9.458)" fill="#c4d9ed"></rect><rect id="Rect&#xE1;ngulo_2541" data-name="Rect&#xE1;ngulo 2541" width="3.194" height="5.36" transform="translate(46.048 9.458)" fill="#c4d9ed"></rect><rect id="Rect&#xE1;ngulo_2542" data-name="Rect&#xE1;ngulo 2542" width="3.194" height="5.36" transform="translate(51.69 9.458)" fill="#c4d9ed"></rect><rect id="Rect&#xE1;ngulo_2543" data-name="Rect&#xE1;ngulo 2543" width="3.194" height="5.36" transform="translate(57.571 9.458)" fill="#c4d9ed"></rect><rect id="Rect&#xE1;ngulo_2544" data-name="Rect&#xE1;ngulo 2544" width="3.194" height="5.36" transform="translate(63.543 9.458)" fill="#c4d9ed"></rect><rect id="Rect&#xE1;ngulo_2545" data-name="Rect&#xE1;ngulo 2545" width="3.194" height="5.36" transform="translate(69.383 9.458)" fill="#c4d9ed"></rect><rect id="Rect&#xE1;ngulo_2546" data-name="Rect&#xE1;ngulo 2546" width="3.194" height="5.36" transform="translate(74.919 9.458)" fill="#c4d9ed"></rect><rect id="Rect&#xE1;ngulo_2547" data-name="Rect&#xE1;ngulo 2547" width="3.194" height="5.36" transform="translate(80.562 9.458)" fill="#c4d9ed"></rect><rect id="Rect&#xE1;ngulo_2548" data-name="Rect&#xE1;ngulo 2548" width="3.194" height="5.36" transform="translate(86.269 9.458)" fill="#c4d9ed"></rect><rect id="Rect&#xE1;ngulo_2549" data-name="Rect&#xE1;ngulo 2549" width="3.194" height="5.36" transform="translate(92.242 9.458)" fill="#c4d9ed"></rect><rect id="Rect&#xE1;ngulo_2550" data-name="Rect&#xE1;ngulo 2550" width="3.194" height="5.36" transform="translate(98.082 9.458)" fill="#c4d9ed"></rect><rect id="Rect&#xE1;ngulo_2551" data-name="Rect&#xE1;ngulo 2551" width="3.194" height="5.36" transform="translate(103.618 9.458)" fill="#c4d9ed"></rect><rect id="Rect&#xE1;ngulo_2552" data-name="Rect&#xE1;ngulo 2552" width="3.194" height="5.36" transform="translate(109.261 9.458)" fill="#c4d9ed"></rect><rect id="Rect&#xE1;ngulo_2553" data-name="Rect&#xE1;ngulo 2553" width="3.194" height="5.36" transform="translate(0 18.771)" fill="#c4d9ed"></rect><rect id="Rect&#xE1;ngulo_2554" data-name="Rect&#xE1;ngulo 2554" width="3.194" height="5.36" transform="translate(5.973 18.771)" fill="#c4d9ed"></rect><rect id="Rect&#xE1;ngulo_2555" data-name="Rect&#xE1;ngulo 2555" width="3.194" height="5.36" transform="translate(11.812 18.771)" fill="#c4d9ed"></rect><rect id="Rect&#xE1;ngulo_2556" data-name="Rect&#xE1;ngulo 2556" width="3.194" height="5.36" transform="translate(17.349 18.771)" fill="#c4d9ed"></rect><rect id="Rect&#xE1;ngulo_2557" data-name="Rect&#xE1;ngulo 2557" width="3.194" height="5.36" transform="translate(22.991 18.771)" fill="#c4d9ed"></rect><rect id="Rect&#xE1;ngulo_2558" data-name="Rect&#xE1;ngulo 2558" width="3.194" height="5.36" transform="translate(28.699 18.771)" fill="#c4d9ed"></rect><rect id="Rect&#xE1;ngulo_2559" data-name="Rect&#xE1;ngulo 2559" width="3.194" height="5.36" transform="translate(34.672 18.771)" fill="#c4d9ed"></rect><rect id="Rect&#xE1;ngulo_2560" data-name="Rect&#xE1;ngulo 2560" width="3.194" height="5.36" transform="translate(40.511 18.771)" fill="#c4d9ed"></rect><rect id="Rect&#xE1;ngulo_2561" data-name="Rect&#xE1;ngulo 2561" width="3.194" height="5.36" transform="translate(46.048 18.771)" fill="#c4d9ed"></rect><rect id="Rect&#xE1;ngulo_2562" data-name="Rect&#xE1;ngulo 2562" width="3.194" height="5.36" transform="translate(51.69 18.771)" fill="#c4d9ed"></rect><rect id="Rect&#xE1;ngulo_2563" data-name="Rect&#xE1;ngulo 2563" width="3.194" height="5.36" transform="translate(57.571 18.771)" fill="#c4d9ed"></rect><rect id="Rect&#xE1;ngulo_2564" data-name="Rect&#xE1;ngulo 2564" width="3.194" height="5.36" transform="translate(63.543 18.771)" fill="#c4d9ed"></rect><rect id="Rect&#xE1;ngulo_2565" data-name="Rect&#xE1;ngulo 2565" width="3.194" height="5.36" transform="translate(69.383 18.771)" fill="#c4d9ed"></rect><rect id="Rect&#xE1;ngulo_2566" data-name="Rect&#xE1;ngulo 2566" width="3.194" height="5.36" transform="translate(74.919 18.771)" fill="#c4d9ed"></rect><rect id="Rect&#xE1;ngulo_2567" data-name="Rect&#xE1;ngulo 2567" width="3.194" height="5.36" transform="translate(80.562 18.771)" fill="#c4d9ed"></rect><rect id="Rect&#xE1;ngulo_2568" data-name="Rect&#xE1;ngulo 2568" width="3.194" height="5.36" transform="translate(86.269 18.771)" fill="#c4d9ed"></rect><rect id="Rect&#xE1;ngulo_2569" data-name="Rect&#xE1;ngulo 2569" width="3.194" height="5.36" transform="translate(92.242 18.771)" fill="#c4d9ed"></rect><rect id="Rect&#xE1;ngulo_2570" data-name="Rect&#xE1;ngulo 2570" width="3.194" height="5.36" transform="translate(98.082 18.771)" fill="#c4d9ed"></rect><rect id="Rect&#xE1;ngulo_2571" data-name="Rect&#xE1;ngulo 2571" width="3.194" height="5.36" transform="translate(103.618 18.771)" fill="#c4d9ed"></rect><rect id="Rect&#xE1;ngulo_2572" data-name="Rect&#xE1;ngulo 2572" width="3.194" height="5.36" transform="translate(109.261 18.771)" fill="#c4d9ed"></rect><rect id="Rect&#xE1;ngulo_2573" data-name="Rect&#xE1;ngulo 2573" width="3.194" height="5.36" transform="translate(0 28.666)" fill="#c4d9ed"></rect><rect id="Rect&#xE1;ngulo_2574" data-name="Rect&#xE1;ngulo 2574" width="3.194" height="5.36" transform="translate(5.973 28.666)" fill="#c4d9ed"></rect><rect id="Rect&#xE1;ngulo_2575" data-name="Rect&#xE1;ngulo 2575" width="3.194" height="5.36" transform="translate(11.812 28.666)" fill="#c4d9ed"></rect><rect id="Rect&#xE1;ngulo_2576" data-name="Rect&#xE1;ngulo 2576" width="3.194" height="5.36" transform="translate(17.349 28.666)" fill="#c4d9ed"></rect><rect id="Rect&#xE1;ngulo_2577" data-name="Rect&#xE1;ngulo 2577" width="3.194" height="5.36" transform="translate(22.991 28.666)" fill="#c4d9ed"></rect><rect id="Rect&#xE1;ngulo_2578" data-name="Rect&#xE1;ngulo 2578" width="3.194" height="5.36" transform="translate(28.699 28.666)" fill="#c4d9ed"></rect><rect id="Rect&#xE1;ngulo_2579" data-name="Rect&#xE1;ngulo 2579" width="3.194" height="5.36" transform="translate(34.672 28.666)" fill="#c4d9ed"></rect><rect id="Rect&#xE1;ngulo_2580" data-name="Rect&#xE1;ngulo 2580" width="3.194" height="5.36" transform="translate(40.511 28.666)" fill="#c4d9ed"></rect><rect id="Rect&#xE1;ngulo_2581" data-name="Rect&#xE1;ngulo 2581" width="3.194" height="5.36" transform="translate(46.048 28.666)" fill="#c4d9ed"></rect><rect id="Rect&#xE1;ngulo_2582" data-name="Rect&#xE1;ngulo 2582" width="3.194" height="5.36" transform="translate(51.69 28.666)" fill="#c4d9ed"></rect><rect id="Rect&#xE1;ngulo_2583" data-name="Rect&#xE1;ngulo 2583" width="3.194" height="5.36" transform="translate(57.571 28.666)" fill="#c4d9ed"></rect><rect id="Rect&#xE1;ngulo_2584" data-name="Rect&#xE1;ngulo 2584" width="3.194" height="5.36" transform="translate(63.543 28.666)" fill="#c4d9ed"></rect><rect id="Rect&#xE1;ngulo_2585" data-name="Rect&#xE1;ngulo 2585" width="3.194" height="5.36" transform="translate(69.383 28.666)" fill="#c4d9ed"></rect><rect id="Rect&#xE1;ngulo_2586" data-name="Rect&#xE1;ngulo 2586" width="3.194" height="5.36" transform="translate(74.919 28.666)" fill="#c4d9ed"></rect><rect id="Rect&#xE1;ngulo_2587" data-name="Rect&#xE1;ngulo 2587" width="3.194" height="5.36" transform="translate(80.562 28.666)" fill="#c4d9ed"></rect><rect id="Rect&#xE1;ngulo_2588" data-name="Rect&#xE1;ngulo 2588" width="3.194" height="5.36" transform="translate(86.269 28.666)" fill="#c4d9ed"></rect><rect id="Rect&#xE1;ngulo_2589" data-name="Rect&#xE1;ngulo 2589" width="3.194" height="5.36" transform="translate(92.242 28.666)" fill="#c4d9ed"></rect><rect id="Rect&#xE1;ngulo_2590" data-name="Rect&#xE1;ngulo 2590" width="3.194" height="5.36" transform="translate(98.082 28.666)" fill="#c4d9ed"></rect><rect id="Rect&#xE1;ngulo_2591" data-name="Rect&#xE1;ngulo 2591" width="3.194" height="5.36" transform="translate(103.618 28.666)" fill="#c4d9ed"></rect><rect id="Rect&#xE1;ngulo_2592" data-name="Rect&#xE1;ngulo 2592" width="3.194" height="5.36" transform="translate(109.261 28.666)" fill="#c4d9ed"></rect><rect id="Rect&#xE1;ngulo_2593" data-name="Rect&#xE1;ngulo 2593" width="3.194" height="5.36" transform="translate(0 38.124)" fill="#c4d9ed"></rect><rect id="Rect&#xE1;ngulo_2594" data-name="Rect&#xE1;ngulo 2594" width="3.194" height="5.36" transform="translate(5.973 38.124)" fill="#c4d9ed"></rect><rect id="Rect&#xE1;ngulo_2595" data-name="Rect&#xE1;ngulo 2595" width="3.194" height="5.36" transform="translate(11.812 38.124)" fill="#c4d9ed"></rect><rect id="Rect&#xE1;ngulo_2596" data-name="Rect&#xE1;ngulo 2596" width="3.194" height="5.36" transform="translate(17.349 38.124)" fill="#c4d9ed"></rect><rect id="Rect&#xE1;ngulo_2597" data-name="Rect&#xE1;ngulo 2597" width="3.194" height="5.36" transform="translate(22.991 38.124)" fill="#c4d9ed"></rect><rect id="Rect&#xE1;ngulo_2598" data-name="Rect&#xE1;ngulo 2598" width="3.194" height="5.36" transform="translate(28.699 38.124)" fill="#c4d9ed"></rect><rect id="Rect&#xE1;ngulo_2599" data-name="Rect&#xE1;ngulo 2599" width="3.194" height="5.36" transform="translate(34.672 38.124)" fill="#c4d9ed"></rect><rect id="Rect&#xE1;ngulo_2600" data-name="Rect&#xE1;ngulo 2600" width="3.194" height="5.36" transform="translate(40.511 38.124)" fill="#c4d9ed"></rect><rect id="Rect&#xE1;ngulo_2601" data-name="Rect&#xE1;ngulo 2601" width="3.194" height="5.36" transform="translate(46.048 38.124)" fill="#c4d9ed"></rect><rect id="Rect&#xE1;ngulo_2602" data-name="Rect&#xE1;ngulo 2602" width="3.194" height="5.36" transform="translate(51.69 38.124)" fill="#c4d9ed"></rect><rect id="Rect&#xE1;ngulo_2603" data-name="Rect&#xE1;ngulo 2603" width="3.194" height="5.36" transform="translate(57.571 38.124)" fill="#c4d9ed"></rect><rect id="Rect&#xE1;ngulo_2604" data-name="Rect&#xE1;ngulo 2604" width="3.194" height="5.36" transform="translate(63.543 38.124)" fill="#c4d9ed"></rect><rect id="Rect&#xE1;ngulo_2605" data-name="Rect&#xE1;ngulo 2605" width="3.194" height="5.36" transform="translate(69.383 38.124)" fill="#c4d9ed"></rect><rect id="Rect&#xE1;ngulo_2606" data-name="Rect&#xE1;ngulo 2606" width="3.194" height="5.36" transform="translate(74.919 38.124)" fill="#c4d9ed"></rect><rect id="Rect&#xE1;ngulo_2607" data-name="Rect&#xE1;ngulo 2607" width="3.194" height="5.36" transform="translate(80.562 38.124)" fill="#c4d9ed"></rect><rect id="Rect&#xE1;ngulo_2608" data-name="Rect&#xE1;ngulo 2608" width="3.194" height="5.36" transform="translate(86.269 38.124)" fill="#c4d9ed"></rect><rect id="Rect&#xE1;ngulo_2609" data-name="Rect&#xE1;ngulo 2609" width="3.194" height="5.36" transform="translate(92.242 38.124)" fill="#c4d9ed"></rect><rect id="Rect&#xE1;ngulo_2610" data-name="Rect&#xE1;ngulo 2610" width="3.194" height="5.36" transform="translate(98.082 38.124)" fill="#c4d9ed"></rect><rect id="Rect&#xE1;ngulo_2611" data-name="Rect&#xE1;ngulo 2611" width="3.194" height="5.36" transform="translate(103.618 38.124)" fill="#c4d9ed"></rect><rect id="Rect&#xE1;ngulo_2612" data-name="Rect&#xE1;ngulo 2612" width="3.194" height="5.36" transform="translate(109.261 38.124)" fill="#c4d9ed"></rect><rect id="Rect&#xE1;ngulo_2613" data-name="Rect&#xE1;ngulo 2613" width="3.194" height="5.36" transform="translate(0 47.437)" fill="#c4d9ed"></rect><rect id="Rect&#xE1;ngulo_2614" data-name="Rect&#xE1;ngulo 2614" width="3.194" height="5.36" transform="translate(5.973 47.437)" fill="#c4d9ed"></rect><rect id="Rect&#xE1;ngulo_2615" data-name="Rect&#xE1;ngulo 2615" width="3.194" height="5.36" transform="translate(11.812 47.437)" fill="#c4d9ed"></rect><rect id="Rect&#xE1;ngulo_2616" data-name="Rect&#xE1;ngulo 2616" width="3.194" height="5.36" transform="translate(17.349 47.437)" fill="#c4d9ed"></rect><rect id="Rect&#xE1;ngulo_2617" data-name="Rect&#xE1;ngulo 2617" width="3.194" height="5.36" transform="translate(22.991 47.437)" fill="#c4d9ed"></rect><rect id="Rect&#xE1;ngulo_2618" data-name="Rect&#xE1;ngulo 2618" width="3.194" height="5.36" transform="translate(28.699 47.437)" fill="#c4d9ed"></rect><rect id="Rect&#xE1;ngulo_2619" data-name="Rect&#xE1;ngulo 2619" width="3.194" height="5.36" transform="translate(34.672 47.437)" fill="#c4d9ed"></rect><rect id="Rect&#xE1;ngulo_2620" data-name="Rect&#xE1;ngulo 2620" width="3.194" height="5.36" transform="translate(40.511 47.437)" fill="#c4d9ed"></rect><rect id="Rect&#xE1;ngulo_2621" data-name="Rect&#xE1;ngulo 2621" width="3.194" height="5.36" transform="translate(46.048 47.437)" fill="#c4d9ed"></rect><rect id="Rect&#xE1;ngulo_2622" data-name="Rect&#xE1;ngulo 2622" width="3.194" height="5.36" transform="translate(51.69 47.437)" fill="#c4d9ed"></rect><rect id="Rect&#xE1;ngulo_2623" data-name="Rect&#xE1;ngulo 2623" width="3.194" height="5.36" transform="translate(57.571 47.437)" fill="#c4d9ed"></rect><rect id="Rect&#xE1;ngulo_2624" data-name="Rect&#xE1;ngulo 2624" width="3.194" height="5.36" transform="translate(63.543 47.437)" fill="#c4d9ed"></rect><rect id="Rect&#xE1;ngulo_2625" data-name="Rect&#xE1;ngulo 2625" width="3.194" height="5.36" transform="translate(69.383 47.437)" fill="#c4d9ed"></rect><rect id="Rect&#xE1;ngulo_2626" data-name="Rect&#xE1;ngulo 2626" width="3.194" height="5.36" transform="translate(74.919 47.437)" fill="#c4d9ed"></rect><rect id="Rect&#xE1;ngulo_2627" data-name="Rect&#xE1;ngulo 2627" width="3.194" height="5.36" transform="translate(80.562 47.437)" fill="#c4d9ed"></rect><rect id="Rect&#xE1;ngulo_2628" data-name="Rect&#xE1;ngulo 2628" width="3.194" height="5.36" transform="translate(86.269 47.437)" fill="#c4d9ed"></rect><rect id="Rect&#xE1;ngulo_2629" data-name="Rect&#xE1;ngulo 2629" width="3.194" height="5.36" transform="translate(92.242 47.437)" fill="#c4d9ed"></rect><rect id="Rect&#xE1;ngulo_2630" data-name="Rect&#xE1;ngulo 2630" width="3.194" height="5.36" transform="translate(98.082 47.437)" fill="#c4d9ed"></rect><rect id="Rect&#xE1;ngulo_2631" data-name="Rect&#xE1;ngulo 2631" width="3.194" height="5.36" transform="translate(103.618 47.437)" fill="#c4d9ed"></rect><rect id="Rect&#xE1;ngulo_2632" data-name="Rect&#xE1;ngulo 2632" width="3.194" height="5.36" transform="translate(109.261 47.437)" fill="#c4d9ed"></rect></g></g></g><rect id="Rect&#xE1;ngulo_2634" data-name="Rect&#xE1;ngulo 2634" width="74.031" height="47.547" transform="translate(159.878 228.989)" fill="#c4d9ed"></rect><rect id="Rect&#xE1;ngulo_2635" data-name="Rect&#xE1;ngulo 2635" width="74.032" height="23.774" transform="translate(103.742 252.763)" fill="#c4d9ed"></rect><rect id="Rect&#xE1;ngulo_2636" data-name="Rect&#xE1;ngulo 2636" width="74.031" height="40.139" transform="translate(239.844 236.398)" fill="#c4d9ed"></rect><rect id="Rect&#xE1;ngulo_2637" data-name="Rect&#xE1;ngulo 2637" width="13.793" height="8.806" transform="translate(164.824 234.557)" fill="#d5e7f7"></rect><rect id="Rect&#xE1;ngulo_2638" data-name="Rect&#xE1;ngulo 2638" width="13.793" height="8.806" transform="translate(182.529 234.557)" fill="#d5e7f7"></rect><rect id="Rect&#xE1;ngulo_2639" data-name="Rect&#xE1;ngulo 2639" width="13.793" height="8.806" transform="translate(199.897 234.557)" fill="#d5e7f7"></rect><rect id="Rect&#xE1;ngulo_2640" data-name="Rect&#xE1;ngulo 2640" width="13.793" height="8.806" transform="translate(216.932 234.557)" fill="#d5e7f7"></rect><rect id="Rect&#xE1;ngulo_2641" data-name="Rect&#xE1;ngulo 2641" width="7.106" height="47.957" transform="translate(233.14 228.989)" fill="#adc9e0"></rect><rect id="Rect&#xE1;ngulo_2642" data-name="Rect&#xE1;ngulo 2642" width="7.106" height="57.231" transform="translate(321.284 219.715)" fill="#adc9e0"></rect><rect id="Rect&#xE1;ngulo_2643" data-name="Rect&#xE1;ngulo 2643" width="7.628" height="39.753" transform="translate(313.876 236.398)" fill="#adc9e0"></rect><path id="Trazado_3581" data-name="Trazado 3581" d="M1457.991,1121.713c-.2.63-.676,1-1.069.825s-.552-.827-.355-1.458a19.412,19.412,0,0,1,1.643-2.656,22.813,22.813,0,0,1-.218,3.288" transform="translate(-1149.833 -882.951)" fill="#dceaf9"></path><path id="Trazado_3582" data-name="Trazado 3582" d="M1439.556,1047.941c-.2.63-.676,1-1.07.825s-.552-.827-.355-1.458a19.4,19.4,0,0,1,1.642-2.656,22.86,22.86,0,0,1-.218,3.288" transform="translate(-1135.279 -824.71)" fill="#dceaf9"></path><path id="Trazado_3583" data-name="Trazado 3583" d="M1368.893,1159.183c-.2.63-.676,1-1.069.826s-.552-.827-.355-1.458a19.412,19.412,0,0,1,1.643-2.656,22.842,22.842,0,0,1-.218,3.288" transform="translate(-1079.494 -912.531)" fill="#dceaf9"></path><path id="Trazado_3584" data-name="Trazado 3584" d="M1431.58,1277.252s-1.371,3.522,1.3,3.779,4.257-1.031,4.906-2.577c0,0-3.319,1.632-2.814-.344a52.21,52.21,0,0,1,1.8-5.154s-2.813,6.016-4.215,5.727c-.625-.129-.98-1.432-.98-1.432" transform="translate(-1129.897 -1004.947)" fill="#ebf2f9"></path><rect id="Rect&#xE1;ngulo_2644" data-name="Rect&#xE1;ngulo 2644" width="0.385" height="3.722" transform="translate(125.698 144.147)" fill="#dceaf9"></rect><rect id="Rect&#xE1;ngulo_2645" data-name="Rect&#xE1;ngulo 2645" width="0.385" height="3.722" transform="translate(139.524 144.147)" fill="#dceaf9"></rect><rect id="Rect&#xE1;ngulo_2646" data-name="Rect&#xE1;ngulo 2646" width="40.745" height="56.575" transform="translate(280.758 219.575)" fill="#d5e7f7"></rect><rect id="Rect&#xE1;ngulo_2647" data-name="Rect&#xE1;ngulo 2647" width="0.753" height="11.471" transform="translate(318.019 208.244)" fill="#d5e7f7"></rect><rect id="Rect&#xE1;ngulo_2648" data-name="Rect&#xE1;ngulo 2648" width="50.831" height="40.698" transform="translate(280.758 235.453)" fill="#d5e7f7"></rect><rect id="Rect&#xE1;ngulo_2649" data-name="Rect&#xE1;ngulo 2649" width="50.831" height="13.227" transform="translate(280.758 230.136)" fill="#c4d9ed"></rect><rect id="Rect&#xE1;ngulo_2650" data-name="Rect&#xE1;ngulo 2650" width="2.611" height="4.381" transform="translate(284.219 247.284)" fill="#c4d9ed"></rect><rect id="Rect&#xE1;ngulo_2651" data-name="Rect&#xE1;ngulo 2651" width="2.611" height="4.381" transform="translate(289.102 247.284)" fill="#c4d9ed"></rect><rect id="Rect&#xE1;ngulo_2652" data-name="Rect&#xE1;ngulo 2652" width="2.611" height="4.381" transform="translate(293.874 247.284)" fill="#c4d9ed"></rect><rect id="Rect&#xE1;ngulo_2653" data-name="Rect&#xE1;ngulo 2653" width="2.611" height="4.381" transform="translate(298.399 247.284)" fill="#c4d9ed"></rect><rect id="Rect&#xE1;ngulo_2654" data-name="Rect&#xE1;ngulo 2654" width="2.611" height="4.381" transform="translate(303.011 247.284)" fill="#c4d9ed"></rect><rect id="Rect&#xE1;ngulo_2655" data-name="Rect&#xE1;ngulo 2655" width="2.611" height="4.381" transform="translate(307.676 247.284)" fill="#c4d9ed"></rect><rect id="Rect&#xE1;ngulo_2656" data-name="Rect&#xE1;ngulo 2656" width="2.611" height="4.381" transform="translate(312.558 247.284)" fill="#c4d9ed"></rect><rect id="Rect&#xE1;ngulo_2657" data-name="Rect&#xE1;ngulo 2657" width="2.611" height="4.381" transform="translate(317.33 247.284)" fill="#c4d9ed"></rect><rect id="Rect&#xE1;ngulo_2658" data-name="Rect&#xE1;ngulo 2658" width="2.611" height="4.381" transform="translate(321.855 247.284)" fill="#c4d9ed"></rect><rect id="Rect&#xE1;ngulo_2659" data-name="Rect&#xE1;ngulo 2659" width="2.611" height="4.381" transform="translate(326.467 247.284)" fill="#c4d9ed"></rect><rect id="Rect&#xE1;ngulo_2660" data-name="Rect&#xE1;ngulo 2660" width="2.611" height="4.381" transform="translate(284.219 255.014)" fill="#c4d9ed"></rect><rect id="Rect&#xE1;ngulo_2661" data-name="Rect&#xE1;ngulo 2661" width="2.611" height="4.381" transform="translate(289.102 255.014)" fill="#c4d9ed"></rect><rect id="Rect&#xE1;ngulo_2662" data-name="Rect&#xE1;ngulo 2662" width="2.611" height="4.381" transform="translate(293.874 255.014)" fill="#c4d9ed"></rect><rect id="Rect&#xE1;ngulo_2663" data-name="Rect&#xE1;ngulo 2663" width="2.611" height="4.381" transform="translate(298.399 255.014)" fill="#c4d9ed"></rect><rect id="Rect&#xE1;ngulo_2664" data-name="Rect&#xE1;ngulo 2664" width="2.611" height="4.381" transform="translate(303.011 255.014)" fill="#c4d9ed"></rect><rect id="Rect&#xE1;ngulo_2665" data-name="Rect&#xE1;ngulo 2665" width="2.611" height="4.381" transform="translate(307.676 255.014)" fill="#c4d9ed"></rect><rect id="Rect&#xE1;ngulo_2666" data-name="Rect&#xE1;ngulo 2666" width="2.611" height="4.381" transform="translate(312.558 255.014)" fill="#c4d9ed"></rect><rect id="Rect&#xE1;ngulo_2667" data-name="Rect&#xE1;ngulo 2667" width="2.611" height="4.381" transform="translate(317.33 255.014)" fill="#c4d9ed"></rect><rect id="Rect&#xE1;ngulo_2668" data-name="Rect&#xE1;ngulo 2668" width="2.611" height="4.381" transform="translate(321.855 255.014)" fill="#c4d9ed"></rect><rect id="Rect&#xE1;ngulo_2669" data-name="Rect&#xE1;ngulo 2669" width="2.611" height="4.381" transform="translate(326.467 255.014)" fill="#c4d9ed"></rect><rect id="Rect&#xE1;ngulo_2670" data-name="Rect&#xE1;ngulo 2670" width="2.611" height="4.381" transform="translate(284.219 262.626)" fill="#c4d9ed"></rect><rect id="Rect&#xE1;ngulo_2671" data-name="Rect&#xE1;ngulo 2671" width="2.611" height="4.381" transform="translate(289.102 262.626)" fill="#c4d9ed"></rect><rect id="Rect&#xE1;ngulo_2672" data-name="Rect&#xE1;ngulo 2672" width="2.611" height="4.381" transform="translate(293.874 262.626)" fill="#c4d9ed"></rect><rect id="Rect&#xE1;ngulo_2673" data-name="Rect&#xE1;ngulo 2673" width="2.611" height="4.381" transform="translate(298.399 262.626)" fill="#c4d9ed"></rect><rect id="Rect&#xE1;ngulo_2674" data-name="Rect&#xE1;ngulo 2674" width="2.611" height="4.381" transform="translate(303.011 262.626)" fill="#c4d9ed"></rect><rect id="Rect&#xE1;ngulo_2675" data-name="Rect&#xE1;ngulo 2675" width="2.611" height="4.381" transform="translate(307.676 262.626)" fill="#c4d9ed"></rect><rect id="Rect&#xE1;ngulo_2676" data-name="Rect&#xE1;ngulo 2676" width="2.611" height="4.381" transform="translate(312.558 262.626)" fill="#c4d9ed"></rect><rect id="Rect&#xE1;ngulo_2677" data-name="Rect&#xE1;ngulo 2677" width="2.611" height="4.381" transform="translate(317.33 262.626)" fill="#c4d9ed"></rect><rect id="Rect&#xE1;ngulo_2678" data-name="Rect&#xE1;ngulo 2678" width="2.611" height="4.381" transform="translate(321.855 262.626)" fill="#c4d9ed"></rect><rect id="Rect&#xE1;ngulo_2679" data-name="Rect&#xE1;ngulo 2679" width="2.611" height="4.381" transform="translate(326.467 262.626)" fill="#c4d9ed"></rect><rect id="Rect&#xE1;ngulo_2680" data-name="Rect&#xE1;ngulo 2680" width="2.194" height="4.519" transform="translate(284.636 233.852)" fill="#adc9e0"></rect><rect id="Rect&#xE1;ngulo_2681" data-name="Rect&#xE1;ngulo 2681" width="2.194" height="4.519" transform="translate(306.416 233.852)" fill="#adc9e0"></rect><rect id="Rect&#xE1;ngulo_2682" data-name="Rect&#xE1;ngulo 2682" width="2.194" height="4.519" transform="translate(323.741 233.852)" fill="#adc9e0"></rect><rect id="Rect&#xE1;ngulo_2683" data-name="Rect&#xE1;ngulo 2683" width="50.831" height="40.698" transform="translate(66.925 235.453)" fill="#d5e7f7"></rect><rect id="Rect&#xE1;ngulo_2684" data-name="Rect&#xE1;ngulo 2684" width="50.831" height="13.227" transform="translate(66.925 230.136)" fill="#c4d9ed"></rect><rect id="Rect&#xE1;ngulo_2685" data-name="Rect&#xE1;ngulo 2685" width="2.61" height="4.381" transform="translate(70.386 247.284)" fill="#c4d9ed"></rect><rect id="Rect&#xE1;ngulo_2686" data-name="Rect&#xE1;ngulo 2686" width="2.611" height="4.381" transform="translate(75.268 247.284)" fill="#c4d9ed"></rect><rect id="Rect&#xE1;ngulo_2687" data-name="Rect&#xE1;ngulo 2687" width="2.61" height="4.381" transform="translate(80.04 247.284)" fill="#c4d9ed"></rect><rect id="Rect&#xE1;ngulo_2688" data-name="Rect&#xE1;ngulo 2688" width="2.61" height="4.381" transform="translate(84.566 247.284)" fill="#c4d9ed"></rect><rect id="Rect&#xE1;ngulo_2689" data-name="Rect&#xE1;ngulo 2689" width="2.61" height="4.381" transform="translate(89.177 247.284)" fill="#c4d9ed"></rect><rect id="Rect&#xE1;ngulo_2690" data-name="Rect&#xE1;ngulo 2690" width="2.611" height="4.381" transform="translate(93.842 247.284)" fill="#c4d9ed"></rect><rect id="Rect&#xE1;ngulo_2691" data-name="Rect&#xE1;ngulo 2691" width="2.61" height="4.381" transform="translate(98.724 247.284)" fill="#c4d9ed"></rect><rect id="Rect&#xE1;ngulo_2692" data-name="Rect&#xE1;ngulo 2692" width="2.611" height="4.381" transform="translate(103.496 247.284)" fill="#c4d9ed"></rect><rect id="Rect&#xE1;ngulo_2693" data-name="Rect&#xE1;ngulo 2693" width="2.611" height="4.381" transform="translate(108.021 247.284)" fill="#c4d9ed"></rect><rect id="Rect&#xE1;ngulo_2694" data-name="Rect&#xE1;ngulo 2694" width="2.61" height="4.381" transform="translate(112.634 247.284)" fill="#c4d9ed"></rect><rect id="Rect&#xE1;ngulo_2695" data-name="Rect&#xE1;ngulo 2695" width="2.61" height="4.381" transform="translate(70.386 255.014)" fill="#c4d9ed"></rect><rect id="Rect&#xE1;ngulo_2696" data-name="Rect&#xE1;ngulo 2696" width="2.611" height="4.381" transform="translate(75.268 255.014)" fill="#c4d9ed"></rect><rect id="Rect&#xE1;ngulo_2697" data-name="Rect&#xE1;ngulo 2697" width="2.61" height="4.381" transform="translate(80.04 255.014)" fill="#c4d9ed"></rect><rect id="Rect&#xE1;ngulo_2698" data-name="Rect&#xE1;ngulo 2698" width="2.61" height="4.381" transform="translate(84.566 255.014)" fill="#c4d9ed"></rect><rect id="Rect&#xE1;ngulo_2699" data-name="Rect&#xE1;ngulo 2699" width="2.61" height="4.381" transform="translate(89.177 255.014)" fill="#c4d9ed"></rect><rect id="Rect&#xE1;ngulo_2700" data-name="Rect&#xE1;ngulo 2700" width="2.611" height="4.381" transform="translate(93.842 255.014)" fill="#c4d9ed"></rect><rect id="Rect&#xE1;ngulo_2701" data-name="Rect&#xE1;ngulo 2701" width="2.61" height="4.381" transform="translate(98.724 255.014)" fill="#c4d9ed"></rect><rect id="Rect&#xE1;ngulo_2702" data-name="Rect&#xE1;ngulo 2702" width="2.611" height="4.381" transform="translate(103.496 255.014)" fill="#c4d9ed"></rect><rect id="Rect&#xE1;ngulo_2703" data-name="Rect&#xE1;ngulo 2703" width="2.611" height="4.381" transform="translate(108.021 255.014)" fill="#c4d9ed"></rect><rect id="Rect&#xE1;ngulo_2704" data-name="Rect&#xE1;ngulo 2704" width="2.61" height="4.381" transform="translate(112.634 255.014)" fill="#c4d9ed"></rect><rect id="Rect&#xE1;ngulo_2705" data-name="Rect&#xE1;ngulo 2705" width="2.61" height="4.381" transform="translate(70.386 262.626)" fill="#c4d9ed"></rect><rect id="Rect&#xE1;ngulo_2706" data-name="Rect&#xE1;ngulo 2706" width="2.611" height="4.381" transform="translate(75.268 262.626)" fill="#c4d9ed"></rect><rect id="Rect&#xE1;ngulo_2707" data-name="Rect&#xE1;ngulo 2707" width="2.61" height="4.381" transform="translate(80.04 262.626)" fill="#c4d9ed"></rect><rect id="Rect&#xE1;ngulo_2708" data-name="Rect&#xE1;ngulo 2708" width="2.61" height="4.381" transform="translate(84.566 262.626)" fill="#c4d9ed"></rect><rect id="Rect&#xE1;ngulo_2709" data-name="Rect&#xE1;ngulo 2709" width="2.61" height="4.381" transform="translate(89.177 262.626)" fill="#c4d9ed"></rect><rect id="Rect&#xE1;ngulo_2710" data-name="Rect&#xE1;ngulo 2710" width="2.611" height="4.381" transform="translate(93.842 262.626)" fill="#c4d9ed"></rect><rect id="Rect&#xE1;ngulo_2711" data-name="Rect&#xE1;ngulo 2711" width="2.61" height="4.381" transform="translate(98.724 262.626)" fill="#c4d9ed"></rect><rect id="Rect&#xE1;ngulo_2712" data-name="Rect&#xE1;ngulo 2712" width="2.611" height="4.381" transform="translate(103.496 262.626)" fill="#c4d9ed"></rect><rect id="Rect&#xE1;ngulo_2713" data-name="Rect&#xE1;ngulo 2713" width="2.611" height="4.381" transform="translate(108.021 262.626)" fill="#c4d9ed"></rect><rect id="Rect&#xE1;ngulo_2714" data-name="Rect&#xE1;ngulo 2714" width="2.61" height="4.381" transform="translate(112.634 262.626)" fill="#c4d9ed"></rect><rect id="Rect&#xE1;ngulo_2715" data-name="Rect&#xE1;ngulo 2715" width="2.194" height="4.519" transform="translate(70.803 233.852)" fill="#adc9e0"></rect><rect id="Rect&#xE1;ngulo_2716" data-name="Rect&#xE1;ngulo 2716" width="2.194" height="4.519" transform="translate(92.582 233.852)" fill="#adc9e0"></rect><rect id="Rect&#xE1;ngulo_2717" data-name="Rect&#xE1;ngulo 2717" width="2.194" height="4.519" transform="translate(109.907 233.852)" fill="#adc9e0"></rect><path id="Trazado_3585" data-name="Trazado 3585" d="M112.069,1118.3v40.7H67.4l-6.167-7.947V1118.3Z" transform="translate(-48.338 -882.849)" fill="#d5e7f7"></path><rect id="Rect&#xE1;ngulo_2718" data-name="Rect&#xE1;ngulo 2718" width="50.831" height="13.227" transform="translate(12.902 230.136)" fill="#c4d9ed"></rect><rect id="Rect&#xE1;ngulo_2719" data-name="Rect&#xE1;ngulo 2719" width="2.61" height="4.381" transform="translate(16.363 247.284)" fill="#c4d9ed"></rect><rect id="Rect&#xE1;ngulo_2720" data-name="Rect&#xE1;ngulo 2720" width="2.61" height="4.381" transform="translate(21.244 247.284)" fill="#c4d9ed"></rect><rect id="Rect&#xE1;ngulo_2721" data-name="Rect&#xE1;ngulo 2721" width="2.611" height="4.381" transform="translate(26.017 247.284)" fill="#c4d9ed"></rect><rect id="Rect&#xE1;ngulo_2722" data-name="Rect&#xE1;ngulo 2722" width="2.611" height="4.381" transform="translate(30.542 247.284)" fill="#c4d9ed"></rect><rect id="Rect&#xE1;ngulo_2723" data-name="Rect&#xE1;ngulo 2723" width="2.61" height="4.381" transform="translate(35.154 247.284)" fill="#c4d9ed"></rect><rect id="Rect&#xE1;ngulo_2724" data-name="Rect&#xE1;ngulo 2724" width="2.61" height="4.381" transform="translate(39.819 247.284)" fill="#c4d9ed"></rect><rect id="Rect&#xE1;ngulo_2725" data-name="Rect&#xE1;ngulo 2725" width="2.61" height="4.381" transform="translate(44.701 247.284)" fill="#c4d9ed"></rect><rect id="Rect&#xE1;ngulo_2726" data-name="Rect&#xE1;ngulo 2726" width="2.61" height="4.381" transform="translate(49.473 247.284)" fill="#c4d9ed"></rect><rect id="Rect&#xE1;ngulo_2727" data-name="Rect&#xE1;ngulo 2727" width="2.61" height="4.381" transform="translate(53.998 247.284)" fill="#c4d9ed"></rect><rect id="Rect&#xE1;ngulo_2728" data-name="Rect&#xE1;ngulo 2728" width="2.611" height="4.381" transform="translate(58.61 247.284)" fill="#c4d9ed"></rect><rect id="Rect&#xE1;ngulo_2729" data-name="Rect&#xE1;ngulo 2729" width="2.61" height="4.381" transform="translate(16.363 255.014)" fill="#c4d9ed"></rect><rect id="Rect&#xE1;ngulo_2730" data-name="Rect&#xE1;ngulo 2730" width="2.61" height="4.381" transform="translate(21.244 255.014)" fill="#c4d9ed"></rect><rect id="Rect&#xE1;ngulo_2731" data-name="Rect&#xE1;ngulo 2731" width="2.611" height="4.381" transform="translate(26.017 255.014)" fill="#c4d9ed"></rect><rect id="Rect&#xE1;ngulo_2732" data-name="Rect&#xE1;ngulo 2732" width="2.611" height="4.381" transform="translate(30.542 255.014)" fill="#c4d9ed"></rect><rect id="Rect&#xE1;ngulo_2733" data-name="Rect&#xE1;ngulo 2733" width="2.61" height="4.381" transform="translate(35.154 255.014)" fill="#c4d9ed"></rect><rect id="Rect&#xE1;ngulo_2734" data-name="Rect&#xE1;ngulo 2734" width="2.61" height="4.381" transform="translate(39.819 255.014)" fill="#c4d9ed"></rect><rect id="Rect&#xE1;ngulo_2735" data-name="Rect&#xE1;ngulo 2735" width="2.61" height="4.381" transform="translate(44.701 255.014)" fill="#c4d9ed"></rect><rect id="Rect&#xE1;ngulo_2736" data-name="Rect&#xE1;ngulo 2736" width="2.61" height="4.381" transform="translate(49.473 255.014)" fill="#c4d9ed"></rect><rect id="Rect&#xE1;ngulo_2737" data-name="Rect&#xE1;ngulo 2737" width="2.61" height="4.381" transform="translate(53.998 255.014)" fill="#c4d9ed"></rect><rect id="Rect&#xE1;ngulo_2738" data-name="Rect&#xE1;ngulo 2738" width="2.611" height="4.381" transform="translate(58.61 255.014)" fill="#c4d9ed"></rect><rect id="Rect&#xE1;ngulo_2739" data-name="Rect&#xE1;ngulo 2739" width="2.61" height="4.381" transform="translate(16.363 262.626)" fill="#c4d9ed"></rect><rect id="Rect&#xE1;ngulo_2740" data-name="Rect&#xE1;ngulo 2740" width="2.61" height="4.381" transform="translate(21.244 262.626)" fill="#c4d9ed"></rect><rect id="Rect&#xE1;ngulo_2741" data-name="Rect&#xE1;ngulo 2741" width="2.611" height="4.381" transform="translate(26.017 262.626)" fill="#c4d9ed"></rect><rect id="Rect&#xE1;ngulo_2742" data-name="Rect&#xE1;ngulo 2742" width="2.611" height="4.381" transform="translate(30.542 262.626)" fill="#c4d9ed"></rect><rect id="Rect&#xE1;ngulo_2743" data-name="Rect&#xE1;ngulo 2743" width="2.61" height="4.381" transform="translate(35.154 262.626)" fill="#c4d9ed"></rect><rect id="Rect&#xE1;ngulo_2744" data-name="Rect&#xE1;ngulo 2744" width="2.61" height="4.381" transform="translate(39.819 262.626)" fill="#c4d9ed"></rect><rect id="Rect&#xE1;ngulo_2745" data-name="Rect&#xE1;ngulo 2745" width="2.61" height="4.381" transform="translate(44.701 262.626)" fill="#c4d9ed"></rect><rect id="Rect&#xE1;ngulo_2746" data-name="Rect&#xE1;ngulo 2746" width="2.61" height="4.381" transform="translate(49.473 262.626)" fill="#c4d9ed"></rect><rect id="Rect&#xE1;ngulo_2747" data-name="Rect&#xE1;ngulo 2747" width="2.61" height="4.381" transform="translate(53.998 262.626)" fill="#c4d9ed"></rect><rect id="Rect&#xE1;ngulo_2748" data-name="Rect&#xE1;ngulo 2748" width="2.611" height="4.381" transform="translate(58.61 262.626)" fill="#c4d9ed"></rect><rect id="Rect&#xE1;ngulo_2749" data-name="Rect&#xE1;ngulo 2749" width="2.194" height="4.519" transform="translate(16.779 233.852)" fill="#adc9e0"></rect><rect id="Rect&#xE1;ngulo_2750" data-name="Rect&#xE1;ngulo 2750" width="2.194" height="4.519" transform="translate(38.558 233.852)" fill="#adc9e0"></rect><rect id="Rect&#xE1;ngulo_2751" data-name="Rect&#xE1;ngulo 2751" width="2.194" height="4.519" transform="translate(55.883 233.852)" fill="#adc9e0"></rect><path id="Trazado_3586" data-name="Trazado 3586" d="M36.469,1118.3v25.457a46.851,46.851,0,0,1-2.416-15.264c0-.251,0-.53.021-.807,0-.479.021-.984.021-1.463q.032-.643.063-1.286c.106-1.565.254-3.129.466-4.692,0-.052.021-.1.021-.151.042-.253.085-.531.106-.808.043-.328.106-.655.17-.984Z" transform="translate(-26.883 -882.849)" fill="#d5e7f7"></path><path id="Trazado_3587" data-name="Trazado 3587" d="M36.628,1093.014v13.245H34.255q.032-.643.063-1.286c.106-1.565.254-3.129.466-4.692,0-.052.021-.1.021-.151.042-.253.085-.531.106-.808.043-.328.106-.655.17-.984.191-1.16.424-2.321.678-3.506.042-.278.106-.556.169-.833.085-.328.148-.655.254-.984Z" transform="translate(-27.043 -862.889)" fill="#c4d9ed"></path><path id="Trazado_3588" data-name="Trazado 3588" d="M483.637,1314.5H.606a.608.608,0,0,1-.606-.606v-.356a.608.608,0,0,1,.606-.606H483.637a.608.608,0,0,1,.606.606v.356a.608.608,0,0,1-.606.606" transform="translate(0 -1036.505)" fill="#2e3552"></path><path id="Trazado_3589" data-name="Trazado 3589" d="M179.5,1245.759c-.913-1.434-3.661-5.158-7.322-4.665-3.988.537,4.4,3.166,6.975,4.676a4.275,4.275,0,0,1-1.422-.166c-1.718-.612-4.66.562-5.6.974h16.355a2.592,2.592,0,0,0-1.17-1.5,2.925,2.925,0,0,0-1.505-.134c.972-1.146,1.648-4.808-1.059-3.866-1.978.689-1.972,2.926-1.778,4.25-.421.066-.847.133-1.269.193-.814-4.15-3.694-16.312-9.532-16.637-5.918-.329,5.018,12.614,8.66,16.753-.467.056-.916.1-1.332.118" transform="translate(-134.562 -970.152)" fill="#a8d29f"></path><path id="Trazado_3590" data-name="Trazado 3590" d="M632.795,1185.559s5.565-16.607,21.505-19.8,27.74,9.285,41.943,4.42,36.588-30.614,63.231-11.8,24.9,24.177,41.7,19.781,20.647,7.4,20.647,7.4Z" transform="translate(-499.566 -909.133)" fill="#a8d29f"></path><path id="Trazado_3591" data-name="Trazado 3591" d="M641.052,1203.182s-11.626-12.191-17.565-8.922,17.565,8.922,17.565,8.922" transform="translate(-491.458 -942.38)" fill="#a8d29f"></path><path id="Trazado_3592" data-name="Trazado 3592" d="M645.062,1244.983s-10.717-3.494-13.4-1.747,13.4,1.747,13.4,1.747" transform="translate(-498.433 -981.098)" fill="#a8d29f"></path><path id="Trazado_3593" data-name="Trazado 3593" d="M858.378,1196s7.365-16.523,9.92-13.517-9.92,13.517-9.92,13.517" transform="translate(-677.654 -933.235)" fill="#a8d29f"></path><path id="Trazado_3594" data-name="Trazado 3594" d="M837.888,1200.074s3.006-12.1-1.5-11.347,1.5,11.347,1.5,11.347" transform="translate(-658.968 -938.424)" fill="#a8d29f"></path><path id="Trazado_3595" data-name="Trazado 3595" d="M1820.953,926.574l-1.281-1.043,17.154-22.418,6.191-.258Z" transform="translate(-1436.557 -712.766)" fill="#699ff0"></path><path id="Trazado_3596" data-name="Trazado 3596" d="M1715.329,926.574l-1.059-1.043,14.192-22.418,5.122-.258Z" transform="translate(-1353.346 -712.766)" fill="#699ff0"></path><path id="Trazado_3597" data-name="Trazado 3597" d="M1221.8,709.122a7.524,7.524,0,1,1,7.522,7.7,7.615,7.615,0,0,1-7.522-7.7" transform="translate(-964.565 -553.741)" fill="#699ff0"></path><path id="Trazado_3598" data-name="Trazado 3598" d="M1382.577,1192.731h-76.488a1.521,1.521,0,0,1-1.511-1.522v-7.229a1.521,1.521,0,0,1,1.511-1.523h67.567a1.521,1.521,0,0,1,1.511,1.523Z" transform="translate(-1029.911 -933.502)" fill="#699ff0"></path><path id="Trazado_3599" data-name="Trazado 3599" d="M1678.246,1118.646a22.859,22.859,0,1,1,22.858,22.859,22.859,22.859,0,0,1-22.858-22.859" transform="translate(-1324.907 -865.079)" fill="#2b478b"></path><path id="Trazado_3600" data-name="Trazado 3600" d="M1731.472,1160.67a11.652,11.652,0,1,1,11.652,11.652,11.653,11.653,0,0,1-11.652-11.652" transform="translate(-1366.927 -907.102)" fill="#85b2ef"></path><path id="Trazado_3601" data-name="Trazado 3601" d="M1064.749,1045.183a33.844,33.844,0,0,0-43.69,27.208,4.411,4.411,0,0,0,4.367,5.058h.149a2.809,2.809,0,0,0,2.79-2.556,26.285,26.285,0,0,1,52.444,2.556h7.56a33.9,33.9,0,0,0-23.621-32.266" transform="translate(-806.046 -823.881)" fill="#699ff0"></path><path id="Trazado_3602" data-name="Trazado 3602" d="M1195.882,876.06l-11.454,4.612c-7.931-15.423-16.031-22.992-22.959-26.724-12.462-6.719-21.137-1.028-18.215-6.321l21.378-45.108a19.639,19.639,0,0,1,17.758-8.089,6.386,6.386,0,0,1,5.446,8.377,77.906,77.906,0,0,0-3.875,24.772c0,26.588,11.92,48.48,11.92,48.48" transform="translate(-902.104 -627.105)" fill="#699ff0"></path><path id="Trazado_3603" data-name="Trazado 3603" d="M1294.744,719.733l-8.627-3.3c-1.174,0-3.413,1.061-3.413-.113l1.278-21.069a2.141,2.141,0,0,1,2.135-2.134h5.561c1.174,0,5.88,2.251,5.548,6.467l1.48,21.238c0,1.174-2.788-1.092-3.962-1.092" transform="translate(-1012.643 -547.189)" fill="#699ff0"></path><path id="Trazado_3604" data-name="Trazado 3604" d="M1811.044,877.352h-57.457a3.033,3.033,0,0,1-3.024-3.024v-2.075a3.033,3.033,0,0,1,3.024-3.024h57.457a3.033,3.033,0,0,1,3.024,3.024v2.075a3.033,3.033,0,0,1-3.024,3.024" transform="translate(-1381.999 -686.22)" fill="#699ff0"></path><path id="Trazado_3605" data-name="Trazado 3605" d="M1071.633,1118.646a22.859,22.859,0,1,1,22.859,22.859,22.859,22.859,0,0,1-22.859-22.859" transform="translate(-846.011 -865.079)" fill="#2b478b"></path><path id="Trazado_3606" data-name="Trazado 3606" d="M1148.161,1160.674a11.592,11.592,0,0,1-1.343,5.433c-.056.106-.113.209-.174.313a11.651,11.651,0,1,1-14.612-16.5c.043-.02.088-.038.133-.056a11.654,11.654,0,0,1,16,10.812" transform="translate(-888.029 -907.106)" fill="#afcdfb"></path><path id="Trazado_3607" data-name="Trazado 3607" d="M1536.621,963.892s8.911,19.851-11,41.431h45.951l-6.233-47.24Z" transform="translate(-1204.418 -756.366)" fill="#699ff0"></path><path id="Trazado_3608" data-name="Trazado 3608" d="M1708.036,1031.384a3.033,3.033,0,0,1-3.024,3.024h-73.329a3.034,3.034,0,0,1-3.024-3.024l.973-47.961,24.693-1.512c32.893,0,53.712,16.58,53.712,49.473" transform="translate(-1285.76 -775.178)" fill="#699ff0"></path><path id="Trazado_3609" data-name="Trazado 3609" d="M1248.9,691.581a11.81,11.81,0,0,1-11.83,11.827V679.754a11.829,11.829,0,0,1,11.83,11.827" transform="translate(-976.62 -536.638)" fill="#f99746"></path><path id="Trazado_3610" data-name="Trazado 3610" d="M1327.928,720.181c-.046,0-.536-.1-.583-.105l-13.013-3.611a1.253,1.253,0,0,1-.8-1.429c.076-.688.555-1.165,1.072-1.064l13.044,2.547c.517.1.927.885,1.05,1.562.205,1.134-.31,2.1-.772,2.1" transform="translate(-1036.974 -563.641)" fill="#2b478b"></path><path id="Trazado_3611" data-name="Trazado 3611" d="M1065.555,861.952q.177,1.093.34,2.115c-.033-.015-.065-.033-.1-.048a26.281,26.281,0,0,0-37.429,21.19,2.809,2.809,0,0,1-2.79,2.555h-.149a4.411,4.411,0,0,1-4.367-5.058,33.932,33.932,0,0,1,26-27.954c.045-.013.091-.023.136-.033l21.379-45.108a19.579,19.579,0,0,1,7.533-6.28,89.314,89.314,0,0,0-11.358,52.168q.242,2.722.663,5.542c.048.3.093.607.144.912" transform="translate(-806.046 -634.196)" fill="#f99746"></path><path id="Trazado_3612" data-name="Trazado 3612" d="M1618.538,932.735v7.125a2.255,2.255,0,0,1-2.248,2.248h-46.86a2.257,2.257,0,0,1-2.248-2.248v-7.125a2.255,2.255,0,0,1,2.248-2.248h46.86a2.253,2.253,0,0,1,2.248,2.248" transform="translate(-1237.227 -734.581)" fill="#f99746"></path><path id="Trazado_3613" data-name="Trazado 3613" d="M1711.574,1090.869H1641.03s-4.3-26.119,11.572-34.939c3.823-2.125,8.627-2.856,13.861-2.344,16.494,1.615,37.265,15.592,45.111,37.283" transform="translate(-1295.106 -831.638)" fill="#578ddd"></path><path id="Trazado_3614" data-name="Trazado 3614" d="M1248.706,746.259a11.833,11.833,0,0,1-11.631,9.652v-6.6c3.475.139,8.483-.239,11.631-3.052" transform="translate(-976.621 -589.141)" fill="#ed7d2b"></path><path id="Trazado_3615" data-name="Trazado 3615" d="M1603.7,942.108H1569.43a2.257,2.257,0,0,1-2.248-2.248v-7.125a2.255,2.255,0,0,1,2.248-2.248h23.48a57.463,57.463,0,0,0,10.794,11.62" transform="translate(-1237.226 -734.582)" fill="#ed7d2b"></path><path id="Trazado_3616" data-name="Trazado 3616" d="M1807.58,1091.456h-29.3c-17.684-8.974-16.6-30.625-15.812-37.283,16.495,1.616,37.266,15.593,45.111,37.283" transform="translate(-1391.113 -832.226)" fill="#5c96e3"></path><path id="Trazado_3617" data-name="Trazado 3617" d="M1146.645,1169.774a11.651,11.651,0,1,1-14.612-16.5c1.013,5.043,4.274,14.387,14.612,16.5" transform="translate(-888.03 -910.461)" fill="#85b2ef"></path><path id="Trazado_3618" data-name="Trazado 3618" d="M1163.235,861.952q.177,1.093.34,2.115c-.033-.015-.066-.033-.1-.048-4.221-3.9-13.14-7.361-18.735-9.267.045-.013.091-.023.136-.033l21.379-45.108a19.58,19.58,0,0,1,7.533-6.28,89.311,89.311,0,0,0-11.358,52.168q.242,2.722.663,5.542c.048.3.093.607.144.912" transform="translate(-903.726 -634.196)" fill="#ed7d2b"></path><rect id="Rect&#xE1;ngulo_2752" data-name="Rect&#xE1;ngulo 2752" width="36.52" height="30.113" transform="translate(373.283 152.895)" fill="#d3671e"></rect><rect id="Rect&#xE1;ngulo_2753" data-name="Rect&#xE1;ngulo 2753" width="36.52" height="30.113" transform="translate(391.543 152.895)" fill="#f1a34f"></rect><path id="Trazado_3619" data-name="Trazado 3619" d="M1773.074,822.484h5.787l-.51-1.628.51-1.164h-5.787Z" transform="translate(-1399.77 -647.113)" fill="#f1a34f"></path><path id="Trazado_3620" data-name="Trazado 3620" d="M1896.223,746.166v10.149H1859.7V726.2h6.469Z" transform="translate(-1468.16 -573.306)" fill="#e78b37"></path><g id="Grupo_696" data-name="Grupo 696" transform="translate(422.277 156.857)" opacity="0.4"><g id="Grupo_695" data-name="Grupo 695" transform="translate(0)"><g id="Grupo_694" data-name="Grupo 694" clip-path="url(#clip-path-4)"><path id="Trazado_3621" data-name="Trazado 3621" d="M2011.463,747.811h-5.787l.51-1.628-.51-1.164h5.787Z" transform="translate(-2005.677 -745.019)" fill="#d86713"></path></g></g></g><path id="Trazado_3622" data-name="Trazado 3622" d="M2011.463,835.745h-5.787l.51-1.628-.51-1.164h5.787Z" transform="translate(-1583.4 -657.582)" fill="#f1a34f"></path><path id="Trazado_3623" data-name="Trazado 3623" d="M1597.21,540.769c6.314,2.564,17.856-2.918,17.856-2.918a16.189,16.189,0,0,1-4.561-9.815c-.038-.324-.065-.654-.086-.992l-3.263-1.16-5.592,3.807a43.35,43.35,0,0,0,.064,5.15q.05.858.137,1.843a11.341,11.341,0,0,0-4.554,4.085" transform="translate(-1260.932 -415.163)" fill="#ffb27d"></path><path id="Trazado_3624" data-name="Trazado 3624" d="M1617.72,529.691a43.368,43.368,0,0,0,.064,5.15c5.088-.925,7.888-5.035,8.877-6.805-.037-.324-.065-.654-.085-.992l-3.263-1.16Z" transform="translate(-1277.089 -415.163)" fill="#ed975d"></path><path id="Trazado_3625" data-name="Trazado 3625" d="M1597.1,487.349s10.874-.354,10.549-7.123.86-11.372-6.1-11.432-8.18,2.587-8.621,4.873,1.332,13.6,4.169,13.682" transform="translate(-1257.501 -370.093)" fill="#ffb27d"></path><path id="Trazado_3626" data-name="Trazado 3626" d="M1607.588,466.693a5.078,5.078,0,0,0-.8-3.736s.791-2.208-.058-2.7-1.292,1.391-1.664,1.036a9.264,9.264,0,0,1-2.524-4.227c-.506-2.2-8.046-.624-8.936-.358s5-10.73,11.366-8.126,6.842,5.871,6.107,8.518-.669,9.05-3.49,9.595" transform="translate(-1258.016 -353.82)" fill="#2b478b"></path><path id="Trazado_3627" data-name="Trazado 3627" d="M1466.875,830.293s-.754,13.283-3.778,17.067-60.988,2.316-60.988,2.316-.252-8.517,2.016-10.707,12.853-8.48,46.648-12.047Z" transform="translate(-1106.902 -652.821)" fill="#6bb7bf"></path><path id="Trazado_3628" data-name="Trazado 3628" d="M1586.209,595.2c-.945,11.409.3,28.762-.774,31.769-.925,2.593-11.466,1.051-15.673.186-1.557-.323-3.445-.779-5.393-1.321-5.433-1.509-11.356-3.667-11.991-5.269a1.091,1.091,0,0,1-.058-.184,1.285,1.285,0,0,1,.01-.671c.156-.6.645-1.245.928-2.356a6.9,6.9,0,0,0,.2-1.366c.1-2.066.093-4.468.164-7.054.008-.237.015-.476.023-.715.005-.323.01-.673.048-.993l0-.119c0-.06,0-.121,0-.182.091-3.188.277-6.537.491-9.861.068-1.036.141-2.067.222-3.085.025-.36.055-.718.083-1.074.056-.665.111-1.326.172-1.976a74.247,74.247,0,0,1,1.958-12.53,20.1,20.1,0,0,1,7.2-9.977l2.006-1.545a12.823,12.823,0,0,0,7.278-.87c2.588-1.107,3.483-1.9,3.934-1.6,5.983,4.143,10.285,16.84,9.168,30.789" transform="translate(-1225.462 -445.528)" fill="#f99746"></path><path id="Trazado_3629" data-name="Trazado 3629" d="M1425.037,1132.577s-.513,8.268-2.112,8.387c-.213.016-8.113.016-8.113.016l-10.085-.058a3.273,3.273,0,0,1,3.014-2.944c2.948-.513,7.882-2.585,9.668-6.482,1.878-4.1,7.628,1.082,7.628,1.082" transform="translate(-1108.975 -892.023)" fill="#1c4575"></path><path id="Trazado_3630" data-name="Trazado 3630" d="M1425.1,957.127a11.115,11.115,0,0,1-5.923,1.691,15.964,15.964,0,0,1-2.782-.111,13.213,13.213,0,0,1-3.558-.91l-10.7-44.909s11.593-10.128,17.641-3.831a10.654,10.654,0,0,1,2.036,4.1c3.835,12.381,3.286,43.967,3.286,43.967" transform="translate(-1106.933 -716.034)" fill="#6bb7bf"></path><path id="Trazado_3631" data-name="Trazado 3631" d="M1573,669.585s-7.5,27.477-16.076,30.827a6.917,6.917,0,0,0,.2-1.366c.1-2.066.093-4.468.164-7.054.008-.237.015-.476.023-.716.005-.323.01-.673.048-.993l0-.118c0-.061,0-.121.005-.182.09-3.188.277-6.537.491-9.861.068-1.036.141-2.066.222-3.085,3.773-4.559,8.894-7.835,14.924-7.452" transform="translate(-1229.127 -528.586)" fill="#ed7d2b"></path><path id="Trazado_3632" data-name="Trazado 3632" d="M1364.749,711.833a21.866,21.866,0,0,1-4.108,0c-.84-.252-4.788-2.6-6.217-2.1s-5.04,4.2-4.116,5.881a4.744,4.744,0,0,0,3.234-1.554c1.554-1.6,3.234-.5,3.066-.294s-2.6,1.176-2.184,1.6,3.612.336,4.368-.168,6.384.126,6.384.126Z" transform="translate(-1065.896 -560.249)" fill="#ffb27d"></path><path id="Trazado_3633" data-name="Trazado 3633" d="M1445.811,600.529s-20.324,17.325-25.673,19-24.251,5.344-24.251,5.344-.521,4.475,1.252,6.155c0,0,24.286-1.408,27.31-2.048s25.558-12.317,27.4-13.2,1.552-16.675-6.033-15.247" transform="translate(-1101.939 -474.02)" fill="#f99746"></path><path id="Trazado_3634" data-name="Trazado 3634" d="M1478.57,980.248a11.115,11.115,0,0,1-5.922,1.691,15.963,15.963,0,0,1-2.782-.111c6.1-7.719,5.419-45.547,5.419-45.547,3.835,12.381,3.286,43.967,3.286,43.967" transform="translate(-1160.399 -739.155)" fill="#5aa9ad"></path><path id="Trazado_3635" data-name="Trazado 3635" d="M1584.062,452.01v.1a.715.715,0,0,1-.318.632.407.407,0,0,1-.2.056H1557.78c-.285,0-.517-.31-.517-.688v-.1c0-.378.232-.688.517-.688l5.753-.738a10.7,10.7,0,0,1,7.129-8.964h.005a9.378,9.378,0,0,1,2.883-.451c5.287,0,9.619,4.367,10.071,9.935.005.065.01.128.015.194l.108.081a.718.718,0,0,1,.318.632" transform="translate(-1229.396 -348.283)" fill="#f99746"></path><path id="Trazado_3636" data-name="Trazado 3636" d="M1625.618,451.1c1.92-10.161-4.473-9.509-4.688-9.483a9.383,9.383,0,0,1,2.883-.451c5.287,0,9.619,4.367,10.071,9.934Z" transform="translate(-1279.658 -348.284)" fill="#ed7d2b"></path><path id="Trazado_3637" data-name="Trazado 3637" d="M1800.369,1259.2s21.15-5.33,27.118-11.775,11.124.859,7.256,4.941-34.374,6.834-34.374,6.834" transform="translate(-1421.318 -982.779)" fill="#edf4ff"></path></g></g></g></svg>