<svg xmlns="http://www.w3.org/2000/svg" xmlns:xlink="http://www.w3.org/1999/xlink" id="Grupo_959" data-name="Grupo 959" width="440.914" height="278" viewBox="0 0 440.914 278"><defs><clipPath id="clip-path"><rect id="Rect&#xE1;ngulo_3387" data-name="Rect&#xE1;ngulo 3387" width="440.914" height="278" fill="none"></rect></clipPath><clipPath id="clip-path-2"><rect id="Rect&#xE1;ngulo_3386" data-name="Rect&#xE1;ngulo 3386" width="440.915" height="278.001" fill="none"></rect></clipPath><clipPath id="clip-path-3"><rect id="Rect&#xE1;ngulo_3373" data-name="Rect&#xE1;ngulo 3373" width="187.351" height="159.708" fill="none"></rect></clipPath><clipPath id="clip-path-4"><rect id="Rect&#xE1;ngulo_3375" data-name="Rect&#xE1;ngulo 3375" width="53.108" height="53.108" fill="none"></rect></clipPath><clipPath id="clip-path-5"><rect id="Rect&#xE1;ngulo_3376" data-name="Rect&#xE1;ngulo 3376" width="46.257" height="4.015" fill="none"></rect></clipPath><clipPath id="clip-path-7"><rect id="Rect&#xE1;ngulo_3378" data-name="Rect&#xE1;ngulo 3378" width="79.036" height="17.647" fill="none"></rect></clipPath><clipPath id="clip-path-8"><rect id="Rect&#xE1;ngulo_3379" data-name="Rect&#xE1;ngulo 3379" width="73.418" height="10.67" fill="none"></rect></clipPath></defs><g id="Grupo_958" data-name="Grupo 958" clip-path="url(#clip-path)"><g id="Grupo_957" data-name="Grupo 957" transform="translate(0 -0.001)"><g id="Grupo_956" data-name="Grupo 956" clip-path="url(#clip-path-2)"><path id="Trazado_5366" data-name="Trazado 5366" d="M62.453,278l144.586-.751,38.54-.012,12.768,0,38.614-.011,176.411-.048s40.351-51.742-2.751-100.885c-44.688-50.953-66.418-9.456-80.154-81.178C355.891-85.427,14.036,19.648,103.7,173.275,135.988,228.591,40.15,199.19,62.453,278" transform="translate(-49.604 0.004)" fill="#ebf3fa"></path><path id="Trazado_5367" data-name="Trazado 5367" d="M903.067,1448.688l-.782-.428a1.728,1.728,0,0,1-.685-2.342l3.592-6.56a1.728,1.728,0,0,1,2.342-.685l1.12.613a.338.338,0,0,1-.325.593l-1.12-.613a1.051,1.051,0,0,0-1.426.417l-3.592,6.56a1.051,1.051,0,0,0,.417,1.426l.782.428a1.051,1.051,0,0,0,1.426-.417l2.385-4.354a.338.338,0,1,1,.592.324L905.409,1448a1.728,1.728,0,0,1-2.342.685" transform="translate(-757.203 -1208.365)" fill="#afcdfb"></path><path id="Trazado_5368" data-name="Trazado 5368" d="M876.592,1459.691l-1.4-.768a2.8,2.8,0,0,1-.975-3.821l5.4-9.862a.338.338,0,0,1,.592.324l-5.4,9.862a2.12,2.12,0,0,0,.707,2.9l1.4.767a2.12,2.12,0,0,0,2.828-.968L885.9,1446.9a2.12,2.12,0,0,0-.707-2.9.338.338,0,1,1,.324-.593,2.8,2.8,0,0,1,.975,3.821l-6.151,11.234a2.8,2.8,0,0,1-3.744,1.236" transform="translate(-734.061 -1212.479)" fill="#afcdfb"></path><g id="Grupo_940" data-name="Grupo 940" transform="translate(97.852 44.132)" opacity="0.6"><g id="Grupo_939" data-name="Grupo 939"><g id="Grupo_938" data-name="Grupo 938" clip-path="url(#clip-path-3)"><path id="Trazado_5369" data-name="Trazado 5369" d="M791.424,435.6H619.389a7.658,7.658,0,0,1-7.658-7.658V283.55a7.658,7.658,0,0,1,7.658-7.658H791.424a7.658,7.658,0,0,1,7.658,7.658V427.942a7.658,7.658,0,0,1-7.658,7.658" transform="translate(-611.731 -275.892)" fill="#fff"></path></g></g></g><path id="Trazado_5370" data-name="Trazado 5370" d="M799.082,293.614H611.731v-12a5.717,5.717,0,0,1,5.717-5.717H793.365a5.717,5.717,0,0,1,5.717,5.717Z" transform="translate(-513.879 -231.76)" fill="#699dee"></path><path id="Trazado_5371" data-name="Trazado 5371" d="M659.095,319.493a2.119,2.119,0,1,1,2.119,2.119,2.119,2.119,0,0,1-2.119-2.119" transform="translate(-553.666 -266.606)" fill="#dde7fe"></path><path id="Trazado_5372" data-name="Trazado 5372" d="M714.689,319.493a2.119,2.119,0,1,1,2.119,2.119,2.119,2.119,0,0,1-2.119-2.119" transform="translate(-600.368 -266.606)" fill="#dde7fe"></path><path id="Trazado_5373" data-name="Trazado 5373" d="M770.283,319.493a2.119,2.119,0,1,1,2.119,2.119,2.119,2.119,0,0,1-2.119-2.119" transform="translate(-647.069 -266.606)" fill="#dde7fe"></path><g id="Grupo_943" data-name="Grupo 943" transform="translate(112.7 75.916)" opacity="0.5"><g id="Grupo_942" data-name="Grupo 942"><g id="Grupo_941" data-name="Grupo 941" clip-path="url(#clip-path-4)"><rect id="Rect&#xE1;ngulo_3374" data-name="Rect&#xE1;ngulo 3374" width="53.108" height="53.108" transform="translate(0)" fill="#cde0fb"></rect></g></g></g><g id="Grupo_946" data-name="Grupo 946" transform="translate(178.241 75.86)" opacity="0.5"><g id="Grupo_945" data-name="Grupo 945"><g id="Grupo_944" data-name="Grupo 944" clip-path="url(#clip-path-5)"><path id="Trazado_5374" data-name="Trazado 5374" d="M1158.538,478.256h-42.243a2.007,2.007,0,0,1,0-4.014h42.243a2.007,2.007,0,1,1,0,4.014" transform="translate(-1114.288 -474.242)" fill="#7c9af2"></path></g></g></g><g id="Grupo_949" data-name="Grupo 949" transform="translate(228.756 73.168)" opacity="0.5"><g id="Grupo_948" data-name="Grupo 948"><g id="Grupo_947" data-name="Grupo 947" clip-path="url(#clip-path-5)"><path id="Trazado_5375" data-name="Trazado 5375" d="M1474.335,461.427h-42.243a2.007,2.007,0,1,1,0-4.014h42.243a2.007,2.007,0,0,1,0,4.014" transform="translate(-1430.086 -457.413)" fill="#7c9af2"></path></g></g></g><g id="Grupo_952" data-name="Grupo 952" transform="translate(178.241 92.723)" opacity="0.3"><g id="Grupo_951" data-name="Grupo 951"><g id="Grupo_950" data-name="Grupo 950" clip-path="url(#clip-path-7)"><path id="Trazado_5376" data-name="Trazado 5376" d="M1166.9,582.265h-51.311a1.3,1.3,0,1,1,0-2.6H1166.9a1.3,1.3,0,1,1,0,2.6" transform="translate(-1114.287 -579.663)" fill="#bdd1f9"></path><path id="Trazado_5377" data-name="Trazado 5377" d="M1487.176,582.265h-13.545a1.3,1.3,0,1,1,0-2.6h13.545a1.3,1.3,0,0,1,0,2.6" transform="translate(-1415.058 -579.663)" fill="#bdd1f9"></path><path id="Trazado_5378" data-name="Trazado 5378" d="M1134.948,632.7h-19.36a1.3,1.3,0,1,1,0-2.6h19.36a1.3,1.3,0,1,1,0,2.6" transform="translate(-1114.287 -622.033)" fill="#bdd1f9"></path><path id="Trazado_5379" data-name="Trazado 5379" d="M1293.34,632.7h-26.529a1.3,1.3,0,0,1,0-2.6h26.529a1.3,1.3,0,0,1,0,2.6" transform="translate(-1241.322 -622.033)" fill="#bdd1f9"></path><path id="Trazado_5380" data-name="Trazado 5380" d="M1487.176,632.7h-13.545a1.3,1.3,0,1,1,0-2.6h13.545a1.3,1.3,0,0,1,0,2.6" transform="translate(-1415.058 -622.033)" fill="#bdd1f9"></path><path id="Trazado_5381" data-name="Trazado 5381" d="M1141.858,676.316h-26.27a1.3,1.3,0,0,1,0-2.6h26.27a1.3,1.3,0,0,1,0,2.6" transform="translate(-1114.287 -658.669)" fill="#bdd1f9"></path><path id="Trazado_5382" data-name="Trazado 5382" d="M1367.79,676.316h-42.964a1.3,1.3,0,1,1,0-2.6h42.964a1.3,1.3,0,0,1,0,2.6" transform="translate(-1290.056 -658.669)" fill="#bdd1f9"></path></g></g></g><g id="Grupo_955" data-name="Grupo 955" transform="translate(178.241 118.354)" opacity="0.3"><g id="Grupo_954" data-name="Grupo 954"><g id="Grupo_953" data-name="Grupo 953" clip-path="url(#clip-path-8)"><path id="Trazado_5383" data-name="Trazado 5383" d="M1166.9,742.5h-51.311a1.3,1.3,0,1,1,0-2.6H1166.9a1.3,1.3,0,1,1,0,2.6" transform="translate(-1114.287 -739.895)" fill="#bdd1f9"></path><path id="Trazado_5384" data-name="Trazado 5384" d="M1487.176,742.5h-13.545a1.3,1.3,0,1,1,0-2.6h13.545a1.3,1.3,0,0,1,0,2.6" transform="translate(-1415.058 -739.895)" fill="#bdd1f9"></path><path id="Trazado_5385" data-name="Trazado 5385" d="M1134.948,792.935h-19.36a1.3,1.3,0,1,1,0-2.6h19.36a1.3,1.3,0,1,1,0,2.6" transform="translate(-1114.287 -782.265)" fill="#bdd1f9"></path><path id="Trazado_5386" data-name="Trazado 5386" d="M1293.34,792.935h-26.529a1.3,1.3,0,0,1,0-2.6h26.529a1.3,1.3,0,0,1,0,2.6" transform="translate(-1241.322 -782.265)" fill="#bdd1f9"></path></g></g></g><path id="Trazado_5387" data-name="Trazado 5387" d="M775.593,524.08h5.485L795.9,558h-6.254l-3.416-8.131H770.3L766.837,558h-6.062Zm8.468,20.543-5.822-13.471-5.773,13.471Z" transform="translate(-639.082 -440.248)" fill="#bdd1f9"></path><rect id="Rect&#xE1;ngulo_3380" data-name="Rect&#xE1;ngulo 3380" width="29.667" height="5.727" transform="translate(112.7 139.721)" fill="#f99746"></rect><rect id="Rect&#xE1;ngulo_3381" data-name="Rect&#xE1;ngulo 3381" width="29.667" height="5.727" transform="translate(112.7 145.449)" fill="#ed7d2b"></rect><rect id="Rect&#xE1;ngulo_3382" data-name="Rect&#xE1;ngulo 3382" width="29.667" height="5.727" transform="translate(112.7 151.176)" fill="#474fea"></rect><path id="Trazado_5388" data-name="Trazado 5388" d="M934.448,880.756H918.125a1.237,1.237,0,1,1,0-2.473h16.323a1.237,1.237,0,1,1,0,2.473" transform="translate(-770.223 -737.793)" fill="#bdd1f9"></path><path id="Trazado_5389" data-name="Trazado 5389" d="M928.949,908.01H918.125a1.237,1.237,0,0,1,0-2.474h10.824a1.237,1.237,0,0,1,0,2.474" transform="translate(-770.223 -760.686)" fill="#bdd1f9"></path><rect id="Rect&#xE1;ngulo_3383" data-name="Rect&#xE1;ngulo 3383" width="29.667" height="11.702" transform="translate(112.7 169.333)" fill="#f99746"></rect><rect id="Rect&#xE1;ngulo_3384" data-name="Rect&#xE1;ngulo 3384" width="29.667" height="8.369" transform="translate(112.7 178.146)" fill="#b5453c"></rect><path id="Trazado_5390" data-name="Trazado 5390" d="M704.551,1058.6l10.643,8.94-10.643,8.242Z" transform="translate(-591.851 -889.265)" fill="#474fea"></path><path id="Trazado_5391" data-name="Trazado 5391" d="M934.448,1065.88H918.125a1.237,1.237,0,1,1,0-2.474h16.323a1.237,1.237,0,1,1,0,2.474" transform="translate(-770.223 -893.303)" fill="#bdd1f9"></path><path id="Trazado_5392" data-name="Trazado 5392" d="M928.949,1093.134H918.125a1.237,1.237,0,1,1,0-2.474h10.824a1.237,1.237,0,0,1,0,2.474" transform="translate(-770.223 -916.198)" fill="#bdd1f9"></path><path id="Trazado_5393" data-name="Trazado 5393" d="M1572.85,277s.772,9.209-1.326,9.069-6.241-4.193-14.6-3.534-18.587,2.488-24.77-8.452,7.907-14.089,7.907-14.089Z" transform="translate(-1285.755 -218.404)" fill="#233862"></path><path id="Trazado_5394" data-name="Trazado 5394" d="M1479.1,188.874l42.121,3.464.876-1.874-40.383-29.809-40.792-4.766-.784,1.677Z" transform="translate(-1209.776 -130.953)" fill="#2b478b"></path><path id="Trazado_5395" data-name="Trazado 5395" d="M1846.088,554.187a1.633,1.633,0,1,0-1.121,2.019,1.634,1.634,0,0,0,1.121-2.019" transform="translate(-1548.098 -464.544)" fill="#f99746"></path><path id="Trazado_5396" data-name="Trazado 5396" d="M1838.775,563.236c1.69-.132,2.084,15.241,2.084,15.241a3.742,3.742,0,0,1-1.643.4c-.542-.122-.818-2.2-.818-2.2l-.052,2.176a5.922,5.922,0,0,1-2.5-.386s.251-15.021,2.924-15.229" transform="translate(-1542.189 -473.139)" fill="#f99746"></path><path id="Trazado_5397" data-name="Trazado 5397" d="M1735.135,302.7l-.305-33.584-.218-.163-22-16.276-.79,1.07,21.783,16.113.492,32.782Z" transform="translate(-1437.998 -212.262)" fill="#f99746"></path><path id="Trazado_5398" data-name="Trazado 5398" d="M1549.084,1371.32H1456.55v-35.157h92.842a13.587,13.587,0,0,1,13.587,13.588v7.674a13.9,13.9,0,0,1-13.9,13.9" transform="translate(-1223.561 -1122.43)" fill="#fcecdb"></path><path id="Trazado_5399" data-name="Trazado 5399" d="M1616.427,1350.625v5.289a16.135,16.135,0,0,1-1.952,7.748,14.24,14.24,0,0,1-12.44,7.655H1427.768a2.164,2.164,0,0,1-2.087-2.232v-.792a2.164,2.164,0,0,1,2.087-2.232H1534a14.532,14.532,0,0,0,1.491-2.4,15.1,15.1,0,0,0,1.557-6.722v-6.723a14.951,14.951,0,0,0-.43-3.578,14.429,14.429,0,0,0-2.463-5.22H1427.768a2.164,2.164,0,0,1-2.087-2.234v-.79a2.164,2.164,0,0,1,2.087-2.234h175.144a13.687,13.687,0,0,1,12.993,10.479,15.382,15.382,0,0,1,.521,3.986" transform="translate(-1197.63 -1122.428)" fill="#699dee"></path><path id="Trazado_5400" data-name="Trazado 5400" d="M1615.906,1346.639h-79.288a14.429,14.429,0,0,0-2.463-5.22H1427.768a2.164,2.164,0,0,1-2.087-2.234v-.79a2.164,2.164,0,0,1,2.087-2.234h175.144a13.688,13.688,0,0,1,12.993,10.479" transform="translate(-1197.63 -1122.428)" fill="#548ee2"></path><path id="Trazado_5401" data-name="Trazado 5401" d="M1456.549,1446.058l12.9.591-12.9.356Z" transform="translate(-1223.56 -1214.747)" fill="#f4d2b8"></path><path id="Trazado_5402" data-name="Trazado 5402" d="M1456.549,1480.544l30.7.591-30.7.356Z" transform="translate(-1223.56 -1243.716)" fill="#f4d2b8"></path><path id="Trazado_5403" data-name="Trazado 5403" d="M1303.1,1582.837h90.837v-27.346H1302.3a12.323,12.323,0,0,0-12.323,12.323v1.9a13.123,13.123,0,0,0,13.123,13.123" transform="translate(-1083.636 -1306.675)" fill="#f99746"></path><path id="Trazado_5404" data-name="Trazado 5404" d="M1845.244,1582.837h103.528v-27.346H1844.96a12.529,12.529,0,0,0-12.529,12.529v2a12.813,12.813,0,0,0,12.813,12.813" transform="translate(-1539.316 -1306.675)" fill="#fcecdb"></path><path id="Trazado_5405" data-name="Trazado 5405" d="M1779.677,1704.971h126.675a1.9,1.9,0,0,0,1.9-1.9v-.284a1.9,1.9,0,0,0-1.9-1.9H1779.677a1.9,1.9,0,0,0-1.9,1.9v.284a1.9,1.9,0,0,0,1.9,1.9" transform="translate(-1493.402 -1428.808)" fill="#f99746"></path><path id="Trazado_5406" data-name="Trazado 5406" d="M1779.677,1559.581h126.675a1.9,1.9,0,0,0,1.9-1.9v-.284a1.9,1.9,0,0,0-1.9-1.9H1779.677a1.9,1.9,0,0,0-1.9,1.9v.284a1.9,1.9,0,0,0,1.9,1.9" transform="translate(-1493.402 -1306.675)" fill="#f99746"></path><path id="Trazado_5407" data-name="Trazado 5407" d="M2485.673,1640.97l-14.105.46,14.105.277Z" transform="translate(-2076.217 -1378.481)" fill="#f4d2b8"></path><path id="Trazado_5408" data-name="Trazado 5408" d="M2383.521,1601.626l-33.557.46,33.557.277Z" transform="translate(-1974.065 -1345.43)" fill="#f4d2b8"></path><path id="Trazado_5409" data-name="Trazado 5409" d="M2352.125,1603.928a6.348,6.348,0,0,1,1.914,3.106,5.082,5.082,0,0,1,.149,1.08c.08,2.566,0,8.373,0,8.373l4.246-2.9,4.235,2.9v-7.871a6.931,6.931,0,0,0-1.038-3.884,1.581,1.581,0,0,0-1.173-.8Z" transform="translate(-1975.88 -1347.364)" fill="#699dee"></path><path id="Trazado_5410" data-name="Trazado 5410" d="M2352.125,1603.928a6.348,6.348,0,0,1,1.914,3.106l8.508.115s-.334-2.765-2.09-3.221Z" transform="translate(-1975.88 -1347.364)" fill="#568cdb"></path><path id="Trazado_5411" data-name="Trazado 5411" d="M1399.988,1125.628h-89.4V1085.45h89.73a14.365,14.365,0,0,1,14.365,14.365v11.122a14.691,14.691,0,0,1-14.691,14.691" transform="translate(-1100.943 -911.821)" fill="#fcecdb"></path><path id="Trazado_5412" data-name="Trazado 5412" d="M1389.371,1101.045v8.647a10.434,10.434,0,0,1-4.249,8.61,7.425,7.425,0,0,1-4.19,1.321h-98.447a2.32,2.32,0,0,0-2.089,2.495v1.02a2.32,2.32,0,0,0,2.089,2.5h170.068c4.88,0,9.192-2.9,11.8-7.332a19.485,19.485,0,0,0,2.607-9.871v-6.823a18.7,18.7,0,0,0-1.343-7.025c-2.187-5.4-6.819-9.128-12.181-9.128H1282.485a2.317,2.317,0,0,0-2.089,2.493v1.02a2.32,2.32,0,0,0,2.089,2.495h98.748a7.62,7.62,0,0,1,5.988,3.119,10.631,10.631,0,0,1,2.15,6.461" transform="translate(-1075.584 -911.826)" fill="#afcdfb"></path><path id="Trazado_5413" data-name="Trazado 5413" d="M1280.4,1294.61v1.02a2.32,2.32,0,0,0,2.089,2.5h170.068c4.881,0,9.192-2.9,11.8-7.332h-79.229a7.425,7.425,0,0,1-4.19,1.321h-98.447a2.32,2.32,0,0,0-2.089,2.495" transform="translate(-1075.584 -1084.319)" fill="#a4c4f4"></path><path id="Trazado_5414" data-name="Trazado 5414" d="M1310.583,1211.038l12.62.675-12.62.407Z" transform="translate(-1100.943 -1017.32)" fill="#f4d2b8"></path><path id="Trazado_5415" data-name="Trazado 5415" d="M1310.583,1153.233l30.025.676-30.025.407Z" transform="translate(-1100.943 -968.762)" fill="#f4d2b8"></path><path id="Trazado_5416" data-name="Trazado 5416" d="M1420.055,1156.616a7.043,7.043,0,0,0-2.638,3.368,4.413,4.413,0,0,0-.206,1.171c-.109,2.782,0,9.079,0,9.079l-5.85-3.149-5.835,3.149V1161.7a6.362,6.362,0,0,1,1.43-4.212,2.267,2.267,0,0,1,1.616-.873Z" transform="translate(-1180.7 -971.604)" fill="#f99746"></path><path id="Trazado_5417" data-name="Trazado 5417" d="M1420.933,1156.616a7.043,7.043,0,0,0-2.638,3.368l-11.724.125s.46-3,2.88-3.493Z" transform="translate(-1181.578 -971.604)" fill="#ed7d2b"></path><path id="Trazado_5418" data-name="Trazado 5418" d="M542.264,1314.408s18.326,7.984,21.653,7.839S587.741,1316,587.741,1316l-.522,3.526s-15.819,9.1-21.35,9.614c-5.445.508-24.063-4.887-25.86-6.026s-2.969-7.557,2.254-8.71" transform="translate(-452.351 -1104.155)" fill="#ed985f"></path><path id="Trazado_5419" data-name="Trazado 5419" d="M391.168,1129.025s-6.761-1.284-10.128,1.175c-6.1,4.454-6.427,19.81-8.713,22.1s-7.8,1.311-8.287,13.148,2.194,12.826-1,18.11,1.352,10.572,1.352,10.572-1.863-2.917-1.065-5.022c0,0,.776,4.646,3.728,5.735s3.388,1.888,3.86,3.485c0,0,25.182-12.9,25.209-22.056s4.955-18.218,2.535-22.184a8.774,8.774,0,0,1,1.21,3.584,4.719,4.719,0,0,0-1.065-5.372c-2.517-2.59,2.952-7.95,2.143-14.157-.556-4.261-3.546-8.93-9.777-9.115" transform="translate(-304.009 -948.145)" fill="#233862"></path><path id="Trazado_5420" data-name="Trazado 5420" d="M467.5,1267.971a17.629,17.629,0,0,1-6.161,2.622c-9.5,2.194-13.136-5.832-14.5-11.342a8.158,8.158,0,0,1,3.217-.988c.686-.081,1.408-.135,2.006-.165,1.066-.817,2.655-4.16,3.007-9.35l.447.12,7.485,2.049s-.343,2.379-.511,4.628c-.13,1.76-.15,3.441.183,3.853.584.127.934.21.934.21a.02.02,0,0,0,0,.007,48.185,48.185,0,0,1,3.892,8.357" transform="translate(-375.358 -1048.998)" fill="#ffb27d"></path><path id="Trazado_5421" data-name="Trazado 5421" d="M508.563,1251.556s-.344,2.377-.511,4.628c-4.24-.425-6.208-4.462-6.974-6.676Z" transform="translate(-420.926 -1049.637)" fill="#ed985f"></path><path id="Trazado_5422" data-name="Trazado 5422" d="M505.179,1185.521s-10.065-.555-9.623-6.818-.559-10.552,5.886-10.462,7.523,2.567,7.884,4.694-1.518,12.569-4.148,12.586" transform="translate(-416.276 -981.368)" fill="#ffb27d"></path><path id="Trazado_5423" data-name="Trazado 5423" d="M492.761,1162.654c-1.419-1.995-2.623-1.666-3.321-1.147a7.045,7.045,0,0,0-9.139.8,11.992,11.992,0,0,1-4.419,6.786s1.751,1.263,6.053.48a7.2,7.2,0,0,0,3.591-2.115,23.517,23.517,0,0,1-4.39,4.64c5.213-1.97,7.743-8.843,8-9.57a7.9,7.9,0,0,1,1.983,3.079c.387,1.631,2.055,4.18,3.02,4.137,0,0,.753-4.095-1.374-7.087" transform="translate(-399.759 -974.591)" fill="#233862"></path><path id="Trazado_5424" data-name="Trazado 5424" d="M399.685,1332c-.909-4.646-3.872-23.21-.909-29.184,1.064-2.146,5.241-2.339,9.823-2.151,1.426.921,6.859,4.4,9.091,3.965l.125-.029c1.051-.263,1.448-1,.571-1.638a20.015,20.015,0,0,1,5.088.312,37.625,37.625,0,0,1,5.885,2.521s-2.162,3.906-5.35,5.255c.542,4.85-.264,6.989-5.3,18.191a21.294,21.294,0,0,0,.574,17.993s-25.027,20.122-25.166,9.877c-.1-7.713,6.726-19.172,5.564-25.111" transform="translate(-331.076 -1092.565)" fill="#f9ddbf"></path><path id="Trazado_5425" data-name="Trazado 5425" d="M478.6,1439.788a4.653,4.653,0,0,0,3.347-2.038q.181-.271.387-.583c2.849-4.312,3.957-17.519,10.365-31.589,1.561-3.425,7.163-4.041,8.691-7.914,0,0,3.76-12.551-7.2-12.921s-29.344,34.921-29.634,38.623c-.281,3.585-7.244,18.823,14.041,16.421" transform="translate(-389.145 -1163.238)" fill="#dd6d22"></path><path id="Trazado_5426" data-name="Trazado 5426" d="M748.691,1684.578H733.1a6.482,6.482,0,0,1,.441-4.18c.906-1.5.559-2.351-.112-3.59a6.062,6.062,0,0,0,2.627.495,5.494,5.494,0,0,0,2.319-.816,56.146,56.146,0,0,0,4.443,4.668c1.019.732,5.564.471,5.877,3.423" transform="translate(-615.691 -1408.316)" fill="#233862"></path><path id="Trazado_5427" data-name="Trazado 5427" d="M632.95,1385.769c.939,7.04,4.606,29.26,11.075,40.1,2.086,3.5-5.254,5.454-5.294,5.444-.985-.258-2.624-1.827-3.38-2.508-5.252-4.733-15.913-18.135-15.913-28.88,0-5.239-.092-15.245,3.718-17.788,2.346-1.566,9.421.835,9.794,3.631" transform="translate(-520.353 -1160.635)" fill="#ed7d2b"></path><path id="Trazado_5428" data-name="Trazado 5428" d="M406.842,1435.295s.578-.8,1.586-2.332c1.2-1.817,2.526-5.391,4.137-9.974,1.692-4.81,3.7-10.729,6.206-16.887.774-1.9,1.6-3.825,2.47-5.746,1.561-3.425,5.854-2.952,7.382-6.824,0,0,5.96-13.424-5-13.794s-31.777,35.909-32.973,39.423c-1.31,3.846-7.7,19.818,16.19,16.133" transform="translate(-326.69 -1159.033)" fill="#f99746"></path><path id="Trazado_5429" data-name="Trazado 5429" d="M677.124,1684.578H661.529a6.482,6.482,0,0,1,.441-4.18c.906-1.5.559-2.351-.112-3.59a6.062,6.062,0,0,0,2.627.495,5.5,5.5,0,0,0,2.319-.816,56.146,56.146,0,0,0,4.443,4.668c1.019.732,5.564.471,5.877,3.423" transform="translate(-555.572 -1408.316)" fill="#2b478b"></path><path id="Trazado_5430" data-name="Trazado 5430" d="M529.426,1506.882c1.692-4.81,3.7-10.729,6.206-16.887-.655-4.665-2.068-8.747-4.443-10.392,0,0-5.763,17.854-1.763,27.278" transform="translate(-443.553 -1242.927)" fill="#ed7d2b"></path><path id="Trazado_5431" data-name="Trazado 5431" d="M563.729,1386.736c.939,7.04,2.262,29.759,8.73,40.6,2.085,3.5-5.254,5.454-5.294,5.444-.985-.258-2.624-1.827-3.38-2.508-5.252-4.733-15.913-18.135-15.913-28.88,0-5.239,6.148-14.825,9.958-17.368a3.832,3.832,0,0,1,5.9,2.712" transform="translate(-460.235 -1162.101)" fill="#f99746"></path><path id="Trazado_5432" data-name="Trazado 5432" d="M548.509,1252.568a9.294,9.294,0,0,0-3.629-.159s.142,1.045,2.117,1.148a1.575,1.575,0,0,0,1.512-.989" transform="translate(-457.721 -1052.017)" fill="#fff"></path><path id="Trazado_5433" data-name="Trazado 5433" d="M804.917,1247.633l-3.233-5.833-6.994,19.517,4.126,4.43Z" transform="translate(-667.572 -1043.161)" fill="#163560"></path><path id="Trazado_5434" data-name="Trazado 5434" d="M718.946,1281.684l-6.5,18.574,17.283-3.877,6.1-18.113Z" transform="translate(-598.482 -1073.796)" fill="#1c468a"></path><path id="Trazado_5435" data-name="Trazado 5435" d="M713.008,1314.8l-.3-.53,6.152-17.577.308.47Z" transform="translate(-598.701 -1089.271)" fill="#efdece"></path><path id="Trazado_5436" data-name="Trazado 5436" d="M751.166,1279.944l16.385-3.189.8.242-16.882,3.416Z" transform="translate(-631.01 -1072.525)" fill="#fcecdb"></path><path id="Trazado_5437" data-name="Trazado 5437" d="M828.563,1249.122l-3.5-5.55-2.229,6.266,4.92-.958Z" transform="translate(-691.217 -1044.65)" fill="#efdece"></path><path id="Trazado_5438" data-name="Trazado 5438" d="M480.981,1302.482c-.562-.108-1.768-.562-2.989-.9a2.5,2.5,0,0,0,.883-.987c.218-.688.363-.909-.363-.691s-3.266,1.383-3.266,1.383l.007,0c-1.443.422-2.773,2.462-2.773,2.462s-17.868,6.281-20.018,6.389c-3.326.167-25.46-7.984-25.46-7.984-5.224,1.153-4.052,7.571-2.254,8.71s17.725,6.933,27.164,7.042c4.781.055,22.172-11.122,22.172-11.122a7.4,7.4,0,0,1,3.63-.639c1.6.29,5.3,0,6.1-1.307s-1.888-2.178-2.831-2.36" transform="translate(-355.528 -1091.904)" fill="#ffb27d"></path><path id="Trazado_5439" data-name="Trazado 5439" d="M434.225,1315.73a12.161,12.161,0,0,1-8.779,7.693s-11.227-3.459-5.637-11.108c0,0,5.527-4.107,14.416,3.415" transform="translate(-351.346 -1101.457)" fill="#f9ddbf"></path><path id="Trazado_5440" data-name="Trazado 5440" d="M837.77,1302.707h0a1.723,1.723,0,0,0-.059-.51s-1.6-2.533-2.126-2.637c-1.6-.316-1.6,1.788-1.259,3.145a5.517,5.517,0,0,0,1.322,2.343h0l-.063,1.982a4.24,4.24,0,0,0,2.187-4.325" transform="translate(-700.715 -1091.657)" fill="#ffb27d"></path><path id="Trazado_5441" data-name="Trazado 5441" d="M1697.963,706.683c.583-14.441-11.521-20.857-23.9-20.857s-25.845,3.207-27.012,22.41c-.75,12.354,5.835,19.955,24.8,19.955,6.4,0,11.366-1.009,15.173-2.808l9.479,8.423-4.658-11.643c4.127-3.837,5.865-9.249,6.117-15.48" transform="translate(-1383.544 -576.121)" fill="#91b5f8"></path><path id="Trazado_5442" data-name="Trazado 5442" d="M1940.772,1288.126a19.307,19.307,0,0,0,6.662,7.22l15.558.11s-24.461-11.293-22.221-7.33" transform="translate(-1630.205 -1081.369)" fill="#233862"></path><path id="Trazado_5443" data-name="Trazado 5443" d="M1946.785,1475.337a1.438,1.438,0,0,1,.245,1.54.012.012,0,0,1,0,.008,9.56,9.56,0,0,1-3.044,3.293c-.183.146-.346.278-.488.4-.037.032-.075.064-.11.1l-.084.075c-1.337,1.215-.839,1.5-3.242,3.966-2.74,2.811-4.613,2.849-5.145,2.587-.449-.223.477-1.718,1.5-3.4.05-.081.1-.163.15-.245.137-.223.273-.45.408-.675,1.2-2.022.9-2.977.644-6-.212-2.458-3.724-13.746-3.724-13.746l5.219-.861s1.507,8.98,3.227,10.374c.92.743,1.955.759,2.84,1.311.062.038.124.078.184.118a6.843,6.843,0,0,1,1.418,1.156" transform="translate(-1624.552 -1228.455)" fill="#ffb27d"></path><path id="Trazado_5444" data-name="Trazado 5444" d="M1951.517,1536.7a1.438,1.438,0,0,1,.245,1.54.012.012,0,0,1,0,.008,11.07,11.07,0,0,1-3.049,3.282c-.181.148-.341.284-.483.411-.037.032-.075.064-.11.1l-.084.075c-1.337,1.215-.839,1.5-3.242,3.966-2.74,2.811-4.613,2.849-5.145,2.587-.449-.223.477-1.718,1.5-3.4a11.59,11.59,0,0,0,4.874-3.539c1.653-2.079,2.764-4.757,3.891-6.3q.094.057.184.118a6.846,6.846,0,0,1,1.418,1.156" transform="translate(-1629.284 -1289.821)" fill="#233862"></path><path id="Trazado_5445" data-name="Trazado 5445" d="M1669.733,1462.152c-.333,1.607-2.625,1.322-5.183.678s-1.954.1-5.6-.325-4.74-1.8-4.847-2.34c-.1-.482,1.707-.639,3.641-.848.244-.026.488-.054.732-.082,2.184-.258,3.792-1.655,5.783-2.8,1.885-1.082,4.719-5.526,4.719-5.526l5,.431s-2.653,3.968-3.68,5.694a6.045,6.045,0,0,0-.515,3.405,6.42,6.42,0,0,1-.051,1.711" transform="translate(-1389.511 -1218.823)" fill="#ffb27d"></path><path id="Trazado_5446" data-name="Trazado 5446" d="M1664.548,1506.975c-2.558-.644-1.954.1-5.6-.325s-4.74-1.8-4.847-2.34c-.1-.482,1.707-.639,3.642-.848l.018.037a10.282,10.282,0,0,0,5.212,1.66c2.474.078,5.1-.613,6.808-.573a6.411,6.411,0,0,1-.051,1.711c-.333,1.607-2.625,1.322-5.183.678" transform="translate(-1389.51 -1262.968)" fill="#233862"></path><path id="Trazado_5447" data-name="Trazado 5447" d="M1873.07,1280.238l4.587,12.615,5.988,16.471a9.887,9.887,0,0,0,3.245-.274,14.058,14.058,0,0,0,3.147-1.5s-1.571-17.651-4.661-27.8a18.034,18.034,0,0,0-2.679-5.9c-4.861-5.828-9.627,6.4-9.627,6.4" transform="translate(-1573.455 -1068.756)" fill="#233862"></path><path id="Trazado_5448" data-name="Trazado 5448" d="M1756.855,1185.722c3.07-.967,11.8.364,20.562,2.144l1.859-3.018,18.967-1.347s6.157,13.916,2.671,22.731c-.512,1.3-1.762,1.835-3.467,1.85l0,0s-11.314.2-14.977.171c-9.427-.067-19.906-6.621-21.266-6.9-2.225-.462-3.148,3.989-5.41,8.653s-21.093,20.576-21.093,20.576a16.474,16.474,0,0,1-4.062-.446,4,4,0,0,1-1.738-1.114s21.033-41.12,27.956-43.3" transform="translate(-1452.345 -994.188)" fill="#2b478b"></path><path id="Trazado_5449" data-name="Trazado 5449" d="M2020.135,867.89c6.724,3.764,20.364,11.566,20.436,11.517,0,0,5.02,1.932,7.889.056,4.782-3.127,7.394-11.616-1.258-19-4.315-3.682-7.393-4.592-7.82-10.425-.232-3.165-4.482-13.633-11.672-12.719a10.968,10.968,0,0,1-1.812.106,6.724,6.724,0,0,0-3.652.916c-4.082,2.392-12.221,28.037-2.111,29.547" transform="translate(-1692.908 -703.335)" fill="#233862"></path><path id="Trazado_5450" data-name="Trazado 5450" d="M2076.975,953.688c-.03.019,3.313,1.187,5.561.21,2.115-.917,3.736-4.373,3.7-4.376-.959-.051-2.005-.9-2.777-6.4l-.41.144-6.883,2.422s.482,2.206.789,4.306c.259,1.763.392,3.451.016,3.7" transform="translate(-1744.068 -792.258)" fill="#ffb27d"></path><path id="Trazado_5451" data-name="Trazado 5451" d="M2076.17,946.439s.293,1.546.7,3.756c3.948-.682,5.612-4.05,6.182-6.178Z" transform="translate(-1744.067 -793.012)" fill="#ed975d"></path><path id="Trazado_5452" data-name="Trazado 5452" d="M2044.773,886.131s9.4-1.194,8.568-7.038-.182-9.934-6.22-9.418-6.884,2.911-7.08,4.93,2.265,11.687,4.732,11.526" transform="translate(-1713.707 -730.525)" fill="#ffb27d"></path><path id="Trazado_5453" data-name="Trazado 5453" d="M2042.379,868.658s5.977,5.224,10.064,5.671,5.645-.855,5.645-.855a15.972,15.972,0,0,1-3.825-5.259,2.876,2.876,0,0,0-2.359-1.712c-2.919-.273-8.455-.427-9.525,2.156" transform="translate(-1715.681 -727.776)" fill="#233862"></path><path id="Trazado_5454" data-name="Trazado 5454" d="M2040.292,872.017a14.812,14.812,0,0,0-2.669,3.369,11.371,11.371,0,0,0-.35,6.042s-3.091-6.116-1.3-9.065c1.9-3.126,4.316-.346,4.316-.346" transform="translate(-1709.832 -731.572)" fill="#233862"></path><path id="Trazado_5455" data-name="Trazado 5455" d="M2031.136,999.91c.15,19.016-.028,15.042,2.039,16.86.5.438,1.905.707,3.759.842,5.828.428,16.084-.46,16.481-1.535,1.371-3.719.43-4.884,1.592-10.583.121-.606.271-1.262.446-1.977.963-3.914,1.883-5.241-1.391-11.563-2.97-5.726-6.064-10.379-6.346-10.214-7.974,4.658-8.587.691-8.587.691s-8.066,8.2-7.992,17.478" transform="translate(-1706.236 -824.698)" fill="#f9ddbf"></path><path id="Trazado_5456" data-name="Trazado 5456" d="M1901.746,1332.128l5.989,16.471a9.886,9.886,0,0,0,3.245-.274,14.063,14.063,0,0,0,3.147-1.5s-1.571-17.651-4.661-27.8Z" transform="translate(-1597.544 -1108.031)" fill="#2b478b"></path><path id="Trazado_5457" data-name="Trazado 5457" d="M1997.383,986.078s-8.181,1.328-9.165,4.839-6.776,24.153-6.776,24.153,4.149.776,6.081-1.13,6.8-17.756,6.8-17.756Z" transform="translate(-1664.491 -828.345)" fill="#f9ddbf"></path><path id="Trazado_5458" data-name="Trazado 5458" d="M2067.384,1100.686c5.828.428,16.084-.46,16.481-1.535,1.371-3.719.43-4.884,1.592-10.584l-2.756-7.939s.4,8.821-2.214,11.122-10.679,4.4-11.957,6.331a7.093,7.093,0,0,0-1.146,2.6" transform="translate(-1736.686 -907.771)" fill="#f2ccaa"></path><path id="Trazado_5459" data-name="Trazado 5459" d="M2055.74,1178.232s-5.743-1.321-6.675-.817a13.515,13.515,0,0,0-3.5,2.992c-.289.645,2.07-.476,2.836-.676a6.812,6.812,0,0,1,2.44.552,8.119,8.119,0,0,0,4.375.47Z" transform="translate(-1718.335 -988.979)" fill="#ffb27d"></path><path id="Trazado_5460" data-name="Trazado 5460" d="M2108.453,981.738s7.72.53,10.367,4.278c3.727,5.276,11.035,27.7,6.735,30.654-4.843,3.326-21.938.724-21.938.724s-.551-2.666.251-3.948,13.692-3.271,14.29-3.861-7.346-11.641-7.334-13.423-2.372-14.424-2.372-14.424" transform="translate(-1766.969 -824.699)" fill="#f9ddbf"></path><path id="Trazado_5461" data-name="Trazado 5461" d="M2053.882,1188.013a11.127,11.127,0,0,1-1.613,1.729,1.177,1.177,0,0,1-.651.135l.822-1.456Z" transform="translate(-1723.442 -997.978)" fill="#ffb27d"></path><path id="Trazado_5462" data-name="Trazado 5462" d="M2049.118,1178.017l-3.516,1.677a.623.623,0,0,0,.579.228,8.344,8.344,0,0,0,1.523-.407Z" transform="translate(-1718.389 -989.581)" fill="#ffb27d"></path><path id="Trazado_5463" data-name="Trazado 5463" d="M1871.791,1104.283l-27.718-.2-8.192-20.794,27.676.2Z" transform="translate(-1542.214 -910.01)" fill="#f99746"></path><path id="Trazado_5464" data-name="Trazado 5464" d="M1885.1,1208.221l36.6.258-.006.808-36.278-.256Z" transform="translate(-1583.558 -1014.954)" fill="#ed7d2b"></path><path id="Trazado_5465" data-name="Trazado 5465" d="M1931.024,1141.887a.96.96,0,0,1,.951-1.313,1.891,1.891,0,0,1,1.689,1.332.96.96,0,0,1-.95,1.313,1.891,1.891,0,0,1-1.689-1.332" transform="translate(-1622.096 -958.128)" fill="#fff"></path><rect id="Rect&#xE1;ngulo_3385" data-name="Rect&#xE1;ngulo 3385" width="84.218" height="16.742" transform="translate(161.122 259.712)" fill="#c65447"></rect><path id="Trazado_5466" data-name="Trazado 5466" d="M904.445,1640.3l-12.378-5.3-7.2-3.079,7.369-3.149,12.212-5.219a25.31,25.31,0,0,1,1.654,7.91c.038,6.017-1.658,8.833-1.658,8.833" transform="translate(-743.325 -1363.85)" fill="#fcecdb"></path><path id="Trazado_5467" data-name="Trazado 5467" d="M1543.549,1629.212v5.293a5.9,5.9,0,0,1-5.9,5.894h-3.9l0-16.742H1538a5.554,5.554,0,0,1,5.553,5.555" transform="translate(-1288.417 -1363.936)" fill="#fcecdb"></path><path id="Trazado_5468" data-name="Trazado 5468" d="M892.238,1656.18a12.605,12.605,0,0,1-.17,6.229l-7.2-3.079Z" transform="translate(-743.326 -1391.258)" fill="#2b478b"></path><path id="Trazado_5469" data-name="Trazado 5469" d="M1120.455,1068.224s1.509,6.545,5.906,6.545c3.769,0,8.94-8.52,8.94-8.52Z" transform="translate(-941.228 -895.692)" fill="#f99746"></path><path id="Trazado_5470" data-name="Trazado 5470" d="M1256.917,1246.717l-2.825,1.942s-13.587-14.482-16.868-28.365a21.585,21.585,0,0,1-.571-7.242s-.2-.629-.545-1.74l-.046-.148c-.152-.488-.334-1.061-.536-1.711-.659-2.1-1.564-4.968-2.595-8.236-2.375-7.521-7.806-24.483-10.127-31.538l16.681-6.035s1.895,4.32,4.617,16.064c.419,1.533.84,3.228,1.232,5.074.445,2.092.86,4.379,1.206,6.85a105.156,105.156,0,0,1,1,14.061c.009,2.1-.042,4.28-.167,6.528a28.8,28.8,0,0,0,.613,6.344c2.1,11.425,8.932,28.154,8.932,28.154" transform="translate(-1027.205 -977.507)" fill="#2b478b"></path><path id="Trazado_5471" data-name="Trazado 5471" d="M1420.051,1689.876h-13.486a5.606,5.606,0,0,1,.381-3.615,2.6,2.6,0,0,0-.1-3.1,5.243,5.243,0,0,0,2.271.428,4.75,4.75,0,0,0,2.005-.705,48.478,48.478,0,0,0,3.842,4.036c.881.633,4.811.407,5.082,2.96" transform="translate(-1181.452 -1413.687)" fill="#233862"></path><path id="Trazado_5472" data-name="Trazado 5472" d="M1246.539,1191.631l-10.477,19.533c-.152-.488-.334-1.061-.536-1.711-.658-2.1-1.564-4.968-2.595-8.236-2.375-7.521-7.806-24.483-10.127-31.538l16.681-6.035s1.895,4.32,4.617,16.064c.419,1.533.84,3.228,1.232,5.074.445,2.092.86,4.379,1.206,6.85" transform="translate(-1027.205 -977.507)" fill="#233862"></path><path id="Trazado_5473" data-name="Trazado 5473" d="M1218.841,1698.321a6.021,6.021,0,0,0-.055,4.221h7.336s.152-1.742-2.51-3.761c-2.016-1.53-4.771-.46-4.771-.46" transform="translate(-1023.513 -1426.352)" fill="#233862"></path><path id="Trazado_5474" data-name="Trazado 5474" d="M1221.051,743.63c0-.365.192-4.3,6.174-4.652,0,0-2.936.422-3.413,1.729,0,0,1.966-1.648,3.611-1.173s2.673,3.312,2.705,4.253-.8,3.995-1.832,4.278a3.163,3.163,0,0,1-1.255.032,14.119,14.119,0,0,1,.839,1.416c2.507,4.847.344,10.556-1.691,10.075-1.305-.308-2.1,1.954-2.1,1.954l-12.553-10.8s4.4-9.689,9.514-7.115" transform="translate(-1017.74 -620.771)" fill="#2c3a64"></path><path id="Trazado_5475" data-name="Trazado 5475" d="M1221.68,885.832a15.243,15.243,0,0,0,5.328,2.267c8.212,1.9,11.36-5.044,12.542-9.808a7.058,7.058,0,0,0-2.782-.855c-.594-.07-1.218-.116-1.735-.142-.922-.706-2.3-3.6-2.6-8.086l-.386.1-6.472,1.772s.3,2.057.442,4c.112,1.522.13,2.976-.158,3.332-.505.11-.808.181-.808.181a.019.019,0,0,1,0,.006,41.691,41.691,0,0,0-3.366,7.227" transform="translate(-1026.261 -730.17)" fill="#ffb27d"></path><path id="Trazado_5476" data-name="Trazado 5476" d="M1246.019,871.637s.3,2.056.442,4c3.667-.367,5.369-3.858,6.031-5.773Z" transform="translate(-1046.706 -730.722)" fill="#ed985f"></path><path id="Trazado_5477" data-name="Trazado 5477" d="M1215.9,818.859s8.443-2.169,7.01-7.406-1.307-9.044-6.758-7.88-5.948,3.447-5.895,5.311,3.409,10.4,5.642,9.975" transform="translate(-1016.665 -674.857)" fill="#ffb27d"></path><path id="Trazado_5478" data-name="Trazado 5478" d="M1205.076,801.01c.867-1.932,1.943-1.856,2.624-1.533a6.092,6.092,0,0,1,7.886-.866,10.372,10.372,0,0,0,4.894,5.01s-1.272,1.367-5.053,1.429a6.224,6.224,0,0,1-3.4-1.188,20.334,20.334,0,0,0,4.506,3.195c-4.754-.792-8.059-6.193-8.4-6.767a6.83,6.83,0,0,0-1.162,2.946c-.053,1.448.512,4.244-.313,4.371,0,0-2.88-3.7-1.58-6.6" transform="translate(-1012.029 -669.961)" fill="#2c3a64"></path><path id="Trazado_5479" data-name="Trazado 5479" d="M1175.4,919.208s14.179-3.442,20.344,1.642l-3.081,42.97-27.73-6.7s.78-2.719,6.1-9.95,3-17.836,4.37-27.964" transform="translate(-978.591 -771.214)" fill="#ffb27d"></path><path id="Trazado_5480" data-name="Trazado 5480" d="M1175.679,1155.7s-.016.146-.045.423c-.013.119-.029.264-.047.432-.119,1.114-.345,3.251-.637,6.029-.761,7.288-1.955,18.993-2.769,28.231-.636,7.224-1.041,12.941-.822,13.858.656,2.762,0,35.785,0,35.785-2.357,1.13-5.931,0-5.931,0s-6.278-29.758-5.4-33.894a14.246,14.246,0,0,0-.588-7.667c-4.874-22.7-4.341-35.282-3.373-41.3a25.393,25.393,0,0,1,.834-3.678,7.674,7.674,0,0,1,.334-.9,22.941,22.941,0,0,1,18.441,2.688" transform="translate(-970.604 -967.877)" fill="#2b478b"></path><path id="Trazado_5481" data-name="Trazado 5481" d="M1183.526,934.828c-.684,5.169-3.423,11.5-4.4,14.9,0,0,1.635,11.822.074,15.068a1.438,1.438,0,0,1-.665.746c-5.782,2.519-28.3.073-29.251-7.191-.345-2.639,8.577-11.923,9.1-13.05.216-.466.446-1.976-.6-5.107-1.483,4.572-9.667,3.257-9.667,3.257.961-1.644,3.354-13.014,6.026-18.147,2.009-3.859,7.373-4.417,7.373-4.417s2.233,3.541,7.632,3.039,6.386-3.807,6.386-3.807,4.788.637,6.264,1.827c.256.206,2.631,6.11,1.733,12.883" transform="translate(-964.461 -772.936)" fill="#f99746"></path><path id="Trazado_5482" data-name="Trazado 5482" d="M1306.267,1056.165s1.635,11.822.074,15.067c-4.213-2.114-7.532-7.834-6.766-14.207.567-4.71,1.408-5.785,3.929-8.48,1.852-1.98,6.133-2.092,5.8-1.15-1,2.806-2.517,6.971-3.034,8.769" transform="translate(-1091.603 -879.372)" fill="#ed7d2b"></path><path id="Trazado_5483" data-name="Trazado 5483" d="M1148.175,1017.832l9.655,15.49H1141.4l-9.2-15.155Z" transform="translate(-951.096 -855.019)" fill="#1c468a"></path><path id="Trazado_5484" data-name="Trazado 5484" d="M1241.208,1029.982l.167-.541-9.137-14.659-.183.488Z" transform="translate(-1034.976 -852.458)" fill="#efdece"></path><path id="Trazado_5485" data-name="Trazado 5485" d="M1148.359,1014.783l-15.476.441-.679.382,15.972-.335Z" transform="translate(-951.097 -852.458)" fill="#fcecdb"></path><path id="Trazado_5486" data-name="Trazado 5486" d="M1086.609,995.248l-8.682-4.7,10.12,15.893,7.761,3.961Z" transform="translate(-905.502 -832.1)" fill="#163560"></path><path id="Trazado_5487" data-name="Trazado 5487" d="M1291.8,1063.154c-.93.425-3.317,3.237-4.169,3.522-3.831,1.281-20.134-2.129-20.134-2.129l.5-2.855s16,.425,17.761-.046c.331-.089,2.061-2.794,2.725-3.182Z" transform="translate(-1064.748 -889.152)" fill="#ffb27d"></path><path id="Trazado_5488" data-name="Trazado 5488" d="M1222.832,1071.982s-1.93-1.57-3.234-1.215-3.222,2-3.935,2.395-2.648,1.787-1.667,2.631,4.035.119,5.245-.528a6.259,6.259,0,0,1,3.086-.426Z" transform="translate(-1019.578 -899.443)" fill="#ffb27d"></path><path id="Trazado_5489" data-name="Trazado 5489" d="M1234.817,1069.318s-2.345-.28-2.986-.267-.466.153-.113.65,1.575.687,1.631.861,1.468-1.244,1.468-1.244" transform="translate(-1034.427 -898.045)" fill="#ffb27d"></path><path id="Trazado_5490" data-name="Trazado 5490" d="M1308.738,920.118s6.955.825,8.869,3.807c2.421,3.771,8.135,18.789,7.951,22.573,0,0-4.178,7.11-18.5,5.972,0,0-1.49-5.264,1.523-7,0,0,7.358-1.308,8.205-2.055l-6-10.9Z" transform="translate(-1097.67 -772.936)" fill="#f99746"></path><path id="Trazado_5491" data-name="Trazado 5491" d="M1123.755,1052.9c-.216-.876-2.126-.329-2.77.175a2.611,2.611,0,0,0-.49.576c-.02-.147-.037-.287-.047-.4-.036-.412-.516-1.149-.635-.6s-.315,2.871-.315,2.871c-.023,1.868,1.178,2.639,1.949,2.031s2.523-3.784,2.307-4.66" transform="translate(-940.424 -884.085)" fill="#ffb27d"></path><path id="Trazado_5492" data-name="Trazado 5492" d="M438.6,1728.08H.564a.566.566,0,0,1-.564-.564v-.37a.566.566,0,0,1,.564-.564H438.6a.566.566,0,0,1,.564.564v.37a.566.566,0,0,1-.564.564" transform="translate(0 -1450.398)" fill="#2e3552"></path></g></g></g></svg>