<svg xmlns="http://www.w3.org/2000/svg" xmlns:xlink="http://www.w3.org/1999/xlink" width="70" height="70" viewBox="0 0 70 70"><defs><clipPath id="clip-path"><rect id="Rect&#xE1;ngulo_4573" data-name="Rect&#xE1;ngulo 4573" width="34.942" height="35" fill="#fff"></rect></clipPath></defs><g id="impacto" transform="translate(-802 -1515)"><circle id="Elipse_2" data-name="Elipse 2" cx="35" cy="35" r="35" transform="translate(802 1515)" fill="#3728ae"></circle><g id="Grupo_1618" data-name="Grupo 1618" transform="translate(820 1533)"><g id="Grupo_1617" data-name="Grupo 1617" clip-path="url(#clip-path)"><path id="Trazado_7703" data-name="Trazado 7703" d="M25.1,35a4.75,4.75,0,0,1-.531-.681q-2.957-5.639-5.894-11.287c-.052-.1-.108-.2-.242-.448a2.618,2.618,0,0,1-.264.426,23.457,23.457,0,0,1-4.053,3.446.578.578,0,0,0-.191.421q-.066,2.716-.1,5.434a1.065,1.065,0,0,1-.347.815c-.461.441-.9.9-1.357,1.35a.7.7,0,0,1-1.26-.3q-.852-2.5-1.694-5.01c-.036-.106-.077-.21-.121-.328-.621.148-1.226.3-1.833.436-.266.062-.534.113-.8.159a.688.688,0,0,1-.835-.852c.162-.779.334-1.557.539-2.325.068-.258,0-.334-.222-.409Q3.349,25.007.814,24.143c-.393-.133-.62-.388-.567-.706a1.09,1.09,0,0,1,.27-.529c.46-.49.929-.974,1.43-1.421a1.176,1.176,0,0,1,.689-.287c1.833-.058,3.667-.079,5.5-.127a.582.582,0,0,0,.419-.19,23.6,23.6,0,0,1,3.472-4.077,2.994,2.994,0,0,1,.37-.251L9.756,15.174c-.171-.089-.344-.176-.513-.269a.684.684,0,1,1,.621-1.213c.982.5,1.958,1.018,2.937,1.53.531.277.53.277.948-.14q2.949-2.951,5.9-5.9c.087-.087.169-.177.3-.319-.66-.065-1.255-.127-1.852-.184q-3.451-.332-6.9-.66-3.486-.33-6.974-.648a.511.511,0,0,0-.36.109c-.671.649-1.329,1.313-2.019,2,.107.065.186.119.272.164q1.406.738,2.812,1.472a.664.664,0,0,1,.395.727.612.612,0,0,1-.529.553.916.916,0,0,1-.519-.092q-1.932-.984-3.847-2A.674.674,0,0,1,.257,9.147c.977-.989,1.953-1.979,2.957-2.941a1.04,1.04,0,0,1,.7-.239c.807.043,1.609.154,2.415.216a.647.647,0,0,0,.442-.15c.474-.443.924-.913,1.385-1.37a2.1,2.1,0,0,1,3.613,1.923.746.746,0,0,0,0,.116c.683.065,1.369.137,2.057.189.079.006.179-.084.247-.151.455-.447.9-.9,1.356-1.352a2.1,2.1,0,0,1,3.649,1.8c-.007.055-.014.109-.028.21.706.065,1.392.138,2.081.183.095.006.215-.107.3-.19,1.518-1.511,3.029-3.03,4.549-4.54A9.454,9.454,0,0,1,33.093,0c.261.006.522.051.783.06.558.017.973.207,1.066.822V3.619a.427.427,0,0,0-.057.118,9.558,9.558,0,0,1-2.814,5.377c-1.3,1.282-2.545,2.611-3.881,3.848a1.823,1.823,0,0,0-.7,1.947,7.791,7.791,0,0,1,.122,1.042l.212-.027a2.1,2.1,0,0,1,1.81,3.633,11.661,11.661,0,0,1-.923.911,1.318,1.318,0,0,0-.55,1.467,9.59,9.59,0,0,1,.143,1.3.926.926,0,0,0,.117,0,2.1,2.1,0,0,1,1.944,3.59c-.464.469-.939.928-1.4,1.406a.562.562,0,0,0-.158.375c.061.782.135,1.564.229,2.344a1.044,1.044,0,0,1-.322.952c-.921.9-1.822,1.817-2.737,2.722a5.165,5.165,0,0,1-.477.377ZM7.107,27.858a.463.463,0,0,0,.1.024,1.219,1.219,0,0,0,.134-.026,18.637,18.637,0,0,0,9.026-4.986q7.448-7.415,14.864-14.86a8.034,8.034,0,0,0,2.405-6.077c-.012-.553-.013-.554-.579-.566a8.062,8.062,0,0,0-6.1,2.438q-7.351,7.341-14.685,14.7a22.105,22.105,0,0,0-2.138,2.525,18.064,18.064,0,0,0-3.032,6.829m18.4,5.319c.7-.706,1.376-1.369,2.032-2.048a.518.518,0,0,0,.092-.367c-.128-1.439-.269-2.878-.405-4.316q-.492-5.2-.983-10.4c-.029-.308-.069-.616-.1-.924l-.09-.041a2.612,2.612,0,0,1-.189.239q-3.052,3.057-6.115,6.106a.4.4,0,0,0-.075.576c1.3,2.466,2.58,4.938,3.868,7.409.646,1.238,1.294,2.476,1.969,3.767m-17.9-10.7c-.172,0-.3,0-.42,0-1.3.023-2.6.078-3.894.056a1.292,1.292,0,0,0-1.084.642l4.409,1.485c.334-.736.651-1.437.989-2.183m4.223,10.306.1.042c.174-.274.485-.54.5-.822.074-1.454.073-2.912.1-4.368a1.5,1.5,0,0,0-.031-.218l-2.15.976c.5,1.471.988,2.93,1.481,4.39M8.366,6.379c.651.065,1.2.129,1.754.164a.388.388,0,0,0,.274-.188.7.7,0,0,0-.175-.863.707.707,0,0,0-.937,0c-.3.261-.569.551-.916.891M28.628,26.643c.353-.369.667-.661.936-.99a.683.683,0,0,0-.062-.879.7.7,0,0,0-.868-.157.36.36,0,0,0-.173.251c.038.563.1,1.123.167,1.775m-.71-7.416a11.309,11.309,0,0,0,.925-.854.625.625,0,0,0-.015-.822.7.7,0,0,0-.786-.269.317.317,0,0,0-.28.388c.062.519.105,1.04.156,1.557M15.67,7.074l1.543.155c.416.04.6-.165.529-.582a.718.718,0,0,0-1.18-.441c-.3.246-.553.535-.892.868" fill="#fff"></path><path id="Trazado_7704" data-name="Trazado 7704" d="M7.064,13.68A.677.677,0,0,1,6.393,13a.694.694,0,0,1,.674-.681.677.677,0,0,1,.681.7.661.661,0,0,1-.684.656" fill="#fff"></path><path id="Trazado_7705" data-name="Trazado 7705" d="M22.373,13.35a3.079,3.079,0,0,1-.347.589Q19.358,16.63,16.669,19.3a.684.684,0,1,1-.969-.959q2.685-2.7,5.383-5.385a.6.6,0,0,1,.773-.162,2.915,2.915,0,0,1,.517.554" fill="#fff"></path><path id="Trazado_7706" data-name="Trazado 7706" d="M23.514,10.8a.677.677,0,0,1,.694.649.683.683,0,1,1-.694-.649" fill="#fff"></path></g></g></g></svg>