<svg xmlns="http://www.w3.org/2000/svg" xmlns:xlink="http://www.w3.org/1999/xlink" width="70" height="70" viewBox="0 0 70 70"><defs><clipPath id="clip-path"><rect id="Rect&#xE1;ngulo_4574" data-name="Rect&#xE1;ngulo 4574" width="34.996" height="35" fill="#fff"></rect></clipPath></defs><g id="imperancia" transform="translate(-493 -1515)"><circle id="Elipse_1" data-name="Elipse 1" cx="35" cy="35" r="35" transform="translate(493 1515)" fill="#3728ae"></circle><g id="Grupo_1620" data-name="Grupo 1620" transform="translate(511 1536)"><g id="Grupo_1619" data-name="Grupo 1619" clip-path="url(#clip-path)"><path id="Trazado_7707" data-name="Trazado 7707" d="M19.471,35h-.547c-1.059-.427-1.275-.755-1.275-1.931,0-.992-.026-1.984.01-2.974a1.642,1.642,0,0,0-.448-1.231q-3.377-3.766-6.738-7.546a1.706,1.706,0,0,0-.184-.144c0,1.183-.01,2.31.007,3.436.005.307-.072.4-.393.4C6.724,25,3.545,25,.365,25H0V.829H10.3V2.458c1.042-.39,2.038-.745,3.021-1.133A15.166,15.166,0,0,1,18.541.07C21.992,0,25.446-.013,28.9.014A3.6,3.6,0,0,1,32.515,4.2a10.151,10.151,0,0,1-.621,1.834,3.576,3.576,0,0,1,1.44,2.392,3.643,3.643,0,0,1-.736,2.834,3.7,3.7,0,0,1,1.544,2.476,3.624,3.624,0,0,1-.666,2.742,16.64,16.64,0,0,1,1.107,1.476A5.963,5.963,0,0,1,35,19.133v.958c-.062.215-.117.433-.188.646a3.682,3.682,0,0,1-3.656,2.543c-2.2.009-4.4,0-6.593,0h-.432c.035.148.057.257.088.363.3,1.048.612,2.095.913,3.144a1.993,1.993,0,0,1,.081.5c.009.558.008,1.116,0,1.674A6.068,6.068,0,0,1,20.8,34.732c-.434.123-.887.181-1.332.268m1.914-13.769h9.6c.148,0,.3,0,.444-.014a1.624,1.624,0,0,0-.148-3.244c-.787-.008-1.573,0-2.359,0h-.883V15.919c.82,0,1.617.025,2.412-.012a2.143,2.143,0,0,0,.933-.263,1.556,1.556,0,0,0,.7-1.746,1.6,1.6,0,0,0-1.575-1.226c-.957-.019-1.915-.006-2.872-.006h-.414V10.615h.42c.729,0,1.46.02,2.187-.018a1.577,1.577,0,0,0,1.491-1.645,1.6,1.6,0,0,0-1.565-1.58c-.775-.017-1.55-.006-2.325-.006H26.292V5.313c.878,0,1.732.007,2.586,0a1.63,1.63,0,1,0-.089-3.256q-4.512-.009-9.026,0A12.648,12.648,0,0,0,15.6,2.7c-1.674.588-3.329,1.229-5,1.829A.406.406,0,0,0,10.284,5q.012,6.393,0,12.787a.775.775,0,0,0,.223.573c2.19,2.383,4.387,4.76,6.549,7.168.813.9,1.547,1.882,2.307,2.833a1.671,1.671,0,0,1,.341,1.118c-.016,1,0,2.006,0,3.009v.436c.4-.131.753-.215,1.08-.361a3.889,3.889,0,0,0,2-1.972,5.691,5.691,0,0,0,.3-3.416,25.607,25.607,0,0,0-.775-2.758c-.3-1.047-.6-2.094-.918-3.185M8.238,2.884H2.056V22.951h.362c1.8,0,3.6-.011,5.4.01.359,0,.426-.1.425-.439Q8.23,12.9,8.238,3.272V2.884" fill="#fff"></path><path id="Trazado_7708" data-name="Trazado 7708" d="M5.148,20.689h-2c0-.627,0-1.239.007-1.851a.232.232,0,0,1,.158-.159c.612-.011,1.223-.007,1.84-.007Z" fill="#fff"></path></g></g></g></svg>