<svg xmlns="http://www.w3.org/2000/svg" xmlns:xlink="http://www.w3.org/1999/xlink" width="70" height="70" viewBox="0 0 70 70"><defs><clipPath id="clip-path"><rect id="Rect&#xE1;ngulo_3371" data-name="Rect&#xE1;ngulo 3371" width="35" height="30.905" fill="#fff"></rect></clipPath></defs><g id="innudaciones" transform="translate(-1061 -1030)"><circle id="Elipse_1" data-name="Elipse 1" cx="35" cy="35" r="35" transform="translate(1061 1030)" fill="#3728ae"></circle><g id="Grupo_1497" data-name="Grupo 1497" transform="translate(1079 1049.547)"><g id="Grupo_933" data-name="Grupo 933" clip-path="url(#clip-path)"><path id="Trazado_5329" data-name="Trazado 5329" d="M35,23.3a5.64,5.64,0,0,1-9.061,1.762l-.2-.181a5.7,5.7,0,0,1-8.252,0,5.662,5.662,0,0,1-8.222,0c-.093.085-.182.165-.27.248A5.629,5.629,0,0,1,.177,23.64,1.048,1.048,0,0,1,.533,22.16a1.042,1.042,0,0,1,1.456.524,3.421,3.421,0,0,0,3.136,1.9A3.4,3.4,0,0,0,8.3,22.689a1.061,1.061,0,0,1,.962-.649,1.079,1.079,0,0,1,.986.668,3.4,3.4,0,0,0,3.147,1.876,3.4,3.4,0,0,0,3.122-1.861,1.058,1.058,0,0,1,1.982.011,3.566,3.566,0,0,0,6.255-.005,1.056,1.056,0,0,1,1.176-.671,1.126,1.126,0,0,1,.8.673,3.558,3.558,0,0,0,5.672.8,3.323,3.323,0,0,0,.547-.736,1.143,1.143,0,0,1,1.044-.749A1.091,1.091,0,0,1,35,22.817Z" transform="translate(-0.002 -2.577)" fill="#fff"></path><path id="Trazado_5330" data-name="Trazado 5330" d="M35,31.037A5.64,5.64,0,0,1,25.941,32.8l-.2-.181a5.7,5.7,0,0,1-8.251,0,5.664,5.664,0,0,1-8.223,0c-.093.086-.183.166-.27.248A5.629,5.629,0,0,1,.177,31.382,1.046,1.046,0,0,1,.534,29.9a1.041,1.041,0,0,1,1.456.524,3.42,3.42,0,0,0,3.136,1.9A3.4,3.4,0,0,0,8.3,30.43a1.047,1.047,0,0,1,1.932-.01,3.408,3.408,0,0,0,3.165,1.9,3.4,3.4,0,0,0,3.14-1.89,1.064,1.064,0,0,1,.959-.653,1.077,1.077,0,0,1,.987.664,3.563,3.563,0,0,0,6.269.022,1.059,1.059,0,0,1,1.983,0,3.561,3.561,0,0,0,6.218.06,1.167,1.167,0,0,1,1.042-.749A1.091,1.091,0,0,1,35,30.559Z" transform="translate(-0.002 -3.483)" fill="#fff"></path><path id="Trazado_5331" data-name="Trazado 5331" d="M39.248,17.29c-.05.085-.1.17-.152.254a1,1,0,0,1-1.744-.014,23.632,23.632,0,0,1-.979-2.281.986.986,0,0,1,.614-1.242,1.008,1.008,0,0,1,1.286.534c.306.671.585,1.355.878,2.031a1.49,1.49,0,0,0,.1.17Z" transform="translate(-4.248 -1.631)" fill="#fff"></path><path id="Trazado_5332" data-name="Trazado 5332" d="M28.357,6.976a.979.979,0,0,1,.859.6c.313.695.615,1.394.9,2.1a1.018,1.018,0,0,1-.538,1.314,1,1,0,0,1-1.326-.5c-.325-.7-.637-1.41-.915-2.131a1.026,1.026,0,0,1,1.022-1.382" transform="translate(-3.19 -0.816)" fill="#fff"></path><path id="Trazado_5333" data-name="Trazado 5333" d="M33.275,3.047a1.044,1.044,0,0,1-.745,1.015.956.956,0,0,1-1.144-.454q-.54-1.139-.994-2.318A.977.977,0,0,1,30.915.116a.938.938,0,0,1,1.266.321c.405.811.727,1.663,1.081,2.5a.355.355,0,0,1,.013.112" transform="translate(-3.549 0)" fill="#fff"></path><path id="Trazado_5334" data-name="Trazado 5334" d="M7.822,18.042a.986.986,0,0,1-.881-.614c-.306-.685-.606-1.374-.886-2.07a1.021,1.021,0,1,1,1.884-.787c.3.674.6,1.352.875,2.037a1.034,1.034,0,0,1-.993,1.433" transform="translate(-0.699 -1.631)" fill="#fff"></path><path id="Trazado_5335" data-name="Trazado 5335" d="M0,1.058A1.055,1.055,0,0,1,.779.037a.978.978,0,0,1,1.13.5c.347.741.671,1.494.963,2.258a.99.99,0,0,1-.547,1.223.974.974,0,0,1-1.279-.394C.676,2.855.365,2.06.034,1.274A.731.731,0,0,1,0,1.058" transform="translate(0 -0.001)" fill="#fff"></path><path id="Trazado_5336" data-name="Trazado 5336" d="M11.984,10.019a1.045,1.045,0,0,1-.75,1.013.955.955,0,0,1-1.143-.459C9.732,9.813,9.4,9.038,9.1,8.254a.976.976,0,0,1,.53-1.174.929.929,0,0,1,1.243.3c.414.818.739,1.681,1.1,2.527a.347.347,0,0,1,.013.111" transform="translate(-1.058 -0.815)" fill="#fff"></path><path id="Trazado_5337" data-name="Trazado 5337" d="M21.132,3.043a1.033,1.033,0,0,1-.743,1.021.956.956,0,0,1-1.144-.456c-.36-.759-.693-1.534-.99-2.32A.978.978,0,0,1,18.808.1a.946.946,0,0,1,1.237.338c.4.8.722,1.641,1.073,2.466a.407.407,0,0,1,.014.14" transform="translate(-2.13 0)" fill="#fff"></path><path id="Trazado_5338" data-name="Trazado 5338" d="M30.26,15.049a1.034,1.034,0,0,1,.735-1.065.962.962,0,0,1,1.145.453c.359.747.692,1.509.985,2.284a1.015,1.015,0,0,1-1.879.751c-.329-.711-.625-1.438-.928-2.162a1.124,1.124,0,0,1-.057-.261" transform="translate(-3.54 -1.631)" fill="#fff"></path><path id="Trazado_5339" data-name="Trazado 5339" d="M8.988,3.017a1.026,1.026,0,0,1-.734,1.046A.956.956,0,0,1,7.11,3.612c-.359-.748-.691-1.51-.986-2.284A.994.994,0,0,1,6.7.086a.977.977,0,0,1,1.267.43c.359.748.666,1.52.989,2.283a.708.708,0,0,1,.034.217" transform="translate(-0.709 0)" fill="#fff"></path><path id="Trazado_5340" data-name="Trazado 5340" d="M19.181,13.942a.983.983,0,0,1,.887.608c.308.684.607,1.373.887,2.069a1.024,1.024,0,0,1-.54,1.341,1.011,1.011,0,0,1-1.338-.542c-.31-.683-.61-1.372-.886-2.07a1.027,1.027,0,0,1,.989-1.406" transform="translate(-2.119 -1.631)" fill="#fff"></path><path id="Trazado_5341" data-name="Trazado 5341" d="M27.2,3.036a1.027,1.027,0,0,1-.746,1.031A.957.957,0,0,1,25.31,3.6c-.356-.748-.691-1.509-.983-2.284A.992.992,0,0,1,24.916.082a.986.986,0,0,1,1.264.444c.353.737.657,1.5.975,2.253a.922.922,0,0,1,.04.258" transform="translate(-2.839 -0.001)" fill="#fff"></path><path id="Trazado_5342" data-name="Trazado 5342" d="M3,8.037A1.028,1.028,0,0,1,3.752,7.01a.989.989,0,0,1,1.156.506q.5,1.081.941,2.193a1.01,1.01,0,0,1-.522,1.267.974.974,0,0,1-1.3-.4c-.362-.744-.668-1.517-.992-2.281A.847.847,0,0,1,3,8.037" transform="translate(-0.35 -0.816)" fill="#fff"></path><path id="Trazado_5343" data-name="Trazado 5343" d="M33.342,8.036A1.031,1.031,0,0,1,34.1,7.008a.977.977,0,0,1,1.136.485c.349.739.677,1.491.969,2.253a1,1,0,0,1-.57,1.245.989.989,0,0,1-1.289-.45C34,9.813,33.7,9.064,33.388,8.32a1.023,1.023,0,0,1-.046-.283" transform="translate(-3.901 -0.816)" fill="#fff"></path><path id="Trazado_5344" data-name="Trazado 5344" d="M12.051,15.02a1.038,1.038,0,0,1,.781-1.052.993.993,0,0,1,1.128.508c.341.731.664,1.472.954,2.224a1,1,0,0,1-.585,1.266.99.99,0,0,1-1.28-.476c-.338-.72-.638-1.458-.946-2.191a1.1,1.1,0,0,1-.051-.28" transform="translate(-1.41 -1.631)" fill="#fff"></path><path id="Trazado_5345" data-name="Trazado 5345" d="M12.147,1.093A1.041,1.041,0,0,1,12.9.042a.986.986,0,0,1,1.156.506C14.4,1.269,14.714,2,15,2.741a1.011,1.011,0,0,1-.554,1.281.993.993,0,0,1-1.309-.473c-.336-.721-.634-1.459-.941-2.193a1.051,1.051,0,0,1-.053-.262" transform="translate(-1.421 -0.001)" fill="#fff"></path><path id="Trazado_5346" data-name="Trazado 5346" d="M18.045,9.983a1.039,1.039,0,0,1-.752,1.054.953.953,0,0,1-1.119-.445c-.366-.768-.709-1.551-1-2.35a.969.969,0,0,1,.6-1.195,1,1,0,0,1,1.281.479c.336.721.634,1.46.94,2.193a1.059,1.059,0,0,1,.053.262" transform="translate(-1.769 -0.816)" fill="#fff"></path><path id="Trazado_5347" data-name="Trazado 5347" d="M27.1,16.957a1.04,1.04,0,0,1-.774,1.055.98.98,0,0,1-1.129-.5c-.343-.73-.665-1.471-.955-2.223a1,1,0,0,1,.542-1.257.984.984,0,0,1,1.3.426c.358.748.664,1.52.986,2.284a.7.7,0,0,1,.034.215" transform="translate(-2.829 -1.631)" fill="#fff"></path><path id="Trazado_5348" data-name="Trazado 5348" d="M21.2,8.089a1.041,1.041,0,0,1,.761-1.082.988.988,0,0,1,1.152.516c.336.721.656,1.451.942,2.193a1.017,1.017,0,0,1-1.883.765c-.321-.7-.614-1.418-.912-2.132a1.155,1.155,0,0,1-.06-.26" transform="translate(-2.481 -0.816)" fill="#fff"></path></g></g></g></svg>