<svg xmlns="http://www.w3.org/2000/svg" xmlns:xlink="http://www.w3.org/1999/xlink" width="70" height="70" viewBox="0 0 70 70"><defs><clipPath id="clip-path"><rect id="Rect&#xE1;ngulo_3372" data-name="Rect&#xE1;ngulo 3372" width="34.992" height="35" fill="#fff"></rect></clipPath></defs><g id="inundacion" transform="translate(-649 -882)"><circle id="Elipse_10" data-name="Elipse 10" cx="35" cy="35" r="35" transform="translate(649 882)" fill="#3728ae"></circle><g id="Grupo_936" data-name="Grupo 936" transform="translate(667 900)"><g id="Grupo_935" data-name="Grupo 935" clip-path="url(#clip-path)"><path id="Trazado_5349" data-name="Trazado 5349" d="M0,24.4c.411-.505.725-.535,1.236-.117a2.717,2.717,0,0,0,3.4.2c.378-.271.318-.7.44-1.066.013-.036-.084-.122-.143-.167a2.545,2.545,0,0,1-.837-3.219A18.791,18.791,0,0,1,6.48,16.095a1.326,1.326,0,0,1,1.672-.535,1.292,1.292,0,0,1,.71,1.063,17.992,17.992,0,0,1,.094,4.834,2.514,2.514,0,0,1-2.277,2.234c-.413.046-.285.365-.39.566s.074.274.2.354a2.715,2.715,0,0,0,3.041-.2,3.783,3.783,0,0,1,.408-.307.684.684,0,0,1,.871.142,2.738,2.738,0,0,0,1.619.723,2.625,2.625,0,0,0,1.94-.579c.647-.52.789-.512,1.442,0a2.679,2.679,0,0,0,2.788.361c-.149-.564-.283-1.114-.453-1.653-.023-.072-.238-.132-.355-.119a5.487,5.487,0,0,1-2.454-.278,3.209,3.209,0,0,1-2.274-3.112,1.993,1.993,0,0,0-.346-1.235,2.757,2.757,0,0,1-.325-1.882,20.326,20.326,0,0,1,1.194-5.552,2.261,2.261,0,0,1,2.444-1.608,2.3,2.3,0,0,1,1.143.466A18.27,18.27,0,0,1,21.4,14.525a2.536,2.536,0,0,1,.411,1.789.83.83,0,0,0,.106.412,10.066,10.066,0,0,1,.612,1.474,3.141,3.141,0,0,1-.865,2.858,5.157,5.157,0,0,1-1.953,1.4c-.208.086-.286.181-.2.406a3.831,3.831,0,0,1,.161.592c.068.3.106.591.521.629.144.014.276.188.408.3A2.631,2.631,0,0,0,24,24.37a6.092,6.092,0,0,0,.835-1.248c-.11-.134-.206-.242-.294-.357a2.838,2.838,0,0,1,.089-3.6A21.56,21.56,0,0,1,28.469,15.5a2.052,2.052,0,0,1,.9-.38,1.177,1.177,0,0,1,1.4,1.251,13.089,13.089,0,0,1-.364,2.49,24.969,24.969,0,0,1-1.034,3.382,2.711,2.711,0,0,1-3.124,1.573.264.264,0,0,0-.349.159c-.084.173-.19.336-.3.53a2.452,2.452,0,0,0,2.173.39,4.12,4.12,0,0,0,1.162-.61c.5-.352.728-.377,1.21.015a2.681,2.681,0,0,0,3.611,0,1.578,1.578,0,0,1,.333-.234.632.632,0,0,1,.911.58q.006,4.851,0,9.7a.58.58,0,0,1-.456.6,1.687,1.687,0,0,1-.472.047q-12.795,0-25.592,0c-.636,0-.95-.22-.96-.668q-.015-.7.962-.7h25.16V30.851c-.343.087-.672.192-1.01.252a3.855,3.855,0,0,1-2.812-.546.455.455,0,0,0-.577.008,3.769,3.769,0,0,1-2,.6.686.686,0,0,1-.785-.629.678.678,0,0,1,.7-.726A3.023,3.023,0,0,0,29,29.052c.411-.353.671-.315,1.174.091a2.668,2.668,0,0,0,2.97.372.738.738,0,0,0,.521-.8c-.045-.884-.014-1.772-.014-2.675-.419.1-.8.217-1.183.271a3.856,3.856,0,0,1-2.676-.576.425.425,0,0,0-.52-.011,3.958,3.958,0,0,1-4.323-.009.408.408,0,0,0-.488.01,3.963,3.963,0,0,1-4.324-.01.41.41,0,0,0-.489.01,3.965,3.965,0,0,1-4.324-.01.41.41,0,0,0-.489.01,3.958,3.958,0,0,1-4.294.007.457.457,0,0,0-.546.01,3.983,3.983,0,0,1-4.269,0c-.151-.088-.269-.169-.459-.049a4.008,4.008,0,0,1-3.753.366.975.975,0,0,0-.18-.027v.346c0,.831.01,1.663-.006,2.494a.535.535,0,0,0,.287.521,2.716,2.716,0,0,0,3.1-.172c.071-.057.14-.116.212-.172a.768.768,0,0,1,1.076,0,4.744,4.744,0,0,0,1.283.667,2.491,2.491,0,0,0,2.327-.564c.549-.453.765-.453,1.309-.007a2.678,2.678,0,0,0,3.507,0c.549-.448.757-.448,1.309,0a2.686,2.686,0,0,0,3.509,0c.553-.45.757-.452,1.306,0a2.657,2.657,0,0,0,2.3.591,1.884,1.884,0,0,1,.238-.027.67.67,0,0,1,.757.53.663.663,0,0,1-.532.791,3.886,3.886,0,0,1-3.086-.451.552.552,0,0,0-.665,0,3.928,3.928,0,0,1-4.15,0,.563.563,0,0,0-.664.006,3.928,3.928,0,0,1-4.15-.007.561.561,0,0,0-.664.008,3.948,3.948,0,0,1-4.152-.006.529.529,0,0,0-.634-.011,3.989,3.989,0,0,1-3.477.36c-.1-.031-.19-.067-.314-.112v2.8c.682,0,1.352-.007,2.021,0a.689.689,0,0,1,.754.67.676.676,0,0,1-.7.689c-.922.014-1.846.03-2.766-.015-.23-.011-.448-.253-.671-.389V24.4m19.107-3.075a11.231,11.231,0,0,0,1.347-.989,1.936,1.936,0,0,0,.437-2.641,7.059,7.059,0,0,1-.416-.743.962.962,0,0,1-.084-.585,1.429,1.429,0,0,0-.224-1.26,18.266,18.266,0,0,0-3.792-4.231.884.884,0,0,0-1.4.307,4.432,4.432,0,0,0-.245.635,17.641,17.641,0,0,0-.961,5.077,1.424,1.424,0,0,0,.259.915,1.454,1.454,0,0,1,.4,1.175,5.053,5.053,0,0,0,.007.615,1.778,1.778,0,0,0,.864,1.572,3.634,3.634,0,0,0,2.459.421c-.1-.373-.194-.721-.274-1.072a.382.382,0,0,0-.326-.332,5.154,5.154,0,0,1-.881-.26.633.633,0,0,1-.362-.764.662.662,0,0,1,.682-.5c.118,0,.236.02.386.033-.116-.439-.254-.84-.321-1.252-.078-.472-.276-.768-.786-.8a.627.627,0,0,1-.282-.114.666.666,0,0,1,.332-1.24,1.18,1.18,0,0,1,.369.056c.195.068.288.029.333-.188a3.349,3.349,0,0,1,.228-.711A.642.642,0,0,1,17.6,14.1a.664.664,0,0,1,.508.681,1.888,1.888,0,0,1-.114.53,2.79,2.79,0,0,0-.013,1.857c.4,1.339.738,2.7,1.13,4.153m10.34-4.834a1.857,1.857,0,0,0-.192.116c-.785.69-1.59,1.36-2.347,2.079a13.145,13.145,0,0,0-1.308,1.48,1.311,1.311,0,0,0-.034,1.624c.206-.35.4-.695.61-1.028a.578.578,0,0,1,.664-.306.89.89,0,0,1,.519.418,1,1,0,0,1-.08.673,9.594,9.594,0,0,1-.539.975c.226-.04.371-.053.509-.093a1.5,1.5,0,0,0,1.037-1.087q.486-1.647.9-3.316c.12-.476.167-.97.26-1.535M6.821,22.271a1.1,1.1,0,0,0,.759-.935c.04-1.157.044-2.315.047-3.474A7.791,7.791,0,0,0,7.532,17a2.371,2.371,0,0,0-.166.188c-.432.654-.885,1.3-1.287,1.969A14.5,14.5,0,0,0,5.3,20.714a.893.893,0,0,0,.212,1.124c.059-.222.112-.443.176-.661.139-.479.474-.7.877-.6s.565.478.445.967c-.054.218-.115.434-.193.727" fill="#fff"></path><path id="Trazado_5350" data-name="Trazado 5350" d="M0,1.709a2.1,2.1,0,0,1,.47-.358.614.614,0,0,1,.828.51,12,12,0,0,1,.037,1.287c0,.487-.144.733-.475.846C.548,4.1.3,3.992,0,3.623V1.709" fill="#fff"></path><path id="Trazado_5351" data-name="Trazado 5351" d="M17.837,0a.969.969,0,0,1,.346.844c-.017.363.006.728-.007,1.092a.682.682,0,1,1-1.361,0A7.917,7.917,0,0,1,16.827.675,2.346,2.346,0,0,1,17.154,0Z" fill="#fff"></path><path id="Trazado_5352" data-name="Trazado 5352" d="M0,7.176A2.265,2.265,0,0,1,.29,6.9.64.64,0,0,1,1.3,7.344a10.622,10.622,0,0,1,.038,1.288c0,.476-.157.742-.479.845S.292,9.467,0,9.09V7.176" fill="#fff"></path><path id="Trazado_5353" data-name="Trazado 5353" d="M0,12.643c.07-.071.136-.147.212-.211a.649.649,0,0,1,1.086.406A12.583,12.583,0,0,1,1.307,14.4a.524.524,0,0,1-.448.532,1.838,1.838,0,0,1-.692-.159c-.065-.02-.112-.1-.167-.152V12.643" fill="#fff"></path><path id="Trazado_5354" data-name="Trazado 5354" d="M9.431,0a1.107,1.107,0,0,1,.336.92c-.017.318,0,.638-.006.956-.014.479-.28.78-.679.786s-.679-.3-.686-.8c-.005-.353.011-.707-.005-1.059A.877.877,0,0,1,8.748,0Z" fill="#fff"></path><path id="Trazado_5355" data-name="Trazado 5355" d="M26.331,8.505l-2.15-.578c-.772-.207-.94-.68-.453-1.3Q26.075,3.6,28.429.59c.035-.046.07-.09.107-.133a.688.688,0,0,1,1.221.619c-.2.771-.411,1.537-.616,2.306-.17.635-.339,1.271-.518,1.942l2.013.548c.087.024.176.045.263.07a.7.7,0,0,1,.4,1.2q-1.683,2.173-3.378,4.337c-.476.611-.95,1.222-1.428,1.831-.293.372-.62.478-.941.314s-.441-.482-.319-.943c.344-1.3.694-2.59,1.04-3.886.023-.086.037-.173.06-.29m-1.012-1.7,1.79.487c.709.194.861.458.671,1.169-.112.421-.221.844-.332,1.265l.073.034c.7-.9,1.4-1.8,2.132-2.736-.67-.183-1.282-.344-1.89-.514a.734.734,0,0,1-.6-1.049c.121-.469.248-.938.372-1.408l-.054-.028c-.71.912-1.42,1.822-2.167,2.78" fill="#fff"></path><path id="Trazado_5356" data-name="Trazado 5356" d="M13.951,3.834c0,.25.018.5,0,.748a.655.655,0,0,1-.654.614.624.624,0,0,1-.656-.565,11.942,11.942,0,0,1,0-1.594.635.635,0,0,1,.656-.569.668.668,0,0,1,.654.618c.021.247,0,.5,0,.748" fill="#fff"></path><path id="Trazado_5357" data-name="Trazado 5357" d="M22.353,3.856c0,.25.019.5-.005.748a.649.649,0,0,1-.638.591.61.61,0,0,1-.658-.518,12.263,12.263,0,0,1,0-1.693.62.62,0,0,1,.665-.513.657.657,0,0,1,.625.569c.027.27.006.544.006.816h0" fill="#fff"></path><path id="Trazado_5358" data-name="Trazado 5358" d="M5.538,12.062c0,.227.011.454,0,.68a.655.655,0,0,1-.608.659.619.619,0,0,1-.72-.564,10.155,10.155,0,0,1,0-1.56.644.644,0,0,1,.677-.588.678.678,0,0,1,.654.659c.016.237,0,.476,0,.714" fill="#fff"></path><path id="Trazado_5359" data-name="Trazado 5359" d="M5.539,3.829c0,.227.01.455,0,.681a.678.678,0,0,1-.662.685.659.659,0,0,1-.683-.624,11.132,11.132,0,0,1,.006-1.5.658.658,0,0,1,.7-.605.687.687,0,0,1,.638.677c.013.226,0,.454,0,.681" fill="#fff"></path><path id="Trazado_5360" data-name="Trazado 5360" d="M8.4,6.78c0-.25-.016-.5,0-.748a.669.669,0,0,1,.622-.616.623.623,0,0,1,.682.532,10.671,10.671,0,0,1,0,1.658.6.6,0,0,1-.68.528.645.645,0,0,1-.625-.606c-.02-.247,0-.5,0-.748" fill="#fff"></path><path id="Trazado_5361" data-name="Trazado 5361" d="M34.991,2.659c0,.238,0,.476,0,.714a.652.652,0,0,1-1.29.138,12.784,12.784,0,0,1,0-1.695.651.651,0,0,1,1.287.129c0,.238,0,.476,0,.714" fill="#fff"></path><path id="Trazado_5362" data-name="Trazado 5362" d="M34.991,8.146c0,.238,0,.476,0,.715a.652.652,0,0,1-1.291.118,12.611,12.611,0,0,1,0-1.661.63.63,0,0,1,.682-.533.637.637,0,0,1,.61.646c0,.239,0,.477,0,.715" fill="#fff"></path><path id="Trazado_5363" data-name="Trazado 5363" d="M34.991,13.632c0,.238,0,.476,0,.715a.653.653,0,0,1-1.287.136,12.452,12.452,0,0,1,0-1.695.652.652,0,0,1,1.29.129c0,.239,0,.477,0,.715" fill="#fff"></path><path id="Trazado_5364" data-name="Trazado 5364" d="M5.45,33.627a.681.681,0,1,1-.023,1.361.681.681,0,1,1,.023-1.361" fill="#fff"></path><path id="Trazado_5365" data-name="Trazado 5365" d="M24.723,28.823a.682.682,0,0,1,.67.678.691.691,0,0,1-.684.669.677.677,0,0,1-.665-.683.668.668,0,0,1,.679-.664" fill="#fff"></path></g></g></g></svg>