<svg xmlns="http://www.w3.org/2000/svg" xmlns:xlink="http://www.w3.org/1999/xlink" id="manejo" width="617.011" height="278" viewBox="0 0 617.011 278"><defs><clipPath id="clip-path"><rect id="Rect&#xE1;ngulo_4487" data-name="Rect&#xE1;ngulo 4487" width="617.011" height="278" fill="none"></rect></clipPath><clipPath id="clip-path-3"><path id="Trazado_7287" data-name="Trazado 7287" d="M781.136,69.488c-14.851,32.015-21.567,57.613-2.311,87.37,14.238,22.3,40.432,39.611,65.2,49.584h0c42.314,17.05,83.913,17.11,117.349-13.64,21.2-19.493,32.261-47.836,27.016-77.152C977.983,57.45,939.948,13.63,879.7,6.961a108.347,108.347,0,0,0-11.935-.676c-40.487,0-68.638,24.388-86.629,63.2" transform="translate(-766.972 -6.285)" fill="none"></path></clipPath><clipPath id="clip-path-4"><rect id="Rect&#xE1;ngulo_4432" data-name="Rect&#xE1;ngulo 4432" width="26.912" height="37.246" fill="none"></rect></clipPath></defs><g id="Grupo_1505" data-name="Grupo 1505" clip-path="url(#clip-path)"><g id="Grupo_1499" data-name="Grupo 1499" transform="translate(0 0)"><g id="Grupo_1498" data-name="Grupo 1498" clip-path="url(#clip-path)"><path id="Trazado_7175" data-name="Trazado 7175" d="M961.374,192.8c-33.436,30.75-75.035,30.691-117.349,13.64h0c-24.765-9.973-50.959-27.28-65.2-49.584-19.256-29.757-12.54-55.355,2.311-87.37C800.846,26.968,832.745,1.761,879.7,6.961c60.248,6.67,98.282,50.489,108.69,108.69,5.245,29.316-5.815,57.659-27.016,77.152" transform="translate(-584.519 -4.791)" fill="#fcecdb"></path><path id="Trazado_7176" data-name="Trazado 7176" d="M69.82,605.024s-36.83-124.337,30.757-162,108.331,22.426,132.1,53.791S359.1,590.271,421.351,531.876c65.583-61.52,98.12-78.98,144.911-80.466s27.48,48.768,66.844,68.2,20.262,81.744-16.236,86.241Z" transform="translate(-45.577 -328.477)" fill="#fcecdb"></path><path id="Trazado_7177" data-name="Trazado 7177" d="M1825.618,1093.839s-.794,12.805-3.271,12.989c-.329.024-12.565.024-12.565.024l-15.62-.091s.1-3.763,4.668-4.559,12.208-4,14.973-10.039c2.91-6.349,11.815,1.675,11.815,1.675" transform="translate(-1367.353 -830.49)" fill="#163560"></path><path id="Trazado_7178" data-name="Trazado 7178" d="M1868.026,470.441s-7.374,4.193-9.438,4.192-10.167-1.566-12.425-.412-6.347,5.8-7.114,7.314c-1.379,2.727,5.553,1.523,8.83-.8a2.064,2.064,0,0,1,1.637-.338c1.7.37,5.223,1.011,6.925.381,2.289-.847,14.347-1.788,14.347-1.788Z" transform="translate(-1401.425 -358.53)" fill="#ed975d"></path><path id="Trazado_7179" data-name="Trazado 7179" d="M1992.543,206.086s-7.644,54.328-20.3,59.194c-6.245,2.4-33.847,7.844-42.012,8.391,0,0-2-1.623-1.513-8.227,0,0,28.918-10.617,33.027-16.391,6.114-8.592-3.8-35.1,3.876-43.175s20.594-11.539,26.923.207" transform="translate(-1469.841 -151.281)" fill="#ed7d2b"></path><path id="Trazado_7180" data-name="Trazado 7180" d="M1937.866,609.339a95.287,95.287,0,0,1-7.467,10.683c-8.216,10.372-17.159,18.923-18.717,27.006a36.638,36.638,0,0,1-1.444,5.174c-.651,1.852-1.455,3.8-2.383,5.811a179.135,179.135,0,0,1-13.905,23.772c-9,13.334-16.364,22.281-16.364,22.281s-2.359,1.84-9.109,1.838c-1.878,0-8.2-1.029-8.2-1.029.622-1.555,8.084-19.257,17.139-41.756,3.676-9.133,7.586-18.849,11.358-28.218q.753-1.877,1.5-3.732c1.153-2.867,2.288-5.69,3.4-8.438,8.5-21.127,15.273-37.949,15.273-37.949s33.979-12.872,37.507-4.531c2.909,6.877.54,13.614-8.586,29.088" transform="translate(-1417.74 -440.074)" fill="#599dad"></path><path id="Trazado_7181" data-name="Trazado 7181" d="M2051.411,953.26s10.794,6.935,9.746,9.188c-.139.3-6.1,10.983-6.1,10.983l-7.693,13.594s-3.236-1.924-1.705-6.3,2.455-12.611-1.466-17.967c-4.125-5.635,7.222-9.5,7.222-9.5" transform="translate(-1557.214 -726.492)" fill="#163560"></path><path id="Trazado_7182" data-name="Trazado 7182" d="M1871.78,685.313s7.6-7.056,8.787-11.421c0,0-27.8-33.3-33.825-40.767-.276-.342-.206-.719.159-1.131,4.552-5.133,55.125-15.566,61.735-25.85a31.875,31.875,0,0,0,4.271-9.846,23.283,23.283,0,0,0,.313-10.609l-50.508-1.461s-42.053,26.185-46.815,44.038,55.883,57.047,55.883,57.047" transform="translate(-1383.715 -445.247)" fill="#6bb7bf"></path><path id="Trazado_7183" data-name="Trazado 7183" d="M1947.079,639.368c4.552-5.133,55.125-15.566,61.735-25.85a31.877,31.877,0,0,0,4.271-9.846v-6.392l-21.467-3.376s-6.088,18.732-24.117,25.756c-16.887,6.58-20.085,18.254-20.422,19.709" transform="translate(-1483.894 -452.621)" fill="#5aa9ad"></path><path id="Trazado_7184" data-name="Trazado 7184" d="M2071.645,140.467c10.218,2.641,27.156-6.825,27.156-6.825a25.075,25.075,0,0,1-9.015-14.131c-.124-.489-.234-.99-.335-1.506-1.07-.227-3.088-.656-5.247-1.112l-7.8,6.992a67.155,67.155,0,0,0,1.155,7.893q.253,1.307.588,2.8a24.069,24.069,0,0,0-6.5,5.889" transform="translate(-1578.827 -89.086)" fill="#ffb27d"></path><path id="Trazado_7185" data-name="Trazado 7185" d="M2062.935,223.52c-1.463,19.684.462,49.622-1.2,54.807-1.433,4.473-17.759,1.814-24.276.32-2.412-.552-5.333-1.342-8.351-2.276-8.417-2.606-17.588-6.328-18.572-9.09a2.333,2.333,0,0,1-.091-.318,2.528,2.528,0,0,1,.018-1.158c.328-1.408,1.592-2.932,1.741-6.418.167-3.893.142-8.477.288-13.407.008-.555.015-1.16.076-1.713l0-.2c0-.106.005-.21.008-.316.141-5.5.429-11.278.762-17.01.212-3.6.456-7.165.739-10.581.734-8.818,1.723-16.659,3.032-21.617,2.14-8.081,6.857-13.352,11.151-17.214l3.106-2.664a17.957,17.957,0,0,0,11.27-1.5c4.012-1.9,5.4-3.27,6.1-2.755,9.264,7.147,15.927,29.049,14.2,53.114" transform="translate(-1532.142 -129.786)" fill="#f99746"></path><path id="Trazado_7186" data-name="Trazado 7186" d="M2029.3,372.809c-8.417-2.606-17.588-6.328-18.571-9.09a2.351,2.351,0,0,1-.091-.318q.008-.579.018-1.158c.328-1.408,1.592-2.931,1.741-6.418.167-3.893.141-8.477.287-13.407.008-.555.016-1.16.076-1.713l0-.2c0-.106.005-.21.008-.316l34.026-43.35s22.872,47.629-17.5,75.972" transform="translate(-1532.331 -226.224)" fill="#ed7d2b"></path><path id="Trazado_7187" data-name="Trazado 7187" d="M2091.636,123.885a67.112,67.112,0,0,0,1.154,7.893c7.622-2.463,11.077-9.347,12.232-12.267-.124-.489-.234-.99-.335-1.506-1.07-.227-3.088-.656-5.247-1.112Z" transform="translate(-1594.062 -89.086)" fill="#ed975d"></path><path id="Trazado_7188" data-name="Trazado 7188" d="M2057.813,70.1s16.62-2.774,14.733-13.1-1.012-17.634-11.7-16.3-12.027,5.649-12.235,9.248,4.833,20.6,9.206,20.149" transform="translate(-1561.265 -30.9)" fill="#ffb27d"></path><path id="Trazado_7189" data-name="Trazado 7189" d="M1808.491,410.182l-41.49.886-11.8-36.3-1.465.476,12.47,38.378,42.335-.9Z" transform="translate(-1336.547 -285.613)" fill="#4a75cb"></path><path id="Trazado_7190" data-name="Trazado 7190" d="M1886.077,518.127s-13.6,3.586-18.7,3.21-9.344-2.8-9.986-4.069-1.991-3.513,1.483-3.1,8.214,1.153,8.361.486-2.831-.6-2.831-.6-.9-1.309.233-1.357,4.44-.944,5.668-.331,2.361,2.882,3.259,2.787,11.383-4.723,11.383-4.723Z" transform="translate(-1414.927 -389.004)" fill="#ffb27d"></path><path id="Trazado_7191" data-name="Trazado 7191" d="M2000.819,219.49s-1.608,54.84-13.652,61.072c-5.942,3.075-32.776,11.528-40.83,12.971,0,0-2.167-1.392-2.411-8.01,0,0,27.572-13.74,31.018-19.932,5.13-9.214-7.643-34.472-.907-43.339s19.2-13.739,26.782-2.762" transform="translate(-1481.49 -162.455)" fill="#f99746"></path><path id="Trazado_7192" data-name="Trazado 7192" d="M2052.249,39s.191-3.542-1.995-5.571c0,0,.761-3.551-.644-4.137s-1.7,2.4-2.342,1.932a14.351,14.351,0,0,1-4.741-5.971c-1.229-3.278-12.479.692-13.791,1.283s-5.526-1.576-6.346-3.331a24.677,24.677,0,0,0,3.4-3.278c1.054-1.4,8.429-10.888,18.732-8.2s11.707,7.61,11.122,11.824.829,14.03-3.391,15.444" transform="translate(-1541.289 -8.578)" fill="#2b478b"></path><path id="Trazado_7193" data-name="Trazado 7193" d="M616.312,1163.377H.7a.7.7,0,0,1-.7-.7v-.239a.7.7,0,0,1,.7-.7H616.312a.7.7,0,0,1,.7.7v.239a.7.7,0,0,1-.7.7" transform="translate(0 -885.377)" fill="#2e3552"></path><path id="Trazado_7194" data-name="Trazado 7194" d="M815.576,936.243s-6.644-7.751-.41-12.673c0,0,4.554-2.757,8.266-2.533,0,0-5.261,8.822-3.559,9.7s5.154-10.253,5.154-10.253,10.362-1,13.7.6c0,0-8.858,7.249-6.993,7.681s11.434-6.684,11.434-6.684,9.644,1.641,9.13,7.524-3.837,7.7-5.3,7.543-10-3.418-10.19-2.221,4.957,5.108,8.558,5.291c0,0-6.8,7.5-11.318,5.335s-4.9-5.595-7.721-6.881-5.222-1.283-4.059.029,6.261,2.588,7.872,5.437,3.056,4.771-1.619,4.068-12.275-4.124-12.609-8.042Z" transform="translate(-619.215 -701.276)" fill="#82b378"></path><path id="Trazado_7195" data-name="Trazado 7195" d="M838.739,960.336s-26.194-1.01-31.979,6.482a18.945,18.945,0,0,1-5.216,7.32l-.614,1.673s4.539-4.786,6.163-5.076c0,0-2.54-9.281,31.645-10.4" transform="translate(-610.399 -731.85)" fill="#82b378"></path><path id="Trazado_7196" data-name="Trazado 7196" d="M784.248,1016.39a16.448,16.448,0,0,0-6.013,11.588l1.02.091s1.8-7.682,5.041-10.686-.049-.993-.049-.993" transform="translate(-593.103 -774.102)" fill="#82b378"></path><path id="Trazado_7197" data-name="Trazado 7197" d="M603.608,859.081s10.568-5.918,5.636-13.95c0,0-3.945-4.932-8.173-6.2,0,0,2.255,11.977,0,12.259s-1.55-13.527-1.55-13.527-11.131-5.355-15.5-4.932c0,0,6.9,11.7,4.65,11.414s-10-12.118-10-12.118-11.413-2.113-13.245,4.65,1.127,10.145,2.818,10.568,12.541.282,12.259,1.691-7.609,3.663-11.7,2.4c0,0,4.509,11.132,10.427,10.568s7.75-4.227,11.414-4.509,6.34.7,4.509,1.691-8.032.323-10.991,2.839-5.355,4.065.141,5.193,15.359.423,17.331-3.8Z" transform="translate(-430.475 -633.86)" fill="#a8d29f"></path><path id="Trazado_7198" data-name="Trazado 7198" d="M589.19,861.461s29.59,9.582,32.972,20.291a22.481,22.481,0,0,0,2.818,10.286v2.114s-3.1-7.186-4.791-8.173c0,0,6.623-9.3-31-24.518" transform="translate(-449.029 -656.531)" fill="#82b378"></path><path id="Trazado_7199" data-name="Trazado 7199" d="M735.112,985.781a19.517,19.517,0,0,1,1.962,15.365l-1.174-.316s1.14-9.291-1.248-13.964.46-1.086.46-1.086" transform="translate(-559.16 -750.274)" fill="#82b378"></path><path id="Trazado_7200" data-name="Trazado 7200" d="M769.13,796.875s-13.931-7.8-7.43-18.389c0,0,5.2-6.5,10.773-8.172,0,0-2.972,15.788,0,16.159s2.043-17.831,2.043-17.831,14.674-7.058,20.432-6.5c0,0-9.1,15.417-6.129,15.045s13.187-15.974,13.187-15.974,15.045-2.786,17.46,6.13-1.486,13.373-3.715,13.93-16.531.372-16.159,2.229,10.03,4.829,15.417,3.158c0,0-5.944,14.674-13.745,13.93s-10.216-5.572-15.045-5.944-8.358.929-5.944,2.229,10.587.426,14.488,3.742,7.058,5.36-.186,6.846-20.246.557-22.846-5.015Z" transform="translate(-579.184 -579.815)" fill="#a8d29f"></path><path id="Trazado_7201" data-name="Trazado 7201" d="M830.033,800.012s-39.006,12.63-43.464,26.747a29.633,29.633,0,0,1-3.715,13.559V843.1s4.086-9.473,6.315-10.773c0,0-8.73-12.259,40.863-32.319" transform="translate(-596.624 -609.7)" fill="#82b378"></path><path id="Trazado_7202" data-name="Trazado 7202" d="M771.185,963.889a25.726,25.726,0,0,0-2.586,20.254l1.548-.416s-1.5-12.247,1.645-18.407-.607-1.431-.607-1.431" transform="translate(-584.953 -733.271)" fill="#82b378"></path><path id="Trazado_7203" data-name="Trazado 7203" d="M709.075,1068.526a27.288,27.288,0,0,0,27.288-27.288H681.787a27.288,27.288,0,0,0,27.288,27.288" transform="translate(-519.598 -793.541)" fill="#f1a34f"></path><path id="Trazado_7204" data-name="Trazado 7204" d="M726.445,1068.316a27.305,27.305,0,0,1-30.677-27.079h6.779a27.292,27.292,0,0,0,23.9,27.079" transform="translate(-530.254 -793.54)" fill="#ffb973"></path><path id="Trazado_7205" data-name="Trazado 7205" d="M735.534,1151H680.2a3.367,3.367,0,0,1,3.367-3.366h48.6a3.367,3.367,0,0,1,3.367,3.366" transform="translate(-518.392 -874.626)" fill="#f1a34f"></path><rect id="Rect&#xE1;ngulo_4428" data-name="Rect&#xE1;ngulo 4428" width="56.094" height="0.837" transform="translate(161.291 247.697)" fill="#d86713"></rect><path id="Trazado_7206" data-name="Trazado 7206" d="M2138.683,850.72c-6.49-6.63-17.925-11.195-31.133-11.732V817.065h20.407c.505,0,.958-.441,1.244-1.12a4.5,4.5,0,0,0,.319-1.711v-.989c0-1.557-.7-2.832-1.562-2.832H2107.55V758.195a2.622,2.622,0,1,0-5.244,0v52.218H2081.9c-.859,0-1.562,1.274-1.562,2.832v.989a4.443,4.443,0,0,0,.34,1.758c.286.654.729,1.073,1.223,1.073h20.407v21.924c-13.208.537-24.643,5.1-31.133,11.732q-.708.722-1.333,1.475h70.176c-.415-.5-.861-.993-1.333-1.475" transform="translate(-1577.451 -575.832)" fill="#d39e7a"></path><path id="Trazado_7207" data-name="Trazado 7207" d="M2134.812,1106.152c-9.215.853-17.136,5.3-21.721,11.635q-.524.723-.986,1.475h-6.493q.463-.753.986-1.475c5.116-7.066,14.384-11.785,24.967-11.785q1.648,0,3.247.15" transform="translate(-1604.713 -842.898)" fill="#e0b594"></path><path id="Trazado_7208" data-name="Trazado 7208" d="M2126.871,681.778h-69.492a3.157,3.157,0,0,0-3.148,3.148V698.1a3.157,3.157,0,0,0,3.148,3.148h69.492a3.158,3.158,0,0,0,3.148-3.148V684.926a3.157,3.157,0,0,0-3.148-3.148" transform="translate(-1565.554 -519.592)" fill="#ed7d2b"></path><path id="Trazado_7209" data-name="Trazado 7209" d="M700.957,237.626c-1.165,3.133-3.185,6.77-5.3,7.674a8.21,8.21,0,0,0-3.406,2.474l-1.941-1.126-2.318-1.347s.055-.257.168-.677.286-1,.521-1.643a2.244,2.244,0,0,0,.276-2.063,4.788,4.788,0,0,1,.395-4c.744-1.08,1.461-3.742,1.908-3.663,1.084.186-.533,3.845-.069,4.524a.8.8,0,0,0,1.041.357l.018-.01c3.041-1.337,6.729-8.544,8.361-7.572.61.365.845,5.739.349,7.074" transform="translate(-524.324 -175.638)" fill="#ffb27d"></path><path id="Trazado_7210" data-name="Trazado 7210" d="M697.472,230.956l3.809,2.677a.6.6,0,0,0,.833-.146l9.758-13.885a.6.6,0,0,0-.145-.833l-3.809-2.676a.6.6,0,0,0-.833.145l-9.758,13.885a.6.6,0,0,0,.145.833" transform="translate(-531.359 -164.605)" fill="#2b478b"></path><path id="Trazado_7211" data-name="Trazado 7211" d="M712.325,241.341l2.233,1.569a.457.457,0,0,0,.634-.111l9.922-14.118a.456.456,0,0,0-.111-.634l-2.233-1.569a.456.456,0,0,0-.634.111l-9.922,14.118a.457.457,0,0,0,.111.634" transform="translate(-542.725 -172.539)" fill="#233862"></path><path id="Trazado_7212" data-name="Trazado 7212" d="M434.779,195.166s19.383,33.806,26.414,40.027l25.783-19.222a9.411,9.411,0,0,1,5.38,4.9s-15.657,31.9-31.073,33.251-37.052-38.234-37.052-38.234Z" transform="translate(-323.312 -148.739)" fill="#233862"></path><path id="Trazado_7213" data-name="Trazado 7213" d="M220.626,1088.917h-11.2a6.789,6.789,0,0,1-3.063-5.131c-.547-3.608-4.591-5.575-5.466-8.527s3.608-7.1,3.608-7.1l.75-.967.78-1,7.433,1.75s.184,1.771.3,4.026a51.364,51.364,0,0,1,.032,5.156c-.218,3.934,1.1,8.173,4.6,8.938,2.585.565,2.47,2.1,2.233,2.861" transform="translate(-153.021 -812.555)" fill="#233862"></path><path id="Trazado_7214" data-name="Trazado 7214" d="M472.7,1119.781H447.086c-1.232-1.5-.778-7.05-.592-8.861.039-.365.065-.578.065-.578s8.746-7,9.947-1.639c.037.168.081.332.13.494,1.513,5.01,8.3,7.287,12.222,7.921,2.548.413,3.491,1.738,3.839,2.662" transform="translate(-340.098 -843.418)" fill="#233862"></path><path id="Trazado_7215" data-name="Trazado 7215" d="M418.017,553.435S416.689,570,415.128,589.92c-2.121,27.055-4.672,60.287-4.925,66.583-.436,10.932-2.187,28.419-2.187,28.419s-4.151,4.154-12.46,2.4c0,0-7.4-24.963-9.519-51.375l-.1-1.305c-1.967-26.888-5.027-83.505-5.027-83.505Z" transform="translate(-290.298 -420.031)" fill="#f99746"></path><path id="Trazado_7216" data-name="Trazado 7216" d="M418.017,553.435S416.689,570,415.128,589.92l-29.091,46.03-.1-1.305c-1.967-26.888-5.027-83.505-5.027-83.505Z" transform="translate(-290.298 -420.031)" fill="#ed7d2b"></path><path id="Trazado_7217" data-name="Trazado 7217" d="M286.594,534.394s-23.936,60-39.675,88.2-20.658,36.069-20.658,36.069-9.017-3.607-9.837-6.066c0,0,6.019-54.44,16.559-67.711,5.956-7.5,12.952-30,13.28-37.872s2.131-23.445,2.131-23.445Z" transform="translate(-164.939 -399.022)" fill="#f99746"></path><path id="Trazado_7218" data-name="Trazado 7218" d="M404.532,121.43c-9.353,2.951-25.538-5.014-25.538-5.014s8.624-6.472,8.172-19.93l7.232,5.829,4.913,3.958a58.844,58.844,0,0,1-.557,6.424c-.142,1.076-.318,2.275-.541,3.586a22.384,22.384,0,0,1,6.319,5.148" transform="translate(-288.836 -73.533)" fill="#ffb27d"></path><path id="Trazado_7219" data-name="Trazado 7219" d="M425.395,124.494a58.849,58.849,0,0,1-.557,6.424c-5.443-.934-11.618-9.732-11.618-9.732a17.338,17.338,0,0,1,7.263-.65Z" transform="translate(-314.919 -91.755)" fill="#ed975d"></path><path id="Trazado_7220" data-name="Trazado 7220" d="M417.22,54.807s-15.45,2.567-16.9-7.08S395.9,31.916,405.7,29.869s12.278,1.345,13.545,4.448,1.955,19.574-2.027,20.49" transform="translate(-303.885 -22.29)" fill="#ffb27d"></path><path id="Trazado_7221" data-name="Trazado 7221" d="M390.266,260.242a1.513,1.513,0,0,1-.983.375c-3.513-.048-13.755,1.9-22.422,1.013-7.306-.7-13.773-2.866-20.718-5.979-.922-.413-3.044-1.546-3-2.577.031-1.129.143-2.766.284-4.827a258.241,258.241,0,0,0,.513-33.722c-.15-2.648-.229-5.276-.239-7.862-.071-19.278,3.751-36.235,11.432-41.974.656-.47,4.684,1.5,8.385,3.324a15.317,15.317,0,0,0,10.07,1.219l3.231,2.857c3.935,3.653,8.244,8.619,10.118,16.159,1.594,6.417,2.529,17.988,3.045,29.978.234,5.434.422,10.915.47,16.114v.186c.045.516.045,1.079.045,1.594.188,13.348,0,23.934-.234,24.122" transform="translate(-261.515 -125.458)" fill="#2b478b"></path><path id="Trazado_7222" data-name="Trazado 7222" d="M344.342,340.039a258.274,258.274,0,0,0,.513-33.722c-.15-2.649-.229-5.276-.239-7.863,3.2-7.762,5.816-13.391,5.816-13.391H358.5s5.913,40.389-14.155,54.976" transform="translate(-262.427 -217.251)" fill="#233862"></path><path id="Trazado_7223" data-name="Trazado 7223" d="M186.886,582.128l-34.4-4.9a8.245,8.245,0,0,0-9.3,6.98l-2.124,14.907a8.246,8.246,0,0,0,6.98,9.3l34.4,4.9a8.247,8.247,0,0,0,9.3-6.98l2.124-14.907a8.246,8.246,0,0,0-6.98-9.3" transform="translate(-107.443 -439.849)" fill="#233862"></path><path id="Trazado_7224" data-name="Trazado 7224" d="M174.228,572.25v0a8.282,8.282,0,0,0-5.7-4.977h0a.007.007,0,0,1-.006,0c-.259-.063-.522-.116-.794-.154l-6.849-.974.458-3.217a2.725,2.725,0,0,0-2.312-3.079l-1.787-.255-7.192-1.025-1.3-.184a2.726,2.726,0,0,0-3.079,2.311l-.457,3.217-11.823-1.686a8.279,8.279,0,0,0-9.335,7.006l-2.147,15.081a8.276,8.276,0,0,0,7.006,9.333l34.336,4.895a8.071,8.071,0,0,0,1.791.057h.006a8.125,8.125,0,0,0,2.68-.677,8.269,8.269,0,0,0,4.858-6.388l2.15-15.078a8.184,8.184,0,0,0-.5-4.2m-26.869-11.318a1.022,1.022,0,0,1,1.15-.863l1.528.216,5.66.809,3.086.439a1.018,1.018,0,0,1,.863,1.149l-.457,3.217L146.9,564.147Z" transform="translate(-92.843 -425.527)" fill="#2b478b"></path><path id="Trazado_7225" data-name="Trazado 7225" d="M245.257,518.4q.013-.276.034-.566c.072-.961,1.878-3.368,1.878-3.368l-4.529-2.351-1.793,2.964c-2.708,2.155-2.758,2.194-2.264,6.32.428,3.577-1.912,3.619-1.856,6.174s3.347,1.3,3.347,1.3c5.1-2.395,5.523-3.6,5.366-6.029.483.686,1.025,1.087,1.485.787.405-.263-.4-1.309-.756-3.731a4.337,4.337,0,0,0-.912-1.5" transform="translate(-180.412 -390.29)" fill="#ffb27d"></path><path id="Trazado_7226" data-name="Trazado 7226" d="M248.525,255.811a26.421,26.421,0,0,0,6.053.337s8.622-26.636,9.732-29.069,25.611-31.232,25.611-31.232L279.714,170.3s-26.5,44.267-29.192,50.487c-4.447,10.278-5.99,33.324-5.99,33.324a11.1,11.1,0,0,0,3.993,1.7" transform="translate(-186.361 -129.791)" fill="#2b478b"></path><path id="Trazado_7227" data-name="Trazado 7227" d="M393.286,24.511s1.585-.265,1.33-2.449-.253-5.038,1.523-4.506,1.864,1.954,2.594,1.123.743-4.327,6.026-4.571,7.43,1.6,9.887.515,2.587-4.8,2.587-4.8a4.227,4.227,0,0,1-1.754,1.75s4.1-5.606-.647-9.45S405.246.8,402.5.964c-6.05.366-9.959.729-11.936,4.705s-1.161,15.015,2.722,18.842" transform="translate(-296.863 -0.002)" fill="#2b478b"></path></g></g><g id="Grupo_1504" data-name="Grupo 1504" transform="translate(182.453 1.495)"><g id="Grupo_1503" data-name="Grupo 1503" clip-path="url(#clip-path-3)"><path id="Trazado_7228" data-name="Trazado 7228" d="M1206.807,534.328s-15.633-3.147-18.245-2.9-11.66,4.315-11.762,5.059.348,1.337,1.93,1.4,6.77-.74,6.457-.1-15.224,3.978-15.311,7,8.272,8.412,15.22,8.606,20.378-8.224,21.545-8.357c9.9-1.126.166-10.71.166-10.71" transform="translate(-1074.03 -406.493)" fill="#ed975d"></path><path id="Trazado_7229" data-name="Trazado 7229" d="M1384.189,262.484c-6.107,7.6-11.2,13.5-13.881,15.645a60.445,60.445,0,0,1-7.925,5.193c-22.289,12.579-65.158,25.342-65.158,25.342s-.03-.02-.085-.061a18.741,18.741,0,0,1-5.353-6.434c-1.632-3.3-1.3-5.351-.811-6.424a2.83,2.83,0,0,1,.645-.948s51.372-32.832,55.481-36.251c2.329-1.939,10.767-21.583,17.64-38.237q1.44,2.09,2.792,4.245a145.23,145.23,0,0,1,16.654,37.931" transform="translate(-1166.019 -169.395)" fill="#ed7d2b"></path><path id="Trazado_7230" data-name="Trazado 7230" d="M1609.49,636q-.485,1.377-1.019,2.738a85.445,85.445,0,0,1-6,12.3v0q-2.069,3.512-4.469,6.831a91.339,91.339,0,0,1-12.258,13.784c.024-.344.051-.687.075-1.029.036-.53.075-1.055.111-1.577q.125-1.735.243-3.407.048-.649.093-1.286c.2-2.758.382-5.373.556-7.826q.076-1.058.148-2.077l.042-.6c.031-.4.057-.795.085-1.185.027-.354.051-.7.075-1.047,0-.037,0-.071.008-.105q.036-.528.073-1.044c.043-.58.083-1.146.121-1.7.025-.346.049-.685.073-1.021q.054-.785.107-1.531c.01-.119.018-.241.026-.36.019-.236.034-.473.051-.7.008-.117.016-.233.025-.346a.315.315,0,0,0,0-.043c.032-.445.062-.88.093-1.3,0-.022,0-.044,0-.067.022-.307.044-.609.065-.9.006-.1.014-.2.02-.291.012-.168.025-.334.035-.5.01-.133.021-.267.028-.4.064-.918.125-1.757.178-2.509.008-.107.016-.215.022-.318s.016-.212.022-.315c.014-.2.028-.391.04-.574.095-1.329.162-2.3.2-2.865,0-.059.008-.113.012-.164,0-.016,0-.032,0-.049,0-.052.006-.1.008-.139l.018-.243Z" transform="translate(-1390.968 -484.775)" fill="#6bb7bf"></path><path id="Trazado_7231" data-name="Trazado 7231" d="M1609.49,636q-.485,1.377-1.019,2.738a85.445,85.445,0,0,1-6,12.3v0q-2.069,3.512-4.469,6.831a91.339,91.339,0,0,1-12.258,13.784c.024-.344.051-.687.075-1.029.036-.53.075-1.055.111-1.577q.125-1.735.243-3.407.048-.649.093-1.286c.2-2.758.382-5.373.556-7.826q.076-1.058.148-2.077l.042-.6c.031-.4.057-.795.085-1.185.027-.354.051-.7.075-1.047,0-.037,0-.071.008-.105q.036-.528.073-1.044c.043-.58.083-1.146.121-1.7.025-.346.049-.685.073-1.021q.054-.785.107-1.531c.01-.119.018-.241.026-.36.019-.236.034-.473.051-.7.008-.117.016-.233.025-.346a.315.315,0,0,0,0-.043c.032-.445.062-.88.093-1.3,0-.022,0-.044,0-.067.022-.307.044-.609.065-.9.006-.1.014-.2.02-.291.012-.168.025-.334.035-.5.01-.133.021-.267.028-.4.064-.918.125-1.757.178-2.509.008-.107.016-.215.022-.318s.016-.212.022-.315c.014-.2.028-.391.04-.574.095-1.329.162-2.3.2-2.865,0-.059.008-.113.012-.164,0-.016,0-.032,0-.049,0-.052.006-.1.008-.139l.018-.243Z" transform="translate(-1390.968 -484.775)" fill="#599dad"></path><path id="Trazado_7232" data-name="Trazado 7232" d="M1611.415,292.373a81.819,81.819,0,0,1-3.391,41.846q-.485,1.377-1.019,2.738a85.446,85.446,0,0,1-6,12.3v0q-2.068,3.512-4.469,6.83c-4.58-.661-8.307-1.2-10.6-1.262a2.944,2.944,0,0,1-.576-.079,3.012,3.012,0,0,1-1.361-.738c-.455-.394-.024-21.555,1.371-48.208.04-1.027.081-2.157.214-3.179l.01-.376q.131-2.639.277-5.328.088-1.55.18-3.114c.431-7.108.964-14.379,1.545-21.63q.085-1.044.166-2.083c.916-11.16,1.992-22.129,3.261-31.943a145.252,145.252,0,0,1,16.654,37.932q2.253,7.95,3.743,16.292" transform="translate(-1389.502 -182.992)" fill="#f99746"></path><path id="Trazado_7233" data-name="Trazado 7233" d="M795.489,305.979c-.255-7.461-.635-16.348-1.137-25.947-.04-1.027-.085-2.158-.214-3.179l-.016-.376c-.041-.851-.081-1.706-.125-2.566q-.036-.728-.077-1.458-.115-2.192-.253-4.418c-.431-7.108-.967-14.378-1.541-21.63-.061-.7-.115-1.391-.172-2.083-.845-10.339-1.83-20.514-2.983-29.756v0c-.008-.053-.014-.1-.02-.156-.144-1.161-.3-2.313-.445-3.444-.3-2.279-.614-4.493-.94-6.626q-.667,1.092-1.314,2.2-3.822,6.534-7.128,13.693A218.715,218.715,0,0,0,767.609,251.5l-.061.21a67.82,67.82,0,0,0-2.182,10.693v0c-.063.5-.117,1-.166,1.5v0c-1.535,15.906,3,30.79,11.6,44.089.293.459.6.916.9,1.371q.91,1.356,1.882,2.689.682.943,1.4,1.875c.1.131.2.26.3.392a108.928,108.928,0,0,0,11.034,12.187q.983.937,1.992,1.86c.166.152.336.305.5.457a3.235,3.235,0,0,0,.906-.589c.291-.255.221-9.008-.234-22.261" transform="translate(-765.397 -157.223)" fill="#2a4e96"></path><path id="Trazado_7234" data-name="Trazado 7234" d="M796.966,356.909c-11.985-12.559-21.973-27.973-30.122-43.573v0a67.821,67.821,0,0,1,2.182-10.693l.061-.21A218.715,218.715,0,0,1,780.6,271.164c7.356,10.515,12.512,20.192,12.83,24.089.056.692.111,1.387.172,2.083.574,7.251,1.11,14.522,1.541,21.63q.137,2.223.253,4.418.04.731.077,1.458c.044.859.085,1.714.125,2.566l.016.376c.129,1.021.174,2.151.214,3.179.5,9.6.882,18.486,1.137,25.947" transform="translate(-766.874 -208.153)" fill="#1e3d70"></path><path id="Trazado_7235" data-name="Trazado 7235" d="M1103.921,547.6s15.947.015,18.458.777,10.573,6.541,10.526,7.291-.606,1.241-2.17.991-6.49-2.067-6.309-1.379,14.133,6.918,13.619,9.9-9.776,6.6-16.624,5.418-18.343-12.1-19.46-12.463c-9.476-3.065,1.961-10.53,1.961-10.53" transform="translate(-1019.407 -418.829)" fill="#ffb27d"></path><path id="Trazado_7236" data-name="Trazado 7236" d="M861.462,298.5a18.752,18.752,0,0,1-4.611,5.215,13.271,13.271,0,0,1-1.261.889s-30.687-11.489-52.931-23.631c-7.352-4.014-13.783-8.1-17.877-11.861-1.85-1.7-4.851-5.5-8.511-10.549A218.715,218.715,0,0,1,787.786,227.3q3.312-7.146,7.128-13.693c.887,2.643,1.8,5.344,2.72,8.022v0c4.873,14.215,9.867,27.842,11.646,29.542,3.862,3.7,52.852,39.986,52.852,39.986a3.413,3.413,0,0,1,.807,1.933,8.611,8.611,0,0,1-1.478,5.411" transform="translate(-774.059 -164.284)" fill="#2a4e96"></path><rect id="Rect&#xE1;ngulo_4430" data-name="Rect&#xE1;ngulo 4430" width="83.669" height="75.89" transform="translate(64.08 21.457)" fill="#ddebfd"></rect><rect id="Rect&#xE1;ngulo_4431" data-name="Rect&#xE1;ngulo 4431" width="83.669" height="4.552" transform="translate(64.08 16.905)" fill="#739af0"></rect><path id="Trazado_7237" data-name="Trazado 7237" d="M1045.223,83.088a.911.911,0,1,0,.911.911.911.911,0,0,0-.911-.911" transform="translate(-978.336 -64.818)" fill="#ddebfd"></path><path id="Trazado_7238" data-name="Trazado 7238" d="M1060.211,83.088a.911.911,0,1,0,.911.911.911.911,0,0,0-.911-.911" transform="translate(-989.759 -64.818)" fill="#ddebfd"></path><path id="Trazado_7239" data-name="Trazado 7239" d="M1075.307,83.088a.911.911,0,1,0,.911.911.911.911,0,0,0-.911-.911" transform="translate(-1001.264 -64.818)" fill="#ddebfd"></path><path id="Trazado_7240" data-name="Trazado 7240" d="M1137.106,128.323h31.965a1.517,1.517,0,1,0,0-3.035h-31.965a1.517,1.517,0,0,0,0,3.035" transform="translate(-1047.9 -96.979)" fill="#a8c3f7"></path><path id="Trazado_7241" data-name="Trazado 7241" d="M1106.489,150.218h46.532a1.517,1.517,0,0,0,0-3.035h-46.532a1.517,1.517,0,0,0,0,3.035" transform="translate(-1024.566 -113.665)" fill="#a8c3f7"></path><path id="Trazado_7242" data-name="Trazado 7242" d="M1091.248,210.431h56.082a1.113,1.113,0,1,0,0-2.225h-56.082a1.113,1.113,0,1,0,0,2.225" transform="translate(-1013.258 -160.172)" fill="#a8c3f7"></path><path id="Trazado_7243" data-name="Trazado 7243" d="M1147.33,229.785h-56.082a1.116,1.116,0,0,0-1.113,1.113h0a1.116,1.116,0,0,0,1.113,1.112h56.082a1.116,1.116,0,0,0,1.113-1.112h0a1.116,1.116,0,0,0-1.113-1.113" transform="translate(-1013.258 -176.617)" fill="#a8c3f7"></path><path id="Trazado_7244" data-name="Trazado 7244" d="M1147.33,251.365h-56.082a1.113,1.113,0,1,0,0,2.225h56.082a1.113,1.113,0,1,0,0-2.225" transform="translate(-1013.258 -193.064)" fill="#a8c3f7"></path><path id="Trazado_7245" data-name="Trazado 7245" d="M1096.878,329.819h-5.631a1.113,1.113,0,1,0,0,2.225h5.631a1.113,1.113,0,1,0,0-2.225" transform="translate(-1013.258 -252.854)" fill="#a8c3f7"></path><path id="Trazado_7246" data-name="Trazado 7246" d="M1136.424,329.819h-5.631a1.113,1.113,0,1,0,0,2.225h5.631a1.113,1.113,0,0,0,0-2.225" transform="translate(-1043.396 -252.854)" fill="#a8c3f7"></path><path id="Trazado_7247" data-name="Trazado 7247" d="M1269.415,329.819h-5.631a1.113,1.113,0,1,0,0,2.225h5.631a1.113,1.113,0,1,0,0-2.225" transform="translate(-1144.75 -252.854)" fill="#a8c3f7"></path><path id="Trazado_7248" data-name="Trazado 7248" d="M1308.959,329.819h-5.63a1.113,1.113,0,1,0,0,2.225h5.63a1.113,1.113,0,1,0,0-2.225" transform="translate(-1174.887 -252.854)" fill="#a8c3f7"></path><path id="Trazado_7249" data-name="Trazado 7249" d="M1106.036,344.864a5.931,5.931,0,1,0,5.932,5.931,5.938,5.938,0,0,0-5.932-5.931m0,11.564a5.632,5.632,0,1,1,5.633-5.632,5.639,5.639,0,0,1-5.633,5.632" transform="translate(-1020.856 -264.32)" fill="#a8c3f7"></path><path id="Trazado_7250" data-name="Trazado 7250" d="M1109.727,349.706a4.78,4.78,0,1,0,4.779,4.78,4.785,4.785,0,0,0-4.779-4.78m0,9.26a4.48,4.48,0,1,1,4.48-4.48,4.486,4.486,0,0,1-4.48,4.48" transform="translate(-1024.548 -268.01)" fill="#a8c3f7"></path><path id="Trazado_7251" data-name="Trazado 7251" d="M1114.473,364.863c-.637-.053-.966-.353-.98-.89a1.4,1.4,0,0,1,.449-1.07,1.627,1.627,0,0,0,.812,1.256.5.5,0,0,0,.557-.2,3.429,3.429,0,0,0,.428-.7.357.357,0,0,0,.238.105c.221.011.44-.165.635-.507a2.639,2.639,0,0,0,.142-.294.2.2,0,0,0,.047.038.183.183,0,0,0,.217-.031,1.948,1.948,0,0,0,.368-.547.265.265,0,0,0,.1.114.22.22,0,0,0,.273-.059.139.139,0,0,0,.038-.175c-.033-.06-.138-.1-.293-.129v0a1.747,1.747,0,0,0,.218-.921.143.143,0,0,0-.148-.092c-.109.011-.186.12-.233.336a2.118,2.118,0,0,0-.029.649l0,.007c-.111-.008-.237-.01-.372-.007a.448.448,0,0,0-.057-.226.14.14,0,0,0-.151-.079c-.085.02-.115.122-.128.208,0,.032-.008.071-.011.115a6.969,6.969,0,0,0-1.216.207,3.972,3.972,0,0,0-1.291.578c-.012-.187,0-.418.138-.5.155-.1.435.023.53.078l.094-.161c-.018-.01-.439-.252-.723-.075-.175.109-.25.344-.224.7,0,.034.006.068.01.1a1.618,1.618,0,0,0-.6,1.293c.016.63.425,1.011,1.151,1.071a4.616,4.616,0,0,0,1.7-.266c1.38-.447,2.663-1.4,2.919-2.267-.37,1.085-3.053,2.477-4.606,2.348m3.077-3.847a1.405,1.405,0,0,1-.044.2,1.186,1.186,0,0,1,.044-.2m-.624.915c.109,0,.209,0,.3,0a1.756,1.756,0,0,1-.331.5s-.026-.017-.055-.105a2.239,2.239,0,0,0,.09-.4m-1,.1c.232-.042.458-.07.664-.087a1.847,1.847,0,0,0,.052.379,2.465,2.465,0,0,1-.193.435c-.154.27-.323.42-.465.414a.213.213,0,0,1-.164-.112,1.4,1.4,0,0,0,.1-1.029m-.183.057a.917.917,0,0,1-.024.7,1.422,1.422,0,0,1,.024-.7m-1.083.333a4.675,4.675,0,0,1,.879-.306,1.758,1.758,0,0,0,0,.714,1.15,1.15,0,0,0,.078.243,3.22,3.22,0,0,1-.449.767.318.318,0,0,1-.356.137,1.53,1.53,0,0,1-.7-1.222,2.851,2.851,0,0,1,.553-.334" transform="translate(-1030.917 -276.433)" fill="#a8c3f7"></path><path id="Trazado_7252" data-name="Trazado 7252" d="M1137.573,367.793a.837.837,0,0,0,.03-.111,1.144,1.144,0,0,1-.03.111" transform="translate(-1049.412 -281.71)" fill="#a8c3f7"></path><path id="Trazado_7253" data-name="Trazado 7253" d="M1278.815,345.527a6.075,6.075,0,1,0,6.075,6.075,6.082,6.082,0,0,0-6.075-6.075m0,11.844a5.769,5.769,0,1,1,5.769-5.769,5.775,5.775,0,0,1-5.769,5.769" transform="translate(-1152.424 -264.826)" fill="#a8c3f7"></path><path id="Trazado_7254" data-name="Trazado 7254" d="M1282.6,350.488a4.9,4.9,0,1,0,4.9,4.9,4.9,4.9,0,0,0-4.9-4.9m0,9.484a4.589,4.589,0,1,1,4.589-4.589,4.594,4.594,0,0,1-4.589,4.589" transform="translate(-1156.204 -268.606)" fill="#a8c3f7"></path><path id="Trazado_7255" data-name="Trazado 7255" d="M1311.116,369.014a.827.827,0,0,0,.031-.113c-.007.038-.02.075-.031.113" transform="translate(-1181.671 -282.639)" fill="#a8c3f7"></path><path id="Trazado_7256" data-name="Trazado 7256" d="M1287.456,366.013c-.652-.055-.989-.361-1-.912a1.432,1.432,0,0,1,.46-1.1,1.663,1.663,0,0,0,.831,1.286.513.513,0,0,0,.571-.2,3.506,3.506,0,0,0,.438-.721.369.369,0,0,0,.244.108c.226.011.451-.17.651-.52a2.637,2.637,0,0,0,.146-.3.206.206,0,0,0,.048.039.188.188,0,0,0,.222-.033,2,2,0,0,0,.376-.56.276.276,0,0,0,.1.117.226.226,0,0,0,.279-.06.142.142,0,0,0,.038-.179c-.034-.062-.141-.105-.3-.132v0a1.793,1.793,0,0,0,.223-.943.147.147,0,0,0-.152-.094c-.111.011-.191.123-.239.344a2.176,2.176,0,0,0-.03.665l0,.007c-.114-.008-.243-.011-.381-.008a.462.462,0,0,0-.059-.232.144.144,0,0,0-.154-.08c-.087.021-.118.124-.131.213,0,.033-.009.073-.011.118a7.094,7.094,0,0,0-1.246.213,4.053,4.053,0,0,0-1.322.592c-.012-.192,0-.428.141-.514.159-.1.446.024.543.08l.1-.165c-.018-.011-.449-.258-.74-.077-.179.112-.257.352-.229.713,0,.035.006.07.01.1a1.656,1.656,0,0,0-.616,1.325c.016.646.435,1.035,1.179,1.1a4.719,4.719,0,0,0,1.744-.273c1.413-.458,2.727-1.436,2.989-2.322-.378,1.112-3.127,2.538-4.718,2.405m3.151-3.94a1.42,1.42,0,0,1-.045.2,1.2,1.2,0,0,1,.045-.2m-.639.937c.111,0,.213,0,.3,0a1.79,1.79,0,0,1-.34.516s-.027-.017-.057-.107a2.357,2.357,0,0,0,.092-.41m-1.025.107c.237-.043.468-.072.68-.089a1.889,1.889,0,0,0,.054.388,2.513,2.513,0,0,1-.2.445c-.157.276-.332.43-.476.424a.218.218,0,0,1-.168-.114,1.439,1.439,0,0,0,.108-1.055m-.188.058a.939.939,0,0,1-.024.714,1.466,1.466,0,0,1,.024-.714m-1.109.341a4.842,4.842,0,0,1,.9-.313,1.8,1.8,0,0,0,0,.732,1.185,1.185,0,0,0,.079.249,3.28,3.28,0,0,1-.46.786.325.325,0,0,1-.365.14,1.566,1.566,0,0,1-.72-1.251,2.976,2.976,0,0,1,.566-.343" transform="translate(-1162.728 -277.233)" fill="#a8c3f7"></path><path id="Trazado_7257" data-name="Trazado 7257" d="M1289.682,664.723l-7.281,9.825-.716.966-.35.469-.9,1.211-.487.657-.9,1.211-.944,1.274-.883,1.191-.014.016v0l-.829,1.118-.01.014-.123.166-.014.018s0,0,0,0l-.156.208v0l-.9,1.112v.1l-.837,1.132h0l-1.082,1.462h0l-.817,1.1v0l-.9,1.207v0l-1.5,2.02v0h0l-.148.2-.51.688v0l-1.179,1.589-1.563,2.012v.1l-.811,1.094-.085.113v0l-1.126,1.521h0l-1.05,1.417-.01.014h0l-2.6,3.51v0l-3.872,5.223-6.485,8.75-.806,1.09-.475.641c.248.037.495.071.742.1a.011.011,0,0,0,.008,0q1.292.173,2.58.311c.241.029.483.055.724.079.151.016.3.03.453.044.364.037.728.069,1.09.1.154.014.305.029.459.04l.214.019c.241.02.483.039.724.054l.138.01c.53.041,1.062.073,1.589.1.241.014.483.026.724.036.188.012.376.02.564.029.036,0,.071,0,.107,0,.313.014.627.028.938.036.242.008.483.016.724.02q.409.015.819.02c.241.006.483.008.724.012s.51,0,.764,0,.483,0,.724,0c.133,0,.265,0,.4,0,.147,0,.293,0,.438,0,.1,0,.19,0,.286,0s.188,0,.283,0c.134,0,.267,0,.4-.008.035,0,.067,0,.1,0,.069,0,.136,0,.2,0,.1,0,.192,0,.289-.008q2.812-.076,5.579-.307h0q3.188-.261,6.308-.726,3.376-.5,6.669-1.227l.111-.024a.11.11,0,0,1-.008.028l2.065-.507q.431-.1.859-.212,4.068-1.031,7.979-2.394.656-.228,1.3-.463l.323-.12q1.216-.443,2.412-.922c.217-.085.433-.172.649-.259v0c.045-.016.089-.034.131-.05v0c.255-.1.508-.208.758-.313.19-.079.378-.158.566-.239.222-.093.443-.188.663-.285.142-.061.284-.123.425-.186l0,0c.247-.109.494-.218.74-.33l0,0q3.631-1.632,7.083-3.549c.243-.133.485-.269.726-.406l0,0,12.672-17.1Z" transform="translate(-1134.577 -508.089)" fill="#a8d29f"></path><path id="Trazado_7258" data-name="Trazado 7258" d="M1288.449,724.39V725.4l.738-1,.01-.014v0Zm-1.387,1.335a5.56,5.56,0,0,0-.752.37l-1.618,2.182-1.24,1.67,0,2.2,1.468-1.978,3.526-4.76a4.181,4.181,0,0,0-1.383.319m-5.975,7.415-.184.249-.705.953-3.187,4.3,0,2.2,2.252-3.039,1.8-2.432.944-1.274.7-.948h0v0Zm26.944-36.354-7.583,10.232-.067.091-.459.619-.591.795-.307.408v.006l-1.406,1.9-.584.692v.095l-.382.517-.514.692-2.093,2.823v0l-.044.059-.105.142v0l-.665.9v.1l-1.99,2.588-.77,1.039-.127.172-2.135,2.882-.637.859-.01.014-1.252,1.69-1.618,2.182-1.24,1.67-.9,1.211-1.47,1.982-.184.249-.705.953-3.187,4.3-.894,1.208-1.514,2.042-1.753,2.366c.154.014.306.029.459.04l.214.018c.241.02.483.038.724.054l.138.01,1.842-2.487h0l.781-1.056,2.252-3.039,1.8-2.432.944-1.274.7-.948h0v0l.738-1,1.468-1.978,3.526-4.76,0,0,.738-1,.01-.014v0l1.147-1.45v-.095l.9-1.209.714-.965,1.276-1.72.9-1.209,1.011-1.363.386-.521.15-.2v0l.465-.629.9-1.209.946-1.278.949-1.28.095-.124v0l.9-1.209.688-.928.321-.427,0-.008.825-1.114.071-.1.18-.243,3.456-4.663a4.769,4.769,0,0,1,6.673-.993l17.655,13.085a5.251,5.251,0,0,1,1.092,7.348l-10.652,14.373-.627.847c.19-.079.378-.158.566-.239q.333-.14.663-.285c.142-.061.283-.123.425-.186l0,0c.246-.109.493-.218.74-.33l0,0,13.837-18.668Zm-26.944,36.354-.184.249-.705.953-3.187,4.3,0,2.2,2.252-3.039,1.8-2.432.944-1.274.7-.948h0v0Zm5.975-7.415a5.56,5.56,0,0,0-.752.37l-1.618,2.182-1.24,1.67,0,2.2,1.468-1.978,3.526-4.76a4.181,4.181,0,0,0-1.383.319m1.387-1.335V725.4l.738-1,.01-.014v0Z" transform="translate(-1152.507 -532.524)" fill="#82b378"></path><path id="Trazado_7259" data-name="Trazado 7259" d="M1338.344,858.914a.132.132,0,0,0,.008-.028l-.111.024q-3.291.725-6.669,1.227-3.121.461-6.308.726h0q-2.766.234-5.579.307c-.1,0-.192.006-.289.008-.068,0-.135,0-.2,0-.032,0-.065,0-.1,0-.018-.271-.024-.542-.02-.813a10.514,10.514,0,0,1,.194-1.911,10.717,10.717,0,0,1,1.923-4.368l.022-.029a10.84,10.84,0,0,1,1.591-1.713,10.451,10.451,0,0,1,.894-.693,10.679,10.679,0,0,1,2.74-1.371q.443-.149.9-.255a10.544,10.544,0,0,1,2.133-.291c.3-.012.6-.01.9,0a10.75,10.75,0,0,1,1.99.281q.452.106.894.255a10.351,10.351,0,0,1,1.011.394c.3.135.6.287.894.453a10.418,10.418,0,0,1,.942.6q.085.057.17.121.357.264.685.552v0a.292.292,0,0,1,.04.035c.17.15.332.3.489.459a12.071,12.071,0,0,1,.9,1.007v.012q.182.231.346.473v.014a10.338,10.338,0,0,1,.894,1.535v.012c.117.25.223.505.319.762v0a10.7,10.7,0,0,1,.481,1.688Z" transform="translate(-1187.73 -649.088)" fill="#82b378"></path><g id="Grupo_1502" data-name="Grupo 1502" transform="translate(114.745 174.78)" opacity="0.5"><g id="Grupo_1501" data-name="Grupo 1501"><g id="Grupo_1500" data-name="Grupo 1500" clip-path="url(#clip-path-4)"><path id="Trazado_7260" data-name="Trazado 7260" d="M1276.077,741.21v0l-.9,1.124v.083l-.839,1.132-1.082,1.462h0l-.817,1.1v0l-.9,1.207v0l-1.5,2.02v0h0l-.148.2-.509.687v0l-1.179,1.589-1.563,2.026v.083l-.811,1.094-.085.113v0l-1.128,1.521-1.05,1.418-.01.014h0l-2.6,3.51v0l-3.872,5.223-6.485,8.749-.807,1.09-.475.641c.249.037.5.071.742.1,0,0,.006,0,.008,0,.861.115,1.723.22,2.58.311.241.028.484.055.724.079.152.016.3.03.453.044.364.037.728.069,1.09.1.154.014.305.029.459.04l.215.018c.24.02.483.038.724.055l.137.01c.53.041,1.062.073,1.589.1.24.014.483.026.724.036.188.012.376.02.564.029.036,0,.071,0,.107,0q.279-1.316.641-2.659c.364-1.355.784-2.724,1.251-4.095.358-1.056.744-2.111,1.151-3.163q.24-.624.491-1.246c.033-.083.067-.166.1-.249h0c.5-1.225,1.017-2.44,1.553-3.64v-.081c.3-.657.594-1.229.9-1.877q.749-1.6,1.516-3.14l.006-.015c.692-1.391,1.387-2.738,2.068-4.028.091-.17.18-.277.271-.427v-.081c.3-.569.6-1.126.9-1.668q.658-1.213,1.282-2.331c.039-.067.075-.136.113-.2.261-.469.516-.845.764-1.284v-.081c.6-1.072,1.159-2.052,1.652-2.926q.446-.792.817-1.458c.1-.17.186-.334.271-.492.394-.72.7-1.3.9-1.733.064-.142.117-.267.156-.374Z" transform="translate(-1249.321 -741.002)" fill="#82b378"></path></g></g></g><path id="Trazado_7261" data-name="Trazado 7261" d="M1165.536,851.418l0,4.944c0,.05,0,.1-.006.148v0a1.866,1.866,0,0,1-.321.914,1.9,1.9,0,0,1-.894.712,1.657,1.657,0,0,1-.263.081l-.085.018a1.689,1.689,0,0,1-.168.022,1.569,1.569,0,0,1-.17.008l-.558,0h-2.329l-1.9,0h-.894l-1.99,0h-.9l-2.133,0h-.9l-2.738,0h-.894l-3.532,0-1.143,0h-.893l-3.994,0h-1.895l-1.512,0-6.068,0h-1.446l-1.045,0h-.425l-2.465,0-3.623,0h-1.759v0h0q-1.516-.328-3.037-.689c-.241-.059-.481-.115-.724-.176q-1.01-.243-2.024-.5c-.3-.075-.6-.151-.894-.23q-.767-.2-1.535-.406-.831-.224-1.662-.457l-.724-.206q-2.06-.588-4.117-1.231h0c-.055-.016-.1-.032-.16-.05q-.622-.191-1.24-.394c-.242-.075-.483-.154-.724-.233-3.868-1.26-7.718-2.661-11.521-4.193h1.1l20.59.014h.9l5.541,0h1.241v0h2.665v0h3.377l0,0h2.9l0,0h.271l4.5,0h1.045l.9,0h.595l4.489,0,1.494,0h1.711l.738,0,4.127,0h.865l.9,0,1.87,0h3.7l2.738,0h.1l.793,0h2.135l.9,0h1.239a.007.007,0,0,1,0,0h.081a1.792,1.792,0,0,1,.253.03,1.733,1.733,0,0,1,.348.1,1.921,1.921,0,0,1,.894.714,1.889,1.889,0,0,1,.326,1.064" transform="translate(-1013.329 -648.882)" fill="#ffb93e"></path><path id="Trazado_7262" data-name="Trazado 7262" d="M1126.864,858.241h-.425l-2.465,0-3.624,0h-.894l-.865,0h0q-1.516-.328-3.037-.69c-.241-.059-.481-.115-.724-.176q-1.01-.243-2.024-.5c-.3-.075-.6-.152-.894-.231q-.768-.2-1.535-.406-.831-.224-1.662-.457l-.724-.206q-2.059-.589-4.117-1.232h0c-.055-.016-.105-.032-.16-.05q-.622-.191-1.24-.394c-.243-.075-.483-.153-.724-.233-3.868-1.259-7.718-2.661-11.522-4.193h1.1l20.59.014h.9l5.54,0h1.217l.024,0h2.1a17.879,17.879,0,0,0,1.514,4.194,14.369,14.369,0,0,0,3.092,4.074c.083.077.17.152.257.227.016.016.035.03.053.046.085.073.172.146.259.216" transform="translate(-1013.328 -648.882)" fill="#ffa412"></path><rect id="Rect&#xE1;ngulo_4433" data-name="Rect&#xE1;ngulo 4433" width="0.895" height="8.754" transform="translate(141.729 200.625)" fill="#ffa412"></rect><rect id="Rect&#xE1;ngulo_4434" data-name="Rect&#xE1;ngulo 4434" width="0.895" height="8.754" transform="translate(138.7 200.623)" fill="#ffa412"></rect><rect id="Rect&#xE1;ngulo_4435" data-name="Rect&#xE1;ngulo 4435" width="8.754" height="0.895" transform="translate(135.062 209.374) rotate(-89.939)" fill="#ffa412"></rect><rect id="Rect&#xE1;ngulo_4436" data-name="Rect&#xE1;ngulo 4436" width="0.895" height="8.754" transform="translate(129.498 200.617)" fill="#ffa412"></rect><rect id="Rect&#xE1;ngulo_4437" data-name="Rect&#xE1;ngulo 4437" width="0.895" height="8.754" transform="translate(123.61 200.613)" fill="#ffa412"></rect><rect id="Rect&#xE1;ngulo_4438" data-name="Rect&#xE1;ngulo 4438" width="0.895" height="8.754" transform="translate(114.583 200.607)" fill="#ffa412"></rect><rect id="Rect&#xE1;ngulo_4439" data-name="Rect&#xE1;ngulo 4439" width="0.895" height="8.754" transform="translate(106.131 200.601)" fill="#ffa412"></rect><path id="Trazado_7263" data-name="Trazado 7263" d="M1182.28,849.521l-.006,7.389c-.3-.075-.6-.152-.894-.231l0-7.158Z" transform="translate(-1082.797 -648.926)" fill="#ffa412"></path><rect id="Rect&#xE1;ngulo_4440" data-name="Rect&#xE1;ngulo 4440" width="0.895" height="8.754" transform="translate(144.613 200.627)" fill="#ffa412"></rect><rect id="Rect&#xE1;ngulo_4441" data-name="Rect&#xE1;ngulo 4441" width="0.895" height="8.754" transform="translate(146.518 200.628)" fill="#ffa412"></rect><rect id="Rect&#xE1;ngulo_4442" data-name="Rect&#xE1;ngulo 4442" width="8.754" height="0.895" transform="translate(148.352 209.383) rotate(-89.939)" fill="#ffa412"></rect><path id="Trazado_7264" data-name="Trazado 7264" d="M1397.322,849.7l-.006,8.692a1.853,1.853,0,0,1-.336.03h-.559l.006-8.754h.559a1.844,1.844,0,0,1,.336.031" transform="translate(-1246.683 -649.038)" fill="#ffa412"></path><path id="Trazado_7265" data-name="Trazado 7265" d="M1402.549,850.926l-.005,7.071a1.919,1.919,0,0,1-.894.712l.006-8.5a1.919,1.919,0,0,1,.893.714" transform="translate(-1250.668 -649.452)" fill="#ffa412"></path><path id="Trazado_7266" data-name="Trazado 7266" d="M1169.392,814.622l0,4.943a1.887,1.887,0,0,1-.327,1.064,1.917,1.917,0,0,1-.895.712,1.759,1.759,0,0,1-.349.1,1.868,1.868,0,0,1-.336.03l-78.743-.054a1.912,1.912,0,0,1-1.9-1.808c0-.033,0-.065,0-.1l0-4.943c0-.033,0-.065,0-.1a1.914,1.914,0,0,1,1.679-1.793,1.771,1.771,0,0,1,.226-.014l78.743.054a1.863,1.863,0,0,1,.336.031,1.787,1.787,0,0,1,.349.1,1.918,1.918,0,0,1,.894.714,1.888,1.888,0,0,1,.326,1.064" transform="translate(-1010.744 -620.835)" fill="#ffb93e"></path><path id="Trazado_7267" data-name="Trazado 7267" d="M1130.721,821.445l-42.186-.029a1.806,1.806,0,0,1-1.7-1.808c0-.033,0-.065,0-.1l0-4.943c0-.033,0-.065,0-.1a1.837,1.837,0,0,1,1.5-1.793,1.429,1.429,0,0,1,.2-.014l37,.025,0,.014a15.68,15.68,0,0,0,5.172,8.744" transform="translate(-1010.744 -620.835)" fill="#ffa412"></path><rect id="Rect&#xE1;ngulo_4443" data-name="Rect&#xE1;ngulo 4443" width="0.895" height="8.754" transform="translate(148.17 191.876)" fill="#ffa412"></rect><rect id="Rect&#xE1;ngulo_4444" data-name="Rect&#xE1;ngulo 4444" width="0.895" height="8.754" transform="translate(145.141 191.873)" fill="#ffa412"></rect><rect id="Rect&#xE1;ngulo_4445" data-name="Rect&#xE1;ngulo 4445" width="0.895" height="8.754" transform="translate(141.508 191.871)" fill="#ffa412"></rect><rect id="Rect&#xE1;ngulo_4446" data-name="Rect&#xE1;ngulo 4446" width="0.895" height="8.754" transform="translate(135.94 191.867)" fill="#ffa412"></rect><rect id="Rect&#xE1;ngulo_4447" data-name="Rect&#xE1;ngulo 4447" width="0.895" height="8.754" transform="translate(130.051 191.863)" fill="#ffa412"></rect><rect id="Rect&#xE1;ngulo_4448" data-name="Rect&#xE1;ngulo 4448" width="0.895" height="8.754" transform="translate(121.024 191.857)" fill="#ffa412"></rect><rect id="Rect&#xE1;ngulo_4449" data-name="Rect&#xE1;ngulo 4449" width="0.895" height="8.754" transform="translate(112.572 191.851)" fill="#ffa412"></rect><rect id="Rect&#xE1;ngulo_4450" data-name="Rect&#xE1;ngulo 4450" width="0.895" height="8.754" transform="translate(105.025 191.846)" fill="#ffa412"></rect><rect id="Rect&#xE1;ngulo_4451" data-name="Rect&#xE1;ngulo 4451" width="0.895" height="8.754" transform="translate(151.054 191.878)" fill="#ffa412"></rect><rect id="Rect&#xE1;ngulo_4452" data-name="Rect&#xE1;ngulo 4452" width="0.895" height="8.754" transform="translate(152.959 191.879)" fill="#ffa412"></rect><rect id="Rect&#xE1;ngulo_4453" data-name="Rect&#xE1;ngulo 4453" width="0.895" height="8.754" transform="translate(154.798 191.88)" fill="#ffa412"></rect><path id="Trazado_7268" data-name="Trazado 7268" d="M1424.4,812.918l-.006,8.693a1.849,1.849,0,0,1-.336.03h-.559l.006-8.754h.56a1.862,1.862,0,0,1,.336.031" transform="translate(-1267.318 -621.007)" fill="#ffa412"></path><path id="Trazado_7269" data-name="Trazado 7269" d="M1429.625,814.146l0,7.071a1.921,1.921,0,0,1-.895.712l.006-8.5a1.918,1.918,0,0,1,.893.714" transform="translate(-1271.303 -621.422)" fill="#ffa412"></path><path id="Trazado_7270" data-name="Trazado 7270" d="M1125.96,777.852l0,4.944a1.887,1.887,0,0,1-.327,1.064,1.917,1.917,0,0,1-.895.712,1.79,1.79,0,0,1-.349.1c-.037.006-.074.013-.111.017s-.059.006-.089.008l-.044,0-.092,0-78.743-.054a1.912,1.912,0,0,1-1.9-1.809c0-.033,0-.065,0-.1l0-4.944c0-.033,0-.065,0-.1a1.912,1.912,0,0,1,1.9-1.806l78.742.054c.034,0,.068,0,.1,0a1.9,1.9,0,0,1,.235.028,1.786,1.786,0,0,1,.349.1,1.7,1.7,0,0,1,.165.074c.034.017.066.034.1.053a.023.023,0,0,1,.011.006c.033.019.064.039.1.06a.066.066,0,0,1,.016.011.964.964,0,0,1,.086.062,1.648,1.648,0,0,1,.189.166c.019.018.037.037.054.056l.01.011a.466.466,0,0,1,.033.036l.006.007c.019.022.038.045.056.07s.052.067.076.1a1.887,1.887,0,0,1,.326,1.064" transform="translate(-977.644 -592.812)" fill="#ffb93e"></path><path id="Trazado_7271" data-name="Trazado 7271" d="M1087.289,784.674l-42.185-.029a1.807,1.807,0,0,1-1.7-1.809c0-.032,0-.065,0-.1l0-4.944c0-.033,0-.065,0-.1a1.806,1.806,0,0,1,1.7-1.806l37,.025c.015.066.03.134.048.2a15.609,15.609,0,0,0,5.11,8.542l.016.014" transform="translate(-977.644 -592.811)" fill="#ffa412"></path><rect id="Rect&#xE1;ngulo_4454" data-name="Rect&#xE1;ngulo 4454" width="0.895" height="8.754" transform="translate(137.838 183.129)" fill="#ffa412"></rect><rect id="Rect&#xE1;ngulo_4455" data-name="Rect&#xE1;ngulo 4455" width="0.895" height="8.754" transform="translate(134.809 183.126)" fill="#ffa412"></rect><rect id="Rect&#xE1;ngulo_4456" data-name="Rect&#xE1;ngulo 4456" width="0.895" height="8.754" transform="translate(131.176 183.124)" fill="#ffa412"></rect><rect id="Rect&#xE1;ngulo_4457" data-name="Rect&#xE1;ngulo 4457" width="0.895" height="8.754" transform="translate(125.607 183.12)" fill="#ffa412"></rect><rect id="Rect&#xE1;ngulo_4458" data-name="Rect&#xE1;ngulo 4458" width="0.895" height="8.754" transform="translate(119.719 183.116)" fill="#ffa412"></rect><rect id="Rect&#xE1;ngulo_4459" data-name="Rect&#xE1;ngulo 4459" width="0.895" height="8.754" transform="translate(110.692 183.11)" fill="#ffa412"></rect><rect id="Rect&#xE1;ngulo_4460" data-name="Rect&#xE1;ngulo 4460" width="0.895" height="8.754" transform="translate(102.24 183.104)" fill="#ffa412"></rect><rect id="Rect&#xE1;ngulo_4461" data-name="Rect&#xE1;ngulo 4461" width="8.754" height="0.895" transform="translate(94.688 191.852) rotate(-89.939)" fill="#ffa412"></rect><rect id="Rect&#xE1;ngulo_4462" data-name="Rect&#xE1;ngulo 4462" width="0.895" height="8.754" transform="translate(140.722 183.13)" fill="#ffa412"></rect><rect id="Rect&#xE1;ngulo_4463" data-name="Rect&#xE1;ngulo 4463" width="0.895" height="8.754" transform="translate(142.627 183.132)" fill="#ffa412"></rect><rect id="Rect&#xE1;ngulo_4464" data-name="Rect&#xE1;ngulo 4464" width="0.895" height="8.754" transform="translate(144.466 183.133)" fill="#ffa412"></rect><path id="Trazado_7272" data-name="Trazado 7272" d="M1380.965,776.148l-.006,8.693a1.89,1.89,0,0,1-.336.03h-.56l.006-8.754h.559a1.841,1.841,0,0,1,.336.031" transform="translate(-1234.217 -592.984)" fill="#ffa412"></path><path id="Trazado_7273" data-name="Trazado 7273" d="M1386.192,777.375l0,7.071a1.917,1.917,0,0,1-.894.712l.006-8.5a1.917,1.917,0,0,1,.894.714" transform="translate(-1238.202 -593.398)" fill="#ffa412"></path><path id="Trazado_7274" data-name="Trazado 7274" d="M1150.321,741.921l0,4.944a1.886,1.886,0,0,1-.327,1.064,1.918,1.918,0,0,1-.894.712,1.813,1.813,0,0,1-.349.1,1.883,1.883,0,0,1-.336.03l-78.743-.054a1.879,1.879,0,0,1-.851-.2,1.912,1.912,0,0,1-1.046-1.528c0-.025,0-.052-.005-.078s0-.065,0-.1l0-4.944c0-.033,0-.065,0-.1a1.912,1.912,0,0,1,1.679-1.792,1.711,1.711,0,0,1,.225-.013l78.743.054a1.863,1.863,0,0,1,.336.031,1.8,1.8,0,0,1,.349.1,1.92,1.92,0,0,1,.894.714,1.888,1.888,0,0,1,.326,1.064" transform="translate(-996.21 -565.429)" fill="#ffb93e"></path><path id="Trazado_7275" data-name="Trazado 7275" d="M1111.65,748.743l-42.185-.029a1.534,1.534,0,0,1-.759-.2,1.923,1.923,0,0,1-.933-1.528c0-.026,0-.052-.006-.078s0-.065,0-.1l0-4.944c0-.033,0-.065,0-.1a1.838,1.838,0,0,1,1.5-1.792,1.389,1.389,0,0,1,.2-.014l37,.025,0,.014a15.771,15.771,0,0,0,4.929,8.541c.079.068.16.136.242.2" transform="translate(-996.21 -565.428)" fill="#ffa412"></path><rect id="Rect&#xE1;ngulo_4465" data-name="Rect&#xE1;ngulo 4465" width="0.895" height="8.754" transform="translate(143.633 174.581)" fill="#ffa412"></rect><rect id="Rect&#xE1;ngulo_4466" data-name="Rect&#xE1;ngulo 4466" width="0.895" height="8.754" transform="translate(140.603 174.579)" fill="#ffa412"></rect><rect id="Rect&#xE1;ngulo_4467" data-name="Rect&#xE1;ngulo 4467" width="0.895" height="8.754" transform="translate(136.971 174.576)" fill="#ffa412"></rect><rect id="Rect&#xE1;ngulo_4468" data-name="Rect&#xE1;ngulo 4468" width="0.895" height="8.754" transform="translate(131.402 174.572)" fill="#ffa412"></rect><rect id="Rect&#xE1;ngulo_4469" data-name="Rect&#xE1;ngulo 4469" width="0.895" height="8.754" transform="translate(125.514 174.568)" fill="#ffa412"></rect><rect id="Rect&#xE1;ngulo_4470" data-name="Rect&#xE1;ngulo 4470" width="0.895" height="8.754" transform="translate(116.487 174.562)" fill="#ffa412"></rect><rect id="Rect&#xE1;ngulo_4471" data-name="Rect&#xE1;ngulo 4471" width="0.895" height="8.754" transform="translate(108.035 174.556)" fill="#ffa412"></rect><rect id="Rect&#xE1;ngulo_4472" data-name="Rect&#xE1;ngulo 4472" width="0.895" height="8.754" transform="translate(100.488 174.551)" fill="#ffa412"></rect><rect id="Rect&#xE1;ngulo_4473" data-name="Rect&#xE1;ngulo 4473" width="0.895" height="8.754" transform="translate(146.517 174.583)" fill="#ffa412"></rect><rect id="Rect&#xE1;ngulo_4474" data-name="Rect&#xE1;ngulo 4474" width="0.895" height="8.754" transform="translate(148.422 174.584)" fill="#ffa412"></rect><rect id="Rect&#xE1;ngulo_4475" data-name="Rect&#xE1;ngulo 4475" width="0.895" height="8.754" transform="translate(150.261 174.585)" fill="#ffa412"></rect><path id="Trazado_7276" data-name="Trazado 7276" d="M1405.326,740.215l-.006,8.693a1.84,1.84,0,0,1-.336.03h-.559l.006-8.754h.559a1.893,1.893,0,0,1,.336.031" transform="translate(-1252.783 -565.599)" fill="#ffa412"></path><path id="Trazado_7277" data-name="Trazado 7277" d="M1410.553,741.441l-.005,7.071a1.918,1.918,0,0,1-.894.712l.006-8.5a1.917,1.917,0,0,1,.894.713" transform="translate(-1256.768 -566.013)" fill="#ffa412"></path><path id="Trazado_7278" data-name="Trazado 7278" d="M1126.01,705.163l0,4.943a1.887,1.887,0,0,1-.327,1.064,1.919,1.919,0,0,1-.894.712,1.77,1.77,0,0,1-.349.1c-.037.006-.074.013-.111.017l-.062.006-.062,0c-.034,0-.068,0-.1,0l-78.743-.054a1.912,1.912,0,0,1-1.9-1.809c0-.033,0-.065,0-.1l0-4.944c0-.033,0-.065,0-.1a1.911,1.911,0,0,1,1.9-1.806l78.742.054a1.842,1.842,0,0,1,.336.031,1.787,1.787,0,0,1,.349.1,1.919,1.919,0,0,1,.894.714,1.889,1.889,0,0,1,.326,1.064" transform="translate(-977.682 -537.415)" fill="#ffb93e"></path><path id="Trazado_7279" data-name="Trazado 7279" d="M1087.339,711.986l-42.185-.029a1.806,1.806,0,0,1-1.7-1.808c0-.033,0-.065,0-.1l0-4.944c0-.033,0-.065,0-.1a1.806,1.806,0,0,1,1.7-1.806l37,.025a15.686,15.686,0,0,0,5.158,8.744l.017.014" transform="translate(-977.682 -537.415)" fill="#ffa412"></path><rect id="Rect&#xE1;ngulo_4476" data-name="Rect&#xE1;ngulo 4476" width="8.754" height="0.895" transform="translate(137.845 174.59) rotate(-89.939)" fill="#ffa412"></rect><rect id="Rect&#xE1;ngulo_4477" data-name="Rect&#xE1;ngulo 4477" width="0.895" height="8.754" transform="translate(134.82 165.834)" fill="#ffa412"></rect><rect id="Rect&#xE1;ngulo_4478" data-name="Rect&#xE1;ngulo 4478" width="0.895" height="8.754" transform="translate(131.188 165.832)" fill="#ffa412"></rect><rect id="Rect&#xE1;ngulo_4479" data-name="Rect&#xE1;ngulo 4479" width="0.895" height="8.754" transform="translate(125.619 165.828)" fill="#ffa412"></rect><rect id="Rect&#xE1;ngulo_4480" data-name="Rect&#xE1;ngulo 4480" width="0.895" height="8.754" transform="translate(119.731 165.824)" fill="#ffa412"></rect><rect id="Rect&#xE1;ngulo_4481" data-name="Rect&#xE1;ngulo 4481" width="0.895" height="8.754" transform="translate(110.704 165.818)" fill="#ffa412"></rect><rect id="Rect&#xE1;ngulo_4482" data-name="Rect&#xE1;ngulo 4482" width="0.895" height="8.754" transform="translate(102.252 165.812)" fill="#ffa412"></rect><rect id="Rect&#xE1;ngulo_4483" data-name="Rect&#xE1;ngulo 4483" width="0.895" height="8.754" transform="translate(94.705 165.807)" fill="#ffa412"></rect><rect id="Rect&#xE1;ngulo_4484" data-name="Rect&#xE1;ngulo 4484" width="0.895" height="8.754" transform="translate(140.733 165.839)" fill="#ffa412"></rect><rect id="Rect&#xE1;ngulo_4485" data-name="Rect&#xE1;ngulo 4485" width="0.895" height="8.754" transform="translate(142.638 165.84)" fill="#ffa412"></rect><rect id="Rect&#xE1;ngulo_4486" data-name="Rect&#xE1;ngulo 4486" width="0.895" height="8.754" transform="translate(144.478 165.841)" fill="#ffa412"></rect><path id="Trazado_7280" data-name="Trazado 7280" d="M1381.016,703.458l-.006,8.693a1.869,1.869,0,0,1-.336.03h-.559l.006-8.754h.559a1.846,1.846,0,0,1,.336.031" transform="translate(-1234.256 -537.586)" fill="#ffa412"></path><path id="Trazado_7281" data-name="Trazado 7281" d="M1386.242,704.685l0,7.071a1.919,1.919,0,0,1-.895.712l.006-8.5a1.916,1.916,0,0,1,.894.713" transform="translate(-1238.24 -538.001)" fill="#ffa412"></path><path id="Trazado_7282" data-name="Trazado 7282" d="M1249.677,780.451q-2.681.852-5.433,1.549c-.285.073-.572.143-.859.212q-1.022.252-2.057.479l-.111.025q-3.291.725-6.669,1.227-3.12.461-6.308.726h0q-2.766.233-5.579.307c-.1,0-.192.006-.289.008-.068,0-.135,0-.2,0-.032,0-.064,0-.1,0-.134,0-.267.006-.4.008-.095,0-.188,0-.283,0s-.191,0-.286,0c-.145,0-.291,0-.438,0-.132,0-.263,0-.4,0-.241,0-.481,0-.724,0s-.51,0-.764,0-.483-.006-.724-.012q-.409-.005-.819-.02c-.24,0-.481-.012-.724-.02-.311-.009-.625-.022-.938-.037-.036,0-.071,0-.107,0-.188-.008-.376-.016-.564-.029-.24-.01-.483-.022-.724-.036-.528-.03-1.06-.063-1.589-.1l-.137-.01c-.241-.016-.483-.034-.724-.055l-.214-.018c-.154-.012-.305-.026-.459-.04-.362-.03-.726-.063-1.09-.1-.15-.014-.3-.028-.453-.044-.24-.024-.483-.05-.724-.079-.858-.091-1.719-.2-2.58-.311,0,0-.006,0-.008,0-.247-.032-.493-.066-.742-.1l-.249-.036c-.067-.006-.136-.016-.2-.028-.17-.023-.342-.049-.511-.075-.048-.006-.1-.014-.142-.022l-.028,0,0,0a.142.142,0,0,1-.042-.006c-.643-.095-1.286-.2-1.931-.311-.224-.039-.449-.077-.676-.117s-.449-.081-.675-.123c-.253-.047-.505-.1-.758-.144s-.484-.091-.724-.138q-1.768-.346-3.539-.73h0v0h0q-1.516-.328-3.038-.69c-.24-.059-.481-.115-.724-.176l-.348-.085a27.96,27.96,0,0,1,14.373-26.891c.358-.2.72-.384,1.082-.564q.518-.315,1.056-.613a27.958,27.958,0,0,1,41.308,27.223" transform="translate(-1090.706 -572.894)" fill="#e2810e"></path><path id="Trazado_7283" data-name="Trazado 7283" d="M1289.868,749.251a27.81,27.81,0,0,0-10.25-10.579q-.164-.1-.328-.19-.443-.255-.894-.49c-.115-.063-.232-.123-.35-.18-.3-.152-.593-.3-.894-.435-.162-.075-.323-.15-.487-.22-.3-.132-.594-.257-.9-.376s-.627-.245-.944-.36l-.071-.024q-.409-.146-.825-.279c-.062-.02-.125-.04-.19-.059h-.081a1.2,1.2,0,0,0-.212-.091c-.184-.056-.37-.109-.556-.162l-.281-.077c-.117-.032-.232-.063-.35-.091q-.446-.115-.9-.212c-.162-.036-.324-.071-.487-.1-.3-.06-.6-.117-.9-.166s-.629-.1-.944-.143c-.293-.038-.586-.073-.882-.1a.041.041,0,0,0-.014,0c-.335-.034-.671-.061-1.009-.083q-.446-.027-.9-.043-.991-.03-1.988.008c-.3.012-.6.029-.9.051q-1.068.076-2.135.239c-.3.042-.6.093-.894.147a27.157,27.157,0,0,0-2.738.649c-.182.053-.364.107-.546.166h0c-.016,0-.031.01-.045.014l-.083.026a28.03,28.03,0,0,0-4.994,2.147l-.02.012c-.3.164-.589.332-.876.5-.052.03-.1.063-.156.1a27.8,27.8,0,0,0-6.76,5.745c-.058.067-.115.136-.17.2a27.935,27.935,0,0,0-4.881,8.535.038.038,0,0,0,0,.014l-.073.206a27.753,27.753,0,0,0-.9,3.171v.081a27,27,0,0,0-.651,5.28v0a27.674,27.674,0,0,0,1.045,8.264c.045.164.093.325.144.49q.24.788.53,1.571c.046.008.093.016.142.022.17.026.342.053.511.075.067.012.135.022.2.028l.249.036c.249.037.5.071.742.1,0,0,.006,0,.008,0q1.292.173,2.58.311c.241.028.483.055.724.079.151.016.3.03.453.044.364.037.728.069,1.09.1.154.014.305.029.459.04l.214.018c.241.02.483.039.724.055l.137.01c.53.041,1.062.073,1.589.1.241.014.483.026.724.036.188.012.376.02.564.029.036,0,.071,0,.107,0,.314.014.627.028.938.036.243.008.483.016.724.02.273.01.546.016.819.02.241.006.483.008.724.012s.51,0,.764,0,.483,0,.724,0c.133,0,.265,0,.4,0,.148,0,.293,0,.438,0,.1,0,.19,0,.286,0s.188,0,.283,0c.134,0,.267,0,.4-.008.034,0,.067,0,.1,0,.069,0,.136,0,.2,0,.1,0,.192,0,.289-.008q2.812-.076,5.579-.307h0q3.188-.261,6.308-.726,3.376-.5,6.669-1.227l.111-.025a.125.125,0,0,1-.008.028l2.064-.507c.287-.069.575-.14.859-.212q4.067-1.032,7.979-2.394.655-.228,1.3-.463c.107-.039.216-.079.324-.119q1.216-.443,2.412-.922c.217-.085.433-.172.649-.259v0l.132-.05v0c.255-.1.508-.208.758-.313.19-.079.379-.158.567-.239.022-.2.045-.4.061-.609a27.816,27.816,0,0,0-3.361-15.958" transform="translate(-1125.506 -561.476)" fill="#e2810e"></path><path id="Trazado_7284" data-name="Trazado 7284" d="M1280.885,754.2a27.813,27.813,0,0,0-8.116-9.182c-.107-.079-.216-.156-.328-.232q-.44-.309-.892-.6l-.35-.222c-.3-.182-.595-.36-.9-.532-.162-.093-.324-.184-.488-.271-.3-.164-.594-.319-.9-.471s-.627-.305-.945-.449c-.3-.136-.594-.265-.9-.388-.107-.045-.214-.089-.321-.132-.229-.091-.457-.178-.688-.263-.2-.073-.392-.142-.588-.211-.1-.034-.2-.069-.306-.1q-.983-.328-1.988-.579c-.3-.075-.6-.143-.9-.208q-.974-.212-1.963-.352c-.057-.01-.116-.018-.172-.024-.3-.042-.594-.077-.894-.107-.117-.014-.234-.024-.354-.034h-.087a.326.326,0,0,0-.067-.014h-.174c-.38-.04-.817-.067-1.183-.083-.3-.012-.6-.018-.9-.018q-1.065-.009-2.135.071c-.112.008-.223.016-.336.026h-.115l-.047.014h-.109a25.529,25.529,0,0,0-2.8.418c-.3.059-.6.123-.9.194a27.657,27.657,0,0,0-4.994,1.676c-.3.132-.6.271-.9.417-.052.024-.1.05-.156.077q-.558.273-1.106.576a27.94,27.94,0,0,0-6.729,5.166c-.048.051-.1.1-.144.152l-.048.05v0a27.849,27.849,0,0,0-5.468,8.533.115.115,0,0,0-.006.014,28.083,28.083,0,0,0-2.018,8.74,27.825,27.825,0,0,0,.807,8.753c.1.381.2.757.315,1.133.227.04.451.079.676.117q.967.167,1.931.311a.154.154,0,0,0,.042.006l0,0,.028,0c.047.008.093.016.141.022.17.027.342.053.512.075.067.012.135.022.2.028l.249.036c.249.037.5.071.742.1,0,0,.006,0,.008,0q1.292.172,2.58.311c.241.028.484.055.724.079.152.016.3.031.453.045.364.037.728.069,1.09.1.154.014.305.029.459.04l.214.018c.241.02.483.038.724.054l.137.01c.53.041,1.062.073,1.589.1.24.014.483.026.724.036.188.012.376.02.564.029.036,0,.071,0,.107,0,.313.014.627.028.938.036.243.008.483.016.724.02.273.01.546.016.819.02.241.006.484.008.724.012s.51,0,.764,0,.483,0,.724,0c.134,0,.265,0,.4,0,.147,0,.293,0,.439,0,.095,0,.19,0,.285,0s.188,0,.283,0c.134,0,.267,0,.4-.008.035,0,.067,0,.1,0,.069,0,.136,0,.2,0,.1,0,.192,0,.289-.008q2.812-.076,5.579-.307h0q3.188-.261,6.309-.726,3.376-.5,6.669-1.227l.111-.024a.158.158,0,0,1-.008.028l2.064-.507q.431-.1.86-.212,4.067-1.032,7.979-2.394.655-.228,1.3-.463l.323-.119q1.217-.443,2.412-.922a27.81,27.81,0,0,0-3.33-16.257" transform="translate(-1118.658 -565.247)" fill="#ffb93e"></path><path id="Trazado_7285" data-name="Trazado 7285" d="M1287.316,764.6a25.306,25.306,0,0,0-6.58-7.744q-.367-.288-.742-.56c-.115-.085-.233-.168-.35-.247-.293-.208-.593-.408-.894-.6-.161-.1-.323-.2-.487-.3q-.443-.27-.9-.52c-.311-.174-.627-.339-.944-.5-.3-.15-.594-.291-.9-.427q-.5-.228-1.009-.429c-.3-.121-.594-.235-.894-.342-.032-.012-.062-.024-.095-.034q-.649-.231-1.311-.425c-.194-.059-.388-.113-.582-.166-.3-.081-.594-.156-.9-.224q-1.059-.245-2.135-.4c-.3-.043-.594-.079-.894-.111-.089-.01-.18-.02-.271-.028-.188-.018-.378-.034-.566-.048h0q-.946-.073-1.9-.073c-.3,0-.6.006-.9.016a25.171,25.171,0,0,0-4.673.6c-.3.067-.6.139-.9.22a25.444,25.444,0,0,0-4.995,1.9q-.4.2-.8.421c-.032.018-.067.036-.1.057a25.41,25.41,0,0,0-3.878,2.647c-.083.065-.164.131-.245.2-.263.221-.52.449-.772.682-.307.281-.6.568-.9.865a25.112,25.112,0,0,0-4.863,6.986.023.023,0,0,0-.006.014.453.453,0,0,0-.03.065,25.369,25.369,0,0,0-1.353,3.585v.052a.311.311,0,0,0-.036.067,23.6,23.6,0,0,0-.864,4.145v.19c-.024.211-.044.423-.063.635q-.094,1.08-.093,2.158a25.084,25.084,0,0,0,.811,6.333c.022.089.047.176.071.263.144.536.307,1.065.487,1.593.17.027.341.053.511.075.067.012.136.022.2.028l.249.036c.249.037.5.071.742.1-.093-.246-.184-.5-.267-.744-.126-.36-.241-.724-.348-1.09s-.2-.639-.291-1.009v-.1a23.668,23.668,0,0,1-.548-7.651,24.227,24.227,0,0,1,.859-4.546q.273-.94.615-1.844v0a23.279,23.279,0,0,1,1.035-2.345.021.021,0,0,1,.006-.014,23.525,23.525,0,0,1,3.171-4.742c.287-.336.584-.663.9-.983a23.327,23.327,0,0,1,3.235-2.809h0c.095-.069.188-.138.285-.2h.02c.445-.314.884-.611,1.353-.892.273-.168.552-.327.833-.483.022-.012.042-.024.064-.034a23.679,23.679,0,0,1,4.992-2.04c.3-.085.6-.162.9-.235a23.684,23.684,0,0,1,4.675-.639q.443-.018.886-.018h.01c.271,0,.544,0,.815.014h0c.277.01.556.024.833.045.364.024.728.059,1.088.1q.449.051.892.121c.718.109,1.432.251,2.135.425.172.042.344.087.514.133.127.034.255.071.382.107.318.091.633.19.946.293q.525.176,1.042.374c.3.115.6.239.9.364q.51.222,1.009.465.452.222.9.461.479.258.942.538c.3.18.6.37.9.566.164.107.326.219.487.332.105.073.213.148.316.224h0a23.949,23.949,0,0,1,9.558,23.373q.655-.227,1.3-.463l.324-.119a25.288,25.288,0,0,0-2.936-15.691" transform="translate(-1127.107 -574.157)" fill="#ffa412"></path><path id="Trazado_7286" data-name="Trazado 7286" d="M1308.313,808.3a6.088,6.088,0,0,1-1.243-2.022l-4.586,1.86q-.006.406.02.813c.034,0,.067,0,.1,0,.069,0,.135,0,.2,0,.1,0,.192,0,.289-.008q2.812-.076,5.579-.307c-.123-.1-.243-.211-.362-.33m0,0a6.088,6.088,0,0,1-1.243-2.022l-4.586,1.86q-.006.406.02.813c.034,0,.067,0,.1,0,.069,0,.135,0,.2,0,.1,0,.192,0,.289-.008q2.812-.076,5.579-.307c-.123-.1-.243-.211-.362-.33m0,0a6.088,6.088,0,0,1-1.243-2.022l-4.586,1.86q-.006.406.02.813c.034,0,.067,0,.1,0,.069,0,.135,0,.2,0,.1,0,.192,0,.289-.008q2.812-.076,5.579-.307c-.123-.1-.243-.211-.362-.33m0,0a6.088,6.088,0,0,1-1.243-2.022l-4.586,1.86q-.006.406.02.813c.034,0,.067,0,.1,0,.069,0,.135,0,.2,0,.1,0,.192,0,.289-.008q2.812-.076,5.579-.307c-.123-.1-.243-.211-.362-.33m0,0a6.088,6.088,0,0,1-1.243-2.022l-4.586,1.86q-.006.406.02.813c.034,0,.067,0,.1,0,.069,0,.135,0,.2,0,.1,0,.192,0,.289-.008q2.812-.076,5.579-.307c-.123-.1-.243-.211-.362-.33m0,0a6.088,6.088,0,0,1-1.243-2.022l-4.586,1.86q-.006.406.02.813c.034,0,.067,0,.1,0,.069,0,.135,0,.2,0,.1,0,.192,0,.289-.008q2.812-.076,5.579-.307c-.123-.1-.243-.211-.362-.33m13.469-4.966a8.721,8.721,0,0,0-.421-1.316,10.177,10.177,0,0,0-.473-1.005,8.225,8.225,0,0,0-.489-.785.6.6,0,0,0-.041-.054v0a6.192,6.192,0,0,0-.855-.966l-.01-.01a7.693,7.693,0,0,0-.932-.728,8.181,8.181,0,0,0-.894-.5,7.72,7.72,0,0,0-.843-.344c-.055-.018-.111-.039-.168-.054-.089-.03-.178-.059-.269-.085l0,0h0c-.032-.01-.067-.018-.1-.026a13.007,13.007,0,0,0-2.738-.463c-.037,0-.075-.006-.113-.008-.257-.016-.516-.028-.783-.041q-1.541-.06-3.29-.014-.752.025-1.383.006c-.322-.008-.621-.026-.9-.051l-.049,0a5.815,5.815,0,0,1-1.636-.358,2.9,2.9,0,0,1-1.092-.74,3.914,3.914,0,0,1-.7-1.146c-.018-.047-.036-.093-.053-.139a4.277,4.277,0,0,1-.263-1.205,2.917,2.917,0,0,1,.2-1.264,3.1,3.1,0,0,1,.779-1.1,3.757,3.757,0,0,1,.675-.5,5.526,5.526,0,0,1,.752-.37,4.175,4.175,0,0,1,1.383-.32h0a3.308,3.308,0,0,1,.9.079,3.4,3.4,0,0,1,.771.271,5.19,5.19,0,0,1,2.309,2.892l1.591-.645.9-.364,2.738-1.11.469-.19c-.146-.358-.3-.7-.467-1.027v-.1c-.162-.3-.333-.522-.515-.8a.037.037,0,0,0-.01-.014c-.051-.081-.1-.16-.156-.236a9.075,9.075,0,0,0-.712-.916c-.077-.085-.15-.166-.233-.247v0a8.6,8.6,0,0,0-.894-.815,7.489,7.489,0,0,0-1.009-.677c-.127-.075-.259-.144-.39-.208-.166-.081-.336-.156-.505-.225a8.167,8.167,0,0,0-1.274-.4c-.235-.052-.471-.093-.714-.125-.186-.026-.374-.044-.564-.059-.069,0-.135-.008-.2-.01-.042,0-.085-.006-.127-.008a10.282,10.282,0,0,0-2.133.153q-.443.076-.9.194c-.026,0-.05.012-.077.018l-.192-.475-.906-2.23-.514-1.266-1.047.425-.9.362-1.211.492,1.209,2.982.085.208.3.728c-.129.067-.257.136-.38.206a11.826,11.826,0,0,0-1.127.7h0a10.718,10.718,0,0,0-1.385,1.151c-.089.089-.176.178-.259.267a.045.045,0,0,0-.014.014,8.636,8.636,0,0,0-1.555,2.261,7.151,7.151,0,0,0-.449,1.25v0a7.114,7.114,0,0,0-.223,1.622,7.7,7.7,0,0,0,.6,3.061c.077.186.156.368.239.542v0a8.358,8.358,0,0,0,.689,1.2c.069.1.139.2.214.293a5.992,5.992,0,0,0,.653.73l.079.073a7.1,7.1,0,0,0,.863.677,7.229,7.229,0,0,0,.894.516,7.484,7.484,0,0,0,.908.37,11.524,11.524,0,0,0,2.176.5q.589.082,1.219.115l.37.018c.291.012.59.022.894.026q1.3.025,2.738-.043l.081,0c.283-.016.556-.026.815-.03a13.214,13.214,0,0,1,1.407.047,6.281,6.281,0,0,1,.726.1,4.919,4.919,0,0,1,.9.257l.006,0a3.05,3.05,0,0,1,1.138.775,4.2,4.2,0,0,1,.766,1.266.816.816,0,0,0,.079.113v.1a3.438,3.438,0,0,1,.194,1.142,2.82,2.82,0,0,1-.048.522,2.882,2.882,0,0,1-.257.764,3.461,3.461,0,0,1-.659.9q3.376-.5,6.669-1.227l.111-.025q.058-.227.1-.461a7.255,7.255,0,0,0,.107-1.054,7.04,7.04,0,0,0-.19-1.8m-13.469,4.966a6.088,6.088,0,0,1-1.243-2.022l-4.586,1.86q-.006.406.02.813c.034,0,.067,0,.1,0,.069,0,.135,0,.2,0,.1,0,.192,0,.289-.008q2.812-.076,5.579-.307c-.123-.1-.243-.211-.362-.33m0,0a6.088,6.088,0,0,1-1.243-2.022l-4.586,1.86q-.006.406.02.813c.034,0,.067,0,.1,0,.069,0,.135,0,.2,0,.1,0,.192,0,.289-.008q2.812-.076,5.579-.307c-.123-.1-.243-.211-.362-.33m0,0a6.088,6.088,0,0,1-1.243-2.022l-4.586,1.86q-.006.406.02.813c.034,0,.067,0,.1,0,.069,0,.135,0,.2,0,.1,0,.192,0,.289-.008q2.812-.076,5.579-.307c-.123-.1-.243-.211-.362-.33m0,0a6.088,6.088,0,0,1-1.243-2.022l-4.586,1.86q-.006.406.02.813c.034,0,.067,0,.1,0,.069,0,.135,0,.2,0,.1,0,.192,0,.289-.008q2.812-.076,5.579-.307c-.123-.1-.243-.211-.362-.33m0,0a6.088,6.088,0,0,1-1.243-2.022l-4.586,1.86q-.006.406.02.813c.034,0,.067,0,.1,0,.069,0,.135,0,.2,0,.1,0,.192,0,.289-.008q2.812-.076,5.579-.307c-.123-.1-.243-.211-.362-.33m0,0a6.088,6.088,0,0,1-1.243-2.022l-4.586,1.86q-.006.406.02.813c.034,0,.067,0,.1,0,.069,0,.135,0,.2,0,.1,0,.192,0,.289-.008q2.812-.076,5.579-.307c-.123-.1-.243-.211-.362-.33m0,0a6.088,6.088,0,0,1-1.243-2.022l-4.586,1.86-1.11.449c.053.129.105.257.162.38.095,0,.19,0,.285,0s.188,0,.283,0c.134,0,.267,0,.4-.008.034,0,.067,0,.1,0,.069,0,.135,0,.2,0,.1,0,.192,0,.289-.008q2.812-.076,5.579-.307c-.123-.1-.243-.211-.362-.33" transform="translate(-1171.146 -596.851)" fill="#ffa412"></path></g></g></g></svg>