<svg xmlns="http://www.w3.org/2000/svg" xmlns:xlink="http://www.w3.org/1999/xlink" id="maritimo" width="439.61" height="272" viewBox="0 0 439.61 272"><defs><clipPath id="clip-path"><path id="Trazado_6213" data-name="Trazado 6213" d="M271.273,13.284C305.517,33.218,305.3,57.212,376.016,49.3s84.2,58.264,65.792,91.985c-26.115,47.844,72.43,39.987,10.306,134l-378.786-.133S9.315,186.932,43.455,127.915s84-17.358,88.156-59.995c.142-1.443.028-2.871.028-4.266,0-.332,0-.66.022-.987,1.277-24.487,17.255-40.312,38.34-49.416q1.022-.442,2.057-.861c15.6-6.321,33.748-9.107,50.73-9.107,19.627,0,37.694,3.719,48.484,10" transform="translate(-33.431 -3.284)" fill="none"></path></clipPath><clipPath id="clip-path-2"><rect id="Rect&#xE1;ngulo_3962" data-name="Rect&#xE1;ngulo 3962" width="613.441" height="270.254" fill="#ebf3fa"></rect></clipPath><clipPath id="clip-path-3"><rect id="Rect&#xE1;ngulo_3963" data-name="Rect&#xE1;ngulo 3963" width="363.375" height="177.526" fill="#9aa8f2"></rect></clipPath><clipPath id="clip-path-4"><rect id="Rect&#xE1;ngulo_3964" data-name="Rect&#xE1;ngulo 3964" width="301.643" height="184.228" fill="#9aa8f2"></rect></clipPath><clipPath id="clip-path-5"><rect id="Rect&#xE1;ngulo_3966" data-name="Rect&#xE1;ngulo 3966" width="79.15" height="23.462" fill="none"></rect></clipPath><clipPath id="clip-path-6"><rect id="Rect&#xE1;ngulo_3967" data-name="Rect&#xE1;ngulo 3967" width="25.398" height="7.529" fill="none"></rect></clipPath><clipPath id="clip-path-7"><rect id="Rect&#xE1;ngulo_3968" data-name="Rect&#xE1;ngulo 3968" width="46.593" height="13.811" fill="none"></rect></clipPath><clipPath id="clip-path-8"><rect id="Rect&#xE1;ngulo_3977" data-name="Rect&#xE1;ngulo 3977" width="65.328" height="17.671" fill="none"></rect></clipPath><clipPath id="clip-path-9"><rect id="Rect&#xE1;ngulo_3978" data-name="Rect&#xE1;ngulo 3978" width="49.9" height="29.919" fill="none"></rect></clipPath><clipPath id="clip-path-10"><rect id="Rect&#xE1;ngulo_3979" data-name="Rect&#xE1;ngulo 3979" width="37.967" height="32.308" fill="none"></rect></clipPath><clipPath id="clip-path-11"><rect id="Rect&#xE1;ngulo_3980" data-name="Rect&#xE1;ngulo 3980" width="27.164" height="29.919" fill="none"></rect></clipPath><clipPath id="clip-path-12"><rect id="Rect&#xE1;ngulo_3981" data-name="Rect&#xE1;ngulo 3981" width="21.571" height="32.308" fill="none"></rect></clipPath><clipPath id="clip-path-13"><rect id="Rect&#xE1;ngulo_3982" data-name="Rect&#xE1;ngulo 3982" width="193.141" height="26.538" fill="none"></rect></clipPath></defs><g id="Grupo_1328" data-name="Grupo 1328" clip-path="url(#clip-path)"><g id="Grupo_1294" data-name="Grupo 1294" transform="translate(-167.914 -0.581)" opacity="0.7"><g id="Grupo_1293" data-name="Grupo 1293"><g id="Grupo_1292" data-name="Grupo 1292" clip-path="url(#clip-path-2)"><rect id="Rect&#xE1;ngulo_3961" data-name="Rect&#xE1;ngulo 3961" width="613.441" height="270.254" transform="translate(0 0)" fill="#ebf3fa"></rect></g></g></g><g id="Grupo_1297" data-name="Grupo 1297" transform="translate(-167.914 56.009)" opacity="0.3" style="mix-blend-mode: multiply;isolation: isolate"><g id="Grupo_1296" data-name="Grupo 1296"><g id="Grupo_1295" data-name="Grupo 1295" clip-path="url(#clip-path-3)"><path id="Trazado_6191" data-name="Trazado 6191" d="M1412.985,497.284V445.559h17.655V407.4h16.985v16.989h14.055V385.246h23.014v35.8l6.884.23V385.179h8.032V369.8h4.819v-10.33h18.817V369.8h4.819v15.38h8.032V404.73l3.706.23,1.113-57.924H1565.7v30.814l8.72.23V329.92h2.983V319.756h26.16V329.92h2.983v64.9h5.507V374.585h4.589v-9.9h6.655V335.8h9.638v28.885h6.655v9.9h4.59v34.238h3.213l2.524-.034V369.121l67.925.649v89.324h5.737V447.387h20.653v22.5h5.966V461.62h13.08v16.757h13.08v18.907Z" transform="translate(-1412.985 -319.757)" fill="#9aa8f2"></path></g></g></g><g id="Grupo_1300" data-name="Grupo 1300" transform="translate(143.884 49.339)" opacity="0.3" style="mix-blend-mode: multiply;isolation: isolate"><g id="Grupo_1299" data-name="Grupo 1299"><g id="Grupo_1298" data-name="Grupo 1298" clip-path="url(#clip-path-4)"><path id="Trazado_6192" data-name="Trazado 6192" d="M13.084,447.394V282.073H26.169v8.264h5.968v64.15H52.8v11.707H70.315V338.788l27.678-.649v39.668l2.525.034h3.214V343.6h4.591v-9.9h6.657V304.821h9.641v28.885h6.657v9.9h4.591v20.237h5.509v-64.9h2.984V288.774h26.169v10.163h2.984V347.1l8.723-.23V316.054h24.792l1.113,57.924,3.707-.23V354.2h8.034v-15.38h4.821v-10.33h18.823v10.33h4.821V354.2h8.034v36.092l6.887-.23v-35.8h23.021V393.41h15.351V466.3H0V447.394Z" transform="translate(0 -282.072)" fill="#9aa8f2"></path></g></g></g><rect id="Rect&#xE1;ngulo_3965" data-name="Rect&#xE1;ngulo 3965" width="613.441" height="94.624" transform="translate(-167.915 208.577)" fill="#70afe6"></rect><g id="Grupo_1303" data-name="Grupo 1303" transform="translate(274.743 15.11)" opacity="0.3"><g id="Grupo_1302" data-name="Grupo 1302" transform="translate(0)"><g id="Grupo_1301" data-name="Grupo 1301" clip-path="url(#clip-path-5)"><path id="Trazado_6193" data-name="Trazado 6193" d="M517.768,112.126a9.77,9.77,0,0,1,11.977-7.255,14.381,14.381,0,0,1,17.292-7.639,17.715,17.715,0,0,1,31.82,3.1,12.152,12.152,0,0,1,18.06,10.619c0,.4-.021.791-.058,1.179Z" transform="translate(-517.768 -88.663)" fill="#fff"></path></g></g></g><g id="Grupo_1306" data-name="Grupo 1306" transform="translate(207.79 49.339)" opacity="0.5"><g id="Grupo_1305" data-name="Grupo 1305"><g id="Grupo_1304" data-name="Grupo 1304" clip-path="url(#clip-path-6)"><path id="Trazado_6194" data-name="Trazado 6194" d="M1199.8,289.6a3.135,3.135,0,0,1,3.843-2.328,4.615,4.615,0,0,1,5.549-2.451,5.685,5.685,0,0,1,10.211.993,3.9,3.9,0,0,1,5.8,3.408c0,.128-.006.254-.019.378Z" transform="translate(-1199.798 -282.072)" fill="#fff"></path></g></g></g><g id="Grupo_1309" data-name="Grupo 1309" transform="translate(389.453 56.429)" opacity="0.5"><g id="Grupo_1308" data-name="Grupo 1308"><g id="Grupo_1307" data-name="Grupo 1307" clip-path="url(#clip-path-7)"><path id="Trazado_6195" data-name="Trazado 6195" d="M100.16,335.944a5.751,5.751,0,0,0-7.05-4.271,8.466,8.466,0,0,0-10.179-4.5A10.428,10.428,0,0,0,64.2,329a7.154,7.154,0,0,0-10.632,6.251c0,.234.012.466.034.694Z" transform="translate(-53.567 -322.132)" fill="#fff"></path></g></g></g><rect id="Rect&#xE1;ngulo_3969" data-name="Rect&#xE1;ngulo 3969" width="1.48" height="15.077" transform="translate(261.103 119.626)" fill="#e25a44"></rect><rect id="Rect&#xE1;ngulo_3970" data-name="Rect&#xE1;ngulo 3970" width="1.48" height="15.077" transform="translate(250.005 119.626)" fill="#e25a44"></rect><rect id="Rect&#xE1;ngulo_3971" data-name="Rect&#xE1;ngulo 3971" width="1.48" height="15.077" transform="translate(238.907 119.626)" fill="#e25a44"></rect><rect id="Rect&#xE1;ngulo_3972" data-name="Rect&#xE1;ngulo 3972" width="1.48" height="15.077" transform="translate(227.809 119.626)" fill="#e25a44"></rect><rect id="Rect&#xE1;ngulo_3973" data-name="Rect&#xE1;ngulo 3973" width="1.48" height="15.077" transform="translate(216.711 119.626)" fill="#e25a44"></rect><rect id="Rect&#xE1;ngulo_3974" data-name="Rect&#xE1;ngulo 3974" width="1.48" height="15.077" transform="translate(205.613 119.626)" fill="#e25a44"></rect><rect id="Rect&#xE1;ngulo_3975" data-name="Rect&#xE1;ngulo 3975" width="1.48" height="15.077" transform="translate(194.515 119.626)" fill="#e25a44"></rect><rect id="Rect&#xE1;ngulo_3976" data-name="Rect&#xE1;ngulo 3976" width="73.987" height="1.297" transform="translate(191.555 118.329)" fill="#e25a44"></rect><path id="Trazado_6196" data-name="Trazado 6196" d="M418.1,461.761l-63.941,54.86,54.475-1.563,35.907-53.3Z" transform="translate(-61.688 -380.621)" fill="#eafcfc"></path><g id="Grupo_1312" data-name="Grupo 1312" transform="translate(292.467 118.329)" opacity="0.5"><g id="Grupo_1311" data-name="Grupo 1311"><g id="Grupo_1310" data-name="Grupo 1310" clip-path="url(#clip-path-8)"><path id="Trazado_6197" data-name="Trazado 6197" d="M561.05,671.89,550.2,688l-54.475,1.563,20.6-17.672Z" transform="translate(-495.722 -671.89)" fill="#c5ddf9"></path></g></g></g><path id="Trazado_6198" data-name="Trazado 6198" d="M618.2,771.741,594.527,807.9l173.6-11.576.153-15.953-12.437-4.806Z" transform="translate(-427.973 -635.741)" fill="#13375b"></path><g id="Grupo_1315" data-name="Grupo 1315" transform="translate(219.805 139.094)" opacity="0.3"><g id="Grupo_1314" data-name="Grupo 1314"><g id="Grupo_1313" data-name="Grupo 1313" clip-path="url(#clip-path-9)"><path id="Trazado_6199" data-name="Trazado 6199" d="M1022.952,819.145h20.411l-29.49-29.919H993.462Z" transform="translate(-993.462 -789.226)" fill="#fff"></path></g></g></g><g id="Grupo_1318" data-name="Grupo 1318" transform="translate(203.154 137.939)" opacity="0.3"><g id="Grupo_1317" data-name="Grupo 1317"><g id="Grupo_1316" data-name="Grupo 1316" clip-path="url(#clip-path-10)"><path id="Trazado_6200" data-name="Trazado 6200" d="M1186.82,815h6.123L1161.1,782.7h-6.123Z" transform="translate(-1154.976 -782.696)" fill="#fff"></path></g></g></g><path id="Trazado_6201" data-name="Trazado 6201" d="M400.978,891.585l7.435,33.541H253.873l21.921-25.649Z" transform="translate(-7.816 -734.375)" fill="#13375b"></path><g id="Grupo_1321" data-name="Grupo 1321" transform="translate(340.155 160.585)" opacity="0.3"><g id="Grupo_1320" data-name="Grupo 1320"><g id="Grupo_1319" data-name="Grupo 1319" clip-path="url(#clip-path-11)"><path id="Trazado_6202" data-name="Trazado 6202" d="M459.118,940.576h9.953l-17.21-29.919h-9.953Z" transform="translate(-441.908 -910.657)" fill="#fff"></path></g></g></g><g id="Grupo_1324" data-name="Grupo 1324" transform="translate(331.926 159.429)" opacity="0.3"><g id="Grupo_1323" data-name="Grupo 1323"><g id="Grupo_1322" data-name="Grupo 1322" clip-path="url(#clip-path-12)"><path id="Trazado_6203" data-name="Trazado 6203" d="M538.6,936.434h2.986L523,904.127H520.01Z" transform="translate(-520.01 -904.127)" fill="#fff"></path></g></g></g><path id="Trazado_6204" data-name="Trazado 6204" d="M546.42,868.431c-35.38,1.863-313.067,17.1-313.067,17.1l-9.481,10.059L391.132,912.5l25.882-26.538,126.962-8.918c1.883-.132,3.933-2.02,4.674-4.3.8-2.454-.216-4.413-2.228-4.307" transform="translate(-143.015 -715.316)" fill="#eafcfc"></path><path id="Trazado_6205" data-name="Trazado 6205" d="M643.5,775.719l-11.8-17.91a1.622,1.622,0,0,0-1.408-.729H456.639c-1.431,0-3.057,1.437-3.632,3.21s.119,3.21,1.55,3.21h150.7a1.623,1.623,0,0,1,1.527.94l9.049,18.742a1.659,1.659,0,0,0,1.792.924l22.646-2.713c2.387-.286,4.42-3.863,3.225-5.675" transform="translate(-278.458 -623.675)" fill="#eafcfc"></path><g id="Grupo_1327" data-name="Grupo 1327" transform="translate(80.858 170.644)" opacity="0.5"><g id="Grupo_1326" data-name="Grupo 1326"><g id="Grupo_1325" data-name="Grupo 1325" clip-path="url(#clip-path-13)"><path id="Trazado_6206" data-name="Trazado 6206" d="M975.138,970.829c.936-.989,187.208-3.337,187.208-3.337l-25.882,26.538L969.205,977.123Z" transform="translate(-969.206 -967.492)" fill="#c5ddf9"></path></g></g></g><path id="Trazado_6207" data-name="Trazado 6207" d="M501.56,1075.2H221.2L142.61,1021.91H322.177l14.76,6.42H484.044a4.771,4.771,0,0,1,4.769,3.634Z" transform="translate(-81.272 -841.636)" fill="#eafcfc"></path><path id="Trazado_6208" data-name="Trazado 6208" d="M142.507,1195.716H276.678c3.628,0,7.751-3.644,9.209-8.139s-.3-8.139-3.929-8.139H147.787c-3.628,0-7.751,3.644-9.209,8.139s.3,8.139,3.929,8.139" transform="translate(134.693 -971.285)" fill="#13375b"></path><path id="Trazado_6209" data-name="Trazado 6209" d="M1331.773,1162.38l-11.909-19.349c-4.188-6.8-11.016-10.682-19.343-10.985l-115.581-4.208,50.941,34.542Z" transform="translate(-1095.955 -928.817)" fill="#fae0b2"></path><path id="Trazado_6210" data-name="Trazado 6210" d="M532.352,1100.11l-323.453.151-5.132-3.48h327.6Z" transform="translate(-122.888 -903.256)" fill="#e25a44"></path><path id="Trazado_6211" data-name="Trazado 6211" d="M346.653,460.479h28.813a1.452,1.452,0,0,0,1.181-1.044c.187-.577-.039-1.044-.5-1.044H347.331a1.452,1.452,0,0,0-1.181,1.044c-.187.577.039,1.044.5,1.044" transform="translate(7.564 -377.847)" fill="#e25a44"></path><path id="Trazado_6212" data-name="Trazado 6212" d="M1537.117,1139.1l-2.228-.808a1.036,1.036,0,0,0,.714,1.249c1.182.468,1.514-.441,1.514-.441" transform="translate(-1363.227 -937.424)" fill="#fff"></path></g></svg>