<svg xmlns="http://www.w3.org/2000/svg" xmlns:xlink="http://www.w3.org/1999/xlink" width="70" height="70" viewBox="0 0 70 70"><defs><clipPath id="clip-path"><rect id="Rect&#xE1;ngulo_3232" data-name="Rect&#xE1;ngulo 3232" width="35" height="28.083" fill="#fff"></rect></clipPath></defs><g id="montajes-equipos" transform="translate(-957 -760)"><circle id="Elipse_2" data-name="Elipse 2" cx="35" cy="35" r="35" transform="translate(957 760)" fill="#3728ae"></circle><g id="Grupo_863" data-name="Grupo 863" transform="translate(974.5 780.959)"><g id="Grupo_862" data-name="Grupo 862" transform="translate(0)" clip-path="url(#clip-path)"><path id="Trazado_4393" data-name="Trazado 4393" d="M0,22.218a.719.719,0,0,0,.716.352c.569-.019,1.14,0,1.71-.009.2,0,.278.044.324.27a12.794,12.794,0,0,0,.424,1.576c.155.453.443.6.761.476s.384-.42.195-.871a4.989,4.989,0,1,1,5.534,2.927,4.936,4.936,0,0,1-4.212-1.114.792.792,0,0,0-.463-.237.74.74,0,0,0-.479.3c-.16.23-.033.457.161.631a5.9,5.9,0,0,0,2.562,1.374,6.024,6.024,0,0,0,7.453-5.058c.026-.2.075-.27.283-.27,1.687.008,3.373,0,5.059.006a.9.9,0,0,1,.121.018c.063.317.112.641.193.956a6.016,6.016,0,0,0,11.792-.677c.034-.249.127-.326.367-.3a6.9,6.9,0,0,0,.717,0c.441-.006.621-.182.621-.624,0-1.447,0-2.894,0-4.341q0-1.179,0-2.358c0-.577-.153-.734-.725-.734H25.79c-.006-.022-.01-.046-.014-.069l2.531-1.31L34.55,9.9c.5-.26.569-.5.272-.983-1-1.642-2.008-3.281-3-4.929a.779.779,0,0,0-.749-.421c-1.094.012-2.188.006-3.281,0a.6.6,0,0,0-.608.293.511.511,0,0,0,.5.745,19.247,19.247,0,0,0,2.288-.011,1.389,1.389,0,0,1,1.547.856c.676,1.248,1.461,2.438,2.213,3.672a2.721,2.721,0,0,1-.233.15q-7.124,3.685-14.249,7.367a1.51,1.51,0,0,1-2.023-.339,2.129,2.129,0,0,1-.327-.7Q15.141,9.179,13.4,2.758c-.168-.619-.249-.683-.9-.683H5.05c-.115,0-.228,0-.342-.009a.477.477,0,0,1-.455-.435A.464.464,0,0,1,4.578,1.1a1.3,1.3,0,0,1,.435-.058q4.187,0,8.374,0c.532,0,.641.086.786.607q.33,1.2.658,2.4c.13.471.239.565.713.565q4.92,0,9.843-.006a.9.9,0,0,0,.554-.184.486.486,0,0,0-.2-.8,1.4,1.4,0,0,0-.437-.047c-3.053,0-6.106-.006-9.16,0-.278,0-.4-.075-.465-.348-.165-.685-.358-1.364-.552-2.042A1.543,1.543,0,0,0,13.563,0Q9.2,0,4.847,0a1.56,1.56,0,1,0,0,3.117q3.6.011,7.212,0c.3,0,.4.091.473.375q1.433,5.321,2.892,10.635c.029.108.054.219.093.378-.368,0-.715.016-1.06-.012-.07-.006-.159-.166-.186-.27q-.679-2.467-1.343-4.939c-.255-.944-.507-1.89-.762-2.834A3.081,3.081,0,0,0,9.018,4.03q-3.33,0-6.664,0H2.286c-.4.006-.635.2-.639.51s.237.519.625.522c.465,0,.929,0,1.428,0-.078.712-.149,1.389-.227,2.064-.129,1.131-.258,2.262-.4,3.392a.377.377,0,0,1-.226.258A3.487,3.487,0,0,0,.052,13.658.289.289,0,0,1,0,13.741Zm1.11-8.534c.035-.12.058-.229.1-.331a2.44,2.44,0,0,1,2.291-1.6c2.13-.01,4.26,0,6.389,0,.721,0,.895-.23.7-.934q-.456-1.661-.92-3.319c-.131-.468-.237-.548-.722-.549q-2,0-4,0h-.4c.062-.562.132-1.078.168-1.6.017-.24.107-.3.335-.3,1.321.01,2.642,0,3.963.006A2.053,2.053,0,0,1,11.149,6.7q1.876,6.93,3.748,13.862c.083.311.161.624.245.947h-.4a6.075,6.075,0,0,0-5.815-5.486A5.837,5.837,0,0,0,5.289,17.1,6.026,6.026,0,0,0,2.7,21.506H1.034c0-.983.011-1.939-.006-2.893,0-.276.088-.336.345-.351A2.269,2.269,0,0,0,1.8,13.8c-.214-.057-.441-.075-.688-.115m31.077,7.837a6.029,6.029,0,0,0-1.9-3.867,5.873,5.873,0,0,0-4.02-1.628,5.792,5.792,0,0,0-3.5,1.062,6.061,6.061,0,0,0-2.609,4.445c-1.232,0-2.427-.008-3.623.007a.333.333,0,0,1-.389-.3c-.474-1.792-.961-3.58-1.443-5.37-.025-.095-.039-.192-.063-.318.3,0,.578.018.848-.006s.345.084.412.323a2.552,2.552,0,0,0,3.879,1.67c1.183-.61,2.362-1.228,3.551-1.827a1.42,1.42,0,0,1,.612-.154c2.824-.01,5.649-.006,8.474-.006h.367v5.972Zm-6.009-4.452a4.982,4.982,0,1,1-4.988,4.995,4.988,4.988,0,0,1,4.988-4.995M4.1,10.716c.087-.749.162-1.438.25-2.125.075-.6.08-.6.7-.6H6.521c0,.879,0,1.7-.01,2.518a.28.28,0,0,1-.188.2c-.726.014-1.453.009-2.22.009M7.59,7.991c.319,0,.6.013.883,0,.2-.012.278.063.327.248.2.746.408,1.488.611,2.233a1.231,1.231,0,0,1,.018.23H7.59ZM1.055,17.227V14.769a1.2,1.2,0,0,1,1.208.57,1.157,1.157,0,0,1,0,1.317,1.2,1.2,0,0,1-1.208.57" transform="translate(0 0)" fill="#fff"></path><path id="Trazado_4394" data-name="Trazado 4394" d="M31.934,30.034a3.39,3.39,0,1,0-3.4-3.371,3.385,3.385,0,0,0,3.4,3.371m-2.367-3.393A2.357,2.357,0,1,1,31.937,29a2.367,2.367,0,0,1-2.37-2.36" transform="translate(-23.209 -4.596)" fill="#fff"></path><path id="Trazado_4395" data-name="Trazado 4395" d="M21.219,12.161q0-1.964,0-3.928c0-.434-.177-.659-.512-.66s-.519.229-.52.656q0,3.978,0,7.957c0,.294.085.556.384.6a.809.809,0,0,0,.554-.212c.092-.079.093-.293.094-.447.007-1.321,0-2.641,0-3.961" transform="translate(-2.415 -1.497)" fill="#fff"></path><path id="Trazado_4396" data-name="Trazado 4396" d="M15.108,11.324c0,.99,0,1.98,0,2.97,0,.136-.021.313.052.4a.84.84,0,0,0,.493.32c.151,0,.336-.181.451-.327.071-.09.049-.262.049-.4q0-2.987,0-5.974a1.429,1.429,0,0,0-.035-.371.46.46,0,0,0-.474-.365.464.464,0,0,0-.5.373,1.508,1.508,0,0,0-.034.371q0,1.5,0,3" transform="translate(6.721 -1.497)" fill="#fff"></path><path id="Trazado_4397" data-name="Trazado 4397" d="M10.05,10.272c0,.682,0,1.364,0,2.047,0,.4.2.615.528.609.314-.007.5-.223.5-.6q0-2.081,0-4.161c0-.371-.2-.591-.512-.593s-.515.213-.518.584c0,.705,0,1.41,0,2.115" transform="translate(15.853 -1.497)" fill="#fff"></path><path id="Trazado_4398" data-name="Trazado 4398" d="M10.192,30.034a3.39,3.39,0,1,0-3.429-3.385,3.4,3.4,0,0,0,3.429,3.385m2.32-3.383a2.353,2.353,0,1,1-2.36-2.364,2.352,2.352,0,0,1,2.36,2.364" transform="translate(16.013 -4.596)" fill="#fff"></path></g></g></g></svg>