<svg xmlns="http://www.w3.org/2000/svg" xmlns:xlink="http://www.w3.org/1999/xlink" id="obras-civiles" width="460.373" height="278" viewBox="0 0 460.373 278"><defs><clipPath id="clip-path"><rect id="Rect&#xE1;ngulo_4568" data-name="Rect&#xE1;ngulo 4568" width="460.373" height="278" fill="none"></rect></clipPath><clipPath id="clip-path-2"><rect id="Rect&#xE1;ngulo_4567" data-name="Rect&#xE1;ngulo 4567" width="460.374" height="277.999" fill="none"></rect></clipPath><clipPath id="clip-path-4"><rect id="Rect&#xE1;ngulo_4558" data-name="Rect&#xE1;ngulo 4558" width="453.415" height="177.368" fill="none"></rect></clipPath><clipPath id="clip-path-5"><rect id="Rect&#xE1;ngulo_4559" data-name="Rect&#xE1;ngulo 4559" width="73.701" height="21.861" fill="none"></rect></clipPath><clipPath id="clip-path-6"><rect id="Rect&#xE1;ngulo_4560" data-name="Rect&#xE1;ngulo 4560" width="49.314" height="14.626" fill="none"></rect></clipPath><clipPath id="clip-path-7"><rect id="Rect&#xE1;ngulo_4561" data-name="Rect&#xE1;ngulo 4561" width="35.377" height="10.494" fill="none"></rect></clipPath><clipPath id="clip-path-8"><rect id="Rect&#xE1;ngulo_4562" data-name="Rect&#xE1;ngulo 4562" width="44.705" height="13.259" fill="none"></rect></clipPath><clipPath id="clip-path-9"><rect id="Rect&#xE1;ngulo_4563" data-name="Rect&#xE1;ngulo 4563" width="148.258" height="66.593" fill="none"></rect></clipPath><clipPath id="clip-path-10"><rect id="Rect&#xE1;ngulo_4564" data-name="Rect&#xE1;ngulo 4564" width="20.271" height="7.956" fill="none"></rect></clipPath><clipPath id="clip-path-11"><rect id="Rect&#xE1;ngulo_4565" data-name="Rect&#xE1;ngulo 4565" width="26.224" height="6.333" fill="none"></rect></clipPath><clipPath id="clip-path-12"><rect id="Rect&#xE1;ngulo_4566" data-name="Rect&#xE1;ngulo 4566" width="111.01" height="6.867" fill="none"></rect></clipPath></defs><g id="Grupo_1610" data-name="Grupo 1610" clip-path="url(#clip-path)"><g id="Grupo_1609" data-name="Grupo 1609" transform="translate(0 0.001)"><g id="Grupo_1608" data-name="Grupo 1608" clip-path="url(#clip-path-2)"><g id="Grupo_1580" data-name="Grupo 1580" transform="translate(0 -0.001)" opacity="0.5"><g id="Grupo_1579" data-name="Grupo 1579"><g id="Grupo_1578" data-name="Grupo 1578" clip-path="url(#clip-path)"><path id="Trazado_7621" data-name="Trazado 7621" d="M38.194,278C22.2,253.994-17.262,119.451,8.515,103.79c28.32-17.205,51.076,11.47,73.327-11.3,9.7-9.932,1.686-34.58,21.745-42.676,28.176-11.373,98.781,31.374,87.655-.169S255.8-3.66,327.993.518s58.789,46.933,57.777,53.849-11.631,40.315,29.5,55.665,31.691,36.266,27.645,48.243c-3.524,10.431-23.431,22.772,5.563,49.761,24.139,22.47,5.222,58.524-1.79,69.969Z" transform="translate(0 -0.004)" fill="#b0cff4"></path></g></g></g><path id="Trazado_7622" data-name="Trazado 7622" d="M89.094,1266a21.39,21.39,0,0,1-.157,2.593H70.009c-1.566-5.567-3.076-11.264-4.493-17a13.235,13.235,0,0,1,8.717-3.382c8.207,0,14.86,7.964,14.86,17.787" transform="translate(-55.269 -1052.995)" fill="#86b1f2"></path><g id="Grupo_1583" data-name="Grupo 1583" transform="translate(1.57 39.102)" opacity="0.6"><g id="Grupo_1582" data-name="Grupo 1582"><g id="Grupo_1581" data-name="Grupo 1581" clip-path="url(#clip-path-4)"><path id="Trazado_7623" data-name="Trazado 7623" d="M10.039,364.586H24.061V311.26c15.153-5.6,28.737.3,41.607,1.258v9.495H92.186V306.044h19.2v26.069h19.66V285.921h30.634V337.6h9.144V306.273h8.916l34.52,16.773h16V305.129h51.462V290.037h23.064v33.722h10.973v-8.568h13.259V330.28h16V250.018h7.544l13.945,13.949V303.3H380.04v-9.6h14.14q.108.338.225.676v35.913h21.946V317.728a72.776,72.776,0,0,0,7.387,3.215c12.12,4.523,19.848,9.53,24.617,14.648l3.876,5.212c6.031,10.592,1.6,21.127-.849,28.382-3.524,10.431-23.431,22.772,5.563,49.761a37.514,37.514,0,0,1,6.508,7.912l-440,.528C17.6,406.709,12.5,384.15,10.039,364.586" transform="translate(-10.039 -250.018)" fill="#9bc1f9"></path></g></g></g><path id="Trazado_7624" data-name="Trazado 7624" d="M2441.438,895.418c-.01-.34-.48-.6-.73-.3s-.238.1-.48.748a21.1,21.1,0,0,1-2.906,5.249,21.942,21.942,0,0,1-7.1,6.059,20.254,20.254,0,0,0,1.852-7.46,5.944,5.944,0,0,0-.384-2.751.322.322,0,0,0-.583.076c-.215,1.318.1,2.312-.326,4.671-1.02,5.63-5.059,11.6-8.955,15.782.747-7.079,1.109-15.124-.227-22.264-.219-1.171-.568-2.285-.891-3.429a.214.214,0,0,0-.412.114c.067.381.7,5.294.742,5.633a87.456,87.456,0,0,1,.013,16.954,33.93,33.93,0,0,1-5.99-13.846c-.28-1.474-.354-3-.746-4.443-.054-.2-.384-.221-.425,0-.4,2.168.4,6,.991,8.086a33.25,33.25,0,0,0,5.7,11.388c.1.131-4.182,33.17-4.067,33.589.194.706,1.426,1.2,1.617-.051.078-.51,2.431-20.6,3.493-29.9.4-.221.66-.613,1.692-1.771a44.573,44.573,0,0,0,6.331-9.159c.948-.054,7.79-3.376,11.185-10.941.1-.218.539-1.242.6-1.47a1.749,1.749,0,0,0,0-.558" transform="translate(-2036.273 -752.194)" fill="#29446d"></path><path id="Trazado_7625" data-name="Trazado 7625" d="M2329.774,715.225q.117-1.525.118-3.115c0-11.8-5.02-21.367-11.212-21.367s-11.212,9.566-11.212,21.367q0,1.587.119,3.115Z" transform="translate(-1946.584 -582.713)" fill="#184655"></path><path id="Trazado_7626" data-name="Trazado 7626" d="M2410.9,627.471q.117-2.151.118-4.393c0-16.642-5.02-30.133-11.212-30.133s-11.211,13.491-11.211,30.133q0,2.238.118,4.393Z" transform="translate(-2015.026 -500.21)" fill="#3c8f7c"></path><path id="Trazado_7627" data-name="Trazado 7627" d="M2504.327,799.713q-.117-1.525-.119-3.115c0-11.8,5.02-21.367,11.212-21.367s11.212,9.566,11.212,21.367q0,1.587-.119,3.115Z" transform="translate(-2112.553 -653.987)" fill="#3c8f7c"></path><path id="Trazado_7628" data-name="Trazado 7628" d="M2389.428,745.536q-.148-2.151-.15-4.393c0-16.642,6.363-30.133,14.213-30.133S2417.7,724.5,2417.7,741.143q0,2.238-.15,4.393Z" transform="translate(-2015.598 -599.81)" fill="#184655"></path><path id="Trazado_7629" data-name="Trazado 7629" d="M2319.344,711.01c-3.923,0-7.428,4.28-9.741,10.992a7.98,7.98,0,0,0-3.727-.948c-6.965,0-12.612,9.566-12.612,21.367q0,1.587.133,3.115h38.424q.131-2.151.133-4.393c0-16.642-5.646-30.133-12.612-30.133" transform="translate(-1934.602 -599.81)" fill="#3c8f7c"></path><path id="Trazado_7630" data-name="Trazado 7630" d="M1426.042,1062.08a19.918,19.918,0,0,1-.511-4.478c0-16.964,21.674-30.716,48.41-30.716s48.411,13.752,48.411,30.716a19.9,19.9,0,0,1-.512,4.478Z" transform="translate(-1202.58 -866.283)" fill="#3c8f7c"></path><path id="Trazado_7631" data-name="Trazado 7631" d="M1075.735,935.929a39.178,39.178,0,0,1-.512-6.315c0-23.924,21.674-43.318,48.411-43.318s48.411,19.394,48.411,43.318a39.15,39.15,0,0,1-.512,6.315Z" transform="translate(-907.06 -747.681)" fill="#50bfa5"></path><path id="Trazado_7632" data-name="Trazado 7632" d="M790.829,1216.37a17.565,17.565,0,0,0,.4-3.7c0-14.03-16.761-25.4-37.438-25.4s-37.438,11.373-37.438,25.4a17.565,17.565,0,0,0,.4,3.7Z" transform="translate(-604.313 -1001.578)" fill="#50bfa5"></path><path id="Trazado_7633" data-name="Trazado 7633" d="M1028.661,1105.653a31.11,31.11,0,0,0,.649-6.315c0-23.924-27.476-43.318-61.37-43.318s-61.37,19.394-61.37,43.318a31.106,31.106,0,0,0,.649,6.315Z" transform="translate(-764.784 -890.861)" fill="#3c8f7c"></path><path id="Trazado_7634" data-name="Trazado 7634" d="M1642.912,745.12a143.508,143.508,0,0,0,5.1-14.984c4.144-15.776,3.144-27.275,2.989-32.8-.02-.73,1.152-.931,1.254-.177a61.443,61.443,0,0,1,.448,7.85,99.11,99.11,0,0,1-.807,13.272c3.039.792,5.915-.394,8.267-2.523,4.055-3.671,5.5-8.563,6.14-13.982.065-.554.085-1.077.536-1.4a.314.314,0,0,1,.618.053c.642.66.331,1.986.232,2.839-1.338,11.542-8.354,17.137-14,17.088a8.1,8.1,0,0,1-2.046-.223q-.611,4.141-1.571,8.216a119.508,119.508,0,0,1-4.816,15.1c-6.442,16.9-8.5,25.531-10.327,30.422a.768.768,0,1,1-1.477-.424c.091-.355,5.117-17,9.468-28.323" transform="translate(-1377.951 -587.72)" fill="#29446d"></path><path id="Trazado_7635" data-name="Trazado 7635" d="M1528.532,705.784c.061-.364.274-.6.354-.945.107-.449.84-.494.917,0,.044.283.2.457.261.746.2.934-.278,6.191.961,14.239a35.33,35.33,0,0,0,1.406,6.307,22.1,22.1,0,0,0,5.858,9.1,137.8,137.8,0,0,1,.93-14.1q.507-4.2,1.284-8.363.378-2.025.819-4.037a15.4,15.4,0,0,1,1.272-4.032.428.428,0,0,1,.8.225,16.747,16.747,0,0,1-.508,3.614q-.389,1.813-.729,3.638a136.023,136.023,0,0,0-2.3,26.033,54.808,54.808,0,0,0,11.175-27.3q.253-2.253.3-4.523.025-1.174.048-2.348c.008-.4.162-1.617.841-1.261.624.327.565,1.057.617,1.7.057.7.062,1.389.053,2.087q-.025,2-.212,4a56.4,56.4,0,0,1-10.065,26.976,28.024,28.024,0,0,1-2.737,3.5c.236,15.429,2.527,34.918,2.568,36.475a6.09,6.09,0,0,1-.12,1.035c-.1.7-1.025.538-1.213,0-.356-1.017-.319-1.413-.849-7.041-.945-10.037-2-33.03-2-33.962a21.942,21.942,0,0,1-7.128-9.779,29.45,29.45,0,0,1-1.634-6.223,74,74,0,0,1-.97-15.761" transform="translate(-1289.382 -592.809)" fill="#29446d"></path><path id="Trazado_7636" data-name="Trazado 7636" d="M1672.418,497.469a30.6,30.6,0,0,1-.189-3.406c0-12.9,8.018-23.362,17.908-23.362s17.908,10.459,17.908,23.362a30.571,30.571,0,0,1-.189,3.406Z" transform="translate(-1410.695 -397.086)" fill="#184655"></path><path id="Trazado_7637" data-name="Trazado 7637" d="M1542.829,401.522q-.187-2.352-.189-4.8c0-18.2,8.018-32.946,17.908-32.946s17.908,14.751,17.908,32.946q0,2.447-.189,4.8Z" transform="translate(-1301.373 -306.88)" fill="#3c8f7c"></path><path id="Trazado_7638" data-name="Trazado 7638" d="M1525.416,530.609a47.928,47.928,0,0,0,.24-4.8c0-18.2-10.164-32.946-22.7-32.946s-22.7,14.75-22.7,32.946a47.929,47.929,0,0,0,.24,4.8Z" transform="translate(-1248.742 -415.778)" fill="#184655"></path><path id="Trazado_7639" data-name="Trazado 7639" d="M1548.92,492.86c6.266,0,11.864,4.679,15.559,12.019a17.6,17.6,0,0,1,5.952-1.037c11.126,0,20.145,10.459,20.145,23.362a27.276,27.276,0,0,1-.213,3.406h-61.375q-.21-2.352-.213-4.8c0-18.2,9.019-32.946,20.145-32.946" transform="translate(-1289.677 -415.778)" fill="#3c8f7c"></path><path id="Trazado_7640" data-name="Trazado 7640" d="M1092.2,1056.021c16.94,0,32.073,6.153,42.06,15.8a93.961,93.961,0,0,1,16.091-1.363c30.075,0,54.456,13.752,54.456,30.716a17.809,17.809,0,0,1-.576,4.478H1038.318a34.937,34.937,0,0,1-.575-6.315c0-23.924,24.38-43.318,54.455-43.318" transform="translate(-875.442 -890.862)" fill="#96d9c9"></path><path id="Trazado_7641" data-name="Trazado 7641" d="M287.16,1198.26a21.4,21.4,0,0,1-.157-2.593c0-9.824,6.653-17.787,14.86-17.787s14.86,7.964,14.86,17.787a21.424,21.424,0,0,1-.157,2.593Z" transform="translate(-242.116 -993.662)" fill="#86b1f2"></path><path id="Trazado_7642" data-name="Trazado 7642" d="M179.629,1125.209q-.155-1.791-.157-3.657c0-13.854,6.653-25.085,14.86-25.085s14.86,11.231,14.86,25.085q0,1.863-.157,3.657Z" transform="translate(-151.403 -924.982)" fill="#9bc1f9"></path><path id="Trazado_7643" data-name="Trazado 7643" d="M165.179,1223.493a33.553,33.553,0,0,0,.2-3.657c0-13.854-8.434-25.084-18.838-25.084s-18.838,11.231-18.838,25.084a33.589,33.589,0,0,0,.2,3.657Z" transform="translate(-107.73 -1007.895)" fill="#9bc1f9"></path><path id="Trazado_7644" data-name="Trazado 7644" d="M184.683,1194.751c5.2,0,9.845,3.563,12.911,9.151a15.789,15.789,0,0,1,4.939-.789c9.232,0,16.716,7.964,16.716,17.787a19.063,19.063,0,0,1-.177,2.593H168.144q-.174-1.791-.177-3.657c0-13.854,7.484-25.085,16.716-25.085" transform="translate(-141.697 -1007.894)" fill="#9bc1f9"></path><path id="Trazado_7645" data-name="Trazado 7645" d="M2750.4,1310.82a3.361,3.361,0,0,0-1.3-.657,2.587,2.587,0,0,0-1.285.046,2.8,2.8,0,0,1,1.2-.785,2.743,2.743,0,0,1,2.118.106c.8.457.92,1.325.556,1.514a1.49,1.49,0,0,1-1.3-.224" transform="translate(-2318.059 -1104.499)" fill="#466eb6"></path><path id="Trazado_7646" data-name="Trazado 7646" d="M2784.629,1345.191a10.914,10.914,0,0,0-1.349,1.135,10.09,10.09,0,0,0-2.385,4.068c-.031.1-.041.2-.136.257a.052.052,0,0,1-.071-.018c-.058-.108-.01-.209.023-.322a9.5,9.5,0,0,1,1.419-2.829,6.72,6.72,0,0,1,2.494-2.3c.006,0,.011.006.006.01" transform="translate(-2345.769 -1134.797)" fill="#466eb6"></path><path id="Trazado_7647" data-name="Trazado 7647" d="M2800.919,1345.083a2.7,2.7,0,0,0-1.094-.4,2.084,2.084,0,0,0-1.02.155,2.251,2.251,0,0,1,.887-.736,2.2,2.2,0,0,1,1.7-.11c.676.291.855.971.582,1.156a1.2,1.2,0,0,1-1.054-.059" transform="translate(-2361.076 -1133.686)" fill="#466eb6"></path><path id="Trazado_7648" data-name="Trazado 7648" d="M2799.253,1329.985a2.708,2.708,0,0,1,.256,1.139,2.084,2.084,0,0,1-.288.991,2.248,2.248,0,0,0,.847-.782,2.208,2.208,0,0,0,.334-1.669c-.2-.709-.849-.977-1.068-.731a1.2,1.2,0,0,0-.081,1.053" transform="translate(-2361.388 -1121.014)" fill="#466eb6"></path><g id="Grupo_1586" data-name="Grupo 1586" transform="translate(284.882 36.229)" opacity="0.8"><g id="Grupo_1585" data-name="Grupo 1585"><g id="Grupo_1584" data-name="Grupo 1584" clip-path="url(#clip-path-5)"><path id="Trazado_7649" data-name="Trazado 7649" d="M1821.507,253.512a9.1,9.1,0,0,1,11.153-6.76,13.387,13.387,0,0,1,16.1-7.118,16.491,16.491,0,0,1,29.63,2.884,11.314,11.314,0,0,1,16.817,9.9c0,.371-.019.737-.054,1.1Z" transform="translate(-1821.507 -231.65)" fill="#fff"></path></g></g></g><g id="Grupo_1589" data-name="Grupo 1589" transform="translate(216.89 19.691)" opacity="0.8"><g id="Grupo_1588" data-name="Grupo 1588"><g id="Grupo_1587" data-name="Grupo 1587" clip-path="url(#clip-path-6)"><path id="Trazado_7650" data-name="Trazado 7650" d="M1436.094,140.532a6.086,6.086,0,0,0-7.462-4.523,8.957,8.957,0,0,0-10.774-4.762,11.034,11.034,0,0,0-19.825,1.93,7.571,7.571,0,0,0-11.253,6.621c0,.248.013.493.036.735Z" transform="translate(-1386.78 -125.906)" fill="#fff"></path></g></g></g><g id="Grupo_1592" data-name="Grupo 1592" transform="translate(203.138 91.977)" opacity="0.8"><g id="Grupo_1591" data-name="Grupo 1591"><g id="Grupo_1590" data-name="Grupo 1590" clip-path="url(#clip-path-7)"><path id="Trazado_7651" data-name="Trazado 7651" d="M1334.231,598.595a4.366,4.366,0,0,0-5.353-3.245,6.426,6.426,0,0,0-7.729-3.417,7.916,7.916,0,0,0-14.223,1.384,5.431,5.431,0,0,0-8.073,4.75c0,.178.009.354.026.527Z" transform="translate(-1298.853 -588.101)" fill="#fff"></path></g></g></g><g id="Grupo_1595" data-name="Grupo 1595" transform="translate(97.988 57.03)" opacity="0.8"><g id="Grupo_1594" data-name="Grupo 1594"><g id="Grupo_1593" data-name="Grupo 1593" clip-path="url(#clip-path-8)"><path id="Trazado_7652" data-name="Trazado 7652" d="M671.232,377.906a5.517,5.517,0,0,0-6.765-4.1,8.12,8.12,0,0,0-9.767-4.317,10,10,0,0,0-17.973,1.749,6.863,6.863,0,0,0-10.2,6c0,.225.012.447.033.666Z" transform="translate(-626.527 -364.647)" fill="#fff"></path></g></g></g><path id="Trazado_7653" data-name="Trazado 7653" d="M2432.916,1179.154s15.283-40.9,34.211-36.169c15.338,3.833,4.433,24.412,5.368,23.476.729-.729,5.885-9.371,14.425-13.151a41.83,41.83,0,0,0,7.866,12.363c-2.041,2.717-3.9,4.736-3.9,4.736s2.766-.864,6.638-1.769q1.563,1.61,3.369,3.294a37.746,37.746,0,0,1,6.076,7.221Z" transform="translate(-2052.411 -963.903)" fill="#3c8f7c"></path><path id="Trazado_7654" data-name="Trazado 7654" d="M2038.189,1087.736q-.179-2.061-.182-4.21c0-15.949,7.694-28.878,17.185-28.878s17.185,12.929,17.185,28.878q0,2.145-.182,4.21Z" transform="translate(-1719.266 -889.703)" fill="#50bfa5"></path><path id="Trazado_7655" data-name="Trazado 7655" d="M1993.675,1271.249a21.247,21.247,0,0,0,.157-2.581c0-9.779-6.653-17.707-14.86-17.707s-14.86,7.928-14.86,17.707a21.2,21.2,0,0,0,.157,2.581Z" transform="translate(-1656.928 -1055.313)" fill="#50bfa5"></path><path id="Trazado_7656" data-name="Trazado 7656" d="M2110.419,1225.026a33.259,33.259,0,0,0,.2-3.64c0-13.791-8.434-24.972-18.838-24.972s-18.344,11.284-18.838,24.972a24.941,24.941,0,0,0,.2,3.64Z" transform="translate(-1748.728 -1009.297)" fill="#3c8f7c"></path><path id="Trazado_7657" data-name="Trazado 7657" d="M2187.279,1138.2a24.5,24.5,0,0,1-.182-2.985c0-11.309,7.694-20.477,17.185-20.477s17.185,9.168,17.185,20.477c0,1.014.752,4.143.633,5.117Z" transform="translate(-1845.038 -940.391)" fill="#50bfa5"></path><path id="Trazado_7658" data-name="Trazado 7658" d="M2073.548,1167.794c6.013,0,11.385,4.1,14.931,10.534a18.333,18.333,0,0,1,5.712-.909c10.676,0,19.331,9.168,19.331,20.477a21.822,21.822,0,0,1-.2,2.985h-58.9c-.134-1.374-.2-2.78-.2-4.21,0-15.949,8.655-28.878,19.331-28.878" transform="translate(-1732.94 -985.153)" fill="#50bfa5"></path><path id="Trazado_7659" data-name="Trazado 7659" d="M533.558,1374.734H93.176q-.282-.994-.561-1.994h439.7q.661.987,1.24,1.994" transform="translate(-78.13 -1158.046)" fill="#29446d"></path><path id="Trazado_7660" data-name="Trazado 7660" d="M183.011,1078.569c-1.457-3.266-2.988-6.993-4.561-11.091V962.007h4.561Z" transform="translate(-150.541 -811.551)" fill="#355389"></path><path id="Trazado_7661" data-name="Trazado 7661" d="M146.857,619.479h1.174a7.2,7.2,0,0,0,7.2-7.2v-53.03a7.2,7.2,0,0,0-7.2-7.2h-1.174a7.2,7.2,0,0,0-7.2,7.2v53.03a7.2,7.2,0,0,0,7.2,7.2" transform="translate(-117.813 -465.708)" fill="#466eb6"></path><path id="Trazado_7662" data-name="Trazado 7662" d="M157.863,619.479h1.174a7.2,7.2,0,0,0,7.2-7.2v-53.03a7.2,7.2,0,0,0-7.2-7.2h-1.174a7.2,7.2,0,0,0-7.2,7.2v53.03a7.2,7.2,0,0,0,7.2,7.2" transform="translate(-127.098 -465.708)" fill="#355389"></path><path id="Trazado_7663" data-name="Trazado 7663" d="M245.954,583.4a18.071,18.071,0,0,1-8.606,8.956c-6.2,2.813-2.926-12.861-2.926-12.861l7.115-.287s3.844,1.493,4.418,4.191" transform="translate(-197.031 -488.625)" fill="#355389"></path><path id="Trazado_7664" data-name="Trazado 7664" d="M181.476,587.032c0,4.725,2.916,8.555,6.512,8.555s6.512-3.83,6.512-8.555-2.915-8.555-6.512-8.555-6.512,3.83-6.512,8.555" transform="translate(-153.093 -488.005)" fill="#f47458"></path><path id="Trazado_7665" data-name="Trazado 7665" d="M184.993,584.614a10.122,10.122,0,0,0-1.737,5.815c0,4.725,2.915,8.555,6.512,8.555a5.285,5.285,0,0,0,3-.96,5.921,5.921,0,0,1-4.775,2.74c-3.6,0-6.512-3.83-6.512-8.555a9.156,9.156,0,0,1,3.516-7.595" transform="translate(-153.094 -493.182)" fill="#b75742"></path><path id="Trazado_7666" data-name="Trazado 7666" d="M245.954,715.559a18.071,18.071,0,0,1-8.606,8.956c-6.2,2.813-2.926-12.861-2.926-12.861l7.115-.287s3.844,1.493,4.418,4.191" transform="translate(-197.031 -600.112)" fill="#355389"></path><path id="Trazado_7667" data-name="Trazado 7667" d="M181.476,719.189c0,4.725,2.916,8.555,6.512,8.555s6.512-3.83,6.512-8.555-2.915-8.555-6.512-8.555-6.512,3.83-6.512,8.555" transform="translate(-153.093 -599.493)" fill="#f7cc7f"></path><path id="Trazado_7668" data-name="Trazado 7668" d="M184.993,716.77a10.122,10.122,0,0,0-1.737,5.815c0,4.724,2.915,8.555,6.512,8.555a5.284,5.284,0,0,0,3-.96,5.921,5.921,0,0,1-4.775,2.74c-3.6,0-6.512-3.83-6.512-8.555a9.156,9.156,0,0,1,3.516-7.595" transform="translate(-153.094 -604.669)" fill="#f2b95f"></path><path id="Trazado_7669" data-name="Trazado 7669" d="M245.954,847.715a18.072,18.072,0,0,1-8.606,8.957c-6.2,2.813-2.926-12.861-2.926-12.861l7.115-.287s3.844,1.493,4.418,4.191" transform="translate(-197.031 -711.599)" fill="#355389"></path><path id="Trazado_7670" data-name="Trazado 7670" d="M181.476,851.344c0,4.725,2.916,8.555,6.512,8.555s6.512-3.83,6.512-8.555-2.915-8.555-6.512-8.555-6.512,3.83-6.512,8.555" transform="translate(-153.093 -710.98)" fill="#50bfa5"></path><path id="Trazado_7671" data-name="Trazado 7671" d="M184.993,848.927a10.122,10.122,0,0,0-1.737,5.815c0,4.725,2.915,8.554,6.512,8.554a5.286,5.286,0,0,0,3-.959,5.921,5.921,0,0,1-4.775,2.739c-3.6,0-6.512-3.83-6.512-8.555a9.156,9.156,0,0,1,3.516-7.595" transform="translate(-153.094 -716.157)" fill="#3c8f7c"></path><path id="Trazado_7672" data-name="Trazado 7672" d="M194.514,571.681s-.8-3.217-7.746-3.33c-10.557-.172-13.024,13.722-13.024,13.722s-3.557-11.311,1.779-14.813,18.131-2.411,18.991,4.421" transform="translate(-145.59 -476.903)" fill="#466eb6"></path><path id="Trazado_7673" data-name="Trazado 7673" d="M194.514,703.838s-.8-3.217-7.746-3.33c-10.557-.172-13.024,13.722-13.024,13.722s-3.557-11.311,1.779-14.813,18.131-2.411,18.991,4.421" transform="translate(-145.59 -588.391)" fill="#466eb6"></path><path id="Trazado_7674" data-name="Trazado 7674" d="M194.514,835.994s-.8-3.217-7.746-3.33c-10.557-.172-13.024,13.722-13.024,13.722s-3.557-11.311,1.779-14.813,18.131-2.411,18.991,4.421" transform="translate(-145.59 -699.878)" fill="#466eb6"></path><path id="Trazado_7675" data-name="Trazado 7675" d="M2005.959,1432.057s-48.265,8.009-48.844,7.662-6.829-27.315-6.829-27.315,39.912-7.176,40.558-7.176,9.327,6.944,9.443,7.407,5.672,19.422,5.672,19.422" transform="translate(-1645.265 -1185.453)" fill="#183658"></path><path id="Trazado_7676" data-name="Trazado 7676" d="M1043.386,1466.333c-1.157.116-59.608-1.137-59.608-1.137l4.4-13.447s8.1-12.252,12.385-12.029,29.751-3.907,34.147-.858,8.331.618,10.414,7.91,3.708,8.108,2.086,12.5a26.361,26.361,0,0,1-3.822,7.057" transform="translate(-829.917 -1212.877)" fill="#183658"></path><path id="Trazado_7677" data-name="Trazado 7677" d="M2063.01,1500.123a19.894,19.894,0,1,1-19.894-19.9,19.9,19.9,0,0,1,19.894,19.9" transform="translate(-1706.792 -1248.718)" fill="#1a1a1a"></path><path id="Trazado_7678" data-name="Trazado 7678" d="M2089.6,1532.779a13.842,13.842,0,1,1-13.842-13.846,13.844,13.844,0,0,1,13.842,13.846" transform="translate(-1739.439 -1281.375)" fill="#9e9da2"></path><path id="Trazado_7679" data-name="Trazado 7679" d="M2109.748,1557.517a9.257,9.257,0,1,1-9.257-9.26,9.259,9.259,0,0,1,9.257,9.26" transform="translate(-1764.168 -1306.113)" fill="#d8d9dd"></path><path id="Trazado_7680" data-name="Trazado 7680" d="M1083.642,1500.123a19.894,19.894,0,1,1-19.894-19.9,19.9,19.9,0,0,1,19.894,19.9" transform="translate(-880.596 -1248.718)" fill="#1a1a1a"></path><path id="Trazado_7681" data-name="Trazado 7681" d="M1110.235,1532.779a13.842,13.842,0,1,1-13.842-13.846,13.844,13.844,0,0,1,13.842,13.846" transform="translate(-913.242 -1281.375)" fill="#9e9da2"></path><path id="Trazado_7682" data-name="Trazado 7682" d="M1130.38,1557.517a9.257,9.257,0,1,1-9.257-9.26,9.259,9.259,0,0,1,9.257,9.26" transform="translate(-937.972 -1306.113)" fill="#d8d9dd"></path><path id="Trazado_7683" data-name="Trazado 7683" d="M876.812,1193.273c1.682-11.091,7.119-13.42,23.2-16.637,17.747-3.55,40.279-15.124,40.279-15.124s38.427-18.828,47.84-20.988,32.562-1.543,52.007-1.389,30.865,5.556,40.742,13.272,27.007,13.581,27.007,13.581l3.112.556a6.71,6.71,0,0,1,5.53,6.605v27.522a6.865,6.865,0,0,1-5.112,6.637l-11.246,2.971a1.608,1.608,0,0,1-1.869-1.417,22.593,22.593,0,1,0-44.649,6.8,2.235,2.235,0,0,1-2.2,2.641h-103.5a3.329,3.329,0,0,1-3.307-3.761,22.483,22.483,0,1,0-44.633-.537,3.86,3.86,0,0,1-3.827,4.3H881.3a4.9,4.9,0,0,1-4.9-4.9v-14.416a38.106,38.106,0,0,1,.409-5.715" transform="translate(-739.335 -960.808)" fill="#f7cc7f"></path><path id="Trazado_7684" data-name="Trazado 7684" d="M2333.515,1378.511h-12.258a1.469,1.469,0,0,0-1.355,2.038l1.377,3.286a8.429,8.429,0,0,0,7.773,5.171h4.463a1.582,1.582,0,0,0,1.582-1.582v-7.33a1.582,1.582,0,0,0-1.582-1.582" transform="translate(-1956.974 -1162.915)" fill="#cf283c"></path><path id="Trazado_7685" data-name="Trazado 7685" d="M920.942,1410.041c-6.751,1.034-14.525,7.426-14.525,7.426a3.017,3.017,0,0,0,2.4,5.067l13.162-.832a6.493,6.493,0,0,0,5.828-4.674c1.28-4.42.191-8.068-6.864-6.988" transform="translate(-763.966 -1189.352)" fill="#f3fcff"></path><path id="Trazado_7686" data-name="Trazado 7686" d="M2301.8,1540.214a1.182,1.182,0,0,1,1.131,1.612,7.687,7.687,0,0,1-5.183,4.6l-12.6,3.328a1.8,1.8,0,0,1-2.094-1.588,24.285,24.285,0,0,0-1.486-6.107,1.013,1.013,0,0,1,.923-1.375Z" transform="translate(-1924.674 -1299.327)" fill="#eab054"></path><path id="Trazado_7687" data-name="Trazado 7687" d="M892.7,1573.377a1.555,1.555,0,0,1,1.574,1.766,25.234,25.234,0,0,0-.058,5.957,4.283,4.283,0,0,1-4.247,4.769H873.454a5.437,5.437,0,0,1-5.437-5.437v-4.274a2.232,2.232,0,0,1,2.178-2.232Z" transform="translate(-732.26 -1327.304)" fill="#eab054"></path><g id="Grupo_1598" data-name="Grupo 1598" transform="translate(200.559 182.21)" opacity="0.5" style="mix-blend-mode: multiply;isolation: isolate"><g id="Grupo_1597" data-name="Grupo 1597"><g id="Grupo_1596" data-name="Grupo 1596" clip-path="url(#clip-path-9)"><path id="Trazado_7688" data-name="Trazado 7688" d="M1282.729,1189.909c.219-.12,22.1-12.124,36.606-18.844,14.364-6.653,30.4-5.948,31.091-5.913,1.843-.042,40.206-.874,52,2.8,11.881,3.7,27.355,20.573,28.008,21.289l.18.2-4.161,19.526-.446-.025c-12.1-.684-21.365,2.538-26.787,9.313a21.858,21.858,0,0,0-4.609,10.585l-.04.465-43.632,1.121v0l-.5.01-.538.014v0l-60.8,1.186-.008-.523c-.3-19.757-6.55-40.389-6.613-40.595l-.124-.405Zm110.9,38.378a22.98,22.98,0,0,1,4.743-10.639c3.894-4.891,11.776-10.528,27.248-9.77l3.864-18.129c-1.791-1.925-16.429-17.391-27.367-20.8s-46.49-2.854-51.177-2.765v63.2Zm-103.5,2.286,59.772-1.166v-63.233c-2.812-.081-17.169-.165-30.125,5.836-13.441,6.225-33.237,17-36.175,18.61.871,2.979,6.154,21.747,6.528,39.953" transform="translate(-1282.358 -1165.043)" fill="#feb546"></path></g></g></g><g id="Grupo_1601" data-name="Grupo 1601" transform="translate(357.985 242.499)" opacity="0.5" style="mix-blend-mode: multiply;isolation: isolate"><g id="Grupo_1600" data-name="Grupo 1600"><g id="Grupo_1599" data-name="Grupo 1599" clip-path="url(#clip-path-10)"><path id="Trazado_7689" data-name="Trazado 7689" d="M2309.2,1550.523a7.687,7.687,0,0,1-5.183,4.6l-12.6,3.328a1.8,1.8,0,0,1-2.094-1.588,24.255,24.255,0,0,0-.392-2.429Z" transform="translate(-2288.93 -1550.523)" fill="#feb546"></path></g></g></g><g id="Grupo_1604" data-name="Grupo 1604" transform="translate(135.756 252.233)" opacity="0.5" style="mix-blend-mode: multiply;isolation: isolate"><g id="Grupo_1603" data-name="Grupo 1603"><g id="Grupo_1602" data-name="Grupo 1602" clip-path="url(#clip-path-11)"><path id="Trazado_7690" data-name="Trazado 7690" d="M894.095,1612.763c.024.526.063,1.047.12,1.564a4.283,4.283,0,0,1-4.247,4.769H873.453a5.437,5.437,0,0,1-5.437-5.437v-.9Z" transform="translate(-868.016 -1612.763)" fill="#feb546"></path></g></g></g><path id="Trazado_7691" data-name="Trazado 7691" d="M1306.385,1567.085a22.593,22.593,0,0,0-.235-3.322,2.187,2.187,0,0,1,2.1-2.518l107.654-2.628a1.735,1.735,0,0,1,1.7,2.222,22.63,22.63,0,0,0-.856,6.19,22.989,22.989,0,0,0,.38,4.156,2.281,2.281,0,0,1-2.233,2.711H1309.549a3.406,3.406,0,0,1-3.36-3.877,23.047,23.047,0,0,0,.2-2.935" transform="translate(-1101.85 -1314.852)" fill="#eab054"></path><g id="Grupo_1607" data-name="Grupo 1607" transform="translate(204.308 252.177)" opacity="0.5" style="mix-blend-mode: multiply;isolation: isolate"><g id="Grupo_1606" data-name="Grupo 1606"><g id="Grupo_1605" data-name="Grupo 1605" clip-path="url(#clip-path-12)"><path id="Trazado_7692" data-name="Trazado 7692" d="M1306.561,1612.464c0-.019,0-.037,0-.056h110.365a22.989,22.989,0,0,0,.38,4.156,2.281,2.281,0,0,1-2.233,2.711H1309.724a3.406,3.406,0,0,1-3.36-3.877,23.045,23.045,0,0,0,.2-2.935" transform="translate(-1306.334 -1612.408)" fill="#feb546"></path></g></g></g><path id="Trazado_7693" data-name="Trazado 7693" d="M2071.491,1361.413h13.431a.576.576,0,0,0,.576-.576v-1.2a.576.576,0,0,0-.576-.576h-13.431a.576.576,0,0,0-.576.576v1.2a.576.576,0,0,0,.576.576" transform="translate(-1747.027 -1146.506)" fill="#eab054"></path><path id="Trazado_7694" data-name="Trazado 7694" d="M1598.037,1368.937h13.431a.576.576,0,0,0,.576-.576v-1.2a.576.576,0,0,0-.576-.576h-13.431a.576.576,0,0,0-.576.576v1.2a.576.576,0,0,0,.576.576" transform="translate(-1347.62 -1152.853)" fill="#eab054"></path><path id="Trazado_7695" data-name="Trazado 7695" d="M1802.063,1204.348l-59.495.562s-3.641-.1-4.137-3.525-.454-18.1-.454-18.1.432-2.947,3.254-2.984c1.715-.023,16.089-1.05,30.07.653a51.17,51.17,0,0,1,29.953,14.6l4.223,4.225s2.848,4.514-3.414,4.573" transform="translate(-1466.159 -995.426)" fill="#183658"></path><path id="Trazado_7696" data-name="Trazado 7696" d="M1407.474,1194.813V1210.2a3.675,3.675,0,0,1-3.473,3.719l-46.75,1.88a3.144,3.144,0,0,1-2.739-1.348c-.839-1.237-.936-3.272,3.253-6,7.285-4.744,25.819-15,32.675-16,4.365-.632,10.074-.906,13.648-1.022a3.329,3.329,0,0,1,3.386,3.38" transform="translate(-1142.279 -1005.094)" fill="#183658"></path></g></g></g></svg>