<svg xmlns="http://www.w3.org/2000/svg" xmlns:xlink="http://www.w3.org/1999/xlink" width="70" height="70" viewBox="0 0 70 70"><defs><clipPath id="clip-path"><rect id="Rect&#xE1;ngulo_3984" data-name="Rect&#xE1;ngulo 3984" width="34.989" height="35" fill="#fff"></rect></clipPath></defs><g id="pirateria" transform="translate(-493 -986)"><circle id="Elipse_2" data-name="Elipse 2" cx="35" cy="35" r="35" transform="translate(493 986)" fill="#3728ae"></circle><g id="Grupo_1333" data-name="Grupo 1333" transform="translate(510.506 1003.5)"><g id="Grupo_1332" data-name="Grupo 1332" clip-path="url(#clip-path)"><path id="Trazado_6218" data-name="Trazado 6218" d="M0,21.464a.688.688,0,0,1,.676-.358q5.4.012,10.8.006c.491,0,.647.158.651.659.008.945-.029,1.893.024,2.836a3.18,3.18,0,0,0,3.224,3.061c.41.008.821-.01,1.23.006.234.009.326-.062.316-.306-.017-.4-.005-.8-.005-1.2V17.89h-.425q-4.325,0-8.648,0a1.068,1.068,0,0,1-.491-.095.468.468,0,0,1-.091-.76,5.166,5.166,0,0,0,1.614-3.192,12.749,12.749,0,0,0,.168-4.484c-.058-.427.1-.666.444-.7s.517.144.57.566a13.444,13.444,0,0,1-.621,6.362c-.078.213-.173.421-.271.625s-.211.4-.339.641c.134.007.241.019.347.019q7.862,0,15.722.007a.656.656,0,0,0,.572-.289,6.519,6.519,0,0,0,1.151-2.854,12.324,12.324,0,0,0-.441-6.663,7.953,7.953,0,0,0-.873-1.49.547.547,0,0,0-.4-.182q-7.929-.013-15.859-.007c-.055,0-.11.009-.195.017.142.28.284.536.4.8a.509.509,0,1,1-.92.427A3.979,3.979,0,0,0,7.3,5.246.675.675,0,0,1,7.169,4.7c.039-.252.262-.34.52-.34q2.615.006,5.229,0h.454c.044-.156.079-.3.122-.436a2.8,2.8,0,0,1,2.712-1.96c.711-.011.711-.011.711-.72,0-.25-.009-.5.007-.751a.5.5,0,1,1,1.009.015c.013.475,0,.95,0,1.434a8.377,8.377,0,0,1,1.135.065A2.723,2.723,0,0,1,21.306,4.1c.059.214.137.267.341.266,1.117-.008,2.234.015,3.35-.013a1.292,1.292,0,0,1,1.095.509,6.962,6.962,0,0,1,1.41,2.89,14.018,14.018,0,0,1-.437,8.163,4.243,4.243,0,0,1-1.118,1.656,1.127,1.127,0,0,1-.828.322c-2.245-.011-4.489-.006-6.734-.006H17.96v9.745c.292,0,.572,0,.851,0a8.985,8.985,0,0,1,.956-.014,3.05,3.05,0,0,0,3.069-3.051,4.593,4.593,0,0,1,2.356-4.057,6.294,6.294,0,0,1,2.516-.686q3.182-.429,6.362-.865a2.05,2.05,0,0,1,.441-.03.5.5,0,0,1,.374.807,16.6,16.6,0,0,0-2.339,4.6c-.042.118-.076.239-.124.354a.463.463,0,0,1-.608.294.475.475,0,0,1-.351-.609c.094-.338.219-.667.35-1.058-.381.045-.723.083-1.065.126-.858.108-1.717.21-2.574.331a1.9,1.9,0,0,0-1.65,1.846A2.941,2.941,0,0,1,23.5,28.622q-4.032.058-8.066.065a4.227,4.227,0,0,1-4.277-3.615l-.03-.183H2.789a1.082,1.082,0,0,0,.934.838c.681.131.715.175.722.863.014,1.344-.005,2.69.057,4.032a3.464,3.464,0,0,0,2.832,3.245,1.582,1.582,0,0,0,.836-.161,2.754,2.754,0,0,0,.6-.449,2.868,2.868,0,0,1,3.869,0,2.489,2.489,0,0,0,1.255.648,2.018,2.018,0,0,0,1.587-.579,2.981,2.981,0,0,1,2.353-.793,3.055,3.055,0,0,1,1.489.635c.119.088.23.187.346.278a1.832,1.832,0,0,0,2.442.013,7.245,7.245,0,0,1,.835-.59,2.671,2.671,0,0,1,2.676-.013,2.931,2.931,0,0,1,.724.508,1.6,1.6,0,0,0,2.054.281,3.525,3.525,0,0,0,2.109-3.076c.078-1.033.148-2.066.244-3.1.037-.387.265-.55.589-.494s.451.277.41.663c-.067.623-.14,1.245-.172,1.87a6.341,6.341,0,0,1-.547,2.956,2.962,2.962,0,0,1,2.137.908,1.822,1.822,0,0,0,1.17.573c.291.014.551.059.624.4a.569.569,0,0,1-.369.65h-.341a3.681,3.681,0,0,1-.841-.251,10.687,10.687,0,0,1-1.192-.842,1.689,1.689,0,0,0-2.248,0A4.047,4.047,0,0,1,27.894,35h-.958c-.294-.188-.6-.368-.882-.568-.214-.15-.4-.336-.613-.491a1.8,1.8,0,0,0-2.3,0c-.229.168-.442.361-.682.512a2.742,2.742,0,0,1-3.061.039,6.583,6.583,0,0,1-.658-.488A1.837,1.837,0,0,0,16.269,34c-.189.147-.369.307-.57.434a2.771,2.771,0,0,1-3.207-.007c-.191-.122-.362-.275-.542-.415a1.806,1.806,0,0,0-2.489.01,4.076,4.076,0,0,1-1.8.979H7.042a4.4,4.4,0,0,1-2.036-1.107,1.638,1.638,0,0,0-2.215.019A3.955,3.955,0,0,1,.752,35H0v-.683c.154-.118.3-.324.463-.336a2.2,2.2,0,0,0,1.4-.63,2.89,2.89,0,0,1,2.1-.885,5.777,5.777,0,0,1-.522-2.919c0-.83-.018-1.66-.013-2.49a.379.379,0,0,0-.3-.439A2.24,2.24,0,0,1,1.723,25.1a4.893,4.893,0,0,0-.327-.811C.942,23.458.467,22.634,0,21.806v-.342m33.333-1.345a.634.634,0,0,0-.1-.006c-2.018.272-4.036.538-6.052.82a3.638,3.638,0,0,0-3.324,3.727,4.075,4.075,0,0,1-1.025,2.614l-.284.327h.888a1.942,1.942,0,0,0,2.07-2.009,2.936,2.936,0,0,1,2.567-2.832c1.3-.165,2.6-.321,3.893-.49.125-.017.3-.062.351-.15.354-.658.682-1.329,1.02-2M20.242,4.234a1.6,1.6,0,0,0-1.466-1.226c-.932-.028-1.866-.028-2.8,0a1.6,1.6,0,0,0-1.463,1.226ZM9.9,23.844c.36,0,.7.008,1.035-.007a.23.23,0,0,0,.164-.154c.013-.505.008-1.011.008-1.533H9.9Zm-7.015-.032V22.153H1.4c.253.463.517.874.709,1.315a.566.566,0,0,0,.778.344m1.07.015h.913V22.151H3.953Zm1.979-1.675v1.692c.266,0,.514.013.758-.009a.254.254,0,0,0,.171-.18c.015-.5.008-.99.008-1.5Zm2.919-.018c-.264,0-.477,0-.691,0-.076,0-.153.014-.243.023v1.687a7.061,7.061,0,0,0,.733-.01.278.278,0,0,0,.192-.193c.017-.485.009-.972.009-1.508" fill="#fff"></path><path id="Trazado_6219" data-name="Trazado 6219" d="M14.775,13.227c-.616.379-1.233.764-1.858,1.137-.132.079-.312.184-.433.149a.789.789,0,0,1-.448-.344c-.125-.242.01-.461.238-.6.581-.36,1.159-.722,1.746-1.071.181-.108.249-.2.17-.428a3.315,3.315,0,0,1,.039-2.306c.072-.189.042-.28-.128-.38-.558-.331-1.107-.676-1.658-1.017-.381-.237-.476-.485-.3-.776s.452-.331.852-.086c.62.38,1.239.762,1.875,1.153a3.5,3.5,0,0,1,1.8-1.081,3.446,3.446,0,0,1,3.288.851c.177.163.283.184.484.052.541-.356,1.1-.689,1.653-1.025.329-.2.6-.146.764.133s.082.54-.239.742c-.55.344-1.1.69-1.657,1.02-.168.1-.211.18-.136.375a3.383,3.383,0,0,1,.017,2.436c-.061.169-.017.24.121.323q.863.521,1.715,1.056c.324.2.4.465.237.741a.5.5,0,0,1-.766.131c-.555-.335-1.11-.671-1.654-1.023-.183-.119-.316-.153-.45.047a.606.606,0,0,1-.147.143,1.262,1.262,0,0,0-.61.931,1.05,1.05,0,0,1-1.127.849c-.444.009-.889.006-1.332-.015a1.157,1.157,0,0,1-1.172-1.173.569.569,0,0,0-.174-.328c-.21-.206-.443-.389-.7-.613m2.717,1.1v0c.159,0,.32-.012.478,0,.259.025.4-.059.357-.339a.855.855,0,0,1,.527-.925A2.432,2.432,0,0,0,20,10.625a2.492,2.492,0,0,0-4.494-1.118,2.478,2.478,0,0,0,.751,3.615c.224.135.411.269.423.566.028.631.035.631.67.643h.137" fill="#fff"></path><path id="Trazado_6220" data-name="Trazado 6220" d="M18.633,11.746a.5.5,0,0,1-.49-.507.495.495,0,1,1,.989.007.5.5,0,0,1-.5.5" fill="#fff"></path><path id="Trazado_6221" data-name="Trazado 6221" d="M16.525,11.745a.488.488,0,0,1-.494-.5.476.476,0,0,1,.47-.516.49.49,0,0,1,.515.51.5.5,0,0,1-.491.506" fill="#fff"></path></g></g></g></svg>