<svg xmlns="http://www.w3.org/2000/svg" xmlns:xlink="http://www.w3.org/1999/xlink" width="70" height="70" viewBox="0 0 70 70"><defs><clipPath id="clip-path"><rect id="Rect&#xE1;ngulo_3365" data-name="Rect&#xE1;ngulo 3365" width="30.72" height="35" fill="#fff"></rect></clipPath></defs><g id="plagas" transform="translate(-1136 -1082)"><circle id="Elipse_2" data-name="Elipse 2" cx="35" cy="35" r="35" transform="translate(1136 1082)" fill="#3728ae"></circle><g id="Grupo_924" data-name="Grupo 924" transform="translate(1155.64 1100)"><g id="Grupo_923" data-name="Grupo 923" clip-path="url(#clip-path)"><path id="Trazado_5311" data-name="Trazado 5311" d="M1.639,35A2,2,0,0,1,.96,33.274c-.022-.351.3-.5.622-.578q2.311-.523,4.626-1.05c.263-.06.525-.126.815-.2-.238-1.027-.467-2.022-.7-3.017-.107-.465-.2-.935-.327-1.4a.908.908,0,0,1,.167-.832c.367-.507.732-1.017,1.075-1.541a.752.752,0,0,0,.111-.465c-.11-.983-.237-1.965-.372-2.946A.552.552,0,0,0,6.8,20.9C5.639,20.155,4.467,19.43,3.3,18.7a1.124,1.124,0,0,0-.158-.058c.082.718.159,1.4.238,2.092.112.984.233,1.967.335,2.953a.673.673,0,0,1-.921.743c-.761-.234-1.517-.483-2.27-.738A.683.683,0,1,1,.954,22.4c.412.126.821.26,1.284.408-.076-.683-.148-1.321-.22-1.96-.129-1.131-.256-2.263-.389-3.393a.706.706,0,0,1,.312-.771.745.745,0,0,1,.833.071q1.908,1.2,3.824,2.388c.1.064.21.122.334.194.058-.685.105-1.339.172-1.99a18.037,18.037,0,0,1,.88-4.062c.089-.255.038-.37-.2-.5-1.064-.568-2.116-1.158-3.173-1.74a.726.726,0,0,1-.373-1.123c.307-.661.61-1.323.931-1.977a.433.433,0,0,0-.041-.494Q3.969,5.706,2.834,3.938a1.2,1.2,0,0,1-.2-.6.6.6,0,0,1,.49-.586.627.627,0,0,1,.723.257c.243.343.467.7.7,1.053.667,1.02,1.326,2.045,2,3.058a.879.879,0,0,1,.072.959C6.3,8.736,6,9.4,5.678,10.078l2.9,1.6C9.747,9.29,11.2,7.2,13.917,6.3c-.083-.135-.155-.269-.242-.393A10.873,10.873,0,0,0,7.748,1.64c-.337-.1-.677-.2-1.008-.319A.674.674,0,0,1,6.3.472.681.681,0,0,1,7.144.025a12.872,12.872,0,0,1,6.4,3.591c.583.633,1.068,1.357,1.6,2.042.074.1.132.2.184.287.492-.65.946-1.32,1.472-1.928A12.069,12.069,0,0,1,22.532.346c.326-.1.652-.2.978-.3a.684.684,0,1,1,.406,1.3c-.805.283-1.632.509-2.412.85A10.546,10.546,0,0,0,16.966,6.02c-.056.082-.1.171-.163.277,2.688.887,4.155,2.964,5.335,5.383.963-.531,1.924-1.06,2.9-1.6-.317-.678-.615-1.341-.933-1.992a.877.877,0,0,1,.067-.958c.874-1.32,1.732-2.65,2.6-3.974.259-.4.575-.517.917-.364a.672.672,0,0,1,.272,1.033c-.438.693-.893,1.375-1.34,2.062-.336.515-.663,1.036-1.011,1.542a.479.479,0,0,0-.047.554c.318.642.614,1.3.915,1.946a.733.733,0,0,1-.371,1.126q-1.611.9-3.231,1.778c-.162.089-.239.162-.171.363a20.165,20.165,0,0,1,1.038,5.862c0,.087.027.174.045.3.743-.463,1.458-.907,2.169-1.352.667-.416,1.334-.83,2-1.251a.728.728,0,0,1,.833-.059.746.746,0,0,1,.3.808c-.2,1.639-.384,3.279-.573,4.92-.012.11-.011.222-.018.383.453-.144.869-.282,1.289-.409a.682.682,0,0,1,.831.287.655.655,0,0,1-.325.967c-.812.291-1.634.566-2.463.805a.654.654,0,0,1-.825-.759c.086-.918.2-1.833.308-2.75.087-.753.171-1.506.263-2.319-.154.087-.252.136-.345.194-1.084.674-2.168,1.345-3.241,2.032a.615.615,0,0,0-.256.384c-.139.991-.257,1.985-.367,2.981a.7.7,0,0,0,.1.43q.526.8,1.094,1.569a.943.943,0,0,1,.156.836c-.32,1.362-.626,2.728-.953,4.088-.059.242-.03.331.234.389,1.7.373,3.4.767,5.093,1.155.6.138.8.453.641,1.044-.046.176-.1.349-.141.527a.983.983,0,0,1-.533.744h-.41a.793.793,0,0,1-.39-1.086c-.124-.034-.2-.059-.276-.077l-5.054-1.156c-.656-.149-.823-.421-.67-1.082.33-1.418.632-2.843,1-4.251a1.078,1.078,0,0,0-.4-1.108c-.042.125-.074.222-.107.319a13.273,13.273,0,0,1-2.885,5.059A6.305,6.305,0,0,1,16.011,33.7a5.818,5.818,0,0,1-4.763-1.69,11.717,11.717,0,0,1-2.835-4.257c-.2-.491-.378-.994-.566-1.493a1.081,1.081,0,0,0-.355,1.213c.37,1.4.668,2.81.988,4.218a.709.709,0,0,1-.6.981c-1.33.3-2.661.6-3.992.906-.472.108-.943.223-1.412.334.129.621.061.787-.421,1.092ZM9.59,12.839A17.667,17.667,0,0,0,8.455,17.56a20.3,20.3,0,0,0,.781,8.474A11.56,11.56,0,0,0,12,30.841a4.419,4.419,0,0,0,6.6.11,10.39,10.39,0,0,0,2.589-4.092,20.268,20.268,0,0,0,.583-12.028c-.166-.686-.415-1.352-.636-2.064-.191.148-.315.246-.441.342a8.768,8.768,0,0,1-4.152,1.712c-.492.069-.493.061-.493.562q0,5.947,0,11.9a2.1,2.1,0,0,1-.047.507.65.65,0,0,1-.7.481.662.662,0,0,1-.61-.591,3.5,3.5,0,0,1-.011-.41q0-6.015.006-12.032c0-.263-.054-.379-.344-.4a7.737,7.737,0,0,1-3.019-.912c-.587-.319-1.137-.7-1.735-1.078m5.78.7A7.452,7.452,0,0,0,20.3,11.665c.111-.1.223-.168.114-.361a9.092,9.092,0,0,0-2.166-2.7,4.313,4.313,0,0,0-5.857.067,9.43,9.43,0,0,0-2.037,2.548c-.127.221-.078.332.1.479a7.526,7.526,0,0,0,4.921,1.84" fill="#fff"></path><path id="Trazado_5312" data-name="Trazado 5312" d="M14.686,30.322a.66.66,0,0,1,.668-.671.678.678,0,0,1,.688.66.694.694,0,0,1-.693.695.676.676,0,0,1-.663-.684" fill="#fff"></path></g></g></g></svg>