<svg xmlns="http://www.w3.org/2000/svg" xmlns:xlink="http://www.w3.org/1999/xlink" id="poliza-maquinaria" width="475.998" height="278" viewBox="0 0 475.998 278"><defs><clipPath id="clip-path"><rect id="Rect&#xE1;ngulo_4534" data-name="Rect&#xE1;ngulo 4534" width="475.998" height="278" fill="none"></rect></clipPath><clipPath id="clip-path-2"><rect id="Rect&#xE1;ngulo_4533" data-name="Rect&#xE1;ngulo 4533" width="475.998" height="278.001" fill="none"></rect></clipPath><clipPath id="clip-path-3"><rect id="Rect&#xE1;ngulo_4524" data-name="Rect&#xE1;ngulo 4524" width="61.421" height="38.684" fill="none"></rect></clipPath><clipPath id="clip-path-4"><rect id="Rect&#xE1;ngulo_4526" data-name="Rect&#xE1;ngulo 4526" width="61.421" height="38.685" fill="none"></rect></clipPath></defs><g id="Grupo_1531" data-name="Grupo 1531" clip-path="url(#clip-path)"><g id="Grupo_1530" data-name="Grupo 1530" transform="translate(0 -0.001)"><g id="Grupo_1529" data-name="Grupo 1529" clip-path="url(#clip-path-2)"><path id="Trazado_7359" data-name="Trazado 7359" d="M38.95,285.423s-91.276-140.077,5.629-178.388c24.409-9.65,32.924-144.753,141.347-77.2,43.118,26.864,105.2-5.645,164.661,12.124,54.6,16.318,55.859,63.391,48.955,80.336C392,140.81,422.08,162.948,452.889,178.152c48.327,23.85,12.79,107.668-32.865,108.068s-381.074-.8-381.074-.8" transform="translate(0 -9.052)" fill="#ebf3fa"></path><path id="Trazado_7360" data-name="Trazado 7360" d="M486.285,618.757s42.81-1.018,61.1-26.964c33.14-47,18.2-88.224-40.794-85.156-66,3.432-57.862-142.275-172.145-72.123-24.816,15.233-80.047-16.758-102.112,49.894-5.247,15.849-44.652,16.953-70.119,29.664-39.947,19.937-28.666,105.017,9.073,105.352s314.995-.667,314.995-.667" transform="translate(-112.91 -342.027)" fill="#ebf2f9"></path><path id="Trazado_7361" data-name="Trazado 7361" d="M365.589,79.654h-2.05l-.458-26.839-89.6-26.992L235.031,52.1l1.4-.508a2.212,2.212,0,0,0-2.206,2.206V66.665a2.212,2.212,0,0,0,2.206,2.206h18.748a2.212,2.212,0,0,0,2.206-2.206V61.518h12.5V298.261h14.7V61.518h60.487l16.862,18.135h-3.459a2.212,2.212,0,0,0-2.206,2.206v2.206a2.212,2.212,0,0,0,2.206,2.206h7.107a2.212,2.212,0,0,0,2.206-2.206V81.86a2.212,2.212,0,0,0-2.206-2.206M257.355,53.431a2.212,2.212,0,0,0-2.172-1.838h-17.6l36.108-24.362,86.973,26.2Zm89.481,8.087,15.045.282.372,16.3Z" transform="translate(-192.861 -21.261)" fill="#d2e4ff"></path><path id="Trazado_7362" data-name="Trazado 7362" d="M2023.058,324.785l1.036.415-26.447-18.091-61.463,18.515-.314,18.41h-1.406a1.517,1.517,0,0,0-1.513,1.513v1.513a1.517,1.517,0,0,0,1.513,1.513h4.875a1.517,1.517,0,0,0,1.513-1.513v-1.513a1.517,1.517,0,0,0-1.513-1.513h-2.373l11.566-12.44h41.491V493.986h10.087V331.593h8.574v3.53a1.517,1.517,0,0,0,1.513,1.513h12.86a1.517,1.517,0,0,0,1.513-1.513V326.3a1.517,1.517,0,0,0-1.513-1.513m-86.3,18.182.329-11.374h10.246Zm73.444-18.182a1.517,1.517,0,0,0-1.49,1.261h-70.866l59.659-17.972,24.768,16.711Z" transform="translate(-1591.567 -252.868)" fill="#d2e4ff"></path><rect id="Rect&#xE1;ngulo_4522" data-name="Rect&#xE1;ngulo 4522" width="84.858" height="264.061" transform="translate(224.963 13.156)" fill="#d2e4ff"></rect><g id="Grupo_1522" data-name="Grupo 1522" transform="translate(224.963 49.592)" opacity="0.5"><g id="Grupo_1521" data-name="Grupo 1521"><g id="Grupo_1520" data-name="Grupo 1520" clip-path="url(#clip-path-3)"><rect id="Rect&#xE1;ngulo_4523" data-name="Rect&#xE1;ngulo 4523" width="61.42" height="38.685" transform="translate(0 -0.001)" fill="#aed3ff"></rect></g></g></g><g id="Grupo_1525" data-name="Grupo 1525" transform="translate(224.963 120.429)" opacity="0.5"><g id="Grupo_1524" data-name="Grupo 1524"><g id="Grupo_1523" data-name="Grupo 1523" clip-path="url(#clip-path-4)"><rect id="Rect&#xE1;ngulo_4525" data-name="Rect&#xE1;ngulo 4525" width="61.42" height="38.685" transform="translate(0 0)" fill="#aed3ff"></rect></g></g></g><g id="Grupo_1528" data-name="Grupo 1528" transform="translate(224.963 190.353)" opacity="0.5"><g id="Grupo_1527" data-name="Grupo 1527"><g id="Grupo_1526" data-name="Grupo 1526" clip-path="url(#clip-path-4)"><rect id="Rect&#xE1;ngulo_4527" data-name="Rect&#xE1;ngulo 4527" width="61.42" height="38.685" transform="translate(0 0)" fill="#aed3ff"></rect></g></g></g><path id="Trazado_7363" data-name="Trazado 7363" d="M1750.749,290.121H1739.3V254.348h-94.334V74.487h-23.437V338.7h23.438v-.149h105.786Z" transform="translate(-1335.143 -61.331)" fill="#aed3ff"></path><path id="Trazado_7364" data-name="Trazado 7364" d="M953.3,442.262v-1.425h-3.119V431.43H947.6v9.406h-6.54V431.43H938.48v9.406h-7.11V431.43h-2.582v9.406h-6.54V431.43h-2.582v9.406h-3.421v1.425h3.421v4.58h-3.421v1.425h3.421v4.58h-3.421v1.425h3.421v4.58h-3.421v1.425h3.421v4.58h-3.421v1.425h3.421v4.58h-3.421v1.425h3.421v3.706h-3.421v1.425h3.421V482h-3.421v1.425h3.421V488h-3.421v1.425h3.421v4.58h-3.421v1.425h3.421v4.58h-3.421v1.425h3.421v4.58h-3.421v1.425h3.421v4.371h-3.421v1.425h3.421v4.58h-3.421v1.425h3.421v4.58h-3.421v1.425h3.421v4.58h-3.421v1.425h3.421v4.58h-3.421v1.425h3.421v4.58h-3.421v1.425h3.421v3.706h-3.421v1.425h3.421v4.58h-3.421V554.4h3.421v4.58h-3.421V560.4h3.421v4.58h-3.421v1.425h3.421v4.58h-3.421v1.425h3.421v4.58h-3.421v1.425h3.421V582.5h-3.421v1.425h3.421v4.58h-3.421v1.425h3.421v4.58h-3.421v1.425h3.421v4.58h-3.421v1.425h3.421v4.58h-3.421v1.425h3.421v4.58h-3.421v1.425h3.421v3.706h-3.421v1.425h3.421v4.58h-3.421v1.425h3.421v4.58h-3.421V631.1H953.3V629.67h-3.119v-4.58H953.3v-1.425h-3.119v-4.58H953.3V617.66h-3.119v-3.706H953.3v-1.425h-3.119v-4.58H953.3v-1.425h-3.119v-4.58H953.3V600.52h-3.119v-4.58H953.3v-1.425h-3.119v-4.58H953.3V588.51h-3.119v-4.58H953.3V582.5h-3.119v-4.085H953.3v-1.425h-3.119v-4.58H953.3v-1.425h-3.119v-4.58H953.3v-1.425h-3.119V560.4H953.3v-1.425h-3.119V554.4H953.3v-1.425h-3.119v-4.58H953.3v-1.425h-3.119v-3.706H953.3v-1.425h-3.119v-4.58H953.3v-1.425h-3.119v-4.58H953.3v-1.425h-3.119v-4.58H953.3v-1.425h-3.119v-4.58H953.3v-1.425h-3.119v-4.58H953.3v-1.425h-3.119v-4.371H953.3v-1.425h-3.119v-4.58H953.3v-1.425h-3.119v-4.58H953.3v-1.425h-3.119v-4.58H953.3V488h-3.119v-4.58H953.3V482h-3.119v-4.58H953.3v-1.425h-3.119v-3.706H953.3v-1.425h-3.119v-4.58H953.3v-1.425h-3.119v-4.58H953.3v-1.425h-3.119v-4.58H953.3v-1.425h-3.119v-4.58H953.3v-1.425h-3.119v-4.58Zm-14.822,4.58h-7.11v-4.58h7.11Zm-7.11,172.244h7.11v4.58h-7.11Zm7.11,10.585h-7.11v-4.58h7.11Zm-7.11-15.716h7.11v3.706h-7.11Zm0-6.005h7.11v4.58h-7.11Zm0-6h7.11v4.58h-7.11Zm0-6.005h7.11v4.58h-7.11Zm0-6.005h7.11v4.58h-7.11Zm0-6.005h7.11v4.58h-7.11Zm0-5.511h7.11V582.5h-7.11Zm0-6.005h7.11v4.58h-7.11Zm0-6.005h7.11v4.58h-7.11Zm0-6.005h7.11v4.58h-7.11Zm0-6.005h7.11v4.58h-7.11Zm0-6.005h7.11v4.58h-7.11Zm0-5.131h7.11v3.706h-7.11Zm0-6.005h7.11v4.58h-7.11Zm0-6h7.11v4.58h-7.11Zm0-6.005h7.11v4.58h-7.11Zm0-6h7.11v4.58h-7.11Zm0-6.005h7.11v4.58h-7.11Zm0-5.8h7.11v4.371h-7.11Zm0-6h7.11v4.58h-7.11Zm0-6.005h7.11v4.58h-7.11Zm0-6.005h7.11v4.58h-7.11Zm0-6h7.11V488h-7.11Zm0-6.005h7.11V482h-7.11Zm0-5.131h7.11v3.706h-7.11Zm0-6.005h7.11v4.58h-7.11Zm0-6.005h7.11v4.58h-7.11Zm0-6.005h7.11v4.58h-7.11Zm0-6h7.11v4.58h-7.11Zm-9.122-6.005h6.54v4.58h-6.54Zm0,6.005h6.54v4.58h-6.54Zm0,6h6.54v4.58h-6.54Zm0,6.005h6.54v4.58h-6.54Zm0,6.005h6.54v4.58h-6.54Zm0,6.005h6.54v3.706h-6.54Zm0,5.131h6.54V482h-6.54Zm0,6.005h6.54V488h-6.54Zm0,6h6.54v4.58h-6.54Zm0,6.005h6.54v4.58h-6.54Zm0,6.005h6.54v4.58h-6.54Zm0,6h6.54v4.371h-6.54Zm0,5.8h6.54v4.58h-6.54Zm0,6.005h6.54v4.58h-6.54Zm0,6h6.54v4.58h-6.54Zm0,6.005h6.54v4.58h-6.54Zm0,6h6.54v4.58h-6.54Zm0,6.005h6.54v3.706h-6.54Zm0,5.131h6.54v4.58h-6.54Zm0,6.005h6.54v4.58h-6.54Zm0,6.005h6.54v4.58h-6.54Zm0,6.005h6.54v4.58h-6.54Zm0,6.005h6.54v4.58h-6.54Zm0,6.005h6.54V582.5h-6.54Zm0,5.511h6.54v4.58h-6.54Zm0,6.005h6.54v4.58h-6.54Zm0,6.005h6.54v4.58h-6.54Zm0,6.005h6.54v4.58h-6.54Zm0,6h6.54v4.58h-6.54Zm0,6.005h6.54v3.706h-6.54Zm0,5.131h6.54v4.58h-6.54Zm0,6h6.54v4.58h-6.54Zm25.353,4.58h-6.54v-4.58h6.54Zm0-6.005h-6.54v-4.58h6.54Zm0-6.005h-6.54v-3.706h6.54Zm0-5.131h-6.54v-4.58h6.54Zm0-6.005h-6.54v-4.58h6.54Zm0-6h-6.54v-4.58h6.54Zm0-6.005h-6.54v-4.58h6.54Zm0-6.005h-6.54v-4.58h6.54Zm0-6.005h-6.54v-4.086h6.54Zm0-5.511h-6.54v-4.58h6.54Zm0-6.005h-6.54v-4.58h6.54Zm0-6.005h-6.54V560.4h6.54Zm0-6h-6.54V554.4h6.54Zm0-6h-6.54v-4.58h6.54Zm0-6.005h-6.54v-3.706h6.54Zm0-5.131h-6.54v-4.58h6.54Zm0-6.005h-6.54v-4.58h6.54Zm0-6.005h-6.54v-4.58h6.54Zm0-6.005h-6.54v-4.58h6.54Zm0-6.005h-6.54v-4.58h6.54Zm0-6h-6.54v-4.371h6.54Zm0-5.8h-6.54v-4.58h6.54Zm0-6.005h-6.54v-4.58h6.54Zm0-6.005h-6.54v-4.58h6.54Zm0-6.005h-6.54v-4.58h6.54Zm0-6h-6.54v-4.58h6.54Zm0-6.005h-6.54v-3.706h6.54Zm0-5.131h-6.54v-4.58h6.54Zm0-6.005h-6.54v-4.58h6.54Zm0-6h-6.54v-4.58h6.54Zm0-6.005h-6.54v-4.58h6.54Zm0-6.005h-6.54v-4.58h6.54Z" transform="translate(-754.425 -355.233)" fill="#d2e4ff"></path><rect id="Rect&#xE1;ngulo_4529" data-name="Rect&#xE1;ngulo 4529" width="0.914" height="16.263" transform="translate(229.355 0)" fill="#d2e4ff"></rect><rect id="Rect&#xE1;ngulo_4530" data-name="Rect&#xE1;ngulo 4530" width="0.914" height="16.263" transform="translate(279.971 0)" fill="#d2e4ff"></rect><rect id="Rect&#xE1;ngulo_4531" data-name="Rect&#xE1;ngulo 4531" width="0.914" height="16.263" transform="translate(235.751 0)" fill="#d2e4ff"></rect><rect id="Rect&#xE1;ngulo_4532" data-name="Rect&#xE1;ngulo 4532" width="0.914" height="16.263" transform="translate(284.539 0)" fill="#d2e4ff"></rect><path id="Trazado_7365" data-name="Trazado 7365" d="M1754.164,1533.16a18.556,18.556,0,0,1,1.188-5.809c1.014-2.028,9.126-.634,9.126-.634s1.869,3.383,1.616,6.424Z" transform="translate(-1444.355 -1256.693)" fill="#233862"></path><path id="Trazado_7366" data-name="Trazado 7366" d="M1630.907,1533.16a18.556,18.556,0,0,1,1.188-5.809c1.014-2.028,9.126-.634,9.126-.634s1.87,3.383,1.616,6.424Z" transform="translate(-1342.867 -1256.693)" fill="#233862"></path><path id="Trazado_7367" data-name="Trazado 7367" d="M1691.357,617.73c-1.013.734-10.185,5.521-10.185,5.521l-9.672-6.9s2.938-.428,3.015-.451c.873-.243.833-2.584.943-5.076.017-.384.038-.772.067-1.156l9.47-.344.008.118c.008.12.017.245.027.377l.019.27c.006.093.013.186.021.283.171,2.19.536,5.283,1.236,5.645.4.205,3.093.173,5.052,1.709" transform="translate(-1376.292 -501.712)" fill="#d9935c"></path><path id="Trazado_7368" data-name="Trazado 7368" d="M1703.524,610.378c-.781,1.563-2.521,4.283-5.1,4.194-2.464-.087-3.867-2.327-4.51-3.742.017-.384.038-.772.067-1.156l9.47-.344.008.118.027.376.019.27c.006.093.014.186.021.283" transform="translate(-1394.746 -501.713)" fill="#cb7d45"></path><path id="Trazado_7369" data-name="Trazado 7369" d="M1687.913,482.432a7.151,7.151,0,0,1,9.957.092s-3.2-.665-9.957-.092" transform="translate(-1389.805 -395.585)" fill="#2b478b"></path><path id="Trazado_7370" data-name="Trazado 7370" d="M1666.563,503.423a39.172,39.172,0,0,1-2.339-6.483c-.637-2.49-.054-11.94,9.447-11.3a12.808,12.808,0,0,1,5.447,1.6c2.144,1.225,5.313,3.98,2.632,12.39l-.649,2.822Z" transform="translate(-1370.15 -399.844)" fill="#b64c41"></path><path id="Trazado_7371" data-name="Trazado 7371" d="M1688.776,536.506c-2.453,2.345-5.5,5.47-12.068-.309-1.285-1.131-1.2-2.869-1.273-5.365-.09-2.955-.8-4.765-.471-6.468.392-2.038,2.135-2.959,5.752-3.273,6.641-.576,10,.92,9.551,4.215-.995,7.355,1,8.816-1.492,11.2" transform="translate(-1379.072 -428.958)" fill="#d9935c"></path><path id="Trazado_7372" data-name="Trazado 7372" d="M1722.928,518.189s3.937-.083,4.835,1.233,1.023,2.789,1.476,3.531a2.86,2.86,0,0,1,.379,1.575l.873-5.876-5.328-1.059Z" transform="translate(-1418.636 -426.178)" fill="#b64c41"></path><path id="Trazado_7373" data-name="Trazado 7373" d="M1641.384,657.621s-1.681,4.955-8.5,5.861c-.184.025-.374.046-.566.065h-27.758l-.148-.046c-1.078-.342-7.709-2.614-8.407-6.863,0,0,3.487-7.16,6.149-8.048a16.871,16.871,0,0,1,2.979-.6c1.154-.148,2.369-.247,3.388-.312,1.4-.087,2.433-.11,2.433-.11a8.364,8.364,0,0,0,7.422,4.318c5.261-.063,6.48-4.253,6.48-4.253s1.477.042,3.439.255c1.082.116,2.31.283,3.521.525a12.775,12.775,0,0,1,5.192,1.953c3.042,2.471,4.373,7.257,4.373,7.257" transform="translate(-1314.132 -533.197)" fill="#9ed9f0"></path><path id="Trazado_7374" data-name="Trazado 7374" d="M1641.625,696.453c-.3-1.641-.735-4.139-1.08-6.336,0-.03,1.029-12.4,1.409-14.492s-2.2-13.47-2.2-13.47c-.6-1.741-1.62-2.274-2.4-2.274l1.314-10.957c-1.211-.241-2.439-.409-3.521-.525l-.629,11.481-.01.165c-1.439.08-3.234.177-4.905.251s-3.219.131-4.172.131c-1.937,0-6.382-.223-9.335-.384l-.011-.163-.713-11.691c-1.019.065-2.234.164-3.388.312l1.255,11.379v0c-.827,0-1.778,1.468-1.909,2.283l-.128,3.56a40.5,40.5,0,0,0-2.134,8.568c-.284,3.694,1.259,16.547,1.27,16.635-.056,1.532-.165,3.49-.374,5.384a105.68,105.68,0,0,0-5.6,37.408c.47,18.345.747,49.69,2.909,64.909a41.552,41.552,0,0,0,1.211,6.011,2.029,2.029,0,0,0,1.665,1.409c2.479.344,8.066.977,10.471.1,1.152-.42,1.977-6.818,2.561-15.065.559-7.907.9-17.516,1.082-25.185,0,0,0,0,0,0,.15-6.114.207-10.995.207-12.8,0-4.088.966-16.08,1.285-23.134a.157.157,0,0,1,.314,0v0c.485,8.375,2.177,21.075,2.2,23.9.063,6.844-.335,50.818,2.656,52.295,2.287,1.129,7.677.276,10.252-.073a2.372,2.372,0,0,0,1.959-1.693c3.217-11.064,3.5-49.51,4.044-70.667a105.951,105.951,0,0,0-5.551-37.269" transform="translate(-1320.975 -533.711)" fill="#2b478b"></path><path id="Trazado_7375" data-name="Trazado 7375" d="M1570.069,752.062c-.951.76-4.055.443-5.259-.57s-3.612-.7-4.183-1.078c-.04-.026-11.249-13.31-12.464-18.9-1.226-5.641,6.532-21.164,8.729-25.4,1.625,3.434,7.04,5.287,8.006,5.593l.148.046h.3c-1.827,4.939-7.289,13.831-9.394,17.181a2.907,2.907,0,0,0-.175,2.768c2.7,5.8,5.348,10.687,6.506,14.075.23.377.724,1.049,1.321.958.825-.127,3.487-.7,4.818,1.266s2.6,3.3,1.646,4.057" transform="translate(-1274.63 -581.406)" fill="#d9935c"></path><path id="Trazado_7376" data-name="Trazado 7376" d="M1671.244,468.425a13.984,13.984,0,0,0-2.039-2.1c-.207-.179-.43-.36-.668-.538a10.633,10.633,0,0,0-10.9-1.682,10.357,10.357,0,0,0-3.173,2.062c-.206.195-.4.394-.584.6-4.026,4.467-3.685,11.472-3.685,11.472l23.231-.249c.076-6.486-2.18-9.563-2.18-9.563" transform="translate(-1358.741 -381.444)" fill="#ffa412"></path><path id="Trazado_7377" data-name="Trazado 7377" d="M1666.931,490.79c-.065-.977-.51-8.993,2.307-11.734a4.658,4.658,0,0,0-.4-.329c-3,3.152-3.2,11.045-3.184,12.077l-7.427.079c-.22-5.69-3.36-11.355-3.737-11.987a5.234,5.234,0,0,0-.428.44,33.9,33.9,0,0,1,2.792,11.563l-6.632.071a50.713,50.713,0,0,0,10.848,1.542c4.66-.058,12.384-1.79,12.384-1.79Z" transform="translate(-1358.774 -394.177)" fill="#e27f2b"></path><path id="Trazado_7378" data-name="Trazado 7378" d="M1605.3,614.636c-2.376,4.563-9.126,5.418-9.126,5.418,2.186-5.323-2.219-7-4.943-12.453s2.091-9.063,2.091-9.063c-2.979.57-3.55,4.563-3.55,4.563-.253-2.662,1.966-7.16,9-8.048,5.15-.65,6.394-2.386,6.69-3.27a3.855,3.855,0,0,0,1.163,2.721c.544.479,1.065.9,1.561,1.259-.011.207-.021.414-.03.62-.03.7-.049,1.392-.082,2.025a3.431,3.431,0,0,0-.738,3,3.34,3.34,0,0,0,.243.745,6.283,6.283,0,0,1,1.221,3.04c.327,3.015-1.721,6.025-3.5,9.445" transform="translate(-1308.983 -487.265)" fill="#b64c41"></path><path id="Trazado_7379" data-name="Trazado 7379" d="M1667.9,891.623l-1.027-6.036a47.068,47.068,0,0,1-13.9,2.885,3.358,3.358,0,0,0-2.474-1.727l-3.687-.533a3.359,3.359,0,0,0-3.464,1.784,36.527,36.527,0,0,1-6.688-1.628l0,.032-.367,5.3v.013c2.129.566,4.172,1.007,6.123,1.342l-.109.737a3.361,3.361,0,0,0,2.827,3.814l4.085.612a3.361,3.361,0,0,0,3.852-3.114l.071-1.137a43.893,43.893,0,0,0,14.756-2.347" transform="translate(-1347.3 -729.18)" fill="#233862"></path><path id="Trazado_7380" data-name="Trazado 7380" d="M1796.146,732.975c-1.215,5.589-12.425,18.873-12.464,18.9a1.224,1.224,0,0,1-.439.144l-.021,0c-.926.16-2.732.093-3.723.93-1.2,1.013-4.31,1.331-5.261.57s.317-2.091,1.648-4.057,3.992-1.393,4.816-1.266c.49.074.915-.367,1.175-.736l.016-.021c.049-.072.095-.141.131-.2,1.133-3.314,3.686-8.059,6.325-13.689a3.666,3.666,0,0,0-.209-3.5c-1.762-2.816-5.34-8.666-7.643-13.36-.268-1.357-.536-2.633-.743-3.6,5.057-.814,7.15-3.89,7.827-5.2,2.39,4.637,9.762,19.573,8.565,25.083" transform="translate(-1460.611 -582.868)" fill="#d9935c"></path><path id="Trazado_7381" data-name="Trazado 7381" d="M2043.167,673.463c2.007,6.142,12.943,16.76,14.454,17.818,0,0,2.545-4.241,2.036-6.616-.416-1.939-4.673-8.85-6.131-12.246-.076-.176-.144-.344-.2-.5a3.052,3.052,0,0,1-.282-1.164c.073-.738,2.392-2.533,5.087-4.662,3.5-2.768,7.642-6.1,8.314-8.4,1.188-4.071,5.3-20.191,5.3-20.191s-10.22,2.21-13.1,4.755-15.267,23.749-15.776,29.177a5.1,5.1,0,0,0,.3,2.029" transform="translate(-1682.055 -524.91)" fill="#ffa412"></path><path id="Trazado_7382" data-name="Trazado 7382" d="M2044.648,832.787c2.007,6.142,12.943,16.76,14.455,17.818,0,0,2.544-4.241,2.035-6.616-.437-2.039-5.126-9.581-6.334-12.746a15.9,15.9,0,0,0-10.156,1.544" transform="translate(-1683.536 -684.234)" fill="#d9935c"></path><path id="Trazado_7383" data-name="Trazado 7383" d="M2206.266,595.815l.007,1.252s-.341,3.915,4.48,4.487,8.451-1.176,8.321-4.2a39,39,0,0,1-.921-6.232,13.614,13.614,0,0,1,.171-2.344l-9.342-.187-2.751.45Z" transform="translate(-1816.58 -484.64)" fill="#d9935c"></path><path id="Trazado_7384" data-name="Trazado 7384" d="M2206.23,589.044l.036,6.772a7.9,7.9,0,0,0,3.367.743c4.293,0,7.069-3.148,8.519-5.433a13.614,13.614,0,0,1,.171-2.344l-9.342-.187Z" transform="translate(-1816.58 -484.64)" fill="#cb7d45"></path><path id="Trazado_7385" data-name="Trazado 7385" d="M2253.054,1537.665a21.961,21.961,0,0,1,1.5-5.632c1.05-2.1,7.732-.764,7.732-.764s1.336,1.146,1.623,6.491Z" transform="translate(-1855.135 -1260.48)" fill="#233862"></path><path id="Trazado_7386" data-name="Trazado 7386" d="M2025.013,1517.3c1.57-.958.677-8.108.677-8.108s-7.317-5.853-8.323-1.372-6.951,6.493-10.335,7.042c-2.336.379-3.059,1.672-3.283,2.438Z" transform="translate(-1649.86 -1240.129)" fill="#233862"></path><path id="Trazado_7387" data-name="Trazado 7387" d="M2093.745,1016.021a33.74,33.74,0,0,0-.537,3.952c-.68,13.267-11.168,43.6-13.043,44.308-2.9,1.1-7.473-1.233-9.865-1.995a2.051,2.051,0,0,1-1.439-2.33c5.194-23.876,7.1-58.256,7.8-78.611a92.353,92.353,0,0,1,2.111-17.335s25.578-6.825,25.73,1.809c.135,7.639-8.473,37.6-10.754,50.2" transform="translate(-1703.438 -791.644)" fill="#2b478b"></path><path id="Trazado_7388" data-name="Trazado 7388" d="M2130.291,1016.021,2113.2,981.346a92.378,92.378,0,0,1,2.111-17.335s25.578-6.825,25.73,1.809c.135,7.639-8.473,37.6-10.754,50.2" transform="translate(-1739.984 -791.644)" fill="#233862"></path><path id="Trazado_7389" data-name="Trazado 7389" d="M2177.73,971.824l13.522,98s5.938,1.432,10.557.286c0,0,3.959-52.122,3.629-64.723s2.841-33.718-.724-36.047-26.983,2.481-26.983,2.481" transform="translate(-1793.114 -797.619)" fill="#2b478b"></path><path id="Trazado_7390" data-name="Trazado 7390" d="M2120.32,699.3a35.6,35.6,0,0,0,16.917,3.915,75.046,75.046,0,0,0,10.176-.765c8.027-1.191,12.078-3.432,12.046-4.266-.027-.753-.08-3.255-.175-4.331-1.276-14.711-.616-26.153-2.333-34.748-.02-.1-.041-.207-.062-.309-2.271-10.928-5.832-17.206-7.6-19.781a9.764,9.764,0,0,0-1.072-1.384c0,2.039-4.343,3.8-7.883,3.569-2.982-.2-4.918-2.463-4.918-3.691l0,0c-.244,0-13.452,9.18-13.464,17.711-.046,38.232-2.363,44.1-1.63,44.083" transform="translate(-1745.725 -524.911)" fill="#ffa412"></path><path id="Trazado_7391" data-name="Trazado 7391" d="M2270.837,803.019c.007.042.012.085.019.125,8.027-1.191,12.078-3.432,12.046-4.266-.027-.753-.08-3.256-.175-4.331-1.276-14.711-.616-26.152-2.333-34.748-4.214,5.632-12.875,20.382-9.557,43.219" transform="translate(-1869.167 -625.608)" fill="#e27f2b"></path><path id="Trazado_7392" data-name="Trazado 7392" d="M2149.792,835.13l1.079,3.589,1.072,3.562,46.565-14.007a.561.561,0,0,0,.192-.022.62.62,0,0,0,.18-.088c.587-.416.694-1.937.242-3.652-.024-.1-.051-.19-.08-.287-.545-1.844-1.535-3.208-2.3-3.219a.59.59,0,0,0-.182.024.616.616,0,0,0-.171.083Z" transform="translate(-1770.11 -676.004)" fill="#e9f3fe"></path><path id="Trazado_7393" data-name="Trazado 7393" d="M2155.9,855.066l1.072,3.562,46.564-14.007a.557.557,0,0,0,.192-.022.621.621,0,0,0,.18-.088c.587-.416.694-1.937.242-3.652-1.9,1.428-10.994,7.747-26.51,10.821-16.039,3.177-21,3.376-21.74,3.386" transform="translate(-1775.139 -692.351)" fill="#bed4f4"></path><path id="Trazado_7394" data-name="Trazado 7394" d="M2146.016,900.745c.779-.23,1.888,1.2,2.477,3.2s.436,3.8-.343,4.029-1.888-1.2-2.477-3.2-.436-3.8.343-4.029" transform="translate(-1766.424 -741.641)" fill="#afcdfb"></path><path id="Trazado_7395" data-name="Trazado 7395" d="M2213.392,809.7l5.49-.891a.641.641,0,0,1,.181-.059.6.6,0,0,1,.182,0c.753.112,1.555,1.593,1.854,3.493.017.1.031.2.042.3a7.6,7.6,0,0,1-.02,2.243,1.9,1.9,0,0,1-.68,1.333l-.019.012a.6.6,0,0,1-.19.064.574.574,0,0,1-.193,0l-48,7.788-.6-3.671-.6-3.7Z" transform="translate(-1787.446 -665.91)" fill="#e9f3fe"></path><path id="Trazado_7396" data-name="Trazado 7396" d="M2196.233,819.8c10.266-.66,15.708-6.088,19.95-10.093l5.49-.891a.639.639,0,0,1,.181-.059.6.6,0,0,1,.182,0c.753.112,1.555,1.593,1.854,3.493.017.1.031.2.042.3a7.6,7.6,0,0,1-.02,2.243,3.571,3.571,0,0,1-.68,1.333l-.019.012a.607.607,0,0,1-.19.064.575.575,0,0,1-.193,0l-48,7.788-.6-3.671c.733.087,5.679.54,22-.511" transform="translate(-1790.238 -665.909)" fill="#bed4f4"></path><path id="Trazado_7397" data-name="Trazado 7397" d="M2165.779,853.036c.8-.126,1.714,1.438,2.037,3.493s-.066,3.823-.868,3.949-1.714-1.438-2.037-3.493.066-3.823.868-3.949" transform="translate(-1782.466 -702.372)" fill="#afcdfb"></path><path id="Trazado_7398" data-name="Trazado 7398" d="M2256.535,690.284a49.274,49.274,0,0,0,21.513-8.692c1.031-.77,1.557-1.26,1.557-1.26,5.7-11.993-4.616-33.021-6.5-36.585-2.036-3.844-14.465-5.533-14.465-5.533a67.647,67.647,0,0,1,2.76,13.45c.775,7.611,9.046,22.448,8.707,23.693a7.771,7.771,0,0,1-2.541,1.8c-4.321,2.46-12.67,6.426-13.177,7.357-.679,1.243,2.148,5.768,2.148,5.768" transform="translate(-1856.146 -525.495)" fill="#d9935c"></path><path id="Trazado_7399" data-name="Trazado 7399" d="M2199.779,892.388s-6.22-2.488-7.747-1.47-4.071,2.545-4.071,3.562,3.223,3.732,5.938,4.58,8.029-.9,8.029-.9Z" transform="translate(-1801.538 -733.368)" fill="#d9935c"></path><path id="Trazado_7400" data-name="Trazado 7400" d="M2281.708,651.664c.775,7.611,9.046,22.448,8.707,23.693a7.773,7.773,0,0,1-2.541,1.8,2.532,2.532,0,0,0,.28.005c6.507-.287,9.452,3.313,10.2,4.427,1.031-.77,1.557-1.26,1.557-1.26,5.7-11.993-4.616-33.021-6.5-36.585-2.035-3.844-14.465-5.533-14.465-5.533a67.647,67.647,0,0,1,2.76,13.45" transform="translate(-1876.455 -525.496)" fill="#ffa412"></path><path id="Trazado_7401" data-name="Trazado 7401" d="M2193.5,517.7s11.964,2.417,13.355-5.057,3.871-12.2-3.709-14.055-9.6.716-10.67,3.1-2.052,15.193,1.024,16.014" transform="translate(-1804.4 -410.01)" fill="#d9935c"></path><path id="Trazado_7402" data-name="Trazado 7402" d="M2209.291,500.385a39.954,39.954,0,0,1,4.242-7.128c1.929-2.192.877-13.152-7.453-12.8s-11.311,6.313-11.4,7.453,6.664.263,8.505,1.754.088,3.946,2.192,4.822,3.77.877,3.42,2.806a4.232,4.232,0,0,0,.493,3.1" transform="translate(-1807.071 -395.593)" fill="#233862"></path><path id="Trazado_7403" data-name="Trazado 7403" d="M2194.609,449.663a13.18,13.18,0,0,1,5.506,2.707c.132.114.261.231.385.349l0,0c4.94,4.711,2.969,12.208,2.969,12.208a19.733,19.733,0,0,1-1.11,2.629c-.452.735-7.011-.113-7.351-1.527a8.273,8.273,0,0,0-1.64-2.884s-6.914-.475-7.379-.509a40.967,40.967,0,0,1-6.02-1.664c.051-.438,2.56-14.346,14.638-11.313" transform="translate(-1794.959 -369.89)" fill="#ffa412"></path><path id="Trazado_7404" data-name="Trazado 7404" d="M2154.958,474.072a23.479,23.479,0,0,1,4.574-.514,18.684,18.684,0,0,0,5.847,2.856c1.829-2.3,7.037-7.855,13.819-9.479l.059-.015c.144.182.226.243.326.365l0,0a1.5,1.5,0,0,1,.1.13c-5.521.962-10.769,7.163-12.57,9.484a30.779,30.779,0,0,0,5.339.813s-12.084.225-17.607-2.683a.516.516,0,0,1,.112-.959" transform="translate(-1774.042 -384.455)" fill="#e27f2b"></path><path id="Trazado_7405" data-name="Trazado 7405" d="M2087.079,764.343a3.452,3.452,0,0,0,2.86,3.021c-.076-.176-.144-.344-.2-.5a3.051,3.051,0,0,1-.281-1.164c.073-.738,2.392-2.533,5.087-4.662a19.408,19.408,0,0,0,0-7.637c-.933-3.477-7.719,9.5-7.464,10.941" transform="translate(-1718.467 -619.854)" fill="#e27f2b"></path><path id="Trazado_7406" data-name="Trazado 7406" d="M2330.787,853.728s8.312-.679,11.026,4.156a1.351,1.351,0,0,1-1.841,1.133s-7.031-4.806-10.483-4.432a1.873,1.873,0,0,1,1.3-.857" transform="translate(-1918.07 -702.921)" fill="#e27f2b"></path><path id="Trazado_7407" data-name="Trazado 7407" d="M2053.987,830.276a30.156,30.156,0,0,0-9.741,2.545s-1.205-1.184-.724-1.862,8.123-3.118,10.465-.682" transform="translate(-1682.516 -682.766)" fill="#e27f2b"></path><path id="Trazado_7408" data-name="Trazado 7408" d="M1070.785,640.98c1.949.45,10.754.557,16.936-.832a18.9,18.9,0,0,0,3.441-1.073,5.312,5.312,0,0,0,2.491-1.881c.7-1.164,1.977-5.149,3.481-10.375,4.14-14.4,9.967-38.183,9.967-38.183s-11.7,2.388-14.175,4.426-4.474,34.632-6.8,35.506a15.683,15.683,0,0,0-1.835.705l-.037.017c-.452.223-.665.371-1.215.654-4.83,2.482-13.243,6.911-14.07,7.9-1.093,1.311-1.02,2.476,1.82,3.131" transform="translate(-879.634 -484.673)" fill="#739af0"></path><path id="Trazado_7409" data-name="Trazado 7409" d="M1209.417,607.045a9.235,9.235,0,0,1,.155-1.654c1.505-8.278,13.476-16.755,13.712-16.755l0,.173c0,1.265,1.995,3.6,5.067,3.8,3.644.238,8.142-1.84,8.142-3.94.022,0,2.048.274,2.734.35,2.921.332,8.75,1.91,11.247,3.8,2.375,1.794-.981,13.1-3.059,21.114-.88,3.388-1.529,6.185-1.422,7.424.053.605.6,8.826,1.082,16.263.4,6.135.765,11.735.776,12.086.026.7-3.439,3.137-9.257,4.981a45.453,45.453,0,0,1-4.614,1.2,49.072,49.072,0,0,1-10.039,1c-1.2,0-2.34-.066-3.415-.173-8.311-.815-11.158-10.286-11.109-49.662" transform="translate(-995.818 -484.674)" fill="#739af0"></path><path id="Trazado_7410" data-name="Trazado 7410" d="M1300.936,540.268a70.482,70.482,0,0,0-.417-10.3l-12.833,2.1s-.014,3.918.043,8.264c-.008,0-.349,4.031,4.616,4.621s8.725-1.573,8.591-4.684" transform="translate(-1060.262 -436.37)" fill="#d9935c"></path><path id="Trazado_7411" data-name="Trazado 7411" d="M1368.49,702.832c0,12.307,5.964,8.99,9.565,5.667-.485-7.437-.826-33.778-.826-33.778s-8.739,10.487-8.739,28.111" transform="translate(-1126.796 -555.555)" fill="#4a75cb"></path><path id="Trazado_7412" data-name="Trazado 7412" d="M1149.539,728.606a33.74,33.74,0,0,0,3.719,10.473,36.718,36.718,0,0,0,4.785-1.449,5.312,5.312,0,0,0,2.49-1.881c.7-1.164,1.977-5.15,3.481-10.375-1.112-6.432-2.17-12.783-2.17-12.783l-.328-4.26c0,.328-4.988,19.045-7.247,19.482a7.223,7.223,0,0,1-2.937-.072l-.111.055c-.452.223-1.132.529-1.683.812" transform="translate(-946.515 -583.229)" fill="#4a75cb"></path><path id="Trazado_7413" data-name="Trazado 7413" d="M1287.241,438.752s8.567-13.507-7.883-14.4c0,0-6.17.726-7.567-.67,0,0-4.786,7.274-.316,15.072s15.766,0,15.766,0" transform="translate(-1045.344 -348.852)" fill="#233862"></path><path id="Trazado_7414" data-name="Trazado 7414" d="M1282.039,473.413c1.247.981,4.9,1.955,5.96,2.07,0,0,5.422-1.209,6.407-1.8,1.526-.925,1.428-2.8,1.506-5.4.094-3.082.4-5.5.06-7.279-.409-2.125-1.756-3.334-5.529-3.663-6.926-.6-9.811,1.133-9.932,3.455-.031.623-.06,1.218-.08,1.781-.277,7.241.3,9.809,1.607,10.841" transform="translate(-1054.235 -376.465)" fill="#d9935c"></path><path id="Trazado_7415" data-name="Trazado 7415" d="M1280.371,500.981c.067,4.195,1.2,6.678,2.018,6.992a17.35,17.35,0,0,0,3.212.858c.39.046.764.033.759-.188-.013-.662-.9-1.477-.24-2.063.689-.614,4.388-.822,4.686.519.146.654-1.047,1.808-.23,1.835.248-.042.491-.09.724-.151a10.8,10.8,0,0,0,2.849-1.257c1.526-.925,1.426-2.344,1.764-4.927.219-1.671.219-.765,0,1.714-.229,2.595.219,4.26-1.506,5.4-.96.635-6.488,3.119-6.488,3.119.081-1.315-4.633-2.4-5.88-3.385-1.158-.91-1.739-3.015-1.669-8.468" transform="translate(-1054.236 -412.5)" fill="#233862"></path><path id="Trazado_7416" data-name="Trazado 7416" d="M1242.786,727.815c.026.7-3.439,3.137-9.257,4.981-.468.15-.954.293-1.453.432a.016.016,0,0,0-.012.014c-.543,6.368-2.012,15.364-3.337,24.045v0c-.343,2.25-.675,4.479-.981,6.635a131.988,131.988,0,0,0-1.479,14.649v.039c-.029,1.717,1.42,6,1.529,6.991.068.605.122,1.245.162,1.916a77.732,77.732,0,0,1-.122,9.231c-.95,14.76-4.85,33.645-6.242,34.449-2.766,1.6-7.8,0-10.358-.376a2.114,2.114,0,0,1-1.853-2.128c1.25-24.5-2.34-58.611-5.023-79.582q-.1-.819-.208-1.608c-.321-2.473-.533-4.782-.666-6.865-.122-1.826-.181-3.485-.208-4.922-.006-.448-.011-.876-.013-1.28-.006-1.313,1.038-9.908,1.086-49.284a1.661,1.661,0,0,1,1.656-1.654h24.08a4.173,4.173,0,0,1,4.17,4.231,67.1,67.1,0,0,0,.723,11.2c.889,5.467,2.792,10.575,6.72,11.8a.014.014,0,0,1,.01.008c.018.04.125.279.3.677a.016.016,0,0,1,0,.006q.056,1.483.124,3.021c.009.205.017.413.028.62,0,.122.011.242.017.365.009.208.02.417.031.627.015.345.033.693.052,1.044.015.275.031.551.046.828q.043.8.1,1.617c.009.175.02.347.033.524.046.7.094,1.418.149,2.137.015.221.033.441.05.664.006.107.015.214.024.321.022.282.044.564.068.848.024.3.05.6.077.9.1,1.105-.046,2.091-.017,2.866" transform="translate(-990.753 -562.785)" fill="#2b478b"></path><path id="Trazado_7417" data-name="Trazado 7417" d="M1228.865,1037.091c-.95,14.76-4.85,33.645-6.242,34.449-2.766,1.6-7.8,0-10.358-.376a2.114,2.114,0,0,1-1.853-2.128c1.25-24.5-2.34-58.611-5.023-79.582q-.1-.819-.208-1.608c-.321-2.473-.533-4.782-.666-6.865,1.276-8.315,8.477-8.761,15.007,8.44-.808,5.706,9.558,44.287,9.342,47.669" transform="translate(-991.782 -803.125)" fill="#233862"></path><path id="Trazado_7418" data-name="Trazado 7418" d="M1292.809,960.522c.2,1.706,2.195,5.764,2.435,6.73,3.3,13.277,1.478,44.758-.159,46.016-2.532,1.948-7.733,1.023-10.318.988a2.112,2.112,0,0,1-2.115-1.865c-2.03-25.083-10.442-59.534-15.851-79.8a95.124,95.124,0,0,1-3.109-17.714s25.282-15.49,28.016-7.028c2.42,7.487-.422,39.571,1.1,52.673" transform="translate(-1040.505 -745.428)" fill="#2b478b"></path><path id="Trazado_7419" data-name="Trazado 7419" d="M1266.426,390.6q.261-.294.555-.571a9.838,9.838,0,0,1,3.012-1.958,10.094,10.094,0,0,1,10.348,1.6c.225.17.437.341.634.511a13.3,13.3,0,0,1,1.936,2s2.141,2.921,2.069,9.077l-22.052.236s-.324-6.649,3.5-10.889" transform="translate(-1039.872 -318.875)" fill="#ffa412"></path><path id="Trazado_7420" data-name="Trazado 7420" d="M1347.118,413.4l-1.212.014c-.025-.351.034-8.355,3.02-11.462a4.35,4.35,0,0,1,.375.31c-2.835,2.736-2.189,11.055-2.183,11.138" transform="translate(-1108.199 -330.961)" fill="#e27f2b"></path><path id="Trazado_7421" data-name="Trazado 7421" d="M1269.24,414.251a33.9,33.9,0,0,0-2.635-10.964,4.985,4.985,0,0,1,.407-.429,29.639,29.639,0,0,1,3.531,11.379l14.468-.155a75.172,75.172,0,0,1-11.755,1.7,48.136,48.136,0,0,1-10.3-1.463Z" transform="translate(-1039.904 -331.707)" fill="#e27f2b"></path><path id="Trazado_7422" data-name="Trazado 7422" d="M1346.341,591.475s-7.451,8.68-7.888,16.254l3.8.2a36.493,36.493,0,0,1,6.563-15.936s-.877-.213-1.169-.27c-.391-.077-1.3-.248-1.3-.248" transform="translate(-1102.064 -487.012)" fill="#2b478b"></path><path id="Trazado_7423" data-name="Trazado 7423" d="M1232.519,590.8a37.958,37.958,0,0,0-5.91,16.537l-3.831-.066c.315-5.953,4.055-12.5,6.12-15.6,0,0,2.651-.67,3.621-.866" transform="translate(-1006.819 -486.457)" fill="#2b478b"></path><path id="Trazado_7424" data-name="Trazado 7424" d="M1386.219,640.489c-.188,8.888.92,26.586.92,26.586h5.244c2.475-12.453,3.349-20.465,3.349-24.834q0-1.291-.011-2.4c-.033-3.732-.133-5.9-.133-5.9.983-22.61-3.533-34.7-4.951-36.365s-7.909-3.161-7.909-3.161a89.188,89.188,0,0,0-3.017,11.271c-.874,5.025,6.874,26.138,6.554,33.355-.02.45-.035.935-.046,1.451" transform="translate(-1135.978 -489.43)" fill="#739af0"></path><path id="Trazado_7425" data-name="Trazado 7425" d="M970.277,830.882c1.12,1.587,1.832,2.434,3.355,2.849,2.214.6,4.184-.493,5.643-1.333a6.371,6.371,0,0,1,3.105-.685c3.43.837,6.965,4.013,22.368,1.4,1.859-2.221.672-6.58-3.342-10.579-6.441,1.7-17.775,3.851-19.8,5.166a10.046,10.046,0,0,0-4.2-.316,5.77,5.77,0,0,0-1.9,1.091,2.937,2.937,0,0,1-3.412.139,4.015,4.015,0,0,0-2.685-.668c-.635.231.166,1.938.871,2.938" transform="translate(-798.006 -677.261)" fill="#d9935c"></path><path id="Trazado_7426" data-name="Trazado 7426" d="M1289.815,964.01l-16.34-1.319a.858.858,0,0,0-.683,1.455l11.457,11.725a.858.858,0,0,0,1.39-.235l2.236-4.765,5.357,2.514.411-.876-5.357-2.514,2.236-4.765a.858.858,0,0,0-.708-1.22" transform="translate(-1047.797 -792.663)" fill="#739af0"></path><path id="Trazado_7427" data-name="Trazado 7427" d="M949.321,814.406l21.414,7.117a1.384,1.384,0,0,0,1.75-.877l1.814-5.459a1.384,1.384,0,0,0-.877-1.75l-21.413-7.117a1.384,1.384,0,0,0-1.75.877l-1.814,5.458a1.384,1.384,0,0,0,.877,1.75" transform="translate(-780.878 -663.855)" fill="#b84c42"></path><path id="Trazado_7428" data-name="Trazado 7428" d="M1401.657,1022.47h0a1.25,1.25,0,0,1-1.643.652l-12.734-5.5a1.25,1.25,0,1,1,.992-2.3l12.734,5.5a1.25,1.25,0,0,1,.652,1.643" transform="translate(-1141.646 -835.92)" fill="#ffa412"></path><path id="Trazado_7429" data-name="Trazado 7429" d="M1404.771,877.268s-1.108-17.7-.92-26.586a18.58,18.58,0,0,1,9.5-.651q.01,1.111.011,2.4c0,4.369-.874,12.381-3.349,24.834,1.092,4.588,1.02,9.54-.874,10.414s-8.156-2.4-8.084-3.86,3.714-6.554,3.714-6.554" transform="translate(-1153.611 -699.623)" fill="#d9935c"></path><path id="Trazado_7430" data-name="Trazado 7430" d="M524.45,1038.84H498.934a2.559,2.559,0,0,0-2.552,2.552v19.137a2.559,2.559,0,0,0,2.552,2.552H524.45a2.559,2.559,0,0,0,2.552-2.552v-19.137a2.559,2.559,0,0,0-2.552-2.552" transform="translate(-408.714 -855.366)" fill="#ffa412"></path><path id="Trazado_7431" data-name="Trazado 7431" d="M571.407,1038.84H545.891a2.559,2.559,0,0,0-2.552,2.552v19.137a2.559,2.559,0,0,0,2.552,2.552h25.517a2.559,2.559,0,0,0,2.552-2.552v-19.137a2.559,2.559,0,0,0-2.552-2.552" transform="translate(-447.378 -855.366)" fill="#e27f2b"></path><path id="Trazado_7432" data-name="Trazado 7432" d="M526.482,1019.111s6.06-4.465,6.964-4.359,2.339.425,2.339.425l-5.422,4.093Z" transform="translate(-433.498 -835.531)" fill="#ffa412"></path><path id="Trazado_7433" data-name="Trazado 7433" d="M602.724,621.847c-2.431-1.837-8.1-3.373-10.947-3.7-.668-.074-2.664-.083-2.686-.083,0,2.043-4.353,3.808-7.9,3.576-2.99-.2-4.931-2.469-4.931-3.7l0,0c-.23,0-11.88,8.087-13.345,16.143a9,9,0,0,0-.151,1.61c-.047,38.324-2.369,44.2-1.635,44.189,0,0,4.359,3.353,12.448,4.146,1.046.1,2.154.164,3.324.168a47.728,47.728,0,0,0,9.771-.97,44.143,44.143,0,0,0,4.491-1.165c5.663-1.795,9.035-4.17,9.01-4.848-.028-.755.111-1.714.017-2.79-.353-4.057-.546-7.6-.7-11.172a41.725,41.725,0,0,0,9.69-.068c5.033-10.83-3.171-38.853-6.458-41.337m-1.435,31.194c-.374.1-.781.2-1.214.287q-.45.1-.936.187c-.007-.147-.011-.3-.017-.44-.083-2.007-.177-3.919-.308-5.737-.111-1.522-.247-2.979-.425-4.37,2.12,5.59,3.6,9.886,2.9,10.073" transform="translate(-461.907 -508.803)" fill="#9ed9f0"></path><path id="Trazado_7434" data-name="Trazado 7434" d="M556.217,617.96s-9,1.363-12.877,4.593-4.267,23.794-5.559,29.607a45.437,45.437,0,0,0-.679,5.229,113.587,113.587,0,0,0,.824,22.874,8.685,8.685,0,0,1-.528,3.817c-.992,2.481-1.205,3.19.567,4.607s3.686,3.4,5.033,2.835c1.039-.438.854-7.327.716-10.455,1.555-6.683,4.073-19.228,6.443-31.384,3.162-16.208,6.06-31.724,6.06-31.724" transform="translate(-441.863 -508.819)" fill="#d9935c"></path><path id="Trazado_7435" data-name="Trazado 7435" d="M558.37,617.965s-1.671,8.941-3.859,20.339c-.693,3.617-1.439,7.48-2.2,11.385-3.1,6.071-5.756,10.2-6.577,9.422-1.676-1.582-4.616-1.778-6.477-1.718a45.522,45.522,0,0,1,.678-5.229c.1-.459.2-1.01.291-1.637,1.084-7.315,1.7-25,5.267-27.968,1.878-1.563,4.957-2.69,7.634-3.438h0c1.367-.381,2.63-.661,3.574-.853,1.021-.2,1.667-.3,1.667-.3" transform="translate(-444.016 -508.823)" fill="#9ed9f0"></path><path id="Trazado_7436" data-name="Trazado 7436" d="M545.732,706.4c-1.675-1.582-4.616-1.777-6.478-1.718a45.454,45.454,0,0,1,.679-5.229c.1-.459.2-1.011.291-1.638l9.287-22.419s-2.959,31.78-3.78,31" transform="translate(-444.015 -556.109)" fill="#74acbe"></path><path id="Trazado_7437" data-name="Trazado 7437" d="M660.136,569.941a68.549,68.549,0,0,0-.406-10.022l-12.49,2.041s0,3.811.055,8.041l-.012,0s-.341,3.923,4.492,4.5,8.492-1.531,8.362-4.559" transform="translate(-532.929 -461.029)" fill="#d9935c"></path><path id="Trazado_7438" data-name="Trazado 7438" d="M561.724,1503.916c1.57-.967.652-8.179.652-8.179s-7.356-5.839-8.348-1.344-6.943,6.535-10.332,7.1c-2.34.389-3.06,1.688-3.282,2.456Z" transform="translate(-444.97 -1229.062)" fill="#233862"></path><path id="Trazado_7439" data-name="Trazado 7439" d="M745.926,770.02s-2.339,3.162-2.818,3.162-6.379-2.286-4.686-7.4a9.076,9.076,0,0,1,5.816-6.135c.179,1.391.315,2.847.425,4.37.132,1.818.225,3.73.308,5.737.006.145.011.293.017.44.323-.06.636-.121.936-.187Z" transform="translate(-607.756 -625.485)" fill="#74acbe"></path><path id="Trazado_7440" data-name="Trazado 7440" d="M689.347,1503.916c1.57-.967.652-8.179.652-8.179s-7.356-5.839-8.347-1.344-6.943,6.535-10.333,7.1c-2.34.389-3.06,1.688-3.282,2.456Z" transform="translate(-550.053 -1229.062)" fill="#233862"></path><path id="Trazado_7441" data-name="Trazado 7441" d="M603.534,752.477c.025.678-3.347,3.053-9.01,4.848-.456.146-.929.285-1.414.42a.016.016,0,0,0-.012.014c-.528,6.2-1.958,14.953-3.248,23.4v0c-.334,2.19-.657,4.359-.955,6.458a128.56,128.56,0,0,0-1.439,14.257v.038c-.028,1.672,1.382,5.841,1.488,6.8.066.589.119,1.212.157,1.865a75.728,75.728,0,0,1-.119,8.984c-.925,14.366-4.721,32.747-6.075,33.529-2.692,1.556-7.591,0-10.081-.366a2.058,2.058,0,0,1-1.8-2.071c1.216-23.841-2.277-57.044-4.888-77.456q-.1-.8-.2-1.565c-.313-2.407-.519-4.655-.649-6.681-.119-1.778-.176-3.392-.2-4.791-.006-.436-.011-.853-.013-1.246-.006-1.278,1.01-9.643,1.057-47.967a1.617,1.617,0,0,1,1.611-1.61h23.436a4.062,4.062,0,0,1,4.059,4.118,65.312,65.312,0,0,0,.7,10.9c.865,5.321,2.717,10.292,6.54,11.489a.014.014,0,0,1,.009.008c.017.039.122.272.29.659a.017.017,0,0,1,0,.006q.054,1.443.121,2.94c.008.2.017.4.028.6,0,.119.011.236.017.355.008.2.019.406.03.61q.022.5.051,1.016c.015.268.03.536.045.806q.041.778.094,1.573c.008.17.019.338.032.51.045.685.091,1.38.145,2.079.015.215.032.43.049.647.006.1.015.208.023.312.021.274.043.549.066.825s.049.585.074.88c.094,1.076-.045,2.035-.017,2.79" transform="translate(-465.271 -584.066)" fill="#2b478b"></path><path id="Trazado_7442" data-name="Trazado 7442" d="M589.985,1053.489c-.925,14.366-4.721,32.747-6.075,33.529-2.692,1.556-7.591,0-10.081-.366a2.057,2.057,0,0,1-1.8-2.071c1.216-23.841-2.277-57.045-4.889-77.456q-.1-.8-.2-1.565c-.313-2.407-.519-4.655-.649-6.681,1.242-8.093,8.25-8.527,14.606,8.214,2.724,6.486,9.3,43.1,9.092,46.4" transform="translate(-466.272 -817.985)" fill="#233862"></path><path id="Trazado_7443" data-name="Trazado 7443" d="M652.22,978.966c.193,1.661,2.136,5.61,2.369,6.55,3.213,12.922,1.438,43.562-.155,44.787-2.464,1.9-7.527,1-10.042.961a2.056,2.056,0,0,1-2.059-1.815c-1.976-24.412-10.163-57.943-15.427-77.668a92.569,92.569,0,0,1-3.027-17.241s24.606-15.076,27.267-6.84c2.355,7.288-.411,38.514,1.073,51.266" transform="translate(-513.694 -761.829)" fill="#2b478b"></path><path id="Trazado_7444" data-name="Trazado 7444" d="M704.322,619.78s-7.252,8.448-7.677,15.819h3.686a35.3,35.3,0,0,1,6.4-15.314Z" transform="translate(-573.608 -510.318)" fill="#2b478b"></path><path id="Trazado_7445" data-name="Trazado 7445" d="M593.77,619.674a37.04,37.04,0,0,0-5.811,15.837h-3.685c.306-5.794,3.91-11.965,5.92-14.985h0c1.367-.381,2.63-.661,3.574-.853" transform="translate(-481.083 -510.23)" fill="#2b478b"></path><path id="Trazado_7446" data-name="Trazado 7446" d="M671.63,652.829a77.046,77.046,0,0,0-1.255-10.118,32.265,32.265,0,0,1-.407,5.36c.912,7.267.559,12.822-1.06,15.967a10.835,10.835,0,0,1-4.074,4.448,12.864,12.864,0,0,0,2.252-2.973c1.245-2.231,2.391-6.383,1.966-14.042-.086.218-.175.428-.271.633,0,0-.316.054-.923.117.249,5.6-.349,9.888-1.779,12.454a10.586,10.586,0,0,1-4.31,4.32,12.645,12.645,0,0,0,1.533-1.851c1.477-2.17,3.018-6.438,3.084-14.812q-.552.032-1.226.051c-.068,6.42-1.015,11.2-2.8,13.809-.082.121-.168.241-.255.359,1.352-2.321,2.646-6.527,2.712-14.161-.384.006-.793.01-1.228.006-.064,6.414-1.015,11.188-2.8,13.8a10.107,10.107,0,0,1-4.123,3.571c-.491-.084-.994-.195-1.5-.329-.068-.016-.136-.033-.2-.055l-.022-.006c-.066-.018-.134-.037-.2-.056q-.923-.269-1.793-.614c-7.09-2.816-11.159-9.156-11.554-14.368a83.822,83.822,0,0,1,.768-15.209c1.473-11.815,4.682-25.513,8.585-30.957.066-.092.129-.181.2-.267,0,0,0,0,0,0,.082-.107.164-.212.247-.31.144-.173.286-.335.433-.483l0,0a4.8,4.8,0,0,1,.91-.744,2.383,2.383,0,0,1,.269.187,5.181,5.181,0,0,1,.9.931s.006.006.008.01c.407.088.83.189,1.263.3.2.055.407.107.614.168a.143.143,0,0,1,.039.01c.049.01.1.025.144.039.253.07.507.144.762.22l.435.134c.171.055.341.109.511.166.185.063.37.125.553.189s.39.138.581.21l-.012-.017c-2.3-3.62-3.93-4.464-4.99-4.413a2.905,2.905,0,0,0-.5.066,2.089,2.089,0,0,0-.532-.072,3.187,3.187,0,0,0-1.068.2,5.728,5.728,0,0,0-3.427,2.063c-.082.084-.162.173-.244.265a21.1,21.1,0,0,0-1.979,2.689l-.012.017c-6.284,9.931-12.143,31.993-12.492,42.32-.275,8.172,6.017,15.478,12.375,18.471a19.194,19.194,0,0,0,1.849.758c.345.121.686.228,1.025.323l.021.006a14.13,14.13,0,0,0,3.825.553c.263,0,.522-.008.779-.025.265.017.528.025.789.025a11.27,11.27,0,0,0,3.314-.483c.166-.008.331-.02.495-.031.14-.014.281-.025.417-.043.269-.031.536-.072.8-.121a13.278,13.278,0,0,0,2.245-.173,11.326,11.326,0,0,0,5.968-2.9,12.88,12.88,0,0,0,2.665-3.566c1.06-2.065,2-5.693,1.687-12M634.6,652.1c.308-9.14,5.306-28.552,10.831-39.033-.193.464-.388.943-.579,1.436-5.222,11.059-9.608,28.648-9.906,37.536a17.77,17.77,0,0,0,3.088,10.288A17.262,17.262,0,0,1,634.6,652.1m13.158,17.022c-7.864-3.7-11.784-11.365-11.591-17.022.168-5.021,1.754-13.146,4.065-21.185-1.8,8.69-2.808,17.5-2.56,22.919.312,6.857,5.183,12.558,10.623,15.527-.179-.074-.355-.154-.536-.24m-8.871-15.369c-.359-7.841,2.12-23.627,5.785-34.951.411-1.266.836-2.478,1.274-3.618.164-.347.327-.684.491-1.017-2.821,7.728-4.941,18.771-5.861,28.046a75.682,75.682,0,0,0-.384,12.265c.429,5.658,3.955,10.385,8.289,13.392-6.042-3.34-9.374-9.282-9.594-14.116" transform="translate(-521.507 -497.724)" fill="#ffa412"></path><path id="Trazado_7447" data-name="Trazado 7447" d="M646.065,814.847c-.2.03-3.968.718-4.174.747-6.276.92-14.72,1.326-15.6,1.366-.082-.077-3.078-2.867-4.246-2.867-1.184,0-4.6,1.244-4.947,2.2s-.488,2.679.488,3.062a43.827,43.827,0,0,0,6.062,1.435,2.8,2.8,0,0,0,.5,0,105.916,105.916,0,0,0,18.947,3.8,45.283,45.283,0,0,0,5.293.357,27.7,27.7,0,0,0-2.325-10.1" transform="translate(-507.895 -670.313)" fill="#d9935c"></path><path id="Trazado_7448" data-name="Trazado 7448" d="M646.8,471.136s8.338-13.146-7.673-14.017c0,0-6.005.707-7.365-.652,0,0-4.658,7.079-.308,14.669s15.345,0,15.345,0" transform="translate(-518.403 -375.848)" fill="#b64c41"></path><path id="Trazado_7449" data-name="Trazado 7449" d="M641.738,504.871c1.214.955,4.772,1.9,5.8,2.014,0,0,5.277-1.177,6.236-1.755,1.486-.9,1.39-2.723,1.466-5.257.091-3,.394-5.355.059-7.084-.4-2.068-1.71-3.245-5.381-3.565-6.741-.585-9.549,1.1-9.666,3.363-.03.607-.059,1.185-.078,1.734-.27,7.047.287,9.546,1.564,10.551" transform="translate(-527.056 -402.723)" fill="#d9935c"></path><path id="Trazado_7450" data-name="Trazado 7450" d="M642.585,425.8a12.927,12.927,0,0,0-1.884-1.944c-.191-.165-.4-.332-.617-.5a9.824,9.824,0,0,0-10.072-1.554,9.565,9.565,0,0,0-2.932,1.905q-.285.27-.54.555c-3.72,4.127-3.4,10.6-3.4,10.6l21.463-.23c.07-5.992-2.014-8.835-2.014-8.835" transform="translate(-513.077 -346.673)" fill="#ffa412"></path><path id="Trazado_7451" data-name="Trazado 7451" d="M705.079,446.462c-.006-.08-.634-8.178,2.125-10.84a4.291,4.291,0,0,0-.365-.3c-2.905,3.024-2.963,10.814-2.939,11.156Z" transform="translate(-579.579 -358.436)" fill="#e27f2b"></path><path id="Trazado_7452" data-name="Trazado 7452" d="M630.565,447.277c-.2-5.257-3.1-10.491-3.453-11.075a4.706,4.706,0,0,0-.4.406A31.316,31.316,0,0,1,629.3,447.29l-6.127.066a46.84,46.84,0,0,0,10.022,1.424,73.162,73.162,0,0,0,11.441-1.654Z" transform="translate(-513.108 -359.162)" fill="#e27f2b"></path><path id="Trazado_7453" data-name="Trazado 7453" d="M647.482,576.6a15.131,15.131,0,0,0,6.129,2.325s2.2.1,6.622-2.041c0,0-5.466,4.595-6.649,4.639s-6.1-4.924-6.1-4.924" transform="translate(-533.128 -474.767)" fill="#cb7d45"></path><path id="Trazado_7454" data-name="Trazado 7454" d="M1299.055,1496.881c1.613-.993.666-8.353.666-8.353s-7.558-6-8.577-1.38-7.133,6.714-10.616,7.293c-2.4.4-3.292,1.643-3.519,2.432Z" transform="translate(-1051.471 -1223.057)" fill="#233862"></path><path id="Trazado_7455" data-name="Trazado 7455" d="M1430.243,1496.881c1.613-.993.665-8.353.665-8.353s-7.558-6-8.576-1.38-7.133,6.714-10.616,7.293c-2.4.4-3.278,1.643-3.506,2.432Z" transform="translate(-1159.501 -1223.057)" fill="#233862"></path><path id="Trazado_7456" data-name="Trazado 7456" d="M354.919,1135.222v8.976h-198.4a1.822,1.822,0,0,0-1.822,1.822v66.216H578.931v-77.014Z" transform="translate(-127.371 -934.726)" fill="#233862"></path><path id="Trazado_7457" data-name="Trazado 7457" d="M2418.814,1531.251h22.6a1.386,1.386,0,0,0,1.386-1.386v-5.76a1.386,1.386,0,0,0-1.386-1.386h-22.6a1.386,1.386,0,0,0-1.386,1.386v5.76a1.386,1.386,0,0,0,1.386,1.386" transform="translate(-1990.478 -1253.786)" fill="#b84c42"></path><path id="Trazado_7458" data-name="Trazado 7458" d="M2267.571,1531.251h22.6a1.386,1.386,0,0,0,1.386-1.386v-5.76a1.386,1.386,0,0,0-1.386-1.386h-22.6a1.386,1.386,0,0,0-1.386,1.386v5.76a1.386,1.386,0,0,0,1.386,1.386" transform="translate(-1865.947 -1253.786)" fill="#b84c42"></path><path id="Trazado_7459" data-name="Trazado 7459" d="M2116.326,1531.251h22.6a1.386,1.386,0,0,0,1.386-1.386v-5.76a1.386,1.386,0,0,0-1.386-1.386h-22.6a1.386,1.386,0,0,0-1.386,1.386v5.76a1.386,1.386,0,0,0,1.386,1.386" transform="translate(-1741.413 -1253.786)" fill="#b84c42"></path><path id="Trazado_7460" data-name="Trazado 7460" d="M1965.082,1531.251h22.6a1.386,1.386,0,0,0,1.386-1.386v-5.76a1.386,1.386,0,0,0-1.386-1.386h-22.6a1.386,1.386,0,0,0-1.386,1.386v5.76a1.386,1.386,0,0,0,1.386,1.386" transform="translate(-1616.881 -1253.786)" fill="#b84c42"></path><path id="Trazado_7461" data-name="Trazado 7461" d="M1813.838,1531.251h22.6a1.386,1.386,0,0,0,1.386-1.386v-5.76a1.386,1.386,0,0,0-1.386-1.386h-22.6a1.386,1.386,0,0,0-1.386,1.386v5.76a1.386,1.386,0,0,0,1.386,1.386" transform="translate(-1492.349 -1253.786)" fill="#b84c42"></path><path id="Trazado_7462" data-name="Trazado 7462" d="M1662.595,1531.251h22.6a1.386,1.386,0,0,0,1.386-1.386v-5.76a1.386,1.386,0,0,0-1.386-1.386h-22.6a1.386,1.386,0,0,0-1.386,1.386v5.76a1.386,1.386,0,0,0,1.386,1.386" transform="translate(-1367.817 -1253.786)" fill="#b84c42"></path><path id="Trazado_7463" data-name="Trazado 7463" d="M1511.351,1531.251h22.6a1.386,1.386,0,0,0,1.386-1.386v-5.76a1.386,1.386,0,0,0-1.386-1.386h-22.6a1.386,1.386,0,0,0-1.386,1.386v5.76a1.386,1.386,0,0,0,1.386,1.386" transform="translate(-1243.285 -1253.786)" fill="#b84c42"></path><path id="Trazado_7464" data-name="Trazado 7464" d="M1360.107,1531.251h22.6a1.386,1.386,0,0,0,1.386-1.386v-5.76a1.386,1.386,0,0,0-1.386-1.386h-22.6a1.386,1.386,0,0,0-1.386,1.386v5.76a1.386,1.386,0,0,0,1.386,1.386" transform="translate(-1118.753 -1253.786)" fill="#b84c42"></path><path id="Trazado_7465" data-name="Trazado 7465" d="M1207.912,1531.251h22.6a1.386,1.386,0,0,0,1.386-1.386v-5.76a1.386,1.386,0,0,0-1.386-1.386h-22.6a1.386,1.386,0,0,0-1.386,1.386v5.76a1.386,1.386,0,0,0,1.386,1.386" transform="translate(-993.437 -1253.786)" fill="#b84c42"></path><path id="Trazado_7466" data-name="Trazado 7466" d="M1056.669,1531.251h22.6a1.386,1.386,0,0,0,1.386-1.386v-5.76a1.386,1.386,0,0,0-1.386-1.386h-22.6a1.386,1.386,0,0,0-1.386,1.386v5.76a1.386,1.386,0,0,0,1.386,1.386" transform="translate(-868.906 -1253.786)" fill="#b84c42"></path><path id="Trazado_7467" data-name="Trazado 7467" d="M905.425,1531.251h22.6a1.386,1.386,0,0,0,1.386-1.386v-5.76a1.386,1.386,0,0,0-1.386-1.386h-22.6a1.386,1.386,0,0,0-1.386,1.386v5.76a1.386,1.386,0,0,0,1.386,1.386" transform="translate(-744.374 -1253.786)" fill="#b84c42"></path><path id="Trazado_7468" data-name="Trazado 7468" d="M754.181,1531.251h22.6a1.386,1.386,0,0,0,1.386-1.386v-5.76a1.386,1.386,0,0,0-1.386-1.386h-22.6a1.386,1.386,0,0,0-1.386,1.386v5.76a1.386,1.386,0,0,0,1.386,1.386" transform="translate(-619.841 -1253.786)" fill="#b84c42"></path><path id="Trazado_7469" data-name="Trazado 7469" d="M602.937,1531.251h22.6a1.386,1.386,0,0,0,1.386-1.386v-5.76a1.386,1.386,0,0,0-1.386-1.386h-22.6a1.386,1.386,0,0,0-1.386,1.386v5.76a1.386,1.386,0,0,0,1.386,1.386" transform="translate(-495.309 -1253.786)" fill="#b84c42"></path><path id="Trazado_7470" data-name="Trazado 7470" d="M451.694,1531.251h22.6a1.386,1.386,0,0,0,1.386-1.386v-5.76a1.386,1.386,0,0,0-1.386-1.386h-22.6a1.386,1.386,0,0,0-1.386,1.386v5.76a1.386,1.386,0,0,0,1.386,1.386" transform="translate(-370.778 -1253.786)" fill="#b84c42"></path><path id="Trazado_7471" data-name="Trazado 7471" d="M300.45,1531.251h22.6a1.386,1.386,0,0,0,1.386-1.386v-5.76a1.386,1.386,0,0,0-1.386-1.386h-22.6a1.386,1.386,0,0,0-1.386,1.386v5.76a1.386,1.386,0,0,0,1.386,1.386" transform="translate(-246.245 -1253.786)" fill="#b84c42"></path><path id="Trazado_7472" data-name="Trazado 7472" d="M149.206,1531.251h22.6a1.386,1.386,0,0,0,1.386-1.386v-5.76a1.386,1.386,0,0,0-1.386-1.386h-22.6a1.386,1.386,0,0,0-1.386,1.386v5.76a1.386,1.386,0,0,0,1.386,1.386" transform="translate(-121.713 -1253.786)" fill="#b84c42"></path><path id="Trazado_7473" data-name="Trazado 7473" d="M2493.02,1476.072h9.733a1.386,1.386,0,0,0,1.386-1.386v-5.76a1.386,1.386,0,0,0-1.386-1.386h-9.733a1.386,1.386,0,0,0-1.386,1.386v5.76a1.386,1.386,0,0,0,1.386,1.386" transform="translate(-2051.578 -1208.352)" fill="#b84c42"></path><path id="Trazado_7474" data-name="Trazado 7474" d="M2341.776,1476.072h22.6a1.386,1.386,0,0,0,1.386-1.386v-5.76a1.386,1.386,0,0,0-1.386-1.386h-22.6a1.386,1.386,0,0,0-1.386,1.386v5.76a1.386,1.386,0,0,0,1.386,1.386" transform="translate(-1927.046 -1208.352)" fill="#b84c42"></path><path id="Trazado_7475" data-name="Trazado 7475" d="M2190.532,1476.072h22.6a1.386,1.386,0,0,0,1.386-1.386v-5.76a1.386,1.386,0,0,0-1.386-1.386h-22.6a1.386,1.386,0,0,0-1.386,1.386v5.76a1.386,1.386,0,0,0,1.386,1.386" transform="translate(-1802.514 -1208.352)" fill="#b84c42"></path><path id="Trazado_7476" data-name="Trazado 7476" d="M2039.288,1476.072h22.6a1.386,1.386,0,0,0,1.386-1.386v-5.76a1.386,1.386,0,0,0-1.386-1.386h-22.6a1.386,1.386,0,0,0-1.386,1.386v5.76a1.386,1.386,0,0,0,1.386,1.386" transform="translate(-1677.981 -1208.352)" fill="#b84c42"></path><path id="Trazado_7477" data-name="Trazado 7477" d="M1888.044,1476.072h22.6a1.386,1.386,0,0,0,1.386-1.386v-5.76a1.386,1.386,0,0,0-1.386-1.386h-22.6a1.386,1.386,0,0,0-1.386,1.386v5.76a1.386,1.386,0,0,0,1.386,1.386" transform="translate(-1553.449 -1208.352)" fill="#b84c42"></path><path id="Trazado_7478" data-name="Trazado 7478" d="M1736.8,1476.072h22.6a1.386,1.386,0,0,0,1.386-1.386v-5.76a1.386,1.386,0,0,0-1.386-1.386h-22.6a1.386,1.386,0,0,0-1.386,1.386v5.76a1.386,1.386,0,0,0,1.386,1.386" transform="translate(-1428.918 -1208.352)" fill="#b84c42"></path><path id="Trazado_7479" data-name="Trazado 7479" d="M1585.557,1476.072h22.6a1.386,1.386,0,0,0,1.386-1.386v-5.76a1.386,1.386,0,0,0-1.386-1.386h-22.6a1.386,1.386,0,0,0-1.386,1.386v5.76a1.386,1.386,0,0,0,1.386,1.386" transform="translate(-1304.385 -1208.352)" fill="#b84c42"></path><path id="Trazado_7480" data-name="Trazado 7480" d="M1434.313,1476.072h22.6a1.386,1.386,0,0,0,1.386-1.386v-5.76a1.386,1.386,0,0,0-1.386-1.386h-22.6a1.386,1.386,0,0,0-1.386,1.386v5.76a1.386,1.386,0,0,0,1.386,1.386" transform="translate(-1179.853 -1208.352)" fill="#b84c42"></path><path id="Trazado_7481" data-name="Trazado 7481" d="M1282.118,1476.072h22.6a1.386,1.386,0,0,0,1.386-1.386v-5.76a1.386,1.386,0,0,0-1.386-1.386h-22.6a1.386,1.386,0,0,0-1.386,1.386v5.76a1.386,1.386,0,0,0,1.386,1.386" transform="translate(-1054.538 -1208.352)" fill="#b84c42"></path><path id="Trazado_7482" data-name="Trazado 7482" d="M1130.876,1476.072h22.6a1.386,1.386,0,0,0,1.386-1.386v-5.76a1.386,1.386,0,0,0-1.386-1.386h-22.6a1.386,1.386,0,0,0-1.386,1.386v5.76a1.386,1.386,0,0,0,1.386,1.386" transform="translate(-930.007 -1208.352)" fill="#b84c42"></path><path id="Trazado_7483" data-name="Trazado 7483" d="M979.631,1476.072h22.6a1.386,1.386,0,0,0,1.386-1.386v-5.76a1.386,1.386,0,0,0-1.386-1.386h-22.6a1.386,1.386,0,0,0-1.386,1.386v5.76a1.386,1.386,0,0,0,1.386,1.386" transform="translate(-805.474 -1208.352)" fill="#b84c42"></path><path id="Trazado_7484" data-name="Trazado 7484" d="M828.387,1476.072h22.6a1.386,1.386,0,0,0,1.386-1.386v-5.76a1.386,1.386,0,0,0-1.386-1.386h-22.6a1.386,1.386,0,0,0-1.386,1.386v5.76a1.386,1.386,0,0,0,1.386,1.386" transform="translate(-680.942 -1208.352)" fill="#b84c42"></path><path id="Trazado_7485" data-name="Trazado 7485" d="M677.144,1476.072h22.6a1.386,1.386,0,0,0,1.386-1.386v-5.76a1.386,1.386,0,0,0-1.386-1.386h-22.6a1.386,1.386,0,0,0-1.386,1.386v5.76a1.386,1.386,0,0,0,1.386,1.386" transform="translate(-556.41 -1208.352)" fill="#b84c42"></path><path id="Trazado_7486" data-name="Trazado 7486" d="M525.9,1476.072h22.6a1.386,1.386,0,0,0,1.386-1.386v-5.76a1.386,1.386,0,0,0-1.386-1.386H525.9a1.386,1.386,0,0,0-1.386,1.386v5.76a1.386,1.386,0,0,0,1.386,1.386" transform="translate(-431.878 -1208.352)" fill="#b84c42"></path><path id="Trazado_7487" data-name="Trazado 7487" d="M374.656,1476.072h22.6a1.386,1.386,0,0,0,1.386-1.386v-5.76a1.386,1.386,0,0,0-1.386-1.386h-22.6a1.386,1.386,0,0,0-1.386,1.386v5.76a1.386,1.386,0,0,0,1.386,1.386" transform="translate(-307.345 -1208.352)" fill="#b84c42"></path><path id="Trazado_7488" data-name="Trazado 7488" d="M223.412,1476.072h22.6a1.386,1.386,0,0,0,1.386-1.386v-5.76a1.386,1.386,0,0,0-1.386-1.386h-22.6a1.386,1.386,0,0,0-1.386,1.386v5.76a1.386,1.386,0,0,0,1.386,1.386" transform="translate(-182.813 -1208.352)" fill="#b84c42"></path><path id="Trazado_7489" data-name="Trazado 7489" d="M147.285,1476.072h9.733a1.386,1.386,0,0,0,1.386-1.386v-5.76a1.386,1.386,0,0,0-1.386-1.386h-9.733a1.386,1.386,0,0,0-1.386,1.386v5.76a1.386,1.386,0,0,0,1.386,1.386" transform="translate(-120.131 -1208.352)" fill="#b84c42"></path><path id="Trazado_7490" data-name="Trazado 7490" d="M2418.814,1419.942h22.6a1.386,1.386,0,0,0,1.386-1.386v-5.76a1.386,1.386,0,0,0-1.386-1.386h-22.6a1.386,1.386,0,0,0-1.386,1.386v5.76a1.386,1.386,0,0,0,1.386,1.386" transform="translate(-1990.478 -1162.135)" fill="#b84c42"></path><path id="Trazado_7491" data-name="Trazado 7491" d="M2267.571,1419.942h22.6a1.386,1.386,0,0,0,1.386-1.386v-5.76a1.386,1.386,0,0,0-1.386-1.386h-22.6a1.386,1.386,0,0,0-1.386,1.386v5.76a1.386,1.386,0,0,0,1.386,1.386" transform="translate(-1865.947 -1162.135)" fill="#b84c42"></path><path id="Trazado_7492" data-name="Trazado 7492" d="M2116.326,1419.942h22.6a1.386,1.386,0,0,0,1.386-1.386v-5.76a1.386,1.386,0,0,0-1.386-1.386h-22.6a1.386,1.386,0,0,0-1.386,1.386v5.76a1.386,1.386,0,0,0,1.386,1.386" transform="translate(-1741.413 -1162.135)" fill="#b84c42"></path><path id="Trazado_7493" data-name="Trazado 7493" d="M1965.082,1419.942h22.6a1.386,1.386,0,0,0,1.386-1.386v-5.76a1.386,1.386,0,0,0-1.386-1.386h-22.6a1.386,1.386,0,0,0-1.386,1.386v5.76a1.386,1.386,0,0,0,1.386,1.386" transform="translate(-1616.881 -1162.135)" fill="#b84c42"></path><path id="Trazado_7494" data-name="Trazado 7494" d="M1813.838,1419.942h22.6a1.386,1.386,0,0,0,1.386-1.386v-5.76a1.386,1.386,0,0,0-1.386-1.386h-22.6a1.386,1.386,0,0,0-1.386,1.386v5.76a1.386,1.386,0,0,0,1.386,1.386" transform="translate(-1492.349 -1162.135)" fill="#b84c42"></path><path id="Trazado_7495" data-name="Trazado 7495" d="M1662.595,1419.942h22.6a1.386,1.386,0,0,0,1.386-1.386v-5.76a1.386,1.386,0,0,0-1.386-1.386h-22.6a1.386,1.386,0,0,0-1.386,1.386v5.76a1.386,1.386,0,0,0,1.386,1.386" transform="translate(-1367.817 -1162.135)" fill="#b84c42"></path><path id="Trazado_7496" data-name="Trazado 7496" d="M1511.351,1419.942h22.6a1.386,1.386,0,0,0,1.386-1.386v-5.76a1.386,1.386,0,0,0-1.386-1.386h-22.6a1.386,1.386,0,0,0-1.386,1.386v5.76a1.386,1.386,0,0,0,1.386,1.386" transform="translate(-1243.285 -1162.135)" fill="#b84c42"></path><path id="Trazado_7497" data-name="Trazado 7497" d="M1360.107,1419.942h22.6a1.386,1.386,0,0,0,1.386-1.386v-5.76a1.386,1.386,0,0,0-1.386-1.386h-22.6a1.386,1.386,0,0,0-1.386,1.386v5.76a1.386,1.386,0,0,0,1.386,1.386" transform="translate(-1118.753 -1162.135)" fill="#b84c42"></path><path id="Trazado_7498" data-name="Trazado 7498" d="M1207.912,1419.942h22.6a1.386,1.386,0,0,0,1.386-1.386v-5.76a1.386,1.386,0,0,0-1.386-1.386h-22.6a1.386,1.386,0,0,0-1.386,1.386v5.76a1.386,1.386,0,0,0,1.386,1.386" transform="translate(-993.437 -1162.135)" fill="#b84c42"></path><path id="Trazado_7499" data-name="Trazado 7499" d="M1056.669,1419.942h22.6a1.386,1.386,0,0,0,1.386-1.386v-5.76a1.386,1.386,0,0,0-1.386-1.386h-22.6a1.386,1.386,0,0,0-1.386,1.386v5.76a1.386,1.386,0,0,0,1.386,1.386" transform="translate(-868.906 -1162.135)" fill="#b84c42"></path><path id="Trazado_7500" data-name="Trazado 7500" d="M905.425,1419.942h22.6a1.386,1.386,0,0,0,1.386-1.386v-5.76a1.386,1.386,0,0,0-1.386-1.386h-22.6a1.386,1.386,0,0,0-1.386,1.386v5.76a1.386,1.386,0,0,0,1.386,1.386" transform="translate(-744.374 -1162.135)" fill="#b84c42"></path><path id="Trazado_7501" data-name="Trazado 7501" d="M754.181,1419.942h22.6a1.386,1.386,0,0,0,1.386-1.386v-5.76a1.386,1.386,0,0,0-1.386-1.386h-22.6a1.386,1.386,0,0,0-1.386,1.386v5.76a1.386,1.386,0,0,0,1.386,1.386" transform="translate(-619.841 -1162.135)" fill="#b84c42"></path><path id="Trazado_7502" data-name="Trazado 7502" d="M602.937,1419.942h22.6a1.386,1.386,0,0,0,1.386-1.386v-5.76a1.386,1.386,0,0,0-1.386-1.386h-22.6a1.386,1.386,0,0,0-1.386,1.386v5.76a1.386,1.386,0,0,0,1.386,1.386" transform="translate(-495.309 -1162.135)" fill="#b84c42"></path><path id="Trazado_7503" data-name="Trazado 7503" d="M451.694,1419.942h22.6a1.386,1.386,0,0,0,1.386-1.386v-5.76a1.386,1.386,0,0,0-1.386-1.386h-22.6a1.386,1.386,0,0,0-1.386,1.386v5.76a1.386,1.386,0,0,0,1.386,1.386" transform="translate(-370.778 -1162.135)" fill="#b84c42"></path><path id="Trazado_7504" data-name="Trazado 7504" d="M300.45,1419.942h22.6a1.386,1.386,0,0,0,1.386-1.386v-5.76a1.386,1.386,0,0,0-1.386-1.386h-22.6a1.386,1.386,0,0,0-1.386,1.386v5.76a1.386,1.386,0,0,0,1.386,1.386" transform="translate(-246.245 -1162.135)" fill="#b84c42"></path><path id="Trazado_7505" data-name="Trazado 7505" d="M149.206,1419.942h22.6a1.386,1.386,0,0,0,1.386-1.386v-5.76a1.386,1.386,0,0,0-1.386-1.386h-22.6a1.386,1.386,0,0,0-1.386,1.386v5.76a1.386,1.386,0,0,0,1.386,1.386" transform="translate(-121.713 -1162.135)" fill="#b84c42"></path><path id="Trazado_7506" data-name="Trazado 7506" d="M2493.02,1364.763h9.733a1.386,1.386,0,0,0,1.386-1.386v-5.76a1.386,1.386,0,0,0-1.386-1.386h-9.733a1.386,1.386,0,0,0-1.386,1.386v5.76a1.386,1.386,0,0,0,1.386,1.386" transform="translate(-2051.578 -1116.702)" fill="#b84c42"></path><path id="Trazado_7507" data-name="Trazado 7507" d="M2341.776,1364.763h22.6a1.386,1.386,0,0,0,1.386-1.386v-5.76a1.386,1.386,0,0,0-1.386-1.386h-22.6a1.386,1.386,0,0,0-1.386,1.386v5.76a1.386,1.386,0,0,0,1.386,1.386" transform="translate(-1927.046 -1116.702)" fill="#b84c42"></path><path id="Trazado_7508" data-name="Trazado 7508" d="M2190.532,1364.763h22.6a1.386,1.386,0,0,0,1.386-1.386v-5.76a1.386,1.386,0,0,0-1.386-1.386h-22.6a1.386,1.386,0,0,0-1.386,1.386v5.76a1.386,1.386,0,0,0,1.386,1.386" transform="translate(-1802.514 -1116.702)" fill="#b84c42"></path><path id="Trazado_7509" data-name="Trazado 7509" d="M2039.288,1364.763h22.6a1.386,1.386,0,0,0,1.386-1.386v-5.76a1.386,1.386,0,0,0-1.386-1.386h-22.6a1.386,1.386,0,0,0-1.386,1.386v5.76a1.386,1.386,0,0,0,1.386,1.386" transform="translate(-1677.981 -1116.702)" fill="#b84c42"></path><path id="Trazado_7510" data-name="Trazado 7510" d="M1888.044,1364.763h22.6a1.386,1.386,0,0,0,1.386-1.386v-5.76a1.386,1.386,0,0,0-1.386-1.386h-22.6a1.386,1.386,0,0,0-1.386,1.386v5.76a1.386,1.386,0,0,0,1.386,1.386" transform="translate(-1553.449 -1116.702)" fill="#b84c42"></path><path id="Trazado_7511" data-name="Trazado 7511" d="M1736.8,1364.763h22.6a1.386,1.386,0,0,0,1.386-1.386v-5.76a1.386,1.386,0,0,0-1.386-1.386h-22.6a1.386,1.386,0,0,0-1.386,1.386v5.76a1.386,1.386,0,0,0,1.386,1.386" transform="translate(-1428.918 -1116.702)" fill="#b84c42"></path><path id="Trazado_7512" data-name="Trazado 7512" d="M1585.557,1364.763h22.6a1.386,1.386,0,0,0,1.386-1.386v-5.76a1.386,1.386,0,0,0-1.386-1.386h-22.6a1.386,1.386,0,0,0-1.386,1.386v5.76a1.386,1.386,0,0,0,1.386,1.386" transform="translate(-1304.385 -1116.702)" fill="#b84c42"></path><path id="Trazado_7513" data-name="Trazado 7513" d="M1434.313,1364.763h22.6a1.386,1.386,0,0,0,1.386-1.386v-5.76a1.386,1.386,0,0,0-1.386-1.386h-22.6a1.386,1.386,0,0,0-1.386,1.386v5.76a1.386,1.386,0,0,0,1.386,1.386" transform="translate(-1179.853 -1116.702)" fill="#b84c42"></path><path id="Trazado_7514" data-name="Trazado 7514" d="M1282.118,1364.763h22.6a1.386,1.386,0,0,0,1.386-1.386v-5.76a1.386,1.386,0,0,0-1.386-1.386h-22.6a1.386,1.386,0,0,0-1.386,1.386v5.76a1.386,1.386,0,0,0,1.386,1.386" transform="translate(-1054.538 -1116.702)" fill="#b84c42"></path><path id="Trazado_7515" data-name="Trazado 7515" d="M1130.876,1364.763h22.6a1.386,1.386,0,0,0,1.386-1.386v-5.76a1.386,1.386,0,0,0-1.386-1.386h-22.6a1.386,1.386,0,0,0-1.386,1.386v5.76a1.386,1.386,0,0,0,1.386,1.386" transform="translate(-930.007 -1116.702)" fill="#b84c42"></path><path id="Trazado_7516" data-name="Trazado 7516" d="M979.631,1364.763h22.6a1.386,1.386,0,0,0,1.386-1.386v-5.76a1.386,1.386,0,0,0-1.386-1.386h-22.6a1.386,1.386,0,0,0-1.386,1.386v5.76a1.386,1.386,0,0,0,1.386,1.386" transform="translate(-805.474 -1116.702)" fill="#b84c42"></path><path id="Trazado_7517" data-name="Trazado 7517" d="M828.387,1364.763h22.6a1.386,1.386,0,0,0,1.386-1.386v-5.76a1.386,1.386,0,0,0-1.386-1.386h-22.6a1.386,1.386,0,0,0-1.386,1.386v5.76a1.386,1.386,0,0,0,1.386,1.386" transform="translate(-680.942 -1116.702)" fill="#b84c42"></path><path id="Trazado_7518" data-name="Trazado 7518" d="M677.144,1364.763h22.6a1.386,1.386,0,0,0,1.386-1.386v-5.76a1.386,1.386,0,0,0-1.386-1.386h-22.6a1.386,1.386,0,0,0-1.386,1.386v5.76a1.386,1.386,0,0,0,1.386,1.386" transform="translate(-556.41 -1116.702)" fill="#b84c42"></path><path id="Trazado_7519" data-name="Trazado 7519" d="M525.9,1364.763h22.6a1.386,1.386,0,0,0,1.386-1.386v-5.76a1.386,1.386,0,0,0-1.386-1.386H525.9a1.386,1.386,0,0,0-1.386,1.386v5.76a1.386,1.386,0,0,0,1.386,1.386" transform="translate(-431.878 -1116.702)" fill="#b84c42"></path><path id="Trazado_7520" data-name="Trazado 7520" d="M374.656,1364.763h22.6a1.386,1.386,0,0,0,1.386-1.386v-5.76a1.386,1.386,0,0,0-1.386-1.386h-22.6a1.386,1.386,0,0,0-1.386,1.386v5.76a1.386,1.386,0,0,0,1.386,1.386" transform="translate(-307.345 -1116.702)" fill="#b84c42"></path><path id="Trazado_7521" data-name="Trazado 7521" d="M223.412,1364.763h22.6a1.386,1.386,0,0,0,1.386-1.386v-5.76a1.386,1.386,0,0,0-1.386-1.386h-22.6a1.386,1.386,0,0,0-1.386,1.386v5.76a1.386,1.386,0,0,0,1.386,1.386" transform="translate(-182.813 -1116.702)" fill="#b84c42"></path><path id="Trazado_7522" data-name="Trazado 7522" d="M147.285,1364.763h9.733a1.386,1.386,0,0,0,1.386-1.386v-5.76a1.386,1.386,0,0,0-1.386-1.386h-9.733a1.386,1.386,0,0,0-1.386,1.386v5.76a1.386,1.386,0,0,0,1.386,1.386" transform="translate(-120.131 -1116.702)" fill="#b84c42"></path><path id="Trazado_7523" data-name="Trazado 7523" d="M2418.814,1310.007h22.6a1.386,1.386,0,0,0,1.386-1.386v-5.76a1.386,1.386,0,0,0-1.386-1.386h-22.6a1.386,1.386,0,0,0-1.386,1.386v5.76a1.386,1.386,0,0,0,1.386,1.386" transform="translate(-1990.478 -1071.616)" fill="#b84c42"></path><path id="Trazado_7524" data-name="Trazado 7524" d="M2267.571,1310.007h22.6a1.386,1.386,0,0,0,1.386-1.386v-5.76a1.386,1.386,0,0,0-1.386-1.386h-22.6a1.386,1.386,0,0,0-1.386,1.386v5.76a1.386,1.386,0,0,0,1.386,1.386" transform="translate(-1865.947 -1071.616)" fill="#b84c42"></path><path id="Trazado_7525" data-name="Trazado 7525" d="M2116.326,1310.007h22.6a1.386,1.386,0,0,0,1.386-1.386v-5.76a1.386,1.386,0,0,0-1.386-1.386h-22.6a1.386,1.386,0,0,0-1.386,1.386v5.76a1.386,1.386,0,0,0,1.386,1.386" transform="translate(-1741.413 -1071.616)" fill="#b84c42"></path><path id="Trazado_7526" data-name="Trazado 7526" d="M1965.082,1310.007h22.6a1.386,1.386,0,0,0,1.386-1.386v-5.76a1.386,1.386,0,0,0-1.386-1.386h-22.6a1.386,1.386,0,0,0-1.386,1.386v5.76a1.386,1.386,0,0,0,1.386,1.386" transform="translate(-1616.881 -1071.616)" fill="#b84c42"></path><path id="Trazado_7527" data-name="Trazado 7527" d="M1813.838,1310.007h22.6a1.386,1.386,0,0,0,1.386-1.386v-5.76a1.386,1.386,0,0,0-1.386-1.386h-22.6a1.386,1.386,0,0,0-1.386,1.386v5.76a1.386,1.386,0,0,0,1.386,1.386" transform="translate(-1492.349 -1071.616)" fill="#b84c42"></path><path id="Trazado_7528" data-name="Trazado 7528" d="M1662.595,1310.007h22.6a1.386,1.386,0,0,0,1.386-1.386v-5.76a1.386,1.386,0,0,0-1.386-1.386h-22.6a1.386,1.386,0,0,0-1.386,1.386v5.76a1.386,1.386,0,0,0,1.386,1.386" transform="translate(-1367.817 -1071.616)" fill="#b84c42"></path><path id="Trazado_7529" data-name="Trazado 7529" d="M1511.351,1310.007h22.6a1.386,1.386,0,0,0,1.386-1.386v-5.76a1.386,1.386,0,0,0-1.386-1.386h-22.6a1.386,1.386,0,0,0-1.386,1.386v5.76a1.386,1.386,0,0,0,1.386,1.386" transform="translate(-1243.285 -1071.616)" fill="#b84c42"></path><path id="Trazado_7530" data-name="Trazado 7530" d="M1360.107,1310.007h22.6a1.386,1.386,0,0,0,1.386-1.386v-5.76a1.386,1.386,0,0,0-1.386-1.386h-22.6a1.386,1.386,0,0,0-1.386,1.386v5.76a1.386,1.386,0,0,0,1.386,1.386" transform="translate(-1118.753 -1071.616)" fill="#b84c42"></path><path id="Trazado_7531" data-name="Trazado 7531" d="M1207.912,1310.007h22.6a1.386,1.386,0,0,0,1.386-1.386v-5.76a1.386,1.386,0,0,0-1.386-1.386h-22.6a1.386,1.386,0,0,0-1.386,1.386v5.76a1.386,1.386,0,0,0,1.386,1.386" transform="translate(-993.437 -1071.616)" fill="#b84c42"></path><path id="Trazado_7532" data-name="Trazado 7532" d="M1056.669,1310.007h22.6a1.386,1.386,0,0,0,1.386-1.386v-5.76a1.386,1.386,0,0,0-1.386-1.386h-22.6a1.386,1.386,0,0,0-1.386,1.386v5.76a1.386,1.386,0,0,0,1.386,1.386" transform="translate(-868.906 -1071.616)" fill="#b84c42"></path><path id="Trazado_7533" data-name="Trazado 7533" d="M905.425,1310.007h22.6a1.386,1.386,0,0,0,1.386-1.386v-5.76a1.386,1.386,0,0,0-1.386-1.386h-22.6a1.386,1.386,0,0,0-1.386,1.386v5.76a1.386,1.386,0,0,0,1.386,1.386" transform="translate(-744.374 -1071.616)" fill="#b84c42"></path><path id="Trazado_7534" data-name="Trazado 7534" d="M754.181,1310.007h22.6a1.386,1.386,0,0,0,1.386-1.386v-5.76a1.386,1.386,0,0,0-1.386-1.386h-22.6a1.386,1.386,0,0,0-1.386,1.386v5.76a1.386,1.386,0,0,0,1.386,1.386" transform="translate(-619.841 -1071.616)" fill="#b84c42"></path><path id="Trazado_7535" data-name="Trazado 7535" d="M602.937,1310.007h22.6a1.386,1.386,0,0,0,1.386-1.386v-5.76a1.386,1.386,0,0,0-1.386-1.386h-22.6a1.386,1.386,0,0,0-1.386,1.386v5.76a1.386,1.386,0,0,0,1.386,1.386" transform="translate(-495.309 -1071.616)" fill="#b84c42"></path><path id="Trazado_7536" data-name="Trazado 7536" d="M451.694,1310.007h22.6a1.386,1.386,0,0,0,1.386-1.386v-5.76a1.386,1.386,0,0,0-1.386-1.386h-22.6a1.386,1.386,0,0,0-1.386,1.386v5.76a1.386,1.386,0,0,0,1.386,1.386" transform="translate(-370.778 -1071.616)" fill="#b84c42"></path><path id="Trazado_7537" data-name="Trazado 7537" d="M300.45,1310.007h22.6a1.386,1.386,0,0,0,1.386-1.386v-5.76a1.386,1.386,0,0,0-1.386-1.386h-22.6a1.386,1.386,0,0,0-1.386,1.386v5.76a1.386,1.386,0,0,0,1.386,1.386" transform="translate(-246.245 -1071.616)" fill="#b84c42"></path><path id="Trazado_7538" data-name="Trazado 7538" d="M149.206,1310.007h22.6a1.386,1.386,0,0,0,1.386-1.386v-5.76a1.386,1.386,0,0,0-1.386-1.386h-22.6a1.386,1.386,0,0,0-1.386,1.386v5.76a1.386,1.386,0,0,0,1.386,1.386" transform="translate(-121.713 -1071.616)" fill="#b84c42"></path><path id="Trazado_7539" data-name="Trazado 7539" d="M2493.02,1254.828h9.733a1.386,1.386,0,0,0,1.386-1.386v-5.76a1.386,1.386,0,0,0-1.386-1.386h-9.733a1.386,1.386,0,0,0-1.386,1.386v5.76a1.386,1.386,0,0,0,1.386,1.386" transform="translate(-2051.578 -1026.182)" fill="#b84c42"></path><path id="Trazado_7540" data-name="Trazado 7540" d="M2341.776,1254.828h22.6a1.386,1.386,0,0,0,1.386-1.386v-5.76a1.386,1.386,0,0,0-1.386-1.386h-22.6a1.386,1.386,0,0,0-1.386,1.386v5.76a1.386,1.386,0,0,0,1.386,1.386" transform="translate(-1927.046 -1026.182)" fill="#b84c42"></path><path id="Trazado_7541" data-name="Trazado 7541" d="M2190.532,1254.828h22.6a1.386,1.386,0,0,0,1.386-1.386v-5.76a1.386,1.386,0,0,0-1.386-1.386h-22.6a1.386,1.386,0,0,0-1.386,1.386v5.76a1.386,1.386,0,0,0,1.386,1.386" transform="translate(-1802.514 -1026.182)" fill="#b84c42"></path><path id="Trazado_7542" data-name="Trazado 7542" d="M2039.288,1254.828h22.6a1.386,1.386,0,0,0,1.386-1.386v-5.76a1.386,1.386,0,0,0-1.386-1.386h-22.6a1.386,1.386,0,0,0-1.386,1.386v5.76a1.386,1.386,0,0,0,1.386,1.386" transform="translate(-1677.981 -1026.182)" fill="#b84c42"></path><path id="Trazado_7543" data-name="Trazado 7543" d="M1888.044,1254.828h22.6a1.386,1.386,0,0,0,1.386-1.386v-5.76a1.386,1.386,0,0,0-1.386-1.386h-22.6a1.386,1.386,0,0,0-1.386,1.386v5.76a1.386,1.386,0,0,0,1.386,1.386" transform="translate(-1553.449 -1026.182)" fill="#b84c42"></path><path id="Trazado_7544" data-name="Trazado 7544" d="M1736.8,1254.828h22.6a1.386,1.386,0,0,0,1.386-1.386v-5.76a1.386,1.386,0,0,0-1.386-1.386h-22.6a1.386,1.386,0,0,0-1.386,1.386v5.76a1.386,1.386,0,0,0,1.386,1.386" transform="translate(-1428.918 -1026.182)" fill="#b84c42"></path><path id="Trazado_7545" data-name="Trazado 7545" d="M1585.557,1254.828h22.6a1.386,1.386,0,0,0,1.386-1.386v-5.76a1.386,1.386,0,0,0-1.386-1.386h-22.6a1.386,1.386,0,0,0-1.386,1.386v5.76a1.386,1.386,0,0,0,1.386,1.386" transform="translate(-1304.385 -1026.182)" fill="#b84c42"></path><path id="Trazado_7546" data-name="Trazado 7546" d="M1434.313,1254.828h22.6a1.386,1.386,0,0,0,1.386-1.386v-5.76a1.386,1.386,0,0,0-1.386-1.386h-22.6a1.386,1.386,0,0,0-1.386,1.386v5.76a1.386,1.386,0,0,0,1.386,1.386" transform="translate(-1179.853 -1026.182)" fill="#b84c42"></path><path id="Trazado_7547" data-name="Trazado 7547" d="M1282.118,1254.828h22.6a1.386,1.386,0,0,0,1.386-1.386v-5.76a1.386,1.386,0,0,0-1.386-1.386h-22.6a1.386,1.386,0,0,0-1.386,1.386v5.76a1.386,1.386,0,0,0,1.386,1.386" transform="translate(-1054.538 -1026.182)" fill="#b84c42"></path><path id="Trazado_7548" data-name="Trazado 7548" d="M1130.876,1254.828h22.6a1.386,1.386,0,0,0,1.386-1.386v-5.76a1.386,1.386,0,0,0-1.386-1.386h-22.6a1.386,1.386,0,0,0-1.386,1.386v5.76a1.386,1.386,0,0,0,1.386,1.386" transform="translate(-930.007 -1026.182)" fill="#b84c42"></path><path id="Trazado_7549" data-name="Trazado 7549" d="M979.631,1254.828h22.6a1.386,1.386,0,0,0,1.386-1.386v-5.76a1.386,1.386,0,0,0-1.386-1.386h-22.6a1.386,1.386,0,0,0-1.386,1.386v5.76a1.386,1.386,0,0,0,1.386,1.386" transform="translate(-805.474 -1026.182)" fill="#b84c42"></path><path id="Trazado_7550" data-name="Trazado 7550" d="M828.387,1254.828h22.6a1.386,1.386,0,0,0,1.386-1.386v-5.76a1.386,1.386,0,0,0-1.386-1.386h-22.6a1.386,1.386,0,0,0-1.386,1.386v5.76a1.386,1.386,0,0,0,1.386,1.386" transform="translate(-680.942 -1026.182)" fill="#b84c42"></path><path id="Trazado_7551" data-name="Trazado 7551" d="M677.144,1254.828h22.6a1.386,1.386,0,0,0,1.386-1.386v-5.76a1.386,1.386,0,0,0-1.386-1.386h-22.6a1.386,1.386,0,0,0-1.386,1.386v5.76a1.386,1.386,0,0,0,1.386,1.386" transform="translate(-556.41 -1026.182)" fill="#b84c42"></path><path id="Trazado_7552" data-name="Trazado 7552" d="M525.9,1254.828h22.6a1.386,1.386,0,0,0,1.386-1.386v-5.76a1.386,1.386,0,0,0-1.386-1.386H525.9a1.386,1.386,0,0,0-1.386,1.386v5.76a1.386,1.386,0,0,0,1.386,1.386" transform="translate(-431.878 -1026.182)" fill="#b84c42"></path><path id="Trazado_7553" data-name="Trazado 7553" d="M374.656,1254.828h22.6a1.386,1.386,0,0,0,1.386-1.386v-5.76a1.386,1.386,0,0,0-1.386-1.386h-22.6a1.386,1.386,0,0,0-1.386,1.386v5.76a1.386,1.386,0,0,0,1.386,1.386" transform="translate(-307.345 -1026.182)" fill="#b84c42"></path><path id="Trazado_7554" data-name="Trazado 7554" d="M223.412,1254.828h22.6a1.386,1.386,0,0,0,1.386-1.386v-5.76a1.386,1.386,0,0,0-1.386-1.386h-22.6a1.386,1.386,0,0,0-1.386,1.386v5.76a1.386,1.386,0,0,0,1.386,1.386" transform="translate(-182.813 -1026.182)" fill="#b84c42"></path><path id="Trazado_7555" data-name="Trazado 7555" d="M147.285,1254.828h9.733a1.386,1.386,0,0,0,1.386-1.386v-5.76a1.386,1.386,0,0,0-1.386-1.386h-9.733a1.386,1.386,0,0,0-1.386,1.386v5.76a1.386,1.386,0,0,0,1.386,1.386" transform="translate(-120.131 -1026.182)" fill="#b84c42"></path><path id="Trazado_7556" data-name="Trazado 7556" d="M2418.814,1198.7h22.6a1.386,1.386,0,0,0,1.386-1.386v-5.76a1.386,1.386,0,0,0-1.386-1.386h-22.6a1.386,1.386,0,0,0-1.386,1.386v5.76a1.386,1.386,0,0,0,1.386,1.386" transform="translate(-1990.478 -979.966)" fill="#b84c42"></path><path id="Trazado_7557" data-name="Trazado 7557" d="M2267.571,1198.7h22.6a1.386,1.386,0,0,0,1.386-1.386v-5.76a1.386,1.386,0,0,0-1.386-1.386h-22.6a1.386,1.386,0,0,0-1.386,1.386v5.76a1.386,1.386,0,0,0,1.386,1.386" transform="translate(-1865.947 -979.966)" fill="#b84c42"></path><path id="Trazado_7558" data-name="Trazado 7558" d="M2116.326,1198.7h22.6a1.386,1.386,0,0,0,1.386-1.386v-5.76a1.386,1.386,0,0,0-1.386-1.386h-22.6a1.386,1.386,0,0,0-1.386,1.386v5.76a1.386,1.386,0,0,0,1.386,1.386" transform="translate(-1741.413 -979.966)" fill="#b84c42"></path><path id="Trazado_7559" data-name="Trazado 7559" d="M1965.082,1198.7h22.6a1.386,1.386,0,0,0,1.386-1.386v-5.76a1.386,1.386,0,0,0-1.386-1.386h-22.6a1.386,1.386,0,0,0-1.386,1.386v5.76a1.386,1.386,0,0,0,1.386,1.386" transform="translate(-1616.881 -979.966)" fill="#b84c42"></path><path id="Trazado_7560" data-name="Trazado 7560" d="M1813.838,1198.7h22.6a1.386,1.386,0,0,0,1.386-1.386v-5.76a1.386,1.386,0,0,0-1.386-1.386h-22.6a1.386,1.386,0,0,0-1.386,1.386v5.76a1.386,1.386,0,0,0,1.386,1.386" transform="translate(-1492.349 -979.966)" fill="#b84c42"></path><path id="Trazado_7561" data-name="Trazado 7561" d="M1662.595,1198.7h22.6a1.386,1.386,0,0,0,1.386-1.386v-5.76a1.386,1.386,0,0,0-1.386-1.386h-22.6a1.386,1.386,0,0,0-1.386,1.386v5.76a1.386,1.386,0,0,0,1.386,1.386" transform="translate(-1367.817 -979.966)" fill="#b84c42"></path><path id="Trazado_7562" data-name="Trazado 7562" d="M1511.351,1198.7h22.6a1.386,1.386,0,0,0,1.386-1.386v-5.76a1.386,1.386,0,0,0-1.386-1.386h-22.6a1.386,1.386,0,0,0-1.386,1.386v5.76a1.386,1.386,0,0,0,1.386,1.386" transform="translate(-1243.285 -979.966)" fill="#b84c42"></path><path id="Trazado_7563" data-name="Trazado 7563" d="M1360.107,1198.7h22.6a1.386,1.386,0,0,0,1.386-1.386v-5.76a1.386,1.386,0,0,0-1.386-1.386h-22.6a1.386,1.386,0,0,0-1.386,1.386v5.76a1.386,1.386,0,0,0,1.386,1.386" transform="translate(-1118.753 -979.966)" fill="#b84c42"></path><path id="Trazado_7564" data-name="Trazado 7564" d="M1207.912,1198.7h22.6a1.386,1.386,0,0,0,1.386-1.386v-5.76a1.386,1.386,0,0,0-1.386-1.386h-22.6a1.386,1.386,0,0,0-1.386,1.386v5.76a1.386,1.386,0,0,0,1.386,1.386" transform="translate(-993.437 -979.966)" fill="#b84c42"></path><path id="Trazado_7565" data-name="Trazado 7565" d="M1056.669,1198.7h22.6a1.386,1.386,0,0,0,1.386-1.386v-5.76a1.386,1.386,0,0,0-1.386-1.386h-22.6a1.386,1.386,0,0,0-1.386,1.386v5.76a1.386,1.386,0,0,0,1.386,1.386" transform="translate(-868.906 -979.966)" fill="#b84c42"></path><path id="Trazado_7566" data-name="Trazado 7566" d="M905.425,1198.7h22.6a1.386,1.386,0,0,0,1.386-1.386v-5.76a1.386,1.386,0,0,0-1.386-1.386h-22.6a1.386,1.386,0,0,0-1.386,1.386v5.76a1.386,1.386,0,0,0,1.386,1.386" transform="translate(-744.374 -979.966)" fill="#b84c42"></path><path id="Trazado_7567" data-name="Trazado 7567" d="M754.181,1198.7h22.6a1.386,1.386,0,0,0,1.386-1.386v-5.76a1.386,1.386,0,0,0-1.386-1.386h-22.6a1.386,1.386,0,0,0-1.386,1.386v5.76a1.386,1.386,0,0,0,1.386,1.386" transform="translate(-619.841 -979.966)" fill="#b84c42"></path><path id="Trazado_7568" data-name="Trazado 7568" d="M602.937,1198.7h22.6a1.386,1.386,0,0,0,1.386-1.386v-5.76a1.386,1.386,0,0,0-1.386-1.386h-22.6a1.386,1.386,0,0,0-1.386,1.386v5.76a1.386,1.386,0,0,0,1.386,1.386" transform="translate(-495.309 -979.966)" fill="#b84c42"></path><path id="Trazado_7569" data-name="Trazado 7569" d="M451.694,1198.7h22.6a1.386,1.386,0,0,0,1.386-1.386v-5.76a1.386,1.386,0,0,0-1.386-1.386h-22.6a1.386,1.386,0,0,0-1.386,1.386v5.76a1.386,1.386,0,0,0,1.386,1.386" transform="translate(-370.778 -979.966)" fill="#b84c42"></path><path id="Trazado_7570" data-name="Trazado 7570" d="M300.45,1198.7h22.6a1.386,1.386,0,0,0,1.386-1.386v-5.76a1.386,1.386,0,0,0-1.386-1.386h-22.6a1.386,1.386,0,0,0-1.386,1.386v5.76a1.386,1.386,0,0,0,1.386,1.386" transform="translate(-246.245 -979.966)" fill="#b84c42"></path><path id="Trazado_7571" data-name="Trazado 7571" d="M149.206,1198.7h22.6a1.386,1.386,0,0,0,1.386-1.386v-5.76a1.386,1.386,0,0,0-1.386-1.386h-22.6a1.386,1.386,0,0,0-1.386,1.386v5.76a1.386,1.386,0,0,0,1.386,1.386" transform="translate(-121.713 -979.966)" fill="#b84c42"></path><path id="Trazado_7572" data-name="Trazado 7572" d="M2493.02,1143.519h9.733a1.386,1.386,0,0,0,1.386-1.386v-5.76a1.386,1.386,0,0,0-1.386-1.386h-9.733a1.386,1.386,0,0,0-1.386,1.386v5.76a1.386,1.386,0,0,0,1.386,1.386" transform="translate(-2051.578 -934.532)" fill="#b84c42"></path><path id="Trazado_7573" data-name="Trazado 7573" d="M2341.776,1143.519h22.6a1.386,1.386,0,0,0,1.386-1.386v-5.76a1.386,1.386,0,0,0-1.386-1.386h-22.6a1.386,1.386,0,0,0-1.386,1.386v5.76a1.386,1.386,0,0,0,1.386,1.386" transform="translate(-1927.046 -934.532)" fill="#b84c42"></path><path id="Trazado_7574" data-name="Trazado 7574" d="M2190.532,1143.519h22.6a1.386,1.386,0,0,0,1.386-1.386v-5.76a1.386,1.386,0,0,0-1.386-1.386h-22.6a1.386,1.386,0,0,0-1.386,1.386v5.76a1.386,1.386,0,0,0,1.386,1.386" transform="translate(-1802.514 -934.532)" fill="#b84c42"></path><path id="Trazado_7575" data-name="Trazado 7575" d="M2039.288,1143.519h22.6a1.386,1.386,0,0,0,1.386-1.386v-5.76a1.386,1.386,0,0,0-1.386-1.386h-22.6a1.386,1.386,0,0,0-1.386,1.386v5.76a1.386,1.386,0,0,0,1.386,1.386" transform="translate(-1677.981 -934.532)" fill="#b84c42"></path><path id="Trazado_7576" data-name="Trazado 7576" d="M1888.044,1143.519h22.6a1.386,1.386,0,0,0,1.386-1.386v-5.76a1.386,1.386,0,0,0-1.386-1.386h-22.6a1.386,1.386,0,0,0-1.386,1.386v5.76a1.386,1.386,0,0,0,1.386,1.386" transform="translate(-1553.449 -934.532)" fill="#b84c42"></path><path id="Trazado_7577" data-name="Trazado 7577" d="M1736.8,1143.519h22.6a1.386,1.386,0,0,0,1.386-1.386v-5.76a1.386,1.386,0,0,0-1.386-1.386h-22.6a1.386,1.386,0,0,0-1.386,1.386v5.76a1.386,1.386,0,0,0,1.386,1.386" transform="translate(-1428.918 -934.532)" fill="#b84c42"></path><path id="Trazado_7578" data-name="Trazado 7578" d="M1585.557,1143.519h22.6a1.386,1.386,0,0,0,1.386-1.386v-5.76a1.386,1.386,0,0,0-1.386-1.386h-22.6a1.386,1.386,0,0,0-1.386,1.386v5.76a1.386,1.386,0,0,0,1.386,1.386" transform="translate(-1304.385 -934.532)" fill="#b84c42"></path><path id="Trazado_7579" data-name="Trazado 7579" d="M1434.313,1143.519h22.6a1.386,1.386,0,0,0,1.386-1.386v-5.76a1.386,1.386,0,0,0-1.386-1.386h-22.6a1.386,1.386,0,0,0-1.386,1.386v5.76a1.386,1.386,0,0,0,1.386,1.386" transform="translate(-1179.853 -934.532)" fill="#b84c42"></path><path id="Trazado_7580" data-name="Trazado 7580" d="M1282.118,1143.519h22.6a1.386,1.386,0,0,0,1.386-1.386v-5.76a1.386,1.386,0,0,0-1.386-1.386h-22.6a1.386,1.386,0,0,0-1.386,1.386v5.76a1.386,1.386,0,0,0,1.386,1.386" transform="translate(-1054.538 -934.532)" fill="#b84c42"></path><path id="Trazado_7581" data-name="Trazado 7581" d="M132.705,1103.616" transform="translate(-109.268 -908.702)" fill="#b84c42"></path><path id="Trazado_7582" data-name="Trazado 7582" d="M528.242,1569.483H82.027a.491.491,0,1,1,0-.982H528.242a.491.491,0,1,1,0,.982" transform="translate(-67.136 -1291.482)" fill="#283250"></path></g></g></g></svg>