<svg xmlns="http://www.w3.org/2000/svg" xmlns:xlink="http://www.w3.org/1999/xlink" width="381.334" height="334.86" viewBox="0 0 381.334 334.86"><defs><clipPath id="clip-path"><rect id="Rect&#xE1;ngulo_215" data-name="Rect&#xE1;ngulo 215" width="53.486" height="34.659" fill="none"></rect></clipPath><clipPath id="clip-path-3"><path id="Trazado_3927" data-name="Trazado 3927" d="M0,184.586c0,74.664,66.446,114.655,146.883,122.765a313.545,313.545,0,0,0,31.432,1.554c2,0,3.986-.024,5.961-.067.094,0,.188-.005.282-.005q4.2-.1,8.316-.322a242.3,242.3,0,0,0,32.6-3.946,218.376,218.376,0,0,0,25.993-6.642q3.518-1.137,6.948-2.383c81.17-29.428,122.921-102.433,122.921-167.779,0-84.209-109.777-144.04-203.019-123.808C86.628,23.851,0,100.376,0,184.586" transform="translate(0 0.001)" fill="#39bea6"></path></clipPath><clipPath id="clip-path-4"><rect id="Rect&#xE1;ngulo_1757" data-name="Rect&#xE1;ngulo 1757" width="381.334" height="353.875" fill="none"></rect></clipPath></defs><g id="Grupo_1635" data-name="Grupo 1635" transform="translate(-798.666 -1750.226)"><path id="Trazado_3926" data-name="Trazado 3926" d="M0,184.586c0,74.664,66.446,114.655,146.883,122.765a313.545,313.545,0,0,0,31.432,1.554c2,0,3.986-.024,5.961-.067.094,0,.188-.005.282-.005q4.2-.1,8.316-.322a242.3,242.3,0,0,0,32.6-3.946,218.376,218.376,0,0,0,25.993-6.642q3.518-1.137,6.948-2.383c81.17-29.428,122.921-102.433,122.921-167.779,0-84.209-109.777-144.04-203.019-123.808C86.628,23.851,0,100.376,0,184.586" transform="translate(798.666 1776.181)" fill="#fff"></path><g id="Grupo_738" data-name="Grupo 738" transform="matrix(0.966, 0.259, -0.259, 0.966, 1091.957, 1769.057)"><path id="Trazado_78" data-name="Trazado 78" d="M41.685,0A50.226,50.226,0,0,0,22.192,3.5C8.233,9.294-3.614,24.619,1.022,40.273c1.506,5.085.715,10.7,5.781,12.9,2.741,1.2,10.205,1.907,13.043.965,7.543-2.5,12.5-9.359,8.4-16.96C26.931,34.749,25.231,32.525,24.1,30s-1.652-5.517-.495-8.03c2.27-4.932,9.813-6.5,14.7-6.352a17.115,17.115,0,0,1,14.11,7.928c3.872,6.1,4.853,13.53,4.286,20.616-.606,7.583-3.8,13.373-8.595,19.19-4.125,5.008-8.668,9.815-11.41,15.7-2.517,5.4-3.34,11.38-3.453,17.286-.022,1.145-5.715,11.932-5.69,15.228,0,.466,6.457,2.008,6.922,2.013l11.844.132a.944.944,0,0,0,.956-.931c.18-16.034,5.112-31.321,17.6-42.09,4.543-3.918,9.435-7.109,12.968-12.055,5.035-7.049,7.519-13.987,6.8-22.686-.655-7.946-3.271-15.9-8.45-22.06C70.625,7.261,62.478,3.123,54.01,1.338A62.477,62.477,0,0,0,41.685,0" transform="translate(6.385 1.68)" fill="#ef8220"></path><path id="Trazado_79" data-name="Trazado 79" d="M25.045,12.812c0,7.373-4.087,13.9-11.46,13.9-1.593,0-7.01.015-8.426-.5C.019,24.354,0,20.405,0,14.625,0,7.252,2.49,0,9.863,0S25.045,5.438,25.045,12.812" transform="translate(35.416 120.553)" fill="#ef8220"></path><path id="Trazado_80" data-name="Trazado 80" d="M41.685,0A50.227,50.227,0,0,0,22.192,3.5C8.233,9.294-3.614,24.619,1.022,40.273c1.506,5.085,4.988,11.486,10.054,13.7a12.389,12.389,0,0,0,8.77.174c7.543-2.5,12.5-9.359,8.4-16.96C26.931,34.749,25.231,32.525,24.1,30s-1.651-5.517-.495-8.03c2.27-4.932,9.813-6.5,14.7-6.352a17.115,17.115,0,0,1,14.11,7.928c3.872,6.1,4.853,13.53,4.286,20.616-.606,7.583-3.8,13.373-8.595,19.19-4.125,5.008-8.668,9.815-11.409,15.7-2.517,5.4-3.34,11.38-3.453,17.286-.022,1.145.363,13.1.388,16.394a.853.853,0,0,0,.844.847l11.844.132a.944.944,0,0,0,.956-.931c.18-16.034,5.112-31.321,17.6-42.09,4.543-3.918,9.435-7.109,12.968-12.055,5.035-7.049,7.519-13.987,6.8-22.686-.655-7.946-3.271-15.9-8.45-22.06C70.625,7.261,62.478,3.123,54.01,1.338A62.478,62.478,0,0,0,41.685,0" transform="translate(0 0)" fill="#f99746"></path><path id="Trazado_81" data-name="Trazado 81" d="M26.7,13.35A13.35,13.35,0,1,1,13.35,0,13.35,13.35,0,0,1,26.7,13.35" transform="translate(29.031 120.148)" fill="#f99746"></path><g id="Grupo_170" data-name="Grupo 170" transform="translate(4.752 4.081)"><g id="Grupo_169" data-name="Grupo 169" clip-path="url(#clip-path)"><path id="Trazado_82" data-name="Trazado 82" d="M.689,34.659a.171.171,0,0,1-.167-.134C-.414,30.3-.551,23.685,4.108,16.159A32.512,32.512,0,0,1,23.065,1.551c8.586-2.51,18.78-1.972,30.3,1.6a.171.171,0,0,1-.1.327C31.133-3.382,13.779,1.187,4.4,16.34-.2,23.767-.065,30.288.857,34.45a.171.171,0,0,1-.13.2.168.168,0,0,1-.037,0" transform="translate(0 0)" fill="#fff"></path></g></g></g><g id="Grupo_739" data-name="Grupo 739" transform="matrix(-0.966, 0.259, -0.259, -0.966, 918.157, 1884.557)"><path id="Trazado_78-2" data-name="Trazado 78" d="M41.685,0A50.226,50.226,0,0,0,22.192,3.5C8.233,9.294-3.614,24.619,1.022,40.273c1.506,5.085.715,10.7,5.781,12.9,2.741,1.2,10.205,1.907,13.043.965,7.543-2.5,12.5-9.359,8.4-16.96C26.931,34.749,25.231,32.525,24.1,30s-1.652-5.517-.495-8.03c2.27-4.932,9.813-6.5,14.7-6.352a17.115,17.115,0,0,1,14.11,7.928c3.872,6.1,4.853,13.53,4.286,20.616-.606,7.583-3.8,13.373-8.595,19.19-4.125,5.008-8.668,9.815-11.41,15.7-2.517,5.4-3.34,11.38-3.453,17.286-.022,1.145-5.715,11.932-5.69,15.228,0,.466,6.457,2.008,6.922,2.013l11.844.132a.944.944,0,0,0,.956-.931c.18-16.034,5.112-31.321,17.6-42.09,4.543-3.918,9.435-7.109,12.968-12.055,5.035-7.049,7.519-13.987,6.8-22.686-.655-7.946-3.271-15.9-8.45-22.06C70.625,7.261,62.478,3.123,54.01,1.338A62.477,62.477,0,0,0,41.685,0" transform="translate(6.385 1.68)" fill="#ef8220"></path><path id="Trazado_79-2" data-name="Trazado 79" d="M25.045,12.812c0,7.373-4.087,13.9-11.46,13.9-1.593,0-7.01.015-8.426-.5C.019,24.354,0,20.405,0,14.625,0,7.252,2.49,0,9.863,0S25.045,5.438,25.045,12.812" transform="translate(35.416 120.553)" fill="#ef8220"></path><path id="Trazado_80-2" data-name="Trazado 80" d="M41.685,0A50.227,50.227,0,0,0,22.192,3.5C8.233,9.294-3.614,24.619,1.022,40.273c1.506,5.085,4.988,11.486,10.054,13.7a12.389,12.389,0,0,0,8.77.174c7.543-2.5,12.5-9.359,8.4-16.96C26.931,34.749,25.231,32.525,24.1,30s-1.651-5.517-.495-8.03c2.27-4.932,9.813-6.5,14.7-6.352a17.115,17.115,0,0,1,14.11,7.928c3.872,6.1,4.853,13.53,4.286,20.616-.606,7.583-3.8,13.373-8.595,19.19-4.125,5.008-8.668,9.815-11.409,15.7-2.517,5.4-3.34,11.38-3.453,17.286-.022,1.145.363,13.1.388,16.394a.853.853,0,0,0,.844.847l11.844.132a.944.944,0,0,0,.956-.931c.18-16.034,5.112-31.321,17.6-42.09,4.543-3.918,9.435-7.109,12.968-12.055,5.035-7.049,7.519-13.987,6.8-22.686-.655-7.946-3.271-15.9-8.45-22.06C70.625,7.261,62.478,3.123,54.01,1.338A62.478,62.478,0,0,0,41.685,0" transform="translate(0 0)" fill="#f99746"></path><path id="Trazado_81-2" data-name="Trazado 81" d="M26.7,13.35A13.35,13.35,0,1,1,13.35,0,13.35,13.35,0,0,1,26.7,13.35" transform="translate(29.031 120.148)" fill="#f99746"></path><g id="Grupo_170-2" data-name="Grupo 170" transform="translate(4.752 4.081)"><g id="Grupo_169-2" data-name="Grupo 169" clip-path="url(#clip-path)"><path id="Trazado_82-2" data-name="Trazado 82" d="M.689,34.659a.171.171,0,0,1-.167-.134C-.414,30.3-.551,23.685,4.108,16.159A32.512,32.512,0,0,1,23.065,1.551c8.586-2.51,18.78-1.972,30.3,1.6a.171.171,0,0,1-.1.327C31.133-3.382,13.779,1.187,4.4,16.34-.2,23.767-.065,30.288.857,34.45a.171.171,0,0,1-.13.2.168.168,0,0,1-.037,0" transform="translate(0 0)" fill="#fff"></path></g></g></g><g id="Enmascarar_grupo_5" data-name="Enmascarar grupo 5" transform="translate(798.666 1776.18)" clip-path="url(#clip-path-3)"><g id="Grupo_461" data-name="Grupo 461" transform="translate(0 -44.97)"><g id="Grupo_458" data-name="Grupo 458" transform="translate(0)"><g id="Grupo_457" data-name="Grupo 457" clip-path="url(#clip-path-4)"><path id="Trazado_2036" data-name="Trazado 2036" d="M354.434,152.952c.954-1.726,11.906-19.99,41.275-6.372,0,0-15.052-5.491-20.663-.492,0,0,13.569-2.82,20.185,3.644s4.262,22.594,2.012,27.154S383.221,193.854,377.6,192.57a17.081,17.081,0,0,1-6.054-3.055,76.225,76.225,0,0,1,.375,8.884c-.447,29.475-24.02,46.573-32.481,39.085-5.426-4.8-12.6,4.974-12.6,4.974l-35.871-79.94s45.688-34.887,63.464-9.566" transform="translate(-122.333 -90.918)" fill="#8f322a"></path><path id="Trazado_2037" data-name="Trazado 2037" d="M381.014,476.325A82.337,82.337,0,0,0,409.8,488.575c44.366,10.251,61.369-27.247,67.754-52.986a38.131,38.131,0,0,0-15.031-4.618c-3.207-.378-6.579-.629-9.372-.768-4.982-3.816-12.405-19.433-14.047-43.681l-2.087.56-34.966,9.57s1.6,11.115,2.387,21.62c.607,8.221.7,16.077-.855,18-2.728.592-4.366.979-4.366.979a.1.1,0,0,1-.018.033,225.13,225.13,0,0,0-18.182,39.042" transform="translate(-232.537 -248.231)" fill="#ffb27d"></path><path id="Trazado_2038" data-name="Trazado 2038" d="M494.314,397.678s1.608,11.105,2.386,21.62c19.81-1.983,29-20.844,32.582-31.189Z" transform="translate(-324.805 -249.251)" fill="#ed985f"></path><path id="Trazado_2039" data-name="Trazado 2039" d="M462.605,290.365s45.73,11.241,52.292-17.345,16.884-46.388-12.036-54.773-37.117,1.215-41.628,10.224-10.354,58.233,1.372,61.894" transform="translate(-303.907 -138.091)" fill="#ffb27d"></path><path id="Trazado_2040" data-name="Trazado 2040" d="M435.813,201.511c9.06-6.98,13.991-3.868,16.405-.6,28.24-8.063,39.749,16.023,39.749,16.023a56.03,56.03,0,0,0,10.5,36.349s-9.547,3.257-27.7-6.108c-5.546-2.861-9.849-8.25-13.161-14.35a109.84,109.84,0,0,0,13.289,26.721c-20.607-15.912-22.54-50.069-22.688-53.668-3.378,1.876-10.149,6.081-13.057,11.054-3.952,6.759-8.4,21.513-12.657,20.005,0,0-4.262-24.963,9.326-35.431" transform="translate(-273.491 -126.718)" fill="#8f322a"></path><path id="Trazado_2041" data-name="Trazado 2041" d="M350.83,515.458c6.389-3.4,14.6-5.917,23.541-7.773a19.582,19.582,0,0,0,18.648,11.608c13.341-.245,26.54-15,27.824-16.47,15.285-.491,26.521-.008,26.521-.008s32.192,50.376,28.208,62.041a205.517,205.517,0,0,0-6.3,22.674,231.751,231.751,0,0,0-3.214,78.311c.736,5.419,1.4,10.648,1.4,10.648l-101.4.166s-8.4-29.907-14.629-55.422q-.282-1.151-.556-2.286c-4.222,8.7-16.2,21.785-21.624,22.813-.326.062-1.845.1-4.034.115-8.118.066-23.826.175-23.826.175-3.018-24.043,36.254-120.87,49.442-126.591" transform="translate(-202.351 -322.781)" fill="#7a8ee1"></path><path id="Trazado_2042" data-name="Trazado 2042" d="M349.521,817.192a231.732,231.732,0,0,1,3.214-78.311c-.031-.4-.046-.61-.046-.61s-27.74,26.5-32.533,54.211c-3.271,18.917,16.7,23.848,29.366,24.711" transform="translate(-85.818 -474.131)" fill="#405c9c"></path><path id="Trazado_2043" data-name="Trazado 2043" d="M122.508,640.376c.575-1.828,9.779-11.21,14.764-12.361s21.442,2.635,21.442,2.635h0a428.568,428.568,0,0,0,60.772-12.932c4.8-1.4,9.732-2.922,14.737-4.594l-41.541-37.453-36.744-73.606s31.157-2.458,39.045,2.243c28.376,16.911,80.95,115.623,79.953,136.065,0,0-13.318.736-37.641,1.043-18.69.242-43.884.23-74.523-.556a62.831,62.831,0,0,1-6.907-.485Z" transform="translate(62.553 -322.023)" fill="#ffb27d"></path><path id="Trazado_2044" data-name="Trazado 2044" d="M159.252,575.672l36.641,37.894c-3.611,1.366-7.38,3.317-9.836,4.153a42.39,42.39,0,0,0,17.808,23.7c24.323-.307,37.641-1.043,37.641-1.043,1-20.443-51.576-119.154-79.953-136.065-7.888-4.7-39.045-2.243-39.045-2.243Z" transform="translate(95.984 -322.023)" fill="#7a8ee1"></path><path id="Trazado_2045" data-name="Trazado 2045" d="M650.669,803.313c2.19-.019,27.534-.228,27.86-.29,5.422-1.027,17.4-14.111,21.624-22.812.184.755-1.343-8.237-2.761-11.883a103.3,103.3,0,0,0-7.144-14.53c-14.564-2.193-39.617,35.684-39.579,49.515" transform="translate(-551.632 -484.044)" fill="#405c9c"></path><path id="Trazado_2046" data-name="Trazado 2046" d="M637.531,550.817a862.221,862.221,0,0,1,23.686-115.6l.084-.007c.8-3.077,7.092-27.11,9.723-29.742,2.812-2.812,17.639-8.7,20.2-9.337a3.226,3.226,0,0,1-1.118,3.042,25.451,25.451,0,0,1-2.343,1.681l3.512,1.889a4.334,4.334,0,0,1-3.283.863,25.119,25.119,0,0,1-3.291-.816c-.729.445-1.445.873-2.1,1.255a12.858,12.858,0,0,0-2.528,2.837c-.134.558-.61,3.019-.908,4.575a7.468,7.468,0,0,0,1.316-1.443c1.406-2.173,4.346-1.949,4.346-1.949s-4.025,5.056-4.406,8.333A12.988,12.988,0,0,1,677.052,424h0a18.578,18.578,0,0,0-3.684,4.815c-.892,1.85-1.242,5.392-1.489,7.433h0c-.6,7.371-2.67,34.539-2.106,54.545.759,26.923,3.309,51.055.284,66.029a27.738,27.738,0,0,1-3.594,9.679c-6.6,10.123-29.8,7.169-29.8,7.169s-1-8.757.864-22.853" transform="translate(-537.63 -254.4)" fill="#ffb27d"></path><path id="Trazado_2047" data-name="Trazado 2047" d="M695.961,851.337s23.2,2.954,29.8-7.169a27.744,27.744,0,0,0,3.593-9.679,40.834,40.834,0,0,1-32.526-6.005c-1.86,14.1-.864,22.853-.864,22.853" transform="translate(-596.924 -532.067)" fill="#7a8ee1"></path></g></g></g></g></g></svg>