<svg xmlns="http://www.w3.org/2000/svg" xmlns:xlink="http://www.w3.org/1999/xlink" width="495.478" height="435.093" viewBox="0 0 495.478 435.093"><defs><clipPath id="clip-path"><rect id="Rect&#xE1;ngulo_215" data-name="Rect&#xE1;ngulo 215" width="69.496" height="45.033" fill="none"></rect></clipPath><clipPath id="clip-path-3"><path id="Trazado_3927" data-name="Trazado 3927" d="M495.478,239.837c0,97.013-86.335,148.975-190.849,159.513a407.4,407.4,0,0,1-40.84,2.019c-2.6,0-5.18-.031-7.745-.086-.122,0-.245-.007-.367-.007q-5.461-.128-10.806-.418a314.826,314.826,0,0,1-42.355-5.128,283.747,283.747,0,0,1-33.773-8.63q-4.572-1.478-9.028-3.1C54.248,345.769,0,250.911,0,166.005,0,56.59,142.636-21.15,263.789,5.138c119.131,25.852,231.689,125.284,231.689,234.7" transform="translate(93.661 1409.432)" fill="#39bea6"></path></clipPath><clipPath id="clip-path-4"><rect id="Rect&#xE1;ngulo_1757" data-name="Rect&#xE1;ngulo 1757" width="495.478" height="459.801" fill="none"></rect></clipPath></defs><g id="Grupo_740" data-name="Grupo 740" transform="translate(-93.661 -1375.708)"><path id="Trazado_3926" data-name="Trazado 3926" d="M495.478,239.837c0,97.013-86.335,148.975-190.849,159.513a407.4,407.4,0,0,1-40.84,2.019c-2.6,0-5.18-.031-7.745-.086-.122,0-.245-.007-.367-.007q-5.461-.128-10.806-.418a314.826,314.826,0,0,1-42.355-5.128,283.747,283.747,0,0,1-33.773-8.63q-4.572-1.478-9.028-3.1C54.248,345.769,0,250.911,0,166.005,0,56.59,142.636-21.15,263.789,5.138c119.131,25.852,231.689,125.284,231.689,234.7" transform="translate(93.661 1409.432)" fill="#39bea6" opacity="0.1"></path><g id="Grupo_738" data-name="Grupo 738" transform="matrix(0.966, 0.259, -0.259, 0.966, 474.743, 1400.176)"><path id="Trazado_78" data-name="Trazado 78" d="M54.163,0A65.26,65.26,0,0,0,28.834,4.551C10.7,12.076-4.7,31.989,1.328,52.328c1.957,6.607.929,13.9,7.511,16.768C12.4,70.649,22.1,71.574,25.786,70.35,35.587,67.1,42.03,58.19,36.7,48.313c-1.707-3.163-3.916-6.052-5.39-9.33s-2.146-7.168-.643-10.434c2.95-6.409,12.75-8.446,19.1-8.254A22.238,22.238,0,0,1,68.1,30.6c5.031,7.932,6.305,17.58,5.569,26.787-.788,9.852-4.942,17.376-11.167,24.934-5.36,6.507-11.262,12.753-14.825,20.394-3.27,7.014-4.339,14.787-4.487,22.461-.029,1.487-7.426,15.5-7.394,19.786,0,.6,8.389,2.609,8.994,2.616l15.39.172a1.227,1.227,0,0,0,1.242-1.21c.234-20.834,6.642-40.7,22.864-54.688,5.9-5.091,12.26-9.237,16.849-15.663,6.542-9.159,9.769-18.173,8.838-29.477-.851-10.324-4.25-20.654-10.98-28.664C91.766,9.435,81.179,4.058,70.177,1.738A81.179,81.179,0,0,0,54.163,0" transform="translate(8.296 2.183)" fill="#3728ae"></path><path id="Trazado_79" data-name="Trazado 79" d="M32.542,16.646c0,9.58-5.31,18.056-14.891,18.056-2.069,0-9.109.019-10.949-.646C.024,31.644,0,26.513,0,19,0,9.422,3.235,0,12.815,0S32.542,7.066,32.542,16.646" transform="translate(46.017 156.639)" fill="#3728ae"></path><path id="Trazado_80" data-name="Trazado 80" d="M54.163,0A65.261,65.261,0,0,0,28.834,4.551C10.7,12.076-4.7,31.989,1.328,52.328c1.957,6.607,6.481,14.924,13.063,17.8a16.1,16.1,0,0,0,11.4.226C35.587,67.1,42.03,58.19,36.7,48.313c-1.707-3.163-3.916-6.052-5.391-9.33s-2.146-7.168-.643-10.434c2.95-6.409,12.75-8.446,19.1-8.254A22.238,22.238,0,0,1,68.1,30.6c5.031,7.932,6.305,17.58,5.569,26.787-.788,9.852-4.942,17.376-11.167,24.934-5.36,6.507-11.262,12.753-14.825,20.394-3.271,7.014-4.339,14.787-4.487,22.461-.029,1.487.472,17.02.5,21.3a1.108,1.108,0,0,0,1.1,1.1l15.39.172a1.227,1.227,0,0,0,1.242-1.21c.234-20.834,6.643-40.7,22.864-54.688,5.9-5.091,12.26-9.237,16.849-15.663,6.542-9.159,9.769-18.173,8.838-29.477-.851-10.324-4.25-20.654-10.98-28.664C91.766,9.435,81.179,4.058,70.177,1.738A81.18,81.18,0,0,0,54.163,0" transform="translate(0 0)" fill="#988def"></path><path id="Trazado_81" data-name="Trazado 81" d="M34.693,17.347A17.347,17.347,0,1,1,17.347,0,17.346,17.346,0,0,1,34.693,17.347" transform="translate(37.721 156.111)" fill="#988def"></path><g id="Grupo_170" data-name="Grupo 170" transform="translate(6.175 5.302)"><g id="Grupo_169" data-name="Grupo 169" clip-path="url(#clip-path)"><path id="Trazado_82" data-name="Trazado 82" d="M.9,45.033a.223.223,0,0,1-.217-.175C-.537,39.37-.716,30.774,5.337,21A42.243,42.243,0,0,1,29.97,2.016c11.156-3.261,24.4-2.563,39.37,2.075a.223.223,0,0,1-.132.425C40.452-4.394,17.9,1.542,5.716,21.23c-5.974,9.651-5.8,18.123-4.6,23.532a.223.223,0,0,1-.169.265.218.218,0,0,1-.048.005" transform="translate(0 0)" fill="#fff"></path></g></g></g><g id="Grupo_739" data-name="Grupo 739" transform="matrix(-0.966, 0.259, -0.259, -0.966, 248.919, 1550.248)"><path id="Trazado_78-2" data-name="Trazado 78" d="M54.163,0A65.26,65.26,0,0,0,28.834,4.551C10.7,12.076-4.7,31.989,1.328,52.328c1.957,6.607.929,13.9,7.511,16.768C12.4,70.649,22.1,71.574,25.786,70.35,35.587,67.1,42.03,58.19,36.7,48.313c-1.707-3.163-3.916-6.052-5.39-9.33s-2.146-7.168-.643-10.434c2.95-6.409,12.75-8.446,19.1-8.254A22.238,22.238,0,0,1,68.1,30.6c5.031,7.932,6.305,17.58,5.569,26.787-.788,9.852-4.942,17.376-11.167,24.934-5.36,6.507-11.262,12.753-14.825,20.394-3.27,7.014-4.339,14.787-4.487,22.461-.029,1.487-7.426,15.5-7.394,19.786,0,.6,8.389,2.609,8.994,2.616l15.39.172a1.227,1.227,0,0,0,1.242-1.21c.234-20.834,6.642-40.7,22.864-54.688,5.9-5.091,12.26-9.237,16.849-15.663,6.542-9.159,9.769-18.173,8.838-29.477-.851-10.324-4.25-20.654-10.98-28.664C91.766,9.435,81.179,4.058,70.177,1.738A81.179,81.179,0,0,0,54.163,0" transform="translate(8.296 2.183)" fill="#3728ae"></path><path id="Trazado_79-2" data-name="Trazado 79" d="M32.542,16.646c0,9.58-5.31,18.056-14.891,18.056-2.069,0-9.109.019-10.949-.646C.024,31.644,0,26.513,0,19,0,9.422,3.235,0,12.815,0S32.542,7.066,32.542,16.646" transform="translate(46.017 156.639)" fill="#3728ae"></path><path id="Trazado_80-2" data-name="Trazado 80" d="M54.163,0A65.261,65.261,0,0,0,28.834,4.551C10.7,12.076-4.7,31.989,1.328,52.328c1.957,6.607,6.481,14.924,13.063,17.8a16.1,16.1,0,0,0,11.4.226C35.587,67.1,42.03,58.19,36.7,48.313c-1.707-3.163-3.916-6.052-5.391-9.33s-2.146-7.168-.643-10.434c2.95-6.409,12.75-8.446,19.1-8.254A22.238,22.238,0,0,1,68.1,30.6c5.031,7.932,6.305,17.58,5.569,26.787-.788,9.852-4.942,17.376-11.167,24.934-5.36,6.507-11.262,12.753-14.825,20.394-3.271,7.014-4.339,14.787-4.487,22.461-.029,1.487.472,17.02.5,21.3a1.108,1.108,0,0,0,1.1,1.1l15.39.172a1.227,1.227,0,0,0,1.242-1.21c.234-20.834,6.643-40.7,22.864-54.688,5.9-5.091,12.26-9.237,16.849-15.663,6.542-9.159,9.769-18.173,8.838-29.477-.851-10.324-4.25-20.654-10.98-28.664C91.766,9.435,81.179,4.058,70.177,1.738A81.18,81.18,0,0,0,54.163,0" transform="translate(0 0)" fill="#988def"></path><path id="Trazado_81-2" data-name="Trazado 81" d="M34.693,17.347A17.347,17.347,0,1,1,17.347,0,17.346,17.346,0,0,1,34.693,17.347" transform="translate(37.721 156.111)" fill="#988def"></path><g id="Grupo_170-2" data-name="Grupo 170" transform="translate(6.175 5.302)"><g id="Grupo_169-2" data-name="Grupo 169" clip-path="url(#clip-path)"><path id="Trazado_82-2" data-name="Trazado 82" d="M.9,45.033a.223.223,0,0,1-.217-.175C-.537,39.37-.716,30.774,5.337,21A42.243,42.243,0,0,1,29.97,2.016c11.156-3.261,24.4-2.563,39.37,2.075a.223.223,0,0,1-.132.425C40.452-4.394,17.9,1.542,5.716,21.23c-5.974,9.651-5.8,18.123-4.6,23.532a.223.223,0,0,1-.169.265.218.218,0,0,1-.048.005" transform="translate(0 0)" fill="#fff"></path></g></g></g><g id="Enmascarar_grupo_5" data-name="Enmascarar grupo 5" clip-path="url(#clip-path-3)"><g id="Grupo_461" data-name="Grupo 461" transform="translate(-10.861 -1579.818)"><g id="Grupo_458" data-name="Grupo 458" transform="translate(104.522 2930.819)"><g id="Grupo_457" data-name="Grupo 457" clip-path="url(#clip-path-4)"><path id="Trazado_2036" data-name="Trazado 2036" d="M349.607,156.359c-1.24-2.243-15.47-25.973-53.63-8.279,0,0,19.557-7.135,26.848-.639,0,0-17.63-3.664-26.227,4.734s-5.537,29.357-2.614,35.282S312.2,209.5,319.512,207.836a22.193,22.193,0,0,0,7.867-3.969,99.05,99.05,0,0,0-.487,11.543c.581,38.3,31.21,60.513,42.2,50.785,7.05-6.24,16.365,6.463,16.365,6.463l46.608-103.869s-59.364-45.33-82.461-12.43" transform="translate(-155.705 -75.757)" fill="#2c3a64"></path><path id="Trazado_2037" data-name="Trazado 2037" d="M506.447,503.206c-9.77,6.778-22.02,12.368-37.4,15.916-57.647,13.319-79.738-35.4-88.035-68.847a49.545,49.545,0,0,1,19.53-6c4.167-.491,8.549-.818,12.177-1,6.473-4.958,16.119-25.249,18.251-56.755l2.712.727,45.432,12.435s-2.081,14.442-3.1,28.092c-.788,10.682-.913,20.89,1.111,23.387,3.545.769,5.672,1.271,5.672,1.271a.124.124,0,0,0,.023.043,292.516,292.516,0,0,1,23.625,50.728" transform="translate(-203.89 -206.837)" fill="#ffb27d"></path><path id="Trazado_2038" data-name="Trazado 2038" d="M539.75,400.542s-2.089,14.429-3.1,28.091c-25.739-2.576-37.684-27.083-42.335-40.524Z" transform="translate(-264.519 -207.686)" fill="#ed985f"></path><path id="Trazado_2039" data-name="Trazado 2039" d="M533.144,312.917S473.726,327.523,465.2,290.38s-21.938-60.273,15.639-71.168,48.228,1.579,54.089,13.284,13.454,75.664-1.783,80.421" transform="translate(-243.867 -115.063)" fill="#ffb27d"></path><path id="Trazado_2040" data-name="Trazado 2040" d="M512.454,202.768c-11.772-9.069-18.179-5.026-21.316-.774-36.693-10.476-51.647,20.819-51.647,20.819,2.1,27.568-13.637,47.23-13.637,47.23s12.4,4.232,35.995-7.936c7.206-3.717,12.8-10.719,17.1-18.645a142.718,142.718,0,0,1-17.266,34.719c26.775-20.675,29.287-65.056,29.479-69.732,4.388,2.438,13.187,7.9,16.965,14.363,5.135,8.782,10.92,27.952,16.445,25.993,0,0,5.537-32.435-12.117-46.037" transform="translate(-227.884 -105.587)" fill="#2c3a64"></path><path id="Trazado_2041" data-name="Trazado 2041" d="M463.747,519.307c-8.3-4.414-18.973-7.688-30.587-10.1a25.443,25.443,0,0,1-24.23,15.082c-17.334-.319-34.484-19.492-36.153-21.4-19.86-.638-34.459-.01-34.459-.01s-41.828,65.455-36.651,80.611a267.02,267.02,0,0,1,8.191,29.462A301.119,301.119,0,0,1,314.034,714.7c-.957,7.041-1.824,13.835-1.824,13.835l131.752.216s10.917-38.859,19.008-72.012q.366-1.5.722-2.97c5.486,11.305,21.051,28.306,28.1,29.641.423.08,2.4.125,5.242.149,10.548.085,30.957.227,30.957.227,3.921-31.24-47.106-157.05-64.241-164.484" transform="translate(-161.192 -268.955)" fill="#f99746"></path><path id="Trazado_2042" data-name="Trazado 2042" d="M323.974,840.816A301.094,301.094,0,0,0,319.8,739.064c.04-.518.06-.793.06-.793S355.9,772.7,362.13,808.709c4.25,24.579-21.7,30.986-38.156,32.107" transform="translate(-171.131 -395.066)" fill="#ed7d2b"></path><path id="Trazado_2043" data-name="Trazado 2043" d="M320.58,681.968c-.747-2.375-12.706-14.566-19.183-16.06s-27.861,3.424-27.861,3.424h0a556.861,556.861,0,0,1-78.963-16.8c-6.243-1.813-12.646-3.8-19.148-5.969L229.4,597.9l47.742-95.639s-40.483-3.194-50.732,2.914C189.54,527.146,121.23,655.4,122.526,681.966c0,0,17.3.957,48.908,1.355,24.285.314,57.019.3,96.83-.722a81.643,81.643,0,0,0,8.974-.63Z" transform="translate(-65.557 -268.324)" fill="#ffb27d"></path><path id="Trazado_2044" data-name="Trazado 2044" d="M229.4,597.9l-47.608,49.237c4.692,1.775,9.589,4.31,12.78,5.4a55.078,55.078,0,0,1-23.139,30.792c-31.6-.4-48.908-1.356-48.908-1.356-1.3-26.562,67.014-154.821,103.885-176.794,10.249-6.109,50.732-2.914,50.732-2.914Z" transform="translate(-65.557 -268.323)" fill="#f99746"></path><path id="Trazado_2045" data-name="Trazado 2045" d="M714.985,818.162c-2.845-.025-35.776-.3-36.2-.377-7.045-1.335-22.611-18.335-28.1-29.641-.238.981,1.745-10.7,3.587-15.44a134.2,134.2,0,0,1,9.283-18.879c18.924-2.85,51.476,46.365,51.426,64.337" transform="translate(-348.188 -403.326)" fill="#ed7d2b"></path><path id="Trazado_2046" data-name="Trazado 2046" d="M706.227,597.12a1120.309,1120.309,0,0,0-30.776-150.207l-.109-.009c-1.038-4-9.214-35.225-12.633-38.645-3.654-3.653-22.919-11.31-26.241-12.132a4.191,4.191,0,0,0,1.453,3.953,33.077,33.077,0,0,0,3.044,2.184l-4.564,2.455a5.632,5.632,0,0,0,4.266,1.121,32.634,32.634,0,0,0,4.276-1.06c.947.578,1.878,1.135,2.727,1.63,1.436,1.359,3.137,3.071,3.285,3.686.174.725.793,3.922,1.18,5.944a9.7,9.7,0,0,1-1.71-1.875c-1.827-2.823-5.647-2.533-5.647-2.533s5.229,6.569,5.724,10.827a16.876,16.876,0,0,0,4.374,9.885h0c1.332,1.567,3.2,2.971,4.787,6.256,1.159,2.4,1.614,7.006,1.935,9.658h0c.785,9.577,3.47,44.877,2.736,70.871-.987,34.982-4.3,66.337-.369,85.793a36.041,36.041,0,0,0,4.669,12.576c8.574,13.154,38.715,9.315,38.715,9.315s1.294-11.378-1.123-29.693" transform="translate(-340.553 -211.977)" fill="#ffb27d"></path><path id="Trazado_2047" data-name="Trazado 2047" d="M739.079,858.177s-30.141,3.839-38.715-9.315a36.048,36.048,0,0,1-4.669-12.576,53.057,53.057,0,0,0,42.262-7.8c2.416,18.315,1.123,29.693,1.123,29.693" transform="translate(-372.283 -443.341)" fill="#f99746"></path></g></g></g></g></g></svg>