<svg xmlns="http://www.w3.org/2000/svg" xmlns:xlink="http://www.w3.org/1999/xlink" width="471.441" height="350" viewBox="0 0 471.441 350"><defs><clipPath id="clip-path"><path id="Trazado_2829" data-name="Trazado 2829" d="M432.063,209.141c0,84.6-75.285,129.908-166.423,139.1A355.256,355.256,0,0,1,230.027,350c-2.269,0-4.517-.027-6.754-.075-.106,0-.213-.006-.32-.006q-4.762-.112-9.423-.364a274.534,274.534,0,0,1-36.934-4.471,247.426,247.426,0,0,1-29.451-7.525q-3.986-1.288-7.872-2.7C47.305,301.515,0,218.8,0,144.759,0,49.347,124.38-18.443,230.027,4.481,333.911,27.024,432.063,113.73,432.063,209.141" transform="translate(0 0.001)" fill="#fff"></path></clipPath><clipPath id="clip-path-2"><rect id="Rect&#xE1;ngulo_1839" data-name="Rect&#xE1;ngulo 1839" width="256.812" height="631.342" fill="none"></rect></clipPath><clipPath id="clip-path-3"><rect id="Rect&#xE1;ngulo_215" data-name="Rect&#xE1;ngulo 215" width="60.601" height="39.269" fill="none"></rect></clipPath></defs><g id="que-tipo-embarcacion" transform="translate(-95.718 -1399.099)"><path id="Trazado_2035" data-name="Trazado 2035" d="M432.063,209.141c0,84.6-75.285,129.908-166.423,139.1A355.256,355.256,0,0,1,230.027,350c-2.269,0-4.517-.027-6.754-.075-.106,0-.213-.006-.32-.006q-4.762-.112-9.423-.364a274.534,274.534,0,0,1-36.934-4.471,247.426,247.426,0,0,1-29.451-7.525q-3.986-1.288-7.872-2.7C47.305,301.515,0,218.8,0,144.759,0,49.347,124.38-18.443,230.027,4.481,333.911,27.024,432.063,113.73,432.063,209.141" transform="translate(130.427 1399.1)" fill="#ebf3fa"></path><g id="Enmascarar_grupo_4" data-name="Enmascarar grupo 4" transform="translate(130.427 1399.099)" clip-path="url(#clip-path)"><g id="Grupo_584" data-name="Grupo 584" transform="translate(72.794 17.508)"><g id="Grupo_583" data-name="Grupo 583" clip-path="url(#clip-path-2)"><path id="Trazado_2811" data-name="Trazado 2811" d="M3.019,958.728c-5.1-3.112-2.2-26.329-2.2-26.329s23.758-19.007,27.024-4.455,22.572,21.086,33.56,22.868c7.586,1.23,9.934,5.431,10.661,7.916Z" transform="translate(184.745 -327.387)" fill="#132642"></path><path id="Trazado_2812" data-name="Trazado 2812" d="M163.094,958.728c-5.1-3.112-2.2-26.329-2.2-26.329s23.758-19.007,27.025-4.455,22.571,21.086,33.56,22.868c7.585,1.23,9.933,5.431,10.661,7.916Z" transform="translate(-78.594 -327.387)" fill="#1d3356"></path><path id="Trazado_2813" data-name="Trazado 2813" d="M66.037,456.734c0,22.872,8.881,55.1,8.881,55.1,6.768,32.788,65.494,256.27,71.151,258.4,9.433,3.557,33.483-3.91,33.109-7.26-18.309-164.276-24.755-300.6-25.819-305.88-3.01-2.326-75.959-25.847-87.323-.359" transform="translate(35.029 -157.923)" fill="#1e3d70"></path><path id="Trazado_2814" data-name="Trazado 2814" d="M184.473,18.113S168.427.608,163.468.025s-25.381,9.2-26.549,13.06,22.465-3.861,23.777,0,2.771,6.486,9.482,6.778a28.323,28.323,0,0,1,12.545,4.085Z" transform="translate(-15.959 0)" fill="#ffb27d"></path><path id="Trazado_2815" data-name="Trazado 2815" d="M219.967,131.7l-.018,4.123s.921,12.893-12.106,14.776-22.894-5.028-22.541-14.977c1.173-7.7,2.461-12.994,2.549-19.368a54.713,54.713,0,0,0-.463-7.72l25.241-.614,7.434,1.48Z" transform="translate(-82.78 -38.301)" fill="#ffb27d"></path><path id="Trazado_2816" data-name="Trazado 2816" d="M217.966,109.4,217.9,126c-28.582-2.137-32.243-14.624-32.6-17.462l25.241-.614Z" transform="translate(-80.684 -38.301)" fill="#e8945b"></path><path id="Trazado_2817" data-name="Trazado 2817" d="M215.061,91.234s-39.4,7.959-43.98-16.654S158.332,34.418,183.3,28.3s31.611,2.357,35.138,10.2,6.758,50.033-3.373,52.738" transform="translate(-72.179 -9.298)" fill="#ffb27d"></path><path id="Trazado_2818" data-name="Trazado 2818" d="M239.424,420.718c-42.883,195.3-48.383,331.443-48.383,331.443s-12.86,3.757-38.49.562c0,0-5.869-86.516-8.858-151.328-.877-19-9.827-131.182,2.509-185.567,4.973-21.916,98.09-17.281,93.222,4.89" transform="translate(-72.94 -142.512)" fill="#1c468a"></path><path id="Trazado_2819" data-name="Trazado 2819" d="M238.519,351.075s-12.732,11.591-46.371,11.38c-21.145-.134-49.735-5.055-62.525-7.7-17.207-3.565-14.468-9.791-13.073-22.531,1.79-16.326,2.508-45.927-6.679-96.1q-2.029-11.109-4.743-23.577c-7.73-35.414,36.8-55.933,42.539-64.29,32.7,30,41.834,2.17,41.834,2.17l.006-.007c.323,0,15.5,2.2,29.358-6.088,13.247-7.921,12.123,42.743,12.144,59.1.021,17.566,3.67,60.883,4.178,79.972.657,24.77,3.333,67.681,3.333,67.681" transform="translate(-48.944 -50.926)" fill="#9aa8f2"></path><path id="Trazado_2820" data-name="Trazado 2820" d="M110.637,70.438a40.972,40.972,0,0,1-1.149,4.46c0,.007-.006.007-.006.014-9.689,30.736-50.088,65.919-55.453,77.392-3.153,6.741-4.454,26.6-4.351,25.981l-29.608-66.81S62.694,79.443,64.484,74.9C67.2,68.014,25.5,30.2,25.5,30.2s-2.08-3.277.472-9.28c1.993-4.692,5.312-6.039,5.312-6.039s82.294,40.431,79.355,55.56" transform="translate(133.152 -5.28)" fill="#9aa8f2"></path><path id="Trazado_2821" data-name="Trazado 2821" d="M275.791,336.5c-3.025-20.667-3.159-25.362-10.6-75.528,2.8.566,7.939,4.144,17.272,3.891,12.76-.346,18.238,41.264-6.67,71.636" transform="translate(-207.514 -92.62)" fill="#7a8ee1"></path><path id="Trazado_2822" data-name="Trazado 2822" d="M238.842,387.512s20.452-12.364,26.79-10.8,20.091,7.544,19.239,11.2-16.827,6.146-19.608,5.717-7.266.075-9.088,1.646-16.315,2.157-18.085-2.086.752-5.681.752-5.681" transform="translate(-181.281 -133.65)" fill="#ffb27d"></path><path id="Trazado_2823" data-name="Trazado 2823" d="M343.789,150.863s-31.266,6.106-43.434,16.169c-12.432,10.282-58.037,71.091-55.154,92.163,2.925,21.384,53.637,54.472,53.637,54.472s9.955,3.307,10.307-12.547c0,0-26.757-39.551-25.347-44.132.886-2.877,40.32-34.511,40.32-34.511Z" transform="translate(-245.07 -53.542)" fill="#9aa8f2"></path><path id="Trazado_2824" data-name="Trazado 2824" d="M175.761,330.9a21.487,21.487,0,0,1-6.109,14.227l-5.869,6a3.616,3.616,0,0,1-5.306-.148l-8.146-9.3a12.9,12.9,0,0,1-3.178-9.048c.331-7.378.922-21.59,1.275-35.294.288-11.105.423-21.886.134-28.425-.923-20.878-8.54-87.211-8.54-87.211h5.017a268.367,268.367,0,0,1,22.118,59.992,232.883,232.883,0,0,1,4.89,27.219s4.594,37.874,3.713,61.986" transform="translate(-9.389 -64.488)" fill="#405c9c"></path><path id="Trazado_2825" data-name="Trazado 2825" d="M182.648,171.83l13.939-3.341a2.112,2.112,0,0,1,1.771,2.429c-.05,2.271-3.926,8.906-5.643,9.436s-13.365-3.929-10.068-8.524" transform="translate(-58.995 -59.798)" fill="#405c9c"></path><path id="Trazado_2826" data-name="Trazado 2826" d="M195.6,148.694c-.108-2.173,10.372-5.645,10.372-5.645s7.882,17.661,27.287,17.943c0,0-5.529,10.762-12.047,13.549,0,0-24.972-12.946-25.612-25.848" transform="translate(-102.631 -50.769)" fill="#7a8ee1"></path><path id="Trazado_2827" data-name="Trazado 2827" d="M164.817,161.608s6.52-10.217,6.555-16.824a45.514,45.514,0,0,1,13.3,6.51s-.8,12.7-5.771,19.081a53.549,53.549,0,0,0-14.088-8.767" transform="translate(-34.186 -51.385)" fill="#7a8ee1"></path><path id="Trazado_2828" data-name="Trazado 2828" d="M162.1,52.406c6,20.168,19.863,22.976,19.863,22.976s-1.178-2.353-1.824-8.465a8.292,8.292,0,0,1,.453-2.977,12.841,12.841,0,0,0-.171-7.872c-.592-1.735-.583-3.4.858-4.218,2.308-1.319,5.111,1.09,6.858,3.038a4.362,4.362,0,0,0,4.6,1.244l.031-.01c6.8-2.259.608-17.708,8.033-17.384,24.547,1.073,26.731-2.746,30.717-6.841,2.878-2.955,1.68-13.052-2.3-14.149a74.973,74.973,0,0,1-16.491-6.512,35.372,35.372,0,0,0-34.73.037c-16.162,6.382-20,27.351-15.9,41.131" transform="translate(-79.883 -2.375)" fill="#1e3d70"></path></g></g></g><path id="Trazado_78" data-name="Trazado 78" d="M47.231,0A56.908,56.908,0,0,0,25.144,3.969C9.328,10.531-4.095,27.894,1.158,45.631c1.706,5.762.81,12.118,6.55,14.622,3.106,1.355,11.563,2.161,14.778,1.094C31.033,58.508,36.651,50.742,32,42.13c-1.488-2.758-3.415-5.277-4.7-8.136s-1.871-6.251-.561-9.1c2.572-5.588,11.118-7.365,16.66-7.2a19.392,19.392,0,0,1,15.987,8.983c4.387,6.917,5.5,15.33,4.856,23.359-.687,8.591-4.309,15.152-9.738,21.743C49.832,77.457,44.685,82.9,41.579,89.566c-2.852,6.117-3.784,12.894-3.913,19.586-.025,1.3-6.475,13.52-6.447,17.254,0,.528,7.316,2.275,7.843,2.281l13.42.15a1.07,1.07,0,0,0,1.083-1.055c.2-18.167,5.792-35.488,19.938-47.689,5.147-4.44,10.69-8.055,14.693-13.659,5.7-7.987,8.519-15.847,7.707-25.7-.742-9-3.706-18.01-9.574-25C80.021,8.227,70.789,3.539,61.2,1.516A70.789,70.789,0,0,0,47.231,0" transform="matrix(0.966, 0.259, -0.259, 0.966, 474.392, 1415.391)" fill="#3728ae"></path><path id="Trazado_79" data-name="Trazado 79" d="M28.377,14.516c0,8.354-4.631,15.745-12.985,15.745-1.8,0-7.943.017-9.547-.563C.021,27.594,0,23.12,0,16.57,0,8.216,2.821,0,11.175,0s17.2,6.162,17.2,14.516" transform="matrix(0.966, 0.259, -0.259, 0.966, 471.305, 1554.003)" fill="#3728ae"></path><path id="Trazado_80" data-name="Trazado 80" d="M47.231,0A56.908,56.908,0,0,0,25.144,3.969C9.328,10.531-4.095,27.894,1.158,45.631,2.864,51.392,6.81,58.645,12.55,61.148a14.037,14.037,0,0,0,9.937.2C31.033,58.508,36.651,50.742,32,42.13c-1.489-2.758-3.415-5.277-4.7-8.136s-1.871-6.251-.561-9.1c2.572-5.588,11.118-7.365,16.66-7.2a19.392,19.392,0,0,1,15.987,8.983c4.387,6.917,5.5,15.33,4.856,23.359-.687,8.591-4.309,15.152-9.738,21.743C49.832,77.457,44.685,82.9,41.579,89.566c-2.852,6.117-3.784,12.894-3.913,19.586-.025,1.3.412,14.841.439,18.575a.966.966,0,0,0,.956.96l13.42.15a1.07,1.07,0,0,0,1.083-1.055c.2-18.167,5.792-35.488,19.938-47.689,5.147-4.44,10.69-8.055,14.693-13.659,5.7-7.987,8.519-15.847,7.707-25.7-.742-9-3.706-18.01-9.574-25C80.021,8.227,70.789,3.539,61.2,1.516A70.79,70.79,0,0,0,47.231,0" transform="matrix(0.966, 0.259, -0.259, 0.966, 467.897, 1411.68)" fill="#988def"></path><path id="Trazado_81" data-name="Trazado 81" d="M30.253,15.127A15.126,15.126,0,1,1,15.126,0,15.126,15.126,0,0,1,30.253,15.127" transform="matrix(0.966, 0.259, -0.259, 0.966, 464.436, 1551.686)" fill="#988def"></path><g id="Grupo_169" data-name="Grupo 169" transform="matrix(0.966, 0.259, -0.259, 0.966, 471.901, 1417.54)" clip-path="url(#clip-path-3)"><path id="Trazado_82" data-name="Trazado 82" d="M.781,39.269a.194.194,0,0,1-.189-.152C-.469,34.331-.624,26.836,4.654,18.309A36.837,36.837,0,0,1,26.134,1.758C35.863-1.086,47.413-.477,60.465,3.567a.194.194,0,0,1-.115.371C35.275-3.832,15.612,1.345,4.984,18.513-.225,26.929-.074,34.317.97,39.033a.194.194,0,0,1-.148.231.19.19,0,0,1-.042,0" transform="translate(0 0)" fill="#fff"></path></g><path id="Trazado_78-2" data-name="Trazado 78" d="M47.231,0A56.908,56.908,0,0,0,25.144,3.969C9.328,10.531-4.095,27.894,1.158,45.631c1.706,5.762.81,12.118,6.55,14.622,3.106,1.355,11.563,2.161,14.778,1.094C31.033,58.508,36.651,50.742,32,42.13c-1.488-2.758-3.415-5.277-4.7-8.136s-1.871-6.251-.561-9.1c2.572-5.588,11.118-7.365,16.66-7.2a19.392,19.392,0,0,1,15.987,8.983c4.387,6.917,5.5,15.33,4.856,23.359-.687,8.591-4.309,15.152-9.738,21.743C49.832,77.457,44.685,82.9,41.579,89.566c-2.852,6.117-3.784,12.894-3.913,19.586-.025,1.3-6.475,13.52-6.447,17.254,0,.528,7.316,2.275,7.843,2.281l13.42.15a1.07,1.07,0,0,0,1.083-1.055c.2-18.167,5.792-35.488,19.938-47.689,5.147-4.44,10.69-8.055,14.693-13.659,5.7-7.987,8.519-15.847,7.707-25.7-.742-9-3.706-18.01-9.574-25C80.021,8.227,70.789,3.539,61.2,1.516A70.789,70.789,0,0,0,47.231,0" transform="matrix(-0.966, 0.259, -0.259, -0.966, 221.831, 1560.3)" fill="#3728ae"></path><path id="Trazado_79-2" data-name="Trazado 79" d="M28.377,14.516c0,8.354-4.631,15.745-12.985,15.745-1.8,0-7.943.017-9.547-.563C.021,27.594,0,23.12,0,16.57,0,8.216,2.821,0,11.175,0s17.2,6.162,17.2,14.516" transform="matrix(-0.966, 0.259, -0.259, -0.966, 155.199, 1438.715)" fill="#3728ae"></path><path id="Trazado_80-2" data-name="Trazado 80" d="M47.231,0A56.908,56.908,0,0,0,25.144,3.969C9.328,10.531-4.095,27.894,1.158,45.631,2.864,51.392,6.81,58.645,12.55,61.148a14.037,14.037,0,0,0,9.937.2C31.033,58.508,36.651,50.742,32,42.13c-1.489-2.758-3.415-5.277-4.7-8.136s-1.871-6.251-.561-9.1c2.572-5.588,11.118-7.365,16.66-7.2a19.392,19.392,0,0,1,15.987,8.983c4.387,6.917,5.5,15.33,4.856,23.359-.687,8.591-4.309,15.152-9.738,21.743C49.832,77.457,44.685,82.9,41.579,89.566c-2.852,6.117-3.784,12.894-3.913,19.586-.025,1.3.412,14.841.439,18.575a.966.966,0,0,0,.956.96l13.42.15a1.07,1.07,0,0,0,1.083-1.055c.2-18.167,5.792-35.488,19.938-47.689,5.147-4.44,10.69-8.055,14.693-13.659,5.7-7.987,8.519-15.847,7.707-25.7-.742-9-3.706-18.01-9.574-25C80.021,8.227,70.789,3.539,61.2,1.516A70.79,70.79,0,0,0,47.231,0" transform="matrix(-0.966, 0.259, -0.259, -0.966, 229.311, 1560.266)" fill="#988def"></path><path id="Trazado_81-2" data-name="Trazado 81" d="M30.253,15.127A15.126,15.126,0,1,1,15.126,0,15.126,15.126,0,0,1,30.253,15.127" transform="matrix(-0.966, 0.259, -0.259, -0.966, 162.305, 1437.287)" fill="#988def"></path><g id="Grupo_169-2" data-name="Grupo 169" transform="matrix(-0.966, 0.259, -0.259, -0.966, 222.913, 1557.194)" clip-path="url(#clip-path-3)"><path id="Trazado_82-2" data-name="Trazado 82" d="M.781,39.269a.194.194,0,0,1-.189-.152C-.469,34.331-.624,26.836,4.654,18.309A36.837,36.837,0,0,1,26.134,1.758C35.863-1.086,47.413-.477,60.465,3.567a.194.194,0,0,1-.115.371C35.275-3.832,15.612,1.345,4.984,18.513-.225,26.929-.074,34.317.97,39.033a.194.194,0,0,1-.148.231.19.19,0,0,1-.042,0" transform="translate(0 0)" fill="#fff"></path></g></g></svg>