<svg xmlns="http://www.w3.org/2000/svg" xmlns:xlink="http://www.w3.org/1999/xlink" id="que-se-necesita-cotizar-poliza" width="566" height="363.244" viewBox="0 0 566 363.244"><defs><clipPath id="clip-path"><rect id="Rect&#xE1;ngulo_3249" data-name="Rect&#xE1;ngulo 3249" width="566" height="363.244" fill="none"></rect></clipPath><clipPath id="clip-path-2"><rect id="Rect&#xE1;ngulo_3248" data-name="Rect&#xE1;ngulo 3248" width="565.999" height="363.243" fill="none"></rect></clipPath><clipPath id="clip-path-3"><rect id="Rect&#xE1;ngulo_3235" data-name="Rect&#xE1;ngulo 3235" width="80.209" height="50.519" fill="none"></rect></clipPath><clipPath id="clip-path-4"><rect id="Rect&#xE1;ngulo_3237" data-name="Rect&#xE1;ngulo 3237" width="80.209" height="50.52" fill="none"></rect></clipPath></defs><g id="Grupo_876" data-name="Grupo 876" clip-path="url(#clip-path)"><g id="Grupo_875" data-name="Grupo 875" transform="translate(0 0.001)"><g id="Grupo_874" data-name="Grupo 874" clip-path="url(#clip-path-2)"><path id="Trazado_4399" data-name="Trazado 4399" d="M486.4,647.271s55.906-1.33,79.795-35.214c43.278-61.384,23.774-115.214-53.274-111.208-86.193,4.483-75.563-185.8-224.809-94.187-32.408,19.893-104.535-21.885-133.351,65.158-6.852,20.7-58.312,22.14-91.569,38.739C11.021,536.6,25.753,647.705,75.037,648.143s411.36-.871,411.36-.871" transform="translate(-22.788 -285.883)" fill="#ebf2f9"></path><path id="Trazado_4400" data-name="Trazado 4400" d="M1682.494,330.415h1.836l.41-24.042,80.266-24.179,34.159,23.345a2,2,0,0,1,.274.187l0,0h0a1.975,1.975,0,0,1,.726,1.527V318.78a1.982,1.982,0,0,1-1.976,1.976H1781.4a1.981,1.981,0,0,1-1.975-1.976v-4.61h-11.2V526.243h-13.172V314.17h-54.184l-15.1,16.246h3.1a1.982,1.982,0,0,1,1.975,1.976v1.976a1.982,1.982,0,0,1-1.975,1.976h-6.367a1.982,1.982,0,0,1-1.976-1.976v-1.976a1.982,1.982,0,0,1,1.976-1.976m96.956-23.49a1.982,1.982,0,0,1,1.946-1.647h15.764l-32.345-21.823-77.911,23.47Zm-93.967,22.1,13.81-14.854-13.479.33Z" transform="translate(-1258.686 -211.361)" fill="#ebf2f9"></path><rect id="Rect&#xE1;ngulo_3233" data-name="Rect&#xE1;ngulo 3233" width="110.818" height="344.844" transform="translate(269.794 17.181)" fill="#d2e4ff"></rect><g id="Grupo_867" data-name="Grupo 867" transform="translate(269.794 64.763)" opacity="0.5"><g id="Grupo_866" data-name="Grupo 866"><g id="Grupo_865" data-name="Grupo 865" clip-path="url(#clip-path-3)"><rect id="Rect&#xE1;ngulo_3234" data-name="Rect&#xE1;ngulo 3234" width="80.21" height="50.52" transform="translate(0 0)" fill="#aed3ff"></rect></g></g></g><g id="Grupo_870" data-name="Grupo 870" transform="translate(269.794 157.272)" opacity="0.5"><g id="Grupo_869" data-name="Grupo 869"><g id="Grupo_868" data-name="Grupo 868" clip-path="url(#clip-path-4)"><rect id="Rect&#xE1;ngulo_3236" data-name="Rect&#xE1;ngulo 3236" width="80.21" height="50.52" transform="translate(0)" fill="#aed3ff"></rect></g></g></g><g id="Grupo_873" data-name="Grupo 873" transform="translate(269.794 248.587)" opacity="0.5"><g id="Grupo_872" data-name="Grupo 872"><g id="Grupo_871" data-name="Grupo 871" clip-path="url(#clip-path-4)"><rect id="Rect&#xE1;ngulo_3238" data-name="Rect&#xE1;ngulo 3238" width="80.21" height="50.52" transform="translate(0)" fill="#aed3ff"></rect></g></g></g><path id="Trazado_4401" data-name="Trazado 4401" d="M1563.12,350.053h-14.955V303.336H1424.971V68.451h-30.608V413.489h30.608v-.194H1563.12Z" transform="translate(-1044.36 -51.27)" fill="#aed3ff"></path><path id="Trazado_4402" data-name="Trazado 4402" d="M794.71,410.573v-1.861h-4.074V396.428h-3.371v12.284h-8.54V396.428h-3.371v12.284h-9.285V396.428H762.7v12.284h-8.54V396.428h-3.371v12.284h-4.467v1.861h4.467v5.981h-4.467v1.861h4.467V424.4h-4.467v1.861h4.467v5.981h-4.467V434.1h4.467v5.981h-4.467v1.861h4.467v5.981h-4.467v1.861h4.467v4.839h-4.467v1.861h4.467v5.981h-4.467v1.861h4.467v5.981h-4.467v1.861h4.467v5.981h-4.467v1.861h4.467v5.981h-4.467v1.861h4.467v5.981h-4.467v1.861h4.467V501.4h-4.467v1.861h4.467v5.981h-4.467v1.861h4.467v5.981h-4.467v1.862h4.467v5.981h-4.467v1.861h4.467v5.981h-4.467v1.861h4.467v5.981h-4.467v1.861h4.467v4.839h-4.467v1.861h4.467v5.981h-4.467v1.861h4.467V563h-4.467v1.862h4.467v5.981h-4.467V572.7h4.467v5.981h-4.467v1.861h4.467v5.981h-4.467v1.861h4.467v5.336h-4.467v1.861h4.467v5.981h-4.467v1.861h4.467V609.4h-4.467v1.861h4.467v5.981h-4.467v1.861h4.467v5.981h-4.467v1.861h4.467v5.981h-4.467v1.861h4.467v4.839h-4.467v1.862h4.467v5.981h-4.467v1.861h4.467v5.981h-4.467v1.861H794.71v-1.861h-4.074v-5.981h4.074v-1.861h-4.074v-5.981h4.074v-1.862h-4.074v-4.839h4.074v-1.861h-4.074V626.95h4.074v-1.861h-4.074v-5.981h4.074v-1.861h-4.074v-5.981h4.074V609.4h-4.074v-5.981h4.074v-1.861h-4.074v-5.981h4.074V593.72h-4.074v-5.336h4.074v-1.861h-4.074v-5.981h4.074v-1.861h-4.074V572.7h4.074v-1.862h-4.074v-5.981h4.074V563h-4.074v-5.981h4.074v-1.861h-4.074v-5.981h4.074v-1.861h-4.074v-4.839h4.074v-1.861h-4.074v-5.981h4.074V532.77h-4.074V526.79h4.074v-1.861h-4.074v-5.981h4.074v-1.862h-4.074v-5.981h4.074v-1.861h-4.074v-5.981h4.074V501.4h-4.074v-5.708h4.074v-1.861h-4.074v-5.981h4.074v-1.861h-4.074V480.01h4.074v-1.861h-4.074v-5.981h4.074v-1.861h-4.074v-5.981h4.074v-1.861h-4.074v-5.981h4.074v-1.861h-4.074v-4.839h4.074v-1.861h-4.074v-5.981h4.074v-1.861h-4.074V434.1h4.074v-1.861h-4.074v-5.981h4.074V424.4h-4.074v-5.981h4.074v-1.861h-4.074v-5.981Zm-19.357,5.981h-9.285v-5.981h9.285Zm-9.285,224.938h9.285v5.981h-9.285Zm9.285,13.823h-9.285v-5.981h9.285Zm-9.285-20.524h9.285v4.839h-9.285Zm0-7.842h9.285v5.981h-9.285Zm0-7.842h9.285v5.981h-9.285Zm0-7.842h9.285v5.981h-9.285Zm0-7.842h9.285V609.4h-9.285Zm0-7.842h9.285v5.981h-9.285Zm0-7.2h9.285v5.336h-9.285Zm0-7.842h9.285v5.981h-9.285Zm0-7.842h9.285v5.981h-9.285Zm0-7.842h9.285v5.981h-9.285Zm0-7.842h9.285V563h-9.285Zm0-7.842h9.285v5.981h-9.285Zm0-6.7h9.285v4.839h-9.285Zm0-7.842h9.285v5.981h-9.285Zm0-7.842h9.285v5.981h-9.285Zm0-7.842h9.285v5.981h-9.285Zm0-7.842h9.285v5.981h-9.285Zm0-7.842h9.285v5.981h-9.285Zm0-7.569h9.285V501.4h-9.285Zm0-7.842h9.285v5.981h-9.285Zm0-7.842h9.285v5.981h-9.285Zm0-7.842h9.285v5.981h-9.285Zm0-7.842h9.285v5.981h-9.285Zm0-7.842h9.285v5.981h-9.285Zm0-6.7h9.285v4.839h-9.285Zm0-7.842h9.285v5.981h-9.285Zm0-7.842h9.285v5.981h-9.285Zm0-7.842h9.285v5.981h-9.285Zm0-7.842h9.285V424.4h-9.285Zm-11.912-7.842h8.54v5.981h-8.54Zm0,7.842h8.54V424.4h-8.54Zm0,7.842h8.54v5.981h-8.54Zm0,7.842h8.54v5.981h-8.54Zm0,7.842h8.54v5.981h-8.54Zm0,7.842h8.54v4.839h-8.54Zm0,6.7h8.54v5.981h-8.54Zm0,7.842h8.54v5.981h-8.54Zm0,7.842h8.54v5.981h-8.54Zm0,7.842h8.54v5.981h-8.54Zm0,7.842h8.54v5.981h-8.54Zm0,7.842h8.54V501.4h-8.54Zm0,7.569h8.54v5.981h-8.54Zm0,7.842h8.54v5.981h-8.54Zm0,7.842h8.54v5.981h-8.54Zm0,7.842h8.54v5.981h-8.54Zm0,7.842h8.54v5.981h-8.54Zm0,7.842h8.54v4.839h-8.54Zm0,6.7h8.54v5.981h-8.54Zm0,7.842h8.54V563h-8.54Zm0,7.842h8.54v5.981h-8.54Zm0,7.842h8.54v5.981h-8.54Zm0,7.842h8.54v5.981h-8.54Zm0,7.842h8.54v5.336h-8.54Zm0,7.2h8.54v5.981h-8.54Zm0,7.842h8.54V609.4h-8.54Zm0,7.842h8.54v5.981h-8.54Zm0,7.842h8.54v5.981h-8.54Zm0,7.842h8.54v5.981h-8.54Zm0,7.842h8.54v4.839h-8.54Zm0,6.7h8.54v5.981h-8.54Zm0,7.842h8.54v5.981h-8.54Zm33.109,5.981h-8.54v-5.981h8.54Zm0-7.842h-8.54v-5.981h8.54Zm0-7.842h-8.54v-4.839h8.54Zm0-6.7h-8.54V626.95h8.54Zm0-7.842h-8.54v-5.981h8.54Zm0-7.842h-8.54v-5.981h8.54Zm0-7.842h-8.54v-5.981h8.54Zm0-7.842h-8.54v-5.981h8.54Zm0-7.842h-8.54v-5.336h8.54Zm0-7.2h-8.54v-5.981h8.54Zm0-7.842h-8.54V572.7h8.54Zm0-7.842h-8.54v-5.981h8.54Zm0-7.842h-8.54v-5.981h8.54Zm0-7.842h-8.54v-5.981h8.54Zm0-7.842h-8.54v-4.839h8.54Zm0-6.7h-8.54v-5.981h8.54Zm0-7.842h-8.54V526.79h8.54Zm0-7.842h-8.54v-5.981h8.54Zm0-7.842h-8.54v-5.981h8.54Zm0-7.842h-8.54v-5.981h8.54Zm0-7.842h-8.54v-5.708h8.54Zm0-7.569h-8.54v-5.981h8.54Zm0-7.842h-8.54v-5.981h8.54Zm0-7.842h-8.54v-5.981h8.54Zm0-7.842h-8.54v-5.981h8.54Zm0-7.842h-8.54v-5.981h8.54Zm0-7.842h-8.54v-4.839h8.54Zm0-6.7h-8.54v-5.981h8.54Zm0-7.842h-8.54V434.1h8.54Zm0-7.842h-8.54v-5.981h8.54Zm0-7.842h-8.54v-5.981h8.54Zm0-7.842h-8.54v-5.981h8.54Z" transform="translate(-558.982 -296.92)" fill="#d2e4ff"></path><rect id="Rect&#xE1;ngulo_3240" data-name="Rect&#xE1;ngulo 3240" width="1.193" height="21.238" transform="translate(275.53 0)" fill="#d2e4ff"></rect><rect id="Rect&#xE1;ngulo_3241" data-name="Rect&#xE1;ngulo 3241" width="1.193" height="21.238" transform="translate(341.63 0)" fill="#d2e4ff"></rect><rect id="Rect&#xE1;ngulo_3242" data-name="Rect&#xE1;ngulo 3242" width="1.193" height="21.238" transform="translate(283.882 0)" fill="#d2e4ff"></rect><rect id="Rect&#xE1;ngulo_3243" data-name="Rect&#xE1;ngulo 3243" width="1.193" height="21.238" transform="translate(347.596 0)" fill="#d2e4ff"></rect><path id="Trazado_4403" data-name="Trazado 4403" d="M1582.733,1403.816H1699.2c-5.61-1.6-25.74-7.184-43.973-10.2a120.712,120.712,0,0,0-20.519-1.957c-18.187.316-43.678,9.113-51.977,12.156" transform="translate(-1185.446 -1042.329)" fill="#e27f2b"></path><path id="Trazado_4404" data-name="Trazado 4404" d="M1730.226,1403.816h116.469c-7.932-2.265-44.919-12.5-64.491-12.156a97.732,97.732,0,0,0-16.5,1.957,249.789,249.789,0,0,0-35.474,10.2" transform="translate(-1295.916 -1042.329)" fill="#e69d43"></path><rect id="Rect&#xE1;ngulo_3244" data-name="Rect&#xE1;ngulo 3244" width="3.164" height="77.592" transform="translate(42.866 277.979)" fill="#d79448"></rect><rect id="Rect&#xE1;ngulo_3245" data-name="Rect&#xE1;ngulo 3245" width="3.164" height="77.592" transform="translate(97.101 277.979)" fill="#d79448"></rect><rect id="Rect&#xE1;ngulo_3246" data-name="Rect&#xE1;ngulo 3246" width="100.837" height="14.555" transform="translate(17.981 302.904)" fill="#fff"></rect><path id="Trazado_4405" data-name="Trazado 4405" d="M146.1,1206.728l10.546,14.555H149.49l-10.545-14.555Zm-17.092,0,10.545,14.555H132.4l-10.545-14.555Zm34.184,0,9.277,12.8v1.751h-5.89l-10.546-14.555Zm-51.277,0,10.545,14.555h-7.158l-10.545-14.555Zm-34.185,0,10.546,14.555H81.121l-9.486-13.093v-1.462Zm17.092,0,10.545,14.555H98.214l-10.546-14.555Z" transform="translate(-53.654 -903.824)" fill="#ff4e03"></path><rect id="Rect&#xE1;ngulo_3247" data-name="Rect&#xE1;ngulo 3247" width="100.837" height="14.555" transform="translate(17.981 282.411)" fill="#fff"></rect><path id="Trazado_4406" data-name="Trazado 4406" d="M146.1,1125.089l10.546,14.555H149.49l-10.545-14.555Zm-17.092,0,10.545,14.555H132.4l-10.545-14.555Zm34.184,0,9.277,12.8v1.751h-5.89l-10.546-14.555Zm-51.277,0,10.545,14.555h-7.158l-10.545-14.555Zm-34.185,0,10.546,14.555H81.121l-9.486-13.093v-1.462Zm17.092,0,10.545,14.555H98.214l-10.546-14.555Z" transform="translate(-53.654 -842.677)" fill="#ff4e03"></path><path id="Trazado_4407" data-name="Trazado 4407" d="M1457.134,1176.77s1.246-20.694,1.5-22.19,8.477-33.036,8.477-33.036l-16.081-.5s-2.369,31.29-2.618,33.659-.623,22.439-.623,22.439,6.981.374,9.35-.374" transform="translate(-1084.371 -839.649)" fill="#01375b"></path><path id="Trazado_4408" data-name="Trazado 4408" d="M1426.762,1363.978c.187,0-.187-4.924-.25-6.171s-1.184-7.729-1.122-9.35.748-9.848.748-9.848-7.978-.312-10.721.374c0,0,.686,14.149.436,15.021a15.7,15.7,0,0,1-2.182,3.678c-.81,1.06-5.36,1.87-6.607,2.93a4.815,4.815,0,0,0-1.247,3.241,61.067,61.067,0,0,0,7.854,1c2.992.063,6.67-.623,7.542-.623s4.3-.249,5.547-.249" transform="translate(-1052.94 -1002.548)" fill="#ff9407"></path><path id="Trazado_4409" data-name="Trazado 4409" d="M1452.546,1403.255a.121.121,0,0,0,.005-.241,13.981,13.981,0,0,1-4.026-.972.119.119,0,0,0-.158.064.121.121,0,0,0,.064.158,14.26,14.26,0,0,0,4.109.991Z" transform="translate(-1084.801 -1050.104)" fill="#dc5e03"></path><path id="Trazado_4410" data-name="Trazado 4410" d="M1450.156,1396.828h.01a7.1,7.1,0,0,0,2.1-.525.121.121,0,0,0-.1-.221,6.938,6.938,0,0,1-2.018.5.121.121,0,0,0,.01.241" transform="translate(-1086.057 -1045.641)" fill="#dc5e03"></path><path id="Trazado_4411" data-name="Trazado 4411" d="M1528.789,1166.488s.748-28.174.748-29.421,2.742-31.539,2.742-31.539l-16.455-.374s2.992,31.041,2.867,32.537,1,28.547,1,28.547,7.23.748,9.1.25" transform="translate(-1135.332 -827.747)" fill="#01375b"></path><path id="Trazado_4412" data-name="Trazado 4412" d="M1535.649,1358.3l.935-16.829s-9.1-.249-10.97,0c0,0,1.246,16.518,1.309,17.328a11.807,11.807,0,0,1-.374,2.556,20.737,20.737,0,0,0-1.371,3.179c-.063.623,0,2.182,0,2.182s8.1.561,10.409.374,2.431-.935,2.431-.935l-.187-3.366a17.715,17.715,0,0,1-1.371-2.182c-.249-.624-.81-2.307-.81-2.307" transform="translate(-1142.317 -1004.661)" fill="#ff9407"></path><path id="Trazado_4413" data-name="Trazado 4413" d="M1554.637,1407.4a3.509,3.509,0,0,0,2.085-.54.122.122,0,0,0,.045-.1.121.121,0,0,0-.062-.1l-1.262-.7a.121.121,0,1,0-.117.211l1.082.6a3.739,3.739,0,0,1-1.772.388.121.121,0,0,0,0,.241" transform="translate(-1164.312 -1053.033)" fill="#dc5e03"></path><path id="Trazado_4414" data-name="Trazado 4414" d="M1537.325,1407.306a.121.121,0,0,0,.016-.24,6.735,6.735,0,0,1-1.755-.519l.517-.182a.121.121,0,0,0-.08-.229l-.794.28a.121.121,0,0,0-.08.106.119.119,0,0,0,.064.115,7.045,7.045,0,0,0,2.1.668h.016" transform="translate(-1149.805 -1053.173)" fill="#dc5e03"></path><path id="Trazado_4415" data-name="Trazado 4415" d="M1467.408,891.476s-4.582,3.74-6.639,8.134a37.821,37.821,0,0,0-2.431,5.983l5.8,1.683Z" transform="translate(-1092.276 -667.705)" fill="#405c9c"></path><path id="Trazado_4416" data-name="Trazado 4416" d="M1528.053,885.317s-5.89-.966-9.536-.374-.966,4.208,1.091,4.768,5.361,1.372,6.483.312,1.963-4.706,1.963-4.706" transform="translate(-1135.998 -662.668)" fill="#9c4922"></path><path id="Trazado_4417" data-name="Trazado 4417" d="M1525.175,885.89s-4.145,4.519-7.324,3.21-2.213-3.584-2.213-3.584-2.275,1.091-2.587,2.15-.124,9.287-.124,9.287l4.986,2.306Z" transform="translate(-1133.12 -663.241)" fill="#405c9c"></path><path id="Trazado_4418" data-name="Trazado 4418" d="M1491.063,941.334s-11.126,1.963-19.914,1.4a65.987,65.987,0,0,1-13.183-1.87l4.395-26.086s-.281-14.118-.187-15.614,4.207-11.313,4.955-12.155,7.386-1.5,7.386-1.5a20.283,20.283,0,0,0-.468,11.406s4.862-5.7,6.171-7.012,3.833-4.02,3.833-4.02,4.488.467,5.7,1.4.935,15.053.187,19.541-1.215,9.63-1.215,9.63,2.431,19.073,2.337,24.87" transform="translate(-1091.996 -663.241)" fill="#ff9407"></path><path id="Trazado_4419" data-name="Trazado 4419" d="M1474.752,1055.159c-4.178,1.671-12.38-.071-14.929-.679l.458-2.719,1.631-3.334s8.477,1.995,12.092,1.247c3.412-.706,15.7-7.958,17.073-8.773.208,1.849.425,3.856.624,5.846-4.04,2.136-13.127,6.883-16.948,8.412" transform="translate(-1093.388 -779.622)" fill="#dc5e03"></path><path id="Trazado_4420" data-name="Trazado 4420" d="M1481.423,938.582a116.457,116.457,0,0,1-20.1-1.6l.24-1.423c2.353.425,4.752.748,7.132.983.048-5.029.337-32.293,1.029-36.532.574-3.512,2.253-9.967,3.006-12.792.417-.072.839-.139,1.254-.2-.661,2.46-2.513,9.488-3.115,13.178-.675,4.13-.97,31.827-1.015,36.452,3.862.339,7.632.467,11.01.479-.107-4.555-.538-25.183.309-30.774.841-5.554,4.3-15.381,6.812-19.151.46.07.987.16,1.519.269-2.784,3.065-6.05,13.5-6.9,19.1-.821,5.418-.393,26.172-.293,30.556,5.206-.031,9.281-.316,10.981-.455.039.5.076.98.108,1.445-1.831.15-6.309.461-11.984.461" transform="translate(-1094.514 -664.37)" fill="#fff"></path><path id="Trazado_4421" data-name="Trazado 4421" d="M1560.906,1008.074a10.078,10.078,0,0,0,3.473-.508.121.121,0,0,0-.09-.225,10.047,10.047,0,0,1-3.383.491.121.121,0,1,0,0,.241" transform="translate(-1169.007 -754.48)" fill="#dc5e03"></path><path id="Trazado_4422" data-name="Trazado 4422" d="M1565.126,967.609a.12.12,0,0,0,.11-.072,18.575,18.575,0,0,1,2.413-3.96.121.121,0,0,0-.014-.171.12.12,0,0,0-.17.014,18.79,18.79,0,0,0-2.449,4.018.121.121,0,0,0,.061.16.133.133,0,0,0,.05.01" transform="translate(-1172.168 -721.559)" fill="#dc5e03"></path><path id="Trazado_4423" data-name="Trazado 4423" d="M1562.645,958.6a.122.122,0,0,0,.061-.017,12.912,12.912,0,0,1,2.652-1.172.121.121,0,0,0-.066-.232,13.109,13.109,0,0,0-2.708,1.2.12.12,0,0,0-.042.165.119.119,0,0,0,.1.059" transform="translate(-1170.31 -716.908)" fill="#dc5e03"></path><path id="Trazado_4424" data-name="Trazado 4424" d="M1389.864,998.669l-2.743-41.512-43.133,11.718,6.607,43.133Z" transform="translate(-1006.629 -716.899)" fill="#e09b5d"></path><path id="Trazado_4425" data-name="Trazado 4425" d="M1275.65,977.447l-22.9-8.845,7.518,35.406,21.992,16.572Z" transform="translate(-938.291 -725.471)" fill="#ae7a48"></path><path id="Trazado_4426" data-name="Trazado 4426" d="M1318.783,936.326l-26.678-6.981-39.358,9.854,22.9,8.845Z" transform="translate(-938.291 -696.068)" fill="#fac285"></path><path id="Trazado_4427" data-name="Trazado 4427" d="M1355.5,990.661l38.053-9.63a.235.235,0,0,1,.294.174.242.242,0,0,1-.175.293L1365,988.754l27.93,25.053c.012.011.01.029.02.042l2.959-.9a.245.245,0,0,1,.3.161.242.242,0,0,1-.161.3L1360.9,1024.13a.257.257,0,0,1-.07.01.241.241,0,0,1-.07-.473l24.071-7.341-28.306-25.347c-.021-.019-.021-.047-.034-.071l-.867.219a.217.217,0,0,1-.06.008.241.241,0,0,1-.059-.475m29.868,25.5,7.064-2.154-27.964-25.084c-.009-.008-.007-.021-.015-.031l-7.437,1.882Z" transform="translate(-1015.114 -734.773)" fill="#ae7a48"></path><path id="Trazado_4428" data-name="Trazado 4428" d="M1264.577,991.1a.243.243,0,0,1,.317-.126l11.561,4.994a.231.231,0,0,1,.033.014l5.579,2.41a.242.242,0,1,1-.192.443l-5.141-2.22,8.877,31.391,2.465,1.44a.241.241,0,1,1-.244.417l-2.355-1.376a.237.237,0,0,1-.047.007.242.242,0,0,1-.227-.167l-5.641-3.3-.022,0a.235.235,0,0,1-.2-.135l-9.268-5.414a.241.241,0,0,1,.244-.417l8.823,5.154-8.148-29.94a.23.23,0,0,1,.018-.142l-6.3-2.722a.242.242,0,0,1-.126-.318m15.153,33.47,5.28,3.085-8.848-31.287-4.656-2.011Z" transform="translate(-947.136 -742.217)" fill="#e09b5d"></path><path id="Trazado_4429" data-name="Trazado 4429" d="M1540.859,966.573s2.369,7.449,3.3,10.067a41.418,41.418,0,0,0-5.984,3.366c-1.589,1.309-7.293,6.358-9.069,7.386l1.5,4.3s17.484-9.069,20.569-11.032c0,0,1.028-2.805,1.215-3.179s-2.805-13.744-2.805-13.744Z" transform="translate(-1145.282 -721.827)" fill="#9c4922"></path><path id="Trazado_4430" data-name="Trazado 4430" d="M1568.7,892.594s-4.924,1-5.3,5.36,2.369,12.84,3.117,15.333c0,0,7.978-.748,12.716-3.989,0,0-2.867-13.09-10.534-16.7" transform="translate(-1170.937 -668.542)" fill="#405c9c"></path><path id="Trazado_4431" data-name="Trazado 4431" d="M1595.8,1017.932a.121.121,0,0,0,.075-.216,12.643,12.643,0,0,0-2.464-1.186.122.122,0,0,0-.155.072.12.12,0,0,0,.072.155,12.763,12.763,0,0,1,2.4,1.15.123.123,0,0,0,.075.025" transform="translate(-1193.325 -761.363)" fill="#65270a"></path><path id="Trazado_4432" data-name="Trazado 4432" d="M1593,1013.6a.129.129,0,0,0,.036-.006,5.1,5.1,0,0,1,1.853-.277.121.121,0,0,0,.055-.236,5.271,5.271,0,0,0-1.981.283.121.121,0,0,0,.037.236" transform="translate(-1193.046 -758.765)" fill="#65270a"></path><path id="Trazado_4433" data-name="Trazado 4433" d="M1489.951,1056.4a9.6,9.6,0,0,0-3.459-.654c-1.589.093-4.348-.327-4.768-.234s-.327.608.094.982a10.212,10.212,0,0,0,2.571.795,13.55,13.55,0,0,1-1.73.935,17.441,17.441,0,0,1-2.992.842,24.352,24.352,0,0,0-1.589,2.992c-.047.421,2.244,2.9,2.9,3.085s6.638-1.589,10.145-4.114Z" transform="translate(-1107.059 -790.555)" fill="#01375b"></path><path id="Trazado_4434" data-name="Trazado 4434" d="M1527.215,1060.293s-1.543-5.236-2.01-5.329a5.734,5.734,0,0,0-1.87.514s1.4,4.862,1.73,5.423,1.589-.234,2.151-.608" transform="translate(-1140.958 -790.147)" fill="#01375b"></path><path id="Trazado_4435" data-name="Trazado 4435" d="M1525.4,1064.5a.11.11,0,0,0,.039-.007.121.121,0,0,0,.075-.154c-.009-.024-.843-2.462-1.119-3.588a.121.121,0,0,0-.235.057c.278,1.138,1.117,3.585,1.125,3.611a.121.121,0,0,0,.114.081" transform="translate(-1141.574 -794.42)" fill="#000c19"></path><path id="Trazado_4436" data-name="Trazado 4436" d="M1528.621,870.132s4.831,1.034,7.816-.309l-.773-3.391-.348-2.531-3.961,1.469-2.116.782-.386,2.512Z" transform="translate(-1144.917 -647.051)" fill="#9c4922"></path><path id="Trazado_4437" data-name="Trazado 4437" d="M1529.545,872.008a15.864,15.864,0,0,0,1.546-.493,6.371,6.371,0,0,0,3.237-3.149s-1.053.154-2.28.348l-2.116.783Z" transform="translate(-1145.609 -650.396)" fill="#65270a"></path><path id="Trazado_4438" data-name="Trazado 4438" d="M1517.271,814.6a34.674,34.674,0,0,1-3.459,2.93,30.909,30.909,0,0,1-3.8.935,8.1,8.1,0,0,1-3.4-.343c-.281-.249-.374-1.87-.624-2.4s-1.433-3.615-1.465-3.927,1.434-1.34,1.527-2.119a4.826,4.826,0,0,0-.405-2.4c-.343-.872-.811-2.493-.811-2.493s-1.184-4.862,2.556-6.108,9.381-.5,10.659,1.745,2.088,4.207,1.807,6.389.062,5.579-2.587,7.791" transform="translate(-1126.868 -597.749)" fill="#9c4922"></path><path id="Trazado_4439" data-name="Trazado 4439" d="M1526.926,812.409c.14.14,1.543,4.207,1.543,4.207s.233,2.478.514,2.337.655-2.431,1.029-2.9,1.309-1.543,2.15-.748,1.636,2.057-.7,3.085a13.717,13.717,0,0,1,.655,1.776,8.992,8.992,0,0,0,.374,1.262l.608-.7a4.545,4.545,0,0,1,.468.888,10.577,10.577,0,0,0,.452,1.075,21.3,21.3,0,0,0,1.7-1.356,12.02,12.02,0,0,0,1.5-3.179v1.356s1.683-4.207,1.683-5.236-4.722-4.582-6.685-5.049-3.88-.468-4.722,0-.561,3.179-.561,3.179" transform="translate(-1143.614 -605.841)" fill="#1e0601"></path><path id="Trazado_4440" data-name="Trazado 4440" d="M1508.478,794.117s1.037-4.205-.085-7.337-3.179-5.423-7.667-5.89a8.925,8.925,0,0,0-8.555,4.3,23.171,23.171,0,0,0-1.543,5.7s-3.927.047-4.114.374.281.748.281.748,15.363.183,21.682,2.1" transform="translate(-1113.346 -584.839)" fill="#ff9407"></path><path id="Trazado_4441" data-name="Trazado 4441" d="M1512.119,783.871l-1.138-1.231s2.493-2.93,7.792-2.524,6.856,3.179,7.667,5.454l-.53.062a10.445,10.445,0,0,0-6.233-3.366s-4.457-.717-7.558,1.6" transform="translate(-1131.705 -584.268)" fill="#ff9407"></path><path id="Trazado_4442" data-name="Trazado 4442" d="M1512.146,821.024a.121.121,0,0,0,.009-.242c-1.733-.13-2.944-.184-2.956-.185a.124.124,0,0,0-.126.115.121.121,0,0,0,.116.126c.012,0,1.219.054,2.948.185Z" transform="translate(-1130.275 -614.618)" fill="#fff"></path><path id="Trazado_4443" data-name="Trazado 4443" d="M1539.076,823.853a.12.12,0,0,0,.115-.084.121.121,0,0,0-.077-.152,48.287,48.287,0,0,0-8.8-1.489.111.111,0,0,0-.132.108.12.12,0,0,0,.109.131,48.1,48.1,0,0,1,8.746,1.479.128.128,0,0,0,.037.006" transform="translate(-1146.087 -615.761)" fill="#fff"></path><path id="Trazado_4444" data-name="Trazado 4444" d="M1527.968,791.813a.121.121,0,0,0,.1-.2,10.777,10.777,0,0,0-7.287-3.693c-4.1-.247-6.263,1.262-6.727,1.635l-.3-.333a.121.121,0,0,0-.18.16l.374.421a.121.121,0,0,0,.083.04.113.113,0,0,0,.088-.032c.021-.019,2.171-1.928,6.643-1.651a10.506,10.506,0,0,1,7.112,3.6.121.121,0,0,0,.1.046" transform="translate(-1133.622 -590.126)" fill="#dc5e03"></path><path id="Trazado_4445" data-name="Trazado 4445" d="M1535.7,797.441a.121.121,0,0,0,.069-.22c-2.7-1.875-6.771-1.987-7.7-1.987h-.016l.535-1.472a15.6,15.6,0,0,1,7.7,2.009.122.122,0,0,0,.167-.037.12.12,0,0,0-.037-.166,15.667,15.667,0,0,0-7.632-2.048q-.144,0-.289,0a.121.121,0,0,0-.111.08l-.623,1.714a.12.12,0,0,0,.016.112.149.149,0,0,0,.1.05c.049,0,4.764-.129,7.75,1.942a.116.116,0,0,0,.069.022" transform="translate(-1144.271 -594.335)" fill="#dc5e03"></path><path id="Trazado_4446" data-name="Trazado 4446" d="M147.493,1351.482H263.962c-7.932-5.855-44.919-32.308-64.491-31.432-5.106.23-10.789,2.189-16.5,5.061-14.642,7.356-29.5,20.71-35.473,26.371" transform="translate(-110.47 -988.685)" fill="#e69d43"></path><path id="Trazado_4447" data-name="Trazado 4447" d="M0,1351.482H116.469c-5.61-4.139-25.74-18.575-43.973-26.371-7.556-3.229-14.785-5.319-20.519-5.061C33.79,1320.866,8.3,1343.613,0,1351.482" transform="translate(0 -988.685)" fill="#e27f2b"></path><path id="Trazado_4448" data-name="Trazado 4448" d="M684.3,1405.823H800.772c-5.61-1.6-25.74-7.184-43.972-10.2a120.724,120.724,0,0,0-20.519-1.957c-18.187.315-43.678,9.113-51.977,12.156" transform="translate(-512.534 -1043.832)" fill="#e27f2b"></path><path id="Trazado_4449" data-name="Trazado 4449" d="M382.5,1121.105l.88,1.974,5.333,11.879v.01l9.529,21.291-1.889,26.677s1.03-.129,2.565-.333a68.235,68.235,0,0,0,9.783-1.72s3.3-30.473,3.148-32.126c-.139-1.459-11.557-30.723-14.036-37.076-.225-.558-.376-.934-.44-1.105-.032-.075-.043-.107-.043-.107l-.15.107-5.527,3.96Z" transform="translate(-286.486 -831.729)" fill="#01375b"></path><path id="Trazado_4450" data-name="Trazado 4450" d="M435.244,1333.48a34.054,34.054,0,0,0,.87,3.99s14.772,1.584,23.081-.087c.425-.077.84-.174,1.227-.28a3.142,3.142,0,0,0,.019-.377,2.319,2.319,0,0,0-.01-.251,3.968,3.968,0,0,0-3.372-3.865,61.177,61.177,0,0,0-8.608-1.121l2.125-21.438-9.507.937-4.454.435s-1.372,21.313-1.372,22.057" transform="translate(-325.992 -981.212)" fill="#ff9407"></path><path id="Trazado_4451" data-name="Trazado 4451" d="M462.188,1400.016a.24.24,0,0,0,.157-.058,10.728,10.728,0,0,1,4.828-1.908.242.242,0,0,0,.21-.269.236.236,0,0,0-.269-.21,11.019,11.019,0,0,0-5.083,2.019.242.242,0,0,0,.157.426" transform="translate(-345.992 -1046.762)" fill="#dc5e03"></path><path id="Trazado_4452" data-name="Trazado 4452" d="M470.867,1390.969a.241.241,0,0,0,.1-.459,13.11,13.11,0,0,0-3.546-1.145.229.229,0,0,0-.258.224.241.241,0,0,0,.224.257,12.975,12.975,0,0,1,3.372,1.1.238.238,0,0,0,.1.024" transform="translate(-349.901 -1040.613)" fill="#dc5e03"></path><path id="Trazado_4453" data-name="Trazado 4453" d="M296.014,1185.779a6.9,6.9,0,0,0,.933.451c.193.086.4.161.612.236a23.728,23.728,0,0,0,2.565.73,61.262,61.262,0,0,0,7.3,1.105s13.607-29.092,14.111-31.217c.376-1.642,3.466-23.072,4.9-33.084.333-2.4.58-4.153.676-4.818.032-.193.043-.29.043-.29l-1.985.376-17.417,3.316s1.631,26.356,1.116,28.341-12.856,34.855-12.856,34.855" transform="translate(-221.711 -838.036)" fill="#01375b"></path><path id="Trazado_4454" data-name="Trazado 4454" d="M289.1,1338.064c.5.251,19.825,1,24.433-.241a5.985,5.985,0,0,0-.947-2.773h-.01a4.569,4.569,0,0,0-2.038-1.72c-2.86-1.246-8.454-1.13-8.454-1.13l9.207-18.685-11.053-1.865-3.787-.638s-6.357,19.574-6.85,21.2-1,5.613-.5,5.854" transform="translate(-216.373 -981.932)" fill="#ff9407"></path><path id="Trazado_4455" data-name="Trazado 4455" d="M316.179,1397.5a.239.239,0,0,0,.151-.053,13.3,13.3,0,0,1,5.033-2.007.241.241,0,0,0,.2-.278.236.236,0,0,0-.278-.2,13.517,13.517,0,0,0-5.253,2.106.241.241,0,0,0,.151.43" transform="translate(-236.633 -1044.803)" fill="#dc5e03"></path><path id="Trazado_4456" data-name="Trazado 4456" d="M325.967,1390.7a.242.242,0,0,0,.061-.475,14.968,14.968,0,0,0-2.772-.475.242.242,0,1,0,0,.483,14.786,14.786,0,0,1,2.65.459.268.268,0,0,0,.061.008" transform="translate(-241.933 -1040.902)" fill="#dc5e03"></path><path id="Trazado_4457" data-name="Trazado 4457" d="M328.112,1377.386a.235.235,0,0,0,.121-.033.24.24,0,0,0,.089-.328,5.621,5.621,0,0,0-3.125-2.167.242.242,0,1,0-.153.459,5.275,5.275,0,0,1,2.859,1.948.242.242,0,0,0,.209.121" transform="translate(-243.329 -1029.743)" fill="#dc5e03"></path><path id="Trazado_4458" data-name="Trazado 4458" d="M410.417,1150.559a.242.242,0,0,0,.24-.21l1.525-11.792a.242.242,0,0,0-.209-.271.249.249,0,0,0-.271.208l-1.525,11.792a.242.242,0,0,0,.209.271l.031,0" transform="translate(-307.216 -852.561)" fill="#000c19"></path><path id="Trazado_4459" data-name="Trazado 4459" d="M416.25,1152.8a.243.243,0,0,0,.2-.111,33.49,33.49,0,0,0,2.766-5.847.241.241,0,1,0-.455-.161,33.118,33.118,0,0,1-2.719,5.747.241.241,0,0,0,.2.372" transform="translate(-311.585 -858.729)" fill="#000c19"></path><path id="Trazado_4460" data-name="Trazado 4460" d="M431.937,1014.962l.908,3.509s8.07,6.848,10.127,9.279,8.228,8.228,10.191,9.443l-3.459,4.488s-15.147-9.63-17.484-11.78-5.516-5.7-5.516-5.7l-3.646-8.414Z" transform="translate(-316.864 -760.194)" fill="#ffb27d"></path><path id="Trazado_4461" data-name="Trazado 4461" d="M528.095,1107.738s2.429,2.338,2.931,2.773c.116.1.319.261.589.454,0,0,.01.01,0,.01a13.462,13.462,0,0,0,9.13,3.15,1.382,1.382,0,0,0,.715-.125,9.086,9.086,0,0,0,1.372-3.584,11.168,11.168,0,0,0-1.894-3.739c-.782-.686-9.01-3.518-9.01-3.518Z" transform="translate(-395.536 -826.251)" fill="#01375b"></path><path id="Trazado_4462" data-name="Trazado 4462" d="M548.663,1124.355s-19.821-7.667-21.13-7.573-2.618,5.143-2.337,5.517,2.711.841,2.711.841.935-3.085,1.87-3.085,18.98,6.545,18.98,6.545Z" transform="translate(-393.336 -836.455)" fill="#923618"></path><path id="Trazado_4463" data-name="Trazado 4463" d="M542.121,1126.949s.01.01,0,.01a13.463,13.463,0,0,0,9.13,3.15,5.063,5.063,0,0,0,.087-1.71,2.39,2.39,0,0,0-1.449-1.681c-.377-.212-4.84-1.971-5.169-2.058s-.908-.309-1.256,0a9.927,9.927,0,0,0-1.343,2.29" transform="translate(-406.041 -842.234)" fill="#01375b"></path><path id="Trazado_4464" data-name="Trazado 4464" d="M541.255,1110.785a1.21,1.21,0,0,0,.3,1.028,3.219,3.219,0,0,0,1.706,1.029,6.886,6.886,0,0,0,1.527.156,4.657,4.657,0,0,0,.6,2.228,1.8,1.8,0,0,0,1.823.677c.771-.14.561-.911.514-1.659a8.212,8.212,0,0,0-.374-2.2,33.167,33.167,0,0,0-2.735-2.314c-.28-.187-3.085-1.519-3.366,1.052" transform="translate(-405.377 -830.793)" fill="#01375b"></path><path id="Trazado_4465" data-name="Trazado 4465" d="M570.028,1134.631a.121.121,0,0,0,.116-.088c.022-.075.51-1.83-.476-2.62a7.953,7.953,0,0,0-2.312-1.21.121.121,0,0,0-.093.223,7.709,7.709,0,0,1,2.254,1.176c.86.689.4,2.348.4,2.365a.12.12,0,0,0,.083.149.124.124,0,0,0,.033,0" transform="translate(-424.817 -846.883)" fill="#000c19"></path><path id="Trazado_4466" data-name="Trazado 4466" d="M543.007,1125.97a.12.12,0,0,0,.113-.079c.141-.388.8-1.655,1.314-1.762a5,5,0,0,1,1.577.443.117.117,0,0,0,.155-.071.121.121,0,0,0-.072-.155c-1.415-.514-1.638-.469-1.711-.453-.7.147-1.409,1.688-1.491,1.915a.121.121,0,0,0,.072.155.115.115,0,0,0,.042.008" transform="translate(-406.614 -841.775)" fill="#000c19"></path><path id="Trazado_4467" data-name="Trazado 4467" d="M546.622,1117.139h.04a1.04,1.04,0,0,0,.88-.379c.389-.6-.1-3.264-.239-3.63a19.61,19.61,0,0,0-3-2.486.121.121,0,1,0-.142.2,20.426,20.426,0,0,1,2.919,2.377c.179.467.56,2.95.26,3.412a.828.828,0,0,1-.682.269h-.034a1.736,1.736,0,0,1-1.359-.616,5.55,5.55,0,0,1-.6-2.244.12.12,0,0,0-.044-.086.114.114,0,0,0-.094-.026,3.83,3.83,0,0,1-3.406-1.448.12.12,0,0,0-.169-.027.122.122,0,0,0-.027.169,4.049,4.049,0,0,0,3.508,1.557,5.342,5.342,0,0,0,.637,2.245,1.958,1.958,0,0,0,1.555.718" transform="translate(-405.127 -831.841)" fill="#000c19"></path><path id="Trazado_4468" data-name="Trazado 4468" d="M528.019,1100.137s-1-1.13-1.5-.912-3.833,3.958-3.9,4.519,1.091,1.278,1.34,1.247a33.814,33.814,0,0,0,4.054-4.854" transform="translate(-391.437 -823.285)" fill="#01375b"></path><path id="Trazado_4469" data-name="Trazado 4469" d="M430.356,950.591s-3.782-17.414-7.079-21.573l-2.331,23.111s6.325.52,9.41-1.537" transform="translate(-315.283 -695.823)" fill="#fff"></path><path id="Trazado_4470" data-name="Trazado 4470" d="M534.067,1107.579a.119.119,0,0,0,.1-.047c.461-.6,1.715-2.132,1.727-2.147a.121.121,0,0,0-.187-.153c-.012.015-1.269,1.551-1.731,2.153a.121.121,0,0,0,.1.194" transform="translate(-399.918 -827.772)" fill="#000c19"></path><path id="Trazado_4471" data-name="Trazado 4471" d="M374.379,907.18s-.4-.329-3.628-.936a38.382,38.382,0,0,0-6.919-.514,15.7,15.7,0,0,0,3.272,3.132c1.823,1.215,3.413,2.478,4.815,2.384s2.992-.047,3.319-.935.245-2.521-.859-3.131" transform="translate(-272.505 -678.376)" fill="#ffb27d"></path><path id="Trazado_4472" data-name="Trazado 4472" d="M374.379,907.195s1.046,2.632-2.694,1.7a40.488,40.488,0,0,1-7.854-3.148s4.8,6.264,6.108,7.262A46.924,46.924,0,0,0,375.987,916s2.208-5.513-1.607-8.8" transform="translate(-272.505 -678.391)" fill="#fff"></path><path id="Trazado_4473" data-name="Trazado 4473" d="M329.289,909.765l8.041-4.021c3.366,1.216,11.22,9.069,11.22,9.069s.712-4.859-.672-7.619a10.954,10.954,0,0,1,6.563,5.094c2.431,4.207,4.02,18.325,3.366,24.777,0,0,2.373,21.708,2.308,23.663-.063,1.907-4.776,3.55-8.478,3.544,0,.056,0,.095,0,.095.093.281-.374.841-1.216.841s-18.98,0-19.26-.935-.329-21.22-.374-22.439-2.337-11.22-2.337-15.147.841-16.923.841-16.923" transform="translate(-246.003 -678.391)" fill="#ff9407"></path><path id="Trazado_4474" data-name="Trazado 4474" d="M366.5,1061.832c.156,1.675.272,3.054.325,3.916-4.632-1.519-22.947-7.559-29.23-10.145-.033-4.026-.051-7.441-.069-7.918,0-.119-.035-.343-.078-.615Z" transform="translate(-252.743 -784.243)" fill="#dc5e03"></path><path id="Trazado_4475" data-name="Trazado 4475" d="M343.2,957.655c-1.693,0-3.351-.065-4.973-.167-.006-.473-.011-.954-.017-1.438a105.88,105.88,0,0,0,14.757-.264c-.1-3.663-.616-20.827-1.193-27.679-.584-6.918-5.669-16.4-9.557-19.6l1.388-.694c4.078,3.769,9.01,13.038,9.613,20.177.576,6.839,1.086,23.847,1.2,27.679,2.915-.258,5.587-.572,7.756-.859-.233-4.212-1.751-31-2.855-36.174a40.8,40.8,0,0,0-3.506-9.707,10.688,10.688,0,0,1,1.66.738,41.3,41.3,0,0,1,2.98,8.727c1.128,5.29,2.618,31.622,2.874,36.259,1.5-.208,2.664-.389,3.422-.51q.073.739.142,1.445a163.7,163.7,0,0,1-23.687,2.071" transform="translate(-253.313 -679.938)" fill="#fff"></path><path id="Trazado_4476" data-name="Trazado 4476" d="M413.284,994.719h0a.242.242,0,0,0,.239-.245c0-.2-.252-19.914-.5-27.68a118.957,118.957,0,0,0-2.5-18,.242.242,0,1,0-.472.106,118.36,118.36,0,0,1,2.487,17.907c.247,7.761.5,27.472.5,27.67a.242.242,0,0,0,.241.239" transform="translate(-307.122 -710.496)" fill="#dc5e03"></path><path id="Trazado_4477" data-name="Trazado 4477" d="M343.581,1021.029l.28,3.366a50.856,50.856,0,0,1,8.976,6.077c3.46,3.179,12.529,9.069,16.081,10.565l-2.524,5.236s-16.549-7.667-23.187-11.126-9.349-6.077-9.349-6.077a19.052,19.052,0,0,1-1.309-2.431c0-.28-.748-6.545-.748-6.545Z" transform="translate(-248.514 -764.038)" fill="#ffb27d"></path><path id="Trazado_4478" data-name="Trazado 4478" d="M335.355,943.821s-.935-20.476-3.272-23.841-5.7-3.74-8.508-1.777-3.366,19.26-2.151,24.87a21.992,21.992,0,0,0,13.931.748" transform="translate(-240.289 -686.83)" fill="#fff"></path><path id="Trazado_4479" data-name="Trazado 4479" d="M505.517,1136.089s-19.821-7.667-21.13-7.573-2.618,5.142-2.337,5.517,2.711.841,2.711.841.935-3.085,1.87-3.085,18.98,6.545,18.98,6.545Z" transform="translate(-361.02 -845.243)" fill="#923618"></path><path id="Trazado_4480" data-name="Trazado 4480" d="M474.066,1102.941s8.195,3.389,9.192,3.887,5.423,5.049,5.61,5.734-1.808,3.116-2.743,3.74-4.051,1.184-4.675.748-4.176-4.488-4.924-5.049-4.924-2.867-4.924-2.867Z" transform="translate(-353.224 -826.089)" fill="#01375b"></path><path id="Trazado_4481" data-name="Trazado 4481" d="M465.248,1106.418s3.226-6.4,2.992-6.685-1.683-1.122-2.15-.841-2.992,5.844-2.992,6.4,1.73,1.309,2.15,1.122" transform="translate(-346.854 -823.014)" fill="#01375b"></path><path id="Trazado_4482" data-name="Trazado 4482" d="M472.608,1110.045a.12.12,0,0,0,.109-.07c.77-1.662,2.228-4.612,2.243-4.641a.121.121,0,1,0-.217-.108c-.014.03-1.474,2.982-2.245,4.647a.121.121,0,0,0,.059.16.129.129,0,0,0,.051.011" transform="translate(-353.887 -827.75)" fill="#000c19"></path><path id="Trazado_4483" data-name="Trazado 4483" d="M770.987,1332.425a1.208,1.208,0,0,0,.956-1.945c-1.595-2.071-5.881-7.88-6.543-9.868-.8-2.4-.811-7.668-.811-7.721a1.208,1.208,0,1,0-2.415,0c0,.232.011,5.712.934,8.485.911,2.733,6.308,9.783,6.921,10.577a1.206,1.206,0,0,0,.958.471" transform="translate(-570.858 -982.435)" fill="#000c19"></path><path id="Trazado_4484" data-name="Trazado 4484" d="M565.607,1145.394s.56,11.777,1.121,16.076c.512,3.9,13.3,22.385,34.075,29.3.773.261,1.565.5,2.367.725.551.154,1.121.309,1.691.444.86.213,1.739.4,2.628.57,24.685,4.676,36.462-3.922,39.64-5.8s12.347-15.516,14.589-19.815l-12-2.212-11.371-2.087Z" transform="translate(-423.632 -857.886)" fill="#ff9407"></path><path id="Trazado_4485" data-name="Trazado 4485" d="M715.253,1249.08c1.4.4,2.85.734,4.319,1.014,24.685,4.676,36.462-3.922,39.64-5.8s12.347-15.516,14.589-19.815l-12-2.213-3.15,1.652s-7.284,16.83-17.2,20.192c-8,2.715-21,4.338-26.2,4.966" transform="translate(-535.715 -915.465)" fill="#dc5e03"></path><path id="Trazado_4486" data-name="Trazado 4486" d="M565.6,1142.75s5.053,1.41,12.637,3.5c21.177,5.807,62.141,16.9,68.334,17.448.705.068,1.4.116,2.077.174,7.42.551,13.062.386,13.062.386s-5.439-1.469-13.545-3.642c-19.873-5.343-55.833-14.975-67.185-17.816-1.836-.454-3.024-.734-3.411-.792-3.739-.56-11.97.744-11.97.744" transform="translate(-423.626 -855.243)" fill="#832e1a"></path><path id="Trazado_4487" data-name="Trazado 4487" d="M615.943,1115.641c21.177,5.806,62.142,16.9,68.334,17.448.705.068,1.4.116,2.077.174-.116-.908-.28-2.087-.483-3.256a18.282,18.282,0,0,0-1-4.058c-.937-1.874-4.492-5.43-4.492-5.43l-1.121-5.8-7.294-2.058s-1.5-6.917-2.986-8.038-19.825-4.116-20.2-3.556-3.362,6.551-3.362,6.551l-10.1-3.739s-4.116,4.116-4.493,4.676-9.536.367-9.536.367l-2.6,3.265Z" transform="translate(-461.333 -824.637)" fill="#7588b2"></path><path id="Trazado_4488" data-name="Trazado 4488" d="M693.155,1132.33l5.361,1.247a.241.241,0,0,1-.055.476.232.232,0,0,1-.055-.007l-5.361-1.246a.241.241,0,0,1-.18-.29.236.236,0,0,1,.29-.18m-24.212-3.993c.236-.036,5.776-.792,8.571,2.513a18.116,18.116,0,0,1,1.4,1.888c.646-.909,4.339-6.069,5.361-6.533s8.869-2.544,9.2-2.631a.239.239,0,0,1,.3.172.242.242,0,0,1-.173.3c-.077.02-7.345,1.944-8.916,2.523a17.129,17.129,0,0,0,1.944,3.553.242.242,0,0,1-.391.285,17.53,17.53,0,0,1-1.981-3.6,51.967,51.967,0,0,0-5.012,6.311c-.017.024-.049.022-.073.038a15.465,15.465,0,0,1,1.611,3.537l-.552-.14a16.634,16.634,0,0,0-3.081-5.381c-2.437-2.878-7.32-2.443-8.043-2.358l-3.289,3.99-.515-.136,3.492-4.235a.24.24,0,0,1,.152-.085m22.562.748a26.262,26.262,0,0,1,3.216-.19.241.241,0,1,1,0,.483,26.365,26.365,0,0,0-3.141.185.242.242,0,1,1-.075-.478m-42.971-7.109a.242.242,0,0,1,.242.242c0,.03,0,3.046.122,3.893a.241.241,0,0,1-.2.273l-.034,0a.241.241,0,0,1-.239-.207c-.125-.88-.127-3.836-.127-3.961a.242.242,0,0,1,.241-.242m-.129-1.675c.385.094,9.446,2.317,10.392,2.758.852.4,3.618,6.563,4.742,9.133l-.6-.159c-1.847-4.2-3.859-8.3-4.348-8.537-.714-.333-6.9-1.891-10.18-2.7l-6.385,5.606-.559-.152,6.719-5.9a.238.238,0,0,1,.217-.054m-10.726-1.991a.246.246,0,0,1,.3.16,12.71,12.71,0,0,0,1.567,3.4.242.242,0,0,1-.355.328,12.84,12.84,0,0,1-1.675-3.583.243.243,0,0,1,.159-.3m12.382-1.475a.242.242,0,0,1-.219.14.246.246,0,0,1-.1-.023.241.241,0,0,1-.117-.321c.434-.929,1.3-2.611,1.315-2.628a.241.241,0,0,1,.428.223c-.009.017-.876,1.69-1.305,2.609m26.789,5.251,1.134-3.829a.234.234,0,0,1,.3-.162.241.241,0,0,1,.162.3l-1.134,3.828Zm2.887-5.7a.241.241,0,0,1-.154-.427l1.768-1.467.31.372-1.77,1.467a.236.236,0,0,1-.154.055m-17.5.9a.241.241,0,0,1,.336.065l2.128,3.167c-.1-.811-.241-1.971-.385-2.868-.255-1.587.65-5.535.688-5.7a.238.238,0,0,1,.29-.18.241.241,0,0,1,.18.29c-.009.04-.921,4.022-.681,5.518.247,1.545.5,3.853.5,3.877a.243.243,0,0,1-.157.253.255.255,0,0,1-.083.014.24.24,0,0,1-.2-.107l-2.681-3.99a.242.242,0,0,1,.066-.335" transform="translate(-477.486 -832.69)" fill="#4d5e7a"></path><path id="Trazado_4489" data-name="Trazado 4489" d="M734.7,1357.392A12.092,12.092,0,1,0,746.8,1345.3a12.092,12.092,0,0,0-12.092,12.092" transform="translate(-550.283 -1007.613)" fill="#4d5e7a"></path><path id="Trazado_4490" data-name="Trazado 4490" d="M738.669,1363.007l5.032,4.718-3.3,1.793-4.041-1.958a12.047,12.047,0,0,1,2.313-4.552" transform="translate(-551.521 -1020.875)" fill="#2b3546"></path><path id="Trazado_4491" data-name="Trazado 4491" d="M752.085,1370.411a7.729,7.729,0,1,0,7.729-7.729,7.729,7.729,0,0,0-7.729,7.729" transform="translate(-563.302 -1020.632)" fill="#ff9407"></path><path id="Trazado_4492" data-name="Trazado 4492" d="M754.157,1373.757l5.343,5.2a2.556,2.556,0,0,1-2.8.655,28.2,28.2,0,0,1-4.239-2.041,7.7,7.7,0,0,1,1.7-3.812" transform="translate(-563.579 -1028.927)" fill="#dc5e03"></path><path id="Trazado_4493" data-name="Trazado 4493" d="M730.314,1327.855a1.449,1.449,0,0,0,.837-2.633c-2.87-2.026-10.646-7.9-12.149-10.717a23.591,23.591,0,0,1-2.075-8.364,1.449,1.449,0,0,0-2.895.139,26.153,26.153,0,0,0,2.412,9.59c2.1,3.929,11.92,10.935,13.034,11.721a1.444,1.444,0,0,0,.834.265" transform="translate(-534.8 -977.251)" fill="#01375b"></path><path id="Trazado_4494" data-name="Trazado 4494" d="M796.945,1372.95a.236.236,0,0,0,.144-.048.241.241,0,0,0,.049-.338,10.315,10.315,0,0,0-1.425-1.567.242.242,0,0,0-.313.368,10.026,10.026,0,0,1,1.351,1.488.242.242,0,0,0,.194.1" transform="translate(-595.681 -1026.817)" fill="#dc5e03"></path><path id="Trazado_4495" data-name="Trazado 4495" d="M784.011,1394.312h.019a6.683,6.683,0,0,0,5.727-4.838,4.781,4.781,0,0,0,0-2.969.245.245,0,0,0-.3-.16.242.242,0,0,0-.16.3,4.289,4.289,0,0,1,0,2.673,6.2,6.2,0,0,1-5.306,4.512.242.242,0,0,0,.019.482" transform="translate(-587.033 -1038.346)" fill="#dc5e03"></path><path id="Trazado_4496" data-name="Trazado 4496" d="M656.387,1179.8a.362.362,0,0,0,.065-.719c-.041-.007-4.177-.762-10.085-2.055s-66.133-17.411-66.74-17.573a.362.362,0,0,0-.187.7c.608.162,60.849,16.286,66.773,17.581s10.069,2.053,10.11,2.061a.422.422,0,0,0,.065.006" transform="translate(-433.791 -868.41)" fill="#dc5e03"></path><path id="Trazado_4497" data-name="Trazado 4497" d="M376.976,892.047l.234-2.478-5.516-4.11-3.109,5.092s3.323,1.075,4.595,1.5a10.788,10.788,0,0,0,3.8,0" transform="translate(-276.065 -663.198)" fill="#ffb27d"></path><path id="Trazado_4498" data-name="Trazado 4498" d="M382.506,886.826h0l5.056,3.767-.137,1.449a11.365,11.365,0,0,1-3.893-1.776,3.523,3.523,0,0,1-1.025-3.44" transform="translate(-286.417 -664.222)" fill="#ed975d"></path><path id="Trazado_4499" data-name="Trazado 4499" d="M391.453,826.369a8.176,8.176,0,0,1,0,2.478c-.234.888-1.356,4.488-1.075,5.142s1.215.421,1.215.935a15.631,15.631,0,0,1-2.291,4.909,7.831,7.831,0,0,1-2.618,2.151c-.514.234-5.75-2.01-6.592-2.618s-1.916-2.992-2.244-4.862-.7-6.591.795-9.677,5.843-5.47,8.461-4.488,4.114,2.805,4.348,6.031" transform="translate(-282.782 -614.256)" fill="#ffb27d"></path><path id="Trazado_4500" data-name="Trazado 4500" d="M376.478,853.42a8.949,8.949,0,0,0,.3,2.041c.187.187.5,0,.5,0s.779-5.454.841-5.61a19.075,19.075,0,0,0-4.425-.094c-.966.156-3.9,2.711-3.9,2.711s.125,2.431.249,2.867l.53-.187s.28.966.5,1.558a10.277,10.277,0,0,0,1.528,1.951,7.1,7.1,0,0,1,.217-1.8c.187-.28.686.187.686.187l1-2.337s1.184-1.215,1.979-1.293" transform="translate(-276.97 -636.399)" fill="#6b1013"></path><path id="Trazado_4501" data-name="Trazado 4501" d="M386.224,859.414a2.662,2.662,0,0,0-2.384-1.73c-1.683.094-1.216,3.412.7,4.862Z" transform="translate(-286.716 -642.393)" fill="#fdaea9"></path><path id="Trazado_4502" data-name="Trazado 4502" d="M366.163,822.922s4.82-2.725,14.076-3.847c0,0,4.441-.374,5.1-1.028s-.374-1.4-2.758-1.075a7.789,7.789,0,0,0-3.272-5.844c-3.319-2.524-8.462-2.259-10.659-.623a10.343,10.343,0,0,0-3.74,6.794,11.94,11.94,0,0,0,1.258,5.623" transform="translate(-273.298 -606.121)" fill="#ff9407"></path><path id="Trazado_4503" data-name="Trazado 4503" d="M384.212,808.734h-.894s-.125-.736,1.246-1.141a11.462,11.462,0,0,1,6.015.182c1.652.722,3.148,1.407,3.927,4.2,0,0,.435.629-.188.712l-2.025.27s-.5-1.994-3.8-3.241-4.279-.978-4.279-.978" transform="translate(-287.097 -604.642)" fill="#ff9407"></path><path id="Trazado_4504" data-name="Trazado 4504" d="M420.107,840.474l.022,0c1.342-.24,2.223-.339,2.231-.34a.12.12,0,0,0,.107-.133.125.125,0,0,0-.133-.107c-.009,0-.9.1-2.248.342a.121.121,0,0,0,.022.24" transform="translate(-314.565 -629.069)" fill="#dc5e03"></path><path id="Trazado_4505" data-name="Trazado 4505" d="M374.461,846.948a.122.122,0,0,0,.066-.02,29.674,29.674,0,0,1,9.044-3.5.121.121,0,1,0-.055-.236,29.918,29.918,0,0,0-9.122,3.534.12.12,0,0,0-.035.167.118.118,0,0,0,.1.055" transform="translate(-280.376 -631.538)" fill="#dc5e03"></path><path id="Trazado_4506" data-name="Trazado 4506" d="M416.75,826.416h.016l2.337-.312a.121.121,0,0,0,.1-.136.119.119,0,0,0-.136-.1l-2.243.3a4.26,4.26,0,0,0-.646-1.026.121.121,0,1,0-.187.153,3.685,3.685,0,0,1,.64,1.042.122.122,0,0,0,.115.083" transform="translate(-311.554 -617.985)" fill="#fff"></path><path id="Trazado_4507" data-name="Trazado 4507" d="M394.571,814.871a.12.12,0,0,0,.1-.05.122.122,0,0,0-.027-.169,9.033,9.033,0,0,0-1.976-1.066c-3.111-1.232-3.714-.973-3.776-.939a.121.121,0,0,0-.044.165.122.122,0,0,0,.165.045c.015-.008.6-.221,3.566.954a8.774,8.774,0,0,1,1.923,1.038.124.124,0,0,0,.071.022" transform="translate(-291.229 -608.629)" fill="#fff"></path><path id="Trazado_4508" data-name="Trazado 4508" d="M382.35,822.052a.121.121,0,0,0,.087-.037l1.217-1.246a.121.121,0,0,0,0-.166,10.028,10.028,0,0,0-5.126-2.5.126.126,0,0,0-.138.1.12.12,0,0,0,.1.138,10.124,10.124,0,0,1,4.908,2.342l-1.06,1.085a12.207,12.207,0,0,0-5.126-2.324.118.118,0,0,0-.141.1.12.12,0,0,0,.1.14,11.867,11.867,0,0,1,5.1,2.341.12.12,0,0,0,.079.029" transform="translate(-282.422 -612.748)" fill="#dc5e03"></path><path id="Trazado_4509" data-name="Trazado 4509" d="M831.8,1405.823H948.266c-7.932-2.265-44.919-12.5-64.491-12.156a97.744,97.744,0,0,0-16.5,1.958,249.688,249.688,0,0,0-35.473,10.2" transform="translate(-623.005 -1043.832)" fill="#e69d43"></path><path id="Trazado_4510" data-name="Trazado 4510" d="M986.918,1176.819s.125-23.935.374-26.3,1.87-24.06,1.87-24.06H972.707s1.745,25.8,1.745,28.173,1.62,23.187,1.62,23.187Z" transform="translate(-728.544 -843.702)" fill="#01375b"></path><path id="Trazado_4511" data-name="Trazado 4511" d="M966.532,1346.7a1.236,1.236,0,0,0,1.122-.686c.249-.686.187-26.864.187-26.864s-9.635.113-13.388.742l.922,18.331s-2.306,2.929-2.9,3.117-7.324,1.62-7.76,2.555-1.06,2.182-.249,2.8,8.009,1.059,13.214.436c2.38-.285,8.851-.436,8.851-.436" transform="translate(-707.098 -988.027)" fill="#ff9407"></path><path id="Trazado_4512" data-name="Trazado 4512" d="M994.9,1394.77a8.712,8.712,0,0,0,2.388-.316.121.121,0,0,0,.083-.15.119.119,0,0,0-.15-.082,9.229,9.229,0,0,1-3.5.231.114.114,0,0,0-.138.1.12.12,0,0,0,.1.138,8.383,8.383,0,0,0,1.217.079" transform="translate(-744.18 -1044.25)" fill="#dc5e03"></path><path id="Trazado_4513" data-name="Trazado 4513" d="M993.7,1387.435a.133.133,0,0,0,.052-.011,4.251,4.251,0,0,0,1.353-1.018.121.121,0,0,0-.193-.145,4.056,4.056,0,0,1-1.264.944.121.121,0,0,0,.052.23" transform="translate(-744.18 -1038.256)" fill="#dc5e03"></path><path id="Trazado_4514" data-name="Trazado 4514" d="M1055.72,1167.509s-1.5-18.2-1.745-22.439-.374-28.548-.374-28.548l-16.33,1.621s5.61,30.168,5.734,31.789,1.621,19.073,1.621,19.073Z" transform="translate(-776.902 -836.261)" fill="#01375b"></path><path id="Trazado_4515" data-name="Trazado 4515" d="M1076.246,1334.684v-19.011s-8.477.187-12.9,1.309l2.867,22.127a45.7,45.7,0,0,0,.187,4.8c.187.5,5.859.685,7.854,1.06s15.77.686,16.268.125-.561-3.927-1.995-4.924-9.287-2.743-9.287-2.743Z" transform="translate(-796.43 -985.423)" fill="#ff9407"></path><path id="Trazado_4516" data-name="Trazado 4516" d="M1095.094,1392.949a18.247,18.247,0,0,0,2.409-.169.122.122,0,0,0,.1-.138.118.118,0,0,0-.137-.1,15.181,15.181,0,0,1-4.289,0,.118.118,0,0,0-.143.093.121.121,0,0,0,.094.143,10,10,0,0,0,1.965.171" transform="translate(-818.667 -1042.994)" fill="#dc5e03"></path><path id="Trazado_4517" data-name="Trazado 4517" d="M1102.8,1385.967a.121.121,0,0,0,.035-.237,12.082,12.082,0,0,1-1.987-.808.122.122,0,0,0-.164.047.121.121,0,0,0,.047.164,12.19,12.19,0,0,0,2.034.828.16.16,0,0,0,.035,0" transform="translate(-824.386 -1037.279)" fill="#dc5e03"></path><path id="Trazado_4518" data-name="Trazado 4518" d="M963.421,896.006a20.713,20.713,0,0,0-4.054,5.8c-1.309,3.116-1.558,8.29-1.558,8.29l6.919,2.306s1.064-12.658-1.306-16.4" transform="translate(-717.386 -671.098)" fill="#7588b2"></path><path id="Trazado_4519" data-name="Trazado 4519" d="M1095.569,892.54a16.89,16.89,0,0,1,4.737,6.669,30.053,30.053,0,0,1,1.5,7.106l-5.236,1.247s-1.5-11.469-1-15.022" transform="translate(-820.49 -668.502)" fill="#7588b2"></path><path id="Trazado_4520" data-name="Trazado 4520" d="M1030.693,865.911l-.218-2.142-8.321.272-.156,2.338,1.091,2.805s2.338,2.836,3.537,3.038,3.88-3.568,4.067-6.311" transform="translate(-765.463 -646.952)" fill="#ffb27d"></path><path id="Trazado_4521" data-name="Trazado 4521" d="M1026.411,868.872c-1.4,0-3.072-1.462-4.326-2.822l.134-2.009,8.321-.272.153,1.5c-.824,1.357-2.459,3.6-4.282,3.6" transform="translate(-765.528 -646.952)" fill="#ed975d"></path><path id="Trazado_4522" data-name="Trazado 4522" d="M1027.007,905.064l3.272-7.153-3.974-.467h-4.2l-.537,2.051Z" transform="translate(-765.142 -672.175)" fill="#4d5e7a"></path><path id="Trazado_4523" data-name="Trazado 4523" d="M1035.072,909.736l.444,4.192-3.709-.062.553-4.129Z" transform="translate(-772.81 -681.381)" fill="#fd2352"></path><path id="Trazado_4524" data-name="Trazado 4524" d="M1033,897.444h1.776l-.678,3.086h-2.712l-.881-2.852Z" transform="translate(-771.832 -672.175)" fill="#fd2352"></path><path id="Trazado_4525" data-name="Trazado 4525" d="M1035.171,909.5h1.932a.121.121,0,1,0,0-.242h-1.932a.121.121,0,0,0,0,.242" transform="translate(-775.239 -681.02)" fill="#4a1435"></path><path id="Trazado_4526" data-name="Trazado 4526" d="M967.793,933.742c0,.5.01.985.019,1.459.029,3.41.077,5.893.077,5.893,5.488,1.372,18.018.077,18.018.077.56.927,17.313.676,17.245-2.7,0,0-.038-1.633-.087-4.164-.01-.454-.019-.947-.029-1.459-.184-8.8-.512-25.042-.493-27.023.029-2.744-1.43-24.318-2.831-25.448a17.968,17.968,0,0,0-3.826-1.691c-.483-.174-.985-.338-1.459-.5-1.787-.589-3.314-1.043-3.314-1.043s-3.527,9.169-5.207,11.874c-1.932-2.328-6.676-11.13-6.676-11.13-.9.3-1.855.686-2.782,1.1-.483.222-.956.444-1.42.677-2.3,1.111-4.144,2.212-4.144,2.212a50.483,50.483,0,0,1,.367,7.855c-.116,4.492-2.493,22.569-3.111,27.177-.377,2.744-.4,10.763-.348,16.83" transform="translate(-724.85 -656.972)" fill="#ff9407"></path><path id="Trazado_4527" data-name="Trazado 4527" d="M967.815,1062.6l35.061,1.217c.033,1.642.066,3.242.1,4.736a47.566,47.566,0,0,1-20.838,3.5,75.755,75.755,0,0,1-14.356-2.292c-.008-2.394,0-4.9.037-7.161" transform="translate(-724.851 -795.874)" fill="#dc5e03"></path><path id="Trazado_4528" data-name="Trazado 4528" d="M967.85,936.855c0,.5.01.986.019,1.459,2.338.106,4.908.155,7.555.155,11.332,0,24.211-.811,27.7-1.043-.01-.454-.019-.947-.029-1.459-1.217.087-3.7.241-6.908.415.009-4.985.009-31.438.1-35.631.077-3.816-.222-15.014-.338-18.946-.483-.174-.985-.338-1.459-.5.1,3.294.435,15.429.347,19.419-.087,4.232-.087,30.974-.1,35.737-5.256.261-12.067.531-18.463.551-.029-3.536-.1-19.081.56-26.018.667-7.1-.126-24.723-.329-28.887-.483.222-.956.444-1.42.676.232,4.985.927,21.457.309,28.076-.667,6.995-.6,22.578-.57,26.163-2.444-.009-4.811-.058-6.976-.164" transform="translate(-724.907 -660.085)" fill="#fff"></path><path id="Trazado_4529" data-name="Trazado 4529" d="M1039.529,980.4a.242.242,0,0,0,.242-.239c0-.2.252-20.025.5-27.046.246-7.037-.492-19.471-.5-19.6a.237.237,0,0,0-.255-.227.242.242,0,0,0-.227.256c.008.125.744,12.537.5,19.55s-.5,26.857-.5,27.057a.242.242,0,0,0,.239.244Z" transform="translate(-778.412 -699.026)" fill="#dc5e03"></path><path id="Trazado_4530" data-name="Trazado 4530" d="M1040.436,878.613s3.833,1.543,5.282,3.226a29.418,29.418,0,0,0,1.777-7.716L1044.5,872.3s-1.356,4.815-4.067,6.311" transform="translate(-779.273 -653.344)" fill="#7588b2"></path><path id="Trazado_4531" data-name="Trazado 4531" d="M1015.379,880.008a37.6,37.6,0,0,1-4.628-5.844s-2.911,1.059-3.769,2.1a33.628,33.628,0,0,0,2.974,6.239s3.179-2.163,5.423-2.491" transform="translate(-754.216 -654.738)" fill="#7588b2"></path><path id="Trazado_4532" data-name="Trazado 4532" d="M982.056,945.883l-.379,3.031-2.971,19.871s-23.121,7.119-42.61,1.321l-2.971-21.815-.379-2.407L931.238,934.9s15.141,5.283,30.474,3.994,21.852-3.994,21.852-3.994Z" transform="translate(-697.485 -700.227)" fill="#1e3d70"></path><path id="Trazado_4533" data-name="Trazado 4533" d="M1133.56,981.8c0-.081-1-3.139-1-3.139l-.379,3.031Z" transform="translate(-847.988 -733.005)" fill="#fd9064"></path><path id="Trazado_4534" data-name="Trazado 4534" d="M1120.349,991.57c-.005.005-.005.011,0,.022a2.272,2.272,0,0,0,.169.711c.39,1.177,1.31,3.324,1.31,3.324l1.184.214a2.163,2.163,0,0,0,2.177-2.083c.006-.1.013-.2.013-.308a15.684,15.684,0,0,0-.667-5.1c-.227-.354-2.781.329-2.781.329s-1.285,2.536-1.405,2.888" transform="translate(-839.123 -740.188)" fill="#ffb27d"></path><path id="Trazado_4535" data-name="Trazado 4535" d="M933.259,981.8c0-.081,1-3.139,1-3.139l.379,3.031Z" transform="translate(-698.999 -733.005)" fill="#fd9064"></path><path id="Trazado_4536" data-name="Trazado 4536" d="M936.092,991.57c.006.005.006.011,0,.022a2.257,2.257,0,0,1-.169.711c-.39,1.177-1.31,3.324-1.31,3.324l-1.184.214a2.163,2.163,0,0,1-2.177-2.083c-.006-.1-.013-.2-.013-.308a15.678,15.678,0,0,1,.667-5.1c.227-.354,2.782.329,2.782.329s1.285,2.536,1.405,2.888" transform="translate(-697.485 -740.188)" fill="#ffb27d"></path><path id="Trazado_4537" data-name="Trazado 4537" d="M1125.891,1000.244a5.6,5.6,0,0,0,1.879-.308.12.12,0,0,0-.088-.224,5.662,5.662,0,0,1-2.239.273.121.121,0,1,0-.019.241c.16.012.317.018.467.018" transform="translate(-842.845 -748.766)" fill="#fd9064"></path><path id="Trazado_4538" data-name="Trazado 4538" d="M940.062,998.736a.121.121,0,0,0,.028-.238l-1.666-.4a.118.118,0,0,0-.145.089.12.12,0,0,0,.089.145l1.666.4a.091.091,0,0,0,.028,0" transform="translate(-702.755 -747.557)" fill="#fd9064"></path><path id="Trazado_4539" data-name="Trazado 4539" d="M1067.732,967.207c5.284,0,10.826-.624,10.885-.632l-.055-.479a104.884,104.884,0,0,1-11.978.618l-.009.483c.383.008.769.01,1.157.01" transform="translate(-798.85 -723.594)" fill="#fff"></path><path id="Trazado_4540" data-name="Trazado 4540" d="M1067,980.361c5.285,0,10.829-.626,10.889-.633l-.054-.479a108.39,108.39,0,0,1-12.1.616l-.01.483c.42.009.845.013,1.271.013" transform="translate(-798.214 -733.445)" fill="#fff"></path><path id="Trazado_4541" data-name="Trazado 4541" d="M1073.307,993.508c5.044-.051,10.108-.624,10.158-.629l-.055-.479c-.051.005-5.09.575-10.108.625Z" transform="translate(-803.89 -743.295)" fill="#fff"></path><path id="Trazado_4542" data-name="Trazado 4542" d="M1073.381,1037.706c4-.318,6.648-.639,6.675-.642l-.059-.479c-.026,0-2.669.323-6.655.641Z" transform="translate(-803.919 -776.389)" fill="#fff"></path><path id="Trazado_4543" data-name="Trazado 4543" d="M982.016,1040.978q4.808,0,10.329-.312l-.027-.483a140.331,140.331,0,0,1-20.4-.106l-.045.481c3.032.28,6.423.421,10.142.421" transform="translate(-727.921 -779.004)" fill="#fff"></path><path id="Trazado_4544" data-name="Trazado 4544" d="M1022.545,1050.291c10.235-.167,19.367-1.264,19.458-1.276l-.059-.479c-.091.011-9.2,1.1-19.407,1.272Z" transform="translate(-765.867 -785.341)" fill="#fff"></path><path id="Trazado_4545" data-name="Trazado 4545" d="M979.341,1052.9l.009-.483c-2.688-.052-5.188-.184-7.431-.392l-.045.481c2.256.208,4.768.341,7.467.393" transform="translate(-727.921 -787.956)" fill="#fff"></path><path id="Trazado_4546" data-name="Trazado 4546" d="M1031.507,1062.19c9.278-.271,17.126-1.215,17.2-1.225l-.058-.479c-.078.009-7.905.951-17.16,1.221Z" transform="translate(-772.575 -794.291)" fill="#fff"></path><path id="Trazado_4547" data-name="Trazado 4547" d="M971.507,967.3c0-.009,0-.021.009-.028l.009-.007s0,0,0,0l7.979-6.884a.119.119,0,0,1,.155,0l8.913,7.231s0,0,0,0a.118.118,0,0,1,.031.057c0,.008.01.014.011.022s0,0,0,0c.02.334.5,8.17.5,8.359a.121.121,0,0,1-.121.121H972.6a.121.121,0,0,1-.12-.107l-1-8.7s0-.007,0-.011a.112.112,0,0,1,.018-.056m8.079-6.673-7.662,6.612,16.224.333Zm-6.876,15.3h16.159c-.042-.818-.325-5.484-.486-8.112l-16.641-.343Z" transform="translate(-727.63 -719.286)" fill="#fff"></path><path id="Trazado_4548" data-name="Trazado 4548" d="M1045.912,990.566l1.353-.121a.117.117,0,0,1,.131.11.122.122,0,0,1-.109.131l-.5.044.726,7.727.5-.044h.011a.121.121,0,0,1,.011.241l-.614.055s0,0-.008,0h-.012s0,0-.008,0l-.711.064h-.011a.121.121,0,0,1-.011-.241l.608-.054-.726-7.727-.609.053h-.011a.121.121,0,0,1-.011-.241" transform="translate(-783.292 -741.831)" fill="#fff"></path><path id="Trazado_4549" data-name="Trazado 4549" d="M1019.724,962.19l-7.632-5.678-.424.394a.119.119,0,0,1-.082.032.121.121,0,0,1-.082-.209l.995-.926a.121.121,0,0,1,.164.177l-.39.363,7.632,5.678.385-.358a.121.121,0,0,1,.164.177l-.995.925a.12.12,0,0,1-.17-.007.12.12,0,0,1,.006-.171Z" transform="translate(-757.574 -715.861)" fill="#fff"></path><path id="Trazado_4550" data-name="Trazado 4550" d="M971.342,956.923a.12.12,0,0,1-.084-.034l-.409-.395-6.486,5.638.394.38a.12.12,0,0,1,0,.171.118.118,0,0,1-.086.037.121.121,0,0,1-.084-.034l-.977-.943a.121.121,0,0,1,.168-.174l.409.394,6.486-5.638-.393-.379a.121.121,0,0,1,.168-.174l.976.943a.121.121,0,0,1-.084.208" transform="translate(-721.704 -715.837)" fill="#fff"></path><path id="Trazado_4551" data-name="Trazado 4551" d="M960.959,988.976l1.347-.171a.115.115,0,0,1,.135.1.121.121,0,0,1-.1.135l-.554.07,1.03,8.112.553-.07a.118.118,0,0,1,.135.1.121.121,0,0,1-.1.135l-.673.086h0l-.673.086h-.015a.121.121,0,0,1-.015-.241l.554-.071-1.03-8.113-.553.07h-.015a.121.121,0,0,1-.015-.24" transform="translate(-719.666 -740.601)" fill="#fff"></path><path id="Trazado_4552" data-name="Trazado 4552" d="M1005.037,839.459s-1.963-.841-2.2-1.963-.327-1.963.281-2.2,1.917.561,1.917.561Z" transform="translate(-750.979 -625.596)" fill="#fcc19e"></path><path id="Trazado_4553" data-name="Trazado 4553" d="M1061.481,839.717s2.01-.28,2.1-2.01-.374-2.151-1.029-2.1a1.213,1.213,0,0,0-.935.514Z" transform="translate(-795.035 -625.854)" fill="#fcc19e"></path><path id="Trazado_4554" data-name="Trazado 4554" d="M1061.232,839.329l.071-.11c.137-.21.442-.691.677-1.137a42.621,42.621,0,0,0,1.122-4.27l-1.683.249Z" transform="translate(-794.849 -624.516)" fill="#6b1013"></path><path id="Trazado_4555" data-name="Trazado 4555" d="M1006.23,834.062s.841,3.989.9,4.27a2.213,2.213,0,0,0,.561.872c.093.031-.312-5.267-.312-5.267Z" transform="translate(-753.653 -624.609)" fill="#6b1013"></path><path id="Trazado_4556" data-name="Trazado 4556" d="M1021.507,806.7s-.514,2.711-.608,3.74a13.825,13.825,0,0,1-.514,3.693c-.421.935-3.927,3.833-5.376,3.974s-5.657-2.851-6.218-3.787a6.449,6.449,0,0,1-.7-2.992c.047-.468-.467-2.945-.561-4.441s-1.823-4.161,1.028-6.171,7.293-2.758,8.789-2.1,2.9.748,3.693,2.571.467,5.516.467,5.516" transform="translate(-754.173 -597.975)" fill="#ffb27d"></path><path id="Trazado_4557" data-name="Trazado 4557" d="M1020.763,832.524s-.748,2.846-7.012,3-8.415.105-10-2.424l7.667-.843Z" transform="translate(-751.793 -623.353)" fill="#ff9407"></path><path id="Trazado_4558" data-name="Trazado 4558" d="M1020.312,794.413a15.146,15.146,0,0,0-.608-6.311c-1.075-3.46-2.478-6.638-7.947-6.685a8.171,8.171,0,0,0-8.321,5.984c-.561,2.15-.14,7.526-.14,7.526s11.017,2.026,17.017-.514" transform="translate(-751.341 -585.271)" fill="#ff9407"></path><path id="Trazado_4559" data-name="Trazado 4559" d="M1031.164,789.069s.374-10.109.14-10.194a17.289,17.289,0,0,0-4.161.126c-.281.253-.094,9.815,0,10.025a9.709,9.709,0,0,0,4.02.042" transform="translate(-769.206 -583.319)" fill="#ff9407"></path><path id="Trazado_4560" data-name="Trazado 4560" d="M1027.394,833.245a29.491,29.491,0,0,0,8.886-1.234.122.122,0,0,0,.074-.155.119.119,0,0,0-.154-.074,30.34,30.34,0,0,1-10.787,1.164.123.123,0,0,0-.128.114.121.121,0,0,0,.114.127c.689.04,1.356.057,2,.057" transform="translate(-767.924 -622.99)" fill="#fff"></path><path id="Trazado_4561" data-name="Trazado 4561" d="M1008.684,834.638a.121.121,0,0,0,.014-.24c-.938-.11-1.881-.26-2.8-.444a.121.121,0,0,0-.047.238c.929.185,1.879.335,2.823.446h.014" transform="translate(-753.293 -624.62)" fill="#fff"></path><path id="Trazado_4562" data-name="Trazado 4562" d="M1034.586,793.1a3.551,3.551,0,0,0,1.449-.176c.221-.19.212-.684.2-1.256,0-.12,0-.242,0-.363,0-.645.185-7.315.187-7.383a.121.121,0,0,0-.118-.124h0a.121.121,0,0,0-.121.117c0,.068-.187,6.74-.187,7.389,0,.123,0,.246,0,.367.008.447.017.953-.118,1.069a8.026,8.026,0,0,1-2.188.1.122.122,0,0,0-.128.112.121.121,0,0,0,.112.129c.009,0,.428.023.913.023" transform="translate(-774.123 -587.051)" fill="#dc5e03"></path><path id="Trazado_4563" data-name="Trazado 4563" d="M1026.948,795.765a.561.561,0,0,0,.2-.037.121.121,0,0,0-.094-.222.284.284,0,0,1-.208-.007.428.428,0,0,1-.155-.307c-.091-.577-.121-6.135-.061-7.674a.121.121,0,0,0-.116-.126h0a.121.121,0,0,0-.121.116c-.062,1.592-.031,7.117.063,7.722a.62.62,0,0,0,.278.48.45.45,0,0,0,.219.055" transform="translate(-768.726 -589.747)" fill="#dc5e03"></path><path id="Trazado_4564" data-name="Trazado 4564" d="M1010.462,798.3a6.2,6.2,0,0,0,1.347-.219c.1-.03.4-.121.086-5.981a.12.12,0,0,0-.127-.114.121.121,0,0,0-.114.127,38.151,38.151,0,0,1,.055,5.745,3.49,3.49,0,0,1-1.506.162c-.038-.187-.165-2.359-.24-3.77a.122.122,0,0,0-.121-.114h-.007a.122.122,0,0,0-.114.128c.019.361.189,3.539.252,3.822a.224.224,0,0,0,.113.147.794.794,0,0,0,.375.067m1.237-.425h0Z" transform="translate(-756.268 -593.189)" fill="#dc5e03"></path><path id="Trazado_4565" data-name="Trazado 4565" d="M1051.914,799.8c.04,0,.077,0,.112,0a.407.407,0,0,0,.365-.2c.16-.354.418-4.833.447-5.342a.121.121,0,0,0-.114-.127h-.007a.121.121,0,0,0-.121.114c-.107,1.906-.319,5.018-.426,5.255-.007.015-.048.044-.16.057a2.766,2.766,0,0,1-1.408-.358c-.08-.245.2-3.254.4-5.091a.121.121,0,1,0-.24-.025,35.278,35.278,0,0,0-.352,5.256,2.738,2.738,0,0,0,1.508.464" transform="translate(-786.707 -594.675)" fill="#dc5e03"></path><path id="Trazado_4566" data-name="Trazado 4566" d="M4.065,1442.551H561.093a.783.783,0,0,0,0-1.528H4.065a.783.783,0,0,0,0,1.528" transform="translate(-2.586 -1079.308)" fill="#283250"></path></g></g></g></svg>