<svg xmlns="http://www.w3.org/2000/svg" xmlns:xlink="http://www.w3.org/1999/xlink" width="70" height="70" viewBox="0 0 70 70"><defs><clipPath id="clip-path"><rect id="Rect&#xE1;ngulo_3198" data-name="Rect&#xE1;ngulo 3198" width="40" height="31.133" fill="#fff"></rect></clipPath></defs><g id="reembolso" transform="translate(-957 -888)"><circle id="Elipse_2" data-name="Elipse 2" cx="35" cy="35" r="35" transform="translate(957 888)" fill="#3728ae"></circle><g id="Grupo_802" data-name="Grupo 802" transform="translate(972 905)"><g id="Grupo_801" data-name="Grupo 801" clip-path="url(#clip-path)"><path id="Trazado_4216" data-name="Trazado 4216" d="M17.516,10.666c-.278-.262-.563-.514-.829-.786a.677.677,0,0,1,0-1.075Q20.957,4.53,25.23.261a.694.694,0,0,1,1.229.51c0,1.369,0,2.739,0,4.147.585.118,1.163.225,1.735.353a18.924,18.924,0,0,1,6.816,2.773,11.177,11.177,0,0,1,4.97,10.418A18.652,18.652,0,0,1,38.6,24.414c-.085.214-.313.369-.452.568a.737.737,0,0,0-.151.382c-.012,1.173-.006,2.346-.007,3.518a2.057,2.057,0,0,1-2.229,2.251H2.234A2.057,2.057,0,0,1,0,28.886q0-7.926,0-15.852a2.056,2.056,0,0,1,2.268-2.252h15.2c.016-.038.031-.077.047-.116m8.941,3.073v.438c0,1.158,0,2.317,0,3.476,0,.39.024.79-.415.976-.458.193-.734-.115-1.019-.4-1.045-1.053-2.092-2.105-3.152-3.144a.807.807,0,0,0-.5-.222q-7.525-.017-15.052-.013a.35.35,0,0,0-.4.27,2.576,2.576,0,0,1-1.558,1.575.376.376,0,0,0-.3.421q.013,3.836,0,7.674c0,.263.1.353.326.443A2.467,2.467,0,0,1,5.862,26.67a.539.539,0,0,0,.613.4q12.422-.015,24.845-.007a1.138,1.138,0,0,0,.378-.009.616.616,0,0,0,.35-.252,2.722,2.722,0,0,1,1.606-1.591.35.35,0,0,0,.271-.4c-.006-2.247,0-4.494-.01-6.742a.69.69,0,0,0-.133-.419,12.062,12.062,0,0,0-4.6-3.445,6.109,6.109,0,0,0-2.722-.471M25.1,16.323c0-1.036,0-2.022,0-3.007a.718.718,0,0,1,.7-.836,7.267,7.267,0,0,1,5.225,1.1,17.84,17.84,0,0,1,6.784,7.878c.058.121.117.241.175.362l.148,0c.165-1.153.4-2.3.48-3.458a9.925,9.925,0,0,0-2.06-7.069A11.781,11.781,0,0,0,31.969,7.9a23.885,23.885,0,0,0-6.145-1.688c-.539-.084-.721-.3-.722-.855,0-.862,0-1.724,0-2.586,0-.118-.016-.237-.02-.294L18.163,9.392,25.1,16.323m10.314,3.419-.139.044V20.2q0,2.671,0,5.342c0,.572-.2.783-.768.848a1.381,1.381,0,0,0-1.261,1.226c-.079.636-.263.806-.9.806H5.64c-.634,0-.817-.167-.9-.806A1.383,1.383,0,0,0,3.526,26.39c-.644-.083-.811-.262-.811-.89q0-4.537,0-9.073c0-.638.168-.823.8-.9a1.388,1.388,0,0,0,1.224-1.171c.118-.755.24-.859,1.017-.859H20.325c-.446-.434-.781-.793-1.153-1.109a1,1,0,0,0-.583-.238q-8.162-.019-16.323-.01c-.692,0-.909.219-.909.914q0,7.907,0,15.814c0,.691.22.91.914.91H35.723c.691,0,.91-.221.91-.914q0-3.158,0-6.317a1.092,1.092,0,0,0-.062-.453c-.374-.788-.767-1.567-1.154-2.35" transform="translate(0 0)" fill="#fff"></path><path id="Trazado_4217" data-name="Trazado 4217" d="M15.254,22.883A5.275,5.275,0,0,1,20.7,17.46a5.274,5.274,0,0,1,5.4,5.429,5.28,5.28,0,0,1-5.45,5.424,5.276,5.276,0,0,1-5.4-5.43m5.439,4.072a3.929,3.929,0,0,0,4.041-4.084,3.926,3.926,0,0,0-4.069-4.054,3.925,3.925,0,0,0-4.04,4.082,3.927,3.927,0,0,0,4.068,4.056" transform="translate(-1.685 -1.929)" fill="#fff"></path><path id="Trazado_4218" data-name="Trazado 4218" d="M10.44,21.274a2.034,2.034,0,1,1-2.049,2,2.039,2.039,0,0,1,2.049-2m.66,2.019a.675.675,0,1,0-.661.689.682.682,0,0,0,.661-.689" transform="translate(-0.927 -2.35)" fill="#fff"></path><path id="Trazado_4219" data-name="Trazado 4219" d="M34.575,23.295a2.033,2.033,0,1,1-2.025-2.022,2.041,2.041,0,0,1,2.025,2.022m-1.358-.008a.675.675,0,1,0-.656.7.682.682,0,0,0,.656-.7" transform="translate(-3.37 -2.35)" fill="#fff"></path><path id="Trazado_4220" data-name="Trazado 4220" d="M21.353,19.875a1.748,1.748,0,0,1,1.281.71,1.4,1.4,0,0,1,.254.528c.039.233.246.554-.143.686a.7.7,0,0,1-.941-.37,2.463,2.463,0,0,0-.381-.491L21.332,21v1.391c.986.232,1.758.708,1.773,1.839.015,1.165-.75,1.685-1.764,1.918-.1.3.152.759-.431.769s-.392-.423-.445-.717a5.751,5.751,0,0,1-.825-.3,1.781,1.781,0,0,1-.956-1.588c-.015-.315.085-.493.431-.454a.887.887,0,0,0,.212,0c.326-.041.492.067.51.428a.723.723,0,0,0,.641.765c0-.505.013-.981-.012-1.454,0-.087-.156-.208-.262-.24a1.759,1.759,0,0,1,.014-3.429c.1-.03.247-.139.247-.209,0-.35.188-.444.484-.432.325.012.389.221.369.494,0,.026.019.052.036.1M21.334,25.1a.714.714,0,0,0,.612-.769.691.691,0,0,0-.612-.7Zm-.877-4.159a.648.648,0,0,0-.506.7.574.574,0,0,0,.506.577Z" transform="translate(-2.064 -2.13)" fill="#fff"></path></g></g></g></svg>