<svg xmlns="http://www.w3.org/2000/svg" xmlns:xlink="http://www.w3.org/1999/xlink" width="450.444" height="279.002" viewBox="0 0 450.444 279.002"><defs><clipPath id="clip-path"><rect id="Rect&#xE1;ngulo_4514" data-name="Rect&#xE1;ngulo 4514" width="413.667" height="278" fill="none"></rect></clipPath><clipPath id="clip-path-3"><rect id="Rect&#xE1;ngulo_4512" data-name="Rect&#xE1;ngulo 4512" width="8.51" height="17.139" fill="none"></rect></clipPath></defs><g id="responsabilidad" transform="translate(0)"><path id="Trazado_7358" data-name="Trazado 7358" d="M21.442,231.531l388.121-.112s65.59-75.1,30.609-125.332S354.1,91.312,349.839,55.018a30.348,30.348,0,0,1-.029-3.632c0-.283,0-.561-.022-.84C348.479,29.7,332.108,16.232,310.5,8.482q-1.047-.376-2.108-.732c-34.453-11.6-81.037-9.213-101.659.76C171.648,25.478,171.868,45.9,99.412,39.165S13.138,88.764,32,117.466C58.76,158.193-42.212,151.5,21.442,231.531" transform="translate(0 47.471)" fill="#ebf3fa"></path><g id="Grupo_1517" data-name="Grupo 1517" transform="translate(9.444 0)"><g id="Grupo_1516" data-name="Grupo 1516" clip-path="url(#clip-path)"><rect id="Rect&#xE1;ngulo_4489" data-name="Rect&#xE1;ngulo 4489" width="251.163" height="175.68" transform="translate(156.459 101.643)" fill="#dd8f71"></rect><rect id="Rect&#xE1;ngulo_4490" data-name="Rect&#xE1;ngulo 4490" width="86.286" height="175.68" transform="translate(70.173 101.643)" fill="#c27868"></rect><rect id="Rect&#xE1;ngulo_4491" data-name="Rect&#xE1;ngulo 4491" width="262.155" height="7.694" transform="translate(151.512 93.947)" fill="#765652"></rect><rect id="Rect&#xE1;ngulo_4492" data-name="Rect&#xE1;ngulo 4492" width="88.209" height="7.694" transform="translate(63.303 93.949)" fill="#624944"></rect><rect id="Rect&#xE1;ngulo_4493" data-name="Rect&#xE1;ngulo 4493" width="32.609" height="47.265" transform="translate(296.99 113.366)" fill="#795955"></rect><path id="Trazado_7293" data-name="Trazado 7293" d="M61.572,131.824H95.536V83.205H61.572Zm32.609-1.354H62.926V84.559H94.181Z" transform="translate(234.74 29.486)" fill="#f7d79c"></path><rect id="Rect&#xE1;ngulo_4494" data-name="Rect&#xE1;ngulo 4494" width="212.064" height="31.327" transform="translate(177.805 169.242)" fill="#f7d79c"></rect><rect id="Rect&#xE1;ngulo_4495" data-name="Rect&#xE1;ngulo 4495" width="5.208" height="45.911" transform="translate(323.714 114.045)" fill="#63443f"></rect><rect id="Rect&#xE1;ngulo_4496" data-name="Rect&#xE1;ngulo 4496" width="32.609" height="47.265" transform="translate(237.397 113.366)" fill="#795955"></rect><path id="Trazado_7294" data-name="Trazado 7294" d="M105.572,131.824h33.964V83.205H105.572Zm32.609-1.354H106.926V84.559h31.255Z" transform="translate(131.148 29.486)" fill="#f7d79c"></path><rect id="Rect&#xE1;ngulo_4497" data-name="Rect&#xE1;ngulo 4497" width="5.208" height="45.911" transform="translate(264.122 114.045)" fill="#63443f"></rect><rect id="Rect&#xE1;ngulo_4498" data-name="Rect&#xE1;ngulo 4498" width="32.609" height="47.265" transform="translate(177.805 113.366)" fill="#795955"></rect><path id="Trazado_7295" data-name="Trazado 7295" d="M149.572,131.824h33.964V83.205H149.572Zm32.609-1.354H150.926V84.559h31.255Z" transform="translate(27.556 29.486)" fill="#f7d79c"></path><rect id="Rect&#xE1;ngulo_4499" data-name="Rect&#xE1;ngulo 4499" width="5.208" height="45.911" transform="translate(204.529 114.045)" fill="#63443f"></rect><rect id="Rect&#xE1;ngulo_4500" data-name="Rect&#xE1;ngulo 4500" width="32.609" height="47.265" transform="translate(355.228 113.366)" fill="#795955"></rect><path id="Trazado_7296" data-name="Trazado 7296" d="M18.572,131.824H52.536V83.205H18.572Zm32.609-1.354H19.926V84.559H51.181Z" transform="translate(335.978 29.486)" fill="#f7d79c"></path><rect id="Rect&#xE1;ngulo_4501" data-name="Rect&#xE1;ngulo 4501" width="5.208" height="45.911" transform="translate(381.952 114.045)" fill="#63443f"></rect><rect id="Rect&#xE1;ngulo_4502" data-name="Rect&#xE1;ngulo 4502" width="66.154" height="55.326" transform="translate(323.714 209.362)" fill="#63443f"></rect><path id="Trazado_7297" data-name="Trazado 7297" d="M17.072,210.762H84.581v-56.68H17.072Zm66.154-1.354h-64.8V155.436h64.8Z" transform="translate(305.965 54.602)" fill="#f7d79c"></path><rect id="Rect&#xE1;ngulo_4503" data-name="Rect&#xE1;ngulo 4503" width="66.154" height="55.326" transform="translate(178.796 209.362)" fill="#63443f"></rect><path id="Trazado_7298" data-name="Trazado 7298" d="M124.072,210.762h67.509v-56.68H124.072Zm66.154-1.354h-64.8V155.436h64.8Z" transform="translate(54.047 54.602)" fill="#f7d79c"></path><rect id="Rect&#xE1;ngulo_4504" data-name="Rect&#xE1;ngulo 4504" width="26.997" height="66.311" transform="translate(287.852 211.011)" fill="#63443f"></rect><path id="Trazado_7299" data-name="Trazado 7299" d="M99.432,156.654H73.871v64.957H99.432Zm1.434,66.311H72.434V155.3h28.432Z" transform="translate(214.698 55.034)" fill="#f7d79c"></path><rect id="Rect&#xE1;ngulo_4505" data-name="Rect&#xE1;ngulo 4505" width="32.76" height="66.311" transform="translate(254.607 211.011)" fill="#63443f"></rect><path id="Trazado_7300" data-name="Trazado 7300" d="M125.371,156.654H94.352v64.957h31.019Zm1.742,66.311H92.61V155.3h34.5Z" transform="translate(161.126 55.034)" fill="#f7d79c"></path><rect id="Rect&#xE1;ngulo_4506" data-name="Rect&#xE1;ngulo 4506" width="17.289" height="18.021" transform="translate(130.537 116.024)" fill="#795955"></rect><rect id="Rect&#xE1;ngulo_4507" data-name="Rect&#xE1;ngulo 4507" width="4.006" height="18.021" transform="translate(130.537 116.024)" fill="#63443f"></rect><rect id="Rect&#xE1;ngulo_4508" data-name="Rect&#xE1;ngulo 4508" width="17.289" height="18.021" transform="translate(103.194 116.024)" fill="#795955"></rect><rect id="Rect&#xE1;ngulo_4509" data-name="Rect&#xE1;ngulo 4509" width="4.006" height="18.021" transform="translate(103.194 116.024)" fill="#63443f"></rect><rect id="Rect&#xE1;ngulo_4510" data-name="Rect&#xE1;ngulo 4510" width="17.289" height="18.021" transform="translate(77.638 116.024)" fill="#795955"></rect><rect id="Rect&#xE1;ngulo_4511" data-name="Rect&#xE1;ngulo 4511" width="4.006" height="18.021" transform="translate(77.638 116.024)" fill="#63443f"></rect><g id="Grupo_1515" data-name="Grupo 1515"><g id="Grupo_1514" data-name="Grupo 1514" clip-path="url(#clip-path)"><path id="Trazado_7301" data-name="Trazado 7301" d="M280.415,155.143a7.91,7.91,0,0,1,2.752,1.467c.614.775-.419,3.7-.419,3.7Z" transform="translate(-249.481 54.978)" fill="#f99746"></path><path id="Trazado_7302" data-name="Trazado 7302" d="M292.025,155.863s2.22,3.589.987,5.018c-1.887,2.186-7.608,3.929-6.991,4.967.3.509,4.066,6.754,4.066,6.754l-1.125.567s-5.652-5.488-6.479-7.288c-.9-1.968,9.543-10.018,9.543-10.018" transform="translate(-262.229 55.234)" fill="#efa26f"></path><path id="Trazado_7303" data-name="Trazado 7303" d="M285,167.7s-.192.259-1.26.332c0,0,.638.884.65.943s-.116,1.15.362,1.586.576.729,1.444.364a1.113,1.113,0,0,0,.779-1.353c-.137-.183-1.459-1.165-1.459-1.165s-.149.007-.516-.707" transform="translate(-257.66 59.428)" fill="#efa26f"></path><path id="Trazado_7304" data-name="Trazado 7304" d="M276.957,178.515l0,.012.007.024c.276,1.073.614,2.183.986,3.3.632,1.885,1.368,3.779,2.09,5.511.087.211.175.421.263.624,1.414,3.326,2.721,5.947,3.041,6.577h0a.451.451,0,0,1,.027.3,18.189,18.189,0,0,0,.781,8.961,30.715,30.715,0,0,0,5.278,9.5l1.69.513a40.549,40.549,0,0,1-2.32-10.807,72.108,72.108,0,0,1-.364-7.658c.014-3.207-.088-11.519-1.218-17.391-.116-.608-1.085-6.085-1.4-7.445a1.026,1.026,0,0,0-.982-.742l-3.546.848L276.4,171.8c-.427,1.651-.118,4.064.561,6.714" transform="translate(-251.534 60.168)" fill="#35488b"></path><path id="Trazado_7305" data-name="Trazado 7305" d="M290.257,147.879s-4.113-4.943-6.291-1.78c0,0-1.625.673-2.213,3.439-.6,2.821,1.277,4.967,2.247,4.436.623-.34,1.093.749,1.093.749Z" transform="translate(-258.031 51.399)" fill="#a9453d"></path><path id="Trazado_7306" data-name="Trazado 7306" d="M287.689,156.356a4.338,4.338,0,0,1-2.661.486c-1.081-.3-2.451-.657-2.437-.661.458-.091,1.254-1.759,1.245-4.463l.206.041,3.481.689s-.08,1.1-.083,2.128c0,.865.051,1.688.249,1.78" transform="translate(-256.755 53.765)" fill="#ffb27d"></path><path id="Trazado_7307" data-name="Trazado 7307" d="M286.194,152.438s-.079,1.1-.081,2.126c-1.948-.054-2.977-1.831-3.4-2.816Z" transform="translate(-255.428 53.776)" fill="#efa26f"></path><path id="Trazado_7308" data-name="Trazado 7308" d="M282.391,153.341a10.236,10.236,0,0,1-1.265-2.99c-.175-.985.326-4.633,3.993-4.108a4.975,4.975,0,0,1,2.065.78c.8.538,1.945,1.7.661,4.883l-.335,1.075Z" transform="translate(-255.463 51.806)" fill="#a9453d"></path><path id="Trazado_7309" data-name="Trazado 7309" d="M285.764,155.013s-4.608.076-4.61-2.794-.6-4.793,2.342-4.962,3.515.925,3.748,1.883-.28,5.78-1.479,5.874" transform="translate(-254.348 52.178)" fill="#ffb27d"></path><path id="Trazado_7310" data-name="Trazado 7310" d="M288.334,147.36s-1.261,3.367-3.2,3.865a3.815,3.815,0,0,1-2.776-.022,7.177,7.177,0,0,0,1.482-3.393s3.539-2.053,4.491-.451" transform="translate(-257.088 52.004)" fill="#a9453d"></path><path id="Trazado_7311" data-name="Trazado 7311" d="M280.868,147.546a4.058,4.058,0,0,1,1.172,1.483c.23.73.333,2.235.772,2.183,0,0,.951-2.289-.118-3.582-1.132-1.373-1.826-.084-1.826-.084" transform="translate(-249.934 52.092)" fill="#a9453d"></path><path id="Trazado_7312" data-name="Trazado 7312" d="M292.905,175.6a18.832,18.832,0,0,1-.806-3.635,12.845,12.845,0,0,1,.02-3.5l.016-.107c.3-1.975.958-3.363.829-5.343a14.609,14.609,0,0,0-1.785-5.526,9.152,9.152,0,0,0-1.755-2.285,38.5,38.5,0,0,0-4.962-.2c-.042,0-.083.005-.127.011-4.226,1.6-3.047,9.237-2.607,11.423.054.265.1.45.118.534l.008.03a18.613,18.613,0,0,1,.493,2.558,10.592,10.592,0,0,1,.084,1.353c-.027,1.14-.8,2.164-2.416,5.787-.893,2,10.765-1.223,12.891-1.1" transform="translate(-258.492 54.92)" fill="#ffb27d"></path><g id="Grupo_1513" data-name="Grupo 1513" transform="translate(25.841 231.013)" style="mix-blend-mode: multiply;isolation: isolate"><g id="Grupo_1512" data-name="Grupo 1512"><g id="Grupo_1511" data-name="Grupo 1511" clip-path="url(#clip-path-3)"><path id="Trazado_7313" data-name="Trazado 7313" d="M280.1,171.524l7.031-.956c.229.03,1.226.28,1.442.316-.508,1.832-1.555,4.734-2.508,7.93A86.692,86.692,0,0,1,283,187.706c-.088-.2-.175-.413-.263-.624-.19-.455-.381-.922-.57-1.4-1.124-6.008-2.32-13.152-2.06-14.161" transform="translate(-280.067 -170.569)" fill="#ccc"></path></g></g></g><path id="Trazado_7314" data-name="Trazado 7314" d="M280.843,201.49l.214,1.434s5.7-1.77,12.1-3.466c2.015-.535,4.1-1.062,6.095-1.524,2.044-.474,8.635-28.029,8.635-28.029s-2.714,1.4-7.22.425c-1.494-.322-3.129-1.636-3.9-.286-4.859,8.477.967,22.312-3.1,23.735-.631.221-1.361.3-2.082.573-4.916,1.862-10.736,7.136-10.736,7.136" transform="translate(-274.582 60.048)" fill="#35488b"></path><path id="Trazado_7315" data-name="Trazado 7315" d="M299.74,193.18l.169.955c.107.312.241.531.343.852a.9.9,0,0,1-.049.806l-.008.011.718,4.058c.164.076.485-.083.715-.222a.584.584,0,0,0,.28-.442,4.443,4.443,0,0,1,.576-2.221c.317-.507,1.078-2.367,1.078-2.367V194.6c-.007-.037-.092-.2-.87-.849-.4-.335.28-1.147.28-1.147a.968.968,0,0,0-.337-.167,1.021,1.021,0,0,0-.638.023,4.091,4.091,0,0,1-1.556-.024c-.3-.045-.507-.089-.507-.089s-.237-.005-.2.834" transform="translate(-295.848 68.162)" fill="#2e3552"></path><path id="Trazado_7316" data-name="Trazado 7316" d="M300.073,192.413a3.069,3.069,0,0,0-.337,1.12c.02.441,1.264,1.052,1.264,1.052v-.009c-.007-.037-.092-.2-.87-.849-.4-.335.28-1.147.28-1.147a.985.985,0,0,0-.337-.167" transform="translate(-293.285 68.186)" fill="#a9453d"></path><path id="Trazado_7317" data-name="Trazado 7317" d="M301.161,193.18l.169.955c.107.312.241.531.343.852a.9.9,0,0,1-.049.806l-.008.011.718,4.058c.164.076.485-.083.715-.222.088-.142-.5-.073-.608-.125a18.361,18.361,0,0,1-.517-3.516,1.991,1.991,0,0,0-.084-1.564,3.744,3.744,0,0,1,.023-2c-.3-.045-.507-.089-.507-.089s-.237-.005-.2.834" transform="translate(-297.269 68.162)" fill="#a9453d"></path><path id="Trazado_7318" data-name="Trazado 7318" d="M285.8,147.726s-.9,3.525-3.341,4.655c0,0,2.442-2.166,2.651-4.494s.691-.161.691-.161" transform="translate(-254.695 52.025)" fill="#a9453d"></path><path id="Trazado_7319" data-name="Trazado 7319" d="M288.513,168.754a12.856,12.856,0,0,1,.02-3.5l.016-.108c-1.4-.642-2.607-1.109-2.607-1.109l-5.352.479a12.525,12.525,0,0,0,7.923,4.239" transform="translate(-254.906 58.13)" fill="#efa26f"></path><path id="Trazado_7320" data-name="Trazado 7320" d="M281.853,167.58c-.007,2.632-2.37,8.611-2.176,9.078.527.54,4.4,1.369,7.333,1.677,3.074.324,6.131.012,6.7-.6.214-1.092-1.322-6.337-1-9.952.041-.454.627-4.269.593-4.78a10.048,10.048,0,0,0-.3-1.818c-.349-1.361-1.5-4.677-3.236-5.994,1.773,2.973-1.851,2.382-3.195,1.016a4.672,4.672,0,0,0-1.9-1.2c-5.007,1.732-2.813,9.942-2.82,12.574" transform="translate(-258.83 54.93)" fill="#f99746"></path><path id="Trazado_7321" data-name="Trazado 7321" d="M284.292,162.448c2.628,1.673,5.246.974,5.134.593.44-.356.443-.265-.913-1.964a7.677,7.677,0,0,0-5.556-3.194s-1.6.681,1.334,4.564" transform="translate(-258.661 55.95)" fill="#ef8220"></path><path id="Trazado_7322" data-name="Trazado 7322" d="M272.32,160.775c.693.5,1.51,1.082,2.377,1.669,3.047,2.068,7.037,3.146,8.239,3.045a44.65,44.65,0,0,0,10.316-2.55l-.595-1.086s-3.372.19-9.165.428a12.62,12.62,0,0,1-6.049-3.156,10.607,10.607,0,0,0-2.621-2.139,2.6,2.6,0,0,0-2.338.414,2.016,2.016,0,0,0-.165,3.375" transform="translate(-247.278 55.58)" fill="#ffb27d"></path><path id="Trazado_7323" data-name="Trazado 7323" d="M270.524,161.066s1.7-2.1,2.2-1.762.607,2.136-.018,2.538a6.937,6.937,0,0,1-1.822.535Z" transform="translate(-225.86 56.44)" fill="#ffb27d"></path><path id="Trazado_7324" data-name="Trazado 7324" d="M284.2,160.587c.7.5,1.518,1.071,2.388,1.651a6.164,6.164,0,0,0,2.829-3.677,6.954,6.954,0,0,0-2.741-1.781,2.755,2.755,0,0,0-2.317.144c-.943.768-1.344,2.816-.158,3.664" transform="translate(-259.681 55.494)" fill="#f99746"></path><path id="Trazado_7325" data-name="Trazado 7325" d="M273.886,204.382h.97c.325-.051.565-.145.9-.188a.9.9,0,0,1,.786.188l.009.009h4.12c.1-.148,0-.49-.093-.744a.586.586,0,0,0-.386-.352,4.449,4.449,0,0,1-2.087-.953c-.443-.4-2.143-1.475-2.143-1.475h-.009c-.037,0-.215.056-.987.708-.4.336-1.081-.477-1.081-.477a.954.954,0,0,0-.224.3,1.018,1.018,0,0,0-.088.632,4.113,4.113,0,0,1-.3,1.528c-.1.283-.177.483-.177.483s-.046.233.788.337" transform="translate(-236.921 71.181)" fill="#2e3552"></path><path id="Trazado_7326" data-name="Trazado 7326" d="M276.607,201.4a3.085,3.085,0,0,0,1.044.527c.438.057,1.257-1.06,1.257-1.06h-.01c-.036,0-.215.056-.987.708-.4.336-1.081-.477-1.081-.477a.974.974,0,0,0-.224.3" transform="translate(-239.87 71.181)" fill="#a9453d"></path><path id="Trazado_7327" data-name="Trazado 7327" d="M273.886,203.677h.97c.325-.051.565-.145.9-.188a.9.9,0,0,1,.786.188l.009.009h4.12c.1-.148,0-.49-.093-.744-.125-.111-.16.484-.229.578a18.39,18.39,0,0,1-3.552-.1,1.982,1.982,0,0,0-1.555-.191,3.748,3.748,0,0,1-1.964-.371c-.1.283-.177.483-.177.483s-.046.233.788.337" transform="translate(-236.921 71.887)" fill="#a9453d"></path><path id="Trazado_7328" data-name="Trazado 7328" d="M297.183,146.237a4.127,4.127,0,0,0-3.647-1.6c-3.7.562-2.9,5.782-5.109,6.321a3.557,3.557,0,0,0-2.688,2.206s2.778,4.426,6.6,1.078c2.036-1.782.089-8.125,4.571-7.488Z" transform="translate(-270.513 51.242)" fill="#a9453d"></path><path id="Trazado_7329" data-name="Trazado 7329" d="M307.361,148.02c.764.34,1.53.672,2.289,1.021a3.485,3.485,0,0,0,1.1.4c-.664-.967-1.293-1.857-1.889-2.768a4.6,4.6,0,0,1-.846-1.409c-.754-.9-1.4-1.885-2.067-2.858a4.924,4.924,0,0,0-.4-.586c-.339-.37-.347-.6.16-.851.643-.313,1.228-.741,1.862-1.075.366-.194.306-.351.089-.615q-2.019-2.46-4.023-4.937c-1.081-1.335-2.149-2.68-3.236-4.012-.234-.288-.423-.57-.936-.259-2.825,1.716-5.684,3.378-8.531,5.06-.171.1-.377.164-.5.4l9.686,5.29a1.228,1.228,0,0,1-.553.444c-.848.492-1.688,1-2.535,1.487-.294.171-.294.294.016.435q2.113.963,4.222,1.935c1.224.567,2.442,1.146,3.662,1.723a25.7,25.7,0,0,1,2.432,1.167" transform="translate(-290.43 46.046)" fill="#f4dd46"></path><path id="Trazado_7330" data-name="Trazado 7330" d="M282.949,138.576c.027.024.077.05.076.072-.065.981-.066.979.92.978.371,0,.814-.122,1.093.039.394.226.007.666,0,1.01-.032,1.674-.129,3.347-.19,5.019-.005.146-.11.381.1.432.172.041.256-.169.348-.306q2.064-3.045,4.131-6.091c.462-.681.907-1.371,1.413-2.136-.811,0-1.558.005-2.3-.005-.153,0-.374.1-.442-.095-.034-.095.1-.255.171-.379.539-.949,1.146-1.861,1.6-2.859.523-.878,1.042-1.755,1.566-2.632.133-.221.339-.462.233-.7-.115-.261-.433-.127-.66-.127-2.132,0-4.264.022-6.394.019-.378,0-.52.07-.573.505-.206,1.725-.478,3.443-.739,5.16a14.243,14.243,0,0,1-.348,2.1" transform="translate(-261.242 46.338)" fill="#f4dd46"></path><path id="Trazado_7331" data-name="Trazado 7331" d="M267.319,147.693c-.34.764-.672,1.53-1.021,2.289a3.486,3.486,0,0,0-.4,1.1c.967-.664,1.857-1.293,2.768-1.889a4.6,4.6,0,0,1,1.409-.846c.9-.754,1.885-1.4,2.858-2.067a4.93,4.93,0,0,0,.586-.4c.37-.339.6-.347.851.16.313.643.741,1.228,1.075,1.862.194.366.351.306.615.089q2.46-2.019,4.937-4.022c1.335-1.081,2.68-2.149,4.012-3.236.288-.234.57-.423.259-.936-1.716-2.825-3.378-5.684-5.06-8.531-.1-.171-.164-.377-.4-.5-1.759,3.221-3.517,6.439-5.29,9.686a1.237,1.237,0,0,1-.444-.553c-.492-.848-1-1.688-1.487-2.535-.171-.294-.294-.294-.435.016q-.963,2.113-1.935,4.222c-.567,1.224-1.146,2.442-1.723,3.662a25.868,25.868,0,0,1-1.167,2.432" transform="translate(-231.857 46.338)" fill="#f4dd46"></path><path id="Trazado_7332" data-name="Trazado 7332" d="M272.485,173.087a5.678,5.678,0,0,0-.956.748c-.794.654-1.578,1.32-2.365,1.983l-2.312,1.956c-.387.328-.777.654-1.166.982.018.356.028.712.054,1.067.043.6.1,1.189.145,1.784.031.4.053.8.083,1.2.047.645.1,1.291.149,1.935.028.381.051.761.081,1.14.049.608.108,1.215.146,1.823.024.412.068.822.088,1.235.028.57.1,1.138.142,1.706.034.432.035.865.089,1.293a1.89,1.89,0,0,0,.068.6.639.639,0,0,0,.133-.313q.683-2.188,1.36-4.377.788-2.535,1.575-5.072c.264-.845.532-1.689.794-2.534q.748-2.407,1.491-4.818.356-1.15.708-2.3v-.035Z" transform="translate(-218.963 61.337)" fill="#8b8892"></path><path id="Trazado_7333" data-name="Trazado 7333" d="M276.378,191.053a1.89,1.89,0,0,1-.068-.6c-.054-.428-.056-.861-.089-1.292-.043-.57-.114-1.138-.142-1.708-.02-.413-.064-.823-.088-1.235-.038-.608-.1-1.215-.146-1.822-.03-.381-.053-.761-.081-1.14-.049-.646-.1-1.292-.15-1.937-.028-.4-.05-.8-.081-1.2-.046-.595-.1-1.188-.145-1.784-.026-.355-.037-.711-.054-1.067a4.126,4.126,0,0,0-.9.955q-1.568,1.932-3.123,3.872c-.325.4-.646.807-.978,1.2-.062.074-.039.21-.171.232v.038c.041.014.016.026,0,.038v3.76a1.069,1.069,0,0,0,.371.4q2.686,1.595,5.366,3.195a1.026,1.026,0,0,0,.463.218l.016-.053v-.076" transform="translate(-228.609 62.82)" fill="#aeadb3"></path><path id="Trazado_7334" data-name="Trazado 7334" d="M265.917,173.511c-.068-.153-.223-.192-.348-.272-.062-.039-.149-.053-.15-.152h-.383v.035a.435.435,0,0,1,.23.061,4.87,4.87,0,0,0,.65.328" transform="translate(-211.206 61.337)" fill="#fff"></path><path id="Trazado_7335" data-name="Trazado 7335" d="M274.734,181.962c.015-.012.039-.026,0-.038Z" transform="translate(-233.181 64.469)" fill="#fff"></path><path id="Trazado_7336" data-name="Trazado 7336" d="M267.4,173.5a4.87,4.87,0,0,1-.65-.328.434.434,0,0,0-.23-.061q-.355,1.15-.708,2.3-.746,2.409-1.491,4.818c-.263.845-.531,1.689-.794,2.534q-.79,2.535-1.575,5.072-.681,2.188-1.36,4.377a.659.659,0,0,1-.134.313c0,.024,0,.05,0,.076.057,0,.092-.037.129-.072.223-.219.448-.436.679-.647.483-.444.924-.935,1.413-1.375s.906-.916,1.387-1.348.924-.935,1.413-1.375.933-.944,1.428-1.388c.474-.427.9-.907,1.372-1.335.493-.443.933-.943,1.427-1.388s.932-.926,1.411-1.376c.773-.725,1.517-1.482,2.273-2.223.054-.053.095-.125.181-.134a.049.049,0,0,1,.031,0c-.018-.252-.221-.421-.287-.651l-.467-.918q-.557-1.1-1.111-2.191c-.083-.163-.157-.329-.236-.494a.084.084,0,0,1-.064-.079c-.042-.041-.083-.083-.123-.123a.087.087,0,0,1-.079-.064c-.432-.21-.865-.416-1.295-.63q-1.225-.611-2.446-1.23a.868.868,0,0,1-.095-.061" transform="translate(-212.687 61.346)" fill="#787780"></path><path id="Trazado_7337" data-name="Trazado 7337" d="M273.608,178.155c-.085.009-.127.081-.18.134-.757.742-1.5,1.5-2.273,2.223-.481.451-.925.937-1.413,1.377s-.933.944-1.427,1.388c-.474.427-.9.907-1.372,1.334-.5.444-.935.944-1.426,1.388s-.926.936-1.414,1.375-.907.917-1.387,1.348-.928.932-1.413,1.376c-.23.211-.455.427-.677.646-.038.037-.072.074-.13.072-.005.018-.011.035-.018.053a.469.469,0,0,0,.234.065q3.87,0,7.739,0a.365.365,0,0,0,.056-.007.518.518,0,0,1,.035-.167c.337-.84.672-1.679,1.01-2.519q.744-1.843,1.488-3.685.752-1.871,1.5-3.743c.354-.886.712-1.77,1.069-2.655" transform="translate(-212.727 63.133)" fill="#8b8892"></path><path id="Trazado_7338" data-name="Trazado 7338" d="M265.346,178.155c-.356.884-.715,1.769-1.069,2.655q-.75,1.871-1.5,3.743-.744,1.845-1.488,3.685c-.339.84-.673,1.679-1.01,2.519a.517.517,0,0,0-.035.167.848.848,0,0,0,.688-.214q2.192-1.637,4.394-3.264a1.011,1.011,0,0,0,.324-.39c0-.089.007-.179.007-.268,0-2.621,0-5.241.005-7.862a1.3,1.3,0,0,0-.286-.769.049.049,0,0,0-.031,0" transform="translate(-204.464 63.133)" fill="#aeadb3"></path><path id="Trazado_7339" data-name="Trazado 7339" d="M260.626,177.005l.467.918c.062-.008.065-.039.046-.093a4.517,4.517,0,0,0-.441-.83c-.02-.035-.049-.027-.072.005" transform="translate(-200.468 62.716)" fill="#fff"></path><path id="Trazado_7340" data-name="Trazado 7340" d="M262.146,174.824a.084.084,0,0,0,.079.064c-.009-.042.018-.127-.079-.064" transform="translate(-203.601 61.945)" fill="#fff"></path><path id="Trazado_7341" data-name="Trazado 7341" d="M261.99,174.956a.085.085,0,0,0,.064.079c.065-.095-.022-.069-.064-.079" transform="translate(-203.241 62)" fill="#fff"></path><path id="Trazado_7342" data-name="Trazado 7342" d="M262.858,22.46c-.466-.328-1.524-1.054-1.578-.891a.709.709,0,0,0,.144.517,4.572,4.572,0,0,0-2.824-.1,1.153,1.153,0,0,0-.756.5.509.509,0,0,0,.057.715.538.538,0,0,0,.121.077c.783.488.557.2,1.647.9a3.209,3.209,0,0,0,3.217.393l1.069-.179.13-1.758s-.608-.073-1.227-.176" transform="translate(-199.471 7.635)" fill="#ffb27d"></path><path id="Trazado_7343" data-name="Trazado 7343" d="M244.447,12.8s-2.519,2.989-5.729,1.739a9.777,9.777,0,0,1-.7-2.9c0-.152,0-.3,0-.439-.018-1.386-.064-2.163-.064-2.163h0c.146-.061,4.906-2.015,4.9-1.853a8.436,8.436,0,0,0,1.593,5.617" transform="translate(-153.052 2.544)" fill="#ffb27d"></path><path id="Trazado_7344" data-name="Trazado 7344" d="M243.9,7.856a7.449,7.449,0,0,1-4.362,3.123c-.018-1.387-.065-2.164-.065-2.164h0c.131-.035,4.56-1.209,4.423-.958" transform="translate(-154.581 2.772)" fill="#ed975d"></path><path id="Trazado_7345" data-name="Trazado 7345" d="M239.225,10.758s5.352,1.258,6.085-2.087,1.915-5.435-1.471-6.38-4.331.187-4.847,1.243-1.14,6.811.233,7.223" transform="translate(-155.326 0.686)" fill="#ffb27d"></path><path id="Trazado_7346" data-name="Trazado 7346" d="M244.9,10.269c.073.047,1.224.4,3.406-3.944a3.784,3.784,0,0,0-.222-3.462c-.8-1.3-3.628-2.328-5.978-2.775s-2.915.878-3.47,2.208a7.176,7.176,0,0,1-2.259,2.544c2.027,1.132,4.469-.486,5.315-.221s1.144,1.6,1.208,2.027.161.783,1.226.4.481,1.507.31,1.869c0,0-.145.962.466,1.354" transform="translate(-155.099 0)" fill="#a9453d"></path><path id="Trazado_7347" data-name="Trazado 7347" d="M224.031,71.267h3.242c.68,0,1.434-.68,1.623-1.926s1.586-1.926,1.888-2.944-1.246-2.455-1.246-2.455l-.259-.332-.27-.347-2.566.6s-.064.612-.1,1.39a17.782,17.782,0,0,0-.011,1.782c.076,1.36-.381,2.824-1.587,3.088s-.708,1.142-.708,1.142" transform="translate(-120.441 22.419)" fill="#2c3a64"></path><path id="Trazado_7348" data-name="Trazado 7348" d="M238.826,70.4h8.591a.775.775,0,0,0,.182-.053c.576-.287.394-2.483.325-3.16-.012-.126-.022-.2-.022-.2s-3.022-2.416-3.437-.566c-.012.058-.027.115-.043.171-.525,1.731-2.869,2.518-4.223,2.736a1.477,1.477,0,0,0-1.372,1.073" transform="translate(-157.798 23.29)" fill="#2c3a64"></path><path id="Trazado_7349" data-name="Trazado 7349" d="M234.862,32.8s.459,5.724,1,12.6c.733,9.347,1.614,20.826,1.7,23,.15,3.776.756,9.816.756,9.816a4.741,4.741,0,0,0,4.3.83A98.845,98.845,0,0,0,245.91,61.31c.011-.149.023-.3.034-.452.68-9.288,1.736-28.845,1.736-28.845Z" transform="translate(-152.103 11.344)" fill="#2b478b"></path><path id="Trazado_7350" data-name="Trazado 7350" d="M234.862,32.8s.459,5.724,1,12.6l10.049,15.9c.011-.15.023-.3.034-.452.68-9.288,1.736-28.847,1.736-28.847Z" transform="translate(-152.103 11.344)" fill="#233862"></path><path id="Trazado_7351" data-name="Trazado 7351" d="M224.882,34.077s8.268,20.729,13.706,30.469,7.136,12.46,7.136,12.46,3.115-1.246,3.4-2.1c0,0-2.079-18.807-5.72-23.391-2.057-2.59-4.473-10.364-4.587-13.082s-.737-8.1-.737-8.1Z" transform="translate(-140.028 10.751)" fill="#2b478b"></path><path id="Trazado_7352" data-name="Trazado 7352" d="M226.876,30.446l.088,1.333a2.875,2.875,0,0,0,1.582,3.585s1.056.424,1.1-.4-.093-.513-.007-1.669a2.669,2.669,0,0,0-1.132-2.617l-.63-.723Z" transform="translate(-123.164 10.616)" fill="#ffb27d"></path><path id="Trazado_7353" data-name="Trazado 7353" d="M242.73,37.93c-.916.294-1.062.228-1.062.228s-4.455-8.11-4.906-8.854-9.459-9.095-9.459-9.095l2.315-8.63s10.244,13.265,11.351,15.169c1.828,3.145,2.9,10.45,2.9,10.45a2.682,2.682,0,0,1-1.139.731" transform="translate(-138.056 4.103)" fill="#1e3d70"></path><path id="Trazado_7354" data-name="Trazado 7354" d="M232.557,24.1c.033,1.773.135,3.765.274,5.787.008.121.018.24.026.36.089,1.253.186,2.51.3,3.734.045.493.092.977.141,1.455l.008.064c0,.179.026.372.045.55.452,4.59.925,8.216,1.013,8.271a.521.521,0,0,0,.353.091c1.2-.152,4.794.123,7.735-.517a22.33,22.33,0,0,0,6.882-2.854c.3-.177.985-.649.929-1-.054-.387-.156-.944-.284-1.647A89.407,89.407,0,0,1,248.5,26.841q-.075-1.373-.221-2.709a41.149,41.149,0,0,0-1.2-6.468c-1.008-3.631-2.489-6.41-4.348-7.5-.242-.135-1.549.7-2.749,1.465a5.3,5.3,0,0,1-3.41.809l-1,1.1a11.156,11.156,0,0,0-2.85,5.939c-.027.2-.05.4-.068.627a39.23,39.23,0,0,0-.093,3.991" transform="translate(-151.544 3.597)" fill="#2a4e96"></path><path id="Trazado_7355" data-name="Trazado 7355" d="M239.551,22.031c.033,1.773.135,3.765.274,5.787.008.121.018.24.026.36,6.875-4.3,7.935-12.18,7.935-12.18a18.817,18.817,0,0,0-8.141,2.038,38.477,38.477,0,0,0-.093,3.991" transform="translate(-158.537 5.67)" fill="#1e3d70"></path><path id="Trazado_7356" data-name="Trazado 7356" d="M237.349,26.646c-.07-1.02.458-1.19.458-1.19s10.366-1.879,11.247-2.155,8.417-8.117,8.417-8.117,2.888-3.256,5.254-2.538a4.444,4.444,0,0,1,3.131,3.757,4.5,4.5,0,0,1-2.088,4.616c-3.538,2.171-10.621,6.444-12.288,6.937-3.712,1.089-13.687.088-13.687.088a3.212,3.212,0,0,1-.443-1.4" transform="translate(-173.707 4.445)" fill="#2a4e96"></path></g></g></g></g><path id="Trazado_7357" data-name="Trazado 7357" d="M.51,1163.377H449.49c.28,0,.51-.315.51-.7v-.239c0-.385-.23-.7-.51-.7H.51c-.28,0-.51.314-.51.7v.239c0,.384.229.7.51.7" transform="translate(0.444 -884.377)" fill="#2e3552"></path></g></svg>