<svg xmlns="http://www.w3.org/2000/svg" xmlns:xlink="http://www.w3.org/1999/xlink" width="70" height="70" viewBox="0 0 70 70"><defs><clipPath id="clip-path"><rect id="Rect&#xE1;ngulo_3200" data-name="Rect&#xE1;ngulo 3200" width="32" height="36.684" fill="#fff"></rect></clipPath></defs><g id="responsabilidad-civil2" transform="translate(-340 -888)"><circle id="Elipse_1" data-name="Elipse 1" cx="35" cy="35" r="35" transform="translate(340 888)" fill="#3728ae"></circle><g id="Grupo_804" data-name="Grupo 804" transform="translate(359 905)"><g id="Grupo_803" data-name="Grupo 803" clip-path="url(#clip-path)"><path id="Trazado_4221" data-name="Trazado 4221" d="M31.947,36.684H0v-.411q0-4.3,0-8.6a7.7,7.7,0,0,1,5.318-7.516c1.758-.628,3.517-1.251,5.271-1.89a3.545,3.545,0,0,0,1.647-1.217c.126-.168.107-.27-.047-.424A12.918,12.918,0,0,1,8.3,7.782,7.691,7.691,0,0,1,23.607,6.614a9.966,9.966,0,0,1-.6,4.758,12.742,12.742,0,0,1-3.248,5.278c-.159.151-.122.258-.017.4a3.687,3.687,0,0,0,1.778,1.271c1.963.7,3.969,1.306,5.869,2.15a7.222,7.222,0,0,1,4.548,6.658c.124,3.116.032,6.24.036,9.362a1.8,1.8,0,0,1-.024.194M13.511,17.524a4.667,4.667,0,0,1-2.392,1.852c-1.794.633-3.594,1.251-5.386,1.89A6.422,6.422,0,0,0,1.33,27.2c-.082,2.681-.025,5.366-.038,8.05,0,.237.1.278.307.278,1.372-.007,2.744-.01,4.116,0,.264,0,.327-.093.324-.339-.01-.91,0-1.821,0-2.731V31.4H7.23v4.061c.061.03.082.05.1.05,1.687.005,3.375.01,5.062,0a.336.336,0,0,0,.233-.222c.089-.538.152-1.081.222-1.622q.535-4.151,1.068-8.3c.1-.752.188-1.505.288-2.319-.546.187-.707-.139-.865-.506-.143-.334-.342-.645-.476-.981a.714.714,0,0,1-.005-.494c.186-.434.427-.844.62-1.275a.413.413,0,0,1,.445-.273c1.287.01,2.575.037,3.86-.01a1,1,0,0,1,1.014.617,1.894,1.894,0,0,1-.006,2.345c-.235.336-.324.782-.917.589.54,4.19,1.071,8.32,1.6,12.441h5.4V31.4h1.178v4.1h4.942a2.105,2.105,0,0,0,.028-.235c0-2.622.037-5.246-.013-7.868a6.413,6.413,0,0,0-4.463-6.144c-1.793-.637-3.594-1.251-5.385-1.893a4.642,4.642,0,0,1-2.346-1.829,4.733,4.733,0,0,1-5.306-.006m9.017-9.7c-.049-.48-.094-.877-.129-1.276a.59.59,0,0,0-.382-.515c-1.468-.722-2.935-1.451-4.392-2.2a.613.613,0,0,0-.745.053A27.287,27.287,0,0,1,10.538,7.34c-.354.132-.856.2-1.007.456-.16.277-.018.754.048,1.134A12.418,12.418,0,0,0,12.812,15.6a4.735,4.735,0,0,0,2.57,1.495A3.785,3.785,0,0,0,18.717,16a12.2,12.2,0,0,0,3.811-8.176M18.175,35.5c-.533-4.153-1.064-8.275-1.594-12.4H15.273c-.531,4.137-1.061,8.256-1.594,12.4ZM21.592,4.488A6.425,6.425,0,0,0,14.374,1.37c-2.374.6-4.881,3.269-4.7,5.067.494-.195.984-.367,1.457-.58a34.778,34.778,0,0,0,5.688-3.364.515.515,0,0,1,.615-.049c1.363.688,2.738,1.351,4.155,2.045M15.977,21.9h1.346a.615.615,0,0,0,.646-.567.647.647,0,0,0-.554-.617q-1.437,0-2.874,0a.653.653,0,0,0-.54.6.646.646,0,0,0,.558.584c.473,0,.946,0,1.419,0" transform="translate(0 0)" fill="#fff"></path><rect id="Rect&#xE1;ngulo_3199" data-name="Rect&#xE1;ngulo 3199" width="6.469" height="1.14" transform="translate(21.935 26.081)" fill="#fff"></rect></g></g></g></svg>