<svg xmlns="http://www.w3.org/2000/svg" xmlns:xlink="http://www.w3.org/1999/xlink" width="70" height="70" viewBox="0 0 70 70"><defs><clipPath id="clip-path"><rect id="Rect&#xE1;ngulo_3368" data-name="Rect&#xE1;ngulo 3368" width="38.016" height="38" fill="#fff"></rect></clipPath></defs><g id="sequias" transform="translate(-405 -1082)"><circle id="Elipse_2" data-name="Elipse 2" cx="35" cy="35" r="35" transform="translate(405 1082)" fill="#3728ae"></circle><g id="Grupo_930" data-name="Grupo 930" transform="translate(421 1098)"><g id="Grupo_929" data-name="Grupo 929" clip-path="url(#clip-path)"><path id="Trazado_5326" data-name="Trazado 5326" d="M9.9,2.443c.117.031.274.066.426.117,1.428.482,2.859.957,4.278,1.462a.571.571,0,0,0,.739-.208C16.316,2.677,17.312,1.562,18.3.439c.51-.581.909-.585,1.413-.012,1.016,1.156,2.037,2.308,3.044,3.472a.435.435,0,0,0,.56.152c1.449-.507,2.906-.995,4.362-1.486.748-.254,1.06-.081,1.218.695.3,1.478.6,2.955.875,4.438a.567.567,0,0,0,.549.531c1.511.282,3.016.593,4.522.9.637.129.834.468.628,1.084-.5,1.484-1,2.968-1.51,4.447a.466.466,0,0,0,.155.6c1.155.995,2.294,2.007,3.441,3.013.611.536.613.907.008,1.437-1.135,1-2.264,2-3.408,2.984a.519.519,0,0,0-.188.668c.5,1.42.979,2.851,1.462,4.278.264.778.1,1.084-.706,1.249-1.506.308-3.012.618-4.522.9a.422.422,0,0,0-.4.408c-.3,1.537-.607,3.073-.921,4.607-.138.672-.464.861-1.107.645q-2.205-.739-4.4-1.5a.493.493,0,0,0-.636.163c-.991,1.158-2.006,2.3-3.013,3.441-.52.592-.891.595-1.4.01-1.006-1.145-2.019-2.284-3.014-3.441a.49.49,0,0,0-.632-.175c-1.449.508-2.906,1-4.363,1.486-.7.237-1.023.058-1.169-.659-.314-1.535-.625-3.069-.92-4.608a.4.4,0,0,0-.383-.379c-1.553-.3-3.1-.613-4.651-.929-.641-.131-.837-.467-.632-1.08.492-1.471.986-2.941,1.5-4.406a.519.519,0,0,0-.169-.673C2.739,21.728,1.625,20.731.5,19.745c-.666-.585-.668-.916-.014-1.491C1.6,17.279,2.7,16.288,3.83,15.33a.6.6,0,0,0,.192-.782c-.5-1.407-.97-2.823-1.448-4.238-.245-.725-.069-1.046.673-1.2,1.52-.311,3.041-.62,4.565-.91A.425.425,0,0,0,8.219,7.8c.3-1.568.621-3.13.932-4.695A.738.738,0,0,1,9.9,2.443M4.1,10.378c.067.212.116.379.172.543q.647,1.914,1.294,3.826c.214.634.17.772-.341,1.22-1.036.908-2.068,1.82-3.107,2.724a2.734,2.734,0,0,1-.4.241l3.552,3.124c.463.406.506.561.308,1.152s-.4,1.193-.6,1.789L4.1,27.587c.167.045.291.085.418.11q2.045.407,4.092.81c.638.126.768.258.892.9s.248,1.294.377,1.94c.168.844.343,1.686.518,2.546.143-.041.242-.066.338-.1,1.359-.457,2.722-.9,4.074-1.38a.911.911,0,0,1,1.126.3c.907,1.057,1.834,2.1,2.753,3.141.1.116.212.225.337.356,1.051-1.2,2.074-2.345,3.078-3.51a.869.869,0,0,1,1.087-.291c.422.164.859.292,1.289.438L27.6,33.9c.043-.152.084-.262.106-.375q.409-2.067.814-4.135c.122-.623.261-.767.862-.884.661-.129,1.322-.253,1.984-.384.843-.167,1.686-.34,2.555-.516-.068-.215-.117-.382-.174-.547q-.645-1.912-1.293-3.826c-.213-.63-.176-.76.311-1.187q1.552-1.363,3.1-2.729c.116-.1.226-.211.357-.334-.169-.152-.3-.27-.429-.385-1.035-.91-2.064-1.826-3.107-2.725a.832.832,0,0,1-.281-1.014c.131-.356.249-.719.37-1.079.379-1.119.758-2.24,1.148-3.394-.179-.042-.318-.079-.459-.107-1.378-.273-2.756-.553-4.137-.811a.879.879,0,0,1-.8-.8c-.081-.506-.19-1.006-.291-1.509-.2-1.016-.407-2.031-.617-3.075-.2.06-.351.1-.5.153-1.3.439-2.611.865-3.906,1.328a.931.931,0,0,1-1.156-.322C21.169,4.2,20.25,3.17,19.34,2.137c-.1-.116-.212-.227-.34-.363-.875,1-1.712,1.955-2.557,2.909-1.063,1.2-.812,1.164-2.352.639-1.216-.414-2.433-.824-3.682-1.246-.043.181-.081.32-.11.461-.274,1.378-.555,2.756-.814,4.137a.879.879,0,0,1-.8.8c-.491.079-.977.189-1.466.287L4.1,10.378" transform="translate(0 0)" fill="#fff"></path><path id="Trazado_5327" data-name="Trazado 5327" d="M7.138,18.381A11.26,11.26,0,1,1,18.416,29.643,11.268,11.268,0,0,1,7.138,18.381m1.407.009A9.853,9.853,0,1,0,18.423,8.53a9.869,9.869,0,0,0-9.878,9.859" transform="translate(0.612 0.611)" fill="#fff"></path></g></g></g></svg>