<svg xmlns="http://www.w3.org/2000/svg" xmlns:xlink="http://www.w3.org/1999/xlink" width="70" height="70" viewBox="0 0 70 70"><defs><clipPath id="clip-path"><rect id="Rect&#xE1;ngulo_3203" data-name="Rect&#xE1;ngulo 3203" width="35.001" height="35" fill="#fff"></rect></clipPath></defs><g id="sociedad" transform="translate(-340 -1068)"><circle id="Elipse_5" data-name="Elipse 5" cx="35" cy="35" r="35" transform="translate(340 1068)" fill="#3728ae"></circle><g id="Grupo_810" data-name="Grupo 810" transform="translate(357 1086)"><g id="Grupo_809" data-name="Grupo 809" clip-path="url(#clip-path)"><path id="Trazado_4229" data-name="Trazado 4229" d="M18.754,31.682c0-.859,0-1.719,0-2.579,0-.477.126-.621.6-.7A11.134,11.134,0,0,0,28.4,19.346c.083-.47.226-.6.7-.6H34.3c.583,0,.752.215.681.787A17.645,17.645,0,0,1,19.721,34.948c-.084.012-.168.028-.252.039-.476.068-.71-.127-.713-.617-.006-.9,0-1.792,0-2.688m1.021,2.23A16.524,16.524,0,0,0,33.9,19.776H29.389a12.332,12.332,0,0,1-9.614,9.612Z" fill="#fff"></path><path id="Trazado_4230" data-name="Trazado 4230" d="M18.754,3.266c0-.884-.006-1.768,0-2.652,0-.466.241-.658.695-.6A17.645,17.645,0,0,1,34.953,15.3c.009.072.024.142.034.215.072.495-.124.726-.634.733-.472.007-.944,0-1.416,0q-1.906,0-3.814,0c-.5,0-.637-.119-.721-.615A11.148,11.148,0,0,0,19.368,6.6c-.494-.084-.613-.222-.614-.722q0-1.308,0-2.615m1.027,2.348a12.326,12.326,0,0,1,9.607,9.608H33.91A16.523,16.523,0,0,0,19.781,1.1Z" fill="#fff"></path><path id="Trazado_4231" data-name="Trazado 4231" d="M16.254,31.726c0,.86,0,1.72,0,2.579,0,.58-.214.742-.793.67A17.656,17.656,0,0,1,.139,20.322c-.044-.25-.068-.5-.106-.755-.092-.616.08-.816.717-.817,1.113,0,2.227,0,3.342,0,.606,0,1.21,0,1.816,0,.458,0,.613.133.691.569a11.106,11.106,0,0,0,9.1,9.088c.418.078.551.234.553.668,0,.884,0,1.768,0,2.651M15.233,33.91V29.387a12.325,12.325,0,0,1-9.615-9.61H1.1A16.522,16.522,0,0,0,15.233,33.91" fill="#fff"></path><path id="Trazado_4232" data-name="Trazado 4232" d="M16.253,3.305c0,.871,0,1.742,0,2.613,0,.453-.131.6-.579.681a11.084,11.084,0,0,0-4.522,1.855c-.467.326-.606.31-1-.082Q8.344,6.563,6.535,4.753c-.443-.443-.43-.673.06-1.059A17.5,17.5,0,0,1,15.562.008c.454-.053.685.143.689.611.007.9,0,1.791,0,2.686m-8.74.95a.8.8,0,0,0,.07.121c.993.994,1.99,1.984,2.975,2.985.173.177.278.071.434-.005.921-.449,1.838-.91,2.78-1.314a11.046,11.046,0,0,1,1.449-.411V1.066A16.5,16.5,0,0,0,7.513,4.255" fill="#fff"></path><path id="Trazado_4233" data-name="Trazado 4233" d="M3.287,16.252c-.883,0-1.766,0-2.649,0-.492,0-.685-.23-.629-.707A17.489,17.489,0,0,1,3.683,6.61c.4-.509.623-.522,1.083-.063l3.619,3.618c.371.372.388.532.08.971a10.981,10.981,0,0,0-1.87,4.553c-.07.423-.232.56-.659.562-.883,0-1.766,0-2.649,0M5.623,15.23a.674.674,0,0,0,.046-.1A12.6,12.6,0,0,1,7.4,10.886a.386.386,0,0,0-.078-.35c-.648-.67-1.315-1.322-1.97-1.986-.345-.35-.678-.714-1.05-1.107A16.509,16.509,0,0,0,1.07,15.23Z" fill="#fff"></path><path id="Trazado_4234" data-name="Trazado 4234" d="M22.219,13.481a5.122,5.122,0,0,1-.4.52q-3.327,3.249-6.66,6.489c-.442.431-.882.864-1.326,1.293-.3.289-.6.313-.823.072s-.179-.5.118-.791q4.032-3.93,8.063-7.86c.191-.186.409-.3.648-.169.147.084.237.271.383.446" fill="#fff"></path><path id="Trazado_4235" data-name="Trazado 4235" d="M14.593,16.727a2.229,2.229,0,1,1,2.252-2.181,2.23,2.23,0,0,1-2.252,2.181m1.24-2.229a1.211,1.211,0,0,0-1.215-1.22,1.224,1.224,0,1,0,1.215,1.22" fill="#fff"></path><path id="Trazado_4236" data-name="Trazado 4236" d="M20.409,18.292a2.221,2.221,0,1,1-.037,4.442,2.221,2.221,0,0,1,.037-4.442M20.4,21.721a1.23,1.23,0,0,0,1.233-1.21,1.246,1.246,0,0,0-1.211-1.239,1.232,1.232,0,0,0-1.244,1.236A1.212,1.212,0,0,0,20.4,21.721" fill="#fff"></path></g></g></g></svg>