<svg xmlns="http://www.w3.org/2000/svg" xmlns:xlink="http://www.w3.org/1999/xlink" id="tipo-maquinaria-asegura" width="583.9" height="350" viewBox="0 0 583.9 350"><defs><clipPath id="clip-path"><rect id="Rect&#xE1;ngulo_4556" data-name="Rect&#xE1;ngulo 4556" width="583.9" height="350" fill="none"></rect></clipPath><clipPath id="clip-path-3"><rect id="Rect&#xE1;ngulo_4537" data-name="Rect&#xE1;ngulo 4537" width="81.123" height="51.094" fill="none"></rect></clipPath><clipPath id="clip-path-4"><rect id="Rect&#xE1;ngulo_4539" data-name="Rect&#xE1;ngulo 4539" width="81.123" height="51.095" fill="none"></rect></clipPath><clipPath id="clip-path-6"><path id="Trazado_7593" data-name="Trazado 7593" d="M507.246,695.719l-1.629,105.565h57.348l17.273-24.726V755.534l-25.861-59.815Z" transform="translate(-505.617 -695.719)" fill="none"></path></clipPath><clipPath id="clip-path-7"><rect id="Rect&#xE1;ngulo_4547" data-name="Rect&#xE1;ngulo 4547" width="57.592" height="102.981" fill="none"></rect></clipPath><clipPath id="clip-path-8"><rect id="Rect&#xE1;ngulo_4548" data-name="Rect&#xE1;ngulo 4548" width="49.348" height="101.67" fill="none"></rect></clipPath><clipPath id="clip-path-10"><rect id="Rect&#xE1;ngulo_4550" data-name="Rect&#xE1;ngulo 4550" width="49.347" height="101.67" fill="none"></rect></clipPath><clipPath id="clip-path-12"><path id="Trazado_7598" data-name="Trazado 7598" d="M697.686,699.218l25.269,61,55.078-5.478-23.541-55.522Z" transform="translate(-697.686 -699.218)" fill="none"></path></clipPath><clipPath id="clip-path-13"><rect id="Rect&#xE1;ngulo_4552" data-name="Rect&#xE1;ngulo 4552" width="73.457" height="77.355" fill="none"></rect></clipPath><clipPath id="clip-path-14"><rect id="Rect&#xE1;ngulo_4553" data-name="Rect&#xE1;ngulo 4553" width="65.764" height="74.108" fill="none"></rect></clipPath><clipPath id="clip-path-15"><rect id="Rect&#xE1;ngulo_4554" data-name="Rect&#xE1;ngulo 4554" width="73.456" height="77.355" fill="none"></rect></clipPath></defs><g id="Grupo_1574" data-name="Grupo 1574" clip-path="url(#clip-path)"><g id="Grupo_1544" data-name="Grupo 1544" transform="translate(0 0)"><g id="Grupo_1543" data-name="Grupo 1543" clip-path="url(#clip-path)"><path id="Trazado_7583" data-name="Trazado 7583" d="M141.339,581.843S84.8,580.5,60.636,546.229C16.866,484.147,36.591,429.7,114.517,433.756c87.174,4.534,76.423-187.915,227.367-95.259,32.776,20.12,105.724-22.134,134.868,65.9,6.93,20.934,58.975,22.392,92.612,39.179,52.762,26.333,37.862,138.706-11.983,139.148s-416.041-.881-416.041-.881" transform="translate(-28.193 -233.72)" fill="#ebf2f9"></path><path id="Trazado_7584" data-name="Trazado 7584" d="M1704.345,340.064h1.857l.415-24.316,81.179-24.454,34.547,23.61a2.028,2.028,0,0,1,.277.189l0,0h0a2,2,0,0,1,.734,1.544V328.3a2,2,0,0,1-2,2h-16.986a2,2,0,0,1-2-2v-4.663H1791.05V538.12h-13.323V323.634h-54.8l-15.277,16.43h3.134a2,2,0,0,1,2,2v2a2,2,0,0,1-2,2h-6.439a2,2,0,0,1-2-2v-2a2,2,0,0,1,2-2m98.059-23.758a2,2,0,0,1,1.968-1.665h15.944L1787.6,292.57l-78.8,23.737Zm-95.036,22.35,13.968-15.022-13.632.333Z" transform="translate(-1270.173 -217.344)" fill="#ebf2f9"></path><rect id="Rect&#xE1;ngulo_4535" data-name="Rect&#xE1;ngulo 4535" width="112.079" height="300.645" transform="translate(197.089 48.123)" fill="#d2e4ff"></rect><g id="Grupo_1536" data-name="Grupo 1536" transform="translate(228.045 48.123)" opacity="0.5"><g id="Grupo_1535" data-name="Grupo 1535"><g id="Grupo_1534" data-name="Grupo 1534" clip-path="url(#clip-path-3)"><rect id="Rect&#xE1;ngulo_4536" data-name="Rect&#xE1;ngulo 4536" width="81.123" height="51.095" transform="translate(0 0)" fill="#aed3ff"></rect></g></g></g><g id="Grupo_1539" data-name="Grupo 1539" transform="translate(228.045 141.685)" opacity="0.5"><g id="Grupo_1538" data-name="Grupo 1538"><g id="Grupo_1537" data-name="Grupo 1537" clip-path="url(#clip-path-4)"><rect id="Rect&#xE1;ngulo_4538" data-name="Rect&#xE1;ngulo 4538" width="81.123" height="51.095" fill="#aed3ff"></rect></g></g></g><g id="Grupo_1542" data-name="Grupo 1542" transform="translate(228.045 234.039)" opacity="0.5"><g id="Grupo_1541" data-name="Grupo 1541"><g id="Grupo_1540" data-name="Grupo 1540" clip-path="url(#clip-path-4)"><rect id="Rect&#xE1;ngulo_4540" data-name="Rect&#xE1;ngulo 4540" width="81.123" height="51.095" fill="#aed3ff"></rect></g></g></g><path id="Trazado_7585" data-name="Trazado 7585" d="M225.976,284.807H241.1V237.559H365.7V0h30.956V348.965H365.7v-.2H225.976Z" transform="translate(-168.608 -0.001)" fill="#aed3ff"></path><path id="Trazado_7586" data-name="Trazado 7586" d="M1353.534,342.284V340.4h4.12V327.978h3.41V340.4h8.638V327.978h3.41V340.4h9.391V327.978h3.41V340.4h8.638V327.978h3.41V340.4h4.518v1.882h-4.518v6.049h4.518v1.882h-4.518v6.049h4.518v1.882h-4.518V364.2h4.518v1.882h-4.518v6.049h4.518v1.882h-4.518v6.049h4.518v1.882h-4.518v4.894h4.518v1.882h-4.518v6.049h4.518v1.882h-4.518V402.7h4.518v1.882h-4.518v6.049h4.518v1.882h-4.518v6.049h4.518v1.882h-4.518v6.049h4.518v1.882h-4.518v5.773h4.518v1.882h-4.518v6.049h4.518v1.883h-4.518v6.049h4.518v1.883h-4.518v6.049h4.518v1.882h-4.518v6.049h4.518v1.882h-4.518V473.8h4.518v1.882h-4.518v4.894h4.518v1.882h-4.518v6.049h4.518v1.882h-4.518v6.049h4.518v1.883h-4.518v6.049h4.518v1.883h-4.518v6.049h4.518v1.883h-4.518v6.049h4.518v1.882h-4.518v5.4h4.518V529.4h-4.518v6.049h4.518v1.882h-4.518v6.049h4.518v1.882h-4.518v6.049h4.518v1.882h-4.518v6.049h4.518v1.883h-4.518v6.049h4.518v1.882h-4.518v4.894h4.518v1.883h-4.518v6.049h4.518v1.882h-4.518v6.049h4.518v1.882h-48.943v-1.882h4.12v-6.049h-4.12V581.88h4.12v-6.049h-4.12v-1.883h4.12v-4.894h-4.12v-1.882h4.12v-6.049h-4.12V559.24h4.12v-6.049h-4.12v-1.882h4.12V545.26h-4.12v-1.882h4.12v-6.049h-4.12v-1.882h4.12V529.4h-4.12v-1.882h4.12v-5.4h-4.12v-1.882h4.12v-6.049h-4.12v-1.883h4.12v-6.049h-4.12v-1.883h4.12v-6.049h-4.12v-1.883h4.12v-6.049h-4.12v-1.882h4.12v-6.049h-4.12V480.58h4.12v-4.894h-4.12V473.8h4.12v-6.049h-4.12v-1.882h4.12v-6.049h-4.12v-1.882h4.12v-6.049h-4.12v-1.883h4.12v-6.049h-4.12v-1.883h4.12v-6.049h-4.12v-1.882h4.12v-5.773h-4.12v-1.882h4.12v-6.049h-4.12v-1.882h4.12v-6.049h-4.12v-1.882h4.12V404.58h-4.12V402.7h4.12v-6.049h-4.12v-1.882h4.12v-6.049h-4.12v-1.882h4.12v-4.894h-4.12v-1.882h4.12V374.01h-4.12v-1.882h4.12v-6.049h-4.12V364.2h4.12v-6.049h-4.12v-1.882h4.12v-6.049h-4.12v-1.882h4.12v-6.049Zm19.577,6.049h9.391v-6.049h-9.391Zm9.391,227.5h-9.391v6.049h9.391Zm-9.391,13.98h9.391v-6.049h-9.391Zm9.391-20.757h-9.391v4.894h9.391Zm0-7.931h-9.391v6.049h9.391Zm0-7.931h-9.391v6.049h9.391Zm0-7.931h-9.391v6.049h9.391Zm0-7.931h-9.391v6.049h9.391Zm0-7.931h-9.391v6.049h9.391Zm0-7.279h-9.391v5.4h9.391Zm0-7.931h-9.391v6.049h9.391Zm0-7.931h-9.391v6.049h9.391Zm0-7.931h-9.391v6.049h9.391Zm0-7.931h-9.391v6.049h9.391Zm0-7.931h-9.391v6.049h9.391Zm0-6.777h-9.391v4.894h9.391Zm0-7.931h-9.391V473.8h9.391Zm0-7.931h-9.391v6.049h9.391Zm0-7.931h-9.391v6.049h9.391Zm0-7.931h-9.391v6.049h9.391Zm0-7.931h-9.391v6.049h9.391Zm0-7.655h-9.391v5.773h9.391Zm0-7.931h-9.391v6.049h9.391Zm0-7.931h-9.391v6.049h9.391Zm0-7.931h-9.391v6.049h9.391Zm0-7.931h-9.391V402.7h9.391Zm0-7.931h-9.391v6.049h9.391Zm0-6.777h-9.391v4.894h9.391Zm0-7.931h-9.391v6.049h9.391Zm0-7.931h-9.391v6.049h9.391Zm0-7.931h-9.391V364.2h9.391Zm0-7.931h-9.391v6.049h9.391Zm12.047-7.931h-8.638v6.049h8.638Zm0,7.931h-8.638v6.049h8.638Zm0,7.931h-8.638V364.2h8.638Zm0,7.931h-8.638v6.049h8.638Zm0,7.931h-8.638v6.049h8.638Zm0,7.931h-8.638v4.894h8.638Zm0,6.777h-8.638v6.049h8.638Zm0,7.931h-8.638V402.7h8.638Zm0,7.931h-8.638v6.049h8.638Zm0,7.931h-8.638v6.049h8.638Zm0,7.931h-8.638v6.049h8.638Zm0,7.931h-8.638v5.773h8.638Zm0,7.655h-8.638v6.049h8.638Zm0,7.931h-8.638v6.049h8.638Zm0,7.931h-8.638v6.049h8.638Zm0,7.931h-8.638v6.049h8.638Zm0,7.931h-8.638V473.8h8.638Zm0,7.931h-8.638v4.894h8.638Zm0,6.777h-8.638v6.049h8.638Zm0,7.931h-8.638v6.049h8.638Zm0,7.931h-8.638v6.049h8.638Zm0,7.931h-8.638v6.049h8.638Zm0,7.931h-8.638v6.049h8.638Zm0,7.931h-8.638v5.4h8.638Zm0,7.279h-8.638v6.049h8.638Zm0,7.931h-8.638v6.049h8.638Zm0,7.931h-8.638v6.049h8.638Zm0,7.931h-8.638v6.049h8.638Zm0,7.931h-8.638v6.049h8.638Zm0,7.931h-8.638v4.894h8.638Zm0,6.777h-8.638v6.049h8.638Zm0,7.931h-8.638v6.049h8.638Zm-33.486,6.049h8.638v-6.049h-8.638Zm0-7.931h8.638v-6.049h-8.638Zm0-7.931h8.638v-4.894h-8.638Zm0-6.777h8.638v-6.049h-8.638Zm0-7.931h8.638v-6.049h-8.638Zm0-7.931h8.638V545.26h-8.638Zm0-7.931h8.638v-6.049h-8.638Zm0-7.931h8.638V529.4h-8.638Zm0-7.931h8.638v-5.4h-8.638Zm0-7.279h8.638v-6.049h-8.638Zm0-7.931h8.638v-6.049h-8.638Zm0-7.931h8.638v-6.049h-8.638Zm0-7.931h8.638v-6.049h-8.638Zm0-7.931h8.638v-6.049h-8.638Zm0-7.931h8.638v-4.894h-8.638Zm0-6.777h8.638v-6.049h-8.638Zm0-7.931h8.638v-6.049h-8.638Zm0-7.931h8.638v-6.049h-8.638Zm0-7.931h8.638v-6.049h-8.638Zm0-7.931h8.638v-6.049h-8.638Zm0-7.931h8.638v-5.773h-8.638Zm0-7.655h8.638v-6.049h-8.638Zm0-7.931h8.638v-6.049h-8.638Zm0-7.931h8.638V404.58h-8.638Zm0-7.931h8.638v-6.049h-8.638Zm0-7.931h8.638v-6.049h-8.638Zm0-7.931h8.638v-4.894h-8.638Zm0-6.777h8.638v-6.049h-8.638Zm0-7.931h8.638v-6.049h-8.638Zm0-7.931h8.638v-6.049h-8.638Zm0-7.931h8.638v-6.049h-8.638Zm0-7.931h8.638v-6.049h-8.638Z" transform="translate(-1009.913 -244.715)" fill="#d2e4ff"></path><rect id="Rect&#xE1;ngulo_4542" data-name="Rect&#xE1;ngulo 4542" width="1.207" height="21.48" transform="translate(302.16 28.32)" fill="#d2e4ff"></rect><rect id="Rect&#xE1;ngulo_4543" data-name="Rect&#xE1;ngulo 4543" width="1.207" height="21.48" transform="translate(235.308 28.32)" fill="#d2e4ff"></rect><rect id="Rect&#xE1;ngulo_4544" data-name="Rect&#xE1;ngulo 4544" width="1.207" height="21.48" transform="translate(293.713 28.32)" fill="#d2e4ff"></rect><rect id="Rect&#xE1;ngulo_4545" data-name="Rect&#xE1;ngulo 4545" width="1.207" height="21.48" transform="translate(229.274 28.32)" fill="#d2e4ff"></rect><path id="Trazado_7587" data-name="Trazado 7587" d="M583.259,1374.118H.641a.786.786,0,0,1,0-1.545H583.259a.786.786,0,0,1,0,1.545" transform="translate(0 -1024.119)" fill="#283250"></path><path id="Trazado_7588" data-name="Trazado 7588" d="M580.239,755.535,554.378,695.72H507.246l-1.629,105.565h57.348l17.274-24.726Z" transform="translate(-377.257 -519.098)" fill="#233862"></path></g></g><g id="Grupo_1558" data-name="Grupo 1558" transform="translate(128.361 176.622)"><g id="Grupo_1557" data-name="Grupo 1557" clip-path="url(#clip-path-6)"><g id="Grupo_1547" data-name="Grupo 1547" transform="translate(25.323 -5.785)" opacity="0.6"><g id="Grupo_1546" data-name="Grupo 1546"><g id="Grupo_1545" data-name="Grupo 1545" clip-path="url(#clip-path-7)"><path id="Trazado_7589" data-name="Trazado 7589" d="M650.813,775.914l12.144-1.932-45.448-101.05-12.144,1.932Z" transform="translate(-605.364 -672.933)" fill="#fff"></path></g></g></g><g id="Grupo_1550" data-name="Grupo 1550" transform="translate(14.852 -2.808)" opacity="0.6"><g id="Grupo_1549" data-name="Grupo 1549"><g id="Grupo_1548" data-name="Grupo 1548" clip-path="url(#clip-path-8)"><path id="Trazado_7590" data-name="Trazado 7590" d="M609.566,786.33l3.9-.62L568.017,684.66l-3.9.62Z" transform="translate(-564.118 -684.66)" fill="#fff"></path></g></g></g><g id="Grupo_1553" data-name="Grupo 1553" transform="translate(-9.667 -0.219)" opacity="0.6"><g id="Grupo_1552" data-name="Grupo 1552"><g id="Grupo_1551" data-name="Grupo 1551" clip-path="url(#clip-path-7)"><path id="Trazado_7591" data-name="Trazado 7591" d="M512.985,797.839l12.144-1.932-45.448-101.05-12.144,1.932Z" transform="translate(-467.537 -694.858)" fill="#fff"></path></g></g></g><g id="Grupo_1556" data-name="Grupo 1556" transform="translate(-20.138 2.759)" opacity="0.6"><g id="Grupo_1555" data-name="Grupo 1555"><g id="Grupo_1554" data-name="Grupo 1554" clip-path="url(#clip-path-10)"><path id="Trazado_7592" data-name="Trazado 7592" d="M471.739,808.255l3.9-.62-45.449-101.05-3.9.62Z" transform="translate(-426.29 -706.585)" fill="#fff"></path></g></g></g></g></g><g id="Grupo_1560" data-name="Grupo 1560" transform="translate(0 0)"><g id="Grupo_1559" data-name="Grupo 1559" clip-path="url(#clip-path)"><path id="Trazado_7594" data-name="Trazado 7594" d="M778.032,754.74l-23.541-55.522H697.686l25.269,61Z" transform="translate(-520.564 -521.708)" fill="#2b478b"></path></g></g><g id="Grupo_1571" data-name="Grupo 1571" transform="translate(177.121 177.51)"><g id="Grupo_1570" data-name="Grupo 1570" clip-path="url(#clip-path-12)"><g id="Grupo_1563" data-name="Grupo 1563" transform="translate(21.862 -18.479)" opacity="0.6"><g id="Grupo_1562" data-name="Grupo 1562"><g id="Grupo_1561" data-name="Grupo 1561" clip-path="url(#clip-path-13)"><path id="Trazado_7595" data-name="Trazado 7595" d="M845.928,703.783,857.256,699l-62.128-72.572L783.8,631.21Z" transform="translate(-783.8 -626.428)" fill="#fff"></path></g></g></g><g id="Grupo_1566" data-name="Grupo 1566" transform="translate(12.094 -11.108)" opacity="0.6"><g id="Grupo_1565" data-name="Grupo 1565"><g id="Grupo_1564" data-name="Grupo 1564" clip-path="url(#clip-path-14)"><path id="Trazado_7596" data-name="Trazado 7596" d="M807.451,729.57l3.637-1.536-62.128-72.572L745.323,657Z" transform="translate(-745.323 -655.462)" fill="#fff"></path></g></g></g><g id="Grupo_1569" data-name="Grupo 1569" transform="translate(-10.779 -4.699)" opacity="0.6"><g id="Grupo_1568" data-name="Grupo 1568"><g id="Grupo_1567" data-name="Grupo 1567" clip-path="url(#clip-path-15)"><path id="Trazado_7597" data-name="Trazado 7597" d="M717.356,758.064l11.328-4.783-62.128-72.573-11.329,4.783Z" transform="translate(-655.228 -680.709)" fill="#fff"></path></g></g></g></g></g><g id="Grupo_1573" data-name="Grupo 1573" transform="translate(0 0)"><g id="Grupo_1572" data-name="Grupo 1572" clip-path="url(#clip-path)"><path id="Trazado_7599" data-name="Trazado 7599" d="M371.145,636.283h5.922V616.357a8.906,8.906,0,0,0-8.9-8.9h-.58v5.923h.58a2.977,2.977,0,0,1,2.973,2.973Z" transform="translate(-274.272 -453.245)" fill="#2b478b"></path><path id="Trazado_7600" data-name="Trazado 7600" d="M763.351,689.11l25.071,59.421-6.761-2.369L759.3,693.453H708.372l-1.788-4.343Z" transform="translate(-527.204 -514.166)" fill="#ffa412"></path><path id="Trazado_7601" data-name="Trazado 7601" d="M305.048,1103.963l-22.6,25.17v3.257h52.7v-26.354Z" transform="translate(-210.74 -823.7)" fill="#e27f2b"></path><path id="Trazado_7602" data-name="Trazado 7602" d="M972.649,926.892l-9.476-13.054H761.321L731.512,962.1h250.02Z" transform="translate(-545.803 -681.843)" fill="#ffa412"></path><path id="Trazado_7603" data-name="Trazado 7603" d="M353.228,1190.569H561.693v-57.446H356.979a30.6,30.6,0,0,0-30.6,30.6,26.848,26.848,0,0,0,26.848,26.848" transform="translate(-243.522 -845.458)" fill="#4a75cb"></path><path id="Trazado_7604" data-name="Trazado 7604" d="M354.482,1116.793H570.054a32.573,32.573,0,0,1,0,65.146H354.482a32.573,32.573,0,0,1,0-65.146m-30.2,32.573a26.3,26.3,0,0,0,26.3,26.3H524.609a26.3,26.3,0,0,0,0-52.593H350.574A26.3,26.3,0,0,0,324.278,1149.366Z" transform="translate(-240.186 -833.273)" fill="#233862"></path><path id="Trazado_7605" data-name="Trazado 7605" d="M1028.946,1222.692c0,5.233,3.447,9.476,7.7,9.476s7.7-4.243,7.7-9.476-3.447-9.476-7.7-9.476-7.7,4.242-7.7,9.476" transform="translate(-767.728 -905.217)" fill="#233862"></path><path id="Trazado_7606" data-name="Trazado 7606" d="M832.989,1220.748c0,5.233,3.447,9.476,7.7,9.476s7.7-4.242,7.7-9.476-3.447-9.476-7.7-9.476-7.7,4.243-7.7,9.476" transform="translate(-621.518 -903.767)" fill="#233862"></path><path id="Trazado_7607" data-name="Trazado 7607" d="M637.033,1218.61c0,5.233,3.447,9.476,7.7,9.476s7.7-4.242,7.7-9.476-3.447-9.476-7.7-9.476-7.7,4.242-7.7,9.476" transform="translate(-475.31 -902.172)" fill="#233862"></path><path id="Trazado_7608" data-name="Trazado 7608" d="M441.076,1217.541c0,5.233,3.447,9.476,7.7,9.476s7.7-4.242,7.7-9.476-3.447-9.476-7.7-9.476-7.7,4.242-7.7,9.476" transform="translate(-329.1 -901.374)" fill="#233862"></path><path id="Trazado_7609" data-name="Trazado 7609" d="M652.495,1137.127l-53,3.01-25.17-32.918H371.481v-3.257H624.068Z" transform="translate(-277.173 -823.7)" fill="#ffa412"></path><path id="Trazado_7610" data-name="Trazado 7610" d="M652.495,1140.138v-3.01H600.823l-25.466-33.165H371.481v3.257H574.32l25.17,32.918Z" transform="translate(-277.173 -823.7)" fill="#e27f2b"></path><path id="Trazado_7611" data-name="Trazado 7611" d="M474.668,746.216V689.183h56.767L555.5,746.216H703.064l9.476,13.054,8.883,35.213H471.4V746.216Zm18.154,45.651h34.646l21.666-26.107V746.216h.011l-21.757-52.69h-41.16v46.1a6.6,6.6,0,0,0,6.595,6.595Z" transform="translate(-351.728 -514.221)" fill="#e27f2b"></path><path id="Trazado_7612" data-name="Trazado 7612" d="M383.659,798.364h-36.99a3.183,3.183,0,0,0-3.183,3.183v86.54l13.621-10.216h29.167Z" transform="translate(-256.285 -595.684)" fill="#e27f2b"></path><path id="Trazado_7613" data-name="Trazado 7613" d="M1320.755,1064.5l168.684-.064L1422.7,959.628H1254.416Z" transform="translate(-935.958 -716.008)" fill="#4a75cb"></path><path id="Trazado_7614" data-name="Trazado 7614" d="M1318.643,1060.1h139.1l-124.084-12.461-82.135-94.14Z" transform="translate(-933.8 -711.432)" fill="#233862"></path><path id="Trazado_7615" data-name="Trazado 7615" d="M695.1,675.771h61.543a2.468,2.468,0,0,0,0-4.935H695.1a2.468,2.468,0,1,0,0,4.935" transform="translate(-516.794 -500.531)" fill="#ffa412"></path><path id="Trazado_7616" data-name="Trazado 7616" d="M462.6,675.771H525.57a2.468,2.468,0,0,0,0-4.935H462.6a2.468,2.468,0,0,0,0,4.935" transform="translate(-343.315 -500.531)" fill="#e27f2b"></path><path id="Trazado_7617" data-name="Trazado 7617" d="M374.107,758.485h0a6.515,6.515,0,0,0,6.515-6.515v-61.79a6.515,6.515,0,0,0-13.029,0v61.79a6.515,6.515,0,0,0,6.515,6.515" transform="translate(-274.272 -510.105)" fill="#233862"></path><path id="Trazado_7618" data-name="Trazado 7618" d="M679.908,1091.749l-2.629-4.156-224.15,4.452Z" transform="translate(-338.093 -811.487)" fill="#ffa412"></path><path id="Trazado_7619" data-name="Trazado 7619" d="M1359.471,1331.134h137.4c-6.617-1.889-30.365-8.475-51.873-12.032-8.914-1.473-17.441-2.426-24.206-2.309-21.455.372-51.527,10.751-61.317,14.341" transform="translate(-1014.342 -982.492)" fill="#e27f2b"></path><path id="Trazado_7620" data-name="Trazado 7620" d="M1531.509,1331.134h137.4c-9.358-2.672-52.99-14.741-76.079-14.341a115.339,115.339,0,0,0-19.47,2.309c-17.273,3.356-34.8,9.449-41.847,12.032" transform="translate(-1142.705 -982.492)" fill="#e69d43"></path></g></g></g></svg>