<svg xmlns="http://www.w3.org/2000/svg" xmlns:xlink="http://www.w3.org/1999/xlink" id="todo-riesgo" width="532.617" height="278" viewBox="0 0 532.617 278"><defs><clipPath id="clip-path"><rect id="Rect&#xE1;ngulo_3229" data-name="Rect&#xE1;ngulo 3229" width="532.617" height="278" fill="none"></rect></clipPath><clipPath id="clip-path-2"><rect id="Rect&#xE1;ngulo_3218" data-name="Rect&#xE1;ngulo 3218" width="532.616" height="277.999" fill="none"></rect></clipPath><clipPath id="clip-path-3"><rect id="Rect&#xE1;ngulo_3209" data-name="Rect&#xE1;ngulo 3209" width="61.386" height="38.664" fill="none"></rect></clipPath><clipPath id="clip-path-6"><path id="Trazado_4264" data-name="Trazado 4264" d="M2192.682,860.853l-16.777,38.806V913.3l11.206,16.041h37.2l-1.056-68.486Z" transform="translate(-2175.905 -860.853)" fill="none"></path></clipPath><clipPath id="clip-path-7"><rect id="Rect&#xE1;ngulo_3219" data-name="Rect&#xE1;ngulo 3219" width="37.363" height="66.81" fill="none"></rect></clipPath><clipPath id="clip-path-8"><rect id="Rect&#xE1;ngulo_3220" data-name="Rect&#xE1;ngulo 3220" width="32.015" height="65.959" fill="none"></rect></clipPath><clipPath id="clip-path-12"><path id="Trazado_4269" data-name="Trazado 4269" d="M2007.177,863.852l-15.273,36.02,35.732,3.554,16.393-39.574Z" transform="translate(-1991.904 -863.852)" fill="none"></path></clipPath><clipPath id="clip-path-13"><rect id="Rect&#xE1;ngulo_3224" data-name="Rect&#xE1;ngulo 3224" width="47.656" height="50.185" fill="none"></rect></clipPath><clipPath id="clip-path-14"><rect id="Rect&#xE1;ngulo_3225" data-name="Rect&#xE1;ngulo 3225" width="42.667" height="48.078" fill="none"></rect></clipPath><clipPath id="clip-path-15"><rect id="Rect&#xE1;ngulo_3226" data-name="Rect&#xE1;ngulo 3226" width="47.656" height="50.184" fill="none"></rect></clipPath></defs><g id="Grupo_856" data-name="Grupo 856" clip-path="url(#clip-path)"><g id="Grupo_826" data-name="Grupo 826" transform="translate(0 0.001)"><g id="Grupo_825" data-name="Grupo 825" clip-path="url(#clip-path-2)"><path id="Trazado_4250" data-name="Trazado 4250" d="M325.206,584.947S282.42,583.929,264.137,558c-33.122-46.979-18.2-88.177,40.772-85.11,65.966,3.431,57.83-142.2,172.052-72.084,24.8,15.225,80-16.749,102.057,49.867,5.244,15.841,44.628,16.944,70.081,29.648,39.926,19.927,28.651,104.961-9.068,105.3s-314.824-.667-314.824-.667" transform="translate(-199.424 -308.367)" fill="#ebf2f9"></path><path id="Trazado_4251" data-name="Trazado 4251" d="M1818.453,49.492l1.377.487-38.4-26.243-89.554,26.977-.458,26.824h-2.048a2.211,2.211,0,0,0-2.2,2.2v2.2a2.211,2.211,0,0,0,2.2,2.2h7.1a2.211,2.211,0,0,0,2.2-2.2v-2.2a2.211,2.211,0,0,0-2.2-2.2h-3.457l16.853-18.126h60.454V296.026h14.7V59.412h12.492v5.144a2.211,2.211,0,0,0,2.2,2.2h18.738a2.211,2.211,0,0,0,2.2-2.2V51.7a2.211,2.211,0,0,0-2.2-2.2M1692.7,75.984l.433-16.294,14.976-.278Zm107.012-26.493a2.211,2.211,0,0,0-2.171,1.837H1694.289l86.927-26.186L1817.3,49.492Z" transform="translate(-1363.048 -19.177)" fill="#d2e4ff"></path><path id="Trazado_4252" data-name="Trazado 4252" d="M434.579,319.1h-1.405l-.314-18.4-61.43-18.505L345.288,300.06a1.529,1.529,0,0,0-.21.143h0a1.511,1.511,0,0,0-.555,1.169v8.821a1.517,1.517,0,0,0,1.512,1.512h12.853a1.517,1.517,0,0,0,1.512-1.512v-3.528h8.569V468.971H379.05V306.666h41.468l11.56,12.433h-2.372a1.517,1.517,0,0,0-1.512,1.512v1.512a1.517,1.517,0,0,0,1.512,1.512h4.873a1.517,1.517,0,0,0,1.512-1.512v-1.512a1.517,1.517,0,0,0-1.512-1.512m-74.2-17.978a1.517,1.517,0,0,0-1.489-1.26H346.823l24.755-16.7L431.2,301.121Zm71.915,16.912-10.57-11.368,10.316.252Z" transform="translate(-278.337 -227.983)" fill="#ebf2f9"></path><rect id="Rect&#xE1;ngulo_3207" data-name="Rect&#xE1;ngulo 3207" width="84.812" height="263.918" transform="translate(189.302 13.149)" fill="#d2e4ff"></rect><g id="Grupo_818" data-name="Grupo 818" transform="translate(212.728 49.565)" opacity="0.5"><g id="Grupo_817" data-name="Grupo 817"><g id="Grupo_816" data-name="Grupo 816" clip-path="url(#clip-path-3)"><rect id="Rect&#xE1;ngulo_3208" data-name="Rect&#xE1;ngulo 3208" width="61.387" height="38.664" transform="translate(-0.001 0)" fill="#aed3ff"></rect></g></g></g><g id="Grupo_821" data-name="Grupo 821" transform="translate(212.728 120.364)" opacity="0.5"><g id="Grupo_820" data-name="Grupo 820"><g id="Grupo_819" data-name="Grupo 819" clip-path="url(#clip-path-3)"><rect id="Rect&#xE1;ngulo_3210" data-name="Rect&#xE1;ngulo 3210" width="61.387" height="38.664" transform="translate(-0.001)" fill="#aed3ff"></rect></g></g></g><g id="Grupo_824" data-name="Grupo 824" transform="translate(212.728 190.25)" opacity="0.5"><g id="Grupo_823" data-name="Grupo 823"><g id="Grupo_822" data-name="Grupo 822" clip-path="url(#clip-path-3)"><rect id="Rect&#xE1;ngulo_3212" data-name="Rect&#xE1;ngulo 3212" width="61.387" height="38.664" transform="translate(-0.001)" fill="#aed3ff"></rect></g></g></g><path id="Trazado_4253" data-name="Trazado 4253" d="M435.037,283.968h11.445V248.215h94.283V68.451H564.19V332.517H540.765v-.148H435.037Z" transform="translate(-351.463 -55.302)" fill="#aed3ff"></path><path id="Trazado_4254" data-name="Trazado 4254" d="M1562.594,407.254v-1.424h3.118v-9.4h2.58v9.4h6.536v-9.4h2.58v9.4h7.106v-9.4h2.58v9.4h6.536v-9.4h2.58v9.4h3.419v1.424h-3.419v4.577h3.419v1.424h-3.419v4.577h3.419v1.424h-3.419v4.577h3.419v1.424h-3.419v4.577h3.419v1.424h-3.419v4.577h3.419v1.424h-3.419v3.7h3.419v1.424h-3.419v4.577h3.419v1.424h-3.419v4.577h3.419v1.424h-3.419v4.577h3.419V460.4h-3.419v4.578h3.419V466.4h-3.419v4.577h3.419V472.4h-3.419v4.368h3.419v1.424h-3.419v4.577h3.419v1.425h-3.419v4.577h3.419V490.2h-3.419v4.577h3.419V496.2h-3.419v4.577h3.419V502.2h-3.419v4.577h3.419V508.2h-3.419v3.7h3.419v1.424h-3.419v4.578h3.419v1.424h-3.419v4.577h3.419v1.425h-3.419v4.577h3.419v1.425h-3.419v4.577h3.419v1.424h-3.419v4.577h3.419v1.424h-3.419v4.083h3.419v1.424h-3.419v4.577h3.419v1.424h-3.419v4.577h3.419v1.424h-3.419v4.577h3.419v1.424h-3.419v4.577h3.419v1.424h-3.419v4.577h3.419v1.424h-3.419v3.7h3.419v1.425h-3.419v4.577h3.419v1.424h-3.419v4.577h3.419v1.424h-37.036v-1.424h3.118v-4.577h-3.118v-1.424h3.118v-4.577h-3.118v-1.425h3.118v-3.7h-3.118v-1.424h3.118v-4.577h-3.118v-1.424h3.118V566.85h-3.118v-1.424h3.118v-4.577h-3.118v-1.424h3.118v-4.577h-3.118v-1.424h3.118v-4.577h-3.118v-1.424h3.118v-4.083h-3.118v-1.424h3.118v-4.577h-3.118v-1.424h3.118v-4.577h-3.118v-1.425h3.118v-4.577h-3.118v-1.425h3.118V519.33h-3.118v-1.424h3.118v-4.578h-3.118V511.9h3.118v-3.7h-3.118v-1.424h3.118V502.2h-3.118v-1.424h3.118V496.2h-3.118v-1.424h3.118V490.2h-3.118v-1.425h3.118v-4.577h-3.118v-1.425h3.118v-4.577h-3.118v-1.424h3.118V472.4h-3.118v-1.424h3.118V466.4h-3.118v-1.424h3.118V460.4h-3.118v-1.424h3.118v-4.577h-3.118v-1.424h3.118v-4.577h-3.118v-1.424h3.118v-4.577h-3.118v-1.424h3.118v-3.7h-3.118v-1.424h3.118v-4.577h-3.118v-1.424h3.118v-4.577h-3.118v-1.424h3.118v-4.577h-3.118v-1.424h3.118v-4.577h-3.118v-1.424h3.118v-4.577Zm14.814,4.577h7.106v-4.577h-7.106Zm7.106,172.151h-7.106v4.577h7.106Zm-7.106,10.579h7.106v-4.577h-7.106Zm7.106-15.707h-7.106v3.7h7.106Zm0-6h-7.106v4.577h7.106Zm0-6h-7.106v4.577h7.106Zm0-6h-7.106v4.577h7.106Zm0-6h-7.106v4.577h7.106Zm0-6h-7.106v4.577h7.106Zm0-5.508h-7.106v4.083h7.106Zm0-6h-7.106v4.577h7.106Zm0-6h-7.106v4.577h7.106Zm0-6h-7.106v4.577h7.106Zm0-6h-7.106v4.577h7.106Zm0-6h-7.106v4.577h7.106Zm0-5.128h-7.106v3.7h7.106Zm0-6h-7.106v4.577h7.106Zm0-6h-7.106v4.577h7.106Zm0-6h-7.106v4.577h7.106Zm0-6h-7.106v4.577h7.106Zm0-6h-7.106v4.577h7.106Zm0-5.793h-7.106v4.368h7.106Zm0-6h-7.106v4.577h7.106Zm0-6h-7.106v4.577h7.106Zm0-6h-7.106v4.577h7.106Zm0-6h-7.106v4.577h7.106Zm0-6h-7.106v4.577h7.106Zm0-5.128h-7.106v3.7h7.106Zm0-6h-7.106v4.577h7.106Zm0-6h-7.106v4.577h7.106Zm0-6h-7.106v4.577h7.106Zm0-6h-7.106v4.577h7.106Zm9.117-6h-6.536v4.577h6.536Zm0,6h-6.536v4.577h6.536Zm0,6h-6.536v4.577h6.536Zm0,6h-6.536v4.577h6.536Zm0,6h-6.536v4.577h6.536Zm0,6h-6.536v3.7h6.536Zm0,5.128h-6.536v4.577h6.536Zm0,6h-6.536v4.577h6.536Zm0,6h-6.536v4.577h6.536Zm0,6h-6.536v4.577h6.536Zm0,6h-6.536v4.577h6.536Zm0,6h-6.536v4.368h6.536Zm0,5.793h-6.536v4.577h6.536Zm0,6h-6.536v4.577h6.536Zm0,6h-6.536v4.577h6.536Zm0,6h-6.536v4.577h6.536Zm0,6h-6.536v4.577h6.536Zm0,6h-6.536v3.7h6.536Zm0,5.128h-6.536v4.577h6.536Zm0,6h-6.536v4.577h6.536Zm0,6h-6.536v4.577h6.536Zm0,6h-6.536v4.577h6.536Zm0,6h-6.536v4.577h6.536Zm0,6h-6.536v4.083h6.536Zm0,5.508h-6.536v4.577h6.536Zm0,6h-6.536v4.577h6.536Zm0,6h-6.536v4.577h6.536Zm0,6h-6.536v4.577h6.536Zm0,6h-6.536v4.577h6.536Zm0,6h-6.536v3.7h6.536Zm0,5.128h-6.536v4.577h6.536Zm0,6h-6.536v4.577h6.536Zm-25.339,4.577h6.536v-4.577h-6.536Zm0-6h6.536v-4.577h-6.536Zm0-6h6.536v-3.7h-6.536Zm0-5.128h6.536v-4.577h-6.536Zm0-6h6.536V566.85h-6.536Zm0-6h6.536v-4.577h-6.536Zm0-6h6.536v-4.577h-6.536Zm0-6h6.536v-4.577h-6.536Zm0-6h6.536v-4.083h-6.536Zm0-5.508h6.536v-4.577h-6.536Zm0-6h6.536v-4.577h-6.536Zm0-6h6.536v-4.577h-6.536Zm0-6h6.536V519.33h-6.536Zm0-6h6.536v-4.577h-6.536Zm0-6h6.536v-3.7h-6.536Zm0-5.128h6.536V502.2h-6.536Zm0-6h6.536V496.2h-6.536Zm0-6h6.536V490.2h-6.536Zm0-6h6.536v-4.577h-6.536Zm0-6h6.536v-4.577h-6.536Zm0-6h6.536V472.4h-6.536Zm0-5.793h6.536V466.4h-6.536Zm0-6h6.536V460.4h-6.536Zm0-6h6.536v-4.577h-6.536Zm0-6h6.536v-4.577h-6.536Zm0-6h6.536v-4.577h-6.536Zm0-6h6.536v-3.7h-6.536Zm0-5.128h6.536v-4.577h-6.536Zm0-6h6.536v-4.577h-6.536Zm0-6h6.536v-4.577h-6.536Zm0-6h6.536v-4.577h-6.536Zm0-6h6.536v-4.577h-6.536Z" transform="translate(-1262.409 -320.272)" fill="#d2e4ff"></path><rect id="Rect&#xE1;ngulo_3214" data-name="Rect&#xE1;ngulo 3214" width="0.913" height="16.254" transform="translate(268.811 0)" fill="#d2e4ff"></rect><rect id="Rect&#xE1;ngulo_3215" data-name="Rect&#xE1;ngulo 3215" width="0.913" height="16.254" transform="translate(218.223 0)" fill="#d2e4ff"></rect><rect id="Rect&#xE1;ngulo_3216" data-name="Rect&#xE1;ngulo 3216" width="0.913" height="16.254" transform="translate(262.419 0)" fill="#d2e4ff"></rect><rect id="Rect&#xE1;ngulo_3217" data-name="Rect&#xE1;ngulo 3217" width="0.913" height="16.254" transform="translate(213.657 0)" fill="#d2e4ff"></rect><path id="Trazado_4255" data-name="Trazado 4255" d="M532.032,1442.192H.585a.585.585,0,1,1,0-1.169H532.032a.585.585,0,1,1,0,1.169" transform="translate(0 -1164.193)" fill="#283250"></path><path id="Trazado_4256" data-name="Trazado 4256" d="M211.061,1339.791H121.924c6.071-4.481,34.377-24.726,49.357-24.055,3.908.176,8.257,1.676,12.631,3.873,11.206,5.63,22.579,15.85,27.149,20.182" transform="translate(-98.502 -1062.961)" fill="#e69d43"></path><path id="Trazado_4257" data-name="Trazado 4257" d="M405.88,1173.786a.751.751,0,0,0-.9.562l-6.795,29.676c-1.835.055-3.7,2.042-4.335,4.81l-.647,2.827a3.887,3.887,0,0,0-.088.476l7.546,1.728a1.993,1.993,0,0,0,.147-.462l.647-2.827c.632-2.761-.177-5.356-1.811-6.213l6.8-29.68a.751.751,0,0,0-.562-.9" transform="translate(-317.597 -948.279)" fill="#2b478b"></path><path id="Trazado_4258" data-name="Trazado 4258" d="M356.757,1364.636s15.673-4.06,20.676-.755-2.549,6.8-2.549,6.8Z" transform="translate(-288.221 -1100.824)" fill="#e69d43"></path><path id="Trazado_4259" data-name="Trazado 4259" d="M2175.9,899.658l16.777-38.806h30.577l1.056,68.486h-37.2L2175.9,913.3Z" transform="translate(-1757.898 -695.478)" fill="#233862"></path></g></g><g id="Grupo_840" data-name="Grupo 840" transform="translate(418.007 165.376)"><g id="Grupo_839" data-name="Grupo 839" clip-path="url(#clip-path-6)"><g id="Grupo_829" data-name="Grupo 829" transform="translate(-5.38 -3.753)" opacity="0.6"><g id="Grupo_828" data-name="Grupo 828"><g id="Grupo_827" data-name="Grupo 827" clip-path="url(#clip-path-7)"><path id="Trazado_4260" data-name="Trazado 4260" d="M2155.773,908.127l-7.878-1.253,29.485-65.556,7.879,1.253Z" transform="translate(-2147.896 -841.317)" fill="#fff"></path></g></g></g><g id="Grupo_832" data-name="Grupo 832" transform="translate(6.761 -1.822)" opacity="0.6"><g id="Grupo_831" data-name="Grupo 831"><g id="Grupo_830" data-name="Grupo 830" clip-path="url(#clip-path-8)"><path id="Trazado_4261" data-name="Trazado 4261" d="M2213.629,917.331l-2.53-.4,29.485-65.557,2.53.4Z" transform="translate(-2211.1 -851.371)" fill="#fff"></path></g></g></g><g id="Grupo_835" data-name="Grupo 835" transform="translate(17.319 -0.142)" opacity="0.6"><g id="Grupo_834" data-name="Grupo 834"><g id="Grupo_833" data-name="Grupo 833" clip-path="url(#clip-path-7)"><path id="Trazado_4262" data-name="Trazado 4262" d="M2273.938,926.924l-7.879-1.253,29.485-65.557,7.878,1.253Z" transform="translate(-2266.059 -860.114)" fill="#fff"></path></g></g></g><g id="Grupo_838" data-name="Grupo 838" transform="translate(29.461 1.789)" opacity="0.6"><g id="Grupo_837" data-name="Grupo 837"><g id="Grupo_836" data-name="Grupo 836" clip-path="url(#clip-path-8)"><path id="Trazado_4263" data-name="Trazado 4263" d="M2331.794,936.127l-2.53-.4,29.485-65.556,2.53.4Z" transform="translate(-2329.263 -870.168)" fill="#fff"></path></g></g></g></g></g><g id="Grupo_842" data-name="Grupo 842" transform="translate(0 0.001)"><g id="Grupo_841" data-name="Grupo 841" clip-path="url(#clip-path-2)"><path id="Trazado_4265" data-name="Trazado 4265" d="M1991.9,899.873l15.272-36.02h36.853l-16.393,39.574Z" transform="translate(-1609.246 -697.901)" fill="#2b478b"></path></g></g><g id="Grupo_853" data-name="Grupo 853" transform="translate(382.659 165.952)"><g id="Grupo_852" data-name="Grupo 852" clip-path="url(#clip-path-12)"><g id="Grupo_845" data-name="Grupo 845" transform="translate(-9.714 -11.989)" opacity="0.6"><g id="Grupo_844" data-name="Grupo 844"><g id="Grupo_843" data-name="Grupo 843" clip-path="url(#clip-path-13)"><path id="Trazado_4266" data-name="Trazado 4266" d="M1948.692,851.631l-7.349-3.1,40.306-47.082,7.349,3.1Z" transform="translate(-1941.342 -801.446)" fill="#fff"></path></g></g></g><g id="Grupo_848" data-name="Grupo 848" transform="translate(1.613 -7.207)" opacity="0.6"><g id="Grupo_847" data-name="Grupo 847"><g id="Grupo_846" data-name="Grupo 846" clip-path="url(#clip-path-14)"><path id="Trazado_4267" data-name="Trazado 4267" d="M2002.663,874.417l-2.36-1,40.306-47.082,2.36,1Z" transform="translate(-2000.302 -826.339)" fill="#fff"></path></g></g></g><g id="Grupo_851" data-name="Grupo 851" transform="translate(11.462 -3.048)" opacity="0.6"><g id="Grupo_850" data-name="Grupo 850"><g id="Grupo_849" data-name="Grupo 849" clip-path="url(#clip-path-15)"><path id="Trazado_4268" data-name="Trazado 4268" d="M2058.921,898.168l-7.35-3.1,40.306-47.082,7.35,3.1Z" transform="translate(-2051.571 -847.984)" fill="#fff"></path></g></g></g></g></g><g id="Grupo_855" data-name="Grupo 855" transform="translate(0 0.001)"><g id="Grupo_854" data-name="Grupo 854" clip-path="url(#clip-path-2)"><path id="Trazado_4270" data-name="Trazado 4270" d="M2518.08,803.885h-3.842V790.958a5.778,5.778,0,0,1,5.771-5.771h.376v3.842h-.376a1.931,1.931,0,0,0-1.929,1.929Z" transform="translate(-2031.235 -634.348)" fill="#2b478b"></path><path id="Trazado_4271" data-name="Trazado 4271" d="M1995.5,855.186l-16.265,38.55,4.387-1.537,14.5-34.2h33.042l1.16-2.818Z" transform="translate(-1599.012 -690.899)" fill="#ffa412"></path><path id="Trazado_4272" data-name="Trazado 4272" d="M2460.8,1210.853l14.664,16.329v2.113h-34.188v-17.1Z" transform="translate(-1972.289 -978.24)" fill="#e27f2b"></path><path id="Trazado_4273" data-name="Trazado 4273" d="M1395.668,1056.322l6.147-8.469h130.953l19.339,31.313H1389.9Z" transform="translate(-1122.894 -846.554)" fill="#ffa412"></path><path id="Trazado_4274" data-name="Trazado 4274" d="M1922.148,1273.122H1786.905v-37.269h132.81a19.851,19.851,0,0,1,19.851,19.851,17.418,17.418,0,0,1-17.418,17.418" transform="translate(-1443.628 -998.438)" fill="#4a75cb"></path><path id="Trazado_4275" data-name="Trazado 4275" d="M1798.391,1221.853H1658.537a21.132,21.132,0,1,0,0,42.264h139.854a21.132,21.132,0,1,0,0-42.264m19.595,21.132a17.06,17.06,0,0,1-17.06,17.06H1688.019a17.06,17.06,0,0,1,0-34.12h112.906A17.06,17.06,0,0,1,1817.985,1242.985Z" transform="translate(-1322.848 -987.127)" fill="#233862"></path><path id="Trazado_4276" data-name="Trazado 4276" d="M1937.228,1310.666c0,3.4-2.236,6.147-4.995,6.147s-4.995-2.752-4.995-6.147,2.236-6.147,4.995-6.147,4.995,2.752,4.995,6.147" transform="translate(-1557.002 -1053.912)" fill="#233862"></path><path id="Trazado_4277" data-name="Trazado 4277" d="M2105.228,1309c0,3.4-2.236,6.147-4.995,6.147s-4.995-2.752-4.995-6.147,2.237-6.147,4.995-6.147,4.995,2.752,4.995,6.147" transform="translate(-1692.728 -1052.567)" fill="#233862"></path><path id="Trazado_4278" data-name="Trazado 4278" d="M2273.227,1307.166c0,3.4-2.236,6.147-4.994,6.147s-4.995-2.752-4.995-6.147,2.236-6.147,4.995-6.147,4.994,2.752,4.994,6.147" transform="translate(-1828.454 -1051.085)" fill="#233862"></path><path id="Trazado_4279" data-name="Trazado 4279" d="M2441.228,1306.25c0,3.4-2.236,6.148-4.995,6.148s-4.995-2.752-4.995-6.148,2.236-6.147,4.995-6.147,4.995,2.752,4.995,6.147" transform="translate(-1964.18 -1050.345)" fill="#233862"></path><path id="Trazado_4280" data-name="Trazado 4280" d="M1593.9,1232.369l34.387,1.953,16.329-21.356h131.593v-2.113H1612.347Z" transform="translate(-1287.704 -978.24)" fill="#ffa412"></path><path id="Trazado_4281" data-name="Trazado 4281" d="M1593.9,1234.321v-1.953h33.523l16.521-21.516h132.266v2.113H1644.621l-16.329,21.356Z" transform="translate(-1287.704 -978.24)" fill="#e27f2b"></path><path id="Trazado_4282" data-name="Trazado 4282" d="M1772.99,892.249v-37h-36.828l-15.612,37h-95.734l-6.147,8.469-5.763,22.845h162.2V892.249Zm-11.778,29.617h-22.476l-14.056-16.937V892.249h-.007l14.115-34.183h26.7v29.9a4.278,4.278,0,0,1-4.278,4.278Z" transform="translate(-1303.055 -690.95)" fill="#e27f2b"></path><path id="Trazado_4283" data-name="Trazado 4283" d="M2424.1,948.853h24a2.065,2.065,0,0,1,2.065,2.065v56.143l-8.837-6.628h-18.922Z" transform="translate(-1957.044 -766.572)" fill="#e27f2b"></path><path id="Trazado_4284" data-name="Trazado 4284" d="M1101.684,1155.148l-109.435-.042,43.3-68h109.175Z" transform="translate(-801.631 -878.269)" fill="#4a75cb"></path><path id="Trazado_4285" data-name="Trazado 4285" d="M1182.241,1151.011H1092l80.5-8.084,53.286-61.074Z" transform="translate(-882.218 -874.022)" fill="#233862"></path><path id="Trazado_4286" data-name="Trazado 4286" d="M2084.6,842.721h-39.926a1.6,1.6,0,1,1,0-3.2H2084.6a1.6,1.6,0,0,1,0,3.2" transform="translate(-1650.583 -678.242)" fill="#ffa412"></path><path id="Trazado_4287" data-name="Trazado 4287" d="M2280.027,842.721h-40.855a1.6,1.6,0,0,1,0-3.2h40.855a1.6,1.6,0,0,1,0,3.2" transform="translate(-1807.718 -678.242)" fill="#e27f2b"></path><path id="Trazado_4288" data-name="Trazado 4288" d="M2506.464,899.058h0a4.226,4.226,0,0,1-4.226-4.226V854.745a4.226,4.226,0,1,1,8.453,0v40.086a4.226,4.226,0,0,1-4.226,4.226" transform="translate(-2021.541 -687.129)" fill="#233862"></path><path id="Trazado_4289" data-name="Trazado 4289" d="M1707.059,1199.515l1.705-2.7,145.419,2.888Z" transform="translate(-1379.121 -966.902)" fill="#ffa412"></path><path id="Trazado_4290" data-name="Trazado 4290" d="M1321.01,1402.621h-89.136a337.288,337.288,0,0,1,33.653-7.806,92.4,92.4,0,0,1,15.7-1.5c13.919.241,33.428,6.974,39.78,9.3" transform="translate(-995.222 -1125.647)" fill="#e27f2b"></path><path id="Trazado_4291" data-name="Trazado 4291" d="M1173.516,1402.621H1084.38c6.071-1.733,34.377-9.563,49.357-9.3a74.818,74.818,0,0,1,12.631,1.5,191.121,191.121,0,0,1,27.149,7.806" transform="translate(-876.063 -1125.647)" fill="#e69d43"></path><path id="Trazado_4292" data-name="Trazado 4292" d="M1070.816,599.834c3.207-16.439,6.146-32.177,6.146-32.177s-9.13,1.383-13.06,4.659-4.328,24.133-5.639,30.029a46.136,46.136,0,0,0-.688,5.3,123.537,123.537,0,0,0,.884,24.739,19.3,19.3,0,0,1-1.884,5.247s-.8,2.475,4.44,6.187c3.34,2.366,6.317-26.119,9.8-43.988" transform="translate(-853.564 -458.607)" fill="#d9935c"></path><path id="Trazado_4293" data-name="Trazado 4293" d="M1081.352,567.657s-1.695,9.07-3.913,20.631c-.7,3.669-1.46,7.586-2.233,11.546-3.142,6.158-5.838,10.345-6.671,9.558-1.7-1.6-4.682-1.8-6.57-1.743a46.171,46.171,0,0,1,.688-5.3c.1-.466.2-1.025.3-1.661,1.1-7.419,1.722-25.352,5.343-28.368,3.931-3.276,13.06-4.659,13.06-4.659" transform="translate(-857.954 -458.607)" fill="#739af0"></path><path id="Trazado_4294" data-name="Trazado 4294" d="M1077.439,631.554c-.7,3.669-1.46,7.586-2.233,11.546-3.142,6.158-5.838,10.345-6.671,9.557-1.7-1.6-4.682-1.8-6.57-1.743a46.168,46.168,0,0,1,.688-5.3c.1-.466.2-1.025.3-1.661l9.42-22.739Z" transform="translate(-857.954 -501.874)" fill="#4a75cb"></path><path id="Trazado_4295" data-name="Trazado 4295" d="M1175.74,523.7a69.547,69.547,0,0,0-.412-10.166l-12.669,2.07s0,3.866.056,8.156l-.012,0s-.345,3.979,4.556,4.562,8.614-1.553,8.481-4.624" transform="translate(-939.304 -414.882)" fill="#d9935c"></path><path id="Trazado_4296" data-name="Trazado 4296" d="M1162.475,528.379s2.984,6.115,6.406,6.115,6.624-5.751,6.624-5.751Z" transform="translate(-939.155 -426.874)" fill="#cb7d45"></path><path id="Trazado_4297" data-name="Trazado 4297" d="M1206.429,1413.388a22.323,22.323,0,0,1,1.529-5.726c1.067-2.135,7.861-.776,7.861-.776s1.359,1.165,1.65,6.6Z" transform="translate(-974.665 -1136.269)" fill="#233862"></path><path id="Trazado_4298" data-name="Trazado 4298" d="M994.441,1394.1c1.6-.974.688-8.243.688-8.243s-7.439-5.951-8.461-1.395-7.067,6.6-10.507,7.16c-2.375.385-3.11,1.7-3.338,2.478Z" transform="translate(-785.936 -1117.109)" fill="#233862"></path><path id="Trazado_4299" data-name="Trazado 4299" d="M1163.657,431.947s8.457-13.334-7.782-14.217c0,0-6.091.717-7.47-.662,0,0-4.724,7.18-.312,14.879s15.564,0,15.564,0" transform="translate(-926.015 -336.948)" fill="#233862"></path><path id="Trazado_4300" data-name="Trazado 4300" d="M1157.663,463.495c1.231.969,4.84,1.93,5.884,2.043,0,0,5.352-1.194,6.325-1.78,1.507-.913,1.41-2.762,1.487-5.332.093-3.042.4-5.432.06-7.186-.4-2.1-1.734-3.292-5.458-3.616-6.837-.593-9.685,1.119-9.8,3.411-.031.615-.06,1.2-.079,1.758-.274,7.148.291,9.683,1.586,10.7" transform="translate(-933.931 -361.537)" fill="#d9935c"></path><path id="Trazado_4301" data-name="Trazado 4301" d="M1059.568,925.917a34.323,34.323,0,0,0-.546,4.018c-.692,13.488-11.354,44.328-13.261,45.048-2.951,1.114-7.6-1.254-10.029-2.028a2.085,2.085,0,0,1-1.463-2.369c5.28-24.274,7.221-59.229,7.927-79.924a93.909,93.909,0,0,1,2.146-17.624s26.005-6.939,26.16,1.839c.137,7.767-8.614,38.227-10.933,51.04" transform="translate(-835.544 -703.219)" fill="#2b478b"></path><path id="Trazado_4302" data-name="Trazado 4302" d="M1093.084,925.917l-17.372-35.254a93.9,93.9,0,0,1,2.146-17.624s26.005-6.939,26.16,1.839c.137,7.767-8.614,38.227-10.933,51.04" transform="translate(-869.06 -703.219)" fill="#233862"></path><path id="Trazado_4303" data-name="Trazado 4303" d="M1136.024,880.389l13.748,99.638s6.037,1.456,10.733.291c0,0,4.025-52.992,3.689-65.8s2.888-34.281-.736-36.648-27.434,2.523-27.434,2.523" transform="translate(-917.786 -708.7)" fill="#2b478b"></path><path id="Trazado_4304" data-name="Trazado 4304" d="M1121.974,627.761a2.054,2.054,0,0,1-2.022,2.134l-21.664.33-15.912.243c-.745.013,1.61-5.949,1.658-44.819.011-8.674,13.44-18.007,13.688-18.007l0,0c0,1.249,1.968,3.555,5,3.753,3.6.236,8.014-1.555,8.014-3.628a9.683,9.683,0,0,1,1.09,1.408c1.8,2.618,5.416,9,7.726,20.111,1.824,8.774,1.123,20.505,2.435,35.642.1,1.093-.045,2.064-.017,2.83" transform="translate(-874.326 -458.596)" fill="#ffa412"></path><path id="Trazado_4305" data-name="Trazado 4305" d="M1121.174,630.015a44.1,44.1,0,0,1-8.266,2.407,81.467,81.467,0,0,1-16.016,1.609c-10.53.067-14.517-3.562-14.517-3.562-.745.013,1.61-5.948,1.658-44.819.012-8.674,13.44-18.007,13.688-18.007l0,0s-.345,11.551,3.149,14.947c0,0,4.9-3.785,11.258-14.558,1.8,2.617,5.114,10.144,7.425,21.255a60.187,60.187,0,0,1,.984,7.377c.613,7.666.476,17.027,1.451,28.265.1,1.093-.045,2.064-.017,2.83.045,1.154.355,2.237-.8,2.255" transform="translate(-874.325 -458.595)" fill="#739af0"></path><path id="Trazado_4306" data-name="Trazado 4306" d="M1232.775,721.458a44.1,44.1,0,0,1-8.266,2.407c-1.695-2.584-3.83-7.249-4.126-14.6-.5-12.43,11.307-28.437,11.307-28.437l.45,7.279c.613,7.666.476,17.027,1.451,28.265.1,1.093-.045,2.064-.017,2.83.045,1.154.355,2.237-.8,2.255" transform="translate(-985.926 -550.037)" fill="#4a75cb"></path><rect id="Rect&#xE1;ngulo_3227" data-name="Rect&#xE1;ngulo 3227" width="23.24" height="31.879" transform="matrix(0.866, -0.5, 0.5, 0.866, 216.495, 140.952)" fill="#2b478b"></rect><path id="Trazado_4307" data-name="Trazado 4307" d="M1165.561,572.358c-2.465-1.863-8.255-3.185-11.1-3.747-1-.2-1.644-.3-1.644-.3.3,1.37.965,3.519,1.839,6.1,3.66,10.812,10.914,29.2,9.453,29.59a40.212,40.212,0,0,1-4.385.844c-6.363.932-14.925,1.344-15.821,1.385-.071-.066-3.12-2.909-4.307-2.909s-4.664,1.262-5.017,2.232-.495,2.718.495,3.106a44.49,44.49,0,0,0,6.148,1.456,2.83,2.83,0,0,0,.51,0,107.363,107.363,0,0,0,19.218,3.856,62.144,62.144,0,0,0,11.168.322c5.1-10.986-3.217-39.408-6.551-41.928" transform="translate(-916.4 -459.134)" fill="#d9935c"></path><path id="Trazado_4308" data-name="Trazado 4308" d="M1255.785,615.394a62.119,62.119,0,0,1-11.168-.322,13.342,13.342,0,0,0-1.224-9.122,40.151,40.151,0,0,0,4.385-.844c1.462-.392-5.793-18.777-9.453-29.59-.293-3.5-.447-5.835-.447-5.835l.252.038c2.849.562,8.639,1.884,11.1,3.747,3.334,2.52,11.655,30.942,6.551,41.928" transform="translate(-1000.073 -460.242)" fill="#739af0"></path><path id="Trazado_4309" data-name="Trazado 4309" d="M1179.274,577.6s9.8-4.319,9.948-4.659a7.767,7.767,0,0,0-1.164-3.737s4.707.437,5-.146a41.112,41.112,0,0,0,.509-5.374,7.913,7.913,0,0,0-4.386-2.222s-2.13,5.294-2.918,6.868c-2.087,4.173-6.988,9.269-6.988,9.269" transform="translate(-952.727 -453.603)" fill="#4a75cb"></path><path id="Trazado_4310" data-name="Trazado 4310" d="M1145.6,569.146a32.689,32.689,0,0,0,2.329,8.541s-5.12-3.567-5.556-4.731,1.237-3.421,1.237-3.421-3.057-.073-3.13-1.092a32.81,32.81,0,0,1,.946-5.023s2.63-1.92,3.357-1.847Z" transform="translate(-921.385 -453.69)" fill="#4a75cb"></path><path id="Trazado_4311" data-name="Trazado 4311" d="M1161.953,397.826l-21.769.233s-.32-6.564,3.453-10.75q.258-.29.547-.563a9.709,9.709,0,0,1,2.973-1.932,9.964,9.964,0,0,1,10.216,1.576c.222.168.431.337.626.5a13.115,13.115,0,0,1,1.911,1.972s2.114,2.883,2.043,8.961" transform="translate(-921.141 -310.255)" fill="#ffa412"></path><path id="Trazado_4312" data-name="Trazado 4312" d="M1155.866,408.815c-.06-.884-.444-8.412,2.2-10.964a4.1,4.1,0,0,0-.361-.3c-2.82,2.934-3.044,10.343-3.032,11.278l-6.959.075c-.206-5.332-3.149-10.641-3.5-11.233a4.86,4.86,0,0,0-.4.412,31.768,31.768,0,0,1,2.616,10.835l-6.215.066a47.51,47.51,0,0,0,10.165,1.445,74.216,74.216,0,0,0,11.6-1.677Z" transform="translate(-921.169 -321.179)" fill="#e27f2b"></path><path id="Trazado_4313" data-name="Trazado 4313" d="M1664.654,592.215c2.074,6.349,13.379,17.324,14.941,18.418,0,0,2.63-4.384,2.1-6.839-.43-2-4.831-9.148-6.337-12.658-.079-.182-.149-.356-.21-.517a3.16,3.16,0,0,1-.291-1.2c.076-.763,2.472-2.618,5.259-4.818,3.621-2.862,7.9-6.3,8.594-8.683,1.227-4.208,5.479-20.872,5.479-20.872s-10.565,2.285-13.545,4.915-15.781,24.548-16.307,30.159a5.267,5.267,0,0,0,.314,2.1" transform="translate(-1344.597 -448.416)" fill="#ffa412"></path><path id="Trazado_4314" data-name="Trazado 4314" d="M1666.036,740.772c2.074,6.349,13.379,17.324,14.941,18.418,0,0,2.63-4.384,2.1-6.839-.453-2.108-5.3-9.9-6.547-13.175a16.428,16.428,0,0,0-10.5,1.6" transform="translate(-1345.979 -596.974)" fill="#d9935c"></path><path id="Trazado_4315" data-name="Trazado 4315" d="M1819.624,516.03l.007,1.294s-.352,4.047,4.631,4.638,8.736-1.215,8.6-4.338a40.345,40.345,0,0,1-.952-6.442,14.1,14.1,0,0,1,.177-2.423l-9.656-.193-2.844.465Z" transform="translate(-1470.031 -410.868)" fill="#d9935c"></path><path id="Trazado_4316" data-name="Trazado 4316" d="M1819.588,509.031l.037,7a8.166,8.166,0,0,0,3.481.768c4.438,0,7.307-3.254,8.806-5.616a14.124,14.124,0,0,1,.177-2.423l-9.656-.193Z" transform="translate(-1470.032 -410.868)" fill="#cb7d45"></path><path id="Trazado_4317" data-name="Trazado 4317" d="M1864.084,1411.037a22.708,22.708,0,0,1,1.554-5.822c1.085-2.171,7.993-.789,7.993-.789s1.381,1.184,1.677,6.71Z" transform="translate(-1505.98 -1134.277)" fill="#ffa412"></path><path id="Trazado_4318" data-name="Trazado 4318" d="M1648.649,1392.572c1.623-.991.7-8.381.7-8.381s-7.563-6.05-8.6-1.418-7.185,6.712-10.683,7.279c-2.415.391-3.162,1.729-3.394,2.52Z" transform="translate(-1314.175 -1115.722)" fill="#ffa412"></path><path id="Trazado_4319" data-name="Trazado 4319" d="M1714.771,919.3a34.885,34.885,0,0,0-.555,4.085c-.7,13.714-11.544,45.069-13.483,45.8-3,1.132-7.725-1.274-10.2-2.062a2.12,2.12,0,0,1-1.487-2.408c5.368-24.68,7.341-60.218,8.059-81.258a95.485,95.485,0,0,1,2.182-17.919s26.44-7.054,26.6,1.869c.139,7.9-8.758,38.866-11.116,51.892" transform="translate(-1364.536 -697.124)" fill="#2b478b"></path><path id="Trazado_4320" data-name="Trazado 4320" d="M1748.848,919.3l-17.663-35.843a95.472,95.472,0,0,1,2.182-17.919s26.44-7.054,26.6,1.869c.139,7.9-8.758,38.866-11.116,51.892" transform="translate(-1398.612 -697.124)" fill="#233862"></path><path id="Trazado_4321" data-name="Trazado 4321" d="M1792.5,873.011l13.977,101.3s6.138,1.48,10.912.3c0,0,4.092-53.877,3.751-66.9s2.937-34.853-.748-37.26-27.892,2.565-27.892,2.565" transform="translate(-1448.151 -702.696)" fill="#2b478b"></path><path id="Trazado_4322" data-name="Trazado 4322" d="M1737.959,618.918a36.8,36.8,0,0,0,17.487,4.047,77.565,77.565,0,0,0,10.519-.791c8.3-1.231,12.485-3.547,12.451-4.41-.028-.778-.082-3.365-.181-4.477-1.318-15.206-.636-27.033-2.411-35.918-.021-.107-.042-.214-.065-.319-2.348-11.3-6.028-17.785-7.855-20.447a10.085,10.085,0,0,0-1.108-1.431c0,2.108-4.489,3.928-8.149,3.689-3.082-.2-5.083-2.546-5.083-3.816l0,0c-.252,0-13.9,9.49-13.917,18.308-.047,39.519-2.443,45.581-1.685,45.567" transform="translate(-1403.965 -448.416)" fill="#ffa412"></path><path id="Trazado_4323" data-name="Trazado 4323" d="M1881.046,715.938c.007.044.012.088.019.13,8.3-1.231,12.484-3.547,12.451-4.41-.028-.779-.082-3.365-.181-4.477-1.318-15.206-.636-27.033-2.411-35.918-4.355,5.821-13.308,21.068-9.879,44.674" transform="translate(-1519.065 -542.31)" fill="#e27f2b"></path><path id="Trazado_4324" data-name="Trazado 4324" d="M1765.954,744.025l1.115,3.71,1.108,3.682,48.132-14.478a.575.575,0,0,0,.2-.023.635.635,0,0,0,.186-.091c.607-.43.717-2,.251-3.775-.025-.1-.053-.2-.083-.3-.563-1.906-1.587-3.316-2.372-3.328a.615.615,0,0,0-.188.024.639.639,0,0,0-.177.086Z" transform="translate(-1426.702 -589.299)" fill="#e9f3fe"></path><path id="Trazado_4325" data-name="Trazado 4325" d="M1771.759,762.978l1.108,3.682L1821,752.182a.572.572,0,0,0,.2-.023.63.63,0,0,0,.186-.091c.607-.43.717-2,.251-3.775-1.967,1.477-11.364,8.008-27.4,11.185-16.579,3.284-21.71,3.49-22.472,3.5" transform="translate(-1431.391 -604.541)" fill="#bed4f4"></path><path id="Trazado_4326" data-name="Trazado 4326" d="M1762.424,805.2c.8-.238,1.951,1.241,2.56,3.3s.45,3.926-.355,4.164-1.951-1.241-2.56-3.3-.45-3.927.355-4.164" transform="translate(-1423.265 -650.5)" fill="#afcdfb"></path><path id="Trazado_4327" data-name="Trazado 4327" d="M1829.94,718.765l5.674-.921a.657.657,0,0,1,.188-.061.616.616,0,0,1,.188,0c.778.116,1.608,1.646,1.917,3.61.017.1.031.2.044.305a7.85,7.85,0,0,1-.021,2.318,1.962,1.962,0,0,1-.7,1.378l-.02.012a.619.619,0,0,1-.2.067.59.59,0,0,1-.2,0l-49.614,8.05-.615-3.794-.619-3.824Z" transform="translate(-1442.866 -579.887)" fill="#e9f3fe"></path><path id="Trazado_4328" data-name="Trazado 4328" d="M1811.921,729.2c10.612-.682,16.237-6.293,20.622-10.433l5.674-.921a.651.651,0,0,1,.188-.061.609.609,0,0,1,.188,0c.779.116,1.608,1.646,1.917,3.61.017.1.031.2.044.305a7.847,7.847,0,0,1-.021,2.318,3.682,3.682,0,0,1-.7,1.378l-.019.012a.627.627,0,0,1-.2.067.6.6,0,0,1-.2,0l-49.614,8.05-.615-3.794c.757.089,5.871.557,22.737-.528" transform="translate(-1445.469 -579.887)" fill="#bed4f4"></path><path id="Trazado_4329" data-name="Trazado 4329" d="M1781.23,759.865c.829-.13,1.772,1.486,2.105,3.61s-.068,3.952-.9,4.082-1.772-1.486-2.105-3.61.068-3.952.9-4.082" transform="translate(-1438.224 -613.884)" fill="#afcdfb"></path><path id="Trazado_4330" data-name="Trazado 4330" d="M1867.581,609.543a50.935,50.935,0,0,0,22.237-8.985c1.066-.8,1.61-1.3,1.61-1.3,5.9-12.4-4.771-34.133-6.721-37.817-2.1-3.973-14.952-5.72-14.952-5.72a69.939,69.939,0,0,1,2.853,13.9c.8,7.868,9.351,23.2,9,24.491-.088.324-1.12,1-2.627,1.864-4.466,2.543-13.1,6.642-13.621,7.6-.7,1.285,2.22,5.962,2.22,5.962" transform="translate(-1506.925 -448.962)" fill="#d9935c"></path><path id="Trazado_4331" data-name="Trazado 4331" d="M1814.443,797.406s-6.429-2.572-8.007-1.52-4.208,2.63-4.208,3.682,3.331,3.858,6.137,4.734,8.3-.935,8.3-.935Z" transform="translate(-1456.007 -642.787)" fill="#d9935c"></path><path id="Trazado_4332" data-name="Trazado 4332" d="M1891.544,569.621c.8,7.868,9.351,23.2,9,24.491-.088.324-1.12,1-2.627,1.864a2.629,2.629,0,0,0,.289.005c6.726-.3,9.77,3.424,10.547,4.576,1.066-.8,1.61-1.3,1.61-1.3,5.9-12.4-4.771-34.133-6.721-37.817-2.1-3.973-14.952-5.72-14.952-5.72a69.933,69.933,0,0,1,2.853,13.9" transform="translate(-1525.86 -448.961)" fill="#ffa412"></path><path id="Trazado_4333" data-name="Trazado 4333" d="M1807.667,442.845s12.367,2.5,13.8-5.227,4-12.606-3.834-14.528-9.922.74-11.029,3.2-2.121,15.7,1.059,16.553" transform="translate(-1458.675 -341.28)" fill="#d9935c"></path><path id="Trazado_4334" data-name="Trazado 4334" d="M1823.715,426.4s2.391-5.1,4.385-7.369.906-13.6-7.7-13.233-11.692,6.526-11.782,7.7,6.888.272,8.791,1.813.091,4.079,2.266,4.985,3.9.907,3.535,2.9a4.373,4.373,0,0,0,.509,3.2" transform="translate(-1461.165 -327.838)" fill="#233862"></path><path id="Trazado_4335" data-name="Trazado 4335" d="M1809.763,376.574a13.622,13.622,0,0,1,5.692,2.8c.137.117.27.238.4.361l0,0c5.106,4.869,3.069,12.619,3.069,12.619a20.4,20.4,0,0,1-1.148,2.718c-.468.76-7.247-.117-7.6-1.578a8.548,8.548,0,0,0-1.695-2.981s-7.147-.491-7.628-.526a42.364,42.364,0,0,1-6.222-1.72c.053-.452,2.646-14.829,15.13-11.694" transform="translate(-1449.871 -303.872)" fill="#ffa412"></path><path id="Trazado_4336" data-name="Trazado 4336" d="M1770.9,400.331a24.272,24.272,0,0,1,4.728-.531,19.307,19.307,0,0,0,6.044,2.952c1.89-2.381,7.274-8.12,14.284-9.8l.061-.016c.149.188.233.251.337.377l0,0a1.519,1.519,0,0,1,.1.135c-5.707.994-11.131,7.4-12.993,9.8a31.815,31.815,0,0,0,5.519.84s-12.491.233-18.2-2.773a.534.534,0,0,1,.116-.992" transform="translate(-1430.368 -317.453)" fill="#e27f2b"></path><path id="Trazado_4337" data-name="Trazado 4337" d="M1706.359,676.541a3.569,3.569,0,0,0,2.956,3.123c-.079-.182-.149-.356-.211-.517a3.157,3.157,0,0,1-.291-1.2c.075-.763,2.472-2.618,5.259-4.818a20.055,20.055,0,0,0,0-7.894c-.964-3.595-7.978,9.819-7.715,11.31" transform="translate(-1378.549 -536.944)" fill="#e27f2b"></path><path id="Trazado_4338" data-name="Trazado 4338" d="M1938.062,760.525s8.592-.7,11.4,4.3a1.4,1.4,0,0,1-1.9,1.171s-7.268-4.967-10.836-4.582a1.936,1.936,0,0,1,1.341-.885" transform="translate(-1564.663 -614.397)" fill="#e27f2b"></path><path id="Trazado_4339" data-name="Trazado 4339" d="M1675.792,738.324a31.169,31.169,0,0,0-10.069,2.631s-1.246-1.224-.749-1.925,8.4-3.223,10.818-.705" transform="translate(-1345.027 -595.604)" fill="#e27f2b"></path><path id="Trazado_4340" data-name="Trazado 4340" d="M697.023,923.75s-8.82,9.1-9.243,12.538,4.2,8.8,4.2,8.8Z" transform="translate(-555.63 -746.292)" fill="#4a75cb"></path><path id="Trazado_4341" data-name="Trazado 4341" d="M755.638,1409.056s.3,4.84,1.237,4.91c.125.009,4.75.009,4.75.009l5.9-.034a1.916,1.916,0,0,0-1.765-1.724c-1.726-.3-4.614-1.514-5.66-3.795-1.1-2.4-4.466.633-4.466.633" transform="translate(-610.475 -1137.109)" fill="#163560"></path><path id="Trazado_4342" data-name="Trazado 4342" d="M687.184,1409.056s.3,4.84,1.237,4.91c.125.009,4.75.009,4.75.009l5.922-.021a1.953,1.953,0,0,0-1.782-1.737c-1.726-.3-4.615-1.514-5.66-3.795-1.1-2.4-4.466.633-4.466.633" transform="translate(-555.171 -1137.109)" fill="#163560"></path><path id="Trazado_4343" data-name="Trazado 4343" d="M705.442,1114.1s-1.544,9.876-7.3,27.407-6.545,25.123-6.545,25.123a25.381,25.381,0,0,1-3.2.226,20.289,20.289,0,0,1-2.976-.4s-.053-19.16,2.6-27.976.573-31.782.573-31.782Z" transform="translate(-553.74 -894.098)" fill="#233862"></path><path id="Trazado_4344" data-name="Trazado 4344" d="M730.045,1109.518a239.72,239.72,0,0,1-2.356,33.156c-2.575,18.273-1.7,26.03-1.7,26.03s-2.12.38-2.865.4c-.8.026-3.3-.2-3.3-.2s-3.686-18.28-2.629-27.426-5.047-31.384-5.047-31.384Z" transform="translate(-575.336 -896.372)" fill="#2b478b"></path><path id="Trazado_4345" data-name="Trazado 4345" d="M743.182,897.286l2.909,2.154,4.2-.885c-.058-.383-.336-1.972-.588-3.411-.015-.085-.031-.17-.045-.253-.216-1.225-.4-2.277-.4-2.277l-3.926-1.957-1.464-.73c0,.026.113,1.359.129,1.554a12.571,12.571,0,0,1-.814,5.8" transform="translate(-600.411 -718.967)" fill="#ffb27d"></path><path id="Trazado_4346" data-name="Trazado 4346" d="M747.964,916.2c-.092-.039-5.718-1.7-6.33-1.5s-.973,1.384-.973,1.384l9.2,2.081a4.569,4.569,0,0,0-1.9-1.968" transform="translate(-598.375 -738.97)" fill="#4a75cb"></path><path id="Trazado_4347" data-name="Trazado 4347" d="M698.819,959.642c.954,4.351,16.826,4.867,20.917.917.465-.45.488-2.544.313-5.368-.343-5.517-1.446-13.816-1.489-18.056a33.576,33.576,0,0,0-.677-6.043,49.067,49.067,0,0,0-2.013-7.234s-7.753-2.506-9.2-2.08c-6.989,2.053-8.8,33.513-7.848,37.864" transform="translate(-564.381 -744.659)" fill="#739af0"></path><path id="Trazado_4348" data-name="Trazado 4348" d="M777.809,991.1c-.343-5.517-1.446-13.816-1.489-18.056a33.569,33.569,0,0,0-.677-6.044l-4.663-.823s-4.56,18.624,6.829,24.923" transform="translate(-622.14 -780.571)" fill="#4a75cb"></path><path id="Trazado_4349" data-name="Trazado 4349" d="M787.025,1052.834a1.1,1.1,0,0,0,.35,1.27,2.127,2.127,0,0,1,.948,1.941c-.153.6-1.617,1.589-2.125,1.43s-1.541-.954-1.429-1.273-.695-2.8.543-3.75a1,1,0,0,1,1.714.382" transform="translate(-633.882 -849.993)" fill="#ffb27d"></path><path id="Trazado_4350" data-name="Trazado 4350" d="M767.761,927s4.548.851,8.172,6.192,6.008,9.311,5.341,11.236-6.753,8.6-7.8,8.6a2.813,2.813,0,0,1-2.838-2.48s4.284-6.421,3.44-7.383c-.361-.411-5.562-4.634-6.3-2.726-1.229,3.156-.009-13.44-.009-13.44" transform="translate(-619.833 -748.917)" fill="#739af0"></path><path id="Trazado_4351" data-name="Trazado 4351" d="M748.484,894.609c.862,1.65,4.075,3.077,5.415,3.6-.015-.085-.031-.17-.045-.253-.216-1.224-.4-2.276-.4-2.276l-3.926-1.957c-.868-.013-1.4.206-1.04.885" transform="translate(-604.604 -722.033)" fill="#fca56b"></path><path id="Trazado_4352" data-name="Trazado 4352" d="M748.371,857.561s-6.934.8-7.364-3.529-1.614-7.136,2.795-7.828,5.435.873,5.929,2.282.433,8.756-1.36,9.075" transform="translate(-598.273 -683.506)" fill="#ffb27d"></path><path id="Trazado_4353" data-name="Trazado 4353" d="M739.234,837.984s-1.324,4.687-2.27,4.293-1.811-.718-1.94.747.923,3.383-2.163,3.06-5.963-8.988-4.847-10.313c3.222-3.822,15.693-2.345,11.22,2.214" transform="translate(-587.959 -673.448)" fill="#233862"></path><path id="Trazado_4354" data-name="Trazado 4354" d="M358.553,1339.79H269.417c4.293-3.167,19.7-14.216,33.653-20.182,5.783-2.471,11.315-4.07,15.7-3.873,13.919.624,33.428,18.034,39.78,24.055" transform="translate(-217.66 -1062.961)" fill="#e27f2b"></path><path id="Trazado_4355" data-name="Trazado 4355" d="M724.465,834.421l15.269-3.074-1.089-.448s-2.177-6.4-9.926-4.931-4.255,8.453-4.255,8.453" transform="translate(-584.655 -667.117)" fill="#ffa412"></path></g></g></g></svg>