<svg xmlns="http://www.w3.org/2000/svg" id="Layer_2" viewBox="0 0 3000.62 1743.35"><defs><style>.cls-1{fill:#f99746;}.cls-2{fill:#f9ddbf;}.cls-3{fill:#f8fcff;}.cls-4{fill:#ed985f;}.cls-5{fill:#ebf3fa;}.cls-6{fill:#ed7d2b;}.cls-7{fill:#e8945b;}.cls-8{fill:#fff;}.cls-9{fill:#ffefe1;}.cls-10{fill:#f2ccaa;}.cls-11{fill:#ffb27d;}.cls-12{fill:#eef6ff;}.cls-13{fill:#80a3d8;}.cls-14{fill:#9fc1f4;}.cls-15{fill:#afcdfb;}.cls-16{fill:#d1e3fb;}.cls-17{fill:#dfebfa;}.cls-18{fill:#112544;}.cls-19{fill:#163560;}.cls-20{fill:#233862;}.cls-21{fill:#416299;}.cls-22{fill:#2b478b;}.cls-23{fill:#2c3a64;}.cls-24{fill:#2e3552;}.cls-25{fill:#77a4e5;}.cls-26{opacity:.7;}</style></defs><g id="_&#x43B;&#x43E;&#x439;_1"><g><path class="cls-5" d="m2959.14,1506.37c0,.93-.01,1.86-.03,2.79-.04,1.96-.09,3.9-.16,5.85-.86,23.96-4.8,47.49-12.76,70.73-.35,1.02-.71,2.04-1.07,3.05-14.76,41.2-42.34,81.41-88.01,121.29-9.24,8.07-19.23,16.12-29.99,24.15-2.51,1.88-5.08,3.75-7.68,5.64l-77.44-.03-1586.67-.5-114.15-.04-898.16-.29s-.63-1.63-1.81-4.79c-6.7-18.07-31.03-86.06-54.22-180.76-23.9-97.64-45.27-252.94-45.93-415.37-.01-5.62-.01-11.26.01-16.9.94-192.42,31.65-392.34,122.05-516.42,1.06-1.47,2.13-2.92,3.22-4.36,1.57-2.08,3.14-4.16,4.71-6.21.71-.93,1.41-1.83,2.13-2.75,249.69-322.92,648.54-322.41,841.58-301.9,18.92,2.01,35.85,4.21,50.46,6.32,8.8,1.27,16.77,2.5,23.82,3.64,275.84,44.48,400.33-94.2,400.33-94.2C1683.86,26.18,1867.77-17.56,2122.25,5.77c31.93,2.9,63.66,7.26,94.98,12.98,123.87,22.57,241.69,66.53,342.82,129.1,10.96,6.78,21.72,13.76,32.26,20.98,3.79,2.59,7.56,5.22,11.32,7.88,13.41,9.5,26.45,19.35,39.13,29.55,71.9,57.88,131.4,126.98,173.19,205.9,32.48,61.35,54.25,128.6,62.81,201.15,1.74,14.65,2.93,29.51,3.56,44.59h0c.82,19.75.71,39.86-.43,60.32-2.26,41-8.58,83.4-19.31,127.1t-.01.03c-.84,3.41-1.64,6.83-2.39,10.22-13.1,57.84-16,112.54-12.52,164.57,12.87,191.24,112.34,346.12,111.49,486.24Z"></path><g><path class="cls-17" d="m2594.07,738.52h-63.63v-140.79c-.99-.56-1.97-1.12-2.95-1.68h-18.97v-.07h-110.37v.07h-.09v21.1h.09v14.51h-.09v21.1h.09v14.57h-.09v21.1h.09v.08l-11.69-.08v-110.4h-123.85v13.98h-.06v21.1h.06v18.55h-.06v21.1h.06v14.57h-.06v21.1h.06v13.48h-.06v21.11h.06v13.48h-.06v21.1h.06v12.69h-.06v13.4h.06v1.46h-139.6v120.78h-52.15v30.42h-56.23v-52.4h-101.16v-142.35h-15.82v-14.18h-2.26v14.18h-13.12v-.02h-65.61v-14.16h-2.26v14.16h-17.1v71.59l-84.97-.39v44.18h-72.04v-273.13h-213.44v292.6h-65.18v-158.22h-213.44v1023.63l1458.5-5.51-12.63-997.81Z"></path><polygon class="cls-17" points="1148.4 904.61 1148.4 1000.55 1148.4 1143.27 1148.4 1734.86 1041.2 1734.86 1041.2 1143.27 1041.2 1000.55 1041.2 904.61 1148.4 904.61"></polygon><rect class="cls-17" x="2148.99" y="728.82" width="3.93" height="57.37"></rect><rect class="cls-17" x="2215.26" y="679.56" width="6.12" height="111.09"></rect><rect class="cls-17" x="1440.99" y="563.38" width="2.55" height="20.46"></rect><rect class="cls-17" x="1495.02" y="563.38" width="2.55" height="20.46"></rect><rect class="cls-17" x="1618.89" y="563.38" width="2.55" height="20.46"></rect><rect class="cls-17" x="2274.9" y="562.25" width="1.97" height="15.79"></rect><rect class="cls-17" x="2367.88" y="562.25" width="1.97" height="15.79"></rect><rect class="cls-17" x="1570.46" y="563.38" width="2.55" height="20.46"></rect><rect class="cls-12" x="1179.24" y="764.89" width="25.14" height="42.6"></rect><rect class="cls-12" x="1863.44" y="775.26" width="25.14" height="42.6"></rect><rect class="cls-12" x="1461.62" y="618.04" width="25.14" height="42.6"></rect><rect class="cls-12" x="1511.52" y="618.04" width="25.14" height="42.6"></rect><rect class="cls-12" x="2468.85" y="948.04" width="25.14" height="42.6"></rect><rect class="cls-12" x="1191.81" y="971.03" width="25.14" height="42.6"></rect></g><g><path class="cls-17" d="m2847.66,1020.13c-3.49-52.03-.57-106.73,12.51-164.57.77-3.39,1.56-6.8,2.4-10.22t.01-.03c10.73-43.7,17.04-86.1,19.31-127.1h-139.87v1021.61l77.44.03c2.6-1.88,5.16-3.75,7.68-5.64,10.75-8.03,20.75-16.08,29.99-24.15,45.67-39.88,73.24-80.09,88-121.29.37-1.01.72-2.03,1.07-3.05,7.96-23.24,11.9-46.77,12.75-70.73.07-1.95.12-3.88.16-5.85.01-.93.02-1.86.02-2.79.86-140.12-98.62-294.99-111.48-486.24Z"></path><polygon class="cls-17" points="2742.21 904.61 2742.21 1000.55 2742.21 1143.27 2742.21 1734.86 2643.02 1734.86 2643.02 1143.27 2643.02 1000.55 2643.02 904.61 2742.21 904.61"></polygon><rect class="cls-12" x="2770.75" y="764.89" width="23.26" height="42.6"></rect><path class="cls-12" d="m2862.58,845.32s-.01.01-.01.03c-.84,3.41-1.64,6.83-2.4,10.22v-10.24h2.42Z"></path><rect class="cls-12" x="2782.38" y="971.03" width="23.26" height="42.6"></rect></g><g><path class="cls-17" d="m1030.79,759.44h-53.47v-140.77c-.81-.58-1.64-1.12-2.45-1.69h-15.93v-.07h-92.71v.07h-.09v21.12h.09v14.51h-.09v21.1h.09v14.56h-.09v21.1h.09v.07l-9.83-.07v-110.39h-104.02v13.97h-.05v21.1h.05v18.55h-.05v21.1h.05v14.56h-.05v21.1h.05v13.46h-.05v21.13h.05v13.46h-.05v21.1h.05v12.7h-.05v13.4h.05v1.47h-117.25v120.78h-43.8v30.42h-47.22v-52.4h-84.97v-142.35h-13.29v-14.18h-1.9v14.18h-11.03s-55.1-.01-55.1-.01v-14.17h-1.9v14.17h-14.35v71.58l-71.37-.38v44.17h-60.51v-273.13h-66.55c-90.4,124.08-121.11,324-122.05,516.42-.03,5.64-.03,11.28-.01,16.9.67,162.42,22.03,317.73,45.93,415.37,23.18,94.71,47.52,162.7,54.22,180.76,1.18,3.15,1.81,4.79,1.81,4.79l898.16.33v-.04l-10.41-979.85Z"></path><rect class="cls-17" x="656.97" y="749.75" width="3.3" height="57.37"></rect><rect class="cls-17" x="712.62" y="700.49" width="5.14" height="111.09"></rect><rect class="cls-17" x="211.74" y="584.31" width="2.14" height="20.46"></rect><rect class="cls-17" x="762.71" y="583.19" width="1.65" height="15.79"></rect><rect class="cls-17" x="840.8" y="583.19" width="1.65" height="15.79"></rect><path class="cls-17" d="m173.21,591.45v13.33h-2.13v-10.58c.71-.93,1.41-1.83,2.13-2.75Z"></path><rect class="cls-12" x="171.07" y="630.56" width="21.11" height="42.6"></rect><rect class="cls-12" x="238.47" y="976.68" width="21.11" height="42.6"></rect><rect class="cls-12" x="356.1" y="1101.39" width="21.11" height="42.6"></rect><rect class="cls-12" x="99.3" y="895.1" width="21.11" height="42.6"></rect><rect class="cls-12" x="773.41" y="619.91" width="21.11" height="42.6"></rect><rect class="cls-12" x="688.47" y="976.68" width="21.11" height="42.6"></rect><rect class="cls-12" x="860.82" y="1058.79" width="21.11" height="42.6"></rect></g><path class="cls-16" d="m1065.25,295.87v1442.01h-50.46V289.55c18.91,2.01,35.83,4.21,50.46,6.32Z"></path><path class="cls-16" d="m2642.76,206.26v1531.62h-50.44V168.83c3.79,2.59,7.57,5.22,11.31,7.88,13.41,9.5,26.46,19.35,39.13,29.55Z"></path><g><g><polygon class="cls-22" points="1374.17 1713.31 1342.86 1713.31 1334.08 1314.97 1381.9 1314.97 1374.17 1713.31"></polygon><polygon class="cls-22" points="1510.21 1713.31 1205.77 1713.31 1205.77 1685.81 1360.94 1671.82 1510.21 1685.81 1510.21 1713.31"></polygon><path class="cls-22" d="m1176.19,1708.99c0-13.83,11.21-25.04,25.04-25.04s25.04,11.21,25.04,25.04-11.21,25.04-25.04,25.04-25.04-11.21-25.04-25.04Z"></path><path class="cls-22" d="m1480.64,1708.99c0-13.83,11.21-25.04,25.04-25.04s25.04,11.21,25.04,25.04-11.21,25.04-25.04,25.04-25.04-11.21-25.04-25.04Z"></path><path class="cls-22" d="m1499.3,1341.1h-282.62c-14.43,0-26.13-11.7-26.13-26.13h334.89c0,14.43-11.7,26.13-26.13,26.13Z"></path></g><path class="cls-1" d="m1146.45,1314.97c-24,0-43.46-19.46-43.46-43.46v-347.18c0-68.74,44.94-124.46,100.37-124.46h226.98c55.44,0,100.37,55.72,100.37,124.46v390.64h-384.27Z"></path><path class="cls-6" d="m1150.94,1314.97c-13.16,0-23.83-10.67-23.83-23.83v-366.81c0-68.74,44.94-124.46,100.37-124.46h226.98c55.44,0,100.37,55.72,100.37,124.46v390.64h-403.9Z"></path><path class="cls-1" d="m1676.97,1314.97h-547.39c-15.21,0-27.54-12.33-27.54-27.54h0c0-15.21,12.33-27.54,27.54-27.54h547.39c15.21,0,27.54,12.33,27.54,27.54h0c0,15.21-12.33,27.54-27.54,27.54Z"></path></g><path class="cls-3" d="m1679.01,209.94s23.65-39.76,80.2-35.34c0,0,82.11-66.27,169.67-8.84,0,0,93.07-14.23,162,12.32,45.96,17.7,61.14,36.27,61.14,36.27l-473.01-4.42Z"></path><path class="cls-3" d="m2030.81,319.03s13.74-24.24,46.58-21.55c0,0,47.69-40.41,98.54-5.39,0,0,54.06-8.68,94.09,7.51,26.69,10.79,35.51,22.12,35.51,22.12l-274.73-2.69Z"></path><path class="cls-3" d="m1154.17,494.72s18.55-32.75,62.92-29.11c0,0,64.42-54.58,133.11-7.28,0,0,73.02-11.72,127.1,10.15,36.05,14.58,47.96,29.88,47.96,29.88l-371.09-3.64Z"></path><g><path class="cls-20" d="m2267.77,1734.39s0-21.46,3.06-28.6c3.06-7.14,14.27-36.2,14.27-36.2h43.84s8.16,26.51,8.67,35.18c.51,8.67,0,29.62,0,29.62h-69.84Z"></path><path class="cls-20" d="m2546.13,1734.39s0-21.46-3.06-28.6c-3.06-7.14-14.27-36.2-14.27-36.2h-43.84s-8.16,26.51-8.67,35.18c-.51,8.67,0,29.62,0,29.62h69.84Z"></path><path class="cls-11" d="m2370.49,529.71s-1.54,47.79-7.66,69.2l-48.42,33.77,182.25,27.27-43.46-60.05s-13.12-64.08-6.24-87.79c6.88-23.7-76.47,17.59-76.47,17.59Z"></path><path class="cls-4" d="m2370.23,536.31s14.41,34.69,41.56,33.93c27.15-.77,33.33-31.46,33.33-31.46l-74.88-2.47Z"></path><path class="cls-23" d="m2354.02,508.22s-8.77-43.76-14.88-57.02c-6.12-13.25-11.22-72.39,56.59-75.45,0,0,26,3.06,40.27-5.61,0,0,0,8.67-3.57,11.73,0,0,23.45-5.61,41.8,14.78,18.35,20.39-12.23,91.76-10.7,108.59l-109.51,2.98Z"></path><path class="cls-11" d="m2408.67,556.83c-19.67-.35-55.87-26.54-55.87-58.97v-50.61c0-11.84,8.26-21.53,18.35-21.53h75.04c10.09,0,18.35,9.69,18.35,21.53v47.75c0,34.01-33.31,62.23-55.87,61.84Z"></path><path class="cls-23" d="m2352.8,474.27s.1-30.41,24.19-35.09c24.09-4.68,78,14.82,85.64-7.35,7.65-22.18-104.2-21.79-109.84-7.65-5.63,14.15,0,50.09,0,50.09Z"></path><path class="cls-22" d="m2273.26,991.09s7.67,234.23-3.8,367.88c-11.47,133.65.08,319.64.08,319.64,0,0,36.68,20.23,76.45,0,0,0,43.61-258.19,43.33-319.64-.29-65.44,47.46-357.67,47.46-357.67l-163.53-10.21Z"></path><path class="cls-22" d="m2544.55,1678.6s-36.67,20.23-76.44,0c0,0-43.6-258.19-43.33-319.64.12-27.64-8.32-95.74-18.12-165.17-13.41-94.99-29.35-192.49-29.35-192.49l169.87-10.61s-14.01,234.63-2.54,368.27c11.47,133.65-.09,319.64-.09,319.64Z"></path><path class="cls-14" d="m2545.14,1030.06s-72.42,14.02-138.48,14.02c-28.81,0-60.12-3.17-85.05-6.5-27.56-3.66-47.32-7.52-47.32-7.52,0,0-14.68,1.29-6.01-71.1,6.59-55.09,4.53-104.82,3.06-155.99-.17-5.69-.05-12.42.31-19.91,2.81-59.66,20.86-167.07,34.61-172.83,0,0,20.45-7.6,56.57-11.3,0,.7,20.97,31.35,45.85,34.79,15.46-6.12,27.61-11.33,44.52-33.8,21.43,2.49,44.8,6.74,69.79,13.46,0,0,2.6,11.38,12.42,208.79,3.9,78.2,30.59,208.16,9.74,207.9Z"></path><path class="cls-20" d="m2424.78,1358.96c.12-27.64-8.32-95.74-18.12-165.17,10.17-41.48,34.95-81.39,34.95-81.39,31.35,87.94-16.82,246.56-16.82,246.56Z"></path><path class="cls-14" d="m2204.42,845.2c-1.73,1.44,4.3,16.36,13.17,35.82,18.26,39.96,48.59,98.98,48.59,98.98-4.39,16.66-9.21,26.95-9.21,26.95-51.02-40.08-83.92-74.19-104.91-100.34-29.52-36.78-35.57-57.87-35.57-57.87,113.6-231.24,193.55-239.76,193.55-239.76l-9.44,152.82s-90.91,79.04-96.17,83.41Z"></path><path class="cls-11" d="m2260.12,982.91s27.53-25.49,38.74-11.22c11.21,14.27,13.25,36.71,4.59,35.18-8.67-1.53-26.51-9.69-29.06-5.61-2.55,4.08-13.97,11.87-17.44,5.68-3.47-6.19,3.16-24.03,3.16-24.03Z"></path><path class="cls-11" d="m2266.17,980c-4.39,16.66-9.21,26.95-9.21,26.95-51.02-40.08-83.92-74.19-104.91-100.34,15.83-1.18,38.94-6.84,65.53-25.59,18.26,39.96,48.59,98.98,48.59,98.98Z"></path><path class="cls-14" d="m2704.93,848.74s-6.06,21.09-35.57,57.87c-21,26.15-53.9,60.26-104.91,100.34,0,0-4.82-10.29-9.21-26.95,0,0,30.33-59.02,48.59-98.98,8.87-19.45,14.9-34.38,13.17-35.82-4.08-3.4-59.62-51.65-84.39-73.16-7.19-6.25-11.78-10.25-11.78-10.25l-5.67-150.55s76.18,6.25,189.78,237.49Z"></path><path class="cls-11" d="m2561.28,982.91s-27.53-25.49-38.74-11.22c-11.22,14.27-13.25,36.71-4.59,35.18,8.67-1.53,26.51-9.69,29.06-5.61,2.55,4.08,13.97,11.87,17.44,5.68,3.47-6.19-3.16-24.03-3.16-24.03Z"></path><path class="cls-11" d="m2555.23,980c4.39,16.66,9.21,26.95,9.21,26.95,51.02-40.08,83.92-74.19,104.91-100.34-15.83-1.18-38.94-6.84-65.53-25.59-18.26,39.96-48.59,98.98-48.59,98.98Z"></path><path class="cls-6" d="m2365.37,587.26s-8.09,3.37-10.39,12.55c0,0,32.46,33.39,53.7,33.9l-43.31-46.45Z"></path><path class="cls-6" d="m2408.68,633.71l41.9-48.13s8.65,5.69,8.53,15.06c0,0-32.41,34.35-50.42,33.07Z"></path><path class="cls-1" d="m2401.12,630.17s-31.98,276.05-20.84,309.7c5.73,17.32,13.41,32.3,19.5,42.77,4.39,7.53,15.27,7.51,19.62-.04,8.49-14.74,19.59-36.08,19.59-46.91,0-17.54-24.26-305.76-24.26-305.76l-13.6.24Z"></path><path class="cls-6" d="m2392.76,616.63s19.33-1.94,31.09-.74c2.33.24,3.63,2.79,2.5,4.84-3.3,5.94-10.03,16.23-17.06,16.23-9.89,0-25.29-19.64-16.53-20.32Z"></path><path class="cls-8" d="m2393,524.23s6.13,8.29,16.83,7.99,15.73-7.99,15.73-7.99c0,0-18.06-2.96-32.56,0Z"></path></g><g><polygon class="cls-21" points="2003.48 1073.53 1639.58 1074.14 1693.16 834.04 2057.07 833.43 2003.48 1073.53"></polygon><polygon class="cls-20" points="2014.99 1073.81 1651.09 1074.43 1704.66 834.02 2068.56 833.41 2014.99 1073.81"></polygon><polygon class="cls-18" points="1853.71 1133.67 1778.12 1134.37 1830.45 974.85 1906.05 974.15 1853.71 1133.67"></polygon><rect class="cls-18" x="1731.44" y="1126.76" width="165.09" height="7.6"></rect></g><g><polygon class="cls-8" points="1621.65 1133.58 1308.16 1133.58 1298.39 1061.68 1611.88 1061.68 1621.65 1133.58"></polygon><polygon class="cls-14" points="1269.52 1133.31 1298.39 1061.68 1308.16 1133.58 1269.52 1133.31"></polygon></g><g><g><g><polygon class="cls-20" points="953.8 1118.28 960.61 1118.28 960.61 1000.97 890.91 823.13 1015.36 726.69 1011.18 721.31 882.71 820.87 953.8 1002.26 953.8 1118.28"></polygon><path class="cls-20" d="m1029.42,738.98h0c3.13-2.22,3.87-6.56,1.65-9.69l-10.37-14.62c-2.22-3.13-6.56-3.87-9.69-1.65h0c-3.13,2.22-3.87,6.56-1.65,9.69l10.37,14.62c2.22,3.13,6.56,3.87,9.69,1.65Z"></path><path class="cls-20" d="m897.38,821.08c0-4.98-4.04-9.02-9.02-9.02s-9.02,4.04-9.02,9.02,4.04,9.02,9.02,9.02,9.02-4.04,9.02-9.02Z"></path></g><g><path class="cls-20" d="m924.13,1114.9h68.55v6.42c0,7.23-5.87,13.1-13.1,13.1h-42.86c-6.95,0-12.59-5.64-12.59-12.59v-6.92h0Z" transform="translate(1916.81 2249.32) rotate(180)"></path><rect class="cls-20" x="950.04" y="1009.28" width="14.4" height="109" transform="translate(1914.47 2127.57) rotate(180)"></rect></g></g><g><path class="cls-1" d="m1013.99,840.16c.32.36.65.73.98,1.07l.07.08c.32.35.64.69.96,1.02,9.31,8.08,40.16-6.4,70.01-33.09,29.84-26.68,47.67-55.74,40.68-65.89-.29-.36-.59-.72-.91-1.07l-.07-.08c-.3-.37-.62-.73-.95-1.1-27.36-30.59-74.33-33.21-104.92-5.86-30.59,27.36-33.21,74.32-5.86,104.92Z"></path><path class="cls-2" d="m1014.97,841.23l.07.07c.1.14.2.26.31.37.2.24.43.44.66.65,9.3,8.07,40.16-6.39,70-33.09,29.84-26.67,47.67-55.73,40.69-65.88-.19-.26-.37-.51-.58-.73-.1-.12-.21-.24-.34-.34l-.07-.09c-6.34-6-23.54-.65-43.63,12.36-8.55,5.54-17.63,12.47-26.62,20.51-7.05,6.32-13.44,12.76-18.99,19.04-18.1,20.56-27.23,39.53-21.49,47.13Z"></path><path class="cls-9" d="m1036.47,794.1c5.26,4.34,12.02,6.93,19.4,6.93,16.91,0,30.62-13.71,30.62-30.62,0-5.81-1.62-11.24-4.41-15.86-8.55,5.54-17.63,12.47-26.62,20.51-7.05,6.32-13.44,12.76-18.99,19.04Z"></path></g></g><g class="cls-26"><g><path class="cls-25" d="m1921.49,1522.66s-37.66-43.94-2.32-71.85c0,0,25.82-15.63,46.86-14.36,0,0-29.83,50.01-20.18,54.99,9.65,4.97,29.22-58.13,29.22-58.13,0,0,58.75-5.7,77.64,3.39,0,0-50.22,41.1-39.64,43.54,10.58,2.45,64.82-37.89,64.82-37.89,0,0,54.67,9.3,51.76,42.66-2.92,33.35-21.75,43.65-30.04,42.77-8.28-.89-56.72-19.38-57.77-12.59-1.06,6.78,28.1,28.96,48.52,29.99,0,0-38.55,42.51-64.17,30.24-25.62-12.27-27.81-31.72-43.78-39.01-15.97-7.29-29.6-7.28-23.01.16,6.59,7.44,35.5,14.67,44.63,30.82,9.13,16.16,17.33,27.05-9.18,23.06-26.51-3.99-69.59-23.38-71.48-45.59l-1.89-22.21Z"></path><g><path class="cls-25" d="m2102.78,1485.91s-148.5-5.72-181.3,36.75c0,0-7.25,21.72-29.57,41.5l-3.48,9.48s25.73-27.13,34.94-28.77c0,0-14.4-52.62,179.41-58.96Z"></path><path class="cls-25" d="m1891.92,1564.16s-31.88,23.57-34.09,65.69l5.79.52s10.18-43.55,28.58-60.58c18.4-17.03-.28-5.63-.28-5.63Z"></path></g></g><g><path class="cls-25" d="m1805.35,1486.7s52.82-29.58,28.17-69.72c0,0-19.72-24.65-40.84-30.98,0,0,11.27,59.86,0,61.27-11.27,1.41-7.75-67.6-7.75-67.6,0,0-55.63-26.76-77.46-24.65,0,0,34.51,58.45,23.24,57.04-11.27-1.41-50-60.56-50-60.56,0,0-57.04-10.56-66.2,23.24-9.15,33.8,5.63,50.7,14.08,52.82,8.45,2.11,62.67,1.41,61.27,8.45-1.41,7.04-38.03,18.31-58.45,11.97,0,0,22.54,55.63,52.11,52.81,29.58-2.82,38.73-21.13,57.04-22.53,18.31-1.41,31.69,3.52,22.53,8.45-9.15,4.93-40.14,1.62-54.93,14.19-14.79,12.57-26.76,20.32.7,25.95,27.46,5.63,76.76,2.11,86.62-19.01l9.86-21.13Z"></path><g><path class="cls-25" d="m1640.56,1385.3s147.88,47.89,164.78,101.41c0,0-.7,23.94,14.08,51.41v10.56s-15.49-35.91-23.94-40.84c0,0,33.1-46.48-154.92-122.53Z"></path><path class="cls-25" d="m1819.43,1538.11s22.81,34.63,9.8,76.79l-5.87-1.58s5.7-46.43-6.24-69.79c-11.93-23.35,2.3-5.43,2.3-5.43Z"></path></g></g><g><path class="cls-14" d="m1885.12,1421.13s-78.98-44.23-42.12-104.25c0,0,29.49-36.86,61.08-46.33,0,0-16.85,89.51,0,91.61,16.85,2.11,11.58-101.09,11.58-101.09,0,0,83.19-40.02,115.83-36.86,0,0-51.6,87.4-34.75,85.29,16.85-2.11,74.76-90.56,74.76-90.56,0,0,85.29-15.8,98.98,34.75,13.69,50.55-8.42,75.82-21.06,78.98-12.64,3.16-93.72,2.11-91.61,12.64,2.11,10.53,56.86,27.38,87.4,17.9,0,0-33.7,83.19-77.92,78.98-44.23-4.21-57.92-31.59-85.29-33.7-27.38-2.11-47.39,5.27-33.7,12.64,13.69,7.37,60.02,2.41,82.14,21.21,22.11,18.8,40.02,30.38-1.05,38.81-41.07,8.42-114.78,3.16-129.52-28.43l-14.74-31.59Z"></path><g><path class="cls-14" d="m2131.53,1269.49s-221.13,71.61-246.41,151.64c0,0,1.05,35.8-21.06,76.87v15.79s23.17-53.7,35.8-61.08c0,0-49.49-69.5,231.67-183.23Z"></path><path class="cls-14" d="m1864.06,1498s-34.1,51.79-14.66,114.83l8.77-2.36s-8.52-69.43,9.33-104.36c17.84-34.92-3.44-8.11-3.44-8.11Z"></path></g></g><path class="cls-14" d="m1887.03,1735.41c75.32,0,136.38-61.06,136.38-136.38h-272.75c0,75.32,61.06,136.38,136.38,136.38Z"></path><path class="cls-15" d="m1920.59,1734.36c-5.55.69-11.2,1.04-16.94,1.04-75.32,0-136.37-61.06-136.37-136.38h33.88c0,69.58,52.11,126.99,119.43,135.33Z"></path><rect class="cls-25" x="1746.17" y="1599.03" width="280.34" height="4.18"></rect><path class="cls-25" d="m1828.79,1735.41h127.69c0-6.04-4.9-10.94-10.94-10.94h-105.81c-6.04,0-10.94,4.9-10.94,10.94h0Z"></path></g><g><path class="cls-22" d="m855.06,1742.1h-.52c-3.08,0-5.56-4.04-5.49-8.95l8.33-574.86,24.53-4.56-20.92,579.45c-.18,5-2.78,8.91-5.92,8.91Z"></path><path class="cls-22" d="m2088.56,1742.1h.52c3.08,0,5.56-4.04,5.49-8.95l-8.33-574.86-24.53-4.56,20.92,579.45c.18,5,2.78,8.91,5.92,8.91Z"></path><path class="cls-22" d="m809.21,1134.19h1332.21c8.37,0,15.16,6.79,15.16,15.16v4.37c0,8.37-6.79,15.16-15.16,15.16H809.21c-8.37,0-15.16-6.79-15.16-15.16v-4.37c0-8.37,6.79-15.16,15.16-15.16Z"></path></g><g><path class="cls-19" d="m430.57,738.6c-4.67-9.01,101.95-41.47,103.64,47.48,0,0,199.73-4.91,104.36-116.24-33.02-38.54-29.62-70.41-28.63-100.07,1-29.67-20.56-115.89-94.49-107.2,0,0-19.36-7.88-43.52,4.66-54.95,28.51-178.04,304.17-41.36,271.37Z"></path><path class="cls-11" d="m757.11,838.04s13-19.79,23.48-20.18c10.48-.39,29.88-5.82,28.33-1.94-1.55,3.88-13.58,4.27-14.75,6.6-1.16,2.33,17.85,5.82,23.28,6.21s18.24,0,17.85,2.72c-.39,2.72-23.08,13.97-39.09,12.42-16.01-1.55-35.8,4.66-35.8,4.66l-3.3-10.48Z"></path><path class="cls-14" d="m762.93,860.74s-27.32,37.09-63.64,53.21c0,0-.01,0-.05.01-12.83,5.7-26.81,8.78-41.09,6.67-10.37-1.53-20.03-5.22-28.85-10.22-16.59-9.35-30.25-23.26-40.33-35.9-3.05-3.81-5.76-7.51-8.14-10.92-7.64-11-11.75-19.15-11.75-19.15l9.24-158.04s33.06,7.67,42.77,22.41c9.71,14.76,50.45,132.14,57.43,135.63,6.99,3.49,80.34-13,80.34-13,0,0,10.48,11.84,4.07,29.31Z"></path><path class="cls-20" d="m295.44,1636.19s-22.38,20.42-18.01,34.94c4.37,14.51,24.56,24.19,27.29,41.92,2.73,17.74,13.65,27.41,23.47,27.41h46.84s7.23-12.48-10.24-16.25c-17.47-3.76-24.05-24.61-22.96-43.96,1.09-19.35-1.64-45.15-1.64-45.15l-37.12-8.6-7.64,9.68Z"></path><path class="cls-20" d="m484.87,1644.86s-8.05,86.53,1.77,91.36l125.75-.26s0-14.51-20.2-17.74c-20.2-3.22-55.68-15.05-61.68-41.39-6-26.34-45.64-31.98-45.64-31.98Z"></path><path class="cls-13" d="m629.3,910.42c-16.59-9.35-30.25-23.26-40.33-35.9-3.05-3.81-5.76-7.51-8.14-10.92,6.93-32.76,17.1-77.8,14.9-49.28-2.85,37.02,26.05,84.46,33.57,96.11Z"></path><path class="cls-11" d="m395.26,1024.1c25.88-58.03,41.71-74.69,38.69-92.7-2.25-13.41,6.85-249.95,6.85-249.95,3.07-.95,9.22-1.8,12.59-2.55,10.61-2.36,19.4-9.81,23.06-20.05,4.4-12.33,7.91-30.55,7.82-53.37l3.31.65,55.73,11.04s-1.27,17.54-1.31,34.06c0,.14,0,.27,0,.41-.07,14.35,9.35,27.02,23.13,31,7.04,2.03,13.17,3.77,13.17,3.77,0,0,20.47,58.43,24.37,118.45,3.91,60.03-37.22,86.1.31,206.05,38.31,122.51-222.03,45.25-207.73,13.19Z"></path><path class="cls-7" d="m543.32,617.16s-1.27,17.54-1.31,34.06c-31.19-.88-47.67-29.33-54.43-45.1l55.73,11.04Z"></path><path class="cls-11" d="m553.74,632.81s-73.79,1.22-73.84-44.75c-.05-45.97-9.61-76.76,37.5-79.49,47.11-2.72,56.28,14.81,60.03,30.15,3.75,15.34-4.5,92.58-23.69,94.09Z"></path><path class="cls-19" d="m551.01,507.45s-20.2,53.93-51.21,61.9c-31.01,7.97-44.46-.33-44.46-.33,0,0,23.78-18.89,28.72-51.87,0,0,51.71-35.36,66.95-9.69Z"></path><path class="cls-19" d="m546,511.83s14.98,5.6,21.15,16.53c6.03,10.69,11.17,24.84,9.98,42.2,0,0,15.22-36.65-1.88-57.39-18.14-21.99-29.24-1.34-29.24-1.34Z"></path><path class="cls-5" d="m537.68,604.29s5.09,6.7,15.28,6.22c8.2-.39,11.37-7.51,11.37-7.51,0,0-15.07-3.62-26.65,1.29Z"></path><path class="cls-14" d="m388.14,786.08s-1.87,26.42,0,58.12c1.25,21.01,22.5,49.16,25.52,56.12,7.57,17.46,16.1,20.3,16.1,20.3l66.02,16.18,23.21,5.68,73.21-21.87s33.34-93.07,19.96-145.46c-13.39-52.39-33.84-88.77-33.84-88.77,0,0-59.74,58.49-137.52-4.96l-52.66,104.64Z"></path><path class="cls-10" d="m407.47,852.78c1.25,21.01,3.18,40.59,6.19,47.55,7.57,17.46,16.1,20.3,16.1,20.3l66.02,16.18,28.67-8.43s-95.72-14.51-85.12-96.86l-31.88,21.26Z"></path><path class="cls-20" d="m587.55,934.76s36.25,112.85,38.58,151.27-69.3,545.79-72.18,563.49c-2.72,16.69-23.44,27.32-23.44,27.32,0,0-9.53,5.62-23.13,1.78-18.87-5.33-24.84-11.71-24.84-11.71,0,0-28.22-361.85-10.76-491.11,17.46-129.26,17.67-241.04,17.67-241.04h98.09Z"></path><path class="cls-22" d="m433.95,931.4s-55.3,74.2-60.46,124.36c-5.16,50.16-8.09,226.35-19.07,275.25-10.98,48.9-51.34,143-51.34,295.51,0,0,4.19,8.74,17.15,13.4,4.14,1.49,9.69,2.93,15.08,4.17,10.68,2.45,21.64-2.77,26.52-12.59,27.28-54.93,114.19-232.1,118.65-268.88,3.15-26.03,30.59-198.28,90.45-299.35,14.37-24.27-8.82-120.76-8.82-120.76l-128.15-11.1Z"></path><path class="cls-8" d="m539.32,605.52s1.28,5.42,14.75,4.58c0,0,11.31-.7,10.97-6.65,0,0-10.97-4.24-25.72,2.07Z"></path><path class="cls-20" d="m593.34,917.34s-14.55,11.51-43.47,12.09c-34.54.7-120.11-8.8-120.11-8.8,0,0-3.8,10.62-3.65,21.84,0,0,104.52,26.36,165.07,3.85,0,0,7.81-14.7,2.15-28.98Z"></path><path class="cls-8" d="m542.4,941.36c0-9.83,7.07-17.84,15.76-17.84s15.76,8,15.76,17.84-7.07,17.83-15.76,17.83-15.76-8-15.76-17.83Zm5.22,0c0,6.96,4.73,12.61,10.54,12.61s10.54-5.66,10.54-12.61-4.73-12.61-10.54-12.61-10.54,5.66-10.54,12.61Z"></path><rect class="cls-6" x="363.62" y="813.91" width="141.98" height="194.36" transform="translate(164.07 1883.6) rotate(-138.95)"></rect><path class="cls-11" d="m453.92,938.1s39.23,4.59,39.11,13.9c-.12,9.31-9.78,28.45-14.62,29.3-4.85.85-31.93-25.88-31.93-25.88l7.44-17.32Z"></path><path class="cls-14" d="m440.8,681.44s-52.38,3.67-72.46,52.48c-20.08,48.81-58.18,130.76-58.18,144.55s21.28,56.29,135.57,80.72c0,0,11.82-12.43,11.1-22.27,0,0-71.34-61.28-71.15-68.44.36-13.55,11.7-31.43,74.33-94.09,17.03-17.03-19.22-92.96-19.22-92.96Z"></path></g><rect class="cls-24" y="1734.21" width="3000.62" height="9.14" rx="3.64" ry="3.64"></rect></g></g></svg>