<svg xmlns="http://www.w3.org/2000/svg" xmlns:xlink="http://www.w3.org/1999/xlink" id="transporte-mercancias" width="568.708" height="278" viewBox="0 0 568.708 278"><defs><clipPath id="clip-path"><rect id="Rect&#xE1;ngulo_4045" data-name="Rect&#xE1;ngulo 4045" width="568.708" height="278" fill="none"></rect></clipPath><clipPath id="clip-path-3"><path id="Trazado_6486" data-name="Trazado 6486" d="M328.642,36.439c-40.06,23.3-86.911,30.663-132.658,25.726C106.937,53.622,44.7,162.71,97.149,235.058c0,0,24.715,36.509,24.715,36.509H601.219l-17.1-139.823C571.683,47.014,506.129.007,434.59,0,398.8,0,361.531,11.758,328.642,36.439" transform="translate(-77.942 -0.002)" fill="none"></path></clipPath><clipPath id="clip-path-4"><rect id="Rect&#xE1;ngulo_4008" data-name="Rect&#xE1;ngulo 4008" width="540.9" height="158.153" fill="none"></rect></clipPath><clipPath id="clip-path-6"><path id="Trazado_6499" data-name="Trazado 6499" d="M1029.953,361.227l-9.29-10.171L1008.6,362.072c1.418,1.57,9.87,10.769,11.027,12.122a12.488,12.488,0,0,0,18.489.046l26.173-29.053L1058.7,337.9Z" transform="translate(-1008.601 -337.899)" fill="none"></path></clipPath><clipPath id="clip-path-8"><path id="Trazado_6505" data-name="Trazado 6505" d="M668.039,398.094c.542,3.445-3.991,41.7-.276,43.352,4.375,4.98,9.186.9,13.2-2.048l-5.606-.056,5.351-37.608,10.135-6.785-7.082-12.479c-6,3.534-15.857,7.2-15.72,15.623" transform="translate(-666.286 -382.471)" fill="none"></path></clipPath><clipPath id="clip-path-10"><path id="Trazado_6509" data-name="Trazado 6509" d="M802.779,546.731l2.664,139.643h9.391l19.681-139.957Z" transform="translate(-802.779 -546.417)" fill="none"></path></clipPath><clipPath id="clip-path-12"><path id="Trazado_6512" data-name="Trazado 6512" d="M919.157,686.374h9.838l2.664-139.643-31.735-.314Z" transform="translate(-899.923 -546.417)" fill="none"></path></clipPath><clipPath id="clip-path-14"><path id="Trazado_6517" data-name="Trazado 6517" d="M873.8,151.406c.265,17.1,21.1,17.1,21.368,0,.663-8.817-5.122-13.193-10.854-13.192-5.759,0-11.463,4.42-10.514,13.192" transform="translate(-873.699 -138.214)" fill="none"></path></clipPath><clipPath id="clip-path-16"><path id="Trazado_6528" data-name="Trazado 6528" d="M813.46,285.484c-9.593-.353-18.236,9.4-19.43,19.536-.154,1.014-7.829,51.719-7.829,51.719h59.934L838.3,305c-1.915-12.758-10.943-19.732-21.59-19.732a25.3,25.3,0,0,0-3.255.213" transform="translate(-786.201 -285.271)" fill="none"></path></clipPath></defs><g id="Grupo_1403" data-name="Grupo 1403" clip-path="url(#clip-path)"><g id="Grupo_1371" data-name="Grupo 1371" transform="translate(0 0)"><g id="Grupo_1370" data-name="Grupo 1370" clip-path="url(#clip-path)"><path id="Trazado_6484" data-name="Trazado 6484" d="M121.864,271.567H601.219l-17.1-139.823C565.462,4.63,427.28-37.582,328.641,36.439c-40.06,23.3-86.911,30.663-132.658,25.726C106.936,53.622,44.7,162.71,97.148,235.058c0,0,24.715,36.509,24.715,36.509" transform="translate(-60.846 -0.002)" fill="#dcecfd"></path></g></g><g id="Grupo_1376" data-name="Grupo 1376" transform="translate(17.095 0)"><g id="Grupo_1375" data-name="Grupo 1375" clip-path="url(#clip-path-3)"><g id="Grupo_1374" data-name="Grupo 1374" transform="translate(0.132 119.847)" opacity="0.7"><g id="Grupo_1373" data-name="Grupo 1373"><g id="Grupo_1372" data-name="Grupo 1372" clip-path="url(#clip-path-4)"><path id="Trazado_6485" data-name="Trazado 6485" d="M78.545,702.91V599.153h74.41V546.417H285.334V611.8H435.461V558.021H540.049v33.192h79.4V704.57Z" transform="translate(-78.545 -546.417)" fill="#f1f8fe"></path></g></g></g></g></g><g id="Grupo_1378" data-name="Grupo 1378" transform="translate(0 0)"><g id="Grupo_1377" data-name="Grupo 1377" clip-path="url(#clip-path)"><path id="Trazado_6487" data-name="Trazado 6487" d="M1542.793,370.828h-33.039a4.357,4.357,0,0,0-4.227,3.3l-40.712,163.044,3,0,40.379-161.708a2.052,2.052,0,0,1,1.99-1.555h32.611a1.543,1.543,0,1,0,0-3.086" transform="translate(-1143.533 -289.494)" fill="#324d90"></path><path id="Trazado_6488" data-name="Trazado 6488" d="M2079.3,371.441h-33.093a4.357,4.357,0,0,0-4.227,3.3l-40.712,163.044,3,0,40.379-161.708a2.052,2.052,0,0,1,1.99-1.555H2079.3a1.543,1.543,0,1,0,0-3.086" transform="translate(-1562.324 -289.972)" fill="#324d90"></path><path id="Trazado_6489" data-name="Trazado 6489" d="M1540.972,1107.471c-.067-6.3-2.469-13.5-8.792-15.724-2.9-.663-5.974-.2-8.935-.307-7.841-1.146-13.438,5.788-13.594,16.031.158,10.244,5.752,17.174,13.594,16.03,2.961-.11,6.032.355,8.935-.307,6.281-2.137,8.766-9.559,8.792-15.724" transform="translate(-1178.535 -851.956)" fill="#152e60"></path><path id="Trazado_6490" data-name="Trazado 6490" d="M1290.083,1100.887c-1.425-4.4-4.9-9.068-9.925-9.091-3.141.015-6.4.008-9.481,0-6.058.143-10.927,7.418-10.828,16.313.1,8.772,5.006,15.831,11.084,15.783q4.611-.018,9.224,0c7.682-.349,11.052-9.342,11.011-16.049a22.24,22.24,0,0,0-1.086-6.958" transform="translate(-983.522 -852.33)" fill="#152e60"></path><rect id="Rect&#xE1;ngulo_4009" data-name="Rect&#xE1;ngulo 4009" width="79.192" height="97.64" transform="translate(382.516 152.394)" fill="#f08f3c"></rect><rect id="Rect&#xE1;ngulo_4010" data-name="Rect&#xE1;ngulo 4010" width="9.382" height="11.134" transform="translate(424.616 152.394)" fill="#fdf1e6"></rect><rect id="Rect&#xE1;ngulo_4011" data-name="Rect&#xE1;ngulo 4011" width="119.317" height="97.64" transform="translate(276.326 152.394)" fill="#f3ac4a"></rect><rect id="Rect&#xE1;ngulo_4012" data-name="Rect&#xE1;ngulo 4012" width="14.136" height="11.134" transform="translate(328.917 152.394)" fill="#fdf1e6"></rect><rect id="Rect&#xE1;ngulo_4013" data-name="Rect&#xE1;ngulo 4013" width="208.117" height="5.569" transform="translate(264.959 249.177)" fill="#324d90"></rect><rect id="Rect&#xE1;ngulo_4014" data-name="Rect&#xE1;ngulo 4014" width="104.058" height="5.569" transform="translate(264.959 249.177)" fill="#152e60"></rect><path id="Trazado_6491" data-name="Trazado 6491" d="M2003.142,1091.39q-3.617.019-7.232,0c-16.366-2.323-17.312,31.574-2.066,32.1q3.616-.019,7.232,0c16.366,2.324,17.312-31.574,2.066-32.1" transform="translate(-1548.06 -851.923)" fill="#152e60"></path><path id="Trazado_6492" data-name="Trazado 6492" d="M2046.668,1108.586c-.286,21.123-21.738,21.12-22.023,0,.286-21.122,21.738-21.12,22.023,0" transform="translate(-1580.574 -853.07)" fill="#324d90"></path><path id="Trazado_6493" data-name="Trazado 6493" d="M2064.742,1143.245c-.1,8.138-7.8,8.138-7.9,0,.1-8.138,7.8-8.137,7.9,0" transform="translate(-1605.711 -887.729)" fill="#152e60"></path><path id="Trazado_6494" data-name="Trazado 6494" d="M1753.338,1091.39q-3.617.019-7.232,0c-16.366-2.323-17.312,31.574-2.066,32.1q3.615-.019,7.232,0c16.365,2.324,17.312-31.574,2.066-32.1" transform="translate(-1353.046 -851.923)" fill="#152e60"></path><path id="Trazado_6495" data-name="Trazado 6495" d="M1796.864,1108.586c-.286,21.123-21.738,21.12-22.022,0,.286-21.122,21.738-21.12,22.022,0" transform="translate(-1385.56 -853.07)" fill="#324d90"></path><path id="Trazado_6496" data-name="Trazado 6496" d="M1814.939,1143.245c-.1,8.138-7.8,8.138-7.9,0,.1-8.138,7.8-8.138,7.9,0" transform="translate(-1410.698 -887.729)" fill="#152e60"></path><path id="Trazado_6497" data-name="Trazado 6497" d="M1058.7,337.9l-28.745,23.328-9.291-10.171L1008.6,362.072c1.418,1.57,9.87,10.769,11.027,12.122a12.488,12.488,0,0,0,18.489.046l26.173-29.053Z" transform="translate(-787.382 -263.787)" fill="#f4d2c6"></path></g></g><g id="Grupo_1380" data-name="Grupo 1380" transform="translate(221.219 74.112)"><g id="Grupo_1379" data-name="Grupo 1379" clip-path="url(#clip-path-6)"><path id="Trazado_6498" data-name="Trazado 6498" d="M1046.964,430.454l-7.877,17.119-8.7-7.668,13.756-13.329Z" transform="translate(-1025.611 -407.126)" fill="#eda19d"></path></g></g><g id="Grupo_1382" data-name="Grupo 1382" transform="translate(0 0)"><g id="Grupo_1381" data-name="Grupo 1381" clip-path="url(#clip-path)"><path id="Trazado_6500" data-name="Trazado 6500" d="M1205.348,404.77h-26.616a2.6,2.6,0,0,1-2.6-2.6V362.886a2.6,2.6,0,0,1,2.6-2.6h26.616a2.6,2.6,0,0,1,2.6,2.6v39.288a2.6,2.6,0,0,1-2.6,2.6" transform="translate(-918.171 -281.267)" fill="#324d90"></path><rect id="Rect&#xE1;ngulo_4016" data-name="Rect&#xE1;ngulo 4016" width="25.583" height="37.664" transform="translate(261.078 82.443)" fill="#f3f5fb"></rect><path id="Trazado_6501" data-name="Trazado 6501" d="M1233.638,361.275H1224.8a1.039,1.039,0,0,1-1.039-1.039V356.86a1.039,1.039,0,0,1,1.039-1.039h8.839a1.039,1.039,0,0,1,1.039,1.039v3.376a1.039,1.039,0,0,1-1.039,1.039" transform="translate(-955.349 -277.778)" fill="#152e60"></path><rect id="Rect&#xE1;ngulo_4017" data-name="Rect&#xE1;ngulo 4017" width="21.246" height="2.562" transform="translate(263.246 88.727)" fill="#e3eaf4"></rect><rect id="Rect&#xE1;ngulo_4018" data-name="Rect&#xE1;ngulo 4018" width="21.246" height="2.562" transform="translate(263.246 94.355)" fill="#e3eaf4"></rect><rect id="Rect&#xE1;ngulo_4019" data-name="Rect&#xE1;ngulo 4019" width="21.246" height="2.562" transform="translate(263.246 99.982)" fill="#e3eaf4"></rect><rect id="Rect&#xE1;ngulo_4020" data-name="Rect&#xE1;ngulo 4020" width="21.246" height="2.562" transform="translate(263.246 105.61)" fill="#e3eaf4"></rect><rect id="Rect&#xE1;ngulo_4021" data-name="Rect&#xE1;ngulo 4021" width="14.896" height="2.562" transform="translate(263.246 111.237)" fill="#e3eaf4"></rect><path id="Trazado_6502" data-name="Trazado 6502" d="M1229.536,333.174c-.4,3.369,2.354,5.116,4.979,6.436,3.827,2.346,9.134-1.5,7.983-5.876-.412-3.1-2.392-4.6-5.287-5.316-3.246-1.049-7.4,1.2-7.676,4.756" transform="translate(-959.828 -256.184)" fill="#f4d2c6"></path><rect id="Rect&#xE1;ngulo_4022" data-name="Rect&#xE1;ngulo 4022" width="35.256" height="21.454" transform="matrix(0.886, -0.465, 0.465, 0.886, 161.847, 80.526)" fill="#4292f3"></rect><path id="Trazado_6503" data-name="Trazado 6503" d="M680.7,401.736l10.136-6.785-7.082-12.479c-6,3.534-15.857,7.2-15.719,15.623.541,3.445-3.991,41.7-.276,43.352,4.375,4.981,9.186.9,13.2-2.048l-5.606-.056Z" transform="translate(-520.148 -298.584)" fill="#f4d2c6"></path></g></g><g id="Grupo_1384" data-name="Grupo 1384" transform="translate(146.139 83.888)"><g id="Grupo_1383" data-name="Grupo 1383" clip-path="url(#clip-path-8)"><path id="Trazado_6504" data-name="Trazado 6504" d="M725.6,371.61l3.667,14.676,8.408-5.474-5.758-12.559Z" transform="translate(-712.59 -371.372)" fill="#eda19d"></path></g></g><g id="Grupo_1386" data-name="Grupo 1386" transform="translate(0 0)"><g id="Grupo_1385" data-name="Grupo 1385" clip-path="url(#clip-path)"><rect id="Rect&#xE1;ngulo_4024" data-name="Rect&#xE1;ngulo 4024" width="21.454" height="35.256" transform="translate(203.025 83.917) rotate(-45)" fill="#4292f3"></rect><path id="Trazado_6506" data-name="Trazado 6506" d="M1026.816,412.288l-4.185-22.92,7.074,20.031Z" transform="translate(-798.335 -303.968)" fill="#3c7ed7"></path><path id="Trazado_6507" data-name="Trazado 6507" d="M802.78,546.731l2.664,139.643h9.391l19.681-139.957Z" transform="translate(-626.704 -426.57)" fill="#324d90"></path></g></g><g id="Grupo_1388" data-name="Grupo 1388" transform="translate(176.076 119.847)"><g id="Grupo_1387" data-name="Grupo 1387" clip-path="url(#clip-path-10)"><path id="Trazado_6508" data-name="Trazado 6508" d="M856.4,717.424c-13.645,18.126-17.754,78.257-18.831,104.345H845.8l10.189-63.975Z" transform="translate(-829.937 -679.917)" fill="#2a437d"></path></g></g><g id="Grupo_1390" data-name="Grupo 1390" transform="translate(0 0)"><g id="Grupo_1389" data-name="Grupo 1389" clip-path="url(#clip-path)"><path id="Trazado_6510" data-name="Trazado 6510" d="M931.658,546.731l-2.664,139.643h-9.837L899.922,546.417Z" transform="translate(-702.54 -426.57)" fill="#324d90"></path></g></g><g id="Grupo_1392" data-name="Grupo 1392" transform="translate(197.383 119.847)"><g id="Grupo_1391" data-name="Grupo 1391" clip-path="url(#clip-path-12)"><path id="Trazado_6511" data-name="Trazado 6511" d="M923.424,717.424c11.6,14.74,18,82.374,18.282,103.528h-7.569Z" transform="translate(-918.269 -679.917)" fill="#2a437d"></path></g></g><g id="Grupo_1394" data-name="Grupo 1394" transform="translate(0 0)"><g id="Grupo_1393" data-name="Grupo 1393" clip-path="url(#clip-path)"><path id="Trazado_6513" data-name="Trazado 6513" d="M868.184,185.4c.722,4.34-3.012,4.974-3.764.639-.722-4.339,3.012-4.974,3.764-.639" transform="translate(-674.753 -142.433)" fill="#eda19d"></path><path id="Trazado_6514" data-name="Trazado 6514" d="M963.538,185.4c-.722,4.34,3.012,4.974,3.764.639.722-4.339-3.012-4.974-3.764-.639" transform="translate(-752.13 -142.433)" fill="#eda19d"></path><path id="Trazado_6515" data-name="Trazado 6515" d="M895.172,151.406c-.266,17.1-21.1,17.1-21.368,0-1.9-17.5,22.7-17.674,21.368,0" transform="translate(-682.069 -107.9)" fill="#f4d2c6"></path></g></g><g id="Grupo_1396" data-name="Grupo 1396" transform="translate(191.631 30.315)"><g id="Grupo_1395" data-name="Grupo 1395" clip-path="url(#clip-path-14)"><path id="Trazado_6516" data-name="Trazado 6516" d="M878.391,151.763s8.075,1.67,18.9-1.337h0l-1.172-3.87-15.758.56-1.974,3.986" transform="translate(-877.362 -144.726)" fill="#eda19d"></path></g></g><g id="Grupo_1398" data-name="Grupo 1398" transform="translate(0 0)"><g id="Grupo_1397" data-name="Grupo 1397" clip-path="url(#clip-path)"><path id="Trazado_6518" data-name="Trazado 6518" d="M903.1,212.681H892.021c1.336,3.814-1.579,22.913-1.579,22.913h14.232s-2.915-19.1-1.579-22.913" transform="translate(-695.139 -166.033)" fill="#f4d2c6"></path><path id="Trazado_6519" data-name="Trazado 6519" d="M897.243,249.549a9.368,9.368,0,0,0,10.771,0l.3,3.464s-6.195,2.895-11.379.036Z" transform="translate(-700.21 -194.815)" fill="#eda19d"></path><path id="Trazado_6520" data-name="Trazado 6520" d="M878.42,120.1s13.972,1.391,17.575-.759,2.845-9.42,2.845-9.42c-2.049.327-25.259-.241-20.42,10.178" transform="translate(-685.237 -85.816)" fill="#59445a"></path><path id="Trazado_6521" data-name="Trazado 6521" d="M866.27,135.046s-3.9,1.171-4.371,2.771,2.8,7.786,2.8,7.786a1.9,1.9,0,0,0,1.836-1.472l1.215-5.221Z" transform="translate(-672.82 -105.426)" fill="#59445a"></path><path id="Trazado_6522" data-name="Trazado 6522" d="M958.375,135.046s3.9,1.171,4.371,2.771-2.8,7.786-2.8,7.786a1.928,1.928,0,0,1-1.837-1.474l-1.215-5.219Z" transform="translate(-747.014 -105.426)" fill="#59445a"></path><path id="Trazado_6523" data-name="Trazado 6523" d="M956.892,141.706s3.153-1.825,3.226-3.641c0,0,1.19,4.378-3.226,3.641" transform="translate(-747.014 -107.783)" fill="#34254b"></path><path id="Trazado_6524" data-name="Trazado 6524" d="M770.768,1184.519l-1.036,3.631-11.194,4.8a3.627,3.627,0,0,0-2.2,3.334h23.117l-.877-11.761Z" transform="translate(-590.45 -924.716)" fill="#152e60"></path><path id="Trazado_6525" data-name="Trazado 6525" d="M992.306,1184.519l1.036,3.631,11.194,4.8a3.627,3.627,0,0,1,2.2,3.334H983.617l.877-11.761Z" transform="translate(-767.878 -924.716)" fill="#152e60"></path><path id="Trazado_6526" data-name="Trazado 6526" d="M838.3,305c-2.108-14.041-12.83-21.076-24.844-19.52-9.593-.353-18.237,9.4-19.43,19.536-.154,1.014-7.829,51.719-7.829,51.719h59.934Z" transform="translate(-613.761 -222.702)" fill="#4292f3"></path></g></g><g id="Grupo_1400" data-name="Grupo 1400" transform="translate(172.44 62.569)"><g id="Grupo_1399" data-name="Grupo 1399" clip-path="url(#clip-path-16)"><path id="Trazado_6527" data-name="Trazado 6527" d="M795.209,441.325,806.244,429.5l-23.117-37.531,7.89,34.846-23.68,16.658Z" transform="translate(-771.475 -368.569)" fill="#3c7ed7"></path></g></g><g id="Grupo_1402" data-name="Grupo 1402" transform="translate(0 0)"><g id="Grupo_1401" data-name="Grupo 1401" clip-path="url(#clip-path)"><rect id="Rect&#xE1;ngulo_4029" data-name="Rect&#xE1;ngulo 4029" width="49.317" height="40.609" transform="translate(139.05 106.057) rotate(-24.033)" fill="#f3ac4a"></rect><rect id="Rect&#xE1;ngulo_4030" data-name="Rect&#xE1;ngulo 4030" width="7.667" height="6.106" transform="translate(158.07 97.575) rotate(-24.032)" fill="#fdf1e6"></rect><path id="Trazado_6529" data-name="Trazado 6529" d="M691.782,626.794c2.382.522,6.972.368,7.417,3.619l-7.417.374Z" transform="translate(-540.051 -489.318)" fill="#f4d2c6"></path><path id="Trazado_6530" data-name="Trazado 6530" d="M894.412,283.4c2.163,6.415,10.329,6.413,12.491,0,0,0-5.342-2.891-12.491,0" transform="translate(-698.238 -220.238)" fill="#f4d2c6"></path><path id="Trazado_6531" data-name="Trazado 6531" d="M803.831,611.164h52.547L804.06,621.331Z" transform="translate(-627.525 -477.116)" fill="#2a437d"></path><path id="Trazado_6532" data-name="Trazado 6532" d="M887.156,287.973l5.959,4.83-2.467,1.56c-3.935,2.069-4.574-3.379-5.531-5.809a8.646,8.646,0,0,1,2.039-.581" transform="translate(-690.983 -224.811)" fill="#f3f5fb"></path><path id="Trazado_6533" data-name="Trazado 6533" d="M928.389,292.688l2.32,1.44a2.734,2.734,0,0,0,4.126-1.805l.719-3.728s-1.626-.539-2.128-.621Z" transform="translate(-724.763 -224.811)" fill="#f3f5fb"></path><rect id="Rect&#xE1;ngulo_4031" data-name="Rect&#xE1;ngulo 4031" width="67.655" height="81.74" transform="translate(65.597 189.825)" fill="#f3ac4a"></rect><rect id="Rect&#xE1;ngulo_4032" data-name="Rect&#xE1;ngulo 4032" width="10.454" height="7.93" transform="translate(94.198 189.825)" fill="#fdf1e6"></rect><rect id="Rect&#xE1;ngulo_4033" data-name="Rect&#xE1;ngulo 4033" width="35.338" height="81.74" transform="translate(133.253 189.825)" fill="#f08f3c"></rect><rect id="Rect&#xE1;ngulo_4034" data-name="Rect&#xE1;ngulo 4034" width="8.955" height="7.93" transform="translate(148.342 189.825)" fill="#fdf1e6"></rect><path id="Trazado_6534" data-name="Trazado 6534" d="M1550.39,127.668h-79.727a3.934,3.934,0,0,1-3.934-3.934V97.359a3.934,3.934,0,0,1,3.934-3.934h79.727a3.934,3.934,0,0,1,3.934,3.934v26.375a3.934,3.934,0,0,1-3.934,3.934" transform="translate(-1145.027 -72.934)" fill="#fff"></path><rect id="Rect&#xE1;ngulo_4035" data-name="Rect&#xE1;ngulo 4035" width="74.174" height="4.295" transform="translate(328.412 26.179)" fill="#deeefc"></rect><rect id="Rect&#xE1;ngulo_4036" data-name="Rect&#xE1;ngulo 4036" width="74.174" height="4.295" transform="translate(328.412 35.465)" fill="#deeefc"></rect><rect id="Rect&#xE1;ngulo_4037" data-name="Rect&#xE1;ngulo 4037" width="49.24" height="4.295" transform="translate(328.412 44.751)" fill="#deeefc"></rect><path id="Trazado_6535" data-name="Trazado 6535" d="M449.823,203.972c-5.976,50.672-34.712,50.626-40.675,0,.456-26.73,40.222-26.73,40.675,0" transform="translate(-319.408 -143.583)" fill="#324d90"></path><path id="Trazado_6536" data-name="Trazado 6536" d="M474.012,232.258c-.244,14.31-21.53,14.308-21.772,0,.244-14.309,21.53-14.307,21.772,0" transform="translate(-353.049 -172.939)" fill="#fff"></path><path id="Trazado_6537" data-name="Trazado 6537" d="M383.287,642.865H320.622a2.015,2.015,0,0,1-2.015-2.015V619a2.015,2.015,0,0,1,2.015-2.015h62.665A2.015,2.015,0,0,1,385.3,619V640.85a2.015,2.015,0,0,1-2.015,2.015" transform="translate(-248.726 -481.663)" fill="#d4e8fc"></path><path id="Trazado_6538" data-name="Trazado 6538" d="M369.667,629.069H308.183a3.034,3.034,0,0,1-3.034-3.034v-20.34a3.034,3.034,0,0,1,3.034-3.034h61.484a3.034,3.034,0,0,1,3.034,3.034v20.34a3.034,3.034,0,0,1-3.034,3.034" transform="translate(-238.22 -470.478)" fill="#fff"></path><rect id="Rect&#xE1;ngulo_4038" data-name="Rect&#xE1;ngulo 4038" width="57.201" height="3.312" transform="translate(72.104 136.569)" fill="#deeefc"></rect><rect id="Rect&#xE1;ngulo_4039" data-name="Rect&#xE1;ngulo 4039" width="57.201" height="3.312" transform="translate(72.104 143.731)" fill="#deeefc"></rect><rect id="Rect&#xE1;ngulo_4040" data-name="Rect&#xE1;ngulo 4040" width="37.973" height="3.312" transform="translate(72.104 150.892)" fill="#deeefc"></rect><path id="Trazado_6539" data-name="Trazado 6539" d="M1293.616,917.394h-33.768v23.655h33.768a2.717,2.717,0,0,0,2.718-2.718v-18.22a2.717,2.717,0,0,0-2.718-2.718" transform="translate(-983.522 -716.18)" fill="#f08f3c"></path><path id="Trazado_6540" data-name="Trazado 6540" d="M1193.386,925.133h-55.074a2.717,2.717,0,0,1-2.718-2.718V904.2a2.718,2.718,0,0,1,2.718-2.718h55.074a2.718,2.718,0,0,1,2.718,2.718v18.22a2.718,2.718,0,0,1-2.718,2.718" transform="translate(-886.522 -703.755)" fill="#fff"></path><rect id="Rect&#xE1;ngulo_4041" data-name="Rect&#xE1;ngulo 4041" width="51.238" height="2.967" transform="translate(253.709 201.653)" fill="#deeefc"></rect><rect id="Rect&#xE1;ngulo_4042" data-name="Rect&#xE1;ngulo 4042" width="51.238" height="2.967" transform="translate(253.709 208.067)" fill="#deeefc"></rect><rect id="Rect&#xE1;ngulo_4043" data-name="Rect&#xE1;ngulo 4043" width="34.014" height="2.967" transform="translate(253.709 214.482)" fill="#deeefc"></rect><path id="Trazado_6541" data-name="Trazado 6541" d="M2060.337,212.681,2047.9,237.7a.661.661,0,0,1-1.2-.029l-3.2-7.312Z" transform="translate(-1595.296 -166.033)" fill="#324d90"></path><path id="Trazado_6542" data-name="Trazado 6542" d="M2012.656,230.36l-8.667-2.88,25.5-14.8Z" transform="translate(-1564.448 -166.033)" fill="#4292f3"></path><path id="Trazado_6543" data-name="Trazado 6543" d="M2079.36,212.681l-11.49,19.631,10.322,3.457Z" transform="translate(-1614.318 -166.033)" fill="#4292f3"></path><path id="Trazado_6544" data-name="Trazado 6544" d="M2051.038,350.772l-.326-.123q.217-.572.426-1.142l.327.12q-.209.571-.427,1.145" transform="translate(-1600.923 -272.848)" fill="#324d90"></path><path id="Trazado_6545" data-name="Trazado 6545" d="M1306.806,420.923l-.059-.344A17.715,17.715,0,0,0,1309.1,420l.106.332a18.058,18.058,0,0,1-2.4.59m3.4-.938-.123-.327a22.866,22.866,0,0,0,2.225-.985l.157.311a23.332,23.332,0,0,1-2.259,1m3.194-1.5-.169-.3c.679-.376,1.362-.79,2.088-1.265l.191.292c-.733.479-1.423.9-2.109,1.278m2.987-1.866-.2-.287c.621-.427,1.27-.9,1.984-1.432l.21.279c-.719.539-1.371,1.01-2,1.44m2.835-2.078-.212-.276c.678-.521,1.352-1.053,1.931-1.51l.216.274c-.58.458-1.255.991-1.935,1.513m2.759-2.164-.216-.274c.617-.488,1.279-1.008,1.935-1.511l.212.277c-.654.5-1.314,1.021-1.931,1.507m2.768-2.14-.209-.28c.727-.542,1.329-.972,2-1.428l.2.289c-.671.454-1.268.881-1.991,1.419m2.865-2-.189-.293c.693-.446,1.4-.875,2.1-1.276l.173.3c-.7.4-1.4.824-2.089,1.266m3-1.774-.165-.307c.723-.389,1.463-.761,2.2-1.105l.148.316c-.731.341-1.465.71-2.182,1.1m65.518-.084h-.224l0-.349c.818.005,1.649-.019,2.439-.072l.023.348c-.729.048-1.483.073-2.241.073m-1.279-.023c-.817-.027-1.64-.089-2.456-.154l.028-.348c.811.064,1.628.125,2.44.153Zm4.574-.139-.035-.347c.831-.084,1.643-.2,2.411-.353l.067.342c-.779.152-1.6.272-2.443.358m-8.08-.1c-.788-.072-1.61-.155-2.444-.249l.039-.347c.832.093,1.651.177,2.437.248Zm-3.49-.371c-.78-.094-1.6-.2-2.435-.316l.047-.345c.834.115,1.652.221,2.43.315Zm15.047-.108-.082-.339a19.667,19.667,0,0,0,2.323-.713l.124.326a19.976,19.976,0,0,1-2.365.726m-18.524-.355q-1.216-.175-2.428-.365l.054-.345q1.211.189,2.424.364Zm34.714-.1v-.349c.784,0,1.6-.036,2.438-.1l.026.348c-.842.063-1.671.1-2.463.1m-1.057-.015c-.85-.027-1.678-.092-2.462-.192l.045-.346c.773.1,1.589.163,2.428.19Zm4.572-.177-.035-.347c.786-.08,1.6-.187,2.422-.317l.054.344c-.827.131-1.649.239-2.442.319m-88.858-.055-.14-.32c.751-.328,1.519-.638,2.284-.92l.121.327c-.759.28-1.521.587-2.265.913m80.777-.12a18.607,18.607,0,0,1-2.4-.589l.106-.332a18.255,18.255,0,0,0,2.358.577Zm-33.615-.064q-1.213-.194-2.422-.4l.057-.344q1.208.2,2.42.4Zm25.337-.25-.144-.318a13.917,13.917,0,0,0,2.111-1.18l.2.288a14.262,14.262,0,0,1-2.164,1.21m19.841-.006-.062-.343c.8-.145,1.6-.309,2.391-.5l.082.339c-.8.192-1.6.358-2.41.5m-48.638-.313-2.419-.41.058-.344q1.208.2,2.418.409Zm33.67-.311a13.494,13.494,0,0,1-2.219-1.112l.187-.295.044.028-.089-.109a10.668,10.668,0,0,0,1.678-1.724l.276.213a11,11,0,0,1-1.678,1.734,13.568,13.568,0,0,0,1.929.94Zm18.4-.14-.091-.337c.781-.21,1.567-.448,2.335-.706l.111.33c-.775.261-1.568.5-2.356.713m-92.522-.058-.113-.33c.771-.263,1.562-.508,2.352-.728l.094.336c-.784.218-1.569.461-2.333.722M1374,403.6q-1.211-.2-2.419-.406l.057-.344q1.208.2,2.42.406Zm-3.457-.576q-1.212-.2-2.422-.383l.053-.345q1.211.186,2.425.384Zm-30.194-.338-.085-.338c.788-.2,1.6-.379,2.4-.535l.066.342c-.8.155-1.6.334-2.383.531m92.531-.014-.12-.327c.757-.277,1.519-.582,2.266-.907l.139.32c-.753.328-1.522.635-2.286.914m-65.8-.188c-.855-.127-1.649-.239-2.427-.342l.046-.346c.78.1,1.576.216,2.432.343Zm40.953-.338a11.222,11.222,0,0,1-1.78-1.738l.27-.221a10.859,10.859,0,0,0,1.724,1.683Zm-44.423-.139c-.834-.1-1.653-.2-2.433-.281l.036-.347c.783.082,1.6.177,2.44.282Zm-19.851-.039-.059-.344c.8-.136,1.617-.254,2.435-.351l.041.346c-.813.1-1.626.214-2.417.349m16.371-.347c-.83-.079-1.651-.145-2.44-.2l.024-.348c.792.054,1.616.121,2.45.2Zm-12.913-.114-.034-.347c.8-.078,1.625-.139,2.453-.182l.018.348c-.823.043-1.644.1-2.438.181m9.424-.149c-.831-.046-1.653-.077-2.445-.094l.008-.349c.8.017,1.622.049,2.457.095Zm79.481-.032-.147-.316c.73-.34,1.464-.707,2.181-1.092l.165.307c-.723.388-1.463.758-2.2,1.1m-85.42-.045-.012-.349c.8-.028,1.637-.039,2.46-.032l0,.349c-.814-.005-1.648.006-2.446.032M1411.613,400l-.3-.184a9.19,9.19,0,0,0,1-2.181l.334.1a9.53,9.53,0,0,1-1.038,2.264m27.633-.282-.172-.3c.7-.4,1.4-.823,2.09-1.263l.188.293c-.692.444-1.4.872-2.106,1.273m-33.624-.168a8.913,8.913,0,0,1-1.08-2.248l.333-.1a8.57,8.57,0,0,0,1.039,2.16Zm36.613-1.684-.195-.29c.668-.449,1.338-.926,1.993-1.416l.209.279c-.659.494-1.335.974-2.007,1.427m-29.341-1.175-.344-.057a6.594,6.594,0,0,0-.021-2.376l.342-.069a6.942,6.942,0,0,1,.023,2.5m-8.6-.436a5.856,5.856,0,0,1,.109-2.506l.335.1a5.514,5.514,0,0,0-.1,2.356Zm40.785-.458-.215-.275c.633-.5,1.27-1.017,1.893-1.551l.227.265c-.626.538-1.268,1.063-1.905,1.561m2.7-2.258-.232-.26c.6-.535,1.2-1.1,1.792-1.669l.243.25c-.593.576-1.2,1.141-1.8,1.679m-35.548-.254a4.59,4.59,0,0,0-1.391-1.875l.212-.277a4.938,4.938,0,0,1,1.5,2.019Zm-7.109-.374-.305-.169a4.718,4.718,0,0,1,1.757-1.8l.175.3a4.368,4.368,0,0,0-1.627,1.668m45.212-1.794-.247-.246c.567-.57,1.137-1.166,1.693-1.77l.257.236c-.559.608-1.132,1.206-1.7,1.78m-40.364-.2a3.6,3.6,0,0,0-2.3-.076l-.1-.335a3.956,3.956,0,0,1,2.519.085Zm42.776-2.368-.26-.232c.535-.6,1.073-1.226,1.6-1.858l.269.223c-.527.635-1.067,1.264-1.605,1.867m2.274-2.685-.271-.219c.5-.627,1.011-1.278,1.505-1.933l.279.21c-.5.659-1.005,1.312-1.512,1.942m2.142-2.79-.281-.206c.478-.653.955-1.325,1.417-2l.287.2c-.465.676-.944,1.352-1.423,2.007m2.015-2.879-.29-.194c.448-.67.9-1.361,1.334-2.054l.3.186c-.439.7-.889,1.39-1.339,2.062m1.9-2.957-.3-.182c.423-.688.845-1.4,1.255-2.1l.3.175c-.411.71-.835,1.42-1.259,2.11m1.782-3.023-.3-.172c.4-.7.794-1.425,1.179-2.144l.307.164c-.386.722-.784,1.446-1.183,2.152m1.674-3.081-.309-.161c.373-.715.745-1.449,1.107-2.181l.313.154c-.362.734-.736,1.47-1.11,2.188m1.572-3.134-.314-.152c.351-.729.7-1.475,1.04-2.218l.317.145c-.34.745-.691,1.494-1.043,2.225m1.476-3.185-.319-.142c.328-.737.656-1.494.974-2.249l.321.136c-.319.757-.647,1.516-.976,2.255m1.381-3.228-.323-.132c.309-.751.614-1.517.909-2.276l.325.126c-.3.761-.6,1.529-.911,2.282" transform="translate(-1020.134 -280.404)" fill="#324d90"></path><path id="Trazado_6546" data-name="Trazado 6546" d="M1296.553,640.2l-.011-.349c.4-.013.808-.041,1.205-.084l.037.347c-.406.044-.821.073-1.231.087" transform="translate(-1012.168 -499.443)" fill="#324d90"></path><path id="Trazado_6547" data-name="Trazado 6547" d="M1252.967,597.293a11.62,11.62,0,0,1-2.338-.809l.148-.316a11.247,11.247,0,0,0,2.268.785Zm-3.278-1.3a11.987,11.987,0,0,1-1.995-1.461l.234-.259a11.649,11.649,0,0,0,1.938,1.418Zm-2.75-2.208a11.414,11.414,0,0,1-1.47-1.99l.3-.176a11.076,11.076,0,0,0,1.426,1.929Zm-1.964-2.93a11.937,11.937,0,0,1-.809-2.337l.34-.079a11.589,11.589,0,0,0,.785,2.269Zm-1-3.381a11.651,11.651,0,0,1-.087-2.473l.348.025a11.343,11.343,0,0,0,.084,2.4Z" transform="translate(-971.036 -456.689)" fill="#324d90"></path><path id="Trazado_6548" data-name="Trazado 6548" d="M0,1237.4c186.789-.735,381.921-.741,568.708,0-186.789.741-381.921.734-568.708,0" transform="translate(0 -965.564)" fill="#152e60"></path></g></g></g></svg>