<svg xmlns="http://www.w3.org/2000/svg" width="512.664" height="305.046" viewBox="0 0 512.664 305.046"><g id="Grupo_721" data-name="Grupo 721" transform="translate(2856.212 -526.921)"><path id="Trazado_3646" data-name="Trazado 3646" d="M-2285.35,1011.685s85.886-131.8-5.3-167.854c-22.968-9.08-30.98-136.2-133-72.642-40.572,25.278-98.991-5.312-154.937,11.408-51.379,15.355-52.561,59.647-46.064,75.592,7.1,17.423-21.208,38.254-50.2,52.561-45.473,22.441-12.035,101.31,30.925,101.687S-2285.35,1011.685-2285.35,1011.685Z" transform="translate(-127.235 -180.576)" fill="#ebf3fa"></path><g id="Grupo_707" data-name="Grupo 707" transform="translate(-2844.441 526.921)"><path id="Trazado_3647" data-name="Trazado 3647" d="M-2532.488,733.485l-7.473-.171c2.4,3.112,2.94,5.978,1.446,8.4-1.494,2.475-5.072,4.508-10.413,6.052a95.5,95.5,0,0,0,6.076-33.738,95.552,95.552,0,0,0-7.6-37.56,95.726,95.726,0,0,0-20.679-30.675,96.465,96.465,0,0,0-30.676-20.7,96.137,96.137,0,0,0-37.56-7.571,96.169,96.169,0,0,0-37.585,7.571c-1.421.613-2.842,1.249-4.214,1.911l-.013.006c-4.151-1.266-8.194-2.3-12.094-3.1-19.691-4-33.666-1.234-39.342,7.777-5.4,8.57-2.461,21.47,8.258,36.516l0,.007c-1.446,2.671-2.744,5.415-3.945,8.257-.906,2.132-1.715,4.263-2.45,6.444-20.14,1.2-30.92,4.745-34.84,11.164-4.557,7.473,1.666,17.5,21.585,27.253,2.744,1.347,5.684,2.671,8.771,3.994a94.374,94.374,0,0,0,6.934,26.265,96.1,96.1,0,0,0,20.679,30.7,96.807,96.807,0,0,0,30.675,20.679,96.179,96.179,0,0,0,37.585,7.571,96.147,96.147,0,0,0,37.56-7.571,96.8,96.8,0,0,0,30.676-20.679,96.126,96.126,0,0,0,20.287-29.793c9.825-2.034,16.293-5.219,18.866-9.433C-2530.185,740.15-2530.405,736.915-2532.488,733.485Zm-23.055,15.8a148.832,148.832,0,0,1-24.232,1.96,355.033,355.033,0,0,1-49.674-3.347q2.259-4.918,4.423-10.094a136.627,136.627,0,0,0,16.086,4.373,81.49,81.49,0,0,0,16.062,1.786c11.245,0,19.3-3.246,23.28-9.562a16.529,16.529,0,0,0,1.6-3.309h-5.732c-.094.175-.2.347-.3.515-2.956,4.692-9.56,7.115-18.834,7.113a76.49,76.49,0,0,1-15.034-1.68,131.026,131.026,0,0,1-15.139-4.1q2.07-5.18,4.018-10.546c3.494-9.634,6.485-19.185,8.905-28.356a243.519,243.519,0,0,0,35.442,2.442q11.746,0,24.337-.949a91.406,91.406,0,0,1,1.874,18.491A90.345,90.345,0,0,1-2555.543,749.288Zm-119.426,47.845c-2.788-1.011-4.2-5.012-4.9-8.191-1.1-5.023-1.3-12.079-.575-20.4.366-4.211.955-8.688,1.747-13.371a248.317,248.317,0,0,1,33.763,11.683c-2.482,4.28-4.992,8.249-7.5,11.846-4.781,6.854-9.457,12.142-13.522,15.292C-2668.53,795.981-2672.181,798.144-2674.969,797.133Zm32.559-34.764a253.421,253.421,0,0,0-35.369-12.248q.633-3.26,1.388-6.63,5,1.136,10.128,2.2c10.008,2.047,19.992,3.784,29.765,5.191Q-2639.4,756.885-2642.41,762.369Zm-21.648-20.309q-5.8-1.194-11.423-2.49c1.763-7.336,3.929-14.984,6.458-22.778a223.536,223.536,0,0,0,39.167,19.316q-2.381,5.686-4.884,11.064C-2644.354,745.794-2654.19,744.084-2664.058,742.061Zm-32.1-99.029a60.092,60.092,0,0,0,3.553,6.252,84.851,84.851,0,0,0,21.612,22.149,105.842,105.842,0,0,0,11.372,7.08c-3.671,8-7.167,16.535-10.382,25.4q-.9,2.479-1.752,4.949c-19.2-12.5-35.458-26.841-46.123-40.72l0-.006a91.3,91.3,0,0,1,9.159-12.905c1.421-1.666,2.891-3.283,4.435-4.851l.637-.637A91.783,91.783,0,0,1-2696.16,643.032Zm82.1-13.851c2.788,1.011,4.2,5.013,4.9,8.191,1.1,5.024,1.3,12.08.575,20.405a203.609,203.609,0,0,1-5.333,30.485q-4.92-.846-9.6-1.92a138.1,138.1,0,0,1-29.381-10.129,207.422,207.422,0,0,1,16.309-28.594c4.781-6.854,9.458-12.142,13.522-15.292,2.121-1.644,4.975-3.4,7.475-3.4A4.48,4.48,0,0,1-2614.056,629.181Zm-10.958,62.063q4.791,1.112,9.828,1.984c-2.357,8.868-5.26,18.1-8.642,27.431q-1.956,5.392-4.042,10.6a218.854,218.854,0,0,1-39.451-19.579q1.028-3,2.123-6.027c3.143-8.665,6.553-17,10.13-24.814A142.976,142.976,0,0,0-2625.013,691.244Zm49.918-41.5a90.692,90.692,0,0,1,19.5,28.911,90.383,90.383,0,0,1,4.065,11.847c-20.955,1.533-40.156,1.051-57.321-1.433a208.028,208.028,0,0,0,5.362-30.845c.888-10.212.78-22.307-3.361-29.114q1.44.553,2.866,1.156A90.258,90.258,0,0,1-2575.095,649.741Zm-64.266-26.633A91.055,91.055,0,0,1-2620.815,625c-7.141,3.109-14.433,11.761-19.968,19.695a212.382,212.382,0,0,0-16.663,29.182,100.836,100.836,0,0,1-10.216-6.346,78.744,78.744,0,0,1-20.457-20.724,53.671,53.671,0,0,1-3.874-6.923,90.86,90.86,0,0,1,11.75-7.09h0q2.5-1.264,5.1-2.371c.125-.053.249-.108.374-.161l.087-.037q.553-.233,1.109-.457l.3-.119A90.291,90.291,0,0,1-2639.361,623.108Zm-88.814,11.377c2.956-4.692,9.56-7.113,18.834-7.113a76.487,76.487,0,0,1,15.034,1.68q3.16.64,6.447,1.506h.006a94.9,94.9,0,0,0-19.767,15.236c-1.25,1.225-2.45,2.5-3.626,3.822-1.47,1.617-2.866,3.308-4.214,5.023a97.219,97.219,0,0,0-5.978,8.551l0,.007C-2729.639,651.032-2732.1,640.715-2728.176,634.486Zm5.021,44.167c.809-1.862,1.641-3.7,2.548-5.488l0,0c11.229,14.036,27.781,28.384,47.119,40.828-2.742,8.346-5.082,16.548-6.97,24.408a373.819,373.819,0,0,1-38.535-11.378c-2.4-.858-4.729-1.74-6.958-2.622-1.323-.515-2.622-1.054-3.9-1.593-.2-1.96-.343-3.945-.392-5.929-.025-.955-.049-1.886-.049-2.842,0-1.1.024-2.23.049-3.332a91.958,91.958,0,0,1,4.165-24.109c.417-1.323.857-2.622,1.348-3.92C-2724.232,681.323-2723.718,679.975-2723.155,678.652Zm-16.391,39.79c-17.371-8.477-25.31-16.661-21.757-22.468,2.867-4.7,13.3-7.889,29.279-9.065a93.865,93.865,0,0,0-3.626,20.385c-.147,2.058-.22,4.116-.245,6.2v.539c0,2.083.073,4.165.2,6.223C-2737.022,719.667-2738.3,719.054-2739.546,718.442Zm13.181,10.413c2.352.882,4.753,1.764,7.228,2.622,11.375,3.942,24.127,7.605,37.767,10.856q-.743,3.315-1.372,6.532-1.672-.406-3.346-.789a203.247,203.247,0,0,0-39.568-5.313,88.843,88.843,0,0,1-3.576-15.01Zm3.21,20.556q-.312-.74-.609-1.485a209.805,209.805,0,0,1,36.733,5.178q1.683.385,3.363.8c-.853,4.974-1.482,9.726-1.87,14.193-.736,8.463-.788,18.221,1.572,25.189a90.725,90.725,0,0,1-19.686-14.961A90.7,90.7,0,0,1-2723.155,749.411Zm119.173,48.389a90.132,90.132,0,0,1-35.38,7.154,90.5,90.5,0,0,1-27.568-4.254c6.725-3.525,13.483-11.621,18.687-19.08,2.684-3.847,5.366-8.105,8.014-12.7a256.946,256.946,0,0,1,43.738,25.3Q-2600.14,796.173-2603.981,797.8Zm28.886-19.478a90.224,90.224,0,0,1-16.536,13.107,262.294,262.294,0,0,0-46.088-26.985c2.217-4.062,4.4-8.352,6.534-12.831a392.751,392.751,0,0,0,41.9,3.433c3.381.1,6.664.1,9.849.073a175.287,175.287,0,0,0,21.9-1.47A90.325,90.325,0,0,1-2575.095,778.322Z" transform="translate(2773.338 -599.139)" fill="#adcbf9"></path><g id="Grupo_705" data-name="Grupo 705" transform="translate(90.228 0)"><path id="Trazado_3648" data-name="Trazado 3648" d="M-2330.678,562.126-2353.512,566l14.936-10.771.862,3.3,5.6.862Z" transform="translate(2353.512 -549.488)" fill="#456aa3"></path><path id="Trazado_3649" data-name="Trazado 3649" d="M-2353.512,562.054l18.813-10.34,18.67-1.436Z" transform="translate(2353.512 -545.539)" fill="#adcbf9"></path><path id="Trazado_3650" data-name="Trazado 3650" d="M-2338.576,532.665l-14.936,10.771,11.345-16.515Z" transform="translate(2353.512 -526.921)" fill="#adcbf9"></path></g><g id="Grupo_706" data-name="Grupo 706" transform="translate(0 57.698)"><path id="Trazado_3651" data-name="Trazado 3651" d="M-2735.152,843.352l21.613,8.325-12.505-13.517-1.5,3.067-5.66-.265Z" transform="translate(2747.945 -832.708)" fill="#456aa3"></path><path id="Trazado_3652" data-name="Trazado 3652" d="M-2763.8,830.255l-16.391-13.863-18.015-5.107Z" transform="translate(2798.201 -811.285)" fill="#adcbf9"></path><path id="Trazado_3653" data-name="Trazado 3653" d="M-2690.263,818.836l12.505,13.517-7.848-18.436Z" transform="translate(2712.164 -813.383)" fill="#adcbf9"></path></g></g><path id="Trazado_3654" data-name="Trazado 3654" d="M-2344.113,1759.079h-423.252s46.715-31.115,68.2-18.752,58.417-2.926,69.37-18.975,26.625,23.152,40.9,13.386,20.142-50.894,39.125-41.953,10.877,58.908,23.654,31.689,38.542-42.55,44.529-9.4S-2409.447,1708.246-2344.113,1759.079Z" transform="translate(-70.82 -928.301)" fill="#a8d29f"></path><g id="Grupo_715" data-name="Grupo 715" transform="translate(-2730.535 608.428)"><rect id="Rect&#xE1;ngulo_2759" data-name="Rect&#xE1;ngulo 2759" width="13.714" height="10.689" transform="translate(226.504 0)" fill="#fff"></rect><path id="Trazado_3655" data-name="Trazado 3655" d="M-1092.654,939.673l-2.424,9.724H-1113.7l3.834-14.195a8.894,8.894,0,0,1,8.586-6.575h0A8.894,8.894,0,0,1-1092.654,939.673Z" transform="translate(1341.585 -928.627)" fill="#a0c0ef"></path><g id="Grupo_708" data-name="Grupo 708" transform="translate(0 18.642)"><path id="Trazado_3656" data-name="Trazado 3656" d="M-1656.225,1357.083l10.7,127.262s1.122,7.714-4.617,7.728c-9.435.023-46.96,0-46.96,0s7.1-1.606,7.015-5.219c-.1-4.259-12.51-130.975-12.51-130.975Z" transform="translate(1810.987 -1287.831)" fill="#d86713"></path><path id="Trazado_3657" data-name="Trazado 3657" d="M-1665.512,1480.695c-9.189.118-45.029.005-46.885,0,.7,0,6.089-.133,6.851-4.189a5.435,5.435,0,0,0,.09-1.03c0-.794-.44-5.829-1.147-13.5-.633-6.881-1.484-15.88-2.439-25.842-3.7-38.6-8.923-91.631-8.923-91.631l46.369,1.2,7.605,90.428,1.484,17.649,1.334,15.879.279,3.308S-1659.586,1480.62-1665.512,1480.695Z" transform="translate(1823.241 -1278.762)" fill="#ee9849"></path><path id="Trazado_3658" data-name="Trazado 3658" d="M-1969.443,1020.51l-26.071,104.721-3.57,14.342-12.143,48.776h-225.588l44.755-167.839Z" transform="translate(2236.814 -1020.509)" fill="#f1a34f"></path><path id="Trazado_3659" data-name="Trazado 3659" d="M-1083.221,1020.509l3.613,1.2-40.593,170.278-4.8-3.643Z" transform="translate(1350.593 -1020.508)" fill="#ee9849"></path><path id="Trazado_3660" data-name="Trazado 3660" d="M-2006.42,1851.349h-224.2l-6.191-3.643h225.587Z" transform="translate(2236.811 -1679.866)" fill="#d86713"></path><rect id="Rect&#xE1;ngulo_2760" data-name="Rect&#xE1;ngulo 2760" width="48.543" height="2.307" transform="translate(103.117 201.984)" fill="#f1a34f"></rect><path id="Trazado_3661" data-name="Trazado 3661" d="M-1621.9,1865.3l-.3,3.611-.011.133s-31.532,3.023-44.085,8.06c-.316-3.45-.689-7.433-1.1-11.8Z" transform="translate(1782.937 -1693.887)" fill="#d86713"></path><path id="Trazado_3662" data-name="Trazado 3662" d="M-1643.636,1972.384c-9.189.118-45.029.005-46.885,0,.7,0,6.089-.133,6.851-4.189,3.691.191,24.216.846,44.373-6.845l.279,3.308S-1637.71,1972.309-1643.636,1972.384Z" transform="translate(1801.365 -1770.451)" fill="#d86713" opacity="0.4"></path><path id="Trazado_3663" data-name="Trazado 3663" d="M-1416.615,1685.316l-8.2,32.949h-75.951c32.114-10.2,47.316-25.127,53.442-32.949Z" transform="translate(1650.114 -1550.425)" fill="#d86713" opacity="0.4"></path><path id="Trazado_3664" data-name="Trazado 3664" d="M-1926.048,1031.445l-32.172,132.672h-222.018l36.053-132.672Z" transform="translate(2191.718 -1029.225)" fill="#d2e4ff"></path><path id="Trazado_3665" data-name="Trazado 3665" d="M-2195.576,1685.316h2.745l-.55,2.022-2.656-.3Z" transform="translate(2204.311 -1550.425)" fill="#f1a34f"></path><path id="Trazado_3666" data-name="Trazado 3666" d="M-925.4,1020.506v2.219h-2.061l.538-2.219Z" transform="translate(1193.13 -1020.506)" fill="#f1a34f"></path></g><path id="Trazado_3667" data-name="Trazado 3667" d="M-2091.9,1133.752H-1939.3l51.143-205.125h-143.922a11.1,11.1,0,0,0-10.769,8.413Z" transform="translate(2121.299 -928.627)" fill="#fff"></path><g id="Grupo_710" data-name="Grupo 710" transform="translate(66.365 53.062)"><g id="Grupo_709" data-name="Grupo 709" transform="translate(9.129)"><path id="Trazado_3668" data-name="Trazado 3668" d="M-1833.486,1373.324H-1732.4a3.122,3.122,0,0,0,2.846-2.278l.213-.854a1.725,1.725,0,0,0-1.71-2.278h-101.084a3.122,3.122,0,0,0-2.846,2.278l-.213.854A1.725,1.725,0,0,0-1833.486,1373.324Z" transform="translate(1841.247 -1331.844)" fill="#a0c0ef"></path><path id="Trazado_3669" data-name="Trazado 3669" d="M-1789.163,1195.555h101.084a3.122,3.122,0,0,0,2.846-2.278l.213-.854a1.725,1.725,0,0,0-1.71-2.278h-101.084a3.123,3.123,0,0,0-2.846,2.278l-.213.854A1.725,1.725,0,0,0-1789.163,1195.555Z" transform="translate(1805.917 -1190.145)" fill="#a0c0ef"></path><path id="Trazado_3670" data-name="Trazado 3670" d="M-1804.56,1257.307h101.085a3.122,3.122,0,0,0,2.846-2.278l.213-.854a1.725,1.725,0,0,0-1.71-2.278h-101.085a3.123,3.123,0,0,0-2.846,2.278l-.213.854A1.725,1.725,0,0,0-1804.56,1257.307Z" transform="translate(1818.19 -1239.367)" fill="#a0c0ef"></path><path id="Trazado_3671" data-name="Trazado 3671" d="M-1819.023,1315.316h101.085a3.123,3.123,0,0,0,2.846-2.278l.213-.854a1.725,1.725,0,0,0-1.71-2.278h-101.085a3.122,3.122,0,0,0-2.846,2.278l-.213.854A1.725,1.725,0,0,0-1819.023,1315.316Z" transform="translate(1829.718 -1285.606)" fill="#a0c0ef"></path><path id="Trazado_3672" data-name="Trazado 3672" d="M-1862.963,1491.548h101.084a3.123,3.123,0,0,0,2.847-2.278l.213-.854a1.725,1.725,0,0,0-1.71-2.278h-101.084a3.123,3.123,0,0,0-2.846,2.278l-.213.854A1.725,1.725,0,0,0-1862.963,1491.548Z" transform="translate(1864.743 -1426.081)" fill="#a0c0ef"></path><path id="Trazado_3673" data-name="Trazado 3673" d="M-1848.5,1433.539h101.085a3.123,3.123,0,0,0,2.846-2.278l.213-.854a1.725,1.725,0,0,0-1.71-2.278h-101.085a3.122,3.122,0,0,0-2.846,2.278l-.213.854A1.725,1.725,0,0,0-1848.5,1433.539Z" transform="translate(1853.214 -1379.842)" fill="#a0c0ef"></path></g><path id="Trazado_3674" data-name="Trazado 3674" d="M-1907.62,1673.841h24.551a3.708,3.708,0,0,0,3.38-2.705h0a2.049,2.049,0,0,0-2.031-2.7h-24.552a3.708,3.708,0,0,0-3.38,2.7h0A2.049,2.049,0,0,0-1907.62,1673.841Z" transform="translate(1909.733 -1571.386)" fill="#a0c0ef"></path><path id="Trazado_3675" data-name="Trazado 3675" d="M-1536.932,1673.841h24.552a3.708,3.708,0,0,0,3.38-2.705h0a2.049,2.049,0,0,0-2.031-2.7h-24.551a3.708,3.708,0,0,0-3.38,2.7h0A2.049,2.049,0,0,0-1536.932,1673.841Z" transform="translate(1614.258 -1571.386)" fill="#a0c0ef"></path></g><g id="Grupo_711" data-name="Grupo 711" transform="translate(50.953 167.091)"><path id="Trazado_3676" data-name="Trazado 3676" d="M-1947.046,1769.678h-35.8a2.8,2.8,0,0,1-2.27-1.032,2.963,2.963,0,0,1-.461-2.6L-1983,1755.7a4.872,4.872,0,0,1,4.451-3.56h35.8a2.8,2.8,0,0,1,2.27,1.032,2.964,2.964,0,0,1,.461,2.6l-2.581,10.352A4.871,4.871,0,0,1-1947.046,1769.678Zm-31.5-17.255a4.57,4.57,0,0,0-4.172,3.342l-2.581,10.352a2.682,2.682,0,0,0,.408,2.351,2.515,2.515,0,0,0,2.043.921h35.8a4.569,4.569,0,0,0,4.172-3.342l2.581-10.353a2.682,2.682,0,0,0-.408-2.351,2.514,2.514,0,0,0-2.043-.921Z" transform="translate(1985.691 -1752.135)" fill="#476ba7"></path></g><g id="Grupo_712" data-name="Grupo 712" transform="translate(126.294 167.091)"><path id="Trazado_3677" data-name="Trazado 3677" d="M-1575.729,1769.678h-35.8a2.8,2.8,0,0,1-2.27-1.032,2.963,2.963,0,0,1-.461-2.6l2.581-10.353a4.871,4.871,0,0,1,4.451-3.56h35.8a2.8,2.8,0,0,1,2.27,1.032,2.964,2.964,0,0,1,.46,2.6l-2.581,10.352A4.871,4.871,0,0,1-1575.729,1769.678Zm-31.5-17.255a4.569,4.569,0,0,0-4.172,3.342l-2.581,10.352a2.683,2.683,0,0,0,.408,2.351,2.515,2.515,0,0,0,2.043.921h35.8a4.569,4.569,0,0,0,4.172-3.342l2.581-10.353a2.682,2.682,0,0,0-.408-2.351,2.514,2.514,0,0,0-2.043-.921Z" transform="translate(1614.374 -1752.135)" fill="#476ba7"></path></g><g id="Grupo_713" data-name="Grupo 713" transform="translate(99.225 14.21)"><path id="Trazado_3678" data-name="Trazado 3678" d="M-1747.405,1005.406a9.976,9.976,0,0,1,9.015-6.746,4.622,4.622,0,0,1,4.353,2.125l-2.362,1.975a3.173,3.173,0,0,0-2.878-1.454,5.853,5.853,0,0,0-5.128,4.1c-.734,2.236.2,4.1,2.438,4.1a6.565,6.565,0,0,0,3.93-1.528l1.184,1.957a9.07,9.07,0,0,1-6.076,2.218C-1746.767,1012.153-1748.646,1009.19-1747.405,1005.406Z" transform="translate(1747.785 -998.66)" fill="#f1a34f"></path><path id="Trazado_3679" data-name="Trazado 3679" d="M-1681.413,1005.406a10.152,10.152,0,0,1,9.164-6.746c4.026,0,5.93,3,4.7,6.746a10.152,10.152,0,0,1-9.164,6.746C-1680.738,1012.153-1682.642,1009.152-1681.413,1005.406Zm10.865,0c.734-2.236-.3-4.1-2.606-4.1a5.893,5.893,0,0,0-5.258,4.1c-.734,2.236.295,4.1,2.606,4.1A5.894,5.894,0,0,0-1670.549,1005.406Z" transform="translate(1695.175 -998.66)" fill="#f1a34f"></path><path id="Trazado_3680" data-name="Trazado 3680" d="M-1605.3,999.762h2.646l3.478,8.032,2.635-8.032h2.833l-4.279,13.045h-2.441l-3.6-8.293-2.72,8.293h-2.833Z" transform="translate(1637.625 -999.538)" fill="#f1a34f"></path><path id="Trazado_3681" data-name="Trazado 3681" d="M-1520.831,1002.408h-3.969l.868-2.646h10.809l-.868,2.646h-3.969l-3.411,10.4h-2.87Z" transform="translate(1570.044 -999.538)" fill="#f1a34f"></path><path id="Trazado_3682" data-name="Trazado 3682" d="M-1473.218,999.762h5.964c1.658,0,2.791.466,3.367,1.323a3.414,3.414,0,0,1,.128,3.019,6.251,6.251,0,0,1-4.122,4.044l1.659,4.659h-3.355l-1.463-4.174h-2.218l-1.369,4.174h-2.87Zm3.7,6.336a2.8,2.8,0,0,0,2.816-1.882c.4-1.23-.246-1.864-1.644-1.864h-2.851l-1.229,3.746Z" transform="translate(1532.339 -999.538)" fill="#f1a34f"></path><path id="Trazado_3683" data-name="Trazado 3683" d="M-1406.7,999.3h2.646l1.281,13.138h-3l-.233-2.926h-5.516l-2.152,2.926h-2.926Zm.5,7.678-.345-4.23-3.121,4.23Z" transform="translate(1483.797 -999.172)" fill="#f1a34f"></path><path id="Trazado_3684" data-name="Trazado 3684" d="M-1336.451,1005.406a9.976,9.976,0,0,1,9.015-6.746,4.622,4.622,0,0,1,4.353,2.125l-2.363,1.975a3.172,3.172,0,0,0-2.878-1.454,5.853,5.853,0,0,0-5.128,4.1c-.734,2.236.2,4.1,2.438,4.1a6.564,6.564,0,0,0,3.93-1.528l1.185,1.957a9.072,9.072,0,0,1-6.076,2.218C-1335.813,1012.153-1337.692,1009.19-1336.451,1005.406Z" transform="translate(1420.214 -998.66)" fill="#f1a34f"></path><path id="Trazado_3685" data-name="Trazado 3685" d="M-1258.68,1002.408h-3.969l.868-2.646h10.809l-.868,2.646h-3.969l-3.411,10.4h-2.87Z" transform="translate(1361.084 -999.538)" fill="#f1a34f"></path></g><path id="Trazado_3686" data-name="Trazado 3686" d="M-1528.612,1745.134q-8.157,3.371-16.194,7.366.318-.9.571-1.8c.135-.483-.515-.8-.918-.273a8.612,8.612,0,0,1-.568.674c.135-.432-.374-.673-.812-.357-.029.021-.055.044-.083.066.212-.581-.692-.668-1.028-.106l-.5.84a3.525,3.525,0,0,1-1.621,1.082,2.751,2.751,0,0,1-.238-.9.4.4,0,0,0-.418-.383c-.01-.3-.276-.47-.67-.295a3.686,3.686,0,0,0-1.233.909c-.268-.5-1.129-.142-1.59.339.013-.027.026-.054.039-.081.218-.465-.187-1-.731-.526a6.584,6.584,0,0,0-2,2.934,11.315,11.315,0,0,1-1.024,1.01c-.178.153-1.008.922-1.2.855s-.085-.541,0-.877l.089-.124c.69-.96,4.017-5.482,1.673-5.441a.84.84,0,0,0-.652.4,15.585,15.585,0,0,0-1.92,4.093c-.077.266-.184.609-.271.968q-.1.138-.205.274c-.931,1.22-2.218,2.981-3.727,3.583-.139-1.912.825-4.174,1.554-6.179q.472-1.3.983-2.593a.727.727,0,0,0,.324-.169c1.63-1.372,2.3-3.406,1.557-4.773-.213-.394-.862-.036-1.049.383q-1.683,3.776-3.052,7.58c-.806,2.247-1.721,4.621-1.385,6.7.035.219.291.3.529.248,1.72-.375,3.219-1.906,4.426-3.432a.717.717,0,0,0,.471.416c.8.238,1.894-.653,2.681-1.4a3.111,3.111,0,0,0,.141.756c.085.263.357.322.676.194a6.231,6.231,0,0,0,2.026-1.354,4.365,4.365,0,0,0,2.026-1.626,10.7,10.7,0,0,0,1-1,1.533,1.533,0,0,0,.279.509c.293.335,1.031.032,1.5-.183a4.968,4.968,0,0,0,1.237-.813,2.459,2.459,0,0,0,.852-.232.7.7,0,0,0,.2.211.881.881,0,0,0,.983-.093c-.077.218-.156.437-.239.655q-1.171.59-2.338,1.193c-.514.265-.634,1.052-.058,1.008l2.145-.163a.853.853,0,0,0,.718-.541q.189-.429.363-.859,8.387-4.2,16.927-7.734C-1527.646,1745.768-1527.888,1744.835-1528.612,1745.134Zm-24.918,8.228a3.475,3.475,0,0,1-.177.447c-.048.1-.1.2-.159.3A3.8,3.8,0,0,1-1553.53,1753.362Zm-1.574,1.341a1.335,1.335,0,0,0-.018.815,4.87,4.87,0,0,1-.536.355,3.086,3.086,0,0,1,.061-1c.248-.292.481-.594.7-.9A5.3,5.3,0,0,0-1555.1,1754.7Z" transform="translate(1701.305 -1579.417)" fill="#365da2"></path><g id="Grupo_714" data-name="Grupo 714" transform="translate(60.028 162.144)"><path id="Trazado_3687" data-name="Trazado 3687" d="M-1928.373,1728c-1.925,3.578-3.005,7.25-4.57,10.871a29.046,29.046,0,0,1-2.826,5.193c-.812,1.16-2.582,3.683-4.082,3.136-.374-.136-.478-.457-.356-.893.027-.1.059-.2.094-.3a.828.828,0,0,0,.778-.091,2.791,2.791,0,0,0,1.107-1.232c.225-.486.189-.994-.2-1.21a1.1,1.1,0,0,0-1.221.343,4.074,4.074,0,0,0-.782,1.385,4.284,4.284,0,0,0-.529,1.74c.055.826.946,1.12,1.818.928a5.563,5.563,0,0,0,2.71-2,23.259,23.259,0,0,0,2.221-3.132,43.39,43.39,0,0,0,3.1-6.74,66.092,66.092,0,0,1,3.331-7.826C-1927.56,1727.754-1928.146,1727.574-1928.373,1728Zm-10.423,16.247c.065.253-.179.585-.38.818a1.321,1.321,0,0,1-.228.225.778.778,0,0,1-.162.1.249.249,0,0,0-.051.012.217.217,0,0,0-.2-.113c.085-.19.173-.377.257-.555C-1939.436,1744.461-1938.933,1743.713-1938.8,1744.243Z" transform="translate(1940.967 -1727.756)" fill="#365da2"></path><path id="Trazado_3688" data-name="Trazado 3688" d="M-1885.314,1780.341a4.289,4.289,0,0,1-1.222.508,1.17,1.17,0,0,1-.312.009,1.927,1.927,0,0,0,.6-.948c.072-.519-.5-.638-.984-.372a1.489,1.489,0,0,0-.741,1.118.765.765,0,0,0,.06.369,2.713,2.713,0,0,1-1.578.634,5.737,5.737,0,0,0,1.452-1.435.3.3,0,0,0,.021-.326.955.955,0,0,0-1.222-.094,2.447,2.447,0,0,0-1.049,1.263,1.806,1.806,0,0,0-.135.462,3.631,3.631,0,0,1-1.551.351v-.009q.244-.226.479-.46c.235-.234.1-.474-.124-.5a1,1,0,0,0-1,.781,14.931,14.931,0,0,1-2.459,1.781c-.218.125-.513.379-.658.218a7.694,7.694,0,0,0,1-.882c.591-.623,1.177-1.737.477-2.122a.408.408,0,0,0-.5.12l-.922,1.225a5.361,5.361,0,0,0-.709,1.1,1.423,1.423,0,0,0-.1.385,6.71,6.71,0,0,1-.975.5l-.084.035q.272-.217.542-.436a2.246,2.246,0,0,0,1-1.476,1.654,1.654,0,0,0-.643-1.235c-.088-.087-.3-.045-.423.052a6.635,6.635,0,0,0-2.187,2.807,1.1,1.1,0,0,0-.031.92q-1.314,1-2.658,1.957c-.095.067-.325.278-.419.247s-.05-.232-.051-.325a6.369,6.369,0,0,1,.043-.751,7.433,7.433,0,0,1,.409-1.681,9.126,9.126,0,0,1,.682-1.453.358.358,0,0,0,.375-.069,2.289,2.289,0,0,0,.943-1.942c-.023-.236-.4-.2-.578,0a9.431,9.431,0,0,0-2.574,6.285c.02.451.224.829.827.578a4.336,4.336,0,0,0,.782-.5q.491-.35.978-.706.916-.669,1.821-1.361a3.119,3.119,0,0,0,1.078-.242,7.35,7.35,0,0,0,1.243-.594.621.621,0,0,0,.652.31,3.447,3.447,0,0,0,1.09-.55c.363-.219.721-.451,1.07-.7s.666-.5.985-.766c.073.1.2.132.42.138a3.706,3.706,0,0,0,.919-.1,4.849,4.849,0,0,0,.992-.35.629.629,0,0,0,.163.112,1.788,1.788,0,0,0,1.342-.083,5.062,5.062,0,0,0,1.263-.71,1.228,1.228,0,0,0,.369.1,3.689,3.689,0,0,0,1.957-.6C-1884.728,1780.688-1884.873,1780.108-1885.314,1780.341Zm-13.1,3.034a5.752,5.752,0,0,1,1.394-1.731.779.779,0,0,1,.135,1.089,4.193,4.193,0,0,1-.722.637q-.414.33-.831.656l-.219.169C-1898.752,1784-1898.519,1783.579-1898.414,1783.375Zm3.762-1.765a2.76,2.76,0,0,1-.72,1.03c-.045.043-.09.086-.136.128C-1895.258,1782.375-1894.952,1781.99-1894.652,1781.61Zm5.851-1.327a4.42,4.42,0,0,1-.854.8C-1889.48,1780.7-1889.073,1780.262-1888.8,1780.283Zm1.607-.019c.04-.067.231-.281.2-.135a1.159,1.159,0,0,1-.272.336A.516.516,0,0,1-1887.194,1780.264Z" transform="translate(1910.801 -1768.922)" fill="#365da2"></path></g></g><g id="Grupo_716" data-name="Grupo 716" transform="translate(-2744.679 602.443)"><path id="Trazado_3689" data-name="Trazado 3689" d="M-2238.248,910.969s-1.174-16.747-22.922-10.406c-4.935,1.439-4.293,16.338,7.657,22.01Z" transform="translate(2272.681 -899.13)" fill="#2b478b"></path><path id="Trazado_3690" data-name="Trazado 3690" d="M-2182.349,1066.447s8.513,1.541,11.67,4.7,10.607,12.47,5.92,43.523c0,0-.376,9.359-10.9,10.261S-2182.349,1066.447-2182.349,1066.447Z" transform="translate(2208.086 -1032.498)" fill="#b64c41"></path><path id="Trazado_3691" data-name="Trazado 3691" d="M-2276.39,1363.377c1.464,10.19,11.285,36.676,11,45.83-.226,7.214-.107,23.879.845,34.95a68.3,68.3,0,0,0,.964,7.476c.845,4.083,1.929,8.785,2.512,11.749,1.3,6.654.619,10.535,1.679,14.106,1.167,3.9,14.559,3.19,10.523.821a11.851,11.851,0,0,1-4.571-4.964c-3.762-8.428,1.512-44.771,3.083-58.782.2-1.75.345-3.142.4-4.095.524-8.654,6.465-66.308,6.465-66.308C-2257.915,1336.138-2277.843,1353.187-2276.39,1363.377Z" transform="translate(2282.564 -1252.204)" fill="#d9935c"></path><path id="Trazado_3692" data-name="Trazado 3692" d="M-2276.388,1363.3c1.464,10.19,11.285,36.676,11,45.83-.226,7.214-.107,23.879.845,34.95l14.189-29.593c.2-1.75.345-3.142.4-4.095.524-8.654,6.614-66.33,6.614-66.33C-2257.763,1336.037-2277.84,1353.109-2276.388,1363.3Z" transform="translate(2282.562 -1252.125)" fill="#cb8757"></path><path id="Trazado_3693" data-name="Trazado 3693" d="M-2253.206,1344.98s-12.391,56.958-13.8,65.509-12.692,48.817-10.232,58.907c1.451,5.952,3.98,7.713,3.98,7.713.6,1.091-9.206,3.259-10-.918-1.005-5.3-1.216-12.745-2.688-25.364-2.535-21.726,2.493-34.089,3.712-43.168s-4.092-37.941-1.144-47.8C-2278.216,1342.594-2266.728,1335.517-2253.206,1344.98Z" transform="translate(2290.679 -1251.15)" fill="#d9935c"></path><path id="Trazado_3694" data-name="Trazado 3694" d="M-2288.837,1398.177s3.226.5,7.976.834l2.583-10.357.9,10.547c7.63.31,17.594-.071,24.939-3.107l-1.583-52.151a41.53,41.53,0,0,1-23.435-2.11S-2294.1,1354.827-2288.837,1398.177Z" transform="translate(2293.244 -1252.008)" fill="#b64c41"></path><path id="Trazado_3695" data-name="Trazado 3695" d="M-2280.471,1956.984h-11.476c-.917-1.337-2.2-6.736-3.174-7.82-.065-.071-.136-.156-.211-.252l-.1,8.071h-1.045a89.353,89.353,0,0,0-.732-11.028c-.627-1.2-1.073-2.356-.879-2.845.406-1.019,4.153-3.279,4.153-3.279s2.54,13.82,4.091,14.209a18.176,18.176,0,0,0,7.082.273,6.07,6.07,0,0,1,2.187,1.562v0A1.054,1.054,0,0,1-2280.471,1956.984Z" transform="translate(2299.833 -1728.673)" fill="#2b478b"></path><path id="Trazado_3696" data-name="Trazado 3696" d="M-2203.221,1957.054H-2214.7c-.907-1.323-2.173-6.609-3.141-7.773l-.093,7.773h-1.045c0-.225-.008-.607-.02-1.106v0a88.374,88.374,0,0,0-.609-9.275c-.8-1.4-1.458-2.911-1.229-3.49.406-1.019,4.071-3.261,4.071-3.261s2.621,13.8,4.173,14.192a21.139,21.139,0,0,0,7.418.353S-2202.532,1955.749-2203.221,1957.054Z" transform="translate(2238.257 -1728.742)" fill="#2b478b"></path><path id="Trazado_3697" data-name="Trazado 3697" d="M-2213.726,1123.224s5.046-17.248,3.456-33.856a36.078,36.078,0,0,0-14.249-25.1s-13.042,1.1-14.721,4.746,3.953,45.155.987,52.4C-2238.253,1121.413-2228.482,1128.159-2213.726,1123.224Z" transform="translate(2253.147 -1030.763)" fill="#e7f0fd"></path><path id="Trazado_3698" data-name="Trazado 3698" d="M-2200.642,1032.1a.036.036,0,0,1,0-.01,20.62,20.62,0,0,1-.357-6.075v0c.057-.665.124-1.061.124-1.061l-.124-.038-10.478-3.191c-.152,3.327-.345,5.795-.55,7.625-.1.866-.2,1.59-.294,2.193a42.994,42.994,0,0,0,5.091,1.9c3.757,1.091,5.385.657,6.083,0A1.633,1.633,0,0,0-2200.642,1032.1Z" transform="translate(2231.436 -996.847)" fill="#d9935c"></path><path id="Trazado_3699" data-name="Trazado 3699" d="M-2199.85,1024.915v1.1s-6.985.079-11.028,3.332c.206-1.831.4-4.3.551-7.625Z" transform="translate(2230.284 -996.849)" fill="#cb8757"></path><path id="Trazado_3700" data-name="Trazado 3700" d="M-2204.207,958.878s-12.693,2.549-14.158-5.38-4.091-12.94,3.951-14.9,10.18.771,11.313,3.3S-2200.942,958.01-2204.207,958.878Z" transform="translate(2237.534 -930.054)" fill="#d9935c"></path><path id="Trazado_3701" data-name="Trazado 3701" d="M-2225.274,926.105a18.1,18.1,0,0,0-2.416.181,10.806,10.806,0,0,0-12.357,3.737c-6.038,7.579,6.995,20.3,6.995,20.3-1.74-2.312-2.242-10.534,4.3-14.644,4.058-2.548,4.222-5.244,3.76-6.926l.18.053s5.23.642,5.528,6.68C-2219.278,935.483-2216.988,925.913-2225.274,926.105Z" transform="translate(2254.807 -920.287)" fill="#2b478b"></path><path id="Trazado_3702" data-name="Trazado 3702" d="M-2271.011,1127.946c4.357.893,11.309.441,16.463-1.035a17.9,17.9,0,0,0,4.369-1.8c4.607-2.833,6.845-23.808,6.047-31.748s-14.933-24.454-14.933-24.454c-3.274,2.428-3.923,8.324-5.887,15.74C-2269.678,1102.5-2271.011,1127.946-2271.011,1127.946Z" transform="translate(2278.216 -1034.462)" fill="#b64c41"></path><path id="Trazado_3703" data-name="Trazado 3703" d="M-2271.011,1189.781c4.357.893,11.309.44,16.463-1.035a26.124,26.124,0,0,0,4.214-9.988c2.345-11.57-6.9-24.129-14.618-32.271C-2269.678,1164.33-2271.011,1189.781-2271.011,1189.781Z" transform="translate(2278.216 -1096.297)" fill="#aa413e"></path><path id="Trazado_3704" data-name="Trazado 3704" d="M-2262.356,1254.868l10.265,7.409a2.856,2.856,0,0,0,3.976-.642l11.449-15.862a2.856,2.856,0,0,0-.643-3.975l-10.265-7.409a2.856,2.856,0,0,0-3.976.642L-2263,1250.892A2.856,2.856,0,0,0-2262.356,1254.868Z" transform="translate(2272.257 -1165.937)" fill="#233862"></path><path id="Trazado_3705" data-name="Trazado 3705" d="M-2191.52,1311.57s5.018-.507,5.637.338.057,4.115-2.762,4.454-6.032-1.973-6.032-1.973Z" transform="translate(2217.371 -1227.765)" fill="#da935b"></path><path id="Trazado_3706" data-name="Trazado 3706" d="M-2287.372,1068.911a17.392,17.392,0,0,0-12,9.33c-3.869,8.035-8.035,28.718-6.993,30.653s13.541,12.35,23.808,13.689c0,0,2.232-2.827,2.083-5.357,0,0-13.838-8.63-15.029-11.011s10.564-22.171,10.416-25.594S-2287.372,1068.911-2287.372,1068.911Z" transform="translate(2306.523 -1034.462)" fill="#b64c41"></path></g><g id="Grupo_717" data-name="Grupo 717" transform="translate(-2816.088 598.968)"><path id="Trazado_3707" data-name="Trazado 3707" d="M-2635.633,1051.672s-17.529,18.1-18.37,24.919,8.34,17.5,8.34,17.5Z" transform="translate(2654.951 -1017.247)" fill="#4a75cb"></path><path id="Trazado_3708" data-name="Trazado 3708" d="M-2526.315,1964.69s.6,9.62,2.458,9.758c.248.018,9.439.018,9.439.018l11.734-.068s-.077-2.827-3.507-3.425-9.171-3.008-11.249-7.542C-2519.625,1958.662-2526.315,1964.69-2526.315,1964.69Z" transform="translate(2553.127 -1742.545)" fill="#163560"></path><path id="Trazado_3709" data-name="Trazado 3709" d="M-2655.125,1964.69s.6,9.62,2.458,9.758c.248.018,9.439.018,9.439.018l11.77-.042a3.881,3.881,0,0,0-3.542-3.451c-3.43-.6-9.171-3.008-11.249-7.542C-2648.435,1958.662-2655.125,1964.69-2655.125,1964.69Z" transform="translate(2655.802 -1742.545)" fill="#163560"></path><path id="Trazado_3710" data-name="Trazado 3710" d="M-2618.652,1410.642s-3.069,19.628-14.517,54.471-13.009,49.931-13.009,49.931a50.422,50.422,0,0,1-6.368.449,40.32,40.32,0,0,1-5.914-.794s-.1-38.079,5.171-55.6,1.139-63.165,1.139-63.165Z" transform="translate(2658.46 -1291.657)" fill="#355493"></path><path id="Trazado_3711" data-name="Trazado 3711" d="M-2572.58,1401.233a476.379,476.379,0,0,1-4.683,65.895c-5.117,36.317-3.383,51.733-3.383,51.733s-4.213.755-5.693.8c-1.584.052-6.564-.4-6.564-.4s-7.325-36.33-5.225-54.508-10.03-62.374-10.03-62.374Z" transform="translate(2618.364 -1295.881)" fill="#415da5"></path><path id="Trazado_3712" data-name="Trazado 3712" d="M-2549.753,1002.652l5.781,4.282,8.355-1.759c-.116-.762-.667-3.92-1.17-6.78-.03-.169-.06-.337-.089-.5-.43-2.434-.8-4.524-.8-4.524l-7.8-3.889-2.909-1.45c.008.051.226,2.7.256,3.088A24.984,24.984,0,0,1-2549.753,1002.652Z" transform="translate(2571.81 -966.517)" fill="#ffb27d"></path><path id="Trazado_3713" data-name="Trazado 3713" d="M-2539.985,1037.627c-.183-.077-11.365-3.377-12.58-2.976s-1.934,2.751-1.934,2.751l18.29,4.135S-2537.648,1038.611-2539.985,1037.627Z" transform="translate(2575.593 -1003.653)" fill="#4a75cb"></path><path id="Trazado_3714" data-name="Trazado 3714" d="M-2633.207,1123.219c1.9,8.647,33.44,9.672,41.572,1.823.925-.895.97-5.057.622-10.669-.682-10.965-2.874-27.458-2.959-35.885a66.712,66.712,0,0,0-1.345-12.011,97.572,97.572,0,0,0-4-14.377s-15.408-4.981-18.291-4.134C-2631.5,1052.047-2635.1,1114.572-2633.207,1123.219Z" transform="translate(2638.704 -1014.215)" fill="#739af0"></path><path id="Trazado_3715" data-name="Trazado 3715" d="M-2483.78,1181.045c-.682-10.965-2.874-27.458-2.959-35.885a66.712,66.712,0,0,0-1.345-12.011l-9.269-1.636S-2506.415,1168.526-2483.78,1181.045Z" transform="translate(2531.47 -1080.888)" fill="#4a75cb"></path><path id="Trazado_3716" data-name="Trazado 3716" d="M-2467,1294.648a2.181,2.181,0,0,0,.7,2.524c1.327,1.014,2.187,2.657,1.883,3.857s-3.214,3.159-4.223,2.843-3.062-1.9-2.841-2.53-1.381-5.557,1.079-7.452S-2467,1294.648-2467,1294.648Z" transform="translate(2509.67 -1209.774)" fill="#ffb27d"></path><path id="Trazado_3717" data-name="Trazado 3717" d="M-2503.445,1057.787s9.039,1.691,16.242,12.306,11.941,18.505,10.614,22.331-13.421,17.093-15.505,17.093-5.45-1.516-5.639-4.928c0,0,8.515-12.762,6.837-14.673-.717-.817-11.054-9.209-12.531-5.418C-2505.869,1090.77-2503.445,1057.787-2503.445,1057.787Z" transform="translate(2535.752 -1022.121)" fill="#739af0"></path><path id="Trazado_3718" data-name="Trazado 3718" d="M-2539.765,996.93c1.713,3.279,8.1,6.115,10.762,7.157-.03-.169-.06-.337-.089-.5-.43-2.434-.8-4.524-.8-4.524l-7.8-3.889C-2539.422,995.145-2540.472,995.581-2539.765,996.93Z" transform="translate(2564.026 -972.209)" fill="#fca56b"></path><path id="Trazado_3719" data-name="Trazado 3719" d="M-2539.161,928.342s-13.781,1.584-14.636-7.013-3.209-14.183,5.554-15.558,10.8,1.735,11.784,4.536S-2535.6,927.708-2539.161,928.342Z" transform="translate(2575.781 -900.682)" fill="#ffb27d"></path><path id="Trazado_3720" data-name="Trazado 3720" d="M-2555.969,890.75s-2.631,9.315-4.512,8.531-3.6-1.427-3.855,1.483,1.833,6.724-4.3,6.081-11.852-17.864-9.633-20.5C-2571.866,878.754-2547.079,881.689-2555.969,890.75Z" transform="translate(2594.929 -882.007)" fill="#233862"></path></g><g id="Grupo_720" data-name="Grupo 720" transform="translate(-2541.053 626.305)"><path id="Trazado_3721" data-name="Trazado 3721" d="M-916.782,1910.267l-3.248,13.681-4.865-.028-.178-13.653Z" transform="translate(1001.746 -1728.969)" fill="#ffb27d"></path><path id="Trazado_3722" data-name="Trazado 3722" d="M-1136.369,1906.067l-9.242,13.1-3.6-4.625,5.563-10.273Z" transform="translate(1180.407 -1724.185)" fill="#ffb27d"></path><path id="Trazado_3723" data-name="Trazado 3723" d="M-988.2,1018.261a9.422,9.422,0,0,1,5.1-.976,2.384,2.384,0,0,0-1.076-.51,7.905,7.905,0,0,1,2.822.736c12.144-4.679,14.053,13.2,13.8,17.356s4.081,5.51,10.4,8.783c12.055,6.245,13.114,14.608,13.114,14.608-.094.055-.192.118-.3.19-.6-1.013-1.829-2.916-2.868-3.2a42.931,42.931,0,0,1,1.67,4.068c-3.557,2.705-10.209,8.7-14.846,12.95a6.81,6.81,0,0,0-.316-2.633l-.573,3.45c-2.481,2.281-4.192,3.885-4.192,3.885.307-3.357-15.183-21.073-23.264-26.378-1.967-2.9-2.667-8.012-2.719-8.415a22.089,22.089,0,0,0,1.654,7.613C-996.639,1043.488-992.655,1020.791-988.2,1018.261Z" transform="translate(1056.269 -1016.737)" fill="#b64c41"></path><path id="Trazado_3724" data-name="Trazado 3724" d="M-967.732,1137.87c-.04.018,3.9,2.065,6.867,1.254,2.789-.76,4.612-4.377,4.573-4.385-1.181-.235-1.522-1.858-1.5-8.833l-.534.105-8.979,1.778s.2,2.826.21,5.488C-967.085,1135.512-967.221,1137.632-967.732,1137.87Z" transform="translate(1035.749 -1103.755)" fill="#ffb27d"></path><path id="Trazado_3725" data-name="Trazado 3725" d="M-965.607,1128.2s.2,2.826.21,5.488c5.025-.142,7.68-4.725,8.769-7.266Z" transform="translate(1034.055 -1104.168)" fill="#d68d5d"></path><path id="Trazado_3726" data-name="Trazado 3726" d="M-977.915,1049.13a26.4,26.4,0,0,0,3.265-7.718c.451-2.54-.842-11.954-10.3-10.6a12.854,12.854,0,0,0-5.33,2.015c-2.054,1.387-5.018,4.382-1.7,12.6l.861,2.775Z" transform="translate(1056.27 -1027.851)" fill="#b64c41"></path><path id="Trazado_3727" data-name="Trazado 3727" d="M-1141.986,1532.625l4.759.146,5.152.158a101.692,101.692,0,0,0,18.575-34.488q.233-.74.494-1.5c3.653-10.652,11.226-24.022,15.217-36.124.635-1.928,1.206-3.742,1.717-5.459.164-.55.324-1.09.475-1.622a128.355,128.355,0,0,0,4.577-24.1l-28.818.231A537.187,537.187,0,0,1-1141.986,1532.625Z" transform="translate(1174.646 -1345.861)" fill="#80bdcc"></path><path id="Trazado_3728" data-name="Trazado 3728" d="M-1029.351,1202.406c.073,13.713-2.011,19.6-2.011,19.6a38.724,38.724,0,0,0,27,1.655c.173-.054,12.142-2.786,12.142-2.786-.246-.555-2.428-9.8-2.667-10.306-3.1-6.649-5.447-9.564-5.815-11.608a43.48,43.48,0,0,1-.357-11.489,92.2,92.2,0,0,1,3.556-18.042,94.588,94.588,0,0,1-12-4.024c-.957,1.191-3.777,2.4-6.314,2.338-2.921-.064-3.833-1.3-3.726-2.691-3.113,1.732-5.587,3.38-5.587,3.38-2.646,4.6-8.011,9.058-8.4,16.108C-1033.623,1186.269-1029.353,1202.021-1029.351,1202.406Z" transform="translate(1088.195 -1134.955)" fill="#e7f1fd"></path><path id="Trazado_3729" data-name="Trazado 3729" d="M-907.8,1263.076c1.26,1.783,3.675,12.62,9.683,13.982-3.1-7.723-5.447-11.11-5.815-13.484a58.584,58.584,0,0,1-.357-13.345c-2.011-3.525-3.512-5.942-3.512-5.942-.158-.57-3.2-9.966-4.17-1.568S-909.211,1261.082-907.8,1263.076Z" transform="translate(991.431 -1194.098)" fill="#5f9aa8"></path><path id="Trazado_3730" data-name="Trazado 3730" d="M-989.431,1068.807s11.888.2,11.9-7.209,1.548-12.367-6.042-12.805-9.068,2.386-9.672,4.857S-992.523,1068.565-989.431,1068.807Z" transform="translate(1056.201 -1042.253)" fill="#ffb27d"></path><path id="Trazado_3731" data-name="Trazado 3731" d="M-996.09,1043.089c1.835-2.224,3.222-1.74,4-1.072,2.569-3.839,10.688,1.713,10.688,1.713a14.145,14.145,0,0,0,4.627,8.357s-2.167,1.339-7.162.054c-3.931-1.011-6.784-6.606-7.821-8.944a9.433,9.433,0,0,0-2.646,3.5c-.593,1.886-.859,5.768-1.99,5.636C-996.393,1052.334-998.845,1046.429-996.09,1043.089Z" transform="translate(1059.396 -1035.809)" fill="#b64c41"></path><path id="Trazado_3732" data-name="Trazado 3732" d="M-924.135,1973.923a13.184,13.184,0,0,0,.62,5.609s.8,3.628-2.777,3.7-4.45-.27-4.045-2.495,1.174-6.073,1.174-6.073Z" transform="translate(1006.014 -1779.709)" fill="#ffb27d"></path><path id="Trazado_3733" data-name="Trazado 3733" d="M-931.654,2006.675l.012.008h7.394l.012-.008a19.064,19.064,0,0,0-.257-5.472c-4.046,3.869-6.579-.1-6.579-.1C-931.73,2002.76-931.654,2006.675-931.654,2006.675Z" transform="translate(1006.993 -1801.376)" fill="#163560"></path><path id="Trazado_3734" data-name="Trazado 3734" d="M-1191.665,1966.1s6.589-7.482,8.611-11.2l4.9,2.51-10.951,10.284-2.562-.337Z" transform="translate(1214.248 -1764.543)" fill="#ffb27d"></path><path id="Trazado_3735" data-name="Trazado 3735" d="M-1211.57,1979.6h9.141a14.912,14.912,0,0,0,2.513-4.1,4.423,4.423,0,0,1,2.983-2.035v6.138h1.891l1.751-6.527c1.166-2.186.29-4.192-.53-5.92-.954,0-3.723.688-8.59,6.279a6.33,6.33,0,0,1-5.12,2.438.429.429,0,0,1-.072.039C-1210.373,1977.176-1211.276,1978.739-1211.57,1979.6Z" transform="translate(1230.112 -1774.309)" fill="#163560"></path><path id="Trazado_3736" data-name="Trazado 3736" d="M-1214.257,1173.8s7.8,4.363,10.591,5.621c.991.447,2.787,1.283,4.622,2.14,1.108.517,2.229,1.044,3.2,1.5a4.022,4.022,0,0,0,4.766-1.028c4.225-4.934,15.161-15.627,26.454-16.968l.039-.017-.005.012.014,0-.062.122c-.635,1.578-6.825,17.046-7.017,20.309-.2,3.439-.809,56.232-.809,56.232s.4,2.427-4.248,1.416-5.866-2.023-5.866-2.023,4.45-32.566,3.236-43.893a25.19,25.19,0,0,1,.474-7.3,58.008,58.008,0,0,1-14.987,6.019,68.253,68.253,0,0,1-7.724-4.232,48.49,48.49,0,0,1-6.513-5.24,95.666,95.666,0,0,1-7.4-8.521Z" transform="translate(1233.242 -1134.955)" fill="#e37970"></path><path id="Trazado_3737" data-name="Trazado 3737" d="M-1118.529,1614.784l5.152.158a101.691,101.691,0,0,0,18.575-34.488q.233-.74.493-1.5c3.653-10.652,11.226-24.022,15.217-36.124.635-1.928,1.206-3.742,1.717-5.459.164-.55.324-1.09.475-1.622l-4.244-3.22s-12.741,20.632-16.686,40.048C-1101.255,1589.444-1114.977,1609.737-1118.529,1614.784Z" transform="translate(1155.949 -1427.875)" fill="#5f9aa8"></path><path id="Trazado_3738" data-name="Trazado 3738" d="M-947.58,1552.876c-.073,9.442.4,31.15,1.634,40.137h4.563c2.522,0,3.78-.036,3.78-.036,3.085-15.626,5.279-28.555,6.877-39.7,1.311-9.143,2.476-16.981,3.372-23.729.9-6.79,1.529-12.476,1.753-17.28q.052-1.135.075-2.207t.012-2.093l-24.9-2.427C-950.1,1522.088-947.54,1547.388-947.58,1552.876Z" transform="translate(1021.943 -1406.364)" fill="#80bdcc"></path><path id="Trazado_3739" data-name="Trazado 3739" d="M-905.909,1619.442c2.522,0,3.78-.036,3.78-.036,3.085-15.626,5.279-28.555,6.877-39.7,1.311-9.143,2.476-16.981,3.372-23.729.9-6.79,1.529-12.476,1.753-17.28l-9.136,5.374s5.831,2.057,3.606,17.632S-902.812,1617.238-905.909,1619.442Z" transform="translate(986.47 -1432.794)" fill="#5f9aa8"></path><path id="Trazado_3740" data-name="Trazado 3740" d="M-945.131,1242.1s1.754,6.337,7.822,5.528,14.7-4.45,14.7-4.45-2.593-8.194-5.817-18.959c-3.9-13.032-8.736-29.833-11.014-40.43a65.58,65.58,0,0,1-1.238-7.225l-5.139-9.772s-7.4,16.851-7.806,21.1S-945.131,1242.1-945.131,1242.1Z" transform="translate(1024.516 -1136.342)" fill="#e37970"></path><path id="Trazado_3741" data-name="Trazado 3741" d="M-910.4,1263.561c.271,6.877,1.889,20.227,16.317,27.374.039.018.077.038.115.055-3.9-13.032-8.736-29.833-11.014-40.43C-907.631,1254.519-910.548,1259.774-910.4,1263.561Z" transform="translate(990.054 -1203.116)" fill="#c45446"></path><g id="Grupo_718" data-name="Grupo 718" transform="translate(17.745 38.844)"><path id="Trazado_3742" data-name="Trazado 3742" d="M-1203.666,1213.8c.991.447,2.787,1.283,4.622,2.14-.981,1.743-2.21,4.911-2.536,10.148a42.373,42.373,0,0,1-6.708-5.4,88.926,88.926,0,0,1-7.209-8.358l1.24-4.148S-1206.453,1212.542-1203.666,1213.8Z" transform="translate(1215.497 -1208.179)" fill="#ffb27d"></path></g><g id="Grupo_719" data-name="Grupo 719" transform="translate(0 22.39)"><path id="Trazado_3743" data-name="Trazado 3743" d="M-1302.881,1127.317h0a.481.481,0,0,0,.157.661l2.865,1.765.5-.818-2.865-1.766A.481.481,0,0,0-1302.881,1127.317Z" transform="translate(1302.952 -1127.088)" fill="#163560"></path><path id="Trazado_3744" data-name="Trazado 3744" d="M-988.97,1363.187l-.564.914-3.461-2.133-2.681,4.349,3.244,2a8.638,8.638,0,0,1-9.368,1.834c-6.289-2.584-15.224-7.877-27.2-16.116a6.183,6.183,0,0,0-5.01-3.494l-.824-.582a1.236,1.236,0,0,0-1.723.294,1.234,1.234,0,0,0,.294,1.723c15.112,10.708,26.078,17.4,33.524,20.462a11.1,11.1,0,0,0,12.462-2.794l.074.046a2.555,2.555,0,0,0,3.515-.834,2.553,2.553,0,0,0-.744-3.453l.566-.919a1.236,1.236,0,0,0-.4-1.7A1.236,1.236,0,0,0-988.97,1363.187Z" transform="translate(1090.792 -1304.557)" fill="#163560"></path><path id="Trazado_3745" data-name="Trazado 3745" d="M-1291.846,1132.737a.758.758,0,0,0-.655,1.063c4.687,10.386,76.565,58.607,85.862,62.086q.665.249,1.3.445c8.273,2.577,14.55-7.607,8.529-13.839q-.46-.476-.98-.958C-1205.08,1174.791-1280.461,1132.255-1291.846,1132.737Z" transform="translate(1294.674 -1131.588)" fill="#415da5"></path><path id="Trazado_3746" data-name="Trazado 3746" d="M-1275.47,1141.993a742.4,742.4,0,0,1,66.747,33.392S-1244.6,1152.29-1275.47,1141.993Z" transform="translate(1281.046 -1138.969)" fill="#a0c0ef"></path></g><path id="Trazado_3747" data-name="Trazado 3747" d="M-1036.64,1299.088c2.921.384,4.726.885,5.087,2.979a8.89,8.89,0,0,0,1.272,3.035c2.909.156,9.837.533,15.658.9l.48,7.635a87.164,87.164,0,0,1-17.42-4.123,4.556,4.556,0,0,1-1.983-1.078c-4.19-3.432-6.84-6.532-6.847-7.354S-1039.56,1298.7-1036.64,1299.088Z" transform="translate(1093.667 -1241.751)" fill="#ffb27d"></path><path id="Trazado_3748" data-name="Trazado 3748" d="M-917.8,1166.788s12.342.875,15.309,7.483,3.911,28.588.135,35.061c0,0-5.2,1.481-14.392-.239l-.34-.064s-2.933-7.181-.3-8.6c0,0,7.754.4,6.945-2.157S-917.8,1166.788-917.8,1166.788Z" transform="translate(996.496 -1136.342)" fill="#e37970"></path><path id="Trazado_3749" data-name="Trazado 3749" d="M-1231.968,1196.672s-6.134-6.486-3.564-7.771,6.066.959,4.6,5.043S-1229.419,1195.177-1231.968,1196.672Z" transform="translate(1249.713 -1153.68)" fill="#ffb27d"></path></g><path id="Trazado_3750" data-name="Trazado 3750" d="M-2344.154,2025.577h-511.451a.608.608,0,0,1-.606-.606h0a.608.608,0,0,1,.606-.606h511.451a.608.608,0,0,1,.606.606h0A.608.608,0,0,1-2344.154,2025.577Z" transform="translate(0 -1193.61)" fill="#202f4e"></path></g></svg>