<svg xmlns="http://www.w3.org/2000/svg" width="508.683" height="282.504" viewBox="0 0 508.683 282.504"><g transform="translate(-152.794 -237.236)"><g id="Grupo_722" data-name="Grupo 722" transform="translate(152.794 237.236)"><path id="Trazado_3751" data-name="Trazado 3751" d="M638.852,519.046c-27.52,0-440.68.1-440.911-.619l-.039-.091a.484.484,0,0,1-.039-.133c-.153-.359-79.558-32.343-27.216-103.886,27.432-37.495-21.54-94.9,36.766-145.551,91.368-79.374,178.56,18.393,215.519,0,31.066-15.46,80.989-37.613,131.663-17.747,13.924,5.458,44.075,32.838,19.036,78.883-12.511,23.007,43.006,25.678,63.314,50.123C681.171,433.258,655.309,519.046,638.852,519.046Z" transform="translate(-152.794 -237.236)" fill="#ebf3fa"></path></g><g id="Grupo_725" data-name="Grupo 725" transform="translate(483.742 276.696)" opacity="0.5"><g id="Grupo_723" data-name="Grupo 723" transform="translate(0 2.742)" opacity="0.5"><path id="Trazado_3752" data-name="Trazado 3752" d="M1760.765,516.332s-5.306-42.026,9.532-71.6a4.7,4.7,0,0,1,8.779,1.092q.024.107.048.217C1780.669,453.393,1764.913,489.941,1760.765,516.332Z" transform="translate(-1759.842 -442.163)" fill="#aec3ff"></path></g><g id="Grupo_724" data-name="Grupo 724" transform="translate(1.294 0)" opacity="0.5"><path id="Trazado_3753" data-name="Trazado 3753" d="M1766.128,518.079s8.117-56.207,38.084-87.643a4.99,4.99,0,0,1,6.875-.4c1.292,1.143,2.255,3.192,2.031,6.821C1812.519,446.54,1780.354,486.64,1766.128,518.079Z" transform="translate(-1766.128 -428.85)" fill="#aec3ff"></path></g></g><g id="Grupo_808" data-name="Grupo 808" transform="translate(204.593 289.208)" opacity="0.4"><g id="Grupo_738" data-name="Grupo 738" transform="translate(9.091 11.149)"><g id="Grupo_726" data-name="Grupo 726" transform="translate(0)"><path id="Rect&#xE1;ngulo_2761" data-name="Rect&#xE1;ngulo 2761" d="M11.722,0h0A11.723,11.723,0,0,1,23.445,11.723V68.772A11.722,11.722,0,0,1,11.723,80.494h0A11.722,11.722,0,0,1,0,68.772V11.722A11.722,11.722,0,0,1,11.722,0Z" transform="translate(23.445 80.494) rotate(180)" fill="#8c9df4"></path></g><g id="Grupo_727" data-name="Grupo 727" transform="translate(6.227 57.638)"><path id="Trazado_3754" data-name="Trazado 3754" d="M489.7,829.127a5.5,5.5,0,1,0-5.495,5.495A5.495,5.495,0,0,0,489.7,829.127Z" transform="translate(-478.71 -823.632)" fill="#505aba"></path></g><g id="Grupo_728" data-name="Grupo 728" transform="translate(5.646 57.088)"><path id="Trazado_3755" data-name="Trazado 3755" d="M481.962,833.115a6.077,6.077,0,1,1,6.077-6.077A6.084,6.084,0,0,1,481.962,833.115Zm0-10.99a4.913,4.913,0,1,0,4.913,4.913A4.919,4.919,0,0,0,481.962,822.125Z" transform="translate(-475.885 -820.961)" fill="#fff"></path></g><g id="Grupo_729" data-name="Grupo 729" transform="translate(4.854 3.684)"><path id="Rect&#xE1;ngulo_2762" data-name="Rect&#xE1;ngulo 2762" d="M5.081,0H8.648A5.082,5.082,0,0,1,13.73,5.082V40.164a5.082,5.082,0,0,1-5.082,5.082H5.081A5.081,5.081,0,0,1,0,40.165V5.081A5.081,5.081,0,0,1,5.081,0Z" transform="translate(13.73 45.246) rotate(180)" fill="#aec3ff"></path></g><g id="Grupo_730" data-name="Grupo 730" transform="translate(6.463 5.321)"><rect id="Rect&#xE1;ngulo_2763" data-name="Rect&#xE1;ngulo 2763" width="10.233" height="1.814" rx="0.907" transform="translate(10.233 1.814) rotate(180)" fill="#f99746"></rect></g><g id="Grupo_737" data-name="Grupo 737" transform="translate(8.271 15.02)"><g id="Grupo_731" data-name="Grupo 731" transform="translate(5.203 18.763)"><path id="Trazado_3756" data-name="Trazado 3756" d="M513.9,708.249v9.326a.454.454,0,0,0,.454.454h0a.454.454,0,0,0,.454-.454v-9.326a.454.454,0,0,0-.454-.454h0A.454.454,0,0,0,513.9,708.249Z" transform="translate(-513.896 -707.795)" fill="#505aba"></path></g><g id="Grupo_732" data-name="Grupo 732" transform="translate(5.203 5.932)"><path id="Trazado_3757" data-name="Trazado 3757" d="M513.9,645.945v9.326a.454.454,0,0,0,.454.454h0a.454.454,0,0,0,.454-.454v-9.326a.454.454,0,0,0-.454-.454h0A.454.454,0,0,0,513.9,645.945Z" transform="translate(-513.896 -645.491)" fill="#505aba"></path></g><g id="Grupo_733" data-name="Grupo 733" transform="translate(0 18.763)"><path id="Trazado_3758" data-name="Trazado 3758" d="M488.633,708.249v9.326a.453.453,0,0,0,.453.454h0a.454.454,0,0,0,.454-.454v-9.326a.454.454,0,0,0-.454-.454h0A.453.453,0,0,0,488.633,708.249Z" transform="translate(-488.633 -707.795)" fill="#505aba"></path></g><g id="Grupo_734" data-name="Grupo 734" transform="translate(0 5.932)"><path id="Trazado_3759" data-name="Trazado 3759" d="M488.633,645.945v9.326a.454.454,0,0,0,.453.454h0a.454.454,0,0,0,.454-.454v-9.326a.454.454,0,0,0-.454-.454h0A.454.454,0,0,0,488.633,645.945Z" transform="translate(-488.633 -645.491)" fill="#505aba"></path></g><g id="Grupo_735" data-name="Grupo 735" transform="translate(2.707 16.131)"><path id="Trazado_3760" data-name="Trazado 3760" d="M501.778,695.469v11.958a.454.454,0,0,0,.454.453h0a.454.454,0,0,0,.454-.453V695.469a.454.454,0,0,0-.454-.453h0A.454.454,0,0,0,501.778,695.469Z" transform="translate(-501.778 -695.015)" fill="#505aba"></path></g><g id="Grupo_736" data-name="Grupo 736" transform="translate(2.707)"><path id="Trazado_3761" data-name="Trazado 3761" d="M501.778,617.139V629.1a.454.454,0,0,0,.454.453h0a.454.454,0,0,0,.454-.453V617.139a.454.454,0,0,0-.454-.454h0A.454.454,0,0,0,501.778,617.139Z" transform="translate(-501.778 -616.685)" fill="#505aba"></path></g></g></g><g id="Grupo_751" data-name="Grupo 751" transform="translate(38.329 11.149)"><g id="Grupo_739" data-name="Grupo 739" transform="translate(0)"><rect id="Rect&#xE1;ngulo_2764" data-name="Rect&#xE1;ngulo 2764" width="23.445" height="80.494" rx="11.723" transform="translate(23.445 80.494) rotate(-180)" fill="#8c9df4"></rect></g><g id="Grupo_740" data-name="Grupo 740" transform="translate(6.228 57.638)"><path id="Trazado_3762" data-name="Trazado 3762" d="M631.681,829.127a5.5,5.5,0,1,0-5.495,5.495A5.5,5.5,0,0,0,631.681,829.127Z" transform="translate(-620.691 -823.632)" fill="#505aba"></path></g><g id="Grupo_741" data-name="Grupo 741" transform="translate(5.646 57.088)"><path id="Trazado_3763" data-name="Trazado 3763" d="M623.942,833.115a6.077,6.077,0,1,1,6.077-6.077A6.084,6.084,0,0,1,623.942,833.115Zm0-10.99a4.913,4.913,0,1,0,4.913,4.913A4.919,4.919,0,0,0,623.942,822.125Z" transform="translate(-617.865 -820.961)" fill="#fff"></path></g><g id="Grupo_742" data-name="Grupo 742" transform="translate(4.854 3.684)"><rect id="Rect&#xE1;ngulo_2765" data-name="Rect&#xE1;ngulo 2765" width="13.73" height="45.246" rx="5.082" transform="translate(13.73 45.246) rotate(180)" fill="#aec3ff"></rect></g><g id="Grupo_743" data-name="Grupo 743" transform="translate(6.463 5.321)"><rect id="Rect&#xE1;ngulo_2766" data-name="Rect&#xE1;ngulo 2766" width="10.233" height="1.814" rx="0.907" transform="translate(10.233 1.814) rotate(180)" fill="#f99746"></rect></g><g id="Grupo_750" data-name="Grupo 750" transform="translate(8.271 15.02)"><g id="Grupo_744" data-name="Grupo 744" transform="translate(5.203 18.763)"><path id="Trazado_3764" data-name="Trazado 3764" d="M655.877,708.249v9.326a.454.454,0,0,0,.453.454h0a.453.453,0,0,0,.453-.454v-9.326a.453.453,0,0,0-.453-.454h0A.454.454,0,0,0,655.877,708.249Z" transform="translate(-655.877 -707.795)" fill="#505aba"></path></g><g id="Grupo_745" data-name="Grupo 745" transform="translate(5.203 5.932)"><path id="Trazado_3765" data-name="Trazado 3765" d="M655.877,645.945v9.326a.454.454,0,0,0,.453.454h0a.454.454,0,0,0,.453-.454v-9.326a.454.454,0,0,0-.453-.454h0A.454.454,0,0,0,655.877,645.945Z" transform="translate(-655.877 -645.491)" fill="#505aba"></path></g><g id="Grupo_746" data-name="Grupo 746" transform="translate(0 18.763)"><path id="Trazado_3766" data-name="Trazado 3766" d="M630.612,708.249v9.326a.454.454,0,0,0,.453.454h0a.454.454,0,0,0,.454-.454v-9.326a.454.454,0,0,0-.454-.454h0A.454.454,0,0,0,630.612,708.249Z" transform="translate(-630.612 -707.795)" fill="#505aba"></path></g><g id="Grupo_747" data-name="Grupo 747" transform="translate(0 5.932)"><path id="Trazado_3767" data-name="Trazado 3767" d="M630.612,645.945v9.326a.454.454,0,0,0,.453.454h0a.454.454,0,0,0,.454-.454v-9.326a.454.454,0,0,0-.454-.454h0A.454.454,0,0,0,630.612,645.945Z" transform="translate(-630.612 -645.491)" fill="#505aba"></path></g><g id="Grupo_748" data-name="Grupo 748" transform="translate(2.707 16.131)"><path id="Trazado_3768" data-name="Trazado 3768" d="M643.759,695.469v11.958a.453.453,0,0,0,.453.453h0a.453.453,0,0,0,.453-.453V695.469a.453.453,0,0,0-.453-.453h0A.454.454,0,0,0,643.759,695.469Z" transform="translate(-643.759 -695.015)" fill="#505aba"></path></g><g id="Grupo_749" data-name="Grupo 749" transform="translate(2.707)"><path id="Trazado_3769" data-name="Trazado 3769" d="M643.759,617.139V629.1a.453.453,0,0,0,.453.453h0a.453.453,0,0,0,.453-.453V617.139a.453.453,0,0,0-.453-.454h0A.454.454,0,0,0,643.759,617.139Z" transform="translate(-643.759 -616.685)" fill="#505aba"></path></g></g></g><g id="Grupo_764" data-name="Grupo 764" transform="translate(68.126 11.149)"><g id="Grupo_752" data-name="Grupo 752"><rect id="Rect&#xE1;ngulo_2767" data-name="Rect&#xE1;ngulo 2767" width="23.445" height="80.494" rx="11.723" transform="translate(23.445 80.494) rotate(180)" fill="#8c9df4"></rect></g><g id="Grupo_753" data-name="Grupo 753" transform="translate(6.228 57.638)"><path id="Trazado_3770" data-name="Trazado 3770" d="M776.374,829.127a5.495,5.495,0,1,0-5.5,5.495A5.495,5.495,0,0,0,776.374,829.127Z" transform="translate(-765.384 -823.632)" fill="#505aba"></path></g><g id="Grupo_754" data-name="Grupo 754" transform="translate(5.646 57.088)"><path id="Trazado_3771" data-name="Trazado 3771" d="M768.635,833.115a6.077,6.077,0,1,1,6.077-6.077A6.084,6.084,0,0,1,768.635,833.115Zm0-10.99a4.913,4.913,0,1,0,4.913,4.913A4.919,4.919,0,0,0,768.635,822.125Z" transform="translate(-762.558 -820.961)" fill="#fff"></path></g><g id="Grupo_755" data-name="Grupo 755" transform="translate(4.855 3.684)"><rect id="Rect&#xE1;ngulo_2768" data-name="Rect&#xE1;ngulo 2768" width="13.73" height="45.246" rx="5.082" transform="translate(13.73 45.246) rotate(180)" fill="#aec3ff"></rect></g><g id="Grupo_756" data-name="Grupo 756" transform="translate(6.464 5.321)"><rect id="Rect&#xE1;ngulo_2769" data-name="Rect&#xE1;ngulo 2769" width="10.233" height="1.814" rx="0.907" transform="translate(10.233 1.814) rotate(180)" fill="#f99746"></rect></g><g id="Grupo_763" data-name="Grupo 763" transform="translate(8.271 15.02)"><g id="Grupo_757" data-name="Grupo 757" transform="translate(5.203 18.763)"><path id="Trazado_3772" data-name="Trazado 3772" d="M800.569,708.249v9.326a.454.454,0,0,0,.453.454h0a.454.454,0,0,0,.454-.454v-9.326a.454.454,0,0,0-.454-.454h0A.454.454,0,0,0,800.569,708.249Z" transform="translate(-800.569 -707.795)" fill="#505aba"></path></g><g id="Grupo_758" data-name="Grupo 758" transform="translate(5.203 5.932)"><path id="Trazado_3773" data-name="Trazado 3773" d="M800.569,645.945v9.326a.454.454,0,0,0,.453.454h0a.454.454,0,0,0,.454-.454v-9.326a.454.454,0,0,0-.454-.454h0A.454.454,0,0,0,800.569,645.945Z" transform="translate(-800.569 -645.491)" fill="#505aba"></path></g><g id="Grupo_759" data-name="Grupo 759" transform="translate(0 18.763)"><path id="Trazado_3774" data-name="Trazado 3774" d="M775.3,708.249v9.326a.454.454,0,0,0,.454.454h0a.454.454,0,0,0,.454-.454v-9.326a.454.454,0,0,0-.454-.454h0A.454.454,0,0,0,775.3,708.249Z" transform="translate(-775.305 -707.795)" fill="#505aba"></path></g><g id="Grupo_760" data-name="Grupo 760" transform="translate(0 5.932)"><path id="Trazado_3775" data-name="Trazado 3775" d="M775.3,645.945v9.326a.454.454,0,0,0,.454.454h0a.454.454,0,0,0,.454-.454v-9.326a.454.454,0,0,0-.454-.454h0A.454.454,0,0,0,775.3,645.945Z" transform="translate(-775.305 -645.491)" fill="#505aba"></path></g><g id="Grupo_761" data-name="Grupo 761" transform="translate(2.707 16.131)"><path id="Trazado_3776" data-name="Trazado 3776" d="M788.451,695.469v11.958a.453.453,0,0,0,.453.453h0a.453.453,0,0,0,.454-.453V695.469a.454.454,0,0,0-.454-.453h0A.453.453,0,0,0,788.451,695.469Z" transform="translate(-788.451 -695.015)" fill="#505aba"></path></g><g id="Grupo_762" data-name="Grupo 762" transform="translate(2.707)"><path id="Trazado_3777" data-name="Trazado 3777" d="M788.451,617.139V629.1a.453.453,0,0,0,.453.453h0a.453.453,0,0,0,.454-.453V617.139a.454.454,0,0,0-.454-.454h0A.454.454,0,0,0,788.451,617.139Z" transform="translate(-788.451 -616.685)" fill="#505aba"></path></g></g></g><g id="Grupo_768" data-name="Grupo 768" transform="translate(98.813 11.149)"><g id="Grupo_765" data-name="Grupo 765" transform="translate(0)"><path id="Rect&#xE1;ngulo_2770" data-name="Rect&#xE1;ngulo 2770" d="M11.723,0h0A11.722,11.722,0,0,1,23.445,11.722v57.05A11.723,11.723,0,0,1,11.723,80.494h0A11.723,11.723,0,0,1,0,68.771V11.723A11.723,11.723,0,0,1,11.723,0Z" transform="translate(23.445 80.494) rotate(180)" fill="#8c9df4"></path></g><g id="Grupo_766" data-name="Grupo 766" transform="translate(4.854 3.684)"><path id="Rect&#xE1;ngulo_2771" data-name="Rect&#xE1;ngulo 2771" d="M5.082,0H8.647A5.083,5.083,0,0,1,13.73,5.083V40.164a5.082,5.082,0,0,1-5.082,5.082H5.082A5.082,5.082,0,0,1,0,40.164V5.082A5.082,5.082,0,0,1,5.082,0Z" transform="translate(13.73 45.246) rotate(180)" fill="#aec3ff"></path></g><g id="Grupo_767" data-name="Grupo 767" transform="translate(6.464 5.321)"><path id="Rect&#xE1;ngulo_2772" data-name="Rect&#xE1;ngulo 2772" d="M.907,0H9.326a.907.907,0,0,1,.907.907v0a.907.907,0,0,1-.907.907H.907A.907.907,0,0,1,0,.907v0A.907.907,0,0,1,.907,0Z" transform="translate(10.233 1.814) rotate(180)" fill="#f99746"></path></g></g><g id="Grupo_772" data-name="Grupo 772" transform="translate(128.426 11.149)"><g id="Grupo_769" data-name="Grupo 769" transform="translate(0)"><path id="Rect&#xE1;ngulo_2773" data-name="Rect&#xE1;ngulo 2773" d="M11.722,0h0A11.723,11.723,0,0,1,23.445,11.723V68.772A11.722,11.722,0,0,1,11.723,80.494h0A11.722,11.722,0,0,1,0,68.772V11.722A11.722,11.722,0,0,1,11.722,0Z" transform="translate(23.445 80.494) rotate(180)" fill="#8c9df4"></path></g><g id="Grupo_770" data-name="Grupo 770" transform="translate(4.854 3.684)"><path id="Rect&#xE1;ngulo_2774" data-name="Rect&#xE1;ngulo 2774" d="M5.082,0H8.648A5.082,5.082,0,0,1,13.73,5.082V40.164a5.082,5.082,0,0,1-5.082,5.082H5.081A5.081,5.081,0,0,1,0,40.165V5.082A5.082,5.082,0,0,1,5.082,0Z" transform="translate(13.73 45.246) rotate(180)" fill="#aec3ff"></path></g><g id="Grupo_771" data-name="Grupo 771" transform="translate(6.463 5.321)"><rect id="Rect&#xE1;ngulo_2775" data-name="Rect&#xE1;ngulo 2775" width="10.233" height="1.814" rx="0.907" transform="translate(10.233 1.814) rotate(180)" fill="#f99746"></rect></g></g><g id="Grupo_785" data-name="Grupo 785" transform="translate(9.091 102.195)"><g id="Grupo_773" data-name="Grupo 773" transform="translate(0 0)"><path id="Rect&#xE1;ngulo_2776" data-name="Rect&#xE1;ngulo 2776" d="M11.722,0h0A11.723,11.723,0,0,1,23.445,11.723v57.05A11.721,11.721,0,0,1,11.724,80.494h0A11.722,11.722,0,0,1,0,68.772V11.722A11.722,11.722,0,0,1,11.722,0Z" transform="translate(23.445 80.494) rotate(180)" fill="#8c9df4"></path></g><g id="Grupo_774" data-name="Grupo 774" transform="translate(6.227 57.638)"><circle id="Elipse_5" data-name="Elipse 5" cx="5.495" cy="5.495" r="5.495" fill="#505aba"></circle></g><g id="Grupo_775" data-name="Grupo 775" transform="translate(5.646 57.088)"><path id="Trazado_3778" data-name="Trazado 3778" d="M481.962,1275.222a6.077,6.077,0,1,1,6.077-6.077A6.084,6.084,0,0,1,481.962,1275.222Zm0-10.99a4.913,4.913,0,1,0,4.913,4.913A4.919,4.919,0,0,0,481.962,1264.232Z" transform="translate(-475.885 -1263.068)" fill="#fff"></path></g><g id="Grupo_776" data-name="Grupo 776" transform="translate(4.854 3.683)"><path id="Rect&#xE1;ngulo_2777" data-name="Rect&#xE1;ngulo 2777" d="M5.082,0H8.648A5.082,5.082,0,0,1,13.73,5.082V40.164a5.082,5.082,0,0,1-5.082,5.082H5.081A5.081,5.081,0,0,1,0,40.165V5.082A5.082,5.082,0,0,1,5.082,0Z" transform="translate(13.73 45.246) rotate(180)" fill="#aec3ff"></path></g><g id="Grupo_777" data-name="Grupo 777" transform="translate(6.463 5.321)"><path id="Rect&#xE1;ngulo_2778" data-name="Rect&#xE1;ngulo 2778" d="M.907,0H9.326a.907.907,0,0,1,.907.907v0a.907.907,0,0,1-.907.907H.907A.907.907,0,0,1,0,.907v0A.907.907,0,0,1,.907,0Z" transform="translate(10.233 1.815) rotate(180)" fill="#f99746"></path></g><g id="Grupo_784" data-name="Grupo 784" transform="translate(8.271 15.02)"><g id="Grupo_778" data-name="Grupo 778" transform="translate(5.203 18.763)"><path id="Trazado_3779" data-name="Trazado 3779" d="M513.9,1150.356v9.326a.454.454,0,0,0,.454.453h0a.454.454,0,0,0,.454-.453v-9.326a.454.454,0,0,0-.454-.453h0A.454.454,0,0,0,513.9,1150.356Z" transform="translate(-513.896 -1149.903)" fill="#505aba"></path></g><g id="Grupo_779" data-name="Grupo 779" transform="translate(5.203 5.932)"><path id="Trazado_3780" data-name="Trazado 3780" d="M513.9,1088.052v9.326a.454.454,0,0,0,.454.453h0a.454.454,0,0,0,.454-.453v-9.326a.454.454,0,0,0-.454-.453h0A.454.454,0,0,0,513.9,1088.052Z" transform="translate(-513.896 -1087.599)" fill="#505aba"></path></g><g id="Grupo_780" data-name="Grupo 780" transform="translate(0 18.763)"><path id="Trazado_3781" data-name="Trazado 3781" d="M488.633,1150.356v9.326a.453.453,0,0,0,.453.453h0a.454.454,0,0,0,.454-.453v-9.326a.454.454,0,0,0-.454-.453h0A.453.453,0,0,0,488.633,1150.356Z" transform="translate(-488.633 -1149.903)" fill="#505aba"></path></g><g id="Grupo_781" data-name="Grupo 781" transform="translate(0 5.932)"><path id="Trazado_3782" data-name="Trazado 3782" d="M488.633,1088.052v9.326a.453.453,0,0,0,.453.453h0a.453.453,0,0,0,.454-.453v-9.326a.454.454,0,0,0-.454-.453h0A.453.453,0,0,0,488.633,1088.052Z" transform="translate(-488.633 -1087.599)" fill="#505aba"></path></g><g id="Grupo_782" data-name="Grupo 782" transform="translate(2.707 16.131)"><path id="Trazado_3783" data-name="Trazado 3783" d="M501.778,1137.576v11.958a.454.454,0,0,0,.454.454h0a.454.454,0,0,0,.454-.454v-11.958a.454.454,0,0,0-.454-.454h0A.454.454,0,0,0,501.778,1137.576Z" transform="translate(-501.778 -1137.122)" fill="#505aba"></path></g><g id="Grupo_783" data-name="Grupo 783" transform="translate(2.707)"><path id="Trazado_3784" data-name="Trazado 3784" d="M501.778,1059.247V1071.2a.454.454,0,0,0,.454.454h0a.454.454,0,0,0,.454-.454v-11.958a.454.454,0,0,0-.454-.454h0A.454.454,0,0,0,501.778,1059.247Z" transform="translate(-501.778 -1058.793)" fill="#505aba"></path></g></g></g><g id="Grupo_798" data-name="Grupo 798" transform="translate(38.329 102.195)"><g id="Grupo_786" data-name="Grupo 786" transform="translate(0 0)"><path id="Rect&#xE1;ngulo_2779" data-name="Rect&#xE1;ngulo 2779" d="M11.723,0h0A11.723,11.723,0,0,1,23.445,11.723V68.772A11.722,11.722,0,0,1,11.723,80.494h0A11.723,11.723,0,0,1,0,68.771V11.723A11.723,11.723,0,0,1,11.723,0Z" transform="translate(23.445 80.494) rotate(180)" fill="#8c9df4"></path></g><g id="Grupo_787" data-name="Grupo 787" transform="translate(6.228 57.638)"><path id="Trazado_3785" data-name="Trazado 3785" d="M631.681,1271.233a5.5,5.5,0,1,0-5.495,5.495A5.5,5.5,0,0,0,631.681,1271.233Z" transform="translate(-620.691 -1265.738)" fill="#505aba"></path></g><g id="Grupo_788" data-name="Grupo 788" transform="translate(5.646 57.088)"><path id="Trazado_3786" data-name="Trazado 3786" d="M623.942,1275.222a6.077,6.077,0,1,1,6.077-6.077A6.084,6.084,0,0,1,623.942,1275.222Zm0-10.99a4.913,4.913,0,1,0,4.913,4.913A4.919,4.919,0,0,0,623.942,1264.232Z" transform="translate(-617.865 -1263.068)" fill="#fff"></path></g><g id="Grupo_789" data-name="Grupo 789" transform="translate(4.854 3.683)"><rect id="Rect&#xE1;ngulo_2780" data-name="Rect&#xE1;ngulo 2780" width="13.73" height="45.246" rx="5.082" transform="translate(13.73 45.246) rotate(180)" fill="#aec3ff"></rect></g><g id="Grupo_790" data-name="Grupo 790" transform="translate(6.463 5.321)"><path id="Rect&#xE1;ngulo_2781" data-name="Rect&#xE1;ngulo 2781" d="M.907,0H9.326a.907.907,0,0,1,.907.907v0a.907.907,0,0,1-.907.907H.907A.907.907,0,0,1,0,.907v0A.907.907,0,0,1,.907,0Z" transform="translate(10.233 1.815) rotate(180)" fill="#f99746"></path></g><g id="Grupo_797" data-name="Grupo 797" transform="translate(8.271 15.02)"><g id="Grupo_791" data-name="Grupo 791" transform="translate(5.203 18.763)"><path id="Trazado_3787" data-name="Trazado 3787" d="M655.877,1150.356v9.326a.453.453,0,0,0,.453.453h0a.453.453,0,0,0,.453-.453v-9.326a.453.453,0,0,0-.453-.453h0A.454.454,0,0,0,655.877,1150.356Z" transform="translate(-655.877 -1149.903)" fill="#505aba"></path></g><g id="Grupo_792" data-name="Grupo 792" transform="translate(5.203 5.932)"><path id="Trazado_3788" data-name="Trazado 3788" d="M655.877,1088.052v9.326a.453.453,0,0,0,.453.453h0a.453.453,0,0,0,.453-.453v-9.326a.453.453,0,0,0-.453-.453h0A.453.453,0,0,0,655.877,1088.052Z" transform="translate(-655.877 -1087.599)" fill="#505aba"></path></g><g id="Grupo_793" data-name="Grupo 793" transform="translate(0 18.763)"><path id="Trazado_3789" data-name="Trazado 3789" d="M630.612,1150.356v9.326a.453.453,0,0,0,.453.453h0a.454.454,0,0,0,.454-.453v-9.326a.454.454,0,0,0-.454-.453h0A.454.454,0,0,0,630.612,1150.356Z" transform="translate(-630.612 -1149.903)" fill="#505aba"></path></g><g id="Grupo_794" data-name="Grupo 794" transform="translate(0 5.932)"><path id="Trazado_3790" data-name="Trazado 3790" d="M630.612,1088.052v9.326a.453.453,0,0,0,.453.453h0a.454.454,0,0,0,.454-.453v-9.326a.454.454,0,0,0-.454-.453h0A.453.453,0,0,0,630.612,1088.052Z" transform="translate(-630.612 -1087.599)" fill="#505aba"></path></g><g id="Grupo_795" data-name="Grupo 795" transform="translate(2.707 16.131)"><path id="Trazado_3791" data-name="Trazado 3791" d="M643.759,1137.576v11.958a.454.454,0,0,0,.453.454h0a.454.454,0,0,0,.453-.454v-11.958a.453.453,0,0,0-.453-.454h0A.454.454,0,0,0,643.759,1137.576Z" transform="translate(-643.759 -1137.122)" fill="#505aba"></path></g><g id="Grupo_796" data-name="Grupo 796" transform="translate(2.707)"><path id="Trazado_3792" data-name="Trazado 3792" d="M643.759,1059.247V1071.2a.454.454,0,0,0,.453.454h0a.454.454,0,0,0,.453-.454v-11.958a.453.453,0,0,0-.453-.454h0A.454.454,0,0,0,643.759,1059.247Z" transform="translate(-643.759 -1058.793)" fill="#505aba"></path></g></g></g><g id="Grupo_800" data-name="Grupo 800" transform="translate(68.126 102.195)"><g id="Grupo_799" data-name="Grupo 799" transform="translate(0 0)"><path id="Rect&#xE1;ngulo_2782" data-name="Rect&#xE1;ngulo 2782" d="M11.723,0h0A11.723,11.723,0,0,1,23.445,11.723V68.772A11.722,11.722,0,0,1,11.723,80.494h0A11.723,11.723,0,0,1,0,68.771V11.723A11.723,11.723,0,0,1,11.723,0Z" transform="translate(23.445 80.494) rotate(180)" fill="#8c9df4"></path></g></g><g id="Grupo_802" data-name="Grupo 802" transform="translate(98.813 102.195)"><g id="Grupo_801" data-name="Grupo 801" transform="translate(0 0)"><path id="Rect&#xE1;ngulo_2783" data-name="Rect&#xE1;ngulo 2783" d="M11.723,0h0A11.722,11.722,0,0,1,23.445,11.722v57.05A11.722,11.722,0,0,1,11.723,80.494h0A11.723,11.723,0,0,1,0,68.771V11.723A11.723,11.723,0,0,1,11.723,0Z" transform="translate(23.445 80.494) rotate(180)" fill="#8c9df4"></path></g></g><g id="Grupo_804" data-name="Grupo 804" transform="translate(128.426 102.195)"><g id="Grupo_803" data-name="Grupo 803" transform="translate(0 0)"><path id="Rect&#xE1;ngulo_2784" data-name="Rect&#xE1;ngulo 2784" d="M11.722,0h0A11.723,11.723,0,0,1,23.445,11.723v57.05A11.721,11.721,0,0,1,11.724,80.494h0A11.722,11.722,0,0,1,0,68.772V11.722A11.722,11.722,0,0,1,11.722,0Z" transform="translate(23.445 80.494) rotate(180)" fill="#8c9df4"></path></g></g><g id="Grupo_805" data-name="Grupo 805" transform="translate(0 0)"><path id="Trazado_3793" data-name="Trazado 3793" d="M407.146,719.451h0a2.818,2.818,0,0,1-2.818-2.818v-224.2a2.818,2.818,0,0,1,2.818-2.819h0a2.818,2.818,0,0,1,2.818,2.819v224.2A2.818,2.818,0,0,1,407.146,719.451Z" transform="translate(-404.328 -489.609)" fill="#bdd1f9"></path></g><g id="Grupo_806" data-name="Grupo 806" transform="translate(0 91.653)"><rect id="Rect&#xE1;ngulo_2785" data-name="Rect&#xE1;ngulo 2785" width="162.861" height="2.264" transform="translate(162.861 2.264) rotate(180)" fill="#bdd1f9"></rect></g><g id="Grupo_807" data-name="Grupo 807" transform="translate(0 182.653)"><rect id="Rect&#xE1;ngulo_2786" data-name="Rect&#xE1;ngulo 2786" width="172.974" height="2.264" transform="translate(172.974 2.264) rotate(180)" fill="#bdd1f9"></rect></g></g><g id="Grupo_809" data-name="Grupo 809" transform="translate(493.22 365.549)"><path id="Trazado_3794" data-name="Trazado 3794" d="M1863.354,861.632s-15.484,13.441-12.8,16.168,16.173-16.221,16.173-16.221,20.274,4.565,25.593,9.686c0,0-21.322,8.213-18.054,10.2s25.852-5.532,25.852-5.532,17.261,9.134,12.612,19.968-12.084,12.2-14.756,10.994-16.834-12.727-17.934-10.575,6.208,12.779,12.922,15.375c0,0-17.574,9.971-24.791,3.046s-5.805-13.67-10.342-17.869-9.1-5.694-7.713-2.48,10.255,8.816,11.53,15.224,2.815,10.955-5.61,6.7-20.7-15.485-18.884-23.121q.119-.5.227-.955a3.749,3.749,0,0,0-.227.955c-1.955-.279-6.905,1.852-10.557,3.6-.583.329-1.429.752-2.618,1.3h0c-.516.263-.934.481-1.225.633-7.618,4.369-15.006,16.479-15.006,16.479l-1.878-.81c5.38-13.842,18.636-18.215,18.636-18.215a37.816,37.816,0,0,0,14.461-10.623s-7.756-18.843,7.137-24.285C1846.1,861.272,1856.455,858.889,1863.354,861.632Z" transform="translate(-1805.865 -860.312)" fill="#d2e2f9"></path></g><g id="Grupo_815" data-name="Grupo 815" transform="translate(574.68 434.688)"><g id="Grupo_810" data-name="Grupo 810" transform="translate(32.116 0)"><rect id="Rect&#xE1;ngulo_2787" data-name="Rect&#xE1;ngulo 2787" width="13.317" height="42.962" transform="translate(13.317 42.962) rotate(180)" fill="#35488b"></rect></g><g id="Grupo_811" data-name="Grupo 811" transform="translate(0 0)"><rect id="Rect&#xE1;ngulo_2788" data-name="Rect&#xE1;ngulo 2788" width="32.116" height="42.962" transform="translate(32.116 42.962) rotate(180)" fill="#2c3a64"></rect></g><g id="Grupo_812" data-name="Grupo 812" transform="translate(36.552 3.143)"><path id="Trazado_3795" data-name="Trazado 3795" d="M2383.362,1213.529a2.223,2.223,0,1,0-2.223,2.223A2.223,2.223,0,0,0,2383.362,1213.529Z" transform="translate(-2378.916 -1211.306)" fill="#dde7fe"></path></g><g id="Grupo_813" data-name="Grupo 813" transform="translate(37.203 3.794)"><path id="Trazado_3796" data-name="Trazado 3796" d="M2385.221,1216.04a1.572,1.572,0,1,0-1.572,1.571A1.572,1.572,0,0,0,2385.221,1216.04Z" transform="translate(-2382.078 -1214.468)" fill="#6c7aff"></path></g><g id="Grupo_814" data-name="Grupo 814" transform="translate(35.593 10.721)"><rect id="Rect&#xE1;ngulo_2789" data-name="Rect&#xE1;ngulo 2789" width="6.264" height="11.316" transform="translate(6.264 11.316) rotate(180)" fill="#8fadef"></rect></g></g><g id="Grupo_821" data-name="Grupo 821" transform="translate(549.836 434.688)"><g id="Grupo_816" data-name="Grupo 816" transform="translate(32.116 0)"><rect id="Rect&#xE1;ngulo_2790" data-name="Rect&#xE1;ngulo 2790" width="13.317" height="42.962" transform="translate(13.317 42.962) rotate(180)" fill="#35488b"></rect></g><g id="Grupo_817" data-name="Grupo 817" transform="translate(0 0)"><rect id="Rect&#xE1;ngulo_2791" data-name="Rect&#xE1;ngulo 2791" width="32.116" height="42.962" transform="translate(32.116 42.962) rotate(180)" fill="#2c3a64"></rect></g><g id="Grupo_818" data-name="Grupo 818" transform="translate(36.551 3.143)"><path id="Trazado_3797" data-name="Trazado 3797" d="M2262.723,1213.529a2.223,2.223,0,1,0-2.223,2.223A2.223,2.223,0,0,0,2262.723,1213.529Z" transform="translate(-2258.277 -1211.306)" fill="#dde7fe"></path></g><g id="Grupo_819" data-name="Grupo 819" transform="translate(37.203 3.794)"><path id="Trazado_3798" data-name="Trazado 3798" d="M2264.583,1216.04a1.572,1.572,0,1,0-1.572,1.571A1.572,1.572,0,0,0,2264.583,1216.04Z" transform="translate(-2261.44 -1214.468)" fill="#6c7aff"></path></g><g id="Grupo_820" data-name="Grupo 820" transform="translate(35.593 10.721)"><rect id="Rect&#xE1;ngulo_2792" data-name="Rect&#xE1;ngulo 2792" width="6.264" height="11.316" transform="translate(6.264 11.316) rotate(180)" fill="#8fadef"></rect></g></g><g id="Grupo_827" data-name="Grupo 827" transform="translate(527.12 434.688)"><g id="Grupo_822" data-name="Grupo 822" transform="translate(32.116 0)"><rect id="Rect&#xE1;ngulo_2793" data-name="Rect&#xE1;ngulo 2793" width="13.317" height="42.962" transform="translate(13.317 42.962) rotate(180)" fill="#35488b"></rect></g><g id="Grupo_823" data-name="Grupo 823" transform="translate(0 0)"><rect id="Rect&#xE1;ngulo_2794" data-name="Rect&#xE1;ngulo 2794" width="32.116" height="42.962" transform="translate(32.116 42.962) rotate(180)" fill="#2c3a64"></rect></g><g id="Grupo_824" data-name="Grupo 824" transform="translate(36.551 3.143)"><path id="Trazado_3799" data-name="Trazado 3799" d="M2152.414,1213.529a2.223,2.223,0,1,0-2.222,2.223A2.222,2.222,0,0,0,2152.414,1213.529Z" transform="translate(-2147.969 -1211.306)" fill="#dde7fe"></path></g><g id="Grupo_825" data-name="Grupo 825" transform="translate(37.203 3.794)"><path id="Trazado_3800" data-name="Trazado 3800" d="M2154.275,1216.04a1.572,1.572,0,1,0-1.572,1.571A1.572,1.572,0,0,0,2154.275,1216.04Z" transform="translate(-2151.131 -1214.468)" fill="#6c7aff"></path></g><g id="Grupo_826" data-name="Grupo 826" transform="translate(35.593 10.721)"><rect id="Rect&#xE1;ngulo_2795" data-name="Rect&#xE1;ngulo 2795" width="6.264" height="11.316" transform="translate(6.264 11.316) rotate(180)" fill="#8fadef"></rect></g></g><g id="Grupo_831" data-name="Grupo 831" transform="translate(525.119 462.666)"><g id="Grupo_828" data-name="Grupo 828" transform="translate(0 0)"><rect id="Rect&#xE1;ngulo_2796" data-name="Rect&#xE1;ngulo 2796" width="75.242" height="55.592" transform="translate(75.242 55.592) rotate(180)" fill="#f77d48"></rect></g><g id="Grupo_829" data-name="Grupo 829" transform="translate(40.321 0)"><rect id="Rect&#xE1;ngulo_2797" data-name="Rect&#xE1;ngulo 2797" width="59.657" height="55.592" transform="translate(59.657 55.592) rotate(180)" fill="#ff8c64"></rect></g><g id="Grupo_830" data-name="Grupo 830" transform="translate(64.085 5.371)"><rect id="Rect&#xE1;ngulo_2798" data-name="Rect&#xE1;ngulo 2798" width="18.932" height="3.704" rx="1.852" transform="translate(18.932 3.704) rotate(180)" fill="#2c3a64"></rect></g></g><g id="Grupo_842" data-name="Grupo 842" transform="translate(301.29 324.121)"><g id="Grupo_832" data-name="Grupo 832" transform="translate(100.231 64.744)"><path id="Trazado_3801" data-name="Trazado 3801" d="M1370.846,974.676l-10.176,120.986s-1.066,7.334,4.389,7.347c8.969.021,44.644,0,44.644,0s-6.751-1.526-6.669-4.962c.1-4.049,11.893-124.516,11.893-124.516Z" transform="translate(-1360.586 -973.531)" fill="#798ee8"></path></g><g id="Grupo_833" data-name="Grupo 833" transform="translate(103.163 62.496)"><path id="Trazado_3802" data-name="Trazado 3802" d="M1424.369,1092.143c-1.764.005-36.3.064-45.036-.048-3.807-.047-4.474-3.385-4.506-5.545a10.813,10.813,0,0,1,.115-1.8l.265-3.145.674-8.015.6-7.081.766-9.1.644-7.68,7.23-85.969,44.082-1.144s-4.968,50.415-8.482,87.113c-.392,4.089-.765,8.01-1.111,11.669q-.168,1.753-.324,3.423c-.326,3.472-.624,6.661-.883,9.476-.137,1.484-.263,2.863-.377,4.126-.448,4.949-.711,8.109-.715,8.71a5.084,5.084,0,0,0,.086.979C1418.117,1091.968,1423.707,1092.143,1424.369,1092.143Z" transform="translate(-1374.826 -962.616)" fill="#aec3ff"></path></g><g id="Grupo_834" data-name="Grupo 834" transform="translate(3.435 0)"><path id="Trazado_3803" data-name="Trazado 3803" d="M890.558,659.143,915.343,758.7l3.394,13.635L930.28,818.7h214.464L1102.2,659.143Z" transform="translate(-890.558 -659.143)" fill="#aec3ff"></path></g><g id="Grupo_835" data-name="Grupo 835" transform="translate(0 0)"><path id="Trazado_3804" data-name="Trazado 3804" d="M877.311,659.142l-3.435,1.145,38.591,161.881,4.567-3.463Z" transform="translate(-873.876 -659.142)" fill="#798ee8"></path></g><g id="Grupo_836" data-name="Grupo 836" transform="translate(38.591 159.563)"><path id="Trazado_3805" data-name="Trazado 3805" d="M1061.271,1437.423h213.144l5.886-3.463H1065.837Z" transform="translate(-1061.271 -1433.96)" fill="#849def"></path></g><g id="Grupo_837" data-name="Grupo 837" transform="translate(113.441 192.023)"><rect id="Rect&#xE1;ngulo_2799" data-name="Rect&#xE1;ngulo 2799" width="46.149" height="2.193" transform="translate(46.149 2.193) rotate(180)" fill="#aec3ff"></rect></g><g id="Grupo_838" data-name="Grupo 838" transform="translate(104.219 163.025)"><path id="Trazado_3806" data-name="Trazado 3806" d="M1423.592,1450.772l-.238,1.677-43.4,8.768.6-7.081.284-3.364Z" transform="translate(-1379.953 -1450.772)" fill="#8c9df4"></path></g><g id="Grupo_839" data-name="Grupo 839" transform="translate(103.165 178.303)" opacity="0.5"><path id="Trazado_3807" data-name="Trazado 3807" d="M1424.374,1538.68c-1.764.005-36.3.064-45.037-.048-3.806-.047-4.474-3.385-4.506-5.545l43.2-8.127c-.448,4.949-.711,8.11-.715,8.711a5.1,5.1,0,0,0,.086.979C1418.122,1538.505,1423.712,1538.68,1424.374,1538.68Z" transform="translate(-1374.832 -1524.96)" fill="#8c9df4"></path></g><g id="Grupo_840" data-name="Grupo 840" transform="translate(3.435 0)"><path id="Trazado_3808" data-name="Trazado 3808" d="M890.556,659.142h211.638l34.339,128.238H922.48Z" transform="translate(-890.556 -659.142)" fill="#8c9df4"></path></g><g id="Grupo_841" data-name="Grupo 841" transform="translate(12.2 6.87)"><path id="Trazado_3809" data-name="Trazado 3809" d="M1160.349,808.313H962.191L955.11,780.1l-2.74-10.915-1.117-4.451-7.279-28.99-.376-1.51-3.848-15.323-1.721-6.856-1.468-5.849-1.2-4.77-2.244-8.939h195.3l2.465,8.939,1.314,4.77,1.612,5.849,1.889,6.856,12.453,45.169v0l1.054,3.827.491,1.776,8.6,31.184Z" transform="translate(-933.119 -692.502)" fill="#505aba"></path></g></g><g id="Grupo_864" data-name="Grupo 864" transform="translate(218.205 387.38)"><g id="Grupo_863" data-name="Grupo 863" transform="translate(0)"><g id="Grupo_843" data-name="Grupo 843" transform="translate(54.534)"><path id="Trazado_3810" data-name="Trazado 3810" d="M755.406,971.952s.516-5.633-5.777-5.633a7.39,7.39,0,0,1,2.893,1.552s-4.014-2.356-8.382,1.265-1.654,12.7-2.983,14.427-6.5,2.069-5.869,7.645,16.417,12.558,15.4,17.171c0,0,6.186-9.093,1.762-13.244a8.2,8.2,0,0,1,2.376,4.445s.585-4.713-2.414-6.221c-2.654-1.334-4.828-6.213-4.6-7.085S755.406,971.952,755.406,971.952Z" transform="translate(-735.235 -966.319)" fill="#2c3a64"></path></g><g id="Grupo_844" data-name="Grupo 844" transform="translate(61.841 32.677)"><path id="Trazado_3811" data-name="Trazado 3811" d="M777.384,1124.994s4.7,19.451,9.317,23.34c2.774,2.337,11.023,7.7,11.023,7.7l-3.431,1.245s-11.441-3.864-14-6.875-9.574-18.1-9.574-18.1Z" transform="translate(-770.716 -1124.994)" fill="#ffb27d"></path></g><g id="Grupo_845" data-name="Grupo 845" transform="translate(66.972 63.236)"><path id="Trazado_3812" data-name="Trazado 3812" d="M824.315,1280.976l-1.1-2.736a7.761,7.761,0,0,0-7.2-4.854H795.631v68.149h84.316v-55.216H832.234A8.541,8.541,0,0,1,824.315,1280.976Z" transform="translate(-795.631 -1273.385)" fill="#f99746"></path></g><g id="Grupo_846" data-name="Grupo 846" transform="translate(21.389 48.462)"><path id="Trazado_3813" data-name="Trazado 3813" d="M577.216,1220.033c.041.074.085.151.129.228,1.029,1.788,3.389,6.171,5.989,10.965,1.23,2.275,2.517,4.644,3.739,6.872,2.1,3.846,4.019,7.271,5.136,9.081,1.136,1.841,1.972,3.133,2.311,3.651l0,0a.856.856,0,0,1,.11.534,27.919,27.919,0,0,0,.074,4.822,37,37,0,0,0,12.087,23.961l3.128.462s-4.426-16.4-5.73-25.669a17.83,17.83,0,0,1-.239-3.675,38.371,38.371,0,0,0-1.01-10.032,224.822,224.822,0,0,0-6.4-23.224c-.146-.454-4.545-16.365-4.545-16.365-3.692,3.227-17.157,4.558-17.157,4.558S572.562,1211.756,577.216,1220.033Z" transform="translate(-574.285 -1201.646)" fill="#2f539b"></path></g><g id="Grupo_847" data-name="Grupo 847" transform="translate(50.465 124.121)"><path id="Trazado_3814" data-name="Trazado 3814" d="M728.6,1576.3H715.544a7.168,7.168,0,0,1,.369-3.5c.653-1.448,1.585-1.495.119-3.765.829.854,3.5,1.207,5.383.953.231.375,1.491,2.89,2.263,3.445C724.532,1574.049,728.336,1573.831,728.6,1576.3Z" transform="translate(-715.473 -1569.038)" fill="#233862"></path></g><g id="Grupo_848" data-name="Grupo 848" transform="translate(24.32 59.152)"><path id="Trazado_3815" data-name="Trazado 3815" d="M588.518,1261.251c.041.074.086.151.129.228,1.029,1.788,6.593,12.066,9.193,16.86a69.516,69.516,0,0,1-.917-24.786Z" transform="translate(-588.518 -1253.554)" fill="#233862"></path></g><g id="Grupo_849" data-name="Grupo 849" transform="translate(62.745 4.749)"><path id="Trazado_3816" data-name="Trazado 3816" d="M785.282,989.471c.085-.343-7.456,3.408-7.838,3.833-3.537,3.923-2.528,9.043-.5,9.092,1.3.032,1.046,2.19,1.046,2.19l14.459-6.117S790.7,988.317,785.282,989.471Z" transform="translate(-775.102 -989.38)" fill="#2c3a64"></path></g><g id="Grupo_850" data-name="Grupo 850" transform="translate(60.457 29.756)"><path id="Trazado_3817" data-name="Trazado 3817" d="M771.6,1110.81s2.2,4.4,1.926,7.963c0,0-2.653,4.188-9.534,5.248C763.993,1124.021,769.909,1110.807,771.6,1110.81Z" transform="translate(-763.993 -1110.81)" fill="#6385db"></path></g><g id="Grupo_851" data-name="Grupo 851" transform="translate(1.731 45.738)"><path id="Trazado_3818" data-name="Trazado 3818" d="M511.591,1196.672l.044-2.441c-4.864.613-16.773-5.813-16.773-5.813s-5.089,3.385-5.786,13.051c-.34,4.718-2.491,24.671-2.729,30.63-.087,2.16-.116,3.7-.125,4.316a.011.011,0,0,1,0,.006.85.85,0,0,1-.207.5,27.864,27.864,0,0,0-2.636,4.04c-7.423,13.811-3.541,32.576-3.541,32.576l1.724-.438s6.276-19.454,10.379-27.869a17.59,17.59,0,0,1,1.858-3.18,38.394,38.394,0,0,0,4.772-8.883C501.6,1225.932,511.591,1196.672,511.591,1196.672Z" transform="translate(-478.825 -1188.417)" fill="#2f539b"></path></g><g id="Grupo_852" data-name="Grupo 852" transform="translate(0 124.027)"><path id="Trazado_3819" data-name="Trazado 3819" d="M483.548,1575.938H470.493a7.166,7.166,0,0,1,.369-3.5c.653-1.449,1.677-2.107,1.432-3.859a4.7,4.7,0,0,0,4.068,1.557,14.333,14.333,0,0,0,2.265,2.936C479.481,1573.686,483.285,1573.468,483.548,1575.938Z" transform="translate(-470.422 -1568.58)" fill="#233862"></path></g><g id="Grupo_853" data-name="Grupo 853" transform="translate(17.25 22.357)"><path id="Trazado_3820" data-name="Trazado 3820" d="M596.51,1098.3c-1.753.3.286,1.693-2.125,1.955-3.432.375-6.977.631-8.833,1.372a1.993,1.993,0,0,0-1.271,1.03c-.8,2.42-5.9,6.578-5.9,6.578-22.731-1.035-24.195-11.166-24.195-11.166,14.753-14.328,27.3-22.138,37.676-23.1a18.452,18.452,0,0,1,7.524.792c3.628,1.615,5.616,6.53,5.616,6.53S603.172,1097.16,596.51,1098.3Z" transform="translate(-554.184 -1074.884)" fill="#739af0"></path></g><g id="Grupo_854" data-name="Grupo 854" transform="translate(48.543 29.233)"><path id="Trazado_3821" data-name="Trazado 3821" d="M715.05,1126.763c-3.432.375-6.977.631-8.833,1.371a36.2,36.2,0,0,1,4.591-19.864S714.3,1122.472,715.05,1126.763Z" transform="translate(-706.143 -1108.27)" fill="#6385db"></path></g><g id="Grupo_855" data-name="Grupo 855" transform="translate(49.925 27.303)"><path id="Trazado_3822" data-name="Trazado 3822" d="M723.339,1098.911s-8.632-.471-10.166,4.948,2.878,27.051,3.828,29.284c1.731,4.065,10.458,16.171,10.458,16.171l2.8-1.449s-5.618-17.723-6.873-19.477C721.415,1125.636,725.922,1101.269,723.339,1098.911Z" transform="translate(-712.852 -1098.901)" fill="#ffb27d"></path></g><g id="Grupo_856" data-name="Grupo 856" transform="translate(64.156 75.891)"><path id="Trazado_3823" data-name="Trazado 3823" d="M785.131,1335.213a12.711,12.711,0,0,1,1.3,1.337c.581.709.07.966,1.738,4.178,0,0-.085.446-.448.365s-1.62-1.327-2.266-1.238c0,0-.461.38-.512,1.639a30.394,30.394,0,0,1-.256,4.272c-.205.49-1.7-2.052-2.44-3.888-.647-1.61-.016-7.042-.016-7.042Z" transform="translate(-781.957 -1334.836)" fill="#ffb27d"></path></g><g id="Grupo_857" data-name="Grupo 857" transform="translate(48.544 25.702)"><path id="Trazado_3824" data-name="Trazado 3824" d="M706.144,1104.934c.022.127,8.169,1.5,13.264-1.088,0,0,4.256-13.335-1.826-12.7s-9.685,2.554-9.838,5.466A56.068,56.068,0,0,1,706.144,1104.934Z" transform="translate(-706.144 -1091.127)" fill="#739af0"></path></g><g id="Grupo_858" data-name="Grupo 858" transform="translate(62.246 18.956)"><path id="Trazado_3825" data-name="Trazado 3825" d="M772.69,1063.57a5.42,5.42,0,0,0,1.638,3.8c1.082,1.115,2.645,1.984,3.744.886a11.921,11.921,0,0,0,1.7-2.052c.949-1.631,2.08-3.3,2.08-3.3l-4.886-4.281-.292-.256a12.448,12.448,0,0,1-3.64,4.13A1.133,1.133,0,0,0,772.69,1063.57Z" transform="translate(-772.68 -1058.366)" fill="#ffb27d"></path></g><g id="Grupo_859" data-name="Grupo 859" transform="translate(66.441 19.212)"><path id="Trazado_3826" data-name="Trazado 3826" d="M798.025,1063.89s-1.129,1.664-2.079,3.3c-3.037-1.872-3.04-5.631-2.806-7.579Z" transform="translate(-793.049 -1059.608)" fill="#ed985f"></path></g><g id="Grupo_860" data-name="Grupo 860" transform="translate(66.238 10.481)"><path id="Trazado_3827" data-name="Trazado 3827" d="M797.379,1032.372s-7.373-4.1-4.748-8.655,3.443-8.148,8.261-5.721,4.723,4.687,4.216,6.42S799.365,1033.322,797.379,1032.372Z" transform="translate(-792.066 -1017.214)" fill="#ffb27d"></path></g><g id="Grupo_861" data-name="Grupo 861" transform="translate(65.463 9.864)"><path id="Trazado_3828" data-name="Trazado 3828" d="M803.367,1019.382c-.338-2.021-1.364-2.214-2.08-2.079a5.9,5.9,0,0,0-7.172-2.746,10.039,10.039,0,0,1-5.811,3.491s.855,1.592,4.381,2.578a6.029,6.029,0,0,0,3.478-.278,19.676,19.676,0,0,1-5,1.886c4.646.425,9.066-3.822,9.524-4.276a6.613,6.613,0,0,1,.365,3.044c-.306,1.369-1.521,3.849-.779,4.17C800.269,1025.17,803.874,1022.413,803.367,1019.382Z" transform="translate(-788.304 -1014.219)" fill="#2c3a64"></path></g><g id="Grupo_862" data-name="Grupo 862" transform="translate(89.113 63.587)"><path id="Trazado_3829" data-name="Trazado 3829" d="M904.228,1275.229s-2.058,1.543-.507,2.552,4.319,1.282,4.33.62C908.09,1276.179,906.982,1274.6,904.228,1275.229Z" transform="translate(-903.143 -1275.09)" fill="#ffb27d"></path></g></g></g><g id="Grupo_865" data-name="Grupo 865" transform="translate(175.129 518.353)"><rect id="Rect&#xE1;ngulo_2800" data-name="Rect&#xE1;ngulo 2800" width="481.202" height="1.387" rx="0.693" fill="#233862"></rect></g><g id="Grupo_866" data-name="Grupo 866" transform="translate(327.335 357.598)"><path id="Trazado_3830" data-name="Trazado 3830" d="M1030.683,829.187l-1.828-2.7a10.67,10.67,0,0,0-8.407-4.788h-20.1l3.488,12.756,13.842,50.615a5.219,5.219,0,0,0,5.034,3.842h72.338a5.218,5.218,0,0,0,5.034-6.595l-13.089-47.863h-47.058A11.743,11.743,0,0,1,1030.683,829.187Z" transform="translate(-1000.346 -821.7)" fill="#f99746"></path></g><g id="Grupo_891" data-name="Grupo 891" transform="translate(330.815 262.014)"><g id="Grupo_887" data-name="Grupo 887" transform="translate(0 0)"><g id="Grupo_867" data-name="Grupo 867" transform="translate(28.654 77.856)"><path id="Trazado_3831" data-name="Trazado 3831" d="M1156.678,745.647a1.119,1.119,0,0,0-.2,1.2.009.009,0,0,0,0,.006,7.432,7.432,0,0,0,2.348,2.578c.142.114.268.218.377.314.029.025.057.05.085.076l.065.059c1.032.952.643,1.17,2.5,3.1,2.114,2.2,3.57,2.241,3.984,2.041.35-.171-.361-1.338-1.15-2.65-.038-.063-.076-.127-.115-.191-.105-.174-.21-.352-.314-.527-.924-1.579-.686-2.32-.466-4.669.179-1.909,2.974-10.665,2.974-10.665l-4.053-.7s-1.223,6.973-2.568,8.046c-.719.572-1.524.579-2.216,1-.049.029-.1.06-.143.091A5.331,5.331,0,0,0,1156.678,745.647Z" transform="translate(-1156.39 -735.616)" fill="#ffb27d"></path></g><g id="Grupo_868" data-name="Grupo 868" transform="translate(28.654 86.995)"><path id="Trazado_3832" data-name="Trazado 3832" d="M1156.678,780.889a1.119,1.119,0,0,0-.2,1.2.009.009,0,0,0,0,.006,8.606,8.606,0,0,0,2.352,2.569c.14.116.263.223.373.323.029.025.057.05.085.076l.065.059c1.032.952.643,1.17,2.5,3.1,2.114,2.2,3.57,2.241,3.984,2.041.35-.171-.361-1.338-1.15-2.65a9.012,9.012,0,0,1-3.769-2.779c-1.227-1.566-2.059-3.563-2.894-4.788l-.238-.045A5.329,5.329,0,0,0,1156.678,780.889Z" transform="translate(-1156.39 -779.998)" fill="#233862"></path></g><g id="Grupo_869" data-name="Grupo 869" transform="translate(58.384 76.632)"><path id="Trazado_3833" data-name="Trazado 3833" d="M1303.995,738.408c.25,1.251,2.033,1.043,4.026.557s1.519.092,4.354-.22,3.695-1.37,3.782-1.792c.077-.374-1.324-.506-2.826-.68-.189-.021-.379-.045-.569-.068-1.7-.213-2.939-1.309-4.48-2.208-1.459-.852-3.637-4.323-3.637-4.323l-3.889.307s2.04,3.1,2.828,4.448a4.7,4.7,0,0,1,.381,2.65A4.985,4.985,0,0,0,1303.995,738.408Z" transform="translate(-1300.756 -729.673)" fill="#ffb27d"></path></g><g id="Grupo_870" data-name="Grupo 870" transform="translate(61.564 83.231)"><path id="Trazado_3834" data-name="Trazado 3834" d="M1320.279,764.411c1.992-.486,1.519.092,4.354-.22s3.695-1.37,3.781-1.792c.077-.374-1.324-.506-2.826-.68l-.014.029a7.993,7.993,0,0,1-4.061,1.261c-1.924.046-3.961-.506-5.289-.484a4.985,4.985,0,0,0,.029,1.33C1316.5,765.105,1318.287,764.9,1320.279,764.411Z" transform="translate(-1316.195 -761.719)" fill="#233862"></path></g><g id="Grupo_871" data-name="Grupo 871" transform="translate(33.382 54.262)"><path id="Trazado_3835" data-name="Trazado 3835" d="M1192.695,627.282l-3.638,9.78-4.75,12.77a7.681,7.681,0,0,1-2.521-.231,10.934,10.934,0,0,1-2.438-1.188s1.323-13.713,3.783-21.584a14.017,14.017,0,0,1,2.117-4.575C1189.06,617.752,1192.695,627.282,1192.695,627.282Z" transform="translate(-1179.347 -621.046)" fill="#ed7d2b"></path></g><g id="Grupo_872" data-name="Grupo 872" transform="translate(7.875 42.997)"><path id="Trazado_3836" data-name="Trazado 3836" d="M1090.651,568.309c-2.069-.668-7.468-.013-13.324,1.045a3.971,3.971,0,0,1-4.1-1.853h0l-14.737-1.156s-4.867,10.783-2.207,17.656a2.585,2.585,0,0,0,2.575,1.662h0s8.905.015,11.753.016c7.329,0,15.513-5.033,16.572-5.244,1.732-.346,2.424,3.119,4.155,6.758s16.279,16.117,16.279,16.117a12.8,12.8,0,0,0,3.161-.323,3.112,3.112,0,0,0,1.357-.856S1096.021,570.044,1090.651,568.309Z" transform="translate(-1055.487 -566.345)" fill="#f99746"></path></g><g id="Grupo_873" data-name="Grupo 873" transform="translate(0.059)"><path id="Trazado_3837" data-name="Trazado 3837" d="M1041.54,358.433a5.228,5.228,0,0,0-2.815-.733,7.815,7.815,0,0,1-1.359-.083c-5.625-.827-9.014,7.342-9.214,9.811-.366,4.532-2.764,5.222-6.139,8.06-6.769,5.689-4.787,12.3-1.088,14.762,2.22,1.475,6.133,0,6.133,0,.055.039,10.7-5.948,15.953-8.836C1050.879,380.3,1044.7,360.316,1041.54,358.433Z" transform="translate(-1017.536 -357.558)" fill="#233862"></path></g><g id="Grupo_874" data-name="Grupo 874" transform="translate(13.957 13.142)"><path id="Trazado_3838" data-name="Trazado 3838" d="M1092.2,429.628c.023.015-2.583.9-4.325.131-1.638-.725-2.879-3.421-2.855-3.423.746-.034,1.564-.686,2.2-4.962l.318.114,5.337,1.922s-.387,1.712-.638,3.343C1092.023,428.123,1091.909,429.434,1092.2,429.628Z" transform="translate(-1085.021 -421.374)" fill="#ffb27d"></path></g><g id="Grupo_875" data-name="Grupo 875" transform="translate(16.471 13.256)"><path id="Trazado_3839" data-name="Trazado 3839" d="M1102.566,423.85s-.213.924-.525,2.65a6.026,6.026,0,0,1-4.812-4.572Z" transform="translate(-1097.229 -421.928)" fill="#ed975d"></path></g><g id="Grupo_876" data-name="Grupo 876" transform="translate(15.937 4.032)"><path id="Trazado_3840" data-name="Trazado 3840" d="M1101.3,389.984s-7.3-.983-6.62-5.521.2-7.721,4.89-7.286,5.335,2.3,5.476,3.873S1103.217,390.123,1101.3,389.984Z" transform="translate(-1094.635 -377.138)" fill="#ffb27d"></path></g><g id="Grupo_877" data-name="Grupo 877" transform="translate(13.842 3.631)"><path id="Trazado_3841" data-name="Trazado 3841" d="M1096.7,377.017s-4.676,4.027-7.856,4.351-4.383-.7-4.383-.7a12.42,12.42,0,0,0,3-4.066,2.237,2.237,0,0,1,1.844-1.318C1091.583,375.092,1095.887,375,1096.7,377.017Z" transform="translate(-1084.465 -375.191)" fill="#233862"></path></g><g id="Grupo_878" data-name="Grupo 878" transform="translate(23.16 4.223)"><path id="Trazado_3842" data-name="Trazado 3842" d="M1129.709,378.936a11.514,11.514,0,0,1,2.055,2.634,8.836,8.836,0,0,1,.238,4.7s2.439-4.737,1.06-7.04C1131.6,376.788,1129.709,378.936,1129.709,378.936Z" transform="translate(-1129.709 -378.062)" fill="#233862"></path></g><g id="Grupo_879" data-name="Grupo 879" transform="translate(7.686 17.932)"><path id="Trazado_3843" data-name="Trazado 3843" d="M1074.165,458.857c-.226,14.782-.065,11.693-1.682,13.1a6.212,6.212,0,0,1-2.927.633c-4.533.3-12.5-.45-12.8-1.288-1.044-2.9-.306-3.8-1.177-8.237-.091-.472-.2-.983-.335-1.539-.726-3.048-1.434-4.085,1.148-8.981,2.342-4.434,4.774-8.034,4.992-7.9,6.172,3.667,6.671.587,6.671.587S1074.276,451.647,1074.165,458.857Z" transform="translate(-1054.569 -444.634)" fill="#2f539b"></path></g><g id="Grupo_880" data-name="Grupo 880" transform="translate(33.382 60.044)"><path id="Trazado_3844" data-name="Trazado 3844" d="M1189.056,659.36l-4.75,12.77a7.678,7.678,0,0,1-2.521-.231,10.934,10.934,0,0,1-2.438-1.188s1.323-13.713,3.783-21.584Z" transform="translate(-1179.347 -649.127)" fill="#f99746"></path></g><g id="Grupo_881" data-name="Grupo 881" transform="translate(21.17 18.521)"><path id="Trazado_3845" data-name="Trazado 3845" d="M1120.046,447.5s6.352,1.079,7.1,3.815,3.194,19.337,3.194,19.337-1.792,1.749-3.283.256-4.69-15.534-4.69-15.534Z" transform="translate(-1120.046 -447.496)" fill="#2f539b"></path></g><g id="Grupo_882" data-name="Grupo 882" transform="translate(8.693 30.204)"><path id="Trazado_3846" data-name="Trazado 3846" d="M1073.439,519.9c-4.533.3-12.5-.45-12.8-1.288-1.044-2.9-.306-3.8-1.177-8.237l2.189-6.156s-.364,6.855,1.657,8.659,8.276,3.484,9.259,4.99A5.516,5.516,0,0,1,1073.439,519.9Z" transform="translate(-1059.459 -504.223)" fill="#233862"></path></g><g id="Grupo_883" data-name="Grupo 883" transform="translate(17.481 42.308)"><path id="Trazado_3847" data-name="Trazado 3847" d="M1102.131,563.693s4.473-.994,5.194-.6a10.493,10.493,0,0,1,2.7,2.346c.221.5-1.606-.382-2.2-.542a5.285,5.285,0,0,0-1.9.415,6.316,6.316,0,0,1-3.4.341Z" transform="translate(-1102.131 -563.002)" fill="#ffb27d"></path></g><g id="Grupo_884" data-name="Grupo 884" transform="translate(0 17.932)"><path id="Trazado_3848" data-name="Trazado 3848" d="M1031.742,444.636s-6,.368-8.084,3.266c-2.927,4.08-8.738,21.471-5.412,23.791,3.746,2.614,17.05.689,17.05.689s.443-2.069-.172-3.071-10.625-2.622-11.087-3.084,5.778-9.007,5.779-10.393S1031.742,444.636,1031.742,444.636Z" transform="translate(-1017.247 -444.636)" fill="#2f539b"></path></g><g id="Grupo_885" data-name="Grupo 885" transform="translate(22.89 43.647)"><path id="Trazado_3849" data-name="Trazado 3849" d="M1128.4,569.5a8.638,8.638,0,0,0,1.244,1.353.919.919,0,0,0,.506.109l-.631-1.137Z" transform="translate(-1128.4 -569.502)" fill="#ffb27d"></path></g><g id="Grupo_886" data-name="Grupo 886" transform="translate(22.674 42.402)"><path id="Trazado_3850" data-name="Trazado 3850" d="M1127.352,563.457l2.723,1.324a.484.484,0,0,1-.451.174,6.483,6.483,0,0,1-1.181-.325Z" transform="translate(-1127.352 -563.457)" fill="#ffb27d"></path></g></g><g id="Grupo_888" data-name="Grupo 888" transform="translate(17.48 45.51)"><path id="Trazado_3851" data-name="Trazado 3851" d="M1130.582,578.559l-28.456-.01v.628l28.2.01Z" transform="translate(-1102.126 -578.549)" fill="#233862"></path></g><g id="Grupo_889" data-name="Grupo 889" transform="translate(24.134 30.022)"><path id="Trazado_3852" data-name="Trazado 3852" d="M1134.438,519.462l21.549.007,6.488-16.118-21.516-.007Z" transform="translate(-1134.438 -503.344)" fill="#233862"></path></g><g id="Grupo_890" data-name="Grupo 890" transform="translate(38.152 37.06)"><path id="Trazado_3853" data-name="Trazado 3853" d="M1204.6,538.542a.747.747,0,0,0-.731-1.026,1.47,1.47,0,0,0-1.321,1.025.747.747,0,0,0,.731,1.027A1.471,1.471,0,0,0,1204.6,538.542Z" transform="translate(-1202.51 -537.516)" fill="#fff"></path></g></g><g id="Grupo_892" data-name="Grupo 892" transform="translate(434.011 348.352)" opacity="0.5"><path id="Trazado_3854" data-name="Trazado 3854" d="M1561.7,789.9l-5.96-7.614-.281-.359-.336-.062-27.509-5.062-9.258,50.316,35.663,6.561,7.919-43.043.065-.352Z" transform="translate(-1518.352 -776.803)" fill="#8c9df4"></path></g><g id="Grupo_894" data-name="Grupo 894" transform="translate(422.955 339.113)"><g id="Grupo_893" data-name="Grupo 893" transform="translate(0 0)"><path id="Trazado_3855" data-name="Trazado 3855" d="M1501.171,738.663l.013.358,1.7,43.732-36.234,1.406-1.983-51.122,27.95-1.084.341-.013.354.289,7.483,6.124Z" transform="translate(-1464.665 -731.94)" fill="#8c9df4"></path></g></g><g id="Grupo_909" data-name="Grupo 909" transform="translate(374.949 354.904)"><g id="Grupo_895" data-name="Grupo 895" transform="translate(0 3.455)"><path id="Trazado_3856" data-name="Trazado 3856" d="M1292.232,825.4l-60.468,3.37a.221.221,0,0,0-.209.233l4.413,79.182a.222.222,0,0,0,.234.209l60.382-3.365a.221.221,0,0,0,.209-.234l-4.418-79.268A.135.135,0,0,0,1292.232,825.4Z" transform="translate(-1231.555 -825.399)" fill="#233862"></path></g><g id="Grupo_896" data-name="Grupo 896" transform="translate(2.018 5.419)"><path id="Trazado_3857" data-name="Trazado 3857" d="M1299.9,910.1l-51.219,3.214a2.787,2.787,0,0,1-2.956-2.607l-4.367-69.6a2.787,2.787,0,0,1,2.607-2.957l51.219-3.214a2.787,2.787,0,0,1,2.956,2.608l4.367,69.6A2.787,2.787,0,0,1,1299.9,910.1Z" transform="translate(-1241.353 -834.934)" fill="#ebf3fa"></path></g><g id="Grupo_907" data-name="Grupo 907" transform="translate(8.05 16.039)"><g id="Grupo_897" data-name="Grupo 897"><path id="Trazado_3858" data-name="Trazado 3858" d="M1302.947,887.371l-32.22,2.022a.03.03,0,0,1-.032-.028l-.05-.8a.029.029,0,0,1,.028-.032l32.22-2.022a.03.03,0,0,1,.032.028l.05.8A.03.03,0,0,1,1302.947,887.371Z" transform="translate(-1270.645 -886.506)" fill="#bdd1f9"></path></g><g id="Grupo_898" data-name="Grupo 898" transform="translate(0.434 6.918)"><path id="Trazado_3859" data-name="Trazado 3859" d="M1305.054,920.963l-32.22,2.022a.03.03,0,0,1-.032-.028l-.05-.805a.03.03,0,0,1,.028-.031L1305,920.1a.03.03,0,0,1,.032.028l.051.805A.03.03,0,0,1,1305.054,920.963Z" transform="translate(-1272.752 -920.098)" fill="#bdd1f9"></path></g><g id="Grupo_899" data-name="Grupo 899" transform="translate(0.217 2.687)"><path id="Trazado_3860" data-name="Trazado 3860" d="M1316.31,900.416l-44.531,2.794a.03.03,0,0,1-.032-.028l-.051-.805a.03.03,0,0,1,.028-.031l44.53-2.794a.03.03,0,0,1,.032.028l.05.805A.03.03,0,0,1,1316.31,900.416Z" transform="translate(-1271.698 -899.552)" fill="#bdd1f9"></path></g><g id="Grupo_900" data-name="Grupo 900" transform="translate(2.951 28.909)"><path id="Trazado_3861" data-name="Trazado 3861" d="M1306.972,1027.752l-21.922,1.376a.025.025,0,0,1-.026-.023l-.051-.816a.025.025,0,0,1,.023-.026l21.922-1.376a.025.025,0,0,1,.026.023l.051.816A.025.025,0,0,1,1306.972,1027.752Z" transform="translate(-1284.973 -1026.887)" fill="#bdd1f9"></path></g><g id="Grupo_901" data-name="Grupo 901" transform="translate(2.734 24.925)"><path id="Trazado_3862" data-name="Trazado 3862" d="M1314.3,1008.4l-30.3,1.9a.025.025,0,0,1-.026-.023l-.051-.815a.025.025,0,0,1,.023-.026l30.3-1.9a.025.025,0,0,1,.026.023l.051.816A.025.025,0,0,1,1314.3,1008.4Z" transform="translate(-1283.919 -1007.539)" fill="#bdd1f9"></path></g><g id="Grupo_902" data-name="Grupo 902" transform="translate(3.043 32.122)"><path id="Trazado_3863" data-name="Trazado 3863" d="M1317.721,1043.354l-32.22,2.022a.03.03,0,0,1-.031-.028l-.05-.805a.029.029,0,0,1,.028-.031l32.22-2.022a.03.03,0,0,1,.032.028l.051.805A.03.03,0,0,1,1317.721,1043.354Z" transform="translate(-1285.419 -1042.489)" fill="#bdd1f9"></path></g><g id="Grupo_903" data-name="Grupo 903" transform="translate(3.259 35.355)"><path id="Trazado_3864" data-name="Trazado 3864" d="M1322.378,1059.051l-35.827,2.248a.027.027,0,0,1-.028-.025l-.051-.811a.027.027,0,0,1,.025-.029l35.827-2.248a.027.027,0,0,1,.028.025l.051.811A.027.027,0,0,1,1322.378,1059.051Z" transform="translate(-1286.472 -1058.186)" fill="#bdd1f9"></path></g><g id="Grupo_904" data-name="Grupo 904" transform="translate(3.837 42.218)"><path id="Trazado_3865" data-name="Trazado 3865" d="M1312.413,1092.375l-23.058,1.447a.026.026,0,0,1-.027-.024l-.051-.814a.026.026,0,0,1,.024-.027l23.058-1.447a.025.025,0,0,1,.027.024l.051.814A.025.025,0,0,1,1312.413,1092.375Z" transform="translate(-1289.277 -1091.511)" fill="#bdd1f9"></path></g><g id="Grupo_905" data-name="Grupo 905" transform="translate(4.272 49.136)"><path id="Trazado_3866" data-name="Trazado 3866" d="M1314.523,1125.968l-23.058,1.447a.026.026,0,0,1-.027-.023l-.051-.814a.025.025,0,0,1,.023-.027l23.059-1.447a.026.026,0,0,1,.027.024l.051.814A.025.025,0,0,1,1314.523,1125.968Z" transform="translate(-1291.387 -1125.103)" fill="#bdd1f9"></path></g><g id="Grupo_906" data-name="Grupo 906" transform="translate(4.054 45.124)"><path id="Trazado_3867" data-name="Trazado 3867" d="M1322.281,1106.486l-31.871,2a.025.025,0,0,1-.027-.024l-.051-.814a.026.026,0,0,1,.024-.027l31.871-2a.025.025,0,0,1,.027.024l.051.814A.025.025,0,0,1,1322.281,1106.486Z" transform="translate(-1290.332 -1105.622)" fill="#bdd1f9"></path></g></g><g id="Grupo_908" data-name="Grupo 908" transform="translate(12.808 0)"><path id="Trazado_3868" data-name="Trazado 3868" d="M1325.144,808.626l-28.2,1.572a3.258,3.258,0,0,0-3.192,3.314l.238,4.261a.753.753,0,0,0,.818.679l33.375-1.86a.753.753,0,0,0,.738-.766l-.238-4.261A3.258,3.258,0,0,0,1325.144,808.626Z" transform="translate(-1293.749 -808.62)" fill="#ff8c64"></path></g></g><g id="Grupo_934" data-name="Grupo 934" transform="translate(401.122 349.257)"><g id="Grupo_910" data-name="Grupo 910" transform="translate(64.772 35.836)"><path id="Trazado_3869" data-name="Trazado 3869" d="M1677.381,959.257s-.586-1.318-.966-1.942-2-2.453-2.277-2.039-1.38,3.2-.793,3.981-.038,2.138,2.879,2.96Z" transform="translate(-1673.175 -955.216)" fill="#ffb27d"></path></g><g id="Grupo_911" data-name="Grupo 911" transform="translate(67.431 31.555)"><path id="Trazado_3870" data-name="Trazado 3870" d="M1720.05,934.426s-14.933,12.465-20.756,11.311c-4.553-.9-11.751-3.186-11.751-3.186s-1.9,1.807-1.363,3.973c0,0,9.171,8.629,15.7,8.685,10.212.087,15.03-5.061,15.03-5.061Z" transform="translate(-1686.084 -934.426)" fill="#ed7d2b"></path></g><g id="Grupo_912" data-name="Grupo 912" transform="translate(110.408 160.788)"><path id="Trazado_3871" data-name="Trazado 3871" d="M1911.956,1564.22s-.434,6.993-1.786,7.093c-.18.013-6.862.013-6.862.013l-8.53-.049a2.768,2.768,0,0,1,2.549-2.49c2.494-.434,6.667-2.187,8.177-5.482C1907.092,1559.839,1911.956,1564.22,1911.956,1564.22Z" transform="translate(-1894.777 -1561.971)" fill="#113c68"></path></g><g id="Grupo_913" data-name="Grupo 913" transform="translate(99.139 77.188)"><path id="Trazado_3872" data-name="Trazado 3872" d="M1869,1242.354a17.781,17.781,0,0,1-4.618.868,16.952,16.952,0,0,1-4.311-.615,118.056,118.056,0,0,0-3.175-15.124c-1.408-5.452-3.42-12.463-6.281-21.174-7.912-24.075-10.318-38.159-10.538-39.493-.012-.07-.016-.1-.016-.1l.026-.012,24.325-10.68s-3.007,33.181.829,45.917a53.667,53.667,0,0,1,1.392,6.1C1869.053,1221.872,1869,1242.354,1869,1242.354Z" transform="translate(-1840.058 -1156.019)" fill="#2a4e96"></path></g><g id="Grupo_914" data-name="Grupo 914" transform="translate(99.156 77.188)"><path id="Trazado_3873" data-name="Trazado 3873" d="M1856.957,1227.483c-1.409-5.452-3.42-12.463-6.281-21.174-7.912-24.075-10.318-38.159-10.538-39.493,0-.04,0-.077.009-.117l24.325-10.68s-3.007,33.181.829,45.917C1865.839,1203.716,1856.957,1227.483,1856.957,1227.483Z" transform="translate(-1840.138 -1156.019)" fill="#233862"></path></g><g id="Grupo_915" data-name="Grupo 915" transform="translate(91.409 160.788)"><path id="Trazado_3874" data-name="Trazado 3874" d="M1819.7,1564.22s-.434,6.993-1.786,7.093c-.18.013-6.862.013-6.862.013l-8.53-.049a2.768,2.768,0,0,1,2.549-2.49c2.493-.434,6.667-2.187,8.177-5.482C1814.835,1559.839,1819.7,1564.22,1819.7,1564.22Z" transform="translate(-1802.52 -1561.971)" fill="#15447c"></path></g><g id="Grupo_916" data-name="Grupo 916" transform="translate(94.789 77.97)"><path id="Trazado_3875" data-name="Trazado 3875" d="M1818.941,1159.815a346.307,346.307,0,0,0,3.4,47.9c3.72,26.4,2.459,37.606,2.459,37.606a25.346,25.346,0,0,0,3.587.912,16.283,16.283,0,0,0,5.323-.616s5.325-26.41,3.8-39.624,7.292-45.343,7.292-45.343Z" transform="translate(-1818.935 -1159.815)" fill="#2a4e96"></path></g><g id="Grupo_917" data-name="Grupo 917" transform="translate(101.959 17.025)"><path id="Trazado_3876" data-name="Trazado 3876" d="M1863.835,874.5l-4.748,3.114-4.325-1.223c-.791-1.128-1-3.3-1.011-5.185a32.218,32.218,0,0,1,.17-3.453l6.406-2.828,2.391-1.053c-.007.037-.186,1.962-.212,2.244A16.349,16.349,0,0,0,1863.835,874.5Z" transform="translate(-1853.749 -863.87)" fill="#ffb27d"></path></g><g id="Grupo_918" data-name="Grupo 918" transform="translate(94.589 25.85)"><path id="Trazado_3877" data-name="Trazado 3877" d="M1818.058,964.822c5.91,5.706,28.278,4.747,29.656-1.541s-1.5-53.52-11.6-56.487c-2.095-.616-13.3,3-13.3,3a71.017,71.017,0,0,0-2.91,10.451c-.223,1.139-.877,13.21-1.365,24.5-.228,5.281-.421,10.394-.52,14.136A40.775,40.775,0,0,0,1818.058,964.822Z" transform="translate(-1817.96 -906.724)" fill="#f99746"></path></g><g id="Grupo_919" data-name="Grupo 919" transform="translate(101.959 18.077)"><path id="Trazado_3878" data-name="Trazado 3878" d="M1862.026,870.261c-1.3,2.2-5.86,4.12-8.276,5a32.219,32.219,0,0,1,.17-3.453l6.406-2.828C1861.742,868.964,1862.6,869.28,1862.026,870.261Z" transform="translate(-1853.749 -868.981)" fill="#fca56b"></path></g><g id="Grupo_920" data-name="Grupo 920" transform="translate(98.422 3.527)"><path id="Trazado_3879" data-name="Trazado 3879" d="M1837.867,815.314s10.322,3.22,12.229-3.239,4.522-10.393-1.988-12.722-8.523-.244-9.684,1.757S1835.231,814.31,1837.867,815.314Z" transform="translate(-1836.577 -798.326)" fill="#ffb27d"></path></g><g id="Grupo_921" data-name="Grupo 921" transform="translate(99.704 0)"><path id="Trazado_3880" data-name="Trazado 3880" d="M1843.773,786.89s.658,7.516,2.212,7.19,3.265-1.024,3.038,1.242,1.511,6.149,3.753,6.14c4.807-.02,10.03-12.354,8.714-14.694C1857.693,780.018,1838.284,778.657,1843.773,786.89Z" transform="translate(-1842.802 -781.201)" fill="#163560"></path></g><g id="Grupo_922" data-name="Grupo 922" transform="translate(99.448 22.914)"><path id="Trazado_3881" data-name="Trazado 3881" d="M1844.3,895.636c.133-.056,7.684-3.443,8.567-3.151s1.984,2.989,1.984,2.989l-13.3,3.006A6.607,6.607,0,0,1,1844.3,895.636Z" transform="translate(-1841.558 -892.467)" fill="#ed7d2b"></path></g><g id="Grupo_928" data-name="Grupo 928" transform="translate(0 4.76)"><g id="Grupo_923" data-name="Grupo 923" transform="translate(54.286 53.855)"><path id="Trazado_3882" data-name="Trazado 3882" d="M1623.154,1069.878l42.328,39.852c.83.781,1.876,1.03,2.325.553l1.429-1.518c.449-.477.138-1.506-.692-2.287l-42.328-39.852c-.83-.781-1.876-1.03-2.325-.553l-1.429,1.517C1622.013,1068.067,1622.324,1069.1,1623.154,1069.878Z" transform="translate(-1622.256 -1065.83)" fill="#1f4d84"></path></g><g id="Grupo_924" data-name="Grupo 924" transform="translate(78.937 77.015)"><path id="Trazado_3883" data-name="Trazado 3883" d="M1741.959,1181.543l18.574,17.488c.83.781,1.876,1.03,2.325.553l1.429-1.518c.449-.477.138-1.506-.692-2.287l-18.574-17.488Z" transform="translate(-1741.959 -1178.291)" fill="#739af0"></path></g><g id="Grupo_925" data-name="Grupo 925"><path id="Trazado_3884" data-name="Trazado 3884" d="M1415.985,814.756a33.172,33.172,0,0,0-46.892-1.428c-.176.165-.351.332-.521.5a33.177,33.177,0,1,0,47.413.926Zm-3.223,44.99a30.559,30.559,0,1,1,1.316-43.195A30.521,30.521,0,0,1,1412.763,859.746Z" transform="translate(-1358.649 -804.315)" fill="#1f4d84"></path></g><g id="Grupo_927" data-name="Grupo 927" transform="translate(2.62 2.619)" opacity="0.5"><g id="Grupo_926" data-name="Grupo 926"><path id="Trazado_3885" data-name="Trazado 3885" d="M1379.67,868.528a30.559,30.559,0,1,0,1.317-43.193A30.43,30.43,0,0,0,1379.67,868.528Z" transform="translate(-1371.369 -817.034)" fill="#b3cff9"></path></g></g></g><g id="Grupo_929" data-name="Grupo 929" transform="translate(94.654 39.217)"><path id="Trazado_3886" data-name="Trazado 3886" d="M1818.277,1010.432c23.323-16.619,21.384-38.8,21.384-38.8-8.524,4.808-16.983,15.438-20.864,24.66C1818.568,1001.577,1818.376,1006.69,1818.277,1010.432Z" transform="translate(-1818.277 -971.636)" fill="#ed7d2b"></path></g><g id="Grupo_932" data-name="Grupo 932" transform="translate(64.935 28.926)"><g id="Grupo_930" data-name="Grupo 930" transform="translate(0 39.679)"><path id="Trazado_3887" data-name="Trazado 3887" d="M1680.667,1116.179a6.363,6.363,0,0,1-2.979-1.84s-.7.048.115,1.544c.068.125.22.447.334.674a.145.145,0,0,1-.122.209,15.533,15.533,0,0,0-3.731.078c-.253.053-.326.657-.316.914a2.334,2.334,0,0,0,.491,1.593c.295.389,1.117.807,2.947,1.544.7.281,2.691.069,4.56-.573l1.493-.692-.463-2.775-.375.079C1682.026,1117.059,1681.288,1116.332,1680.667,1116.179Z" transform="translate(-1673.967 -1114.339)" fill="#ffb27d"></path></g><g id="Grupo_931" data-name="Grupo 931" transform="translate(8.41)"><path id="Trazado_3888" data-name="Trazado 3888" d="M1750.257,921.662s20.956,3.99-6.166,34.337c-4.337,4.854-27.773,11.173-27.773,11.173s-2.377-2.022-1.179-3.66c0,0,16.136-11.717,19.686-13.58,1.6-.838,6.2-18.7,8.8-23A11.738,11.738,0,0,1,1750.257,921.662Z" transform="translate(-1714.803 -921.662)" fill="#f99746"></path></g></g><g id="Grupo_933" data-name="Grupo 933" transform="translate(65.568 35.138)"><path id="Trazado_3889" data-name="Trazado 3889" d="M1679.882,956.934a10.673,10.673,0,0,1-.819-2,11.064,11.064,0,0,0-1.352-3.061c-.142-.142-.612.042-.667.652a3.541,3.541,0,0,0,.337,1.325,14.936,14.936,0,0,1,.443,2.634C1678.147,957.539,1679.882,956.934,1679.882,956.934Z" transform="translate(-1677.04 -951.826)" fill="#ffb27d"></path></g></g></g></svg>