<svg xmlns="http://www.w3.org/2000/svg" width="476.123" height="305.504" viewBox="0 0 476.123 305.504"><g id="edificio" transform="translate(-247.874 -183.276)"><g id="Grupo_993" data-name="Grupo 993" transform="translate(247.874 183.276)"><path id="Trazado_3890" data-name="Trazado 3890" d="M805.772,683.462l-181.071.044-39.634.011-13.106,0-39.558.011-148.4.7q-.145-.465-.282-.924c-16.064-53.411,32.7-52.745,46.165-69.343,4.8-5.908,5.119-14-3.543-27.5-.041-.065-.083-.128-.124-.193A102.3,102.3,0,0,1,414.8,562.486c-5.214-16.244-4.85-31.681-.16-45.944a89.842,89.842,0,0,1,17.582-30.263,122.014,122.014,0,0,1,10.184-10.492c73.692-67.593,253.4-80.405,278.27,37.7,14.1,66.96,36.4,28.219,82.27,75.789,15.142,15.7,20.249,31.692,20.418,45.931C823.688,662.563,805.772,683.462,805.772,683.462Z" transform="translate(-355.291 -378.786)" fill="#ebf3fa"></path><path id="Trazado_3891" data-name="Trazado 3891" d="M715.828,702.11a70.706,70.706,0,0,1-2.684,11.632A122.186,122.186,0,0,1,701.5,738.891c-1.143,1.932-2.112,3.757-2.92,5.488L544.716,763.754c-5.214-16.244-4.85-31.681-.16-45.944l165.7-44.608a37.189,37.189,0,0,1,5.568,14.611A48.475,48.475,0,0,1,715.828,702.11Z" transform="translate(-485.206 -580.055)" fill="#f1f7fd"></path><path id="Trazado_3892" data-name="Trazado 3892" d="M805.772,1307.4l-181.071.044-39.634.011-13.106,0-39.558.011-148.4.7q-.145-.465-.282-.924c-16.064-53.411,32.7-52.745,46.165-69.343,4.8-5.908,5.119-14-3.543-27.5-.041-.065-.083-.128-.124-.193,47.294-19.481,47.119-17.391,97.544-8.957,62.225,10.407,113.445,22.5,138.809,9.371s80.04-3.649,95.073,15.255,11.695,37.633,27.287,36.063c11.123-1.119,25.081-6.553,38.437-2.8C823.688,1286.5,805.772,1307.4,805.772,1307.4Z" transform="translate(-355.291 -1002.727)" fill="#dfebfd"></path><path id="Trazado_3893" data-name="Trazado 3893" d="M622.405,1303.687s-21.491-3.545-36.081,8.439-5.969,32.458-18.015,35.108c-17.367,3.821-57.31,9.3-53.142,46.853.422,3.8,121.915,0,121.915,0l-5.21-80.891Z" transform="translate(-464.103 -1090.271)" fill="#bde5b3"></path><path id="Trazado_3894" data-name="Trazado 3894" d="M1987.851,1445.763s25.665-4.689,43.485,9.9,9.7,26.574,19.243,29.7,23.042,9.244,20.015,24.682h-86.249Z" transform="translate(-1654.198 -1205.151)" fill="#82b378"></path><path id="Trazado_3895" data-name="Trazado 3895" d="M2509.739,1725.729h-11.6c-.621-.527.43-1.724,1.529-1.8a6.77,6.77,0,0,1,1.77.209c.159-2.119,1.071-11.647,4.505-11.264,3.861.429,0,4.2-1.092,6.426a53.084,53.084,0,0,0-2.052,5.139c.314.068.638.134.97.2.512-1.572,2.416-6.858,4.838-6.55,2.843.361,1.7,2.48-.315,3.738-1.479.925-3.294,2.24-4.157,2.875a12.31,12.31,0,0,0,2.268.182A4.887,4.887,0,0,1,2509.739,1725.729Z" transform="translate(-2070.158 -1422.045)" fill="#82b378"></path><rect id="Rect&#xE1;ngulo_2801" data-name="Rect&#xE1;ngulo 2801" width="204.397" height="281.512" transform="translate(158.309 11.921)" fill="#cde0fb"></rect><rect id="Rect&#xE1;ngulo_2802" data-name="Rect&#xE1;ngulo 2802" width="209.79" height="9.031" transform="translate(155.612 139.777)" fill="#afcdfb"></rect><g id="Grupo_951" data-name="Grupo 951" transform="translate(270.2 49.814)"><g id="Grupo_948" data-name="Grupo 948" transform="translate(7.934 1.386)"><rect id="Rect&#xE1;ngulo_2803" data-name="Rect&#xE1;ngulo 2803" width="55.835" height="74.22" fill="#fff" opacity="0.5"></rect><rect id="Rect&#xE1;ngulo_2804" data-name="Rect&#xE1;ngulo 2804" width="53.11" height="71.495" transform="translate(1.363 1.363)" fill="#dfebfd"></rect><g id="Grupo_935" data-name="Grupo 935" transform="translate(6.871 0.544)"><path id="Trazado_3896" data-name="Trazado 3896" d="M1780.234,455.528v20.362c0,.178,0,.353-.006.523-.034,1.588-.222,2.809-.447,2.809h-.064c-.208,0-.385-1.051-.436-2.47q-.007-.175-.01-.358c0-.008,0-.017,0-.026,0-.156,0-.316,0-.479V455.434Q1779.755,455.469,1780.234,455.528Z" transform="translate(-1773.114 -455.434)" fill="#afcdfb"></path><path id="Trazado_3897" data-name="Trazado 3897" d="M1753.292,567.014a6.575,6.575,0,0,0-6.384,6.75h12.768A6.575,6.575,0,0,0,1753.292,567.014Z" transform="translate(-1746.908 -545.8)" fill="#afcdfb"></path><path id="Trazado_3898" data-name="Trazado 3898" d="M1763.055,567.186a2.632,2.632,0,0,0-.561-.061c-2.3,0-4.16,3.013-4.16,6.729h1.121C1759.456,570.446,1761.023,567.629,1763.055,567.186Z" transform="translate(-1756.162 -545.89)" fill="#cde0fb"></path></g><g id="Grupo_942" data-name="Grupo 942" transform="translate(1.363 31.06)"><g id="Grupo_937" data-name="Grupo 937" transform="translate(5.503 12.254)"><path id="Trazado_3899" data-name="Trazado 3899" d="M1768.63,688s-3.144-3.668-.194-6a8.369,8.369,0,0,1,3.912-1.2s-2.49,4.175-1.685,4.59,2.439-4.852,2.439-4.852,4.9-.476,6.481.283c0,0-4.192,3.431-3.309,3.635s5.411-3.163,5.411-3.163,4.564.777,4.321,3.561-1.816,3.644-2.507,3.57-4.735-1.618-4.823-1.051,2.346,2.417,4.05,2.5c0,0-3.218,3.549-5.356,2.524s-2.321-2.648-3.654-3.256-2.471-.607-1.921.013,2.963,1.225,3.725,2.573,1.446,2.258-.766,1.925-5.809-1.952-5.967-3.806Z" transform="translate(-1763.316 -680.39)" fill="#82b378"></path><g id="Grupo_936" data-name="Grupo 936" transform="translate(0 4.517)"><path id="Trazado_3900" data-name="Trazado 3900" d="M1778.217,704.168s-12.4-.478-15.135,3.068a8.967,8.967,0,0,1-2.469,3.464l-.291.792s2.148-2.265,2.917-2.4C1763.24,709.09,1762.038,704.7,1778.217,704.168Z" transform="translate(-1757.768 -704.147)" fill="#82b378"></path><path id="Trazado_3901" data-name="Trazado 3901" d="M1749.729,737.288a7.784,7.784,0,0,0-2.846,5.484l.483.043s.85-3.636,2.386-5.057S1749.729,737.288,1749.729,737.288Z" transform="translate(-1746.883 -730.734)" fill="#82b378"></path></g></g><g id="Grupo_939" data-name="Grupo 939" transform="translate(0 11.292)"><path id="Trazado_3902" data-name="Trazado 3902" d="M1720.683,684.338,1720,685.8c-.031.067-.063.137-.1.209a.006.006,0,0,0,0,0,2.963,2.963,0,0,1-1.962,1.337V675.33c.671.291,1.124.508,1.124.508s-.28,5.481.616,5.369,0-4.865,0-4.865a8.341,8.341,0,0,1,3.243,2.46C1724.878,681.99,1720.683,684.338,1720.683,684.338Z" transform="translate(-1717.938 -675.33)" fill="#a8d29f"></path><g id="Grupo_938" data-name="Grupo 938" transform="translate(0 5.86)"><path id="Trazado_3903" data-name="Trazado 3903" d="M1721.8,713.382v.838l-.042-.1s0-.006,0-.008c-.034-.086-.072-.165-.11-.245-.008-.019-.017-.04-.027-.061s-.015-.029-.021-.044c-.074-.162-.167-.357-.27-.57,0,0,0-.006,0-.008a7.043,7.043,0,0,0-1.426-2.213.006.006,0,0,1,0,0,.917.917,0,0,0,.1-.209c.167-.494.291-1.844-2.061-3.886v-.728a7.037,7.037,0,0,1,2.745,3.148,8.937,8.937,0,0,0,1.116,4.078A.023.023,0,0,0,1721.8,713.382Z" transform="translate(-1717.938 -706.15)" fill="#82b378"></path><path id="Trazado_3904" data-name="Trazado 3904" d="M1735.873,741.961a7.746,7.746,0,0,1,.779,6.1l-.466-.125s.452-3.688-.5-5.542S1735.873,741.961,1735.873,741.961Z" transform="translate(-1732.008 -734.73)" fill="#82b378"></path></g></g><g id="Grupo_941" data-name="Grupo 941" transform="translate(4.132)"><path id="Trazado_3905" data-name="Trazado 3905" d="M1743.306,630.258s-5.529-3.1-2.949-7.3c0,0,2.064-2.58,4.276-3.244,0,0-1.18,6.266,0,6.414s.811-7.077.811-7.077,5.824-2.8,8.109-2.58c0,0-3.612,6.119-2.432,5.971s5.234-6.34,5.234-6.34,5.971-1.106,6.93,2.433-.59,5.308-1.474,5.529-6.561.147-6.414.885,3.981,1.917,6.119,1.253c0,0-2.359,5.824-5.455,5.529s-4.055-2.212-5.971-2.359-3.317.369-2.359.885,4.2.169,5.75,1.485,2.8,2.127-.074,2.717-8.035.221-9.067-1.991Z" transform="translate(-1739.672 -615.94)" fill="#a8d29f"></path><g id="Grupo_940" data-name="Grupo 940" transform="translate(0.715 3.702)"><path id="Trazado_3906" data-name="Trazado 3906" d="M1769.76,635.412s-15.481,5.013-17.251,10.616a11.758,11.758,0,0,1-1.474,5.382v1.106s1.622-3.76,2.506-4.276C1753.542,648.239,1750.077,643.374,1769.76,635.412Z" transform="translate(-1749.589 -635.412)" fill="#82b378"></path><path id="Trazado_3907" data-name="Trazado 3907" d="M1744.877,716.621a10.211,10.211,0,0,0-1.026,8.039l.614-.165s-.6-4.861.653-7.306S1744.877,716.621,1744.877,716.621Z" transform="translate(-1743.431 -700.624)" fill="#82b378"></path></g></g></g><g id="Grupo_947" data-name="Grupo 947" transform="translate(1.363 23.388)"><g id="Grupo_943" data-name="Grupo 943"><path id="Trazado_3908" data-name="Trazado 3908" d="M1885.8,613.7s8.184-33.34,8.774-36.142a2.115,2.115,0,0,1,1.891-1.816c-1.438-.147-2.485-.158-2.485-.158a6.716,6.716,0,0,0-6.256,5.039c-1.982,6.57-9.661,17.567-13.359,29.907C1874.552,610.526,1885.8,613.7,1885.8,613.7Z" transform="translate(-1844.624 -575.586)" fill="#f99746"></path><path id="Trazado_3909" data-name="Trazado 3909" d="M1717.938,753.888v-6.25c1.485-2.867,2.985-5.462,4.281-7.5q.3-.468.582-.894v0c.061-.093.121-.183.182-.272v0c.247-.371.485-.715.709-1.029v0c.346-.483.662-.9.939-1.238a4.447,4.447,0,0,1,1.479-1.146l0,0c.049-.025.1-.049.148-.072a6.861,6.861,0,0,1,.694-.276l.076-.027h0a10.475,10.475,0,0,1,2.243-.443h0a24.9,24.9,0,0,1,5.772.251h0c.255.036.51.074.762.116,1.1.179,2.194.4,3.217.635l.011,0q.562.128,1.093.26l.08.021h0l.369.093c.55.141,1.07.281,1.552.416,2,.563,3.327,1.034,3.327,1.034l.008.27.025,1.008.013.494.036,1.453,0,.063,0,.2.032,1.262,0,.1.289,11.465Z" transform="translate(-1717.938 -704.418)" fill="#f99746"></path><path id="Trazado_3910" data-name="Trazado 3910" d="M1776.97,744.894c-.171-.084-.424-.209-.751-.367h0l-.194-.091,0,0c-.177-.084-.373-.177-.586-.276-.26-.122-.546-.255-.854-.394-.424-.194-.89-.4-1.392-.622l-.449-.2h0c-.144-.063-.291-.125-.441-.188,0,0,0,0,0,0-.584-.247-1.205-.506-1.856-.764a0,0,0,0,1,0,0c-.607-.243-1.24-.491-1.894-.732l-.1-.04c-1.816-.675-3.772-1.327-5.723-1.85-.612-.163-1.223-.316-1.829-.449h0c-.082-.019-.165-.038-.247-.055h0a.037.037,0,0,0-.014,0h0q-.573-.126-1.139-.224l-.011,0a24.824,24.824,0,0,0-2.956-.367c-.226-.013-.449-.023-.667-.027a9.527,9.527,0,0,0-4.494.806,4.576,4.576,0,0,0-1.955,1.831,42.173,42.173,0,0,0-1.844,3.867,122.978,122.978,0,0,0-4.379,12.037h32.979l.084-.932s0,0,0,0l.166-1.84.81-8.961,0-.027Z" transform="translate(-1738.378 -707.313)" fill="#db6f26"></path><path id="Trazado_3911" data-name="Trazado 3911" d="M1917.623,576.24v49.345h-1.915c-1.361-.192-2.717-.4-4.036-.627h0c-2.249-.386-4.386-.819-6.246-1.295-.547-.141-1.072-.283-1.567-.432-.3-.089-.587-.179-.863-.27-.154-.049-.306-.1-.453-.152-2.074-.724-3.42-1.519-3.586-2.367-.15-.774.22-2.616.932-5.118,0,0,0,0,0,0,.125-.453.266-.93.416-1.426.068-.226.141-.458.213-.7l.086-.272.034-.114c.027-.082.053-.164.078-.245.008-.021.013-.042.019-.061v0c.169-.53.344-1.074.529-1.635.264-.8.542-1.624.835-2.472.378-1.108.781-2.253,1.2-3.422.121-.34.243-.681.367-1.025.439-1.217.892-2.451,1.35-3.688,1.179-3.181,2.4-6.377,3.536-9.3.342-.878.675-1.732,1-2.553,0,0,0,0,0,0q.334-.858.654-1.664c.62-1.574,1.059-3.084,1.469-4.447v0c.612-2.038,1.164-3.742,2.164-4.818a3.749,3.749,0,0,1,2.31-1.183c.059-.008.118-.015.179-.021h.008a5.532,5.532,0,0,1,.6-.032Z" transform="translate(-1864.513 -576.116)" fill="#ffa969"></path><path id="Trazado_3912" data-name="Trazado 3912" d="M1779.576,779.954h0L1776.251,769l-.055-.179s-.373-.038-1.046-.1c-.378-.034-.85-.076-1.4-.124-.88-.074-1.968-.164-3.207-.257h0c-.036,0-.071,0-.107-.008h0l-.171-.011h0c-.232-.019-.47-.036-.713-.053h0l-.333-.023-.785-.055c-1.873-.127-3.974-.253-6.172-.354-.54-.025-1.088-.048-1.639-.07l-.58-.021c-1.314-.047-2.647-.086-3.972-.106h0c-1.8-.029-3.58-.029-5.287.01h0l-.4.011c-.848.023-1.675.055-2.474.1-1.517.084-2.93.211-4.185.39-.768.11-1.477.24-2.114.39a6.306,6.306,0,0,0-3.076,1.392c-1.2,1.291-2.071,5.424-2.7,10.645h43.949Z" transform="translate(-1732.418 -731.112)" fill="#ffa969"></path></g><path id="Trazado_3913" data-name="Trazado 3913" d="M1848.059,661.51s-1.884.672-3.368,3.682-2.1,11.116-2.833,11.193-6.316-1.008-6.316-1.008l.129,1.391s5.806,3.863,7.018,3.169,4.561-10.058,4.778-11.475S1848.059,661.51,1848.059,661.51Z" transform="translate(-1813.183 -645.174)" fill="#ffb27d"></path><path id="Trazado_3914" data-name="Trazado 3914" d="M1900,653.965s-7.55-1.6-12.965,1.045c0,0-3.472,7.476-3.365,8.743s1.313,6.55.219,8.545,10.045,5.538,12.051,4.3S1900.325,655.339,1900,653.965Z" transform="translate(-1852.155 -638.674)" fill="#fff"></path><path id="Trazado_3915" data-name="Trazado 3915" d="M1775.059,766.257c-.51,1.181-1.186,2.521-1.947,3.957h-10.265c1.177-6.143,2.228-10.417,2.753-12.427.224-.859.352-1.3.352-1.3a3.06,3.06,0,0,1,1.755-1.565s.006,0,.01,0c1.38-.4,3,.527,4.443,1.877.169.16.338.325.5.494h0a18.084,18.084,0,0,1,1.508,1.787,9.979,9.979,0,0,1,1.846,3.451A8.143,8.143,0,0,1,1775.059,766.257Z" transform="translate(-1754.309 -720.744)" fill="#163560"></path><path id="Trazado_3916" data-name="Trazado 3916" d="M1788.059,752.749s2.31-1.324,7.558-.184a33.114,33.114,0,0,1,9.543,3.866l-13.384.556Z" transform="translate(-1774.727 -718.542)" fill="#163560"></path><path id="Trazado_3917" data-name="Trazado 3917" d="M1908.382,655.66s3.349-.613,3.814,2.113.054,19.187-2.51,20.017-13.087-3.8-13.087-3.8l.317-1.758s10.066,1.371,10.429,1.219S1908.382,655.66,1908.382,655.66Z" transform="translate(-1862.631 -640.388)" fill="#ffb27d"></path><g id="Grupo_944" data-name="Grupo 944" transform="translate(19.385 23.289)"><path id="Trazado_3918" data-name="Trazado 3918" d="M1820.373,702.466l-.477-4.39,6.208,8.181s-2.6,1.295-2.752,1.047Z" transform="translate(-1819.896 -698.076)" fill="#b5453c"></path><path id="Trazado_3919" data-name="Trazado 3919" d="M1831.7,721.166l5.735,8.757H1827.8l-5.393-8.757Z" transform="translate(-1821.929 -716.776)" fill="#b5453c"></path><path id="Trazado_3920" data-name="Trazado 3920" d="M1820.488,702.646l-.45-4.348,3.245,4.059Z" transform="translate(-1820.01 -698.256)" fill="#fff"></path><path id="Trazado_3921" data-name="Trazado 3921" d="M1876.712,727.448l.44-.315-5.7-8.469-.181.476Z" transform="translate(-1861.504 -714.75)" fill="#efdece"></path><path id="Trazado_3922" data-name="Trazado 3922" d="M1831.878,718.664l-9.074.255-.4.221h9.291Z" transform="translate(-1821.929 -714.75)" fill="#fcecdb"></path></g><path id="Trazado_3923" data-name="Trazado 3923" d="M1826.345,765.892h-10.267c-.5-1.414-.951-2.738-1.359-3.956-1.034-3.091-1.789-5.525-2.268-7.128-.255-.856-.434-1.475-.532-1.833-.068-.236-.1-.357-.1-.357,0-.049,0-.1,0-.148a2.788,2.788,0,0,1,1.04-2.365c.032-.025.067-.048.1-.07l0,0c1.042-.69,2.669-.66,4.348-.279h0a17.86,17.86,0,0,1,4.23,1.591,7.082,7.082,0,0,1,2.013,1.424q.034.043.068.091a3.294,3.294,0,0,1,.179.293,7.148,7.148,0,0,1,.451,1.068c.008.021.015.042.021.063s.008.023.011.032a48.7,48.7,0,0,1,1.544,7.605v0C1826.014,763.2,1826.185,764.534,1826.345,765.892Z" transform="translate(-1793.968 -716.422)" fill="#1c468a"></path><path id="Trazado_3924" data-name="Trazado 3924" d="M1817.83,748.852s3.974-3.567,20.191,4.115l-13.318.2Z" transform="translate(-1798.838 -715.24)" fill="#1c468a"></path><path id="Trazado_3925" data-name="Trazado 3925" d="M1874.942,736.088a9.094,9.094,0,0,0-2.019-1.065c-.638-.089-1.325-.893-1.257-.435s.774,1.049.97,1.24-1.1.159-1.627-.095c-.245-.119-1.552-.458-1.543.012a2.541,2.541,0,0,0,1.807,1.928c.6.135,3.459.215,3.459.215Z" transform="translate(-1840.656 -704.244)" fill="#ffb27d"></path><g id="Grupo_945" data-name="Grupo 945" transform="translate(33.444 0.3)"><path id="Trazado_3926" data-name="Trazado 3926" d="M1908.214,584.493s2.814,1.54.645,4.617c0,0,2.445.352,3.082-.335a2,2,0,0,1-.214.453s2.385-.245,3.262-1.121-1.441-12.931-7.839-10.658c0,0-5.642.355-4.223,6.742s-.69,6.681-.69,6.681a3.03,3.03,0,0,0,.91.168s.392-.215.441-.455a1.484,1.484,0,0,1-.122.5s2.305-.1,3.322-1.118S1908.723,585.78,1908.214,584.493Z" transform="translate(-1900.64 -577.164)" fill="#233862"></path><path id="Trazado_3927" data-name="Trazado 3927" d="M1904.516,587.8a14.2,14.2,0,0,0,1.971-4.05c.314-1.351,2.016-6.9-3.1-6.442a19.32,19.32,0,0,0-5.049,1.393c-1.142.687-2.817,2.21-1.27,6.714l.384,1.514Z" transform="translate(-1895.948 -577.255)" fill="#233862"></path><path id="Trazado_3928" data-name="Trazado 3928" d="M1918.452,638.5a4.12,4.12,0,0,0,3.387-.041,2.7,2.7,0,0,0,1.644-2.519,9.89,9.89,0,0,1-1.408-4.062l-.245.1-4.11,1.681s.36,1.327.61,2.594C1918.542,637.32,1918.231,638.342,1918.452,638.5Z" transform="translate(-1913.181 -621.479)" fill="#ffb27d"></path><path id="Trazado_3929" data-name="Trazado 3929" d="M1917.721,634.087s.36,1.327.61,2.594c2.379-.534,3.218-2.964,3.5-4.275Z" transform="translate(-1913.181 -621.903)" fill="#ed975d"></path><path id="Trazado_3930" data-name="Trazado 3930" d="M1901,605.2s5.679-1.011,5-4.538-.412-6.033-4.067-5.536-4.1,1.979-4.155,3.211S1899.506,605.371,1901,605.2Z" transform="translate(-1897.026 -591.658)" fill="#ffb27d"></path><path id="Trazado_3931" data-name="Trazado 3931" d="M1906.694,586.522s2.795,4.713,5.549,5.027,3.39-.887,3.39-.887a7.6,7.6,0,0,1-3.082-4.107S1907.7,584.139,1906.694,586.522Z" transform="translate(-1904.25 -583.892)" fill="#233862"></path><path id="Trazado_3932" data-name="Trazado 3932" d="M1896.767,590.068a5.641,5.641,0,0,0-1.327,2.26c-.176,1.048-.031,3.134-.643,3.148,0,0-1.742-2.962-.522-4.945C1895.569,588.429,1896.767,590.068,1896.767,590.068Z" transform="translate(-1893.842 -587.122)" fill="#233862"></path><path id="Trazado_3933" data-name="Trazado 3933" d="M1908.077,587.959s1.908,4.672,5.479,5.757c0,0-3.769-2.509-4.5-5.667S1908.077,587.959,1908.077,587.959Z" transform="translate(-1905.371 -584.823)" fill="#233862"></path><path id="Trazado_3934" data-name="Trazado 3934" d="M1935.21,588.105c-.877.877-3.262,1.122-3.262,1.122a1.975,1.975,0,0,0,.214-.454c-1.249.956-4.228.152-4.228.152,2.407-.461,1.73-3.936.921-4.106a74.789,74.789,0,0,0-1.65-7.354c.107-.014.167-.018.167-.018C1933.769,575.175,1936.086,587.23,1935.21,588.105Z" transform="translate(-1920.862 -577.163)" fill="#233862"></path></g><path id="Trazado_3935" data-name="Trazado 3935" d="M1949.091,654.387s3.691.056,4.661.853,1.419,12.191,1.419,12.191a7.916,7.916,0,0,0-3.318-.109,11.026,11.026,0,0,1-3.638,0Z" transform="translate(-1904.433 -639.405)" fill="#fff"></path><path id="Trazado_3936" data-name="Trazado 3936" d="M1882.052,655.47s-4.653.933-5.714,2.168-3.2,7.449-3.2,7.449a2.129,2.129,0,0,1,1.251.7c.424.574,1.814.3,1.814.3Z" transform="translate(-1843.63 -640.282)" fill="#fff"></path><g id="Grupo_946" data-name="Grupo 946" transform="translate(29.939 35.085)"><path id="Trazado_3937" data-name="Trazado 3937" d="M1875.407,774.507c.637-1.384,1.285-2.717,1.922-3.97v0c1.272-2.5,2.5-4.673,3.513-6.289,0,0,0,0,0,0,.34-.546.658-1.027.943-1.434.129-.184.253-.352.369-.506.032-.044.067-.086.1-.127a.855.855,0,0,1,.055-.067,1.685,1.685,0,0,1,.125-.137c.027-.03.055-.061.086-.089a.639.639,0,0,1,.065-.063,5.323,5.323,0,0,1,1.952-1.141,10.854,10.854,0,0,1,2.837-.523,21.679,21.679,0,0,1,3.11.053h0c1.078.089,2.164.243,3.213.43.359.065.713.131,1.061.2a.032.032,0,0,1,.013,0h.008c1.422.289,2.732.622,3.791.916v12.746Z" transform="translate(-1875.407 -760.122)" fill="#f99746"></path><path id="Trazado_3938" data-name="Trazado 3938" d="M1915.337,777.429c.11-.312.221-.626.331-.932,0,0,0,0,0,0,.205-.576.413-1.141.618-1.688.582-1.549,1.154-2.977,1.683-4.228a44.718,44.718,0,0,1,1.981-4.2c.047-.082.095-.164.148-.241a4.134,4.134,0,0,1,.439-.567,4.391,4.391,0,0,1,.656-.589,5.42,5.42,0,0,1,1.274-.688,9.9,9.9,0,0,1,3.517-.565c.363,0,.738.011,1.118.034a.032.032,0,0,1,.013,0h.008c.631.038,1.278.108,1.943.205.112.015.223.032.335.051l.084.013c.472.076.949.165,1.43.264v13.128Z" transform="translate(-1907.745 -763.044)" fill="#ed7d2b"></path></g></g></g><path id="Trazado_3939" data-name="Trazado 3939" d="M1735.4,519.5h-1.2V445.283h-58.559V519.5h-1.2a5.409,5.409,0,0,0-5.409,5.409v.188h71.77v-.188A5.409,5.409,0,0,0,1735.4,519.5Zm-57.031-71.5h53.111v13.126h-53.111Zm0,16.19h53.111V519.5h-53.111Z" transform="translate(-1669.038 -445.283)" fill="#8fb7ef"></path><g id="Grupo_950" data-name="Grupo 950" transform="translate(10.292 2.682)"><g id="Grupo_949" data-name="Grupo 949" transform="translate(0 1.216)"><rect id="Rect&#xE1;ngulo_2805" data-name="Rect&#xE1;ngulo 2805" width="51.348" height="2.582" fill="#fff"></rect><rect id="Rect&#xE1;ngulo_2806" data-name="Rect&#xE1;ngulo 2806" width="51.348" height="2.582" transform="translate(0 4.056)" fill="#fff"></rect><rect id="Rect&#xE1;ngulo_2807" data-name="Rect&#xE1;ngulo 2807" width="51.348" height="2.582" transform="translate(0 8.111)" fill="#fff"></rect><rect id="Rect&#xE1;ngulo_2808" data-name="Rect&#xE1;ngulo 2808" width="51.348" height="2.582" transform="translate(0 11.91)" fill="#fff"></rect><rect id="Rect&#xE1;ngulo_2809" data-name="Rect&#xE1;ngulo 2809" width="51.348" height="2.582" transform="translate(0 16.18)" fill="#fff"></rect></g><rect id="Rect&#xE1;ngulo_2810" data-name="Rect&#xE1;ngulo 2810" width="0.496" height="22.073" transform="translate(2.384)" fill="#fff"></rect><rect id="Rect&#xE1;ngulo_2811" data-name="Rect&#xE1;ngulo 2811" width="0.497" height="22.073" transform="translate(48.766)" fill="#fff"></rect></g></g><g id="Grupo_962" data-name="Grupo 962" transform="translate(270.2 178.867)"><g id="Grupo_952" data-name="Grupo 952" transform="translate(9.16 1.387)"><rect id="Rect&#xE1;ngulo_2812" data-name="Rect&#xE1;ngulo 2812" width="55.834" height="74.219" fill="#f9ddbf"></rect></g><path id="Trazado_3940" data-name="Trazado 3940" d="M1746.938,1138.382s.132,21.932-22.115,40.472c0,0,4.635,24.174,3.973,31.024h-10.689v-71.5Z" transform="translate(-1708.777 -1135.658)" fill="#fff"></path><g id="Grupo_961" data-name="Grupo 961" transform="translate(12.524 22.66)"><path id="Trazado_3941" data-name="Trazado 3941" d="M1802.118,1334.9a5.285,5.285,0,0,0-3.669,2.543c-1.357,2.29-3.987,12.2-5.908,14.225s-8.7,6.068-8.7,6.068l1.719,1.112s10.316-3.135,11.833-4.956,3.66-11.58,3.66-11.58Z" transform="translate(-1774.54 -1317.469)" fill="#ffb27d"></path><path id="Trazado_3942" data-name="Trazado 3942" d="M1883.362,1246.719s.131-3.267,4.834-3.469,8.086,3.763,8.24,5.927-.807,5.532,2.278,7.768,1.568,12.638-5.714,12.638-11.621-.424-11.648-4.183-.145-7.165,2.747-8.209S1883.362,1246.719,1883.362,1246.719Z" transform="translate(-1853.503 -1243.242)" fill="#233862"></path><g id="Grupo_953" data-name="Grupo 953" transform="translate(24.575 43.498)"><path id="Trazado_3943" data-name="Trazado 3943" d="M1877.4,1473.818s-.01.031-.027.088c-.008.023-.015.047-.025.078-.019.065-.046.148-.076.251-.008.023-.015.049-.023.076-.027.082-.055.177-.085.28-.019.061-.038.125-.059.194-.165.542-.39,1.295-.658,2.2-.067.234-.139.479-.213.734-.036.125-.074.255-.112.386-.013.044-.027.089-.038.135-.027.089-.053.179-.078.27s-.061.207-.091.316l-.217.757c-.171.6-.35,1.238-.53,1.894h-11c.027-.69.059-1.342.1-1.953.007-.143.017-.281.026-.42.048-.688.1-1.323.156-1.9.015-.152.029-.3.044-.445.03-.291.061-.565.091-.823.006-.048.011-.093.017-.139s.011-.093.017-.139c.034-.274.067-.525.1-.753.011-.076.023-.15.032-.222s.021-.141.03-.207.019-.129.029-.19.019-.118.029-.175c0-.028.007-.055.013-.082.013-.08.025-.154.036-.223.009-.046.017-.089.023-.129s.015-.078.021-.112a1.466,1.466,0,0,1,.131-.4c.015-.03.032-.061.049-.089s.034-.057.053-.084a1.512,1.512,0,0,1,.131-.162c.021-.023.044-.046.067-.067a.846.846,0,0,1,.076-.068c.021-.017.04-.032.061-.048.036-.028.072-.055.11-.08s.049-.032.076-.047a1.849,1.849,0,0,1,.171-.091c.03-.015.063-.031.1-.044s.074-.032.112-.047l.11-.04c.034-.013.07-.025.106-.036a3.906,3.906,0,0,1,.4-.1c.032-.008.065-.013.1-.019.051-.011.1-.021.156-.029l.213-.03c.047-.006.1-.011.144-.015l.118-.011c.067-.006.135-.011.2-.015l.247-.011c.382-.013.791,0,1.213.023.1.006.194.013.293.021.162.013.325.029.489.046.236.025.475.053.717.088h0c.021,0,.044.006.067.01.112.015.224.032.337.049.338.051.677.11,1.013.173.133.025.266.051.4.078l.365.074c.34.07.675.145,1,.22l.358.086a.814.814,0,0,1,.091.023c.059.013.116.027.171.042l.253.063.4.1.154.04.24.065c.215.057.416.114.6.167l.245.07.2.057a.153.153,0,0,1,.028.008c.055.017.108.032.158.046l.139.042.154.047.093.028.095.029C1877.3,1473.786,1877.4,1473.818,1877.4,1473.818Z" transform="translate(-1864.167 -1472.029)" fill="#1c468a"></path></g><path id="Trazado_3944" data-name="Trazado 3944" d="M1877.4,1473.818s-.01.031-.027.088c-.008.023-.015.047-.025.078-.019.065-.046.148-.076.251-.008.023-.015.049-.023.076-.027.082-.055.177-.085.28-.019.061-.038.125-.059.194-.165.542-.39,1.295-.658,2.2-.067.234-.139.479-.213.734-.036.125-.074.255-.112.386-.013.044-.027.089-.038.135-.027.089-.053.179-.078.27s-.061.207-.091.316l-.217.757c-.171.6-.35,1.238-.53,1.894h-11c.027-.69.059-1.342.1-1.953.007-.143.017-.281.026-.42.048-.688.1-1.323.156-1.9.015-.152.029-.3.044-.445.03-.291.061-.565.091-.823.006-.048.011-.093.017-.139s.011-.093.017-.139c.034-.274.067-.525.1-.753.011-.076.023-.15.032-.222s.021-.141.03-.207.019-.129.029-.19.019-.118.029-.175c0-.028.007-.055.013-.082.013-.08.025-.154.036-.223.009-.046.017-.089.023-.129s.015-.078.021-.112a1.466,1.466,0,0,1,.131-.4c.015-.03.032-.061.049-.089s.034-.057.053-.084a1.512,1.512,0,0,1,.131-.162c.021-.023.044-.046.067-.067a.846.846,0,0,1,.076-.068c.021-.017.04-.032.061-.048.036-.028.072-.055.11-.08s.049-.032.076-.047a1.849,1.849,0,0,1,.171-.091c.03-.015.063-.031.1-.044s.074-.032.112-.047l.11-.04c.034-.013.07-.025.106-.036a3.906,3.906,0,0,1,.4-.1c.032-.008.065-.013.1-.019.051-.011.1-.021.156-.029l.213-.03c.047-.006.1-.011.144-.015l.118-.011c.067-.006.135-.011.2-.015l.247-.011c.382-.013.791,0,1.213.023.1.006.194.013.293.021.162.013.325.029.489.046.236.025.475.053.717.088h0c.021,0,.044.006.067.01.112.015.224.032.337.049.338.051.677.11,1.013.173.133.025.266.051.4.078l.365.074c.34.07.675.145,1,.22l.358.086a.814.814,0,0,1,.091.023c.059.013.116.027.171.042l.253.063.4.1.154.04.24.065c.215.057.416.114.6.167.086.023.167.047.245.07l.2.057a.153.153,0,0,1,.028.008l.158.046.139.042.154.047.093.028.095.029C1877.3,1473.786,1877.4,1473.818,1877.4,1473.818Z" transform="translate(-1839.592 -1428.53)" fill="#163560"></path><path id="Trazado_3945" data-name="Trazado 3945" d="M1908.918,1464.193h-10.873c-.27-1.527-.525-2.937-.753-4.164-.388-2.1-.694-3.662-.833-4.365l-.082-.414s.1-.12.278-.321h0c1.127-1.27,5.388-5.772,7.424-3.706.333.339.686.7,1.046,1.089a14.074,14.074,0,0,1,3.244,5.381A16,16,0,0,1,1908.918,1464.193Z" transform="translate(-1865.678 -1411.247)" fill="#1c468a"></path><path id="Trazado_3946" data-name="Trazado 3946" d="M1891.964,1311.162l1.839,2.759,3.706-.182,1.712-4.425s-.528-.1-.774-5.617l-4.625,1.411a9.013,9.013,0,0,1-.082,3A4.989,4.989,0,0,1,1891.964,1311.162Z" transform="translate(-1862.104 -1292.202)" fill="#ffb27d"></path><path id="Trazado_3947" data-name="Trazado 3947" d="M1874.8,1330.95a17.2,17.2,0,0,1,10.817,1.076s-2.954,16.9-1.685,20.123a34.074,34.074,0,0,1,1.751,6.088l-13.763.171s.192-11.069-.442-14.987S1874.8,1330.95,1874.8,1330.95Z" transform="translate(-1845.46 -1313.936)" fill="#ffb27d"></path><path id="Trazado_3948" data-name="Trazado 3948" d="M1882.723,1361.333a2.817,2.817,0,0,1-1.384,1.173,13.167,13.167,0,0,1-2.652.852,25.62,25.62,0,0,1-2.7.429c-.591.067-1.222.123-1.863.16-.091.006-.182.01-.271.014-4.147.206-8.791.105-9.4-1.867a3.54,3.54,0,0,1-.02-1.066c.079-1.018.315-2.539.546-3.963.221-1.361.435-2.633.5-3.295.318-3.5-.35-8.514-.447-11.762-.079-2.708,2.337-9.331,2.337-9.331a7.257,7.257,0,0,1,2.253-.52s.259,3.251,1.928,3.526c2.891.477,5.217-2.168,5.9-3.234,0,0,3.318.837,4.29,1.948.7.8.609,2.7.4,3.906a5.3,5.3,0,0,1-.21.87c-.206.542-.983,4.527-1.337,6.115-.008.041-.016.077-.024.111-.024.107-.045.2-.065.277a.007.007,0,0,0,0,.006c-.02.085-.038.152-.052.194l-.024.077a.007.007,0,0,1,0,.006,13.188,13.188,0,0,0-.639,5.334,5.714,5.714,0,0,0,.16.854C1880.4,1354.517,1882.324,1359.189,1882.723,1361.333Z" transform="translate(-1839.789 -1315.252)" fill="#f99746"></path><path id="Trazado_3949" data-name="Trazado 3949" d="M1901.3,1308.112c1.912-.155,4.707-4.416,4.707-4.416l-4.625,1.411A9.013,9.013,0,0,1,1901.3,1308.112Z" transform="translate(-1869.667 -1292.202)" fill="#ed975d"></path><path id="Trazado_3950" data-name="Trazado 3950" d="M1856.248,1332.157s-4.438.475-5.923,2.561a21.254,21.254,0,0,0-2.428,5.214s1.06,3.178,4.155,2.781S1856.248,1332.157,1856.248,1332.157Z" transform="translate(-1826.415 -1315.252)" fill="#f99746"></path><path id="Trazado_3951" data-name="Trazado 3951" d="M1888.347,1276.688s5.647-.171,5.486-3.686.46-5.9-3.152-5.943-4.251,1.334-4.482,2.52S1886.874,1276.643,1888.347,1276.688Z" transform="translate(-1857.406 -1262.53)" fill="#ffb27d"></path><path id="Trazado_3952" data-name="Trazado 3952" d="M1899.944,1262.136s.172,1.165,2.4,2.692,2.606,5.083,2.606,5.083,1.683-6.316-.33-7.739S1899.944,1262.136,1899.944,1262.136Z" transform="translate(-1868.567 -1258.053)" fill="#233862"></path><path id="Trazado_3953" data-name="Trazado 3953" d="M1886.739,1254.22a5.623,5.623,0,0,0-4.942,2.968c-.884,1.4-.194,3.577.72,4.723,0,0,.3-2.981,1.877-3.982S1886.739,1254.22,1886.739,1254.22Z" transform="translate(-1853.539 -1252.128)" fill="#233862"></path><path id="Trazado_3954" data-name="Trazado 3954" d="M1895.847,1306.316s-.051.434-1.109.488c0,0-.888.046-.914-.421A2.855,2.855,0,0,1,1895.847,1306.316Z" transform="translate(-1863.61 -1294.207)" fill="#fff"></path><g id="Grupo_960" data-name="Grupo 960" transform="translate(0 23.419)"><g id="Grupo_955" data-name="Grupo 955" transform="translate(11.378 8.498)"><path id="Trazado_3955" data-name="Trazado 3955" d="M1805.052,1414.717s-1.489-1.737-.092-2.84a3.964,3.964,0,0,1,1.853-.568s-1.179,1.977-.8,2.174,1.155-2.3,1.155-2.3a9.378,9.378,0,0,1,3.07.134s-1.985,1.625-1.567,1.721,2.563-1.5,2.563-1.5,2.162.368,2.046,1.687-.86,1.726-1.187,1.691-2.242-.766-2.284-.5,1.111,1.145,1.918,1.186c0,0-1.524,1.681-2.536,1.2s-1.1-1.254-1.731-1.542-1.17-.288-.91.006,1.4.58,1.764,1.219.685,1.069-.363.912-2.751-.924-2.826-1.8Z" transform="translate(-1802.536 -1411.115)" fill="#82b378"></path><g id="Grupo_954" data-name="Grupo 954" transform="translate(0 2.139)"><path id="Trazado_3956" data-name="Trazado 3956" d="M1809.593,1422.375s-5.871-.226-7.168,1.453a4.245,4.245,0,0,1-1.169,1.641l-.137.375s1.017-1.073,1.381-1.137C1802.5,1424.707,1801.931,1422.626,1809.593,1422.375Z" transform="translate(-1799.909 -1422.365)" fill="#82b378"></path><path id="Trazado_3957" data-name="Trazado 3957" d="M1796.1,1438.061a3.687,3.687,0,0,0-1.348,2.6l.229.02a5.959,5.959,0,0,1,1.13-2.4C1796.84,1437.61,1796.1,1438.061,1796.1,1438.061Z" transform="translate(-1794.754 -1434.957)" fill="#82b378"></path></g></g><g id="Grupo_957" data-name="Grupo 957" transform="translate(0 3.781)"><path id="Trazado_3958" data-name="Trazado 3958" d="M1743.6,1392.441s2.369-1.326,1.263-3.126a4.7,4.7,0,0,0-1.832-1.39s.505,2.685,0,2.748-.347-3.032-.347-3.032-2.5-1.2-3.474-1.105c0,0,1.547,2.621,1.042,2.558s-2.242-2.716-2.242-2.716-2.558-.474-2.969,1.042.253,2.274.632,2.369,2.811.063,2.748.379-1.705.821-2.621.537c0,0,1.011,2.495,2.337,2.369s1.737-.948,2.558-1.011,1.421.158,1.011.379-1.8.073-2.464.636-1.2.911.032,1.164,3.442.095,3.885-.853Z" transform="translate(-1734.911 -1386.308)" fill="#a8d29f"></path><g id="Grupo_956" data-name="Grupo 956" transform="translate(1.298 1.586)"><path id="Trazado_3959" data-name="Trazado 3959" d="M1741.738,1394.649s6.632,2.148,7.39,4.548a5.038,5.038,0,0,0,.632,2.305v.474a6.9,6.9,0,0,0-1.074-1.832S1750.17,1398.06,1741.738,1394.649Z" transform="translate(-1741.738 -1394.649)" fill="#82b378"></path><path id="Trazado_3960" data-name="Trazado 3960" d="M1782.581,1429.44a4.374,4.374,0,0,1,.439,3.444l-.263-.071a7.072,7.072,0,0,0-.279-3.13C1781.943,1428.636,1782.581,1429.44,1782.581,1429.44Z" transform="translate(-1774.559 -1422.587)" fill="#82b378"></path></g></g><g id="Grupo_959" data-name="Grupo 959" transform="translate(10.404)"><path id="Trazado_3961" data-name="Trazado 3961" d="M1791.685,1374.506s-3.122-1.749-1.665-4.121a6.2,6.2,0,0,1,2.415-1.832s-.666,3.539,0,3.622.458-4,.458-4,3.289-1.582,4.579-1.457c0,0-2.04,3.456-1.374,3.372s2.956-3.58,2.956-3.58,3.372-.625,3.913,1.374-.333,3-.833,3.122-3.705.083-3.622.5,2.248,1.082,3.455.708c0,0-1.332,3.289-3.081,3.122s-2.29-1.249-3.372-1.332-1.873.208-1.332.5,2.373.1,3.247.839,1.582,1.2-.042,1.534-4.538.125-5.121-1.124Z" transform="translate(-1789.632 -1366.42)" fill="#a8d29f"></path><g id="Grupo_958" data-name="Grupo 958" transform="translate(0.404 2.091)"><path id="Trazado_3962" data-name="Trazado 3962" d="M1806.624,1377.417s-8.742,2.831-9.742,5.995a6.644,6.644,0,0,1-.833,3.039v.624a9.092,9.092,0,0,1,1.415-2.414S1795.509,1381.913,1806.624,1377.417Z" transform="translate(-1795.234 -1377.417)" fill="#82b378"></path><path id="Trazado_3963" data-name="Trazado 3963" d="M1792.572,1423.277a5.766,5.766,0,0,0-.58,4.54l.347-.093s-.336-2.745.369-4.125S1792.572,1423.277,1792.572,1423.277Z" transform="translate(-1791.755 -1414.243)" fill="#82b378"></path></g></g><path id="Trazado_3964" data-name="Trazado 3964" d="M1779.939,1445.066a6.116,6.116,0,1,1-12.232,0Z" transform="translate(-1761.472 -1430.113)" fill="#1c468a"></path><path id="Trazado_3965" data-name="Trazado 3965" d="M1777,1451.182a5.978,5.978,0,0,0,.745,0,6.116,6.116,0,0,1-6.116-6.116h1.52C1773.146,1448.187,1773.978,1450.808,1777,1451.182Z" transform="translate(-1764.646 -1430.113)" fill="#285ba5"></path><path id="Trazado_3966" data-name="Trazado 3966" d="M1779.663,1475.658h-12.4a.755.755,0,0,1,.755-.755h10.892A.755.755,0,0,1,1779.663,1475.658Z" transform="translate(-1761.111 -1454.278)" fill="#163560"></path><rect id="Rect&#xE1;ngulo_2813" data-name="Rect&#xE1;ngulo 2813" width="12.573" height="0.188" transform="translate(6.034 14.953)" fill="#163560"></rect></g><path id="Trazado_3967" data-name="Trazado 3967" d="M1810.842,1453.334c-.139-.326-1.466-.647-1.995-.876,0,0-.336.241.114.639.122.108.347.273.561.424l-.192-.051c-.473-.127-3.534.916-3.9,1.6s1.756,2.375,3.339,1.842c.813-.273,3.469-.755,3.469-.755L1811.8,1454S1810.981,1453.659,1810.842,1453.334Z" transform="translate(-1791.991 -1412.681)" fill="#ffb27d"></path><path id="Trazado_3968" data-name="Trazado 3968" d="M1861.727,1351.194s.631,4.364-3.92,10.837-4.287,6.877-6.9,8.6-11.385,3.514-11.385,3.514l-.444-2.149s8.512-5.474,9.321-6.555,6.279-13.233,6.279-13.233Z" transform="translate(-1819.275 -1330.669)" fill="#ffb27d"></path><path id="Trazado_3969" data-name="Trazado 3969" d="M1907.751,1341.391a34.1,34.1,0,0,0-4.6,4.238,20.411,20.411,0,0,0-1.853,4.5s3.8,2.384,10.356.662c0,0,1.745-8.106-.043-9.161a3.824,3.824,0,0,0-3.444-.241Z" transform="translate(-1869.667 -1322.488)" fill="#f99746"></path></g><path id="Trazado_3970" data-name="Trazado 3970" d="M1877.412,1138.382s4.064,17.959,22.823,24.315c0,0-.178,27.677-2.3,34.961a78.548,78.548,0,0,0-2.649,12.22h4.946v-71.5Z" transform="translate(-1837.795 -1135.658)" fill="#fff"></path><path id="Trazado_3971" data-name="Trazado 3971" d="M1735.4,1198.275h-1.2v-74.219h-58.559v74.219h-1.2a5.409,5.409,0,0,0-5.409,5.409v.188h71.77v-.188A5.409,5.409,0,0,0,1735.4,1198.275Zm-57.031-71.5h53.111v13.125h-53.111Zm0,16.19h53.111v55.306h-53.111Z" transform="translate(-1669.038 -1124.056)" fill="#8fb7ef"></path></g><rect id="Rect&#xE1;ngulo_2814" data-name="Rect&#xE1;ngulo 2814" width="209.79" height="28.713" transform="translate(155.612 276.01)" fill="#77a4e5"></rect><path id="Trazado_3972" data-name="Trazado 3972" d="M738.279,1643.652a29.372,29.372,0,0,0-20.037-18.659c-16.15-4.689-15.108-2.344-29.7-10.68s-37.51-3.126-42.2,3.647-15.629,10.42-30.738,10.159-15.872,14.453-15.872,14.453Z" transform="translate(-532.84 -1338.756)" fill="#a8d29f"></path><path id="Rect&#xE1;ngulo_2815" data-name="Rect&#xE1;ngulo 2815" d="M.739,0H475.384a.739.739,0,0,1,.739.739v0a.739.739,0,0,1-.739.739H.739A.739.739,0,0,1,0,.739v0A.739.739,0,0,1,.739,0Z" transform="translate(0 303.684)" fill="#2e3552"></path><g id="Grupo_974" data-name="Grupo 974" transform="translate(181.309 178.867)"><g id="Grupo_967" data-name="Grupo 967"><g id="Grupo_964" data-name="Grupo 964" transform="translate(7.934 1.386)"><rect id="Rect&#xE1;ngulo_2816" data-name="Rect&#xE1;ngulo 2816" width="55.835" height="74.22" fill="#fff" opacity="0.5"></rect><rect id="Rect&#xE1;ngulo_2817" data-name="Rect&#xE1;ngulo 2817" width="53.111" height="71.496" transform="translate(1.362 1.362)" fill="#ffcb9c"></rect><g id="Grupo_963" data-name="Grupo 963" transform="translate(5.841 22.691)"><path id="Trazado_3973" data-name="Trazado 3973" d="M1351.205,1466.307s-3.062,4.177-3.062,8.538h20.788s-1.114-6.775-5.847-8.538S1351.205,1466.307,1351.205,1466.307Z" transform="translate(-1334.037 -1424.678)" fill="#233862"></path><path id="Trazado_3974" data-name="Trazado 3974" d="M1337.693,1311.413s-3.269,8.316-3.634,8.609c-.983.792-7.023-8.432-7.951-10.041s-6.663-.233-7.151-3.226a23.33,23.33,0,0,1-.457-2.571c0-.077,0-.156,0-.234a16.817,16.817,0,0,1,.13-1.888l-.286.022-4.811.371a5.692,5.692,0,0,1,.321,2.561c-.053.456-.072,1.314-.128,2.155a2.233,2.233,0,0,1-1.6,2c-2.061.6-4.614,1.513-5.059,2.659-.866,2.23-2.815,12.306-3.186,15.721s-3.836,13.43-3.836,13.43h1.732s6.5-10.926,7.053-12.633c.171-.524.79-2.614,1.565-5.258.725,2.876,1.758,5.746,1.981,6.911.391,2.042-3.36,8.631-2.989,10.457s20.231,2.814,19.96,0-3.07-7.58-3.627-9.807c-.42-1.679.554-7.285.856-10.613,3.034,3.465,7.159,6.7,8.424,6.035,3.248-1.7,4.269-14.261,4.269-14.261Z" transform="translate(-1295.085 -1292.294)" fill="#ffb27d"></path><path id="Trazado_3975" data-name="Trazado 3975" d="M1350.351,1257.87a3.529,3.529,0,0,0-.4,5.036s-2.534-.1-3.171-.766a1.958,1.958,0,0,0,.219.441s-2.344-.195-3.22-1.037,1.167-12.709,7.485-10.6c0,0,5.539.241,4.27,6.532s.8,6.539.8,6.539a2.968,2.968,0,0,1-.889.182s-.388-.2-.442-.438a1.457,1.457,0,0,0,.129.488s-2.263-.055-3.279-1.033S1349.875,1259.142,1350.351,1257.87Z" transform="translate(-1330.344 -1250.691)" fill="#233862"></path><path id="Trazado_3976" data-name="Trazado 3976" d="M1361.924,1262.179a13.921,13.921,0,0,1-1.227-4.245c-.077-1.358,1.188-6.206,6.056-4.905a6.774,6.774,0,0,1,2.665,1.388c.989.855,2.354,2.608.105,6.7l-.624,1.4Z" transform="translate(-1344.202 -1252.407)" fill="#233862"></path><path id="Trazado_3977" data-name="Trazado 3977" d="M1376.375,1308.935c-3.473-.507-5.432-4.161-5.432-4.161a10.284,10.284,0,0,1,4.975,1.355c0,.078,0,.157,0,.234A12.508,12.508,0,0,0,1376.375,1308.935Z" transform="translate(-1352.502 -1294.474)" fill="#ed975d"></path><path id="Trazado_3978" data-name="Trazado 3978" d="M1375.035,1273.2s-6.236-.64-5.778-4.517-.038-6.571,3.963-6.326,4.6,1.816,4.76,3.147S1376.669,1273.265,1375.035,1273.2Z" transform="translate(-1351.118 -1260.124)" fill="#ffb27d"></path><path id="Trazado_3979" data-name="Trazado 3979" d="M1368.164,1259.465s-2.247,4.345-4.942,4.705-3.746-.476-3.746-.476a7.459,7.459,0,0,0,2.944-4.086S1367.137,1257.147,1368.164,1259.465Z" transform="translate(-1343.215 -1256.991)" fill="#233862"></path><path id="Trazado_3980" data-name="Trazado 3980" d="M1402.721,1262.748a5.539,5.539,0,0,1,1.344,2.192c.192,1.024.09,3.073.69,3.075,0,0,1.653-2.938.419-4.859C1403.865,1261.118,1402.721,1262.748,1402.721,1262.748Z" transform="translate(-1378.238 -1259.956)" fill="#233862"></path><path id="Trazado_3981" data-name="Trazado 3981" d="M1381.443,1260.778s-1.782,4.618-5.264,5.749c0,0,3.649-2.532,4.3-5.643S1381.443,1260.778,1381.443,1260.778Z" transform="translate(-1356.743 -1257.804)" fill="#233862"></path><path id="Trazado_3982" data-name="Trazado 3982" d="M1393.025,1307.34s.156.559.537.642a5.312,5.312,0,0,0,1.469.117,4.876,4.876,0,0,0,.388-.569A7.581,7.581,0,0,0,1393.025,1307.34Z" transform="translate(-1370.386 -1296.53)" fill="#fff"></path><path id="Trazado_3983" data-name="Trazado 3983" d="M1497.627,1325.764a19.407,19.407,0,0,1,.2-3.976,8.388,8.388,0,0,1,1.153-2.585,7.881,7.881,0,0,1,.33,2.784c-.129.5.131,1.678.329,1.442s.507-1.81.766-1.717.018,1.049.142,1.289a2.016,2.016,0,0,1-.389,1.7c-.5.817-.989,1.751-.989,1.751Z" transform="translate(-1455.084 -1306.176)" fill="#ffb27d"></path><path id="Trazado_3984" data-name="Trazado 3984" d="M1279.286,1505.069s-2.508-.6-3.332-.316-2.328,1.753-1.94,1.777,2.11-.44,2.353-.378.946.153.946.153-1.018.064-.97.25a7.236,7.236,0,0,0,2.944,0,16.746,16.746,0,0,0,1.358-1.485Z" transform="translate(-1273.95 -1456.387)" fill="#ffb27d"></path><path id="Trazado_3985" data-name="Trazado 3985" d="M1329.822,1339.94a11.3,11.3,0,0,0,7.151,2.483c4-.21,7.161-3.5,7.161-3.5a4.387,4.387,0,0,1,2.782,1.035c.959,1.021,4.609,5.6,4.609,5.6s.32,3.434-3.781,5.832l-.416-.742s-.691,8.552-.258,9.356,3.836,9.221,3.279,10.511-19.186,4.466-20.59-.208,2.1-8.726,1.957-10.4-.949-6.972-.949-6.972-5.382-.823-5.568-4.041C1325.2,1348.9,1326.153,1339.9,1329.822,1339.94Z" transform="translate(-1315.457 -1322.145)" fill="#fff"></path></g></g><path id="Trazado_3986" data-name="Trazado 3986" d="M1267.858,1198.275h-1.2v-74.219H1208.1v74.219h-1.2a5.409,5.409,0,0,0-5.409,5.409v.188h71.77v-.188A5.409,5.409,0,0,0,1267.858,1198.275Zm-57.031-71.5h53.111v13.125h-53.111Zm0,16.19h53.111v55.306h-53.111Z" transform="translate(-1201.498 -1124.056)" fill="#8fb7ef"></path><g id="Grupo_966" data-name="Grupo 966" transform="translate(10.292 2.682)"><g id="Grupo_965" data-name="Grupo 965" transform="translate(0 1.216)"><rect id="Rect&#xE1;ngulo_2818" data-name="Rect&#xE1;ngulo 2818" width="51.348" height="2.582" fill="#fff"></rect><rect id="Rect&#xE1;ngulo_2819" data-name="Rect&#xE1;ngulo 2819" width="51.348" height="2.582" transform="translate(0 4.056)" fill="#fff"></rect><rect id="Rect&#xE1;ngulo_2820" data-name="Rect&#xE1;ngulo 2820" width="51.348" height="2.582" transform="translate(0 8.111)" fill="#fff"></rect><rect id="Rect&#xE1;ngulo_2821" data-name="Rect&#xE1;ngulo 2821" width="51.348" height="2.582" transform="translate(0 11.91)" fill="#fff"></rect><rect id="Rect&#xE1;ngulo_2822" data-name="Rect&#xE1;ngulo 2822" width="51.348" height="2.582" transform="translate(0 16.18)" fill="#fff"></rect></g><rect id="Rect&#xE1;ngulo_2823" data-name="Rect&#xE1;ngulo 2823" width="0.497" height="22.073" transform="translate(2.384)" fill="#fff"></rect><rect id="Rect&#xE1;ngulo_2824" data-name="Rect&#xE1;ngulo 2824" width="0.496" height="22.073" transform="translate(48.766)" fill="#fff"></rect></g></g><g id="Grupo_969" data-name="Grupo 969" transform="translate(40.201 69.482)"><g id="Grupo_968" data-name="Grupo 968"><path id="Rect&#xE1;ngulo_2825" data-name="Rect&#xE1;ngulo 2825" d="M0,0H7.331a1.32,1.32,0,0,1,1.32,1.32v0A1.35,1.35,0,0,1,7.3,2.67H0a0,0,0,0,1,0,0V0A0,0,0,0,1,0,0Z" transform="translate(0.401)" fill="#fcecdb"></path><path id="Trazado_3987" data-name="Trazado 3987" d="M1428.444,1490.606v.4a1.169,1.169,0,0,1-1.17,1.17H1413.11a.17.17,0,0,1-.17-.17v-.06a.17.17,0,0,1,.17-.17h8.635a1.09,1.09,0,0,0,.248-.693v-.51a1.063,1.063,0,0,0-.235-.668h-8.647a.17.17,0,0,1-.17-.17v-.06a.169.169,0,0,1,.17-.169h14.236a1.1,1.1,0,0,1,1.1,1.1Z" transform="translate(-1412.94 -1489.508)" fill="#699dee"></path><path id="Trazado_3988" data-name="Trazado 3988" d="M1428.4,1490.3h-6.445a1.069,1.069,0,0,0-.2-.4h-8.647a.17.17,0,0,1-.17-.17v-.06a.169.169,0,0,1,.17-.169h14.236A1.1,1.1,0,0,1,1428.4,1490.3Z" transform="translate(-1412.94 -1489.508)" fill="#548ee2"></path></g><path id="Trazado_3989" data-name="Trazado 3989" d="M1415.051,1496.528l1.049.045-1.049.027Z" transform="translate(-1414.65 -1495.193)" fill="#f4d2b8"></path><path id="Trazado_3990" data-name="Trazado 3990" d="M1415.051,1498.731l2.5.045-2.5.027Z" transform="translate(-1414.65 -1496.978)" fill="#f4d2b8"></path></g><g id="Grupo_973" data-name="Grupo 973" transform="translate(41.148 72.143)"><g id="Grupo_971" data-name="Grupo 971"><g id="Grupo_970" data-name="Grupo 970"><path id="Trazado_3991" data-name="Trazado 3991" d="M1418.995,1505.581h8.047V1503.5h-8.112a1.006,1.006,0,0,0-1.006,1.005h0A1.071,1.071,0,0,0,1418.995,1505.581Z" transform="translate(-1417.924 -1503.504)" fill="#b5453c"></path><path id="Rect&#xE1;ngulo_2826" data-name="Rect&#xE1;ngulo 2826" d="M0,0H9.154A1.05,1.05,0,0,1,10.2,1.05v0A1.027,1.027,0,0,1,9.177,2.077H0a0,0,0,0,1,0,0V0A0,0,0,0,1,0,0Z" transform="translate(17.814 2.077) rotate(-180)" fill="#fcecdb"></path><path id="Trazado_3992" data-name="Trazado 3992" d="M1454.073,1513.1h11.133a.155.155,0,0,0,.155-.155h0a.155.155,0,0,0-.155-.155h-11.133a.155.155,0,0,0-.155.155h0A.155.155,0,0,0,1454.073,1513.1Z" transform="translate(-1447.075 -1511.027)" fill="#b5453c"></path><path id="Trazado_3993" data-name="Trazado 3993" d="M1454.073,1503.815h11.133a.155.155,0,0,0,.155-.156h0a.155.155,0,0,0-.155-.155h-11.133a.155.155,0,0,0-.155.155h0A.155.155,0,0,0,1454.073,1503.815Z" transform="translate(-1447.075 -1503.504)" fill="#b5453c"></path></g><path id="Trazado_3994" data-name="Trazado 3994" d="M1506.35,1508.965l-1.237.035,1.237.021Z" transform="translate(-1488.536 -1507.927)" fill="#f4d2b8"></path><path id="Trazado_3995" data-name="Trazado 3995" d="M1499.083,1506.451l-2.943.035,2.943.021Z" transform="translate(-1481.269 -1505.891)" fill="#f4d2b8"></path></g><g id="Grupo_972" data-name="Grupo 972" transform="translate(14.901 0.588)"><path id="Trazado_3996" data-name="Trazado 3996" d="M1496.3,1506.6a.484.484,0,0,1,.168.236.343.343,0,0,1,.013.082c.007.195,0,.636,0,.636l.372-.221.371.221v-.6a.475.475,0,0,0-.091-.3.141.141,0,0,0-.1-.061Z" transform="translate(-1496.299 -1506.599)" fill="#699dee"></path><path id="Trazado_3997" data-name="Trazado 3997" d="M1496.3,1506.6a.484.484,0,0,1,.168.236l.746.009s-.029-.21-.183-.245Z" transform="translate(-1496.299 -1506.599)" fill="#568cdb"></path></g></g></g><g id="Grupo_991" data-name="Grupo 991" transform="translate(181.309 49.814)"><g id="Grupo_981" data-name="Grupo 981"><g id="Grupo_975" data-name="Grupo 975" transform="translate(6.776 1.385)"><rect id="Rect&#xE1;ngulo_2827" data-name="Rect&#xE1;ngulo 2827" width="55.834" height="74.219" fill="#dfebfd"></rect></g><path id="Trazado_3998" data-name="Trazado 3998" d="M1378.271,459.609s-.133,21.932,22.115,40.472c0,0-4.635,24.174-3.973,31.024H1407.1v-71.5Z" transform="translate(-1344.662 -456.885)" fill="#fff"></path><g id="Grupo_980" data-name="Grupo 980" transform="translate(6.775 30.428)"><g id="Grupo_976" data-name="Grupo 976" transform="translate(0 13.019)"><path id="Trazado_3999" data-name="Trazado 3999" d="M1244.054,678.5s-4.653.658-5.853,1.708c-2.026,1.773-.541,28.762-.541,28.762s7,.578,7,0S1244.054,678.5,1244.054,678.5Z" transform="translate(-1237.135 -677.608)" fill="#d39e7a"></path><path id="Trazado_4000" data-name="Trazado 4000" d="M1274.172,705.213l-10.008.743-6.974.517-1.472.11-.091-.627-.08-.555-.017-.124-.352-2.441,0-.008-.139-.962-.428-2.97-2.192-15.18-.61-4.23s-.464-3.991,3.247-4.641l.854-.152.013,0c1.257-.224,2.694-.483,4.109-.664a23.531,23.531,0,0,1,3.341-.228,9.854,9.854,0,0,1,1.234.093,4.567,4.567,0,0,1,1.295.357,1.027,1.027,0,0,1,.122.061,2.084,2.084,0,0,1,.39.255,1.784,1.784,0,0,1,.139.127,2.814,2.814,0,0,1,.437.787c.179.424.378.989.6,1.671.3.949.637,2.12.99,3.441.987,3.7,2.12,8.58,3.109,13.018.03.135.061.268.089.4.127.572.253,1.137.373,1.688.006.027.013.053.019.08.023.1.044.205.067.308.061.274.12.546.179.812.114.532.226,1.049.334,1.548.726,3.369,1.257,5.926,1.394,6.594C1274.161,705.154,1274.172,705.213,1274.172,705.213Z" transform="translate(-1249.003 -673.798)" fill="#efcbab"></path></g><g id="Grupo_979" data-name="Grupo 979" transform="translate(1.25)"><g id="Grupo_978" data-name="Grupo 978"><path id="Trazado_4001" data-name="Trazado 4001" d="M1323.545,690.934a20.576,20.576,0,0,1,2.484,7.261c.79,4.309,1.483,5.9,2.624,6.784s7.5,3.493,7.5,3.493l-.475,1.114s-9.318-1.269-10.365-2.826-5.037-10.759-4.727-12.878S1323.545,690.934,1323.545,690.934Z" transform="translate(-1305.955 -674.657)" fill="#f4a269"></path><path id="Trazado_4002" data-name="Trazado 4002" d="M1323.858,792.242h-7.693c-.192-.766-.477-1.251-1.019-1.28-.489-.027-3.137.255-6.343.365-5.086.177-11.571-.072-13.031-2.645a8.818,8.818,0,0,1-.785-1.829v0c-.029-.089-.053-.175-.078-.262a9.382,9.382,0,0,1-.291-3.08,10.151,10.151,0,0,1,.2-1.447,8.52,8.52,0,0,1,.538-1.723l2.512,1.839h0l.281.205s2.158-.162,5.126-.287c.658-.027,1.356-.053,2.08-.074q.539-.017,1.1-.029c.118,0,.238-.006.356-.008.9-.019,1.818-.029,2.734-.029.091,0,.183,0,.272,0,.217,0,.432,0,.646,0,3.544.036,6.911.268,8.62.914a3.347,3.347,0,0,1,.618.3l.017.011C1320.951,783.99,1322.447,787.755,1323.858,792.242Z" transform="translate(-1284.921 -747.065)" fill="#ed7d2b"></path><path id="Trazado_4003" data-name="Trazado 4003" d="M1294.991,805.742h-17.967l-6.974.517a5.8,5.8,0,0,1-.914-.517,3.72,3.72,0,0,1-.645-.559c-.034-.04-.068-.08-.1-.12a2.429,2.429,0,0,1-.285-.433,3.615,3.615,0,0,1-.428-1.956v0a3.71,3.71,0,0,1,.22-1.019,6.139,6.139,0,0,1,1.388-2.107,13.986,13.986,0,0,1,3.51-2.536h.015c.2.01,2.295.114,5.063.346h0c.266.021.538.046.816.068h0c2.166.194,4.641.458,6.909.81,2.926.454,5.506,1.051,6.63,1.823C1293.107,800.659,1294.06,802.845,1294.991,805.742Z" transform="translate(-1263.114 -760.565)" fill="#f99746"></path><path id="Trazado_4004" data-name="Trazado 4004" d="M1260.942,613.083a.252.252,0,0,0,0-.036v0c-.006-.308-.021-.614-.042-.918a19.454,19.454,0,0,0-.346-2.6c-.093-.454-.2-.878-.321-1.264-.019-.059-.038-.116-.057-.173v0a3.521,3.521,0,0,0-1.042-1.774,4.172,4.172,0,0,0-2.226-.582,1.064,1.064,0,0,1,.491-.194,3.5,3.5,0,0,0-1.27.241c-5.234-2.428-6.6,5.426-6.615,7.27s-.139,3.962-2.93,5.432a5.508,5.508,0,0,0-2.223,1.974c-1.837,3.013.8,6.875.8,6.875s.3.384.711.926c1.065,1.4,2.949,3.9,2.949,3.9v0a4.743,4.743,0,0,1,.778-1.831c.365-.618.84-1.337,1.392-2.1.26-.361.538-.732.829-1.108.386-.5.795-1.006,1.219-1.506.162-.192.325-.384.49-.572.749-.856,1.531-1.679,2.3-2.4q.268-.251.531-.485h0c.219-.192.435-.376.648-.546a11.33,11.33,0,0,1,1.19-.85c.017-.011.034-.021.053-.032h0c.053-.032.1-.063.158-.093a4.691,4.691,0,0,0,.441-.688c.049-.093.1-.188.143-.285.137-.285.257-.58.361-.865a14.228,14.228,0,0,0,.506-1.791,15.6,15.6,0,0,1-.384,1.852,8.861,8.861,0,0,1-.281.842c-.068.171-.135.318-.2.447-.029.059-.059.114-.088.165.042-.034.082-.068.122-.1a3.36,3.36,0,0,0,.424-.456,4.5,4.5,0,0,0,.414-.639A12.749,12.749,0,0,0,1260.942,613.083Z" transform="translate(-1243.71 -605.323)" fill="#b5453c"></path><path id="Trazado_4005" data-name="Trazado 4005" d="M1296.577,661.421c-.092-.039-.2-.079-.311-.12.006-.238.019-.493.037-.751.081-1.177.255-2.421.255-2.421l-3.919-1.051-.233-.062a12.184,12.184,0,0,1-.768,3.71c-.406.019-.664.043-.664.043a1.5,1.5,0,0,0,.218,1.014,1.39,1.39,0,0,0-.064.194c-.244,1.1,2.518,2.646,3.8,2.7a1.336,1.336,0,0,0,1.359-.643A1.359,1.359,0,0,0,1296.577,661.421Z" transform="translate(-1281.968 -647.187)" fill="#ffb27d"></path><path id="Trazado_4006" data-name="Trazado 4006" d="M1303.754,658.393s-.174,1.244-.255,2.421c-2.218-.211-3.258-2.317-3.664-3.473Z" transform="translate(-1289.164 -647.452)" fill="#f4a269"></path><path id="Trazado_4007" data-name="Trazado 4007" d="M1292.6,620.778a11.7,11.7,0,0,1-1.217-3.51c-.125-1.137.725-5.263,4.87-4.384a5.7,5.7,0,0,1,2.3,1.049c.868.674,2.09,2.086.382,5.623l-.463,1.2Z" transform="translate(-1282.309 -611.347)" fill="#b5453c"></path><path id="Trazado_4008" data-name="Trazado 4008" d="M1302.425,630.549s-5.264-.264-5.05-3.54-.32-5.516,3.05-5.486,3.941,1.323,4.135,2.434S1303.8,630.533,1302.425,630.549Z" transform="translate(-1287.167 -618.442)" fill="#ffb27d"></path><path id="Trazado_4009" data-name="Trazado 4009" d="M1295.786,618.712s-1.7,3.747-3.943,4.168-3.166-.235-3.166-.235a6.271,6.271,0,0,0,2.293-3.56S1294.822,616.811,1295.786,618.712Z" transform="translate(-1280.127 -615.552)" fill="#b5453c"></path><path id="Trazado_4010" data-name="Trazado 4010" d="M1324.085,621.045a4.652,4.652,0,0,1,1.225,1.781c.207.852.21,2.577.714,2.552,0,0,1.259-2.54.138-4.1C1324.974,619.626,1324.085,621.045,1324.085,621.045Z" transform="translate(-1308.804 -617.597)" fill="#b5453c"></path><path id="Trazado_4011" data-name="Trazado 4011" d="M1280.447,698.768c-.426.509-1.756.666-3.178.9a9.537,9.537,0,0,0-3.13.907c-1.9,1.114-8.1,4.88-9.915,4.708-.7-.066-.573-1.411-.146-3.2.672-2.818,2.078-6.732,2.078-8.434a49.432,49.432,0,0,1,.722-5.639q.05-.3.1-.613c.816-4.886,1.947-10.646,1.947-10.646s1.261,2.751,3.718,2.751,1.886-2.1,1.886-2.1,2.242.264,2.771.834a21.931,21.931,0,0,1,2.14,3.709s.055.856-2.064,1.263a27.8,27.8,0,0,1,.577,3.871c.045,1.144-.78,4.724-1.018,6.951a4.115,4.115,0,0,0,.033,1.688,3.281,3.281,0,0,0,1.3,1.069C1279.464,697.491,1280.953,698.162,1280.447,698.768Z" transform="translate(-1259.922 -663.174)" fill="#739af0"></path><path id="Trazado_4012" data-name="Trazado 4012" d="M1278.266,735.808c1.36,2.318-3.688,3.016-4.524,3.506-1.9,1.114-7.7,5.154-9.518,4.982-.7-.066-.573-1.411-.146-3.2.672-2.818,2.078-6.732,2.078-8.434a49.432,49.432,0,0,1,.722-5.639l2.187-2.1s2.344,6.058,4.578,7.051a18.781,18.781,0,0,0,3.293,1.072,4.115,4.115,0,0,0,.033,1.688A3.281,3.281,0,0,0,1278.266,735.808Z" transform="translate(-1259.922 -702.188)" fill="#4a75cb"></path><g id="Grupo_977" data-name="Grupo 977" transform="translate(18.816 25.914)"><rect id="Rect&#xE1;ngulo_2828" data-name="Rect&#xE1;ngulo 2828" width="6.881" height="0.813" transform="translate(0 9.395)" fill="#233862"></rect><path id="Trazado_4013" data-name="Trazado 4013" d="M1371.183,751.721c.067-.269,6.326-10.1,6.326-10.1h13.925l-6.985,9.833Z" transform="translate(-1365.763 -741.624)" fill="#233862"></path><path id="Trazado_4014" data-name="Trazado 4014" d="M1374.265,751.832c.067-.269,6.346-10.208,6.346-10.208h13.319l-6.645,10.208Z" transform="translate(-1368.259 -741.624)" fill="#2b478b"></path><path id="Trazado_4015" data-name="Trazado 4015" d="M1425.924,767.191a1.112,1.112,0,0,1-.969.721.5.5,0,0,1-.473-.721,1.112,1.112,0,0,1,.969-.721A.5.5,0,0,1,1425.924,767.191Z" transform="translate(-1408.895 -761.746)" fill="#afcdfb"></path></g><path id="Trazado_4016" data-name="Trazado 4016" d="M1283.835,702.387a16.931,16.931,0,0,0-3.147.4c-2.014-.394-8.634-1.717-8.956-2.132-.38-.489-1.21-15.389-2.161-15.638,0,0-1.87-1.136-3.678,1.019s1.285,17.556,3.964,18.347c2.976.879,11.573-.141,11.573-.141h0c.706.241,1.941.377,2.6.6a1.644,1.644,0,0,0,1.827-.289C1286.046,704.213,1284.171,702.531,1283.835,702.387Z" transform="translate(-1261.238 -669.623)" fill="#ffb27d"></path><path id="Trazado_4017" data-name="Trazado 4017" d="M1263.824,676.752s-3.841.347-4.956,1.61-1.442,4.686-1.442,4.686a9.217,9.217,0,0,0,7.458,1.671Z" transform="translate(-1254.818 -663.172)" fill="#739af0"></path></g></g></g><path id="Trazado_4018" data-name="Trazado 4018" d="M1273.389,459.609s-4.064,17.959-22.823,24.316c0,0,.178,27.677,2.3,34.961a78.52,78.52,0,0,1,2.648,12.219h-4.946v-71.5Z" transform="translate(-1241.237 -456.885)" fill="#fff"></path><path id="Trazado_4019" data-name="Trazado 4019" d="M1201.5,524.912v.188h71.77v-.188a5.409,5.409,0,0,0-5.409-5.409h-1.2V445.283H1208.1V519.5h-1.2A5.409,5.409,0,0,0,1201.5,524.912Zm62.44-63.779h-53.111V448.007h53.111Zm0,58.37h-53.111V464.2h53.111Z" transform="translate(-1201.498 -445.283)" fill="#8fb7ef"></path></g><g id="Grupo_990" data-name="Grupo 990" transform="translate(51.323 44.341)"><g id="Grupo_988" data-name="Grupo 988" transform="translate(0.263)"><path id="Trazado_4020" data-name="Trazado 4020" d="M1482.427,802.2a2.73,2.73,0,0,0,3.226-1.157S1483.477,800.672,1482.427,802.2Z" transform="translate(-1480.602 -777.711)" fill="#6bb7bf"></path><path id="Trazado_4021" data-name="Trazado 4021" d="M1477.8,800.177a.922.922,0,0,0-.923-.7A1.173,1.173,0,0,0,1477.8,800.177Z" transform="translate(-1476.106 -776.479)" fill="#6bb7bf"></path><path id="Trazado_4022" data-name="Trazado 4022" d="M1483.82,778.552a1.233,1.233,0,0,0,1.257-.9A1.57,1.57,0,0,0,1483.82,778.552Z" transform="translate(-1481.73 -758.798)" fill="#6bb7bf"></path><g id="Grupo_983" data-name="Grupo 983" transform="translate(1.518 2.186)"><path id="Trazado_4023" data-name="Trazado 4023" d="M1487.24,704.628a2.126,2.126,0,0,1-1.876-1.9C1487.537,703.41,1487.24,704.628,1487.24,704.628Z" transform="translate(-1484.498 -700.304)" fill="#6bb7bf"></path><path id="Trazado_4024" data-name="Trazado 4024" d="M1495.9,707.818a1.667,1.667,0,0,0,1.969-.707A2.122,2.122,0,0,0,1495.9,707.818Z" transform="translate(-1493.028 -703.838)" fill="#6bb7bf"></path><g id="Grupo_982" data-name="Grupo 982" transform="translate(0 1.127)"><path id="Trazado_4025" data-name="Trazado 4025" d="M1481.154,721.527l-.238.274a.06.06,0,0,1-.1-.04,99.159,99.159,0,0,1,1.828-18.738,59.738,59.738,0,0,1,1.83-7.1h0c-.009.026-.836,2.7-1.737,7.126a74.273,74.273,0,0,0-1.539,18.369A.154.154,0,0,1,1481.154,721.527Z" transform="translate(-1480.811 -695.927)" fill="#6bb7bf"></path></g><path id="Trazado_4026" data-name="Trazado 4026" d="M1496.579,690.067c-.294.237-1.421,1.244-.328,2.021,0,0,.837.265,1.115-.38a4.11,4.11,0,0,0,.284-1.274.111.111,0,0,0-.1-.117.9.9,0,0,1-.236-.054c-.1-.04-.156-.2-.3-.231a.826.826,0,0,0-.279-.031A.3.3,0,0,0,1496.579,690.067Z" transform="translate(-1492.937 -689.998)" fill="#f99746"></path><path id="Trazado_4027" data-name="Trazado 4027" d="M1496.678,699.511a.678.678,0,0,1,.21.695l0,.158a.747.747,0,0,1,.5-.517A.885.885,0,0,1,1496.678,699.511Z" transform="translate(-1493.661 -697.702)" fill="#6bb7bf"></path><path id="Trazado_4028" data-name="Trazado 4028" d="M1487.24,704.628a2.126,2.126,0,0,1-1.876-1.9A4.636,4.636,0,0,1,1487.24,704.628Z" transform="translate(-1484.498 -700.304)" fill="#8ad8db"></path></g><g id="Grupo_985" data-name="Grupo 985" transform="translate(0.533 1.477)"><path id="Trazado_4029" data-name="Trazado 4029" d="M1477.583,704.052a1.667,1.667,0,0,1-1.954-.746A2.121,2.121,0,0,1,1477.583,704.052Z" transform="translate(-1475.629 -700.053)" fill="#6bb7bf"></path><g id="Grupo_984" data-name="Grupo 984" transform="translate(1.222 1.131)"><path id="Trazado_4030" data-name="Trazado 4030" d="M1484.859,717.881l.233.279a.06.06,0,0,0,.105-.037,99.152,99.152,0,0,0-1.452-18.771,59.636,59.636,0,0,0-1.687-7.132h0c.009.026.782,2.711,1.594,7.159a74.268,74.268,0,0,1,1.17,18.4A.155.155,0,0,0,1484.859,717.881Z" transform="translate(-1482.058 -692.22)" fill="#6bb7bf"></path></g><path id="Trazado_4031" data-name="Trazado 4031" d="M1477.657,686.344c.289.242,1.4,1.272.287,2.027,0,0-.843.249-1.107-.4a4.109,4.109,0,0,1-.259-1.28.111.111,0,0,1,.1-.115.891.891,0,0,0,.238-.049c.1-.038.16-.194.3-.225a.82.82,0,0,1,.28-.025A.293.293,0,0,1,1477.657,686.344Z" transform="translate(-1476.398 -686.271)" fill="#f99746"></path><path id="Trazado_4032" data-name="Trazado 4032" d="M1482.328,695.871a.678.678,0,0,0-.224.69v.158a.748.748,0,0,0-.488-.527A.885.885,0,0,0,1482.328,695.871Z" transform="translate(-1480.479 -694.046)" fill="#6bb7bf"></path></g><g id="Grupo_987" data-name="Grupo 987" transform="translate(2.357)"><path id="Trazado_4033" data-name="Trazado 4033" d="M1488.5,695.383a1.666,1.666,0,0,0,1.767-1.119A2.121,2.121,0,0,0,1488.5,695.383Z" transform="translate(-1487.875 -691.267)" fill="#6bb7bf"></path><g id="Grupo_986" data-name="Grupo 986" transform="translate(0.517 1.16)"><path id="Trazado_4034" data-name="Trazado 4034" d="M1490.546,710.308l-.173.32a.06.06,0,0,1-.111-.016,99.174,99.174,0,0,1-2.3-18.686,59.717,59.717,0,0,1,.238-7.324h0c0,.027-.228,2.813-.141,7.333a74.268,74.268,0,0,0,2.5,18.263A.155.155,0,0,1,1490.546,710.308Z" transform="translate(-1487.945 -684.602)" fill="#6bb7bf"></path></g><path id="Trazado_4035" data-name="Trazado 4035" d="M1485.751,678.632c-.235.295-1.115,1.524.121,2.044,0,0,.875.076,1.005-.614a4.1,4.1,0,0,0,0-1.306.111.111,0,0,0-.125-.092.884.884,0,0,1-.243,0c-.11-.017-.2-.158-.34-.161a.831.831,0,0,0-.279.031A.293.293,0,0,0,1485.751,678.632Z" transform="translate(-1485.227 -678.502)" fill="#f99746"></path><path id="Trazado_4036" data-name="Trazado 4036" d="M1486.768,688.834a.678.678,0,0,1,.356.632l.031.155a.747.747,0,0,1,.373-.613A.886.886,0,0,1,1486.768,688.834Z" transform="translate(-1486.475 -686.87)" fill="#6bb7bf"></path></g><path id="Trazado_4037" data-name="Trazado 4037" d="M1493.813,687.545a1.4,1.4,0,0,1,.836-1.274A1.18,1.18,0,0,1,1493.813,687.545Z" transform="translate(-1489.823 -684.794)" fill="#6bb7bf"></path><path id="Trazado_4038" data-name="Trazado 4038" d="M1480.618,680.713a.986.986,0,0,0-.66-.954A.822.822,0,0,0,1480.618,680.713Z" transform="translate(-1478.591 -679.52)" fill="#ed9f4a"></path><path id="Trazado_4039" data-name="Trazado 4039" d="M1493.662,702.59a1.076,1.076,0,0,0-.319-1.316A1.264,1.264,0,0,0,1493.662,702.59Z" transform="translate(-1489.389 -696.944)" fill="#ed9f4a"></path><path id="Trazado_4040" data-name="Trazado 4040" d="M1497.77,706.092a.4.4,0,0,1,.346-.422S1498.175,705.981,1497.77,706.092Z" transform="translate(-1493.023 -700.505)" fill="#6bb7bf"></path><path id="Trazado_4041" data-name="Trazado 4041" d="M1474.073,699.062a1.159,1.159,0,0,0-1.245-.507S1472.97,699.213,1474.073,699.062Z" transform="translate(-1472.828 -694.732)" fill="#6bb7bf"></path></g><path id="Trazado_4042" data-name="Trazado 4042" d="M1478.194,747.637h-6.081a.67.67,0,0,1-.663-.767l2.831-19.509a.37.37,0,0,1,.366-.317h.9a.4.4,0,0,1,.391.337l2.9,19.507A.652.652,0,0,1,1478.194,747.637Z" transform="translate(-1471.443 -717.815)" fill="#f99746"></path><g id="Grupo_989" data-name="Grupo 989" transform="translate(0.365 9.234)"><path id="Trazado_4043" data-name="Trazado 4043" d="M1475.016,747.066l1.5-20a.37.37,0,0,0-.317.313l-2.831,19.509a.671.671,0,0,0,.664.767h1.216A.719.719,0,0,1,1475.016,747.066Z" transform="translate(-1473.364 -727.068)" fill="#ffb278"></path></g></g></g><g id="Grupo_992" data-name="Grupo 992" transform="translate(393.081 164.65)"><path id="Trazado_4044" data-name="Trazado 4044" d="M2351.012,1052.979h-1.277l.011-.1.385-3.407a.218.218,0,0,1,.216-.193l.041,0a.341.341,0,0,1,.3.306Z" transform="translate(-2343.198 -1049.279)" fill="#a2c5f9"></path><path id="Trazado_4045" data-name="Trazado 4045" d="M2350.19,1052.206h-.045l.319-2.735a.218.218,0,0,1,.216-.193l.041,0c.012.01.023.021.033.032a.337.337,0,0,1,.091.228l.019,1.967A.691.691,0,0,1,2350.19,1052.206Z" transform="translate(-2343.53 -1049.279)" fill="#afcdfb"></path><rect id="Rect&#xE1;ngulo_2829" data-name="Rect&#xE1;ngulo 2829" width="2.463" height="108.748" transform="translate(6.165 18.859)" fill="#a2c5f9"></rect><rect id="Rect&#xE1;ngulo_2830" data-name="Rect&#xE1;ngulo 2830" width="1.137" height="108.748" transform="translate(6.165 18.859)" fill="#afcdfb"></rect><rect id="Rect&#xE1;ngulo_2831" data-name="Rect&#xE1;ngulo 2831" width="7.844" height="28.774" transform="translate(3.474 110.253)" fill="#a2c5f9"></rect><rect id="Rect&#xE1;ngulo_2832" data-name="Rect&#xE1;ngulo 2832" width="4.675" height="28.774" transform="translate(3.474 110.253)" fill="#afcdfb"></rect><path id="Trazado_4046" data-name="Trazado 4046" d="M2338.4,1067.011c0,1.344-2.018,2.433-4.508,2.433-.19,0-.377-.006-.561-.019-2.225-.149-3.947-1.173-3.947-2.414s1.722-2.264,3.947-2.413c.184-.013.371-.019.561-.019C2336.383,1064.579,2338.4,1065.668,2338.4,1067.011Z" transform="translate(-2326.718 -1061.67)" fill="#a2c5f9"></path><path id="Trazado_4047" data-name="Trazado 4047" d="M2336.068,1067.093c0,1.083-1.127,2.013-2.735,2.414-2.225-.149-3.947-1.173-3.947-2.414s1.722-2.264,3.947-2.413C2334.941,1065.08,2336.068,1066.01,2336.068,1067.093Z" transform="translate(-2326.718 -1061.752)" fill="#afcdfb"></path><path id="Trazado_4048" data-name="Trazado 4048" d="M2329.643,1103.027H2321.8l-2.766-13.316h12.952Z" transform="translate(-2318.333 -1082.024)" fill="#afcdfb"></path><rect id="Rect&#xE1;ngulo_2833" data-name="Rect&#xE1;ngulo 2833" width="14.351" height="1.277" transform="translate(0 6.684)" fill="#a2c5f9"></rect><rect id="Rect&#xE1;ngulo_2834" data-name="Rect&#xE1;ngulo 2834" width="9.021" height="1.277" transform="translate(0 6.684)" fill="#afcdfb"></rect><path id="Trazado_4049" data-name="Trazado 4049" d="M2340.385,1618.29h5.012l-.733-2.225a.482.482,0,0,0-.457-.331h-2.348a.629.629,0,0,0-.581.389Z" transform="translate(-2335.626 -1508.036)" fill="#a2c5f9"></path><path id="Trazado_4050" data-name="Trazado 4050" d="M2323.908,1093.125h11.062l-2.161,11.969h-6.352Z" transform="translate(-2322.282 -1084.789)" fill="#c7dcf9"></path><path id="Trazado_4051" data-name="Trazado 4051" d="M2330.953,1070.517s.843-1.841,2.506-1.785c0,0-1.059.942-.962,1.785S2330.953,1070.517,2330.953,1070.517Z" transform="translate(-2327.987 -1065.033)" fill="#c7dcf9"></path><path id="Trazado_4052" data-name="Trazado 4052" d="M2332.693,1078.216h-12.517l1.025-1.46h10.519Z" transform="translate(-2319.259 -1071.532)" fill="#a2c5f9"></path><path id="Trazado_4053" data-name="Trazado 4053" d="M2329.61,1078.216h-9.435l1.025-1.46h7.436Z" transform="translate(-2319.259 -1071.532)" fill="#afcdfb"></path><path id="Trazado_4054" data-name="Trazado 4054" d="M2327.771,1095.321h2.535l.738,11.177h-.738Z" transform="translate(-2325.41 -1086.568)" fill="#d2e4f9"></path></g><path id="Trazado_4055" data-name="Trazado 4055" d="M713.015,643.671l-60.5,19.96A122.018,122.018,0,0,1,662.7,653.139Z" transform="translate(-575.583 -556.138)" fill="#f1f7fd"></path><path id="Trazado_4056" data-name="Trazado 4056" d="M950.01,701.876a3.938,3.938,0,1,1,3.938,3.938A3.938,3.938,0,0,1,950.01,701.876Z" transform="translate(-816.516 -600.088)" fill="#f8fbff"></path><rect id="Rect&#xE1;ngulo_2835" data-name="Rect&#xE1;ngulo 2835" width="228.35" height="15.63" transform="translate(146.125 8.222) rotate(-2.063)" fill="#afcdfb"></rect><rect id="Rect&#xE1;ngulo_2836" data-name="Rect&#xE1;ngulo 2836" width="67.285" height="14.388" transform="translate(183.632 32.466)" fill="#afcdfb"></rect><rect id="Rect&#xE1;ngulo_2837" data-name="Rect&#xE1;ngulo 2837" width="67.285" height="14.388" transform="translate(272.409 32.466)" fill="#afcdfb"></rect><rect id="Rect&#xE1;ngulo_2838" data-name="Rect&#xE1;ngulo 2838" width="67.285" height="14.388" transform="translate(183.632 158.946)" fill="#afcdfb"></rect><rect id="Rect&#xE1;ngulo_2839" data-name="Rect&#xE1;ngulo 2839" width="67.285" height="14.388" transform="translate(272.409 158.946)" fill="#afcdfb"></rect></g></g></svg>