<svg xmlns="http://www.w3.org/2000/svg" xmlns:xlink="http://www.w3.org/1999/xlink" width="728.117" height="374.552" viewBox="0 0 728.117 374.552"><defs><linearGradient id="linear-gradient" x1="-7.631" y1="-1205.502" x2="4.012" y2="-1181.328" gradientUnits="objectBoundingBox"><stop offset="0" stop-color="#ececec"></stop><stop offset="0.99" stop-color="#dcdcdc"></stop></linearGradient><linearGradient id="linear-gradient-2" x1="-8.183" y1="-1208.911" x2="3.459" y2="-1184.738" xlink:href="#linear-gradient"></linearGradient><linearGradient id="linear-gradient-3" x1="-3.95" y1="-1209.759" x2="7.692" y2="-1185.586" xlink:href="#linear-gradient"></linearGradient><linearGradient id="linear-gradient-4" x1="-2.265" y1="-1199.434" x2="9.377" y2="-1175.26" xlink:href="#linear-gradient"></linearGradient><linearGradient id="linear-gradient-5" x1="-10.318" y1="-1237.263" x2="1.325" y2="-1213.09" xlink:href="#linear-gradient"></linearGradient><linearGradient id="linear-gradient-6" x1="-6.645" y1="-1186.2" x2="4.997" y2="-1162.026" xlink:href="#linear-gradient"></linearGradient><linearGradient id="linear-gradient-7" x1="-1.727" y1="-1196.094" x2="9.915" y2="-1171.921" xlink:href="#linear-gradient"></linearGradient><linearGradient id="linear-gradient-8" x1="0.5" y1="-119.199" x2="0.5" y2="-118.63" gradientUnits="objectBoundingBox"><stop offset="0" stop-color="#ececec"></stop><stop offset="0.99" stop-color="#e6e6e6"></stop></linearGradient><linearGradient id="linear-gradient-9" x1="1.329" y1="-137.426" x2="0.655" y2="-136.901" xlink:href="#linear-gradient"></linearGradient><linearGradient id="linear-gradient-10" x1="0.5" y1="-120.552" x2="0.5" y2="-119.979" xlink:href="#linear-gradient-8"></linearGradient><linearGradient id="linear-gradient-11" x1="0.372" y1="-188.543" x2="0.558" y2="-187.897" xlink:href="#linear-gradient"></linearGradient><linearGradient id="linear-gradient-12" x1="0" y1="-229.87" x2="1" y2="-229.87" xlink:href="#linear-gradient"></linearGradient><linearGradient id="linear-gradient-13" x1="0.5" y1="-91.706" x2="0.5" y2="-90.115" gradientUnits="objectBoundingBox"><stop offset="0" stop-color="#000a6a"></stop><stop offset="1" stop-color="#4295f6"></stop></linearGradient><linearGradient id="linear-gradient-14" x1="1.74" y1="-450.821" x2="-0.616" y2="-450.821" gradientUnits="objectBoundingBox"><stop offset="0" stop-color="#251458"></stop><stop offset="1" stop-color="#391a7d"></stop></linearGradient><linearGradient id="linear-gradient-15" x1="0.5" y1="-97.874" x2="0.5" y2="-96.175" xlink:href="#linear-gradient-13"></linearGradient><linearGradient id="linear-gradient-16" x1="-0.09" y1="-1111.229" x2="1.078" y2="-1111.229" xlink:href="#linear-gradient-13"></linearGradient><linearGradient id="linear-gradient-17" x1="0.329" y1="-540.839" x2="0.648" y2="-540.418" xlink:href="#linear-gradient-13"></linearGradient><linearGradient id="linear-gradient-18" x1="0.104" y1="-524.561" x2="0.996" y2="-525.435" gradientUnits="objectBoundingBox"><stop offset="0" stop-color="#f5c49f"></stop><stop offset="1" stop-color="#eac8b0"></stop></linearGradient><linearGradient id="linear-gradient-19" x1="4.922" y1="3.113" x2="3.645" y2="0.805" gradientUnits="objectBoundingBox"><stop offset="0" stop-color="#f5c49f"></stop><stop offset="1" stop-color="#dda48f"></stop></linearGradient><linearGradient id="linear-gradient-20" x1="0.273" y1="-373.989" x2="-3.572" y2="-373.989" gradientUnits="objectBoundingBox"><stop offset="0" stop-color="#3ec1ff"></stop><stop offset="1" stop-color="#28baff"></stop></linearGradient><linearGradient id="linear-gradient-21" x1="-0.79" y1="-1162.971" x2="1.461" y2="-1162.971" gradientUnits="objectBoundingBox"><stop offset="0" stop-color="#3949b2"></stop><stop offset="1" stop-color="#0b1b6a"></stop></linearGradient><linearGradient id="linear-gradient-22" x1="0.89" y1="0.515" x2="0.103" y2="0.515" xlink:href="#linear-gradient-20"></linearGradient><linearGradient id="linear-gradient-23" x1="0.07" y1="0.548" x2="1.709" y2="0.76" xlink:href="#linear-gradient-18"></linearGradient><linearGradient id="linear-gradient-24" x1="2.09" y1="0.325" x2="-2.618" y2="0.388" xlink:href="#linear-gradient-21"></linearGradient><linearGradient id="linear-gradient-25" x1="0.074" y1="0.46" x2="1.066" y2="0.586" xlink:href="#linear-gradient-18"></linearGradient><linearGradient id="linear-gradient-26" x1="1.19" y1="0.436" x2="0.148" y2="0.464" xlink:href="#linear-gradient-21"></linearGradient><linearGradient id="linear-gradient-27" x1="0.133" y1="0.706" x2="4.366" y2="1.223" xlink:href="#linear-gradient-18"></linearGradient><linearGradient id="linear-gradient-28" x1="2.443" y1="0.494" x2="-1.598" y2="0.558" xlink:href="#linear-gradient-21"></linearGradient><linearGradient id="linear-gradient-29" x1="0.685" y1="-1336.065" x2="0.48" y2="-1339.053" gradientUnits="objectBoundingBox"><stop offset="0" stop-color="#3c698a"></stop><stop offset="0.124" stop-color="#345d80"></stop><stop offset="1" stop-color="#01103f"></stop></linearGradient><linearGradient id="linear-gradient-30" x1="0.702" y1="-1335.806" x2="0.481" y2="-1339.035" xlink:href="#linear-gradient-29"></linearGradient><linearGradient id="linear-gradient-31" x1="0.878" y1="-1446.497" x2="0.032" y2="-1445.321" gradientUnits="objectBoundingBox"><stop offset="0" stop-color="#f5c49f"></stop><stop offset="1" stop-color="#ca9a8f"></stop></linearGradient><linearGradient id="linear-gradient-32" x1="0.612" y1="-312.417" x2="0.034" y2="-311.831" xlink:href="#linear-gradient-31"></linearGradient><linearGradient id="linear-gradient-33" x1="0.851" y1="-162.409" x2="0.274" y2="-164.42" gradientUnits="objectBoundingBox"><stop offset="0" stop-color="#3c5f9a"></stop><stop offset="0.143" stop-color="#33538c"></stop><stop offset="1" stop-color="#01103f"></stop></linearGradient><linearGradient id="linear-gradient-34" x1="-0.875" y1="-401.572" x2="2.238" y2="-401.726" xlink:href="#linear-gradient-29"></linearGradient><linearGradient id="linear-gradient-35" x1="0.803" y1="-177.567" x2="-0.539" y2="-179.946" xlink:href="#linear-gradient-33"></linearGradient><linearGradient id="linear-gradient-36" x1="0.683" y1="-198.882" x2="-0.305" y2="-201.752" xlink:href="#linear-gradient-33"></linearGradient><linearGradient id="linear-gradient-37" x1="0.996" y1="-168.374" x2="0.242" y2="-170.616" xlink:href="#linear-gradient-33"></linearGradient><linearGradient id="linear-gradient-38" x1="0.553" y1="-475.547" x2="-2.116" y2="-477.602" gradientUnits="objectBoundingBox"><stop offset="0" stop-color="#4663c5"></stop><stop offset="1" stop-color="#398ef6"></stop></linearGradient><linearGradient id="linear-gradient-39" x1="1.482" y1="-1678.094" x2="0.401" y2="-1678.901" gradientUnits="objectBoundingBox"><stop offset="0" stop-color="#4663e1"></stop><stop offset="1" stop-color="#398ef6"></stop></linearGradient><linearGradient id="linear-gradient-40" x1="0.784" y1="-184.34" x2="-0.114" y2="-185.133" xlink:href="#linear-gradient-38"></linearGradient><linearGradient id="linear-gradient-41" x1="-1.006" y1="0.141" x2="0.706" y2="0.396" xlink:href="#linear-gradient-31"></linearGradient><linearGradient id="linear-gradient-42" x1="-10.271" y1="-0.618" x2="-9.369" y2="-0.618" gradientUnits="objectBoundingBox"><stop offset="0" stop-color="#f3f3f3"></stop><stop offset="0.278" stop-color="#e7e7e8"></stop><stop offset="0.77" stop-color="#c9c9cc"></stop><stop offset="1" stop-color="#b9b9bd"></stop></linearGradient><linearGradient id="linear-gradient-43" x1="0.94" y1="-424.334" x2="-0.051" y2="-424.101" xlink:href="#linear-gradient-31"></linearGradient><linearGradient id="linear-gradient-44" x1="0.531" y1="-473.205" x2="0.425" y2="-472.23" xlink:href="#linear-gradient-42"></linearGradient><linearGradient id="linear-gradient-45" x1="-0.582" y1="0.772" x2="1.058" y2="0.543" xlink:href="#linear-gradient-31"></linearGradient><linearGradient id="linear-gradient-46" x1="0" y1="-1125.237" x2="1" y2="-1125.237" xlink:href="#linear-gradient-39"></linearGradient><linearGradient id="linear-gradient-47" x1="1.799" y1="-461.49" x2="0.222" y2="-463.363" xlink:href="#linear-gradient-38"></linearGradient><linearGradient id="linear-gradient-48" x1="0.686" y1="-662.092" x2="0.42" y2="-660.406" xlink:href="#linear-gradient-42"></linearGradient><linearGradient id="linear-gradient-49" x1="0.024" y1="0.58" x2="1.416" y2="0.465" xlink:href="#linear-gradient-29"></linearGradient><linearGradient id="linear-gradient-50" x1="0.784" y1="-2032.231" x2="-0.024" y2="-2030.207" xlink:href="#linear-gradient-31"></linearGradient><linearGradient id="linear-gradient-51" x1="-0.07" y1="-5508.48" x2="0.961" y2="-5508.992" xlink:href="#linear-gradient-31"></linearGradient><linearGradient id="linear-gradient-52" x1="-0.071" y1="-4247.394" x2="0.961" y2="-4247.905" xlink:href="#linear-gradient-31"></linearGradient><linearGradient id="linear-gradient-53" x1="-0.07" y1="-4247.005" x2="0.96" y2="-4247.517" xlink:href="#linear-gradient-31"></linearGradient><linearGradient id="linear-gradient-54" x1="-0.07" y1="-4246.594" x2="0.96" y2="-4247.106" xlink:href="#linear-gradient-31"></linearGradient><linearGradient id="linear-gradient-55" x1="0.199" y1="5.047" x2="-7.926" y2="2.027" xlink:href="#linear-gradient-19"></linearGradient><linearGradient id="linear-gradient-56" x1="-0.79" y1="-266.04" x2="1.461" y2="-266.04" xlink:href="#linear-gradient-21"></linearGradient><linearGradient id="linear-gradient-57" x1="0.435" y1="0.815" x2="0.648" y2="0.195" xlink:href="#linear-gradient-18"></linearGradient><linearGradient id="linear-gradient-58" x1="0.634" y1="2.913" x2="1.341" y2="1.805" xlink:href="#linear-gradient-18"></linearGradient><linearGradient id="linear-gradient-59" x1="0.231" y1="0.857" x2="0.607" y2="0.44" xlink:href="#linear-gradient-18"></linearGradient><linearGradient id="linear-gradient-60" x1="2.025" y1="0.587" x2="-0.011" y2="0.587" xlink:href="#linear-gradient-20"></linearGradient><linearGradient id="linear-gradient-61" x1="0" y1="-195.421" x2="1" y2="-195.421" xlink:href="#linear-gradient-20"></linearGradient><linearGradient id="linear-gradient-62" x1="0.18" y1="-879.21" x2="0.869" y2="-878.521" gradientUnits="objectBoundingBox"><stop offset="0" stop-color="#ff8681"></stop><stop offset="1" stop-color="#db5a5c"></stop></linearGradient><linearGradient id="linear-gradient-63" x1="0" y1="-6212.907" x2="1" y2="-6212.907" xlink:href="#linear-gradient-29"></linearGradient></defs><g id="exequias" transform="translate(-14308.862 310)"><path id="Trazado_3712" data-name="Trazado 3712" d="M173.858,127.892C211.2,115.041,224.221-64.877,390.072,25.082,456.027,60.857,551,17.565,641.947,41.227c83.526,21.731,85.446,84.418,74.885,106.985-11.54,24.659,34.477,54.14,81.605,74.388C872.363,254.362,818,365.984,748.165,366.517s-582.917-1.063-582.917-1.063-139.622-186.543,8.61-237.562" transform="translate(14203.193 -302.074)" fill="#ebf3fa"></path><g id="Grupo_720" data-name="Grupo 720" transform="translate(14378.917 -393.283)"><g id="Grupo_705" data-name="Grupo 705" opacity="0.3"><rect id="Rect&#xE1;ngulo_2759" data-name="Rect&#xE1;ngulo 2759" width="34.3" height="13.706" rx="1.379" transform="translate(426.202 201.483)" fill="url(#linear-gradient)"></rect><rect id="Rect&#xE1;ngulo_2760" data-name="Rect&#xE1;ngulo 2760" width="34.3" height="13.706" rx="1.379" transform="translate(445.352 216.983)" fill="url(#linear-gradient-2)"></rect><path id="Rect&#xE1;ngulo_2761" data-name="Rect&#xE1;ngulo 2761" d="M1.379,0H32.921A1.38,1.38,0,0,1,34.3,1.38V12.327a1.38,1.38,0,0,1-1.38,1.38H1.379A1.379,1.379,0,0,1,0,12.327V1.379A1.379,1.379,0,0,1,1.379,0Z" transform="translate(145.345 283.094)" fill="url(#linear-gradient-3)"></path><rect id="Rect&#xE1;ngulo_2762" data-name="Rect&#xE1;ngulo 2762" width="34.3" height="13.706" rx="1.379" transform="translate(86.608 236.25)" fill="url(#linear-gradient-4)"></rect><path id="Rect&#xE1;ngulo_2763" data-name="Rect&#xE1;ngulo 2763" d="M1.38,0H32.921A1.38,1.38,0,0,1,34.3,1.38V12.327a1.38,1.38,0,0,1-1.38,1.38H1.379A1.379,1.379,0,0,1,0,12.327V1.38A1.38,1.38,0,0,1,1.38,0Z" transform="translate(432.884 380.979)" fill="url(#linear-gradient-5)"></path><path id="Rect&#xE1;ngulo_2764" data-name="Rect&#xE1;ngulo 2764" d="M1.38,0H32.921A1.379,1.379,0,0,1,34.3,1.379V12.327a1.379,1.379,0,0,1-1.379,1.379H1.38A1.38,1.38,0,0,1,0,12.327V1.38A1.38,1.38,0,0,1,1.38,0Z" transform="translate(467.184 83.283)" fill="url(#linear-gradient-6)"></path><path id="Rect&#xE1;ngulo_2765" data-name="Rect&#xE1;ngulo 2765" d="M1.38,0H32.921A1.379,1.379,0,0,1,34.3,1.379V12.327a1.38,1.38,0,0,1-1.38,1.38H1.38A1.38,1.38,0,0,1,0,12.327V1.38A1.38,1.38,0,0,1,1.38,0Z" transform="translate(68.083 221.064)" fill="url(#linear-gradient-7)"></path></g><g id="Grupo_707" data-name="Grupo 707"><path id="Trazado_3646" data-name="Trazado 3646" d="M143.688,363.437a15.362,15.362,0,0,1,.208-6.553c1.838-7.183,3.942-20.694-.733-35.291-7.8-24.35-39.4-45.916-39.4-45.916s8.579,35.934,15.632,51.233c5.164,11.2,14.2,23.951,19.211,30.663a14.976,14.976,0,0,1,2.758,6.3,262.18,262.18,0,0,1,4.357,50.505l2.371.093A264.479,264.479,0,0,0,143.688,363.437Z" fill="url(#linear-gradient-8)"></path><path id="Trazado_3647" data-name="Trazado 3647" d="M168.888,340.542c6.279-19.85,9.2-43.234,9.2-43.234s-28.34,23.384-30.662,41.477a60.761,60.761,0,0,0,1.931,25.2,17.211,17.211,0,0,1,.669,6.851,240.007,240.007,0,0,0-.585,47.345l2.133-.246a236.282,236.282,0,0,1,.336-44.447,17.675,17.675,0,0,1,3.9-9.391A74.247,74.247,0,0,0,168.888,340.542Z" fill="url(#linear-gradient-9)"></path><path id="Trazado_3648" data-name="Trazado 3648" d="M197.7,296.385s-30.539,11.333-38.524,36.267c-4.86,15.175-2.564,29.2-.664,36.468a12.532,12.532,0,0,1-.006,6.213c-7.154,28.693-7.264,58.395-7.264,58.791h2.432c0-.388.111-29.382,7.019-57.523a21.573,21.573,0,0,1,3.621-7.734c5.208-7.015,14.072-19.636,19.205-30.771C190.739,322.43,197.7,296.385,197.7,296.385Z" fill="url(#linear-gradient-10)"></path><path id="Trazado_3649" data-name="Trazado 3649" d="M143.815,401.591a84.746,84.746,0,0,0-7.052-27.718,9.463,9.463,0,0,1-.713-5.014,45.777,45.777,0,0,0-.713-14.9c-2.478-12.234-18.715-38.663-42.226-40.212,0,0,8.112,13.042,12.286,23.952,5.281,13.8,12.819,28.245,25.32,33.787a9.4,9.4,0,0,1,4.837,5.022,81.9,81.9,0,0,1,6.117,25.242Z" fill="url(#linear-gradient-11)"></path><g id="Grupo_706" data-name="Grupo 706"><path id="Trazado_3650" data-name="Trazado 3650" d="M133.333,455.132h29.6l8.018-69.872a2.429,2.429,0,0,0-2.412-2.705H127.727a2.428,2.428,0,0,0-2.412,2.705Z" fill="url(#linear-gradient-12)"></path></g></g><g id="Grupo_717" data-name="Grupo 717"><g id="Grupo_708" data-name="Grupo 708"><path id="Trazado_3651" data-name="Trazado 3651" d="M292.2,440.052l-7.5,5.131-6.9-3.219c-1.3-15.3-7.864-35.492-6.857-61.616a59.747,59.747,0,0,1,4.943-21.691c-1.086-4.65-9.7-21.047-12.752-26.88q-1.7-3.236-3.436-6.791c-2.845-5.865-5.737-12.273-8.518-18.873-6.232-14.623-12.1-30.172-16.588-42.941H279.11s19.817,62.709,23.061,83.675C302.171,346.847,291.3,437.431,292.2,440.052Z" fill="url(#linear-gradient-13)"></path><path id="Trazado_3652" data-name="Trazado 3652" d="M259.694,324.986c-2.845-5.865-5.737-12.273-8.518-18.873l6.479-17.676Z" opacity="0.5" fill="url(#linear-gradient-14)" style="mix-blend-mode: multiply;isolation: isolate"></path><path id="Trazado_3653" data-name="Trazado 3653" d="M212.748,263.178c-8.523,19.547,8,79.065,7.438,85.013-3.069,3.673-8.047,8.474-22.334,28.681C183.593,397.1,181.6,410.188,175.62,420.483a22.341,22.341,0,0,1-2.837,4.485l3.58,8.632,5.592-.548c6.448-4.878,30.006-29.679,48.1-50.716,11.891-13.823,21.424-26.022,22.2-29.877,6.367-31.742,5.239-89.281,5.239-89.281Z" fill="url(#linear-gradient-15)"></path><path id="Trazado_3654" data-name="Trazado 3654" d="M316.936,455.136H276.39c-3.157-4.862.093-9.694,1.41-13.171,0,0,7.545,2.323,14.392-1.92,3.088,1.759,8.284,3.975,10.889,5.545,3.074,1.853,10.458,4.243,12.835,4.941A2.771,2.771,0,0,1,316.936,455.136Z" fill="url(#linear-gradient-16)"></path><path id="Trazado_3655" data-name="Trazado 3655" d="M178.323,455.782c-3.276-3.434-14.9-19.381-16.8-22.182.1-2.732,2.862-5.53,7.174-7.374a23.61,23.61,0,0,1,4.09-1.258c2.477,4.446,9.172,8.084,9.172,8.084.829,3.354,1.631,10.056,2.294,13.575,4,1.964,12.474,4.677,8.656,9.089A131.5,131.5,0,0,1,178.323,455.782Z" fill="url(#linear-gradient-17)"></path></g><g id="Grupo_709" data-name="Grupo 709"><path id="Trazado_3656" data-name="Trazado 3656" d="M308.141,191.6l-22.644,4.24s17.25,18.83,27.55,26.764l10.038-10.885C316.395,202.009,308.141,191.6,308.141,191.6Z" fill="url(#linear-gradient-18)"></path><path id="Trazado_3657" data-name="Trazado 3657" d="M362.771,225.793c.975.795,1.123,1.536,2.676,2.861.617.527,2.833,2.422,4.4.216.834,0,2.606.1,3.327-1.692.7-.052,2.554.041,3.2-1.5,1.427-.521,2.366-2.481,3.484-3.08,2.531-1.566,3.9-3.383,2.874-4.643s-8.193-.8-9.923-1.4-8.47-.317-10.406.192-33.779-9.357-41.968-8.8l-8.552,13.525a4.651,4.651,0,0,0,1.478,1.341C327.274,228.035,361.02,226.947,362.771,225.793Z" fill="url(#linear-gradient-19)"></path><path id="Trazado_3658" data-name="Trazado 3658" d="M312.606,196.242s-7.534,10.007-16.685,13.811a19.33,19.33,0,0,1-2.494.877l-11.381-10.408-1.49-1.363,6.71-31.649S295.773,171.631,312.606,196.242Z" fill="url(#linear-gradient-20)"></path><path id="Trazado_3659" data-name="Trazado 3659" d="M295.921,210.053a19.33,19.33,0,0,1-2.494.877l-11.381-10.408.159-.581,1.321-3.012h3.606A92.6,92.6,0,0,0,295.921,210.053Z" opacity="0.4" fill="url(#linear-gradient-21)"></path><path id="Trazado_3660" data-name="Trazado 3660" d="M256.621,158.018s-20.294,2.394-26.062,9.514c-12.216,15.078-9.8,47.235-13.878,64.908s-8.19,28.794-3.933,30.738c18.082,8.253,65.016,7.394,67.254-.006.8-8.537-.033-17.913,5.495-52.241,2.352-14.6,10.53-36.1,3.464-42.115a59.356,59.356,0,0,0-13.232-7.851C269.493,158.353,262.656,157.148,256.621,158.018Z" fill="url(#linear-gradient-22)"></path></g><g id="Grupo_710" data-name="Grupo 710"><path id="Trazado_3661" data-name="Trazado 3661" d="M275.729,160.965c-6.814,3.661-20.415-.839-19.108-2.947a51.35,51.35,0,0,0,2.445-6.521c1.292-4.148,1.436-7.874,2.219-12.584l14.79,4.178c-.45,3.569-.779,6.186-.892,8.567a37.561,37.561,0,0,0,.255,7.312C275.49,159.44,275.649,160.459,275.729,160.965Z" fill="url(#linear-gradient-23)"></path><path id="Trazado_3662" data-name="Trazado 3662" d="M275.438,158.97c-6.675-2.061-10.065-9.155-10.065-9.155l5.957-.351,3.853,2.194A37.561,37.561,0,0,0,275.438,158.97Z" fill="#ef8f73"></path><path id="Trazado_3663" data-name="Trazado 3663" d="M290.119,121.929c1.148,1.031,2.427,2.66,1.757,7.617-.53,3.925-1.828,7.6-7.186,10.205-1.3.634-2.74-9.321-3-10.748" fill="url(#linear-gradient-24)"></path><path id="Trazado_3664" data-name="Trazado 3664" d="M290.289,127.389c.481-5.127-2.549-5.864-7.241-8.274a19.529,19.529,0,0,0-16.56-.26c-8.267,3.775-10.227,14.538-6.877,22.986s6.752,10.415,9.05,11.792c4.109,2.462,12.316,4.106,14.558,1.981C287.244,151.8,289.716,133.495,290.289,127.389Z" fill="url(#linear-gradient-25)"></path><path id="Trazado_3665" data-name="Trazado 3665" d="M267.881,112.451a11.254,11.254,0,0,0-3.6,3.5c-2.672-.9-6.7,1.451-8.014,3.944-5.877,11.143,1.009,23.636,4.067,25.76a12.744,12.744,0,0,1,.3-1.545c.419-1.517,1.113-6.263,1.533-6.951s5.95-10.492,5.95-10.492c2.213.859,11.621,2.287,14.013,2.36,2.947.09,6.1.49,8.915-.682,4.34-1.805,7.845-10.389.448-10.655,1.255-2.708-.457-5.981-3.39-5.636-2.245.264-5.317,1.76-8.784,1.453C280.7,108.224,269.689,111.294,267.881,112.451Z" fill="url(#linear-gradient-26)"></path><path id="Trazado_3666" data-name="Trazado 3666" d="M265.586,143.393c-.719,1.393-2.844,1.549-4.291.945a4.789,4.789,0,0,1-2.737-3.586,6.3,6.3,0,0,1,.755-4.648,2.3,2.3,0,0,1,3.171-.639,6,6,0,0,1,1.34,1.389S267.124,140.411,265.586,143.393Z" fill="url(#linear-gradient-27)"></path><path id="Trazado_3667" data-name="Trazado 3667" d="M273.637,126.98s-.66,5.152-3.285,6.849c-1.419.917-2.833.785-3.053,1.516s-.885,4.056-.885,4.056l-2.238-.212a5.477,5.477,0,0,0-1.243-3.363c-1.228-1.261-.69-8.534-.69-8.534s2.025-2.316,2.519-2.771a10.063,10.063,0,0,1,3.028-1.62,15.429,15.429,0,0,1,2.93-.374A46.353,46.353,0,0,1,273.637,126.98Z" fill="url(#linear-gradient-28)"></path></g><g id="Grupo_715" data-name="Grupo 715"><path id="Trazado_3668" data-name="Trazado 3668" d="M299.3,442.61a13.109,13.109,0,0,0-2.8,4.531,17.583,17.583,0,0,0-.335,8h32.837s2.517-2.943-.252-4.727c-2.9-1.869-15.915-4.671-15.915-4.671S304.5,447.393,299.3,442.61Z" fill="url(#linear-gradient-29)"></path><path id="Trazado_3669" data-name="Trazado 3669" d="M373.184,442.61a13.092,13.092,0,0,0-2.8,4.531,17.591,17.591,0,0,0-.336,8h32.838s2.517-2.943-.252-4.727c-2.9-1.869-17.243-6.573-17.243-6.573S378.387,447.393,373.184,442.61Z" fill="url(#linear-gradient-30)"></path><path id="Trazado_3670" data-name="Trazado 3670" d="M410.288,292.073a9.481,9.481,0,0,1,2.573,3.357c.5,1.622,1.579,4.393,1.579,4.393l9.217-7.75-10.8-3.089-1.958-.547Z" fill="url(#linear-gradient-31)"></path><path id="Trazado_3671" data-name="Trazado 3671" d="M386.345,239.6l6.431,15.775s19.8,28,22.657,30.52l-5.145,6.177s-26.857-17.733-33.552-27.522a48.15,48.15,0,0,1-6.247-12.811" fill="url(#linear-gradient-32)"></path><path id="Trazado_3672" data-name="Trazado 3672" d="M383.434,352.456,355.817,363.21c-.967-1.262-3.155-4.243-6.136-8.74h-.013c-3.236-4.887-7.411-11.56-11.936-19.736-3.812-6.874-7.867-14.809-11.841-23.63-4.739-10.525-9.922-27.643-7.384-37.7,2.457-9.6,17.494-10.808,22.609-10.781C343.452,262.664,381.192,335.029,383.434,352.456Z" fill="url(#linear-gradient-33)"></path><path id="Trazado_3673" data-name="Trazado 3673" d="M349.681,354.47h-.013c-3.236-4.887-7.411-11.56-11.936-19.736l-1.019-21.418S348.084,350.455,349.681,354.47Z" opacity="0.5" fill="url(#linear-gradient-34)" style="mix-blend-mode: multiply;isolation: isolate"></path><path id="Trazado_3674" data-name="Trazado 3674" d="M371.073,445.519c3.83.907,11.072.1,14.321-1.678.063-30.047-1.835-89.925-1.963-91.382l-27.088,9.261C348.061,381.951,369,440.243,371.073,445.519Z" fill="url(#linear-gradient-35)"></path><path id="Trazado_3675" data-name="Trazado 3675" d="M315.716,369.973c-16.222,29.263-15.606,62.611-16.415,72.637,3.764,3.978,11.021,3.748,13.538,3.133.788-.193,33.033-65.479,31.78-83.1l-24.754.56Z" fill="url(#linear-gradient-36)"></path><path id="Trazado_3676" data-name="Trazado 3676" d="M326.572,270.572l-25.651,4.409c-9.934,16.263-13.055,34.826-7.132,48.29,1.561,3.548,14.742,31.568,23.332,44.363l27.534-3.061C346.927,350.234,326.572,270.572,326.572,270.572Z" fill="url(#linear-gradient-37)"></path><path id="Trazado_3677" data-name="Trazado 3677" d="M390.523,249.2c-3.5,3.679-12.191,7.129-18.568,9.157-.7.228-1.37.429-2,.617-.9-1.195-3.8-5.719-5.8-8.888-1.033-1.638-1.825-2.9-1.987-3.168l18.743-22.327S386.522,237.128,390.523,249.2Z" fill="url(#linear-gradient-38)"></path><path id="Trazado_3678" data-name="Trazado 3678" d="M371.955,258.355c-.7.228-1.37.429-2,.617-.9-1.195-3.8-5.719-5.8-8.888l4.23-.872A64.045,64.045,0,0,0,371.955,258.355Z" opacity="0.5" fill="url(#linear-gradient-39)" style="mix-blend-mode: multiply;isolation: isolate"></path><path id="Trazado_3679" data-name="Trazado 3679" d="M363.067,264.047c-4.766,20.7-6.847,22.072-7.881,23.831-1.3,2.2-12.875,3.021-27.858,2.631-8.9-.228-27.725-5.84-29.51-9.572-.725-1.517.537-16.876,7.088-37.834q.967-3.121,2.108-6.4c.282-.819.6-1.692.967-2.591,4.068-10.311,12.419-24.865,19.185-29.47,2.887-1.974,9.909-2.618,18.6-2.5a53.94,53.94,0,0,1,19.172,4.054c8.458,4.35,12.849,11.13,16.3,19.24C382.158,227.368,367.444,245.077,363.067,264.047Z" fill="url(#linear-gradient-40)"></path><g id="Grupo_711" data-name="Grupo 711"><path id="Trazado_3680" data-name="Trazado 3680" d="M348.078,202.235s10.213,9.535,16.852,3.958l5.431-13.246-13.7-8.876-1.229-1.649s-.266,2.748-.7,6.763c-.254,2.275-.419,4.962-.877,7.756C353.3,200.359,348.078,202.235,348.078,202.235Z" fill="url(#linear-gradient-41)"></path><path id="Trazado_3681" data-name="Trazado 3681" d="M385.65,181.885s.331,6.011-4.957,8.561l.958-9.344Z" fill="url(#linear-gradient-42)"></path><path id="Trazado_3682" data-name="Trazado 3682" d="M356.341,194.977a31.527,31.527,0,0,0,1.481,3.392l.006.02a26.725,26.725,0,0,0,3.4,5.074,19.576,19.576,0,0,0,4.992,4.291,13.133,13.133,0,0,0,2.4,1.181,10,10,0,0,0,6.083.489c4.817-4.141,6.953-12.415,7.884-18.883.391-2.615.569-4.931.67-6.564.082-1.476.077-2.372.077-2.372,0-.065.01-.11.013-.175.728-8.482-9.983-11.723-18.652-9.213a13.6,13.6,0,0,0-1.493.521,14.949,14.949,0,0,0-6.329,4.3c-2.787,3.335-2.909,7.965-2.139,12.142l.131.667A35.723,35.723,0,0,0,356.341,194.977Z" fill="url(#linear-gradient-43)"></path><path id="Trazado_3683" data-name="Trazado 3683" d="M366.908,163.194c8.36-2.418,17.425,3.4,22.605,7.226,3.99,2.949,1.06,12.086-5.279,13.412a17.386,17.386,0,0,1-15.053-3.341,7.214,7.214,0,0,1-1.766,3.8,11.2,11.2,0,0,1-3.9,1.689c-.224,1.442-.465,2.753-.719,3.736l-1.682.395a22.875,22.875,0,0,1-.446-2.325s-.429-3.788-3-4.161a2.568,2.568,0,0,0-2.724,1.646c-.473,1.387.031,3.783-.248,5.688-.328,2.243-.569,4.5-.836,5.971,0,0-4.562-5.6-3.329-18.253.812-8.445,4.419-12.379,9.108-12.272C363.917,166.5,363.426,164.2,366.908,163.194Z" fill="url(#linear-gradient-44)"></path></g><path id="Trazado_3684" data-name="Trazado 3684" d="M299.8,210.931l9.817,18.209-13.924,5.2,1.545,35.226h0a17.612,17.612,0,0,0,2.559,3.26,33.125,33.125,0,0,1,3.652,3.293,22.07,22.07,0,0,1,2.422,4.849c-.063.445-.542,1.274-2.005.388a30.33,30.33,0,0,1-4.085-3.633s-.084,2.521-.127,4.26c0,.2,1.5,3.19,1.543,5.088.037,1.735-.676,1.658-.676,1.658s.468.919.178,1.419c-.237.41-1.3.757-2.228-.553a3.119,3.119,0,0,1-.877-.054,2.246,2.246,0,0,1-1.078-.744,1.1,1.1,0,0,1-1.219-.133,11.161,11.161,0,0,1-3.162-3.383,25.971,25.971,0,0,1-2.767-5.363c-.665-2.039-.06-6.2-.18-7.927-2.892-8.739-13.618-29.811-9.942-42.326C282.358,219.086,299.8,210.931,299.8,210.931Z" fill="url(#linear-gradient-45)"></path><path id="Trazado_3685" data-name="Trazado 3685" d="M325.6,229.919s-12.016,9.707-20.69,13.184q.967-3.121,2.108-6.4c.282-.819.6-1.692.967-2.591l8.713-5.532Z" opacity="0.5" fill="url(#linear-gradient-46)" style="mix-blend-mode: multiply;isolation: isolate"></path><path id="Trazado_3686" data-name="Trazado 3686" d="M294.8,212.664s-1.039,4.655,2.883,14.248c1.542,3.771,7.238,10.955,7.238,10.955a87.828,87.828,0,0,0,25.05-10.4c9.411-5.612,9.484-14.689,9.484-14.689s-.634-9.939-5.729-10.094C322.993,202.351,305.23,207.119,294.8,212.664Z" fill="url(#linear-gradient-47)"></path><path id="Trazado_3687" data-name="Trazado 3687" d="M361.116,190.111s-1.392,9.068-.732,12.3,5.671,6.348,9.363,7.263,6.727.369,8.517-3.547a30.384,30.384,0,0,0,2.251-6.457,29.4,29.4,0,0,0-7.663-2.1,16.263,16.263,0,0,1-7.93-3.734c-.727-.671-.894-6.452-1.049-8.064S361.379,188.985,361.116,190.111Z" fill="url(#linear-gradient-48)"></path><g id="Grupo_712" data-name="Grupo 712"><path id="Trazado_3688" data-name="Trazado 3688" d="M444.016,455.952,432.168,304.771a8.537,8.537,0,0,0-15.343-4.451,8.93,8.93,0,0,0-1.655,6.082l.153,1.956a2.259,2.259,0,0,1-2.075,2.429h0a2.26,2.26,0,0,1-2.43-2.076l-.145-1.859a13.58,13.58,0,0,1,2.833-9.624,13.056,13.056,0,0,1,23.167,7.19L448.521,455.6Z" fill="url(#linear-gradient-49)"></path></g><path id="Trazado_3689" data-name="Trazado 3689" d="M415.433,285.9a7.027,7.027,0,0,0,2.518,1.423,33.323,33.323,0,0,0,4.733,1.581c1.293.266,1.067-.086,2.685,1.981,1.112,1.42,2.093,1.754,2.014,2.2-.153.858-1.2,1.3-3.16.512s-1.628-1.012-2.356-1.124c0,0-4.757.727-6.434.839s-5.2-2.7-5.2-2.7Z" fill="url(#linear-gradient-50)"></path><g id="Grupo_713" data-name="Grupo 713"><path id="Trazado_3690" data-name="Trazado 3690" d="M418.529,300.1s-.4-.028-.754-.082c-.244-.329-.468-.619-.761-.987,0,0-.975-.992-1.633-.621-.393.223-.049,1.165.615,2.181a1.633,1.633,0,0,0,1.88.645A1.3,1.3,0,0,0,418.529,300.1Z" fill="url(#linear-gradient-51)"></path><path id="Trazado_3691" data-name="Trazado 3691" d="M420.51,298.887s-.521-.037-.978-.106c-.316-.426-.607-.8-.987-1.279,0,0-1.264-1.288-2.116-.806-.511.288-.064,1.51.8,2.827a2.115,2.115,0,0,0,2.437.837A1.682,1.682,0,0,0,420.51,298.887Z" fill="url(#linear-gradient-52)"></path><path id="Trazado_3692" data-name="Trazado 3692" d="M422.482,297.745s-.521-.037-.978-.106c-.316-.427-.607-.8-.987-1.28,0,0-1.264-1.287-2.117-.805-.51.288-.063,1.51.8,2.827a2.116,2.116,0,0,0,2.436.837A1.681,1.681,0,0,0,422.482,297.745Z" fill="url(#linear-gradient-53)"></path><path id="Trazado_3693" data-name="Trazado 3693" d="M424.505,296.948s-.521-.037-.978-.106c-.316-.427-.607-.8-.987-1.28,0,0-1.264-1.287-2.117-.805-.51.288-.063,1.51.8,2.827a2.115,2.115,0,0,0,2.436.837A1.681,1.681,0,0,0,424.505,296.948Z" fill="url(#linear-gradient-54)"></path></g><g id="Grupo_714" data-name="Grupo 714"><path id="Trazado_3694" data-name="Trazado 3694" d="M383.789,342.13c2.072,1.382,3.877,2.993,3.941,3.777.154,1.916-1.992,2.914-2,3.914-.009,1.7,2.732,2.049,3.264,3.658.6,1.821-2.051,3.418-1.7,5.3.288,1.566,2.485,2.268,2.652,3.852.178,1.683-2.029,3.953-3.071,5.407" fill="none" stroke="#bfbfbf" stroke-linecap="round" stroke-miterlimit="10" stroke-width="1.057"></path><path id="Trazado_3695" data-name="Trazado 3695" d="M420.59,283.536a10.2,10.2,0,0,1,1.977-.246,2.658,2.658,0,0,1,1.89.506c.617.566.668,1.536,1.19,2.19a3.363,3.363,0,0,0,2.3.987,5.562,5.562,0,0,1,2.469.63,2.411,2.411,0,0,1,1.059,1.938,5.47,5.47,0,0,0,0,1.964,2.188,2.188,0,0,0,.932.956,7.7,7.7,0,0,0,1.6.763,5.5,5.5,0,0,1,2.1.937,2.711,2.711,0,0,1,.764,1.769,8.09,8.09,0,0,1-.162,1.96" fill="none" stroke="#bfbfbf" stroke-linecap="round" stroke-miterlimit="10" stroke-width="1.057"></path><path id="Trazado_3696" data-name="Trazado 3696" d="M325.578,200.2a6.518,6.518,0,0,1,1.123-1.146,2.188,2.188,0,0,1,1.5-.464,4.21,4.21,0,0,1,1.6.758,1.979,1.979,0,0,0,1.692.336c.839-.334,1.051-1.545,1.889-1.879a2.269,2.269,0,0,1,2.029.594,2.37,2.37,0,0,0,2.023.638c.918-.321,1.216-1.691,2.176-1.847a1.852,1.852,0,0,1,1.425.6,9.542,9.542,0,0,1,1.3,1.384" fill="none" stroke="#bfbfbf" stroke-linecap="round" stroke-miterlimit="10" stroke-width="1.057"></path><path id="Trazado_3697" data-name="Trazado 3697" d="M305.229,380.979a7.085,7.085,0,0,0-1.75,1.459,2.39,2.39,0,0,0-.493,2.143c.378,1.155,1.875,1.767,2.006,2.975.126,1.161-1.075,1.99-2.145,2.458s-2.332,1.039-2.541,2.188c-.242,1.325,1.065,2.34,1.986,3.323a1.682,1.682,0,0,1,.565,1.131,1.3,1.3,0,0,1-.238.666c-.889,1.345-3.145,1.462-3.679,2.983a2.34,2.34,0,0,0,.5,2.167,6.9,6.9,0,0,0,1.808,1.436" fill="none" stroke="#bfbfbf" stroke-linecap="round" stroke-miterlimit="10" stroke-width="1.057"></path><path id="Trazado_3698" data-name="Trazado 3698" d="M371.625,260.9c-.605,1.16-1.184,2.663-.355,3.674.944,1.152,3.106.793,3.824,2.1.688,1.251-.622,2.885-.038,4.189.486,1.084,1.931,1.253,3.119,1.238s2.615.067,3.2,1.1c.524.922.071,2.151.54,3.1a2.366,2.366,0,0,0,2.009,1.17,6.982,6.982,0,0,0,2.387-.418" fill="none" stroke="#bfbfbf" stroke-linecap="round" stroke-miterlimit="10" stroke-width="1.057"></path><path id="Trazado_3699" data-name="Trazado 3699" d="M389.979,350.36c1.172,1.139,2.445,2.6,2.075,4.191-.312,1.339-1.751,2.361-1.6,3.728.2,1.849,3.089,2.491,3.227,4.345a2.776,2.776,0,0,1-.269,1.258,7.8,7.8,0,0,1-1.676,2.5" fill="none" stroke="#bfbfbf" stroke-linecap="round" stroke-miterlimit="10" stroke-width="1.057"></path><path id="Trazado_3700" data-name="Trazado 3700" d="M360.533,423.828c-1.338,1.2-1.647,3.1-1.28,3.667a2.238,2.238,0,0,0,1.489.779,1.652,1.652,0,0,1,1.323,1.044,2.3,2.3,0,0,1-.658,1.883,2.084,2.084,0,0,0-.542,1.909c.421,1.046,1.949.565,2.519,1.508.435.72,0,1.687-.427,2.394s-1.01,1.679-.388,2.394a5.918,5.918,0,0,0,3.121,1.148" fill="none" stroke="#bfbfbf" stroke-linecap="round" stroke-miterlimit="10" stroke-width="1.057"></path></g></g><g id="Grupo_716" data-name="Grupo 716"><path id="Trazado_3701" data-name="Trazado 3701" d="M379.35,219.851c-1.091,1.2-2.98,2.795-3.778,4.169-.744,1.279-.259,2.338.36,2.437-1.675,1.968-.9,3.749-.127,3.833a3.3,3.3,0,0,0,1.408-1c-1.158,1.724.143,3.45.928,3.135a13.582,13.582,0,0,0,2.136-1.543,5.282,5.282,0,0,0-.906,1.777c-.167,1.446.736,1.47,1.71.921a9.073,9.073,0,0,0,3.033-3.263c1.068-2.6-.878-7.029-1.309-7.827C381.451,219.82,379.862,219.291,379.35,219.851Z" fill="url(#linear-gradient-55)"></path><path id="Trazado_3702" data-name="Trazado 3702" d="M251.363,221.423l-10.417-13.48-3.638.131c-3.4-12.635-7.716-27.4-9.961-30.144a70.953,70.953,0,0,0,2.932,30.12l1.2.036s4.972,15.788,8.406,21.827,25.484,9.167,25.484,9.167Z" opacity="0.4" fill="url(#linear-gradient-56)"></path><path id="Trazado_3703" data-name="Trazado 3703" d="M258.091,219.5l-14.932,9.689c4.852,5.694,29.561,12,42.8,15.89l5.817-7.216C281.829,232.492,263.7,221.787,258.091,219.5Z" fill="url(#linear-gradient-57)"></path><path id="Trazado_3704" data-name="Trazado 3704" d="M296.9,247.722a2.275,2.275,0,0,0,1.68-2.488c.713-.2,2.18-1.245,1.374-2.733,1.1-1.337.75-2.278-.1-3.041a13.009,13.009,0,0,0-1.068-.823,6.575,6.575,0,0,0,1.2-.958c.687-.8.9-2.655.236-3.039s-2.409.948-3.428,1.051a17.8,17.8,0,0,0-3.149.941h0a45.4,45.4,0,0,0-5.872,2.211l-1.822,6.239a24.363,24.363,0,0,0,8.1,3.72C295.574,249.051,296.339,248.707,296.9,247.722Z" fill="url(#linear-gradient-58)"></path><path id="Trazado_3705" data-name="Trazado 3705" d="M252.9,191.239l-20.292,6.755s3.991,17.042,10.546,31.2l17.1-4.321C256.852,212.966,252.9,191.239,252.9,191.239Z" fill="url(#linear-gradient-59)"></path><path id="Trazado_3706" data-name="Trazado 3706" d="M256.529,198.6c-6.623,3.531-14.686,5.259-24.917,5.468-9.247-26.826-2.183-37.571,3.941-39.519a11.285,11.285,0,0,1,7.849.584,13.65,13.65,0,0,1,6.246,7.086C253.85,182.655,256.177,197.192,256.529,198.6Z" fill="url(#linear-gradient-60)"></path></g></g><g id="Grupo_719" data-name="Grupo 719"><path id="Trazado_3707" data-name="Trazado 3707" d="M434.186,93.681a41.21,41.21,0,0,0-29.505,69.991l-4.873,10.837,9.643-6.634a41.22,41.22,0,1,0,24.735-74.194Z" opacity="0.39" fill="url(#linear-gradient-61)"></path><path id="Trazado_3708" data-name="Trazado 3708" d="M460.5,134.525a8.2,8.2,0,0,0-3.608-6.794,3.149,3.149,0,0,0-1.934-5.221,3.224,3.224,0,0,0,.161-.942,3.169,3.169,0,0,0-3.177-3.166c-.04,0-.08.01-.12.01a5.26,5.26,0,0,0-4.79-3.076,5.084,5.084,0,0,0-2.024.41,3.281,3.281,0,0,0-5.692-1.593,4.058,4.058,0,0,0-7.174-.33,3.7,3.7,0,0,0-6.4,1.943,6.788,6.788,0,0,0-2.355-.43,6.717,6.717,0,0,0-6.113,3.938,2.732,2.732,0,0,0-1.864-.09,2.68,2.68,0,0,0-1.773,1.743,2.749,2.749,0,0,0-.08,1.413,6.733,6.733,0,0,0,2.635,12.916,2.356,2.356,0,0,0-.24,1.022,2.384,2.384,0,0,0,1.763,2.285,16.615,16.615,0,0,0,3.257.551,3,3,0,0,1,2.695,2.646,3.341,3.341,0,0,0,.652,1.523c1.563,2.044,6.453,1.292,8.607,3.437s2.435,2.956,2.716,4.95c.21,1.433-1.012,4.249-1.7,6.183a1.281,1.281,0,1,0,2.465.671,9.5,9.5,0,0,1,2.055-4.359c.411-.461,1.1-.361,2.294-.832a5.571,5.571,0,0,1,3.057-.17,5.388,5.388,0,0,0,2.114-.03,5.315,5.315,0,0,0,4.028-6.163,5.181,5.181,0,0,0,2.235.391,5.317,5.317,0,0,0,3.928-2.2,4.868,4.868,0,0,0,1.012-4.009A8.183,8.183,0,0,0,460.5,134.525Zm-36.866-7.916c-.2-.05-.4-.141-.631-.181s-.451-.07-.691-.11c-.241,0-.491-.03-.732-.01a3.488,3.488,0,0,0-.731.12,3.162,3.162,0,0,0-.722.221,5.819,5.819,0,0,0-.661.33,10,10,0,0,0-1.143.782c-.651.521-1.082.942-1.082.942a4.127,4.127,0,0,1,.612-1.363,5.572,5.572,0,0,1,1.062-1.162,5.857,5.857,0,0,1,.771-.491,6.125,6.125,0,0,1,.752-.281,2.857,2.857,0,0,0-.171-.571,4.608,4.608,0,0,0-.45-.972,3.553,3.553,0,0,0-.832-.9,4.259,4.259,0,0,0-2.235-.821,4.731,4.731,0,0,0-1.132.02,4.688,4.688,0,0,1,1.142-.191,4.568,4.568,0,0,1,2.525.531,4.411,4.411,0,0,1,1.133.912,5.853,5.853,0,0,1,.7,1.052,4.335,4.335,0,0,1,.351.792h.09a4.551,4.551,0,0,1,.912.11,7.479,7.479,0,0,1,.8.291,3.808,3.808,0,0,1,.641.381,4.177,4.177,0,0,1,.822.721c.17.19.27.311.27.311s-.15-.051-.4-.131A9.6,9.6,0,0,0,423.636,126.609Zm7.836,3.767a3.5,3.5,0,0,1-.05.541,3.332,3.332,0,0,1-.11.6,4.98,4.98,0,0,1-.18.631,5.141,5.141,0,0,1-.271.631,6.775,6.775,0,0,1-1.543,2.034c-.11.1-.221.191-.321.271a4.271,4.271,0,0,1,.792,1.6,4.255,4.255,0,0,1,.1,1.714,4.009,4.009,0,0,1-.371,1.122c-.14.251-.23.381-.23.381s.01-.16.03-.431a7.076,7.076,0,0,0-.03-1.092,5.3,5.3,0,0,0-.391-1.393,4.319,4.319,0,0,0-.371-.712,4.259,4.259,0,0,0-.481-.661c-.19-.18-.38-.4-.591-.571a7.278,7.278,0,0,0-.641-.491,6.543,6.543,0,0,0-1.3-.651,6.762,6.762,0,0,0-1.473-.351,3.1,3.1,0,0,1,1.593-.291,4.237,4.237,0,0,1,1.664.431,4.567,4.567,0,0,1,.992.672c.13-.071.281-.161.461-.281a5.921,5.921,0,0,0,1.643-1.583,3.686,3.686,0,0,0,.331-.531c.11-.181.18-.371.27-.552s.121-.38.191-.551a3.694,3.694,0,0,0,.12-.511,4.946,4.946,0,0,0,.11-.781c.02-.191.03-.3.03-.3s.01.11.02.3A5.044,5.044,0,0,1,431.472,130.376Zm-.16-8.988a1.2,1.2,0,0,1-.19,0c.03.15.05.3.08.441.03.351,0,.7,0,1.032-.05.331-.12.651-.181.942a6.685,6.685,0,0,1-.28.792,4.812,4.812,0,0,1-.591,1.092c-.171.25-.271.381-.271.381s.02-.171.07-.461c.03-.3.161-.692.181-1.173.02-.24.07-.5.09-.761,0-.271,0-.551.02-.842-.03-.281-.06-.571-.09-.872a8.391,8.391,0,0,0-.211-.862,4,4,0,0,0-.33-.831,7.143,7.143,0,0,0-.411-.762c-.181-.23-.321-.481-.5-.681a7.071,7.071,0,0,0-.5-.571A12.191,12.191,0,0,0,427,117.119a4.428,4.428,0,0,1,1.593.642,5.646,5.646,0,0,1,1.363,1.162,5.063,5.063,0,0,1,.591.852,4.189,4.189,0,0,1,.271.581,3.73,3.73,0,0,0,.531.11,4.142,4.142,0,0,0,1.884-.12,3.822,3.822,0,0,0,1.583-.942c-.14-.11-.27-.211-.391-.311a4.112,4.112,0,0,1-.631-.691,3.622,3.622,0,0,1-.661-1.513,3.025,3.025,0,0,1,0-1.133,2.608,2.608,0,0,1,.12-.4s.03.14.1.39a5.485,5.485,0,0,0,.371.952,4.83,4.83,0,0,0,.812,1.083c.17.18.37.33.561.5.1.08.21.15.3.21a2.378,2.378,0,0,0,.361.2,3.879,3.879,0,0,0,.7.36,7.047,7.047,0,0,0,.721.271c.24.06.471.12.7.16s.451.07.662.09a6.832,6.832,0,0,0,1.443-.04,3.192,3.192,0,0,1-1.393.662,4.456,4.456,0,0,1-1.613.07,6.2,6.2,0,0,1-.9-.221,6.556,6.556,0,0,1-.862-.391,1.762,1.762,0,0,1-.23-.14,4.3,4.3,0,0,1-1.544,1.333A4.866,4.866,0,0,1,431.312,121.388ZM448,142.361c-.26.03-.631.01-1.072.09-.21.03-.441.05-.681.09-.241.06-.481.111-.742.161-.24.08-.481.17-.741.26a4.651,4.651,0,0,0-.7.361,6.139,6.139,0,0,0-1.242.972c-.161.2-.351.371-.491.571s-.291.371-.411.551a11.846,11.846,0,0,0-.772,1.273,3.942,3.942,0,0,1,.211-1.543,4.927,4.927,0,0,1,.721-1.463,5.138,5.138,0,0,1,.631-.712c.111-.1.241-.17.361-.26a3.351,3.351,0,0,1-.2-.271,4.964,4.964,0,0,1-.832-1.994,3.652,3.652,0,0,1-.01-1.142,2.6,2.6,0,0,1,.11-.5,2.315,2.315,0,0,1,.161-.431,4.047,4.047,0,0,1,.44-.772,5.125,5.125,0,0,0-.28.832,3.132,3.132,0,0,0-.08.892,3.12,3.12,0,0,0,.19.992,4.224,4.224,0,0,0,1.012,1.533,4.11,4.11,0,0,0,.351.311c.16-.061.32-.121.471-.191a7.66,7.66,0,0,1,.922-.22c.3-.02.591-.02.872-.03.27.01.531.07.761.1a4.573,4.573,0,0,1,1.082.32c.251.1.391.171.391.171S448.267,142.331,448,142.361Zm.722-10.722a4.438,4.438,0,0,1-3.127-1.052,5.066,5.066,0,0,1-1.353-2.245,5.845,5.845,0,0,1-.16-.631,5.9,5.9,0,0,1-.942.12,5.526,5.526,0,0,1-1.062-.07c-.06.14-.13.311-.21.5a4.65,4.65,0,0,1-.351.641,4.333,4.333,0,0,1-.491.712,4.4,4.4,0,0,1-.662.711c-.17.141-.35.281-.53.421a4.041,4.041,0,0,1,.36.411,4.367,4.367,0,0,1,.882,2.074,4.224,4.224,0,0,1-.03,1.183,5.175,5.175,0,0,1-.291.962,4.567,4.567,0,0,1-.3.621q-.09.165-.12.21c.01-.03.04-.11.08-.23a5.126,5.126,0,0,0,.18-.651,4.516,4.516,0,0,0,.11-.942,3.661,3.661,0,0,0-.17-1.033,3.525,3.525,0,0,0-1.022-1.573,4.4,4.4,0,0,0-.491-.371,1.375,1.375,0,0,0-.181-.1l.02-.03c-.09.04-.18.08-.27.111a5.979,5.979,0,0,1-1,.28,6.819,6.819,0,0,1-.992.1,8.47,8.47,0,0,1-1.734-.11,8.65,8.65,0,0,1-1.593-.421,8.546,8.546,0,0,0,1.613.251,8.137,8.137,0,0,0,1.684-.06c.31-.03.611-.131.922-.191a5.99,5.99,0,0,0,.891-.351,3.954,3.954,0,0,0,.792-.491,3.858,3.858,0,0,0,.671-.611,3.5,3.5,0,0,0,.5-.661,3.6,3.6,0,0,0,.36-.662,4.129,4.129,0,0,0,.251-.591c.04-.16.09-.3.12-.421a1.8,1.8,0,0,1-.281-.13,3.4,3.4,0,0,1-.952-.711,3.944,3.944,0,0,1-.992-1.774,4.45,4.45,0,0,1-.15-1.383,2.744,2.744,0,0,1,.07-.511,7.769,7.769,0,0,0,.672,1.654,4.6,4.6,0,0,0,1.072,1.292,3.5,3.5,0,0,0,.761.491,2.393,2.393,0,0,0,.441.171.74.74,0,0,0,.211.07,1.486,1.486,0,0,0,.25.06,4.8,4.8,0,0,0,.952.1,5.2,5.2,0,0,0,.972-.04,5.7,5.7,0,0,0,1.674-.411,4.9,4.9,0,0,0,1.072-.661c.24-.211.371-.341.371-.341a4.08,4.08,0,0,1-.211.481,3.333,3.333,0,0,1-.341.491,3.062,3.062,0,0,1-.581.551,3.57,3.57,0,0,1-.811.491c-.061.03-.131.05-.191.08a4.481,4.481,0,0,0,.06.722,4.3,4.3,0,0,0,.852,2.064,3.674,3.674,0,0,0,1.944,1.233,3.728,3.728,0,0,0,.782.15c.19.03.3.05.3.05Zm1.092-10.4c-.05-.1-.1-.181-.15-.271-.071-.11-.131-.19-.191-.28a4.716,4.716,0,0,0-.411-.521c-.15-.151-.29-.311-.44-.451s-.321-.261-.472-.371-.32-.211-.471-.3a6.046,6.046,0,0,0-1.092-.491,2.568,2.568,0,0,1,1.273,0,3.546,3.546,0,0,1,1.242.531,4.451,4.451,0,0,1,.6.481,5.937,5.937,0,0,1,.511.6,3.488,3.488,0,0,1,.21.33c.07.13.13.251.18.371a3.475,3.475,0,0,1,.231.741,2.975,2.975,0,0,1-.04,1.373,2.317,2.317,0,0,1-.411.852,1.423,1.423,0,0,1-.23.26s.03-.12.07-.33a4.126,4.126,0,0,0,.05-.842,3.79,3.79,0,0,0-.211-1.1A5.876,5.876,0,0,0,449.81,121.238Zm3.848,7.265a7.34,7.34,0,0,0-.872.651,5.555,5.555,0,0,0-.922,1.122,5.394,5.394,0,0,0-.361.712,4.112,4.112,0,0,0-.26.771,7.4,7.4,0,0,0-.13.822,5.283,5.283,0,0,0-.031.8,6.208,6.208,0,0,0,.211,1.433,6.519,6.519,0,0,0,.561,1.413,3.166,3.166,0,0,1-1.152-1.142,4.065,4.065,0,0,1-.6-1.6,4.758,4.758,0,0,1,.091-1.984,4.645,4.645,0,0,1,.37-.962,4.777,4.777,0,0,1,.552-.812,4.173,4.173,0,0,1,1.342-1.072,3.709,3.709,0,0,1,1.133-.341c.28-.03.441-.03.441-.03S453.9,128.362,453.658,128.5Z" fill="#fdfeff"></path><g id="Grupo_718" data-name="Grupo 718"><circle id="Elipse_5" data-name="Elipse 5" cx="9.154" cy="9.154" r="9.154" transform="translate(390.765 104.333) rotate(-22.633)" fill="url(#linear-gradient-62)"></circle><path id="Trazado_3709" data-name="Trazado 3709" d="M403.9,110.625h-2.331L401,103.415h3.482Z" fill="#fdfeff"></path><path id="Trazado_3710" data-name="Trazado 3710" d="M404.393,113.166a1.656,1.656,0,1,1-1.656-1.656A1.656,1.656,0,0,1,404.393,113.166Z" fill="#fdfeff"></path></g></g><path id="Trazado_3711" data-name="Trazado 3711" d="M518.572,457.835H81.785a1.351,1.351,0,0,1-1.351-1.352h0a1.351,1.351,0,0,1,1.351-1.351H518.572a1.351,1.351,0,0,1,1.352,1.351h0A1.352,1.352,0,0,1,518.572,457.835Z" fill="url(#linear-gradient-63)"></path></g></g></svg>