<svg xmlns="http://www.w3.org/2000/svg" width="844.964" height="390.688" viewBox="0 0 844.964 390.688"><g id="Grupo_1020" data-name="Grupo 1020" transform="translate(0 0.003)"><path id="Trazado_4164" data-name="Trazado 4164" d="M-1444.434,3153.621c-15.6,0-47.581,1.108-47.919,1.611h-80.621l-23.59-.049h-211.286l-61.7-.053h-162.664l-67.94-.049h-122.874l-.611-1.213-.07-.1a.443.443,0,0,1-.067-.151c-.271-.4-102.242-160.95,66.116-240.094,65.872-30.966,31.161-92.8,128.656-130.255,125.707-48.294,159.962,21.877,308.609,4.912,129.1-14.734,187.92,32.193,178.866,101.983-4.255,32.783,24.963,57.909,53.785,62.417,79.516,12.433,76.665,85.265,70.165,138.777C-1421.583,3124.345-1443.873,3153.621-1444.434,3153.621Z" transform="translate(2259.581 -2766.01)" fill="#ebf3fa"></path><path id="Trazado_4165" data-name="Trazado 4165" d="M-1146.084,3657.419a5.4,5.4,0,0,0-2.551-1.626c-1.533-.387-4.843-2-4.456-1.164s2.231,1.847,1.922,2.461c0,0-5.258-1.454-5.413-.538s1.853,4.453,4.1,5.209c.745.25,5.927-.744,5.927-.744Z" transform="translate(1480.898 -3396.018)" fill="#f2a16b"></path><path id="Trazado_4166" data-name="Trazado 4166" d="M-558.764,3711.16a6.159,6.159,0,0,0-4.816-1.891c-1.408.18-3.444-2.036-3.339-.582s2.138,4.761,2.83,5.331c1.361,1.12,4.363.75,4.363.75l3.67,2.263Z" transform="translate(1062.731 -3434.169)" fill="#ffb27d"></path><path id="Trazado_4167" data-name="Trazado 4167" d="M-2083.675,3508.2s-15.191,15.746-15.906,21.673,7.271,15.182,7.271,15.182Z" transform="translate(2149.663 -3292.344)" fill="#ed7d2b"></path><path id="Trazado_4168" data-name="Trazado 4168" d="M-2021.18,4062.791s.535,8.353,2.152,8.469c.215.014,8.2,0,8.2,0l10.179-.082a3.305,3.305,0,0,0-3.051-2.966c-2.978-.512-7.972-2.594-9.784-6.53C-2015.384,4057.543-2021.18,4062.791-2021.18,4062.791Z" transform="translate(2094.032 -3683.724)" fill="#2358a5"></path><path id="Trazado_4169" data-name="Trazado 4169" d="M-2099.23,4062.96s.538,8.353,2.152,8.469c.215.015,8.2,0,8.2,0l10.179-.082a3.305,3.305,0,0,0-3.051-2.966c-2.978-.512-7.972-2.594-9.784-6.529C-2093.431,4057.714-2099.23,4062.96-2099.23,4062.96Z" transform="translate(2149.382 -3683.845)" fill="#2358a5"></path><path id="Trazado_4170" data-name="Trazado 4170" d="M-2066.817,3729.57s-2.618,17.052-12.506,47.334-11.2,43.387-11.2,43.387l-10.665-.276s-.163-33.068,4.386-48.3.873-54.858.873-54.858Z" transform="translate(2150.774 -3440.317)" fill="#163560"></path><path id="Trazado_4171" data-name="Trazado 4171" d="M-2040.653,3719.82a413.594,413.594,0,0,1-3.944,57.234c-4.377,31.55-2.841,44.935-2.841,44.935l-10.642.375s-6.431-31.536-4.654-47.325-8.827-54.151-8.827-54.151Z" transform="translate(2129.76 -3442.417)" fill="#1c468a"></path><path id="Trazado_4172" data-name="Trazado 4172" d="M-2036.59,3482.314l5.677,3.705,8.2-1.547c-.116-.66-.663-3.4-1.163-5.884-.032-.148-.061-.291-.09-.436-.425-2.111-.794-3.926-.794-3.926l-7.664-3.362-2.856-1.254c0,.044.227,2.344.256,2.682A19.5,19.5,0,0,1-2036.59,3482.314Z" transform="translate(2104.96 -3264.978)" fill="#ffb27d"></path><path id="Trazado_4173" data-name="Trazado 4173" d="M-2026.875,3500.431c-.16-.067-9.888-2.908-10.933-2.562s-1.672,2.394-1.672,2.394l15.892,3.557A7.89,7.89,0,0,0-2026.875,3500.431Z" transform="translate(2107.01 -3284.997)" fill="#ed7d2b"></path><path id="Trazado_4174" data-name="Trazado 4174" d="M-2086.6,3571.364c1.664,7.507,29.061,8.335,36.108,1.507.8-.78.832-4.395.518-9.269-.611-9.519-2.545-23.849-2.635-31.158a57.9,57.9,0,0,0-1.192-10.43,84.594,84.594,0,0,0-3.49-12.477s-13.379-4.3-15.892-3.557C-2085.249,3509.546-2088.262,3563.852-2086.6,3571.364Z" transform="translate(2140.724 -3290.709)" fill="#f99746"></path><path id="Trazado_4175" data-name="Trazado 4175" d="M-1992.328,3599.462c-.611-9.519-2.545-23.849-2.635-31.158a57.913,57.913,0,0,0-1.193-10.429l-8.053-1.4S-2012.009,3588.634-1992.328,3599.462Z" transform="translate(2083.078 -3326.575)" fill="#ed7d2b"></path><path id="Trazado_4176" data-name="Trazado 4176" d="M-1984.862,3655.65a1.891,1.891,0,0,0,.608,2.19,3.648,3.648,0,0,1,1.643,3.347c-.262,1.044-2.786,2.749-3.662,2.475s-2.664-1.64-2.472-2.19-1.21-4.825.922-6.474S-1984.862,3655.65-1984.862,3655.65Z" transform="translate(2071.227 -3396.026)" fill="#ffb27d"></path><path id="Trazado_4177" data-name="Trazado 4177" d="M-2008.159,3511.82s7.853,1.454,14.129,10.656,10.406,16.049,9.26,19.373-11.634,14.871-13.434,14.874-4.735-1.306-4.906-4.27c0,0,6.919-11.517,5.456-13.172-.622-.71-9.164-7.562-10.438-4.264C-2010.195,3540.468-2008.159,3511.82-2008.159,3511.82Z" transform="translate(2085.426 -3294.911)" fill="#f99746"></path><path id="Trazado_4178" data-name="Trazado 4178" d="M-2029.77,3475.451c1.687,2.844,7.958,5.29,10.572,6.192-.032-.148-.061-.291-.09-.436-.425-2.112-.794-3.927-.794-3.927l-7.664-3.362C-2029.438,3473.9-2030.468,3474.279-2029.77,3475.451Z" transform="translate(2100.281 -3268.032)" fill="#fca56b"></path><path id="Trazado_4179" data-name="Trazado 4179" d="M-2028.011,3434.4s-12.323,3.874-14.618-3.836-5.43-12.4,2.327-15.205,10.179-.314,11.573,2.073S-2024.864,3433.191-2028.011,3434.4Z" transform="translate(2111.095 -3225.621)" fill="#ffb27d"></path><path id="Trazado_4180" data-name="Trazado 4180" d="M-2042.155,3406.437s-.765,8.981-2.618,8.594-3.542-.669-3.266,2.036,2.859,5.817-2.862,6.317-13.981-14.251-12.413-17.046C-2058.8,3398.253-2035.62,3396.575-2042.155,3406.437Z" transform="translate(2124.05 -3215.361)" fill="#163560"></path><path id="Trazado_4181" data-name="Trazado 4181" d="M207.234,3605.043s-1.053-1.745-1.7-2.693-1.922-2.155-2.248-1.847.983,1.576.922,2-2.254-1-2.492-1.321c-.474-.643-1.745-1.335-1.885-.526a10.74,10.74,0,0,0,1.2,4.072,8.132,8.132,0,0,0,3.173,2.234c.977.349,2.661,1.163,2.661,1.163Z" transform="translate(518.986 -3357.652)" fill="#ffb27d"></path><path id="Trazado_4182" data-name="Trazado 4182" d="M305.715,3418.031a8.542,8.542,0,0,0-6.753-.724c-11.474-1.347-14.818,12.032-14.664,16.636s.681,9.548-4.441,15.528c-14.8,17.276,16.194,18.032,16.194,18.032.262-13.8,16.808-8.766,16.083-7.367C333.342,3465.229,314.242,3422.455,305.715,3418.031Z" transform="translate(465.067 -3227.618)" fill="#163560"></path><path id="Trazado_4183" data-name="Trazado 4183" d="M252.527,3562.147a30.145,30.145,0,0,1-3.086,4.653c-2.4,3-6.093,6.474-10.735,7.158a11.534,11.534,0,0,1-6.375-1.036h0c-5.636-2.5-9.889-8.254-9.889-8.254a4.636,4.636,0,0,1,.631-4.549s11.383,2.56,12.465,2.019,7.408-18.759,8.914-21.048,6.637-3.49,6.637-3.49Z" transform="translate(503.178 -3313.194)" fill="#f99746"></path><path id="Trazado_4184" data-name="Trazado 4184" d="M274.36,3623.291c-2.4,3-6.093,6.474-10.735,7.157a11.536,11.536,0,0,1-6.375-1.035c.218.029,5.849.724,8.091-3.29,2.289-4.1,4.764-10.6,8.167-8.434C274.974,3618.638,274.918,3620.964,274.36,3623.291Z" transform="translate(478.259 -3369.685)" fill="#ed7d2b"></path><path id="Trazado_4185" data-name="Trazado 4185" d="M442.01,4040.75s3.476,3.17,2.8,5.421-3.813,3.755-4.237,6.506-2.117,4.255-3.641,4.255h-7.271s-1.123-1.937,1.588-2.521,3.731-3.819,3.563-6.82a53.162,53.162,0,0,1,.253-7.006l5.762-1.335Z" transform="translate(356.158 -3668.944)" fill="#2358a5"></path><path id="Trazado_4186" data-name="Trazado 4186" d="M323.376,4049s1.251,13.425-.273,14.176l-19.512-.038s0-2.254,3.132-2.754,8.641-2.327,9.572-6.422S323.376,4049,323.376,4049Z" transform="translate(445.397 -3675.858)" fill="#2358a5"></path><path id="Trazado_4187" data-name="Trazado 4187" d="M339.4,3559.439c-4.016-9.016-6.474-11.59-6.006-14.385.349-2.079-1.062-38.786-1.062-38.786-.477-.146-1.431-.291-1.954-.4a4.9,4.9,0,0,1-3.577-3.112,24.924,24.924,0,0,1-1.213-8.28l-.515.1-8.65,1.71s.2,2.722.2,5.288v.064a4.982,4.982,0,0,1-3.592,4.81l-2.036.582a79.233,79.233,0,0,0-3.781,18.381c-.6,9.315,5.776,13.361-.047,31.975C301.215,3576.4,341.612,3564.415,339.4,3559.439Z" transform="translate(443.284 -3282.615)" fill="#ffb27d"></path><path id="Trazado_4188" data-name="Trazado 4188" d="M340.44,3496.54s.2,2.722.2,5.288c4.84-.137,7.4-4.552,8.434-7Z" transform="translate(419.264 -3282.863)" fill="#e8945b"></path><path id="Trazado_4189" data-name="Trazado 4189" d="M325.609,3461.956s11.45.189,11.459-6.942,1.492-11.925-5.817-12.334-8.725,2.3-9.307,4.677S322.631,3461.723,325.609,3461.956Z" transform="translate(432.478 -3245.85)" fill="#ffb27d"></path><path id="Trazado_4190" data-name="Trazado 4190" d="M336.34,3438.641s3.135,8.367,7.946,9.6,6.9-.052,6.9-.052a13.619,13.619,0,0,1-4.456-8.047S338.7,3434.656,336.34,3438.641Z" transform="translate(422.172 -3241.986)" fill="#163560"></path><path id="Trazado_4191" data-name="Trazado 4191" d="M324.863,3441.187a7.114,7.114,0,0,0-3.281,2.565,11.514,11.514,0,0,0-1.547,6.55s-2.365-5.689.291-8.906C323.145,3437.984,324.863,3441.187,324.863,3441.187Z" transform="translate(434.422 -3243.854)" fill="#163560"></path><path id="Trazado_4192" data-name="Trazado 4192" d="M333.366,3492.877a2.885,2.885,0,0,1-2.37.966,2.108,2.108,0,0,1-1.765-1.164A7.688,7.688,0,0,1,333.366,3492.877Z" transform="translate(427.214 -3281.195)" fill="#ebf3fa"></path><path id="Trazado_4193" data-name="Trazado 4193" d="M337.275,3551.233a77.707,77.707,0,0,1,0,9.016c-.195,3.26-3.49,7.629-3.961,8.725-1.163,2.708-2.5,3.15-2.5,3.15l-10.246,2.51-3.6.873-11.36-3.394s-5.174-14.434-3.1-22.578a62.39,62.39,0,0,1,5.253-13.774s9.269,9.074,21.339-.771Z" transform="translate(446.51 -3311.343)" fill="#f99746"></path><path id="Trazado_4194" data-name="Trazado 4194" d="M368.654,3618.388c-.192,3.26-.492,6.3-.96,7.378-1.163,2.708-2.5,3.15-2.5,3.15l-10.246,2.51-4.45-1.306s14.856-2.251,13.21-15.031Z" transform="translate(412.13 -3368.146)" fill="#f2ccaa"></path><path id="Trazado_4195" data-name="Trazado 4195" d="M302.225,3670.17s-5.625,17.509-5.985,23.471,10.761,84.7,11.2,87.441c.422,2.588,3.635,4.24,3.635,4.24a4.871,4.871,0,0,0,3.592.291c2.926-.826,3.854-1.818,3.854-1.818s4.377-56.149,1.669-76.2a317.564,317.564,0,0,1-2.743-37.4Z" transform="translate(450.616 -3407.207)" fill="#163560"></path><path id="Trazado_4196" data-name="Trazado 4196" d="M345.193,3668.37s8.583,11.514,9.382,19.3,1.256,35.125,2.961,42.712,7.966,22.191,7.966,45.857a4.731,4.731,0,0,1-2.661,2.079,22.319,22.319,0,0,1-2.341.646,3.677,3.677,0,0,1-4.112-1.952c-4.235-8.524-17.721-36.018-18.413-41.724-.489-4.04-4.746-30.768-14.033-46.453-2.231-3.766,1.367-18.739,1.367-18.739Z" transform="translate(431.481 -3405.93)" fill="#1c468a"></path><path id="Trazado_4197" data-name="Trazado 4197" d="M332.838,3493.192s-.2.841-2.289.713c0,0-1.745-.108-1.7-1.032A5.652,5.652,0,0,1,332.838,3493.192Z" transform="translate(427.485 -3281.321)" fill="#fff"></path><path id="Trazado_4198" data-name="Trazado 4198" d="M312.972,3660.87s2.26,1.786,6.745,1.879c5.36.108,18.64-1.367,18.64-1.367a10.94,10.94,0,0,1,.564,3.388s-16.217,4.092-25.614.6A5.944,5.944,0,0,1,312.972,3660.87Z" transform="translate(438.97 -3400.612)" fill="#233862"></path><path id="Trazado_4199" data-name="Trazado 4199" d="M326.556,3669.7a2.788,2.788,0,1,1,2.446-2.766A2.624,2.624,0,0,1,326.556,3669.7Zm0-4.723a1.982,1.982,0,1,1,0,.012Z" transform="translate(430.845 -3402.952)" fill="#fff"></path><rect id="Rect&#xE1;ngulo_2841" data-name="Rect&#xE1;ngulo 2841" width="22.031" height="30.16" transform="translate(758.395 255.125) rotate(-41.05)" fill="#afcdfb"></rect><path id="Trazado_4200" data-name="Trazado 4200" d="M372.432,3672s-6.46.992-6.442,2.437,1.338,4.072,2.644,4.264c1.658.265,4.944-4.013,4.944-4.013Z" transform="translate(401.145 -3408.505)" fill="#ffb27d"></path><path id="Trazado_4201" data-name="Trazado 4201" d="M371.82,3671.8a8.421,8.421,0,0,0-3.752-.462c-1.588.329-3.054.084-2.693.663s2.51.361,2.85.582.346.084.346.084Z" transform="translate(401.62 -3407.977)" fill="#ffb27d"></path><path id="Trazado_4202" data-name="Trazado 4202" d="M386.144,3535s8.129.582,11.244,8.144,9.016,20.292,9.016,22.43-3.3,8.725-21.036,12.526c0,0-1.835-1.928-1.725-3.455,0,0,11.072-9.508,11.052-10.619-.058-2.1-1.818-4.877-11.535-14.6C380.519,3546.785,386.144,3535,386.144,3535Z" transform="translate(389.469 -3311.35)" fill="#f99746"></path><path id="Trazado_4203" data-name="Trazado 4203" d="M-1750.816,3534.191a72.237,72.237,0,0,1-12.745-1.128,70.741,70.741,0,0,1-11.226-2.981,91.037,91.037,0,0,1-17.032.018c-17.45-1.626-33.473-6.849-46.77-14.993a36.861,36.861,0,0,1-9.775.768c-8.143-.422-15.868-3.49-22.938-9.115-6.718-5.349-12.521-12.73-17.247-21.941-8.286-16.147-12.384-36.439-11.543-57.138a127.472,127.472,0,0,1,19.853-63.74c9.49-14.775,19.975-26.251,31.166-34.1a72.527,72.527,0,0,1,31.2-12.707,73.184,73.184,0,0,1,9.121-.768,103.739,103.739,0,0,1,32.222-12.384,76.622,76.622,0,0,1,55.457,9.289c22.086,13.21,39.76,37.809,52.526,73.073q1.1,3.027,2.036,6.038c2.929,1.515,6.09,3.22,9.621,5.122l.233.125c11.031,5.945,28.246,10.7,46.046,12.724,14.833,1.684,36.881,2.274,57.612-4.5,19.373-6.332,33.06-17.645,40.683-33.633l1.669.794c-7.853,16.462-21.906,28.1-41.779,34.6-21.045,6.875-43.373,6.285-58.395,4.578-18.032-2.05-35.482-6.884-46.715-12.937l-.23-.122c-2.908-1.568-5.549-2.99-8-4.278,5.13,17.709,6.125,35.011,2.946,51.554a90.9,90.9,0,0,1-21.522,43.943,79.981,79.981,0,0,1-10.13,9.447c-.247.544-.5,1.085-.759,1.62a13.272,13.272,0,0,1,1.89,6.765c-.218,3.31-3.976,6.218-11.168,8.646q-.89.291-1.835.582a52.683,52.683,0,0,1-21.231,13.027,73.953,73.953,0,0,1-23.232,3.76Zm-19.585-4.63a68.851,68.851,0,0,0,7.166,1.684,71.644,71.644,0,0,0,35.064-2.557,51.448,51.448,0,0,0,18.032-10.232c-9.714,2.428-22.808,4.016-36.916,4.557-.55.239-1.108.471-1.667.7A92.346,92.346,0,0,1-1770.4,3529.561Zm-65.669-15.1a107.719,107.719,0,0,0,44.423,13.8,89.235,89.235,0,0,0,12.87.262,68.191,68.191,0,0,1-13.239-7.486,151.568,151.568,0,0,1-18.143-3.548,69.215,69.215,0,0,1-17.3-6.814A37.368,37.368,0,0,1-1836.07,3514.463Zm48.073,7.085a66.8,66.8,0,0,0,13.443,6.655,90.765,90.765,0,0,0,22.1-5.031c-6.89.131-13.943.017-20.9-.37C-1778.417,3522.522-1783.321,3522.106-1788,3521.548Zm-3.289-2.269c5.6.759,11.634,1.323,18.032,1.678,8.617.477,17.378.538,25.774.227a86.185,86.185,0,0,0,14.469-7.984,40.551,40.551,0,0,1-7.236-1.128c-5.526-1.39-10.08-4.691-13.8-10.13a105.422,105.422,0,0,1-17.671-1c-14.335-2-26.077-6.355-35.1-12.989-1.492,2.618-2.981,4.944-4.432,7.009a63.111,63.111,0,0,0,17.16,22.13Q-1792.721,3518.221-1791.287,3519.279Zm61.344-5.988a86.761,86.761,0,0,1-12.666,7.669c13.873-.765,26.437-2.562,35.282-5.183a52.537,52.537,0,0,0,4.866-5.793,60.237,60.237,0,0,0,4.8-7.853,66.611,66.611,0,0,1-13.748,7.419,51.335,51.335,0,0,1-18.529,3.74Zm-95.73-3.74c7.175,4.022,17.657,7.158,30.675,9.19l-.273-.227a64.882,64.882,0,0,1-17.209-21.851,63.47,63.47,0,0,1-5.526,6.495A48.369,48.369,0,0,1-1825.673,3509.551Zm129.389-6.076a59.909,59.909,0,0,1-7.489,11.13c5.4-2,8.434-4.3,8.58-6.547A9.849,9.849,0,0,0-1696.284,3503.475Zm-115.594-185.163c-2.018.148-3.915.375-5.729.643a70.808,70.808,0,0,0-30.407,12.393c-10.991,7.716-21.31,19.015-30.672,33.589a125.652,125.652,0,0,0-19.562,62.821c-.826,20.385,3.2,40.351,11.343,56.219,4.607,8.978,10.243,16.156,16.755,21.342a38.016,38.016,0,0,0,21.88,8.725,35.389,35.389,0,0,0,7.387-.375,82.139,82.139,0,0,1-21.231-19.8,73.946,73.946,0,0,1-7.338-12.233,40.761,40.761,0,0,1-15.385-14.62c-5.491-8.8-8.385-20.033-8.37-32.5a81.488,81.488,0,0,1,1.582-15.705c-.582-15.01,5.616-32.388,17.474-49.038,11.369-15.967,26.216-28.776,40.735-35.142q2.434-1.07,4.8-1.87a77,77,0,0,1,6.739-6.806A84.093,84.093,0,0,1-1811.878,3318.313Zm-54.841,164.65a72.153,72.153,0,0,0,6.108,9.792,80.663,80.663,0,0,0,22.354,20.379,35.186,35.186,0,0,0,9.045-3.574,26.746,26.746,0,0,1-5.29-4.549,128.685,128.685,0,0,1-13.067-17.773,64.669,64.669,0,0,1-9.121-1.131,46.7,46.7,0,0,1-10.028-3.144Zm114.881,18.9a21.186,21.186,0,0,0,12.038,8.435,39.363,39.363,0,0,0,9.246,1.163,77.034,77.034,0,0,0,14.115-13.486,69.965,69.965,0,0,0,5.724-8.222,89.182,89.182,0,0,1-41.116,12.1Zm43.981-13.4A71.664,71.664,0,0,1-1715,3499.13a78.285,78.285,0,0,1-12.381,12.215,50.914,50.914,0,0,0,15.3-3.49,65.257,65.257,0,0,0,14-7.664,64.879,64.879,0,0,0-7.466-9.344q-1.105-1.193-2.3-2.4Zm-137.526-1.128a127.2,127.2,0,0,0,12.256,16.473,25.628,25.628,0,0,0,5.674,4.7,45.932,45.932,0,0,0,8.114-6.634,62.629,62.629,0,0,0,5.965-7.1q-.841-1.871-1.576-3.813-.768-2.021-1.408-4.1-1-.212-1.978-.486a32.169,32.169,0,0,1-4.8-1.765,82.978,82.978,0,0,1-22.243,2.713Zm41.008.108c8.589,5.91,19.591,9.822,32.9,11.683a104.109,104.109,0,0,0,16.252,1.009,61.893,61.893,0,0,1-6.093-14.833q-.323-1.135-.628-2.3-3.682-.506-7.355-1.28a72.657,72.657,0,0,1-9.054-2.507,95.047,95.047,0,0,1-17.29,6.628,57.039,57.039,0,0,1-8.711,1.591Zm44.405-4.194q.209.779.428,1.544a57.6,57.6,0,0,0,6.457,15.281,86.983,86.983,0,0,0,43.574-13.239c-2.5-2.44-5.235-4.918-8.161-7.4q-4.022,1.219-8.077,2.114a102.18,102.18,0,0,1-34.208,1.687Zm53.378,3.88q1.23,1.239,2.37,2.458a68.306,68.306,0,0,1,7.605,9.516l.622-.474a90.11,90.11,0,0,0,5.86-18.9q.872-4.27,1.44-8.891a83.6,83.6,0,0,1-9.243,9.6,83.684,83.684,0,0,1-8.638,6.686Zm20.068-19.062q-.663,6.311-1.806,12.021a94.975,94.975,0,0,1-4.653,16.078,79.131,79.131,0,0,0,7.221-7.041,89.122,89.122,0,0,0,20.94-42.288,128.373,128.373,0,0,1-17.331,14.833q-2,3.278-4.345,6.386Zm-127.8,19.172q.506,1.547,1.079,3.065.518,1.37,1.091,2.7,1.661-2.428,3.365-5.351a37.353,37.353,0,0,1-5.508-.431Zm-.608-1.972a35.164,35.164,0,0,0,5.325.524,51.991,51.991,0,0,1-4.249-4.011q-.916.323-1.847.634.381,1.428.8,2.841Zm13.7-8.725c-1.422,3.356-2.885,6.4-4.363,9.135a53.048,53.048,0,0,0,9.455-1.635,90.224,90.224,0,0,0,15.348-5.735,55.106,55.106,0,0,1-11.692-6.282c-2.728,1.533-5.657,3.054-8.722,4.511Zm-45.321,8.906a78.479,78.479,0,0,0,20.9-2.132,39.188,39.188,0,0,1-12.343-11.552,67.914,67.914,0,0,1-5.2-8.591,103.709,103.709,0,0,1-12.6-3.144l-.89-.291c1.361,7.925,4.842,16.744,10.162,25.7Zm130.942-6.672c2.574,2.216,5,4.427,7.245,6.608a65,65,0,0,0,4.307-11.075,115.109,115.109,0,0,1-11.526,4.464Zm-152.458,1.5a43.715,43.715,0,0,0,11.721,4.02,62.55,62.55,0,0,0,7.62,1.023,98.469,98.469,0,0,1-4.863-9.519,65.394,65.394,0,0,1-5.055-16.744,62.637,62.637,0,0,1-16.11-8.347,73.629,73.629,0,0,0,6.713,29.561Zm56.112.806a50.169,50.169,0,0,0,4.54,4.107c1.233-2.28,2.46-4.767,3.67-7.483-2.626,1.189-5.369,2.327-8.184,3.371Zm-8.306,2.734a30.7,30.7,0,0,0,3.284,1.009q-.256-.919-.489-1.85-1.361.448-2.769.835Zm118.4-10.525a66.713,66.713,0,0,1-3.941,11.02,82.406,82.406,0,0,0,6.625-5.279,81.917,81.917,0,0,0,10.863-11.68q.084-.814.157-1.643c-1.271.809-2.583,1.614-3.935,2.405q-4.8,2.829-9.743,5.171Zm-139.053-9.731a66.829,66.829,0,0,0,4.421,7.131,36.092,36.092,0,0,0,13.507,11.962q2.574-.672,5.093-1.472-.631-2.844-1.053-5.773l-.317-.477a53.582,53.582,0,0,1-5.235-10.3,88.429,88.429,0,0,1-16.389-1.082Zm80.429,17.761a100.509,100.509,0,0,0,34.319-1.582q3.4-.75,6.78-1.745a229.174,229.174,0,0,0-25.745-18.419c-2.036,1.254-4.145,2.6-6.352,4-3.531,2.24-7.3,4.63-11.232,7,.672,3.758,1.411,7.352,2.257,10.738Zm-15.548-3.283a72.572,72.572,0,0,0,7.1,1.861q3.237.68,6.486,1.163c-.733-3.007-1.384-6.169-1.975-9.458-3.729,2.222-7.62,4.412-11.581,6.427Zm-40.488.672c.122.634.253,1.268.393,1.9l.928-.317q-.651-.782-1.294-1.585Zm-.654-3.982a47.432,47.432,0,0,0,3.854,4.895c3.691-1.344,7.256-2.85,10.662-4.447q1.745-4.171,3.385-9.016-.582-.6-1.126-1.219a44.881,44.881,0,0,1-3.007-3.752q-1.3.393-2.6.742a79.873,79.873,0,0,1-11.9,2.24,80.363,80.363,0,0,0,.756,10.552Zm-73.667-49a78.635,78.635,0,0,0-.515,8.777c0,12.114,2.783,23.011,8.091,31.516a39.217,39.217,0,0,0,12.506,12.7,76.359,76.359,0,0,1-5.875-29.465A39.238,39.238,0,0,1-1890.835,3425.731Zm147.488,32.757a230.229,230.229,0,0,1,26.117,18.87,112.979,112.979,0,0,0,13.827-5.369,66.891,66.891,0,0,0,1.7-21.2,37.4,37.4,0,0,1-8.874,5.479c-8.269,3.557-15.787,3.685-22.342.384a25.456,25.456,0,0,1-3.49-2.144c-2.129,1.1-4.45,2.446-6.948,3.976Zm-47.3,12.506a54.639,54.639,0,0,0,12.215,6.186c4.688-2.312,9.307-4.912,13.719-7.562-.808-4.773-1.5-9.8-2.129-15-3.368,2.731-6.844,5.357-10.36,7.823-3.746,2.641-8.289,5.61-13.451,8.568Zm-7.131-3.4q-1.163,3.35-2.362,6.369c2.1-1.032,4.13-2.1,6.078-3.17a47.759,47.759,0,0,1-3.723-3.185Zm-24.739-3.06a53.078,53.078,0,0,0,3.118,6.541q-.291-3.319-.311-6.739c-.939.1-1.873.163-2.812.212Zm122.548-15.251a69.205,69.205,0,0,1-1.291,21.67q4.174-2.036,8.274-4.45c1.745-1.032,3.444-2.082,5.061-3.133a210.383,210.383,0,0,0-.081-29.889,57.875,57.875,0,0,1-11.968,15.816Zm-97.14,16.371a45.67,45.67,0,0,0,4.825,4.159c5.41-3.065,10.162-6.163,14.024-8.876,3.915-2.749,7.649-5.6,11.162-8.475q-.291-2.408-.55-4.863-3.077-1.338-6-2.431a91.438,91.438,0,0,1-21.161,12.873q-1.128,4.016-2.318,7.643Zm31.963-12.416c.631,5.334,1.323,10.47,2.135,15.365,3.694-2.242,7.242-4.493,10.578-6.608,1.925-1.221,3.781-2.4,5.573-3.516l-1.477-.873c-4.6-2.728-9.083-5.154-13.379-7.271q-1.716,1.48-3.449,2.917Zm79,11.177h0v-.021Zm-115.356-3.833q1.193,1.614,2.527,3.112l.41.451q.806-2.513,1.579-5.206-2.263.9-4.537,1.658Zm-40.412.91a87.1,87.1,0,0,0,16.793,1.291q-5.034-14.528-3.67-34.293-1.376-1.251-2.65-2.617-.782-.847-1.524-1.745c-4.194,1.94-7.893,3.81-10.906,5.5a29.156,29.156,0,0,0-4.985,3.49c0,.2,0,.4.02.608a68.391,68.391,0,0,0,6.9,27.784Zm14.874-31.492q-1.1,18.852,3.851,32.719,1.745-.084,3.49-.238a95.273,95.273,0,0,1,.788-10.8,67.436,67.436,0,0,1,2.809-15.144,44.116,44.116,0,0,1-10.959-6.523Zm12.689,7.227a67.115,67.115,0,0,0-2.711,14.565v.084a93.35,93.35,0,0,0-.777,10.415,78.081,78.081,0,0,0,11.41-2.161c.663-.177,1.32-.364,1.981-.558a50.441,50.441,0,0,1-7.719-21.595q-1.128-.337-2.2-.736Zm127.969-6.98a219.982,219.982,0,0,1,.407,31.835q1.283-.873,2.492-1.73a84.633,84.633,0,0,0,12.334-45.624c-.122-7.44-2.327-12.451-6.713-15.316a13.6,13.6,0,0,0-1.492-.846,75.587,75.587,0,0,1-7.05,31.693Zm-170.554,27.429,1.745.582a104.3,104.3,0,0,0,11.031,2.833,70.223,70.223,0,0,1-6.474-26.254,23.974,23.974,0,0,0-6.172,12.6,34.994,34.994,0,0,0-.151,10.247Zm46.7-19.12a48.3,48.3,0,0,0,7.62,20.449q3.159-1.021,6.256-2.312c1.5-5.567,2.67-11.011,3.531-16.1q-1.027-.061-2-.061a58.048,58.048,0,0,1-15.426-1.969Zm130.831-42.044a16.343,16.343,0,0,1,2.554,1.353c4.877,3.182,7.419,8.844,7.562,16.833a86.652,86.652,0,0,1-10.47,42.911,114.759,114.759,0,0,0,15.609-14.173c2.618-16,1.326-32.693-3.874-49.783a105.123,105.123,0,0,0-12.349-5.558,56.858,56.858,0,0,1,.937,7.667c-.012.259,0,.509.012.762Zm-80.848,52.52c4.142,2.036,8.434,4.38,12.832,6.98q1.163.68,2.3,1.381c2.542-1.564,4.918-2.967,7.1-4.136-4.095-3.435-7.588-8.219-10.633-13.94q-.992.271-1.978.489C-1753.609,3442.911-1756.843,3446.008-1760.248,3449.033Zm25.713,4.543a23.6,23.6,0,0,0,2.446,1.431c6.131,3.089,12.928,2.946,20.78-.43a36.218,36.218,0,0,0,9.4-6.026,77.893,77.893,0,0,0-3.2-15.1,47.111,47.111,0,0,0-2.251-5.791c-8.461,12.855-17.741,22.162-24.838,24.91C-1732.947,3452.852-1733.721,3453.192-1734.535,3453.576Zm-140.234-5.174a58.374,58.374,0,0,0,15.874,8.6,36.323,36.323,0,0,1,.25-9.889,25.691,25.691,0,0,1,7.908-14.818,77.126,77.126,0,0,1,6.544-32.324,85.537,85.537,0,0,1-1.762-17.9q-2.908-.149-5.767-.093a133.269,133.269,0,0,0-21.06,48.279A91.508,91.508,0,0,0-1874.769,3448.4Zm83.762-7.643c-.8,4.758-1.861,9.824-3.217,15.007a89.833,89.833,0,0,0,18.509-11.322,68.2,68.2,0,0,0-15.286-3.685Zm44.181-1.975c3.249,6.018,6.762,10.508,10.6,13.559,1.181-.582,2.3-1.091,3.345-1.5,6.689-2.589,15.912-11.925,24.076-24.375l.474-.73a37.839,37.839,0,0,0-9.731-11.863,44.591,44.591,0,0,1-10.648,14.271,50.158,50.158,0,0,1-18.108,10.636Zm-18.9,9.7q.142,1.3.291,2.585.942-.794,1.864-1.585-1.067-.515-2.138-1Zm-.236-2.123q1.928.855,3.906,1.8c2.972-2.617,5.744-5.235,8.292-7.794a31.609,31.609,0,0,1-7.123.177,10.718,10.718,0,0,1-5.255-2.036c-.195.192-.39.378-.582.567q.393,3.676.779,7.282Zm59.753-20.522a48.767,48.767,0,0,1,2.836,7.053,80.181,80.181,0,0,1,3.129,14.117,57.928,57.928,0,0,0,11.343-15.842q.311-.625.611-1.251-.893-10.985-2.728-23.063a85.7,85.7,0,0,0-1.745-8.6,132.988,132.988,0,0,1-13.428,27.589Zm-183.569-6.9.026.541a38.122,38.122,0,0,0,8.641,22.8,40.468,40.468,0,0,0,4.5,4.61,94.183,94.183,0,0,1,2-17,134.906,134.906,0,0,1,20.574-47.814,70.88,70.88,0,0,0-10.08,1.212c-7.454,1.455-14.376,7.719-19.486,17.631a70.117,70.117,0,0,0-6.163,18.021Zm117.735,24.9q2.036.78,4.133,1.675-.259-2.408-.512-4.854-1.771,1.644-3.6,3.179Zm-18.675-4.9a72.372,72.372,0,0,1,16.68,4.156q2.586-2.126,5.1-4.467l.291-.268c-.082-.774-.16-1.553-.239-2.327a44.7,44.7,0,0,1-6.715-10.729c-4.741,1.352-8.574,1.917-11.16,1.288-.765-.186-1.594-.413-2.475-.675-.233,3.856-.713,8.269-1.46,13.012Zm25.908-1.745a8.873,8.873,0,0,0,4.095,1.518,31.416,31.416,0,0,0,9.129-.582c.512-.538,1.015-1.07,1.5-1.6a115.155,115.155,0,0,1-4.555-10.936,125.077,125.077,0,0,1-10.156,11.59Zm-45.694-.611a55.79,55.79,0,0,0,15.644,2.123q1.122,0,2.3.076c.779-4.944,1.268-9.5,1.5-13.442a79.529,79.529,0,0,1-14.891-6.838q-1.2,1.876-2.286,3.851c-.919,1.667-1.745,3.324-2.478,4.959a60.33,60.33,0,0,0,.227,9.272Zm62.656.256.148.291a48.34,48.34,0,0,0,17.741-10.345,42.716,42.716,0,0,0,10.386-14.059,41.68,41.68,0,0,0-9.2-5.008c-.4-.16-.8-.311-1.21-.459-.974.381-1.949.771-2.908,1.163a60.279,60.279,0,0,1-1.454,8.228c-1.245,4.776-6.151,12.122-13.486,20.19Zm-19.274-1.591c.291.291.558.553.843.806a124.376,124.376,0,0,0,10.906-12.523q-.872-2.481-1.672-5.063c-4.028,1.661-7.853,3.182-11.36,4.458.425,3.926.826,7.853,1.224,11.738a5.731,5.731,0,0,1,.076.584Zm-46.718.224q.707.264,1.425.509-.174-1.989-.218-4-.648,1.792-1.189,3.5Zm60.541-11.634c.724,2.036,1.48,4.037,2.274,5.974q1.128,2.757,2.3,5.235c6.954-7.728,11.447-14.542,12.567-18.87a57.068,57.068,0,0,0,1.3-6.98c-3.99,1.623-7.931,3.278-11.738,4.883q-3.182,5.072-6.689,9.769Zm-73.62,3.883a42.182,42.182,0,0,0,11.343,7.047,77.21,77.21,0,0,1,3.039-7.931,68.739,68.739,0,0,1,1.67-11.5l-.18-.128c-5.354,1.911-10.49,3.929-15.208,5.936q-.4,3.371-.646,6.587Zm53.093-2.967a51.283,51.283,0,0,0,4.589,7.955q-.468-4.563-.957-9.158c-1.239.451-2.452.855-3.615,1.216Zm-69.659-21.723a76.832,76.832,0,0,0-5.424,27.7,31.949,31.949,0,0,1,4.107-2.716c2.949-1.649,6.547-3.473,10.619-5.369a54.619,54.619,0,0,1-9.284-19.605Zm152.2-6.4a87.42,87.42,0,0,1,2.094,9.921q1.568,10.3,2.449,19.838a72.787,72.787,0,0,0,5.5-28.6,27.758,27.758,0,0,0-10.025-1.131Zm-139.966,26.69c.372.436.75.873,1.137,1.28q.724.779,1.477,1.518.177-2.036.425-4.145-1.541.7-3.022,1.37Zm42.111.669c1.006.311,1.949.582,2.807.779,2.208.538,5.654.018,9.929-1.189-1.951-4.27-3.807-9.016-5.692-13.855l-1.03-2.618c-2.7.582-5.314,1.219-7.8,1.867a23.271,23.271,0,0,1,1.762,7.364,68.333,68.333,0,0,1,.041,7.675Zm71.837-11.9a39.377,39.377,0,0,1,10.109,11.849,130.323,130.323,0,0,0,12.948-27.077,104.248,104.248,0,0,0-20.786,4.924,31.774,31.774,0,0,1-2.266,10.328Zm-87.624,4.86a78.081,78.081,0,0,0,13.978,6.454,64.967,64.967,0,0,0-.044-6.945,21.526,21.526,0,0,0-1.725-7.015c-2.807.759-5.613,1.576-8.391,2.443q-2.013,2.44-3.813,5.087Zm23.645-10.241.916,2.347c1.917,4.907,3.8,9.723,5.759,14q2.01-.622,4.223-1.4c-.608-5.526-1.262-11.075-2.036-16.546-3.01.486-5.98,1.03-8.856,1.626Zm-27.921,9.729c-.419,1.9-.756,3.8-1.009,5.7.128-.233.253-.468.384-.7q1.1-2.012,2.327-3.915c-.576-.329-1.143-.7-1.707-1.064Zm-33.057-16.246a53.676,53.676,0,0,0,9.816,21.679q2.175-.989,4.508-2,1.1-8.4,3.243-17.622a46.165,46.165,0,0,1-4.726-7.739,40.885,40.885,0,0,1-3.246-9.6,62,62,0,0,0-9.016,14.018C-1841.872,3399.337-1842.07,3399.762-1842.265,3400.187Zm86.943,17.57q.631,2.006,1.3,3.982,2.286-3.1,4.432-6.4c-1.934.834-3.859,1.64-5.715,2.417Zm-15.263-12.9c.745,5.345,1.39,10.761,1.984,16.165,3.438-1.257,7.152-2.74,11.017-4.333-1.268-4.153-2.452-8.458-3.577-12.829-3.158.218-6.314.561-9.42,1Zm-52.642-.75q-1.745,7.76-2.737,14.923c4.118-1.745,8.533-3.467,13.123-5.127a60.577,60.577,0,0,1-10.386-9.8Zm14.464,10.444c.747.506,1.5.989,2.254,1.454q1.073-1.588,2.228-3.1c-1.492.489-2.978.986-4.447,1.495Zm49.475-10.8c1.053,4.072,2.184,8.19,3.417,12.236,2.443-1.015,4.944-2.068,7.454-3.126l.582-.247q2.542-4.072,4.86-8.394A92.741,92.741,0,0,0-1759.289,3403.749Zm-63.4-1.926a58.463,58.463,0,0,0,11.925,11.343l.494-.174a73.671,73.671,0,0,1,5.474-14.275q.6-1.187,1.242-2.327h0a64.425,64.425,0,0,0-15.237-8.434q-.96,2.641-1.745,5.459-1.181,4.287-2.161,8.408Zm20.612-4.272q-.541.986-1.056,2a71.576,71.576,0,0,0-5,12.7c1.969-.669,3.964-1.323,5.971-1.954a64.167,64.167,0,0,1,6.23-6.375,37.7,37.7,0,0,0-6.151-6.375Zm61.062,6.937q-1.867,3.516-3.894,6.9c3.365-1.414,6.823-2.856,10.316-4.27.041-.422.079-.846.114-1.277a61.846,61.846,0,0,0-6.544-1.353Zm13.6,1.774a43.822,43.822,0,0,1,8.589,4.7,30.086,30.086,0,0,0,1.922-8.527c-3.475,1.172-6.986,2.463-10.52,3.828Zm-103.539-70.674c-.564.23-1.134.468-1.7.719-14.013,6.145-28.956,19.053-39.973,34.525-9.406,13.207-15.17,26.844-16.735,39.3a66.226,66.226,0,0,1,4.141-10.066c5.383-10.427,12.765-17.031,20.786-18.6a73.8,73.8,0,0,1,11.741-1.291q3.534-5.017,7.39-9.58a69.768,69.768,0,0,1,7.347-24.169,69.462,69.462,0,0,1,7-10.845Zm36.087,69.865q-2.036,1.815-3.894,3.81,2.617-.777,5.253-1.5-.619-1.172-1.367-2.318Zm1.408-1.222a29.091,29.091,0,0,1,1.777,3.048q4.008-1.05,7.893-1.908c-.841-2.12-1.693-4.235-2.568-6.311q-1.335.837-2.618,1.745-2.335,1.605-4.493,3.423Zm60.925.236q1.294.378,2.539.817c4.409-1.745,8.833-3.38,13.155-4.834a31.04,31.04,0,0,0-4.153-15.124c-3.592.268-7.509.6-11.808.992-.131.343-.259.683-.393,1.027a86.341,86.341,0,0,1,.652,17.119Zm-52.226-6.373c.96,2.263,1.888,4.572,2.8,6.884q4.761-1,9.307-1.7-.739-5.13-1.626-10.15a68.472,68.472,0,0,0-10.49,4.959Zm44.653,4.654q2.987.489,5.759,1.207a84.69,84.69,0,0,0-.273-13.047q-2.516,6.067-5.494,11.846Zm-32.417-10.261c.622,3.464,1.181,6.98,1.693,10.52q4.744-.672,9.217-.992c-.872-3.49-1.725-6.98-2.551-10.5-.1-.448-.2-.9-.291-1.35a79.351,79.351,0,0,0-8.077,2.33Zm-28.627,3.426a39.884,39.884,0,0,1,6.62,6.8q2.167-1.815,4.5-3.44,1.454-1,2.94-1.934a95.173,95.173,0,0,0-6.186-12.192,63.525,63.525,0,0,0-7.882,10.775Zm47.526,5.8a86.256,86.256,0,0,1,11.59.745,154.994,154.994,0,0,0,6.948-15.356c-.029-.195-.058-.39-.09-.582-5.2.486-10.947,1.05-17.325,1.687a95.058,95.058,0,0,0-10.156,1.559c.09.445.186.887.291,1.326.82,3.49,1.69,7.12,2.618,10.8l.811-.041q2.708-.137,5.305-.137Zm-77.293-17.52a38.736,38.736,0,0,0,3.158,9.513,44.1,44.1,0,0,0,3.624,6.175q.838-3.429,1.815-6.98.8-2.908,1.8-5.631A84.434,84.434,0,0,0-1830.922,3384.2Zm111.938.971a32.893,32.893,0,0,1,3.964,14.673c2.254-.733,4.479-1.408,6.652-2.01a84.546,84.546,0,0,1,14.682-2.868,83.138,83.138,0,0,0-3.842-10.246,166.346,166.346,0,0,0-21.449.451Zm-125.125-2.955a85.89,85.89,0,0,0,1.242,14.946,63.053,63.053,0,0,1,8.932-13.588,87.538,87.538,0,0,0-10.174-1.358Zm52.127,1.562a94.5,94.5,0,0,1,6.477,12.623,70.49,70.49,0,0,1,10.869-5.1q-.925-4.991-2.036-9.81-.916-3.923-1.954-7.535a48.531,48.531,0,0,0-13.355,9.807Zm102.5,11a28.041,28.041,0,0,1,8.178,1.082,53.873,53.873,0,0,0-1.117-8.434,55.373,55.373,0,0,0-6.832-1.722c-.628,3-1.425,6.044-2.382,9.121.739-.041,1.454-.061,2.152-.061Zm-128.641-8.577a66,66,0,0,1,15.5,8.562,64.932,64.932,0,0,1,8.3-11.215c-4.9-7.291-10.229-10.857-16.255-10.869a56.873,56.873,0,0,0-7.547,13.521Zm122.7-1.329q1.521,3.473,2.728,7.067.942-3.307,1.629-6.55c-1.411-.215-2.844-.387-4.36-.518Zm14.58,1.123a94.391,94.391,0,0,1,12.029,5.2q-.689-2.112-1.454-4.229c-12.617-34.866-30.023-59.13-51.737-72.128a74.789,74.789,0,0,0-54.14-9.065,102.553,102.553,0,0,0-28.915,10.578,95.6,95.6,0,0,1,21.548,3.226,74.059,74.059,0,0,1,26.716-2.56c11.721,1.163,20.778,5.485,26.176,12.215,10.246-2.42,20.725.756,30.276,9.374,8.565,7.725,12.9,18.719,12.8,32.216q.415.576.806,1.164a43.273,43.273,0,0,1,5.9,14.007Zm-96.093-12.849q1.1,3.781,2.059,7.9,1.105,4.718,2.013,9.6a82.125,82.125,0,0,1,8.071-2.306,52.774,52.774,0,0,1,.713-19.527,67.513,67.513,0,0,0-12.858,4.342Zm14.833-4.732a51.09,51.09,0,0,0-.893,19.533,96.2,96.2,0,0,1,10.3-1.579c6.352-.634,12.055-1.192,17.209-1.669a75.074,75.074,0,0,0-2.1-8.774,64.558,64.558,0,0,0-2.239-6.215,43.152,43.152,0,0,0-22.273-1.289Zm-68.231,14a84.985,84.985,0,0,1,10.5,3.129,59.357,59.357,0,0,1,6.849-12.689C-1818.98,3373.642-1824.992,3377.027-1830.341,3382.41Zm141.461,1.477a56.948,56.948,0,0,1,5.974,1.454,41.644,41.644,0,0,0-4.744-11.3,75.963,75.963,0,0,1-1.163,9.5,2.682,2.682,0,0,0-.081.349Zm-40.357-8.28q-1.256,4.363-2.859,8.783c3.615-.323,6.948-.6,10.034-.838a34.583,34.583,0,0,0-7.19-7.946Zm-8.207-4.97c.628,1.626,1.163,3.217,1.64,4.752a75.965,75.965,0,0,1,2.013,8.26c1.123-3.112,2.117-6.2,2.984-9.246q-.791-.582-1.608-1.094a35.3,35.3,0,0,0-5.043-2.673Zm41.16,12.317c1.227.09,2.408.2,3.557.343q1.03.125,2.036.291l.07-.378a71.609,71.609,0,0,0,1.219-11.764,35.268,35.268,0,0,0-18.465-12.7c-2.155-.657-4.505-1.341-7.018-2.016a92.614,92.614,0,0,1,18.588,26.222Zm-32.408-9.272a36.354,36.354,0,0,1,8.725,9.717,185.827,185.827,0,0,1,21.583-.582,92.735,92.735,0,0,0-20.111-27.048c-2.106-.526-4.307-1.038-6.582-1.527a109.616,109.616,0,0,1-3.63,19.439Zm-80.449-2.792c6,.5,11.3,4.223,16.139,11.293a50.084,50.084,0,0,1,13.85-10.042,104.438,104.438,0,0,0-6.689-17.125,59.064,59.064,0,0,0-8.655,3.865,50.551,50.551,0,0,0-14.658,12.009Zm-34.936,9.464a89.8,89.8,0,0,1,10.927,1.454c-.957-7.853.393-16.139,4.04-24.786a119.781,119.781,0,0,0-14.42,14.338q-.131,1.164-.224,2.359-.276,3.388-.337,6.634Zm18.16-25.885c-.163.326-.32.657-.477.989-4.147,8.9-5.817,17.4-5,25.411,6.038-5.962,12.873-9.545,19.635-9.993l.259-.017a52.352,52.352,0,0,1,16.107-13.594,60.837,60.837,0,0,1,8.684-3.9,58.566,58.566,0,0,0-9.618-13.379l-.305-.311a71.3,71.3,0,0,0-18.986,7.853,96.115,96.115,0,0,0-10.316,6.936Zm-24.2,25.672q2.088,0,4.2.1c.038-2.08.14-4.206.291-6.366q-2.457,3.033-4.781,6.265Zm111.682-11.889a37.459,37.459,0,0,1,7.006,3.5q.582.37,1.137.759a105.492,105.492,0,0,0,3.385-18.634,162.024,162.024,0,0,0-23.354-3.118A55.316,55.316,0,0,1-1738.435,3368.252Zm-45.662-13.832a106.521,106.521,0,0,1,6.622,16.947,68.728,68.728,0,0,1,13.856-4.534,62.241,62.241,0,0,1,2.946-8.725,60.963,60.963,0,0,1,3.807-7.524h-.291a87.319,87.319,0,0,0-26.94,3.833Zm66.492-.291c3.746.945,7.192,1.922,10.249,2.859a37.351,37.351,0,0,1,17.9,11.468c-.343-9.973-3.342-20.49-12.143-28.427s-18.419-11.023-27.833-9.1a25.234,25.234,0,0,1,3.6,8.2,39.847,39.847,0,0,1,.974,8.757q2.644,2.1,5.218,4.389,1.041.9,2.039,1.841Zm-109.937-19.777a68.147,68.147,0,0,0-8.789,12.945,67.45,67.45,0,0,0-6.768,20.763,118.293,118.293,0,0,1,15.705-14.778,60.135,60.135,0,0,1,17.328-20.649,27.652,27.652,0,0,0-2.766-.349,37.931,37.931,0,0,0-14.714,2.051Zm74.542,31.367a41.909,41.909,0,0,1,12.169,1.745,52.211,52.211,0,0,0-12.276-16.8c-.535-.018-1.067-.032-1.605-.044a58.907,58.907,0,0,0-4.252,8.216,60.493,60.493,0,0,0-2.638,7.644,51.171,51.171,0,0,1,8.6-.774Zm28.034-13.3q1.847.393,3.624.806-1.745-1.541-3.531-2.987-.029,1.056-.1,2.164Zm-69.554-13.207a61.972,61.972,0,0,1,9.572,13.565,90.7,90.7,0,0,1,29.226-4.02c.044-.064.084-.128.125-.192a50.837,50.837,0,0,0-15.926-8.341,45.091,45.091,0,0,0-23-1.03Zm42.172,9.63a161.005,161.005,0,0,1,25.571,3.2q.093-1.669.1-3.249A135.068,135.068,0,0,0-1743.4,3337.7a49.308,49.308,0,0,0-9.714,10.491c.247.2.5.416.753.634Zm-55.332-15.653a59.47,59.47,0,0,0-16.159,17.45q3.595-2.553,7.291-4.706a74.021,74.021,0,0,1,18.285-7.754,24.622,24.622,0,0,0-9.426-5.008Zm23.02,3.164a44.506,44.506,0,0,1,13.707,2.114,52.683,52.683,0,0,1,16.4,8.559,51.531,51.531,0,0,1,9.411-10.293,160.874,160.874,0,0,0-20.85-9.5c-6.6-2.464-12.422-4.313-17.6-5.677a79.077,79.077,0,0,0-12.75,4.851,74.663,74.663,0,0,0-9.426,5.433,26.669,26.669,0,0,1,9.691,5.817,52.473,52.473,0,0,1,11.4-1.321Zm42.873.136a136.974,136.974,0,0,1,15.063,9.938,35.84,35.84,0,0,0-.89-6.864,23.234,23.234,0,0,0-3.74-8.17,32.1,32.1,0,0,0-7.765,3.356q-1.349.783-2.676,1.722Zm-38.132-15.888c4.982,1.44,9.842,3.135,14.577,4.9a162.443,162.443,0,0,1,21.784,9.993,39.377,39.377,0,0,1,3.49-2.326,34.738,34.738,0,0,1,7.466-3.339c-5.148-6-13.565-9.848-24.384-10.927a70.078,70.078,0,0,0-22.941,1.681Zm-28.211-2.437a83.672,83.672,0,0,0-12.506,9.173q-2.382,2.123-4.534,4.395a37.872,37.872,0,0,1,12.486-1.274,29.272,29.272,0,0,1,4.613.718,75.468,75.468,0,0,1,10.924-6.433,80.753,80.753,0,0,1,10.075-4.054,83.949,83.949,0,0,0-21.065-2.542Z" transform="translate(2008.238 -3146.347)" fill="#2b478b"></path><path id="Trazado_4204" data-name="Trazado 4204" d="M-1630.671,3014.483c5.165-20.068,13.9-37.533,37.518-37.533,20.728,0,39.531,18.262,38.164,40.764-1.256,20.69-19.224,38.216-41.218,35.753C-1616.795,3051.166-1636.586,3037.477-1630.671,3014.483Z" transform="translate(1817.852 -2915.602)" fill="#afcdfb"></path><g id="Grupo_1018" data-name="Grupo 1018" transform="translate(208.958 75.957)" opacity="0.8"><path id="Trazado_4205" data-name="Trazado 4205" d="M-1543.116,3063.533a27.356,27.356,0,0,1,.291-4.284,13.378,13.378,0,0,1,.971-3.33,13.334,13.334,0,0,1,1.745-2.862,31.338,31.338,0,0,1,2.635-2.879q1.163-1.143,2.2-2.167a17.445,17.445,0,0,0,1.8-2.1,9.6,9.6,0,0,0,1.233-2.292,7.74,7.74,0,0,0,.451-2.7,7.006,7.006,0,0,0-1.614-4.976,6.186,6.186,0,0,0-4.735-1.719,8.489,8.489,0,0,0-2.426.349,5.95,5.95,0,0,0-2.117,1.108,5.667,5.667,0,0,0-1.509,1.943,6.485,6.485,0,0,0-.582,2.844h-8.434a13.683,13.683,0,0,1,1.2-5.741,11.877,11.877,0,0,1,3.2-4.162,13.83,13.83,0,0,1,4.752-2.53,19.741,19.741,0,0,1,5.913-.849,19.923,19.923,0,0,1,6.244.9,12.658,12.658,0,0,1,4.653,2.635,11.226,11.226,0,0,1,2.908,4.232,15.228,15.228,0,0,1,.989,5.654,12.249,12.249,0,0,1-.713,4.264,16.283,16.283,0,0,1-1.94,3.711,26.812,26.812,0,0,1-2.778,3.33q-1.559,1.6-3.225,3.156a8.621,8.621,0,0,0-2.548,3.8,16.46,16.46,0,0,0-.677,4.654Zm-.582,10.787a5.063,5.063,0,0,1,.314-1.8,4.14,4.14,0,0,1,.919-1.454,4.161,4.161,0,0,1,1.489-.971,5.573,5.573,0,0,1,2.036-.346,5.573,5.573,0,0,1,2.036.346,4.174,4.174,0,0,1,1.492.971,4.4,4.4,0,0,1,.937,1.454,4.883,4.883,0,0,1,.329,1.8,4.4,4.4,0,0,1-1.248,3.2,4.724,4.724,0,0,1-3.54,1.282,4.654,4.654,0,0,1-3.519-1.282,4.42,4.42,0,0,1-1.253-3.2Z" transform="translate(1553.203 -3027.182)" fill="#fff"></path></g><path id="Trazado_4206" data-name="Trazado 4206" d="M1044.2,156.733l-33.679,9.679,20.641-18.713,1.853,4.822,8.565.349Z" transform="translate(-716.621 -104.745)" fill="#eabe96"></path><path id="Trazado_4207" data-name="Trazado 4207" d="M1010.52,153.456l26.545-18.718,27.828-5.308Z" transform="translate(-716.621 -91.789)" fill="#f9ddbf"></path><path id="Trazado_4208" data-name="Trazado 4208" d="M1031.161,128.113l-20.641,18.713,14.274-26.746Z" transform="translate(-716.621 -85.158)" fill="#f9ddbf"></path><path id="Trazado_4209" data-name="Trazado 4209" d="M2143.1,629.092l35.1,5-23.3-15.871-1.184,5.09-8.533,1.547Z" transform="translate(-1519.802 -438.419)" fill="#edcbab"></path><path id="Trazado_4210" data-name="Trazado 4210" d="M2122.759,632.595l-29.212-15.054-28.627-1.431Z" transform="translate(-1464.36 -436.923)" fill="#f9ddbf"></path><path id="Trazado_4211" data-name="Trazado 4211" d="M2183.69,596.427l23.3,15.871-18.038-24.809Z" transform="translate(-1548.587 -416.627)" fill="#f9ddbf"></path><path id="Trazado_4212" data-name="Trazado 4212" d="M-465.949,3476.878c-32.961,0-65.616-14.542-87.354-38.879-18.614-20.847-27.231-46.7-24.271-72.8l.442.049-.442-.049c4.054-35.692,16.115-63.348,35.852-82.2,18.721-17.884,44.208-27.766,75.749-29.375,36.9-1.882,65.3,8.629,84.393,31.242,8.353,9.888,14.923,22.153,19.53,36.445a176.9,176.9,0,0,1,7.725,43.917c.983,17.034-.523,32.519-4.485,46.02a85.792,85.792,0,0,1-19.725,35.215C-397.584,3466.644-426.994,3476.878-465.949,3476.878Zm8.237-222.576q-4.034,0-8.213.215c-31.323,1.6-56.626,11.4-75.179,29.128-19.585,18.707-31.556,46.179-35.584,81.659-2.935,25.847,5.607,51.441,24.052,72.09,21.569,24.16,53.977,38.583,86.688,38.583,38.7,0,67.894-10.139,86.766-30.134a84.9,84.9,0,0,0,19.521-34.857c3.929-13.4,5.427-28.793,4.45-45.72a176.134,176.134,0,0,0-7.684-43.693c-4.569-14.178-11.084-26.338-19.364-36.143C-399.727,3264.76-425.086,3254.3-457.712,3254.3Z" transform="translate(1070.688 -3111.659)" fill="#2b478b"></path><path id="Trazado_4213" data-name="Trazado 4213" d="M-467.448,3476c-33.132,0-65.959-14.612-87.81-39.086-18.588-20.818-27.272-46.6-24.492-72.664h0l.14-1.221h0c4.136-35.543,16.238-63.112,35.968-81.964,18.832-17.989,44.449-27.921,76.142-29.543,37.1-1.9,65.666,8.69,84.89,31.454,8.408,9.955,15.016,22.287,19.649,36.646a177.555,177.555,0,0,1,7.751,44.065c.989,17.107-.526,32.661-4.508,46.243a86.5,86.5,0,0,1-19.867,35.468C-398.758,3465.7-428.319,3476-467.448,3476Zm8.237-222.576c-2.667,0-5.418.07-8.184.212-31.169,1.588-56.33,11.343-74.784,28.959-19.486,18.614-31.384,45.953-35.4,81.284-2.908,25.664,5.572,51.1,23.9,71.622,21.458,24.032,53.692,38.376,86.231,38.376,38.525,0,67.565-10.072,86.318-29.942a84.159,84.159,0,0,0,19.379-34.61c3.909-13.335,5.4-28.647,4.424-45.51a175.082,175.082,0,0,0-7.652-43.539c-4.546-14.091-11.034-26.19-19.251-35.93C-401.559,3263.828-426.786,3253.425-459.212,3253.425Z" transform="translate(1072.187 -3110.166)" fill="#2b478b"></path><path id="Trazado_4214" data-name="Trazado 4214" d="M-488.908,3482.307c-18.509,0-38.879-5.259-60.91-15.752-29.756-14.173-52.988-41.337-62.144-72.664-7.838-26.827-4.505-53.872,9.394-76.159,19-30.48,41.788-50.26,67.716-58.8,24.59-8.094,51.848-6.055,81.016,6.055,34.124,14.17,55.239,35.869,62.757,64.5,3.286,12.521,3.947,26.417,1.96,41.3a177.042,177.042,0,0,1-11.91,42.969c-6.439,15.8-14.458,29.133-23.849,39.621a85.681,85.681,0,0,1-32.955,23.311A85.2,85.2,0,0,1-488.908,3482.307Zm-113.285-164.339.378.235c-13.76,22.066-17.061,48.861-9.292,75.438,9.086,31.088,32.141,58.046,61.658,72.111,34.939,16.642,65.654,20.042,91.294,10.106a84.913,84.913,0,0,0,32.612-23.075c9.307-10.412,17.279-23.654,23.677-39.362a176.136,176.136,0,0,0,11.852-42.753c1.972-14.769,1.318-28.549-1.94-40.959-7.443-28.342-28.383-49.841-62.24-63.9-28.968-12.026-56.016-14.056-80.4-6.029-25.725,8.467-48.346,28.121-67.239,58.421Z" transform="translate(1097.614 -3112.135)" fill="#2b478b"></path><path id="Trazado_4215" data-name="Trazado 4215" d="M-490.412,3481.444c-18.567,0-39.15-5.32-61.175-15.807-29.913-14.251-53.264-41.558-62.469-73.05-7.89-27-4.531-54.218,9.461-76.656,19.085-30.6,41.98-50.475,68.056-59.04,24.721-8.144,52.139-6.108,81.435,6.07,34.319,14.251,55.55,36.087,63.112,64.909,3.31,12.6,3.976,26.577,1.978,41.538a177.585,177.585,0,0,1-11.951,43.12c-6.465,15.868-14.522,29.259-23.948,39.8A86.413,86.413,0,0,1-459.1,3475.8,86.515,86.515,0,0,1-490.412,3481.444ZM-602.8,3317.053c-13.669,21.917-16.944,48.532-9.225,74.94,9.036,30.922,31.972,57.734,61.347,71.727,34.781,16.578,65.331,19.96,90.806,10.086a84.253,84.253,0,0,0,32.376-22.912c9.266-10.357,17.194-23.541,23.558-39.182a175.332,175.332,0,0,0,11.811-42.6c1.96-14.687,1.315-28.389-1.925-40.717-7.39-28.147-28.211-49.51-61.876-63.487-28.828-11.971-55.734-13.992-79.981-6.015C-561.47,3267.311-583.981,3286.879-602.8,3317.053Z" transform="translate(1099.118 -3110.658)" fill="#2b478b"></path><path id="Trazado_4216" data-name="Trazado 4216" d="M-452.925,3479.239c-26.859,0-54.448-12.907-82.107-38.435-25.076-23.142-39.711-57.126-39.156-90.91.477-28.927,12.07-54.646,32.647-72.419l.291.349-.291-.349c28.142-24.308,56.737-36.878,84.989-37.361,26.786-.462,53.125,9.915,78.236,30.829,29.4,24.48,43.626,52.409,42.268,83.02-.582,13.379-4.2,27.339-10.729,41.439a183.138,183.138,0,0,1-24.957,38.83c-11.212,13.652-23.232,24.372-35.724,31.861a88.788,88.788,0,0,1-39.732,12.942Q-450.043,3479.239-452.925,3479.239Zm-1.922-238.221h-1.69c-28.031.483-56.423,12.977-84.4,37.137-20.376,17.6-31.856,43.076-32.33,71.741-.55,33.525,13.96,67.251,38.859,90.216,29.442,27.17,58.767,39.955,87.167,38a87.868,87.868,0,0,0,39.324-12.811c12.4-7.437,24.337-18.087,35.482-31.658a182.144,182.144,0,0,0,24.832-38.632c6.48-14,10.063-27.822,10.648-41.093,1.335-30.306-12.777-57.988-41.936-82.27C-403.313,3251.323-428.861,3241.019-454.847,3241.019Z" transform="translate(1067.893 -3102.217)" fill="#2b478b"></path><path id="Trazado_4217" data-name="Trazado 4217" d="M-454.428,3478.351h0c-27.007,0-54.774-12.986-82.526-38.6-25.2-23.267-39.912-57.415-39.353-91.37.477-28.889,11.977-54.6,32.4-72.471h0l.934-.805h0c28.1-24.14,56.67-36.625,84.925-37.111,26.94-.468,53.413,9.958,78.655,30.98,29.549,24.605,43.844,52.706,42.486,83.521-.582,13.472-4.22,27.49-10.784,41.668a184.106,184.106,0,0,1-25.041,38.972c-11.27,13.7-23.343,24.463-35.9,32a89.4,89.4,0,0,1-40,13.027c-1.917.131-3.865.2-5.791.2Zm-1.922-238.221h-1.678c-27.883.477-56.149,12.922-84.012,36.989-20.24,17.482-31.646,42.8-32.114,71.282-.55,33.354,13.9,66.893,38.661,89.753,27.365,25.257,54.608,38.027,81.069,38.027q2.827,0,5.639-.192a87.244,87.244,0,0,0,39.048-12.727c12.34-7.4,24.224-18.006,35.325-31.518a181.706,181.706,0,0,0,24.748-38.5c6.445-13.923,10.008-27.67,10.589-40.86,1.335-30.09-12.71-57.6-41.709-81.758C-405.09,3250.392-430.518,3240.131-456.351,3240.131Z" transform="translate(1069.396 -3100.713)" fill="#2b478b"></path><path id="Trazado_4218" data-name="Trazado 4218" d="M-524.424,3481.376a85.452,85.452,0,0,1-30-5.25c-26.932-10-48.57-33.895-64.313-71.023-13.32-31.411-12.663-68.408,1.745-98.967,12.346-26.175,33.5-44.827,59.573-52.549,35.657-10.563,66.893-10.243,92.836.951,24.617,10.616,44.333,30.91,58.616,60.317,16.706,34.409,18.163,65.73,4.328,93.069-6.052,11.959-15.083,23.177-26.842,33.342a183.836,183.836,0,0,1-38.731,25.117c-15.839,7.824-31.207,12.643-45.662,14.324A99.98,99.98,0,0,1-524.424,3481.376Zm-32.865-227.349.131.442c-25.812,7.646-46.767,26.135-59,52.06-14.306,30.323-14.958,67.038-1.745,98.216,15.641,36.884,37.1,60.611,63.787,70.52a87.931,87.931,0,0,0,41.11,4.517c14.362-1.672,29.628-6.459,45.371-14.251a182.339,182.339,0,0,0,38.539-24.977c11.668-10.086,20.626-21.211,26.623-33.063,13.7-27.069,12.239-58.1-4.336-92.242-14.164-29.186-33.726-49.338-58.127-59.867-25.742-11.1-56.763-11.412-92.2-.913Z" transform="translate(1106.242 -3106.329)" fill="#2b478b"></path><path id="Trazado_4219" data-name="Trazado 4219" d="M-525.913,3480.5a86.537,86.537,0,0,1-30.212-5.287c-27.1-10.063-48.861-34.072-64.665-71.36-13.379-31.574-12.727-68.757,1.765-99.467,12.422-26.327,33.714-45.106,59.954-52.877,35.8-10.6,67.184-10.275,93.255.974,24.747,10.674,44.568,31.07,58.912,60.62,16.8,34.589,18.25,66.084,4.325,93.6-6.087,12.032-15.167,23.314-26.987,33.531a183.845,183.845,0,0,1-38.865,25.2c-15.9,7.853-31.335,12.692-45.874,14.382A100.4,100.4,0,0,1-525.913,3480.5Zm-32.548-226.933c-25.643,7.6-46.462,25.969-58.619,51.734-14.234,30.166-14.882,66.693-1.745,97.722,15.572,36.722,36.913,60.335,63.435,70.183a87.414,87.414,0,0,0,40.825,4.482c14.292-1.661,29.488-6.431,45.17-14.176a181.728,181.728,0,0,0,38.408-24.893c11.607-10.034,20.513-21.094,26.466-32.865,13.605-26.888,12.145-57.737-4.339-91.693-14.114-29.084-33.574-49.12-57.836-59.584C-492.277,3243.408-523.161,3243.111-558.46,3253.567Z" transform="translate(1107.731 -3104.836)" fill="#2b478b"></path><path id="Trazado_4220" data-name="Trazado 4220" d="M-443.412,3476.878c-32.961,0-60.855-17.305-82.6-41.648-18.614-20.847-31.992-43.917-29.032-70.028,4.051-35.692,16.115-63.348,35.852-82.2,18.721-17.884,44.208-27.766,75.749-29.375,36.9-1.882,65.293,8.629,84.393,31.242,8.353,9.888,14.923,22.153,19.53,36.445a176.9,176.9,0,0,1,7.725,43.917c.983,17.034-.526,32.519-4.485,46.02A85.793,85.793,0,0,1-356,3446.465C-375.048,3466.644-404.46,3476.878-443.412,3476.878Zm-111.182-111.613.442.052c-2.935,25.838,11.186,48.9,29.628,69.56,21.572,24.16,48.4,41.125,81.112,41.125,38.7,0,67.891-10.139,86.766-30.134a84.963,84.963,0,0,0,19.521-34.857c3.929-13.4,5.427-28.793,4.447-45.72a176,176,0,0,0-7.681-43.693c-4.572-14.178-11.087-26.338-19.364-36.143-18.9-22.395-47.058-32.792-83.669-30.925-31.32,1.6-56.615,11.4-75.179,29.128-19.591,18.692-31.553,46.165-35.587,81.645Z" transform="translate(1054.596 -3111.659)" fill="#2b478b"></path><path id="Trazado_4221" data-name="Trazado 4221" d="M-444.918,3476a96.521,96.521,0,0,1-45.8-11.767c-13.172-7.03-25.707-17.159-37.256-30.087-10.421-11.671-17.849-22.531-22.709-33.2-5.77-12.666-7.888-24.87-6.474-37.306,4.072-35.837,16.194-63.621,36.038-82.575,18.832-17.988,44.449-27.92,76.142-29.543,37.105-1.89,65.669,8.693,84.893,31.457,8.405,9.952,15.016,22.287,19.649,36.646a177.581,177.581,0,0,1,7.751,44.065c.989,17.107-.529,32.661-4.508,46.244a86.47,86.47,0,0,1-19.87,35.468C-376.216,3465.7-405.788,3476-444.918,3476Zm-110.129-112.122c-2.478,21.831,6.887,43.783,29.477,69.08,24.244,27.153,51.38,40.918,80.653,40.918,38.522,0,67.565-10.072,86.318-29.942a84.123,84.123,0,0,0,19.376-34.61c3.912-13.335,5.4-28.648,4.427-45.511a175.217,175.217,0,0,0-7.652-43.539c-4.549-14.1-11.023-26.193-19.251-35.933-18.777-22.235-46.755-32.574-83.165-30.71-31.169,1.588-56.333,11.343-74.784,28.959-19.477,18.6-31.384,45.953-35.4,81.287Zm6.076,37.809c4.813,10.15,11.994,20.513,21.918,31.629a157.194,157.194,0,0,0,13.073,13.053,162.692,162.692,0,0,1-12.506-12.6c-10.043-11.232-17.5-21.833-22.488-32.071Z" transform="translate(1056.102 -3110.161)" fill="#2b478b"></path><path id="Trazado_4222" data-name="Trazado 4222" d="M-348.972,3750.63l-.169.291c-1.338,2.327-4.406,8.019-7.783,14.251-1.6,2.958-3.272,6.038-4.86,8.935-2.737,5-5.235,9.449-6.689,11.8s-2.562,4.072-3,4.746h0a1.126,1.126,0,0,0-.143.7,36.32,36.32,0,0,1-.1,6.268,48.079,48.079,0,0,1-15.705,31.143l-4.072.6s5.753-21.316,7.448-33.365a22.906,22.906,0,0,0,.311-4.778c-.291-3.138.256-7.748,1.312-13.041a292.383,292.383,0,0,1,8.312-30.186c.192-.582,5.91-21.272,5.91-21.272,4.8,4.194,22.3,5.924,22.3,5.924S-342.923,3739.869-348.972,3750.63Z" transform="translate(938.32 -3447.31)" fill="#f99746"></path><path id="Trazado_4223" data-name="Trazado 4223" d="M-420.81,4074.333h16.968a9.312,9.312,0,0,0-.48-4.549c-.849-1.882-2.059-1.943-.154-4.895-1.079,1.111-4.543,1.571-7,1.242-.291.486-1.937,3.755-2.94,4.476C-415.525,4071.4-420.47,4071.123-420.81,4074.333Z" transform="translate(959.113 -3687.127)" fill="#2358a5"></path><path id="Trazado_4224" data-name="Trazado 4224" d="M-274.844,3784.514l-.169.291c-1.338,2.327-8.568,15.682-11.948,21.915,3.915-16.109,1.192-32.219,1.192-32.219Z" transform="translate(864.192 -3481.194)" fill="#ed7d2b"></path><path id="Trazado_4225" data-name="Trazado 4225" d="M-470.522,3517.48s-.669-7.32,7.509-7.32a9.612,9.612,0,0,0-3.761,2.016s5.218-3.062,10.895,1.643,2.152,16.511,3.877,18.753,8.452,2.69,7.629,9.938-21.339,16.322-20.021,22.319c0,0-8.042-11.82-2.292-17.215,0,0-2.8,2.641-3.089,5.776,0,0-.759-6.125,3.138-8.085,3.449-1.745,6.276-8.074,5.977-9.208S-470.522,3517.48-470.522,3517.48Z" transform="translate(994.376 -3293.734)" fill="#202d4f"></path><path id="Trazado_4226" data-name="Trazado 4226" d="M-507.433,3641s-11.634,29.375-14.149,28.281-17.287-5.782-17.287-5.782a31.929,31.929,0,0,0,.765,4.363c2.164,1.713,13.047,10.107,19.565,10.534,7.239.474,17.043-20.85,17.043-20.85Z" transform="translate(1042.836 -3386.521)" fill="#ffb27d"></path><path id="Trazado_4227" data-name="Trazado 4227" d="M-485.23,3531.5c-.111-.445,9.691,4.43,10.179,4.982,4.6,5.1,3.286,11.753.657,11.817-1.687.041-1.361,2.847-1.361,2.847l-18.785-7.951S-492.277,3530-485.23,3531.5Z" transform="translate(1011.399 -3308.783)" fill="#202d4f"></path><path id="Trazado_4228" data-name="Trazado 4228" d="M-446.916,3643.14s-2.5,2.594-2.5,10.351c0,0,3.449,5.445,12.393,6.823C-437.027,3660.314-444.717,3643.137-446.916,3643.14Z" transform="translate(979.402 -3388.038)" fill="#1c468a"></path><path id="Trazado_4229" data-name="Trazado 4229" d="M-290.922,3725.288l-.058-3.176c6.323.8,21.813-7.562,21.813-7.562s6.617,4.4,7.521,16.965c.442,6.134,3.237,32.071,3.548,39.816.113,2.807.148,4.811.163,5.61a1.082,1.082,0,0,0,.268.651,36.308,36.308,0,0,1,3.426,5.253c9.65,17.95,4.6,42.344,4.6,42.344l-2.242-.582s-8.144-25.286-13.489-36.224a22.889,22.889,0,0,0-2.414-4.133c-2.007-2.434-4.121-6.57-6.2-11.546C-277.936,3763.321-290.922,3725.288-290.922,3725.288Z" transform="translate(867.042 -3438.679)" fill="#f99746"></path><path id="Trazado_4230" data-name="Trazado 4230" d="M-195.27,4074.036H-178.3a9.333,9.333,0,0,0-.477-4.549c-.849-1.882-2.181-2.74-1.861-5.017a6.152,6.152,0,0,1-5.29,2.036,18.256,18.256,0,0,1-2.943,3.816C-189.983,4071.107-194.927,4070.825-195.27,4074.036Z" transform="translate(799.169 -3686.829)" fill="#2358a5"></path><path id="Trazado_4231" data-name="Trazado 4231" d="M-429.776,3638.808c2.28.387-.372,2.2,2.763,2.542,4.461.485,9.068.82,11.482,1.783a2.6,2.6,0,0,1,1.652,1.338c1.047,3.144,5.657,8,5.657,8,29.546-1.344,32.789-13.7,32.789-13.7-19.175-18.614-36.809-29.608-50.272-31.062-2.3-.247-5.218,1.216-7.291,2.138-4.717,2.1-7.815,8.144-7.815,8.144S-438.437,3637.33-429.776,3638.808Z" transform="translate(973.296 -3362.887)" fill="#1c468a"></path><path id="Trazado_4232" data-name="Trazado 4232" d="M-393.37,3664.848c4.461.486,9.068.82,11.482,1.783a47.054,47.054,0,0,0-5.968-25.821S-392.39,3659.27-393.37,3664.848Z" transform="translate(939.653 -3386.386)" fill="#163560"></path><path id="Trazado_4233" data-name="Trazado 4233" d="M-426.074,3632.2s11.218-.614,13.213,6.43-3.74,35.166-4.976,38.065c-2.251,5.284-13.2,20.359-13.2,20.359l-3.022-1.553s6.3-22.712,7.925-24.992C-423.572,3666.935-429.433,3635.263-426.074,3632.2Z" transform="translate(968.509 -3380.268)" fill="#ffb27d"></path><path id="Trazado_4234" data-name="Trazado 4234" d="M-442.09,3842.66a13.885,13.885,0,0,1-2.766,5.139,9.154,9.154,0,0,0-1.632,4.686s-.14,1.082.332.974,1-2.449,1.838-2.327a16.2,16.2,0,0,1-.893,3.354c-.445.736-.707,3.019-.076,3.3,1.53.675,3.781-2.21,5.139-4.02s.02-9.153.02-9.153Z" transform="translate(977.336 -3529.53)" fill="#ffb27d"></path><path id="Trazado_4235" data-name="Trazado 4235" d="M-400.182,3642.975c-.029.166-10.619,1.948-17.241-1.414,0,0-5.526-17.331,2.373-16.5s12.588,3.318,12.8,7.105A74.576,74.576,0,0,0-400.182,3642.975Z" transform="translate(958.043 -3375.196)" fill="#1c468a"></path><path id="Trazado_4236" data-name="Trazado 4236" d="M-443.618,3600.752s-3.121,11.634-7.815,8.144c.131-.561-.686-2.2-1.652-3.854-1.233-2.12-2.7-4.287-2.7-4.287l6.352-5.563.378-.332A16.652,16.652,0,0,0-443.618,3600.752Z" transform="translate(983.919 -3353.8)" fill="#ffb27d"></path><path id="Trazado_4237" data-name="Trazado 4237" d="M-455.78,3601.586s1.454,2.161,2.7,4.284c3.947-2.435,3.95-7.321,3.647-9.851Z" transform="translate(983.912 -3354.622)" fill="#ed985f"></path><path id="Trazado_4238" data-name="Trazado 4238" d="M-481.627,3576.7s9.583-5.331,6.172-11.25-4.476-10.592-10.738-7.437-6.14,6.108-5.482,8.344S-484.206,3577.938-481.627,3576.7Z" transform="translate(1009.581 -3326.948)" fill="#ffb27d"></path><path id="Trazado_4239" data-name="Trazado 4239" d="M-496.655,3560.954c.439-2.617,1.771-2.879,2.7-2.7a7.67,7.67,0,0,1,9.324-3.568,13.043,13.043,0,0,0,7.562,4.537s-1.114,2.071-5.695,3.351a7.825,7.825,0,0,1-4.52-.361,25.648,25.648,0,0,0,6.5,2.452c-6.038.553-11.785-4.968-12.381-5.558a8.417,8.417,0,0,0-.474,3.956c.4,1.78,1.978,5,1.012,5.418C-492.63,3568.475-497.316,3564.892-496.655,3560.954Z" transform="translate(1012.945 -3324.995)" fill="#202d4f"></path><path id="Trazado_4240" data-name="Trazado 4240" d="M-544.8,3715.608a3.167,3.167,0,0,1-3.455-1.015c-.89-.907-2.484-1.4-1.658-1.885s3.019.512,3.534.689S-544.8,3715.608-544.8,3715.608Z" transform="translate(1050.83 -3437.279)" fill="#ffb27d"></path><path id="Trazado_4241" data-name="Trazado 4241" d="M-313.692,2962.568c5.148-20.007,13.85-37.408,37.408-37.408,20.65,0,39.394,18.2,38.033,40.627-1.251,20.621-19.158,38.1-41.078,35.634C-299.862,2999.121-319.587,2985.477-313.692,2962.568Z" transform="translate(883.899 -2878.875)" fill="#afcdfb"></path><g id="Grupo_1019" data-name="Grupo 1019" transform="translate(602.056 56.904)" opacity="0.8"><path id="Trazado_4242" data-name="Trazado 4242" d="M-201.6,3013.913a5.433,5.433,0,0,1,.369-2.036,4.915,4.915,0,0,1,1.053-1.637,4.654,4.654,0,0,1,1.675-1.091,6.236,6.236,0,0,1,2.277-.39,6.231,6.231,0,0,1,2.28.39,4.651,4.651,0,0,1,1.675,1.091,4.96,4.96,0,0,1,1.053,1.637,5.433,5.433,0,0,1,.369,2.036,4.945,4.945,0,0,1-1.4,3.586,5.3,5.3,0,0,1-3.976,1.44,5.291,5.291,0,0,1-3.973-1.44A4.944,4.944,0,0,1-201.6,3013.913Zm9.307-12.233h-8.143l-.9-40.011h9.973Z" transform="translate(201.606 -2961.67)" fill="#fff"></path></g><path id="Trazado_4243" data-name="Trazado 4243" d="M-1159.8,2991c11.558-44.923,31.1-83.991,83.991-83.991,46.386,0,88.462,40.863,85.4,91.222-2.81,46.3-43.018,85.521-92.24,80.01C-1128.745,3073.076-1173.037,3042.439-1159.8,2991Z" transform="translate(1484.86 -2866.004)" fill="#afcdfb"></path><path id="Trazado_4244" data-name="Trazado 4244" d="M-915.793,3091.95a35.378,35.378,0,0,1-8.056,22.738,29.732,29.732,0,0,0-6.832,18.846v9.926a11.4,11.4,0,0,1-2.722,7.39,11.438,11.438,0,0,1-8.726,4.072h-18.323a11.491,11.491,0,0,1-11.456-11.459v-9.909a29.612,29.612,0,0,0-6.814-18.814,35.375,35.375,0,0,1-8.088-22.566,35.522,35.522,0,0,1,27.77-34.665c.456-.1.909-.192,1.369-.274.244-.046.486-.087.733-.128a35.708,35.708,0,0,1,5.642-.448A35.438,35.438,0,0,1-915.793,3091.95Z" transform="translate(1360.498 -2972.13)" fill="#f9ddbf"></path><path id="Trazado_4245" data-name="Trazado 4245" d="M-881.826,3394.512l-.041.305-.5,3.86-.131,1.018h0l-.137,1.024-.5,3.859-.134,1.018h0l-.134,1.027-.073.564c-.256,1.96-2.5,3.455-5.174,3.455h-6.032a6.925,6.925,0,0,1-1.818-.239h0a5.9,5.9,0,0,1-1.4-.582l-.035-.02a4.7,4.7,0,0,1-.913-.7,3.313,3.313,0,0,1-1-1.879l-.212-1.5-.137-.942h0v-.021h0l-.134-.925-.512-3.577-.134-.939v-.02l-.131-.928-.555-3.877Z" transform="translate(1300.12 -3211.712)" fill="#ed7d2b"></path><path id="Trazado_4246" data-name="Trazado 4246" d="M-882.879,3394.54h-3.412c-5.5,1.591-10.962,3.162-13.489,3.877l.131.928v.021l.134.939c2.036-.582,6.98-1.975,18.983-5.459l.041-.305Z" transform="translate(1298.779 -3211.741)" fill="#f99746"></path><path id="Trazado_4247" data-name="Trazado 4247" d="M-896.956,3414.976h0v.02h0l.137.942c2.367-.666,7.254-2.068,17.43-5.017l.137-1.024h0l.131-1.018c-6.43,1.864-14.213,4.112-17.968,5.177Z" transform="translate(1296.872 -3221.911)" fill="#f99746"></path><path id="Trazado_4248" data-name="Trazado 4248" d="M-891.07,3434.423l.035.021a5.9,5.9,0,0,0,1.4.582h0c2.792-.8,6.934-2,13.088-3.781l.134-1.027h0l.134-1.018c-5.5,1.594-11.817,3.417-15.705,4.534a4.694,4.694,0,0,0,.91.689Z" transform="translate(1293.248 -3236.32)" fill="#f99746"></path><rect id="Rect&#xE1;ngulo_2842" data-name="Rect&#xE1;ngulo 2842" width="1.613" height="46.287" transform="translate(396.077 142.091) rotate(-9.744)" fill="#ed7d2b"></rect><rect id="Rect&#xE1;ngulo_2843" data-name="Rect&#xE1;ngulo 2843" width="45.297" height="1.6" transform="matrix(0.181, -0.984, 0.984, 0.181, 410.497, 181.736)" fill="#ed7d2b"></rect><path id="Trazado_4249" data-name="Trazado 4249" d="M-894.823,3244.362a3.032,3.032,0,0,1-.7-.087.989.989,0,0,1-.785-.873c-.183-1,.6-2.844,1.71-4.4a4.348,4.348,0,0,0-2.155-2.085c-1.192-.364-3.025.739-4.3,2.144a9.612,9.612,0,0,1,.628,1.021c.651,1.233,1.123,2.81.48,3.54-.239.271-.724.515-1.687.151a2,2,0,0,1-1.187-2.8,6.4,6.4,0,0,1,1.14-1.949c-.986-1.285-2.306-2.266-3.606-2.1a3.965,3.965,0,0,0-1.783.672c.829,1.547,1.021,3.51.445,4.563a1.446,1.446,0,0,1-1.934.64c-.611-.218-.931-1.062-.814-2.149a4.985,4.985,0,0,1,1.667-3.179,4.164,4.164,0,0,0-.922-1.035,3.055,3.055,0,0,0-4.168.207l-.352-.337a3.6,3.6,0,0,1,4.816-.253,4.54,4.54,0,0,1,1.012,1.126,4.441,4.441,0,0,1,1.975-.736c1.454-.183,2.908.843,3.987,2.21,1.387-1.507,3.362-2.618,4.741-2.2a4.659,4.659,0,0,1,2.327,2.138,8.343,8.343,0,0,1,1.87-1.838c1.015-.672,1.675-.518,2.036-.271a3.615,3.615,0,0,1,.986.986,5.281,5.281,0,0,1,.942-.608,2.672,2.672,0,0,1,3.039.119l-.314.372a2.282,2.282,0,0,0-2.507-.058,4.993,4.993,0,0,0-.9.582,5.145,5.145,0,0,1,.486,4.141,1.025,1.025,0,0,1-.574.561,1.026,1.026,0,0,1-.8-.023,1.827,1.827,0,0,1-1.352-1.664,4.389,4.389,0,0,1,1.611-3.106,3.157,3.157,0,0,0-.872-.9c-.46-.291-1.076-.02-1.515.268a8.211,8.211,0,0,0-1.879,1.891,6.322,6.322,0,0,1,.832,4.045A1.574,1.574,0,0,1-894.823,3244.362Zm.48-4.875c-.963,1.4-1.637,2.99-1.483,3.839a.521.521,0,0,0,.416.474c.951.218,1.539-.061,1.745-.826A5.7,5.7,0,0,0-894.343,3239.487Zm-7.03-.038a5.782,5.782,0,0,0-.98,1.69,1.515,1.515,0,0,0,.9,2.187c.387.146.9.262,1.163-.02.381-.434.157-1.661-.547-2.987a8.945,8.945,0,0,0-.535-.869Zm-6.076-1.539a4.477,4.477,0,0,0-1.434,2.8c-.09.832.113,1.5.5,1.64a.983.983,0,0,0,1.341-.416A4.873,4.873,0,0,0-907.448,3237.911Zm17.939.311a3.9,3.9,0,0,0-1.376,2.65,1.373,1.373,0,0,0,1.035,1.236.547.547,0,0,0,.453.031.547.547,0,0,0,.32-.322A4.673,4.673,0,0,0-889.509,3238.222Z" transform="translate(1308.254 -3098.755)" fill="#ed7d2b"></path><path id="Trazado_4250" data-name="Trazado 4250" d="M-829.692,3094.9c2.908,2.751,2.551,7.812-1.2,8.938a8.277,8.277,0,0,1-9.138-3.9c-2.085-3.606-1.126-6.584,1.434-8.062S-832.731,3092.039-829.692,3094.9Z" transform="translate(1257.216 -2996.713)" fill="#fff0e3"></path><rect id="Rect&#xE1;ngulo_2844" data-name="Rect&#xE1;ngulo 2844" width="2.6" height="16.252" rx="1.3" transform="translate(406.942 61.601)" fill="#fff0e3"></rect><rect id="Rect&#xE1;ngulo_2845" data-name="Rect&#xE1;ngulo 2845" width="2.609" height="10.182" rx="1.305" transform="translate(455.226 86.866) rotate(60.113)" fill="#fff0e3"></rect><path id="Trazado_4251" data-name="Trazado 4251" d="M-705.75,3153.77h0a1.3,1.3,0,0,1,1.3-1.3H-687.1a1.3,1.3,0,0,1,1.3,1.3h0a1.3,1.3,0,0,1-1.3,1.3h-17.351A1.3,1.3,0,0,1-705.75,3153.77Z" transform="translate(1161.181 -3040.074)" fill="#fff0e3"></path><path id="Trazado_4252" data-name="Trazado 4252" d="M-791.061,2995.136h0a1.3,1.3,0,0,1-.683-1.707l9.208-21.592a1.309,1.309,0,0,1,1.707-.686h0a1.309,1.309,0,0,1,.686,1.707l-9.211,21.592A1.306,1.306,0,0,1-791.061,2995.136Z" transform="translate(1222.239 -2911.417)" fill="#fff0e3"></path><path id="Trazado_4253" data-name="Trazado 4253" d="M-1029.94,3075.131l.186-.326a1.114,1.114,0,0,0-.407-1.518l-6.861-3.961a1.114,1.114,0,0,0-1.521.407l-.186.323a1.12,1.12,0,0,0,.407,1.521l6.861,3.961A1.12,1.12,0,0,0-1029.94,3075.131Z" transform="translate(1397.421 -2981.006)" fill="#fff0e3"></path><path id="Trazado_4254" data-name="Trazado 4254" d="M-1072.918,3153.77h0a1.3,1.3,0,0,0-1.3-1.3h-17.351a1.3,1.3,0,0,0-1.3,1.3h0a1.3,1.3,0,0,0,1.3,1.3h17.351A1.3,1.3,0,0,0-1072.918,3153.77Z" transform="translate(1435.711 -3040.074)" fill="#fff0e3"></path><path id="Trazado_4255" data-name="Trazado 4255" d="M-967.756,2995.134h0a1.309,1.309,0,0,0,.686-1.707l-9.211-21.592a1.3,1.3,0,0,0-1.7-.687h0a1.306,1.306,0,0,0-.686,1.707l9.211,21.592A1.3,1.3,0,0,0-967.756,2995.134Z" transform="translate(1354.799 -2911.415)" fill="#fff0e3"></path><path id="Trazado_4256" data-name="Trazado 4256" d="M-1014.607,3392.684c.017-.492.4-5.785,8.464-6.064,0,0-3.967.474-4.653,2.216,0,0,2.7-2.152,4.9-1.454s3.49,4.546,3.5,5.817-1.21,5.354-2.618,5.7a4.289,4.289,0,0,1-1.69,0,18.5,18.5,0,0,1,1.082,1.931c3.22,6.608-.1,13.062-2.824,12.349-1.745-.457-2.242,2.524-2.242,2.524l-16.973-13.742S-1021.41,3389.057-1014.607,3392.684Z" transform="translate(1389.467 -3206.124)" fill="#2c3a64"></path><path id="Trazado_4257" data-name="Trazado 4257" d="M-1003.1,3803.381l3.606,1.341s15.659-21.717,17.587-40.828a29.062,29.062,0,0,0-.515-9.769l.419-2.42c.125-.721.291-1.588.451-2.583.509-2.908,1.21-6.91,2.013-11.453,1.841-10.47,4.229-23.829,6.084-33.656l-.971-.314-10.514-3.388-2.17-6.9-7.829-2.059s-1.745,3.42-3.31,19.576c-.291,2.12-.55,4.456-.747,6.98a138.194,138.194,0,0,0,.745,28.3q.535,4.208,1.376,8.685a38.555,38.555,0,0,1,.291,8.58C-997.365,3779.105-1003.1,3803.381-1003.1,3803.381Z" transform="translate(1372.05 -3422.227)" fill="#1c468a"></path><path id="Trazado_4258" data-name="Trazado 4258" d="M-989,3709.2l16.994,33.787c.125-.721.291-1.588.451-2.583.509-2.908,1.21-6.91,2.013-11.453,1.841-10.47,4.229-23.829,6.084-33.656l-.971-.314-10.514-3.388-2.17-6.9-10.179-5.636s0,1.576-.872,18.765C-988.45,3699.933-988.8,3706.666-989,3709.2Z" transform="translate(1362.051 -3413.504)" fill="#163560"></path><path id="Trazado_4259" data-name="Trazado 4259" d="M-963.28,3682.333l.393-3.374c6.59,1.745,24.966-6.439,24.966-6.439s5.622,7.158,4.784,20.615c-.41,6.567-1.163,34.473-1.937,42.73-.291,2.993-.529,5.125-.631,5.974h0a1.183,1.183,0,0,0,.189.733,38.317,38.317,0,0,1,2.882,6.058c7.664,20.42-1.181,45.566-1.181,45.566l-2.295-.925s-5.032-27.984-9.121-40.348a24.336,24.336,0,0,0-1.969-4.729c-1.777-2.871-3.426-7.562-4.924-13.134-2.83-10.54-5.11-24.256-6.625-34.843A104.28,104.28,0,0,0-963.28,3682.333Z" transform="translate(1343.811 -3408.873)" fill="#1c468a"></path><path id="Trazado_4260" data-name="Trazado 4260" d="M-1125.348,3575.858l-.512,3.88s2.327-.314,2.716-.34c1.2-.081,4.755-.311,8.056-.666,4.965-.491,8.565-.6,10.909-2.053,3.574-2.181,9.441-8.865,13.262-15.551a4.308,4.308,0,0,0,.271-.491c1.992-3.545,3.385-7.067,3.49-9.888a14.109,14.109,0,0,0-.462-4.473,11.383,11.383,0,0,0-2.021-4.04,2.031,2.031,0,0,0-.381-.462,9.4,9.4,0,0,0-2.591-2.211c-.654-.273-2.83,2.365-3.566,3.156l-.617,1.83c-.6.628-7.193,21.813-10.165,25.117-1.283,1.419-7.271,3.65-12.7,5.157A25.409,25.409,0,0,1-1125.348,3575.858Z" transform="translate(1459.106 -3314.571)" fill="#f2a16b"></path><path id="Trazado_4261" data-name="Trazado 4261" d="M-1006.58,3505.726a20.535,20.535,0,0,0,7.591,1.777c11.343.622,13.905-9.307,14.373-15.906a9.539,9.539,0,0,0-3.889-.491c-.657.035-1.338.1-1.943.166a1.1,1.1,0,0,1-.8-.224c-1.428-1.12-3.6-4.511-4.906-9.857l-.489.227-8.178,3.845s.873,2.661,1.509,5.206a26.2,26.2,0,0,1,.614,3.024,1.792,1.792,0,0,1-1.085,1.859h0a56.366,56.366,0,0,0-2.8,10.374Z" transform="translate(1374.518 -3273.19)" fill="#ffb27d"></path><path id="Trazado_4262" data-name="Trazado 4262" d="M-975.508,3564.207c-.093,4.194-29.61,7.908-34.688,5.1,0,0-1.318-6.355-3-13.5-.5-2.149-1.044-4.363-1.585-6.5a85.25,85.25,0,0,0-3.6-11.788c-.1-.227-.2-.445-.291-.675-2.26-5.994,1.975-12.407-.951-14.3,0,0,1.745-1.6,6.585-3.49-.076.291-.506,4.264.323,5.817,1.64,3.077,8.053,1.469,10.979-2.327a20.75,20.75,0,0,0,3.644-6.573c.134-.474.334-1.163.334-1.163s5.41-.733,8.434.5a23.491,23.491,0,0,0-1.64,5.482c-.044.276-.076.55-.1.823a11.07,11.07,0,0,0-.044,1.725,3.328,3.328,0,0,0,1.044,2.059,16.248,16.248,0,0,0,2.181,1.806c.561.407,1.163.832,1.786,1.294a146.754,146.754,0,0,0,.445,14.9,10.014,10.014,0,0,0,1.454,4.226,10.342,10.342,0,0,0,1.073,1.454C-979.926,3552.623-975.4,3563.718-975.508,3564.207Z" transform="translate(1383.765 -3296.872)" fill="#f99746"></path><path id="Trazado_4263" data-name="Trazado 4263" d="M-1000.53,3485.825s.873,2.658,1.509,5.206c4.781-1.335,6.233-6.358,6.669-9.051Z" transform="translate(1370.227 -3273.75)" fill="#ed985f"></path><path id="Trazado_4264" data-name="Trazado 4264" d="M-1021.729,3454.163s11.436-2.647,9.676-9.74-1.454-12.215-8.839-10.828-8.12,4.447-8.109,6.96S-1024.745,3454.669-1021.729,3454.163Z" transform="translate(1390.417 -3239.276)" fill="#ffb27d"></path><path id="Trazado_4265" data-name="Trazado 4265" d="M-1032.441,3433.372c1.23-2.574,2.676-2.437,3.58-1.981a8.206,8.206,0,0,1,10.645-.91,13.96,13.96,0,0,0,6.425,6.9s-1.745,1.8-6.849,1.745a8.286,8.286,0,0,1-4.54-1.71,27.388,27.388,0,0,0,5.962,4.447c-6.375-1.222-10.648-8.6-11.087-9.383a9.173,9.173,0,0,0-1.658,3.926c-.119,1.949.55,5.73-.564,5.875C-1030.528,3442.3-1034.285,3437.228-1032.441,3433.372Z" transform="translate(1393.219 -3236.121)" fill="#2c3a64"></path><path id="Trazado_4266" data-name="Trazado 4266" d="M-1026.6,3541.92s-1.015.582-2.871,6.256c0,0,2.126,2.641,4.717,2.394C-1024.753,3550.569-1024.406,3542.568-1026.6,3541.92Z" transform="translate(1390.75 -3316.257)" fill="#f99746"></path><path id="Trazado_4267" data-name="Trazado 4267" d="M-907.84,4072.4h18.16a9.991,9.991,0,0,0-.515-4.869c-.907-2.012-2.327-2.929-1.989-5.366a6.552,6.552,0,0,1-5.66,2.164c-.323.521-2.077,3.313-3.153,4.072C-902.183,4069.272-907.474,4068.967-907.84,4072.4Z" transform="translate(1304.495 -3685.198)" fill="#2358a5"></path><path id="Trazado_4268" data-name="Trazado 4268" d="M-1041.89,4074.4h18.157s.681-2.908-.512-4.869c-1.056-1.745-.651-2.737.131-4.179a7.048,7.048,0,0,1-3.06.582,6.429,6.429,0,0,1-2.7-.948,65.109,65.109,0,0,1-5.171,5.433C-1036.233,4071.272-1041.526,4070.967-1041.89,4074.4Z" transform="translate(1399.558 -3687.198)" fill="#2358a5"></path><path id="Trazado_4269" data-name="Trazado 4269" d="M-1123.056,3607.351a11.094,11.094,0,0,0-2.586-2.594c-.995-.448-1.94-3.222-2.49-2.376-.334.518.512,2.437.291,2.868s-2.414-.48-2.8-1.1c-.259-.413-2.522-3.144-2.574-1.885s1.925,6.09,2.908,6.707a26.1,26.1,0,0,0,4.653,1.454Z" transform="translate(1464.321 -3358.82)" fill="#ffb27d"></path><path id="Trazado_4270" data-name="Trazado 4270" d="M-981.2,3580.06c-4.107,10.046-19.911,22.488-19.911,22.488l-.273-.308c-.5-2.149-1.044-4.363-1.585-6.5l16.834-15.676Z" transform="translate(1371.958 -3343.304)" fill="#ed7d2b"></path><path id="Trazado_4271" data-name="Trazado 4271" d="M-1106.665,3548.781l-.515,2.865s9.016,2.065,11.023,2.5h.023c3.441.683,7.323,1.387,10.7,1.745a28.188,28.188,0,0,0,6.108.073,3.094,3.094,0,0,0,.462-.087c3.868-.771,10.179-5.381,15.9-10.79.794-.748,1.562-1.5,2.327-2.237a74.819,74.819,0,0,0,7.14-8.1,29.418,29.418,0,0,0,2.734-4.177,12.947,12.947,0,0,0,.608-1.254c3.257-7.21.146-9.845.146-9.845-.061-.058-.125-.116-.212-.186-.582-.387-1.413-.262-2.458.247a24.761,24.761,0,0,0-4.811,3.464c-2.882,2.548-20.184,23.61-24.224,24.413C-1085.213,3548.1-1106.665,3548.781-1106.665,3548.781Z" transform="translate(1445.859 -3300.046)" fill="#ffb27d"></path><path id="Trazado_4272" data-name="Trazado 4272" d="M-947.492,3516.45a5.492,5.492,0,0,1,3.833,4.682c.308,3.694-.172,15.124-.172,15.124s-11.526-3.307-16.22-10.354C-960.036,3525.917-951.587,3516.54-947.492,3516.45Z" transform="translate(1341.521 -3298.195)" fill="#f99746"></path><rect id="Rect&#xE1;ngulo_2846" data-name="Rect&#xE1;ngulo 2846" width="842.006" height="3.478" rx="1.739" transform="translate(0 387.207)" fill="#2e3552"></rect></g></svg>