<svg xmlns="http://www.w3.org/2000/svg" width="496.93" height="305.504" viewBox="0 0 496.93 305.504"><g id="pasear_mascotas" data-name="pasear mascotas" transform="translate(-3211.209 -2271.131)"><path id="Trazado_4057" data-name="Trazado 4057" d="M3697.142,2574.525c51.9-41.774,69.816-170.864,4.95-163.585,11.168-134.617-127.247-181.28-170.734-95.828-31.659-61.578-116.233-51.811-135.052-11.659-58.242-21.7-113.854,20.114-134.169,80.874-19.738,59.035,1.5,154.613,48.056,189.454C3550.619,2573.781,3697.142,2574.525,3697.142,2574.525Z" transform="translate(-35.682)" fill="#e1ecfd"></path><g id="Grupo_1017" data-name="Grupo 1017" transform="translate(3211.209 2310.529)"><path id="Trazado_4058" data-name="Trazado 4058" d="M4549.318,3414.2s-57.818-76.8-94.2-88.58-2.092,35-2.092,35-64.009-68.056-88.232-64.216c-26.522,4.2-6.421,41.07-6.421,41.07s-18.034-15.715-47.689-15.715,22.921,90.711,22.921,90.711Z" transform="translate(-4104.357 -3150.203)" fill="#86b1f2"></path><path id="Trazado_4059" data-name="Trazado 4059" d="M3606.511,3511.034s-34.569-105.694-83.516-93.472c-39.665,9.9-11.464,63.086-13.882,60.668s-23.692-38.515-58.114-38.515,10.566,48.717,10.566,48.717-73.339-22.9-79.082,1.147c-4.766,19.961,21.889,21.453,21.889,21.453Z" transform="translate(-3351.032 -3248.763)" fill="#9bc1f9"></path><g id="Grupo_996" data-name="Grupo 996" transform="translate(422.279 171.463)"><g id="Grupo_994" data-name="Grupo 994" transform="translate(29.044 5.455)"><path id="Trazado_4060" data-name="Trazado 4060" d="M5713.67,3481.135a209.327,209.327,0,0,1,9.642,71.644h.921a210.64,210.64,0,0,0-9.683-71.073c-1.689-5.325-3.385-11.558-8.355-14.792-.095-.062-.178.086-.088.151C5710.578,3470.273,5712.089,3476.155,5713.67,3481.135Z" transform="translate(-5706.068 -3466.9)" fill="#466eb6"></path></g><g id="Grupo_995" data-name="Grupo 995" transform="translate(5.287 25.548)"><path id="Trazado_4061" data-name="Trazado 4061" d="M5612.5,3643.756a261.547,261.547,0,0,0-37.354-65.714c-.161-.207-.529.072-.368.283a261.288,261.288,0,0,1,36.58,65.431Z" transform="translate(-5574.742 -3577.969)" fill="#466eb6"></path></g><path id="Trazado_4062" data-name="Trazado 4062" d="M5737.948,3457.945a9.235,9.235,0,0,0-2.815,2.824,7.094,7.094,0,0,0-.974,3.39,7.687,7.687,0,0,1-1.022-3.807c-.089-2.129,1.072-4.737,2.08-5.434,1.87-1.685,4.236-1.272,4.42-.163C5739.85,3455.865,5738.887,3457.04,5737.948,3457.945Z" transform="translate(-5699.192 -3450.703)" fill="#466eb6"></path><path id="Trazado_4063" data-name="Trazado 4063" d="M5699.344,3550.211a9.233,9.233,0,0,1,3.832-1.1,7.116,7.116,0,0,1,3.438.784,7.685,7.685,0,0,0-2.839-2.733c-1.821-1.106-4.666-1.35-5.764-.8-2.378.823-3.159,3.095-2.277,3.791C5696.6,3550.871,5698.1,3550.6,5699.344,3550.211Z" transform="translate(-5668.271 -3526.299)" fill="#466eb6"></path><path id="Trazado_4064" data-name="Trazado 4064" d="M5713.011,3599.256a9.232,9.232,0,0,1,3.833-1.1,7.121,7.121,0,0,1,3.439.784,7.7,7.7,0,0,0-2.84-2.733c-1.82-1.106-4.665-1.35-5.762-.8-2.379.823-3.16,3.094-2.277,3.791C5710.271,3599.915,5711.765,3599.639,5713.011,3599.256Z" transform="translate(-5679.466 -3566.47)" fill="#466eb6"></path><path id="Trazado_4065" data-name="Trazado 4065" d="M5597.45,3673.533a9.219,9.219,0,0,1,3.833-1.1,7.117,7.117,0,0,1,3.438.784,7.687,7.687,0,0,0-2.84-2.733c-1.82-1.106-4.666-1.35-5.763-.8-2.378.823-3.16,3.095-2.277,3.791C5594.71,3674.191,5596.2,3673.917,5597.45,3673.533Z" transform="translate(-5584.811 -3627.311)" fill="#466eb6"></path><path id="Trazado_4066" data-name="Trazado 4066" d="M5562.629,3621.147a9.237,9.237,0,0,1,3.833-1.1,7.105,7.105,0,0,1,3.438.784,7.683,7.683,0,0,0-2.84-2.733c-1.821-1.106-4.666-1.35-5.763-.8-2.378.823-3.16,3.094-2.277,3.791C5559.89,3621.807,5561.384,3621.532,5562.629,3621.147Z" transform="translate(-5556.29 -3584.402)" fill="#466eb6"></path><path id="Trazado_4067" data-name="Trazado 4067" d="M5758.185,3515.281a9.232,9.232,0,0,0-3.226,2.344,7.128,7.128,0,0,0-1.5,3.194,7.693,7.693,0,0,1-.408-3.92c.247-2.116,1.806-4.509,2.911-5.038,2.111-1.37,4.384-.589,4.39.536C5760.39,3513.526,5759.254,3514.535,5758.185,3515.281Z" transform="translate(-5715.42 -3497.675)" fill="#466eb6"></path><path id="Trazado_4068" data-name="Trazado 4068" d="M5775.868,3568.072c-.639.147-2.74.161-4.117,1.361a6.153,6.153,0,0,0-2.116,3.169,10.2,10.2,0,0,1-.109-4.91c.505-2.437,2.617-4.614,4-4.75,2.679-.692,5.341,1.279,5.238,2.638C5778.7,3566.958,5777.231,3567.658,5775.868,3568.072Z" transform="translate(-5728.778 -3539.996)" fill="#466eb6"></path><path id="Trazado_4069" data-name="Trazado 4069" d="M5793.6,3650.3c-.655.038-2.729-.3-4.288.65a6.157,6.157,0,0,0-2.618,2.768,10.2,10.2,0,0,1,.718-4.857c.908-2.318,3.355-4.108,4.742-4.01,2.758-.231,5.051,2.159,4.722,3.481C5796.575,3649.675,5795.011,3650.118,5793.6,3650.3Z" transform="translate(-5743.031 -3607.188)" fill="#466eb6"></path><path id="Trazado_4070" data-name="Trazado 4070" d="M5672.882,3675.835a6.561,6.561,0,0,0-3.272,1.342,5.009,5.009,0,0,0-1.54,2.7,8.3,8.3,0,0,1-.369-3.988c.272-2.012,1.866-3.9,2.983-4.092,2.14-.715,4.418.736,4.412,1.847C5675.121,3674.768,5673.966,3675.421,5672.882,3675.835Z" transform="translate(-5645.497 -3629.119)" fill="#466eb6"></path><path id="Trazado_4071" data-name="Trazado 4071" d="M5680.682,3465.537a5.474,5.474,0,0,1,2.218-.819,4.221,4.221,0,0,1,2.069.313,4.561,4.561,0,0,0-1.8-1.493,4.472,4.472,0,0,0-3.444-.223c-1.371.591-1.734,1.969-1.181,2.342A2.427,2.427,0,0,0,5680.682,3465.537Z" transform="translate(-5654.276 -3458.305)" fill="#466eb6"></path><path id="Trazado_4072" data-name="Trazado 4072" d="M5702.588,3439.059a5.494,5.494,0,0,0-.519,2.308,4.231,4.231,0,0,0,.585,2.009,4.548,4.548,0,0,1-1.717-1.586,4.465,4.465,0,0,1-.678-3.384c.4-1.437,1.722-1.979,2.165-1.481A2.427,2.427,0,0,1,5702.588,3439.059Z" transform="translate(-5672.171 -3436.743)" fill="#466eb6"></path><path id="Trazado_4073" data-name="Trazado 4073" d="M5547.9,3578.969a5.48,5.48,0,0,1,2.22-.819,4.234,4.234,0,0,1,2.068.313,4.558,4.558,0,0,0-1.8-1.493,4.471,4.471,0,0,0-3.444-.224c-1.371.591-1.733,1.969-1.181,2.342A2.424,2.424,0,0,0,5547.9,3578.969Z" transform="translate(-5545.518 -3551.216)" fill="#466eb6"></path><path id="Trazado_4074" data-name="Trazado 4074" d="M5572.694,3552.786a5.474,5.474,0,0,0-.706,2.257,4.219,4.219,0,0,0,.418,2.049,4.555,4.555,0,0,1-1.582-1.721,4.468,4.468,0,0,1-.4-3.428c.52-1.4,1.878-1.832,2.278-1.3A2.426,2.426,0,0,1,5572.694,3552.786Z" transform="translate(-5565.766 -3529.86)" fill="#466eb6"></path></g><g id="Grupo_1000" data-name="Grupo 1000" transform="translate(303.728 201.979)"><g id="Grupo_997" data-name="Grupo 997" transform="translate(5.903 6.13)"><path id="Trazado_4075" data-name="Trazado 4075" d="M4922.91,3639.442a171,171,0,0,1,31.493,42.06c2.283,4.385,4.215,8.9,6.206,13.417.264.6,1.289.173,1.065-.449l-.666-1.858c-.13-.364-.79-.345-.731.1q.127.957.252,1.914l1.145-.155a135.277,135.277,0,0,0-12.006-23.431c-13.846-22.158-28.184-33.013-26.758-31.6Z" transform="translate(-4922.812 -3639.32)" fill="#466eb6"></path></g><path id="Trazado_4076" data-name="Trazado 4076" d="M4989.634,3659.473a8.707,8.707,0,0,0-2.256,3.006,6.723,6.723,0,0,0-.462,3.293,7.257,7.257,0,0,1-1.455-3.419c-.364-1.975.376-4.562,1.225-5.346,1.522-1.819,3.786-1.746,4.1-.735C4991.134,3657.281,4990.391,3658.5,4989.634,3659.473Z" transform="translate(-4968.146 -3646.495)" fill="#466eb6"></path><path id="Trazado_4077" data-name="Trazado 4077" d="M4942.8,3609.341a8.7,8.7,0,0,0-2.256,3.006,6.711,6.711,0,0,0-.463,3.292,7.246,7.246,0,0,1-1.455-3.419c-.363-1.975.376-4.562,1.225-5.346,1.523-1.819,3.786-1.746,4.1-.734C4944.3,3607.148,4943.554,3608.372,4942.8,3609.341Z" transform="translate(-4929.782 -3605.431)" fill="#466eb6"></path><path id="Trazado_4078" data-name="Trazado 4078" d="M4894.035,3652.6a8.714,8.714,0,0,1,3.354-1.7,6.71,6.71,0,0,1,3.322.119,7.252,7.252,0,0,0-3.113-2.029c-1.881-.7-4.558-.425-5.478.274-2.057,1.183-2.379,3.424-1.439,3.913C4891.615,3653.693,4892.949,3653.174,4894.035,3652.6Z" transform="translate(-4890.179 -3640.776)" fill="#466eb6"></path><path id="Trazado_4079" data-name="Trazado 4079" d="M4943.729,3707a8.691,8.691,0,0,1,3.354-1.7,6.7,6.7,0,0,1,3.322.119,7.25,7.25,0,0,0-3.113-2.029c-1.881-.7-4.558-.425-5.478.275-2.057,1.182-2.379,3.423-1.438,3.913C4941.31,3708.093,4942.643,3707.575,4943.729,3707Z" transform="translate(-4930.884 -3685.335)" fill="#466eb6"></path><path id="Trazado_4080" data-name="Trazado 4080" d="M4980.077,3753.467a8.706,8.706,0,0,1,3.354-1.7,6.717,6.717,0,0,1,3.321.119,7.238,7.238,0,0,0-3.111-2.028c-1.883-.7-4.559-.425-5.479.273-2.057,1.183-2.379,3.424-1.438,3.913C4977.656,3754.562,4978.991,3754.043,4980.077,3753.467Z" transform="translate(-4960.656 -3723.398)" fill="#466eb6"></path><path id="Trazado_4081" data-name="Trazado 4081" d="M5010.327,3799.933a8.707,8.707,0,0,1,3.354-1.7,6.714,6.714,0,0,1,3.321.118,7.254,7.254,0,0,0-3.112-2.028c-1.882-.7-4.558-.425-5.478.274-2.057,1.183-2.379,3.424-1.439,3.913C5007.907,3801.028,5009.241,3800.509,5010.327,3799.933Z" transform="translate(-4985.434 -3761.458)" fill="#466eb6"></path><path id="Trazado_4082" data-name="Trazado 4082" d="M5028.418,3710.209a8.705,8.705,0,0,0-2.256,3.006,6.714,6.714,0,0,0-.463,3.292,7.247,7.247,0,0,1-1.455-3.418c-.363-1.975.376-4.562,1.225-5.345,1.523-1.82,3.786-1.747,4.1-.735C5029.918,3708.017,5029.175,3709.24,5028.418,3710.209Z" transform="translate(-4999.914 -3688.052)" fill="#466eb6"></path><path id="Trazado_4083" data-name="Trazado 4083" d="M5062.816,3761.261a8.689,8.689,0,0,0-2.256,3.006,6.719,6.719,0,0,0-.462,3.292,7.254,7.254,0,0,1-1.455-3.418c-.364-1.975.376-4.562,1.225-5.346,1.523-1.819,3.786-1.746,4.1-.735C5064.316,3759.068,5063.572,3760.292,5062.816,3761.261Z" transform="translate(-5028.089 -3729.869)" fill="#466eb6"></path><g id="Grupo_999" data-name="Grupo 999" transform="translate(6.333 39.775)"><g id="Grupo_998" data-name="Grupo 998" transform="translate(5.579 6.604)"><path id="Trazado_4084" data-name="Trazado 4084" d="M4956.031,3861.834a28.2,28.2,0,0,1,3.487,2.933,26.075,26.075,0,0,1,6.168,10.511c.081.267.108.511.353.666a.136.136,0,0,0,.184-.048c.149-.28.025-.54-.059-.833a24.527,24.527,0,0,0-3.671-7.311c-3.126-4.345-5.447-5.349-6.449-5.944-.016-.01-.03.015-.014.025Z" transform="translate(-4956.024 -3861.807)" fill="#466eb6"></path></g><path id="Trazado_4085" data-name="Trazado 4085" d="M4928.227,3862.014a6.982,6.982,0,0,1,2.829-1.044,5.367,5.367,0,0,1,2.637.4,5.8,5.8,0,0,0-2.293-1.9,5.7,5.7,0,0,0-4.392-.285c-1.749.753-2.211,2.511-1.507,2.987C4926.2,3862.664,4927.308,3862.374,4928.227,3862.014Z" transform="translate(-4925.185 -3852.792)" fill="#466eb6"></path><path id="Trazado_4086" data-name="Trazado 4086" d="M4956.159,3828.254a6.98,6.98,0,0,0-.661,2.942,5.4,5.4,0,0,0,.745,2.562,5.821,5.821,0,0,1-2.189-2.022,5.7,5.7,0,0,1-.864-4.315c.516-1.833,2.2-2.524,2.761-1.889C4956.534,3826.156,4956.394,3827.3,4956.159,3828.254Z" transform="translate(-4948.002 -3825.302)" fill="#466eb6"></path></g></g><g id="Grupo_1005" data-name="Grupo 1005" transform="translate(0 158.336)"><g id="Grupo_1001" data-name="Grupo 1001" transform="translate(28.043 5.499)"><path id="Trazado_4087" data-name="Trazado 4087" d="M3366.229,3394.576a50.764,50.764,0,0,1,5.147,3.89c9.033,7.176,18.2,14.12,30.66,28.718a187.7,187.7,0,0,1,36.7,65.892c.272.866,1.641.495,1.364-.376a186.921,186.921,0,0,0-20.747-44.225c-23.792-37.17-53.44-54.092-53.119-53.9Z" transform="translate(-3366.226 -3394.574)" fill="#466eb6"></path></g><g id="Grupo_1002" data-name="Grupo 1002" transform="translate(73.028 9.697)"><path id="Trazado_4088" data-name="Trazado 4088" d="M3614.9,3418.06c1.991,13.113,8.833,24.9,13.55,37.142,12.616,32.735,14.687,57.666,15.822,60.428a.262.262,0,0,0,.512-.07c.314-2.564-2.467-20.518-7.948-39.19-9.113-31.046-18.653-43.173-21.5-58.428-.054-.286-.473-.161-.431.119Z" transform="translate(-3614.901 -3417.78)" fill="#466eb6"></path></g><path id="Trazado_4089" data-name="Trazado 4089" d="M3424.835,3374.834a11.8,11.8,0,0,0-1.935,4.723,9.11,9.11,0,0,0,.52,4.484,9.827,9.827,0,0,1-3.083-3.994c-1.155-2.47-1.068-6.123-.222-7.443,1.378-2.912,4.377-3.591,5.14-2.371C3426.056,3371.44,3425.5,3373.3,3424.835,3374.834Z" transform="translate(-3381.8 -3368.665)" fill="#466eb6"></path><path id="Trazado_4090" data-name="Trazado 4090" d="M3539.536,3490.217a11.774,11.774,0,0,0-1.355,4.9,9.084,9.084,0,0,0,1.044,4.375,9.805,9.805,0,0,1-3.521-3.586c-1.435-2.307-1.781-5.931-1.1-7.336,1.019-3.043,3.9-4.07,4.8-2.953C3540.341,3486.716,3540.009,3488.624,3539.536,3490.217Z" transform="translate(-3475.826 -3463.288)" fill="#466eb6"></path><path id="Trazado_4091" data-name="Trazado 4091" d="M3683.667,3551.98a8.7,8.7,0,0,0-3.454,1.482,6.71,6.71,0,0,0-2.042,2.625,7.247,7.247,0,0,1,.442-3.69c.668-1.893,2.6-3.768,3.726-4.024,2.227-.819,4.153.372,3.924,1.407C3686.06,3550.826,3684.806,3551.517,3683.667,3551.98Z" transform="translate(-3593.64 -3514.829)" fill="#466eb6"></path><path id="Trazado_4092" data-name="Trazado 4092" d="M3698.121,3587.347a8.7,8.7,0,0,0-3.454,1.482,6.71,6.71,0,0,0-2.042,2.624,7.239,7.239,0,0,1,.441-3.689c.669-1.894,2.6-3.768,3.726-4.025,2.227-.819,4.153.373,3.924,1.407C3700.514,3586.194,3699.26,3586.884,3698.121,3587.347Z" transform="translate(-3605.479 -3543.798)" fill="#466eb6"></path><path id="Trazado_4093" data-name="Trazado 4093" d="M3378.482,3447.209a10.879,10.879,0,0,1,3.216-3.428,8.4,8.4,0,0,1,3.955-1.28,9.05,9.05,0,0,0-4.524-1.054c-2.511-.022-5.538,1.447-6.32,2.661-1.912,2.269-1.334,5.041-.02,5.213C3376.106,3449.529,3377.452,3448.35,3378.482,3447.209Z" transform="translate(-3344.208 -3427.457)" fill="#466eb6"></path><path id="Trazado_4094" data-name="Trazado 4094" d="M3448.434,3511.794a10.876,10.876,0,0,1,3.216-3.427,8.389,8.389,0,0,1,3.955-1.28,9.063,9.063,0,0,0-4.524-1.055c-2.511-.022-5.538,1.448-6.32,2.662-1.913,2.268-1.333,5.04-.02,5.213C3446.058,3514.114,3447.4,3512.935,3448.434,3511.794Z" transform="translate(-3401.505 -3480.358)" fill="#466eb6"></path><path id="Trazado_4095" data-name="Trazado 4095" d="M3576.649,3458.274a10.881,10.881,0,0,1,4.663.592,8.391,8.391,0,0,1,3.358,2.45,9.057,9.057,0,0,0-1.8-4.282c-1.457-2.046-4.423-3.634-5.865-3.554-2.958-.217-4.863,1.879-4.232,3.044C3573.375,3457.712,3575.121,3458.109,3576.649,3458.274Z" transform="translate(-3507.265 -3437.313)" fill="#466eb6"></path><path id="Trazado_4096" data-name="Trazado 4096" d="M3597.141,3507.847a10.876,10.876,0,0,1,4.662.592,8.4,8.4,0,0,1,3.358,2.451,9.059,9.059,0,0,0-1.8-4.282c-1.456-2.046-4.423-3.634-5.865-3.554-2.958-.217-4.863,1.879-4.231,3.044C3593.867,3507.284,3595.613,3507.682,3597.141,3507.847Z" transform="translate(-3524.05 -3477.918)" fill="#466eb6"></path><path id="Trazado_4097" data-name="Trazado 4097" d="M3537.5,3611.326a10.873,10.873,0,0,1,3.216-3.427,8.382,8.382,0,0,1,3.955-1.28,9.054,9.054,0,0,0-4.524-1.055c-2.511-.022-5.539,1.448-6.32,2.662-1.913,2.268-1.333,5.04-.02,5.213C3535.118,3613.646,3536.465,3612.467,3537.5,3611.326Z" transform="translate(-3474.454 -3561.885)" fill="#466eb6"></path><path id="Trazado_4098" data-name="Trazado 4098" d="M3345.3,3404.435a6.985,6.985,0,0,1,2.472-1.727,5.384,5.384,0,0,1,2.653-.281,5.811,5.811,0,0,0-2.7-1.26,5.7,5.7,0,0,0-4.321.836c-1.5,1.171-1.5,2.988-.7,3.271C3343.5,3405.578,3344.5,3405.014,3345.3,3404.435Z" transform="translate(-3318.477 -3394.385)" fill="#466eb6"></path><path id="Trazado_4099" data-name="Trazado 4099" d="M3364.029,3366.867a6.974,6.974,0,0,0,.106,3.014,5.381,5.381,0,0,0,1.37,2.289,5.808,5.808,0,0,1-2.631-1.4,5.7,5.7,0,0,1-1.929-3.956c.034-1.9,1.485-3,2.192-2.527C3363.861,3364.742,3364.012,3365.881,3364.029,3366.867Z" transform="translate(-3333.846 -3364.177)" fill="#466eb6"></path><g id="Grupo_1004" data-name="Grupo 1004" transform="translate(0 60.436)"><g id="Grupo_1003" data-name="Grupo 1003" transform="translate(4.757 7.381)"><path id="Trazado_4100" data-name="Trazado 4100" d="M3237.555,3739.209c17.547,5.367,32.734,16.446,47.335,27.209,9.846,7.258,9.019,8.636,11.079,9.83a.452.452,0,0,0,.656-.5c-.53-1.842-2.539-3.4-3.9-4.664a61.281,61.281,0,0,0-5.019-4.111c-3.712-2.762-7.569-5.345-11.394-7.948a183.743,183.743,0,0,0-24.253-14.443,93.089,93.089,0,0,0-14.46-5.511.074.074,0,0,0-.04.143Z" transform="translate(-3237.503 -3739.063)" fill="#466eb6"></path></g><path id="Trazado_4101" data-name="Trazado 4101" d="M3309.047,3703.3a11.767,11.767,0,0,0-1.355,4.9,9.082,9.082,0,0,0,1.044,4.374,9.8,9.8,0,0,1-3.521-3.585c-1.435-2.308-1.781-5.931-1.1-7.336,1.019-3.044,3.9-4.069,4.8-2.953C3309.853,3699.8,3309.521,3701.7,3309.047,3703.3Z" transform="translate(-3287.033 -3698.259)" fill="#466eb6"></path><path id="Trazado_4102" data-name="Trazado 4102" d="M3390.38,3751.111a11.767,11.767,0,0,0-1.355,4.9,9.082,9.082,0,0,0,1.044,4.375,9.8,9.8,0,0,1-3.521-3.585c-1.434-2.307-1.781-5.931-1.1-7.336,1.019-3.044,3.9-4.07,4.8-2.953C3391.186,3747.609,3390.854,3749.517,3390.38,3751.111Z" transform="translate(-3353.653 -3737.422)" fill="#466eb6"></path><path id="Trazado_4103" data-name="Trazado 4103" d="M3471.546,3807.47a11.766,11.766,0,0,0-1.355,4.9,9.077,9.077,0,0,0,1.043,4.374,9.8,9.8,0,0,1-3.521-3.585c-1.434-2.307-1.78-5.931-1.1-7.336,1.019-3.043,3.9-4.069,4.8-2.953C3472.351,3803.969,3472.02,3805.877,3471.546,3807.47Z" transform="translate(-3420.135 -3783.586)" fill="#466eb6"></path><path id="Trazado_4104" data-name="Trazado 4104" d="M3269.174,3776.542a10.86,10.86,0,0,1,3.216-3.427,8.389,8.389,0,0,1,3.955-1.28,9.059,9.059,0,0,0-4.524-1.055c-2.511-.022-5.538,1.447-6.32,2.662-1.912,2.268-1.334,5.04-.02,5.213C3266.8,3778.862,3268.144,3777.682,3269.174,3776.542Z" transform="translate(-3254.673 -3757.648)" fill="#466eb6"></path><path id="Trazado_4105" data-name="Trazado 4105" d="M3353.844,3825.9a10.882,10.882,0,0,1,3.216-3.428,8.392,8.392,0,0,1,3.955-1.28,9.053,9.053,0,0,0-4.524-1.055c-2.51-.021-5.538,1.448-6.32,2.662-1.912,2.268-1.333,5.04-.02,5.212C3351.468,3828.225,3352.814,3827.045,3353.844,3825.9Z" transform="translate(-3324.026 -3798.081)" fill="#466eb6"></path><path id="Trazado_4106" data-name="Trazado 4106" d="M3214.34,3741.206a6.989,6.989,0,0,1,2.472-1.727,5.367,5.367,0,0,1,2.653-.281,5.8,5.8,0,0,0-2.7-1.261,5.7,5.7,0,0,0-4.32.837c-1.5,1.172-1.5,2.988-.7,3.271C3212.542,3742.35,3213.543,3741.787,3214.34,3741.206Z" transform="translate(-3211.209 -3730.67)" fill="#466eb6"></path><path id="Trazado_4107" data-name="Trazado 4107" d="M3233.071,3703.638a6.974,6.974,0,0,0,.106,3.014,5.378,5.378,0,0,0,1.37,2.289,5.818,5.818,0,0,1-2.631-1.4,5.7,5.7,0,0,1-1.928-3.956c.034-1.9,1.485-3,2.192-2.526C3232.9,3701.513,3233.055,3702.652,3233.071,3703.638Z" transform="translate(-3226.579 -3700.462)" fill="#466eb6"></path></g></g><path id="Trazado_4108" data-name="Trazado 4108" d="M3754.271,3935.567h-473.93a2.232,2.232,0,0,0,0,4.406h473.93a2.232,2.232,0,0,0,0-4.406Z" transform="translate(-3266.301 -3673.866)" fill="#184655"></path><g id="Grupo_1009" data-name="Grupo 1009" transform="translate(341.12 36.86)"><g id="Grupo_1006" data-name="Grupo 1006" transform="translate(21.204 205.966)"><path id="Trazado_4109" data-name="Trazado 4109" d="M5232.955,3842.147c.25-1.8-.313-4.893-1.721-9.733,2.789.006,5.134-1.229,7.983-1.185.779,4.552,1.984,12.026,1.984,12.026l.128,5.909-19.844.149s.166.084,6.016-3.611C5227.935,3845.429,5232.712,3843.885,5232.955,3842.147Z" transform="translate(-5220.147 -3831.228)" fill="#f7a491"></path><path id="Trazado_4110" data-name="Trazado 4110" d="M5235.367,3904.721h-20.485c-.758-.067-.943-.686-.68-1.067.541-.784,4.536-2.667,7.223-3.917,4.712.5,12.994-1.444,13.737-2.535C5236.453,3900.815,5235.789,3904.628,5235.367,3904.721Z" transform="translate(-5214.089 -3885.266)" fill="#fae0b2"></path></g><g id="Grupo_1007" data-name="Grupo 1007" transform="translate(45.925 206.36)"><path id="Trazado_4111" data-name="Trazado 4111" d="M5369.611,3843.931a34.006,34.006,0,0,0,.052-10.049c2.789.006,5.442-.517,8.292-.474,0,4.683-.1,11.631-.1,11.631l.129,5.909-19.845.149s.166.085,6.016-3.611C5364.591,3847.213,5369.369,3845.669,5369.611,3843.931Z" transform="translate(-5356.803 -3833.406)" fill="#f7a491"></path><path id="Trazado_4112" data-name="Trazado 4112" d="M5372.021,3904.721h-20.486c-.758-.067-.942-.686-.68-1.067.541-.784,4.537-2.667,7.223-3.917,4.711.5,12.993-1.444,13.737-2.535C5373.107,3900.815,5372.442,3904.628,5372.021,3904.721Z" transform="translate(-5350.742 -3885.66)" fill="#fae0b2"></path></g><path id="Trazado_4113" data-name="Trazado 4113" d="M5236.091,3179.1l6.054,3.376,12.3,18.813-22,51.793s2.478,7.789,3.285,11.68c.845,4.071,2.917,39.017,2.917,39.017l-9.387.158s-8.917-37.2-10.427-49.276c-1.833-14.663,9.332-49.583,9.332-49.583,2.082-7.125,6.571-21.782,6.571-21.782S5235.833,3179.729,5236.091,3179.1Z" transform="translate(-5196.604 -3091.108)" fill="#184655"></path><path id="Trazado_4114" data-name="Trazado 4114" d="M5336.234,3140.043a17.731,17.731,0,0,0,1.878,9.474c1.525,3.077,4.163,5.49,6.05,9.26,3.572,7.134,5.512,17.267,4.172,23.781,0,0-7.386,28.2-7.092,38.512.107,3.8,1.412,10.65,2.246,15.28.737,4.093.479,34.458.479,34.458l-9.975.193-8.027-49.8-3.395-44.27-7.4-29.818Z" transform="translate(-5275.677 -3059.114)" fill="#466eb6"></path><path id="Trazado_4115" data-name="Trazado 4115" d="M5294.448,2707.809c.968-4.572,1.967-9.16,6.51-12.453,3.676-2.665,7.626-3.426,11.815-1.907,11.866,4.3,5.484,13.721,20.209,23.758,4.575,3.119,6.313,4.206,9.6,8.363,4.6,5.817,7.109,13.623,4.8,20.049-4.778,13.289-19.583,17.128-27.328,14.31-14.416-5.244-26.426-23.527-27.224-28.516C5291.97,2726.073,5293.825,2710.752,5294.448,2707.809Z" transform="translate(-5257.196 -2692.675)" fill="#13375b"></path><path id="Trazado_4116" data-name="Trazado 4116" d="M5140.927,2798.409l-7.126-8.183s-8.167,4.054-17.651,7.856c-2.37-4.56-5.928-19.383-6.123-20.091s5.292-9.293,4.156-9.562-2.828,4.588-4.017,4.039-3.817-12.093-4.572-11.5c-1.411,1.108,1.337,7.168.6,7.569s-2.262-6.684-3.661-6.443,2.073,6.479,1.639,7.047-4.09-5.3-4.951-4.015c-.467.7,3.385,5.119,2.536,5.56s-4.37-2.39-4.84-1.541,3.315,1.914,4.285,4.153,2.863,3.175,3.328,7.352,1.282,26.428,5.728,28.4C5114.141,2810.77,5140.927,2798.409,5140.927,2798.409Z" transform="translate(-5096.877 -2748.594)" fill="#f7a491"></path><path id="Trazado_4117" data-name="Trazado 4117" d="M5274.042,2891.589a8.046,8.046,0,0,0,.391-6.515c-5.429,3.307-13.647,8.94-13.647,8.94a75.791,75.791,0,0,0,4.375,12.527c5.037-2.983,5.567-3.086,5.567-3.086C5272.982,2892.689,5274.042,2891.589,5274.042,2891.589Z" transform="translate(-5231.135 -2850.269)" fill="#e8bd70"></path><path id="Trazado_4118" data-name="Trazado 4118" d="M5302.11,2882.081c4.1-1.079,4.937-.54,12.551-.426,11.665.166,17.555-2.521,24.281,27.374a28.177,28.177,0,0,1-10.721,1.755c-.693-3.447-.651-9.573-1.892-5.762a110.852,110.852,0,0,0-4.168,17.555c-.585,3.548-1.857,8.088-1.188,11.7a108.412,108.412,0,0,1-14.012,1.9.28.28,0,0,1-.052,0,47.549,47.549,0,0,1-8.609-.91s-1.2-25.148-1.827-26.2C5290.015,2898.122,5302.11,2882.081,5302.11,2882.081Z" transform="translate(-5258.811 -2847.275)" fill="#f7cc7f"></path><path id="Trazado_4119" data-name="Trazado 4119" d="M5357.323,2812.965s.93,7.5,1.477,10.106c.573,2.725,1.436,11.308-4.216,12.7s-3.9-9.338-4-12.109-1.694-12.434-1.694-12.434Z" transform="translate(-5303.302 -2789.783)" fill="#f7a491"></path><path id="Trazado_4120" data-name="Trazado 4120" d="M5357.631,2815.359c-.058.035-.111.072-.171.105-3.123,1.791-5.842,1.508-7.881.114-.365-2.4-.687-4.349-.687-4.349l8.432,1.735S5357.447,2813.965,5357.631,2815.359Z" transform="translate(-5303.302 -2789.783)" fill="#f47458"></path><path id="Trazado_4121" data-name="Trazado 4121" d="M5337.4,2711.98a9.668,9.668,0,0,1,5.221,4.219c1.91,3.289,2.861,12.733-4.167,16.764s-12.018-2.427-11.806-8.468S5328.544,2710.464,5337.4,2711.98Z" transform="translate(-5285.078 -2708.334)" fill="#f7a491"></path><path id="Trazado_4122" data-name="Trazado 4122" d="M5318.064,2755.18c-.078,1.57.594,2.88,1.5,2.926s1.705-1.19,1.783-2.76-.594-2.88-1.5-2.926S5318.143,2753.61,5318.064,2755.18Z" transform="translate(-5278.045 -2741.612)" fill="#f7a491"></path><path id="Trazado_4123" data-name="Trazado 4123" d="M5380.609,2711.455s3.79,9.878,7.5,10.931,3.413,5.912,3.413,5.912.474-11.231-2.914-13.985A14.719,14.719,0,0,0,5380.609,2711.455Z" transform="translate(-5329.281 -2708.058)" fill="#13375b"></path><path id="Trazado_4124" data-name="Trazado 4124" d="M5412.053,2772.7c-.572,1.544-.2,3.112.838,3.5s2.337-.545,2.909-2.089.2-3.112-.839-3.5S5412.625,2771.157,5412.053,2772.7Z" transform="translate(-5354.818 -2756.441)" fill="#f7a491"></path><path id="Trazado_4125" data-name="Trazado 4125" d="M5379.321,3129.863a.658.658,0,0,1,1.149.28c2.873,6.525,12.582,33.042,1.367,40.711-12.919,8.833-12.2-5.254-3.652-9.342S5379.321,3129.863,5379.321,3129.863Z" transform="translate(-5322.166 -3050.573)" fill="#f47458"></path><path id="Trazado_4126" data-name="Trazado 4126" d="M5314.368,2882.273s-12.5,9.646-12.208,21.88c.19,7.955,9.939,21.567,18.662,19.762,3.324-.688,8.326-4.09,8.522-8.764.205-4.915-4.486-11.1-4.486-11.1l9.623-23.853c.468-.634,4.555-6.038,4.437-6.111-.9-.55-4.586-1.435-7.762,4.634-.513.979-3.479,5.281-5.478,5.794C5320.653,2885.811,5314.368,2882.273,5314.368,2882.273Z" transform="translate(-5265.02 -2840.953)" fill="#f47458"></path><path id="Trazado_4127" data-name="Trazado 4127" d="M5359.34,2921.09s6.284,3.538,11.309,2.247a5.878,5.878,0,0,0,2.341-1.659,33.471,33.471,0,0,1-4.771,5.353,30.141,30.141,0,0,1-11.16-3.927C5358.407,2921.81,5359.34,2921.09,5359.34,2921.09Z" transform="translate(-5309.992 -2879.77)" fill="#b75742"></path><path id="Trazado_4128" data-name="Trazado 4128" d="M5344.893,2831.042s-.313,5.043,1.628,6.35c0,0-.84,4.263-.378,5s3.275,4.659,12.544,5.808c0,0,7.354-6.305,6.536-11.173l-2.914-4.2s-.948-4.962-2.972-6.428l-2.544,5.216s-5.636.987-6.64,2.348Z" transform="translate(-5300.012 -2802.204)" fill="#f47458"></path><path id="Trazado_4129" data-name="Trazado 4129" d="M5412.947,3039.522s7.934-.54,9.526,5.263-.206,6.622-.206,6.622,9.248-4.13,10.292-1.35c.5,1.334-19.192,9.1-19.192,9.1Z" transform="translate(-5355.769 -2976.767)" fill="#f47458"></path><path id="Trazado_4130" data-name="Trazado 4130" d="M5284.482,3046.489c-.138-.025-.7-.292-1.188-.435a9.6,9.6,0,0,0-1.288-.288,3.721,3.721,0,0,0-.615-.7c-.178-.163-.506-.307-.7-.489s-.339-.458-.533-.632c-.508-.446-1.031-.679-1.31-.427-.231.208,2.407,3.271,2.407,3.271,3.033.994,5.717,3.566,14.235,1.234,4.587-.465,27.218-3.837,28.288-5.814.6-1.109.537-11.206.316-18.928-2.161.239-6.751.736-9.3.956.659,5.03,1.229,11.6.746,12.229-.125.164-.477.419-16.458,4.823-.4.107-.814.225-1.233.34-1.125.309-2.328.639-3.6.985l-3.639-1.6s-6.1-1.505-6.494-.883c-.177.285.268.6.847.884l.017.006.257.122.012,0c.631.288,1.318.522,1.466.635a4.084,4.084,0,0,1,.757.73c-4.206.324-3.746-.125-4.954-.6-.3-.124-.658-.14-.943-.258-.486-.2-.79-.628-1.17-.777a1.76,1.76,0,0,0-1.235-.022c-.173.089.01.358.417.726,2.472,2.168,5,2.455,5.706,2.885.473.29-.524.18-1.935-.444a8.135,8.135,0,0,1-1.317-.443c-.3-.175-.523-.478-.814-.656-.269-.165-.569-.255-.8-.381-.3-.163-.671-.551-.918-.663a2.552,2.552,0,0,0-1.573-.342c-.283.126,3.514,3.18,3.514,3.18s2.848,1.389,3.515,1.6C5284.958,3046.314,5285.3,3046.62,5284.482,3046.489Z" transform="translate(-5245.165 -2963.471)" fill="#f7a491"></path><g id="Grupo_1008" data-name="Grupo 1008" transform="translate(69.625 59.806)"><path id="Trazado_4131" data-name="Trazado 4131" d="M5491.117,3025.622a27.808,27.808,0,0,1-9.024,1.387c-.105-.946-.22-1.885-.336-2.776,2.549-.22,7.139-.717,9.3-.956C5491.079,3024.039,5491.1,3024.825,5491.117,3025.622Z" transform="translate(-5481.757 -3023.277)" fill="#f7cc7f"></path></g></g><g id="Grupo_1016" data-name="Grupo 1016" transform="translate(57.79 0)"><g id="Grupo_1012" data-name="Grupo 1012"><g id="Grupo_1011" data-name="Grupo 1011"><path id="Trazado_4132" data-name="Trazado 4132" d="M3956.911,3829.8s.8,8.685.272,11.516a10.9,10.9,0,0,1-.4,1.389c-.539,1.587.937,6.436.937,6.436l19.789.073c1.078,0,.358-.679-.52-1.306-1.436-1.026-2.591-1.7-7.162-3.839-.3-.14-1.385-.811-1.777-1.043a13.694,13.694,0,0,1-2.861-2.46c-1.44-1.561-1.66-9.214-1.66-9.214Z" transform="translate(-3879.598 -3587.232)" fill="#f7a491"></path><path id="Trazado_4133" data-name="Trazado 4133" d="M3963.42,3901.527a17.949,17.949,0,0,1-11.27-.3c-.538,1.585-1.551,6.945-.947,6.945,4.962,0,9.163.939,23.381.715.509-.008.447-1.757.115-2.143C3973.783,3905.677,3963.813,3901.76,3963.42,3901.527Z" transform="translate(-3874.976 -3645.737)" fill="#f7cc7f"></path><path id="Trazado_4134" data-name="Trazado 4134" d="M3820.846,3184.409s.281,12.4,3.834,20.333c3.46,7.732,20.02,26.8,24.42,37.929-1.36,6.277-5.1,15.1-4.83,22.058.307,7.885-.152,28.748-.152,28.748l8.887.281,11.658-53.839-17.568-58.09-7.971-14.106Z" transform="translate(-3768.352 -3044.928)" fill="#3c8f7c"></path><path id="Trazado_4135" data-name="Trazado 4135" d="M3552,3761.547s-5.46,7.493-7.866,9.387c-1.288,1.015-4.786,2.376-5.155,4.054s15.841,16.516,15.841,16.516c.858.76.762-.292.5-1.407-.426-1.827-.875-3.179-3.025-8.093-.141-.32-.538-1.62-.687-2.08a14.545,14.545,0,0,1-.558-3.973c-.055-2.257,5.142-8.523,5.142-8.523Z" transform="translate(-3537.467 -3531.326)" fill="#f7a491"></path><path id="Trazado_4136" data-name="Trazado 4136" d="M3544.8,3826.206a19.076,19.076,0,0,1-8.788-8.151c-1.542.888-5.692,2.781-5.327,3.311,2.867,4.16,5.842,9.333,17.354,19.134.412.351,2.1-1.671,2.107-2.212C3550.167,3836.792,3544.955,3826.668,3544.8,3826.206Z" transform="translate(-3530.667 -3577.612)" fill="#f7cc7f"></path><path id="Trazado_4137" data-name="Trazado 4137" d="M3692.566,2707.034c-1.533-9.995-10.576-17.181-20.033-12.332a22.454,22.454,0,0,0-6.476,5.19c-4.04,5.185-5.019,11.611-9.3,16.6-3.692,4.3-13.548,3.488-18.15,6.794a19.908,19.908,0,0,0-7.828,16.325c0,7.931,1.791,16.349,7.936,21.362s14.877,6.263,22.518,4.139,14.2-7.331,18.914-13.705a69.132,69.132,0,0,0,10.406-20.936A54.111,54.111,0,0,0,3692.566,2707.034Z" transform="translate(-3612.668 -2656.205)" fill="#b75742"></path><path id="Trazado_4138" data-name="Trazado 4138" d="M3605.765,2553.3s-11.61-20.722-14.435-25.127-10.183-21.909-10.445-22.6,5.067-8.973,3.877-9.257-2.506,4.367-3.775,3.812-4.978-11.752-5.7-11.2c-1.354,1.039,2,6.946,1.277,7.318s-2.907-6.5-4.324-6.3,2.695,6.3,2.3,6.835-4.665-5.2-5.437-3.98c-.419.665,3.925,5.013,3.09,5.42s-4.7-2.4-5.108-1.59,3.574,1.918,4.765,4.1,3.22,3.125,4.062,7.166,2.1,18.662,6.417,25.957,13.8,23.44,13.8,23.44Z" transform="translate(-3560.47 -2488.915)" fill="#f79c8d"></path><g id="Grupo_1010" data-name="Grupo 1010" transform="translate(64.11 75.666)"><path id="Trazado_4139" data-name="Trazado 4139" d="M3944.148,3060.8c-1.279-1.1-4.014-3.521-3.765-3.771.323-.326,1.517-.093,1.9.051s.834.276,1.212.42a.789.789,0,0,0,1.01-.476c.212-.457-1.17-1.359-1.71-1.576a64.006,64.006,0,0,0-7.056-1.689c-.6-.138-7.528-8.575-10.13-11.276h0c-4.128-4.549-8.143-9.432-8.577-9.917l-11.307-23.754-10.318.757s12.177,26.538,12.938,27.8c.362.6,10.746,10.4,10.75,10.4,5.417,4.5,10.2,8.46,11.1,9.247,0,0,2.053,3.072,3.245,5.106a13.786,13.786,0,0,0,2.6,3.057c2.143-1.935,4.864-2.521,7.391-3.882C3943.674,3061.134,3943.914,3060.968,3944.148,3060.8Z" transform="translate(-3893.532 -2990.425)" fill="#f48c7f"></path><path id="Trazado_4140" data-name="Trazado 4140" d="M3892.3,2907.189s7.978,3.809,11.91,27.531l-13.522,3.771-5.627-15.29Z" transform="translate(-3885.062 -2907.189)" fill="#f47458"></path></g><path id="Trazado_4141" data-name="Trazado 4141" d="M3627.753,3216.067s-6.871,10.321-8.506,18.863c-1.594,8.32,1.055,33.435-1.713,45.079-4.712,4.366-12.832,9.455-16.6,15.313-4.266,6.639-16.594,23.475-16.594,23.475l7.122,5.322,40.4-37.449,16.354-49.961,5.612-14.61Z" transform="translate(-3574.633 -3084.524)" fill="#50bfa5"></path><path id="Trazado_4142" data-name="Trazado 4142" d="M3794.438,2891.315s-9.1-.578-12.7,3.337,7.983,34.884,8.638,39.866-5.369,14.918-5.369,14.918,25.037,11.707,31.145,7.674c0,0-.979-39.931-1.633-43.491s-6.108-18.033-7.417-19.457S3794.438,2891.315,3794.438,2891.315Z" transform="translate(-3735.755 -2818.496)" fill="#f7cc7f"></path><path id="Trazado_4143" data-name="Trazado 4143" d="M3856.69,2823.472s-.047.267-.131.722c-.406,2.183-1.968,9.423-3.023,11.414-1.275,2.406,4.366,10.078,9.794,9.142,1.616-.279-1.366-7.05-1.223-7.767.274-1.373.646-3.246,1.027-5.166.215-1.083.432-2.182.637-3.214.581-2.934,1.054-5.333,1.054-5.333Z" transform="translate(-3794.979 -2762.785)" fill="#f7a491"></path><path id="Trazado_4144" data-name="Trazado 4144" d="M3869.953,2824.195c.084-.455.132-.722.132-.722l8.135-.2s-.474,2.4-1.054,5.333c-.2,1.027-.419,2.118-.633,3.2a7.623,7.623,0,0,1-3.884-1.944,10.241,10.241,0,0,1-2.943-4.367C3869.806,2824.976,3869.89,2824.533,3869.953,2824.195Z" transform="translate(-3808.373 -2762.785)" fill="#f47458"></path><path id="Trazado_4145" data-name="Trazado 4145" d="M3861.685,2722.273a7.342,7.342,0,0,0-6.238,2.661c-2.4,3.1-4.994,12.7.977,17.913s11.871-.688,12.746-6.949S3870.383,2722.047,3861.685,2722.273Z" transform="translate(-3794.498 -2680.041)" fill="#f7a491"></path><path id="Trazado_4146" data-name="Trazado 4146" d="M3938.385,2781.69c-.713,1.383-1.909,2.148-2.672,1.71s-.8-1.915-.091-3.3,1.909-2.148,2.672-1.71S3939.1,2780.307,3938.385,2781.69Z" transform="translate(-3861.948 -2725.924)" fill="#f7a491"></path><path id="Trazado_4147" data-name="Trazado 4147" d="M3845.874,2716.263s-5.123,9.124-8.788,9.545-4.146,5.27-4.146,5.27,1.311-11.172,4.938-13.326A13.5,13.5,0,0,1,3845.874,2716.263Z" transform="translate(-3778.259 -2675.056)" fill="#b75742"></path><path id="Trazado_4148" data-name="Trazado 4148" d="M3843.814,2770.485c.3,1.62-.3,3.106-1.339,3.319s-2.12-.929-2.418-2.549.3-3.106,1.339-3.319S3843.517,2768.865,3843.814,2770.485Z" transform="translate(-3784.026 -2717.44)" fill="#f7a491"></path><path id="Trazado_4149" data-name="Trazado 4149" d="M3722.028,2807.716s12.842,13.782,14.751,19.336-1.861,13.5-7.068,13.847-16.795-24.462-16.795-24.462Z" transform="translate(-3679.947 -2750.044)" fill="#fae0b2"></path></g></g><g id="Grupo_1015" data-name="Grupo 1015" transform="translate(83.26 146.949)"><path id="Trazado_4150" data-name="Trazado 4150" d="M4548.147,3455.749l-.911,3.316,5.563,1.756.186-1.381Zm.26,3.057.52-1.5,3.264,2.406Z" transform="translate(-4446.598 -3427.797)" fill="#355389"></path><g id="Grupo_1014" data-name="Grupo 1014" transform="translate(0 8.083)"><g id="Grupo_1013" data-name="Grupo 1013"><path id="Trazado_4151" data-name="Trazado 4151" d="M4598.064,3355.911l-1.8-8.134-10.828,6.721,6.194,4.99S4593.577,3354.415,4598.064,3355.911Z" transform="translate(-4477.883 -3347.439)" fill="#f47458"></path><path id="Trazado_4152" data-name="Trazado 4152" d="M4040.6,3560.066s-12.5,5.586-26.333,12.5-17.156,6.251-19.151,4.255-2.128-6.45-2.128-6.45a13.82,13.82,0,0,0-1.6,10.773c1.663,6.051,6.451,6.118,6.451,6.118l3.458-2.062-2.261,4.057a8.192,8.192,0,0,0,9.443-2c4.556-4.555,5.52-7.448,5.52-7.448s-1.8,7.049-3.591,8.845c0,0,5.054,2.26,8.047-1.8a30.608,30.608,0,0,0,4.322-9.243l-1.13,9.509s4.655-1.8,7.182-9.177l-1.33,6.982a47.965,47.965,0,0,0,6.6-13.76c1.909-7.253,5.9-8.051,5.9-8.051Z" transform="translate(-3990.917 -3521.325)" fill="#b75742"></path><path id="Trazado_4153" data-name="Trazado 4153" d="M4289.389,3694.807s.456,15.282-9.835,20.881c-2.5,1.361-6.535,6.322-5.74,9.057.755,2.6,6.909,7.926,6.909,7.926a7.79,7.79,0,0,1,6.213,5.12c.307.764-1.083.575-1.083.575l-10.9.011-9.4-15.9.639-9.966,6.118-15.516,11.7-1.862Z" transform="translate(-4215.868 -3631.692)" fill="#b75742"></path><path id="Trazado_4154" data-name="Trazado 4154" d="M4640.12,3641.753s13.972,21,17.024,25.553a14.476,14.476,0,0,1,2.128,7.165s-.6,6.387-1.86,7.65a2.008,2.008,0,0,1-.928.442,4.319,4.319,0,0,1-5.149-5.4,18.2,18.2,0,0,0,.754-3.359c0-1.463-.665-1.6-.665-1.6l-15.428-8.9-5.054-14.777Z" transform="translate(-4515.161 -3588.235)" fill="#b75742"></path><path id="Trazado_4155" data-name="Trazado 4155" d="M4546.176,3643.082l-2.527,19.975,1.2,22.717s4.921,1.2,6.384,3.724,1.2,2.925,1.2,2.925h-11.7s-9.576-22.775-9.576-25.3-2.526-16.623-2.526-18.485,1.6-10.21,7.181-10.875S4546.176,3643.082,4546.176,3643.082Z" transform="translate(-4431.349 -3584.924)" fill="#f47458"></path><path id="Trazado_4156" data-name="Trazado 4156" d="M4254.1,3352.4l-3.015-4.079s-9.93-2.837-14.187,1.418a12.517,12.517,0,0,0-3.491,5.938,35.984,35.984,0,0,0-.347,6.581,15.346,15.346,0,0,1-1.63,7.068c-1.959,2.987-10.056,9.248-13.284,10.033l2.271-.3a32.623,32.623,0,0,1-7.956,2.926c-13.984,2.2-35.064,2.6-39.756,3.939-5.585,1.6-8.978,18.087-7.448,26.4s-9.846,4.98-12.591,10.352c-2.591,5.072,7.375,28.4,7.375,28.4s2.578,3.14,3.043,3.606h11.26s-.354-7.271-5.985-9.133-4.832-13.876-4.832-13.876,16.092,2.216,24.072-8.246c6.145-8.057,5.561-10.224,4.966-10.8,2.946,1.635,23.512,12.768,33.869,10.8,11.171-2.128,14.719-8.867,14.719-8.867l-.754,4.877s7.515-2.727,6.783-8.845a3.147,3.147,0,0,1,1.129,2.527s3.259-4.19,3.259-17.489c0-7.42-.266-26.218-.266-26.218s13.358-2.449,15.1-4.186c1.179-1.179,2.722-9.789,2.722-9.789Z" transform="translate(-4123.05 -3347.128)" fill="#f47458"></path><path id="Trazado_4157" data-name="Trazado 4157" d="M4585.432,3352.971s2.7,5.844,5.49,6.731,5.338-13.452,5.338-13.452a7.073,7.073,0,0,0-7.267,1.844A39.944,39.944,0,0,0,4585.432,3352.971Z" transform="translate(-4477.883 -3345.912)" fill="#b75742"></path></g><path id="Trazado_4158" data-name="Trazado 4158" d="M4587.9,3548.8c-3.335,3.867-.276.32-2.562,2.979-.473-4.691,1.007-10.545,2.228-15.186-2.078,2.229-4.848,6.668-6.156,8.56,2.356-4.064,1.762-11.911,1.3-16.521-.013.016-2.719,3.217-3.83,4.542-.217-2.09-.576-6.713.137-8.738.73-2.078,2.856-4.513,4.441-6.031a17.45,17.45,0,0,0-4.84,5.88c-1.183,2.92-.33,10.175-.307,10.7,3.957-4.482,1.257-1.43,3.735-4.255.259,3.888.642,11.966-1.164,15.188,2.128-1.345,4.139-4.257,5.362-6.479-3.193,8.249-1.124,13.083-1.12,13.212l2.7-3.5a13.916,13.916,0,0,1,.455,2.113C4588.279,3551.062,4588.022,3549.4,4587.9,3548.8Z" transform="translate(-4471.786 -3487.2)" fill="#b75742"></path></g><path id="Trazado_4159" data-name="Trazado 4159" d="M4576.432,3464.376l-1.81,3.8s1.725,12.853,22.838,11.422l.692-5.444S4578.9,3473.48,4576.432,3464.376Z" transform="translate(-4469.029 -3434.863)" fill="#184655"></path><rect id="Rect&#xE1;ngulo_2840" data-name="Rect&#xE1;ngulo 2840" width="1.561" height="68.878" transform="translate(39.548 1.407) rotate(-64.378)" fill="#184655"></rect></g><path id="Trazado_4160" data-name="Trazado 4160" d="M4114.074,3282.351l-1.693-1.74-9.675-3.527-10.937,5.268,12.734,12.885.922-3.131-8-7.933,6.353-4.162.945.55,3.3,1.922Z" transform="translate(-3990.265 -3134.502)" fill="#fae0b2"></path><path id="Trazado_4161" data-name="Trazado 4161" d="M4168.812,3305.278a8.975,8.975,0,1,1-8.975-8.974A8.975,8.975,0,0,1,4168.812,3305.278Z" transform="translate(-4038.669 -3150.246)" fill="#f7cc7f"></path><path id="Trazado_4162" data-name="Trazado 4162" d="M4180.843,3322.863a4.952,4.952,0,1,1-4.952-4.952A4.952,4.952,0,0,1,4180.843,3322.863Z" transform="translate(-4055.113 -3167.944)" fill="#fae0b2"></path><path id="Trazado_4163" data-name="Trazado 4163" d="M4125.5,3259.933s2.775,5.169,2.488,6.142c-.155.527-4.533,3.612-7.082,3.612s.48-5.487,1.025-4.942.195,1.772.195,1.772.464-3.78,1.073-4.39.842.683.842.683-.914-3.219,0-3.512A1.326,1.326,0,0,1,4125.5,3259.933Z" transform="translate(-4013.309 -3119.888)" fill="#f79c8d"></path></g></g></g></svg>