<svg xmlns="http://www.w3.org/2000/svg" xmlns:xlink="http://www.w3.org/1999/xlink" width="70" height="70" viewBox="0 0 70 70"><defs><clipPath id="clip-path"><rect id="Rect&#xE1;ngulo_642" data-name="Rect&#xE1;ngulo 642" width="35" height="30.481" fill="#fff"></rect></clipPath></defs><g id="advertencia" transform="translate(-2350 971)"><circle id="Elipse_2" data-name="Elipse 2" cx="35" cy="35" r="35" transform="translate(2350 -971)" fill="#3728ae"></circle><g id="Grupo_375" data-name="Grupo 375" transform="translate(2368 -954)"><g id="Grupo_374" data-name="Grupo 374" clip-path="url(#clip-path)"><path id="Trazado_545" data-name="Trazado 545" d="M35,25.423c-.051.231-.1.462-.155.692a5.658,5.658,0,0,1-5.2,4.351q-.222.013-.444.014H5.824a5.765,5.765,0,0,1-4.067-1.57,5.6,5.6,0,0,1-1.142-6.59c1.059-1.883,2.228-3.705,3.363-5.546Q8.269,9.814,12.57,2.86a5.631,5.631,0,0,1,3-2.515,5.58,5.58,0,0,1,6.773,2.385c2.912,4.662,5.787,9.348,8.672,14.027a1.372,1.372,0,1,1-2.354,1.388Q24.377,11.217,20.1,4.286a2.933,2.933,0,0,0-2.428-1.544,2.871,2.871,0,0,0-2.733,1.483q-1.508,2.439-3.014,4.88-4.324,7-8.647,14a2.939,2.939,0,0,0,.485,3.926,2.874,2.874,0,0,0,1.705.7c.068.006.137.008.2.008q11.841,0,23.683,0a2.887,2.887,0,0,0,2.8-2.186,3.291,3.291,0,0,0-.121-1.91A1.338,1.338,0,0,1,33.063,21.9a1.358,1.358,0,0,1,1.573.945c.148.464.244.944.363,1.417Z" transform="translate(0 0)" fill="#fff"></path><path id="Trazado_546" data-name="Trazado 546" d="M191.148,94.2c0,1.651,0,3.3,0,4.954a1.318,1.318,0,0,1-.72,1.23,1.277,1.277,0,0,1-1.363-.042,1.416,1.416,0,0,1-.652-1.309q.008-3.639,0-7.277c0-.809,0-1.617,0-2.426a1.377,1.377,0,1,1,2.734-.016q0,2.443,0,4.886" transform="translate(-172.28 -80.262)" fill="#fff"></path><path id="Trazado_547" data-name="Trazado 547" d="M189.832,263.766A1.365,1.365,0,1,1,191.2,262.4a1.382,1.382,0,0,1-1.369,1.368" transform="translate(-172.335 -238.687)" fill="#fff"></path></g></g></g></svg>