<svg xmlns="http://www.w3.org/2000/svg" xmlns:xlink="http://www.w3.org/1999/xlink" width="70" height="70" viewBox="0 0 70 70"><defs><clipPath id="clip-path"><rect id="Rect&#xE1;ngulo_2757" data-name="Rect&#xE1;ngulo 2757" width="38" height="31.911" fill="#fff"></rect></clipPath></defs><g id="burbujas" transform="translate(-5443 460)"><circle id="Elipse_1" data-name="Elipse 1" cx="35" cy="35" r="35" transform="translate(5443 -460)" fill="#3728ae"></circle><g id="Grupo_702" data-name="Grupo 702" transform="translate(5459 -441)"><g id="Grupo_701" data-name="Grupo 701" transform="translate(0 0.001)" clip-path="url(#clip-path)"><path id="Trazado_3638" data-name="Trazado 3638" d="M25.889,9.485h1.358c2.09,0,4.179,0,6.268,0a4.294,4.294,0,0,1,4.457,4.345q.055,4.286,0,8.573a4.277,4.277,0,0,1-4.428,4.329c-.521.005-1.043,0-1.608,0v1.489c0,.9-.005,1.806,0,2.709a.873.873,0,0,1-.535.91.885.885,0,0,1-1.026-.259c-1.522-1.528-3.052-3.049-4.569-4.581a.853.853,0,0,0-.673-.273c-2.022.01-4.043.017-6.065,0a4.25,4.25,0,0,1-4.317-3.606,13.445,13.445,0,0,1-.064-1.976c-.009-.62-.012-1.24,0-1.86.005-.248-.077-.343-.325-.324a3.421,3.421,0,0,1-.606,0,.852.852,0,0,0-.744.3q-2.6,2.629-5.229,5.236c-.076.076-.151.154-.23.228a.846.846,0,0,1-.962.216.855.855,0,0,1-.544-.863q0-2.3,0-4.61v-.51c-.636,0-1.251.017-1.865,0a4.233,4.233,0,0,1-3.93-2.906,5.033,5.033,0,0,1-.24-1.507Q-.015,9.489.01,4.434A4.3,4.3,0,0,1,3.614.061,5.028,5.028,0,0,1,4.5,0q8.451,0,16.9,0a4.282,4.282,0,0,1,4.422,3.584,5.617,5.617,0,0,1,.062.966c.005,1.482,0,2.965,0,4.448ZM7.77,21.936l.141.106a2.836,2.836,0,0,1,.254-.358c1.331-1.338,2.672-2.667,4-4.01a1.352,1.352,0,0,1,1.039-.431q4.166.018,8.331,0a2.574,2.574,0,0,0,2.635-2.638q.011-5.115,0-10.232a2.572,2.572,0,0,0-2.657-2.656q-8.553-.007-17.107,0A2.546,2.546,0,0,0,1.75,4.33q-.021,5.156,0,10.312a2.555,2.555,0,0,0,2.658,2.607c.756.005,1.51,0,2.265,0,.811,0,1.1.283,1.1,1.093,0,1.2,0,2.4,0,3.593m8.635-2.967c0,1.131,0,2.2,0,3.259a2.6,2.6,0,0,0,2.77,2.786c2.169,0,4.339.007,6.508,0a1.26,1.26,0,0,1,.97.4c1.06,1.074,2.131,2.137,3.2,3.2.1.1.2.181.365.329,0-1.034,0-1.961,0-2.888,0-.734.3-1.035,1.029-1.038.755,0,1.509,0,2.264,0a2.571,2.571,0,0,0,2.728-2.7q.015-4.2,0-8.408a2.569,2.569,0,0,0-2.689-2.7c-2.425-.012-4.851,0-7.275-.012-.345,0-.394.13-.392.425.01,1.091.024,2.183-.011,3.273a4.235,4.235,0,0,1-4.054,4.056c-1.629.045-3.259.016-4.89.02h-.523" transform="translate(0 -0.001)" fill="#fff"></path><path id="Trazado_3639" data-name="Trazado 3639" d="M12.52,9.674q-3.275,0-6.551,0a2.546,2.546,0,0,1-.482-.031.85.85,0,0,1,.007-1.676,2.061,2.061,0,0,1,.4-.029q6.653,0,13.3,0c.687,0,1.066.284,1.1.811a.852.852,0,0,1-.9.922c-.566.018-1.132.005-1.7.005H12.52" transform="translate(0.41 0.68)" fill="#fff"></path><path id="Trazado_3640" data-name="Trazado 3640" d="M12.521,12.839q-3.376,0-6.753,0a.861.861,0,1,1-.238-1.706,1.889,1.889,0,0,1,.282-.011H19.28c.567,0,.92.244,1,.682a.836.836,0,0,1-.847,1.029c-.943.016-1.887.007-2.83.007H12.521" transform="translate(0.41 0.953)" fill="#fff"></path><path id="Trazado_3641" data-name="Trazado 3641" d="M12.558,4.769q3.376,0,6.753,0c.583,0,.93.276.98.748a.851.851,0,0,1-.767.962,3.577,3.577,0,0,1-.4.008H5.978c-.094,0-.189,0-.283,0a.873.873,0,0,1-.914-.875.854.854,0,0,1,.9-.838c1.752-.009,3.5,0,5.257,0h1.618" transform="translate(0.41 0.408)" fill="#fff"></path><path id="Trazado_3642" data-name="Trazado 3642" d="M24.786,19.073c1.834,0,3.666-.005,5.5,0a.846.846,0,0,1,.9,1.078.831.831,0,0,1-.715.625,1.774,1.774,0,0,1-.322.011q-5.4,0-10.8,0a2.145,2.145,0,0,1-.324-.011.849.849,0,0,1-.73-.877.81.81,0,0,1,.784-.818c.389-.023.781-.012,1.171-.012q2.265,0,4.53,0" transform="translate(1.569 1.634)" fill="#fff"></path><path id="Trazado_3643" data-name="Trazado 3643" d="M27.672,17.607c-.687,0-1.373.005-2.061,0a.863.863,0,1,1,.007-1.714q2.039-.008,4.08,0a.883.883,0,0,1,.987.843c.012.512-.384.867-.992.873-.673.005-1.347,0-2.021,0" transform="translate(2.113 1.361)" fill="#fff"></path><path id="Trazado_3644" data-name="Trazado 3644" d="M27.982,14.443c-.525,0-1.052.009-1.578,0a.871.871,0,1,1,.012-1.733q1.619-.015,3.235,0a.88.88,0,0,1,.963.872.889.889,0,0,1-.975.861c-.553.011-1.105,0-1.658,0" transform="translate(2.182 1.088)" fill="#fff"></path></g></g></g></svg>