<svg xmlns="http://www.w3.org/2000/svg" xmlns:xlink="http://www.w3.org/1999/xlink" width="70" height="70" viewBox="0 0 70 70"><defs><clipPath id="clip-path"><rect id="Rect&#xE1;ngulo_1809" data-name="Rect&#xE1;ngulo 1809" width="38.954" height="30" fill="#fff"></rect></clipPath></defs><g id="calavera" transform="translate(-6633 328)"><circle id="Elipse_2" data-name="Elipse 2" cx="35" cy="35" r="35" transform="translate(6633 -328)" fill="#3728ae"></circle><g id="Grupo_522" data-name="Grupo 522" transform="translate(6649 -308)"><g id="Grupo_521" data-name="Grupo 521" transform="translate(0 0.001)" clip-path="url(#clip-path)"><path id="Trazado_2319" data-name="Trazado 2319" d="M0,6.02l.14-.426A2.883,2.883,0,0,1,1.989,3.666c.288-.1.375-.206.358-.522A2.975,2.975,0,0,1,5.341,0a3.006,3.006,0,0,1,2.8,4.1c-.046.117-.1.231-.167.392l3.016,2.022c.5-.439.985-.883,1.5-1.29a.823.823,0,0,1,.581-.175.579.579,0,0,1,.4.382.883.883,0,0,1-.221.621c-.466.481-1.018.881-1.465,1.378A10.062,10.062,0,0,0,14,22.757a1.006,1.006,0,0,1,.556,1.013c-.033.721-.02,1.445-.006,2.167a1.144,1.144,0,0,0,1.265,1.2c.213,0,.292-.07.285-.286-.012-.431-.008-.861,0-1.293s.2-.67.548-.679.58.233.589.683c.009.417.016.837,0,1.254-.011.256.087.331.331.321.365-.017.731,0,1.147,0,0-.533,0-1.035,0-1.536,0-.459.2-.708.55-.718.373-.011.587.246.59.718,0,.494,0,.987,0,1.533.447,0,.874.011,1.3-.012.062,0,.159-.17.164-.264.018-.431,0-.863.01-1.293.009-.449.228-.692.591-.681s.54.242.546.681.011.863,0,1.292c-.007.219.077.28.287.285a1.145,1.145,0,0,0,1.265-1.2c.011-.774.013-1.547,0-2.319a.816.816,0,0,1,.424-.779A9.957,9.957,0,0,0,29.35,13.4a10.109,10.109,0,0,0-8.416-9.209,10.409,10.409,0,0,0-5.693.708.9.9,0,0,1-.671,0,.544.544,0,0,1,.115-.991,10.485,10.485,0,0,1,3.506-.935,11.1,11.1,0,0,1,9.377,3.585c.035.037.075.066.141.125L30.967,4.5a3.312,3.312,0,0,1-.327-1.991,3.024,3.024,0,0,1,3.3-2.5A2.978,2.978,0,0,1,36.6,3.1a.472.472,0,0,0,.386.578,2.973,2.973,0,0,1,1.958,2.693,3.012,3.012,0,0,1-5.087,2.3c-.092-.088-.187-.17-.318-.289l-.691.461c-.843.563-1.679,1.134-2.53,1.686a.431.431,0,0,0-.224.575,11.111,11.111,0,0,1-.482,7.472c-.063.149-.2.3.037.453,1.3.858,2.59,1.728,3.91,2.612a3.02,3.02,0,0,1,2.051-1.115,4.018,4.018,0,0,1,.979.05.547.547,0,0,1,.464.67.539.539,0,0,1-.647.444A1.927,1.927,0,0,0,34.237,22.7c-.216.368-.536.4-.944.128q-1.977-1.319-3.948-2.644c-.125-.085-.253-.165-.378-.246l-1.412,1.888c.16.109.333.227.508.344q1.942,1.3,3.883,2.6c.487.328.53.588.184,1.066a1.855,1.855,0,0,0,.1,2.408,1.869,1.869,0,0,0,3.12-1.939c-.207-.6-.017-.9.609-.94a1.859,1.859,0,0,0,1.744-2.476c-.106-.4.028-.7.356-.8a.587.587,0,0,1,.726.442,3,3,0,0,1-1.9,3.82.342.342,0,0,0-.284.423,3,3,0,0,1-5.119,2.333,3.01,3.01,0,0,1-.6-3.406c.026-.057.05-.114.085-.193-.09-.069-.176-.14-.268-.2-1.241-.832-2.487-1.659-3.722-2.5-.211-.144-.344-.168-.552.014-.323.282-.7.5-1.028.779a.655.655,0,0,0-.226.421c-.024.633,0,1.268-.012,1.9a2.232,2.232,0,0,1-2.313,2.343q-3.556.033-7.112,0a2.237,2.237,0,0,1-2.324-2.37c-.007-.621.008-1.242-.009-1.863a.554.554,0,0,0-.156-.383c-.386-.3-.8-.578-1.215-.875L7.978,25.495a3.136,3.136,0,0,1,.25,2.327,3.01,3.01,0,0,1-3.341,2.139,2.976,2.976,0,0,1-2.54-3.111c.018-.315-.069-.422-.358-.523A2.931,2.931,0,0,1,.083,24.219c-.022-.083-.056-.164-.083-.246v-.913c.027-.083.06-.165.081-.249A3,3,0,0,1,3.5,20.54a3.061,3.061,0,0,1,1.885,1.1L9.175,19.1c-.056-.137-.093-.243-.139-.345a11.05,11.05,0,0,1-.593-7.534c.185-.692.188-.691-.4-1.086L5.375,8.35c-.1.114-.181.213-.272.3A3.006,3.006,0,0,1,.318,7.821,8.332,8.332,0,0,1,0,6.933V6.02M11.161,21.987l-1.452-1.87L5.726,22.782c-.536.358-.771.307-1.11-.236a1.854,1.854,0,0,0-2.243-.8,1.863,1.863,0,0,0,.542,3.616c.716.049.893.311.664.984a1.87,1.87,0,0,0,3.136,1.9,1.857,1.857,0,0,0,.126-2.376c-.382-.536-.336-.765.223-1.139q2.05-1.372,4.1-2.746M29.616,9.611c.076-.046.151-.086.223-.134q1.688-1.129,3.377-2.259c.552-.37.771-.319,1.132.253a1.856,1.856,0,0,0,2.217.776,1.863,1.863,0,0,0-.482-3.616c-.8-.062-.91-.272-.71-1.052A2.29,2.29,0,0,0,35.388,2.5a1.709,1.709,0,0,0-1.529-1.337,1.756,1.756,0,0,0-1.841.877A1.777,1.777,0,0,0,32.1,4.109c.381.55.345.778-.2,1.145q-.945.636-1.892,1.269L28.444,7.57l1.172,2.04M10.283,7.419,7.125,5.3c-.642-.43-.673-.593-.236-1.244a1.869,1.869,0,1,0-3.3-.381c.157.456.09.753-.229.876a1.963,1.963,0,0,1-.521.076A1.868,1.868,0,1,0,4.614,7.45c.343-.549.571-.6,1.107-.242.337.224.673.451,1.011.676.776.52,1.553,1.038,2.341,1.565.2-.358.368-.7.561-1.021s.422-.658.649-1.009" transform="translate(0 -0.001)" fill="#fff"></path><path id="Trazado_2320" data-name="Trazado 2320" d="M18.162,14.922a3.4,3.4,0,1,1,3.4,3.411,3.4,3.4,0,0,1-3.4-3.411m5.655,0a2.257,2.257,0,1,0-2.27,2.27,2.258,2.258,0,0,0,2.27-2.27" transform="translate(2.052 1.301)" fill="#fff"></path><path id="Trazado_2321" data-name="Trazado 2321" d="M17.106,14.927a3.4,3.4,0,1,1-3.407-3.4,3.4,3.4,0,0,1,3.407,3.4m-1.141,0a2.255,2.255,0,1,0-2.277,2.26,2.25,2.25,0,0,0,2.277-2.26" transform="translate(1.165 1.301)" fill="#fff"></path><path id="Trazado_2322" data-name="Trazado 2322" d="M17.449,18.624a5.19,5.19,0,0,1-.4.464.566.566,0,1,1-.8-.795c.267-.285.544-.563.83-.828a.543.543,0,0,1,.811,0c.285.267.561.546.822.836a.565.565,0,1,1-.8.8c-.141-.125-.263-.272-.459-.479" transform="translate(1.814 1.952)" fill="#fff"></path></g></g></g></svg>