<?xml version="1.0" encoding="UTF-8"?> <svg xmlns="http://www.w3.org/2000/svg" xmlns:xlink="http://www.w3.org/1999/xlink" width="70" height="70" viewBox="0 0 70 70"><defs><clipPath id="clip-path"><rect id="Rectángulo_2487" data-name="Rectángulo 2487" width="40" height="22.495" transform="translate(0 0)" fill="#fff"></rect></clipPath></defs><g id="camioneta" transform="translate(-14646 -753)"><circle id="Elipse_2" data-name="Elipse 2" cx="35" cy="35" r="35" transform="translate(14646 753)" fill="#3728ae"></circle><g id="Grupo_689" data-name="Grupo 689" transform="translate(14661 777)"><g id="Grupo_688" data-name="Grupo 688" clip-path="url(#clip-path)"><path id="Trazado_3562" data-name="Trazado 3562" d="M40,17.264a1.977,1.977,0,0,1-1.84,1.481c-.231.01-.463,0-.683,0-.657,2.424-2.237,3.761-4.388,3.748a4.4,4.4,0,0,1-4.3-3.726H11.208a4.4,4.4,0,0,1-1.794,2.91,4.237,4.237,0,0,1-2.754.809,4.4,4.4,0,0,1-4.116-3.741c-.208,0-.426,0-.643,0A1.862,1.862,0,0,1,.009,16.87C0,14.332-.011,11.793.022,9.255A3.639,3.639,0,0,1,.36,7.869c.884-1.982,1.8-3.948,2.718-5.918A3.132,3.132,0,0,1,6.138,0q9.236,0,18.473,0A4.4,4.4,0,0,1,28.6,2.231c1.144,1.862,2.294,3.72,3.431,5.586a.559.559,0,0,0,.551.314c1.784-.013,3.567,0,5.351-.013a.8.8,0,0,1,.851.581c.331.875.691,1.739,1.043,2.606a3.663,3.663,0,0,0,.175.334Zm-36.53-2.9a3.6,3.6,0,0,0,1.7-.238,4.135,4.135,0,0,1,3.692.1,1.423,1.423,0,0,0,.587.145q10.564.012,21.128,0a1.327,1.327,0,0,0,.55-.138,4.087,4.087,0,0,1,3.51-.185,4.318,4.318,0,0,0,1.884.332c.624-.017,1.249,0,1.874-.005.112,0,.224-.014.324-.021V12.5c-.748,0-1.464.009-2.179,0a2.119,2.119,0,0,1-2.1-1.747,8.037,8.037,0,0,1-.013-1.375c-.691,0-1.495-.017-2.3.007a.94.94,0,0,1-.92-.513c-1.216-2-2.453-3.988-3.675-5.985a3.2,3.2,0,0,0-2.911-1.635q-9.216.006-18.433,0a2,2,0,0,0-2,1.27c-.86,1.894-1.716,3.79-2.627,5.659A5.559,5.559,0,0,0,1.257,10.6c2.034.244,2.809,1.576,2.213,3.757m25.253,3.125.714-1.831H10.572l.707,1.831ZM10,18.129A3.124,3.124,0,1,0,6.86,21.247,3.128,3.128,0,0,0,10,18.129m26.246.013a3.124,3.124,0,1,0-3.156,3.1,3.128,3.128,0,0,0,3.156-3.1m2.2-6.9c-.241-.6-.462-1.166-.7-1.724a.308.308,0,0,0-.232-.136,9.527,9.527,0,0,0-1.014,0,.929.929,0,0,0-.873.929.907.907,0,0,0,.834.922c.645.032,1.292.008,1.985.008M3.192,15.649H1.259c0,.437-.013.85,0,1.262a.562.562,0,0,0,.5.565,4.322,4.322,0,0,0,.713.009c.255-.654.484-1.239.718-1.836m35.552.008H36.819c.237.613.467,1.21.709,1.838.18,0,.4.013.618,0a.58.58,0,0,0,.591-.559c.031-.422.007-.848.007-1.276M1.268,14.36A1.257,1.257,0,0,0,2.5,13c-.043-.51-.589-1.2-1.233-1.076Z" fill="#fff"></path><path id="Trazado_3563" data-name="Trazado 3563" d="M20.364,9.374H12.09c-.875,0-1.115-.364-.754-1.146.794-1.722,1.6-3.44,2.379-5.167a.841.841,0,0,1,.867-.567q5.034.017,10.069,0a1.951,1.951,0,0,1,1.783.987Q27.9,5.877,29.378,8.266c.159.258.294.556.074.79a1.076,1.076,0,0,1-.7.305c-2.8.021-5.593.013-8.39.013m-.333-5.622V8.1h7.774c-.851-1.381-1.668-2.723-2.51-4.048a.718.718,0,0,0-.516-.282c-1.573-.022-3.146-.013-4.748-.013M12.793,8.1h5.941V3.75c-1.214,0-2.408.011-3.6-.008a.48.48,0,0,0-.517.342c-.554,1.233-1.128,2.457-1.694,3.685-.047.1-.083.211-.128.327" fill="#fff"></path><path id="Trazado_3564" data-name="Trazado 3564" d="M6.2,9.374c-.884,0-1.769,0-2.654,0-.676,0-.942-.412-.661-1.026C3.7,6.564,4.528,4.786,5.343,3a.772.772,0,0,1,.788-.507c1.782.011,3.564,0,5.346.006.649,0,.921.418.651,1.008-.822,1.795-1.656,3.585-2.477,5.38a.748.748,0,0,1-.759.489c-.9-.012-1.8,0-2.693,0M4.358,8.124c1.391,0,2.716.007,4.041-.012a.508.508,0,0,0,.348-.264c.455-.947.89-1.9,1.33-2.858.183-.4.364-.8.566-1.24-1.4,0-2.745,0-4.092.007A.309.309,0,0,0,6.32,3.9C5.67,5.286,5.029,6.674,4.358,8.124" fill="#fff"></path><path id="Trazado_3565" data-name="Trazado 3565" d="M5.007,18.115A1.873,1.873,0,1,1,6.854,20a1.882,1.882,0,0,1-1.847-1.88m1.25-.022A.622.622,0,1,0,6.9,17.5a.631.631,0,0,0-.642.593" fill="#fff"></path><path id="Trazado_3566" data-name="Trazado 3566" d="M33.135,20A1.873,1.873,0,1,1,35,18.093,1.88,1.88,0,0,1,33.135,20m-.009-2.5a.623.623,0,1,0,.622.613.629.629,0,0,0-.622-.613" fill="#fff"></path></g></g></g></svg> 