<svg xmlns="http://www.w3.org/2000/svg" xmlns:xlink="http://www.w3.org/1999/xlink" width="70" height="70" viewBox="0 0 70 70"><defs><clipPath id="clip-path"><rect id="Rect&#xE1;ngulo_1776" data-name="Rect&#xE1;ngulo 1776" width="33.746" height="35" fill="#fff"></rect></clipPath></defs><g id="certificado" transform="translate(-4826 668)"><circle id="Elipse_1" data-name="Elipse 1" cx="35" cy="35" r="35" transform="translate(4826 -668)" fill="#3728ae"></circle><g id="Grupo_491" data-name="Grupo 491" transform="translate(4844 -650)"><g id="Grupo_490" data-name="Grupo 490" clip-path="url(#clip-path)"><path id="Trazado_2095" data-name="Trazado 2095" d="M9.813,33.773c-.007.1-.013.167-.014.229-.018.878-.138,1-1,1H3.389c-.808,0-.946-.139-.959-.961,0-.075-.008-.149-.013-.251H0V32.555h2.4V23.966H0V22.732H2.43c0-.187,0-.347,0-.506.009-.506.224-.729.723-.734.561-.005,1.122,0,1.733,0V2.718A2.475,2.475,0,0,1,7.595,0H31.041a2.471,2.471,0,0,1,2.7,2.685q0,3.76,0,7.521c0,.653-.192.845-.843.846-.931,0-1.863,0-2.841,0v18.74c0,.736-.17.909-.9.909-1.3,0-2.609,0-3.914,0a.469.469,0,0,0-.466.235,6.074,6.074,0,0,1-.618.706,2.22,2.22,0,0,1,.308,1.69,2.085,2.085,0,0,1-2,1.66c-2.289,0-4.578-.008-6.865-.073a7.988,7.988,0,0,1-3.257-.8,5.7,5.7,0,0,0-2.542-.347m-3.7-12.3c.107.007.169.014.231.014.921,0,1.841,0,2.762,0a.622.622,0,0,1,.69.689c.005.172,0,.345,0,.537.515,0,.974.005,1.433,0a.484.484,0,0,0,.279-.088A9.186,9.186,0,0,0,14.278,19.3a7.756,7.756,0,0,0,.489-4.871c-.135-.628.1-.914.747-.918.243,0,.486,0,.729,0a3.391,3.391,0,0,1,3.238,2.473,8.617,8.617,0,0,1,.241,3.571c-.087.641-.246,1.272-.379,1.937h.407c1.291,0,2.583-.007,3.875,0a2.1,2.1,0,0,1,2.085,1.7,2.149,2.149,0,0,1-.943,2.277,2.171,2.171,0,0,1-.2,2.735,8.031,8.031,0,0,1,.483,1c.072.217.157.274.368.271.947-.009,1.893,0,2.839,0h.577v-.511q0-12.182.009-24.363a7.635,7.635,0,0,1,.3-3.371H7.609c-1.052,0-1.5.441-1.5,1.488v18.76Zm15.379,7.383v-1.23c.526,0,1.025.016,1.522,0a.917.917,0,0,0,.877-1.136.93.93,0,0,0-.939-.7c-.493-.009-.985,0-1.466,0V24.561c.7,0,1.372,0,2.047,0a.924.924,0,1,0-.027-1.841c-2.174-.005-4.348,0-6.522,0h-.4V21.491c.4,0,.77-.012,1.139.005a.313.313,0,0,0,.358-.248,8.185,8.185,0,0,0,.234-4.9A2.078,2.078,0,0,0,16.1,14.78c0,.084,0,.172.013.257a8.848,8.848,0,0,1-1.032,5.4,11.551,11.551,0,0,1-3.051,3.352.94.94,0,0,1-.535.147c-.557.019-1.115.007-1.665.007v8.6c.31,0,.591.013.871,0a3.908,3.908,0,0,1,1.924.368,9.251,9.251,0,0,0,3.751.844c1.981.038,3.964.019,5.946.016a.922.922,0,0,0,.984-.907.931.931,0,0,0-1-.931c-.275,0-.55,0-.818,0V30.7h1.277c.729,0,1.161-.35,1.155-.931s-.43-.909-1.137-.91H21.493M3.685,33.741H8.55v-11H3.685ZM32.5,9.806c.006-.09.013-.152.013-.214q0-3.547,0-7.1a1.34,1.34,0,0,0-.04-.34,1.225,1.225,0,0,0-2.412.355q-.006,3.51,0,7.02v.275Z" fill="#fff"></path><path id="Trazado_2096" data-name="Trazado 2096" d="M12.12,9.028l1.237,1.656-.975.736L11.029,9.629,9.673,11.417,8.7,10.685l1.24-1.67a3.126,3.126,0,0,1-1.8-1.841A2.969,2.969,0,0,1,8.1,5.22a3.071,3.071,0,0,1,5.909.167c.36,1.488-.276,2.726-1.887,3.641M11.016,4.3A1.84,1.84,0,1,0,12.867,6.15,1.847,1.847,0,0,0,11.016,4.3" fill="#fff"></path><rect id="Rect&#xE1;ngulo_1770" data-name="Rect&#xE1;ngulo 1770" width="11.004" height="1.183" transform="translate(15.957 6.16)" fill="#fff"></rect><rect id="Rect&#xE1;ngulo_1771" data-name="Rect&#xE1;ngulo 1771" width="11.004" height="1.181" transform="translate(15.956 8.617)" fill="#fff"></rect><rect id="Rect&#xE1;ngulo_1772" data-name="Rect&#xE1;ngulo 1772" width="8.548" height="1.183" transform="translate(15.957 11.072)" fill="#fff"></rect><rect id="Rect&#xE1;ngulo_1773" data-name="Rect&#xE1;ngulo 1773" width="7.32" height="1.182" transform="translate(19.641 3.704)" fill="#fff"></rect><rect id="Rect&#xE1;ngulo_1774" data-name="Rect&#xE1;ngulo 1774" width="1.18" height="1.181" transform="translate(17.188 3.715)" fill="#fff"></rect><rect id="Rect&#xE1;ngulo_1775" data-name="Rect&#xE1;ngulo 1775" width="1.176" height="1.194" transform="translate(10.435 5.546)" fill="#fff"></rect></g></g></g></svg>