<svg xmlns="http://www.w3.org/2000/svg" xmlns:xlink="http://www.w3.org/1999/xlink" width="70" height="70" viewBox="0 0 70 70"><defs><clipPath id="clip-path"><rect id="Rect&#xE1;ngulo_1810" data-name="Rect&#xE1;ngulo 1810" width="34.999" height="35" fill="#fff"></rect></clipPath></defs><g id="cruz" transform="translate(-6942 328)"><circle id="Elipse_2" data-name="Elipse 2" cx="35" cy="35" r="35" transform="translate(6942 -328)" fill="#3728ae"></circle><g id="Grupo_524" data-name="Grupo 524" transform="translate(6960 -310)"><g id="Grupo_523" data-name="Grupo 523" clip-path="url(#clip-path)"><path id="Trazado_2323" data-name="Trazado 2323" d="M17.52,0A17.5,17.5,0,1,1,0,17.452,17.522,17.522,0,0,1,17.52,0M17.5,1.1A16.4,16.4,0,1,0,33.9,17.514,16.406,16.406,0,0,0,17.5,1.1" fill="#fff"></path><path id="Trazado_2324" data-name="Trazado 2324" d="M20.927,14.073h.458q2.706,0,5.413,0c.63,0,.788.158.788.793q0,2.637,0,5.273c0,.63-.161.788-.794.788H20.927v.449q0,2.708,0,5.414c0,.634-.158.793-.787.794H14.868c-.638,0-.8-.156-.8-.784q0-2.707,0-5.413v-.46H8.217c-.651,0-.8-.153-.8-.813q0-2.618,0-5.237c0-.655.152-.8.812-.8q2.689,0,5.378,0h.469v-.432q0-2.725,0-5.449c0-.612.16-.775.767-.775q2.653,0,5.308,0c.625,0,.779.16.779.8q0,2.69,0,5.378v.479M15.175,8.521V14.4c0,.6-.171.777-.769.777H8.521v4.65H14.4c.6,0,.777.17.778.767q0,2.76,0,5.518v.368h4.649v-.393q0-2.742,0-5.483c0-.606.169-.777.768-.777h5.886v-4.65H20.6c-.605,0-.778-.17-.778-.767q0-2.758,0-5.518V8.521Z" fill="#fff"></path></g></g></g></svg>