<svg xmlns="http://www.w3.org/2000/svg" xmlns:xlink="http://www.w3.org/1999/xlink" width="634.25" height="260.687" viewBox="0 0 634.25 260.687"><defs><clipPath id="clip-path"><rect id="Rect&#xE1;ngulo_1829" data-name="Rect&#xE1;ngulo 1829" width="634.25" height="260.687" fill="none"></rect></clipPath></defs><g id="cyber" transform="translate(0 0.002)"><g id="Grupo_562" data-name="Grupo 562" transform="translate(0 -0.002)" clip-path="url(#clip-path)"><path id="Trazado_2467" data-name="Trazado 2467" d="M138.779,380.746s-34.731-85.875,16.078-137.152c65.535-66.138,150.224-10.854,182-12.466s33.567-65.071,128.515-72.651c73.414-5.861,193.981-6.323,168.259,97.357-19.556,78.826,89.248,38,68.063,125.078Z" transform="translate(-98.29 -120.856)" fill="#e9f1f9"></path><path id="Trazado_2468" data-name="Trazado 2468" d="M633.727,845.151s-8.263-9.641-.51-15.764c0,0,5.664-3.429,10.282-3.151,0,0-6.544,10.973-4.427,12.065s6.41-12.753,6.41-12.753,12.889-1.25,17.035.743c0,0-11.018,9.016-8.7,9.553s14.222-8.313,14.222-8.313,12,2.041,11.356,9.359-4.773,9.578-6.59,9.383-12.444-4.251-12.675-2.763,6.165,6.353,10.645,6.581c0,0-8.457,9.327-14.078,6.635s-6.1-6.958-9.6-8.559-6.495-1.6-5.048.036,7.788,3.218,9.792,6.762,3.8,5.935-2.014,5.06-15.268-5.13-15.683-10Z" transform="translate(-486.758 -637.648)" fill="#599dad"></path><path id="Trazado_2469" data-name="Trazado 2469" d="M661.865,877.456s-32.582-1.256-39.777,8.063a23.566,23.566,0,0,1-6.488,9.105l-.763,2.08s5.646-5.953,7.666-6.313c0,0-3.159-11.544,39.362-12.935" transform="translate(-475.119 -678.016)" fill="#599dad"></path><path id="Trazado_2470" data-name="Trazado 2470" d="M592.761,950.408a20.461,20.461,0,0,0-7.479,14.413l1.269.114s2.234-9.555,6.271-13.292-.061-1.235-.061-1.235" transform="translate(-452.281 -733.8)" fill="#599dad"></path><path id="Trazado_2471" data-name="Trazado 2471" d="M355.641,744.019s13.145-7.361,7.011-17.352c0,0-4.908-6.134-10.166-7.712,0,0,2.8,14.9,0,15.248s-1.928-16.826-1.928-16.826-13.846-6.66-19.28-6.134c0,0,8.588,14.547,5.784,14.2s-12.444-15.073-12.444-15.073-14.2-2.629-16.475,5.784,1.4,12.619,3.505,13.145,15.6.351,15.249,2.1-9.464,4.557-14.547,2.979c0,0,5.609,13.846,12.97,13.145s9.64-5.258,14.2-5.609,7.887.876,5.609,2.1-9.99.4-13.671,3.531-6.66,5.057.175,6.459,19.1.526,21.558-4.732Z" transform="translate(-237.564 -548.64)" fill="#6bb7bf"></path><path id="Trazado_2472" data-name="Trazado 2472" d="M339.126,748.711s36.806,11.918,41.013,25.238a27.96,27.96,0,0,0,3.505,12.795v2.629s-3.856-8.939-5.959-10.166c0,0,8.238-11.568-38.559-30.5" transform="translate(-262.062 -578.571)" fill="#6bb7bf"></path><path id="Trazado_2473" data-name="Trazado 2473" d="M529.05,910.514a24.275,24.275,0,0,1,2.44,19.112l-1.46-.392s1.417-11.557-1.552-17.369.572-1.351.572-1.351" transform="translate(-407.468 -702.341)" fill="#6bb7bf"></path><path id="Trazado_2474" data-name="Trazado 2474" d="M572.9,662.511s-17.328-9.7-9.241-22.872c0,0,6.469-8.086,13.4-10.166,0,0-3.7,19.638,0,20.1s2.541-22.179,2.541-22.179,18.252-8.78,25.414-8.086c0,0-11.321,19.176-7.624,18.714s16.4-19.869,16.4-19.869,18.714-3.465,21.717,7.624-1.848,16.634-4.621,17.328-20.562.462-20.1,2.772,12.476,6.007,19.176,3.928c0,0-7.393,18.252-17.1,17.328s-12.707-6.931-18.714-7.393-10.4,1.155-7.393,2.772,13.169.53,18.021,4.655,8.779,6.666-.231,8.514-25.183.693-28.417-6.238Z" transform="translate(-433.907 -477.285)" fill="#86d1cd"></path><path id="Trazado_2475" data-name="Trazado 2475" d="M649.982,668.7s-48.517,15.711-54.062,33.269a36.86,36.86,0,0,1-4.621,16.866V722.3s5.083-11.782,7.855-13.4c0,0-10.859-15.248,50.828-40.2" transform="translate(-456.93 -516.739)" fill="#6bb7bf"></path><path id="Trazado_2476" data-name="Trazado 2476" d="M575.891,881.983s-7.482,11.362-3.216,25.193l1.925-.517s-1.868-15.234,2.046-22.9-.754-1.78-.754-1.78" transform="translate(-441.523 -679.891)" fill="#6bb7bf"></path><path id="Trazado_2477" data-name="Trazado 2477" d="M493.64,1016.744A33.942,33.942,0,0,0,527.582,982.8H459.7a33.942,33.942,0,0,0,33.942,33.942" transform="translate(-355.235 -759.466)" fill="#efcbab"></path><path id="Trazado_2478" data-name="Trazado 2478" d="M516.06,1016.483A33.964,33.964,0,0,1,477.9,982.8h8.432a33.948,33.948,0,0,0,29.725,33.683" transform="translate(-369.303 -759.465)" fill="#ffebdc"></path><path id="Trazado_2479" data-name="Trazado 2479" d="M526.457,1125.527H457.635a4.188,4.188,0,0,1,4.188-4.187h60.447a4.188,4.188,0,0,1,4.188,4.188" transform="translate(-353.641 -866.522)" fill="#efcbab"></path><rect id="Rect&#xE1;ngulo_1825" data-name="Rect&#xE1;ngulo 1825" width="69.772" height="1.041" transform="translate(103.347 223.335)" fill="#efcdaf"></rect><path id="Trazado_2480" data-name="Trazado 2480" d="M2086.617,1076.795s.7,11.346,2.9,11.508c.292.021,11.134.021,11.134.021l13.839-.08s-.091-3.335-4.135-4.04-10.816-3.548-13.267-8.894c-2.578-5.625-10.468,1.484-10.468,1.484" transform="translate(-1612.448 -829.28)" fill="#163560"></path><path id="Trazado_2481" data-name="Trazado 2481" d="M2045.793,498.752s6.534,3.715,8.363,3.714,9.007-1.388,11.009-.365,5.624,5.137,6.3,6.481c1.222,2.417-4.92,1.349-7.823-.709a1.832,1.832,0,0,0-1.451-.3c-1.5.328-4.628.9-6.136.338-2.028-.751-12.713-1.585-12.713-1.585Z" transform="translate(-1579.01 -385.414)" fill="#e49963"></path><path id="Trazado_2482" data-name="Trazado 2482" d="M1835.377,253.243s6.773,48.136,17.987,52.447c5.534,2.127,29.99,6.95,37.223,7.434,0,0,1.772-1.438,1.34-7.29,0,0-25.622-9.406-29.262-14.522-5.418-7.614,3.363-31.1-3.435-38.254s-18.247-10.224-23.854.184" transform="translate(-1418.3 -190.502)" fill="#ed7d2b"></path><path id="Trazado_2483" data-name="Trazado 2483" d="M1816.016,626.257a84.412,84.412,0,0,0,6.616,9.466c7.279,9.189,15.2,16.766,16.583,23.928a32.385,32.385,0,0,0,1.28,4.584c.576,1.641,1.289,3.365,2.111,5.149a158.574,158.574,0,0,0,12.32,21.062c7.973,11.814,15.47,21.672,15.47,21.672l13.749-.586c-.551-1.378-6.548-17.69-14.57-37.625-3.258-8.092-6.721-16.7-10.063-25q-.668-1.663-1.331-3.307c-1.021-2.54-2.027-5.041-3.009-7.476-7.532-18.718-13.532-33.624-13.532-33.624s-30.106-11.4-33.232-4.015c-2.578,6.093-.478,12.062,7.607,25.772" transform="translate(-1396.657 -462.103)" fill="#599dad"></path><path id="Trazado_2484" data-name="Trazado 2484" d="M1916.936,946.574s-9.563,6.145-8.635,8.141c.124.265,5.408,9.731,5.408,9.731l6.816,12.044s2.867-1.7,1.511-5.58-2.175-11.173,1.3-15.919c3.654-4.993-6.4-8.416-6.4-8.416" transform="translate(-1474.604 -731.471)" fill="#163560"></path><path id="Trazado_2485" data-name="Trazado 2485" d="M1843.472,692.875s-5.977-5.271-7.03-9.138c0,0,24.627-29.507,29.969-36.121.245-.3.183-.637-.141-1-4.033-4.548-48.842-13.792-54.7-22.9a28.234,28.234,0,0,1-3.784-8.724,20.623,20.623,0,0,1-.278-9.4l44.751-1.294s37.26,23.2,41.479,39.019-50.268,49.564-50.268,49.564" transform="translate(-1396.461 -466.97)" fill="#6bb7bf"></path><path id="Trazado_2486" data-name="Trazado 2486" d="M1868.556,653.547c-4.033-4.548-48.842-13.792-54.7-22.9a28.222,28.222,0,0,1-3.784-8.724v-5.664l19.02-2.991s5.394,16.6,21.368,22.821c14.962,5.83,17.8,16.173,18.094,17.462" transform="translate(-1398.747 -473.903)" fill="#5aa9ad"></path><path id="Trazado_2487" data-name="Trazado 2487" d="M1870.071,191.716c-9.053,2.34-24.061-6.047-24.061-6.047a22.215,22.215,0,0,0,7.987-12.52c.11-.434.208-.878.3-1.334.948-.2,2.736-.581,4.649-.986l6.915,6.2a59.509,59.509,0,0,1-1.023,6.993q-.224,1.158-.521,2.481a21.328,21.328,0,0,1,5.757,5.218" transform="translate(-1426.517 -132.009)" fill="#e49963"></path><path id="Trazado_2488" data-name="Trazado 2488" d="M1803,267.519c1.3,17.44-.409,43.966,1.062,48.56,1.27,3.963,15.735,1.607,21.509.284,2.137-.489,4.725-1.189,7.4-2.016,7.457-2.309,15.583-5.607,16.455-8.054a2.04,2.04,0,0,0,.08-.282,2.228,2.228,0,0,0-.016-1.026c-.291-1.247-1.41-2.6-1.542-5.687-.147-3.449-.125-7.511-.255-11.879-.007-.492-.013-1.028-.067-1.518l0-.179c0-.094,0-.185-.006-.279-.125-4.871-.38-9.992-.676-15.071-.188-3.19-.4-6.349-.655-9.375-.651-7.813-1.527-14.76-2.687-19.153-1.9-7.16-6.076-11.83-9.881-15.252l-2.752-2.361a15.912,15.912,0,0,1-9.986-1.33c-3.554-1.687-4.781-2.9-5.4-2.441-8.209,6.333-14.112,25.738-12.581,47.06" transform="translate(-1393.097 -170.286)" fill="#f99746"></path><path id="Trazado_2489" data-name="Trazado 2489" d="M1863.554,405.043c7.457-2.309,15.583-5.606,16.455-8.054a2,2,0,0,0,.081-.282c0-.342-.009-.684-.016-1.026-.291-1.248-1.411-2.6-1.543-5.687-.148-3.449-.125-7.511-.255-11.879-.007-.492-.013-1.029-.067-1.518l0-.179c0-.094,0-.185-.006-.279l-30.148-38.409s-20.265,42.2,15.5,67.313" transform="translate(-1423.676 -260.983)" fill="#ed7d2b"></path><path id="Trazado_2490" data-name="Trazado 2490" d="M1893.019,177.024a59.423,59.423,0,0,1-1.022,6.993c-6.753-2.182-9.815-8.282-10.838-10.869.11-.434.207-.878.3-1.334.948-.2,2.736-.581,4.649-.986Z" transform="translate(-1453.679 -132.009)" fill="#d68d5d"></path><path id="Trazado_2491" data-name="Trazado 2491" d="M1892.508,126.2s-14.726-2.457-13.054-11.6.9-15.624,10.369-14.442,10.656,5.005,10.841,8.194-4.283,18.256-8.156,17.852" transform="translate(-1452.259 -77.287)" fill="#e49963"></path><rect id="Rect&#xE1;ngulo_1826" data-name="Rect&#xE1;ngulo 1826" width="35.753" height="1.365" transform="matrix(0.309, -0.951, 0.951, 0.309, 498.212, 127.175)" fill="#4a75cb"></rect><rect id="Rect&#xE1;ngulo_1827" data-name="Rect&#xE1;ngulo 1827" width="2.244" height="37.518" transform="translate(462.001 126.797) rotate(-88.777)" fill="#4a75cb"></rect><path id="Trazado_2492" data-name="Trazado 2492" d="M2036.376,542.661s12.052,3.178,16.572,2.844,8.279-2.483,8.847-3.605,1.764-3.113-1.313-2.745-7.278,1.021-7.408.43,2.509-.535,2.509-.535.8-1.16-.206-1.2-3.934-.837-5.022-.293-2.093,2.553-2.887,2.469-10.086-4.185-10.086-4.185Z" transform="translate(-1573.623 -414.073)" fill="#e49963"></path><path id="Trazado_2493" data-name="Trazado 2493" d="M1848.528,265.726s1.425,48.589,12.1,54.111c5.265,2.724,29.04,10.214,36.177,11.493,0,0,1.92-1.233,2.136-7.1,0,0-24.429-12.174-27.482-17.66-4.545-8.164,6.771-30.543.8-38.4s-17.008-12.173-23.729-2.447" transform="translate(-1428.462 -201.01)" fill="#f99746"></path><path id="Trazado_2494" data-name="Trazado 2494" d="M1870.6,97.434s-.168-3.138,1.768-4.936c0,0-.674-3.146.571-3.665s1.5,2.127,2.075,1.712a12.716,12.716,0,0,0,4.2-5.29c1.089-2.9,11.057.614,12.219,1.136s4.9-1.4,5.622-2.952a21.89,21.89,0,0,1-3.008-2.9c-.934-1.245-7.469-9.647-16.6-7.261s-10.373,6.742-9.854,10.477-.734,12.431,3,13.684" transform="translate(-1443.122 -56.295)" fill="#2b478b"></path><path id="Trazado_2495" data-name="Trazado 2495" d="M658.581,260.546l7.856-.75a1.442,1.442,0,0,1,1.469.883l5.932,14.278a1.443,1.443,0,0,1-1.195,1.989l-8.175.781a1.443,1.443,0,0,1-1.48-.909l-5.613-14.309a1.443,1.443,0,0,1,1.206-1.963" transform="translate(-507.914 -200.753)" fill="#233862"></path><path id="Trazado_2496" data-name="Trazado 2496" d="M911.125,623.236l-4.169,2.213s-22.541-23.9-27.961-46.839a35.664,35.664,0,0,1-.944-11.966s-.328-1.038-.9-2.876l-.076-.245c-.251-.806-.552-1.754-.886-2.827-1.088-3.466-2.584-8.209-4.287-13.609-3.924-12.426-12.9-40.451-16.732-52.109l27.56-9.971s3.13,7.139,7.629,26.541c.693,2.533,1.387,5.333,2.035,8.384.735,3.456,1.421,7.235,1.992,11.317a173.767,173.767,0,0,1,1.652,23.231c.016,3.472-.069,7.072-.275,10.787a47.58,47.58,0,0,0,1.013,10.482c3.473,18.877,14.35,47.487,14.35,47.487" transform="translate(-660.838 -374.791)" fill="#2b478b"></path><path id="Trazado_2497" data-name="Trazado 2497" d="M1091.239,1100.457h-22.282s-.833-3.554.63-5.972c1.295-2.14.8-3.359-.161-5.129a8.656,8.656,0,0,0,3.753.707,7.847,7.847,0,0,0,3.314-1.166,80.178,80.178,0,0,0,6.349,6.669c1.456,1.046,7.949.673,8.4,4.891" transform="translate(-825.862 -841.452)" fill="#233862"></path><path id="Trazado_2498" data-name="Trazado 2498" d="M894.385,531.249l-17.311,32.274c-.251-.806-.552-1.754-.886-2.827-1.088-3.466-2.584-8.209-4.287-13.609-3.924-12.426-12.9-40.452-16.732-52.109l27.56-9.971s3.13,7.139,7.629,26.541c.693,2.533,1.387,5.333,2.035,8.384.735,3.456,1.421,7.235,1.992,11.317" transform="translate(-660.838 -374.791)" fill="#233862"></path><path id="Trazado_2499" data-name="Trazado 2499" d="M662.618,332.713c-.138.119-6.742-6.632-10.269-10.373l3.532-2.151L675.169,332.3Z" transform="translate(-504.107 -247.429)" fill="#ffb27d"></path><path id="Trazado_2500" data-name="Trazado 2500" d="M852.888,1105.668a14.413,14.413,0,0,0,.934,6.974h9.232a11.638,11.638,0,0,0-2.282-6.214c-2.351-3.458-7.883-.761-7.883-.761" transform="translate(-659.005 -853.639)" fill="#233862"></path><path id="Trazado_2501" data-name="Trazado 2501" d="M873.027,5.738c.125-.59,1.7-6.91,11.505-5.548,0,0-4.893-.263-6.088,1.7,0,0,3.717-2.036,6.23-.736s3.263,6.229,3.012,7.764-2.587,6.215-4.347,6.341a5.225,5.225,0,0,1-2.044-.353,23.255,23.255,0,0,1,.9,2.565c2.5,8.662-2.87,15.767-6.012,14.332-2.016-.921-3.241,2.58-3.241,2.58L855.316,14.2S865.567-.082,873.027,5.738" transform="translate(-660.951 0.002)" fill="#2c3a64"></path><path id="Trazado_2502" data-name="Trazado 2502" d="M853.861,170.034a25.174,25.174,0,0,0,8.8,3.747c13.569,3.135,18.769-8.333,20.722-16.205a11.664,11.664,0,0,0-4.6-1.412c-.981-.116-2.012-.193-2.866-.235-1.524-1.167-3.794-5.943-4.3-13.359l-.639.171-10.694,2.927s.49,3.4.73,6.612c.186,2.514.215,4.917-.261,5.5-.834.181-1.335.3-1.335.3a.03.03,0,0,1-.005.01,68.818,68.818,0,0,0-5.561,11.94" transform="translate(-659.827 -110.171)" fill="#ffb27d"></path><path id="Trazado_2503" data-name="Trazado 2503" d="M882.169,146.258s.492,3.4.73,6.613c6.058-.607,8.87-6.375,9.965-9.539Z" transform="translate(-681.702 -110.76)" fill="#ed985f"></path><path id="Trazado_2504" data-name="Trazado 2504" d="M853.84,86.288s14.38-.793,13.748-9.741.8-15.076-8.41-14.948S848.43,65.267,847.914,68.3s2.169,17.959,5.926,17.983" transform="translate(-655.183 -47.599)" fill="#ffb27d"></path><path id="Trazado_2505" data-name="Trazado 2505" d="M844.2,57.03c2.027-2.851,3.747-2.381,4.745-1.639A10.066,10.066,0,0,1,862,56.53a17.135,17.135,0,0,0,6.315,9.7s-2.5,1.8-8.649.686a10.286,10.286,0,0,1-5.131-3.023,33.592,33.592,0,0,0,6.272,6.63c-7.448-2.815-11.062-12.634-11.427-13.674a11.283,11.283,0,0,0-2.833,4.4c-.552,2.33-.538,7.043-1.917,6.981,0,0-3.475-6.922-.434-11.2" transform="translate(-651.396 -41.329)" fill="#2c3a64"></path><path id="Trazado_2506" data-name="Trazado 2506" d="M805.157,201.276s23.427-5.688,33.614,2.714l-5.091,71-45.817-11.069s1.289-4.493,10.075-16.439,4.964-29.469,7.22-46.2" transform="translate(-608.826 -154.083)" fill="#ffb27d"></path><path id="Trazado_2507" data-name="Trazado 2507" d="M810.27,477.491s-.027.241-.075.7c-.021.2-.048.436-.077.714-.2,1.84-.571,5.371-1.052,9.962-1.257,12.041-3.23,31.38-4.575,46.645-1.052,11.935-1.72,21.381-1.359,22.9,1.085,4.564,0,59.126,0,59.126-3.894,1.867-9.8,0-9.8,0s-10.373-49.168-8.921-56a23.536,23.536,0,0,0-.971-12.667c-8.054-37.507-7.172-58.294-5.572-68.246a41.983,41.983,0,0,1,1.377-6.077,12.744,12.744,0,0,1,.552-1.493,37.9,37.9,0,0,1,30.47,4.441" transform="translate(-600.282 -364.49)" fill="#2b478b"></path><path id="Trazado_2508" data-name="Trazado 2508" d="M828.758,489.625a45.2,45.2,0,0,1-16.07,3.473,53.853,53.853,0,0,1-13.223-1.255,60.881,60.881,0,0,1-17.972-6.991,41.963,41.963,0,0,1,1.377-6.077c5.409-3.85,18.781-.166,29.706,3.919q.585.221,1.164.442c8.367,3.2,15.018,6.489,15.018,6.489" transform="translate(-603.904 -368.721)" fill="#233862"></path><path id="Trazado_2509" data-name="Trazado 2509" d="M757.665,226.082c-1.131,8.541-5.655,18.993-7.271,24.619,0,0,2.7,19.532.122,24.9a2.373,2.373,0,0,1-1.1,1.232c-9.554,4.161-46.759.12-48.33-11.881-.571-4.361,14.172-19.7,15.031-21.561.357-.77.736-3.265-.992-8.437-2.45,7.553-6.975,16.275-11.526,17.763-5,1.637-24.779-13.1-24.779-13.1s-.114-1.79,2.386-3.483c1.608-1.089,5.3-1.456,5.3-1.456l12.647,5.659c1.587-2.716,5.541-21.5,9.956-29.984,3.319-6.375,12.182-7.3,12.182-7.3s3.688,5.85,12.609,5.02,10.552-6.29,10.552-6.29,7.912,1.052,10.35,3.018c.423.341,4.346,10.1,2.863,21.285" transform="translate(-524.562 -155.925)" fill="#f99746"></path><path id="Trazado_2510" data-name="Trazado 2510" d="M947.346,333.347s2.7,19.532.122,24.9c-6.96-3.494-16.033-11.035-13.271-22.818,4.01-17.12,20.42-26.7,20.42-26.7-1.13,8.541-5.655,18.993-7.271,24.619" transform="translate(-721.514 -238.571)" fill="#ed7d2b"></path><path id="Trazado_2511" data-name="Trazado 2511" d="M920.325,359.291s-9.908,1.436-10.7,2.175S906.1,366.5,906.438,368s.3,3.036.908,2.93,2.585-3.905,3.333-4.079,1.364-.686,1.455-.353-1.521,1.932-1.441,2.386,1.349-.078,1.918-.96,1.992-1.318,2.206-1.867,1.2-2.368,2.529-2.285,2.977-4.479,2.977-4.479" transform="translate(-700.434 -277.644)" fill="#ffb27d"></path><path id="Trazado_2512" data-name="Trazado 2512" d="M966.067,357.574l-9.641.39-3.3,4.5,13.112.439Z" transform="translate(-736.536 -276.318)" fill="#ffb27d"></path><path id="Trazado_2513" data-name="Trazado 2513" d="M967.642,201.777s11.49,1.363,14.654,6.291c4,6.23,18.133,26.891,17.829,33.143,0,0-8.8,3.507-32.474,1.627,0,0-.43-3.58,4.549-6.452,0,0,12.707-1.74,14.107-2.973l-9.435-10.026Z" transform="translate(-747.752 -155.924)" fill="#f99746"></path><path id="Trazado_2514" data-name="Trazado 2514" d="M651.049,261.232l7.856-.751a1.443,1.443,0,0,1,1.469.883l5.932,14.278a1.442,1.442,0,0,1-1.195,1.989l-8.175.781a1.443,1.443,0,0,1-1.48-.909l-5.613-14.308a1.442,1.442,0,0,1,1.206-1.962" transform="translate(-502.094 -201.283)" fill="#2b478b"></path><path id="Trazado_2515" data-name="Trazado 2515" d="M645.8,294.135s-2.075-3.579-1.919-4.46,2.3-4.97,3.406-5.377c1.971-.726,4.737-1.176,3.976.9-.5,1.369-2.49,3.354-2.144,3.976a8.694,8.694,0,0,1,.213,2.811Z" transform="translate(-497.554 -219.224)" fill="#ffb27d"></path><path id="Trazado_2516" data-name="Trazado 2516" d="M1766.713,733.713c-2.815,18.041-21.225,29.53-40.108,29.53h-37.4l2.925-105.153s35.685-11.454,44.647-.558c7.852,9.545,29.146,47.33,30.266,69.694a31.631,31.631,0,0,1-.33,6.487" transform="translate(-1305.344 -504.478)" fill="#f9ddbf"></path><path id="Trazado_2517" data-name="Trazado 2517" d="M1593.386,675.217s50.453-25.752,60.01-8.93c5.074,8.932,19.038,44.566,20.069,66.93,1,21.729-17.823,36.017-37.189,36.017h-34.394Z" transform="translate(-1231.3 -510.471)" fill="#c6916d"></path><path id="Trazado_2518" data-name="Trazado 2518" d="M1264.584,463.567c-.425,2.189-4.51,4.219-10.572,6.016q-1.6.476-3.38.929c-20.632,5.269-57.175,8.211-60.659,6.657-4.813-2.147-34.355-107.109-34.355-107.109s28.2-1.06,50.6-1.577c7.661-.174,14.642-.286,19.584-.272a12.172,12.172,0,0,1,1.7.118,8.068,8.068,0,0,1,4.983,2.55c3.606,3.875,4.5,11.529,7.838,19.989,3.3,8.365,7.352,18.8,11.195,29.165.99,2.67,1.967,5.334,2.913,7.958q.4,1.111.795,2.21c5.678,15.889,10.051,29.82,9.364,33.366" transform="translate(-893.012 -284.537)" fill="#efcbab"></path><path id="Trazado_2519" data-name="Trazado 2519" d="M1831.511,1007.1c-2.815,18.041-21.225,29.53-40.108,29.53h-18.346c12.234-8.292,23.3-33.847,58.454-29.53" transform="translate(-1370.142 -777.869)" fill="#eac3a0"></path><path id="Trazado_2520" data-name="Trazado 2520" d="M1418.275,430.607c-.938-.154-2.147-.353-3.518-.585a3.2,3.2,0,0,1-.647-.881c-.552-1.214-.175-4.7.459-8.7-3.842-10.36-7.894-20.8-11.195-29.165-3.338-8.46-4.232-16.113-7.838-19.989a8.068,8.068,0,0,0-4.983-2.55c-2.977.042-6.12.093-9.363.154a14.474,14.474,0,0,1-6.566,6.244c-15.3,8.054-3.95,24.65-3.95,24.65.11.075,6.073,11.925,6.073,11.925-.021-.828.782-2.309,2.157-4.195a97.37,97.37,0,0,0,4.639,19.5c-1.081,5.471-3.854,13.619-5.34,19.852-1.188,4.971-1.556,8.717.407,8.9a4.459,4.459,0,0,0,.728,0,10.13,10.13,0,0,0,1.195,5.45c3.834,7.413,22.279,8.747,36.536,8.774,6.062-1.8,10.147-3.828,10.572-6.016.687-3.546-3.686-17.476-9.365-33.366" transform="translate(-1056.068 -284.943)" fill="#e0b594"></path><path id="Trazado_2521" data-name="Trazado 2521" d="M1529.8,794.073c-7.22,10.031-18.294,16.46-30.629,16.261l-53.031.027-25.407.012,28.586-94.147s72.353-7.2,81.274,2.4c4.143,4.456,6.469,24.638,7.772,44.981a47,47,0,0,1-8.564,30.465" transform="translate(-1097.877 -551.466)" fill="#d39e7a"></path><path id="Trazado_2522" data-name="Trazado 2522" d="M1616.2,1056.945c-7.22,10.031-18.294,16.46-30.629,16.261l-53.03.027c6.24-5.238,25.865-20.1,46.879-19.4,15.929.533,28.578.3,36.781,3.112" transform="translate(-1184.278 -814.338)" fill="#c6916d"></path><path id="Trazado_2523" data-name="Trazado 2523" d="M1585.581,435.063s4.406,6.52,6.919,20.227c2.2,12,4.131,16.436,7.309,18.9s20.887,9.73,20.887,9.73l-1.324,3.1s-25.956-3.535-28.872-7.873-14.031-29.969-13.168-35.872,8.248-8.212,8.248-8.212" transform="translate(-1218.858 -336.198)" fill="#f4a269"></path><path id="Trazado_2524" data-name="Trazado 2524" d="M1888.743,1004.173c-.233,2.532,3.291,3.147,7.373,3.351s2.848,1.039,8.442,2.052,7.836-.517,8.24-1.273c.361-.67-2.24-1.719-5.012-2.9-.349-.148-.7-.3-1.047-.453-3.119-1.372-4.87-4.169-7.3-6.763-2.3-2.457-4.491-10.323-4.491-10.323l-7.6-1.623s2.134,7.08,2.875,10.1a9.361,9.361,0,0,1-.778,5.278,9.963,9.963,0,0,0-.7,2.557" transform="translate(-1458.459 -762.12)" fill="#ffb27d"></path><path id="Trazado_2525" data-name="Trazado 2525" d="M1900.831,1059.825c4.082.2,2.848,1.039,8.442,2.052s7.836-.518,8.24-1.273c.361-.671-2.24-1.719-5.011-2.9l-.043.048a15.933,15.933,0,0,1-8.473.1c-3.7-1-7.278-3.216-9.828-3.931a9.948,9.948,0,0,0-.7,2.557c-.233,2.531,3.291,3.147,7.373,3.35" transform="translate(-1463.175 -814.421)" fill="#c65447"></path><path id="Trazado_2526" data-name="Trazado 2526" d="M1526.682,649.134s50.512-3.8,60.022,2.2,24.761,75.908,24.761,75.908a6.2,6.2,0,0,1-3.044.982c-1.955.212-6.261-.938-6.261-.938s-21.919-31.279-23.462-39.159-1.167-14.911-4.682-15.1-47.34,5.328-53.969-6.35-1.149-23.239-1.149-23.239Z" transform="translate(-1172.094 -497.221)" fill="#163560"></path><path id="Trazado_2527" data-name="Trazado 2527" d="M1803.686,1039.875c-.233,2.531,3.291,3.147,7.373,3.35s2.848,1.039,8.442,2.052,7.835-.518,8.24-1.273c.361-.671-2.24-1.719-5.011-2.9-.349-.148-.7-.3-1.047-.453-3.12-1.371-4.87-4.169-7.3-6.763-2.3-2.457-4.491-10.323-4.491-10.323l-7.6-1.624s2.135,7.08,2.876,10.1a9.365,9.365,0,0,1-.778,5.278,9.95,9.95,0,0,0-.7,2.557" transform="translate(-1392.73 -789.709)" fill="#ffb27d"></path><path id="Trazado_2528" data-name="Trazado 2528" d="M1815.776,1095.527c4.082.2,2.848,1.039,8.442,2.052s7.835-.518,8.24-1.273c.361-.671-2.24-1.719-5.012-2.9l-.043.047a15.931,15.931,0,0,1-8.473.1c-3.7-1-7.278-3.216-9.827-3.93a9.908,9.908,0,0,0-.7,2.558c-.234,2.531,3.29,3.147,7.372,3.35" transform="translate(-1397.448 -842.01)" fill="#c65447"></path><path id="Trazado_2529" data-name="Trazado 2529" d="M1468.28,682.274s44.873,2.124,54.141,8.491,21.788,76.815,21.788,76.815a6.2,6.2,0,0,1-3.08.863c-1.962.135-6.22-1.181-6.22-1.181s-20.684-32.108-21.921-40.042-.586-14.945-4.091-15.271-47.511,3.481-53.68-8.446,13.063-21.229,13.063-21.229" transform="translate(-1123.586 -527.231)" fill="#1c468a"></path><path id="Trazado_2530" data-name="Trazado 2530" d="M1441.121,238.319a11.637,11.637,0,0,0-6.2-1.621,2.944,2.944,0,0,1,1.367-.541c-1.065-.232-3.537.675-3.537.675-14.579-6.763-18.4,15.113-18.427,20.253s-.384,11.034-8.16,15.127c-15.3,8.053-3.95,24.649-3.95,24.649.111.076,6.073,11.927,6.073,11.927-.1-4.162,20.439-24.719,30.833-30.592,2.662-3.407,3.944-9.654,4.041-10.146-.751,4.971-1.794,7.717-2.663,9.245,8.949-7.2,5.905-35.493.627-38.976" transform="translate(-1080.437 -182.02)" fill="#b5453c"></path><path id="Trazado_2531" data-name="Trazado 2531" d="M1508.324,402.013s3.962.172,8.14.569c2.839.269,5.869.582,7.469,1.251,3.955,1.653,3.541,8.655-4.758,7.358s-11.432-7.1-10.851-9.178" transform="translate(-1165.515 -310.658)" fill="#ffb27d"></path><path id="Trazado_2532" data-name="Trazado 2532" d="M1525.126,371.572c.048.026,1.184,6.023-4.25,5.783-3.567-.157-11.26-4.473-10.581-7.527.323-1.452,3.019-5.218,3.561-13.815l.649.174,10.918,2.928s-.484,3.465-.71,6.744c-.191,2.754-.2,5.377.413,5.713" transform="translate(-1167.059 -275.11)" fill="#ffb27d"></path><path id="Trazado_2533" data-name="Trazado 2533" d="M1539.884,359.7s-.484,3.465-.71,6.745c-6.179-.587-9.076-6.453-10.208-9.673Z" transform="translate(-1181.519 -275.7)" fill="#f4a269"></path><path id="Trazado_2534" data-name="Trazado 2534" d="M1512.658,275.2s-2.9-5.343-3.389-9.778c-.347-3.167,2.02-14.661,13.565-12.213a15.873,15.873,0,0,1,6.4,2.921c2.417,1.878,5.824,5.812,1.065,15.663l-1.289,3.349Z" transform="translate(-1166.273 -195.41)" fill="#b5453c"></path><path id="Trazado_2535" data-name="Trazado 2535" d="M1537.305,298.436s-14.664-.735-14.065-9.86-.892-15.366,8.5-15.282,10.977,3.685,11.518,6.779-2.119,18.319-5.949,18.363" transform="translate(-1177.08 -211.189)" fill="#ffb27d"></path><path id="Trazado_2536" data-name="Trazado 2536" d="M1522.763,267.088s-4.724,10.437-10.985,11.61-8.82-.655-8.82-.655a17.469,17.469,0,0,0,6.387-9.917s10.732-6.335,13.418-1.038" transform="translate(-1161.421 -204.761)" fill="#b5453c"></path><path id="Trazado_2537" data-name="Trazado 2537" d="M1585.483,272.437s2.836,2.59,3.411,4.962.585,7.177,1.989,7.107c0,0,3.507-7.075.385-11.417-3.31-4.6-5.786-.653-5.786-.653" transform="translate(-1225.193 -209.308)" fill="#b5453c"></path><path id="Trazado_2538" data-name="Trazado 2538" d="M1491.388,463.337c-1.187,1.419-4.892,1.854-8.853,2.506-3.116.515-6.389,1.16-8.717,2.527-5.286,3.1-22.557,13.593-27.619,13.115-1.963-.185-1.6-3.931-.407-8.9,1.871-7.85,5.788-18.752,5.788-23.492,0-2.587.861-8.71,2.01-15.709q.14-.846.284-1.707c2.274-13.609,5.423-29.656,5.423-29.656s3.512,7.664,10.356,7.664,5.253-5.844,5.253-5.844,6.244.734,7.719,2.324,5.218,8.458,5.96,10.331c0,0,.151,2.384-5.751,3.519a77.466,77.466,0,0,1,1.608,10.784c.127,3.186-2.174,13.159-2.836,19.362-.234,2.2-.265,3.921.091,4.7.456,1,1.934,2,3.614,2.979,3.336,1.942,7.483,3.811,6.074,5.5" transform="translate(-1116.49 -310.662)" fill="#1c468a"></path><path id="Trazado_2539" data-name="Trazado 2539" d="M1485.313,544.6c3.788,6.458-10.274,8.4-12.6,9.767-5.286,3.1-21.452,14.356-26.513,13.879-1.963-.185-1.6-3.931-.406-8.9,1.871-7.85,5.788-18.752,5.788-23.493,0-2.587.861-8.709,2.01-15.709l6.093-5.85s6.528,16.875,12.752,19.64a52.323,52.323,0,0,0,9.172,2.985c-.235,2.2-.266,3.921.091,4.7.456,1,1.934,2,3.614,2.979" transform="translate(-1116.489 -397.421)" fill="#163560"></path><path id="Trazado_2540" data-name="Trazado 2540" d="M1460.353,421.41s-5.21-3.164-10.247,2.838,3.579,48.9,11.043,51.107c8.29,2.448,32.24-.392,32.24-.392l-.461-3.743s-25.5-4.888-26.555-6.251-3.371-42.868-6.02-43.56" transform="translate(-1119.417 -325.003)" fill="#ffb27d"></path><path id="Trazado_2541" data-name="Trazado 2541" d="M1447.95,402.013s-10.7.965-13.806,4.484-4.016,13.055-4.016,13.055,9.422,7.606,20.774,4.654Z" transform="translate(-1105.141 -310.658)" fill="#1c468a"></path><rect id="Rect&#xE1;ngulo_1828" data-name="Rect&#xE1;ngulo 1828" width="14.132" height="1.67" transform="translate(376.473 151.965)" fill="#9e332e"></rect><path id="Trazado_2542" data-name="Trazado 2542" d="M1705.676,604.566c.138-.553,12.991-20.735,12.991-20.735h28.6l-14.344,20.192Z" transform="translate(-1318.073 -451.159)" fill="#9e332e"></path><path id="Trazado_2543" data-name="Trazado 2543" d="M1710.971,604.794c.138-.553,13.033-20.963,13.033-20.963h27.353l-13.647,20.963Z" transform="translate(-1322.165 -451.159)" fill="#b5453c"></path><path id="Trazado_2544" data-name="Trazado 2544" d="M1806.719,625.219a2.283,2.283,0,0,1-1.991,1.481,1.02,1.02,0,0,1-.97-1.481,2.284,2.284,0,0,1,1.99-1.481,1.02,1.02,0,0,1,.971,1.481" transform="translate(-1393.8 -481.997)" fill="#9e332e"></path><path id="Trazado_2545" data-name="Trazado 2545" d="M1634.507,638.144s8.3-1.607,9.239-1.205,6.159,5.088,5.623,6.025-2.678,1.607-5.088.8-7.632-1.205-8.569-2.41a7.867,7.867,0,0,1-1.205-3.213" transform="translate(-1263.076 -492.149)" fill="#ffb27d"></path><path id="Trazado_2546" data-name="Trazado 2546" d="M1465.418,734.656c-3.033,17.5-19.675,28.586-36.734,28.586h-34.395l2.691-105.153s32.816-11.454,41.058-.558c7.222,9.545,26.8,47.33,27.835,69.694a34.054,34.054,0,0,1-.455,7.431" transform="translate(-1077.446 -504.478)" fill="#f9ddbf"></path><path id="Trazado_2547" data-name="Trazado 2547" d="M1488.783,1011.2c-3.033,17.5-19.675,28.586-36.735,28.586h-27.524c12.883-8.732,30.23-32.859,64.258-28.586" transform="translate(-1100.812 -781.026)" fill="#eac3a0"></path><path id="Trazado_2548" data-name="Trazado 2548" d="M1120.245,542.064q-.386.028-.771.05-.816.043-1.637.056c-.181,0-.363,0-.545,0H1082.9l0-.017-1.986.025c-3.542.043-7.241.085-10.672.114q-.862.01-1.7.015l-.618,0c-3.39.023-6.388.033-8.527.019a56.8,56.8,0,0,1-8.506-.656,37.99,37.99,0,0,1-9.479-2.711,30.913,30.913,0,0,1-3.015-1.531,29.669,29.669,0,0,1-3.73-2.544,33.631,33.631,0,0,1-7.935-9.317,50.982,50.982,0,0,1-4.122-8.985,86.869,86.869,0,0,1-3.618-14.416,187.31,187.31,0,0,1-2.3-27.146q-.137-6.289-.021-13.269.183-11.159,1-24.167c.755-12.192,1.911-25.642,3.438-40.446,1.392-13.522,3-22.974,5.334-25.127,3.446-3.176,10.632-4.454,15.632-4.966h0c3.1-.318,5.359-.342,5.359-.342,6.108,0,11.537,4.386,13.5,10.9,3.991,13.269,11.118,36.992,18.534,61.806l.112.373q.638,2.138,1.28,4.286c.064.218.131.436.2.654.417-.187.851-.382,1.3-.579a.327.327,0,0,1,.045-.021c1.778-.788,3.791-1.651,5.962-2.531h0c1.126-.456,2.293-.919,3.5-1.379,3.394-1.3,7.058-2.587,10.771-3.695,1.647-.494,3.307-.952,4.956-1.359,2.118-.525,4.219-.969,6.267-1.3l.178-.029c.243-.04.484-.075.725-.11,8.831-1.3,16.495-.4,19.665,5.2,5.074,8.958,19.036,44.7,20.067,67.125.954,20.682-15.958,34.642-34.235,36.013" transform="translate(-785.592 -283.377)" fill="#d39e7a"></path><path id="Trazado_2549" data-name="Trazado 2549" d="M1151.636,448.936s-17.653-71.919-18.927-77.964a4.563,4.563,0,0,0-4.08-3.918c3.1-.317,5.36-.341,5.36-.341,6.108,0,11.536,4.371,13.5,10.869,4.275,14.172,12.148,40.306,20.122,66.924-.4-.01-15.972,4.43-15.972,4.43" transform="translate(-872.156 -283.38)" fill="#f9ddbf"></path><path id="Trazado_2550" data-name="Trazado 2550" d="M1348.77,711.422c-4.724-7.809-.758-9.274-1.482-26.766s-8.869-16.047-12.248-19.428a9.118,9.118,0,0,1-1.639-3.593c-.24.036-.481.071-.724.11-.05.008-.108.017-.178.029-2.048.33-4.149.773-6.267,1.3-1.649.407-3.309.865-4.957,1.359-3.713,1.108-7.377,2.394-10.771,3.695q-1.805.691-3.5,1.379c-2.923,18.35-7.446,100.582-7.446,100.582.037.039.072.077.11.114,3.693-.033,7.685-.077,11.481-.122.542-.008,1.079-.014,1.612-.021l0,.017h25.955c.035-.019.07-.042.106-.062l.071-.044c6.97-4.323,5.415-13,3.774-18.435-.662-5.815-3.23-12.626-5.329-18.957.651-1.927,1.566-3.029,5.493-4.479,4.363-1.608,5.508-8.475,5.508-8.475,1.166,3.07-1.5,7.309-1.57,7.42.151-.178,6.667-7.9,2-15.621" transform="translate(-1004.246 -511.282)" fill="#c6916d"></path><path id="Trazado_2551" data-name="Trazado 2551" d="M1039.979,724.738s-26.184,11.408-30.937,11.2S975,727.017,975,727.017l.745,5.038s22.6,13,30.5,13.737c7.78.726,34.381-6.982,36.949-8.61s4.243-10.8-3.221-12.445" transform="translate(-753.439 -560.046)" fill="#ed985f"></path><path id="Trazado_2552" data-name="Trazado 2552" d="M1230.351,538.432s9.66-1.835,14.471,1.679c8.714,6.364,9.183,28.3,12.449,31.573s11.139,1.874,11.84,18.786-3.135,18.326,1.433,25.875-1.932,15.105-1.932,15.105,2.662-4.167,1.521-7.176c0,0-1.108,6.639-5.326,8.195s-4.841,2.7-5.514,4.979c0,0-35.98-18.436-36.019-31.513s-7.08-26.03-3.623-31.7a12.54,12.54,0,0,0-1.729,5.121,6.742,6.742,0,0,1,1.521-7.676c3.6-3.7-4.218-11.359-3.061-20.227.794-6.089,5.067-12.759,13.968-13.024" transform="translate(-939.877 -415.707)" fill="#233862"></path><path id="Trazado_2553" data-name="Trazado 2553" d="M1246.938,686.167a25.182,25.182,0,0,0,8.8,3.746c13.569,3.135,18.769-8.333,20.722-16.205a11.66,11.66,0,0,0-4.6-1.412c-.981-.116-2.012-.193-2.866-.235-1.524-1.167-3.794-5.943-4.3-13.359l-.638.171-10.694,2.927s.49,3.4.73,6.612c.186,2.514.215,4.917-.261,5.505-.834.181-1.335.3-1.335.3a.029.029,0,0,1,0,.01,68.8,68.8,0,0,0-5.561,11.941" transform="translate(-963.58 -509.016)" fill="#ffb27d"></path><path id="Trazado_2554" data-name="Trazado 2554" d="M1275.244,662.392s.492,3.4.73,6.612c6.058-.606,8.87-6.375,9.965-9.539Z" transform="translate(-985.453 -509.606)" fill="#ed985f"></path><path id="Trazado_2555" data-name="Trazado 2555" d="M1246.917,602.421s14.38-.794,13.749-9.741.8-15.076-8.41-14.948-10.749,3.669-11.264,6.706,2.169,17.959,5.926,17.983" transform="translate(-958.935 -446.444)" fill="#ffb27d"></path><path id="Trazado_2556" data-name="Trazado 2556" d="M1234.209,573.163c2.027-2.851,3.748-2.38,4.746-1.639a10.065,10.065,0,0,1,13.058,1.139,17.135,17.135,0,0,0,6.314,9.7s-2.5,1.8-8.649.686a10.284,10.284,0,0,1-5.131-3.023,33.591,33.591,0,0,0,6.272,6.63c-7.448-2.815-11.063-12.634-11.427-13.674a11.286,11.286,0,0,0-2.833,4.4c-.553,2.33-2.937,5.972-4.315,5.911,0,0-1.076-5.851,1.964-10.126" transform="translate(-952.083 -440.174)" fill="#233862"></path><path id="Trazado_2557" data-name="Trazado 2557" d="M1250.712,755.712c1.3-6.639,5.533-33.162,1.3-41.7-1.521-3.066-7.488-3.343-14.035-3.074-2.037,1.315-9.8,6.285-12.989,5.665-.034-.006-.1-.021-.178-.042-1.5-.376-2.068-1.431-.816-2.34a28.577,28.577,0,0,0-7.27.445c-2.274.428-8.409,3.6-8.409,3.6s3.09,5.581,7.645,7.508c-.775,6.929.377,9.986,7.566,25.991,6.074,13.529-.819,25.708-.819,25.708s35.757,28.75,35.957,14.112c.149-11.02-9.61-27.393-7.95-35.878" transform="translate(-933.733 -549.323)" fill="#b5453c"></path><path id="Trazado_2558" data-name="Trazado 2558" d="M1150.086,874.124a6.648,6.648,0,0,1-4.783-2.911q-.259-.387-.553-.833c-4.07-6.162-5.654-25.031-14.809-45.134-2.23-4.894-10.235-5.774-12.417-11.307,0,0-5.373-17.932,10.283-18.461s41.926,49.9,42.341,55.183c.4,5.123,10.35,26.895-20.062,23.463" transform="translate(-862.887 -614.707)" fill="#dd6d22"></path><path id="Trazado_2559" data-name="Trazado 2559" d="M990.03,1100.457h22.282s.833-3.554-.63-5.972c-1.295-2.14-.8-3.359.16-5.129a8.656,8.656,0,0,1-3.753.707,7.849,7.849,0,0,1-3.314-1.166,80.215,80.215,0,0,1-6.348,6.669c-1.456,1.046-7.949.673-8.4,4.891" transform="translate(-765.053 -841.452)" fill="#9e332e"></path><path id="Trazado_2560" data-name="Trazado 2560" d="M1269.982,755.331s2.9,26.384-15.907,31.913-24.147-24.276-8.961-26.42a146.167,146.167,0,0,0,24.869-5.493" transform="translate(-955.352 -583.687)" fill="#9e332e"></path><path id="Trazado_2561" data-name="Trazado 2561" d="M1062.688,798.254c-1.342,10.058-6.581,41.807-15.823,57.3-2.98,4.994,7.507,7.793,7.564,7.778,1.406-.368,3.75-2.61,4.83-3.584,7.5-6.762,22.736-25.911,22.736-41.263,0-7.486.131-21.782-5.312-25.415-3.352-2.238-13.461,1.193-13.994,5.188" transform="translate(-808.56 -612.299)" fill="#ed7d2b"></path><path id="Trazado_2562" data-name="Trazado 2562" d="M1208.626,869.823s-.825-1.149-2.266-3.332c-1.713-2.6-3.609-7.7-5.91-14.25-2.417-6.873-5.284-15.329-8.867-24.127-1.105-2.716-2.28-5.465-3.529-8.209-2.23-4.894-8.365-4.217-10.547-9.75,0,0-8.517-19.18,7.138-19.709s45.4,51.307,47.112,56.327c1.871,5.5,11,28.316-23.132,23.051" transform="translate(-908.14 -610.818)" fill="#f99746"></path><path id="Trazado_2563" data-name="Trazado 2563" d="M1062.009,1100.457h22.282s.833-3.554-.63-5.972c-1.3-2.14-.8-3.359.161-5.129a8.657,8.657,0,0,1-3.753.707,7.846,7.846,0,0,1-3.313-1.166,80.2,80.2,0,0,1-6.349,6.669c-1.456,1.046-7.949.673-8.4,4.891" transform="translate(-820.675 -841.452)" fill="#b5453c"></path><path id="Trazado_2564" data-name="Trazado 2564" d="M1256.178,929.857c-2.417-6.873-5.284-15.329-8.867-24.127.936-6.666,2.954-12.5,6.349-14.848,0,0,8.234,25.509,2.519,38.975" transform="translate(-963.868 -688.435)" fill="#ed7d2b"></path><path id="Trazado_2565" data-name="Trazado 2565" d="M1131.316,798.9c-1.342,10.059-3.232,42.52-12.474,58.009-2.98,4.994,7.507,7.793,7.564,7.778,1.406-.368,3.749-2.61,4.829-3.584,7.5-6.762,22.736-25.911,22.736-41.263,0-7.486-8.785-21.181-14.228-24.815a5.475,5.475,0,0,0-8.428,3.874" transform="translate(-864.181 -613.656)" fill="#f99746"></path><path id="Trazado_2566" data-name="Trazado 2566" d="M958.811,669.458l22.819-2.424a1.473,1.473,0,0,1,1.532.941l8.164,21.453a1.473,1.473,0,0,1-1.317,2l-22.643.914a1.473,1.473,0,0,1-1.418-.9l-8.341-19.943a1.473,1.473,0,0,1,1.2-2.033" transform="translate(-739.909 -515.449)" fill="#9e332e"></path><path id="Trazado_2567" data-name="Trazado 2567" d="M950.088,670.371l22.819-2.424a1.473,1.473,0,0,1,1.532.941l8.164,21.453a1.473,1.473,0,0,1-1.317,2l-22.643.914a1.472,1.472,0,0,1-1.418-.9l-8.34-19.943a1.473,1.473,0,0,1,1.2-2.033" transform="translate(-733.168 -516.154)" fill="#b5453c"></path><path id="Trazado_2568" data-name="Trazado 2568" d="M1009.927,718.005a.938.938,0,0,1,.882-1.386,2.194,2.194,0,0,1,1.891,1.386.939.939,0,0,1-.882,1.387,2.193,2.193,0,0,1-1.891-1.387" transform="translate(-780.359 -553.772)" fill="#9e332e"></path><path id="Trazado_2569" data-name="Trazado 2569" d="M957.427,685.246a.461.461,0,0,1,.433-.681,1.077,1.077,0,0,1,.929.681.461.461,0,0,1-.433.681,1.078,1.078,0,0,1-.929-.681" transform="translate(-739.824 -529.002)" fill="#9e332e"></path><path id="Trazado_2570" data-name="Trazado 2570" d="M1148.108,724.738s-31.626,11.647-36.377,11.408c-3.072-.154-28.6-9.128-28.6-9.128l-2.292,4.336s24.848,15.971,31.679,15.892c13.486-.156,36.243-8.434,38.812-10.062s4.242-10.8-3.221-12.445" transform="translate(-835.225 -560.046)" fill="#ffb27d"></path><path id="Trazado_2571" data-name="Trazado 2571" d="M1035.151,722.409s-2.292-3.527-4.574-3.63-6.224,1.556-7.572,1.815-5.187,1.5-4.046,3.371,6.431,2.282,8.713,1.867a10.575,10.575,0,0,1,5.186.913Z" transform="translate(-787.247 -555.437)" fill="#ffb27d"></path><path id="Trazado_2572" data-name="Trazado 2572" d="M1055.034,712.162s-3.629-1.665-4.667-1.976-.83,0-.519.988,2.178,1.921,2.178,2.23,3.007-1.242,3.007-1.242" transform="translate(-811.082 -548.712)" fill="#ffb27d"></path><path id="Trazado_2573" data-name="Trazado 2573" d="M964.62,713.587s2.288-3.62,3.037-3.768c2.282-.451,2.282,2.555,1.8,4.493-.519,2.08-2.277,4.043-2.764,3.871s-2.61-2.684-2.072-4.6" transform="translate(-745.35 -548.482)" fill="#ffb27d"></path><path id="Trazado_2574" data-name="Trazado 2574" d="M964.345,729.748a6.058,6.058,0,0,0,3.124,6.18Z" transform="translate(-745.161 -563.917)" fill="#ffb27d"></path><path id="Trazado_2575" data-name="Trazado 2575" d="M1255.437,662.639s1.359-.538,5.185-.228c0,0-.2,1.492-3.025,1.64a2.25,2.25,0,0,1-2.16-1.412" transform="translate(-970.148 -511.808)" fill="#fff"></path><path id="Trazado_2576" data-name="Trazado 2576" d="M1305.162,727.984s2.828,8.954,12.542,10.992c0,0,16.042-4.942,8.055-15.871,0,0-7.9-5.868-20.6,4.879" transform="translate(-1008.573 -557.549)" fill="#b5453c"></path><path id="Trazado_2577" data-name="Trazado 2577" d="M633.531,1141.449H.719a.721.721,0,0,1-.719-.719v-.245a.721.721,0,0,1,.719-.719H633.531a.721.721,0,0,1,.719.719v.245a.721.721,0,0,1-.719.719" transform="translate(0 -880.762)" fill="#2e3552"></path></g></g></svg>