<svg xmlns="http://www.w3.org/2000/svg" xmlns:xlink="http://www.w3.org/1999/xlink" width="70" height="70" viewBox="0 0 70 70"><defs><clipPath id="clip-path"><rect id="Rect&#xE1;ngulo_1767" data-name="Rect&#xE1;ngulo 1767" width="32.8" height="35" fill="#fff"></rect></clipPath></defs><g id="edificio" transform="translate(-4685 329)"><circle id="Elipse_1" data-name="Elipse 1" cx="35" cy="35" r="35" transform="translate(4685 -329)" fill="#3728ae"></circle><g id="Grupo_484" data-name="Grupo 484" transform="translate(4704 -311)"><g id="Grupo_483" data-name="Grupo 483" clip-path="url(#clip-path)"><path id="Trazado_2075" data-name="Trazado 2075" d="M.473,35a2.4,2.4,0,0,1-.24-.182A.636.636,0,0,1,.042,34.1a.675.675,0,0,1,.682-.469c.547-.008,1.094,0,1.64,0h.364V5.618c0-.1,0-.2,0-.308a.715.715,0,0,1,.808-.8c1.081-.005,2.162,0,3.293,0V4.135q0-1.623,0-3.247c0-.649.239-.887.889-.887Q16.4,0,25.081,0c.651,0,.888.238.889.888,0,1.194,0,2.388,0,3.623h1.414c.6,0,1.206,0,1.81,0,.629,0,.875.245.877.867,0,1.23,0,2.46,0,3.691V33.633c.678,0,1.324-.008,1.97,0,.521.008.878.4.721.832a2.112,2.112,0,0,1-.436.532ZM12.3,33.616v-.394q0-3.639,0-7.279c0-.7.227-.923.923-.923q3.178,0,6.357,0c.695,0,.922.227.922.923q0,3.657,0,7.314v.359h8.182V5.9H4.112V33.616ZM8.213,4.488H24.576v-3.1H8.213Zm10.9,29.128V26.4H13.686v7.205h2.031v-.225c0-.729-.01-1.459.006-2.187a.683.683,0,0,1,.688-.7.7.7,0,0,1,.669.689c.01.125,0,.251,0,.376v2.057Z" fill="#fff"></path><path id="Trazado_2076" data-name="Trazado 2076" d="M10.931,11.348c0,.638,0,1.276,0,1.913-.005.561-.26.818-.819.82q-1.914.006-3.828,0a.715.715,0,0,1-.819-.819q-.008-1.914,0-3.828a.715.715,0,0,1,.819-.819q1.914-.008,3.827,0a.716.716,0,0,1,.82.819c.005.638,0,1.276,0,1.914M9.54,10.008H6.848V12.7H9.54Z" fill="#fff"></path><path id="Trazado_2077" data-name="Trazado 2077" d="M19.134,11.381c0,.627,0,1.253,0,1.88,0,.56-.259.818-.819.82q-1.912.006-3.827,0a.715.715,0,0,1-.82-.819q-.008-1.912,0-3.827a.715.715,0,0,1,.818-.82q1.914-.008,3.828,0a.716.716,0,0,1,.82.818c.005.649,0,1.3,0,1.948m-4.1,1.312h2.7V10.008h-2.7Z" fill="#fff"></path><path id="Trazado_2078" data-name="Trazado 2078" d="M27.337,11.347c0,.638,0,1.276,0,1.914-.005.56-.259.818-.819.82q-1.914.006-3.827,0a.715.715,0,0,1-.82-.819q-.008-1.914,0-3.827a.715.715,0,0,1,.818-.82q1.914-.008,3.828,0a.716.716,0,0,1,.82.818c0,.638,0,1.276,0,1.914m-1.382-1.342H23.263V12.7h2.692Z" fill="#fff"></path><path id="Trazado_2079" data-name="Trazado 2079" d="M5.462,19.517c0-.627,0-1.254,0-1.88a.715.715,0,0,1,.819-.819q1.914-.008,3.827,0a.714.714,0,0,1,.819.819q.008,1.914,0,3.828a.714.714,0,0,1-.819.819q-1.914.006-3.827,0a.715.715,0,0,1-.819-.819c-.006-.65,0-1.3,0-1.948m1.392,1.374H9.546V18.2H6.854Z" fill="#fff"></path><path id="Trazado_2080" data-name="Trazado 2080" d="M13.665,19.527c0-.615,0-1.231,0-1.846s.249-.862.844-.863q1.9-.006,3.793,0c.577,0,.829.259.83.843q0,1.9,0,3.794c0,.576-.259.828-.844.829q-1.9,0-3.793,0c-.576,0-.826-.259-.83-.844,0-.637,0-1.275,0-1.913m4.073-1.32h-2.68v2.7h2.68Z" fill="#fff"></path><path id="Trazado_2081" data-name="Trazado 2081" d="M27.337,19.569c0,.626,0,1.253,0,1.879,0,.577-.259.834-.837.836q-1.9.006-3.794,0c-.577,0-.834-.259-.835-.837q-.006-1.9,0-3.794c0-.577.259-.834.837-.835q1.9-.006,3.793,0c.577,0,.832.259.836.837,0,.638,0,1.276,0,1.914m-1.382-1.361H23.263V20.9h2.692Z" fill="#fff"></path><path id="Trazado_2082" data-name="Trazado 2082" d="M8.2,30.488c-.638,0-1.276,0-1.914,0-.56,0-.817-.259-.819-.819q-.008-1.914,0-3.828a.715.715,0,0,1,.819-.819q1.914-.006,3.827,0a.714.714,0,0,1,.819.819q.008,1.914,0,3.828c0,.56-.258.814-.819.819-.637.005-1.275,0-1.913,0M6.858,29.1h2.68v-2.7H6.858Z" fill="#fff"></path><path id="Trazado_2083" data-name="Trazado 2083" d="M24.59,30.488c-.638,0-1.276,0-1.914,0a.712.712,0,0,1-.806-.8q-.008-1.93,0-3.862a.709.709,0,0,1,.8-.805q1.931-.009,3.861,0a.709.709,0,0,1,.806.8q.009,1.931,0,3.862a.711.711,0,0,1-.8.806c-.649.006-1.3,0-1.948,0m-1.33-1.394h2.692V26.4H23.26Z" fill="#fff"></path><path id="Trazado_2084" data-name="Trazado 2084" d="M16.389,29.116a.678.678,0,1,1,.688-.667.7.7,0,0,1-.688.667" fill="#fff"></path></g></g></g></svg>