<svg xmlns="http://www.w3.org/2000/svg" xmlns:xlink="http://www.w3.org/1999/xlink" width="70" height="70" viewBox="0 0 70 70"><defs><clipPath id="clip-path"><rect id="Rect&#xE1;ngulo_1786" data-name="Rect&#xE1;ngulo 1786" width="31.723" height="34.902" transform="translate(0 0)" fill="#fff"></rect></clipPath></defs><g id="escudo" transform="translate(-4517 460)"><circle id="Elipse_1" data-name="Elipse 1" cx="35" cy="35" r="35" transform="translate(4517 -460)" fill="#3728ae"></circle><g id="Grupo_495" data-name="Grupo 495" transform="translate(4536 -442)"><g id="Grupo_494" data-name="Grupo 494" clip-path="url(#clip-path)"><path id="Trazado_2102" data-name="Trazado 2102" d="M23.881,0A9.077,9.077,0,0,1,25.03.49,2.423,2.423,0,0,1,26.068,1.8a6.169,6.169,0,0,0,3.876,3.891A2.684,2.684,0,0,1,31.72,8.21c0,1.83.025,3.663-.064,5.49a23.333,23.333,0,0,1-2.883,10.137A24.391,24.391,0,0,1,17.3,34.563a3.184,3.184,0,0,1-2.877-.009A24.379,24.379,0,0,1,.872,18.621,23.326,23.326,0,0,1,0,12.156Q0,10.263,0,8.37a2.741,2.741,0,0,1,1.856-2.7A6.114,6.114,0,0,0,5.626,1.887,2.744,2.744,0,0,1,7.667.063.529.529,0,0,0,7.78,0ZM15.86,2.047H8.425a.776.776,0,0,0-.9.6,8.106,8.106,0,0,1-4.888,4.91.757.757,0,0,0-.585.846c0,1.1.008,2.205,0,3.308a21.314,21.314,0,0,0,.369,4.477A22.341,22.341,0,0,0,15.35,32.728a1.127,1.127,0,0,0,1.037,0,22.293,22.293,0,0,0,9.718-8.39,21.712,21.712,0,0,0,3.506-10.724c.092-1.712.052-3.431.068-5.147,0-.554-.128-.738-.653-.941a8.055,8.055,0,0,1-4.811-4.851.789.789,0,0,0-.92-.628H15.86" fill="#fff"></path><path id="Trazado_2103" data-name="Trazado 2103" d="M11.591,13.242c0-.98,0-1.944,0-2.908a4.053,4.053,0,0,1,1.48-3.2,4.048,4.048,0,0,1,4.522-.674,4.075,4.075,0,0,1,2.535,3.807c.035.986.007,1.974.007,2.981.215.029.408.041.594.081a2.4,2.4,0,0,1,1.929,2.3c.023,2.092.045,4.185-.008,6.275a4.514,4.514,0,0,1-4.381,4.3q-2.4.041-4.808,0a4.515,4.515,0,0,1-4.385-4.3c-.054-2.091-.033-4.184-.008-6.275a2.4,2.4,0,0,1,2.195-2.34c.1-.011.2-.029.327-.047m4.3,2.07q-2.081,0-4.16,0c-.518,0-.623.107-.623.619,0,1.853-.005,3.706,0,5.559a2.523,2.523,0,0,0,2.673,2.669q2.081,0,4.16,0a2.528,2.528,0,0,0,2.686-2.691c0-1.842,0-3.683,0-5.525,0-.529-.1-.631-.646-.631q-2.046,0-4.092,0m2.172-2.06a.812.812,0,0,0,.029-.131c0-.92.011-1.84,0-2.76a2.224,2.224,0,1,0-4.448-.005c-.011.885,0,1.771,0,2.657a2.012,2.012,0,0,0,.029.239Z" fill="#fff"></path><path id="Trazado_2104" data-name="Trazado 2104" d="M16.885,19.741c0,.318.011.636,0,.953a1.019,1.019,0,1,1-2.037,0q-.025-.953,0-1.9a1.019,1.019,0,1,1,2.037,0c.013.317,0,.635,0,.953" fill="#fff"></path></g></g></g></svg>