<svg xmlns="http://www.w3.org/2000/svg" xmlns:xlink="http://www.w3.org/1999/xlink" width="70" height="70" viewBox="0 0 70 70"><defs><clipPath id="clip-path"><rect id="Rect&#xE1;ngulo_1785" data-name="Rect&#xE1;ngulo 1785" width="35" height="35" fill="#fff"></rect></clipPath></defs><g id="estadisticas" transform="translate(-5134 668)"><circle id="Elipse_1" data-name="Elipse 1" cx="35" cy="35" r="35" transform="translate(5134 -668)" fill="#3728ae"></circle><g id="Grupo_493" data-name="Grupo 493" transform="translate(5152 -650)"><g id="Grupo_492" data-name="Grupo 492" clip-path="url(#clip-path)"><path id="Trazado_2097" data-name="Trazado 2097" d="M16.932,26.528H0V3.969H27.063A4.009,4.009,0,0,1,28.754.731a3.841,3.841,0,0,1,2.6-.718,3.973,3.973,0,0,1,3.624,3.621A4,4,0,0,1,31.6,7.877V8.25q0,5.169,0,10.337a.647.647,0,0,0,.23.543,8.664,8.664,0,0,1,2.81,9.214,8.6,8.6,0,0,1-7.212,6.517,8.98,8.98,0,0,1-10.442-8c-.008-.093-.026-.184-.047-.328M1.136,5.081V25.387h15.8c.043-.37.083-.725.128-1.118H15.814V17.518h3.375v2.413c3.355-3.244,7.09-3.861,11.262-1.833V7.942l-1.845-.77c-1.018,1.02-2.077,2.089-3.148,3.146a.473.473,0,0,0-.145.546,1.559,1.559,0,0,1-.587,1.756,1.592,1.592,0,0,1-1.82.164,1.5,1.5,0,0,1-.873-1.623c.173-.6-.119-.88-.471-1.2a2.838,2.838,0,0,0-.355-.34.811.811,0,0,0-.388-.1,6.82,6.82,0,0,1-1-.014.43.43,0,0,0-.453.138c-.694.7-1.388,1.406-2.1,2.094-.308.3-.638.567-.361,1.058a.255.255,0,0,1,.009.1,1.692,1.692,0,0,1-1.078,1.66,1.69,1.69,0,0,1-2.028-2.5,1.638,1.638,0,0,1,1.844-.7.464.464,0,0,0,.546-.145q1.034-1.061,2.1-2.1c.294-.285.593-.541.333-1a.315.315,0,0,1-.012-.139A1.635,1.635,0,0,1,19.54,6.4a1.575,1.575,0,0,1,1.817.186,1.565,1.565,0,0,1,.565,1.764.428.428,0,0,0,.141.514c.253.229.473.493.732.714a.673.673,0,0,0,.387.1,5.892,5.892,0,0,1,.968.008.482.482,0,0,0,.512-.157c.993-1,1.993-2,2.99-3,.072-.072.136-.151.188-.208a4.687,4.687,0,0,1-.445-.87c-.1-.344-.288-.377-.588-.376q-12.612.009-25.225,0ZM19.4,30.4a7.933,7.933,0,0,0,13.1,0l-1.947-1.126a5.7,5.7,0,0,1-9.2,0L19.4,30.4m1.4-2.112c-.027-.072-.041-.115-.058-.157a5.418,5.418,0,0,1-.04-4.222,5.558,5.558,0,0,1,4.412-3.529c.1-.017.258-.121.26-.188.019-.69.011-1.38.011-2.115a7.817,7.817,0,0,0-6.391,4.171,7.678,7.678,0,0,0-.149,7.167L20.8,28.291M33.023,29.4a7.642,7.642,0,0,0-.162-7.244,7.861,7.861,0,0,0-6.346-4.069c0,.651.014,1.259-.006,1.867-.009.294.055.411.383.461a5.611,5.611,0,0,1,4.645,6.264c-.08.549-.253,1.084-.387,1.642L33.023,29.4m-7.077-7.944a4.516,4.516,0,1,0,4.521,4.5,4.528,4.528,0,0,0-4.521-4.5M33.853,3.979A2.822,2.822,0,1,0,31,6.773a2.828,2.828,0,0,0,2.858-2.794M16.934,23.209c.192-.081.426-.1.476-.212a4.5,4.5,0,0,0,.645-2.642,5.8,5.8,0,0,1-.008-.914v-.782H16.934ZM20.867,7.89a.562.562,0,1,0-.548.575.568.568,0,0,0,.548-.575m2.808,3.963a.562.562,0,1,0-.544-.579.57.57,0,0,0,.544.579m-7.889,1.133a.562.562,0,1,0-.563.56.567.567,0,0,0,.563-.56" fill="#fff"></path><path id="Trazado_2098" data-name="Trazado 2098" d="M11.3,15.258h3.344v8.988H11.3Zm1.127,7.862H13.5V16.38H12.424Z" fill="#fff"></path><path id="Trazado_2099" data-name="Trazado 2099" d="M2.255,18.65H5.6v5.6H2.255Zm2.218,1.138H3.387v3.343H4.473Z" fill="#fff"></path><path id="Trazado_2100" data-name="Trazado 2100" d="M6.781,19.775h3.344v4.472H6.781ZM7.9,23.128H8.994V20.912H7.9Z" fill="#fff"></path><rect id="Rect&#xE1;ngulo_1777" data-name="Rect&#xE1;ngulo 1777" width="7.871" height="1.085" transform="translate(4.513 6.229)" fill="#fff"></rect><rect id="Rect&#xE1;ngulo_1778" data-name="Rect&#xE1;ngulo 1778" width="7.871" height="1.085" transform="translate(4.515 8.493)" fill="#fff"></rect><rect id="Rect&#xE1;ngulo_1779" data-name="Rect&#xE1;ngulo 1779" width="7.864" height="1.086" transform="translate(4.521 10.744)" fill="#fff"></rect><rect id="Rect&#xE1;ngulo_1780" data-name="Rect&#xE1;ngulo 1780" width="7.859" height="1.086" transform="translate(4.514 13.003)" fill="#fff"></rect><rect id="Rect&#xE1;ngulo_1781" data-name="Rect&#xE1;ngulo 1781" width="1.084" height="1.085" transform="translate(2.26 6.239)" fill="#fff"></rect><rect id="Rect&#xE1;ngulo_1782" data-name="Rect&#xE1;ngulo 1782" width="1.073" height="1.098" transform="translate(2.269 8.476)" fill="#fff"></rect><rect id="Rect&#xE1;ngulo_1783" data-name="Rect&#xE1;ngulo 1783" width="1.089" height="1.096" transform="translate(2.257 10.74)" fill="#fff"></rect><rect id="Rect&#xE1;ngulo_1784" data-name="Rect&#xE1;ngulo 1784" width="1.091" height="1.085" transform="translate(2.262 13.003)" fill="#fff"></rect><path id="Trazado_2101" data-name="Trazado 2101" d="M29.337,25.964a3.386,3.386,0,1,1-3.391-3.381,3.4,3.4,0,0,1,3.391,3.381m-1.129.009a2.257,2.257,0,1,0-2.27,2.253,2.261,2.261,0,0,0,2.27-2.253" fill="#fff"></path></g></g></g></svg>