<svg xmlns="http://www.w3.org/2000/svg" xmlns:xlink="http://www.w3.org/1999/xlink" width="70" height="70" viewBox="0 0 70 70"><defs><clipPath id="clip-path"><rect id="Rect&#xE1;ngulo_498" data-name="Rect&#xE1;ngulo 498" width="40" height="28.133" fill="#fff"></rect></clipPath></defs><g id="frente_carro_" data-name="frente carro " transform="translate(1085 -1070)"><circle id="Elipse_4" data-name="Elipse 4" cx="35" cy="35" r="35" transform="translate(-1085 1070)" fill="#3728ae"></circle><g id="Grupo_340" data-name="Grupo 340" transform="translate(-1070 1091)"><g id="Grupo_339" data-name="Grupo 339" clip-path="url(#clip-path)"><path id="Trazado_351" data-name="Trazado 351" d="M39.753,6.606A3.106,3.106,0,0,0,36.94,4.851c-.471-.016-.948-.012-1.409-.009-.3,0-.619,0-.928,0a2.431,2.431,0,0,0-1.858.829c-.035.038-.07.077-.106.119l-.452-.742c-.412-.677-.8-1.317-1.205-1.964A6.142,6.142,0,0,0,25.5.009C21.075,0,17.677,0,14.484.01A6.119,6.119,0,0,0,9.035,3.069c-.346.554-.692,1.121-1.026,1.67q-.289.474-.579.947c-.022.035-.046.071-.072.107a2.419,2.419,0,0,0-1.849-.943c-.89-.018-1.7-.017-2.464,0a3.1,3.1,0,0,0-2.512,1.3A2.167,2.167,0,0,0,.1,8.192a2.178,2.178,0,0,0,1.63,1.322c.521.13,1.041.263,1.561.4l.485.124a6.379,6.379,0,0,0-2.216,4.6c-.064,2.022-.046,3.973-.017,6.312A3.442,3.442,0,0,0,2.92,23.607a.6.6,0,0,1,.185.379c.015.437.014.884.012,1.317,0,.319,0,.648,0,.973A1.825,1.825,0,0,0,4.97,28.124c.817.01,1.647.008,2.45.006l1.033,0a1.8,1.8,0,0,0,1.323-.567,1.967,1.967,0,0,0,.532-1.464c0-.355,0-.709,0-1.072v-.315A180.978,180.978,0,0,0,29.7,24.7c0,.125,0,.248,0,.371,0,.4-.006.774.006,1.157a1.842,1.842,0,0,0,1.935,1.9c.582,0,1.143.006,1.691.006s1.093,0,1.628-.006a1.833,1.833,0,0,0,1.925-1.945c0-.29,0-.58,0-.87,0-.479,0-.975.011-1.46a.57.57,0,0,1,.163-.359,3.632,3.632,0,0,0,1.265-2.8c.011-2.03.019-3.86-.005-5.7a6.948,6.948,0,0,0-1.742-4.558c-.115-.134-.237-.262-.367-.4l-.005-.006.55-.138c.613-.154,1.192-.3,1.779-.463a1.933,1.933,0,0,0,1.219-2.834M35.624,8.673l-1.077.272c-.019,0-.04.008-.06.011a.439.439,0,0,0-.244.1c-.037.035-.079.07-.122.106-.165.138-.352.295-.371.5a.882.882,0,0,0,.427.726,4.98,4.98,0,0,1,2.608,3.9,10.824,10.824,0,0,1,.08,1.709c0,.171,0,.342,0,.513.011,1.444.007,2.9,0,4.133a2.129,2.129,0,0,1-2.073,2.241c-4.612.4-9.476.607-14.868.634-5.394-.023-10.271-.233-14.908-.642a2.041,2.041,0,0,1-2.008-1.946l-.01-.6c-.032-1.977-.066-4.022.082-6.016a4.652,4.652,0,0,1,2.681-3.862.814.814,0,0,0,.54-.77.793.793,0,0,0-.69-.7c-1.265-.312-2.529-.629-3.489-.871-.247-.062-.557-.185-.635-.42a.859.859,0,0,1,.259-.717,1.65,1.65,0,0,1,1.29-.653c.451-.008.906-.01,1.346-.01.386,0,.76,0,1.107,0a.914.914,0,0,1,.829.558,1.146,1.146,0,0,1,.086.257,1.287,1.287,0,0,0,.131.36c.166.277.349.55.594.592a.928.928,0,0,0,.781-.4c.667-1.045,1.32-2.122,1.952-3.164l.407-.671a4.827,4.827,0,0,1,1.649-1.677,4.527,4.527,0,0,1,2.358-.687l2.8,0c2.841-.005,5.779-.011,8.667.013a4.512,4.512,0,0,1,3.958,2.3c.519.828,1.034,1.678,1.532,2.5q.342.564.685,1.128c.015.025.028.052.041.079a.573.573,0,0,0,.183.245c.039.026.079.055.12.085a.9.9,0,0,0,.63.256.95.95,0,0,0,.594-.641c.249-.915.511-1.126,1.4-1.126h.585c.493,0,1,0,1.5.011a1.657,1.657,0,0,1,1.417.84.669.669,0,0,1,.117.569.666.666,0,0,1-.474.331c-.8.208-1.619.414-2.408.614M8.843,25.694c0,.141.006.286,0,.427-.007.415-.135.55-.527.554-1.069.011-2.154.011-3.226,0-.388,0-.507-.124-.512-.515-.006-.463,0-.916,0-1.4q0-.219,0-.441l.984.071c1.014.074,1.972.144,2.947.2.18.01.277.034.316.079a.4.4,0,0,1,.033.254,6.308,6.308,0,0,0-.015.772m22.313-.979c0-.107,0-.107.16-.114l.068,0,.864-.062q1.362-.1,2.723-.2c.132-.01.259-.028.405-.05l.042-.006q0,.242,0,.478c0,.529,0,1.029-.006,1.534a.356.356,0,0,1-.393.375c-1.122.014-2.276.015-3.43,0-.274,0-.417-.152-.426-.443-.008-.248-.006-.5,0-.747s0-.509,0-.766" transform="translate(0 0)" fill="#fff"></path><path id="Trazado_352" data-name="Trazado 352" d="M87.751,35.842H105.97a1.4,1.4,0,0,0,1.282-.6,1.384,1.384,0,0,0-.1-1.4q-.465-.833-.933-1.663-.605-1.076-1.207-2.154a3.2,3.2,0,0,0-2.98-1.747c-3.377.011-6.876.011-10.4,0h-.013a3.189,3.189,0,0,0-2.965,1.751c-.436.787-.885,1.584-1.319,2.355q-.4.713-.8,1.426a1.427,1.427,0,0,0-.118,1.432,1.45,1.45,0,0,0,1.328.6m.163-1.489.227-.405.694-1.241q.184-.327.369-.654c.248-.439.505-.893.751-1.344a1.717,1.717,0,0,1,1.613-.978c3.614,0,7.165,0,10.556,0a1.639,1.639,0,0,1,1.524.849c.544.953,1.089,1.928,1.616,2.871l.5.9Z" transform="translate(-76.838 -25.181)" fill="#fff"></path><path id="Trazado_353" data-name="Trazado 353" d="M134.957,136.742q-1.613,0-3.226,0h-1.152l-1.405,0c-1.041,0-2.119,0-3.178.006a1.9,1.9,0,0,0-1.5.69,1.767,1.767,0,0,0-.309,1.524,10.684,10.684,0,0,0,.375,1.229,1.644,1.644,0,0,0,1.611,1.163c1.372.008,2.792.012,4.364.012,1.334,0,2.777,0,4.392-.009a1.729,1.729,0,0,0,1.666-1.219c.075-.213.138-.433.2-.644q.032-.112.064-.224a1.8,1.8,0,0,0-1.9-2.525m.491,2.151c-.038.124-.07.234-.1.332-.1.35-.16.543-.249.609s-.29.064-.655.06l-.324,0H131.8c-1.747,0-3.554,0-5.332.008-.4,0-.556-.111-.617-.448a2.95,2.95,0,0,0-.116-.411c-.021-.064-.043-.128-.062-.193-.075-.257-.081-.43-.017-.516s.24-.133.519-.133h4.583v-.007h1.1q1.536,0,3.072,0c.3,0,.482.045.549.136s.057.276-.032.566" transform="translate(-110.55 -121.775)" fill="#fff"></path><path id="Trazado_354" data-name="Trazado 354" d="M49.378,124.231a5.423,5.423,0,0,0-4.671-3.54h-.023a2.715,2.715,0,0,0-2.629,2.276,2.483,2.483,0,0,0,1.691,2.748c1.285.391,2.665.772,4.219,1.165a1.488,1.488,0,0,0,.364.046,1.327,1.327,0,0,0,.933-.377,1.441,1.441,0,0,0,.39-1.353,7.269,7.269,0,0,0-.275-.964m-5.865-1.115a1.245,1.245,0,0,1,1.2-.961,1.115,1.115,0,0,1,.178.014,4.019,4.019,0,0,1,3.3,3.25c-.128-.027-.239-.051-.348-.08q-.972-.267-1.942-.536l-1.519-.42a1.075,1.075,0,0,1-.869-1.267" transform="translate(-37.425 -107.483)" fill="#fff"></path><path id="Trazado_355" data-name="Trazado 355" d="M258.03,120.811a5.486,5.486,0,0,0-4.5,4.441,1.447,1.447,0,0,0,.392,1.36,1.345,1.345,0,0,0,.943.377,1.548,1.548,0,0,0,.384-.05c1.407-.361,2.8-.743,4.141-1.137a2.5,2.5,0,0,0,1.764-2.362,2.665,2.665,0,0,0-3.129-2.629m1.647,2.365a1.064,1.064,0,0,1-.861,1.274c-1.187.332-2.4.66-3.566.978l-.134.036a.815.815,0,0,1-.115.021,3.954,3.954,0,0,1,3.337-3.249,1.026,1.026,0,0,1,.182-.016,1.219,1.219,0,0,1,1.156.956" transform="translate(-225.759 -107.551)" fill="#fff"></path></g></g></g></svg>