<svg xmlns="http://www.w3.org/2000/svg" xmlns:xlink="http://www.w3.org/1999/xlink" width="70" height="70" viewBox="0 0 70 70"><defs><clipPath id="clip-path"><rect id="Rect&#xE1;ngulo_491" data-name="Rect&#xE1;ngulo 491" width="45" height="28.309" fill="#fff"></rect></clipPath></defs><g id="grua" transform="translate(974 -938)"><circle id="Elipse_2" data-name="Elipse 2" cx="35" cy="35" r="35" transform="translate(-974 938)" fill="#3728ae"></circle><g id="Grupo_326" data-name="Grupo 326" transform="translate(-961 959)"><g id="Grupo_325" data-name="Grupo 325" clip-path="url(#clip-path)"><path id="Trazado_327" data-name="Trazado 327" d="M19.558,5.808c.215-2.046.836-2.9,2.153-2.879a2.5,2.5,0,0,1,1.3.407,2.38,2.38,0,0,1,.8,1.056,6.086,6.086,0,0,1,.2,1.418c.43,0,.879,0,1.329,0a2.172,2.172,0,0,1,2.239,2.232c.009,1.175,0,2.351,0,3.573.822,0,1.6.018,2.384-.016.147-.007.314-.2.424-.347Q34.421,5.892,38.444.522c.47-.627.736-.67,1.4-.231.6.4,1.211.8,1.809,1.207.5.34.594.7.24,1.187A1.651,1.651,0,0,0,41.62,4.15c.422,1.9.778,3.816,1.158,5.726a.746.746,0,0,1-.71,1.014,1.453,1.453,0,0,0-.146,2.895,1.476,1.476,0,0,0,1.616-1.26c.01-.044.017-.089.035-.182h1.371a2.793,2.793,0,0,1-2.124,2.809,2.9,2.9,0,0,1-1.963-5.429c.213-.1.394-.162.326-.478C40.91,7.976,40.662,6.7,40.4,5.429c-.014-.068-.037-.135-.077-.281L36.2,11.566c.691.2.814.36.815,1.066,0,.616,0,1.231,0,1.864,1.358-.038,2.4.74,3.563,1.171.989.367,1.948.815,2.923,1.222A2.234,2.234,0,0,1,45,19.142c-.007.877.008,1.754,0,2.631A2.9,2.9,0,0,1,42.08,24.68c-.408.006-.818.024-1.224-.006-.328-.025-.454.106-.579.4a4.857,4.857,0,0,1-4.438,3.209,4.726,4.726,0,0,1-4.76-2.758,1.314,1.314,0,0,0-1.434-.864c-5.185.034-10.371.021-15.556.012a.6.6,0,0,0-.686.447A5.052,5.052,0,0,1,4,25.083c-.127-.328-.283-.454-.62-.406a3.927,3.927,0,0,1-.544,0c-1.517,0-2.223-.4-2.706-1.83A5.243,5.243,0,0,1,.078,20.8c.018-.206.364-.383.646-.656,0-.671,0-1.486,0-2.3a4.743,4.743,0,0,1,4.6-4.957c1.626-.131,3.249-.3,4.871-.483a.987.987,0,0,0,.567-.3c1.038-1.14,2.093-2.268,3.071-3.458a6.949,6.949,0,0,1,5.725-2.836m6.554,17.4c.007-.113.015-.186.015-.26q0-7.414,0-14.828c0-.591-.269-.858-.861-.86-1.9,0-3.809.014-5.714-.007a5.285,5.285,0,0,0-4.258,1.938c-1.1,1.27-2.265,2.479-3.324,3.778a2.509,2.509,0,0,1-1.944.925c-1.731.135-3.458.333-5.185.521a2.573,2.573,0,0,0-1.607.827H4.44c1.271,0,1.377.105,1.364,1.357a2.185,2.185,0,0,1-2.293,2.272c-.433,0-.867,0-1.305,0v1.452c.649,0,1.268-.019,1.884.008a.8.8,0,0,0,.721-.34,5.055,5.055,0,0,1,8.274.671,5.492,5.492,0,0,1,.719,2.546Zm1.5-7.24v7.222h2.856a5.109,5.109,0,0,1,10.218.036c.431,0,.866,0,1.3,0a1.457,1.457,0,0,0,1.56-1.558c.006-.831-.014-1.663.007-2.493a.909.909,0,0,0-.646-.964c-1.687-.7-3.362-1.423-5.047-2.124a1.758,1.758,0,0,0-.657-.113q-3.9-.011-7.8,0Zm7.942-2.908c-.278,0-.519.019-.755,0A.713.713,0,0,1,34.208,12a2.984,2.984,0,0,1,.186-.31q2.844-4.421,5.688-8.843c.094-.146.178-.3.278-.467l-1-.659c-.136.177-.238.308-.338.44q-3.89,5.186-7.774,10.376a1.169,1.169,0,0,1-1.065.539c-.856-.028-1.713-.008-2.577-.008v1.416h7.944ZM12.335,23.258a3.628,3.628,0,1,0-3.668,3.6,3.637,3.637,0,0,0,3.668-3.6m26.855-.01a3.628,3.628,0,1,0-3.658,3.609,3.636,3.636,0,0,0,3.658-3.609M3.795,21.81H1.466c.006,1.516.734,1.538,2.13,1.358l.2-1.358M22.487,5.788c-.012-.487.179-1.027-.358-1.3a.919.919,0,0,0-.781.048c-.473.309-.268.816-.29,1.257ZM2.209,17.386c1.466.081,2.083.138,2.092-.689H2.908c-.631,0-.631,0-.7.689" transform="translate(0 0)" fill="#fff"></path><path id="Trazado_328" data-name="Trazado 328" d="M107.922,72.355c-1.724,0-3.447,0-5.171,0-.368,0-.7-.045-.879-.418-.2-.4.01-.686.259-.975,1.027-1.19,2.066-2.371,3.064-3.586a4.019,4.019,0,0,1,3.4-1.566c1.541.038,3.084.007,4.626.01.655,0,.91.253.911.9q.005,2.359,0,4.717c0,.654-.254.911-.9.912q-2.654.005-5.307,0m-3.816-1.477h8.543V67.283c-1.571,0-3.113-.037-4.651.025a1.945,1.945,0,0,0-1.208.53c-.921.949-1.759,1.978-2.684,3.04" transform="translate(-89.456 -57.835)" fill="#fff"></path><path id="Trazado_329" data-name="Trazado 329" d="M112.661,125.968h1.452v.6c0,1.481.009,2.963,0,4.444a2.157,2.157,0,0,1-2.189,2.187c-2.373.012-4.747,0-7.12.006a.783.783,0,0,1-.846-.6,7.181,7.181,0,0,0-1.9-3.194.888.888,0,0,1-.261-.55c-.026-.95-.012-1.9-.012-2.883h1.466c0,.754-.014,1.505.01,2.255a.953.953,0,0,0,.218.554,8.208,8.208,0,0,1,1.613,2.656.4.4,0,0,0,.457.315c2.086-.011,4.172,0,6.259-.008.591,0,.858-.269.86-.861.005-1.466,0-2.933,0-4.4v-.522" transform="translate(-89.437 -110.7)" fill="#fff"></path><rect id="Rect&#xE1;ngulo_490" data-name="Rect&#xE1;ngulo 490" width="2.123" height="1.406" transform="translate(20.352 15.272)" fill="#fff"></rect><path id="Trazado_330" data-name="Trazado 330" d="M50.761,173.513a2.9,2.9,0,1,1,2.942-2.874,2.912,2.912,0,0,1-2.942,2.874m.047-1.452a1.45,1.45,0,1,0-1.457-1.432,1.463,1.463,0,0,0,1.457,1.432" transform="translate(-42.094 -147.382)" fill="#fff"></path><path id="Trazado_331" data-name="Trazado 331" d="M275.269,170.606a2.9,2.9,0,1,1-2.916-2.9,2.911,2.911,0,0,1,2.916,2.9m-1.452-.016a1.45,1.45,0,1,0-1.42,1.469,1.462,1.462,0,0,0,1.42-1.469" transform="translate(-236.805 -147.381)" fill="#fff"></path></g></g></g></svg>