<svg xmlns="http://www.w3.org/2000/svg" width="70" height="70" viewBox="0 0 70 70"><g id="Grupo_personas" data-name="Grupo personas" transform="translate(-4517 668)"><circle id="Elipse_1" data-name="Elipse 1" cx="35" cy="35" r="35" transform="translate(4517 -668)" fill="#3728ae"></circle><g id="Grupo_488" data-name="Grupo 488" transform="translate(4531.999 -658.411)"><g id="Grupo_489" data-name="Grupo 489" transform="translate(0 13.411)"><path id="Trazado_2089" data-name="Trazado 2089" d="M16.881,37.122a17.533,17.533,0,0,1-2.719-.026A3.231,3.231,0,0,1,11.5,33.891c-.019-2.322-.021-4.644.009-6.965a15.012,15.012,0,0,1,.254-1.863c-.134-.007-.3-.022-.46-.022-1.689,0-3.378,0-5.067,0a4.729,4.729,0,0,0-4.873,4.881,26.02,26.02,0,0,0,.1,3.241,3.121,3.121,0,0,0,2.6,2.578v-7.3H5.411v7.406h6.057v1.34c-.118.006-.227.016-.336.016-2.139,0-4.278.012-6.417,0a4.7,4.7,0,0,1-4.7-4.7A27.918,27.918,0,0,1,.1,28.953,5.933,5.933,0,0,1,5.81,23.715c2.135-.066,4.275.024,6.412.031a.573.573,0,0,0,.4-.194,6.062,6.062,0,0,1,5.15-2.566c1.689,0,3.378-.007,5.067,0a5.975,5.975,0,0,1,5.064,2.555c.156.214.315.206.536.205,2.25-.008,4.508-.129,6.746.03a5.879,5.879,0,0,1,5.331,5.57,22.772,22.772,0,0,1-.072,3.917,4.586,4.586,0,0,1-4.5,3.928c-2.209.023-4.419.006-6.628.006-.068,0-.137-.009-.232-.016V35.849h6.045V28.442h1.341v7.34a3.324,3.324,0,0,0,1.866-1.071,3.077,3.077,0,0,0,.838-2.025,26.019,26.019,0,0,0-.072-3.622,4.561,4.561,0,0,0-4.391-4c-1.911-.072-3.828-.017-5.741-.016a.949.949,0,0,0-.176.027c.508,2.945.2,5.9.245,8.842a3.3,3.3,0,0,1-3.253,3.278c-.689.017-1.378,0-2.1,0V26.419h1.3v9.361a2.091,2.091,0,0,0,2.723-2.114q.005-3.251,0-6.5A4.735,4.735,0,0,0,22.9,22.34q-2.6-.017-5.193,0a4.732,4.732,0,0,0-4.861,4.894q-.007,3.166,0,6.332a2.1,2.1,0,0,0,2.7,2.234V26.42h1.335Z" transform="translate(0 -12.206)" fill="#fff"></path><path id="Trazado_2092" data-name="Trazado 2092" d="M18.037,21.515A4.052,4.052,0,1,1,22.1,17.482a4.049,4.049,0,0,1-4.067,4.033m.008-1.352a2.7,2.7,0,1,0-2.694-2.711,2.692,2.692,0,0,0,2.694,2.711" transform="translate(2.228 -13.411)" fill="#fff"></path><path id="Trazado_2093" data-name="Trazado 2093" d="M8.122,23.846A4.052,4.052,0,1,1,12.2,19.82a4.049,4.049,0,0,1-4.074,4.026m0-1.352a2.7,2.7,0,1,0,.029-5.4,2.7,2.7,0,0,0-.029,5.4" transform="translate(0.651 -13.04)" fill="#fff"></path><path id="Trazado_2094" data-name="Trazado 2094" d="M27.943,23.846a4.052,4.052,0,1,1,4.07-4.03,4.049,4.049,0,0,1-4.07,4.03m.007-1.352a2.7,2.7,0,1,0-2.69-2.716,2.694,2.694,0,0,0,2.69,2.716" transform="translate(3.805 -13.04)" fill="#fff"></path><rect id="Rect&#xE1;ngulo_1769" data-name="Rect&#xE1;ngulo 1769" width="5.355" height="1.313" transform="translate(17.605 23.667)" fill="#fff"></rect></g></g></g></svg>