<svg xmlns="http://www.w3.org/2000/svg" xmlns:xlink="http://www.w3.org/1999/xlink" width="70" height="70" viewBox="0 0 70 70"><defs><clipPath id="clip-path"><rect id="Rect&#xE1;ngulo_497" data-name="Rect&#xE1;ngulo 497" width="33" height="32.916" fill="#fff"></rect></clipPath></defs><g id="herramienta" transform="translate(866 -938)"><circle id="Elipse_2" data-name="Elipse 2" cx="35" cy="35" r="35" transform="translate(-866 938)" fill="#3728ae"></circle><g id="Grupo_338" data-name="Grupo 338" transform="translate(-847 957)"><g id="Grupo_337" data-name="Grupo 337" clip-path="url(#clip-path)"><path id="Trazado_349" data-name="Trazado 349" d="M17.471,21.265a3.724,3.724,0,0,1-.307.416Q12.184,26.666,7.2,31.646a3.876,3.876,0,0,1-4.007,1.1,4.1,4.1,0,0,1-2.978-3.07A3.834,3.834,0,0,1,1.076,26.1c.14-.168.3-.322.453-.477q4.9-4.9,9.8-9.8c.1-.1.212-.188.337-.3-.089-.109-.144-.19-.212-.259-.674-.677-1.353-1.348-2.022-2.029a.422.422,0,0,0-.5-.135A6.707,6.707,0,0,1,.129,7.97a6.475,6.475,0,0,1,.433-3.9.653.653,0,0,1,1.183-.235Q3.38,5.457,5,7.092c.1.1.183.217.243.289L7.374,5.27,5.118,3.019c-.42-.419-.842-.837-1.259-1.26-.472-.479-.383-.938.228-1.2a6.728,6.728,0,0,1,9.336,5.368,6.955,6.955,0,0,1-.3,2.976.523.523,0,0,0,.049.435c1.241,1.295,2.5,2.574,3.781,3.888.167-.156.269-.245.364-.34Q20.7,9.5,24.085,6.124a.74.74,0,0,0,.247-.608,10.937,10.937,0,0,1,0-1.47.985.985,0,0,1,.317-.648c1.511-1.1,3.043-2.175,4.573-3.251A.634.634,0,0,1,30.1.22Q31.447,1.556,32.782,2.9a.624.624,0,0,1,.072.876c-1.087,1.538-2.165,3.082-3.276,4.6a.982.982,0,0,1-.661.3c-.5.037-1.006-.019-1.508-.008a.693.693,0,0,0-.438.164Q23.429,12.361,19.9,15.9c-.018.018-.029.042-.151.17.432.385.879.756,1.293,1.159q1.193,1.161,2.351,2.357c.176.182.32.14.513.075a6.782,6.782,0,1,1-4.529,7.477,6.573,6.573,0,0,1,.292-3.241.437.437,0,0,0-.116-.538c-.674-.657-1.331-1.332-2.087-2.094m-16-15.891a1.845,1.845,0,0,0-.071.212A5.271,5.271,0,0,0,3.232,10.9a5.275,5.275,0,0,0,5.622.873c.575-.222.7-.209,1.129.222q5.352,5.351,10.711,10.694a1.089,1.089,0,0,1,.285,1.36,5.267,5.267,0,0,0,.787,5.433,5.2,5.2,0,0,0,5.1,2.04A5.2,5.2,0,0,0,31.339,27.7a5.178,5.178,0,0,0-1.545-5.675,5.3,5.3,0,0,0-5.867-1.013c-.563.22-.677.21-1.1-.21L12.048,10.018c-.5-.5-.512-.564-.246-1.218A5.462,5.462,0,0,0,8.443,1.545,5.208,5.208,0,0,0,5.371,1.46c.119.127.2.222.292.311Q7.155,3.263,8.646,4.755c.424.426.426.732.006,1.154Q7.287,7.281,5.915,8.646c-.429.427-.721.424-1.153-.007Q3.268,7.15,1.777,5.658c-.088-.088-.182-.171-.3-.284M16.506,20.536,12.43,16.467a2.536,2.536,0,0,1-.206.255q-4.9,4.9-9.8,9.8c-.137.137-.278.271-.4.419a2.621,2.621,0,0,0-.555,2.534,2.86,2.86,0,0,0,4.8,1.3Q11.357,25.7,16.431,20.62a.913.913,0,0,0,.075-.084M31.5,3.5l-2-1.995c-1.192.842-2.408,1.71-3.636,2.56a.6.6,0,0,0-.3.605c.028.346,0,.7.031,1.043a1.292,1.292,0,0,1-.439,1.13q-3.478,3.442-6.927,6.915c-.1.1-.191.2-.25.264l.983,1.064c.1-.122.19-.236.29-.336q3.486-3.49,6.97-6.981a1.113,1.113,0,0,1,.923-.374A12.778,12.778,0,0,0,28.47,7.4a.551.551,0,0,0,.384-.174c.9-1.243,1.777-2.5,2.648-3.731" transform="translate(0 0)" fill="#fff"></path><path id="Trazado_350" data-name="Trazado 350" d="M212.942,216.257a2.244,2.244,0,0,1,.285-.46c.776-.794,1.567-1.572,2.349-2.359a.751.751,0,0,1,.806-.215q1.581.443,3.173.848a.811.811,0,0,1,.638.643q.4,1.552.832,3.1a.871.871,0,0,1-.262.941c-.76.736-1.506,1.487-2.246,2.243a.828.828,0,0,1-.906.24c-1.016-.288-2.038-.556-3.062-.816a.887.887,0,0,1-.71-.718c-.247-1-.526-1.993-.79-2.989-.033-.124-.058-.25-.106-.457m3.447-1.719a.885.885,0,0,0-.24.133c-.571.56-1.139,1.124-1.695,1.7a.412.412,0,0,0-.091.328q.29,1.162.621,2.313a.454.454,0,0,0,.266.264c.741.217,1.487.422,2.238.6a.546.546,0,0,0,.435-.1c.562-.531,1.109-1.081,1.643-1.641a.5.5,0,0,0,.108-.394c-.18-.751-.382-1.5-.591-2.242-.031-.109-.117-.259-.208-.285-.8-.233-1.614-.443-2.485-.676" transform="translate(-190.911 -191.13)" fill="#fff"></path></g></g></g></svg>