<svg xmlns="http://www.w3.org/2000/svg" xmlns:xlink="http://www.w3.org/1999/xlink" width="70" height="70" viewBox="0 0 70 70"><defs><clipPath id="clip-path"><rect id="Rect&#xE1;ngulo_569" data-name="Rect&#xE1;ngulo 569" width="35" height="26.907" fill="#fff"></rect></clipPath></defs><g id="laptop" transform="translate(-2195 801)"><circle id="Elipse_2" data-name="Elipse 2" cx="35" cy="35" r="35" transform="translate(2195 -801)" fill="#3728ae"></circle><g id="Grupo_347" data-name="Grupo 347" transform="translate(2213 -779)"><g id="Grupo_346" data-name="Grupo 346" clip-path="url(#clip-path)"><path id="Trazado_452" data-name="Trazado 452" d="M35,26.017a1.507,1.507,0,0,1-1.59.889Q17.43,26.887,1.451,26.9c-.761,0-1.272-.274-1.357-.876a3.528,3.528,0,0,1,.192-2.259c.814-1.536,1.587-3.095,2.36-4.652a1.658,1.658,0,0,0,.173-.709q.014-8.57.007-17.14C2.825.35,3.172,0,4.079,0H30.951c.9,0,1.251.353,1.251,1.265q0,8.519.009,17.038a2.044,2.044,0,0,0,.2.871c.8,1.61,1.617,3.207,2.431,4.807.046.09.1.173.154.26ZM31.147,1.046H3.873V18.368H31.147ZM1.376,23.9H2.5c3.255,0,6.51,0,9.765.006.271,0,.4-.057.464-.341.113-.521.271-1.033.414-1.547a1.012,1.012,0,0,1,1.131-.868q3.244-.006,6.487,0A1,1,0,0,1,21.876,22c.148.525.3,1.05.424,1.58.06.253.174.329.439.328,3.517-.011,7.034-.007,10.551-.008.106,0,.212-.012.352-.02-.743-1.467-1.463-2.9-2.2-4.317a.473.473,0,0,0-.362-.15Q17.506,19.4,3.933,19.4a.4.4,0,0,0-.416.258c-.432.877-.878,1.747-1.319,2.619-.265.525-.532,1.049-.823,1.622m32.576,1.047H1.062c0,.088-.011.155-.01.222,0,.759-.084.7.689.7H33.149c.891,0,.891,0,.8-.925M21.327,23.89c-.145-.533-.276-1.049-.432-1.557a.318.318,0,0,0-.249-.152q-3.137-.013-6.274,0a.315.315,0,0,0-.243.159c-.154.506-.285,1.019-.428,1.549Z" transform="translate(0 0)" fill="#fff"></path><path id="Trazado_453" data-name="Trazado 453" d="M58.786,25.8v4.464c0,.2,0,.41,0,.615-.011.371-.212.605-.513.606s-.506-.232-.509-.6c-.005-.74,0-1.48,0-2.22q0-1.383,0-2.766c0-.885.256-1.144,1.131-1.144H81.807c.813,0,1.1.277,1.1,1.078q0,2.442,0,4.883c0,.125.036.285-.026.367-.12.157-.292.365-.453.375s-.361-.173-.491-.319c-.073-.082-.052-.26-.052-.395q0-2.271,0-4.542v-.4Z" transform="translate(-52.819 -22.633)" fill="#fff"></path><path id="Trazado_454" data-name="Trazado 454" d="M58.7,129.305H81.8v-.375q0-2.27,0-4.54a1.459,1.459,0,0,1,.027-.372.471.471,0,0,1,.527-.386.477.477,0,0,1,.459.429,1.645,1.645,0,0,1,.011.306q0,2.475,0,4.95c0,.746-.28,1.025-1.034,1.025H58.708c-.749,0-1.028-.282-1.029-1.03q0-2.475,0-4.95c0-.114-.033-.262.024-.333.124-.154.291-.362.452-.373s.363.167.493.31c.074.081.053.26.053.394q0,2.27,0,4.54v.4" transform="translate(-52.737 -113.054)" fill="#fff"></path></g></g></g></svg>