<svg xmlns="http://www.w3.org/2000/svg" xmlns:xlink="http://www.w3.org/1999/xlink" width="70" height="70" viewBox="0 0 70 70"><defs><clipPath id="clip-path"><rect id="Rect&#xE1;ngulo_570" data-name="Rect&#xE1;ngulo 570" width="30" height="36.003" fill="#fff"></rect></clipPath></defs><g id="lavadora" transform="translate(-1578 801)"><circle id="Elipse_1" data-name="Elipse 1" cx="35" cy="35" r="35" transform="translate(1578 -801)" fill="#3728ae"></circle><g id="Grupo_349" data-name="Grupo 349" transform="translate(1598 -784)"><g id="Grupo_348" data-name="Grupo 348" clip-path="url(#clip-path)"><path id="Trazado_455" data-name="Trazado 455" d="M28.575,0c.081.039.161.082.245.116a1.744,1.744,0,0,1,1.168,1.566c.012.14.012.281.012.421q0,15.906,0,31.812a3.153,3.153,0,0,1-.051.7,1.78,1.78,0,0,1-1.622,1.381c-.1.009-.211.009-.316.009H2A1.8,1.8,0,0,1,.071,34.647a2.676,2.676,0,0,1-.061-.661Q.005,18.009,0,2.033A1.973,1.973,0,0,1,1.432,0ZM1.228,32.38H28.773V8.422H1.228Zm27.558-25.2c.006-.13.013-.223.013-.315q0-2.425,0-4.85c0-.62-.2-.815-.823-.815H2.039c-.642,0-.831.192-.831.843q0,2.39,0,4.78c0,.114.011.227.017.358ZM1.243,33.617c-.13.959.062,1.188.967,1.188H27.832a3.019,3.019,0,0,0,.421-.012.547.547,0,0,0,.518-.45,4.764,4.764,0,0,0,.008-.726Z" transform="translate(0)" fill="#fff"></path><path id="Trazado_456" data-name="Trazado 456" d="M55.543,123.915a10.8,10.8,0,1,1,10.831-10.764,10.765,10.765,0,0,1-10.831,10.764m9.64-10.766a9.6,9.6,0,1,0-9.768,9.565,9.619,9.619,0,0,0,9.768-9.565" transform="translate(-40.583 -92.709)" fill="#fff"></path><path id="Trazado_457" data-name="Trazado 457" d="M28.058,19.277a2.4,2.4,0,0,1,2.4,2.379,2.394,2.394,0,1,1-4.787,0,2.386,2.386,0,0,1,2.389-2.383m-1.191,2.378a1.2,1.2,0,1,0,2.391.025,1.2,1.2,0,0,0-2.391-.025" transform="translate(-23.258 -17.466)" fill="#fff"></path><path id="Trazado_458" data-name="Trazado 458" d="M149.4,19.275a2.385,2.385,0,0,1,2.376,2.4,2.393,2.393,0,1,1-2.376-2.4m1.178,2.4a1.2,1.2,0,0,0-2.391-.024,1.2,1.2,0,1,0,2.391.024" transform="translate(-133.178 -17.464)" fill="#fff"></path><path id="Trazado_459" data-name="Trazado 459" d="M257.4,31.975c.374,0,.748-.01,1.121,0a.587.587,0,0,1,.644.589.58.58,0,0,1-.6.6q-1.19.029-2.382,0a.591.591,0,1,1,.031-1.182c.4-.013.794,0,1.191,0" transform="translate(-231.573 -28.968)" fill="#fff"></path><path id="Trazado_460" data-name="Trazado 460" d="M257.375,52.214c-.385,0-.771.01-1.156,0a.594.594,0,0,1-.636-.566.587.587,0,0,1,.587-.615q1.207-.034,2.416,0a.57.57,0,0,1,.578.619.592.592,0,0,1-.634.565h-1.156Z" transform="translate(-231.572 -46.22)" fill="#fff"></path><path id="Trazado_461" data-name="Trazado 461" d="M206.353,31.976c.385,0,.771-.009,1.156,0a.591.591,0,1,1,.04,1.181q-1.19.034-2.381,0a.594.594,0,1,1,.03-1.186c.385-.012.771,0,1.156,0" transform="translate(-185.342 -28.968)" fill="#fff"></path><path id="Trazado_462" data-name="Trazado 462" d="M206.318,52.194c-.374,0-.748.009-1.121,0a.594.594,0,1,1-.03-1.186c.782-.021,1.565-.02,2.347,0a.6.6,0,0,1,.628.617c-.014.338-.265.554-.668.574h-1.156Z" transform="translate(-185.342 -46.2)" fill="#fff"></path><path id="Trazado_463" data-name="Trazado 463" d="M85.008,33.167c-.35,0-.7.005-1.051,0-.478-.009-.74-.232-.734-.613s.254-.58.719-.584q1.068-.009,2.137,0c.452,0,.721.228.726.586s-.27.6-.711.61c-.362.01-.724,0-1.086,0" transform="translate(-75.405 -28.962)" fill="#fff"></path><path id="Trazado_464" data-name="Trazado 464" d="M84.992,52.235c-.385,0-.771.011-1.156,0a.569.569,0,0,1-.61-.547.56.56,0,0,1,.56-.629c.816-.026,1.634-.024,2.451,0a.584.584,0,0,1,.569.6.594.594,0,0,1-.623.579c-.4.014-.794,0-1.191,0" transform="translate(-75.406 -46.243)" fill="#fff"></path><path id="Trazado_465" data-name="Trazado 465" d="M78.748,144.629a8.4,8.4,0,1,1,8.4-8.3,8.411,8.411,0,0,1-8.4,8.3m6.076-12.236A7.191,7.191,0,1,0,77.5,143.317a7.084,7.084,0,0,0,7.311-3.278,4.862,4.862,0,0,1,.014-7.646m.6,1.133a3.544,3.544,0,0,0,0,5.4,7.256,7.256,0,0,0,0-5.4" transform="translate(-63.748 -115.827)" fill="#fff"></path><path id="Trazado_466" data-name="Trazado 466" d="M95.983,159.142a6,6,0,0,1,5.057-5.634,7.809,7.809,0,0,1,.8-.07c.433-.013.689.2.707.555.019.373-.233.585-.677.644a7.965,7.965,0,0,0-1.507.282,4.727,4.727,0,0,0-3.188,4.29,1.677,1.677,0,0,1-.055.38.582.582,0,0,1-1.137-.095,2.787,2.787,0,0,1,0-.353" transform="translate(-86.962 -139.023)" fill="#fff"></path></g></g></g></svg>