<svg xmlns="http://www.w3.org/2000/svg" xmlns:xlink="http://www.w3.org/1999/xlink" width="70" height="70" viewBox="0 0 70 70"><defs><clipPath id="clip-path"><rect id="Rect&#xE1;ngulo_492" data-name="Rect&#xE1;ngulo 492" width="35.019" height="35" fill="#fff"></rect></clipPath></defs><g id="llamada" transform="translate(863 -1070)"><circle id="Elipse_2" data-name="Elipse 2" cx="35" cy="35" r="35" transform="translate(-863 1070)" fill="#3728ae"></circle><g id="Grupo_328" data-name="Grupo 328" transform="translate(-846 1088)"><g id="Grupo_327" data-name="Grupo 327" clip-path="url(#clip-path)"><path id="Trazado_332" data-name="Trazado 332" d="M35.018,16.647a16.1,16.1,0,0,1-4.182,10.662.617.617,0,0,0-.165.666A5.43,5.43,0,0,1,26.41,34.8a10.685,10.685,0,0,1-5.107-.261,24.33,24.33,0,0,1-7.945-3.927A36.838,36.838,0,0,1,2.586,18.792,19.327,19.327,0,0,1,.105,11.907,8.786,8.786,0,0,1,.414,7.826,5.538,5.538,0,0,1,7.1,4.351a.473.473,0,0,0,.516-.122A16.114,16.114,0,0,1,20.011.056a15.929,15.929,0,0,1,8.921,3.338,16.116,16.116,0,0,1,5.524,8.828,17.3,17.3,0,0,1,.563,4.424m-5.444,9.137A14.425,14.425,0,0,0,9.2,5.468c.639.656,1.293,1.3,1.917,1.972a5.086,5.086,0,0,1,1.208,5.614,7.251,7.251,0,0,1-1.971,2.788,1.4,1.4,0,0,0-.466,1.33,5.693,5.693,0,0,0,.292,1.2A11.488,11.488,0,0,0,13.7,23.055a9.292,9.292,0,0,0,3.62,1.985,1.9,1.9,0,0,0,1.913-.444c.3-.282.576-.592.879-.872a5.387,5.387,0,0,1,7.448.147c.658.64,1.332,1.264,2.017,1.913M1.949,10.72c.038.331.074.871.166,1.4A17.829,17.829,0,0,0,4.32,17.912,34.829,34.829,0,0,0,14.659,29.153,22.316,22.316,0,0,0,21.918,32.7a8.35,8.35,0,0,0,4.254.166,3.5,3.5,0,0,0,2.638-4.372,4.462,4.462,0,0,0-.987-1.635,8.619,8.619,0,0,0-2.444-2.145,3.284,3.284,0,0,0-4.251.78,3.778,3.778,0,0,1-3.353,1.561,7.9,7.9,0,0,1-2.217-.573,13.784,13.784,0,0,1-5.775-4.81,8.956,8.956,0,0,1-1.818-4.221,3.139,3.139,0,0,1,1.1-3.026,5.132,5.132,0,0,0,.7-.715,3.443,3.443,0,0,0,.229-4.6A9.693,9.693,0,0,0,7.375,6.578a3.524,3.524,0,0,0-4.551.84,5.4,5.4,0,0,0-.875,3.3" transform="translate(0 0)" fill="#fff"></path><path id="Trazado_333" data-name="Trazado 333" d="M168.663,110.539H170c.482,0,.965-.011,1.447.011a.7.7,0,0,1,.7.709.74.74,0,0,1-.624.785,1.817,1.817,0,0,1-.343.022c-1.413,0-2.826,0-4.238,0a.835.835,0,0,1-.9-.486.857.857,0,0,1,.3-.98c1.053-1.058,2.1-2.127,3.142-3.192a1.183,1.183,0,0,0,.264-1.469,1.194,1.194,0,0,0-2.241.558.766.766,0,0,1-.828.774.751.751,0,0,1-.7-.858,2.72,2.72,0,0,1,5.074-1.26,2.66,2.66,0,0,1-.391,3.24c-.683.68-1.39,1.335-2.087,2l.085.141" transform="translate(-150.694 -94.241)" fill="#fff"></path><path id="Trazado_334" data-name="Trazado 334" d="M243.234,108.623c1.007.1,1.3.292,1.286.8s-.324.7-1.288.769c0,.368.015.742,0,1.115a.761.761,0,0,1-1.091.7.729.729,0,0,1-.43-.691c0-.366,0-.731,0-1.128-.151-.007-.273-.017-.394-.017-.919,0-1.838,0-2.756,0a.775.775,0,0,1-.786-.446.787.787,0,0,1,.161-.891q1.932-2.313,3.857-4.633a.778.778,0,0,1,.93-.337.808.808,0,0,1,.515.881q0,1.74,0,3.48v.391m-1.55-1.9-1.589,1.906h1.589Z" transform="translate(-215.809 -94.262)" fill="#fff"></path></g></g></g></svg>