<svg xmlns="http://www.w3.org/2000/svg" xmlns:xlink="http://www.w3.org/1999/xlink" width="70" height="70" viewBox="0 0 70 70"><defs><clipPath id="clip-path"><rect id="Rect&#xE1;ngulo_1787" data-name="Rect&#xE1;ngulo 1787" width="35.004" height="35" fill="#fff"></rect></clipPath></defs><g id="lupa" transform="translate(-4826 460)"><circle id="Elipse_1" data-name="Elipse 1" cx="35" cy="35" r="35" transform="translate(4826 -460)" fill="#3728ae"></circle><g id="Grupo_497" data-name="Grupo 497" transform="translate(4843 -442)"><g id="Grupo_496" data-name="Grupo 496" clip-path="url(#clip-path)"><path id="Trazado_2105" data-name="Trazado 2105" d="M12.373,0a20.074,20.074,0,0,1,2.238.422,11.233,11.233,0,0,1,8.347,9.242,11.078,11.078,0,0,1-2.152,8.864c-.039.055-.075.112-.139.2.458.456.913.916,1.38,1.362a.287.287,0,0,0,.255.005,1.377,1.377,0,0,1,1.822.286q5.184,5.181,10.365,10.365a1.378,1.378,0,0,1,0,2.153c-.539.542-1.076,1.083-1.619,1.618a1.363,1.363,0,0,1-2.08-.007q-5.209-5.2-10.414-10.414a1.378,1.378,0,0,1-.274-1.8.33.33,0,0,0-.041-.3c-.375-.4-.775-.772-1.15-1.169-.146-.154-.243-.132-.4-.016A11.067,11.067,0,0,1,12.8,23.052a11.314,11.314,0,0,1-9.867-3.806A11.148,11.148,0,0,1,.056,12.669,1.469,1.469,0,0,0,0,12.44V10.732c.021-.11.052-.218.062-.328A11.539,11.539,0,0,1,8.526.421C9.27.227,10.042.137,10.8,0Zm8.033,11.6a8.835,8.835,0,1,0-8.883,8.8,8.838,8.838,0,0,0,8.883-8.8" fill="#fff"></path></g></g></g></svg>