<svg xmlns="http://www.w3.org/2000/svg" xmlns:xlink="http://www.w3.org/1999/xlink" width="70" height="70" viewBox="0 0 70 70"><defs><clipPath id="clip-path"><rect id="Rect&#xE1;ngulo_1788" data-name="Rect&#xE1;ngulo 1788" width="34.995" height="35" fill="#fff"></rect></clipPath></defs><g id="niveles" transform="translate(-5134 460)"><circle id="Elipse_1" data-name="Elipse 1" cx="35" cy="35" r="35" transform="translate(5134 -460)" fill="#3728ae"></circle><g id="Grupo_499" data-name="Grupo 499" transform="translate(5152 -442)"><g id="Grupo_498" data-name="Grupo 498" clip-path="url(#clip-path)"><path id="Trazado_2106" data-name="Trazado 2106" d="M0,.827C.365.156.8-.1,1.338.035c.581.142.849.575.849,1.373q0,12.692,0,25.383a5.921,5.921,0,0,0,4.867,5.915,6.7,6.7,0,0,0,1.29.1q12.64.009,25.28.005a2.969,2.969,0,0,1,.443.014,1.089,1.089,0,0,1,.369,2.028c-.087.05-.176.1-.264.144H7.381a1.114,1.114,0,0,0-.189-.059,8.116,8.116,0,0,1-7-6.359C.118,28.263.063,27.94,0,27.619V.827" fill="#fff"></path><path id="Trazado_2107" data-name="Trazado 2107" d="M29.77,21.5c-.182-1.4-.361-2.8-.546-4.192a1.1,1.1,0,0,1,.908-1.3,1.081,1.081,0,0,1,1.247.977q.511,3.807,1.006,7.614A1.091,1.091,0,0,1,31.077,25.9c-1.964-.246-3.925-.514-5.888-.773-.586-.078-1.174-.147-1.759-.238a1.088,1.088,0,0,1-.935-1.218,1.1,1.1,0,0,1,1.254-.934q2.133.277,4.264.56c.089.012.18.014.373.029l-5.464-5.934c-.554.365-1.1.719-1.634,1.076-1.11.735-2.217,1.474-3.329,2.206a1.129,1.129,0,0,1-1.647-.171Q11.6,15.767,6.9,11.028a1.135,1.135,0,0,1-.373-1.139,1.087,1.087,0,0,1,1.866-.46c1.052,1.041,2.088,2.1,3.132,3.148q2.8,2.823,5.605,5.651a.325.325,0,0,0,.507.046c1.549-1.04,3.108-2.067,4.664-3.1a1.15,1.15,0,0,1,1.743.2l5.485,5.955c.06.066.108.142.162.213l.081-.052" fill="#fff"></path></g></g></g></svg>