<?xml version="1.0" encoding="UTF-8"?> <svg xmlns="http://www.w3.org/2000/svg" xmlns:xlink="http://www.w3.org/1999/xlink" width="70" height="70" viewBox="0 0 70 70"><defs><clipPath id="clip-path"><rect id="Rectángulo_2486" data-name="Rectángulo 2486" width="32.839" height="35" fill="#fff"></rect></clipPath></defs><g id="pills" transform="translate(-14648 -854)"><circle id="Elipse_1" data-name="Elipse 1" cx="35" cy="35" r="35" transform="translate(14648 854)" fill="#3728ae"></circle><g id="Grupo_687" data-name="Grupo 687" transform="translate(14670 872)"><g id="Grupo_686" data-name="Grupo 686" clip-path="url(#clip-path)"><path id="Trazado_3559" data-name="Trazado 3559" d="M17.451,0a5.625,5.625,0,0,1,.82.393,2.05,2.05,0,0,1,.871,1.8q.007,1.436,0,2.87a2.088,2.088,0,0,1-1.191,1.994.384.384,0,0,0-.166.282c-.016.512-.021,1.026,0,1.537a.819.819,0,0,0,.166.426c1,1.352,2,2.709,3.035,4.042a4.18,4.18,0,0,1,.9,2.692c-.016,1.708,0,3.417,0,5.125v.432c.149-.08.255-.134.358-.193.91-.518,1.8-1.071,2.731-1.549a5.46,5.46,0,0,1,5.1,9.65q-4.08,2.39-8.188,4.727a5.4,5.4,0,0,1-7.34-1.707.463.463,0,0,0-.462-.191q-5.26,0-10.523,0A3.32,3.32,0,0,1,.366,30.38a3.172,3.172,0,0,1-.335-1.271c-.042-1.48-.024-2.961-.024-4.441,0-2.9.01-5.809-.007-8.713a4.038,4.038,0,0,1,.854-2.566Q2.4,11.367,3.9,9.316A1.168,1.168,0,0,0,4.1,8.73c.029-.443,0-.888.012-1.332a.342.342,0,0,0-.214-.37A1.961,1.961,0,0,1,2.746,5.2c-.012-1.036-.017-2.073,0-3.109A2.012,2.012,0,0,1,4.309.064c.054-.016.1-.043.156-.064ZM1.391,16.833V26.841c.092.007.168.017.244.017q6.222,0,12.44-.009a.56.56,0,0,0,.392-.231,5.243,5.243,0,0,1,1.705-1.7c1.349-.8,2.71-1.586,4.071-2.369a.452.452,0,0,0,.274-.448c-.012-1.662-.007-3.326-.007-4.989,0-.088-.009-.177-.014-.283Zm-.1-1.4h19.18a1.945,1.945,0,0,0-.454-1.1c-1.038-1.385-2.08-2.766-3.111-4.156a.49.49,0,0,0-.46-.2c-1.047.007-2.1,0-3.143,0-.979,0-1.958,0-2.937,0-.524,0-.83-.321-.773-.777.047-.374.34-.586.828-.587q2.8,0,5.6,0h.371V7.266H5.474c0,.588-.01,1.156.005,1.723a1.421,1.421,0,0,1-.313.945c-1.1,1.45-2.2,2.9-3.275,4.372a9.241,9.241,0,0,0-.6,1.125m19.456,8.384c-1.4.832-2.813,1.6-4.141,2.486A3.674,3.674,0,0,0,15,29.368a4.088,4.088,0,0,0,6.018,3.768c.684-.36,1.345-.766,2.014-1.152.6-.346,1.2-.693,1.819-1.052-1.369-2.373-2.728-4.725-4.11-7.117M10.958,5.878h5.91c.657,0,.906-.248.909-.909,0-.911,0-1.822,0-2.733,0-.613-.265-.867-.88-.868q-5.964,0-11.926,0c-.625,0-.859.238-.861.874q0,1.367,0,2.733c0,.673.231.9.9.9h5.946M26.042,30.254c1.218-.71,2.416-1.363,3.569-2.089A4.085,4.085,0,0,0,25.519,21.1c-1.185.629-2.331,1.329-3.492,2-.027.014-.041.049-.067.084l4.082,7.067m-12.33.706V28.24H1.357a7.2,7.2,0,0,0,.079,1.127,2.033,2.033,0,0,0,2.138,1.592q4.952,0,9.905,0h.233" fill="#fff"></path><path id="Trazado_3560" data-name="Trazado 3560" d="M10.266,21.392c0-.722-.012-1.4.005-2.083a.647.647,0,0,1,.6-.639.663.663,0,0,1,.7.439,1.894,1.894,0,0,1,.061.505c.007.579,0,1.157,0,1.778h1.927a.712.712,0,0,1,.742.437.677.677,0,0,1-.68.926c-.523.016-1.047,0-1.571,0h-.418c0,.576,0,1.129,0,1.682a2.7,2.7,0,0,1-.041.508.661.661,0,0,1-.688.536.65.65,0,0,1-.621-.615c-.023-.569-.012-1.138-.016-1.708v-.4H8.627c-.137,0-.274.007-.41,0a.675.675,0,0,1-.684-.7.667.667,0,0,1,.69-.658c.421-.016.843,0,1.264,0h.779" fill="#fff"></path><path id="Trazado_3561" data-name="Trazado 3561" d="M7.512,9.974a.679.679,0,0,1,.014-1.357.679.679,0,0,1-.014,1.357" fill="#fff"></path></g></g></g></svg> 