<svg xmlns="http://www.w3.org/2000/svg" xmlns:xlink="http://www.w3.org/1999/xlink" width="70" height="70" viewBox="0 0 70 70"><defs><clipPath id="clip-path"><rect id="Rect&#xE1;ngulo_2758" data-name="Rect&#xE1;ngulo 2758" width="40" height="40.001" fill="#fff"></rect></clipPath></defs><g id="red" transform="translate(-5443 668)"><circle id="Elipse_1" data-name="Elipse 1" cx="35" cy="35" r="35" transform="translate(5443 -668)" fill="#3728ae"></circle><g id="Grupo_704" data-name="Grupo 704" transform="translate(5458 -653)"><g id="Grupo_703" data-name="Grupo 703" clip-path="url(#clip-path)"><path id="Trazado_3645" data-name="Trazado 3645" d="M24.14,40H22.577l-.6-.119a7.909,7.909,0,0,1-6.122-5.106c-.1-.247-.213-.265-.438-.209-.755.191-1.513.378-2.278.535a.526.526,0,0,0-.512.563,3.279,3.279,0,0,1-3.086,2.988A3.327,3.327,0,0,1,7.972,32.3,3.3,3.3,0,0,1,12.2,33.678a.325.325,0,0,0,.431.189c.8-.209,1.614-.4,2.427-.575.295-.061.374-.175.336-.467a7.543,7.543,0,0,1,.4-3.458,8.083,8.083,0,0,1,1.471-2.554c.078-.093.143-.319.093-.376-.815-.926-1.649-1.833-2.469-2.735a.566.566,0,0,0-.107.037,7.856,7.856,0,0,1-7.839.965c-.2-.079-.274,0-.36.157-.3.561-.606,1.122-.931,1.67a.38.38,0,0,0,.073.536,3.284,3.284,0,0,1-1.008,5.294,3.318,3.318,0,0,1-4.327-4.55,3.3,3.3,0,0,1,3.679-1.715c.109.022.3-.015.345-.09.389-.658.752-1.331,1.085-1.931a21.611,21.611,0,0,1-1.857-1.938A7.692,7.692,0,0,1,2.4,14.9a7.631,7.631,0,0,1,3.256-4.245c.271-.174.287-.309.151-.585-.525-1.059-1.025-2.131-1.525-3.2a.352.352,0,0,0-.462-.249A3.322,3.322,0,0,1,.007,3.469,3.36,3.36,0,0,1,3.358,0a3.384,3.384,0,0,1,3.05,2.071,3.256,3.256,0,0,1-.821,3.68.393.393,0,0,0-.1.559c.5,1.015.978,2.039,1.465,3.06.077.161.155.318.215.437,4.3-1.211,7.572.085,9.949,3.781q3.533-1.5,7.071-2.991c.192-.081.2-.179.147-.361a7.332,7.332,0,0,1-.273-3.087c.059-.422.145-.839.223-1.28-.657-.243-1.3-.49-1.95-.709a.4.4,0,0,0-.325.146,3.3,3.3,0,0,1-4.864.519,3.322,3.322,0,1,1,5.511-2.261.411.411,0,0,0,.16.327c.635.256,1.281.482,1.937.723.075-.142.133-.256.2-.368A7.833,7.833,0,0,1,31.706.017a7.931,7.931,0,0,1,8.061,6.112c.088.35.157.7.233,1.056V8.749c-.029.125-.063.248-.085.374a7.885,7.885,0,0,1-5.2,6.386,7.452,7.452,0,0,1-4.333.305c-.186-.041-.423-.231-.559.154q-1.512,4.258-3.064,8.5c-.073.2-.041.3.15.4a5.1,5.1,0,0,1,.87.517c.654.528,1.281,1.088,1.944,1.655-.029.014.01,0,.042-.019,1.167-.757,2.329-1.521,3.5-2.266a.413.413,0,0,0,.2-.567,3.31,3.31,0,0,1,1.351-3.625,3.357,3.357,0,0,1,3.9.159A3.632,3.632,0,0,1,40,22.969v.781c-.015.021-.041.04-.045.062a3.316,3.316,0,0,1-5.474,2.011c-.174-.153-.286-.09-.438.009-.859.563-1.722,1.12-2.583,1.68-.358.233-.712.47-1.077.709l.222.485a7.966,7.966,0,0,1-4.482,10.773c-.64.232-1.321.351-1.983.523m4.527-24.742a8.148,8.148,0,0,1-3.738-3.52c-.079.026-.128.04-.174.059-2.3.973-4.591,1.951-6.893,2.913-.29.12-.222.274-.166.485a7.587,7.587,0,0,1-.427,5.4c-.371.777-.882,1.486-1.35,2.259l2.472,2.717c.869-.414,1.65-.863,2.485-1.165a7.022,7.022,0,0,1,4.111-.2c.323.079.487.019.577-.326.1-.4.275-.783.417-1.174.89-2.469,1.779-4.936,2.686-7.448m-.322,21.076a6.642,6.642,0,1,0-10.033-.05,4.822,4.822,0,0,1,2.6-2.613c-1.238-1.872-1.181-3.583.142-4.769a3.307,3.307,0,0,1,4.446-.071A3.181,3.181,0,0,1,26.6,30.8a3.364,3.364,0,0,1-.888,2.86,4.88,4.88,0,0,1,2.638,2.676m8.683-24.008A6.646,6.646,0,1,0,26.561,4.162a6.445,6.445,0,0,0,.373,8.054,12.24,12.24,0,0,1,1.109-1.48,12.933,12.933,0,0,1,1.5-1.137,3.334,3.334,0,0,1,4.436-4.937,3.3,3.3,0,0,1,1.281,2.032,3.355,3.355,0,0,1-.873,2.967,4.88,4.88,0,0,1,2.641,2.666M7.588,19a3.357,3.357,0,0,1,.093-4.725A3.317,3.317,0,0,1,12,14.03a3.253,3.253,0,0,1,1.245,2.011,3.324,3.324,0,0,1-.879,2.948,4.91,4.91,0,0,1,2.644,2.673,6.623,6.623,0,0,0-.688-9.4,6.707,6.707,0,0,0-9.517.887,6.528,6.528,0,0,0,.175,8.457A4.8,4.8,0,0,1,7.588,19m2.437,1c-.3,0-.557-.013-.816,0a3.344,3.344,0,0,0-3.072,2.413.34.34,0,0,0,.16.446,6.6,6.6,0,0,0,7.442-.054.363.363,0,0,0,.1-.306,3.175,3.175,0,0,0-1.2-1.819,3.7,3.7,0,0,0-2.621-.682m13.3,18.667a6.7,6.7,0,0,0,3.706-1.146.318.318,0,0,0,.143-.417,3.322,3.322,0,0,0-2.938-2.415c-.609-.03-1.223-.03-1.832,0a3.319,3.319,0,0,0-2.932,2.373.37.37,0,0,0,.176.482,6.805,6.805,0,0,0,3.677,1.123M32.009,10.7c-.338,0-.678-.018-1.014,0a3.286,3.286,0,0,0-2.842,2.415.483.483,0,0,0,.157.4,6.584,6.584,0,0,0,7.4-.013.447.447,0,0,0,.136-.371,3.175,3.175,0,0,0-1.185-1.781,3.609,3.609,0,0,0-2.654-.657M19.326,5.321A1.994,1.994,0,1,0,17.34,3.336a1.993,1.993,0,0,0,1.986,1.985m12.661,4a1.984,1.984,0,0,0,2-1.968,1.994,1.994,0,1,0-2,1.968M3.343,27.341a1.993,1.993,0,1,0,1.978,1.993,2.007,2.007,0,0,0-1.978-1.993m4,8.011a1.994,1.994,0,0,0,3.988-.017,1.994,1.994,0,1,0-3.988.017M5.321,3.318A2.007,2.007,0,0,0,3.327,1.333a2.025,2.025,0,0,0-2,1.993,1.995,1.995,0,1,0,3.99-.008M36.656,25.323a1.994,1.994,0,1,0-1.979-1.991,2,2,0,0,0,1.979,1.991m-15.33,6.025a1.993,1.993,0,1,0,1.968-2.007,2.008,2.008,0,0,0-1.968,2.007M9.981,14.676a1.995,1.995,0,1,0,1.993,1.977,1.983,1.983,0,0,0-1.993-1.977" transform="translate(0 0)" fill="#fff"></path></g></g></g></svg>