<svg xmlns="http://www.w3.org/2000/svg" xmlns:xlink="http://www.w3.org/1999/xlink" id="security" width="590" height="369.081" viewBox="0 0 590 369.081"><defs><clipPath id="clip-path"><rect id="Rect&#xE1;ngulo_1836" data-name="Rect&#xE1;ngulo 1836" width="590" height="369.081" fill="none"></rect></clipPath><clipPath id="clip-path-2"><rect id="Rect&#xE1;ngulo_1835" data-name="Rect&#xE1;ngulo 1835" width="590.001" height="369.081" fill="none"></rect></clipPath><clipPath id="clip-path-3"><rect id="Rect&#xE1;ngulo_1830" data-name="Rect&#xE1;ngulo 1830" width="147.987" height="147.986" fill="none"></rect></clipPath><clipPath id="clip-path-4"><rect id="Rect&#xE1;ngulo_1832" data-name="Rect&#xE1;ngulo 1832" width="55.181" height="15.304" fill="none"></rect></clipPath><clipPath id="clip-path-5"><rect id="Rect&#xE1;ngulo_1833" data-name="Rect&#xE1;ngulo 1833" width="89.557" height="35.306" fill="none"></rect></clipPath><clipPath id="clip-path-6"><rect id="Rect&#xE1;ngulo_1834" data-name="Rect&#xE1;ngulo 1834" width="20.584" height="49.506" fill="none"></rect></clipPath></defs><g id="Grupo_580" data-name="Grupo 580" clip-path="url(#clip-path)"><g id="Grupo_579" data-name="Grupo 579" transform="translate(0 0)"><g id="Grupo_578" data-name="Grupo 578" clip-path="url(#clip-path-2)"><path id="Trazado_2578" data-name="Trazado 2578" d="M605.127,368.229c-33.743,0-525.28.121-525.564-.759l-.048-.111a.6.6,0,0,1-.048-.163c-.188-.44-75.735-124.015,41.712-210.041,45.954-33.66-2.876-55.88,33.667-93.352,42-43.061,87.827,4.575,134.526-14.951,8.251-3.447,16.531-8.995,24.819-17.508a92.165,92.165,0,0,1,15.252-12.589q1.259-.834,2.544-1.628a101.821,101.821,0,0,1,10.176-5.491q3.527-1.653,7.187-3.058h0a117.992,117.992,0,0,1,11.911-3.856,135.471,135.471,0,0,1,17.765-3.465q3.962-.512,7.989-.81c52.179-3.9,110.9,18.036,141.2,50.1C534.322,57,562.065,90.4,540.2,136.319,526.388,165.309,584.233,193,604.787,226.1c52.259,84.164.814,141.032.34,142.129" transform="translate(-42.864 0.002)" fill="#ebf3fa"></path><g id="Grupo_568" data-name="Grupo 568" transform="translate(111.761 70.662)" opacity="0.8"><g id="Grupo_567" data-name="Grupo 567"><g id="Grupo_566" data-name="Grupo 566" clip-path="url(#clip-path-3)"><path id="Trazado_2579" data-name="Trazado 2579" d="M642.513,386.666a74.484,74.484,0,0,1-1.2,13.328,74.014,74.014,0,0,1-140.471,16.627,72.735,72.735,0,0,1-3.768-10.641,74.517,74.517,0,0,1-.871-35.06c.011-.059.026-.114.037-.174a74.187,74.187,0,0,1,28.881-44.017q2.281-1.656,4.695-3.138a73.6,73.6,0,0,1,38.7-10.921q2.823,0,5.592.21a73.493,73.493,0,0,1,36.647,13.025h0a74.278,74.278,0,0,1,20.3,21.193q1.7,2.685,3.174,5.518a73.662,73.662,0,0,1,8.279,34.048" transform="translate(-494.527 -312.671)" fill="#d7e5ff"></path><path id="Trazado_2580" data-name="Trazado 2580" d="M549.135,390.948c-2.953,4.676,1.233,12.8-7.625,10.582s-14.273-3.2-14.764,1.72,6.644,4.923,6.644,10.091-3.2,6.876-8.12,4.422-6.337-6.023-12.058-3.809-9.043.738-10.335-3.691a6.472,6.472,0,0,0-.919-1.938c.011-.059.026-.115.037-.174a74.187,74.187,0,0,1,28.881-44.017q2.281-1.656,4.695-3.137a9.732,9.732,0,0,1,7.415,3.868c5.167,6.4,8.611,3.2,7.382,10.582s.738,8.367,4.92,8.12,9.106-.247,9.6,2.953-12.8-.247-15.749,4.429" transform="translate(-500.279 -350.075)" fill="#aec3ff"></path><path id="Trazado_2581" data-name="Trazado 2581" d="M595.566,631.3s-4.465,5.191-8.313,2.211-2.684-4.848-8.321-2.98-8.115-1.23-11,1.119-.544,2.643-2.543,7.621-6.127,5.777-2.935,10.747,9.128,2.413,12.255,5.041,2.107,5.2,6.01,6.272,7.633-2.732,7.71,1.983-1.43,9.319,3.424,13.7,3.944,5.375,8.934,7.51,10.953.211,10.2-2.788-7.188-3.6-7.315-6.988,3.294-3.1,1.922-7.456,2.457-6.7,1.164-9.517-8.667-3.778-7.807-6.614,7.529-.431,7.893-6.427-3.686-8.13-3.089-13.981-7.5-3.051-8.182.543" transform="translate(-546.193 -556.261)" fill="#aec3ff"></path><path id="Trazado_2582" data-name="Trazado 2582" d="M953.807,533.267a74.484,74.484,0,0,1-1.2,13.328,73.587,73.587,0,0,1-11.678,28.387,8.447,8.447,0,0,1-5.917-.159c-9.227-3.691-2.4-13.656,1.292-18.639s-5.721-2.768-12.549-7.382.738-16.978-6.275-14.948-15.5,4.614-19.562-2.214,3.691-7.935.185-13.656,2.03-9.043,9.042-9.6,6.09-5.536,14.764-6.275,8.489,10.335,18.085,9.6,9.164,1.476,9.164,1.476a4.472,4.472,0,0,1,2,.421,74.129,74.129,0,0,1,2.639,19.661" transform="translate(-805.821 -459.272)" fill="#aec3ff"></path><path id="Trazado_2583" data-name="Trazado 2583" d="M959.1,397.941c-7.98,3.883-11.183-6.677-18-3.5-6.876,3.2-5.673-2.953-11.084-6.891s-16.24,3.2-15.749-2.953,8.611-4.429,10.334-9.349,9.6-3.691,9.6-3.691a5.336,5.336,0,0,1,1.432-.325s0,0,0,0a74.285,74.285,0,0,1,20.3,21.193q1.7,2.685,3.174,5.518" transform="translate(-819.391 -357.995)" fill="#aec3ff"></path><path id="Trazado_2584" data-name="Trazado 2584" d="M748.489,366.431s4.183-6.035-2.461-7.816-6.521.55-11.688,0-7.2,3.448-3.322,7.816,7.013,12.749,10.519,8.281,2.83-7.851,6.951-8.281" transform="translate(-676.01 -347.703)" fill="#aec3ff"></path></g></g></g><path id="Trazado_2585" data-name="Trazado 2585" d="M1176.794,988.539l-11.333,134.754s-1.187,8.168,4.889,8.183c9.99.024,49.725,0,49.725,0s-7.519-1.7-7.428-5.526c.107-4.51,13.246-138.687,13.246-138.687Z" transform="translate(-902 -764.147)" fill="#7599ea"></path><path id="Trazado_2586" data-name="Trazado 2586" d="M1235,1120.712c-1.965.006-40.433.071-50.161-.054-4.24-.053-4.984-3.77-5.019-6.176a12.06,12.06,0,0,1,.129-2.006l.295-3.5.751-8.927.663-7.887.853-10.135.718-8.554,8.053-95.752,49.1-1.274s-5.534,56.152-9.448,97.026c-.437,4.554-.853,8.921-1.237,13q-.187,1.952-.361,3.813c-.363,3.867-.7,7.419-.984,10.554-.152,1.653-.293,3.188-.42,4.6-.5,5.512-.792,9.032-.8,9.7a5.638,5.638,0,0,0,.1,1.091c.806,4.295,7.032,4.489,7.77,4.489" transform="translate(-913.185 -755.773)" fill="#90aff4"></path><path id="Trazado_2587" data-name="Trazado 2587" d="M688.315,668.437l27.606,110.886,3.78,15.186,12.857,51.648H971.427l-47.39-177.72Z" transform="translate(-532.76 -517.374)" fill="#aec3ff"></path><path id="Trazado_2588" data-name="Trazado 2588" d="M675.21,668.437l-3.826,1.275,42.983,180.3,5.086-3.857Z" transform="translate(-519.655 -517.373)" fill="#90aff4"></path><path id="Trazado_2589" data-name="Trazado 2589" d="M861.578,1458.688h237.4l6.556-3.857H866.665Z" transform="translate(-666.866 -1126.046)" fill="#7599ea"></path><rect id="Rect&#xE1;ngulo_1831" data-name="Rect&#xE1;ngulo 1831" width="51.4" height="2.443" transform="translate(278.08 364.938)" fill="#aec3ff"></rect><path id="Trazado_2590" data-name="Trazado 2590" d="M1233.627,1471.894l-.265,1.868-48.34,9.766.663-7.887.316-3.746Z" transform="translate(-917.213 -1139.253)" fill="#5888dd"></path><g id="Grupo_571" data-name="Grupo 571" transform="translate(266.633 349.657)" opacity="0.4"><g id="Grupo_570" data-name="Grupo 570"><g id="Grupo_569" data-name="Grupo 569" clip-path="url(#clip-path-4)"><path id="Trazado_2591" data-name="Trazado 2591" d="M1235,1562.471c-1.965.006-40.433.071-50.161-.054-4.24-.053-4.983-3.77-5.019-6.176l48.111-9.052c-.5,5.512-.792,9.032-.8,9.7a5.646,5.646,0,0,0,.1,1.091c.806,4.295,7.032,4.489,7.77,4.489" transform="translate(-1179.823 -1547.19)" fill="#5888dd"></path></g></g></g><path id="Trazado_2592" data-name="Trazado 2592" d="M688.313,668.437H924.036l38.246,142.831H723.871Z" transform="translate(-532.758 -517.373)" fill="#c2d5ff"></path><path id="Trazado_2593" data-name="Trazado 2593" d="M984.6,831.282H763.9l-7.887-31.419-3.051-12.157-1.244-4.958-8.106-32.288-.42-1.681L738.9,731.713l-1.917-7.636-1.635-6.514-3.834-15.271H949.042l4.211,15.271,1.795,6.514,2.1,7.636,13.869,50.309v0l1.176,4.262.547,1.979L982.32,823Z" transform="translate(-566.198 -543.577)" fill="#739af0"></path><path id="Trazado_2594" data-name="Trazado 2594" d="M953.256,717.562h-217.9l-3.833-15.272H949.047Z" transform="translate(-566.201 -543.576)" fill="#607cf4"></path><path id="Trazado_2595" data-name="Trazado 2595" d="M771.137,726.291a1.442,1.442,0,0,1,1.433-1.909,2.608,2.608,0,0,1,2.385,1.909,1.442,1.442,0,0,1-1.433,1.909,2.608,2.608,0,0,1-2.385-1.909" transform="translate(-596.819 -560.675)" fill="#e9f3fe"></path><path id="Trazado_2596" data-name="Trazado 2596" d="M799.205,726.291a1.442,1.442,0,0,1,1.433-1.909,2.608,2.608,0,0,1,2.385,1.909,1.442,1.442,0,0,1-1.433,1.909,2.607,2.607,0,0,1-2.385-1.909" transform="translate(-618.543 -560.675)" fill="#e9f3fe"></path><path id="Trazado_2597" data-name="Trazado 2597" d="M829.429,726.291a1.442,1.442,0,0,1,1.433-1.909,2.608,2.608,0,0,1,2.385,1.909,1.442,1.442,0,0,1-1.433,1.909,2.607,2.607,0,0,1-2.385-1.909" transform="translate(-641.937 -560.675)" fill="#e9f3fe"></path><g id="Grupo_574" data-name="Grupo 574" transform="translate(191.113 293.895)" opacity="0.5"><g id="Grupo_573" data-name="Grupo 573"><g id="Grupo_572" data-name="Grupo 572" clip-path="url(#clip-path-5)"><path id="Trazado_2598" data-name="Trazado 2598" d="M935.21,1300.448l-80.791,35.306-8.766-35.306Z" transform="translate(-845.653 -1300.448)" fill="#90aff4"></path></g></g></g><path id="Trazado_2599" data-name="Trazado 2599" d="M909.139,452.655a9.325,9.325,0,0,0-6.406,8.536v82.373a51.924,51.924,0,0,0,21.41,42.244l48.389,31.01a10.229,10.229,0,0,0,10.818,0l48.389-31.01a51.924,51.924,0,0,0,21.41-42.244V461.411c0-3.821-2.672-7.26-6.725-8.65-58.782-20.124-82.345-20.662-137.285-.105" transform="translate(-698.72 -338.59)" fill="#f99746"></path><path id="Trazado_2600" data-name="Trazado 2600" d="M1304,452.874c-28.613-9.8-48.881-14.937-68.483-15.275v180.88a10.075,10.075,0,0,0,5.409-1.547l48.389-31.011a51.924,51.924,0,0,0,21.41-42.244V461.523c0-3.82-2.671-7.259-6.725-8.649" transform="translate(-956.298 -338.704)" fill="#f78248"></path><path id="Trazado_2601" data-name="Trazado 2601" d="M1158.321,651.088h-11.005a17.921,17.921,0,0,1-17.9-17.9v-2.14a17.921,17.921,0,0,1,17.9-17.9h11.005a17.922,17.922,0,0,1,17.9,17.9v2.14a17.921,17.921,0,0,1-17.9,17.9M1147.316,620.3a10.755,10.755,0,0,0-10.743,10.745v2.14a10.755,10.755,0,0,0,10.743,10.742h11.005a10.755,10.755,0,0,0,10.745-10.742v-2.14a10.756,10.756,0,0,0-10.745-10.745Z" transform="translate(-874.174 -474.578)" fill="#ffdaa4"></path><path id="Trazado_2602" data-name="Trazado 2602" d="M1117.535,780.469H1100.15a29.446,29.446,0,0,1-29.446-29.446V722.291a6.587,6.587,0,0,1,6.587-6.586h59.471a8.437,8.437,0,0,1,8.437,8.437v28.664a27.664,27.664,0,0,1-27.664,27.663" transform="translate(-828.731 -553.959)" fill="#ffdaa4"></path><path id="Trazado_2603" data-name="Trazado 2603" d="M1211.966,768.431a9.713,9.713,0,1,1-9.713-9.713,9.714,9.714,0,0,1,9.713,9.713" transform="translate(-923.031 -587.252)" fill="#f78248"></path><path id="Trazado_2604" data-name="Trazado 2604" d="M1228.311,821.755h0a2.111,2.111,0,0,1,2.1,2.1v16.189a2.1,2.1,0,1,1-4.209,0V823.86a2.111,2.111,0,0,1,2.1-2.1" transform="translate(-949.09 -636.042)" fill="#f78248"></path><path id="Trazado_2605" data-name="Trazado 2605" d="M1718.2,271.705a2.552,2.552,0,0,0-1.753,2.336v22.545a14.211,14.211,0,0,0,5.86,11.562l13.244,8.487a2.8,2.8,0,0,0,2.961,0l13.244-8.487a14.211,14.211,0,0,0,5.86-11.562V274.1a2.572,2.572,0,0,0-1.84-2.368c-16.089-5.508-22.538-5.655-37.575-.029" transform="translate(-1328.537 -207.08)" fill="#aec3ff"></path><g id="Grupo_577" data-name="Grupo 577" transform="translate(408.492 60.472)" opacity="0.4"><g id="Grupo_576" data-name="Grupo 576"><g id="Grupo_575" data-name="Grupo 575" clip-path="url(#clip-path-6)"><path id="Trazado_2606" data-name="Trazado 2606" d="M1826.271,271.765c-7.831-2.681-13.378-4.088-18.744-4.181V317.09a2.758,2.758,0,0,0,1.48-.423l13.244-8.488a14.211,14.211,0,0,0,5.86-11.562V274.132a2.572,2.572,0,0,0-1.841-2.367" transform="translate(-1807.528 -267.583)" fill="#5888dd"></path></g></g></g><path id="Trazado_2607" data-name="Trazado 2607" d="M1784.116,145.914l5.2.683-3.706,3.711.957,5.157-4.675-2.377-4.608,2.5.816-5.181-3.8-3.609,5.179-.825,2.257-4.734Z" transform="translate(-1373.314 -109.323)" fill="#f99746"></path><path id="Trazado_2608" data-name="Trazado 2608" d="M1784.116,542.394l5.2.683-3.706,3.711.957,5.157-4.675-2.377-4.608,2.5.816-5.181-3.8-3.609,5.179-.825,2.257-4.734Z" transform="translate(-1373.314 -416.2)" fill="#f99746"></path><path id="Trazado_2609" data-name="Trazado 2609" d="M1614.68,243.274l5.2.683-3.706,3.711.957,5.157-4.675-2.377-4.608,2.5.816-5.181-3.8-3.609,5.179-.825,2.257-4.734Z" transform="translate(-1242.17 -184.68)" fill="#f99746"></path><path id="Trazado_2610" data-name="Trazado 2610" d="M1955.9,243.274l5.2.683-3.706,3.711.957,5.157-4.675-2.377-4.608,2.5.816-5.181-3.805-3.609,5.179-.825,2.257-4.734Z" transform="translate(-1506.275 -184.68)" fill="#f99746"></path><path id="Trazado_2611" data-name="Trazado 2611" d="M1614.68,446.207l5.2.684-3.706,3.711.957,5.156-4.675-2.377-4.608,2.5.816-5.18-3.8-3.61,5.179-.825,2.257-4.734Z" transform="translate(-1242.17 -341.751)" fill="#f99746"></path><path id="Trazado_2612" data-name="Trazado 2612" d="M1955.9,446.207l5.2.684-3.706,3.711.957,5.156-4.675-2.377-4.608,2.5.816-5.18-3.805-3.61,5.179-.825,2.257-4.734Z" transform="translate(-1506.275 -341.751)" fill="#f99746"></path><path id="Trazado_2613" data-name="Trazado 2613" d="M1688.134,172.112l5.2.683-3.706,3.712.957,5.157-4.675-2.377-4.608,2.5.816-5.181-3.8-3.609,5.179-.825,2.257-4.734Z" transform="translate(-1299.023 -129.6)" fill="#f99746"></path><path id="Trazado_2614" data-name="Trazado 2614" d="M1885.1,172.112l5.2.683-3.705,3.712.957,5.157-4.675-2.377-4.608,2.5.816-5.181-3.8-3.609,5.179-.825,2.257-4.734Z" transform="translate(-1451.478 -129.6)" fill="#f99746"></path><path id="Trazado_2615" data-name="Trazado 2615" d="M1688.134,516.914l5.2.683-3.706,3.711.957,5.157-4.675-2.377-4.608,2.5.816-5.181-3.8-3.609,5.179-.825,2.257-4.734Z" transform="translate(-1299.023 -396.479)" fill="#f99746"></path><path id="Trazado_2616" data-name="Trazado 2616" d="M1885.1,516.914l5.2.683-3.705,3.711.957,5.157-4.675-2.377-4.608,2.5.816-5.181-3.8-3.609,5.179-.825,2.257-4.734Z" transform="translate(-1451.478 -396.479)" fill="#f99746"></path><path id="Trazado_2617" data-name="Trazado 2617" d="M1587.571,350.019l5.2.684-3.705,3.712.957,5.156-4.675-2.377-4.608,2.5.816-5.181-3.805-3.609,5.179-.825,2.257-4.734Z" transform="translate(-1221.187 -267.301)" fill="#f99746"></path><path id="Trazado_2618" data-name="Trazado 2618" d="M1989.133,350.019l5.2.684-3.705,3.712.957,5.156-4.675-2.377-4.608,2.5.816-5.181-3.805-3.609,5.179-.825,2.257-4.734Z" transform="translate(-1531.998 -267.301)" fill="#f99746"></path><path id="Trazado_2619" data-name="Trazado 2619" d="M382.263,919.767a.491.491,0,1,1-.695,0,.491.491,0,0,1,.695,0" transform="translate(-295.226 -711.794)" fill="#d5e5fb"></path><path id="Trazado_2620" data-name="Trazado 2620" d="M375.183,926.916a.491.491,0,1,1-.695,0,.491.491,0,0,1,.695,0" transform="translate(-289.745 -717.327)" fill="#d5e5fb"></path><path id="Trazado_2621" data-name="Trazado 2621" d="M367.313,934.161a.491.491,0,1,1,0,.695.492.492,0,0,1,0-.695" transform="translate(-284.192 -722.932)" fill="#d5e5fb"></path><path id="Trazado_2622" data-name="Trazado 2622" d="M360.833,941.4a.491.491,0,1,1-.695,0,.491.491,0,0,1,.695,0" transform="translate(-278.639 -728.538)" fill="#d5e5fb"></path><path id="Trazado_2623" data-name="Trazado 2623" d="M353.752,948.547a.491.491,0,1,1-.695,0,.491.491,0,0,1,.695,0" transform="translate(-273.158 -734.07)" fill="#d5e5fb"></path><path id="Trazado_2624" data-name="Trazado 2624" d="M345.883,955.792a.491.491,0,1,1,0,.695.491.491,0,0,1,0-.695" transform="translate(-267.605 -739.675)" fill="#d5e5fb"></path><path id="Trazado_2625" data-name="Trazado 2625" d="M339.689,962.742a.491.491,0,1,1-.695,0,.491.491,0,0,1,.695,0" transform="translate(-262.273 -745.057)" fill="#d5e5fb"></path><path id="Trazado_2626" data-name="Trazado 2626" d="M332.608,969.889a.491.491,0,1,1-.695,0,.492.492,0,0,1,.695,0" transform="translate(-256.793 -750.589)" fill="#d5e5fb"></path><path id="Trazado_2627" data-name="Trazado 2627" d="M324.74,977.134a.491.491,0,1,1,0,.695.491.491,0,0,1,0-.695" transform="translate(-251.24 -756.194)" fill="#d5e5fb"></path><path id="Trazado_2628" data-name="Trazado 2628" d="M318.258,984.374a.491.491,0,1,1-.695,0,.491.491,0,0,1,.695,0" transform="translate(-245.686 -761.8)" fill="#d5e5fb"></path><path id="Trazado_2629" data-name="Trazado 2629" d="M311.178,991.521a.491.491,0,1,1-.695,0,.491.491,0,0,1,.695,0" transform="translate(-240.205 -767.332)" fill="#d5e5fb"></path><path id="Trazado_2630" data-name="Trazado 2630" d="M303.309,998.766a.491.491,0,1,1,0,.695.492.492,0,0,1,0-.695" transform="translate(-234.652 -772.937)" fill="#d5e5fb"></path><path id="Trazado_2631" data-name="Trazado 2631" d="M388.806,835.507a10.716,10.716,0,1,1,10.716,10.716,10.716,10.716,0,0,1-10.716-10.716" transform="translate(-300.938 -638.392)" fill="#c6dcf7"></path><path id="Trazado_2632" data-name="Trazado 2632" d="M421,841.405a3.439,3.439,0,1,1,3.439,3.44,3.439,3.439,0,0,1-3.439-3.44" transform="translate(-325.859 -648.59)" fill="#ebf3fa"></path><path id="Trazado_2633" data-name="Trazado 2633" d="M415.609,868.4a6.019,6.019,0,0,0-6.019,6.019h12.038a6.019,6.019,0,0,0-6.019-6.019" transform="translate(-317.025 -672.149)" fill="#ebf3fa"></path><path id="Trazado_2634" data-name="Trazado 2634" d="M229.238,1009.2l-.4-.984a2.789,2.789,0,0,0-2.587-1.745h-7.326v24.494h30.3v-19.846H232.085a3.07,3.07,0,0,1-2.846-1.92" transform="translate(-169.452 -779.014)" fill="#c6dcf7"></path><path id="Trazado_2635" data-name="Trazado 2635" d="M269.445,1043.114h-1.013a2.9,2.9,0,0,0,.045-.507v-.346a2.9,2.9,0,0,0-2.9-2.9H263.8a2.9,2.9,0,0,0-2.895,2.9v.346a2.9,2.9,0,0,0,.045.507h-1.126a1.065,1.065,0,0,0-1.065,1.066v4.647a4.762,4.762,0,0,0,4.762,4.762h2.811a4.473,4.473,0,0,0,4.474-4.474v-4.635a1.365,1.365,0,0,0-1.364-1.365m-4.319,4.677v2.158a.341.341,0,0,1-.681,0v-2.158a1.571,1.571,0,1,1,.681,0m2.194-5.183a1.725,1.725,0,0,1-.076.507h-5.1a1.725,1.725,0,0,1-.076-.507v-.346a1.74,1.74,0,0,1,1.738-1.738h1.78a1.74,1.74,0,0,1,1.738,1.738Z" transform="translate(-200.283 -804.474)" fill="#ebf3fa"></path><path id="Trazado_2636" data-name="Trazado 2636" d="M580.977,988.755s.572-6.236-6.4-6.236a8.184,8.184,0,0,1,3.2,1.718s-4.444-2.609-9.28,1.4-1.831,14.063-3.3,15.972-7.2,2.291-6.5,8.463,18.177,13.9,17.054,19.01c0,0,6.849-10.067,1.952-14.662a9.078,9.078,0,0,1,2.63,4.921s.647-5.218-2.673-6.887c-2.938-1.477-5.345-6.878-5.091-7.844s8.4-15.856,8.4-15.856" transform="translate(-432.395 -760.475)" fill="#2c3a64"></path><path id="Trazado_2637" data-name="Trazado 2637" d="M601.822,1142.6s5.205,21.535,10.315,25.84c3.071,2.588,12.2,8.526,12.2,8.526l-3.8,1.379s-12.667-4.278-15.5-7.612-10.6-20.041-10.6-20.041Z" transform="translate(-460.1 -884.379)" fill="#ffb27d"></path><path id="Trazado_2638" data-name="Trazado 2638" d="M651.334,1300.71l-1.224-3.029a8.592,8.592,0,0,0-7.967-5.375H619.577v75.45h93.349v-61.131H660.1a9.456,9.456,0,0,1-8.768-5.915" transform="translate(-479.556 -1000.251)" fill="#f99746"></path><path id="Trazado_2639" data-name="Trazado 2639" d="M399.514,1240.289c.046.082.094.167.143.253,1.139,1.98,3.752,6.832,6.63,12.14,1.361,2.519,2.787,5.141,4.139,7.608,2.33,4.258,4.45,8.05,5.686,10.054,1.258,2.037,2.184,3.469,2.558,4.042l0,0a.946.946,0,0,1,.122.591,30.9,30.9,0,0,0,.082,5.339,40.958,40.958,0,0,0,13.383,26.527l3.463.512s-4.9-18.155-6.344-28.419a19.757,19.757,0,0,1-.265-4.069A42.5,42.5,0,0,0,428,1263.761a248.877,248.877,0,0,0-7.081-25.711c-.162-.5-5.031-18.119-5.031-18.119-4.087,3.572-19,5.047-19,5.047s-2.528,6.146,2.625,15.31" transform="translate(-306.714 -944.233)" fill="#2f539b"></path><path id="Trazado_2640" data-name="Trazado 2640" d="M553.241,1598.621H538.788a7.935,7.935,0,0,1,.409-3.874c.723-1.6,1.754-1.655.132-4.168.918.946,3.87,1.337,5.96,1.056.256.415,1.65,3.2,2.505,3.814.945.679,5.156.437,5.447,3.172" transform="translate(-416.963 -1231.116)" fill="#233862"></path><path id="Trazado_2641" data-name="Trazado 2641" d="M410.629,1280.822c.046.082.094.167.143.253,1.139,1.98,7.3,13.358,10.178,18.667-3.335-13.721-1.015-27.442-1.015-27.442Z" transform="translate(-317.829 -984.767)" fill="#233862"></path><path id="Trazado_2642" data-name="Trazado 2642" d="M610.137,1005.887c.094-.38-8.255,3.773-8.678,4.243-3.916,4.344-2.8,10.012-.559,10.066,1.437.035,1.158,2.424,1.158,2.424l16.008-6.772s-1.927-11.239-7.93-9.961" transform="translate(-463.526 -778.483)" fill="#2c3a64"></path><path id="Trazado_2643" data-name="Trazado 2643" d="M596.083,1128.291s2.436,4.866,2.132,8.816c0,0-2.937,4.637-10.556,5.811,0,0,6.55-14.63,8.424-14.626" transform="translate(-454.851 -873.303)" fill="#739af0"></path><path id="Trazado_2644" data-name="Trazado 2644" d="M336.24,1215.725l.049-2.7c-5.386.679-18.57-6.436-18.57-6.436s-5.634,3.748-6.405,14.449c-.376,5.223-2.758,27.314-3.022,33.911-.1,2.391-.128,4.1-.139,4.779a.018.018,0,0,1,0,.007.941.941,0,0,1-.229.556,30.869,30.869,0,0,0-2.918,4.473c-8.218,15.29-3.92,36.066-3.92,36.066l1.908-.485s6.949-21.538,11.49-30.854a19.489,19.489,0,0,1,2.057-3.521,42.5,42.5,0,0,0,5.283-9.834c3.355-8.014,14.415-40.408,14.415-40.408" transform="translate(-232.173 -933.904)" fill="#2f539b"></path><path id="Trazado_2645" data-name="Trazado 2645" d="M306.019,1598.263H291.566a7.937,7.937,0,0,1,.408-3.874c.723-1.6,1.856-2.332,1.585-4.272a5.2,5.2,0,0,0,4.5,1.724,15.846,15.846,0,0,0,2.508,3.251c.945.679,5.156.437,5.447,3.172" transform="translate(-225.612 -1230.758)" fill="#233862"></path><path id="Trazado_2646" data-name="Trazado 2646" d="M422.85,1117.968c-1.941.331.317,1.874-2.353,2.164-3.8.415-7.724.7-9.779,1.518a2.206,2.206,0,0,0-1.407,1.141c-.891,2.679-6.534,7.282-6.534,7.282-25.166-1.145-26.787-12.362-26.787-12.362,16.333-15.863,30.228-24.51,41.712-25.58,2.795-.261,6.562.089,8.33.876,4.017,1.788,6.218,7.23,6.218,7.23s-2.023,16.472-9.4,17.73" transform="translate(-291.018 -845.25)" fill="#739af0"></path><path id="Trazado_2647" data-name="Trazado 2647" d="M539.157,1146.2c-3.8.415-7.724.7-9.78,1.518a40.077,40.077,0,0,1,5.083-21.992s3.864,15.724,4.7,20.474" transform="translate(-409.678 -871.319)" fill="#5a7de0"></path><path id="Trazado_2648" data-name="Trazado 2648" d="M547.674,1116.288s-9.557-.522-11.255,5.478,3.186,29.95,4.239,32.422c1.916,4.5,11.578,17.9,11.578,17.9l3.1-1.6s-6.22-19.621-7.609-21.563c-2.18-3.048,2.811-30.025-.05-32.636" transform="translate(-414.916 -864.003)" fill="#ffb27d"></path><path id="Trazado_2649" data-name="Trazado 2649" d="M609.3,1354.719a14.094,14.094,0,0,1,1.442,1.48c.643.785.078,1.069,1.924,4.625,0,0-.094.494-.5.4s-1.794-1.469-2.509-1.37c0,0-.51.421-.567,1.815a33.637,33.637,0,0,1-.283,4.73c-.227.542-1.885-2.272-2.7-4.305-.716-1.783-.018-7.8-.018-7.8Z" transform="translate(-468.879 -1048.236)" fill="#ffb27d"></path><path id="Trazado_2650" data-name="Trazado 2650" d="M529.3,1123.719c.025.141,9.044,1.659,14.684-1.2,0,0,4.713-14.763-2.022-14.057s-10.722,2.827-10.892,6.052a62.04,62.04,0,0,1-1.771,9.209" transform="translate(-409.678 -857.934)" fill="#739af0"></path><path id="Trazado_2651" data-name="Trazado 2651" d="M596.433,1081.144a6.005,6.005,0,0,0,1.814,4.2c1.2,1.234,2.929,2.2,4.145.98a13.216,13.216,0,0,0,1.881-2.272c1.051-1.806,2.3-3.652,2.3-3.652l-5.409-4.739-.323-.283a13.783,13.783,0,0,1-4.029,4.572,1.256,1.256,0,0,0-.381,1.189" transform="translate(-461.634 -832.351)" fill="#ffb27d"></path><path id="Trazado_2652" data-name="Trazado 2652" d="M622.481,1081.377s-1.25,1.842-2.3,3.65c-3.362-2.072-3.366-6.235-3.107-8.391Z" transform="translate(-477.54 -833.322)" fill="#ed985f"></path><path id="Trazado_2653" data-name="Trazado 2653" d="M621.863,1050.647s-8.163-4.542-5.256-9.582,3.811-9.021,9.146-6.334,5.229,5.189,4.668,7.108-6.36,9.86-8.558,8.809" transform="translate(-476.772 -800.217)" fill="#ffb27d"></path><path id="Trazado_2654" data-name="Trazado 2654" d="M628.862,1036.56c-.374-2.238-1.511-2.451-2.3-2.3a6.529,6.529,0,0,0-7.94-3.04,11.114,11.114,0,0,1-6.434,3.865s.947,1.763,4.85,2.854a6.674,6.674,0,0,0,3.85-.307,21.8,21.8,0,0,1-5.54,2.088c5.143.471,10.037-4.231,10.544-4.735a7.325,7.325,0,0,1,.4,3.37c-.339,1.516-1.684,4.261-.863,4.616,0,0,3.991-3.052,3.43-6.408" transform="translate(-473.834 -797.879)" fill="#2c3a64"></path><path id="Trazado_2655" data-name="Trazado 2655" d="M729.243,1294.18s-2.278,1.709-.561,2.825,4.782,1.419,4.794.686c.043-2.46-1.184-4.209-4.233-3.511" transform="translate(-563.508 -1001.582)" fill="#ffb27d"></path><path id="Trazado_2656" data-name="Trazado 2656" d="M779.306,1407.009h-2.942a8.439,8.439,0,0,0,.132-1.471v-1.006a8.419,8.419,0,0,0-8.41-8.41h-5.169a8.417,8.417,0,0,0-8.408,8.41v1.006a8.433,8.433,0,0,0,.13,1.471H751.37a3.094,3.094,0,0,0-3.094,3.1v13.5a13.831,13.831,0,0,0,13.831,13.832h8.166a12.994,12.994,0,0,0,13-13v-13.463a3.963,3.963,0,0,0-3.963-3.965m-12.544,13.583v6.27a.989.989,0,0,1-1.978,0v-6.27a4.563,4.563,0,1,1,1.978,0m6.371-15.055a5.015,5.015,0,0,1-.219,1.471H758.091a5.02,5.02,0,0,1-.221-1.471v-1.006a5.052,5.052,0,0,1,5.047-5.047h5.169a5.052,5.052,0,0,1,5.047,5.047Z" transform="translate(-579.169 -1080.605)" fill="#ffdaa4"></path><path id="Trazado_2657" data-name="Trazado 2657" d="M1988.568,1299.3l-113.31,0c-15.8-18.155-15.143-40.257,6.411-60.328a40.775,40.775,0,0,1,16.078-8.781,145.122,145.122,0,0,1,21.54-3c.033-.013,12.672-1.773,16.276-6.158,11.2-13.62,14.076-15.568,14.076-15.568,11.415-2.231,21.151-2.886,28.369,1.15,0,0,0,0,0,0,6.687,3.745,11.214,11.52,12.908,25.808.322,2.7.542,5.637.656,8.822.413,11.6,2.689,21.91,4.04,30.644a0,0,0,0,1,0,0c1.958,12.652,3.341,22.273-7.05,27.4" transform="translate(-1443.002 -931.658)" fill="#f99746"></path><path id="Trazado_2658" data-name="Trazado 2658" d="M2082.878,1221.1c-6.926,3.773-7.692,16.2-18.532,19.411s-29.242,2.918-39.68,14.24c-10.07,10.924-21.176-16.868-16.394-24.685a145.7,145.7,0,0,1,21.54-2.984c.033-.013,15.461-.075,19.065-4.44,11.2-13.557,11.288-17.187,11.288-17.187,11.415-2.221,21.151-2.873,28.369,1.144,0,0,0,0,0,0,7.952,8.216,1.269,10.724-5.658,14.5" transform="translate(-1553.526 -931.658)" fill="#ed7d2b"></path><path id="Trazado_2659" data-name="Trazado 2659" d="M2244.775,1369.565c-15.9-19.843-48.552,7.208-57,6.444-7.769-.7,15.151-27.823,43.575-31.858,11.49-1.631,8.738-13.505,8.733-13.872.321,2.689.542,5.611.655,8.781.414,11.543,2.689,21.81,4.04,30.5" transform="translate(-1692.162 -1029.643)" fill="#ed7d2b"></path><path id="Trazado_2660" data-name="Trazado 2660" d="M2022.46,1518.574c-1.112,2.143-1.362,6.085-1.692,7.422s-6.156,5.88-6.656,5.653c-1.274-.575-.056-2.795.721-4.418.032-.065.062-.131.092-.194.768-1.635.108-5.285.5-7.172s-1.514-6.96-1.514-6.96l3.218-4.065s2.262,4.3,3.88,5.086a3.965,3.965,0,0,1,.788.5,3.146,3.146,0,0,1,.658,4.145" transform="translate(-1558.504 -1167.85)" fill="#ffb27d"></path><path id="Trazado_2661" data-name="Trazado 2661" d="M2185.706,1073.41a13.613,13.613,0,0,0-8.246,3.809,17.572,17.572,0,0,0-3.973,5.449c-2.123,4.845-1.392,10.482-2.605,13.575s-1.942,3.631,0,5.032,2.268,2.734-.054,4.219-4.033,6.111,2.441,6.513,19.023-1.948,20.637-3.145,6.02-2.977,8.132-6.18c4.223-6.4.858-10.7-2.4-11.789-4.969-1.652-3.143-18.386-13.929-17.482" transform="translate(-1678.619 -830.797)" fill="#163560"></path><path id="Trazado_2662" data-name="Trazado 2662" d="M2155.4,1192.215s-6.419,14.492-7.756,15.752-7.6,3.723-7.037,5.834,5.278,4.152,7.248,3.659,6.966-9.007,6.966-9.007Z" transform="translate(-1656.811 -922.78)" fill="#739af0"></path><path id="Trazado_2663" data-name="Trazado 2663" d="M2143.037,1248.272s.347-2.492,6.43-3.3c3.376-.446,9.024-9.862,9.024-9.862l-5.648,14.846-5.473,2.367Z" transform="translate(-1658.722 -955.984)" fill="#5a7de0"></path><path id="Trazado_2664" data-name="Trazado 2664" d="M2027.065,1312.4s-31.682-2.218-36.023,2.81c-3.444,3.99,2.828,47.574,2.828,47.574s8.622.251,9.3-2.032c0,0-1.61-21.16-.262-24.819s.5-8.724.5-8.724,16.868,2.526,22.22,1.245,1.441-16.055,1.441-16.055" transform="translate(-1540.277 -1015.423)" fill="#233862"></path><path id="Trazado_2665" data-name="Trazado 2665" d="M1951.831,1570.222c-2.23.919-4.965,3.77-6.08,4.578s-8.5.521-8.733.025c-.626-1.311,1.955-2.244,3.6-3l.073-.034.005,0c1.623-.817,3.438-3.95,4.936-5.116,1.519-1.184,3.333-6.294,3.333-6.294l5.081-1.03s-1.046,4.748-.316,6.388a4.181,4.181,0,0,1,.175.469,3.152,3.152,0,0,1-2.07,4.016" transform="translate(-1499.188 -1206.944)" fill="#ffb27d"></path><path id="Trazado_2666" data-name="Trazado 2666" d="M2035.5,1320.912s-34.567,3.512-37.6,7.04-14.981,49.407-14.981,49.407,3.528,1.966,6.734.129c0,0,9.146-15.563,13.193-20.449s5.486-17.648,7.643-19.021c.578-.368,20.916,1.92,28.376-3.806s-3.359-13.3-3.359-13.3" transform="translate(-1534.786 -1022.392)" fill="#2a4e96"></path><path id="Trazado_2667" data-name="Trazado 2667" d="M2174.506,1207.82a39.866,39.866,0,0,1-2.885,4.741c-2.588,3.607-5.583,6.2-8.83,6.875-4.716.979-20.524-8.2-19.725-13.259.435-2.755,9.221-7.707,10.637-9.706s2.269-12.018,3.025-16.108c.563-3.043,2.45-3.361,4.808-4.169,10.018-3.432,17.152.2,17.152.2,4.583,2.58,2.035,19.537-4.182,31.428" transform="translate(-1658.722 -909.238)" fill="#739af0"></path><path id="Trazado_2668" data-name="Trazado 2668" d="M2239,1092.089a43.713,43.713,0,0,0,.754-5.079c.154-1.873-2.692-7.979-7.11-7.727a9.364,9.364,0,0,0-3.729,1.826c-1.4,1.147-3.342,3.522-.376,9.255l.814,1.955Z" transform="translate(-1723.697 -835.364)" fill="#163560"></path><path id="Trazado_2669" data-name="Trazado 2669" d="M2239.324,1149.576c.144,1.046,1.076,1.644,3.151,1.511,2.1-.135,5.083-1.409,4.836-2.38a28.755,28.755,0,0,1-1.534-7.913l-.382.107-6.421,1.8s.31,2.041.466,3.974a25.064,25.064,0,0,1-.115,2.9" transform="translate(-1732.977 -882.98)" fill="#ffb27d"></path><path id="Trazado_2670" data-name="Trazado 2670" d="M2238.975,1143.07s.31,2.041.466,3.974c3.642-.39,5.31-3.871,5.955-5.778Z" transform="translate(-1732.979 -883.346)" fill="#f4a269"></path><path id="Trazado_2671" data-name="Trazado 2671" d="M2219.33,1109.671s8.4-2.113,7.006-7.325-1.252-8.995-6.676-7.866-5.928,3.4-5.886,5.249,3.334,10.358,5.556,9.943" transform="translate(-1713.471 -846.978)" fill="#ffb27d"></path><path id="Trazado_2672" data-name="Trazado 2672" d="M2222.816,1092.789s2.82,5.376,8.142,5.955c3.114.339,3.969,2.391,3.969,2.391a48.856,48.856,0,0,0-2.5-9.455s-8.667-2.266-9.611,1.109" transform="translate(-1720.471 -844.39)" fill="#163560"></path><path id="Trazado_2673" data-name="Trazado 2673" d="M2214.053,1099.276a14.625,14.625,0,0,0-2.408,3.2c-.841,1.96.8,6.09,1.475,6.98,0,0-3.909-6.634-2.6-9.506,1.386-3.045,3.535-.676,3.535-.676" transform="translate(-1710.745 -850.165)" fill="#163560"></path><path id="Trazado_2674" data-name="Trazado 2674" d="M2075.645,1311.891s-1.673,1.772-1.877,1.867c-1.106.518-2.5.216-3.179.385s-.559-.25-.061-.592,1.724-.207,1.223-.332a13.623,13.623,0,0,0-4.224-.356,3.794,3.794,0,0,1-2.985-.24,13.253,13.253,0,0,1,4.761-1.951c1.081.062,4.187-.087,4.187-.087Z" transform="translate(-1597.965 -1014.4)" fill="#ffb27d"></path><path id="Trazado_2675" data-name="Trazado 2675" d="M2232.459,1196.585s1.005,24.643-1.892,28.1c-2.808,3.349-14.807,1.076-19.992-.05a1.454,1.454,0,0,0-1.157.334c-.4.364-.581-2.467-.581-2.467s15.65-2.291,16.7-2.587c1.511-.427.459-17.4.459-17.4Z" transform="translate(-1709.651 -926.163)" fill="#ffb27d"></path><path id="Trazado_2676" data-name="Trazado 2676" d="M2192.711,1315.267s-1.4,1.421-1.937,2.147-4.263,2.041-4.347,1.653,1.669-1.572,1.828-2.013,2.07-2.659,3.234-2.911,1.222,1.125,1.222,1.125" transform="translate(-1692.304 -1017.129)" fill="#ffb27d"></path><path id="Trazado_2677" data-name="Trazado 2677" d="M2177.537,1311.255s-5.75,1.33-6.726,1.729-3.046,3.328-2.224,3.767c.518.277,2.787-.92,3.939-1.17s4.415.317,5.909-2.633c.168-.332-.9-1.693-.9-1.693" transform="translate(-1678.351 -1014.918)" fill="#ffb27d"></path><path id="Trazado_2678" data-name="Trazado 2678" d="M1951.831,1593.709c-2.23.919-4.965,3.77-6.08,4.578s-8.5.521-8.733.025c-.626-1.311,1.955-2.244,3.6-3l.073-.034.005,0,.231-.076a9.087,9.087,0,0,0,5.831,0c2.066-.886,5.127-4.171,7.147-5.507a3.152,3.152,0,0,1-2.07,4.016" transform="translate(-1499.188 -1230.43)" fill="#2a4e96"></path><path id="Trazado_2679" data-name="Trazado 2679" d="M2022.46,1537.716c-1.112,2.143-1.362,6.085-1.692,7.422s-6.156,5.88-6.656,5.653c-1.274-.575-.056-2.795.721-4.417a3.619,3.619,0,0,0,1.778-.662c1.456-.97,3.926-4.631,4.146-6.792.18-1.761.067-4.284,1.044-5.348a3.146,3.146,0,0,1,.658,4.145" transform="translate(-1558.504 -1186.992)" fill="#193b72"></path><path id="Trazado_2680" data-name="Trazado 2680" d="M2064.441,1274.694h-25.047l-7.534-18.736h25.008Z" transform="translate(-1572.67 -972.117)" fill="#ef8035"></path><path id="Trazado_2681" data-name="Trazado 2681" d="M2063.9,1335.633h33.075v.73h-32.781Z" transform="translate(-1597.469 -1033.787)" fill="#ed7d2b"></path><path id="Trazado_2682" data-name="Trazado 2682" d="M2093.01,1293.327a.868.868,0,0,1,.851-1.193,1.709,1.709,0,0,1,1.534,1.193.868.868,0,0,1-.851,1.192,1.708,1.708,0,0,1-1.534-1.192" transform="translate(-1619.964 -1000.118)" fill="#fff"></path><path id="Trazado_2683" data-name="Trazado 2683" d="M2238.28,1321.189a39.888,39.888,0,0,1-2.886,4.741c-8.027-.3-9.963-3.544-9.963-3.544Z" transform="translate(-1722.495 -1022.607)" fill="#5a7de0"></path><path id="Trazado_2684" data-name="Trazado 2684" d="M2227.089,1241.992s9.165-2.1,10.3-4.073,2.733-15.089,2.733-15.089l3.824,4.9-.774,11.534s-4.363,4.315-4.644,4.158-11.442-1.431-11.442-1.431" transform="translate(-1723.779 -946.477)" fill="#5a7de0"></path><path id="Trazado_2685" data-name="Trazado 2685" d="M2241.057,1182.126a8.1,8.1,0,0,1,3.01,2.625c1.593,2.911,3.295,25.469-1.233,29.2s-17.667,2.984-19.213.345a7.788,7.788,0,0,1,.781-3.8s11.83-1.563,12.357-2.308-.383-16.726.176-18.178,4.123-7.876,4.123-7.876" transform="translate(-1721.091 -914.971)" fill="#739af0"></path><path id="Trazado_2686" data-name="Trazado 2686" d="M2141.138,1321.831s-3.414,3.2-17.7,3.659c-11.173.359-22.942,4.863-28.44,12.6a22.067,22.067,0,0,0-3,8.1c-.746,4.4,27.119,11.234,27.566,10.6s18.353-16.021,18.353-16.021Z" transform="translate(-1619.206 -1023.104)" fill="#f99746"></path><path id="Trazado_2687" data-name="Trazado 2687" d="M1737.794,931.448s13.9,14.407,14.552,19.83-6.656,13.887-6.656,13.887Z" transform="translate(-1345.061 -720.945)" fill="#ed7d2b"></path><path id="Trazado_2688" data-name="Trazado 2688" d="M1645.652,1583.673s-.49,7.642-1.969,7.748c-.2.014-7.5,0-7.5,0l-9.323-.074a3.025,3.025,0,0,1,2.792-2.715c2.726-.469,7.292-2.374,8.95-5.972,1.745-3.785,7.05,1.015,7.05,1.015" transform="translate(-1259.199 -1223.86)" fill="#0e2644"></path><path id="Trazado_2689" data-name="Trazado 2689" d="M1737.534,1583.873s-.49,7.642-1.969,7.749c-.2.014-7.5,0-7.5,0l-9.323-.074a3.025,3.025,0,0,1,2.792-2.715c2.726-.469,7.292-2.374,8.95-5.972,1.745-3.785,7.049,1.015,7.049,1.015" transform="translate(-1330.315 -1224.014)" fill="#0e2644"></path><path id="Trazado_2690" data-name="Trazado 2690" d="M1665.115,1188.742s2.4,15.6,11.44,43.3,10.249,39.692,10.249,39.692l9.758-.252s.149-30.254-4.012-44.183-.8-50.187-.8-50.187Z" transform="translate(-1288.808 -911.092)" fill="#163560"></path><path id="Trazado_2691" data-name="Trazado 2691" d="M1644.171,1180.592a378.527,378.527,0,0,0,3.607,52.361c4,28.863,2.6,41.107,2.6,41.107l9.737.345s5.882-28.852,4.245-43.3,8.077-49.539,8.077-49.539Z" transform="translate(-1272.588 -913.784)" fill="#1c468a"></path><path id="Trazado_2692" data-name="Trazado 2692" d="M1684.686,897.639l-5.2,3.391-7.5-1.414c.1-.605.605-3.113,1.061-5.384.027-.134.055-.268.081-.4.391-1.932.728-3.593.728-3.593l7.01-3.075,2.614-1.146c-.007.041-.207,2.145-.235,2.453a17.853,17.853,0,0,0,1.433,9.168" transform="translate(-1294.133 -685.783)" fill="#ffb27d"></path><path id="Trazado_2693" data-name="Trazado 2693" d="M1670.23,921.624c.146-.061,9.035-2.663,10-2.343s1.532,2.189,1.532,2.189l-14.539,3.254a7.215,7.215,0,0,1,3.007-3.1" transform="translate(-1290.439 -711.507)" fill="#ed7d2b"></path><path id="Trazado_2694" data-name="Trazado 2694" d="M1670.476,988.609c-1.521,6.867-26.585,7.627-33.031,1.377-.733-.713-.762-4.019-.476-8.478.561-8.71,2.33-21.811,2.413-28.506a52.955,52.955,0,0,1,1.09-9.54,77.469,77.469,0,0,1,3.2-11.415s12.25-3.931,14.539-3.253c11.028,3.266,13.783,52.948,12.262,59.815" transform="translate(-1266.892 -718.83)" fill="#f99746"></path><path id="Trazado_2695" data-name="Trazado 2695" d="M1637.548,1027.618c.561-8.71,2.33-21.811,2.413-28.506a53.012,53.012,0,0,1,1.09-9.54l7.367-1.283s7.136,29.422-10.869,39.33" transform="translate(-1267.471 -764.94)" fill="#ed7d2b"></path><path id="Trazado_2696" data-name="Trazado 2696" d="M1648.093,1104.715a1.733,1.733,0,0,1-.557,2,3.359,3.359,0,0,0-1.5,3.061c.239.954,2.548,2.515,3.35,2.266s2.436-1.5,2.261-2.005,1.107-4.412-.844-5.923-2.708.6-2.708.6" transform="translate(-1274.002 -854.171)" fill="#ffb27d"></path><path id="Trazado_2697" data-name="Trazado 2697" d="M1618.242,935.711s-7.185,1.328-12.925,9.749-9.519,14.682-8.472,17.724,10.633,13.6,12.29,13.607,4.332-1.2,4.489-3.905c0,0-6.743-10.154-5.407-11.67.571-.647,8.8-7.3,9.964-4.283,1.93,4.988.061-21.221.061-21.221" transform="translate(-1235.831 -724.245)" fill="#f99746"></path><path id="Trazado_2698" data-name="Trazado 2698" d="M1686.362,892.49c-1.544,2.6-7.279,4.842-9.671,5.665.027-.134.055-.268.081-.4.391-1.933.728-3.593.728-3.593l7.01-3.075c1.548-.018,2.49.331,1.853,1.4" transform="translate(-1297.767 -689.707)" fill="#fca56b"></path><path id="Trazado_2699" data-name="Trazado 2699" d="M1663.794,839.238s11.273,3.544,13.372-3.511,4.967-11.349-2.142-13.91-9.315-.287-10.588,1.9-3.521,14.419-.642,15.522" transform="translate(-1286.701 -635.213)" fill="#ffb27d"></path><path id="Trazado_2700" data-name="Trazado 2700" d="M1669.787,809.84s.7,8.216,2.4,7.863,3.241-.614,2.987,1.861-2.616,5.33,2.618,5.779,12.79-13.036,11.358-15.6c-4.134-7.385-25.342-8.92-19.364.091" transform="translate(-1291.608 -622.017)" fill="#163560"></path><path id="Trazado_2701" data-name="Trazado 2701" d="M2075.347,736.161a.535.535,0,1,0,.757,0,.535.535,0,0,0-.757,0" transform="translate(-1606.207 -569.673)" fill="#d5e5fb"></path><path id="Trazado_2702" data-name="Trazado 2702" d="M2083.056,743.943a.535.535,0,1,0,.756,0,.535.535,0,0,0-.756,0" transform="translate(-1612.174 -575.696)" fill="#d5e5fb"></path><path id="Trazado_2703" data-name="Trazado 2703" d="M2091.625,751.831a.535.535,0,1,0,0,.757.535.535,0,0,0,0-.757" transform="translate(-1618.22 -581.798)" fill="#d5e5fb"></path><path id="Trazado_2704" data-name="Trazado 2704" d="M2098.678,759.712a.535.535,0,1,0,.757,0,.536.536,0,0,0-.757,0" transform="translate(-1624.265 -587.901)" fill="#d5e5fb"></path><path id="Trazado_2705" data-name="Trazado 2705" d="M2106.388,767.494a.535.535,0,1,0,.757,0,.534.534,0,0,0-.757,0" transform="translate(-1630.232 -593.924)" fill="#d5e5fb"></path><path id="Trazado_2706" data-name="Trazado 2706" d="M2114.955,775.381a.535.535,0,1,0,0,.757.535.535,0,0,0,0-.757" transform="translate(-1636.278 -600.026)" fill="#d5e5fb"></path><path id="Trazado_2707" data-name="Trazado 2707" d="M2121.7,782.947a.535.535,0,1,0,.757,0,.535.535,0,0,0-.757,0" transform="translate(-1642.081 -605.885)" fill="#d5e5fb"></path><path id="Trazado_2708" data-name="Trazado 2708" d="M2129.406,790.728a.535.535,0,1,0,.757,0,.536.536,0,0,0-.757,0" transform="translate(-1648.048 -611.908)" fill="#d5e5fb"></path><path id="Trazado_2709" data-name="Trazado 2709" d="M2137.974,798.616a.535.535,0,1,0,0,.757.535.535,0,0,0,0-.757" transform="translate(-1654.094 -618.01)" fill="#d5e5fb"></path><path id="Trazado_2710" data-name="Trazado 2710" d="M2145.027,806.5a.535.535,0,1,0,.757,0,.535.535,0,0,0-.757,0" transform="translate(-1660.139 -624.113)" fill="#d5e5fb"></path><path id="Trazado_2711" data-name="Trazado 2711" d="M2152.737,814.279a.535.535,0,1,0,.756,0,.535.535,0,0,0-.756,0" transform="translate(-1666.107 -630.136)" fill="#d5e5fb"></path><path id="Trazado_2712" data-name="Trazado 2712" d="M2161.3,822.166a.535.535,0,1,0,0,.757.535.535,0,0,0,0-.757" transform="translate(-1672.153 -636.238)" fill="#d5e5fb"></path><path id="Trazado_2713" data-name="Trazado 2713" d="M1979.852,760.667a.535.535,0,1,0,.4.641.534.534,0,0,0-.4-.641" transform="translate(-1531.909 -588.749)" fill="#d5e5fb"></path><path id="Trazado_2714" data-name="Trazado 2714" d="M1977.394,771.342a.535.535,0,1,0,.4.641.535.535,0,0,0-.4-.641" transform="translate(-1530.007 -597.012)" fill="#d5e5fb"></path><path id="Trazado_2715" data-name="Trazado 2715" d="M1975.307,782.8a.535.535,0,1,0-.641.4.535.535,0,0,0,.641-.4" transform="translate(-1528.08 -605.383)" fill="#d5e5fb"></path><path id="Trazado_2716" data-name="Trazado 2716" d="M1972.415,792.973a.535.535,0,1,0,.4.641.535.535,0,0,0-.4-.641" transform="translate(-1526.153 -613.754)" fill="#d5e5fb"></path><path id="Trazado_2717" data-name="Trazado 2717" d="M1969.958,803.648a.535.535,0,1,0,.4.641.535.535,0,0,0-.4-.641" transform="translate(-1524.251 -622.017)" fill="#d5e5fb"></path><path id="Trazado_2718" data-name="Trazado 2718" d="M1967.869,815.1a.535.535,0,1,0-.641.4.535.535,0,0,0,.641-.4" transform="translate(-1522.324 -630.388)" fill="#d5e5fb"></path><path id="Trazado_2719" data-name="Trazado 2719" d="M1965.078,824.846a.535.535,0,1,0,.4.641.535.535,0,0,0-.4-.641" transform="translate(-1520.474 -638.424)" fill="#d5e5fb"></path><path id="Trazado_2720" data-name="Trazado 2720" d="M1962.62,835.521a.535.535,0,1,0,.4.641.535.535,0,0,0-.4-.641" transform="translate(-1518.571 -646.687)" fill="#d5e5fb"></path><path id="Trazado_2721" data-name="Trazado 2721" d="M1960.532,846.977a.535.535,0,1,0-.641.4.535.535,0,0,0,.641-.4" transform="translate(-1516.645 -655.057)" fill="#d5e5fb"></path><path id="Trazado_2722" data-name="Trazado 2722" d="M1957.642,857.152a.535.535,0,1,0,.4.641.535.535,0,0,0-.4-.641" transform="translate(-1514.718 -663.429)" fill="#d5e5fb"></path><path id="Trazado_2723" data-name="Trazado 2723" d="M1955.185,867.826a.535.535,0,1,0,.4.641.535.535,0,0,0-.4-.641" transform="translate(-1512.816 -671.691)" fill="#d5e5fb"></path><path id="Trazado_2724" data-name="Trazado 2724" d="M1953.1,879.283a.535.535,0,1,0-.642.4.535.535,0,0,0,.642-.4" transform="translate(-1510.889 -680.063)" fill="#d5e5fb"></path><path id="Trazado_2725" data-name="Trazado 2725" d="M1991.977,644.428a11.667,11.667,0,1,0-11.666,11.667,11.666,11.666,0,0,0,11.666-11.667" transform="translate(-1523.741 -489.761)" fill="#c6dcf7"></path><path id="Trazado_2726" data-name="Trazado 2726" d="M2011.186,650.849a3.745,3.745,0,1,0-3.744,3.745,3.744,3.744,0,0,0,3.744-3.745" transform="translate(-1550.872 -500.862)" fill="#ebf3fa"></path><path id="Trazado_2727" data-name="Trazado 2727" d="M1997.824,680.242a6.553,6.553,0,0,1,6.553,6.553h-13.105a6.553,6.553,0,0,1,6.553-6.553" transform="translate(-1541.254 -526.511)" fill="#ebf3fa"></path><path id="Trazado_2728" data-name="Trazado 2728" d="M2107.639,833.525l-.432-1.071a3.037,3.037,0,0,0-2.816-1.9h-7.976v26.666h32.993V835.616h-18.67a3.342,3.342,0,0,1-3.1-2.09" transform="translate(-1622.636 -642.854)" fill="#c6dcf7"></path><path id="Trazado_2729" data-name="Trazado 2729" d="M2151.411,870.449h-1.1a3.137,3.137,0,0,0,.05-.551v-.377a3.155,3.155,0,0,0-3.152-3.152h-1.938a3.155,3.155,0,0,0-3.152,3.152v.377a3.184,3.184,0,0,0,.049.551h-1.225a1.16,1.16,0,0,0-1.16,1.16v5.059a5.184,5.184,0,0,0,5.185,5.184h3.061a4.87,4.87,0,0,0,4.871-4.871v-5.046a1.486,1.486,0,0,0-1.485-1.486m-4.7,5.091v2.35a.371.371,0,0,1-.742,0v-2.35a1.71,1.71,0,1,1,.742,0m2.388-5.643a1.879,1.879,0,0,1-.082.551h-5.556a1.872,1.872,0,0,1-.083-.551v-.377a1.893,1.893,0,0,1,1.892-1.892h1.938a1.894,1.894,0,0,1,1.892,1.892Z" transform="translate(-1656.201 -670.574)" fill="#ebf3fa"></path><path id="Trazado_2730" data-name="Trazado 2730" d="M1899.179,917.871c0,5.958,10.09,16.834,10.09,16.834s10.088-10.876,10.088-16.834-4.516-10.785-10.088-10.785-10.09,4.828-10.09,10.785m4.236-1.093a5.854,5.854,0,1,1,5.854,5.854,5.854,5.854,0,0,1-5.854-5.854" transform="translate(-1469.974 -702.09)" fill="#c6dcf7"></path><path id="Trazado_2731" data-name="Trazado 2731" d="M589.3,1627.316H.7a.7.7,0,0,1-.7-.7v-.307a.7.7,0,0,1,.7-.7H589.3a.7.7,0,0,1,.7.7v.307a.7.7,0,0,1-.7.7" transform="translate(0 -1258.235)" fill="#233862"></path><path id="Trazado_2732" data-name="Trazado 2732" d="M867.594,929.744c-.249-1.029.2-1.836,1.155-1.838a2.243,2.243,0,0,1,2.033,1.832c.249,1.029-.2,1.836-1.155,1.838a2.234,2.234,0,0,1-2.033-1.832m2.378,0c-.156-.644-.591-1.13-1.063-1.129s-.665.473-.505,1.132.586,1.13,1.063,1.129.664-.478.505-1.132" transform="translate(-671.47 -718.204)" fill="#f99746"></path><path id="Trazado_2733" data-name="Trazado 2733" d="M803.743,815.314l-.588.153-.319-.639.957-.306h.538l.865,3.574h-.779Z" transform="translate(-621.399 -630.444)" fill="#2f539b"></path><path id="Trazado_2734" data-name="Trazado 2734" d="M818.994,816.177c-.25-1.029.2-1.836,1.155-1.838a2.244,2.244,0,0,1,2.033,1.833c.249,1.029-.2,1.836-1.155,1.838a2.234,2.234,0,0,1-2.033-1.833m2.378,0c-.156-.644-.592-1.13-1.064-1.129s-.665.473-.5,1.132.586,1.13,1.063,1.129.664-.478.506-1.132" transform="translate(-633.853 -630.302)" fill="#2f539b"></path><path id="Trazado_2735" data-name="Trazado 2735" d="M893.341,1034.68c-.249-1.029.2-1.836,1.155-1.838a2.243,2.243,0,0,1,2.033,1.832c.249,1.03-.2,1.836-1.155,1.838a2.234,2.234,0,0,1-2.033-1.833m2.378,0c-.156-.644-.592-1.13-1.063-1.129s-.665.473-.505,1.132.587,1.13,1.063,1.129.664-.478.505-1.132" transform="translate(-691.398 -799.425)" fill="#2f539b"></path><path id="Trazado_2736" data-name="Trazado 2736" d="M821.635,889.206l-.589.153-.319-.639.957-.306h.538l.865,3.574h-.779Z" transform="translate(-635.247 -687.637)" fill="#2f539b"></path><path id="Trazado_2737" data-name="Trazado 2737" d="M836.885,890.07c-.249-1.029.2-1.837,1.155-1.838a2.244,2.244,0,0,1,2.033,1.833c.249,1.029-.2,1.836-1.155,1.838a2.234,2.234,0,0,1-2.033-1.832m2.378,0c-.156-.644-.592-1.13-1.063-1.129s-.665.473-.505,1.132.586,1.13,1.063,1.129.664-.478.505-1.132" transform="translate(-647.701 -687.496)" fill="#2f539b"></path><path id="Trazado_2738" data-name="Trazado 2738" d="M831.941,852.034l-.589.153-.319-.639.956-.306h.538l.866,3.574h-.779Z" transform="translate(-643.225 -658.865)" fill="#f99746"></path><path id="Trazado_2739" data-name="Trazado 2739" d="M847.192,852.9c-.249-1.029.2-1.836,1.155-1.838a2.244,2.244,0,0,1,2.034,1.833c.249,1.029-.2,1.836-1.155,1.838a2.234,2.234,0,0,1-2.033-1.832m2.378,0c-.156-.644-.591-1.13-1.063-1.129s-.665.473-.505,1.132.586,1.13,1.063,1.129.664-.478.505-1.132" transform="translate(-655.679 -658.725)" fill="#f99746"></path><path id="Trazado_2740" data-name="Trazado 2740" d="M831.249,928.915l-.589.153-.319-.638.957-.306h.538l.865,3.574h-.779Z" transform="translate(-642.689 -718.372)" fill="#2f539b"></path><path id="Trazado_2741" data-name="Trazado 2741" d="M846.5,929.779c-.25-1.029.2-1.836,1.155-1.838a2.243,2.243,0,0,1,2.033,1.833c.249,1.029-.2,1.836-1.155,1.838a2.233,2.233,0,0,1-2.033-1.832m2.378,0c-.156-.644-.591-1.13-1.063-1.129s-.665.473-.505,1.132.586,1.13,1.063,1.129.664-.478.505-1.132" transform="translate(-655.143 -718.231)" fill="#2f539b"></path><path id="Trazado_2742" data-name="Trazado 2742" d="M878.831,816.159c-.249-1.029.2-1.836,1.155-1.838a2.244,2.244,0,0,1,2.033,1.833c.249,1.029-.2,1.836-1.155,1.838a2.234,2.234,0,0,1-2.033-1.832m2.378,0c-.156-.644-.591-1.13-1.063-1.129s-.665.473-.505,1.132.586,1.13,1.063,1.129.664-.478.505-1.132" transform="translate(-680.167 -630.289)" fill="#f99746"></path><path id="Trazado_2743" data-name="Trazado 2743" d="M842.487,815.331l-.588.153-.319-.639.956-.306h.538l.866,3.574h-.779Z" transform="translate(-651.387 -630.457)" fill="#2f539b"></path><path id="Trazado_2744" data-name="Trazado 2744" d="M857.738,816.2c-.249-1.029.2-1.836,1.155-1.838a2.243,2.243,0,0,1,2.033,1.833c.249,1.029-.2,1.836-1.155,1.838a2.234,2.234,0,0,1-2.033-1.833m2.378,0c-.156-.644-.591-1.13-1.063-1.129s-.665.473-.505,1.132.586,1.13,1.063,1.129.664-.478.505-1.132" transform="translate(-663.841 -630.316)" fill="#2f539b"></path><path id="Trazado_2745" data-name="Trazado 2745" d="M885.963,1006.449c-.249-1.029.2-1.836,1.155-1.838a2.243,2.243,0,0,1,2.033,1.832c.249,1.029-.2,1.837-1.155,1.838a2.234,2.234,0,0,1-2.033-1.832m2.378,0c-.156-.644-.591-1.13-1.063-1.129s-.665.473-.505,1.132.586,1.13,1.063,1.129.664-.478.505-1.132" transform="translate(-685.688 -777.574)" fill="#f99746"></path><path id="Trazado_2746" data-name="Trazado 2746" d="M840,965.911l-.588.153-.319-.638.956-.306h.538l.866,3.574h-.779Z" transform="translate(-649.466 -747.006)" fill="#2f539b"></path><path id="Trazado_2747" data-name="Trazado 2747" d="M855.256,966.775c-.249-1.029.2-1.836,1.155-1.838a2.243,2.243,0,0,1,2.033,1.833c.249,1.029-.2,1.836-1.155,1.838a2.234,2.234,0,0,1-2.033-1.832m2.378,0c-.156-.644-.591-1.13-1.063-1.129s-.665.473-.505,1.132.586,1.13,1.063,1.129.664-.478.505-1.132" transform="translate(-661.92 -746.866)" fill="#2f539b"></path><path id="Trazado_2748" data-name="Trazado 2748" d="M876.349,966.74c-.249-1.029.2-1.836,1.155-1.838a2.244,2.244,0,0,1,2.033,1.832c.249,1.029-.2,1.837-1.155,1.838a2.234,2.234,0,0,1-2.033-1.833m2.378,0c-.156-.644-.591-1.13-1.063-1.129s-.665.473-.505,1.132.586,1.13,1.063,1.129.664-.478.505-1.132" transform="translate(-678.246 -746.839)" fill="#2f539b"></path><path id="Trazado_2749" data-name="Trazado 2749" d="M896.184,965.816l-.589.153-.319-.638.957-.306h.538l.865,3.574h-.779Z" transform="translate(-692.949 -746.933)" fill="#2f539b"></path><path id="Trazado_2750" data-name="Trazado 2750" d="M849.62,1005.62l-.589.153-.319-.638.956-.306h.538l.866,3.574h-.779Z" transform="translate(-656.908 -777.741)" fill="#2f539b"></path><path id="Trazado_2751" data-name="Trazado 2751" d="M864.87,1006.484c-.249-1.029.2-1.837,1.155-1.838a2.243,2.243,0,0,1,2.033,1.833c.249,1.029-.2,1.836-1.155,1.838a2.234,2.234,0,0,1-2.033-1.832m2.378,0c-.156-.644-.592-1.13-1.063-1.129s-.665.473-.505,1.132.586,1.13,1.063,1.129.664-.478.505-1.132" transform="translate(-669.362 -777.601)" fill="#2f539b"></path><path id="Trazado_2752" data-name="Trazado 2752" d="M904.615,1094.495c-.249-1.029.2-1.836,1.155-1.838a2.244,2.244,0,0,1,2.033,1.833c.249,1.029-.2,1.836-1.155,1.838a2.233,2.233,0,0,1-2.033-1.832m2.378,0c-.156-.644-.592-1.13-1.063-1.129s-.665.473-.505,1.132.586,1.13,1.063,1.129.664-.478.505-1.132" transform="translate(-700.124 -845.722)" fill="#2f539b"></path><path id="Trazado_2753" data-name="Trazado 2753" d="M924.451,1093.572l-.589.153-.319-.639.957-.306h.538l.865,3.574h-.779Z" transform="translate(-714.828 -845.817)" fill="#2f539b"></path><path id="Trazado_2754" data-name="Trazado 2754" d="M868.272,1093.666l-.589.153-.319-.638.956-.306h.538l.866,3.574h-.779Z" transform="translate(-671.345 -845.89)" fill="#2f539b"></path><path id="Trazado_2755" data-name="Trazado 2755" d="M883.522,1094.53c-.249-1.029.2-1.836,1.155-1.838a2.244,2.244,0,0,1,2.033,1.833c.249,1.029-.2,1.836-1.155,1.838a2.234,2.234,0,0,1-2.033-1.833m2.378,0c-.156-.644-.591-1.13-1.063-1.129s-.665.473-.505,1.132.586,1.13,1.063,1.129.664-.478.505-1.132" transform="translate(-683.798 -845.749)" fill="#2f539b"></path><path id="Trazado_2756" data-name="Trazado 2756" d="M939.7,1094.435c-.249-1.029.2-1.836,1.155-1.838a2.244,2.244,0,0,1,2.033,1.833c.249,1.029-.2,1.836-1.155,1.838a2.234,2.234,0,0,1-2.033-1.833m2.378,0c-.156-.644-.592-1.13-1.063-1.129s-.665.473-.505,1.132.586,1.13,1.063,1.129.664-.478.505-1.132" transform="translate(-727.282 -845.676)" fill="#f99746"></path><path id="Trazado_2757" data-name="Trazado 2757" d="M960.795,1094.4c-.249-1.029.2-1.836,1.155-1.838a2.243,2.243,0,0,1,2.033,1.833c.249,1.029-.2,1.836-1.155,1.838a2.233,2.233,0,0,1-2.033-1.832m2.378,0c-.156-.644-.591-1.13-1.063-1.129s-.665.473-.505,1.132.586,1.13,1.063,1.129.664-.478.505-1.132" transform="translate(-743.608 -845.648)" fill="#f99746"></path><path id="Trazado_2758" data-name="Trazado 2758" d="M878.553,1122.817c-.249-1.029.2-1.836,1.155-1.838a2.243,2.243,0,0,1,2.033,1.832c.249,1.029-.2,1.836-1.155,1.838a2.234,2.234,0,0,1-2.033-1.832m2.378,0c-.156-.644-.592-1.13-1.063-1.129s-.665.473-.505,1.132.586,1.13,1.063,1.13.664-.478.505-1.132" transform="translate(-679.952 -867.643)" fill="#2f539b"></path><path id="Trazado_2759" data-name="Trazado 2759" d="M898.389,1121.894l-.589.153-.319-.638.956-.306h.538l.866,3.574h-.779Z" transform="translate(-694.655 -867.738)" fill="#2f539b"></path><path id="Trazado_2760" data-name="Trazado 2760" d="M913.64,1122.757c-.25-1.029.2-1.836,1.155-1.838a2.244,2.244,0,0,1,2.033,1.833c.249,1.029-.2,1.836-1.155,1.838a2.234,2.234,0,0,1-2.033-1.832m2.378,0c-.156-.644-.592-1.13-1.063-1.129s-.665.473-.505,1.132.586,1.13,1.063,1.129.664-.478.505-1.132" transform="translate(-707.109 -867.597)" fill="#2f539b"></path><path id="Trazado_2761" data-name="Trazado 2761" d="M934.732,1122.722c-.249-1.029.2-1.836,1.155-1.838a2.243,2.243,0,0,1,2.033,1.832c.25,1.029-.2,1.836-1.155,1.838a2.234,2.234,0,0,1-2.033-1.833m2.378,0c-.156-.644-.591-1.13-1.063-1.129s-.665.473-.505,1.132.587,1.13,1.063,1.129.664-.478.505-1.132" transform="translate(-723.435 -867.57)" fill="#2f539b"></path><path id="Trazado_2762" data-name="Trazado 2762" d="M1542.73,1094.495c-.249-1.029.2-1.836,1.155-1.838a2.244,2.244,0,0,1,2.033,1.833c.249,1.029-.2,1.836-1.155,1.838a2.233,2.233,0,0,1-2.033-1.832m2.378,0c-.156-.644-.591-1.13-1.063-1.129s-.665.473-.505,1.132.586,1.13,1.063,1.129.664-.478.505-1.132" transform="translate(-1194.029 -845.722)" fill="#2f539b"></path><path id="Trazado_2763" data-name="Trazado 2763" d="M1562.566,1093.572l-.589.153-.319-.639.957-.306h.539l.865,3.574h-.779Z" transform="translate(-1208.732 -845.817)" fill="#2f539b"></path><path id="Trazado_2764" data-name="Trazado 2764" d="M1506.387,1093.666l-.589.153-.319-.638.957-.306h.538l.865,3.574h-.779Z" transform="translate(-1165.249 -845.89)" fill="#2f539b"></path><path id="Trazado_2765" data-name="Trazado 2765" d="M1521.638,1094.53c-.249-1.029.2-1.836,1.155-1.838a2.244,2.244,0,0,1,2.033,1.833c.249,1.029-.2,1.836-1.155,1.838a2.234,2.234,0,0,1-2.033-1.833m2.378,0c-.156-.644-.592-1.13-1.063-1.129s-.665.473-.505,1.132.586,1.13,1.063,1.129.664-.478.506-1.132" transform="translate(-1177.703 -845.749)" fill="#2f539b"></path><path id="Trazado_2766" data-name="Trazado 2766" d="M1577.818,1094.435c-.25-1.029.2-1.836,1.155-1.838a2.244,2.244,0,0,1,2.033,1.833c.249,1.029-.2,1.836-1.155,1.838a2.233,2.233,0,0,1-2.033-1.833m2.378,0c-.156-.644-.592-1.13-1.063-1.129s-.665.473-.505,1.132.586,1.13,1.063,1.129.663-.478.505-1.132" transform="translate(-1221.187 -845.676)" fill="#f99746"></path><path id="Trazado_2767" data-name="Trazado 2767" d="M1598.91,1094.4c-.249-1.029.2-1.836,1.155-1.838a2.243,2.243,0,0,1,2.033,1.833c.249,1.029-.2,1.836-1.154,1.838a2.233,2.233,0,0,1-2.033-1.832m2.378,0c-.156-.644-.591-1.13-1.063-1.129s-.665.473-.505,1.132.586,1.13,1.063,1.129.664-.478.505-1.132" transform="translate(-1237.512 -845.648)" fill="#f99746"></path><path id="Trazado_2768" data-name="Trazado 2768" d="M1458.376,1122.817c-.249-1.029.2-1.836,1.155-1.838a2.243,2.243,0,0,1,2.033,1.832c.249,1.029-.2,1.836-1.155,1.838a2.234,2.234,0,0,1-2.033-1.832m2.378,0c-.156-.644-.591-1.13-1.063-1.129s-.665.473-.505,1.132.586,1.13,1.063,1.13.664-.478.505-1.132" transform="translate(-1128.738 -867.643)" fill="#2f539b"></path><path id="Trazado_2769" data-name="Trazado 2769" d="M1478.211,1121.894l-.589.153-.319-.638.957-.306h.539l.865,3.574h-.779Z" transform="translate(-1143.44 -867.738)" fill="#2f539b"></path><path id="Trazado_2770" data-name="Trazado 2770" d="M1493.463,1122.757c-.249-1.029.2-1.836,1.155-1.838a2.244,2.244,0,0,1,2.033,1.833c.249,1.029-.2,1.836-1.155,1.838a2.234,2.234,0,0,1-2.033-1.832m2.378,0c-.156-.644-.592-1.13-1.063-1.129s-.665.473-.505,1.132.586,1.13,1.063,1.129.664-.478.505-1.132" transform="translate(-1155.896 -867.597)" fill="#2f539b"></path><path id="Trazado_2771" data-name="Trazado 2771" d="M1514.554,1122.722c-.249-1.029.2-1.836,1.155-1.838a2.244,2.244,0,0,1,2.033,1.832c.249,1.029-.2,1.836-1.155,1.838a2.234,2.234,0,0,1-2.034-1.833m2.379,0c-.156-.644-.592-1.13-1.063-1.129s-.665.473-.505,1.132.586,1.13,1.063,1.129.663-.478.505-1.132" transform="translate(-1172.221 -867.57)" fill="#2f539b"></path><path id="Trazado_2772" data-name="Trazado 2772" d="M931.4,1196.943c-.249-1.029.2-1.836,1.155-1.838a2.243,2.243,0,0,1,2.033,1.833c.249,1.029-.2,1.836-1.155,1.838a2.234,2.234,0,0,1-2.033-1.833m2.378,0c-.156-.644-.592-1.13-1.063-1.129s-.665.473-.505,1.132.586,1.13,1.063,1.129.663-.478.505-1.132" transform="translate(-720.859 -925.017)" fill="#f99746"></path><path id="Trazado_2773" data-name="Trazado 2773" d="M951.239,1196.02l-.588.153-.319-.639.957-.306h.538l.865,3.574h-.779Z" transform="translate(-735.562 -925.112)" fill="#f99746"></path><path id="Trazado_2774" data-name="Trazado 2774" d="M885.445,1156.406l-.589.153-.319-.639.956-.306h.538l.866,3.574h-.779Z" transform="translate(-684.637 -894.451)" fill="#2f539b"></path><path id="Trazado_2775" data-name="Trazado 2775" d="M900.7,1157.27c-.25-1.029.2-1.836,1.155-1.838a2.243,2.243,0,0,1,2.033,1.832c.249,1.029-.2,1.836-1.155,1.838a2.233,2.233,0,0,1-2.033-1.832m2.378,0c-.156-.644-.592-1.13-1.063-1.129s-.665.473-.506,1.132.587,1.13,1.063,1.129.664-.478.505-1.132" transform="translate(-697.091 -894.31)" fill="#2f539b"></path><path id="Trazado_2776" data-name="Trazado 2776" d="M921.789,1157.234c-.249-1.029.2-1.836,1.155-1.838a2.243,2.243,0,0,1,2.033,1.833c.249,1.029-.2,1.836-1.155,1.838a2.234,2.234,0,0,1-2.033-1.833m2.378,0c-.156-.644-.591-1.13-1.063-1.129s-.665.473-.505,1.132.587,1.13,1.063,1.129.664-.478.505-1.132" transform="translate(-713.417 -894.282)" fill="#2f539b"></path><path id="Trazado_2777" data-name="Trazado 2777" d="M941.625,1156.311l-.589.153-.319-.639.956-.306h.538l.865,3.574H942.3Z" transform="translate(-728.12 -894.377)" fill="#2f539b"></path><path id="Trazado_2778" data-name="Trazado 2778" d="M1502.892,1156.406l-.588.153-.319-.639.957-.306h.538l.865,3.574h-.779Z" transform="translate(-1162.544 -894.451)" fill="#2f539b"></path><path id="Trazado_2779" data-name="Trazado 2779" d="M1518.143,1157.27c-.25-1.029.2-1.836,1.155-1.838a2.243,2.243,0,0,1,2.033,1.832c.249,1.029-.2,1.836-1.155,1.838a2.233,2.233,0,0,1-2.033-1.832m2.378,0c-.156-.644-.592-1.13-1.063-1.129s-.665.473-.505,1.132.586,1.13,1.063,1.129.664-.478.505-1.132" transform="translate(-1174.998 -894.31)" fill="#2f539b"></path><path id="Trazado_2780" data-name="Trazado 2780" d="M1539.236,1157.234c-.249-1.029.2-1.836,1.155-1.838a2.243,2.243,0,0,1,2.033,1.833c.249,1.029-.2,1.836-1.155,1.838a2.234,2.234,0,0,1-2.033-1.833m2.378,0c-.156-.644-.591-1.13-1.063-1.129s-.665.473-.505,1.132.586,1.13,1.063,1.129.664-.478.505-1.132" transform="translate(-1191.324 -894.282)" fill="#2f539b"></path><path id="Trazado_2781" data-name="Trazado 2781" d="M1559.071,1156.311l-.588.153-.319-.639.957-.306h.538l.866,3.574h-.779Z" transform="translate(-1206.027 -894.377)" fill="#2f539b"></path><path id="Trazado_2782" data-name="Trazado 2782" d="M895.06,1196.115l-.588.153-.319-.639.956-.306h.538l.866,3.574h-.779Z" transform="translate(-692.079 -925.185)" fill="#2f539b"></path><path id="Trazado_2783" data-name="Trazado 2783" d="M910.311,1196.979c-.25-1.029.2-1.836,1.155-1.838a2.243,2.243,0,0,1,2.033,1.832c.249,1.029-.2,1.836-1.155,1.838a2.234,2.234,0,0,1-2.033-1.832m2.378,0c-.156-.644-.591-1.13-1.063-1.129s-.665.473-.505,1.132.587,1.13,1.063,1.129.664-.478.505-1.132" transform="translate(-704.533 -925.045)" fill="#2f539b"></path><path id="Trazado_2784" data-name="Trazado 2784" d="M966.491,1196.885c-.249-1.029.2-1.836,1.155-1.838a2.243,2.243,0,0,1,2.033,1.833c.249,1.029-.2,1.836-1.155,1.838a2.233,2.233,0,0,1-2.033-1.833m2.378,0c-.156-.644-.592-1.13-1.063-1.129s-.665.473-.505,1.132.586,1.13,1.063,1.129.664-.478.505-1.132" transform="translate(-748.016 -924.972)" fill="#2f539b"></path><path id="Trazado_2785" data-name="Trazado 2785" d="M987.582,1196.849c-.249-1.029.2-1.836,1.155-1.838a2.243,2.243,0,0,1,2.033,1.832c.249,1.029-.2,1.836-1.155,1.838a2.234,2.234,0,0,1-2.033-1.833m2.378,0c-.156-.644-.592-1.13-1.063-1.129s-.665.473-.505,1.132.586,1.13,1.063,1.129.664-.478.505-1.132" transform="translate(-764.341 -924.945)" fill="#2f539b"></path><path id="Trazado_2786" data-name="Trazado 2786" d="M939.537,1224.979c-.249-1.029.2-1.837,1.155-1.838a2.243,2.243,0,0,1,2.033,1.833c.249,1.029-.2,1.836-1.155,1.838a2.233,2.233,0,0,1-2.033-1.832m2.378,0c-.156-.644-.591-1.13-1.063-1.129s-.665.473-.505,1.132.586,1.13,1.063,1.129.664-.478.505-1.132" transform="translate(-727.154 -946.717)" fill="#f99746"></path><path id="Trazado_2787" data-name="Trazado 2787" d="M959.373,1224.056l-.589.153-.319-.639.956-.306h.538l.866,3.574h-.779Z" transform="translate(-741.857 -946.813)" fill="#f99746"></path><path id="Trazado_2788" data-name="Trazado 2788" d="M918.444,1225.015c-.25-1.029.2-1.836,1.155-1.838a2.243,2.243,0,0,1,2.033,1.832c.249,1.029-.2,1.836-1.155,1.838a2.234,2.234,0,0,1-2.033-1.832m2.378,0c-.156-.644-.591-1.13-1.063-1.129s-.665.473-.505,1.132.586,1.13,1.063,1.129.664-.478.505-1.132" transform="translate(-710.828 -946.745)" fill="#2f539b"></path><path id="Trazado_2789" data-name="Trazado 2789" d="M974.624,1224.921c-.249-1.029.2-1.836,1.155-1.838a2.243,2.243,0,0,1,2.033,1.832c.249,1.029-.2,1.836-1.155,1.838a2.234,2.234,0,0,1-2.033-1.832m2.378,0c-.156-.644-.592-1.13-1.063-1.129s-.665.473-.505,1.132.587,1.13,1.063,1.129.664-.478.505-1.132" transform="translate(-754.312 -946.672)" fill="#2f539b"></path><path id="Trazado_2790" data-name="Trazado 2790" d="M995.716,1224.885c-.249-1.029.2-1.836,1.155-1.838a2.243,2.243,0,0,1,2.033,1.833c.249,1.029-.2,1.836-1.155,1.838a2.234,2.234,0,0,1-2.033-1.833m2.378,0c-.156-.644-.592-1.13-1.063-1.129s-.665.473-.505,1.132.587,1.13,1.063,1.129.664-.478.505-1.132" transform="translate(-770.637 -946.645)" fill="#2f539b"></path><path id="Trazado_2791" data-name="Trazado 2791" d="M1068.292,1224.979c-.249-1.029.2-1.837,1.155-1.838a2.243,2.243,0,0,1,2.033,1.833c.249,1.029-.2,1.836-1.155,1.838a2.233,2.233,0,0,1-2.033-1.832m2.378,0c-.156-.644-.591-1.13-1.063-1.129s-.665.473-.505,1.132.586,1.13,1.063,1.129.664-.478.505-1.132" transform="translate(-826.811 -946.717)" fill="#f99746"></path><path id="Trazado_2792" data-name="Trazado 2792" d="M1088.127,1224.056l-.589.153-.319-.639.957-.306h.538l.865,3.574h-.779Z" transform="translate(-841.514 -946.813)" fill="#f99746"></path><path id="Trazado_2793" data-name="Trazado 2793" d="M1047.2,1225.015c-.249-1.029.2-1.836,1.155-1.838a2.243,2.243,0,0,1,2.033,1.832c.249,1.029-.2,1.836-1.155,1.838a2.234,2.234,0,0,1-2.033-1.832m2.378,0c-.156-.644-.591-1.13-1.063-1.129s-.665.473-.505,1.132.586,1.13,1.063,1.129.664-.478.505-1.132" transform="translate(-810.485 -946.745)" fill="#2f539b"></path><path id="Trazado_2794" data-name="Trazado 2794" d="M1103.379,1224.921c-.249-1.029.2-1.836,1.155-1.838a2.243,2.243,0,0,1,2.033,1.832c.249,1.029-.2,1.836-1.155,1.838a2.234,2.234,0,0,1-2.033-1.832m2.378,0c-.156-.644-.592-1.13-1.063-1.129s-.665.473-.505,1.132.586,1.13,1.063,1.129.664-.478.505-1.132" transform="translate(-853.969 -946.672)" fill="#2f539b"></path><path id="Trazado_2795" data-name="Trazado 2795" d="M1124.472,1224.885c-.249-1.029.2-1.836,1.154-1.838a2.243,2.243,0,0,1,2.033,1.833c.249,1.029-.2,1.836-1.155,1.838a2.234,2.234,0,0,1-2.033-1.833m2.378,0c-.156-.644-.592-1.13-1.063-1.129s-.665.473-.505,1.132.586,1.13,1.063,1.129.664-.478.505-1.132" transform="translate(-870.295 -946.645)" fill="#2f539b"></path><path id="Trazado_2796" data-name="Trazado 2796" d="M1361.425,1224.979c-.249-1.029.2-1.837,1.155-1.838a2.244,2.244,0,0,1,2.033,1.833c.249,1.029-.2,1.836-1.155,1.838a2.233,2.233,0,0,1-2.033-1.832m2.378,0c-.156-.644-.591-1.13-1.063-1.129s-.665.473-.505,1.132.586,1.13,1.063,1.129.664-.478.505-1.132" transform="translate(-1053.697 -946.717)" fill="#f99746"></path><path id="Trazado_2797" data-name="Trazado 2797" d="M1381.259,1224.056l-.589.153-.319-.639.957-.306h.538l.865,3.574h-.779Z" transform="translate(-1068.4 -946.813)" fill="#f99746"></path><path id="Trazado_2798" data-name="Trazado 2798" d="M1340.332,1225.015c-.249-1.029.2-1.836,1.155-1.838a2.244,2.244,0,0,1,2.034,1.832c.249,1.029-.2,1.836-1.155,1.838a2.234,2.234,0,0,1-2.033-1.832m2.378,0c-.156-.644-.591-1.13-1.063-1.129s-.665.473-.505,1.132.586,1.13,1.063,1.129.664-.478.505-1.132" transform="translate(-1037.371 -946.745)" fill="#2f539b"></path><path id="Trazado_2799" data-name="Trazado 2799" d="M1396.512,1224.921c-.249-1.029.2-1.836,1.155-1.838a2.243,2.243,0,0,1,2.033,1.832c.249,1.029-.2,1.836-1.155,1.838a2.234,2.234,0,0,1-2.033-1.832m2.378,0c-.156-.644-.591-1.13-1.063-1.129s-.665.473-.505,1.132.586,1.13,1.063,1.129.664-.478.505-1.132" transform="translate(-1080.855 -946.672)" fill="#2f539b"></path><path id="Trazado_2800" data-name="Trazado 2800" d="M1417.6,1224.885c-.249-1.029.2-1.836,1.155-1.838a2.243,2.243,0,0,1,2.033,1.833c.249,1.029-.2,1.836-1.155,1.838a2.234,2.234,0,0,1-2.033-1.833m2.378,0c-.156-.644-.591-1.13-1.063-1.129s-.665.473-.505,1.132.586,1.13,1.063,1.129.664-.478.505-1.132" transform="translate(-1097.18 -946.645)" fill="#2f539b"></path><path id="Trazado_2801" data-name="Trazado 2801" d="M1490.18,1224.979c-.249-1.029.2-1.837,1.155-1.838a2.244,2.244,0,0,1,2.033,1.833c.249,1.029-.2,1.836-1.155,1.838a2.233,2.233,0,0,1-2.033-1.832m2.378,0c-.156-.644-.592-1.13-1.063-1.129s-.665.473-.505,1.132.586,1.13,1.063,1.129.664-.478.505-1.132" transform="translate(-1153.354 -946.717)" fill="#f99746"></path><path id="Trazado_2802" data-name="Trazado 2802" d="M1510.015,1224.056l-.589.153-.319-.639.957-.306h.538l.865,3.574h-.779Z" transform="translate(-1168.057 -946.813)" fill="#f99746"></path><path id="Trazado_2803" data-name="Trazado 2803" d="M1469.087,1225.015c-.249-1.029.2-1.836,1.155-1.838a2.244,2.244,0,0,1,2.033,1.832c.249,1.029-.2,1.836-1.155,1.838a2.234,2.234,0,0,1-2.033-1.832m2.378,0c-.156-.644-.591-1.13-1.063-1.129s-.665.473-.505,1.132.586,1.13,1.063,1.129.663-.478.505-1.132" transform="translate(-1137.028 -946.745)" fill="#2f539b"></path><path id="Trazado_2804" data-name="Trazado 2804" d="M1525.266,1224.921c-.249-1.029.2-1.836,1.155-1.838a2.243,2.243,0,0,1,2.033,1.832c.249,1.029-.2,1.836-1.155,1.838a2.234,2.234,0,0,1-2.033-1.832m2.378,0c-.156-.644-.592-1.13-1.063-1.129s-.665.473-.505,1.132.586,1.13,1.063,1.129.663-.478.505-1.132" transform="translate(-1180.512 -946.672)" fill="#2f539b"></path><path id="Trazado_2805" data-name="Trazado 2805" d="M1546.359,1224.885c-.249-1.029.2-1.836,1.155-1.838a2.243,2.243,0,0,1,2.033,1.833c.25,1.029-.2,1.836-1.155,1.838a2.234,2.234,0,0,1-2.033-1.833m2.378,0c-.156-.644-.591-1.13-1.063-1.129s-.665.473-.505,1.132.586,1.13,1.063,1.129.664-.478.505-1.132" transform="translate(-1196.837 -946.645)" fill="#2f539b"></path><path id="Trazado_2806" data-name="Trazado 2806" d="M1008.675,1196.813c-.249-1.029.2-1.836,1.155-1.838a2.243,2.243,0,0,1,2.033,1.833c.249,1.029-.2,1.836-1.155,1.838a2.234,2.234,0,0,1-2.033-1.832m2.378,0c-.156-.644-.592-1.13-1.063-1.129s-.665.473-.505,1.132.587,1.13,1.063,1.129.664-.478.505-1.132" transform="translate(-780.668 -924.917)" fill="#2f539b"></path><path id="Trazado_2807" data-name="Trazado 2807" d="M1029.769,1196.778c-.249-1.029.2-1.836,1.155-1.838a2.243,2.243,0,0,1,2.033,1.832c.249,1.029-.2,1.836-1.155,1.838a2.234,2.234,0,0,1-2.033-1.832m2.378,0c-.156-.644-.592-1.13-1.063-1.129s-.665.473-.505,1.132.586,1.13,1.063,1.129.664-.478.505-1.132" transform="translate(-796.994 -924.889)" fill="#2f539b"></path><path id="Trazado_2808" data-name="Trazado 2808" d="M1415.351,1196.813c-.25-1.029.2-1.836,1.155-1.838a2.244,2.244,0,0,1,2.033,1.833c.25,1.029-.2,1.836-1.155,1.838a2.233,2.233,0,0,1-2.033-1.832m2.378,0c-.156-.644-.592-1.13-1.063-1.129s-.665.473-.5,1.132.586,1.13,1.063,1.129.664-.478.505-1.132" transform="translate(-1095.436 -924.917)" fill="#2f539b"></path><path id="Trazado_2809" data-name="Trazado 2809" d="M1436.444,1196.778c-.249-1.029.2-1.836,1.155-1.838a2.243,2.243,0,0,1,2.033,1.832c.249,1.029-.2,1.836-1.155,1.838a2.234,2.234,0,0,1-2.033-1.832m2.378,0c-.156-.644-.592-1.13-1.063-1.129s-.665.473-.505,1.132.586,1.13,1.063,1.129.664-.478.505-1.132" transform="translate(-1111.763 -924.889)" fill="#2f539b"></path></g></g></g></svg>