<svg xmlns="http://www.w3.org/2000/svg" xmlns:xlink="http://www.w3.org/1999/xlink" width="70" height="70" viewBox="0 0 70 70"><defs><clipPath id="clip-path"><rect id="Rect&#xE1;ngulo_1758" data-name="Rect&#xE1;ngulo 1758" width="35" height="28.576" fill="#fff"></rect></clipPath></defs><g id="tarjetas" transform="translate(-4887 329)"><circle id="Elipse_1" data-name="Elipse 1" cx="35" cy="35" r="35" transform="translate(4887 -329)" fill="#3728ae"></circle><g id="Grupo_472" data-name="Grupo 472" transform="translate(4905 -308)"><g id="Grupo_471" data-name="Grupo 471" clip-path="url(#clip-path)"><path id="Trazado_2048" data-name="Trazado 2048" d="M35,8.135c-.065.551-.141,1.1-.193,1.655q-.447,4.726-.885,9.453c-.223,2.392-.462,4.782-.66,7.176a2.409,2.409,0,0,1-2.774,2.14q-5.751-.648-11.5-1.295-6.532-.738-13.063-1.48c-.791-.09-1.586-.162-2.372-.285a2.215,2.215,0,0,1-1.861-1.992.507.507,0,0,0-.232-.348A2.356,2.356,0,0,1,0,20.884c0-1.891,0-3.782,0-5.672Q0,8.907,0,2.6A2.374,2.374,0,0,1,2.613,0H28.959a2.335,2.335,0,0,1,2.446,1.768,3.8,3.8,0,0,1,.086.88c.012.717.019,1.436,0,2.152-.009.289.1.371.363.39.374.028.747.079,1.118.137A2.333,2.333,0,0,1,34.942,7.2.571.571,0,0,0,35,7.314ZM1.165,8.763v.378q0,5.792,0,11.583c0,1.009.42,1.429,1.432,1.429h26.31c.989,0,1.42-.425,1.42-1.409q0-5.809,0-11.617V8.763ZM2.9,23.319a1.125,1.125,0,0,0,1.078,1.066c.655.085,1.312.148,1.968.221l6.958.781,7.025.794,6.38.722c1.471.166,2.94.341,4.412.5a1.165,1.165,0,0,0,1.356-1.115c.082-.77.149-1.541.221-2.312q.328-3.486.654-6.972.293-3.129.586-6.258c.1-1.043.2-2.085.292-3.129A1.1,1.1,0,0,0,33.01,6.39c-.486-.086-.985-.1-1.514-.149v.483c0,4.659.006,9.319-.011,13.978a3.182,3.182,0,0,1-.25,1.287,2.3,2.3,0,0,1-2.3,1.334q-12.8-.01-25.6,0ZM1.183,7.559H30.3V4.107H1.183ZM1.169,2.921H29.839a2.294,2.294,0,0,1,.239,0c.2.021.247-.072.254-.259a1.262,1.262,0,0,0-1.444-1.5H2.606c-.1,0-.205,0-.308,0A1.171,1.171,0,0,0,1.171,2.284c-.013.192,0,.386,0,.637" transform="translate(0 0)" fill="#fff"></path><path id="Trazado_2049" data-name="Trazado 2049" d="M216.334,163.017H211.9c-.621,0-.8-.17-.8-.785q-.005-2.424,0-4.848c0-.594.189-.783.774-.783q4.473,0,8.946,0c.6,0,.779.184.779.774q0,2.441,0,4.883c0,.576-.181.758-.753.759q-2.254,0-4.507,0m4.069-1.18V157.79a.932.932,0,0,0-.126-.021c-2.584,0-5.168,0-7.752-.007-.261,0-.262.136-.261.322,0,1.161,0,2.322,0,3.483,0,.087.016.173.026.27Z" transform="translate(-193.021 -143.193)" fill="#fff"></path><path id="Trazado_2050" data-name="Trazado 2050" d="M31.693,157.772q-1.844,0-3.688,0c-.313,0-.561-.088-.65-.426a.547.547,0,0,1,.411-.7,1.636,1.636,0,0,1,.372-.035q3.569,0,7.137,0a1.635,1.635,0,0,1,.371.038.57.57,0,0,1-.062,1.112,3.457,3.457,0,0,1-.443.015H31.693" transform="translate(-24.993 -143.198)" fill="#fff"></path><path id="Trazado_2051" data-name="Trazado 2051" d="M30.177,130.535c-.729,0-1.458,0-2.187,0-.455,0-.694-.2-.7-.57s.241-.591.683-.592q2.238-.007,4.476,0c.433,0,.653.207.657.574s-.222.584-.674.587c-.752.005-1.5,0-2.255,0" transform="translate(-24.953 -118.292)" fill="#fff"></path><path id="Trazado_2052" data-name="Trazado 2052" d="M112.026,130.539c-.729,0-1.458,0-2.187,0-.463,0-.688-.192-.693-.568s.226-.594.706-.595q2.2-.006,4.407,0c.45,0,.7.211.7.573s-.247.587-.717.589c-.74,0-1.481,0-2.221,0" transform="translate(-99.802 -118.297)" fill="#fff"></path><path id="Trazado_2053" data-name="Trazado 2053" d="M144.527,157.84c-.3,0-.591.011-.885,0a.535.535,0,0,1-.551-.533.524.524,0,0,1,.484-.593c.645-.03,1.293-.03,1.937,0a.523.523,0,0,1,.485.592.546.546,0,0,1-.55.538c-.023,0-.045,0-.068,0h-.851v0" transform="translate(-130.838 -143.274)" fill="#fff"></path></g></g></g></svg>