<svg xmlns="http://www.w3.org/2000/svg" xmlns:xlink="http://www.w3.org/1999/xlink" width="70" height="70" viewBox="0 0 70 70"><defs><clipPath id="clip-path"><rect id="Rect&#xE1;ngulo_495" data-name="Rect&#xE1;ngulo 495" width="44.214" height="35" fill="#fff"></rect></clipPath></defs><g id="vehiculo" transform="translate(971 -1070)"><circle id="Elipse_2" data-name="Elipse 2" cx="35" cy="35" r="35" transform="translate(-971 1070)" fill="#3728ae"></circle><g id="Grupo_334" data-name="Grupo 334" transform="translate(-958 1088)"><g id="Grupo_333" data-name="Grupo 333" clip-path="url(#clip-path)"><path id="Trazado_344" data-name="Trazado 344" d="M0,31.83c.487-1.365.981-2.727,1.459-4.094Q2.738,24.072,4,20.4A1.3,1.3,0,0,1,5.04,19.38c.085-.014.181-.162.214-.266.152-.479.3-.961.41-1.451a.944.944,0,0,0-.086-.567c-.612-1.269-1.246-2.527-1.867-3.792A4.547,4.547,0,0,1,5.6,7.067,9.654,9.654,0,0,0,7.062,5.8a2.258,2.258,0,0,1,3.4-.186c.313-.347.62-.7.943-1.045A14.456,14.456,0,0,1,15.628,1.48c.149-.072.365-.168.482-.112.211.1.489.291.521.48a.921.921,0,0,1-.286.685,3.645,3.645,0,0,1-.787.436,13.675,13.675,0,0,0-4.215,3.647.545.545,0,0,0-.082.657c.233.474.426.969.647,1.483,2.477-3.613,5.794-5.723,10.2-5.724s7.718,2.1,10.208,5.722c.249-.575.506-1.145.733-1.725.033-.084-.053-.242-.124-.334A13.357,13.357,0,0,0,24.037,1.42a12.973,12.973,0,0,0-4.762.162c-.056.012-.114.017-.171.025-.466.068-.786-.118-.859-.5a.635.635,0,0,1,.6-.751A24.136,24.136,0,0,1,22.4,0,14.517,14.517,0,0,1,33.541,5.373c.047.055.093.109.142.162a1.067,1.067,0,0,0,.089.074c.06-.041.13-.081.192-.131a2.171,2.171,0,0,1,2.915.056c.8.675,1.607,1.341,2.433,1.983A4.472,4.472,0,0,1,40.693,12.9c-.626,1.388-1.326,2.744-2.01,4.106a.92.92,0,0,0-.081.817c.09.225.131.47.2.7.13.434.155.907.786,1.013.219.037.463.4.555.657q2.026,5.754,4.008,11.524a.661.661,0,0,1-.355.926c-.37.138-.707-.06-.872-.535q-1.9-5.456-3.793-10.914c-.047-.135-.1-.268-.17-.46l-5.4,1.871c.058.19.1.353.157.511Q35.58,28.48,37.44,33.835a2.394,2.394,0,0,1,.122.368.609.609,0,0,1-.42.751.58.58,0,0,1-.783-.34c-.162-.367-.28-.754-.412-1.134q-1.415-4.072-2.829-8.145c-.045-.131-.1-.259-.145-.382-.645.555-1.266,1.111-1.91,1.637-.531.434-.931.444-1.195.084s-.124-.657.394-1.1c.676-.58,1.308-1.21,1.969-1.808a.493.493,0,0,0,.124-.645,1.2,1.2,0,0,1,.2-1.438.36.36,0,0,0,.042-.3c-.059-.206-.153-.4-.258-.664a11.629,11.629,0,0,1-10.218,5.826,11.609,11.609,0,0,1-10.213-5.81c-.168.412-.5.729-.067,1.185a1.009,1.009,0,0,1,.053,1.145.582.582,0,0,0,.124.721,13.531,13.531,0,0,0,15.224,3.518c.08-.033.158-.07.24-.1a.643.643,0,0,1,.859.35.6.6,0,0,1-.382.837,19.959,19.959,0,0,1-2.916.906,14.6,14.6,0,0,1-13.523-4.158c-.071-.069-.145-.134-.257-.238-.393,1.129-.775,2.221-1.154,3.313q-1.046,3.014-2.09,6.029c-.033.1-.063.192-.1.284a.641.641,0,0,1-.824.427.63.63,0,0,1-.388-.872c.369-1.089.751-2.173,1.128-3.259q1.343-3.869,2.686-7.739c.051-.146.087-.3.141-.479L5.282,20.741c-.064.155-.123.281-.169.412Q3.246,26.529,1.382,31.906c-.014.041-.029.081-.042.122-.094.317-.233.6-.6.655-.354.056-.552-.175-.737-.422V31.83M30.912,9a1.49,1.49,0,0,0-.967,2.166q1.213,3.066,2.435,6.13c.5,1.267,1,2.535,1.519,3.833,1.246-.433,2.466-.851,3.678-1.292a.4.4,0,0,0,.147-.35c-.132-.544-.283-1.085-.462-1.616a1.339,1.339,0,0,1,.1-1.111c.723-1.422,1.443-2.846,2.118-4.291a3.225,3.225,0,0,0-1.02-3.973c-.788-.6-1.55-1.227-2.3-1.868-.7-.6-1.294-.492-1.657.35-.467,1.082-.933,2.164-1.389,3.251a.821.821,0,0,1-.717.6.8.8,0,0,1-.774-.518c-.226-.432-.463-.857-.707-1.307M10.317,21.117c.051-.1.086-.166.112-.232q1.95-4.907,3.9-9.815A1.474,1.474,0,0,0,13.316,9c-.215.4-.438.8-.647,1.2-.173.336-.38.629-.8.621-.443-.008-.635-.324-.789-.689q-.693-1.649-1.406-3.29A.848.848,0,0,0,8.6,6.284a1.829,1.829,0,0,0-.53.357A14.439,14.439,0,0,1,6.307,8.148a3.3,3.3,0,0,0-1.425,4.6C5.55,14.1,6.216,15.459,6.9,16.805a1.223,1.223,0,0,1,.095.99c-.206.639-.374,1.291-.567,1.968l3.893,1.353m5.144-9.253a27.133,27.133,0,0,1,13.35.006,2.847,2.847,0,0,1,1.2-3.931,10.374,10.374,0,0,0-15.767.026c1.486,1,1.693,1.657,1.215,3.9m6.632.426c-.968.066-1.958.132-2.947.2a1.35,1.35,0,0,0-1.116.706,2.3,2.3,0,0,0-.341,1.484c.091.756.179,1.514.315,2.262a2.5,2.5,0,0,0,2.513,2.116c1.078.016,2.158.017,3.236,0a2.5,2.5,0,0,0,2.454-2.027,5.441,5.441,0,0,0,.106-.637,16.822,16.822,0,0,0,.2-2.267,1.59,1.59,0,0,0-1.467-1.637c-.974-.08-1.95-.134-2.951-.2M19.5,24.949c-.275-1.311-.545-2.529-.783-3.754a2.742,2.742,0,0,0-1.086-2.128,1.81,1.81,0,0,0-.57-.3c-1.165-.184-2.333-.344-3.5-.5-.714-.092-.725-.082-.93.6a.656.656,0,0,0,.043.439,11.413,11.413,0,0,0,.668,1.206A10.468,10.468,0,0,0,19.5,24.949m5.228,0a10.645,10.645,0,0,0,6.685-5.291,1.174,1.174,0,0,0-.007-1.276.4.4,0,0,0-.319-.164c-1.34.172-2.679.361-4.017.551a.583.583,0,0,0-.311.108,2.742,2.742,0,0,0-1.174,1.947,3.9,3.9,0,0,1-.149.76l-.708,3.366m-4.87-4.6c.33,1.57.649,3.1.982,4.627a.359.359,0,0,0,.25.227c.688.018,1.377.015,2.065,0a.322.322,0,0,0,.228-.2c.335-1.541.657-3.085.986-4.651Zm7.682-7.405a4.045,4.045,0,0,1,.261,2.22c-.1.732-.214,1.462-.327,2.23.6-.085,1.139-.162,1.679-.237s1.1-.149,1.682-.229c-.274-.7-.526-1.336-.779-1.976-.649-1.644-.65-1.644-2.4-2.024a.707.707,0,0,0-.113.015M16.725,17.4c-.078-1.5-.7-2.958-.011-4.505-.648.178-1.2.325-1.745.485a.373.373,0,0,0-.223.173c-.453,1.114-.895,2.233-1.354,3.387l3.333.461" transform="translate(0 0)" fill="#fff"></path><path id="Trazado_345" data-name="Trazado 345" d="M176.377,121.183a1.981,1.981,0,0,1-1.953-2,1.985,1.985,0,1,1,1.953,2m.03-1.3a.683.683,0,0,0,.689-.679.687.687,0,1,0-1.375,0,.681.681,0,0,0,.685.683" transform="translate(-154.293 -103.687)" fill="#fff"></path></g></g></g></svg>